<svg width="308" height="77" viewBox="0 0 308 77" fill="none" xmlns="http://www.w3.org/2000/svg">
<g filter="url(#filter0_b_1701_562)">
<rect width="307.376" height="76.6543" rx="30.3581" fill="#FFB23E"/>
<path d="M125.315 3.41028H165.465L89.0502 72.475H46.3096L125.315 3.41028Z" fill="#F5EA83"/>
<path d="M188.308 3.41028H228.458L152.043 72.475H109.302L188.308 3.41028Z" fill="#F5EA83"/>
<path d="M113.003 48.5287V29.4031H122.784C125.298 29.4031 127.174 29.8676 128.413 30.7966C129.651 31.7073 130.271 32.9095 130.271 34.4031C130.271 35.3867 130.006 36.2519 129.478 36.9987C128.968 37.7273 128.24 38.3102 127.292 38.7474C126.363 39.1663 125.252 39.3758 123.959 39.3758L124.506 38.0643C125.853 38.0643 127.028 38.2738 128.03 38.6927C129.032 39.0934 129.806 39.6854 130.353 40.4687C130.917 41.2337 131.2 42.1718 131.2 43.2829C131.2 44.9404 130.526 46.2337 129.178 47.1626C127.848 48.0734 125.899 48.5287 123.331 48.5287H113.003ZM118.358 44.6217H122.894C123.823 44.6217 124.524 44.4668 124.997 44.1572C125.489 43.8293 125.735 43.3375 125.735 42.6818C125.735 42.026 125.489 41.5433 124.997 41.2337C124.524 40.9058 123.823 40.7419 122.894 40.7419H117.976V36.9987H122.074C122.985 36.9987 123.668 36.8439 124.123 36.5343C124.578 36.2246 124.806 35.7601 124.806 35.1408C124.806 34.5215 124.578 34.0661 124.123 33.7747C123.668 33.465 122.985 33.3102 122.074 33.3102H118.358V44.6217ZM131.706 48.5287L140.149 29.4031H145.477L153.947 48.5287H148.318L141.706 32.0534H143.838L137.226 48.5287H131.706ZM136.324 44.8129L137.717 40.8239H147.062L148.455 44.8129H136.324ZM164.749 48.9113C163.237 48.9113 161.835 48.6745 160.542 48.2009C159.267 47.7091 158.155 47.0169 157.208 46.1244C156.279 45.2319 155.551 44.1845 155.022 42.9823C154.494 41.7619 154.23 40.4231 154.23 38.9659C154.23 37.5087 154.494 36.1791 155.022 34.9769C155.551 33.7565 156.279 32.7 157.208 31.8075C158.155 30.915 159.267 30.2319 160.542 29.7583C161.835 29.2665 163.237 29.0206 164.749 29.0206C166.516 29.0206 168.092 29.3303 169.476 29.9496C170.879 30.5689 172.044 31.4614 172.973 32.6272L169.531 35.7419C168.911 35.0133 168.228 34.4578 167.481 34.0752C166.753 33.6927 165.933 33.5015 165.022 33.5015C164.239 33.5015 163.52 33.629 162.864 33.884C162.208 34.139 161.644 34.5124 161.17 35.0042C160.715 35.4778 160.35 36.0516 160.077 36.7255C159.822 37.3995 159.695 38.1463 159.695 38.9659C159.695 39.7856 159.822 40.5324 160.077 41.2064C160.35 41.8803 160.715 42.4632 161.17 42.955C161.644 43.4286 162.208 43.7929 162.864 44.0479C163.52 44.3029 164.239 44.4304 165.022 44.4304C165.933 44.4304 166.753 44.2391 167.481 43.8566C168.228 43.4741 168.911 42.9186 169.531 42.19L172.973 45.3047C172.044 46.4523 170.879 47.3448 169.476 47.9823C168.092 48.6016 166.516 48.9113 164.749 48.9113ZM180.221 44.2938L179.921 38.2282L188.145 29.4031H194.101L185.904 38.2829L182.899 41.4249L180.221 44.2938ZM175.385 48.5287V29.4031H180.74V48.5287H175.385ZM188.227 48.5287L181.997 40.6326L185.522 36.8621L194.511 48.5287H188.227Z" fill="#A61E00"/>
</g>
<defs>
<filter id="filter0_b_1701_562" x="-4.99083" y="-4.99083" width="317.358" height="86.6359" filterUnits="userSpaceOnUse" color-interpolation-filters="sRGB">
<feFlood flood-opacity="0" result="BackgroundImageFix"/>
<feGaussianBlur in="BackgroundImageFix" stdDeviation="2.49541"/>
<feComposite in2="SourceAlpha" operator="in" result="effect1_backgroundBlur_1701_562"/>
<feBlend mode="normal" in="SourceGraphic" in2="effect1_backgroundBlur_1701_562" result="shape"/>
</filter>
</defs>
</svg>
