<svg width="1511" height="978" viewBox="0 0 1511 978" fill="none" xmlns="http://www.w3.org/2000/svg">
<g clip-path="url(#clip0_2379_104)">
<path d="M47.176 71.408L48.3052 65.7334L50.0618 71.408H47.176Z" fill="#562411"/>
<path d="M79.4265 71.4089L80.3884 63.9268L83.1487 71.7451L84.2361 67.8359L85.7418 71.4089L81.3085 73.4685L79.4265 71.4089Z" fill="#562411"/>
<path d="M2093.8 118H-505.185V869H-393.713V414.979C-393.713 327.851 -310.611 257.192 -148.58 257.192H204.543C366.37 257.192 451.729 327.851 451.729 414.979V869H1046.69V414.979C1046.69 327.851 1177.86 257.192 1339.89 257.192H1689.33C1851.16 257.192 1982.53 327.851 1982.53 414.979V869H2094V118H2093.8Z" fill="#A977AB" fill-opacity="0.4"/>
<path d="M1727.95 874H0.12915V978H1727.95V874Z" fill="#746287" fill-opacity="0.61"/>
<path d="M209.317 656C207.748 656 206.464 656.86 205.751 658.15H111.622C110.909 656.86 109.625 656 108.056 656C105.774 656 103.92 657.863 103.92 660.157C103.92 662.45 105.774 664.314 108.056 664.314C109.625 664.314 110.909 663.454 111.622 662.164H114.617V666.75V668.04V833.167L158.686 807.509L202.756 833.167V668.04V666.75V662.164H205.751C206.464 663.454 207.748 664.314 209.317 664.314C211.599 664.314 213.453 662.45 213.453 660.157C213.453 657.863 211.599 656 209.317 656ZM198.192 666.894H119.038V662.307H198.192V666.894Z" fill="#746287"/>
<path d="M172.511 752.754H165.38L165.808 704.449L159.247 691.692L152.402 704.305L151.974 752.611H144.7C142.989 752.611 141.562 754.044 141.562 755.764C141.562 757.484 142.989 758.918 144.7 758.918H153.4L153.257 774.542C151.261 776.692 150.833 779.989 152.259 782.569C154.113 786.009 158.392 787.155 161.672 785.292C165.095 783.429 166.236 779.129 164.382 775.832C164.097 775.402 163.811 774.828 163.383 774.542V772.678V771.245V769.095V767.661V765.511V764.078V761.785V760.351V758.918H172.083C173.795 758.918 175.221 757.484 175.221 755.764C175.649 754.188 174.223 752.754 172.511 752.754Z" fill="#B59FB0"/>
<path d="M1386.72 638C1385.15 638 1383.86 638.86 1383.15 640.15H1289.02C1288.31 638.86 1287.02 638 1285.46 638C1283.17 638 1281.32 639.863 1281.32 642.157C1281.32 644.45 1283.17 646.314 1285.46 646.314C1287.02 646.314 1288.31 645.454 1289.02 644.164H1292.02V648.75V650.04V815.167L1336.09 789.509L1380.16 815.167V650.04V648.75V644.164H1383.15C1383.86 645.454 1385.15 646.314 1386.72 646.314C1389 646.314 1390.85 644.45 1390.85 642.157C1390.85 639.863 1389 638 1386.72 638ZM1375.59 648.894H1296.44V644.307H1375.59V648.894Z" fill="#746287"/>
<path d="M1349.9 734.754H1342.77L1343.2 686.449L1336.64 673.692L1329.79 686.305L1329.37 734.611H1322.09C1320.38 734.611 1318.95 736.044 1318.95 737.764C1318.95 739.484 1320.38 740.918 1322.09 740.918H1330.79L1330.65 756.542C1328.65 758.692 1328.22 761.989 1329.65 764.569C1331.5 768.009 1335.78 769.155 1339.06 767.292C1342.49 765.429 1343.63 761.129 1341.77 757.832C1341.49 757.402 1341.2 756.828 1340.77 756.542V754.678V753.245V751.095V749.661V747.511V746.078V743.785V742.351V740.918H1349.47C1351.19 740.918 1352.61 739.484 1352.61 737.764C1353.04 736.188 1351.61 734.754 1349.9 734.754Z" fill="#B59FB0"/>
<path d="M21.3699 129.826H-103.173C-106.509 129.826 -109.289 127.032 -109.289 123.679V67.5197C-109.289 64.1669 -106.509 61.373 -103.173 61.373H21.3699C24.7058 61.373 27.4858 64.1669 27.4858 67.5197V123.679C27.4858 127.032 24.7058 129.826 21.3699 129.826Z" fill="#C3ABC3"/>
<path d="M160.646 129.826H36.103C32.767 129.826 29.9871 127.032 29.9871 123.679V67.5197C29.9871 64.1669 32.767 61.373 36.103 61.373H160.646C163.982 61.373 166.762 64.1669 166.762 67.5197V123.679C166.762 127.032 164.121 129.826 160.646 129.826Z" fill="#C3ABC3"/>
<path d="M299.914 129.826H175.371C172.035 129.826 169.255 127.032 169.255 123.679V67.5197C169.255 64.1669 172.035 61.373 175.371 61.373H299.914C303.25 61.373 306.03 64.1669 306.03 67.5197V123.679C306.169 127.032 303.389 129.826 299.914 129.826Z" fill="#C3ABC3"/>
<path d="M439.207 129.826H314.664C311.328 129.826 308.548 127.032 308.548 123.679V67.5197C308.548 64.1669 311.328 61.373 314.664 61.373H439.207C442.543 61.373 445.323 64.1669 445.323 67.5197V123.679C445.462 127.032 442.682 129.826 439.207 129.826Z" fill="#C3ABC3"/>
<path d="M578.626 129.826H454.083C450.747 129.826 447.967 127.032 447.967 123.679V67.5197C447.967 64.1669 450.747 61.373 454.083 61.373H578.626C581.962 61.373 584.742 64.1669 584.742 67.5197V123.679C584.742 127.032 581.962 129.826 578.626 129.826Z" fill="#C3ABC3"/>
<path d="M717.894 129.826H593.351C590.015 129.826 587.235 127.032 587.235 123.679V67.5197C587.235 64.1669 590.015 61.373 593.351 61.373H717.894C721.23 61.373 724.01 64.1669 724.01 67.5197V123.679C724.01 127.032 721.23 129.826 717.894 129.826Z" fill="#C3ABC3"/>
<path d="M857.171 129.826H732.628C729.292 129.826 726.512 127.032 726.512 123.679V67.5197C726.512 64.1669 729.292 61.373 732.628 61.373H857.171C860.507 61.373 863.287 64.1669 863.287 67.5197V123.679C863.287 127.032 860.507 129.826 857.171 129.826Z" fill="#C3ABC3"/>
<path d="M996.439 129.826H871.896C868.56 129.826 865.78 127.032 865.78 123.679V67.5197C865.78 64.1669 868.56 61.373 871.896 61.373H996.439C999.775 61.373 1002.55 64.1669 1002.55 67.5197V123.679C1002.55 127.032 999.914 129.826 996.439 129.826Z" fill="#C3ABC3"/>
<path d="M1135.73 129.826H1011.19C1007.85 129.826 1005.07 127.032 1005.07 123.679V67.5197C1005.07 64.1669 1007.85 61.373 1011.19 61.373H1135.73C1139.07 61.373 1141.85 64.1669 1141.85 67.5197V123.679C1141.99 127.032 1139.21 129.826 1135.73 129.826Z" fill="#C3ABC3"/>
<path d="M1275 129.826H1150.46C1147.12 129.826 1144.34 127.032 1144.34 123.679V67.5197C1144.34 64.1669 1147.12 61.373 1150.46 61.373H1275C1278.34 61.373 1281.12 64.1669 1281.12 67.5197V123.679C1281.25 127.032 1278.47 129.826 1275 129.826Z" fill="#C3ABC3"/>
<path d="M1414.43 129.826H1289.88C1286.55 129.826 1283.77 127.032 1283.77 123.679V67.5197C1283.77 64.1669 1286.55 61.373 1289.88 61.373H1414.43C1417.76 61.373 1420.54 64.1669 1420.54 67.5197V123.679C1420.54 127.032 1417.76 129.826 1414.43 129.826Z" fill="#C3ABC3"/>
<path d="M1553.7 129.826H1429.15C1425.82 129.826 1423.04 127.032 1423.04 123.679V67.5197C1423.04 64.1669 1425.82 61.373 1429.15 61.373H1553.7C1557.03 61.373 1559.81 64.1669 1559.81 67.5197V123.679C1559.81 127.032 1557.03 129.826 1553.7 129.826Z" fill="#C3ABC3"/>
<path d="M188.442 55.1715H88.0626C85.3739 55.1715 83.1333 52.9196 83.1333 50.2173V4.9542C83.1333 2.25192 85.3739 0 88.0626 0H188.442C191.13 0 193.371 2.25192 193.371 4.9542V50.2173C193.483 53.0322 191.242 55.1715 188.442 55.1715Z" fill="#C3ABC3"/>
<path d="M406.944 56.3111H306.565C303.877 56.3111 301.636 54.0592 301.636 51.3569V6.09385C301.636 3.39157 303.877 1.13965 306.565 1.13965H406.944C409.633 1.13965 411.874 3.39157 411.874 6.09385V51.3569C411.874 54.1718 409.633 56.3111 406.944 56.3111Z" fill="#C3ABC3"/>
<path d="M627.522 56.3111H527.143C524.454 56.3111 522.214 54.0592 522.214 51.3569V6.09385C522.214 3.39157 524.454 1.13965 527.143 1.13965H627.522C630.211 1.13965 632.451 3.39157 632.451 6.09385V51.3569C632.451 54.1718 630.211 56.3111 627.522 56.3111Z" fill="#C3ABC3"/>
<path d="M848.115 56.3111H747.736C745.047 56.3111 742.807 54.0592 742.807 51.3569V6.09385C742.807 3.39157 745.047 1.13965 747.736 1.13965H848.115C850.804 1.13965 853.044 3.39157 853.044 6.09385V51.3569C853.044 54.1718 850.804 56.3111 848.115 56.3111Z" fill="#C3ABC3"/>
<path d="M1068.7 56.3111H968.321C965.633 56.3111 963.392 54.0592 963.392 51.3569V6.09385C963.392 3.39157 965.633 1.13965 968.321 1.13965H1068.7C1071.39 1.13965 1073.63 3.39157 1073.63 6.09385V51.3569C1073.74 54.1718 1071.5 56.3111 1068.7 56.3111Z" fill="#C3ABC3"/>
<path d="M1289.4 56.3111H1189.02C1186.33 56.3111 1184.09 54.0592 1184.09 51.3569V6.09385C1184.09 3.39157 1186.33 1.13965 1189.02 1.13965H1289.4C1292.09 1.13965 1294.33 3.39157 1294.33 6.09385V51.3569C1294.33 54.1718 1292.2 56.3111 1289.4 56.3111Z" fill="#C3ABC3"/>
<path d="M91.7414 996.972H-35.405C-38.8107 996.972 -41.6488 994.22 -41.6488 990.917V935.592C-41.6488 932.289 -38.8107 929.536 -35.405 929.536H91.7414C95.1472 929.536 97.9852 932.289 97.9852 935.592V990.917C97.9852 994.22 95.1472 996.972 91.7414 996.972Z" fill="#C3ABC3"/>
<path d="M233.929 996.972H106.783C103.377 996.972 100.539 994.22 100.539 990.917V935.592C100.539 932.289 103.377 929.536 106.783 929.536H233.929C237.335 929.536 240.173 932.289 240.173 935.592V990.917C240.173 994.22 237.477 996.972 233.929 996.972Z" fill="#C3ABC3"/>
<path d="M376.109 996.972H248.963C245.557 996.972 242.719 994.22 242.719 990.917V935.592C242.719 932.289 245.557 929.536 248.963 929.536H376.109C379.515 929.536 382.353 932.289 382.353 935.592V990.917C382.495 994.22 379.657 996.972 376.109 996.972Z" fill="#C3ABC3"/>
<path d="M518.305 996.972H391.159C387.753 996.972 384.915 994.22 384.915 990.917V935.592C384.915 932.289 387.753 929.536 391.159 929.536H518.305C521.711 929.536 524.549 932.289 524.549 935.592V990.917C524.691 994.22 521.853 996.972 518.305 996.972Z" fill="#C3ABC3"/>
<path d="M660.646 996.972H533.499C530.094 996.972 527.256 994.22 527.256 990.917V935.592C527.256 932.289 530.094 929.536 533.499 929.536H660.646C664.052 929.536 666.89 932.289 666.89 935.592V990.917C666.89 994.22 664.052 996.972 660.646 996.972Z" fill="#C3ABC3"/>
<path d="M802.826 996.972H675.679C672.274 996.972 669.435 994.22 669.435 990.917V935.592C669.435 932.289 672.274 929.536 675.679 929.536H802.826C806.231 929.536 809.069 932.289 809.069 935.592V990.917C809.069 994.22 806.231 996.972 802.826 996.972Z" fill="#C3ABC3"/>
<path d="M945.014 996.972H817.867C814.461 996.972 811.623 994.22 811.623 990.917V935.592C811.623 932.289 814.461 929.536 817.867 929.536H945.014C948.419 929.536 951.257 932.289 951.257 935.592V990.917C951.257 994.22 948.419 996.972 945.014 996.972Z" fill="#C3ABC3"/>
<path d="M1087.19 996.972H960.047C956.641 996.972 953.803 994.22 953.803 990.917V935.592C953.803 932.289 956.641 929.536 960.047 929.536H1087.19C1090.6 929.536 1093.44 932.289 1093.44 935.592V990.917C1093.44 994.22 1090.74 996.972 1087.19 996.972Z" fill="#C3ABC3"/>
<path d="M1229.39 996.972H1102.24C1098.84 996.972 1096 994.22 1096 990.917V935.592C1096 932.289 1098.84 929.536 1102.24 929.536H1229.39C1232.79 929.536 1235.63 932.289 1235.63 935.592V990.917C1235.77 994.22 1232.94 996.972 1229.39 996.972Z" fill="#C3ABC3"/>
<path d="M1371.57 996.972H1244.42C1241.02 996.972 1238.18 994.22 1238.18 990.917V935.592C1238.18 932.289 1241.02 929.536 1244.42 929.536H1371.57C1374.97 929.536 1377.81 932.289 1377.81 935.592V990.917C1377.95 994.22 1375.12 996.972 1371.57 996.972Z" fill="#C3ABC3"/>
<path d="M1513.92 996.972H1386.77C1383.37 996.972 1380.53 994.22 1380.53 990.917V935.592C1380.53 932.289 1383.37 929.536 1386.77 929.536H1513.92C1517.32 929.536 1520.16 932.289 1520.16 935.592V990.917C1520.16 994.22 1517.32 996.972 1513.92 996.972Z" fill="#C3ABC3"/>
<path d="M1519.92 57.1715H1419.54C1416.85 57.1715 1414.61 54.9196 1414.61 52.2173V6.9542C1414.61 4.25192 1416.85 2 1419.54 2H1519.92C1522.61 2 1524.85 4.25192 1524.85 6.9542V52.2173C1524.85 55.0322 1522.61 57.1715 1519.92 57.1715Z" fill="#C3ABC3"/>
<path d="M391.336 740.949C393.824 740.807 395.726 738.664 395.584 736.162C395.443 733.661 393.311 731.749 390.823 731.892C388.335 732.034 386.433 734.177 386.575 736.678C386.717 739.179 388.848 741.091 391.336 740.949Z" fill="#D3A1A1"/>
<path d="M386.882 734.432C389.37 734.29 391.272 732.147 391.13 729.646C390.989 727.145 388.857 725.233 386.369 725.375C383.881 725.518 381.979 727.661 382.121 730.162C382.263 732.663 384.394 734.575 386.882 734.432Z" fill="#D3A1A1"/>
<path d="M398.193 744.654C400.681 744.512 402.583 742.369 402.441 739.868C402.3 737.367 400.168 735.455 397.68 735.597C395.192 735.74 393.29 737.883 393.432 740.384C393.574 742.885 395.705 744.797 398.193 744.654Z" fill="#D3A1A1"/>
<path d="M458.538 766.588C461.026 766.445 462.928 764.302 462.787 761.801C462.645 759.3 460.513 757.388 458.025 757.53C455.538 757.673 453.636 759.816 453.777 762.317C453.919 764.818 456.051 766.73 458.538 766.588Z" fill="#D3A1A1"/>
<path d="M466.147 764.64C468.635 764.497 470.537 762.354 470.395 759.853C470.253 757.352 468.122 755.44 465.634 755.582C463.146 755.725 461.244 757.868 461.386 760.369C461.527 762.87 463.659 764.782 466.147 764.64Z" fill="#D3A1A1"/>
<path d="M450.984 764.705C453.472 764.563 455.374 762.42 455.233 759.919C455.091 757.417 452.959 755.506 450.471 755.648C447.984 755.79 446.082 757.933 446.223 760.434C446.365 762.935 448.497 764.848 450.984 764.705Z" fill="#D3A1A1"/>
<path d="M215.49 781.036C218.32 780.874 220.483 778.437 220.322 775.593C220.16 772.748 217.736 770.574 214.907 770.736C212.078 770.898 209.915 773.335 210.076 776.179C210.237 779.024 212.661 781.198 215.49 781.036Z" fill="#C6824B"/>
<path d="M220.939 773.954C223.769 773.792 225.932 771.355 225.771 768.51C225.609 765.666 223.185 763.491 220.356 763.653C217.527 763.815 215.364 766.253 215.525 769.097C215.686 771.941 218.11 774.116 220.939 773.954Z" fill="#C6824B"/>
<path d="M207.469 784.791C210.298 784.629 212.461 782.192 212.3 779.348C212.139 776.504 209.715 774.329 206.886 774.491C204.056 774.653 201.893 777.09 202.054 779.934C202.216 782.779 204.64 784.953 207.469 784.791Z" fill="#C6824B"/>
<path d="M172.709 684.424L175.382 686.231C175.662 686.482 176.103 686.457 176.451 686.348L179.483 685.105C180.351 684.788 181.279 685.537 180.976 686.445L180.092 689.614C180.024 689.974 180.044 690.329 180.329 690.669L182.418 693.133C182.994 693.902 182.524 694.998 181.552 695.053L178.279 695.152C177.926 695.172 177.583 695.37 177.333 695.651L175.629 698.421C175.144 699.251 173.893 699.055 173.577 698.183L172.43 695.13C172.321 694.78 172.041 694.529 171.678 694.371L168.531 693.572C167.633 693.356 167.386 692.123 168.15 691.545L170.695 689.528C170.949 689.335 171.194 688.965 171.169 688.521L170.983 685.236C170.855 684.53 171.879 683.848 172.709 684.424Z" fill="#FFB23E"/>
<path d="M172.753 710.256L174.232 711.33C174.419 711.497 174.595 711.487 174.855 711.383L176.591 710.749C177.111 710.541 177.583 711.049 177.437 711.592L176.914 713.314C176.836 713.497 176.851 713.763 177.038 713.931L178.183 715.379C178.473 715.808 178.243 716.445 177.708 716.387L175.848 716.404C175.672 716.414 175.412 716.518 175.334 716.701L174.266 718.187C173.938 718.651 173.309 718.509 173.102 717.987L172.56 716.236C172.462 716.063 172.363 715.891 172.093 715.817L170.38 715.292C169.84 715.145 169.711 714.439 170.226 714.142L171.673 713.08C171.844 712.981 171.922 712.798 171.907 712.532L171.89 710.662C171.693 710.317 172.291 709.926 172.753 710.256Z" fill="#FFB23E"/>
<path d="M211.681 690.123L213.26 692.973C213.457 693.318 213.737 693.569 214.179 693.544L217.389 693.894C218.37 694.016 218.789 695.15 218.118 695.812L215.859 698.169C215.609 698.45 215.452 698.816 215.561 699.166L216.183 702.337C216.415 703.304 215.391 703.986 214.571 703.588L211.654 702.151C211.29 701.994 210.937 702.014 210.594 702.212L207.759 703.799C206.901 704.294 205.978 703.634 206.099 702.647L206.536 699.415C206.605 699.055 206.496 698.705 206.216 698.454L203.789 696.276C203.042 695.607 203.418 694.427 204.385 694.282L207.539 693.656C207.888 693.547 208.231 693.35 208.387 692.984L209.728 690.057C210.041 689.326 211.283 689.344 211.681 690.123Z" fill="#FFB23E"/>
<path d="M196.207 670.608L196.749 672.358C196.847 672.531 196.946 672.703 197.216 672.777L199.018 673.297C199.558 673.445 199.686 674.15 199.26 674.442L197.813 675.504C197.642 675.603 197.569 675.875 197.579 676.052L197.684 677.917C197.714 678.45 197.111 678.751 196.655 678.51L195.176 677.437C194.994 677.358 194.813 677.28 194.553 677.384L192.816 678.017C192.296 678.225 191.825 677.718 191.971 677.175L192.494 675.452C192.572 675.27 192.557 675.003 192.37 674.836L191.225 673.387C190.935 672.958 191.164 672.322 191.699 672.38L193.559 672.363C193.736 672.352 193.996 672.249 194.074 672.066L195.142 670.579C195.372 669.943 196 670.085 196.207 670.608Z" fill="#FFB23E"/>
<path d="M223.244 634.76L224.722 635.834C224.909 636.001 225.086 635.991 225.346 635.887L227.082 635.253C227.602 635.045 228.074 635.553 227.927 636.096L227.405 637.818C227.326 638.001 227.341 638.267 227.528 638.435L228.674 639.883C228.964 640.312 228.734 640.949 228.199 640.891L226.339 640.908C226.162 640.918 225.903 641.022 225.824 641.205L224.756 642.691C224.428 643.155 223.8 643.013 223.593 642.49L223.051 640.74C222.953 640.567 222.854 640.395 222.584 640.321L220.871 639.796C220.331 639.648 220.202 638.943 220.717 638.646L222.163 637.584C222.335 637.485 222.413 637.302 222.398 637.036L222.381 635.166C222.179 634.732 222.782 634.43 223.244 634.76Z" fill="#FFB23E"/>
<path d="M394.383 865.135C399.848 867.762 406.455 865.513 409.069 860.019C411.682 854.524 409.444 847.882 403.979 845.255L395.96 841.349L387.459 861.79L394.383 865.135Z" fill="#91BCBB"/>
<path d="M333.331 835.582L387.452 861.792L395.948 841.262L342.922 815.612L333.331 835.582Z" fill="#ACBFBE"/>
<path d="M384.63 860.44L393.264 840.792C393.817 839.603 395.205 839.078 396.384 839.545C397.567 840.101 398.089 841.496 397.625 842.681L388.99 862.328C388.437 863.518 387.049 864.043 385.871 863.576C384.599 863.025 384.077 861.63 384.63 860.44Z" fill="#8BA5A3"/>
<path d="M201.876 865.999C197.23 870.006 196.739 876.983 200.72 881.565C204.706 886.237 211.646 886.73 216.204 882.728L222.964 876.907L207.704 860.944L201.876 865.999Z" fill="#91BCBB"/>
<path d="M253.243 821.637L207.707 860.947L222.971 876.999L267.664 838.451L253.243 821.637Z" fill="#ACBFBE"/>
<path d="M209.976 858.855L224.43 874.686C225.281 875.618 225.278 877.132 224.268 878.081C223.342 878.936 221.835 878.933 220.892 877.918L206.437 862.087C205.587 861.155 205.59 859.641 206.599 858.692C207.614 857.832 209.126 857.924 209.976 858.855Z" fill="#8BA5A3"/>
<path d="M201.088 885.109C202.844 885.008 204.186 883.496 204.086 881.73C203.986 879.965 202.482 878.615 200.725 878.715C198.969 878.816 197.627 880.329 197.727 882.094C197.827 883.86 199.331 885.209 201.088 885.109Z" fill="#91BCBB"/>
<path d="M198.434 880.185C200.19 880.084 201.533 878.571 201.433 876.806C201.333 875.04 199.828 873.691 198.072 873.791C196.316 873.892 194.973 875.405 195.073 877.17C195.173 878.935 196.678 880.285 198.434 880.185Z" fill="#91BCBB"/>
<path d="M205.69 888.142C207.447 888.042 208.789 886.529 208.689 884.763C208.589 882.998 207.084 881.648 205.328 881.749C203.572 881.849 202.23 883.362 202.33 885.128C202.43 886.893 203.934 888.243 205.69 888.142Z" fill="#91BCBB"/>
<path d="M269.208 925.307C276.867 924.868 282.722 918.271 282.286 910.572C281.85 902.872 275.288 896.986 267.629 897.425C259.971 897.863 254.115 904.46 254.552 912.159C254.988 919.859 261.55 925.745 269.208 925.307Z" fill="#91BCBB"/>
<path d="M263.673 927.849C266.063 927.713 267.891 925.654 267.755 923.251C267.619 920.848 265.57 919.011 263.18 919.148C260.79 919.284 258.963 921.343 259.099 923.746C259.235 926.149 261.283 927.986 263.673 927.849Z" fill="#91BCBB"/>
<path d="M257.669 923.384C260.059 923.247 261.887 921.188 261.75 918.785C261.614 916.382 259.566 914.545 257.176 914.682C254.786 914.819 252.958 916.878 253.094 919.281C253.231 921.684 255.279 923.521 257.669 923.384Z" fill="#91BCBB"/>
<path d="M271.187 928.935C273.577 928.798 275.404 926.739 275.268 924.336C275.132 921.933 273.084 920.096 270.694 920.233C268.303 920.37 266.476 922.429 266.612 924.832C266.748 927.235 268.796 929.072 271.187 928.935Z" fill="#91BCBB"/>
<path d="M331.714 921.076C336.418 914.983 335.318 906.212 329.258 901.483C323.198 896.755 314.472 897.861 309.769 903.953C305.066 910.045 306.166 918.817 312.226 923.545C318.286 928.274 327.011 927.168 331.714 921.076Z" fill="#91BCBB"/>
<path d="M329.977 926.945C331.445 925.043 331.102 922.306 329.21 920.83C327.319 919.354 324.596 919.699 323.128 921.601C321.66 923.502 322.003 926.24 323.895 927.715C325.786 929.191 328.509 928.846 329.977 926.945Z" fill="#91BCBB"/>
<path d="M322.687 928.559C324.155 926.658 323.812 923.92 321.92 922.444C320.029 920.969 317.306 921.314 315.838 923.215C314.37 925.117 314.713 927.854 316.605 929.33C318.496 930.806 321.219 930.461 322.687 928.559Z" fill="#91BCBB"/>
<path d="M335.731 921.966C337.199 920.065 336.855 917.327 334.964 915.851C333.073 914.375 330.349 914.721 328.882 916.622C327.414 918.523 327.757 921.261 329.648 922.737C331.54 924.213 334.263 923.867 335.731 921.966Z" fill="#91BCBB"/>
<path d="M362.197 871.166L362.495 842.019L235.44 840.74L235.142 869.887C235.06 874.703 236.028 879.279 237.771 883.456L359.33 884.693C361.135 880.581 362.203 875.976 362.197 871.166Z" fill="#ACBFBE"/>
<path d="M237.774 883.456C242.899 895.723 254.91 904.39 268.921 904.568L327.708 905.211C341.807 905.384 353.912 896.941 359.249 884.787L237.774 883.456Z" fill="#B7D6D6"/>
<path d="M278.851 870.146L230.439 869.621L234.837 845.584L289.723 846.183L289.594 859.553C289.489 865.528 284.706 870.256 278.851 870.146Z" fill="#8BA5A3"/>
<path d="M318.48 870.552L366.892 871.076L362.957 846.982L308.072 846.382L307.943 859.752C307.927 865.722 312.63 870.53 318.48 870.552Z" fill="#8BA5A3"/>
<path d="M381.339 850.738L216.423 849.043L236.1 819.41L362.272 820.739L381.339 850.738Z" fill="#A61E00"/>
<path d="M210.577 636.468L208.317 698.244L275.323 662.516L223.219 629.687C217.802 626.344 210.75 630.133 210.577 636.468Z" fill="#B7D6D6"/>
<path d="M221.494 653.926L224.233 689.76L259.413 670.998L231.385 648.639C227.293 645.22 221.099 648.515 221.494 653.926Z" fill="#DB9EB7"/>
<path d="M392.076 638.371L393.005 700.142L326.748 663.045L379.449 631.344C384.931 628.001 391.979 631.963 392.076 638.371Z" fill="#B7D6D6"/>
<path d="M380.737 655.59L377.273 691.422L342.408 671.949L370.856 650.098C375.185 646.732 381.231 650.217 380.737 655.59Z" fill="#DB9EB7"/>
<path d="M407.626 743.491C408.161 690.343 360.55 646.769 301.283 646.165C242.015 645.561 193.535 688.156 192.999 741.304C192.463 794.451 240.075 838.026 299.342 838.63C358.61 839.234 407.09 796.639 407.626 743.491Z" fill="#ACBFBE"/>
<path d="M370.3 669.995L301.718 601.228L231.717 668.574C245.724 662.427 271.547 658.366 301.075 658.724C330.599 658.994 356.374 663.487 370.3 669.995Z" fill="#ACBFBE"/>
<path d="M301.483 615.852L297.278 619.834L296.833 660.482C298.251 660.49 299.581 660.503 300.999 660.511C302.418 660.519 303.836 660.527 305.171 660.628L305.616 619.981L301.483 615.852Z" fill="#0D3F41"/>
<path d="M318.46 632.429L318.147 661.311C320.37 661.451 322.51 661.684 324.561 661.923L324.839 638.656L318.46 632.429Z" fill="#0D3F41"/>
<path d="M309.074 623.167L308.718 660.692C310.759 660.753 312.806 660.903 314.764 661.059L315.084 629.148L309.074 623.167Z" fill="#0D3F41"/>
<path d="M287.684 628.758L287.365 660.669C289.397 660.552 291.345 660.53 293.47 660.497L293.826 622.972L287.684 628.758Z" fill="#0D3F41"/>
<path d="M267.74 647.538L267.619 662.6C269.729 662.301 271.927 661.997 274.13 661.782L274.308 641.46L267.74 647.538Z" fill="#0D3F41"/>
<path d="M328.212 641.936L328.034 662.258C330.267 662.575 332.412 662.898 334.557 663.221L334.679 648.159L328.212 641.936Z" fill="#0D3F41"/>
<path d="M356.081 669.295L337.978 651.624L337.877 663.923C345.313 665.368 351.529 667.151 356.081 669.295Z" fill="#0D3F41"/>
<path d="M245.878 668.122C250.552 666.162 256.747 664.471 264.205 663.153L264.306 650.854L245.878 668.122Z" fill="#0D3F41"/>
<path d="M277.754 638.145L277.477 661.411C279.592 661.201 281.712 661.08 283.92 660.953L284.233 632.072L277.754 638.145Z" fill="#0D3F41"/>
<path d="M314.688 662.845L318.148 662.915L318.146 661.311C316.988 661.199 315.834 661.176 314.764 661.059L314.688 662.845Z" fill="#8BA5A3"/>
<path d="M349.085 691.253L348.961 707.83C348.919 713.356 344.386 717.802 338.889 717.76C333.393 717.719 328.97 713.161 329.012 707.636L329.269 684.014C325.042 682.919 320.742 682.097 316.275 681.461L315.909 718.809C315.837 726.919 309.29 733.352 301.222 733.279C293.154 733.207 286.755 726.624 286.828 718.513L287.178 680.9C282.159 681.455 277.154 682.276 272.43 683.348L272.173 706.97C272.131 712.495 267.598 716.942 262.102 716.9C256.605 716.858 252.182 712.301 252.224 706.775L252.348 690.199C224.187 703.035 205.077 727.024 204.869 754.652C204.754 763.567 206.655 772.099 210.121 780.097C213.387 778.306 217.144 777.378 221.046 777.422C233.634 777.503 243.703 787.884 243.529 800.455C243.447 805.27 241.927 809.722 239.302 813.436C255.595 824.173 276.436 830.731 299.221 830.941C322.007 831.151 342.928 825.054 359.442 814.665C356.93 810.979 355.432 806.432 355.513 801.617C355.594 788.962 365.92 778.839 378.424 779.014C382.414 779.053 386.106 780.089 389.313 781.954C392.944 774.085 395.027 765.503 395.143 756.588C395.527 728.95 376.958 704.624 349.085 691.253Z" fill="#B7D6D6"/>
<path d="M301.223 733.28C309.291 733.353 315.839 726.92 315.911 718.81L316.277 681.462C311.275 680.769 306.112 680.352 300.881 680.295C296.272 680.291 291.674 680.465 287.18 680.901L286.829 718.514C286.757 726.625 293.155 733.207 301.223 733.28Z" fill="#8BCCCA"/>
<path d="M338.883 717.671C344.38 717.713 348.913 713.266 348.955 707.741L349.079 691.164C342.887 688.222 336.278 685.75 329.263 683.924L329.006 707.546C328.969 713.161 333.387 717.629 338.883 717.671Z" fill="#8BCCCA"/>
<path d="M262.1 716.901C267.596 716.942 272.129 712.496 272.171 706.97L272.428 683.348C265.344 685.001 258.653 687.344 252.434 690.194L252.31 706.771C252.18 712.302 256.603 716.859 262.1 716.901Z" fill="#8BCCCA"/>
<path d="M221.125 777.418C217.136 777.38 213.471 778.391 210.2 780.093C215.994 793.213 226.218 804.743 239.47 813.427C242.1 809.802 243.615 805.262 243.697 800.446C243.783 787.881 233.718 777.588 221.125 777.418Z" fill="#72B0BA"/>
<path d="M389.494 781.944C386.292 780.167 382.595 779.043 378.605 779.004C366.018 778.923 355.78 789.041 355.694 801.607C355.613 806.422 357.111 810.968 359.623 814.655C372.975 806.319 383.412 795.031 389.494 781.944Z" fill="#72B0BA"/>
<path d="M299.77 788.863C292.232 788.76 286.212 782.601 286.314 775.023L313.536 775.336C313.429 782.825 307.308 788.966 299.77 788.863Z" fill="#0D3F41"/>
<path d="M299.837 783.959C293.988 783.938 289.317 781.265 289.318 778.147L310.42 778.365C310.419 781.483 305.687 783.981 299.837 783.959Z" fill="#1C6666"/>
<path d="M271.373 736.503C275.186 736.552 278.287 739.67 278.243 743.592L278.199 750.632L271.196 750.588C267.383 750.539 264.282 747.42 264.326 743.498C264.369 739.576 267.56 736.454 271.373 736.503Z" fill="#0D3F41"/>
<path d="M329.085 751.105L322.082 751.061L322.126 744.021C322.175 740.187 325.277 737.07 329.178 737.114C332.991 737.163 336.092 740.281 336.049 744.203C336.088 748.032 332.898 751.154 329.085 751.105Z" fill="#0D3F41"/>
<path d="M277.729 777.03C277.729 777.03 259.706 785.812 243.077 780.082C226.365 774.447 217.369 756.432 217.369 756.432C217.369 756.432 235.392 747.65 252.021 753.38C268.739 759.104 277.729 777.03 277.729 777.03Z" fill="#FFFACC"/>
<path d="M248.297 779.96C255.566 779.544 261.122 773.283 260.708 765.976C260.295 758.669 254.067 753.083 246.798 753.499C239.53 753.915 233.973 760.176 234.387 767.483C234.801 774.79 241.029 780.376 248.297 779.96Z" fill="#0D3F41"/>
<path d="M244.802 766.53C247.289 766.387 249.191 764.244 249.05 761.743C248.908 759.242 246.776 757.33 244.289 757.473C241.801 757.615 239.899 759.758 240.04 762.259C240.182 764.76 242.314 766.672 244.802 766.53Z" fill="#1C6666"/>
<path d="M322.072 777.519C322.072 777.519 339.869 786.656 356.67 781.329C373.47 776.002 382.829 758.184 382.829 758.184C382.829 758.184 365.032 749.047 348.231 754.374C331.43 759.701 322.072 777.519 322.072 777.519Z" fill="#FFFACC"/>
<path d="M347.856 799.384C346.918 798.458 345.411 798.455 344.485 799.31C338.78 804.981 331.154 808.001 323.086 807.929C320.426 807.903 317.834 807.516 315.316 806.859C310.274 805.455 305.603 802.783 301.839 798.9L300.148 797.215L298.472 798.915C294.61 802.699 289.977 805.37 284.821 806.645C282.289 807.324 279.738 807.648 277.078 807.622C269.01 807.55 261.561 804.324 255.915 798.5C254.976 797.574 253.469 797.571 252.543 798.426C251.622 799.369 251.619 800.884 252.469 801.815C261.315 810.93 273.99 814.124 285.529 811.326C290.773 810.045 295.775 807.621 300.084 803.9C304.285 807.669 309.309 810.321 314.434 811.631C317.222 812.362 320.079 812.733 322.916 812.749C331.872 812.86 340.809 809.497 347.694 802.778C348.797 801.913 348.8 800.399 347.856 799.384Z" fill="#26515B"/>
<path d="M355.545 780.221C362.813 779.805 368.37 773.544 367.956 766.237C367.542 758.93 361.314 753.344 354.046 753.76C346.778 754.176 341.221 760.437 341.635 767.744C342.049 775.051 348.276 780.637 355.545 780.221Z" fill="#0D3F41"/>
<path d="M352.042 766.793C354.53 766.65 356.432 764.507 356.291 762.006C356.149 759.505 354.017 757.593 351.529 757.735C349.041 757.878 347.14 760.021 347.281 762.522C347.423 765.023 349.554 766.935 352.042 766.793Z" fill="#1C6666"/>
<path d="M224.563 692.414C227.148 692.266 229.125 690.039 228.978 687.44C228.83 684.841 226.615 682.854 224.03 683.002C221.444 683.15 219.468 685.377 219.615 687.976C219.762 690.575 221.978 692.562 224.563 692.414Z" fill="#CCD6D5"/>
<path d="M217.75 698.95C219.554 698.847 220.934 697.292 220.832 695.477C220.729 693.663 219.182 692.276 217.377 692.379C215.572 692.482 214.193 694.037 214.295 695.852C214.398 697.666 215.945 699.053 217.75 698.95Z" fill="#CCD6D5"/>
<path d="M400.627 731.331C402.432 731.227 403.811 729.672 403.709 727.858C403.606 726.043 402.059 724.656 400.255 724.76C398.45 724.863 397.07 726.418 397.173 728.232C397.275 730.047 398.822 731.434 400.627 731.331Z" fill="#CCD6D5"/>
<path d="M313.061 856.251C313.144 848.317 306.843 841.908 298.952 841.825C291.061 841.742 284.685 848.076 284.603 856.009C284.49 863.41 290.064 869.504 297.2 870.343L297.229 866.155C295.687 865.53 294.537 863.993 294.519 862.123C294.565 859.804 296.496 857.912 298.798 857.869C301.104 857.915 302.986 859.856 303.029 862.17C303.041 863.951 301.89 865.531 300.242 866.16L300.213 870.349C307.348 869.584 312.944 863.562 313.061 856.251Z" fill="#F5EA83"/>
<path d="M303.037 862.169C303.082 859.851 301.2 857.909 298.805 857.868C296.499 857.822 294.568 859.714 294.527 862.122C294.539 863.903 295.606 865.535 297.237 866.154L297.208 870.342C297.743 870.401 298.19 870.464 298.72 870.434C299.249 870.404 299.779 870.373 300.221 870.348L300.25 866.16C301.809 865.536 302.96 863.955 303.037 862.169Z" fill="#FFB23E"/>
<path d="M290.831 851.91C291.953 851.846 292.81 850.88 292.747 849.752C292.683 848.624 291.721 847.761 290.599 847.826C289.477 847.89 288.62 848.856 288.684 849.984C288.747 851.112 289.709 851.974 290.831 851.91Z" fill="#FCF8DB"/>
<path d="M290.233 889.718L247.282 910.528C243.232 912.541 238.453 909.519 238.549 904.97L238.724 889.281L290.233 889.718Z" fill="#617A78"/>
<path d="M306.722 889.843L349.241 911.462C353.258 913.548 358.053 910.601 358.062 906.057L358.236 890.369L306.722 889.843Z" fill="#617A78"/>
<path d="M237.864 883.45L359.246 884.698C360.841 884.695 362.065 885.962 362.067 887.565C362.069 889.168 360.81 890.399 359.215 890.401L237.833 889.153C236.238 889.156 235.014 887.889 235.012 886.286C235.01 884.683 236.269 883.452 237.864 883.45Z" fill="#8BA5A3"/>
<path d="M458.092 738.286L408.006 819.28L417.284 825.074L477.355 727.919L458.092 738.286Z" fill="#89BEAA"/>
<path d="M476.644 749.784L477.355 727.918L417.284 825.073L426.557 830.778L476.644 749.784Z" fill="#B7D6D6"/>
<path d="M436.833 822.331L413.53 860.023L416.235 861.713L439.538 824.021L436.833 822.331Z" fill="#FF7F00"/>
<path d="M428.564 869.416L416.255 861.746L422.826 851.036L412.63 844.672L422.614 828.51L432.81 834.875L439.553 824.066L447.396 838.94L428.564 869.416Z" fill="#FBA036"/>
<path d="M385.01 842.154L377.006 827.557L396.082 796.711L408.391 804.38L401.648 815.189L411.845 821.554L401.861 837.715L391.664 831.35L385.01 842.154Z" fill="#FBA036"/>
<path d="M401.703 837.793L387.693 860.454L398.738 867.355L412.748 844.694L401.703 837.793Z" fill="#5B619B"/>
<path d="M422.56 826.108L413.925 820.723C413.188 820.23 412.211 820.197 411.437 820.598L402.492 825.386C401.717 825.787 401.233 826.616 401.195 827.509L400.885 837.682C400.847 838.575 401.339 839.438 402.075 839.931L410.71 845.316C411.447 845.808 412.423 845.841 413.198 845.441L422.143 840.652C422.918 840.252 423.402 839.422 423.44 838.529L423.75 828.356C423.788 827.463 423.385 826.595 422.56 826.108Z" fill="#FFDA40"/>
<path d="M417.395 825.603L416.752 825.194C414.271 823.644 411.077 823.559 408.409 824.959L407.722 825.355C405.143 826.75 403.434 829.431 403.34 832.465L403.297 833.269C403.198 836.215 404.689 839.069 407.258 840.615L407.901 841.023C410.381 842.574 413.576 842.658 416.244 841.259L416.93 840.863C419.51 839.468 421.219 836.787 421.313 833.753L421.356 832.948C421.455 830.003 419.964 827.149 417.395 825.603Z" fill="#45B236"/>
<path d="M398.995 837.635L396.986 840.883L412.089 850.319L414.097 847.071L398.995 837.635Z" fill="#FFDA40"/>
<path d="M383.61 864.328C381.255 868.115 382.42 873.037 386.187 875.405C389.954 877.773 394.85 876.602 397.206 872.815C397.529 872.262 397.769 871.802 398.003 871.255L384.771 862.925C384.266 863.4 383.933 863.775 383.61 864.328Z" fill="#398729"/>
<path d="M398.206 866.967L388.372 860.76L385.71 859.13L383.767 862.359L384.685 862.93L397.917 871.26L398.836 871.83L400.868 868.596L398.206 866.967Z" fill="#FFDA40"/>
<path d="M389.351 870.233L394.06 868.895L388.451 865.296L389.351 870.233Z" fill="#FFDA40"/>
<path d="M394.5 873.414L398.841 871.829L394.062 868.807L394.5 873.414Z" fill="#FFDA40"/>
<path d="M384.205 866.967L388.546 865.382L383.767 862.36L384.205 866.967Z" fill="#FFDA40"/>
<path d="M388.198 856.347L386.19 859.595L400.165 868.328L402.173 865.08L388.198 856.347Z" fill="#FBA036"/>
<path d="M390.888 855.307L390.421 856.063L401.466 862.964L401.933 862.209L390.888 855.307Z" fill="#495189"/>
<path d="M398.442 843.107L397.975 843.862L409.02 850.764L409.487 850.008L398.442 843.107Z" fill="#495189"/>
<path d="M392.377 852.808L391.91 853.564L402.955 860.465L403.422 859.71L392.377 852.808Z" fill="#495189"/>
<path d="M393.873 850.434L393.406 851.189L404.451 858.091L404.918 857.336L393.873 850.434Z" fill="#495189"/>
<path d="M395.443 847.981L394.976 848.736L406.021 855.638L406.488 854.882L395.443 847.981Z" fill="#495189"/>
<path d="M396.932 845.486L396.465 846.241L407.51 853.143L407.977 852.388L396.932 845.486Z" fill="#495189"/>
<path d="M392.559 875.218C393.095 875.187 393.506 874.725 393.475 874.186C393.445 873.646 392.985 873.234 392.448 873.264C391.912 873.295 391.501 873.757 391.532 874.297C391.562 874.836 392.022 875.249 392.559 875.218Z" fill="#A6F498"/>
<path d="M417.497 828.803L413.823 826.519C413.086 826.027 412.11 825.994 411.246 826.399L407.377 828.492C406.602 828.892 406.029 829.727 405.991 830.62L405.885 834.991C405.847 835.884 406.338 836.747 407.075 837.239L410.749 839.523C411.486 840.016 412.463 840.049 413.326 839.643L417.195 837.551C417.97 837.15 418.543 836.316 418.581 835.423L418.688 831.051C418.726 830.158 418.234 829.296 417.497 828.803Z" fill="#409E30"/>
<path d="M415.24 830.001L413.678 829.021C412.941 828.529 411.965 828.496 411.101 828.901L409.557 829.792C408.782 830.192 408.209 831.027 408.171 831.92L408.095 833.706C408.057 834.599 408.549 835.462 409.286 835.954L410.847 836.934C411.584 837.426 412.561 837.459 413.424 837.053L414.969 836.163C415.743 835.762 416.316 834.928 416.355 834.035L416.431 832.249C416.469 831.356 415.977 830.493 415.24 830.001Z" fill="#398729"/>
<path d="M412.724 827.651C413.456 827.609 414.016 826.979 413.974 826.243C413.932 825.507 413.305 824.945 412.574 824.987C411.842 825.029 411.282 825.659 411.324 826.395C411.366 827.13 411.993 827.693 412.724 827.651Z" fill="#62D34F"/>
<path d="M409.816 827.905C410.206 827.883 410.504 827.547 410.482 827.154C410.46 826.762 410.125 826.462 409.735 826.485C409.345 826.507 409.046 826.843 409.069 827.235C409.091 827.628 409.425 827.928 409.816 827.905Z" fill="#62D34F"/>
<path d="M379.175 831.531L377.001 827.558L396.082 796.8L399.388 798.838L379.175 831.531Z" fill="#FF7F00"/>
<path d="M404.383 860.377C406.188 860.274 407.568 858.719 407.465 856.904C407.363 855.09 405.816 853.703 404.011 853.806C402.206 853.909 400.826 855.464 400.929 857.278C401.032 859.093 402.579 860.48 404.383 860.377Z" fill="#91BCBB"/>
<path d="M400.356 864.349C402.161 864.246 403.541 862.691 403.438 860.877C403.335 859.062 401.789 857.675 399.984 857.778C398.179 857.882 396.799 859.436 396.902 861.251C397.005 863.065 398.551 864.453 400.356 864.349Z" fill="#91BCBB"/>
<path d="M406.211 854.928C408.016 854.824 409.396 853.27 409.293 851.455C409.19 849.641 407.644 848.254 405.839 848.357C404.034 848.46 402.654 850.015 402.757 851.829C402.86 853.644 404.406 855.031 406.211 854.928Z" fill="#91BCBB"/>
<path d="M341.679 842.142L370.849 842.432C372.091 842.45 373.122 843.46 373.11 844.797C373.092 846.045 372.087 847.083 370.757 847.07L341.587 846.78C340.345 846.762 339.313 845.752 339.326 844.415C339.344 843.167 340.349 842.129 341.679 842.142Z" fill="#C9361F"/>
<path d="M351.339 839.843L351.242 849.538L354.427 849.57L354.524 839.876L351.339 839.843Z" fill="#A61E00"/>
<path d="M228.624 841.04L231.283 841.066C232.525 841.084 233.557 842.094 233.544 843.431C233.526 844.679 232.522 845.716 231.192 845.703L228.532 845.677C227.29 845.659 226.258 844.65 226.271 843.313C226.377 842.059 227.382 841.022 228.624 841.04Z" fill="#C9361F"/>
<path d="M1126.59 925.109C1133.95 922.365 1137.7 914.144 1134.97 906.748C1132.24 899.351 1124.07 895.58 1116.71 898.324C1109.35 901.069 1105.6 909.289 1108.33 916.686C1111.06 924.082 1119.24 927.853 1126.59 925.109Z" fill="#D3A1A1"/>
<path d="M1117.62 927.988C1119.92 927.13 1121.1 924.557 1120.24 922.243C1119.39 919.929 1116.83 918.749 1114.53 919.608C1112.23 920.466 1111.05 923.038 1111.91 925.352C1112.76 927.667 1115.32 928.847 1117.62 927.988Z" fill="#D3A1A1"/>
<path d="M1111.55 923.147C1113.86 922.288 1115.03 919.716 1114.18 917.402C1113.32 915.088 1110.76 913.908 1108.46 914.766C1106.16 915.625 1104.99 918.197 1105.84 920.511C1106.69 922.826 1109.25 924.005 1111.55 923.147Z" fill="#D3A1A1"/>
<path d="M1125.14 929.481C1127.44 928.623 1128.62 926.051 1127.76 923.737C1126.91 921.422 1124.35 920.242 1122.05 921.101C1119.75 921.96 1118.57 924.532 1119.43 926.846C1120.28 929.16 1122.84 930.34 1125.14 929.481Z" fill="#D3A1A1"/>
<path d="M1187.74 929.035C1195.09 926.291 1198.84 918.071 1196.12 910.674C1193.39 903.278 1185.21 899.507 1177.85 902.251C1170.49 904.995 1166.74 913.216 1169.47 920.612C1172.2 928.008 1180.38 931.78 1187.74 929.035Z" fill="#D3A1A1"/>
<path d="M1188.29 932.567C1190.59 931.708 1191.77 929.136 1190.91 926.822C1190.06 924.508 1187.5 923.328 1185.2 924.186C1182.9 925.045 1181.72 927.617 1182.58 929.931C1183.43 932.245 1185.99 933.425 1188.29 932.567Z" fill="#D3A1A1"/>
<path d="M1194.89 928.517C1197.19 927.658 1198.37 925.086 1197.51 922.772C1196.66 920.458 1194.1 919.278 1191.8 920.137C1189.5 920.995 1188.32 923.567 1189.18 925.882C1190.03 928.196 1192.59 929.376 1194.89 928.517Z" fill="#D3A1A1"/>
<path d="M1180.64 932.99C1182.95 932.132 1184.12 929.559 1183.27 927.245C1182.41 924.931 1179.85 923.751 1177.55 924.61C1175.25 925.468 1174.08 928.04 1174.93 930.355C1175.78 932.669 1178.34 933.849 1180.64 932.99Z" fill="#D3A1A1"/>
<path d="M1066.38 826.72L1063.45 844.174L1075.56 846.232L1078.5 828.777L1066.38 826.72Z" fill="#AFE8D0"/>
<path d="M1078.47 828.75L1075.53 846.204L1108.54 851.808L1111.47 834.353L1078.47 828.75Z" fill="#89BEAA"/>
<path d="M1062.37 847.833C1069.91 845.021 1073.75 836.599 1070.96 829.021C1068.16 821.443 1059.78 817.579 1052.24 820.391C1044.71 823.202 1040.86 831.625 1043.66 839.203C1046.46 846.781 1054.83 850.644 1062.37 847.833Z" fill="#EBD2D2"/>
<path d="M1063.57 835.18C1064.46 829.931 1061.75 825.094 1057.52 824.377C1053.3 823.659 1049.16 827.333 1048.27 832.583C1047.39 837.832 1050.1 842.669 1054.33 843.386C1058.55 844.104 1062.69 840.43 1063.57 835.18Z" fill="#E8A6A6"/>
<path d="M1046.92 822.985L1048.37 836.403L1055.91 835.579L1054.46 822.161L1046.92 822.985Z" fill="#FFB23E"/>
<path d="M1051.27 782.99L1055.14 818.657L1050.22 819.183L1045.41 774.149L1051.27 782.99Z" fill="#89BEAA"/>
<path d="M1041.46 784.125L1045.41 774.149L1050.22 819.183L1045.33 819.792L1041.46 784.125Z" fill="#B7D6D6"/>
<path d="M1060.95 822.565L1040.47 824.78C1039.21 824.878 1038.05 824.002 1037.95 822.73C1037.85 821.458 1038.72 820.292 1039.99 820.193L1060.46 817.978C1061.73 817.88 1062.89 818.756 1062.99 820.028C1063.17 821.27 1062.18 822.384 1060.95 822.565Z" fill="#DE8E45"/>
<path d="M1054.18 843.505C1056.84 842.512 1058.2 839.536 1057.21 836.859C1056.22 834.182 1053.26 832.817 1050.6 833.81C1047.94 834.803 1046.58 837.779 1047.57 840.456C1048.56 843.133 1051.52 844.498 1054.18 843.505Z" fill="#FFB23E"/>
<path d="M1047.2 825.087L1047.31 826.133L1054.85 825.309L1054.74 824.263L1047.2 825.087Z" fill="#DE8E45"/>
<path d="M1047.5 827.824L1047.61 828.87L1055.15 828.046L1055.04 827L1047.5 827.824Z" fill="#DE8E45"/>
<path d="M1047.72 830.454L1047.84 831.5L1055.38 830.676L1055.26 829.63L1047.72 830.454Z" fill="#DE8E45"/>
<path d="M1048.04 833.164L1048.16 834.209L1055.7 833.385L1055.58 832.34L1048.04 833.164Z" fill="#DE8E45"/>
<path d="M1053.33 841.205C1054.72 840.684 1055.44 839.12 1054.92 837.713C1054.4 836.307 1052.84 835.589 1051.45 836.111C1050.05 836.633 1049.33 838.197 1049.85 839.603C1050.37 841.01 1051.93 841.727 1053.33 841.205Z" fill="#DE8E45"/>
<path d="M1046.37 836.227C1048.72 835.352 1049.92 832.729 1049.05 830.37C1048.17 828.01 1045.57 826.807 1043.22 827.683C1040.87 828.558 1039.68 831.181 1040.55 833.54C1041.42 835.9 1044.03 837.103 1046.37 836.227Z" fill="#EBD2D2"/>
<path d="M1049.33 828.862C1051.68 827.987 1052.87 825.364 1052 823.005C1051.13 820.645 1048.52 819.442 1046.17 820.317C1043.83 821.193 1042.63 823.816 1043.5 826.175C1044.37 828.535 1046.98 829.738 1049.33 828.862Z" fill="#EBD2D2"/>
<path d="M1047.24 844.127C1049.59 843.252 1050.79 840.629 1049.92 838.27C1049.05 835.91 1046.44 834.707 1044.09 835.582C1041.74 836.458 1040.55 839.081 1041.42 841.44C1042.29 843.8 1044.9 845.003 1047.24 844.127Z" fill="#EBD2D2"/>
<path d="M1232.21 832.046L1234.38 849.614L1246.58 848.091L1244.41 830.523L1232.21 832.046Z" fill="#AFE8D0"/>
<path d="M1198.96 836.217L1201.13 853.785L1234.35 849.639L1232.18 832.071L1198.96 836.217Z" fill="#89BEAA"/>
<path d="M1258.26 852.07C1265.8 849.258 1269.64 840.836 1266.85 833.258C1264.05 825.68 1255.67 821.816 1248.13 824.628C1240.6 827.439 1236.75 835.862 1239.55 843.44C1242.34 851.018 1250.72 854.881 1258.26 852.07Z" fill="#EBD2D2"/>
<path d="M1262.25 837.228C1261.6 831.945 1257.62 828.092 1253.37 828.622C1249.11 829.153 1246.2 833.866 1246.85 839.15C1247.5 844.434 1251.48 848.287 1255.73 847.756C1259.98 847.225 1262.9 842.512 1262.25 837.228Z" fill="#E8A6A6"/>
<path d="M1256.47 826.67L1254.44 840.009L1261.93 841.165L1263.97 827.826L1256.47 826.67Z" fill="#FFB23E"/>
<path d="M1261.35 787.635L1255.94 823.116L1260.85 823.81L1267.69 779.103L1261.35 787.635Z" fill="#89BEAA"/>
<path d="M1271.11 789.136L1267.69 779.103L1260.85 823.81L1265.7 824.616L1271.11 789.136Z" fill="#B7D6D6"/>
<path d="M1250.67 822.185L1271 825.354C1272.27 825.532 1273.08 826.725 1272.9 828.007C1272.73 829.288 1271.54 830.105 1270.27 829.926L1249.94 826.757C1248.67 826.578 1247.86 825.385 1248.03 824.104C1248.21 822.822 1249.48 821.975 1250.67 822.185Z" fill="#DE8E45"/>
<path d="M1259.64 848.003C1262.3 847.01 1263.66 844.034 1262.67 841.357C1261.68 838.68 1258.72 837.315 1256.06 838.308C1253.4 839.301 1252.04 842.277 1253.03 844.954C1254.01 847.631 1256.97 848.996 1259.64 848.003Z" fill="#FFB23E"/>
<path d="M1256.18 828.784L1256.02 829.823L1263.51 830.979L1263.67 829.94L1256.18 828.784Z" fill="#DE8E45"/>
<path d="M1255.76 831.46L1255.6 832.499L1263.1 833.656L1263.26 832.616L1255.76 831.46Z" fill="#DE8E45"/>
<path d="M1255.29 834.108L1255.13 835.147L1262.63 836.303L1262.79 835.264L1255.29 834.108Z" fill="#DE8E45"/>
<path d="M1254.91 836.774L1254.75 837.814L1262.25 838.97L1262.41 837.931L1254.91 836.774Z" fill="#DE8E45"/>
<path d="M1258.79 845.701C1260.19 845.179 1260.9 843.616 1260.38 842.209C1259.87 840.802 1258.31 840.085 1256.91 840.607C1255.51 841.129 1254.8 842.692 1255.32 844.099C1255.84 845.506 1257.39 846.223 1258.79 845.701Z" fill="#DE8E45"/>
<path d="M1267.33 841.116C1269.68 840.24 1270.87 837.618 1270 835.258C1269.13 832.899 1266.52 831.695 1264.18 832.571C1261.83 833.446 1260.63 836.069 1261.5 838.428C1262.38 840.788 1264.98 841.991 1267.33 841.116Z" fill="#EBD2D2"/>
<path d="M1264.73 833.579C1267.08 832.704 1268.27 830.082 1267.4 827.722C1266.53 825.362 1263.92 824.159 1261.58 825.035C1259.23 825.91 1258.03 828.533 1258.9 830.892C1259.77 833.252 1262.38 834.455 1264.73 833.579Z" fill="#EBD2D2"/>
<path d="M1266.13 848.947C1268.47 848.072 1269.67 845.449 1268.8 843.09C1267.93 840.73 1265.32 839.527 1262.97 840.402C1260.62 841.278 1259.43 843.9 1260.3 846.26C1261.17 848.619 1263.78 849.823 1266.13 848.947Z" fill="#EBD2D2"/>
<path d="M1104.7 841.58L1205.55 843.781L1204.79 877.995C1204.39 897.307 1188.46 912.595 1169.25 912.19L1137.95 911.526C1118.74 911.12 1103.53 895.107 1103.94 875.794L1104.7 841.58Z" fill="#EBD2D2"/>
<path d="M1176.96 888.001L1180.01 893.499L1244.4 894.905L1241 889.446L1176.96 888.001Z" fill="#AFE8D0"/>
<path d="M1214.48 846.807L1156.74 845.538L1154.98 848.342L1176.97 888.001L1241 889.446L1214.48 846.807Z" fill="#89BEAA"/>
<path d="M1153.33 845.404L1095.59 844.134L1067.19 885.575L1131.22 887.021L1154.98 848.343L1153.33 845.404Z" fill="#89BEAA"/>
<path d="M1156.74 845.538L1153.34 845.403L1154.98 848.342L1156.74 845.538Z" fill="#89BEAA"/>
<path d="M1217.02 848.797C1217.11 844.877 1190.29 841.108 1157.13 840.378C1123.97 839.647 1097.01 842.232 1096.93 846.152C1096.84 850.071 1123.66 853.84 1156.82 854.571C1189.98 855.301 1216.94 852.716 1217.02 848.797Z" fill="#FFB23E"/>
<path d="M1097.96 836.429L1215.21 838.964C1217.83 839.015 1219.95 841.217 1219.93 843.935C1219.88 846.571 1217.68 848.697 1214.98 848.677L1097.73 846.142C1095.11 846.092 1092.99 843.889 1093.01 841.171C1093.15 838.505 1095.34 836.379 1097.96 836.429Z" fill="#FFB23E"/>
<path d="M1095.38 827.948L1212.66 830.565C1215.29 830.616 1217.4 832.818 1217.38 835.536C1217.33 838.172 1215.14 840.298 1212.44 840.278L1095.19 837.743C1092.56 837.693 1090.45 835.49 1090.47 832.772C1090.57 830.024 1092.76 827.898 1095.38 827.948Z" fill="#FFB23E"/>
<path d="M1144.34 840.909L1132.78 874.849L1140.93 867.698L1143.02 878.413L1154.55 844.391L1144.34 840.909Z" fill="#AFE8D0"/>
<path d="M1165.42 841.364L1175.51 875.74L1167.65 868.296L1165.13 878.863L1155.02 844.405L1165.42 841.364Z" fill="#AFE8D0"/>
<path d="M1187.76 635.617L1131.51 634.352C1112.69 633.989 1095.14 643.62 1085.39 659.781L1051.75 715.512C1044.77 727.088 1044.43 741.518 1050.94 753.388L1085.17 816.147C1092.34 829.27 1105.91 837.575 1120.81 837.904L1189.63 839.438C1204.53 839.768 1218.51 832.032 1226.24 819.238L1263.17 758.072C1270.15 746.496 1270.5 732.066 1263.98 720.196L1232.75 663.048C1223.68 646.523 1206.54 636.093 1187.76 635.617Z" fill="#89BEAA"/>
<path d="M1254.87 756.396C1255.89 709.702 1212.89 670.884 1158.84 669.694C1104.79 668.503 1060.15 705.391 1059.13 752.085C1058.11 798.778 1101.11 837.596 1155.16 838.787C1209.21 839.977 1253.85 803.09 1254.87 756.396Z" fill="#649B85"/>
<path d="M1198.7 806.329C1198.96 794.175 1209.03 784.436 1221.12 784.694C1229.65 784.878 1237.02 789.981 1240.43 797.214C1249.29 785.685 1254.55 772.226 1254.83 757.632C1255.76 714.289 1212.74 678.085 1158.55 676.889C1104.45 675.663 1059.81 709.888 1058.92 753.312C1058.6 767.825 1063.22 781.616 1071.59 793.451C1075.38 786.336 1082.92 781.562 1091.44 781.746C1103.53 782.004 1113.22 792.131 1112.97 804.284C1112.84 811.248 1109.43 817.38 1104.38 821.321C1119.08 828.922 1136.5 833.548 1155.16 833.972C1173.9 834.366 1191.46 830.53 1206.48 823.619C1201.65 819.622 1198.58 813.293 1198.7 806.329Z" fill="#EBD2D2"/>
<path d="M1113.1 804.42C1113.36 792.267 1103.75 782.109 1091.58 781.882C1083.05 781.698 1075.52 786.472 1071.73 793.587C1079.61 804.856 1090.96 814.456 1104.46 821.57C1109.6 817.598 1112.9 811.415 1113.1 804.42Z" fill="#E8A6A6"/>
<path d="M1240.55 797.265C1237.1 789.95 1229.76 784.93 1221.24 784.746C1209.15 784.488 1199.04 794.145 1198.82 806.381C1198.69 813.345 1201.74 819.592 1206.65 823.835C1220.42 817.298 1232.14 808.252 1240.55 797.265Z" fill="#E8A6A6"/>
<path d="M1156.47 778.057C1150.48 777.954 1145.66 772.932 1145.84 766.881L1167.67 767.337C1167.49 773.388 1162.57 778.212 1156.47 778.057Z" fill="#6D3232"/>
<path d="M1156.62 774.17C1151.92 774.051 1148.19 771.987 1148.27 769.433L1165.13 769.78C1165.13 772.303 1161.28 774.207 1156.62 774.17Z" fill="#934141"/>
<path d="M1155.38 830.527C1160.82 830.649 1165.65 825.855 1168.06 818.786C1164.91 816.785 1160.54 815.519 1155.68 815.461C1150.9 815.372 1146.47 816.464 1143.14 818.268C1145.31 825.404 1149.94 830.405 1155.38 830.527Z" fill="#C9345A"/>
<path d="M1162.62 788.664L1162.44 798.264C1162.34 801.761 1159.45 804.521 1156 804.498C1152.52 804.394 1149.78 801.492 1149.8 798.025L1149.98 788.425C1145.35 792.019 1142.04 799.423 1141.89 808.079C1141.85 811.741 1142.29 815.22 1143.22 818.238C1146.52 816.353 1150.87 815.291 1155.76 815.431C1160.53 815.52 1164.91 816.786 1168.14 818.757C1169.18 815.755 1169.86 812.322 1169.9 808.66C1170.06 800.004 1167.07 792.424 1162.62 788.664Z" fill="#CA6E91"/>
<path d="M1149.95 788.343L1149.77 797.942C1149.69 801.245 1152.06 803.91 1155.2 804.331L1155.61 786.044C1153.54 786.253 1151.69 787.036 1149.95 788.343Z" fill="#FFFACC"/>
<path d="M1157.04 786.164L1156.63 804.45C1159.76 804.123 1162.24 801.516 1162.35 798.296L1162.53 788.696C1160.88 787.254 1159.06 786.345 1157.04 786.164Z" fill="#FFFACC"/>
<path d="M1156.3 786.159C1156.02 786.168 1155.83 786.147 1155.55 786.156L1155.14 804.443C1155.34 804.464 1155.64 804.537 1155.92 804.527C1156.19 804.518 1156.39 804.539 1156.66 804.53L1157.07 786.243C1156.85 786.14 1156.57 786.149 1156.3 786.159Z" fill="#EACACA"/>
<path d="M1131.48 762.235C1131.3 769.311 1125.53 774.83 1118.52 774.733C1111.48 774.555 1105.99 768.751 1106.08 761.705C1106.24 755.572 1110.62 750.571 1116.35 749.463L1106.69 745.962C1102.07 749.556 1098.91 755.125 1098.77 761.535C1098.51 772.663 1107.28 781.823 1118.35 782.087C1129.42 782.352 1138.53 773.532 1138.79 762.404C1138.82 760.712 1138.65 758.998 1138.24 757.376L1128.58 753.876C1130.45 756.169 1131.54 759.127 1131.48 762.235Z" fill="#FFFACC"/>
<path d="M1106.17 761.674C1105.99 768.75 1111.56 774.524 1118.6 774.702C1125.64 774.881 1131.38 769.28 1131.56 762.204C1131.59 759.014 1130.53 756.138 1128.66 753.845L1116.43 749.432C1110.65 750.653 1106.27 755.653 1106.17 761.674ZM1111.77 760.986L1114.85 759.745C1115.17 759.623 1115.44 759.337 1115.56 758.917L1116.31 755.647C1116.53 754.725 1117.7 754.38 1118.36 755.162L1120.52 757.724C1120.72 758.022 1121.14 758.146 1121.49 758.107L1124.82 757.8C1125.81 757.712 1126.4 758.801 1125.93 759.538L1124.17 762.342C1124.02 762.68 1123.98 763.07 1124.1 763.398L1125.41 766.459C1125.83 767.333 1124.98 768.304 1124.06 768.085L1120.86 767.223C1120.47 767.18 1120.12 767.22 1119.85 767.506L1117.41 769.724C1116.72 770.357 1115.51 769.871 1115.54 768.927L1115.35 765.634C1115.31 765.275 1115.07 764.895 1114.82 764.709L1111.95 762.976C1110.78 762.572 1110.79 761.351 1111.77 760.986Z" fill="#6D3232"/>
<path d="M1111.72 763.137L1114.83 765.037C1115.19 765.207 1115.44 765.622 1115.4 766.046L1115.62 769.635C1115.72 770.72 1116.9 771.198 1117.65 770.511L1120.27 768.105C1120.56 767.794 1121.03 767.719 1121.36 767.8L1124.82 768.752C1125.81 768.994 1126.64 767.972 1126.28 766.986L1124.84 763.646C1124.71 763.287 1124.72 762.773 1124.92 762.495L1126.8 759.447C1127.37 758.523 1126.67 757.457 1125.6 757.55L1122.01 757.87C1121.62 757.912 1121.17 757.774 1120.95 757.449L1118.61 754.649C1117.93 753.884 1116.63 754.165 1116.4 755.169L1115.61 758.728C1115.56 759.153 1115.28 759.464 1114.84 759.628L1111.52 760.967C1110.93 761.287 1110.8 762.56 1111.72 763.137Z" fill="#934141"/>
<path d="M1182.21 763.408C1182.03 770.484 1187.6 776.258 1194.64 776.437C1201.68 776.615 1207.42 771.015 1207.6 763.938C1207.76 757.805 1203.61 752.621 1197.91 751.288L1207.74 748.184C1212.28 751.913 1215.06 757.697 1214.92 764.107C1214.65 775.235 1205.51 783.973 1194.47 783.79C1183.4 783.526 1174.71 774.336 1174.89 763.238C1174.92 761.546 1175.22 759.845 1175.64 758.195L1185.46 755.091C1183.5 757.32 1182.24 760.218 1182.21 763.408Z" fill="#FFFACC"/>
<path d="M1197.83 751.32L1185.49 755.174C1183.53 757.403 1182.32 760.189 1182.21 763.409C1182.03 770.486 1187.6 776.26 1194.64 776.438C1201.68 776.617 1207.42 771.016 1207.6 763.939C1207.67 757.837 1203.53 752.653 1197.83 751.32ZM1201.99 765.099L1199.03 766.668C1198.74 766.873 1198.47 767.159 1198.43 767.548L1198.07 770.86C1197.96 771.834 1196.82 772.261 1196.11 771.592L1193.69 769.317C1193.4 769.049 1192.98 768.924 1192.66 769.046L1189.37 769.712C1188.41 769.883 1187.69 768.936 1188.1 768.035L1189.52 765.076C1189.67 764.738 1189.72 764.348 1189.48 763.968L1187.87 761.111C1187.37 760.268 1188.11 759.245 1189 759.382L1192.24 759.855C1192.63 759.897 1192.96 759.775 1193.22 759.489L1195.48 757.056C1196.15 756.34 1197.29 756.662 1197.46 757.627L1198.01 760.88C1198.05 761.239 1198.37 761.589 1198.7 761.744L1201.73 763.139C1202.84 763.379 1202.86 764.682 1201.99 765.099Z" fill="#6D3232"/>
<path d="M1201.99 765.099L1199.04 766.668C1198.74 766.872 1198.47 767.158 1198.43 767.548L1198.07 770.86C1197.97 771.834 1196.82 772.26 1196.11 771.591L1193.69 769.316C1193.41 769.048 1192.99 768.924 1192.66 769.045L1189.37 769.711C1188.41 769.882 1187.69 768.936 1188.1 768.035L1189.52 765.075C1189.68 764.737 1189.72 764.348 1189.48 763.967L1187.87 761.11C1187.38 760.268 1188.11 759.245 1189 759.381L1192.24 759.854C1192.63 759.896 1192.96 759.774 1193.22 759.488L1195.49 757.055C1196.15 756.339 1197.29 756.661 1197.47 757.626L1198.01 760.879C1198.05 761.238 1198.37 761.588 1198.71 761.743L1201.73 763.139C1202.84 763.378 1202.86 764.681 1201.99 765.099Z" fill="#934141"/>
<path d="M1126.84 734.055C1130.4 734.129 1133.29 737.164 1133.21 740.744L1133.02 747.267L1126.53 747.069C1122.97 746.995 1120.08 743.959 1120.15 740.38C1120.26 736.883 1123.28 733.98 1126.84 734.055Z" fill="#E8A6A6"/>
<path d="M1187.7 748.555L1181.21 748.358L1181.4 741.835C1181.48 738.256 1184.5 735.354 1188.06 735.428C1191.62 735.502 1194.51 738.538 1194.43 742.117C1194.28 745.727 1191.34 748.599 1187.7 748.555Z" fill="#E8A6A6"/>
<path d="M1128.05 665.276L1110.8 669.934C1107.85 670.754 1104.73 669.112 1103.59 666.267L1083.12 613.331C1078.59 601.561 1085.16 588.363 1097.35 585.124C1109.51 581.802 1121.78 589.845 1123.72 602.396L1132.43 658.502C1132.89 661.508 1131 664.456 1128.05 665.276Z" fill="#EBD2D2"/>
<path d="M1126.52 665.659L1113.43 669.234L1099.52 629.553C1096.72 621.44 1099.31 613.089 1105.05 611.509C1110.79 609.93 1117.19 615.952 1118.8 624.328L1126.52 665.659Z" fill="#CA6E91"/>
<path d="M1189.9 666.6L1206.88 672.044C1209.84 672.998 1213.02 671.532 1214.22 668.747L1236.98 616.793C1242 605.2 1236.03 591.815 1224.02 587.977C1212 584.14 1199.43 591.635 1196.95 604.057L1185.78 659.723C1185.19 662.655 1186.95 665.646 1189.9 666.6Z" fill="#EBD2D2"/>
<path d="M1191.39 667.077L1204.35 671.215L1219.98 632.201C1223.19 624.273 1220.98 615.752 1215.29 613.948C1209.6 612.143 1202.95 617.802 1201.03 626.185L1191.39 667.077Z" fill="#CA6E91"/>
<path d="M1090.66 678.098C1093.37 677.088 1094.75 674.062 1093.75 671.339C1092.74 668.616 1089.73 667.228 1087.02 668.238C1084.31 669.249 1082.93 672.275 1083.94 674.997C1084.94 677.72 1087.95 679.108 1090.66 678.098Z" fill="#AFE8D0"/>
<path d="M1083.23 685.17C1084.9 684.547 1085.75 682.681 1085.13 681.002C1084.51 679.323 1082.66 678.467 1080.99 679.09C1079.32 679.713 1078.47 681.579 1079.09 683.258C1079.71 684.937 1081.56 685.793 1083.23 685.17Z" fill="#AFE8D0"/>
<path d="M1256.85 724.07C1258.52 723.447 1259.37 721.581 1258.75 719.902C1258.14 718.223 1256.28 717.367 1254.61 717.99C1252.94 718.613 1252.09 720.479 1252.71 722.158C1253.33 723.837 1255.18 724.693 1256.85 724.07Z" fill="#AFE8D0"/>
<path d="M1135.73 845.054L1135.88 838.172C1135.95 833.567 1139.75 830.001 1144.33 830.068C1148.91 830.136 1152.46 833.954 1152.39 838.559L1152.23 845.441C1152.17 850.046 1148.37 853.612 1143.79 853.545C1139.29 853.447 1135.66 849.659 1135.73 845.054Z" fill="#89BEAA"/>
<path d="M1157.79 845.615L1157.94 838.733C1158.01 834.128 1161.81 830.562 1166.39 830.629C1170.97 830.696 1174.52 834.514 1174.45 839.119L1174.29 846.001C1174.23 850.606 1170.43 854.172 1165.85 854.105C1161.32 853.925 1157.69 850.138 1157.79 845.615Z" fill="#89BEAA"/>
<path d="M1150.05 845.321L1150.19 838.634C1150.19 837.136 1151.42 835.93 1152.94 836.017L1157.36 836.146C1158.85 836.151 1160.05 837.386 1159.96 838.914L1159.83 845.601C1159.82 847.099 1158.59 848.305 1157.07 848.217L1152.65 848.089C1151.25 848.053 1150.05 846.818 1150.05 845.321Z" fill="#AFE8D0"/>
<path d="M1145.53 838.874C1145.68 838.536 1146.06 838.301 1146.4 838.456L1164.19 844.344C1164.53 844.499 1164.76 844.88 1164.61 845.218C1164.45 845.556 1164.08 845.79 1163.74 845.635L1145.95 839.747C1145.64 839.674 1145.41 839.294 1145.53 838.874Z" fill="#AFE8D0"/>
<path d="M1145.41 844.81C1145.28 844.481 1145.49 844.031 1145.85 843.991L1163.88 838.946C1164.21 838.824 1164.66 839.031 1164.7 839.39C1164.82 839.719 1164.61 840.17 1164.26 840.209L1146.22 845.254C1145.89 845.376 1145.53 845.139 1145.41 844.81Z" fill="#AFE8D0"/>
<path d="M1123.6 916.224C1125.27 915.601 1126.12 913.735 1125.5 912.056C1124.88 910.377 1123.02 909.521 1121.35 910.144C1119.68 910.767 1118.83 912.633 1119.45 914.312C1120.07 915.991 1121.93 916.847 1123.6 916.224Z" fill="#CCD6D5"/>
<path d="M1472.84 568C1443.89 556.653 1386 507.141 1386 399.874C1402.67 398.484 1443.39 390.564 1472.84 370C1488.96 386.118 1536.06 396.632 1557.6 399.874C1557.6 500.611 1501.33 556.884 1472.84 568Z" fill="#746287"/>
<path d="M1472.98 546C1450.32 537.117 1405 498.358 1405 414.386C1418.05 413.298 1449.92 407.098 1472.98 391C1485.6 403.618 1522.47 411.848 1539.33 414.386C1539.33 493.246 1495.28 537.298 1472.98 546Z" fill="#B59FB0"/>
<path d="M44.8421 569C15.8947 557.653 -42 508.141 -42 400.874C-25.3263 399.484 15.3853 391.564 44.8421 371C60.96 387.118 108.063 397.632 129.6 400.874C129.6 501.611 73.3263 557.884 44.8421 569Z" fill="#746287"/>
<path d="M44.9825 547C22.3216 538.117 -23 499.358 -23 415.386C-9.94737 414.298 21.9228 408.098 44.9825 392C57.6 404.618 94.4737 412.848 111.333 415.386C111.333 494.246 67.2807 538.298 44.9825 547Z" fill="#B59FB0"/>
<path opacity="0.24" d="M423.568 528.816C426.002 528.816 427.976 526.831 427.976 524.383C427.976 521.936 426.002 519.951 423.568 519.951C421.133 519.951 419.16 521.936 419.16 524.383C419.16 526.831 421.133 528.816 423.568 528.816Z" fill="#FFFACC"/>
<path opacity="0.24" d="M497.021 595.07C502.807 595.07 507.498 590.353 507.498 584.535C507.498 578.717 502.807 574 497.021 574C491.235 574 486.544 578.717 486.544 584.535C486.544 590.353 491.235 595.07 497.021 595.07Z" fill="#FFFACC"/>
<path opacity="0.24" d="M875.306 416.965C877.551 417.912 880.134 416.85 881.076 414.592C882.018 412.335 880.962 409.738 878.717 408.791C876.473 407.844 873.889 408.906 872.947 411.163C872.005 413.42 873.061 416.018 875.306 416.965Z" fill="#FFFACC"/>
<path opacity="0.24" d="M407.097 75.5037C412.432 77.7544 418.573 75.2297 420.812 69.8647C423.051 64.4996 420.541 58.3259 415.206 56.0752C409.87 53.8245 403.729 56.3492 401.49 61.7143C399.251 67.0793 401.761 73.2531 407.097 75.5037Z" fill="#FFFACC"/>
<path opacity="0.24" d="M917.54 506.63C922.875 508.88 929.016 506.356 931.255 500.991C933.494 495.626 930.984 489.452 925.649 487.201C920.313 484.951 914.173 487.475 911.933 492.84C909.694 498.205 912.204 504.379 917.54 506.63Z" fill="#FFFACC"/>
<path opacity="0.4" d="M224.467 98.1613C227.507 99.4434 231.004 98.0057 232.28 94.9501C233.555 91.8945 232.125 88.378 229.086 87.0959C226.046 85.8138 222.548 87.2515 221.273 90.3071C219.998 93.3627 221.428 96.8792 224.467 98.1613Z" fill="#FFFACC"/>
</g>
<defs>
<clipPath id="clip0_2379_104">
<rect width="1511" height="978" fill="white"/>
</clipPath>
</defs>
</svg>
