<svg width="264" height="66" viewBox="0 0 264 66" fill="none" xmlns="http://www.w3.org/2000/svg">
<g filter="url(#filter0_b_1701_861)">
<rect width="263.047" height="65.5993" rx="25.9799" fill="#FFB23E"/>
<path d="M107.245 2.91833H141.605L76.2099 62.0227H39.6333L107.245 2.91833Z" fill="#F5EA83"/>
<path d="M161.152 2.91833H195.512L130.118 62.0227H93.541L161.152 2.91833Z" fill="#F5EA83"/>
<path d="M74.7384 42.4624C73.4446 42.4624 72.2443 42.2598 71.1376 41.8545C70.0464 41.4336 69.0956 40.8413 68.285 40.0775C67.49 39.3137 66.8665 38.4174 66.4144 37.3886C65.9624 36.3442 65.7364 35.1985 65.7364 33.9514C65.7364 32.7044 65.9624 31.5665 66.4144 30.5377C66.8665 29.4933 67.49 28.5892 68.285 27.8254C69.0956 27.0615 70.0464 26.477 71.1376 26.0717C72.2443 25.6508 73.4446 25.4404 74.7384 25.4404C76.2504 25.4404 77.5988 25.7054 78.7835 26.2354C79.9838 26.7654 80.9814 27.5292 81.7764 28.5268L78.8302 31.1924C78.3003 30.5688 77.7157 30.0934 77.0766 29.7661C76.4531 29.4387 75.7516 29.275 74.9722 29.275C74.3019 29.275 73.6862 29.3842 73.1251 29.6024C72.5639 29.8206 72.0807 30.1402 71.6754 30.561C71.2857 30.9663 70.9739 31.4573 70.7401 32.0341C70.5219 32.6109 70.4127 33.25 70.4127 33.9514C70.4127 34.6529 70.5219 35.292 70.7401 35.8687C70.9739 36.4455 71.2857 36.9443 71.6754 37.3652C72.0807 37.7705 72.5639 38.0822 73.1251 38.3005C73.6862 38.5187 74.3019 38.6278 74.9722 38.6278C75.7516 38.6278 76.4531 38.4641 77.0766 38.1368C77.7157 37.8094 78.3003 37.334 78.8302 36.7105L81.7764 39.376C80.9814 40.3581 79.9838 41.1219 78.7835 41.6675C77.5988 42.1975 76.2504 42.4624 74.7384 42.4624ZM91.7519 42.4624C90.4425 42.4624 89.2344 42.252 88.1277 41.8311C87.0209 41.4103 86.0545 40.8179 85.2283 40.0541C84.4177 39.2747 83.7864 38.3706 83.3344 37.3418C82.8823 36.313 82.6563 35.1829 82.6563 33.9514C82.6563 32.72 82.8823 31.5898 83.3344 30.561C83.7864 29.5322 84.4177 28.6359 85.2283 27.8721C86.0545 27.0927 87.0209 26.4926 88.1277 26.0717C89.2344 25.6508 90.4425 25.4404 91.7519 25.4404C93.0768 25.4404 94.2849 25.6508 95.3761 26.0717C96.4828 26.4926 97.4415 27.0927 98.2521 27.8721C99.0626 28.6359 99.6939 29.5322 100.146 30.561C100.614 31.5898 100.847 32.72 100.847 33.9514C100.847 35.1829 100.614 36.3208 100.146 37.3652C99.6939 38.394 99.0626 39.2903 98.2521 40.0541C97.4415 40.8179 96.4828 41.4103 95.3761 41.8311C94.2849 42.252 93.0768 42.4624 91.7519 42.4624ZM91.7519 38.6278C92.3754 38.6278 92.9521 38.5187 93.4821 38.3005C94.0277 38.0822 94.4954 37.7705 94.8851 37.3652C95.2903 36.9443 95.6021 36.4455 95.8203 35.8687C96.0542 35.292 96.1711 34.6529 96.1711 33.9514C96.1711 33.2344 96.0542 32.5953 95.8203 32.0341C95.6021 31.4573 95.2903 30.9663 94.8851 30.561C94.4954 30.1402 94.0277 29.8206 93.4821 29.6024C92.9521 29.3842 92.3754 29.275 91.7519 29.275C91.1284 29.275 90.5438 29.3842 89.9982 29.6024C89.4682 29.8206 89.0006 30.1402 88.5953 30.561C88.2056 30.9663 87.8939 31.4573 87.66 32.0341C87.4418 32.5953 87.3327 33.2344 87.3327 33.9514C87.3327 34.6529 87.4418 35.292 87.66 35.8687C87.8939 36.4455 88.2056 36.9443 88.5953 37.3652C89.0006 37.7705 89.4682 38.0822 89.9982 38.3005C90.5438 38.5187 91.1284 38.6278 91.7519 38.6278ZM103.272 42.1351V25.7677H107.083L116.109 36.6637H114.309V25.7677H118.845V42.1351H115.033L106.008 31.2391H107.808V42.1351H103.272ZM125.594 42.1351V29.4387H120.567V25.7677H135.227V29.4387H130.224V42.1351H125.594ZM136.952 42.1351V25.7677H141.582V42.1351H136.952ZM144.876 42.1351V25.7677H148.687L157.712 36.6637H155.912V25.7677H160.448V42.1351H156.637L147.611 31.2391H149.412V42.1351H144.876ZM171.266 42.4624C168.85 42.4624 166.964 41.8 165.608 40.475C164.251 39.15 163.573 37.2717 163.573 34.8399V25.7677H168.203V34.6996C168.203 36.1026 168.476 37.108 169.021 37.7159C169.583 38.3238 170.346 38.6278 171.313 38.6278C172.279 38.6278 173.035 38.3238 173.581 37.7159C174.126 37.108 174.399 36.1026 174.399 34.6996V25.7677H178.959V34.8399C178.959 37.2717 178.281 39.15 176.924 40.475C175.568 41.8 173.682 42.4624 171.266 42.4624ZM186.35 32.1042H193.95V35.5648H186.35V32.1042ZM186.678 38.5577H195.236V42.1351H182.095V25.7677H194.932V29.3452H186.678V38.5577Z" fill="#A61E00"/>
</g>
<defs>
<filter id="filter0_b_1701_861" x="-4.27106" y="-4.27106" width="271.589" height="74.1414" filterUnits="userSpaceOnUse" color-interpolation-filters="sRGB">
<feFlood flood-opacity="0" result="BackgroundImageFix"/>
<feGaussianBlur in="BackgroundImageFix" stdDeviation="2.13553"/>
<feComposite in2="SourceAlpha" operator="in" result="effect1_backgroundBlur_1701_861"/>
<feBlend mode="normal" in="SourceGraphic" in2="effect1_backgroundBlur_1701_861" result="shape"/>
</filter>
</defs>
</svg>
