<svg width="222" height="56" viewBox="0 0 222 56" fill="none" xmlns="http://www.w3.org/2000/svg">
<g filter="url(#filter0_b_1701_866)">
<rect width="222" height="55.363" rx="21.9259" fill="#97CECE"/>
<path d="M57.0182 34.9928V24.2776H52.7756V21.1795H65.1484V24.2776H60.9254V34.9928H57.0182ZM66.604 34.9928V21.1795H72.9187C74.1816 21.1795 75.2669 21.3834 76.1747 21.7912C77.0955 22.199 77.8059 22.791 78.3059 23.5672C78.8058 24.3302 79.0557 25.238 79.0557 26.2904C79.0557 27.3297 78.8058 28.2308 78.3059 28.9939C77.8059 29.7437 77.0955 30.3226 76.1747 30.7304C75.2669 31.1251 74.1816 31.3224 72.9187 31.3224H68.7747L70.5112 29.6845V34.9928H66.604ZM75.1485 34.9928L71.7149 29.9608H75.8787L79.332 34.9928H75.1485ZM70.5112 30.0989L68.7747 28.3032H72.6819C73.4975 28.3032 74.1027 28.1256 74.4973 27.7704C74.9051 27.4152 75.1091 26.9219 75.1091 26.2904C75.1091 25.6458 74.9051 25.1459 74.4973 24.7907C74.1027 24.4355 73.4975 24.2579 72.6819 24.2579H68.7747L70.5112 22.4621V30.0989ZM84.5114 34.9928V29.1517L85.4191 31.5L79.2426 21.1795H83.3668L87.8266 28.6584H85.4388L89.9183 21.1795H93.7071L87.5503 31.5L88.4186 29.1517V34.9928H84.5114ZM98.786 34.9928L104.884 21.1795H108.732L114.849 34.9928H110.784L106.008 23.0936H107.548L102.772 34.9928H98.786ZM102.121 32.3091L103.127 29.428H109.876L110.882 32.3091H102.121ZM122.671 35.2691C121.579 35.2691 120.566 35.098 119.632 34.756C118.698 34.4008 117.888 33.9009 117.204 33.2563C116.533 32.6116 116.007 31.8552 115.626 30.9869C115.244 30.1055 115.053 29.1386 115.053 28.0861C115.053 27.0337 115.244 26.0733 115.626 25.2051C116.007 24.3236 116.54 23.5606 117.224 22.916C117.908 22.2714 118.717 21.778 119.651 21.436C120.599 21.0808 121.631 20.9032 122.749 20.9032C124.052 20.9032 125.216 21.1203 126.242 21.5544C127.268 21.9885 128.117 22.6134 128.788 23.4291L126.301 25.6787C125.828 25.1656 125.315 24.7841 124.762 24.5341C124.223 24.271 123.618 24.1395 122.947 24.1395C122.355 24.1395 121.815 24.2316 121.329 24.4157C120.842 24.5999 120.428 24.8696 120.085 25.2248C119.743 25.5668 119.474 25.9812 119.276 26.468C119.092 26.9416 119 27.481 119 28.0861C119 28.665 119.092 29.1978 119.276 29.6845C119.474 30.1713 119.743 30.5923 120.085 30.9475C120.428 31.2895 120.835 31.5592 121.309 31.7565C121.796 31.9407 122.328 32.0328 122.907 32.0328C123.486 32.0328 124.052 31.9407 124.604 31.7565C125.157 31.5592 125.716 31.2303 126.282 30.7699L128.472 33.5128C127.683 34.0785 126.768 34.5126 125.729 34.8152C124.69 35.1178 123.67 35.2691 122.671 35.2691ZM125.019 32.9997V27.7901H128.472V33.5128L125.019 32.9997ZM129.292 34.9928L135.389 21.1795H139.237L145.355 34.9928H141.29L136.514 23.0936H138.053L133.278 34.9928H129.292ZM132.627 32.3091L133.633 29.428H140.382L141.388 32.3091H132.627ZM146.462 34.9928V21.1795H150.369V34.9928H146.462ZM153.149 34.9928V21.1795H156.366L163.983 30.3752H162.463V21.1795H166.292V34.9928H163.075L155.458 25.7971H156.978V34.9928H153.149Z" fill="white"/>
</g>
<defs>
<filter id="filter0_b_1701_866" x="-3.60458" y="-3.60458" width="229.209" height="62.5721" filterUnits="userSpaceOnUse" color-interpolation-filters="sRGB">
<feFlood flood-opacity="0" result="BackgroundImageFix"/>
<feGaussianBlur in="BackgroundImageFix" stdDeviation="1.80229"/>
<feComposite in2="SourceAlpha" operator="in" result="effect1_backgroundBlur_1701_866"/>
<feBlend mode="normal" in="SourceGraphic" in2="effect1_backgroundBlur_1701_866" result="shape"/>
</filter>
</defs>
</svg>
