<svg width="378" height="907" viewBox="0 0 378 907" fill="none" xmlns="http://www.w3.org/2000/svg">
<path d="M203.5 522.002C203.5 522.002 187 583.123 187 709.223C187 781.212 206 866.002 206 866.002" stroke="#C9D2E5" stroke-width="4"/>
<path d="M91 374.003C91 374.003 123.466 514.148 125.081 575.406C128.817 717.148 205.788 867.522 205.788 867.522" stroke="#C9D2E5" stroke-width="4"/>
<path d="M256 346.503C256 346.503 251.339 481.979 246.77 540.921C234.602 697.903 205.44 866.308 205.44 866.308" stroke="#C9D2E5" stroke-width="4"/>
<path d="M151 188C151 188 192.529 330.145 179.081 401.065C137.081 622.558 201.081 857.08 201.081 857.08" stroke="#C9D2E5" stroke-width="4"/>
<g opacity="0.95">
<path d="M97.1857 401.408L107.884 413.629L92.8003 417.177L97.1857 401.408Z" fill="#F99557"/>
<ellipse cx="75.0297" cy="84.3384" rx="75.0297" ry="84.3384" transform="matrix(0.985818 -0.167815 0.161617 0.986853 1.04443 254.282)" fill="#F99557"/>
<path d="M39.3351 338.656L38.0601 321.202L45.6898 320.645C47.5847 320.507 49.2737 320.751 50.7566 321.378C52.2396 322.005 53.4274 322.937 54.3199 324.176C55.2125 325.414 55.7232 326.914 55.8519 328.676C55.9794 330.421 55.6921 331.98 54.9902 333.351C54.287 334.706 53.2474 335.801 51.8713 336.637C50.4952 337.473 48.8597 337.96 46.9647 338.098L39.3351 338.656ZM42.3761 335.676L46.6148 335.367C47.9279 335.271 49.04 334.939 49.9511 334.371C50.8788 333.802 51.5675 333.05 52.0172 332.114C52.4835 331.178 52.673 330.111 52.5856 328.915C52.4969 327.701 52.1545 326.673 51.5582 325.831C50.9774 324.971 50.1867 324.327 49.1861 323.899C48.2022 323.469 47.0537 323.303 45.7405 323.399L41.5018 323.708L42.3761 335.676ZM67.4577 336.852C65.0641 337.027 63.1366 336.491 61.6752 335.244C60.2304 333.996 59.4151 332.1 59.2294 329.557L58.5099 319.709L61.7513 319.472L62.4616 329.196C62.5927 330.991 63.0704 332.268 63.8945 333.027C64.7353 333.784 65.8621 334.111 67.275 334.008C68.6879 333.905 69.7469 333.418 70.452 332.548C71.1572 331.677 71.4442 330.344 71.313 328.549L70.6027 318.825L73.7942 318.592L74.5136 328.441C74.6994 330.984 74.16 332.979 72.8953 334.425C71.6472 335.869 69.8347 336.679 67.4577 336.852ZM79.6086 335.714L78.3337 318.26L85.5145 317.736C87.0604 317.623 88.4001 317.776 89.5336 318.194C90.6837 318.612 91.592 319.264 92.2584 320.151C92.9248 321.038 93.3048 322.122 93.3983 323.402C93.4917 324.682 93.2733 325.809 92.7429 326.783C92.2113 327.741 91.4068 328.51 90.3295 329.09C89.2677 329.652 87.9638 329.99 86.4179 330.103L81.0323 330.496L82.371 328.92L82.85 335.477L79.6086 335.714ZM91.0282 334.88L86.1523 328.869L89.6181 328.616L94.5189 334.625L91.0282 334.88ZM82.3965 329.269L80.8374 327.828L86.0734 327.446C87.503 327.342 88.5526 326.956 89.2225 326.288C89.9089 325.62 90.2121 324.737 90.132 323.64C90.0506 322.526 89.6224 321.697 88.8473 321.152C88.0888 320.606 86.9948 320.385 85.5653 320.49L80.3292 320.872L81.6588 319.171L82.3965 329.269ZM97.8461 334.382L96.5712 316.928L99.8126 316.691L101.088 334.145L97.8461 334.382ZM105.808 333.8L104.533 316.347L107.201 316.152L119.129 328.791L117.807 328.888L116.826 315.449L120.042 315.214L121.317 332.667L118.649 332.862L106.722 320.222L108.043 320.126L109.025 333.565L105.808 333.8ZM134.165 331.979C132.802 332.079 131.531 331.955 130.353 331.606C129.19 331.24 128.155 330.689 127.249 329.953C126.342 329.2 125.616 328.292 125.07 327.229C124.525 326.166 124.204 324.986 124.11 323.69C124.015 322.393 124.16 321.18 124.546 320.048C124.931 318.917 125.518 317.922 126.308 317.062C127.113 316.185 128.073 315.488 129.188 314.972C130.302 314.439 131.541 314.123 132.904 314.024C134.383 313.915 135.731 314.059 136.946 314.455C138.178 314.85 139.235 315.483 140.118 316.354L138.219 318.498C137.488 317.866 136.711 317.422 135.891 317.164C135.085 316.889 134.209 316.786 133.261 316.855C132.347 316.922 131.51 317.133 130.751 317.49C129.991 317.846 129.349 318.319 128.824 318.909C128.299 319.499 127.906 320.179 127.644 320.95C127.4 321.72 127.31 322.554 127.376 323.451C127.44 324.332 127.649 325.136 128.003 325.862C128.374 326.587 128.862 327.211 129.469 327.735C130.074 328.243 130.77 328.618 131.556 328.861C132.343 329.105 133.201 329.192 134.132 329.124C134.997 329.061 135.818 328.867 136.596 328.543C137.39 328.201 138.129 327.679 138.813 326.977L140.835 329.261C139.974 330.059 138.951 330.694 137.766 331.165C136.595 331.618 135.395 331.89 134.165 331.979ZM137.737 329.061L137.26 322.529L140.327 322.305L140.835 329.261L137.737 329.061Z" fill="black"/>
<path d="M47.8097 285.875C43.3563 291.959 39.276 303.244 39.276 303.244C39.276 303.244 37.9364 305.561 36.937 303.666C36.6182 300.895 40.2967 290.604 43.4572 285.363C47.5778 278.529 52.8904 274.294 57.1208 272.258C60.0446 271.73 56.2808 275.523 56.2808 275.523C56.2808 275.523 53.6881 277.844 47.8097 285.875Z" fill="white"/>
<path d="M38.9343 310.916C39.3956 312.13 38.9861 313.343 38.0198 314.236C37.3553 314.862 36.1049 314.923 35.6437 313.708C35.1824 312.494 36.1328 311.062 36.95 310.274C37.5637 309.794 38.4731 309.701 38.9343 310.916Z" fill="white"/>
</g>
<g opacity="0.95" filter="url(#filter0_d_1072_187)">
<path d="M256.576 351.023L263.55 365.969L247.316 364.699L256.576 351.023Z" fill="#37DECD"/>
<ellipse cx="266.921" cy="272.064" rx="80.3539" ry="84.3622" transform="rotate(2.17966 266.921 272.064)" fill="#37DECD"/>
<path d="M215.522 283.03L216.188 265.542L224.382 265.854C226.48 265.934 228.063 266.411 229.131 267.286C230.199 268.144 230.707 269.264 230.654 270.646C230.619 271.579 230.372 272.37 229.913 273.02C229.455 273.653 228.853 274.139 228.106 274.477C227.377 274.8 226.588 274.945 225.738 274.912L226.222 274.03C227.205 274.068 228.08 274.284 228.849 274.681C229.619 275.06 230.215 275.6 230.639 276.3C231.079 277 231.28 277.859 231.241 278.875C231.184 280.373 230.565 281.517 229.385 282.306C228.204 283.095 226.481 283.447 224.216 283.361L215.522 283.03ZM218.867 280.605L224.113 280.805C225.329 280.851 226.269 280.687 226.934 280.312C227.598 279.937 227.948 279.308 227.981 278.425C228.014 277.559 227.714 276.914 227.079 276.49C226.446 276.048 225.521 275.805 224.305 275.758L218.809 275.549L218.905 273.026L223.751 273.211C224.884 273.254 225.758 273.087 226.372 272.71C227.004 272.334 227.335 271.746 227.365 270.946C227.396 270.13 227.111 269.511 226.51 269.088C225.926 268.665 225.068 268.432 223.935 268.389L219.338 268.214L218.867 280.605ZM237.914 273.65L246.607 273.98L246.506 276.653L237.812 276.323L237.914 273.65ZM237.878 281.154L247.746 281.529L247.642 284.252L234.527 283.753L235.192 266.266L247.958 266.752L247.855 269.475L238.336 269.112L237.878 281.154ZM254.595 275.06L263.314 275.392L263.209 278.14L254.49 277.808L254.595 275.06ZM254.51 284.514L251.263 284.39L251.928 266.903L264.694 267.389L264.59 270.112L255.072 269.749L254.51 284.514ZM275.159 285.55C273.793 285.498 272.544 285.225 271.412 284.732C270.28 284.238 269.304 283.576 268.486 282.744C267.667 281.895 267.045 280.921 266.62 279.821C266.196 278.704 266.008 277.496 266.058 276.197C266.107 274.898 266.386 273.716 266.893 272.651C267.401 271.57 268.095 270.645 268.975 269.878C269.856 269.094 270.879 268.5 272.045 268.094C273.212 267.688 274.469 267.51 275.818 267.562C277.184 267.614 278.424 267.886 279.54 268.379C280.672 268.872 281.647 269.543 282.465 270.392C283.284 271.223 283.906 272.198 284.331 273.315C284.756 274.415 284.944 275.615 284.894 276.914C284.845 278.213 284.566 279.403 284.058 280.484C283.55 281.566 282.856 282.49 281.976 283.257C281.096 284.024 280.073 284.611 278.907 285.017C277.757 285.423 276.508 285.601 275.159 285.55ZM275.242 282.701C276.125 282.734 276.947 282.616 277.707 282.344C278.468 282.073 279.134 281.673 279.704 281.144C280.276 280.599 280.725 279.966 281.053 279.244C281.398 278.507 281.587 277.688 281.622 276.789C281.656 275.89 281.529 275.068 281.24 274.323C280.969 273.562 280.569 272.896 280.04 272.326C279.512 271.739 278.879 271.281 278.141 270.953C277.403 270.624 276.593 270.443 275.71 270.41C274.827 270.376 274.005 270.495 273.245 270.766C272.5 271.038 271.834 271.446 271.246 271.991C270.676 272.52 270.218 273.153 269.873 273.89C269.546 274.612 269.365 275.422 269.33 276.321C269.297 277.204 269.416 278.026 269.687 278.787C269.975 279.548 270.383 280.223 270.911 280.81C271.44 281.38 272.073 281.83 272.811 282.158C273.549 282.486 274.359 282.667 275.242 282.701ZM288.004 285.788L288.669 268.301L295.864 268.575C297.413 268.634 298.728 268.934 299.808 269.476C300.905 270.018 301.735 270.766 302.299 271.722C302.863 272.677 303.121 273.796 303.072 275.079C303.023 276.361 302.681 277.457 302.046 278.367C301.412 279.26 300.527 279.935 299.392 280.393C298.275 280.834 296.941 281.025 295.393 280.966L289.996 280.761L291.501 279.342L291.251 285.912L288.004 285.788ZM299.445 286.224L295.265 279.71L298.738 279.842L302.943 286.357L299.445 286.224ZM291.488 279.691L290.098 278.087L295.344 278.287C296.777 278.342 297.863 278.074 298.602 277.485C299.358 276.897 299.758 276.053 299.799 274.954C299.842 273.838 299.508 272.967 298.798 272.339C298.105 271.712 297.042 271.372 295.61 271.317L290.363 271.118L291.873 269.574L291.488 279.691ZM309.663 276.38L318.357 276.711L318.255 279.384L309.562 279.053L309.663 276.38ZM309.628 283.884L319.496 284.26L319.392 286.983L306.277 286.484L306.942 268.997L319.708 269.482L319.604 272.205L310.086 271.843L309.628 283.884Z" fill="#1D2644"/>
<path d="M229.626 225.771C223.726 230.787 217.085 240.968 217.085 240.968C217.085 240.968 215.205 242.953 214.587 240.89C214.858 238.114 220.871 228.821 225.257 224.358C230.976 218.539 237.36 215.511 242.154 214.406C245.277 214.502 240.583 217.423 240.583 217.423C240.583 217.423 237.413 219.149 229.626 225.771Z" fill="white"/>
<path d="M215.074 248.398C215.286 249.682 214.602 250.783 213.415 251.454C212.595 251.926 211.295 251.724 211.083 250.44C210.872 249.156 212.159 247.955 213.171 247.355C213.906 247.015 214.862 247.114 215.074 248.398Z" fill="white"/>
</g>
<g opacity="0.95">
<path d="M149.849 181.078L161.612 194.611L144.554 198.21L149.849 181.078Z" fill="#FCDC8F"/>
<path opacity="0.95" d="M99.475 35.2587C115.054 30.0481 138.731 69.3456 151.896 73.059C165.061 76.7724 207.112 55.0596 216.34 70.122C230.088 92.5596 195.181 103.079 195.396 130.059C195.608 156.596 227.869 167.016 216.193 189.826C208.906 204.06 160.944 181.674 148.896 186.055C136.848 190.436 126.055 235.965 99.2358 228.944C84.396 225.059 88.452 180.023 79.396 166.559C70.34 153.095 28.556 148.559 27.1003 133.416C24.8071 109.559 70.0398 108.678 79.396 95.059C88.7522 81.4402 83.896 40.4694 99.475 35.2587Z" fill="#FCDC8F"/>
<path d="M99.588 143.117L112.614 139.809L113.894 144.849L100.868 148.157L99.588 143.117ZM103.844 157.925L97.5636 159.52L90.6709 132.382L111.18 127.173L112.46 132.213L98.2316 135.827L103.844 157.925ZM117.66 154.416L122.863 124.206L129.066 122.63L148.093 146.687L141.503 148.361L125.492 126.922L127.974 126.292L124.095 152.782L117.66 154.416ZM122.231 147.065L122.686 141.873L136.643 138.328L139.56 142.663L122.231 147.065ZM163.791 143.195C161.672 143.733 159.606 143.886 157.594 143.655C155.607 143.416 153.781 142.835 152.116 141.909C150.476 140.978 149.064 139.754 147.882 138.239C146.725 136.717 145.89 134.948 145.378 132.932C144.866 130.916 144.755 128.963 145.046 127.073C145.362 125.177 146.031 123.425 147.054 121.817C148.076 120.209 149.403 118.827 151.035 117.67C152.667 116.512 154.543 115.664 156.662 115.126C158.807 114.581 160.86 114.431 162.821 114.676C164.807 114.914 166.621 115.499 168.26 116.431C169.919 117.33 171.34 118.538 172.523 120.053C173.706 121.569 174.557 123.347 175.075 125.389C175.587 127.405 175.688 129.374 175.379 131.296C175.062 133.192 174.393 134.944 173.371 136.552C172.368 138.128 171.05 139.494 169.418 140.651C167.812 141.802 165.936 142.65 163.791 143.195ZM174.137 146.717C173.077 146.986 172.039 147.125 171.024 147.136C170.034 147.139 169.009 147.001 167.947 146.72C166.911 146.433 165.778 145.978 164.546 145.355C163.341 144.726 161.993 143.913 160.501 142.916L166.669 139.575C167.609 140.354 168.449 140.953 169.188 141.37C169.927 141.788 170.597 142.044 171.199 142.139C171.827 142.227 172.451 142.192 173.071 142.035C174.725 141.615 176.028 140.568 176.979 138.896L180.617 141.521C179.347 144.21 177.186 145.942 174.137 146.717ZM162.432 137.845C163.647 137.536 164.706 137.047 165.609 136.378C166.538 135.701 167.291 134.877 167.87 133.905C168.448 132.933 168.81 131.864 168.954 130.699C169.118 129.502 169.039 128.27 168.717 127.004C168.389 125.712 167.871 124.592 167.162 123.643C166.479 122.689 165.652 121.922 164.68 121.344C163.707 120.765 162.652 120.401 161.513 120.25C160.4 120.092 159.236 120.168 158.021 120.476C156.806 120.785 155.734 121.277 154.806 121.953C153.877 122.629 153.123 123.453 152.545 124.426C151.992 125.392 151.631 126.46 151.461 127.631C151.316 128.796 151.408 130.025 151.736 131.317C152.058 132.583 152.563 133.707 153.253 134.687C153.961 135.635 154.789 136.402 155.735 136.987C156.707 137.565 157.763 137.93 158.902 138.081C160.041 138.232 161.218 138.153 162.432 137.845Z" fill="#1D2644"/>
<path d="M79.8703 122.499C77.5021 127.923 76.3404 137.191 76.3404 137.191C76.3404 137.191 75.7141 139.189 74.6069 137.953C73.8714 135.928 74.8979 127.485 76.4155 122.94C78.3942 117.015 81.753 112.819 84.6635 110.483C86.8304 109.531 84.5908 113.1 84.5908 113.1C84.5908 113.1 82.9962 115.339 79.8703 122.499Z" fill="white"/>
<path d="M77.4308 143.03C78.0017 143.856 77.8994 144.847 77.31 145.702C76.9069 146.299 75.9511 146.582 75.3802 145.756C74.8093 144.93 75.2911 143.672 75.7836 142.923C76.1733 142.446 76.8598 142.203 77.4308 143.03Z" fill="white"/>
</g>
<path d="M201.392 533.628L205.622 549.944L189.183 545.687L201.392 533.628Z" fill="#FE7098"/>
<ellipse cx="76.618" cy="83.9033" rx="76.618" ry="83.9033" transform="matrix(0.992747 0.120221 -0.130361 0.991467 147.875 362.003)" fill="#FE7098"/>
<path d="M175.117 408.034C169.538 413.09 163.427 423.154 163.427 423.154C163.427 423.154 161.663 425.139 160.982 423.171C161.144 420.484 166.674 411.298 170.795 406.832C176.168 401.009 182.294 397.853 186.938 396.611C189.994 396.59 185.515 399.579 185.515 399.579C185.515 399.579 182.481 401.361 175.117 408.034Z" fill="white"/>
<path d="M161.737 430.396C161.992 431.627 161.365 432.714 160.229 433.404C159.446 433.891 158.168 433.743 157.913 432.512C157.658 431.281 158.872 430.075 159.839 429.46C160.545 429.104 161.483 429.165 161.737 430.396Z" fill="white"/>
<path d="M160.313 468.257C158.947 468.257 157.688 468.04 156.538 467.607C155.405 467.157 154.413 466.532 153.563 465.732C152.713 464.915 152.055 463.957 151.588 462.857C151.122 461.757 150.888 460.557 150.888 459.257C150.888 457.957 151.122 456.757 151.588 455.657C152.055 454.557 152.713 453.607 153.563 452.807C154.43 451.99 155.438 451.365 156.588 450.932C157.738 450.482 158.997 450.257 160.363 450.257C161.847 450.257 163.18 450.499 164.363 450.982C165.563 451.465 166.572 452.174 167.388 453.107L165.338 455.107C164.655 454.424 163.913 453.924 163.113 453.607C162.33 453.274 161.463 453.107 160.513 453.107C159.597 453.107 158.747 453.257 157.963 453.557C157.18 453.857 156.505 454.282 155.938 454.832C155.372 455.382 154.93 456.032 154.613 456.782C154.313 457.532 154.163 458.357 154.163 459.257C154.163 460.14 154.313 460.957 154.613 461.707C154.93 462.457 155.372 463.115 155.938 463.682C156.505 464.232 157.172 464.657 157.938 464.957C158.705 465.257 159.555 465.407 160.488 465.407C161.355 465.407 162.188 465.274 162.988 465.007C163.805 464.724 164.58 464.257 165.313 463.607L167.163 466.032C166.247 466.765 165.18 467.324 163.963 467.707C162.763 468.074 161.547 468.257 160.313 468.257ZM164.088 465.607V459.057H167.163V466.032L164.088 465.607ZM174.45 457.782H183.15V460.457H174.45V457.782ZM174.7 465.282H184.575V468.007H171.45V450.507H184.225V453.232H174.7V465.282ZM188.198 468.007V450.507H190.873L201.848 463.982H200.523V450.507H203.748V468.007H201.073L190.098 454.532H191.423V468.007H188.198ZM211.437 457.782H220.137V460.457H211.437V457.782ZM211.687 465.282H221.562V468.007H208.437V450.507H221.212V453.232H211.687V465.282ZM225.185 468.007V450.507H232.385C233.935 450.507 235.26 450.757 236.36 451.257C237.477 451.757 238.335 452.474 238.935 453.407C239.535 454.34 239.835 455.449 239.835 456.732C239.835 458.015 239.535 459.124 238.935 460.057C238.335 460.974 237.477 461.682 236.36 462.182C235.26 462.665 233.935 462.907 232.385 462.907H226.985L228.435 461.432V468.007H225.185ZM236.635 468.007L232.21 461.657H235.685L240.135 468.007H236.635ZM228.435 461.782L226.985 460.232H232.235C233.668 460.232 234.743 459.924 235.46 459.307C236.193 458.69 236.56 457.832 236.56 456.732C236.56 455.615 236.193 454.757 235.46 454.157C234.743 453.557 233.668 453.257 232.235 453.257H226.985L228.435 451.657V461.782ZM240.996 468.007L248.871 450.507H252.071L259.971 468.007H256.571L249.796 452.232H251.096L244.346 468.007H240.996ZM244.621 463.957L245.496 461.407H254.946L255.821 463.957H244.621ZM262.197 468.007V450.507H265.447V465.257H274.597V468.007H262.197Z" fill="#1D2644"/>
<path d="M213.979 818H183.649C179.54 818 177.032 822.798 179.02 826.394C182.01 831.8 185.074 838.843 184.678 844.474C183.771 857.368 165.65 861.819 163.892 874.677C162.289 886.398 157.572 907 173.708 907H225.694C241.83 907 236.4 884.416 234.951 872.687C233.376 859.935 214.557 857.249 213.547 844.474C213.097 838.782 215.95 831.585 218.694 826.132C220.493 822.557 217.98 818 213.979 818Z" fill="url(#paint0_linear_1072_187)"/>
<defs>
<filter id="filter0_d_1072_187" x="156.56" y="157.707" width="220.722" height="238.262" filterUnits="userSpaceOnUse" color-interpolation-filters="sRGB">
<feFlood flood-opacity="0" result="BackgroundImageFix"/>
<feColorMatrix in="SourceAlpha" type="matrix" values="0 0 0 0 0 0 0 0 0 0 0 0 0 0 0 0 0 0 127 0" result="hardAlpha"/>
<feOffset/>
<feGaussianBlur stdDeviation="15"/>
<feComposite in2="hardAlpha" operator="out"/>
<feColorMatrix type="matrix" values="0 0 0 0 0.988235 0 0 0 0 0.862745 0 0 0 0 0.560784 0 0 0 1 0"/>
<feBlend mode="normal" in2="BackgroundImageFix" result="effect1_dropShadow_1072_187"/>
<feBlend mode="normal" in="SourceGraphic" in2="effect1_dropShadow_1072_187" result="shape"/>
</filter>
<linearGradient id="paint0_linear_1072_187" x1="199.5" y1="818" x2="199" y2="958.5" gradientUnits="userSpaceOnUse">
<stop stop-color="#FEA3AA"/>
<stop offset="1" stop-color="#B73C94"/>
</linearGradient>
</defs>
</svg>
