<svg width="393" height="852" viewBox="0 0 393 852" fill="none" xmlns="http://www.w3.org/2000/svg">
<g clip-path="url(#clip0_746_59)">
<rect width="830" height="901" transform="translate(-218 -16)" fill="#BEDDFF"/>
<path d="M-340.525 724.645L442 779C440.739 736.879 439.349 585.594 406.796 555.813C366.104 518.586 351.367 521.207 310.675 555.813C269.984 590.418 226.628 670.116 206.283 657.532C185.937 644.948 116.575 585.754 77.7097 588.201C38.8443 590.647 -53.7295 644.948 -53.7295 684.796C-53.7295 724.645 -205.409 507.757 -251.708 507.757C-298.008 507.757 -338.569 500.242 -357.088 532.575C-371.904 558.442 -363.218 642.676 -370 657.532L-357.088 724.645H-340.525Z" fill="#46616F"/>
<path d="M195.313 611.803L217.705 614.056L251.432 617.45L281.107 620.436L308.531 623.195L333.781 625.736L357.717 628.145L386.965 631.057V611.662V601.964L195.313 582.584V611.803Z" fill="#FBEDCD"/>
<path d="M217.705 628.495V614.056C214.56 618.007 203.037 627.067 182.104 631.702L199.904 630.098L217.705 628.495Z" fill="#FBEDCD"/>
<path d="M251.432 631.97V617.45C247.706 627.742 239.729 630.239 229.631 629.723L241.556 630.952L251.432 631.97Z" fill="#FBEDCD"/>
<path d="M242.606 745.051L241.556 630.952L229.631 629.723L230.155 745.051H242.606Z" fill="#FBEDCD"/>
<path d="M267.507 745.051H274.188V634.314L264.843 633.352V745.051H267.507Z" fill="#FBEDCD"/>
<path d="M301.863 745.051V637.166L293.183 636.272V745.051H301.863Z" fill="#FBEDCD"/>
<path d="M328.155 745.051V639.875L319.978 639.032L320.67 745.051H328.155Z" fill="#FBEDCD"/>
<path d="M353.44 745.051V642.48L346.207 641.735V745.051H353.44Z" fill="#FBEDCD"/>
<path d="M381.242 745.051L381.116 645.319L373.065 644.494L373.128 745.051H381.242Z" fill="#FBEDCD"/>
<path d="M386.965 592.266L370.8 589.511L364.636 588.896L195.313 572.005V579.687L386.965 599.46V592.266Z" fill="#FFF7E5"/>
<path d="M190.407 563.063L195.313 572.005L284.503 551.522L287.995 550.72C295.385 561.006 315.097 577.874 334.822 563.063L370.8 589.511L386.965 592.266L334.822 557.395C312.279 565.758 300.689 553.911 297.712 546.942V538L190.407 563.063Z" fill="#FFF7E5"/>
<path d="M8 631.702L18.3154 630.606L25.2343 629.871L38.1914 628.495L53.6645 626.851L61.2124 626.049L69.1376 625.207L83.4786 623.683L101.216 621.799L107.38 621.144L116.563 620.169L132.036 618.525L148.39 616.788L155.938 615.986L165.247 614.997L182.104 613.206L195.313 611.803V582.584L8 602.735V631.702Z" fill="#D4B4AB"/>
<path d="M195.313 611.803L182.104 613.206V631.702C203.037 627.067 214.56 618.007 217.705 614.056L195.313 611.803Z" fill="#D4B4AB"/>
<path d="M217.705 614.056V628.495L229.631 629.723C239.729 630.239 247.706 627.742 251.432 617.45L217.705 614.056Z" fill="#D4B4AB"/>
<path d="M195.313 582.584L386.965 601.964V599.46L195.313 579.687V582.584Z" fill="#D4B4AB"/>
<path d="M217.705 628.495V745.051H230.155L229.631 629.723C227.487 629.614 219.344 628.76 217.705 628.495Z" fill="#D4B4AB"/>
<path d="M255.499 632.458V745.051H264.843V633.352L255.499 632.458Z" fill="#D4B4AB"/>
<path d="M284.503 635.377V745.051H293.183V636.272L284.503 635.377Z" fill="#D4B4AB"/>
<path d="M311.801 638.19L313.185 745.051H320.67L319.978 639.032L311.801 638.19Z" fill="#D4B4AB"/>
<path d="M338.974 640.99V745.051H346.207V641.735L338.974 640.99Z" fill="#D4B4AB"/>
<path d="M365.014 643.669V745.051H373.128L373.065 644.494L365.014 643.669Z" fill="#D4B4AB"/>
<path d="M251.432 617.45V631.97L255.499 632.458L264.843 633.352C269.887 631.588 280.201 626.536 281.107 620.436L251.432 617.45Z" fill="#D4B4AB"/>
<path d="M281.107 635.027V620.436C280.201 626.536 269.887 631.588 264.843 633.352L274.188 634.314L281.107 635.027Z" fill="#FBEDCD"/>
<path d="M308.531 637.853V623.195C305.914 634.425 297.209 636.592 293.183 636.272L301.863 637.166L308.531 637.853Z" fill="#FBEDCD"/>
<path d="M281.107 620.436V635.027L284.503 635.377L293.183 636.272C297.209 636.592 305.914 634.425 308.531 623.195L281.107 620.436Z" fill="#D4B4AB"/>
<path d="M333.781 640.455V625.736C332.546 636.682 324.064 639.161 319.978 639.032L328.155 639.875L333.781 640.455Z" fill="#FBEDCD"/>
<path d="M308.531 623.195V637.853L311.801 638.19L319.978 639.032C324.064 639.161 332.546 636.682 333.781 625.736L308.531 623.195Z" fill="#D4B4AB"/>
<path d="M357.717 642.921V628.145C356.912 637.39 349.708 641.057 346.207 641.735L353.44 642.48L357.717 642.921Z" fill="#FBEDCD"/>
<path d="M333.781 625.736V640.455L334.226 640.5L338.974 640.99L346.207 641.735C349.708 641.057 356.912 637.39 357.717 628.145L333.781 625.736Z" fill="#D4B4AB"/>
<path d="M386.965 631.057L357.717 628.145V642.921L365.014 643.669L373.065 644.494C376.671 644.166 384.5 641.019 386.965 631.057Z" fill="#D4B4AB"/>
<path d="M386.965 645.918V631.057C384.5 641.019 376.671 644.166 373.065 644.494L381.116 645.319L386.965 645.918Z" fill="#FBEDCD"/>
<path d="M182.104 631.702V613.206L165.247 614.997V745.051H182.104V631.702Z" fill="#DEC6B8"/>
<path d="M132.036 745.051V618.525L116.563 620.169V745.051H132.036Z" fill="#DEC6B8"/>
<path d="M83.4786 745.051V623.683L69.1376 625.207V745.051H83.4786Z" fill="#DEC6B8"/>
<path d="M38.1914 745.051V628.495L25.2343 629.871V745.051H38.1914Z" fill="#DEC6B8"/>
<path d="M155.938 615.986V745.051H165.247V614.997L155.938 615.986Z" fill="#C2908C"/>
<path d="M107.38 621.144V745.051H116.563V620.169L107.38 621.144Z" fill="#C1908C"/>
<path d="M61.2124 626.049V745.051H69.1376V625.207L61.2124 626.049Z" fill="#C1908C"/>
<path d="M18.3154 630.606V745.051H25.2343V629.871L18.3154 630.606Z" fill="#C1908C"/>
<path d="M61.2124 745.051V626.049L53.6645 626.851V745.051H61.2124Z" fill="#907272"/>
<path d="M107.38 745.051V621.144L101.216 621.799V745.051H107.38Z" fill="#907272"/>
<path d="M155.938 745.051V615.986L148.39 616.788V745.051H155.938Z" fill="#907272"/>
<path d="M195.313 572.005L143.61 577.775L8 592.911V600.468L195.313 579.687V572.005Z" fill="#D4B4AB"/>
<path d="M8 602.735L195.313 582.584V579.687L8 600.468V602.735Z" fill="#C1908C"/>
<path d="M182.104 631.702V745.051H199.904V630.098L182.104 631.702Z" fill="#907272"/>
<path d="M143.61 577.775L195.313 572.005L190.407 563.063L143.61 572.005V577.775Z" fill="#C1908C"/>
<path d="M8 745.051V777.665C85.8521 785.766 243.532 799.235 251.432 788.298C259.333 777.361 300.778 785.26 320.67 788.298C319.199 784.515 310.856 771.785 287.995 769.355L287.247 769.276C258.424 766.212 201.873 760.202 241.556 755.684C273.58 752.038 272.2 747.076 267.507 745.051H264.843H255.499H242.606H230.155H217.705H199.904H182.104H165.247H155.938H148.39H132.036H116.563H107.38H101.216H83.4786H69.1376H61.2124H53.6645H38.1914H25.2343H18.3154H8Z" fill="#C1908C"/>
<path d="M409.043 755.684H241.556C201.873 760.202 258.424 766.212 287.247 769.276L287.995 769.355L422 769.276L409.043 755.684Z" fill="#D4B4AB"/>
<path d="M267.507 745.051C272.2 747.076 273.58 752.038 241.556 755.684H409.043V745.051H381.242H373.128H365.014H353.44H346.207H338.974H328.155H320.67H313.185H301.863H293.183H284.503H274.188H267.507Z" fill="#FBEDCD"/>
<path d="M287.995 769.355C310.856 771.785 319.199 784.515 320.67 788.298L422 805V769.276L287.995 769.355Z" fill="#FBEDCD"/>
<path fill-rule="evenodd" clip-rule="evenodd" d="M364.636 588.896L334.822 566.085C312.883 584.826 292.135 564.185 284.503 551.522L195.313 572.005L364.636 588.896Z" fill="#FBEDCD"/>
<path d="M334.822 563.063C315.097 577.874 295.385 561.006 287.995 550.72L284.503 551.522C292.135 564.185 312.883 584.826 334.822 566.085L364.636 588.896L370.8 589.511L334.822 563.063Z" fill="#C1908C"/>
<path d="M-233.641 791.61L-419 828.59V1227L274.724 1219.2C264.951 1185.97 235.1 1124.82 182.767 1088.62C165.937 1076.97 146.782 1067.91 125.222 1063.19C36.6197 1043.77 7.1434 913.916 3.48053 851.414H-74.0176C-73.2465 825.99 -75.637 771.617 -91.3679 757.518C-107.099 743.419 -192.771 730.649 -233.641 726.026V791.61Z" fill="#D89D7B"/>
<path fill-rule="evenodd" clip-rule="evenodd" d="M125.222 708.981V757.518L243.204 828.59L257.663 1043.83L182.767 1088.62C235.1 1124.82 264.951 1185.97 274.724 1219.2L688.819 1214.54C651.708 1197.12 569.217 1150.67 536.136 1104.21C519.406 1080.72 514.651 1054.06 509.788 1026.79C502.631 986.66 495.24 945.219 449.095 910.641C387.096 864.184 207.347 756.844 125.222 708.981ZM439.841 1112.01C412.081 1066.94 422.491 1002.71 431.166 976.224L512.134 1135.13L439.841 1112.01Z" fill="#D89D7B"/>
<path d="M439.841 851.414C469.433 875.876 529.369 936.701 532.376 984.314C535.384 1031.93 544.04 977.573 547.992 944.444C529.774 907.954 482.639 838.262 439.841 851.414Z" fill="#D89D7B"/>
<path d="M615.947 772.953C641.876 807.581 714.092 883.599 795.523 910.641C841.037 925.756 857.411 983.557 874.041 1042.26C894.601 1114.83 915.551 1188.78 992.449 1185.11C1035.34 1113.36 1091.29 958.023 971.918 910.641C852.548 863.26 684.867 799.107 615.947 772.953Z" fill="#D89D7B"/>
<path d="M1048.26 976.224C1052.89 984.41 1062.14 1004.19 1062.14 1017.83C1062.14 1034.87 1091.35 1024.47 1082.67 1009.16C1081.77 1007.57 1080.68 1005.6 1079.46 1003.38L1079.46 1003.38C1068.92 984.241 1048.26 946.711 1048.26 976.224Z" fill="#D89D7B"/>
<path fill-rule="evenodd" clip-rule="evenodd" d="M-233.641 726.026C-192.867 714.663 -107.33 695.344 -91.3679 708.981V672H28.3494V757.518H125.222L243.204 828.59L257.663 1043.83L182.767 1088.62C165.937 1076.97 146.782 1067.91 125.222 1063.19C36.6197 1043.77 7.1434 913.916 3.48053 851.414H-74.0176C-73.2465 825.99 -75.637 771.617 -91.3679 757.518C-107.099 743.419 -192.771 730.649 -233.641 726.026ZM688.819 1214.54L1353.05 1207.07L1373 851.414L615.947 772.953L467.024 757.518V726.026L125.222 708.981C207.347 756.844 387.096 864.184 449.095 910.641C495.24 945.219 502.631 986.66 509.788 1026.79C514.651 1054.06 519.406 1080.72 536.136 1104.21C569.217 1150.67 651.708 1197.12 688.819 1214.54ZM795.523 910.641C714.092 883.599 641.876 807.581 615.947 772.953C684.867 799.107 852.548 863.26 971.918 910.641C1091.29 958.023 1035.34 1113.36 992.449 1185.11C915.551 1188.78 894.601 1114.83 874.041 1042.26C857.411 983.557 841.037 925.756 795.523 910.641ZM431.166 976.224C422.491 1002.71 412.081 1066.94 439.841 1112.01L512.134 1135.13L431.166 976.224ZM439.841 851.414C469.433 875.876 529.369 936.701 532.376 984.314C535.384 1031.93 544.04 977.573 547.992 944.444C529.774 907.954 482.639 838.262 439.841 851.414ZM1048.26 976.224C1052.89 984.41 1062.14 1004.19 1062.14 1017.83C1062.14 1034.87 1091.35 1024.47 1082.67 1009.16C1081.77 1007.57 1080.68 1005.6 1079.46 1003.38L1079.46 1003.38C1068.92 984.241 1048.26 946.711 1048.26 976.224ZM1055.78 1135.13C1068.04 1105.54 1065.13 1055.96 1062.14 1034.87C1087.23 1034.87 1093.97 1086.05 1097.39 1112.01C1097.95 1116.27 1098.42 1119.85 1098.86 1122.41C1102.05 1140.62 1040.45 1172.11 1055.78 1135.13Z" fill="#FDDBB5"/>
<path d="M1062.14 1034.87C1065.13 1055.96 1068.04 1105.54 1055.78 1135.13C1040.45 1172.11 1102.05 1140.62 1098.86 1122.41C1098.42 1119.85 1097.95 1116.27 1097.39 1112.01C1093.97 1086.05 1087.23 1034.87 1062.14 1034.87Z" fill="#D89D7B"/>
<path fill-rule="evenodd" clip-rule="evenodd" d="M107.08 725.111C90.6336 731.503 67.6082 748.373 107.08 764.722C131.443 774.813 134.116 783.12 136.503 790.539C138.95 798.145 141.097 804.819 166.011 811.524C188.554 817.591 204.319 826.173 218.133 833.693C234.476 842.59 248.088 850 266.963 850C283.199 850 309.853 846.601 338.313 842.972C370.906 838.815 405.867 834.357 430.254 834.357C473.506 834.357 473.656 830.06 475.585 774.561C475.693 771.445 475.807 768.169 475.934 764.722C477.585 720.09 476.963 695.899 476.415 674.581C476.167 664.929 475.934 655.867 475.934 645.762C475.934 613.341 418.139 589.499 407.413 635.039C374.225 635.039 309.035 648.008 313.78 699.881C300.993 689.032 270.118 675.988 248.918 710.604C233.231 736.217 215.466 728.545 198.607 721.264C186.986 716.245 175.795 711.411 166.011 717.794C146.83 730.308 118.732 727.886 107.08 725.111ZM391.892 665.568C347.977 662.036 339.102 703.791 340.154 725.111C338.56 744.538 317.692 744.286 292.959 738.609C275.969 734.709 253.262 738.846 236.947 741.818C229.511 743.173 223.403 744.286 219.768 744.286C215.672 744.286 210.712 743.249 204.848 742.024L204.848 742.024C194.094 739.777 180.303 736.895 163.235 738.609C136.861 741.258 139.007 757.405 140.647 764.722C141.245 767.388 146.365 769.401 152.633 771.864C163.569 776.163 177.999 781.835 177.999 794.746C177.999 810.994 199.62 820.186 210.43 822.751H456.753L466.596 802.946L471.013 665.568C468.615 658.966 457.788 645.762 433.661 645.762C409.533 645.762 395.762 658.966 391.892 665.568Z" fill="#E7E0F0"/>
<path d="M340.154 725.111C339.102 703.791 347.977 662.036 391.892 665.568C395.762 658.966 409.533 645.762 433.661 645.762C457.788 645.762 468.615 658.966 471.013 665.568L466.596 802.946L456.753 822.751H210.43C199.62 820.186 177.999 810.994 177.999 794.746C177.999 781.835 163.569 776.163 152.633 771.864C146.365 769.401 141.245 767.388 140.647 764.722C139.007 757.405 136.861 741.258 163.235 738.609C180.303 736.895 194.094 739.777 204.848 742.024L204.848 742.024C210.712 743.249 215.672 744.286 219.768 744.286C223.403 744.286 229.511 743.173 236.947 741.818C253.262 738.846 275.969 734.709 292.959 738.609C317.692 744.286 338.56 744.538 340.154 725.111Z" fill="#C3C3DC"/>
<path fill-rule="evenodd" clip-rule="evenodd" d="M-307.328 577.388C-288.526 572.132 -245.142 571.964 -222.024 613.341C-196.786 611.786 -142.953 619.472 -129.526 662.666C-109.083 653.878 -65.3206 649.017 -53.8121 699.881C-43.3803 702.236 -22.2898 709.115 -21.3812 717.794C-20.5719 725.525 -34.3095 728.964 -58.8039 735.096C-68.6815 737.569 -80.3083 740.479 -93.4358 744.286C-139.117 757.532 -166.752 765.984 -176.343 801.937C-179.677 814.436 -192.742 823.322 -209.026 829.193C-206.881 814.136 -199.89 783.67 -189.088 782.257C-183.093 781.473 -179.909 772.78 -176.178 762.594C-171.506 749.84 -165.977 734.744 -152.998 729.905C-143.584 726.395 -127.502 724.936 -111.603 723.494C-88.0714 721.359 -64.9392 719.261 -64.412 710.604C-63.9877 703.635 -70.6685 703.361 -79.8104 702.987C-89.6993 702.582 -102.468 702.059 -112.238 692.816C-127.28 678.587 -140.799 674.731 -145.679 674.581C-145.679 654.342 -196.575 643.403 -222.024 640.464C-240.397 613.17 -287.635 606.805 -308.957 607.034C-308.37 596.136 -307.818 586.102 -307.328 577.388Z" fill="#E7E0F0"/>
<path d="M-316.919 801.937C-315.783 835.619 -307.328 824.77 -291.681 834.357C-281.473 840.612 -239.582 840.209 -209.026 829.193C-206.881 814.136 -199.89 783.67 -189.088 782.257C-183.093 781.473 -179.909 772.78 -176.178 762.594C-171.506 749.84 -165.977 734.744 -152.998 729.905C-143.584 726.395 -127.502 724.936 -111.603 723.494C-88.0714 721.359 -64.9392 719.261 -64.412 710.604C-63.9877 703.635 -70.6685 703.361 -79.8104 702.987C-89.6993 702.582 -102.468 702.059 -112.238 692.816C-127.28 678.587 -140.799 674.731 -145.679 674.581C-145.679 654.342 -196.575 643.403 -222.024 640.464C-240.397 613.17 -287.635 606.805 -308.957 607.034C-312.653 675.703 -317.703 778.681 -316.919 801.937Z" fill="#C3C3DC"/>
<path d="M236.947 687.14C232.89 682.893 222.16 676.947 211.692 687.14C198.607 699.881 236.947 700.512 236.947 687.14Z" fill="#E7E0F0"/>
<path d="M386.466 622.929C380.156 628.9 360.622 637.739 332.961 625.326C298.385 609.809 327.156 603.502 340.154 603.502C353.151 603.502 375.487 601.231 371.07 607.539C366.654 613.846 350.375 620.532 360.723 622.929C371.07 625.326 381.039 613.341 386.466 622.929Z" fill="#E7E0F0"/>
<path d="M354.413 594.923C359.924 598.287 372.156 603.552 377.001 597.699C383.058 590.382 359.713 586.541 354.413 594.923Z" fill="#E7E0F0"/>
<path d="M-239.564 571.333C-236.031 579.281 -223.26 596.362 -200.445 601.105C-171.926 607.034 -159.181 583.444 -170.286 577.388C-181.39 571.333 -227.197 550.518 -239.564 571.333Z" fill="#E7E0F0"/>
<path d="M-251.552 561.115C-245.621 562.25 -231.412 562.906 -222.024 556.448C-210.288 548.374 -251.552 548.752 -251.552 561.115Z" fill="#E7E0F0"/>
<rect x="-257" y="-169" width="1579" height="1418" fill="#426D6E" fill-opacity="0.6"/>
<path fill-rule="evenodd" clip-rule="evenodd" d="M105.33 988.086C97.5285 997.855 82.4844 1009.11 75.9375 1013.51C88.0698 1013.03 112.692 1011.19 114.12 1007.62C115.033 1005.35 114.546 1002.88 114.09 1000.58C113.654 998.371 113.247 996.31 114.12 994.694C114.395 994.186 114.744 993.467 115.171 992.588C117.518 987.758 122.203 978.118 129.64 972.284C136.172 967.16 152.032 928.085 160.596 905.34C139.102 912.35 130.613 897.821 129.056 889.681C122.422 927.238 111.875 979.891 105.33 988.086Z" fill="#F1C3A8"/>
<path d="M166.175 889.681C167.823 883.82 144.336 874.214 132.387 870.144C131.458 875.819 130.329 882.472 129.056 889.681C130.613 897.821 139.102 912.35 160.596 905.34C163.557 897.475 165.645 891.563 166.175 889.681Z" fill="#CB7E73"/>
<path fill-rule="evenodd" clip-rule="evenodd" d="M312.724 999.004C314.298 1005.9 312.933 1007.62 314.097 1007.62C315.247 1007.62 317.261 1008.28 320.091 1009.2C324.025 1010.47 329.535 1012.26 336.485 1013.51C339.812 1014.11 341.905 1014.56 343.155 1014.88C343.297 1015.03 343.436 1015.18 343.573 1015.32C343.684 1015.44 343.794 1015.55 343.902 1015.67C344.887 1015.67 345.498 1015.49 343.155 1014.88C336.293 1007.61 323.578 993.609 322.201 989.954C320.998 986.76 305.618 928.05 294.504 885.371C289.157 905.253 272.292 902.849 264.527 899.162C277.569 928.045 298.945 966.959 305.032 977.743C310.142 986.793 311.15 992.108 312.724 999.004Z" fill="#F1C3A8"/>
<path d="M288.825 863.535L260.257 889.681C261.538 892.534 262.975 895.724 264.527 899.162C272.292 902.849 289.157 905.253 294.504 885.371C292.421 877.373 290.487 869.937 288.825 863.535Z" fill="#CB7E73"/>
<path d="M230.041 527.234C220.042 523.556 199.413 525.701 190.348 527.234C186.388 528.751 180.364 531.166 174.141 533.855C183.724 554.594 211.196 583.629 244.416 533.855C239.526 531.291 234.392 528.834 230.041 527.234Z" fill="#CB7E73"/>
<path fill-rule="evenodd" clip-rule="evenodd" d="M174.141 533.855C183.724 554.594 211.196 583.629 244.416 533.855C250.762 537.183 256.699 540.693 259.983 542.749C247.942 597.961 220.482 709.994 206.967 716.43C190.073 724.475 162.466 709.104 161.779 697.611C161.673 695.822 161.366 693.822 160.921 691.716C160.543 689.924 160.064 688.056 159.522 686.174C159.144 684.86 158.735 683.539 158.308 682.234C156.372 676.314 154.065 670.707 152.577 667.443C151.433 666.725 148.429 664.484 145.572 661.266C143.692 659.148 142.46 654.164 141.513 650.337C140.662 646.895 140.729 643.672 140.079 645.033L132.662 613.859C130.547 634.184 125.658 675.563 122.453 684.378C122.33 684.673 122.208 684.966 122.086 685.257C120.51 689.043 119.125 692.469 118.103 695.169C112.884 708.96 97.7757 702.352 95.7155 695.169C94.1537 689.724 94.723 676.188 95.2694 663.198C95.4438 659.053 95.6158 654.963 95.7155 651.21C96.0044 640.332 95.5506 639.411 93.1235 634.485C92.0888 632.386 90.6954 629.558 88.8481 624.921C83.5159 611.535 84.5218 601.144 85.604 589.965C85.7762 588.186 85.9504 586.387 86.1012 584.553C87.2 571.193 116.318 562.286 127.031 559.7C134.765 557.833 139.421 554.319 145.186 549.968C147.405 548.293 149.79 546.493 152.577 544.616C157.164 541.528 165.83 537.447 174.141 533.855Z" fill="#F1C3A8"/>
<path d="M140.079 645.033L132.662 613.859C130.547 634.184 125.658 675.563 122.453 684.378C128.926 668.897 138.995 647.3 140.079 645.033Z" fill="#CB7E73"/>
<path fill-rule="evenodd" clip-rule="evenodd" d="M278.662 557.258C285.117 559.988 298.989 566.768 302.835 572.055C303.132 572.463 303.492 572.94 303.904 573.485C310.171 581.783 328.392 605.909 316.02 642.303C313.691 643.615 311.078 644.504 308.329 645.064C305.796 645.581 303.148 645.818 300.5 645.852C299.306 645.868 298.112 645.842 296.929 645.781C296.052 645.736 295.181 645.672 294.319 645.592C287.993 645.003 282.207 643.539 278.662 642.303V557.258ZM278.662 656.525V662.846C278.662 665.727 280.441 672.33 282.245 679.023C283.949 685.346 285.674 691.749 285.941 695.169C286.491 702.208 308.603 704.507 312.724 695.169C316.844 685.831 314.235 667.443 312.724 657.244C309.651 659.386 305.552 660.3 301.187 660.463C298.934 660.547 296.61 660.43 294.319 660.179C293.209 660.058 292.106 659.904 291.023 659.727C290.374 659.62 289.732 659.505 289.1 659.383C284.968 658.584 281.249 657.481 278.662 656.525Z" fill="#F1C3A8"/>
<path d="M301.187 660.463L308.329 645.064C305.796 645.581 303.148 645.818 300.5 645.852L294.319 660.179C296.61 660.43 298.934 660.547 301.187 660.463Z" fill="#F4DE85"/>
<path fill-rule="evenodd" clip-rule="evenodd" d="M312.724 657.244C311.727 650.513 313.496 647.165 315.071 644.183C315.406 643.549 315.731 642.932 316.02 642.303C313.691 643.615 311.078 644.504 308.329 645.064L301.187 660.463C305.552 660.3 309.651 659.386 312.724 657.244ZM296.929 645.781C298.112 645.842 299.306 645.868 300.5 645.852L294.319 660.179C293.209 660.058 292.106 659.904 291.023 659.727L296.929 645.781ZM294.319 645.592C287.993 645.003 282.207 643.539 278.662 642.303V656.525C281.249 657.481 284.968 658.584 289.1 659.383L294.319 645.592Z" fill="#E19059"/>
<path d="M291.023 659.727L296.929 645.781C296.052 645.736 295.181 645.672 294.319 645.592L289.1 659.383C289.732 659.505 290.374 659.62 291.023 659.727Z" fill="#F4DE85"/>
<path d="M160.921 691.716C160.543 689.924 160.064 688.056 159.522 686.174L158.308 682.234C156.26 683.384 151.423 685.567 148.457 685.108C145.49 684.648 151.433 689.322 154.775 691.716H160.921Z" fill="#686349"/>
<path d="M205.731 595.04C200.929 595.279 198.589 596.62 188.425 593.46C194.881 596.907 202.698 627.39 205.456 644.889C204.367 632.758 214.521 597.051 220.976 593.46C211.637 597.051 211.5 594.752 205.731 595.04Z" fill="#E9A196"/>
<path d="M134.326 612.074C134.054 611.003 132.966 610.356 131.895 610.627C130.825 610.899 130.177 611.988 130.449 613.058L134.326 612.074ZM141.727 651.784L139.741 652.022L141.727 651.784ZM177.969 672.456C179.071 672.39 179.912 671.443 179.846 670.34C179.78 669.238 178.833 668.397 177.73 668.463L177.969 672.456ZM176.339 560.993L177.365 562.71L176.339 560.993ZM108.721 625.582C107.896 624.847 106.632 624.92 105.897 625.745C105.162 626.57 105.235 627.834 106.06 628.569L108.721 625.582ZM100.793 672.746C100.072 673.583 100.166 674.846 101.003 675.567C101.84 676.287 103.103 676.193 103.824 675.356L100.793 672.746ZM124.433 636.574C124.918 635.581 124.507 634.384 123.515 633.898C122.523 633.413 121.325 633.824 120.839 634.816L124.433 636.574ZM112.813 670.612C112.897 671.713 113.858 672.538 114.959 672.454C116.06 672.37 116.885 671.409 116.801 670.308L112.813 670.612ZM188.425 593.46L189.019 591.55C188.034 591.243 186.978 591.736 186.58 592.688C186.182 593.64 186.573 594.738 187.483 595.224L188.425 593.46ZM205.731 595.04L205.631 593.042L205.731 595.04ZM220.976 593.46L221.949 595.207C222.866 594.697 223.233 593.564 222.788 592.612C222.343 591.661 221.239 591.216 220.259 591.593L220.976 593.46ZM205.731 647.187L203.782 647.638L207.709 646.889L205.731 647.187ZM130.449 613.058C131.913 618.824 134.136 627.701 136.048 635.594C137.981 643.578 139.54 650.335 139.741 652.022L143.713 651.547C143.475 649.556 141.829 642.474 139.935 634.653C138.019 626.741 135.792 617.849 134.326 612.074L130.449 613.058ZM139.741 652.022C140.067 654.743 141.681 658.523 143.792 661.779C144.866 663.436 146.118 665.035 147.484 666.354C148.835 667.659 150.392 668.782 152.088 669.342L153.342 665.544C152.428 665.242 151.376 664.552 150.263 663.477C149.165 662.417 148.1 661.071 147.148 659.603C145.207 656.61 143.937 653.423 143.713 651.547L139.741 652.022ZM152.088 669.342C154.916 670.276 160.188 671.119 165.21 671.693C170.244 672.268 175.375 672.611 177.969 672.456L177.73 668.463C175.517 668.596 170.69 668.293 165.664 667.719C160.625 667.143 155.733 666.334 153.342 665.544L152.088 669.342ZM115.91 564.96C117.324 564.026 122.151 561.844 128.679 561.844V557.844C121.363 557.844 115.77 560.258 113.705 561.623L115.91 564.96ZM128.679 561.844C132.828 561.844 136.454 562.427 140.139 562.988C143.789 563.544 147.513 564.08 151.591 563.852L151.367 559.858C147.753 560.061 144.404 559.591 140.741 559.034C137.111 558.481 133.183 557.844 128.679 557.844V561.844ZM151.591 563.852C155.367 563.64 161.001 563.712 166.079 563.693C168.588 563.684 170.959 563.653 172.836 563.549C173.771 563.497 174.624 563.425 175.327 563.321C175.928 563.232 176.745 563.08 177.365 562.71L175.313 559.276C175.452 559.193 175.372 559.27 174.741 559.364C174.212 559.442 173.498 559.506 172.614 559.555C170.851 559.653 168.57 559.684 166.065 559.693C161.117 559.711 155.282 559.639 151.367 559.858L151.591 563.852ZM177.365 562.71C177.145 562.841 177.173 562.715 177.846 562.79C178.407 562.853 179.136 563.023 179.968 563.278C181.621 563.786 183.405 564.548 184.534 565.093L186.273 561.49C185.021 560.886 183.043 560.039 181.143 559.455C180.198 559.164 179.203 558.917 178.292 558.815C177.494 558.726 176.301 558.685 175.313 559.276L177.365 562.71ZM106.06 628.569C107.727 630.054 108.655 631.356 109.221 633.031C109.816 634.791 110.06 637.104 110.06 640.723H114.06C114.06 637.015 113.824 634.157 113.011 631.75C112.169 629.259 110.762 627.401 108.721 625.582L106.06 628.569ZM110.06 640.723C110.06 650.965 108.884 657.599 107.175 662.322C105.48 667.003 103.22 669.929 100.793 672.746L103.824 675.356C106.388 672.38 109.003 669.025 110.936 663.683C112.855 658.381 114.06 651.248 114.06 640.723H110.06ZM120.839 634.816C119.273 638.019 117.023 643.583 115.287 650.002C113.555 656.405 112.294 663.799 112.813 670.612L116.801 670.308C116.331 664.134 117.474 657.234 119.148 651.046C120.818 644.873 122.978 639.548 124.433 636.574L120.839 634.816ZM235.895 566.573C237.794 565.779 240.923 564.58 244.091 563.583C247.337 562.562 250.354 561.844 252.154 561.844V557.844C249.669 557.844 246.116 558.753 242.891 559.768C239.588 560.806 236.344 562.05 234.351 562.883L235.895 566.573ZM252.154 561.844C256.076 561.844 259.294 563.086 260.266 563.613L262.173 560.097C260.672 559.283 256.803 557.844 252.154 557.844V561.844ZM187.831 595.369C193.031 596.986 196.356 597.491 199.064 597.524C200.409 597.541 201.56 597.44 202.638 597.327C203.733 597.213 204.7 597.094 205.83 597.037L205.631 593.042C204.361 593.106 203.235 593.243 202.223 593.349C201.194 593.456 200.225 593.538 199.113 593.525C196.91 593.498 193.983 593.093 189.019 591.55L187.831 595.369ZM205.83 597.037C207.126 596.973 208.096 597.052 208.99 597.162C209.838 597.266 210.86 597.437 211.921 597.487C214.229 597.594 216.891 597.173 221.694 595.326L220.259 591.593C215.722 593.337 213.646 593.563 212.108 593.491C211.246 593.451 210.568 593.325 209.477 593.192C208.431 593.063 207.221 592.963 205.631 593.042L205.83 597.037ZM187.483 595.224C187.876 595.434 188.486 595.982 189.258 597.087C190.004 598.155 190.794 599.584 191.609 601.333C193.236 604.828 194.873 609.409 196.413 614.486C199.491 624.632 202.115 636.537 203.481 645.2L207.432 644.577C206.039 635.742 203.375 623.657 200.241 613.325C198.675 608.163 196.975 603.382 195.235 599.645C194.366 597.778 193.464 596.123 192.537 594.796C191.635 593.506 190.588 592.347 189.367 591.695L187.483 595.224ZM207.448 644.71C207.201 641.951 207.591 637.66 208.484 632.587C209.369 627.561 210.719 621.921 212.306 616.537C213.894 611.147 215.704 606.063 217.495 602.134C218.392 600.167 219.264 598.534 220.077 597.31C220.928 596.03 221.575 595.415 221.949 595.207L220.004 591.712C218.764 592.402 217.681 593.689 216.746 595.096C215.773 596.56 214.801 598.4 213.855 600.475C211.961 604.63 210.09 609.905 208.469 615.407C206.846 620.915 205.459 626.701 204.544 631.894C203.638 637.04 203.167 641.761 203.464 645.068L207.448 644.71ZM207.709 646.889C207.675 646.666 207.635 646.292 207.586 645.836C207.541 645.422 207.487 644.929 207.432 644.577L203.481 645.2C203.518 645.434 203.56 645.816 203.609 646.266C203.653 646.675 203.704 647.157 203.753 647.486L207.709 646.889ZM203.464 645.068C203.511 645.585 203.621 646.94 203.782 647.638L207.679 646.736C207.598 646.385 207.512 645.417 207.448 644.71L203.464 645.068Z" fill="#E9A196"/>
<path fill-rule="evenodd" clip-rule="evenodd" d="M138.98 555.534C141.315 553.092 159.17 542.317 164.526 538.87C168.812 536.111 180.962 531.687 186.502 529.819L190.897 523.355L188.425 506.834L183.892 471.925C184.442 477.289 184.469 489.337 180.184 494.623C177.934 497.398 175.031 498.223 172.328 498.99C168.594 500.05 165.243 501.001 164.526 506.834C163.947 511.548 162.703 513.295 161.602 514.841C160.355 516.593 159.29 518.089 159.582 523.355C159.706 525.597 159.95 527.619 160.165 529.406C160.902 535.515 161.307 538.87 155.462 538.87C149.418 538.87 151.021 532.836 152.577 529.819C150.288 531.876 146.397 537.026 149.144 541.168C151.89 545.31 145.435 547.204 141.864 547.633C139.85 547.89 135.546 549.399 134.447 553.379C133.375 557.262 127.377 559.928 124.3 560.848C130.115 559.158 136.93 557.678 138.98 555.534ZM172.63 501.231C170.753 501.231 167.136 501.978 167.685 504.966C168.235 507.955 171.211 503.721 172.63 501.231Z" fill="#A47250"/>
<path fill-rule="evenodd" clip-rule="evenodd" d="M196.254 438.31C199.33 439.804 203.487 438.932 205.181 438.31C206.143 438.31 208.423 438.022 209.851 436.873C211.636 435.436 235.81 431.845 244.325 443.625C248.317 449.147 247.419 455.237 246.556 461.096C245.578 467.736 244.643 474.08 250.918 478.965C260.367 486.32 268.04 482.029 270.696 478.965C270.586 487.699 264.24 490.17 261.081 490.313C268.269 491.75 283.359 495.945 286.216 501.231C289.756 507.783 284.117 512.499 282.681 513.699L282.645 513.73C281.271 514.879 277.426 521.343 286.216 521.343C293.248 521.343 296.654 515.501 297.478 512.58C297.249 513.442 296.49 516.402 295.281 521.343C294.072 526.285 286.353 527.712 282.645 527.808C286.262 529.628 293.578 534.158 293.907 537.72C294.262 541.554 290.138 546.134 287.406 549.167C286.965 549.657 286.56 550.106 286.216 550.506C283.744 553.379 287.452 557.689 295.281 561.567C301.544 564.67 301.645 569.852 300.912 572.054L284.293 563.534C283.756 560.867 281.63 554.93 277.426 552.517C273.238 550.113 274.329 546.067 275.431 541.978C275.712 540.936 275.994 539.891 276.19 538.87C277.151 533.842 268.773 529.406 264.515 531.83C260.257 534.255 252.978 523.355 258.884 517.581C263.609 512.962 264.607 508.492 264.515 506.834C263.371 509.122 259.461 513.475 252.978 512.58C246.945 511.747 247.231 510.403 248.281 505.466C248.641 503.772 249.091 501.655 249.407 498.99C250.226 492.08 247.307 491.085 243.126 489.661C240.997 488.935 238.541 488.098 236.084 486.311C230.261 482.075 228.164 474.094 227.843 470.632L221.388 527.265L188.425 506.834L183.892 471.925C184.442 477.289 184.469 489.337 180.184 494.623C177.934 497.398 175.031 498.223 172.328 498.99C168.594 500.05 165.243 501.001 164.526 506.834C163.947 511.548 162.703 513.295 161.602 514.841C160.355 516.593 159.29 518.089 159.582 523.355C159.706 525.597 159.95 527.619 160.165 529.406C160.902 535.515 161.307 538.87 155.462 538.87C149.418 538.87 151.021 532.836 152.577 529.819C150.288 531.876 146.397 537.026 149.144 541.168C151.89 545.31 145.435 547.204 141.864 547.633C139.85 547.89 135.546 549.399 134.447 553.379C133.375 557.262 127.377 559.928 124.3 560.848C124.223 560.871 124.148 560.893 124.075 560.914C123.345 561.128 122.633 561.345 121.949 561.567C115.768 563.579 113.021 562.86 111.098 559.556C109.56 556.913 102.949 552.421 99.8359 550.506C108.333 553.881 119.525 551.001 127.41 548.972C129.594 548.41 131.525 547.913 133.074 547.633C140.216 546.34 144.748 537.72 142.963 533.267C142.226 531.429 138.916 533.261 135.214 535.31C129.947 538.226 123.887 541.581 123.322 535.422C122.539 526.88 125.401 523.294 127.158 521.093C127.558 520.592 127.9 520.163 128.129 519.763C128.525 519.074 130.552 518.34 132.648 517.581C137.104 515.968 141.876 514.241 131.975 512.58C120.328 510.627 118.149 502.86 118.515 499.22C118.604 502.479 121.001 503.264 124.322 504.351C126.125 504.941 128.2 505.621 130.327 506.834C134.129 509.003 137.659 506.226 141.293 503.366C143.436 501.681 145.615 499.966 147.907 499.22C154.088 497.209 152.44 495.341 147.907 490.313C146.077 488.283 144.313 487.283 142.599 486.311C140.069 484.877 137.646 483.503 135.271 478.965C131.288 471.351 140.491 464.886 147.907 462.013C152.735 460.143 159.309 461.377 164.901 462.427C167.9 462.99 170.616 463.5 172.63 463.45C177.885 463.319 175.617 459.969 173.303 456.55L173.303 456.55C173.077 456.216 172.85 455.881 172.63 455.548C170.696 452.626 172.629 450.056 176.521 444.879C177.604 443.439 178.839 441.797 180.184 439.89C185.53 432.31 190.773 435.263 194.58 437.407C195.175 437.742 195.734 438.057 196.254 438.31ZM172.63 501.231C170.753 501.231 167.136 501.978 167.685 504.966C168.235 507.955 171.211 503.721 172.63 501.231Z" fill="#EBAA7F"/>
<path d="M221.388 527.265L258.884 550.506L284.293 563.534C283.756 560.867 281.63 554.93 277.426 552.517C273.238 550.113 274.329 546.067 275.431 541.978C275.712 540.936 275.994 539.891 276.19 538.87C277.151 533.842 268.773 529.406 264.515 531.83C260.257 534.255 252.978 523.355 258.884 517.581C263.609 512.962 264.607 508.492 264.515 506.834C263.371 509.122 259.461 513.475 252.978 512.58C246.945 511.747 247.231 510.403 248.281 505.466C248.641 503.772 249.091 501.655 249.407 498.99C250.226 492.08 247.307 491.085 243.126 489.661C240.997 488.935 238.541 488.098 236.084 486.311C230.261 482.075 228.164 474.094 227.843 470.632L221.388 527.265Z" fill="#A47250"/>
<path d="M246.524 461.726C248.355 460.721 252.237 457.618 253.116 453.25C254.215 447.791 268.636 450.808 259.984 456.842C253.061 461.669 248.126 462.109 246.524 461.726C244.051 457.369 240.178 448.424 244.463 447.504C248.749 446.585 247.622 456.602 246.524 461.726Z" fill="#597C62"/>
<path d="M251.226 450.58C252.519 449.127 254.996 445.117 254.555 440.697C254.003 435.172 267.176 434.21 261.416 442.304C256.808 448.779 252.703 450.519 251.226 450.58C247.918 447.065 242.157 439.528 245.575 437.502C248.993 435.476 250.767 445.377 251.226 450.58Z" fill="#597C62"/>
<path d="M170.312 461.763C168.803 460.752 165.603 457.633 164.879 453.244C163.974 447.757 152.09 450.79 159.22 456.854C164.924 461.705 168.991 462.148 170.312 461.763C172.349 457.383 175.54 448.393 172.009 447.469C168.478 446.545 169.406 456.613 170.312 461.763Z" fill="#597C62"/>
<path d="M166.437 450.56C165.371 449.1 163.33 445.069 163.694 440.627C164.148 435.074 153.293 434.107 158.039 442.242C161.837 448.75 165.22 450.499 166.437 450.56C169.162 447.027 173.91 439.452 171.093 437.416C168.277 435.38 166.815 445.331 166.437 450.56Z" fill="#597C62"/>
<path d="M159.993 768.002C155.781 793.717 147.989 847.301 150.516 855.921C153.675 866.695 159.993 877.182 165.624 878.906C170.129 880.285 163.747 805.545 159.993 768.002Z" fill="#325263"/>
<path d="M201.06 778.202C200.053 807.843 196.527 869.482 190.484 878.906C182.93 890.686 204.494 893.702 216.58 891.835C226.249 890.341 225.92 858.075 224.546 842.129C224.134 837.389 224.821 828.855 230.864 832.648C237.811 837.008 237.44 862.629 237.336 869.847L237.336 869.849C237.327 870.479 237.32 870.969 237.32 871.292C237.32 875.314 257.51 877.469 260.256 866.695C263.003 855.921 247.758 801.618 241.44 788.545C235.122 775.472 218.366 752.2 201.06 778.202Z" fill="#325263"/>
<path fill-rule="evenodd" clip-rule="evenodd" d="M153.675 749.758C145.205 782.607 128.184 851.151 127.854 862.529C127.454 876.317 155.2 890.511 163.775 894.898L163.796 894.909L163.802 894.912C164.061 895.045 164.303 895.168 164.526 895.283C168.808 897.482 177.683 897.788 186.318 898.085C192.913 898.312 199.369 898.535 203.532 899.592C213.146 902.035 238.556 903.902 248.17 899.592C254.687 896.671 261.836 891.505 268.375 886.779C271.482 884.534 274.451 882.388 277.15 880.63C283.853 876.262 292.487 869.52 295.967 866.695C286.764 829.966 266.739 755.159 260.256 749.758C253.774 744.356 186.501 747.507 153.675 749.758ZM150.516 855.921C147.989 847.301 155.781 793.717 159.993 768.002C163.747 805.545 170.129 880.285 165.624 878.906C159.993 877.182 153.675 866.695 150.516 855.921ZM201.06 778.202C200.053 807.843 196.527 869.482 190.484 878.906C182.93 890.686 204.494 893.702 216.58 891.835C226.249 890.341 225.92 858.075 224.546 842.129C224.134 837.389 224.821 828.855 230.864 832.648C237.811 837.008 237.44 862.629 237.336 869.847L237.336 869.849C237.327 870.479 237.32 870.969 237.32 871.292C237.32 875.314 257.51 877.469 260.256 866.695C263.003 855.921 247.758 801.618 241.44 788.545C235.122 775.472 218.366 752.2 201.06 778.202ZM270.145 842.129C271.024 833.28 258.7 797.644 252.428 780.931C259.341 788.306 273.964 806.761 277.15 821.586C281.133 840.118 269.047 853.191 270.145 842.129Z" fill="#536E7C"/>
<path d="M252.428 780.931C258.7 797.644 271.024 833.28 270.145 842.129C269.047 853.191 281.133 840.118 277.15 821.586C273.964 806.761 259.341 788.306 252.428 780.931Z" fill="#325263"/>
<path d="M246.523 707.811L152.577 715.999C161.597 726.055 185.074 744.96 206.829 740.133C228.585 735.307 242.357 716.574 246.523 707.811Z" fill="#B0AB93"/>
<path d="M168.647 748.035C184.442 758.713 220.784 773.663 239.793 748.035C263.554 715.999 227.706 793.43 217.268 800.757C206.829 808.083 177.849 787.253 177.163 780.214C176.82 776.703 183.072 778.16 189.989 779.771C196.938 781.39 204.558 783.166 206.829 780.214C209.066 777.307 200.066 773.107 189.845 768.337C179.354 763.44 167.577 757.944 165.351 752.632C161.835 744.242 166.083 746.071 168.647 748.035Z" fill="#B0AB93"/>
<path fill-rule="evenodd" clip-rule="evenodd" d="M144.199 730.796C157.156 774.803 187.134 864.397 203.396 870.718C223.723 878.619 267.125 766.566 267.674 763.693C268.114 761.395 253.756 725.48 246.523 707.811C242.357 716.574 228.585 735.307 206.829 740.133C185.074 744.96 161.597 726.055 152.577 715.999L144.199 730.796ZM168.647 748.035C184.442 758.713 220.784 773.663 239.793 748.035C263.554 715.999 227.706 793.43 217.268 800.757C206.829 808.083 177.849 787.253 177.163 780.214C176.82 776.703 183.072 778.16 189.989 779.771C196.938 781.39 204.558 783.166 206.829 780.214C209.066 777.307 200.066 773.107 189.845 768.337C179.354 763.44 167.577 757.944 165.351 752.632C161.835 744.242 166.083 746.071 168.647 748.035ZM206.829 834.516C223.751 834.861 236.863 794.149 241.304 773.749C242.311 770.397 244.325 764.622 244.325 768.337C244.325 772.98 239.793 805.928 235.123 820.869C230.664 835.135 221.8 844.86 206.829 840.837C194.853 837.619 201.839 835.282 206.829 834.516Z" fill="#EFE8DF"/>
<path d="M241.304 773.749C236.863 794.149 223.751 834.861 206.829 834.516C201.839 835.282 194.853 837.619 206.829 840.837C221.8 844.86 230.664 835.135 235.123 820.869C239.793 805.928 244.325 772.98 244.325 768.337C244.325 764.622 242.311 770.397 241.304 773.749Z" fill="#B0AB93"/>
<path d="M183.48 471.638C184.213 480.592 185.568 499.248 185.129 502.237C184.579 505.972 195.704 516.602 197.627 521.774C199.166 525.911 203.2 526.352 205.856 525.969C208.539 526.232 214.251 525.708 215.628 521.513C217.349 516.269 228.094 505.166 227.389 501.466C226.826 498.506 227.426 479.839 227.797 470.875L204.495 455.404L183.48 471.638Z" fill="#F1C3A8"/>
<path d="M201.748 498.79C204.385 496.836 205.731 497.425 206.143 498V499.221C205.868 499.604 205.346 500.6 204.907 502.094C204.357 503.962 202.572 504.967 200.924 507.409C199.276 509.852 199.001 508.99 198.177 511.719C197.353 514.449 202.847 517.322 204.357 514.449C205.566 512.15 206.006 513.203 206.418 514.018V525.816V546.628C206.637 549.271 200.008 550.985 197.902 551.799C199.55 550.65 198.039 548.495 194.056 545.335C190.073 542.174 182.931 538.583 181.146 532.98C179.36 527.378 182.794 529.964 186.64 526.947C190.485 523.93 186.64 520.482 184.854 517.322C183.069 514.161 185.541 513.299 186.64 509.277C187.738 505.254 190.073 505.973 195.43 504.68C200.786 503.387 198.451 501.232 201.748 498.79Z" fill="#EBAA7F"/>
<path d="M210.529 498.725C207.808 496.892 206.532 497.408 206.143 498V499.221C206.434 499.591 206.999 500.694 207.5 502.167C208.127 504.007 209.956 504.932 211.706 507.297C213.457 509.663 213.697 508.789 214.633 511.479C215.57 514.168 210.186 517.284 208.555 514.482C207.251 512.24 206.797 513.186 206.418 514.018V525.816V546.628C206.306 549.278 214.404 550.781 216.546 551.499C214.849 550.425 216.274 548.205 220.133 544.87C223.993 541.535 230.999 537.628 232.558 531.952C234.117 526.276 230.784 529.012 226.81 526.171C222.835 523.33 226.545 519.714 228.204 516.478C229.863 513.241 227.352 512.491 226.088 508.522C224.823 504.554 222.514 505.376 217.097 504.325C211.68 503.273 213.93 501.016 210.529 498.725Z" fill="#EBAA7F"/>
<path d="M202.983 482.268C203.166 482.316 203.423 482.699 202.983 483.848C202.434 485.285 201.06 487.727 201.61 490.169C202.049 492.123 202.342 493.186 202.434 493.473C202.159 493.904 201.61 494.881 201.61 495.341C201.61 495.915 202.296 496.49 202.983 496.49C203.67 496.49 203.67 495.628 204.082 495.772C204.412 495.886 205.684 496.49 206.28 496.777C206.847 496.463 207.827 496.066 208.142 495.936C208.537 495.774 208.573 496.639 209.241 496.609C209.908 496.579 210.553 495.973 210.529 495.397C210.51 494.935 209.936 493.98 209.651 493.559C209.728 493.267 209.97 492.188 210.317 490.21C210.751 487.737 209.315 485.347 208.722 483.93C208.247 482.797 208.481 482.402 208.657 482.346C207.522 480.78 206.554 480.688 206.046 480.688C205.442 480.688 204.082 480.659 202.983 482.268Z" fill="url(#paint0_linear_746_59)"/>
<path fill-rule="evenodd" clip-rule="evenodd" d="M185.541 476.81C186.777 476.426 189.661 475.804 191.309 476.379C192.194 476.687 193.128 477.472 194.103 478.29C195.399 479.377 196.766 480.524 198.177 480.688C200.649 480.976 203.121 480.832 202.846 478.821C202.776 478.307 202.533 477.766 202.189 477.241C202.322 477.93 202.042 478.581 201.885 478.821C202.105 478.246 201.519 476.714 201.198 476.02C200.236 475.024 199.092 474.248 198.451 474.08C197.353 473.793 192.545 472.931 188.837 474.08C185.87 474.999 185.403 476.283 185.541 476.81Z" fill="#EBAA7F"/>
<path fill-rule="evenodd" clip-rule="evenodd" d="M225.785 475.966C224.537 475.63 221.636 475.122 220.017 475.783C219.149 476.138 218.25 476.982 217.313 477.861C216.067 479.031 214.753 480.264 213.353 480.495C210.901 480.899 208.431 480.862 208.621 478.794C208.669 478.265 208.89 477.702 209.21 477.15C209.106 477.86 209.413 478.513 209.579 478.751C209.336 478.174 209.856 476.581 210.146 475.857C211.064 474.797 212.171 473.952 212.803 473.752C213.886 473.41 218.641 472.314 222.385 473.323C225.38 474.131 225.9 475.422 225.785 475.966Z" fill="#EBAA7F"/>
<path fill-rule="evenodd" clip-rule="evenodd" d="M195.155 482.125C193.727 482.01 190.073 483.897 188.425 484.854C189.286 485.597 190.164 486.157 191.035 486.571C192.683 484.451 196.391 481.624 198.039 487.274C198.649 487.117 199.163 486.919 199.55 486.722C198.726 484.854 196.941 482.269 195.155 482.125Z" fill="#D9D9D9"/>
<path d="M198.039 487.274C196.27 487.728 193.691 487.833 191.035 486.571C192.683 484.451 196.391 481.624 198.039 487.274Z" fill="#4D88A8"/>
<path fill-rule="evenodd" clip-rule="evenodd" d="M216.469 481.626C217.908 481.441 221.685 483.257 223.393 484.188C222.554 485.007 221.689 485.636 220.827 486.109C219.069 483.958 215.197 481.156 213.773 487.165C213.149 487.028 212.621 486.843 212.221 486.653C212.974 484.655 214.669 481.858 216.469 481.626Z" fill="#D9D9D9"/>
<path d="M213.773 487.165C215.581 487.561 218.195 487.555 220.827 486.109C219.069 483.958 215.197 481.156 213.773 487.165Z" fill="#4D88A8"/>
<path d="M187.875 484.999C189.523 484.281 192.6 482.241 195.017 482.126C197.434 482.011 198.725 485.287 199.55 486.867M223.944 484.252C222.248 483.587 219.052 481.628 216.604 481.619C214.156 481.61 212.989 485.038 212.222 486.701" stroke="#E89F94" stroke-width="3" stroke-linecap="round"/>
<path d="M204.22 507.552H206.692L208.405 507.626C208.824 507.81 209.692 507.984 210.487 508.113C209.818 507.454 208.257 505.932 207.379 505.971L206.692 505.971H205.182C204.303 505.971 202.801 507.436 202.16 508.168C202.949 507.993 203.809 507.767 204.22 507.552Z" fill="#E9A196"/>
<path d="M200.512 508.415C201.656 508.271 203.671 507.84 204.22 507.553C204.815 507.649 205.319 507.687 205.933 507.687C206.555 507.696 207.949 507.693 208.54 507.571C209.101 507.833 211.131 508.174 212.28 508.266" stroke="#AE5143" stroke-linecap="round"/>
<ellipse cx="3.71892" cy="7.16414" rx="3.71892" ry="7.16414" transform="matrix(0.966477 -0.256752 0.235974 0.971759 184.58 491.361)" fill="#E9A196"/>
<ellipse cx="3.72743" cy="7.15371" rx="3.72743" ry="7.15371" transform="matrix(-0.947511 -0.319723 -0.29474 0.955577 227.725 491.836)" fill="#E9A196"/>
<ellipse cx="5.78352" cy="2.00643" rx="5.78352" ry="2.00643" transform="matrix(0.969494 -0.245117 0.225172 0.974319 157.918 663.027)" fill="#E9A196"/>
<path d="M155.324 690.141C212.35 689.222 242.814 587.091 250.917 536.141C265.97 531.888 269.184 542.222 268.91 547.921C271.473 549.022 277.233 552.144 279.76 555.822C282.919 560.419 294.868 598.632 290.336 635.839C285.803 673.046 248.17 709.822 236.633 719.16C225.096 728.498 159.719 728.498 149.006 713.988C146.902 711.14 145.87 708.441 145.594 705.943C144.743 698.264 151.04 692.49 155.324 690.141Z" fill="#EFE8DF"/>
<path d="M282.096 631.96C279.853 643.021 268.691 670.517 241.991 692.008C228.636 702.757 212.321 707.893 197.353 709.946C212.736 706.622 224.548 693.876 256 647.044C281.162 609.578 283.882 621.377 282.096 631.96Z" fill="#B0AB93"/>
<path d="M217.268 666.15C216.609 664.771 213.148 666.725 211.5 667.874C207.477 673.16 200.126 681.687 191.859 689.043C200.603 681.987 217.927 667.529 217.268 666.15Z" fill="#B0AB93"/>
<path d="M265.202 538.008C266.484 538.87 269.048 542.116 269.048 548.207M269.048 548.207C269.048 549.929 268.192 553.808 266.747 558.982M269.048 548.207C273.123 554.864 281.766 572.859 283.744 591.592C286.216 615.008 287.178 619.174 287.178 624.777M241.991 622.909C249.963 609.567 261.802 576.693 266.747 558.982M266.747 558.982C266.644 580.818 261.549 629.805 241.991 651.066M160.819 709.391C168.782 710.971 182.394 711.998 197.353 709.946M197.353 709.946C212.321 707.893 228.636 702.757 241.991 692.008C268.691 670.517 279.853 643.021 282.096 631.96C283.882 621.377 281.162 609.578 256 647.044C224.548 693.876 212.736 706.622 197.353 709.946ZM146.26 702.352C148.32 704.219 156.149 706.834 170.982 702.352C177.669 700.331 185.073 695.081 191.859 689.043M191.859 689.043C200.126 681.687 207.477 673.16 211.5 667.874C213.148 666.725 216.609 664.771 217.268 666.15C217.927 667.529 200.603 681.987 191.859 689.043Z" stroke="#B0AB93" stroke-width="6" stroke-linecap="round"/>
<path fill-rule="evenodd" clip-rule="evenodd" d="M139.665 684.108C143.282 683.485 151.505 683.82 155.46 690.141C146.789 693.572 136.644 702.927 145.846 723.039C148.551 728.95 134.348 727.827 125.793 724.044C124.557 723.613 122.112 722.062 122.222 719.304C122.233 719.024 122.232 718.575 122.23 717.984C122.207 711.298 122.124 686.484 139.665 684.108Z" fill="#EFE8DF"/>
<path d="M154.224 718.298C139.061 704.622 148.73 693.828 155.46 690.141C146.789 693.572 136.644 702.927 145.846 723.039C148.551 728.95 134.348 727.827 125.793 724.044C126.205 726.774 132.249 733.238 144.61 731.945C147.845 731.607 150.09 730.471 151.615 728.95C154.752 725.822 154.84 721.069 154.224 718.298Z" fill="#B0AB93"/>
<path d="M151.204 686.693C144.29 687.22 129.832 696.031 130.052 715.568M127.58 725.624C121.536 709.966 133.293 699.616 135.271 697.318M146.808 730.509C144.657 730.7 136.645 724.763 136.645 705.656" stroke="#B0AB93" stroke-width="6" stroke-linecap="round"/>
<path d="M261.356 693.445C237.595 737.979 182.107 726.63 154.5 717.867C149.647 715.138 141.617 707.121 148.319 696.893" stroke="#686349" stroke-width="8" stroke-linecap="round"/>
<path fill-rule="evenodd" clip-rule="evenodd" d="M97.6381 716.43C109.313 711.833 114.806 706.805 116.592 698.186C118.377 689.567 115.088 681.506 100.385 678.792C95.7152 677.93 89.2599 680.749 84.0407 683.82C80.3923 685.967 78.6788 688.365 77.0146 690.695C75.6717 692.575 74.361 694.41 72.0915 696.031C71.0422 696.781 69.9151 697.497 68.7252 698.186C80.0568 697.988 98.9841 702.22 84.0407 720.73C90.2243 718.878 95.304 717.35 97.6381 716.43Z" fill="#F1C3A8"/>
<path d="M38.8535 711.402L46.6823 733.526C54.5689 729.559 71.0738 724.615 83.4527 720.906L84.0407 720.73C98.9841 702.22 80.0568 697.988 68.7252 698.186C60.1451 703.157 48.3021 706.734 38.8535 711.402Z" fill="#CB7E73"/>
<path d="M48.6058 651.927L-36 580.242L19.7629 643.595L-27.6218 651.927L107.94 770.875L83.0799 778.489L178.261 863.822L104.643 788.545L139.118 774.754L6.5776 660.259L48.6058 651.927Z" fill="#FDC986"/>
<path d="M19.8427 706.365C23.2526 699.501 31.3646 685.64 36.5334 685.1C37.2687 685.023 37.9886 685.057 38.687 685.179C41.1397 683.802 46.7631 681.454 49.6346 683.075C53.224 685.1 54.4803 690.838 58.6081 690.669C62.7359 690.5 62.3767 696.576 54.7494 696.576C55.2747 697.483 55.6354 698.546 55.7366 699.783C58.1894 699.726 63.3461 700.694 64.3512 705.015C66.6843 705.127 71.2787 706.365 70.9915 710.415C70.7044 714.466 58.4287 728.305 52.3267 734.718C51.2499 735.843 48.6655 738.262 45.5068 736.912C42.3481 735.562 44.7889 733.705 42.2764 731.849C39.7638 729.993 38.5075 732.018 36.8923 731.511C35.2771 731.005 34.2003 729.631 34.7387 727.606C35.2771 725.581 32.4055 723.579 29.893 723.579C28.8465 723.579 26.1241 723.411 27.2009 719.191C28.2777 714.972 25.0769 715.31 22.8936 715.31C16.6122 715.31 18.2495 709.571 19.8427 706.365Z" fill="#F1C3A8"/>
<path d="M38.687 685.179C37.9886 685.057 37.2687 685.023 36.5334 685.1C31.3646 685.64 23.2526 699.501 19.8427 706.365C18.2495 709.571 16.6122 715.31 22.8936 715.31C25.0769 715.31 28.2777 714.972 27.2009 719.191C26.1241 723.411 28.8465 723.579 29.893 723.579C32.4055 723.579 35.2771 725.581 34.7387 727.606C34.2003 729.631 35.2771 731.005 36.8923 731.511C38.5075 732.018 39.7638 729.993 42.2764 731.849C44.7889 733.705 42.3481 735.562 45.5068 736.912C48.6655 738.262 51.2499 735.843 52.3267 734.718C58.4287 728.305 70.7044 714.466 70.9915 710.415C71.2787 706.365 66.6843 705.127 64.3512 705.015C63.3461 700.694 58.1894 699.726 55.7366 699.783C55.6354 698.546 55.2747 697.483 54.7494 696.576M38.687 685.179C42.8973 685.913 46.3264 689.848 47.6605 692.019C49.5828 692.321 53.0387 693.623 54.7494 696.576M38.687 685.179C41.1397 683.802 46.7631 681.454 49.6346 683.075C53.224 685.1 54.4803 690.838 58.6081 690.669C62.7359 690.5 62.3767 696.576 54.7494 696.576" stroke="#E9A397" stroke-width="2"/>
<path d="M55.3773 699.953C52.1468 704.397 46.4038 713.623 42.276 716.661M46.9422 692.189C43.7118 696.634 36.1022 706.197 31.5078 708.898M64.1713 705.354C60.9409 709.798 55.1978 719.024 51.07 722.062" stroke="#CB7E73" stroke-width="4" stroke-linecap="round"/>
<path fill-rule="evenodd" clip-rule="evenodd" d="M304.193 716.72C293.117 712.122 287.905 707.094 286.211 698.475C284.517 689.856 287.638 681.795 301.587 679.081C306.017 678.219 312.141 681.039 317.093 684.109C320.554 686.256 322.18 688.655 323.759 690.984C325.033 692.864 326.276 694.699 328.429 696.32C329.425 697.07 330.494 697.786 331.623 698.475C320.873 698.277 302.916 702.509 317.093 721.019C311.226 719.167 306.407 717.639 304.193 716.72Z" fill="#F1C3A8"/>
<path d="M359.963 711.692L352.536 733.815C345.053 729.848 329.395 724.904 317.651 721.196L317.093 721.019C302.916 702.509 320.873 698.277 331.623 698.475C339.763 703.446 350.999 707.024 359.963 711.692Z" fill="#CB7E73"/>
<path d="M350.711 652.216L430.979 580.531L378.075 643.884L423.03 652.216L294.42 771.164L318.005 778.778L227.705 864.111L297.548 788.834L264.841 775.043L390.584 660.548L350.711 652.216Z" fill="#FDC986"/>
<path d="M378.001 706.654C374.766 699.791 367.07 685.929 362.167 685.389C361.469 685.312 360.786 685.346 360.123 685.468C357.796 684.091 352.461 681.743 349.737 683.364C346.332 685.389 345.14 691.127 341.224 690.958C337.308 690.789 337.649 696.865 344.885 696.865C344.386 697.772 344.044 698.835 343.948 700.072C341.621 700.016 336.729 700.983 335.775 705.304C333.562 705.416 329.203 706.654 329.475 710.704C329.748 714.755 341.394 728.594 347.183 735.007C348.205 736.132 350.657 738.551 353.653 737.201C356.65 735.851 354.334 733.995 356.718 732.138C359.102 730.282 360.294 732.307 361.826 731.801C363.358 731.294 364.38 729.92 363.869 727.895C363.358 725.87 366.083 723.868 368.466 723.868C369.459 723.868 372.042 723.7 371.02 719.48C369.999 715.261 373.035 715.599 375.107 715.599C381.066 715.599 379.513 709.86 378.001 706.654Z" fill="#F1C3A8"/>
<path d="M360.123 685.468C360.786 685.346 361.469 685.312 362.167 685.389C367.07 685.929 374.766 699.791 378.001 706.654C379.513 709.86 381.066 715.599 375.107 715.599C373.035 715.599 369.999 715.261 371.02 719.48C372.042 723.7 369.459 723.868 368.466 723.868C366.083 723.868 363.358 725.87 363.869 727.895C364.38 729.92 363.358 731.294 361.826 731.801C360.294 732.307 359.102 730.282 356.718 732.138C354.334 733.995 356.65 735.851 353.653 737.201C350.657 738.551 348.205 736.132 347.183 735.007C341.394 728.594 329.748 714.755 329.475 710.704C329.203 706.654 333.562 705.416 335.775 705.304C336.729 700.983 341.621 700.016 343.948 700.072C344.044 698.835 344.386 697.772 344.885 696.865M360.123 685.468C356.129 686.203 352.876 690.137 351.61 692.308C349.786 692.61 346.508 693.912 344.885 696.865M360.123 685.468C357.796 684.091 352.461 681.743 349.737 683.364C346.332 685.389 345.14 691.127 341.224 690.958C337.308 690.789 337.649 696.865 344.885 696.865" stroke="#E9A397" stroke-width="2"/>
<path d="M344.288 700.242C347.353 704.686 352.802 713.912 356.718 716.95M352.291 692.479C355.355 696.923 362.575 706.486 366.934 709.187M335.945 705.643C339.01 710.087 344.458 719.313 348.375 722.351" stroke="#CB7E73" stroke-width="4" stroke-linecap="round"/>
</g>
<defs>
<linearGradient id="paint0_linear_746_59" x1="206.006" y1="480.688" x2="206.006" y2="496.777" gradientUnits="userSpaceOnUse">
<stop stop-color="#F1C3A8"/>
<stop offset="1" stop-color="#E89F94"/>
</linearGradient>
<clipPath id="clip0_746_59">
<rect width="830" height="901" fill="white" transform="translate(-218 -16)"/>
</clipPath>
</defs>
</svg>
