<svg width="393" height="852" viewBox="0 0 393 852" fill="none" xmlns="http://www.w3.org/2000/svg">
<g clip-path="url(#clip0_746_59)">
<rect width="830" height="901" transform="translate(-218 -16)" fill="#BEDDFF"/>
<path d="M-340.525 724.645L442 779C440.739 736.879 439.349 585.594 406.796 555.813C366.104 518.586 351.367 521.207 310.675 555.813C269.984 590.418 226.628 670.116 206.283 657.532C185.937 644.948 116.575 585.754 77.7097 588.201C38.8443 590.647 -53.7295 644.948 -53.7295 684.796C-53.7295 724.645 -205.409 507.757 -251.708 507.757C-298.008 507.757 -338.569 500.242 -357.088 532.575C-371.904 558.442 -363.218 642.676 -370 657.532L-357.088 724.645H-340.525Z" fill="#46616F"/>
<path d="M195.313 611.803L217.705 614.056L251.432 617.45L281.107 620.436L308.531 623.195L333.781 625.736L357.717 628.145L386.965 631.057V611.662V601.964L195.313 582.584V611.803Z" fill="#FBEDCD"/>
<path d="M217.705 628.495V614.056C214.56 618.007 203.037 627.067 182.104 631.702L199.904 630.098L217.705 628.495Z" fill="#FBEDCD"/>
<path d="M251.432 631.97V617.45C247.706 627.742 239.729 630.239 229.631 629.723L241.556 630.952L251.432 631.97Z" fill="#FBEDCD"/>
<path d="M242.606 745.051L241.556 630.952L229.631 629.723L230.155 745.051H242.606Z" fill="#FBEDCD"/>
<path d="M267.507 745.051H274.188V634.314L264.843 633.352V745.051H267.507Z" fill="#FBEDCD"/>
<path d="M301.863 745.051V637.166L293.183 636.272V745.051H301.863Z" fill="#FBEDCD"/>
<path d="M328.155 745.051V639.875L319.978 639.032L320.67 745.051H328.155Z" fill="#FBEDCD"/>
<path d="M353.44 745.051V642.48L346.207 641.735V745.051H353.44Z" fill="#FBEDCD"/>
<path d="M381.242 745.051L381.116 645.319L373.065 644.494L373.128 745.051H381.242Z" fill="#FBEDCD"/>
<path d="M386.965 592.266L370.8 589.511L364.636 588.896L195.313 572.005V579.687L386.965 599.46V592.266Z" fill="#FFF7E5"/>
<path d="M190.407 563.063L195.313 572.005L284.503 551.522L287.995 550.72C295.385 561.006 315.097 577.874 334.822 563.063L370.8 589.511L386.965 592.266L334.822 557.395C312.279 565.758 300.689 553.911 297.712 546.942V538L190.407 563.063Z" fill="#FFF7E5"/>
<path d="M8 631.702L18.3154 630.606L25.2343 629.871L38.1914 628.495L53.6645 626.851L61.2124 626.049L69.1376 625.207L83.4786 623.683L101.216 621.799L107.38 621.144L116.563 620.169L132.036 618.525L148.39 616.788L155.938 615.986L165.247 614.997L182.104 613.206L195.313 611.803V582.584L8 602.735V631.702Z" fill="#D4B4AB"/>
<path d="M195.313 611.803L182.104 613.206V631.702C203.037 627.067 214.56 618.007 217.705 614.056L195.313 611.803Z" fill="#D4B4AB"/>
<path d="M217.705 614.056V628.495L229.631 629.723C239.729 630.239 247.706 627.742 251.432 617.45L217.705 614.056Z" fill="#D4B4AB"/>
<path d="M195.313 582.584L386.965 601.964V599.46L195.313 579.687V582.584Z" fill="#D4B4AB"/>
<path d="M217.705 628.495V745.051H230.155L229.631 629.723C227.487 629.614 219.344 628.76 217.705 628.495Z" fill="#D4B4AB"/>
<path d="M255.499 632.458V745.051H264.843V633.352L255.499 632.458Z" fill="#D4B4AB"/>
<path d="M284.503 635.377V745.051H293.183V636.272L284.503 635.377Z" fill="#D4B4AB"/>
<path d="M311.801 638.19L313.185 745.051H320.67L319.978 639.032L311.801 638.19Z" fill="#D4B4AB"/>
<path d="M338.974 640.99V745.051H346.207V641.735L338.974 640.99Z" fill="#D4B4AB"/>
<path d="M365.014 643.669V745.051H373.128L373.065 644.494L365.014 643.669Z" fill="#D4B4AB"/>
<path d="M251.432 617.45V631.97L255.499 632.458L264.843 633.352C269.887 631.588 280.201 626.536 281.107 620.436L251.432 617.45Z" fill="#D4B4AB"/>
<path d="M281.107 635.027V620.436C280.201 626.536 269.887 631.588 264.843 633.352L274.188 634.314L281.107 635.027Z" fill="#FBEDCD"/>
<path d="M308.531 637.853V623.195C305.914 634.425 297.209 636.592 293.183 636.272L301.863 637.166L308.531 637.853Z" fill="#FBEDCD"/>
<path d="M281.107 620.436V635.027L284.503 635.377L293.183 636.272C297.209 636.592 305.914 634.425 308.531 623.195L281.107 620.436Z" fill="#D4B4AB"/>
<path d="M333.781 640.455V625.736C332.546 636.682 324.064 639.161 319.978 639.032L328.155 639.875L333.781 640.455Z" fill="#FBEDCD"/>
<path d="M308.531 623.195V637.853L311.801 638.19L319.978 639.032C324.064 639.161 332.546 636.682 333.781 625.736L308.531 623.195Z" fill="#D4B4AB"/>
<path d="M357.717 642.921V628.145C356.912 637.39 349.708 641.057 346.207 641.735L353.44 642.48L357.717 642.921Z" fill="#FBEDCD"/>
<path d="M333.781 625.736V640.455L334.226 640.5L338.974 640.99L346.207 641.735C349.708 641.057 356.912 637.39 357.717 628.145L333.781 625.736Z" fill="#D4B4AB"/>
<path d="M386.965 631.057L357.717 628.145V642.921L365.014 643.669L373.065 644.494C376.671 644.166 384.5 641.019 386.965 631.057Z" fill="#D4B4AB"/>
<path d="M386.965 645.918V631.057C384.5 641.019 376.671 644.166 373.065 644.494L381.116 645.319L386.965 645.918Z" fill="#FBEDCD"/>
<path d="M182.104 631.702V613.206L165.247 614.997V745.051H182.104V631.702Z" fill="#DEC6B8"/>
<path d="M132.036 745.051V618.525L116.563 620.169V745.051H132.036Z" fill="#DEC6B8"/>
<path d="M83.4786 745.051V623.683L69.1376 625.207V745.051H83.4786Z" fill="#DEC6B8"/>
<path d="M38.1914 745.051V628.495L25.2343 629.871V745.051H38.1914Z" fill="#DEC6B8"/>
<path d="M155.938 615.986V745.051H165.247V614.997L155.938 615.986Z" fill="#C2908C"/>
<path d="M107.38 621.144V745.051H116.563V620.169L107.38 621.144Z" fill="#C1908C"/>
<path d="M61.2124 626.049V745.051H69.1376V625.207L61.2124 626.049Z" fill="#C1908C"/>
<path d="M18.3154 630.606V745.051H25.2343V629.871L18.3154 630.606Z" fill="#C1908C"/>
<path d="M61.2124 745.051V626.049L53.6645 626.851V745.051H61.2124Z" fill="#907272"/>
<path d="M107.38 745.051V621.144L101.216 621.799V745.051H107.38Z" fill="#907272"/>
<path d="M155.938 745.051V615.986L148.39 616.788V745.051H155.938Z" fill="#907272"/>
<path d="M195.313 572.005L143.61 577.775L8 592.911V600.468L195.313 579.687V572.005Z" fill="#D4B4AB"/>
<path d="M8 602.735L195.313 582.584V579.687L8 600.468V602.735Z" fill="#C1908C"/>
<path d="M182.104 631.702V745.051H199.904V630.098L182.104 631.702Z" fill="#907272"/>
<path d="M143.61 577.775L195.313 572.005L190.407 563.063L143.61 572.005V577.775Z" fill="#C1908C"/>
<path d="M8 745.051V777.665C85.8521 785.766 243.532 799.235 251.432 788.298C259.333 777.361 300.778 785.26 320.67 788.298C319.199 784.515 310.856 771.785 287.995 769.355L287.247 769.276C258.424 766.212 201.873 760.202 241.556 755.684C273.58 752.038 272.2 747.076 267.507 745.051H264.843H255.499H242.606H230.155H217.705H199.904H182.104H165.247H155.938H148.39H132.036H116.563H107.38H101.216H83.4786H69.1376H61.2124H53.6645H38.1914H25.2343H18.3154H8Z" fill="#C1908C"/>
<path d="M409.043 755.684H241.556C201.873 760.202 258.424 766.212 287.247 769.276L287.995 769.355L422 769.276L409.043 755.684Z" fill="#D4B4AB"/>
<path d="M267.507 745.051C272.2 747.076 273.58 752.038 241.556 755.684H409.043V745.051H381.242H373.128H365.014H353.44H346.207H338.974H328.155H320.67H313.185H301.863H293.183H284.503H274.188H267.507Z" fill="#FBEDCD"/>
<path d="M287.995 769.355C310.856 771.785 319.199 784.515 320.67 788.298L422 805V769.276L287.995 769.355Z" fill="#FBEDCD"/>
<path fill-rule="evenodd" clip-rule="evenodd" d="M364.636 588.896L334.822 566.085C312.883 584.826 292.135 564.185 284.503 551.522L195.313 572.005L364.636 588.896Z" fill="#FBEDCD"/>
<path d="M334.822 563.063C315.097 577.874 295.385 561.006 287.995 550.72L284.503 551.522C292.135 564.185 312.883 584.826 334.822 566.085L364.636 588.896L370.8 589.511L334.822 563.063Z" fill="#C1908C"/>
<path d="M-233.641 791.61L-419 828.59V1227L274.724 1219.2C264.951 1185.97 235.1 1124.82 182.767 1088.62C165.937 1076.97 146.782 1067.91 125.222 1063.19C36.6197 1043.77 7.1434 913.916 3.48053 851.414H-74.0176C-73.2465 825.99 -75.637 771.617 -91.3679 757.518C-107.099 743.419 -192.771 730.649 -233.641 726.026V791.61Z" fill="#D89D7B"/>
<path fill-rule="evenodd" clip-rule="evenodd" d="M125.222 708.981V757.518L243.204 828.59L257.663 1043.83L182.767 1088.62C235.1 1124.82 264.951 1185.97 274.724 1219.2L688.819 1214.54C651.708 1197.12 569.217 1150.67 536.136 1104.21C519.406 1080.72 514.651 1054.06 509.788 1026.79C502.631 986.66 495.24 945.219 449.095 910.641C387.096 864.184 207.347 756.844 125.222 708.981ZM439.841 1112.01C412.081 1066.94 422.491 1002.71 431.166 976.224L512.134 1135.13L439.841 1112.01Z" fill="#D89D7B"/>
<path d="M439.841 851.414C469.433 875.876 529.369 936.701 532.376 984.314C535.384 1031.93 544.04 977.573 547.992 944.444C529.774 907.954 482.639 838.262 439.841 851.414Z" fill="#D89D7B"/>
<path d="M615.947 772.953C641.876 807.581 714.092 883.599 795.523 910.641C841.037 925.756 857.411 983.557 874.041 1042.26C894.601 1114.83 915.551 1188.78 992.449 1185.11C1035.34 1113.36 1091.29 958.023 971.918 910.641C852.548 863.26 684.867 799.107 615.947 772.953Z" fill="#D89D7B"/>
<path d="M1048.26 976.224C1052.89 984.41 1062.14 1004.19 1062.14 1017.83C1062.14 1034.87 1091.35 1024.47 1082.67 1009.16C1081.77 1007.57 1080.68 1005.6 1079.46 1003.38L1079.46 1003.38C1068.92 984.241 1048.26 946.711 1048.26 976.224Z" fill="#D89D7B"/>
<path fill-rule="evenodd" clip-rule="evenodd" d="M-233.641 726.026C-192.867 714.663 -107.33 695.344 -91.3679 708.981V672H28.3494V757.518H125.222L243.204 828.59L257.663 1043.83L182.767 1088.62C165.937 1076.97 146.782 1067.91 125.222 1063.19C36.6197 1043.77 7.1434 913.916 3.48053 851.414H-74.0176C-73.2465 825.99 -75.637 771.617 -91.3679 757.518C-107.099 743.419 -192.771 730.649 -233.641 726.026ZM688.819 1214.54L1353.05 1207.07L1373 851.414L615.947 772.953L467.024 757.518V726.026L125.222 708.981C207.347 756.844 387.096 864.184 449.095 910.641C495.24 945.219 502.631 986.66 509.788 1026.79C514.651 1054.06 519.406 1080.72 536.136 1104.21C569.217 1150.67 651.708 1197.12 688.819 1214.54ZM795.523 910.641C714.092 883.599 641.876 807.581 615.947 772.953C684.867 799.107 852.548 863.26 971.918 910.641C1091.29 958.023 1035.34 1113.36 992.449 1185.11C915.551 1188.78 894.601 1114.83 874.041 1042.26C857.411 983.557 841.037 925.756 795.523 910.641ZM431.166 976.224C422.491 1002.71 412.081 1066.94 439.841 1112.01L512.134 1135.13L431.166 976.224ZM439.841 851.414C469.433 875.876 529.369 936.701 532.376 984.314C535.384 1031.93 544.04 977.573 547.992 944.444C529.774 907.954 482.639 838.262 439.841 851.414ZM1048.26 976.224C1052.89 984.41 1062.14 1004.19 1062.14 1017.83C1062.14 1034.87 1091.35 1024.47 1082.67 1009.16C1081.77 1007.57 1080.68 1005.6 1079.46 1003.38L1079.46 1003.38C1068.92 984.241 1048.26 946.711 1048.26 976.224ZM1055.78 1135.13C1068.04 1105.54 1065.13 1055.96 1062.14 1034.87C1087.23 1034.87 1093.97 1086.05 1097.39 1112.01C1097.95 1116.27 1098.42 1119.85 1098.86 1122.41C1102.05 1140.62 1040.45 1172.11 1055.78 1135.13Z" fill="#FDDBB5"/>
<path d="M1062.14 1034.87C1065.13 1055.96 1068.04 1105.54 1055.78 1135.13C1040.45 1172.11 1102.05 1140.62 1098.86 1122.41C1098.42 1119.85 1097.95 1116.27 1097.39 1112.01C1093.97 1086.05 1087.23 1034.87 1062.14 1034.87Z" fill="#D89D7B"/>
<path fill-rule="evenodd" clip-rule="evenodd" d="M107.08 725.111C90.6336 731.503 67.6082 748.373 107.08 764.722C131.443 774.813 134.116 783.12 136.503 790.539C138.95 798.145 141.097 804.819 166.011 811.524C188.554 817.591 204.319 826.173 218.133 833.693C234.476 842.59 248.088 850 266.963 850C283.199 850 309.853 846.601 338.313 842.972C370.906 838.815 405.867 834.357 430.254 834.357C473.506 834.357 473.656 830.06 475.585 774.561C475.693 771.445 475.807 768.169 475.934 764.722C477.585 720.09 476.963 695.899 476.415 674.581C476.167 664.929 475.934 655.867 475.934 645.762C475.934 613.341 418.139 589.499 407.413 635.039C374.225 635.039 309.035 648.008 313.78 699.881C300.993 689.032 270.118 675.988 248.918 710.604C233.231 736.217 215.466 728.545 198.607 721.264C186.986 716.245 175.795 711.411 166.011 717.794C146.83 730.308 118.732 727.886 107.08 725.111ZM391.892 665.568C347.977 662.036 339.102 703.791 340.154 725.111C338.56 744.538 317.692 744.286 292.959 738.609C275.969 734.709 253.262 738.846 236.947 741.818C229.511 743.173 223.403 744.286 219.768 744.286C215.672 744.286 210.712 743.249 204.848 742.024L204.848 742.024C194.094 739.777 180.303 736.895 163.235 738.609C136.861 741.258 139.007 757.405 140.647 764.722C141.245 767.388 146.365 769.401 152.633 771.864C163.569 776.163 177.999 781.835 177.999 794.746C177.999 810.994 199.62 820.186 210.43 822.751H456.753L466.596 802.946L471.013 665.568C468.615 658.966 457.788 645.762 433.661 645.762C409.533 645.762 395.762 658.966 391.892 665.568Z" fill="#E7E0F0"/>
<path d="M340.154 725.111C339.102 703.791 347.977 662.036 391.892 665.568C395.762 658.966 409.533 645.762 433.661 645.762C457.788 645.762 468.615 658.966 471.013 665.568L466.596 802.946L456.753 822.751H210.43C199.62 820.186 177.999 810.994 177.999 794.746C177.999 781.835 163.569 776.163 152.633 771.864C146.365 769.401 141.245 767.388 140.647 764.722C139.007 757.405 136.861 741.258 163.235 738.609C180.303 736.895 194.094 739.777 204.848 742.024L204.848 742.024C210.712 743.249 215.672 744.286 219.768 744.286C223.403 744.286 229.511 743.173 236.947 741.818C253.262 738.846 275.969 734.709 292.959 738.609C317.692 744.286 338.56 744.538 340.154 725.111Z" fill="#C3C3DC"/>
<path fill-rule="evenodd" clip-rule="evenodd" d="M-307.328 577.388C-288.526 572.132 -245.142 571.964 -222.024 613.341C-196.786 611.786 -142.953 619.472 -129.526 662.666C-109.083 653.878 -65.3206 649.017 -53.8121 699.881C-43.3803 702.236 -22.2898 709.115 -21.3812 717.794C-20.5719 725.525 -34.3095 728.964 -58.8039 735.096C-68.6815 737.569 -80.3083 740.479 -93.4358 744.286C-139.117 757.532 -166.752 765.984 -176.343 801.937C-179.677 814.436 -192.742 823.322 -209.026 829.193C-206.881 814.136 -199.89 783.67 -189.088 782.257C-183.093 781.473 -179.909 772.78 -176.178 762.594C-171.506 749.84 -165.977 734.744 -152.998 729.905C-143.584 726.395 -127.502 724.936 -111.603 723.494C-88.0714 721.359 -64.9392 719.261 -64.412 710.604C-63.9877 703.635 -70.6685 703.361 -79.8104 702.987C-89.6993 702.582 -102.468 702.059 -112.238 692.816C-127.28 678.587 -140.799 674.731 -145.679 674.581C-145.679 654.342 -196.575 643.403 -222.024 640.464C-240.397 613.17 -287.635 606.805 -308.957 607.034C-308.37 596.136 -307.818 586.102 -307.328 577.388Z" fill="#E7E0F0"/>
<path d="M-316.919 801.937C-315.783 835.619 -307.328 824.77 -291.681 834.357C-281.473 840.612 -239.582 840.209 -209.026 829.193C-206.881 814.136 -199.89 783.67 -189.088 782.257C-183.093 781.473 -179.909 772.78 -176.178 762.594C-171.506 749.84 -165.977 734.744 -152.998 729.905C-143.584 726.395 -127.502 724.936 -111.603 723.494C-88.0714 721.359 -64.9392 719.261 -64.412 710.604C-63.9877 703.635 -70.6685 703.361 -79.8104 702.987C-89.6993 702.582 -102.468 702.059 -112.238 692.816C-127.28 678.587 -140.799 674.731 -145.679 674.581C-145.679 654.342 -196.575 643.403 -222.024 640.464C-240.397 613.17 -287.635 606.805 -308.957 607.034C-312.653 675.703 -317.703 778.681 -316.919 801.937Z" fill="#C3C3DC"/>
<path d="M236.947 687.14C232.89 682.893 222.16 676.947 211.692 687.14C198.607 699.881 236.947 700.512 236.947 687.14Z" fill="#E7E0F0"/>
<path d="M386.466 622.929C380.156 628.9 360.622 637.739 332.961 625.326C298.385 609.809 327.156 603.502 340.154 603.502C353.151 603.502 375.487 601.231 371.07 607.539C366.654 613.846 350.375 620.532 360.723 622.929C371.07 625.326 381.039 613.341 386.466 622.929Z" fill="#E7E0F0"/>
<path d="M354.413 594.923C359.924 598.287 372.156 603.552 377.001 597.699C383.058 590.382 359.713 586.541 354.413 594.923Z" fill="#E7E0F0"/>
<path d="M-239.564 571.333C-236.031 579.281 -223.26 596.362 -200.445 601.105C-171.926 607.034 -159.181 583.444 -170.286 577.388C-181.39 571.333 -227.197 550.518 -239.564 571.333Z" fill="#E7E0F0"/>
<path d="M-251.552 561.115C-245.621 562.25 -231.412 562.906 -222.024 556.448C-210.288 548.374 -251.552 548.752 -251.552 561.115Z" fill="#E7E0F0"/>
<rect x="-257" y="-169" width="1579" height="1418" fill="#426D6E" fill-opacity="0.6"/>
<path fill-rule="evenodd" clip-rule="evenodd" d="M105.33 1089.09C97.5285 1098.85 82.4844 1110.11 75.9375 1114.51C88.0698 1114.03 112.692 1112.19 114.12 1108.62C115.033 1106.35 114.546 1103.88 114.09 1101.58C113.654 1099.37 113.247 1097.31 114.12 1095.69C114.395 1095.19 114.744 1094.47 115.171 1093.59C117.518 1088.76 122.203 1079.12 129.64 1073.28C136.172 1068.16 152.032 1029.09 160.596 1006.34C139.102 1013.35 130.613 998.821 129.056 990.681C122.422 1028.24 111.875 1080.89 105.33 1089.09Z" fill="#F1C3A8"/>
<path d="M166.175 990.681C167.823 984.82 144.336 975.214 132.387 971.144C131.458 976.819 130.329 983.472 129.056 990.681C130.613 998.821 139.102 1013.35 160.596 1006.34C163.557 998.475 165.645 992.563 166.175 990.681Z" fill="#CB7E73"/>
<path fill-rule="evenodd" clip-rule="evenodd" d="M312.724 1100C314.298 1106.9 312.933 1108.62 314.097 1108.62C315.247 1108.62 317.261 1109.28 320.091 1110.2C324.025 1111.47 329.535 1113.26 336.485 1114.51C339.812 1115.11 341.905 1115.56 343.155 1115.88C343.297 1116.03 343.436 1116.18 343.573 1116.32C343.684 1116.44 343.794 1116.55 343.902 1116.67C344.887 1116.67 345.498 1116.49 343.155 1115.88C336.293 1108.61 323.578 1094.61 322.201 1090.95C320.998 1087.76 305.618 1029.05 294.504 986.371C289.157 1006.25 272.292 1003.85 264.527 1000.16C277.569 1029.05 298.945 1067.96 305.032 1078.74C310.142 1087.79 311.15 1093.11 312.724 1100Z" fill="#F1C3A8"/>
<path d="M288.825 964.535L260.257 990.681C261.538 993.534 262.975 996.724 264.527 1000.16C272.292 1003.85 289.157 1006.25 294.504 986.371C292.421 978.373 290.487 970.937 288.825 964.535Z" fill="#CB7E73"/>
<path d="M230.041 628.234C220.042 624.556 199.413 626.701 190.348 628.234C186.388 629.751 180.364 632.166 174.141 634.855C183.724 655.594 211.196 684.629 244.416 634.855C239.526 632.291 234.392 629.834 230.041 628.234Z" fill="#CB7E73"/>
<path fill-rule="evenodd" clip-rule="evenodd" d="M174.141 634.855C183.724 655.594 211.196 684.629 244.416 634.855C250.762 638.183 256.699 641.693 259.983 643.749C247.942 698.961 220.482 810.994 206.967 817.43C190.073 825.475 162.466 810.104 161.779 798.611C161.673 796.822 161.366 794.822 160.921 792.716C160.543 790.924 160.064 789.056 159.522 787.174C159.144 785.86 158.735 784.539 158.308 783.234C156.372 777.314 154.065 771.707 152.577 768.443C151.433 767.725 148.429 765.484 145.572 762.266C143.692 760.148 142.46 755.164 141.513 751.337C140.662 747.895 140.729 744.672 140.079 746.033L132.662 714.859C130.547 735.184 125.658 776.563 122.453 785.378C122.33 785.673 122.208 785.966 122.086 786.257C120.51 790.043 119.125 793.469 118.103 796.169C112.884 809.96 97.7757 803.352 95.7155 796.169C94.1537 790.724 94.723 777.188 95.2694 764.198C95.4438 760.053 95.6158 755.963 95.7155 752.21C96.0044 741.332 95.5506 740.411 93.1235 735.485C92.0888 733.386 90.6954 730.558 88.8481 725.921C83.5159 712.535 84.5218 702.144 85.604 690.965C85.7762 689.186 85.9504 687.387 86.1012 685.553C87.2 672.193 116.318 663.286 127.031 660.7C134.765 658.833 139.421 655.319 145.186 650.968C147.405 649.293 149.79 647.493 152.577 645.616C157.164 642.528 165.83 638.447 174.141 634.855Z" fill="#F1C3A8"/>
<path d="M140.079 746.033L132.662 714.859C130.547 735.184 125.658 776.563 122.453 785.378C128.926 769.897 138.995 748.3 140.079 746.033Z" fill="#CB7E73"/>
<path fill-rule="evenodd" clip-rule="evenodd" d="M278.662 658.258C285.117 660.988 298.989 667.768 302.835 673.055C303.132 673.463 303.492 673.94 303.904 674.485C310.171 682.783 328.392 706.909 316.02 743.303C313.691 744.615 311.078 745.504 308.329 746.064C305.796 746.581 303.148 746.818 300.5 746.852C299.306 746.868 298.112 746.842 296.929 746.781C296.052 746.736 295.181 746.672 294.319 746.592C287.993 746.003 282.207 744.539 278.662 743.303V658.258ZM278.662 757.525V763.846C278.662 766.727 280.441 773.33 282.245 780.023C283.949 786.346 285.674 792.749 285.941 796.169C286.491 803.208 308.603 805.507 312.724 796.169C316.844 786.831 314.235 768.443 312.724 758.244C309.651 760.386 305.552 761.3 301.187 761.463C298.934 761.547 296.61 761.43 294.319 761.179C293.209 761.058 292.106 760.904 291.023 760.727C290.374 760.62 289.732 760.505 289.1 760.383C284.968 759.584 281.249 758.481 278.662 757.525Z" fill="#F1C3A8"/>
<path d="M301.187 761.463L308.329 746.064C305.796 746.581 303.148 746.818 300.5 746.852L294.319 761.179C296.61 761.43 298.934 761.547 301.187 761.463Z" fill="#F4DE85"/>
<path fill-rule="evenodd" clip-rule="evenodd" d="M312.724 758.244C311.727 751.513 313.496 748.165 315.071 745.183C315.406 744.549 315.731 743.932 316.02 743.303C313.691 744.615 311.078 745.504 308.329 746.064L301.187 761.463C305.552 761.3 309.651 760.386 312.724 758.244ZM296.929 746.781C298.112 746.842 299.306 746.868 300.5 746.852L294.319 761.179C293.209 761.058 292.106 760.904 291.023 760.727L296.929 746.781ZM294.319 746.592C287.993 746.003 282.207 744.539 278.662 743.303V757.525C281.249 758.481 284.968 759.584 289.1 760.383L294.319 746.592Z" fill="#E19059"/>
<path d="M291.023 760.727L296.929 746.781C296.052 746.736 295.181 746.672 294.319 746.592L289.1 760.383C289.732 760.505 290.374 760.62 291.023 760.727Z" fill="#F4DE85"/>
<path d="M160.921 792.716C160.543 790.924 160.064 789.056 159.522 787.174L158.308 783.234C156.26 784.384 151.423 786.567 148.457 786.108C145.49 785.648 151.433 790.322 154.775 792.716H160.921Z" fill="#686349"/>
<path d="M205.731 696.04C200.929 696.279 198.589 697.62 188.425 694.46C194.881 697.907 202.698 728.39 205.456 745.889C204.367 733.758 214.521 698.051 220.976 694.46C211.637 698.051 211.5 695.752 205.731 696.04Z" fill="#E9A196"/>
<path d="M134.326 713.074C134.054 712.003 132.966 711.356 131.895 711.627C130.825 711.899 130.177 712.988 130.449 714.058L134.326 713.074ZM141.727 752.784L139.741 753.022L141.727 752.784ZM177.969 773.456C179.071 773.39 179.912 772.443 179.846 771.34C179.78 770.238 178.833 769.397 177.73 769.463L177.969 773.456ZM176.339 661.993L177.365 663.71L176.339 661.993ZM108.721 726.582C107.896 725.847 106.632 725.92 105.897 726.745C105.162 727.57 105.235 728.834 106.06 729.569L108.721 726.582ZM100.793 773.746C100.072 774.583 100.166 775.846 101.003 776.567C101.84 777.287 103.103 777.193 103.824 776.356L100.793 773.746ZM124.433 737.574C124.918 736.581 124.507 735.384 123.515 734.898C122.523 734.413 121.325 734.824 120.839 735.816L124.433 737.574ZM112.813 771.612C112.897 772.713 113.858 773.538 114.959 773.454C116.06 773.37 116.885 772.409 116.801 771.308L112.813 771.612ZM188.425 694.46L189.019 692.55C188.034 692.243 186.978 692.736 186.58 693.688C186.182 694.64 186.573 695.738 187.483 696.224L188.425 694.46ZM205.731 696.04L205.631 694.042L205.731 696.04ZM220.976 694.46L221.949 696.207C222.866 695.697 223.233 694.564 222.788 693.612C222.343 692.661 221.239 692.216 220.259 692.593L220.976 694.46ZM205.731 748.187L203.782 748.638L207.709 747.889L205.731 748.187ZM130.449 714.058C131.913 719.824 134.136 728.701 136.048 736.594C137.981 744.578 139.54 751.335 139.741 753.022L143.713 752.547C143.475 750.556 141.829 743.474 139.935 735.653C138.019 727.741 135.792 718.849 134.326 713.074L130.449 714.058ZM139.741 753.022C140.067 755.743 141.681 759.523 143.792 762.779C144.866 764.436 146.118 766.035 147.484 767.354C148.835 768.659 150.392 769.782 152.088 770.342L153.342 766.544C152.428 766.242 151.376 765.552 150.263 764.477C149.165 763.417 148.1 762.071 147.148 760.603C145.207 757.61 143.937 754.423 143.713 752.547L139.741 753.022ZM152.088 770.342C154.916 771.276 160.188 772.119 165.21 772.693C170.244 773.268 175.375 773.611 177.969 773.456L177.73 769.463C175.517 769.596 170.69 769.293 165.664 768.719C160.625 768.143 155.733 767.334 153.342 766.544L152.088 770.342ZM115.91 665.96C117.324 665.026 122.151 662.844 128.679 662.844V658.844C121.363 658.844 115.77 661.258 113.705 662.623L115.91 665.96ZM128.679 662.844C132.828 662.844 136.454 663.427 140.139 663.988C143.789 664.544 147.513 665.08 151.591 664.852L151.367 660.858C147.753 661.061 144.404 660.591 140.741 660.034C137.111 659.481 133.183 658.844 128.679 658.844V662.844ZM151.591 664.852C155.367 664.64 161.001 664.712 166.079 664.693C168.588 664.684 170.959 664.653 172.836 664.549C173.771 664.497 174.624 664.425 175.327 664.321C175.928 664.232 176.745 664.08 177.365 663.71L175.313 660.276C175.452 660.193 175.372 660.27 174.741 660.364C174.212 660.442 173.498 660.506 172.614 660.555C170.851 660.653 168.57 660.684 166.065 660.693C161.117 660.711 155.282 660.639 151.367 660.858L151.591 664.852ZM177.365 663.71C177.145 663.841 177.173 663.715 177.846 663.79C178.407 663.853 179.136 664.023 179.968 664.278C181.621 664.786 183.405 665.548 184.534 666.093L186.273 662.49C185.021 661.886 183.043 661.039 181.143 660.455C180.198 660.164 179.203 659.917 178.292 659.815C177.494 659.726 176.301 659.685 175.313 660.276L177.365 663.71ZM106.06 729.569C107.727 731.054 108.655 732.356 109.221 734.031C109.816 735.791 110.06 738.104 110.06 741.723H114.06C114.06 738.015 113.824 735.157 113.011 732.75C112.169 730.259 110.762 728.401 108.721 726.582L106.06 729.569ZM110.06 741.723C110.06 751.965 108.884 758.599 107.175 763.322C105.48 768.003 103.22 770.929 100.793 773.746L103.824 776.356C106.388 773.38 109.003 770.025 110.936 764.683C112.855 759.381 114.06 752.248 114.06 741.723H110.06ZM120.839 735.816C119.273 739.019 117.023 744.583 115.287 751.002C113.555 757.405 112.294 764.799 112.813 771.612L116.801 771.308C116.331 765.134 117.474 758.234 119.148 752.046C120.818 745.873 122.978 740.548 124.433 737.574L120.839 735.816ZM235.895 667.573C237.794 666.779 240.923 665.58 244.091 664.583C247.337 663.562 250.354 662.844 252.154 662.844V658.844C249.669 658.844 246.116 659.753 242.891 660.768C239.588 661.806 236.344 663.05 234.351 663.883L235.895 667.573ZM252.154 662.844C256.076 662.844 259.294 664.086 260.266 664.613L262.173 661.097C260.672 660.283 256.803 658.844 252.154 658.844V662.844ZM187.831 696.369C193.031 697.986 196.356 698.491 199.064 698.524C200.409 698.541 201.56 698.44 202.638 698.327C203.733 698.213 204.7 698.094 205.83 698.037L205.631 694.042C204.361 694.106 203.235 694.243 202.223 694.349C201.194 694.456 200.225 694.538 199.113 694.525C196.91 694.498 193.983 694.093 189.019 692.55L187.831 696.369ZM205.83 698.037C207.126 697.973 208.096 698.052 208.99 698.162C209.838 698.266 210.86 698.437 211.921 698.487C214.229 698.594 216.891 698.173 221.694 696.326L220.259 692.593C215.722 694.337 213.646 694.563 212.108 694.491C211.246 694.451 210.568 694.325 209.477 694.192C208.431 694.063 207.221 693.963 205.631 694.042L205.83 698.037ZM187.483 696.224C187.876 696.434 188.486 696.982 189.258 698.087C190.004 699.155 190.794 700.584 191.609 702.333C193.236 705.828 194.873 710.409 196.413 715.486C199.491 725.632 202.115 737.537 203.481 746.2L207.432 745.577C206.039 736.742 203.375 724.657 200.241 714.325C198.675 709.163 196.975 704.382 195.235 700.645C194.366 698.778 193.464 697.123 192.537 695.796C191.635 694.506 190.588 693.347 189.367 692.695L187.483 696.224ZM207.448 745.71C207.201 742.951 207.591 738.66 208.484 733.587C209.369 728.561 210.719 722.921 212.306 717.537C213.894 712.147 215.704 707.063 217.495 703.134C218.392 701.167 219.264 699.534 220.077 698.31C220.928 697.03 221.575 696.415 221.949 696.207L220.004 692.712C218.764 693.402 217.681 694.689 216.746 696.096C215.773 697.56 214.801 699.4 213.855 701.475C211.961 705.63 210.09 710.905 208.469 716.407C206.846 721.915 205.459 727.701 204.544 732.894C203.638 738.04 203.167 742.761 203.464 746.068L207.448 745.71ZM207.709 747.889C207.675 747.666 207.635 747.292 207.586 746.836C207.541 746.422 207.487 745.929 207.432 745.577L203.481 746.2C203.518 746.434 203.56 746.816 203.609 747.266C203.653 747.675 203.704 748.157 203.753 748.486L207.709 747.889ZM203.464 746.068C203.511 746.585 203.621 747.94 203.782 748.638L207.679 747.736C207.598 747.385 207.512 746.417 207.448 745.71L203.464 746.068Z" fill="#E9A196"/>
<path fill-rule="evenodd" clip-rule="evenodd" d="M138.98 656.534C141.315 654.092 159.17 643.317 164.526 639.87C168.812 637.111 180.962 632.687 186.502 630.819L190.897 624.355L188.425 607.834L183.892 572.925C184.442 578.289 184.469 590.337 180.184 595.623C177.934 598.398 175.031 599.223 172.328 599.99C168.594 601.05 165.243 602.001 164.526 607.834C163.947 612.548 162.703 614.295 161.602 615.841C160.355 617.593 159.29 619.089 159.582 624.355C159.706 626.597 159.95 628.619 160.165 630.406C160.902 636.515 161.307 639.87 155.462 639.87C149.418 639.87 151.021 633.836 152.577 630.819C150.288 632.876 146.397 638.026 149.144 642.168C151.89 646.31 145.435 648.204 141.864 648.633C139.85 648.89 135.546 650.399 134.447 654.379C133.375 658.262 127.377 660.928 124.3 661.848C130.115 660.158 136.93 658.678 138.98 656.534ZM172.63 602.231C170.753 602.231 167.136 602.978 167.685 605.966C168.235 608.955 171.211 604.721 172.63 602.231Z" fill="#A47250"/>
<path fill-rule="evenodd" clip-rule="evenodd" d="M196.254 539.31C199.33 540.804 203.487 539.932 205.181 539.31C206.143 539.31 208.423 539.022 209.851 537.873C211.636 536.436 235.81 532.845 244.325 544.625C248.317 550.147 247.419 556.237 246.556 562.096C245.578 568.736 244.643 575.08 250.918 579.965C260.367 587.32 268.04 583.029 270.696 579.965C270.586 588.699 264.24 591.17 261.081 591.313C268.269 592.75 283.359 596.945 286.216 602.231C289.756 608.783 284.117 613.499 282.681 614.699L282.645 614.73C281.271 615.879 277.426 622.343 286.216 622.343C293.248 622.343 296.654 616.501 297.478 613.58C297.249 614.442 296.49 617.402 295.281 622.343C294.072 627.285 286.353 628.712 282.645 628.808C286.262 630.628 293.578 635.158 293.907 638.72C294.262 642.554 290.138 647.134 287.406 650.167C286.965 650.657 286.56 651.106 286.216 651.506C283.744 654.379 287.452 658.689 295.281 662.567C301.544 665.67 301.645 670.852 300.912 673.054L284.293 664.534C283.756 661.867 281.63 655.93 277.426 653.517C273.238 651.113 274.329 647.067 275.431 642.978C275.712 641.936 275.994 640.891 276.19 639.87C277.151 634.842 268.773 630.406 264.515 632.83C260.257 635.255 252.978 624.355 258.884 618.581C263.609 613.962 264.607 609.492 264.515 607.834C263.371 610.122 259.461 614.475 252.978 613.58C246.945 612.747 247.231 611.403 248.281 606.466C248.641 604.772 249.091 602.655 249.407 599.99C250.226 593.08 247.307 592.085 243.126 590.661C240.997 589.935 238.541 589.098 236.084 587.311C230.261 583.075 228.164 575.094 227.843 571.632L221.388 628.265L188.425 607.834L183.892 572.925C184.442 578.289 184.469 590.337 180.184 595.623C177.934 598.398 175.031 599.223 172.328 599.99C168.594 601.05 165.243 602.001 164.526 607.834C163.947 612.548 162.703 614.295 161.602 615.841C160.355 617.593 159.29 619.089 159.582 624.355C159.706 626.597 159.95 628.619 160.165 630.406C160.902 636.515 161.307 639.87 155.462 639.87C149.418 639.87 151.021 633.836 152.577 630.819C150.288 632.876 146.397 638.026 149.144 642.168C151.89 646.31 145.435 648.204 141.864 648.633C139.85 648.89 135.546 650.399 134.447 654.379C133.375 658.262 127.377 660.928 124.3 661.848C124.223 661.871 124.148 661.893 124.075 661.914C123.345 662.128 122.633 662.345 121.949 662.567C115.768 664.579 113.021 663.86 111.098 660.556C109.56 657.913 102.949 653.421 99.8359 651.506C108.333 654.881 119.525 652.001 127.41 649.972C129.594 649.41 131.525 648.913 133.074 648.633C140.216 647.34 144.748 638.72 142.963 634.267C142.226 632.429 138.916 634.261 135.214 636.31C129.947 639.226 123.887 642.581 123.322 636.422C122.539 627.88 125.401 624.294 127.158 622.093C127.558 621.592 127.9 621.163 128.129 620.763C128.525 620.074 130.552 619.34 132.648 618.581C137.104 616.968 141.876 615.241 131.975 613.58C120.328 611.627 118.149 603.86 118.515 600.22C118.604 603.479 121.001 604.264 124.322 605.351C126.125 605.941 128.2 606.621 130.327 607.834C134.129 610.003 137.659 607.226 141.293 604.366C143.436 602.681 145.615 600.966 147.907 600.22C154.088 598.209 152.44 596.341 147.907 591.313C146.077 589.283 144.313 588.283 142.599 587.311C140.069 585.877 137.646 584.503 135.271 579.965C131.288 572.351 140.491 565.886 147.907 563.013C152.735 561.143 159.309 562.377 164.901 563.427C167.9 563.99 170.616 564.5 172.63 564.45C177.885 564.319 175.617 560.969 173.303 557.55L173.303 557.55C173.077 557.216 172.85 556.881 172.63 556.548C170.696 553.626 172.629 551.056 176.521 545.879C177.604 544.439 178.839 542.797 180.184 540.89C185.53 533.31 190.773 536.263 194.58 538.407C195.175 538.742 195.734 539.057 196.254 539.31ZM172.63 602.231C170.753 602.231 167.136 602.978 167.685 605.966C168.235 608.955 171.211 604.721 172.63 602.231Z" fill="#EBAA7F"/>
<path d="M221.388 628.265L258.884 651.506L284.293 664.534C283.756 661.867 281.63 655.93 277.426 653.517C273.238 651.113 274.329 647.067 275.431 642.978C275.712 641.936 275.994 640.891 276.19 639.87C277.151 634.842 268.773 630.406 264.515 632.83C260.257 635.255 252.978 624.355 258.884 618.581C263.609 613.962 264.607 609.492 264.515 607.834C263.371 610.122 259.461 614.475 252.978 613.58C246.945 612.747 247.231 611.403 248.281 606.466C248.641 604.772 249.091 602.655 249.407 599.99C250.226 593.08 247.307 592.085 243.126 590.661C240.997 589.935 238.541 589.098 236.084 587.311C230.261 583.075 228.164 575.094 227.843 571.632L221.388 628.265Z" fill="#A47250"/>
<path d="M246.524 562.726C248.355 561.721 252.237 558.618 253.116 554.25C254.215 548.791 268.636 551.808 259.984 557.842C253.061 562.669 248.126 563.109 246.524 562.726C244.051 558.369 240.178 549.424 244.463 548.504C248.749 547.585 247.622 557.602 246.524 562.726Z" fill="#597C62"/>
<path d="M251.226 551.58C252.519 550.127 254.996 546.117 254.555 541.697C254.003 536.172 267.176 535.21 261.416 543.304C256.808 549.779 252.703 551.519 251.226 551.58C247.918 548.065 242.157 540.528 245.575 538.502C248.993 536.476 250.767 546.377 251.226 551.58Z" fill="#597C62"/>
<path d="M170.312 562.763C168.803 561.752 165.603 558.633 164.879 554.244C163.974 548.757 152.09 551.79 159.22 557.854C164.924 562.705 168.991 563.148 170.312 562.763C172.349 558.383 175.54 549.393 172.009 548.469C168.478 547.545 169.406 557.613 170.312 562.763Z" fill="#597C62"/>
<path d="M166.437 551.56C165.371 550.1 163.33 546.069 163.694 541.627C164.148 536.074 153.293 535.107 158.039 543.242C161.837 549.75 165.22 551.499 166.437 551.56C169.162 548.027 173.91 540.452 171.093 538.416C168.277 536.38 166.815 546.331 166.437 551.56Z" fill="#597C62"/>
<path d="M159.993 869.002C155.781 894.717 147.989 948.301 150.516 956.921C153.675 967.695 159.993 978.182 165.624 979.906C170.129 981.285 163.747 906.545 159.993 869.002Z" fill="#325263"/>
<path d="M201.06 879.202C200.053 908.843 196.527 970.482 190.484 979.906C182.93 991.686 204.494 994.702 216.58 992.835C226.249 991.341 225.92 959.075 224.546 943.129C224.134 938.389 224.821 929.855 230.864 933.648C237.811 938.008 237.44 963.629 237.336 970.847L237.336 970.849C237.327 971.479 237.32 971.969 237.32 972.292C237.32 976.314 257.51 978.469 260.256 967.695C263.003 956.921 247.758 902.618 241.44 889.545C235.122 876.472 218.366 853.2 201.06 879.202Z" fill="#325263"/>
<path fill-rule="evenodd" clip-rule="evenodd" d="M153.675 850.758C145.205 883.607 128.184 952.151 127.854 963.529C127.454 977.317 155.2 991.511 163.775 995.898L163.796 995.909L163.802 995.912C164.061 996.045 164.303 996.168 164.526 996.283C168.808 998.482 177.683 998.788 186.318 999.085C192.913 999.312 199.369 999.535 203.532 1000.59C213.146 1003.03 238.556 1004.9 248.17 1000.59C254.687 997.671 261.836 992.505 268.375 987.779C271.482 985.534 274.451 983.388 277.15 981.63C283.853 977.262 292.487 970.52 295.967 967.695C286.764 930.966 266.739 856.159 260.256 850.758C253.774 845.356 186.501 848.507 153.675 850.758ZM150.516 956.921C147.989 948.301 155.781 894.717 159.993 869.002C163.747 906.545 170.129 981.285 165.624 979.906C159.993 978.182 153.675 967.695 150.516 956.921ZM201.06 879.202C200.053 908.843 196.527 970.482 190.484 979.906C182.93 991.686 204.494 994.702 216.58 992.835C226.249 991.341 225.92 959.075 224.546 943.129C224.134 938.389 224.821 929.855 230.864 933.648C237.811 938.008 237.44 963.629 237.336 970.847L237.336 970.849C237.327 971.479 237.32 971.969 237.32 972.292C237.32 976.314 257.51 978.469 260.256 967.695C263.003 956.921 247.758 902.618 241.44 889.545C235.122 876.472 218.366 853.2 201.06 879.202ZM270.145 943.129C271.024 934.28 258.7 898.644 252.428 881.931C259.341 889.306 273.964 907.761 277.15 922.586C281.133 941.118 269.047 954.191 270.145 943.129Z" fill="#536E7C"/>
<path d="M252.428 881.931C258.7 898.644 271.024 934.28 270.145 943.129C269.047 954.191 281.133 941.118 277.15 922.586C273.964 907.761 259.341 889.306 252.428 881.931Z" fill="#325263"/>
<path d="M246.523 808.811L152.577 816.999C161.597 827.055 185.074 845.96 206.829 841.133C228.585 836.307 242.357 817.574 246.523 808.811Z" fill="#B0AB93"/>
<path d="M168.647 849.035C184.442 859.713 220.784 874.663 239.793 849.035C263.554 816.999 227.706 894.43 217.268 901.757C206.829 909.083 177.849 888.253 177.163 881.214C176.82 877.703 183.072 879.16 189.989 880.771C196.938 882.39 204.558 884.166 206.829 881.214C209.066 878.307 200.066 874.107 189.845 869.337C179.354 864.44 167.577 858.944 165.351 853.632C161.835 845.242 166.083 847.071 168.647 849.035Z" fill="#B0AB93"/>
<path fill-rule="evenodd" clip-rule="evenodd" d="M144.199 831.796C157.156 875.803 187.134 965.397 203.396 971.718C223.723 979.619 267.125 867.566 267.674 864.693C268.114 862.395 253.756 826.48 246.523 808.811C242.357 817.574 228.585 836.307 206.829 841.133C185.074 845.96 161.597 827.055 152.577 816.999L144.199 831.796ZM168.647 849.035C184.442 859.713 220.784 874.663 239.793 849.035C263.554 816.999 227.706 894.43 217.268 901.757C206.829 909.083 177.849 888.253 177.163 881.214C176.82 877.703 183.072 879.16 189.989 880.771C196.938 882.39 204.558 884.166 206.829 881.214C209.066 878.307 200.066 874.107 189.845 869.337C179.354 864.44 167.577 858.944 165.351 853.632C161.835 845.242 166.083 847.071 168.647 849.035ZM206.829 935.516C223.751 935.861 236.863 895.149 241.304 874.749C242.311 871.397 244.325 865.622 244.325 869.337C244.325 873.98 239.793 906.928 235.123 921.869C230.664 936.135 221.8 945.86 206.829 941.837C194.853 938.619 201.839 936.282 206.829 935.516Z" fill="#EFE8DF"/>
<path d="M241.304 874.749C236.863 895.149 223.751 935.861 206.829 935.516C201.839 936.282 194.853 938.619 206.829 941.837C221.8 945.86 230.664 936.135 235.123 921.869C239.793 906.928 244.325 873.98 244.325 869.337C244.325 865.622 242.311 871.397 241.304 874.749Z" fill="#B0AB93"/>
<path d="M183.48 572.638C184.213 581.592 185.568 600.248 185.129 603.237C184.579 606.972 195.704 617.602 197.627 622.774C199.166 626.911 203.2 627.352 205.856 626.969C208.539 627.232 214.251 626.708 215.628 622.513C217.349 617.269 228.094 606.166 227.389 602.466C226.826 599.506 227.426 580.839 227.797 571.875L204.495 556.404L183.48 572.638Z" fill="#F1C3A8"/>
<path d="M201.748 599.79C204.385 597.836 205.731 598.425 206.143 599V600.221C205.868 600.604 205.346 601.6 204.907 603.094C204.357 604.962 202.572 605.967 200.924 608.409C199.276 610.852 199.001 609.99 198.177 612.719C197.353 615.449 202.847 618.322 204.357 615.449C205.566 613.15 206.006 614.203 206.418 615.018V626.816V647.628C206.637 650.271 200.008 651.985 197.902 652.799C199.55 651.65 198.039 649.495 194.056 646.335C190.073 643.174 182.931 639.583 181.146 633.98C179.36 628.378 182.794 630.964 186.64 627.947C190.485 624.93 186.64 621.482 184.854 618.322C183.069 615.161 185.541 614.299 186.64 610.277C187.738 606.254 190.073 606.973 195.43 605.68C200.786 604.387 198.451 602.232 201.748 599.79Z" fill="#EBAA7F"/>
<path d="M210.529 599.725C207.808 597.892 206.532 598.408 206.143 599V600.221C206.434 600.591 206.999 601.694 207.5 603.167C208.127 605.007 209.956 605.932 211.706 608.297C213.457 610.663 213.697 609.789 214.633 612.479C215.57 615.168 210.186 618.284 208.555 615.482C207.251 613.24 206.797 614.186 206.418 615.018V626.816V647.628C206.306 650.278 214.404 651.781 216.546 652.499C214.849 651.425 216.274 649.205 220.133 645.87C223.993 642.535 230.999 638.628 232.558 632.952C234.117 627.276 230.784 630.012 226.81 627.171C222.835 624.33 226.545 620.714 228.204 617.478C229.863 614.241 227.352 613.491 226.088 609.522C224.823 605.554 222.514 606.376 217.097 605.325C211.68 604.273 213.93 602.016 210.529 599.725Z" fill="#EBAA7F"/>
<path d="M202.983 583.268C203.166 583.316 203.423 583.699 202.983 584.848C202.434 586.285 201.06 588.727 201.61 591.169C202.049 593.123 202.342 594.186 202.434 594.473C202.159 594.904 201.61 595.881 201.61 596.341C201.61 596.915 202.296 597.49 202.983 597.49C203.67 597.49 203.67 596.628 204.082 596.772C204.412 596.886 205.684 597.49 206.28 597.777C206.847 597.463 207.827 597.066 208.142 596.936C208.537 596.774 208.573 597.639 209.241 597.609C209.908 597.579 210.553 596.973 210.529 596.397C210.51 595.935 209.936 594.98 209.651 594.559C209.728 594.267 209.97 593.188 210.317 591.21C210.751 588.737 209.315 586.347 208.722 584.93C208.247 583.797 208.481 583.402 208.657 583.346C207.522 581.78 206.554 581.688 206.046 581.688C205.442 581.688 204.082 581.659 202.983 583.268Z" fill="url(#paint0_linear_746_59)"/>
<path fill-rule="evenodd" clip-rule="evenodd" d="M185.541 577.81C186.777 577.426 189.661 576.804 191.309 577.379C192.194 577.687 193.128 578.472 194.103 579.29C195.399 580.377 196.766 581.524 198.177 581.688C200.649 581.976 203.121 581.832 202.846 579.821C202.776 579.307 202.533 578.766 202.189 578.241C202.322 578.93 202.042 579.581 201.885 579.821C202.105 579.246 201.519 577.714 201.198 577.02C200.236 576.024 199.092 575.248 198.451 575.08C197.353 574.793 192.545 573.931 188.837 575.08C185.87 575.999 185.403 577.283 185.541 577.81Z" fill="#EBAA7F"/>
<path fill-rule="evenodd" clip-rule="evenodd" d="M225.785 576.966C224.537 576.63 221.636 576.122 220.017 576.783C219.149 577.138 218.25 577.982 217.313 578.861C216.067 580.031 214.753 581.264 213.353 581.495C210.901 581.899 208.431 581.862 208.621 579.794C208.669 579.265 208.89 578.702 209.21 578.15C209.106 578.86 209.413 579.513 209.579 579.751C209.336 579.174 209.856 577.581 210.146 576.857C211.064 575.797 212.171 574.952 212.803 574.752C213.886 574.41 218.641 573.314 222.385 574.323C225.38 575.131 225.9 576.422 225.785 576.966Z" fill="#EBAA7F"/>
<path fill-rule="evenodd" clip-rule="evenodd" d="M195.155 583.125C193.727 583.01 190.073 584.897 188.425 585.854C189.286 586.597 190.164 587.157 191.035 587.571C192.683 585.451 196.391 582.624 198.039 588.274C198.649 588.117 199.163 587.919 199.55 587.722C198.726 585.854 196.941 583.269 195.155 583.125Z" fill="#D9D9D9"/>
<path d="M198.039 588.274C196.27 588.728 193.691 588.833 191.035 587.571C192.683 585.451 196.391 582.624 198.039 588.274Z" fill="#4D88A8"/>
<path fill-rule="evenodd" clip-rule="evenodd" d="M216.469 582.626C217.908 582.441 221.685 584.257 223.393 585.188C222.554 586.007 221.689 586.636 220.827 587.109C219.069 584.958 215.197 582.156 213.773 588.165C213.149 588.028 212.621 587.843 212.221 587.653C212.974 585.655 214.669 582.858 216.469 582.626Z" fill="#D9D9D9"/>
<path d="M213.773 588.165C215.581 588.561 218.195 588.555 220.827 587.109C219.069 584.958 215.197 582.156 213.773 588.165Z" fill="#4D88A8"/>
<path d="M187.875 585.999C189.523 585.281 192.6 583.241 195.017 583.126C197.434 583.011 198.725 586.287 199.55 587.867M223.944 585.252C222.248 584.587 219.052 582.628 216.604 582.619C214.156 582.61 212.989 586.038 212.222 587.701" stroke="#E89F94" stroke-width="3" stroke-linecap="round"/>
<path d="M204.22 608.552H206.692L208.405 608.626C208.824 608.81 209.692 608.984 210.487 609.113C209.818 608.454 208.257 606.932 207.379 606.971L206.692 606.971H205.182C204.303 606.971 202.801 608.436 202.16 609.168C202.949 608.993 203.809 608.767 204.22 608.552Z" fill="#E9A196"/>
<path d="M200.512 609.415C201.656 609.271 203.671 608.84 204.22 608.553C204.815 608.649 205.319 608.687 205.933 608.687C206.555 608.696 207.949 608.693 208.54 608.571C209.101 608.833 211.131 609.174 212.28 609.266" stroke="#AE5143" stroke-linecap="round"/>
<ellipse cx="3.71892" cy="7.16414" rx="3.71892" ry="7.16414" transform="matrix(0.966477 -0.256752 0.235974 0.971759 184.58 592.361)" fill="#E9A196"/>
<ellipse cx="3.72743" cy="7.15371" rx="3.72743" ry="7.15371" transform="matrix(-0.947511 -0.319723 -0.29474 0.955577 227.725 592.836)" fill="#E9A196"/>
<ellipse cx="5.78352" cy="2.00643" rx="5.78352" ry="2.00643" transform="matrix(0.969494 -0.245117 0.225172 0.974319 157.918 764.027)" fill="#E9A196"/>
<path d="M155.324 791.141C212.35 790.222 242.814 688.091 250.917 637.141C265.97 632.888 269.184 643.222 268.91 648.921C271.473 650.022 277.233 653.144 279.76 656.822C282.919 661.419 294.868 699.632 290.336 736.839C285.803 774.046 248.17 810.822 236.633 820.16C225.096 829.498 159.719 829.498 149.006 814.988C146.902 812.14 145.87 809.441 145.594 806.943C144.743 799.264 151.04 793.49 155.324 791.141Z" fill="#EFE8DF"/>
<path d="M282.096 732.96C279.853 744.021 268.691 771.517 241.991 793.008C228.636 803.757 212.321 808.893 197.353 810.946C212.736 807.622 224.548 794.876 256 748.044C281.162 710.578 283.882 722.377 282.096 732.96Z" fill="#B0AB93"/>
<path d="M217.268 767.15C216.609 765.771 213.148 767.725 211.5 768.874C207.477 774.16 200.126 782.687 191.859 790.043C200.603 782.987 217.927 768.529 217.268 767.15Z" fill="#B0AB93"/>
<path d="M265.202 639.008C266.484 639.87 269.048 643.116 269.048 649.207M269.048 649.207C269.048 650.929 268.192 654.808 266.747 659.982M269.048 649.207C273.123 655.864 281.766 673.859 283.744 692.592C286.216 716.008 287.178 720.174 287.178 725.777M241.991 723.909C249.963 710.567 261.802 677.693 266.747 659.982M266.747 659.982C266.644 681.818 261.549 730.805 241.991 752.066M160.819 810.391C168.782 811.971 182.394 812.998 197.353 810.946M197.353 810.946C212.321 808.893 228.636 803.757 241.991 793.008C268.691 771.517 279.853 744.021 282.096 732.96C283.882 722.377 281.162 710.578 256 748.044C224.548 794.876 212.736 807.622 197.353 810.946ZM146.26 803.352C148.32 805.219 156.149 807.834 170.982 803.352C177.669 801.331 185.073 796.081 191.859 790.043M191.859 790.043C200.126 782.687 207.477 774.16 211.5 768.874C213.148 767.725 216.609 765.771 217.268 767.15C217.927 768.529 200.603 782.987 191.859 790.043Z" stroke="#B0AB93" stroke-width="6" stroke-linecap="round"/>
<path fill-rule="evenodd" clip-rule="evenodd" d="M139.665 785.108C143.282 784.485 151.505 784.82 155.46 791.141C146.789 794.572 136.644 803.927 145.846 824.039C148.551 829.95 134.348 828.827 125.793 825.044C124.557 824.613 122.112 823.062 122.222 820.304C122.233 820.024 122.232 819.575 122.23 818.984C122.207 812.298 122.124 787.484 139.665 785.108Z" fill="#EFE8DF"/>
<path d="M154.224 819.298C139.061 805.622 148.73 794.828 155.46 791.141C146.789 794.572 136.644 803.927 145.846 824.039C148.551 829.95 134.348 828.827 125.793 825.044C126.205 827.774 132.249 834.238 144.61 832.945C147.845 832.607 150.09 831.471 151.615 829.95C154.752 826.822 154.84 822.069 154.224 819.298Z" fill="#B0AB93"/>
<path d="M151.204 787.693C144.29 788.22 129.832 797.031 130.052 816.568M127.58 826.624C121.536 810.966 133.293 800.616 135.271 798.318M146.808 831.509C144.657 831.7 136.645 825.763 136.645 806.656" stroke="#B0AB93" stroke-width="6" stroke-linecap="round"/>
<path d="M261.356 794.445C237.595 838.979 182.107 827.63 154.5 818.867C149.647 816.138 141.617 808.121 148.319 797.893" stroke="#686349" stroke-width="8" stroke-linecap="round"/>
<path fill-rule="evenodd" clip-rule="evenodd" d="M97.6381 817.43C109.313 812.833 114.806 807.805 116.592 799.186C118.377 790.567 115.088 782.506 100.385 779.792C95.7152 778.93 89.2599 781.749 84.0407 784.82C80.3923 786.967 78.6788 789.365 77.0146 791.695C75.6717 793.575 74.361 795.41 72.0915 797.031C71.0422 797.781 69.9151 798.497 68.7252 799.186C80.0568 798.988 98.9841 803.22 84.0407 821.73C90.2243 819.878 95.304 818.35 97.6381 817.43Z" fill="#F1C3A8"/>
<path d="M38.8535 812.402L46.6823 834.526C54.5689 830.559 71.0738 825.615 83.4527 821.906L84.0407 821.73C98.9841 803.22 80.0568 798.988 68.7252 799.186C60.1451 804.157 48.3021 807.734 38.8535 812.402Z" fill="#CB7E73"/>
<path d="M48.6058 752.927L-36 681.242L19.7629 744.595L-27.6218 752.927L107.94 871.875L83.0799 879.489L178.261 964.822L104.643 889.545L139.118 875.754L6.5776 761.259L48.6058 752.927Z" fill="#FDC986"/>
<path d="M19.8427 807.365C23.2526 800.501 31.3646 786.64 36.5334 786.1C37.2687 786.023 37.9886 786.057 38.687 786.179C41.1397 784.802 46.7631 782.454 49.6346 784.075C53.224 786.1 54.4803 791.838 58.6081 791.669C62.7359 791.5 62.3767 797.576 54.7494 797.576C55.2747 798.483 55.6354 799.546 55.7366 800.783C58.1894 800.726 63.3461 801.694 64.3512 806.015C66.6843 806.127 71.2787 807.365 70.9915 811.415C70.7044 815.466 58.4287 829.305 52.3267 835.718C51.2499 836.843 48.6655 839.262 45.5068 837.912C42.3481 836.562 44.7889 834.705 42.2764 832.849C39.7638 830.993 38.5075 833.018 36.8923 832.511C35.2771 832.005 34.2003 830.631 34.7387 828.606C35.2771 826.581 32.4055 824.579 29.893 824.579C28.8465 824.579 26.1241 824.411 27.2009 820.191C28.2777 815.972 25.0769 816.31 22.8936 816.31C16.6122 816.31 18.2495 810.571 19.8427 807.365Z" fill="#F1C3A8"/>
<path d="M38.687 786.179C37.9886 786.057 37.2687 786.023 36.5334 786.1C31.3646 786.64 23.2526 800.501 19.8427 807.365C18.2495 810.571 16.6122 816.31 22.8936 816.31C25.0769 816.31 28.2777 815.972 27.2009 820.191C26.1241 824.411 28.8465 824.579 29.893 824.579C32.4055 824.579 35.2771 826.581 34.7387 828.606C34.2003 830.631 35.2771 832.005 36.8923 832.511C38.5075 833.018 39.7638 830.993 42.2764 832.849C44.7889 834.705 42.3481 836.562 45.5068 837.912C48.6655 839.262 51.2499 836.843 52.3267 835.718C58.4287 829.305 70.7044 815.466 70.9915 811.415C71.2787 807.365 66.6843 806.127 64.3512 806.015C63.3461 801.694 58.1894 800.726 55.7366 800.783C55.6354 799.546 55.2747 798.483 54.7494 797.576M38.687 786.179C42.8973 786.913 46.3264 790.848 47.6605 793.019C49.5828 793.321 53.0387 794.623 54.7494 797.576M38.687 786.179C41.1397 784.802 46.7631 782.454 49.6346 784.075C53.224 786.1 54.4803 791.838 58.6081 791.669C62.7359 791.5 62.3767 797.576 54.7494 797.576" stroke="#E9A397" stroke-width="2"/>
<path d="M55.3773 800.953C52.1468 805.397 46.4038 814.623 42.276 817.661M46.9422 793.189C43.7118 797.634 36.1022 807.197 31.5078 809.898M64.1713 806.354C60.9409 810.798 55.1978 820.024 51.07 823.062" stroke="#CB7E73" stroke-width="4" stroke-linecap="round"/>
<path fill-rule="evenodd" clip-rule="evenodd" d="M304.193 817.72C293.117 813.122 287.905 808.094 286.211 799.475C284.517 790.856 287.638 782.795 301.587 780.081C306.017 779.219 312.141 782.039 317.093 785.109C320.554 787.256 322.18 789.655 323.759 791.984C325.033 793.864 326.276 795.699 328.429 797.32C329.425 798.07 330.494 798.786 331.623 799.475C320.873 799.277 302.916 803.509 317.093 822.019C311.226 820.167 306.407 818.639 304.193 817.72Z" fill="#F1C3A8"/>
<path d="M359.963 812.692L352.536 834.815C345.053 830.848 329.395 825.904 317.651 822.196L317.093 822.019C302.916 803.509 320.873 799.277 331.623 799.475C339.763 804.446 350.999 808.024 359.963 812.692Z" fill="#CB7E73"/>
<path d="M350.711 753.216L430.979 681.531L378.075 744.884L423.03 753.216L294.42 872.164L318.005 879.778L227.705 965.111L297.548 889.834L264.841 876.043L390.584 761.548L350.711 753.216Z" fill="#FDC986"/>
<path d="M378.001 807.654C374.766 800.791 367.07 786.929 362.167 786.389C361.469 786.312 360.786 786.346 360.123 786.468C357.796 785.091 352.461 782.743 349.737 784.364C346.332 786.389 345.14 792.127 341.224 791.958C337.308 791.789 337.649 797.865 344.885 797.865C344.386 798.772 344.044 799.835 343.948 801.072C341.621 801.016 336.729 801.983 335.775 806.304C333.562 806.416 329.203 807.654 329.475 811.704C329.748 815.755 341.394 829.594 347.183 836.007C348.205 837.132 350.657 839.551 353.653 838.201C356.65 836.851 354.334 834.995 356.718 833.138C359.102 831.282 360.294 833.307 361.826 832.801C363.358 832.294 364.38 830.92 363.869 828.895C363.358 826.87 366.083 824.868 368.466 824.868C369.459 824.868 372.042 824.7 371.02 820.48C369.999 816.261 373.035 816.599 375.107 816.599C381.066 816.599 379.513 810.86 378.001 807.654Z" fill="#F1C3A8"/>
<path d="M360.123 786.468C360.786 786.346 361.469 786.312 362.167 786.389C367.07 786.929 374.766 800.791 378.001 807.654C379.513 810.86 381.066 816.599 375.107 816.599C373.035 816.599 369.999 816.261 371.02 820.48C372.042 824.7 369.459 824.868 368.466 824.868C366.083 824.868 363.358 826.87 363.869 828.895C364.38 830.92 363.358 832.294 361.826 832.801C360.294 833.307 359.102 831.282 356.718 833.138C354.334 834.995 356.65 836.851 353.653 838.201C350.657 839.551 348.205 837.132 347.183 836.007C341.394 829.594 329.748 815.755 329.475 811.704C329.203 807.654 333.562 806.416 335.775 806.304C336.729 801.983 341.621 801.016 343.948 801.072C344.044 799.835 344.386 798.772 344.885 797.865M360.123 786.468C356.129 787.203 352.876 791.137 351.61 793.308C349.786 793.61 346.508 794.912 344.885 797.865M360.123 786.468C357.796 785.091 352.461 782.743 349.737 784.364C346.332 786.389 345.14 792.127 341.224 791.958C337.308 791.789 337.649 797.865 344.885 797.865" stroke="#E9A397" stroke-width="2"/>
<path d="M344.288 801.242C347.353 805.686 352.802 814.912 356.718 817.95M352.291 793.479C355.355 797.923 362.575 807.486 366.934 810.187M335.945 806.643C339.01 811.087 344.458 820.313 348.375 823.351" stroke="#CB7E73" stroke-width="4" stroke-linecap="round"/>
</g>
<defs>
<linearGradient id="paint0_linear_746_59" x1="206.006" y1="581.688" x2="206.006" y2="597.777" gradientUnits="userSpaceOnUse">
<stop stop-color="#F1C3A8"/>
<stop offset="1" stop-color="#E89F94"/>
</linearGradient>
<clipPath id="clip0_746_59">
<rect width="830" height="901" fill="white" transform="translate(-218 -16)"/>
</clipPath>
</defs>
</svg>
