<svg width="393" height="852" viewBox="0 0 393 852" fill="none" xmlns="http://www.w3.org/2000/svg">
<g clip-path="url(#clip0_323_1988)">
<rect width="393" height="852" fill="#8A3A46"/>
<path d="M140.352 351.861C144.399 336.749 127.809 290.269 118.914 268.709L95 190.985L144.278 62.5529L248.921 -20C296.267 -16.8307 384.958 -8.62067 360.956 -1.13507C336.955 6.35054 317.717 56.2143 311.098 80.2105C306.113 92.0426 267.57 87.4547 248.921 83.6817C234.428 89.2355 227.809 85.9958 226.311 83.6817C219.065 103.603 201.382 116.129 199.064 120.808C196.745 125.486 180.512 212.114 179.352 241.091C178.193 270.067 166.308 298.138 163.989 303.42C162.134 307.646 154.907 406.901 151.525 456C151.718 425.011 151.206 360.891 147.612 352.318C144.168 344.107 141.426 348.35 140.352 351.861C140.31 352.017 140.266 352.169 140.22 352.318C140.26 352.168 140.304 352.015 140.352 351.861Z" fill="#A25252"/>
<path d="M174.128 595.757C141.708 572.637 112.824 508.519 118.393 361.768C121.046 291.859 123.15 240.388 125.397 202.032L91.1778 249.606L102.904 303.354C115.18 338.041 108.019 339.787 102.904 336.325C96.4183 349.091 83.8914 350.477 78.4386 349.573V498.62L122.013 517.439L118.393 557.034L174.128 595.757Z" fill="#D08042"/>
<path d="M111.01 138.95L127.376 172.222C129.931 138.707 132.878 118.488 137.068 105.026L111.01 138.95Z" fill="#D08042"/>
<path d="M86.9797 211.215L111.01 198.569L106.378 150.693L102.904 183.213L95.376 168.609L86.9797 211.215Z" fill="#D08042"/>
<path d="M77.1357 213.022L71.9242 230.938L98.5608 218.442L78.4386 220.729L77.1357 213.022Z" fill="#D08042"/>
<path fill-rule="evenodd" clip-rule="evenodd" d="M162.015 72.0628C150.252 81.2903 142.583 87.3057 137.068 105.026L111.01 138.95L127.376 172.222C126.694 181.17 126.04 191.065 125.397 202.032L91.1778 249.606L102.904 303.354C115.18 338.041 108.019 339.787 102.904 336.325C96.4183 349.091 83.8914 350.477 78.4386 349.573V498.62L122.013 517.439L118.393 557.034L174.128 595.757C182.272 601.566 300.899 854.706 309 856L143.068 872.105C122.801 847.21 76.7014 537.824 78.4386 531.441C80.1758 525.057 53.1049 521.956 39.3523 521.203L55.5659 383.448H39.3523L55.5659 303.354H45.8667L68.5946 145.273C70.8143 133.982 82.4051 105.768 111.01 83.2458C110.287 72.0046 114.485 46.5713 137.068 34.768C159.651 22.9646 192.802 2.28394 206.555 -6.58099C250.549 -5.43998 277.339 -4.1747 268.224 -2.87017C243.044 0.733492 238.969 20.4386 236.07 34.4513C235.336 38.0012 234.677 41.1857 233.77 43.6506C232.103 48.1824 223.082 52.045 212.056 55.0935C199.346 58.6076 183.972 61.0399 174.128 62.1685C169.663 66.0642 165.644 69.2163 162.015 72.0628ZM111.01 198.569L86.9797 211.215L95.376 168.609L102.904 183.213L106.378 150.693L111.01 198.569ZM77.1357 213.022L71.9242 230.938L98.5608 218.442L78.4386 220.729L77.1357 213.022ZM68.5946 336.325L78.4386 294.923L91.1778 324.581L68.5946 336.325Z" fill="#9E402B"/>
<path d="M78.4386 294.923L68.5946 336.325L91.1778 324.581L78.4386 294.923Z" fill="#D08042"/>
<path d="M187.735 224.464C187.388 227.716 191.644 282.527 193.815 309.526L210.631 74.9655L196.856 86.558L195.408 140.456H191.065V98.9033L186.007 110.948V185.471L195.408 183.213L191.065 202.032L186.007 220.729C187.135 222.117 187.887 223.042 187.735 224.464Z" fill="#D08042"/>
<path d="M188.604 192.396L186.007 211.215L183.248 209.409L188.604 192.396Z" fill="#D08042"/>
<path d="M184.695 83.2458V103.721L191.065 91.8273L184.695 83.2458Z" fill="#D08042"/>
<path fill-rule="evenodd" clip-rule="evenodd" d="M174.128 62.1685C175.141 102.667 177.573 187.338 179.194 202.032C180.512 213.972 183.91 218.15 186.007 220.729L191.065 202.032L195.408 183.213L186.007 185.471V110.948L191.065 98.9033V140.456H195.408L196.856 86.558L210.631 74.9655L212.056 55.0935C199.346 58.6076 183.972 61.0399 174.128 62.1685ZM186.007 211.215L188.604 192.396L183.248 209.409L186.007 211.215ZM184.695 83.2458V103.721L191.065 91.8273L184.695 83.2458ZM188.604 84.4503L186.007 76.7721L193.381 78.8798L188.604 84.4503Z" fill="#9E402B"/>
<path d="M186.007 76.7721L188.604 84.4503L193.381 78.8798L186.007 76.7721Z" fill="#D08042"/>
<path d="M23.2835 425.753L28.2055 551.615L31.3903 540.624L39.3523 571.638L4.02988 557.034L14.0186 531.441V547.098L23.2835 425.753Z" fill="#9E402B"/>
<path d="M55.5659 150.693L28.2055 324.581L4.02988 319.914L45.8667 155.36L55.5659 150.693Z" fill="#9E402B"/>
<path fill-rule="evenodd" clip-rule="evenodd" d="M143.068 872.105C122.801 847.21 76.7014 537.824 78.4386 531.441C80.1758 525.057 53.1049 521.956 39.3523 521.203L55.5659 383.448H39.3523L55.5659 303.354H45.8667L68.5946 145.273C70.8143 133.982 82.4051 105.768 111.01 83.2458C110.287 72.0046 114.485 46.5713 137.068 34.768C159.651 22.9646 192.802 2.28394 206.555 -6.58099C128.695 -8.60032 -3.0464 -10.2304 -85 -11L-79 901L143.068 872.105ZM28.2055 551.615L23.2835 425.753L14.0186 547.098V531.441L4.02988 557.034L39.3523 571.638L31.3903 540.624L28.2055 551.615ZM55.5659 150.693L28.2055 324.581L4.02988 319.914L45.8667 155.36L55.5659 150.693ZM55.5659 138.95L45.8667 145.273L50.4991 128.863L55.5659 117.873V138.95Z" fill="#4E1212"/>
<path d="M45.8667 145.273L55.5659 138.95V117.873L50.4991 128.863L45.8667 145.273Z" fill="#9E402B"/>
<rect width="525" height="1626" transform="matrix(-1 0 0 1 456 -20)" fill="#3F5967" fill-opacity="0.5"/>
<path fill-rule="evenodd" clip-rule="evenodd" d="M229.109 572.099L303.059 512.983L285.527 469.153C281.032 472.375 272.4 481.515 273.839 492.304C275.471 504.543 268.218 506.971 265.182 507.987C264.872 508.091 264.607 508.18 264.399 508.263C263.434 508.649 263.049 507.834 262.55 506.777C261.887 505.373 261.023 503.543 258.33 503.543C253.61 503.543 251.587 506.915 252.036 508.263C252.036 507.589 252.531 506.375 254.509 506.915C256.232 507.385 256.427 509.165 256.615 510.886C256.696 511.634 256.777 512.371 256.981 512.983C257.004 513.051 257.027 513.121 257.051 513.193C257.748 515.3 259.139 519.502 263.05 519.502C267.096 519.502 267.545 528.942 258.779 527.594C250.013 526.245 245.293 528.043 241.921 531.19C238.55 534.337 235.628 538.158 235.628 539.507C235.628 539.576 235.628 539.662 235.629 539.764C235.642 541.628 235.69 548.602 232.706 550.52C231.412 551.352 229.018 551.917 226.428 552.529C222.715 553.406 218.6 554.379 216.747 556.364C214.229 559.062 213.6 565.43 213.6 568.277L229.109 572.099ZM283.504 475.446C280.582 477.17 275.008 481.875 276.087 486.91C277.166 491.945 281.481 481.365 283.504 475.446ZM249.114 531.19C245.518 532.239 238.19 535.011 237.651 537.708L249.114 531.19Z" fill="#160903"/>
<path fill-rule="evenodd" clip-rule="evenodd" d="M295.192 420.377C300.767 415.702 306.056 416.781 308.004 417.905L314.748 419.253L319.468 417.905C331.516 412.69 339.922 431.316 342.619 441.281C348.032 483.577 356.848 489.442 361.555 492.574C362.126 492.954 362.637 493.293 363.074 493.653C365.506 495.656 365.717 497.269 365.909 498.737C366.036 499.705 366.154 500.609 366.895 501.52C367.012 501.664 367.131 501.81 367.25 501.956C369.801 505.086 372.739 508.689 372.739 512.983C372.739 513.99 372.643 515.08 372.542 516.233C372.178 520.386 371.742 525.365 375.436 530.291C378.706 534.651 385.967 539.442 391.391 543.021C393.796 544.608 395.84 545.957 397.014 546.924C400.071 549.441 400.536 561.309 400.386 566.929L395.666 564.753C394.241 562.706 391.032 557.668 389.597 553.892C388.458 550.896 386.502 550.526 383.845 550.023C382.315 549.734 380.554 549.401 378.583 548.497C375.583 547.122 375.781 545.583 376.083 543.226C376.325 541.344 376.633 538.942 375.436 535.685C373.356 530.028 367.132 528.819 363.156 528.046C361.976 527.817 360.994 527.626 360.376 527.369C357.679 526.245 358.129 522.199 363.074 518.153C367.03 514.916 366.52 513.358 365.771 512.983C365.771 515.081 356.106 521.525 352.734 512.983C351.181 509.048 348.912 507.212 346.521 505.278C343.722 503.013 340.755 500.613 338.573 494.552C335.337 485.561 337.225 473.274 338.573 468.254L316.321 448.249H309.128L285.527 469.153C281.032 472.375 272.4 481.515 273.839 492.304C275.471 504.543 268.218 506.971 265.182 507.987C264.872 508.091 264.607 508.18 264.399 508.263C263.434 508.649 263.049 507.834 262.55 506.777C261.887 505.373 261.023 503.543 258.33 503.543C253.61 503.543 251.587 506.915 252.036 508.263C252.036 507.589 252.531 506.375 254.509 506.915C256.232 507.385 256.427 509.165 256.615 510.886C256.696 511.634 256.777 512.371 256.981 512.983C257.004 513.051 257.027 513.121 257.051 513.193C257.748 515.3 259.139 519.502 263.05 519.502C267.096 519.502 267.545 528.942 258.779 527.594C250.013 526.245 245.293 528.043 241.921 531.19C238.55 534.337 235.628 538.158 235.628 539.507C235.628 539.576 235.628 539.662 235.629 539.764C235.642 541.628 235.69 548.602 232.706 550.52C231.412 551.352 229.018 551.917 226.428 552.529C222.715 553.406 218.6 554.379 216.747 556.364C214.229 559.062 213.6 565.43 213.6 568.277L229.109 572.099C221.542 574.271 204.609 577.088 197.416 570.975C190.224 564.861 195.618 557.938 199.215 555.241C197.716 556.364 195.843 559.556 200.339 563.332C205.958 568.053 212.027 560.186 209.554 548.722C207.981 541.429 217.327 535.227 225.376 529.886C229.978 526.832 234.156 524.059 235.628 521.525C237.103 518.985 239.175 518.028 240.909 517.227C243.93 515.832 245.921 514.913 241.921 506.915C237.797 498.667 247.764 490.033 257.592 481.519C262.763 477.039 267.895 472.593 270.917 468.254C275.006 462.382 279.047 452.841 282.902 443.739C287.31 433.33 291.475 423.495 295.192 420.377ZM283.504 475.446C280.582 477.17 275.008 481.875 276.087 486.91C277.166 491.945 281.481 481.365 283.504 475.446ZM249.114 531.19C245.518 532.239 238.19 535.011 237.651 537.708L249.114 531.19ZM368.693 531.64C369.58 534.732 371.81 541.337 373.638 543.021C375.922 545.126 374.987 534.112 368.693 531.64Z" fill="#2F1216"/>
<path fill-rule="evenodd" clip-rule="evenodd" d="M338.573 468.254L328.234 496.8L327.11 521.525L365.771 550.97L395.666 564.753C394.241 562.706 391.032 557.668 389.597 553.892C388.458 550.896 386.502 550.526 383.845 550.023C382.315 549.734 380.554 549.401 378.583 548.497C375.583 547.122 375.781 545.583 376.083 543.226C376.325 541.344 376.633 538.942 375.436 535.685C373.356 530.028 367.132 528.819 363.156 528.046C361.976 527.817 360.994 527.626 360.376 527.369C357.679 526.245 358.129 522.199 363.074 518.153C367.03 514.916 366.52 513.358 365.771 512.983C365.771 515.081 356.106 521.525 352.734 512.983C351.181 509.048 348.912 507.212 346.521 505.278C343.722 503.013 340.755 500.613 338.573 494.552C335.337 485.561 337.225 473.274 338.573 468.254ZM368.693 531.64C369.58 534.732 371.81 541.337 373.638 543.021C375.922 545.126 374.987 534.112 368.693 531.64Z" fill="#160903"/>
<path fill-rule="evenodd" clip-rule="evenodd" d="M296.766 493.877L295.867 511.859C288.225 519.201 271.996 534.381 268.22 536.359C263.5 538.831 333.404 575.694 364.647 546.024C356.256 537.633 334.842 517.118 329.807 514.781V493.877C328.084 508.038 321.94 535.145 311.151 530.29C300.362 525.435 297.066 503.992 296.766 493.877Z" fill="#F0E9E0"/>
<path d="M329.807 493.877H296.766C297.066 503.992 300.362 525.435 311.151 530.29C321.94 535.145 328.084 508.038 329.807 493.877Z" fill="#E5BCB9"/>
<path d="M290.472 489.606C289.753 487.988 287.625 477.544 286.876 472.749C286.279 468.927 289.186 466.68 294.131 466.68C303.948 466.68 308.367 455.291 309.416 450.496H313.687H317.428C318.347 455.284 322.219 466.654 330.818 466.654C335.15 466.654 338.43 468.225 337.907 472.04C337.251 476.827 335.78 486.806 335.15 488.421C334.363 490.441 327.274 495.827 325.698 500.091C324.123 504.355 324.123 509.516 322.745 510.863C321.366 512.209 315.934 512.758 313.687 512.983C310.989 512.983 304.92 512.308 303.347 510.96C301.774 509.611 301.774 504.441 299.975 500.171C298.177 495.9 291.371 491.629 290.472 489.606Z" fill="#F0E9E0"/>
<path d="M330.556 467.059C318.527 467.643 315.242 453.988 315.102 447.088H309.882C310.369 453.664 306.43 465.331 291.371 470.712C287.999 475.671 289.737 481.229 290.471 486.901C289.872 488.55 289.069 489.56 287.549 486.901C285.751 483.755 283.953 477.055 283.953 470.712C283.953 461.735 290.247 455.217 294.742 450.047C298.339 445.911 306.334 446.351 309.882 447.088H315.102L335.568 444.652L340.371 480.21C337.935 485.893 332.978 495.505 332.644 488.491C332.226 479.723 336.821 477.288 335.568 471.93C334.565 467.643 331.809 466.896 330.556 467.059Z" fill="#381B0E"/>
<path d="M299.462 429.592V435.885C298.709 436.204 297.572 436.471 296.315 436.564L305.306 451.853C308.747 452.173 312.433 452.259 316.32 452.022L301.71 430.01C300.626 429.916 299.838 429.78 299.462 429.592Z" fill="#F4DE85"/>
<path fill-rule="evenodd" clip-rule="evenodd" d="M282.604 445.326L279.232 424.422C280.132 425.86 287.099 427.569 290.471 428.243V435.211C290.812 435.479 291.191 435.702 291.594 435.885L297.889 450.751C291.398 449.415 286.166 447.319 282.604 445.326ZM302.834 451.577C303.643 451.682 304.467 451.774 305.306 451.853L296.315 436.564C295.704 436.61 295.065 436.614 294.428 436.564L302.834 451.577ZM316.32 452.022L301.71 430.01C306.841 430.456 318.614 429.963 324.861 429.592V435.885C327.379 436.964 332.054 436.11 334.077 435.211V428.243L348.237 425.321L343.293 445.326C333.669 449.568 324.543 451.519 316.32 452.022Z" fill="#E19059"/>
<path d="M291.594 435.885L297.889 450.751C299.465 451.075 301.115 451.355 302.834 451.577L294.428 436.564C293.441 436.487 292.459 436.278 291.594 435.885Z" fill="#F4DE85"/>
<path d="M306.31 472.972C307.859 472.252 307.099 469.975 306.526 468.926L295.554 466.229L293.618 467.802L295.769 467.128C298.006 467.128 303.729 471.024 306.31 472.972Z" fill="#2C224D"/>
<path d="M307.816 472.747C308.031 471.923 308.29 470.095 307.601 469.375C308.533 469.825 309.882 471.129 307.816 472.747Z" fill="#2C224D"/>
<path d="M318.804 472.972C317.185 472.252 317.98 469.975 318.579 468.926L330.042 466.229L332.065 467.802L329.818 467.128C327.48 467.128 321.501 471.024 318.804 472.972Z" fill="#2C224D"/>
<path d="M317.23 472.747C317.006 471.923 316.736 470.095 317.455 469.375C316.481 469.825 315.073 471.129 317.23 472.747Z" fill="#2C224D"/>
<path fill-rule="evenodd" clip-rule="evenodd" d="M326.215 475.922C327.114 475.472 330.71 470.977 330.036 470.977C329.585 470.977 326.344 471.668 323.962 472.335C324.412 472.456 325.132 474.453 323.334 475.352C321.895 476.072 321.138 475.117 320.94 474.55C320.553 475.504 320.043 476.716 319.696 477.729C321.569 477.276 325.495 476.281 326.215 475.922Z" fill="#243050"/>
<path d="M322.614 472.784C322.489 472.909 321.193 473.924 320.94 474.55C321.138 475.117 321.895 476.072 323.334 475.352C325.132 474.453 324.412 472.456 323.962 472.335C322.78 472.666 322.763 472.635 322.614 472.784Z" fill="#FFF4C7"/>
<path fill-rule="evenodd" clip-rule="evenodd" d="M299.238 476.365C298.327 475.902 294.683 471.27 295.366 471.27C295.823 471.27 299.33 472.097 301.743 472.784C301.288 472.909 300.377 474.744 302.199 475.67C303.656 476.411 304.423 475.428 304.625 474.843C305.016 475.826 305.491 477.183 305.843 478.227C303.945 477.761 299.967 476.735 299.238 476.365Z" fill="#243050"/>
<path d="M303.508 473.423C303.634 473.551 304.368 474.198 304.625 474.843C304.423 475.428 303.656 476.411 302.199 475.67C300.377 474.744 301.288 472.909 301.743 472.784C302.941 473.126 303.357 473.269 303.508 473.423Z" fill="#FFF4C7"/>
<path d="M322.614 481.065C322.68 480.866 319.917 480.39 319.696 477.729M319.696 477.729C321.569 477.276 325.495 476.281 326.215 475.922C327.114 475.472 330.71 470.977 330.036 470.977C329.585 470.977 326.344 471.668 323.962 472.335M319.696 477.729C320.043 476.716 320.553 475.504 320.94 474.55M320.94 474.55C321.193 473.924 322.489 472.909 322.614 472.784C322.763 472.635 322.78 472.666 323.962 472.335M320.94 474.55C321.138 475.117 321.895 476.072 323.334 475.352C325.132 474.453 324.412 472.456 323.962 472.335M301.743 481.065C301.676 480.86 306.268 479.491 305.843 478.227M305.843 478.227C303.945 477.761 299.967 476.735 299.238 476.365C298.327 475.902 294.683 471.27 295.366 471.27C295.823 471.27 299.33 472.097 301.743 472.784M305.843 478.227C305.491 477.183 305.016 475.826 304.625 474.843M304.625 474.843C304.368 474.198 303.634 473.551 303.508 473.423C303.357 473.269 302.941 473.126 301.743 472.784M304.625 474.843C304.423 475.428 303.656 476.411 302.199 475.67C300.377 474.744 301.288 472.909 301.743 472.784" stroke="#222E4E"/>
<path d="M316.32 482.638C315.601 481.559 315.421 479.042 315.421 477.918C313.348 473.6 311.248 475.849 310.355 477.693C310.17 478.967 309.658 481.719 309.352 482.638C308.902 483.987 310.026 487.808 309.577 489.156C309.079 490.651 308.453 490.28 307.779 491.404C307.554 492.078 307.779 492.977 308.003 493.427C310.355 493.652 311 494.776 311.15 495.45H313.623C313.847 495.225 313.623 495 314.072 494.101C314.541 493.163 315.945 493.277 316.545 493.427C316.844 493.277 317.399 492.753 317.219 491.854C316.994 490.73 315.87 490.28 315.87 488.932C315.87 487.583 317.219 483.987 316.32 482.638Z" fill="url(#paint0_linear_323_1988)"/>
<ellipse cx="328.599" cy="487.966" rx="3.82113" ry="6.96794" transform="rotate(17.7209 328.599 487.966)" fill="#F1D0CE"/>
<ellipse cx="3.82161" cy="6.96794" rx="3.82161" ry="6.96794" transform="matrix(-0.911419 0.411479 0.411479 0.911419 297.438 480.617)" fill="#F1D0CE"/>
<path fill-rule="evenodd" clip-rule="evenodd" d="M417.476 649.868C421.517 641.226 428.242 626.846 424.211 619.752C419.882 612.131 412.285 555.526 408.652 525.122C406.483 527.445 401.497 532.36 398.905 533.439C398.487 543.752 397.471 560.3 396.408 577.618C394.495 608.765 392.43 642.402 393.418 646.724C395.044 653.841 404.213 658.199 408.277 660.13C408.705 660.334 409.076 660.51 409.376 660.66C412.523 662.234 414.996 659.536 414.771 656.614C414.707 655.788 415.883 653.274 417.476 649.868Z" fill="#F0E9E0"/>
<path d="M408.253 521.751C404.881 518.904 398.318 515.277 399.037 523.549C399.167 525.049 399.104 528.541 398.905 533.439C401.497 532.36 406.483 527.445 408.652 525.122C408.513 523.959 408.38 522.834 408.253 521.751Z" fill="#E5BCB9"/>
<path d="M389.596 421.501C391.528 422.179 395.068 423.484 397.463 424.639L393.417 413.284C389.391 411.949 385.024 409.612 383.368 406.039L389.596 421.501Z" fill="#F4DE85"/>
<path fill-rule="evenodd" clip-rule="evenodd" d="M435 348.225C431.809 349.274 425.72 360.767 426.885 398.349C427.856 405.392 425.803 419.927 409.823 421.725V426.221L401.5 432.514L394.091 1140.77H390.495L398.587 432.29L389.596 425.996V421.501C391.528 422.179 395.068 423.484 397.463 424.639L393.417 413.284C395.325 413.917 397.157 414.325 398.587 414.533L402.067 424.639C402.911 424.266 403.889 423.883 404.88 423.512L401.5 413.973C406.616 412.826 414.358 410.254 415.857 405.542C418.146 398.349 420.018 378.569 419.186 370.477C418.354 362.385 429.174 350.023 435 348.225ZM383.368 406.039L389.596 421.501C372.333 419.702 370.116 405.167 371.165 398.124C372.423 360.542 365.845 349.049 362.398 348C368.692 349.798 380.38 362.161 379.481 370.252C378.582 378.344 380.605 398.124 383.077 405.317L383.368 406.039Z" fill="#E19059"/>
<path d="M398.587 414.533L402.067 424.639C402.911 424.266 403.889 423.883 404.88 423.512L401.5 413.973C400.368 414.226 399.365 414.41 398.587 414.533Z" fill="#F4DE85"/>
<path d="M410.275 507.365C410.95 509.163 412.523 510.287 412.523 512.534C412.523 514.782 410.95 514.557 410.275 516.58C409.601 518.603 410.725 519.053 410.95 520.401C411.175 521.75 411.175 522.874 409.826 523.323C408.477 523.773 392.069 524.897 390.496 523.773C388.922 522.649 389.596 518.603 390.496 518.154C390.027 517.404 389.442 515.993 389.508 514.557C388.97 515.007 385.326 515.681 386.674 512.534C387.744 510.039 388.258 505.864 388.339 504.04C388.34 504.025 388.341 504.009 388.341 503.993C388.353 503.779 388.394 503.554 388.473 503.319C389.147 501.296 395.856 499.113 397.913 498.598C400.61 497.924 403.629 496.749 404.881 497.25C405.433 497.47 407.129 498.598 408.477 499.048C410.275 499.722 411.543 499.922 411.849 501.296C411.699 504.667 409.758 505.984 410.275 507.365Z" fill="#F0E9E0"/>
<path d="M390.496 518.154C389.596 518.603 388.922 522.649 390.496 523.773C392.069 524.897 408.477 523.773 409.826 523.323C411.175 522.874 411.175 521.75 410.95 520.401C410.725 519.053 409.601 518.603 410.275 516.58C410.95 514.557 412.523 514.782 412.523 512.534C412.523 510.287 410.95 509.163 410.275 507.365C409.758 505.984 411.699 504.667 411.849 501.296C411.543 499.922 410.275 499.722 408.477 499.048C407.129 498.598 405.433 497.47 404.881 497.25C403.629 496.749 400.61 497.924 397.913 498.598C395.856 499.113 389.147 501.296 388.473 503.319C387.933 504.937 389.147 506.091 389.821 506.465M390.496 518.154C391.395 517.704 401.285 518.378 403.982 517.704C406.14 517.165 406.23 516.43 406.005 516.131M390.496 518.154C390.027 517.404 389.442 515.993 389.508 514.557M390.496 512.085C394.242 511.935 401.959 511.59 402.858 511.41C403.757 511.231 404.581 510.586 404.881 510.287M390.496 512.085C389.746 511.261 388.562 508.983 389.821 506.465M390.496 512.085C389.821 512.826 389.547 513.696 389.508 514.557M389.821 506.465C393.717 505.941 401.644 504.847 402.184 504.667C402.723 504.487 403.308 503.693 403.532 503.319M388.341 503.993C388.267 505.791 387.753 510.017 386.674 512.534C385.326 515.681 388.97 515.007 389.508 514.557" stroke="#E5BCB9"/>
<path d="M312.723 502.644C311.824 502.644 311.15 502.194 310.25 501.745C309.821 501.53 308.997 501.518 308.228 501.576C308.752 501.257 310.026 500.621 310.925 500.621C312.049 500.621 314.237 500.704 314.521 500.846C314.971 501.071 315.87 501.786 316.319 502.327C315.913 502.253 315.456 502.194 314.971 502.194C313.622 502.194 313.622 502.644 312.723 502.644Z" fill="#C29DAD"/>
<path d="M306.879 501.745C307.211 501.685 307.707 501.615 308.228 501.576C308.997 501.519 309.821 501.531 310.25 501.745C311.15 502.195 311.824 502.645 312.723 502.645C313.622 502.645 313.622 502.195 314.971 502.195C315.456 502.195 315.913 502.253 316.319 502.328C317.041 502.461 317.605 502.645 317.893 502.645" stroke="#9E5F71" stroke-linecap="round"/>
<path d="M193.37 938.478C215.848 914.562 221.017 712.282 220.793 614.131C209.629 709.225 184.065 906.848 154.934 926.34C167.753 931.678 177.962 934.791 193.37 938.478Z" fill="#060D1D"/>
<path d="M95.023 914.202C95.359 916.725 99.3006 919.372 101.888 919.372L106.833 909.707C98.9303 909.707 95.7637 911.25 95.1256 913.102C95.0892 913.477 95.055 913.844 95.023 914.202Z" fill="#060D1D"/>
<path d="M362.624 544.002C326.84 563.423 284.778 546.4 268.22 535.461C258.704 540.106 237.336 550.835 227.985 556.59C218.152 562.641 217.705 563.442 214.064 569.968C213.377 571.199 212.576 572.634 211.577 574.347C208.954 578.842 206.839 596.959 204.174 619.785C200.444 651.737 195.636 692.915 186.852 718.875C171.792 763.38 143.246 808.11 121.668 832.835C104.733 852.239 97.0073 893.71 95.1256 913.102C95.7637 911.25 98.9303 909.707 106.833 909.707C118.701 910.426 142.197 922.743 152.462 928.812L154.934 926.34C184.065 906.848 209.629 709.225 220.793 614.131C221.017 712.282 215.848 914.562 193.37 938.478C192.621 939.302 190.943 941.13 190.224 941.849C189.325 942.748 220.906 948.218 236.527 938.927C238.301 938.039 241.807 936.378 243.944 935.556C255.632 931.06 276.761 925.216 302.835 925.216C328.908 925.216 371.39 945.445 367.794 951.29C366.02 954.171 361.842 952.79 358.709 951.754C355.488 950.689 353.371 949.99 356.106 954.661C361.5 963.877 412.074 961.629 413.872 945.445C415.67 929.262 407.129 783.609 397.464 739.554C389.731 704.31 391.694 666.428 393.643 651.893L397.464 566.48C397.164 563.782 395.98 558.028 393.643 556.59C392.967 556.174 392.292 555.818 391.577 555.442C389.201 554.191 386.396 552.714 381.73 548.048C376.875 543.193 366.97 543.328 362.624 544.002Z" fill="url(#paint1_linear_323_1988)"/>
<ellipse cx="233.796" cy="568.92" rx="32.1424" ry="16.4084" transform="rotate(-40.9507 233.796 568.92)" fill="#E19059"/>
<ellipse cx="230.316" cy="563.474" rx="19.4003" ry="7.60675" transform="rotate(-39.0108 230.316 563.474)" fill="#EED394"/>
<path d="M216.072 588.732C209.421 589.682 207.156 585.51 207.306 582.663C208.366 587.158 211.576 586.873 214.948 586.034C247.495 577.943 256.531 556.439 256.98 546.699C258.554 550.071 257.794 555.915 256.306 559.511C248.214 579.066 225.512 587.383 216.072 588.732Z" fill="#AE442D"/>
<path d="M311.375 727.641C255.272 708.401 242.445 628.966 243.044 591.654C252.934 598.173 352.958 615.255 339.472 620.425C325.985 625.595 286.65 600.42 306.655 620.425C326.66 640.43 365.545 657.288 311.375 646.499C271.7 638.597 251.355 611.503 244.578 595.713C290.8 716.18 351.963 712.164 377.009 694.825C378.507 713.781 367.478 746.882 311.375 727.641Z" fill="black"/>
<path d="M247.765 811.931C227.985 757.986 233.604 651.069 237.425 618.402C242.28 715.144 294.967 831.411 322.164 863.404C305.606 868.724 267.545 865.876 247.765 811.931Z" fill="black"/>
<path d="M243.044 591.654C242.445 628.966 255.272 708.401 311.375 727.641C367.478 746.882 378.507 713.781 377.009 694.825C351.684 712.357 289.437 716.268 243.044 591.654ZM243.044 591.654C247.765 606.339 268.039 637.867 311.375 646.499C365.545 657.288 326.66 640.43 306.655 620.425C286.65 600.42 325.985 625.595 339.472 620.425C352.958 615.255 252.934 598.173 243.044 591.654ZM237.425 618.402C233.604 651.069 227.985 757.986 247.765 811.931C267.545 865.876 305.606 868.724 322.164 863.404C294.967 831.411 242.28 715.144 237.425 618.402Z" stroke="black"/>
<path d="M391.17 421.725L400.386 426.894L408.702 421.725" stroke="#7B4E2C" stroke-width="4" stroke-linecap="round"/>
<path d="M280.133 425.096C282.231 426.07 286.921 428.243 289.798 428.243M323.064 429.816C319.918 430.49 313.849 430.94 299.913 429.816V436.11M347.115 425.77C343.519 426.669 342.395 426.894 334.977 428.243V434.986" stroke="#FFF8ED" stroke-width="4" stroke-linecap="round"/>
</g>
<defs>
<linearGradient id="paint0_linear_323_1988" x1="312.948" y1="494.551" x2="312.499" y2="472.523" gradientUnits="userSpaceOnUse">
<stop stop-color="#F0CCCC"/>
<stop offset="1" stop-color="#F3E9DD"/>
</linearGradient>
<linearGradient id="paint1_linear_323_1988" x1="254.557" y1="535.461" x2="254.557" y2="960.067" gradientUnits="userSpaceOnUse">
<stop stop-color="#060D1D"/>
<stop offset="1" stop-color="#59707C"/>
</linearGradient>
<clipPath id="clip0_323_1988">
<rect width="393" height="852" fill="white"/>
</clipPath>
</defs>
</svg>
