<svg width="634" height="657" viewBox="0 0 634 657" fill="none" xmlns="http://www.w3.org/2000/svg">
<g filter="url(#filter0_d_2180_8)">
<path d="M322.058 548.314C437.357 548.314 530.825 449.723 530.825 328.105C530.825 206.487 437.357 107.896 322.058 107.896C206.759 107.896 113.291 206.487 113.291 328.105C113.291 449.723 206.759 548.314 322.058 548.314Z" fill="url(#paint0_radial_2180_8)"/>
</g>
<path d="M294.897 410.658C208.915 371.837 198.79 481.687 140.13 497.792C178.862 540.681 233.022 567.635 293.289 569.16C269.343 523.22 274.969 463.209 294.897 410.658Z" fill="#1C172A"/>
<path d="M441.948 354.205C400.162 339.456 330.734 339.457 316.752 412.859C296.824 465.411 291.36 525.252 315.145 571.362C316.913 571.362 318.52 571.701 320.288 571.701C404.663 571.701 483.611 531.612 520.254 457.701C488.915 424.475 479.556 354.205 441.788 354.205H441.948Z" fill="#1C172A"/>
<path d="M338.451 204.69C324.469 175.363 268.862 189.941 268.862 160.614C281.879 105.35 331.862 102.129 372.522 89.7542C349.862 81.4476 325.593 76.701 300.361 76.701C240.415 76.701 186.094 102.129 146.398 143.323C152.826 151.121 157.969 159.428 162.308 168.073C202.487 210.623 273.362 214.353 338.29 204.52L338.451 204.69Z" fill="#1C172A"/>
<path d="M233.664 382.691C233.986 376.588 235.111 370.825 236.879 365.061C218.718 346.413 205.378 323.867 197.021 306.237C169.057 266.908 166.003 220.967 146.075 181.808C139.646 174.857 133.861 167.059 129.039 158.075C89.3429 199.947 64.7537 257.754 64.7537 321.663C64.7537 385.573 88.0569 439.82 125.664 481.353C171.146 468.808 187.539 400.152 232.7 388.116C232.861 386.251 233.182 384.386 233.503 382.691H233.664Z" fill="#1C172A"/>
<path d="M429.092 274.025C432.307 271.312 435.843 268.939 439.7 266.905C446.289 233.17 481.485 211.98 511.378 187.06C486.949 147.731 451.432 116.539 409.164 98.7392C396.468 101.96 383.129 104.333 370.111 107.554C340.7 114.844 313.379 126.88 302.772 164.683C356.289 190.111 400.486 224.524 429.253 274.025H429.092Z" fill="#1C172A"/>
<path d="M518.289 198.754C476.986 236.388 424.272 266.732 461.88 332.846V347.594C499.647 347.594 503.343 407.605 534.682 440.831C550.593 408.792 559.754 372.344 559.754 333.693C559.754 283.345 544.325 236.897 518.45 198.924L518.289 198.754Z" fill="#1C172A"/>
<path d="M422.985 300.302C405.628 267.245 381.842 241.478 353.557 220.796C345.039 223 336.36 223.848 327.682 223C268.057 231.815 206.022 227.747 168.254 190.452C189.468 228.933 194.129 274.704 223.379 312.847C238.325 341.665 267.575 384.554 309.843 397.608C321.254 323.696 390.682 321.153 432.949 334.206L432.468 319.628C428.289 312.847 425.396 306.574 422.985 300.472V300.302Z" fill="#1C172A"/>
<g style="mix-blend-mode:multiply">
<path d="M313.321 80.7062C447.863 81.6123 556.653 192.073 556.653 328.201C556.652 459.859 454.891 567.505 326.49 575.253C431.418 367.101 432.661 311.105 313.321 80.7062Z" fill="#C6AAE0"/>
</g>
<path opacity="0.85" fill-rule="evenodd" clip-rule="evenodd" d="M315.175 199.652C320.212 198.163 334.245 197.162 344.579 201.363C344.797 201.452 345.017 201.545 345.238 201.641C352.738 203.692 358.488 207.071 369.721 214.503C382.029 222.647 387.831 240.251 392.037 253.65C396.242 267.049 394.611 303.458 393.911 310.064C393.211 316.67 390.498 329.084 389.181 334.925C388.817 335.96 388.287 337.168 387.606 338.401C387.643 338.489 387.68 338.576 387.716 338.664C390.514 345.522 389.303 356.921 387.784 364.637C387.816 364.891 387.848 365.127 387.874 365.342C387.889 365.464 387.853 365.58 387.783 365.67C387.786 365.677 387.789 365.684 387.791 365.692C392.472 379.011 385.967 397.004 372.171 410.073L372.197 410.102L371.523 410.704L371.51 410.69C371.479 410.718 371.449 410.748 371.418 410.776C359.145 422.028 338.421 430.783 326.018 427.753C317.748 430.14 306.885 431.871 298.333 429.189C294.587 428.014 291.561 426.564 289.082 424.981C284.213 427.035 276.742 431.166 266.206 428.561L264.832 428.619C260.209 427.988 250.535 426.526 246.693 424.728C242.851 422.929 235.855 419.813 230.077 413.606C224.298 407.399 214.107 396.917 211.993 386.454C210.27 378.745 210.718 366.493 211.613 363.27C212.389 360.472 215.29 354.285 217.189 351.213C218.265 344.728 220.616 338.257 224.82 332.509C226.268 330.53 227.814 328.78 229.42 327.237C232.401 312.659 240.644 279.146 246.983 268.118C251.223 257.586 263.859 233.6 279.589 219.368C295.319 205.135 311.27 200.344 315.175 199.652ZM348.56 231.807C342.387 227.846 334.723 229.962 329.172 230.931C323.455 232.218 311.583 236.31 305.909 240.95C300.599 245.292 297.589 247.093 290.982 255.996C288.033 259.97 284.377 265.911 282.026 270.562C274.799 284.854 266.437 305.481 265.258 313.477C266.005 313.473 266.435 313.684 267.035 313.739C278.585 315.442 285.809 318.777 292.31 323.774C302.137 313.802 322.155 300.315 342.126 301.605C349.787 302.1 351.032 301.605 356.424 304.68C358.501 292.102 358.789 288.503 359.015 276.864C359.292 262.604 358.903 241.989 352.165 235.062C351.777 234.663 350.674 233.294 350.206 232.958C350.049 232.844 348.726 231.914 348.56 231.807Z" fill="white"/>
<path d="M216.694 364.045C217.589 360.822 221.3 353.103 223.055 350.826L270.423 419.585L263.994 419.854C259.37 419.223 249.697 417.761 245.855 415.963C242.013 414.164 235.017 411.048 229.239 404.841C223.46 398.634 218.35 388.927 216.627 381.218C214.903 373.509 215.799 367.268 216.694 364.045Z" fill="#313037"/>
<path d="M229.902 333.284C240.267 319.112 255.667 316.748 262.071 317.337C275.777 317.654 289.287 328.45 294.329 333.808L293.469 415.985C290.505 418.895 280.647 423.709 264.931 419.688C245.286 414.662 232.658 397.13 227.192 386.739C221.726 376.349 216.743 351.273 229.902 333.284Z" fill="url(#paint1_radial_2180_8)"/>
<path d="M254.74 361.896C254.642 376.03 265.348 383.846 270.317 386.253C277.787 377.212 291.063 355.751 284.415 342.235C278.928 331.081 270.764 329.573 263.598 332.776C256.432 335.979 254.839 347.762 254.74 361.896Z" fill="#2C2B30"/>
<g style="mix-blend-mode:multiply" opacity="0.07">
<path d="M235.641 375.046C229.067 360.202 236.809 342.357 241.503 335.29C234.899 380.078 269.745 403.757 287.993 409.997C276.382 409.502 265.405 406.362 262.564 403.966C254.822 412.104 256.482 412.197 254.475 413.422C248.435 412.288 240.334 402.716 237.708 398.171C239.311 396.581 242.215 389.89 235.641 375.046Z" fill="url(#paint2_linear_2180_8)"/>
</g>
<path d="M341.148 307.242C364.657 308.761 377.196 326.554 380.527 335.26L282.934 411.085C278.082 406.16 267.965 398.076 268.066 375.727C268.135 360.403 280.463 344.733 287.741 336.183C295.019 327.634 317.639 305.723 341.148 307.242Z" fill="#28272C"/>
<path d="M382.094 337.013C385.58 345.559 382.844 361.16 381.04 367.892L334.794 418.428C327.677 421.638 310.333 427.083 297.886 423.178C282.327 418.298 279.177 408.705 276.175 404.307C273.172 399.909 272.729 389.499 275.821 378.849C278.913 368.199 291.059 352.545 298.025 344.85C305.62 336.335 325.358 318.788 343.553 316.725C366.297 314.145 377.736 326.329 382.094 337.013Z" fill="url(#paint3_linear_2180_8)"/>
<path d="M365.795 409.124C348.349 425.118 324.285 427.261 312.046 413.911C299.807 400.561 304.028 376.772 321.474 360.779C338.92 344.785 365.087 342.584 377.326 355.935C389.565 369.285 383.242 393.13 365.795 409.124Z" fill="#393843"/>
<path d="M321.916 366.477L321.488 366.213L321.916 366.477ZM308.697 371.526L308.806 371.035L308.697 371.526ZM365.562 408.75L365.897 409.125L366.646 408.454L366.311 408.08L365.936 408.415L365.562 408.75ZM366.924 401.715L366.522 401.413L366.924 401.715ZM381.304 363.805C381.337 364.081 381.588 364.278 381.863 364.244C382.139 364.211 382.336 363.961 382.302 363.685L381.803 363.745L381.304 363.805ZM321.916 366.477L321.488 366.213C320.797 367.333 319.189 368.896 316.953 370.001C314.728 371.1 311.914 371.727 308.806 371.035L308.697 371.526L308.588 372.016C311.96 372.767 315.008 372.083 317.398 370.903C319.776 369.728 321.538 368.046 322.344 366.741L321.916 366.477ZM308.697 371.526L308.806 371.035C306.859 370.601 305.576 369.832 304.761 368.893C303.947 367.956 303.56 366.805 303.484 365.537C303.329 362.975 304.448 360.018 305.729 357.729L305.291 357.484L304.852 357.238C303.537 359.587 302.308 362.749 302.48 365.598C302.567 367.036 303.012 368.413 304.002 369.553C304.991 370.691 306.484 371.548 308.588 372.016L308.697 371.526ZM305.291 357.484L305.729 357.729C308.283 353.168 314.976 345.635 322.34 341.065L322.075 340.637L321.81 340.21C314.305 344.867 307.491 352.524 304.852 357.238L305.291 357.484ZM322.075 340.637L322.34 341.065C329.714 336.489 336.63 334.102 344.571 333.342L344.523 332.842L344.475 332.341C336.369 333.117 329.305 335.559 321.81 340.21L322.075 340.637ZM344.523 332.842L344.571 333.342C348.506 332.966 354.587 333.557 360.459 335.399C366.339 337.245 371.912 340.314 374.938 344.819L375.355 344.538L375.773 344.258C372.561 339.476 366.73 336.313 360.76 334.44C354.781 332.564 348.565 331.95 344.475 332.341L344.523 332.842ZM365.936 408.415L366.311 408.08C365.948 407.674 365.53 407.123 365.502 406.241C365.473 405.342 365.846 403.997 367.327 402.016L366.924 401.715L366.522 401.413C364.971 403.488 364.458 405.055 364.497 406.273C364.537 407.508 365.141 408.28 365.562 408.75L365.936 408.415ZM366.924 401.715L367.327 402.016C369.238 399.46 371.764 395.55 373.859 391.712C374.906 389.792 375.85 387.883 376.557 386.164C377.259 384.455 377.742 382.895 377.839 381.687L377.338 381.647L376.837 381.607C376.753 382.654 376.319 384.097 375.627 385.782C374.939 387.456 374.013 389.331 372.976 391.23C370.902 395.031 368.401 398.899 366.522 401.413L366.924 401.715ZM377.338 381.647L377.839 381.687C378.199 377.194 378.707 370.648 376.737 365.043L376.263 365.21L375.788 365.377C377.676 370.748 377.199 377.078 376.837 381.607L377.338 381.647ZM376.263 365.21L376.737 365.043C375.732 362.186 373.585 359.632 371.352 357.625C369.114 355.613 366.745 354.11 365.234 353.364L365.012 353.815L364.789 354.266C366.216 354.97 368.509 356.421 370.679 358.372C372.855 360.328 374.863 362.747 375.788 365.377L376.263 365.21ZM365.012 353.815L365.234 353.364C362.218 351.875 355.791 350.019 348.572 350.9L348.633 351.4L348.694 351.899C355.697 351.044 361.927 352.853 364.789 354.266L365.012 353.815ZM348.633 351.4L348.572 350.9C344.923 351.346 339.154 353.569 333.834 356.45C331.165 357.894 328.59 359.514 326.432 361.176C324.281 362.833 322.512 364.555 321.488 366.213L321.916 366.477L322.344 366.741C323.274 365.235 324.932 363.601 327.046 361.973C329.152 360.351 331.679 358.759 334.312 357.334C339.595 354.474 345.232 352.321 348.694 351.899L348.633 351.4ZM375.355 344.538L374.938 344.819C379.855 352.141 380.894 360.403 381.304 363.805L381.803 363.745L382.302 363.685C381.891 360.272 380.835 351.795 375.773 344.258L375.355 344.538Z" fill="#232328"/>
<g style="mix-blend-mode:multiply" opacity="0.37">
<path d="M358.338 318.601C351.32 319.148 350.943 328.514 351.631 333.129C351.803 338.327 359.522 348.745 367.108 346.821C373.177 345.282 370.343 337.258 368.168 333.438C368.476 331.353 367.11 317.916 358.338 318.601Z" fill="#575757"/>
</g>
<path d="M357.089 331.196L359.365 321.947L361.003 322.188L359.335 333.504C356.599 332.249 356.698 331.442 357.089 331.196Z" fill="#1D1C22"/>
<path d="M359.09 321.754C356.443 334.752 362.058 340.143 365.196 341.215L368.863 316.349L374.9 275.403L371.245 226.942C365.977 221.398 352.857 209.26 342.523 205.059C332.189 200.858 319.531 202.784 314.494 204.273C310.589 204.965 298.846 209.907 283.116 224.14C267.386 238.372 254.973 262.993 250.732 273.524C244.348 284.632 237.382 313.849 234.436 328.323C244.064 320.031 249.058 318.676 260.07 317.498C259.061 309.895 272.203 279.58 279.504 265.14C286.806 250.699 298.192 241.576 305.285 235.776C310.959 231.136 323.812 227.402 329.53 226.115C335.672 225.043 349.303 224.284 354.693 229.826C361.431 236.752 364.057 263.307 363.78 277.566C363.503 291.826 362.398 305.507 359.09 321.754Z" fill="#2C2B30"/>
<path d="M368.367 260.899C367.291 216.47 345.542 205.91 333.782 203.466C347.183 205.442 352.28 208.019 367.665 218.199C379.974 226.342 382.209 238.599 386.414 251.998C390.62 265.398 388.989 301.806 388.289 308.412C387.589 315.018 384.876 327.433 383.558 333.273C381.812 338.239 376.297 347.233 368.208 343.485C358.098 338.799 361.722 332.792 363.666 321.668C365.611 310.545 369.354 301.665 368.367 260.899Z" fill="url(#paint4_linear_2180_8)"/>
<path d="M382.604 365.537C382.604 365.537 381.559 361.275 379.865 359.352L380.331 364.441C381.216 364.977 382.604 365.537 382.604 365.537Z" fill="#393843"/>
<rect x="357.876" y="357.005" width="4.14583" height="12.5241" rx="2.07291" transform="rotate(29.743 357.876 357.005)" stroke="#28272C" stroke-width="0.670369"/>
<path d="M303.698 212.461C317.027 206.888 330.928 205.162 344.027 213.217C347.859 215.573 350.953 218.592 353.381 221.671C353.656 221.008 353.964 220.393 354.287 219.861C354.809 219 355.415 218.279 356.033 217.987C356.236 217.891 356.472 217.856 356.706 217.851C356.945 217.846 357.215 217.871 357.505 217.918C358.085 218.011 358.791 218.199 359.583 218.455C361.169 218.967 363.151 219.768 365.251 220.693C368.831 222.272 372.786 224.228 375.773 225.775C376.169 226.3 376.548 226.832 376.91 227.374C376.878 227.365 376.846 227.354 376.815 227.338C373.764 225.724 369.064 223.362 364.887 221.52C362.797 220.599 360.848 219.812 359.305 219.314C358.533 219.065 357.876 218.892 357.361 218.809C357.104 218.768 356.893 218.751 356.727 218.754C356.556 218.758 356.462 218.784 356.419 218.804C356.056 218.976 355.567 219.493 355.059 220.329C354.685 220.945 354.326 221.693 354.022 222.505C355.79 224.869 357.17 227.237 358.194 229.337C358.195 229.335 358.197 229.331 358.199 229.328C358.593 228.607 359.036 227.907 359.512 227.324C359.985 226.745 360.515 226.25 361.093 225.977C361.296 225.881 361.532 225.847 361.765 225.842C362.004 225.836 362.274 225.861 362.564 225.908C363.144 226.001 363.85 226.189 364.642 226.444C366.228 226.956 368.21 227.758 370.31 228.684C373.651 230.157 377.318 231.959 380.221 233.45C380.414 233.882 380.602 234.318 380.785 234.757C377.772 233.19 373.653 231.144 369.946 229.51C367.856 228.588 365.907 227.802 364.365 227.304C363.593 227.055 362.936 226.883 362.421 226.8C362.163 226.759 361.951 226.741 361.785 226.745C361.614 226.749 361.521 226.774 361.479 226.794C361.075 226.985 360.646 227.363 360.212 227.895C359.782 228.421 359.369 229.069 358.991 229.761C358.883 229.959 358.778 230.161 358.676 230.363C359.338 231.827 359.813 233.125 360.113 234.149C360.159 234.309 360.068 234.475 359.909 234.522C359.749 234.569 359.582 234.477 359.535 234.318C359.274 233.425 358.876 232.32 358.333 231.075C357.889 232.04 357.538 232.968 357.32 233.637C357.306 233.679 357.284 233.716 357.26 233.751C357.078 233.372 356.892 233.008 356.702 232.661C356.986 231.885 357.378 230.94 357.847 230.003C356.866 227.933 355.522 225.568 353.782 223.194C353.77 223.23 353.759 223.266 353.748 223.302C353.398 224.42 353.172 225.595 353.149 226.672C353.132 227.45 353.225 228.155 353.436 228.747C353.088 228.496 352.72 228.26 352.334 228.041C352.264 227.593 352.235 227.126 352.245 226.652C352.271 225.47 352.517 224.209 352.886 223.032C352.961 222.792 353.042 222.556 353.127 222.323C350.706 219.197 347.592 216.115 343.711 213.729C330.844 205.817 317.167 207.482 303.93 213.017C292.168 217.934 282.179 228.119 273.71 239.179C272.953 240.167 272.199 241.197 271.448 242.263C273.735 246.026 278.869 250.593 288.53 251.107C288.646 251.113 288.748 251.164 288.824 251.24C288.614 251.488 288.403 251.737 288.194 251.989C278.684 251.4 273.392 246.963 270.886 243.068C269.04 245.736 267.218 248.616 265.442 251.627C268.191 254.631 273.635 258.446 282.523 259.801C282.35 260.076 282.179 260.354 282.009 260.634C273.356 259.233 267.879 255.53 264.965 252.44C259.765 261.366 254.988 271.362 251.235 280.367C245.451 294.245 240.698 314.405 237.417 326.668C237.374 326.829 237.209 326.923 237.048 326.881C236.888 326.838 236.792 326.673 236.835 326.512C240.107 314.285 244.875 294.062 250.679 280.136C254.46 271.064 259.284 260.974 264.54 251.973C263.814 251.147 263.278 250.377 262.917 249.725C263.093 249.436 263.272 249.147 263.451 248.857C263.49 248.894 263.525 248.938 263.55 248.989C263.838 249.58 264.325 250.325 265.024 251.15C266.823 248.108 268.671 245.198 270.542 242.506C270.003 241.585 269.622 240.707 269.377 239.934C269.6 239.623 269.824 239.314 270.05 239.005C270.061 239.031 270.071 239.059 270.078 239.088C270.251 239.821 270.587 240.718 271.116 241.689C271.819 240.697 272.524 239.737 273.232 238.812C281.72 227.728 291.788 217.441 303.698 212.461ZM283.802 255.58C284.444 254.762 285.208 254.751 285.574 254.929C285.691 254.986 285.706 255.086 285.652 255.227C285.281 255.727 284.915 256.236 284.551 256.753C284.092 257.37 283.953 257.469 283.552 257.275C283.124 257.068 283.16 256.398 283.802 255.58ZM269.056 249.413C269.592 248.673 270.827 248.651 271.814 249.365C272.801 250.079 273.167 251.258 272.632 251.999C272.096 252.74 270.861 252.762 269.873 252.048C268.886 251.334 268.52 250.154 269.056 249.413Z" fill="#232328"/>
<path d="M277.413 386.834C279.147 375.071 285.766 361.138 293.508 362.28C287.163 405.311 314.951 419.238 309.616 420.184C303.992 421.18 297.02 418.935 288.867 414.386C280.715 409.837 275.42 400.348 277.413 386.834Z" fill="url(#paint5_linear_2180_8)"/>
<g style="mix-blend-mode:multiply" opacity="0.15">
<path d="M267.566 266.87C265.93 274.661 271.593 275.324 274.728 274.011C268.098 283.366 259.21 308.685 259.017 312.467C258.857 315.594 257.374 313.289 251.423 311.347C245.472 309.404 255.673 274.507 261.966 262.545C264.714 257.322 279.262 232.995 290.57 225.383C301.878 217.77 312.393 214.604 323.57 214.122C332.511 213.737 346.351 217.482 351.88 223.317C357.409 229.153 353.791 228.102 348.341 224.621C341.528 220.27 327.839 216.121 308.725 220.909C289.611 225.698 269.61 257.131 267.566 266.87Z" fill="url(#paint6_radial_2180_8)"/>
</g>
<path d="M376.366 330.937C376.292 331.171 376.187 331.4 376.05 331.624C375.919 331.845 375.781 332.022 375.636 332.154L374.76 331.835L374.819 331.65L375.322 331.591C375.465 331.57 375.587 331.541 375.688 331.503C375.789 331.464 375.878 331.399 375.954 331.306C376.007 331.243 376.05 331.181 376.083 331.121C376.113 331.056 376.141 330.983 376.166 330.902C376.248 330.642 376.247 330.416 376.162 330.226C376.074 330.029 375.92 329.896 375.698 329.826C375.498 329.762 375.323 329.766 375.175 329.836C375.027 329.901 374.864 330.033 374.685 330.229L374.487 330.455C374.216 330.763 373.943 330.988 373.668 331.131C373.394 331.269 373.085 331.284 372.74 331.174C372.484 331.094 372.287 330.961 372.149 330.776C372.007 330.586 371.924 330.361 371.899 330.1C371.874 329.838 371.91 329.555 372.007 329.248C372.078 329.022 372.175 328.82 372.297 328.643C372.42 328.462 372.556 328.313 372.705 328.196L373.484 328.492L373.425 328.677L372.871 328.762C372.709 328.786 372.588 328.82 372.508 328.865C372.425 328.904 372.361 328.966 372.315 329.05C372.291 329.099 372.27 329.141 372.254 329.178C372.239 329.211 372.222 329.257 372.203 329.317C372.137 329.526 372.141 329.726 372.216 329.919C372.288 330.106 372.431 330.233 372.644 330.3C372.849 330.365 373.033 330.36 373.197 330.285C373.361 330.211 373.527 330.08 373.694 329.894L373.906 329.645C374.216 329.288 374.501 329.053 374.762 328.939C375.019 328.823 375.305 328.815 375.621 328.915C375.996 329.034 376.255 329.273 376.399 329.633C376.54 329.987 376.529 330.421 376.366 330.937ZM377.707 326.173C377.644 326.438 377.535 326.681 377.381 326.901C377.226 327.122 377.032 327.307 376.799 327.458C376.561 327.603 376.288 327.698 375.978 327.743C375.669 327.788 375.325 327.766 374.947 327.675C374.578 327.586 374.265 327.451 374.01 327.27C373.755 327.089 373.554 326.88 373.409 326.643C373.265 326.402 373.174 326.148 373.137 325.881C373.097 325.61 373.108 325.343 373.171 325.083C373.233 324.822 373.342 324.582 373.496 324.361C373.651 324.136 373.847 323.951 374.084 323.806C374.317 323.66 374.588 323.564 374.898 323.519C375.208 323.474 375.551 323.497 375.929 323.588C376.299 323.677 376.611 323.811 376.866 323.992C377.122 324.173 377.322 324.382 377.467 324.619C377.612 324.857 377.706 325.109 377.747 325.376C377.784 325.643 377.771 325.908 377.707 326.173ZM377.512 326.126C377.571 325.879 377.556 325.664 377.467 325.481C377.373 325.298 377.182 325.135 376.895 324.992C376.607 324.849 376.205 324.716 375.688 324.592C375.171 324.467 374.754 324.404 374.438 324.401C374.117 324.398 373.875 324.457 373.712 324.579C373.546 324.699 373.432 324.884 373.373 325.131C373.314 325.375 373.331 325.59 373.424 325.778C373.514 325.96 373.702 326.123 373.99 326.266C374.273 326.407 374.673 326.54 375.19 326.664C375.707 326.789 376.126 326.853 376.447 326.856C376.768 326.86 377.012 326.801 377.179 326.68C377.342 326.554 377.453 326.37 377.512 326.126ZM378.315 323.085L378.176 323.062L378.155 322.862C378.147 322.774 378.115 322.71 378.059 322.669C378.003 322.623 377.931 322.593 377.843 322.578L374.642 322.045C374.552 322.07 374.484 322.095 374.439 322.12C374.391 322.139 374.349 322.161 374.313 322.187C374.277 322.212 374.234 322.248 374.186 322.295L374.08 322.399L373.941 322.376L374.13 321.246L377.498 319.551L375.045 319.142C374.957 319.127 374.877 319.13 374.806 319.149C374.735 319.165 374.681 319.215 374.645 319.299L374.565 319.49L374.426 319.467L374.591 318.482L374.73 318.505L374.748 318.678C374.761 318.766 374.798 318.827 374.861 318.86C374.92 318.888 374.993 318.909 375.081 318.924L378.93 319.565L378.868 319.936L374.983 321.877L377.872 322.359C377.965 322.375 378.044 322.374 378.11 322.358C378.176 322.342 378.228 322.294 378.264 322.214L378.346 322.044L378.485 322.067L378.315 323.085ZM379.243 317.072L379.103 317.058L379.075 316.86C379.062 316.769 379.03 316.703 378.981 316.662C378.931 316.621 378.862 316.594 378.773 316.58L377.566 316.461L375.264 317.317C375.171 317.352 375.1 317.388 375.052 317.424C375.003 317.459 374.962 317.513 374.928 317.586L374.869 317.702L374.729 317.688L374.904 315.92L375.045 315.934L375.073 316.058C375.094 316.159 375.14 316.218 375.21 316.233C375.276 316.249 375.365 316.238 375.476 316.199L377.233 315.606L375.587 314.614C375.51 314.566 375.434 314.54 375.358 314.537C375.282 314.534 375.229 314.576 375.198 314.663L375.162 314.753L375.022 314.739L375.108 313.866L375.249 313.879L375.275 314.017C375.293 314.108 375.327 314.177 375.376 314.222C375.426 314.263 375.493 314.308 375.578 314.357L377.414 315.475L378.868 315.62C379.051 315.638 379.168 315.569 379.219 315.412L379.286 315.217L379.426 315.231L379.243 317.072Z" fill="#575662"/>
<defs>
<filter id="filter0_d_2180_8" x="-2.86102e-06" y="0" width="633.327" height="656.21" filterUnits="userSpaceOnUse" color-interpolation-filters="sRGB">
<feFlood flood-opacity="0" result="BackgroundImageFix"/>
<feColorMatrix in="SourceAlpha" type="matrix" values="0 0 0 0 0 0 0 0 0 0 0 0 0 0 0 0 0 0 127 0" result="hardAlpha"/>
<feOffset dx="-5.39481"/>
<feGaussianBlur stdDeviation="53.9481"/>
<feColorMatrix type="matrix" values="0 0 0 0 1 0 0 0 0 0.498039 0 0 0 0 0 0 0 0 1 0"/>
<feBlend mode="normal" in2="BackgroundImageFix" result="effect1_dropShadow_2180_8"/>
<feBlend mode="normal" in="SourceGraphic" in2="effect1_dropShadow_2180_8" result="shape"/>
</filter>
<radialGradient id="paint0_radial_2180_8" cx="0" cy="0" r="1" gradientUnits="userSpaceOnUse" gradientTransform="translate(322.058 328.105) scale(208.767 220.209)">
<stop offset="0.8" stop-color="#EA6E17"/>
</radialGradient>
<radialGradient id="paint1_radial_2180_8" cx="0" cy="0" r="1" gradientUnits="userSpaceOnUse" gradientTransform="translate(277.645 363.592) rotate(-93.2738) scale(52.8654 42.5399)">
<stop offset="0.620002" stop-color="#393843"/>
<stop offset="1" stop-color="#262529"/>
</radialGradient>
<linearGradient id="paint2_linear_2180_8" x1="267.276" y1="339.091" x2="256.277" y2="413.688" gradientUnits="userSpaceOnUse">
<stop stop-color="#302F37"/>
<stop offset="1" stop-color="#1F1E22"/>
</linearGradient>
<linearGradient id="paint3_linear_2180_8" x1="361.877" y1="352.584" x2="307.686" y2="380.649" gradientUnits="userSpaceOnUse">
<stop stop-color="#313037"/>
<stop offset="0.413462" stop-color="#43404F"/>
<stop offset="1" stop-color="#313037"/>
</linearGradient>
<linearGradient id="paint4_linear_2180_8" x1="366.488" y1="240.837" x2="348.519" y2="340.999" gradientUnits="userSpaceOnUse">
<stop stop-color="#393845"/>
<stop offset="1" stop-color="#323239"/>
</linearGradient>
<linearGradient id="paint5_linear_2180_8" x1="292.727" y1="365.512" x2="304.124" y2="420.287" gradientUnits="userSpaceOnUse">
<stop stop-color="#313037"/>
<stop offset="0.456731" stop-color="#28272C"/>
<stop offset="1" stop-color="#313037"/>
</linearGradient>
<radialGradient id="paint6_radial_2180_8" cx="0" cy="0" r="1" gradientUnits="userSpaceOnUse" gradientTransform="translate(266.676 280.127) rotate(91.5902) scale(22.8873 19.4677)">
<stop stop-color="#1F1E22"/>
<stop offset="1" stop-color="#33303B"/>
</radialGradient>
</defs>
</svg>
