<svg width="497" height="513" viewBox="0 0 497 513" fill="none" xmlns="http://www.w3.org/2000/svg">
<path d="M424.202 48.7115C424.202 48.7115 424.202 48.3466 424.202 48.1642C424.202 21.5279 402.672 0 376.034 0C349.396 0 327.866 21.5279 327.866 48.1642C327.866 74.8005 349.396 96.3284 376.034 96.3284C384.062 96.3284 391.542 94.1392 398.293 90.6728C403.219 97.0582 410.7 101.072 419.275 101.072C433.872 101.072 445.731 89.2132 445.731 74.618C445.731 61.6647 436.426 50.9007 424.202 48.529V48.7115Z" fill="#FFE0C4" fill-opacity="0.54"/>
<path d="M215.293 487.113C215.293 487.113 215.293 487.478 215.475 487.66C228.429 510.83 257.804 519.04 281.158 506.087C304.512 493.133 312.54 463.76 299.586 440.408C286.632 417.056 257.257 409.028 233.903 421.982C226.97 425.995 221.496 431.469 217.299 437.854C210.001 434.753 201.427 434.752 193.946 438.949C181.174 446.064 176.612 462.301 183.91 475.072C190.296 486.383 203.616 491.126 215.475 487.113H215.293Z" fill="#FFE0C4" fill-opacity="0.54"/>
<path d="M259.994 473.979C390.889 473.979 497 367.876 497 236.99C497 106.104 390.889 0 259.994 0C129.1 0 22.9886 106.104 22.9886 236.99C22.9886 367.876 129.1 473.979 259.994 473.979Z" fill="#ECC581"/>
<g style="mix-blend-mode:multiply">
<path d="M259.994 0C390.889 0 497 106.104 497 236.99C497 367.876 390.889 473.979 259.994 473.979C258.051 473.979 256.114 473.955 254.182 473.908C361.939 287.832 364.226 175.126 251.432 0.152344C254.273 0.0514383 257.128 1.80619e-07 259.994 0Z" fill="#F8E3BF"/>
</g>
<path d="M123.338 23.7177C113.668 23.7177 105.275 29.1909 101.078 37.4008C95.2398 34.2993 88.6716 32.4749 81.7384 32.4749C58.7494 32.4749 40.1398 51.0838 40.1398 74.0713C40.1398 77.3552 40.6862 80.6391 41.416 83.7406C23.5356 87.7542 10.2173 103.627 10.2173 122.6C10.2173 131.175 12.9536 139.202 17.6974 145.588C7.66247 148.142 0 156.717 0 167.481C0 180.251 10.4 190.468 22.9892 190.468C35.5784 190.468 45.9773 180.069 45.9773 167.481C45.9773 165.474 45.2475 163.649 44.8826 161.825C46.5247 162.007 48.3498 162.372 49.9918 162.372C72.0686 162.372 89.7663 144.493 89.7663 122.6C89.7663 120.046 89.4018 117.492 89.0369 114.938C108.559 111.471 123.338 94.5046 123.338 74.0713C137.205 74.0713 148.516 62.76 148.516 48.8946C148.516 35.0291 137.205 23.7177 123.338 23.7177Z" fill="#FFE0C4" fill-opacity="0.54"/>
<path d="M361.253 454.278C368.004 455.19 374.207 452.271 377.856 446.981C381.505 449.717 385.884 451.724 390.81 452.271C406.684 454.461 421.462 443.514 423.652 427.642C424.017 425.27 424.017 423.081 423.652 420.892C436.423 419.98 447.188 410.31 449.013 397.174C449.925 391.154 448.648 385.498 446.094 380.572C453.21 379.843 459.413 374.552 460.507 367.072C461.785 358.315 455.581 350.105 446.823 348.828C438.066 347.551 429.855 353.754 428.578 362.511C428.396 363.97 428.578 365.247 428.761 366.524C427.666 366.16 426.389 365.795 425.294 365.612C410.151 363.423 396.101 374.005 393.912 389.147C393.729 390.972 393.547 392.796 393.729 394.438C379.863 394.985 368.004 405.202 365.997 419.25C356.327 417.973 347.569 424.54 346.109 434.21C344.65 443.879 351.401 452.636 361.071 454.096L361.253 454.278Z" fill="#FFE0C4" fill-opacity="0.54"/>
<path d="M213.834 139.753C200.515 142.49 169.133 150.882 169.498 164.2C166.214 164.018 162.748 164.018 159.464 164.565C141.036 168.214 128.629 185.181 129.906 203.425C124.068 203.06 118.229 203.242 112.39 204.337C76.2649 211.634 52.7287 246.298 58.932 282.604C44.7007 293.185 37.0377 311.247 40.6868 329.856C42.8762 341.167 49.2619 350.654 57.6547 357.404C46.5251 365.614 62.7635 383.311 65.6827 397.906C69.6966 417.974 89.2192 430.928 109.106 426.914C128.994 422.9 134.103 411.589 130.089 391.52C128.812 385.135 123.703 367.803 119.689 363.06C130.454 357.952 138.846 349.012 143.225 338.065C145.779 337.883 148.334 337.883 151.07 337.336C187.743 330.038 211.645 294.28 204.347 257.609C202.705 249.035 199.238 241.19 194.677 234.075C209.638 226.959 218.396 210.54 215.111 193.573C214.929 192.296 224.599 194.85 224.234 193.573L214.382 189.924C229.161 187.005 249.048 176.241 246.129 161.281C243.209 146.321 228.795 136.834 213.834 139.753Z" fill="#FFE0C4" fill-opacity="0.54"/>
<path d="M419.095 146.137C445.697 146.137 467.263 167.702 467.263 194.302C467.262 220.902 445.697 242.466 419.095 242.466L419.093 242.465C419.092 257.075 407.248 268.918 392.638 268.918C378.027 268.918 366.183 257.074 366.183 242.464C366.183 233.079 371.071 224.836 378.439 220.14C373.684 212.674 370.927 203.81 370.927 194.302C370.927 167.702 392.493 146.137 419.095 146.137Z" fill="#FFE0C4" fill-opacity="0.54"/>
<path d="M351.586 327.848C362.267 327.848 370.926 319.19 370.926 308.509C370.926 297.829 362.267 289.171 351.586 289.171C340.905 289.171 332.246 297.829 332.246 308.509C332.246 319.19 340.905 327.848 351.586 327.848Z" fill="#FFE0C4" fill-opacity="0.54"/>
</svg>
