<svg width="617" height="617" viewBox="0 0 617 617" fill="none" xmlns="http://www.w3.org/2000/svg">
<g filter="url(#filter0_d_2224_6)">
<circle cx="308.5" cy="308.5" r="247.5" fill="#A570B7"/>
</g>
<path fill-rule="evenodd" clip-rule="evenodd" d="M307 61.0005C428.355 203.686 428.355 413.314 307 556C307.167 556 307.333 556 307.5 556C444.19 556 555 445.19 555 308.5C555 171.81 444.19 61 307.5 61C307.333 61 307.167 61.0002 307 61.0005Z" fill="#8E539F"/>
<path d="M68.8926 236.314C20.6427 142.149 603 140.313 548.58 236.314" stroke="#561E83" stroke-width="6" stroke-linecap="round"/>
<circle cx="385.5" cy="167.5" r="14.5" fill="#FFD374"/>
<circle cx="385.5" cy="167.5" r="11.5" fill="#FFF1D3"/>
<path d="M66.8442 387C18.5944 481.165 600.952 483 546.531 387" stroke="#561E83" stroke-width="6" stroke-linecap="round"/>
<circle cx="206.5" cy="452.5" r="10.5" fill="#FFD374"/>
<g clip-path="url(#clip0_2224_6)">
<path d="M218.665 282.31C194.204 285.775 193.623 327.738 217.882 331.958C254.554 338.328 255.077 277.151 218.665 282.31ZM217.649 323.469C205.293 318.736 206.106 292.106 220.601 290.006C243.485 286.695 240.882 332.375 217.649 323.469Z" fill="white"/>
<path d="M392.366 283.722C390.649 283.722 383.892 283.79 381.202 283.723L364.05 331.416C369.081 331.344 370.343 331.416 372.92 331.416C374.332 327.639 375.191 325.744 376.908 320.75C378.153 320.75 396.3 320.923 396.3 320.923C397.519 323.333 400.095 329.361 400.954 331.083C402.672 331.416 407.824 331.083 410.401 331.083L392.366 283.722ZM379.485 313.024L387.214 293.195C388.073 295.778 393.225 311.278 394.036 313.024H379.485Z" fill="white"/>
<path d="M285.653 311.582C284.531 297.44 271.449 290.46 259.547 298.514C260.757 293.413 254.322 296.259 250.829 295.6V344H259.537V328.512C273.374 338.947 286.911 327.428 285.653 311.582ZM270.646 324.621C255.802 327.496 256.48 304.67 266.05 302.57C279.49 299.608 280.09 322.791 270.646 324.621Z" fill="white"/>
<path d="M323.352 311.708C321.765 288.292 289.553 289.947 289.456 313.508C289.369 333.759 314.943 340.341 322.433 321.765C313.521 316.712 315.485 322.733 310.87 324.205C303.893 326.431 299.249 322.772 298.242 315.928H321.949C323.342 315.928 323.429 312.889 323.352 311.708ZM298.242 309.152C299.906 300.392 313.966 299.356 313.724 309.152H298.242Z" fill="white"/>
<path d="M359.202 306.732V331.416H349.526V306.732C349.526 301.157 336.947 303.441 336.947 308.668V331.416H328.238V295.6C331.731 296.259 338.166 293.413 336.957 298.514C343.343 293.703 352.148 293.045 356.754 300.479C357.344 301.437 359.202 306.035 359.202 306.732Z" fill="white"/>
<path d="M425 284.468V331.416H415.324V283.016C417.143 283.084 425 282.348 425 284.468Z" fill="white"/>
</g>
<defs>
<filter id="filter0_d_2224_6" x="0" y="0" width="617" height="617" filterUnits="userSpaceOnUse" color-interpolation-filters="sRGB">
<feFlood flood-opacity="0" result="BackgroundImageFix"/>
<feColorMatrix in="SourceAlpha" type="matrix" values="0 0 0 0 0 0 0 0 0 0 0 0 0 0 0 0 0 0 127 0" result="hardAlpha"/>
<feMorphology radius="11" operator="dilate" in="SourceAlpha" result="effect1_dropShadow_2224_6"/>
<feOffset/>
<feGaussianBlur stdDeviation="25"/>
<feComposite in2="hardAlpha" operator="out"/>
<feColorMatrix type="matrix" values="0 0 0 0 1 0 0 0 0 0 0 0 0 0 0.933333 0 0 0 0.5 0"/>
<feBlend mode="normal" in2="BackgroundImageFix" result="effect1_dropShadow_2224_6"/>
<feBlend mode="normal" in="SourceGraphic" in2="effect1_dropShadow_2224_6" result="shape"/>
</filter>
<clipPath id="clip0_2224_6">
<rect width="225" height="62" fill="white" transform="translate(200 282)"/>
</clipPath>
</defs>
</svg>
