<svg width="725" height="508" viewBox="0 0 725 508" fill="none" xmlns="http://www.w3.org/2000/svg">
<path d="M360.97 484.984C493.336 477.678 599.216 368.956 597.459 242.147C595.702 115.338 486.973 18.4614 354.607 25.7674C222.24 33.0733 116.36 141.795 118.117 268.604C119.875 395.413 228.604 492.29 360.97 484.984Z" fill="url(#paint0_linear_1996_69)"/>
<path d="M370.87 486.378C504.715 476.643 603.978 368.929 599.784 240.421C595.663 114.171 474.705 2.78519 326.76 27.6532C497.645 208.055 482.634 306.281 326.861 486.335C328.933 486.235 368.787 486.53 370.87 486.378Z" fill="#541E67"/>
<path d="M547.234 38.5672C579.148 18.2468 659.125 -12.2448 652.107 51.7281C645.156 94.151 618.202 127.162 591.979 159.782C539.489 221.872 477.104 273.645 412.459 321.687C330.292 379.801 242.043 437.198 142.333 464.393C27.082 485.435 24.5209 420.587 112.24 364.796C96.1564 385.648 73.4934 409.665 71.4455 434.302C71.8523 437.082 72.7787 437.557 74.2617 438.351C91.9966 443.509 114.924 438.396 133.23 431.785C222.314 394.663 301.16 335.856 380.423 280.529C428.746 249.498 788.405 -30.0278 547.236 38.7421L547.234 38.5672Z" fill="#A502B3"/>
<path d="M627.456 143.255C664.688 138.979 748.18 147.489 711.095 198.577C684.351 231.915 645.294 248.695 606.787 265.611C531.56 296.538 452.85 314.578 373.896 328.494C275.032 343.625 171.368 355.533 72.5489 336.745C-36.499 306.253 -7.17333 249.784 95.4099 238.925C71.4415 249.947 40.3441 261.014 26.5654 281.096C25.6889 283.624 26.0663 284.431 26.9994 285.705C39.6081 297.615 61.808 302.899 80.668 304.884C175.089 310.668 271.363 293.524 366.407 279.753C423.173 273.621 867.768 186.029 627.456 143.255Z" fill="#A502B3"/>
<path d="M411.723 149.404V189.941H377.453V223.521H325.521V189.941H290.765L313.773 149.404H411.723Z" fill="url(#paint1_linear_1996_69)"/>
<path d="M411.723 292.503L389.605 333.04H290.765V292.503H325.521V258.923H377.453V292.503H411.723Z" fill="url(#paint2_linear_1996_69)"/>
<defs>
<linearGradient id="paint0_linear_1996_69" x1="157.515" y1="180.283" x2="585.487" y2="370.88" gradientUnits="userSpaceOnUse">
<stop offset="0.33" stop-color="#622777"/>
</linearGradient>
<linearGradient id="paint1_linear_1996_69" x1="435.265" y1="185.325" x2="278.765" y2="185.325" gradientUnits="userSpaceOnUse">
<stop stop-color="#A315D6"/>
<stop offset="0.134615" stop-color="#CF5E9D"/>
<stop offset="0.514423" stop-color="#FDAB60"/>
<stop offset="0.951923" stop-color="#C64FA8"/>
<stop offset="1" stop-color="#A315D6"/>
</linearGradient>
<linearGradient id="paint2_linear_1996_69" x1="435.265" y1="294.844" x2="278.765" y2="294.844" gradientUnits="userSpaceOnUse">
<stop stop-color="#A315D6"/>
<stop offset="0.134615" stop-color="#CF5E9D"/>
<stop offset="0.514423" stop-color="#FDAB60"/>
<stop offset="0.951923" stop-color="#C64FA8"/>
<stop offset="1" stop-color="#A315D6"/>
</linearGradient>
</defs>
</svg>
