<svg width="617" height="617" viewBox="0 0 617 617" fill="none" xmlns="http://www.w3.org/2000/svg">
<g filter="url(#filter0_d_2213_126)">
<circle cx="308.5" cy="308.5" r="247.5" fill="#51BBFF"/>
</g>
<path fill-rule="evenodd" clip-rule="evenodd" d="M307 61.0005C433.703 257.189 451.31 365.971 307 556C307.167 556 307.333 556 307.5 556C444.19 556 555 445.19 555 308.5C555 171.81 444.19 61 307.5 61C307.333 61 307.167 61.0002 307 61.0005Z" fill="#127BF3"/>
<path d="M68.8926 242.314C20.6427 148.149 603 146.313 548.58 242.314" stroke="#073E99" stroke-width="6" stroke-linecap="round"/>
<circle cx="385.5" cy="173.5" r="14.5" fill="#FFD374"/>
<circle cx="385.5" cy="173.5" r="11.5" fill="#FFF1D3"/>
<path d="M66.8442 404C18.5944 498.165 600.952 500 546.531 404" stroke="#073E99" stroke-width="6" stroke-linecap="round"/>
<circle cx="206.5" cy="469.5" r="10.5" fill="#FFD374"/>
<path d="M204.721 327.837C201.353 327.837 198.589 327.11 196.438 325.656C194.283 324.202 192.981 322.125 192.53 319.421L198.573 317.863C198.815 319.076 199.226 320.028 199.798 320.719C200.37 321.414 201.083 321.904 201.933 322.201C202.783 322.495 203.713 322.643 204.721 322.643C206.247 322.643 207.375 322.374 208.104 321.84C208.834 321.301 209.2 320.639 209.2 319.839C209.2 319.04 208.854 318.429 208.157 317.995C207.46 317.561 206.352 317.208 204.821 316.931L203.363 316.67C201.558 316.324 199.906 315.846 198.416 315.24C196.921 314.633 195.725 313.793 194.822 312.721C193.92 311.648 193.469 310.262 193.469 308.567C193.469 306.004 194.408 304.039 196.281 302.67C198.158 301.304 200.619 300.617 203.677 300.617C206.557 300.617 208.954 301.259 210.864 302.537C212.773 303.818 214.022 305.498 214.615 307.575L208.519 309.443C208.241 308.129 207.677 307.193 206.827 306.638C205.977 306.084 204.926 305.807 203.677 305.807C202.428 305.807 201.469 306.024 200.813 306.458C200.152 306.892 199.822 307.49 199.822 308.249C199.822 309.081 200.168 309.696 200.865 310.093C201.558 310.491 202.497 310.796 203.677 311.001L205.135 311.262C207.081 311.608 208.842 312.066 210.421 312.64C212 313.211 213.249 314.026 214.171 315.083C215.09 316.139 215.553 317.569 215.553 319.369C215.553 322.069 214.57 324.158 212.608 325.628C210.646 327.102 208.016 327.837 204.716 327.837H204.721Z" fill="white"/>
<path d="M226.994 327.733C224.98 327.733 223.219 327.275 221.709 326.355C220.198 325.439 219.026 324.166 218.192 322.539C217.358 320.912 216.943 319.04 216.943 316.931V301.557H223.506V316.413C223.506 318.353 223.981 319.807 224.94 320.775C225.894 321.744 227.256 322.23 229.029 322.23C231.043 322.23 232.606 321.563 233.718 320.229C234.83 318.895 235.385 317.035 235.385 314.645V301.557H241.948V327.319H235.49V323.945H234.552C234.137 324.813 233.355 325.66 232.207 326.492C231.063 327.323 229.323 327.737 226.998 327.737L226.994 327.733Z" fill="white"/>
<path d="M246.633 337.708V301.556H253.09V304.674H254.03C254.618 303.67 255.54 302.778 256.789 301.998C258.038 301.219 259.827 300.829 262.154 300.829C264.237 300.829 266.167 301.34 267.936 302.36C269.708 303.38 271.131 304.879 272.206 306.851C273.281 308.824 273.821 311.214 273.821 314.018V314.849C273.821 317.654 273.281 320.044 272.206 322.016C271.131 323.989 269.705 325.487 267.936 326.508C266.163 327.528 264.237 328.038 262.154 328.038C260.592 328.038 259.283 327.857 258.223 327.492C257.163 327.13 256.314 326.66 255.668 326.09C255.025 325.519 254.513 324.941 254.134 324.35H253.195V337.7H246.633V337.708ZM260.176 322.334C262.228 322.334 263.92 321.683 265.257 320.385C266.595 319.088 267.264 317.192 267.264 314.697V314.179C267.264 311.684 266.587 309.788 265.232 308.49C263.879 307.193 262.196 306.542 260.181 306.542C258.166 306.542 256.483 307.193 255.13 308.49C253.776 309.788 253.098 311.684 253.098 314.179V314.697C253.098 317.192 253.776 319.088 255.13 320.385C256.483 321.683 258.166 322.334 260.181 322.334H260.176Z" fill="white"/>
<path d="M289.034 328.046C286.464 328.046 284.2 327.5 282.237 326.411C280.276 325.318 278.749 323.78 277.652 321.787C276.561 319.795 276.013 317.449 276.013 314.749V314.126C276.013 311.427 276.549 309.081 277.629 307.088C278.704 305.096 280.215 303.557 282.16 302.464C284.106 301.376 286.362 300.829 288.933 300.829C291.503 300.829 293.674 301.392 295.548 302.517C297.421 303.641 298.883 305.2 299.922 307.193C300.965 309.185 301.485 311.495 301.485 314.126V316.36H282.68C282.749 318.128 283.409 319.562 284.658 320.671C285.907 321.779 287.438 322.334 289.243 322.334C291.047 322.334 292.438 321.936 293.304 321.141C294.17 320.345 294.831 319.461 295.282 318.493L300.648 321.297C300.16 322.197 299.459 323.177 298.536 324.234C297.614 325.29 296.394 326.19 294.862 326.933C293.336 327.676 291.39 328.05 289.029 328.05L289.034 328.046ZM282.729 311.475H294.814C294.673 309.985 294.077 308.791 293.018 307.892C291.958 306.992 290.577 306.542 288.876 306.542C287.176 306.542 285.698 306.992 284.658 307.892C283.615 308.791 282.974 309.989 282.733 311.475H282.729Z" fill="white"/>
<path d="M304.712 327.319V301.557H311.17V304.465H312.108C312.491 303.425 313.123 302.665 314.009 302.179C314.895 301.693 315.927 301.452 317.107 301.452H320.234V307.269H317.003C315.335 307.269 313.965 307.711 312.89 308.595C311.814 309.479 311.274 310.837 311.274 312.672V327.319H304.712Z" fill="white"/>
<path d="M322.732 327.319V301.556H329.189V304.361H330.127C330.579 303.497 331.324 302.742 332.368 302.103C333.411 301.464 334.781 301.143 336.481 301.143C338.322 301.143 339.796 301.496 340.908 302.207C342.02 302.918 342.87 303.842 343.462 304.987H344.401C344.988 303.878 345.823 302.963 346.903 302.235C347.978 301.508 349.505 301.147 351.487 301.147C353.082 301.147 354.532 301.484 355.838 302.159C357.139 302.834 358.182 303.854 358.963 305.224C359.746 306.594 360.137 308.313 360.137 310.394V327.327H353.574V310.86C353.574 309.442 353.207 308.378 352.482 307.667C351.753 306.956 350.725 306.602 349.408 306.602C347.914 306.602 346.762 307.08 345.943 308.032C345.126 308.984 344.719 310.342 344.719 312.11V327.331H338.156V310.864C338.156 309.446 337.79 308.382 337.065 307.671C336.336 306.96 335.309 306.606 333.991 306.606C332.497 306.606 331.344 307.084 330.527 308.036C329.709 308.988 329.301 310.346 329.301 312.114V327.335H322.74L322.732 327.319Z" fill="white"/>
<path d="M376.384 328.046C373.812 328.046 371.548 327.5 369.587 326.411C367.626 325.318 366.099 323.78 365.002 321.787C363.911 319.795 363.363 317.449 363.363 314.749V314.126C363.363 311.427 363.899 309.081 364.979 307.088C366.054 305.096 367.565 303.557 369.51 302.464C371.456 301.376 373.712 300.829 376.282 300.829C378.853 300.829 381.024 301.392 382.897 302.517C384.771 303.641 386.232 305.2 387.272 307.193C388.315 309.185 388.835 311.495 388.835 314.126V316.36H370.03C370.099 318.128 370.759 319.562 372.008 320.671C373.257 321.779 374.787 322.334 376.593 322.334C378.397 322.334 379.787 321.936 380.657 321.141C381.524 320.345 382.184 319.461 382.635 318.493L388.001 321.297C387.514 322.197 386.812 323.177 385.891 324.234C384.968 325.29 383.747 326.19 382.216 326.933C380.689 327.676 378.743 328.05 376.384 328.05V328.046ZM370.082 311.475H382.168C382.027 309.985 381.431 308.791 380.371 307.892C379.312 306.992 377.93 306.542 376.23 306.542C374.53 306.542 373.051 306.992 372.012 307.892C370.968 308.791 370.328 309.989 370.087 311.475H370.082Z" fill="white"/>
<path d="M392.061 327.319V301.556H398.52V304.361H399.458C399.909 303.497 400.655 302.742 401.698 302.103C402.742 301.464 404.111 301.143 405.81 301.143C407.652 301.143 409.126 301.496 410.238 302.207C411.35 302.918 412.2 303.842 412.792 304.987H413.731C414.319 303.878 415.153 302.963 416.232 302.235C417.308 301.508 418.835 301.147 420.817 301.147C422.412 301.147 423.863 301.484 425.167 302.159C426.469 302.834 427.513 303.854 428.294 305.224C429.075 306.594 429.466 308.313 429.466 310.394V327.327H422.903V310.86C422.903 309.442 422.537 308.378 421.812 307.667C421.083 306.956 420.056 306.602 418.738 306.602C417.244 306.602 416.091 307.08 415.274 308.032C414.456 308.984 414.05 310.342 414.05 312.11V327.331H407.487V310.864C407.487 309.446 407.121 308.382 406.395 307.671C405.666 306.96 404.638 306.606 403.322 306.606C401.827 306.606 400.675 307.084 399.856 308.036C399.039 308.988 398.632 310.346 398.632 312.114V327.335H392.069L392.061 327.319Z" fill="white"/>
<path d="M446.238 328.046C443.667 328.046 441.359 327.528 439.308 326.487C437.258 325.447 435.642 323.941 434.462 321.968C433.281 319.996 432.69 317.621 432.69 314.853V314.022C432.69 311.25 433.278 308.88 434.462 306.907C435.642 304.935 437.258 303.429 439.308 302.388C441.354 301.348 443.667 300.829 446.238 300.829C448.808 300.829 451.115 301.348 453.167 302.388C455.213 303.429 456.829 304.935 458.012 306.907C459.193 308.88 459.781 311.254 459.781 314.022V314.853C459.781 317.625 459.189 319.996 458.012 321.968C456.832 323.941 455.217 325.447 453.167 326.487C451.115 327.528 448.808 328.046 446.238 328.046ZM446.238 322.229C448.251 322.229 449.915 321.578 451.237 320.281C452.558 318.983 453.214 317.119 453.214 314.697V314.179C453.214 311.756 452.562 309.892 451.261 308.595C449.96 307.297 448.283 306.646 446.233 306.646C444.183 306.646 442.551 307.297 441.234 308.595C439.913 309.892 439.256 311.756 439.256 314.179V314.697C439.256 317.119 439.913 318.983 441.234 320.281C442.555 321.578 444.218 322.229 446.233 322.229H446.238Z" fill="white"/>
<path d="M463.217 327.319V301.557H469.675V304.465H470.614C470.996 303.425 471.629 302.665 472.515 302.179C473.402 301.693 474.433 301.452 475.614 301.452H478.739V307.269H475.508C473.84 307.269 472.471 307.711 471.395 308.595C470.32 309.479 469.78 310.837 469.78 312.672V327.319H463.217Z" fill="white"/>
<path d="M484.053 337.708V331.996H498.116C499.086 331.996 499.574 331.477 499.574 330.437V323.945H498.635C498.357 324.535 497.922 325.122 497.334 325.713C496.742 326.303 495.944 326.785 494.938 327.167C493.93 327.548 492.645 327.737 491.082 327.737C489.067 327.737 487.303 327.279 485.797 326.359C484.285 325.443 483.113 324.17 482.28 322.543C481.446 320.916 481.031 319.044 481.031 316.935V301.557H487.593V316.413C487.593 318.353 488.069 319.807 489.027 320.775C489.982 321.744 491.344 322.23 493.117 322.23C495.13 322.23 496.693 321.563 497.805 320.229C498.917 318.895 499.474 317.035 499.474 314.645V301.557H506.035V331.891C506.035 333.659 505.516 335.069 504.473 336.125C503.43 337.182 502.039 337.708 500.307 337.708H484.056H484.053Z" fill="white"/>
<path d="M169.757 309.475H148.261V291H141.316V311.046C141.316 313.175 142.166 315.22 143.677 316.726L161.229 334.23L166.14 329.333L153.176 316.405H169.761V309.479L169.757 309.475Z" fill="white"/>
<path d="M115.457 299.508L128.421 312.436H111.835V319.362H133.331V337.837H140.277V317.791C140.277 315.662 139.427 313.617 137.916 312.11L120.368 294.611L115.457 299.508Z" fill="white"/>
<defs>
<filter id="filter0_d_2213_126" x="0" y="0" width="617" height="617" filterUnits="userSpaceOnUse" color-interpolation-filters="sRGB">
<feFlood flood-opacity="0" result="BackgroundImageFix"/>
<feColorMatrix in="SourceAlpha" type="matrix" values="0 0 0 0 0 0 0 0 0 0 0 0 0 0 0 0 0 0 127 0" result="hardAlpha"/>
<feMorphology radius="11" operator="dilate" in="SourceAlpha" result="effect1_dropShadow_2213_126"/>
<feOffset/>
<feGaussianBlur stdDeviation="25"/>
<feComposite in2="hardAlpha" operator="out"/>
<feColorMatrix type="matrix" values="0 0 0 0 0 0 0 0 0 0.35 0 0 0 0 1 0 0 0 0.5 0"/>
<feBlend mode="normal" in2="BackgroundImageFix" result="effect1_dropShadow_2213_126"/>
<feBlend mode="normal" in="SourceGraphic" in2="effect1_dropShadow_2213_126" result="shape"/>
</filter>
</defs>
</svg>
