<svg width="617" height="617" viewBox="0 0 617 617" fill="none" xmlns="http://www.w3.org/2000/svg">
<g filter="url(#filter0_d_2228_4)">
<circle cx="308.5" cy="308.5" r="247.5" fill="#E58213"/>
</g>
<path fill-rule="evenodd" clip-rule="evenodd" d="M313 63.0005C452.641 262.305 458.109 370.92 313 558C313.167 558 313.333 558 313.5 558C450.19 558 561 447.19 561 310.5C561 173.81 450.19 63 313.5 63C313.333 63 313.167 63.0002 313 63.0005Z" fill="#E26512"/>
<path d="M66.8442 395C18.5944 489.165 600.952 491 546.531 395" stroke="#C01818" stroke-width="6" stroke-linecap="round"/>
<circle cx="206.5" cy="460.5" r="10.5" fill="#FFD374"/>
<path d="M68.8926 233.314C20.6427 139.149 603 137.313 548.58 233.314" stroke="#C01818" stroke-width="6" stroke-linecap="round"/>
<circle cx="380.5" cy="164.5" r="14.5" fill="#FFD374"/>
<circle cx="380.5" cy="164.5" r="11.5" fill="#FFF1D3"/>
<path d="M460.476 325.812V332.4H446.287V335.948H458.956V342.029H446.287V345.576H460.476V352.164H438.685V325.812H460.476Z" fill="white"/>
<path d="M164.528 336.455H155.913C155.68 336.455 155.761 334.038 153.075 332.958C141.217 328.19 140.812 349.098 152.736 345.186C154.667 344.553 155.928 342.029 156.167 342.029H164.021C162.41 356.457 138.09 356.132 136.195 342.237C133.479 322.331 159.937 318.718 164.528 336.455Z" fill="white"/>
<path d="M244.596 325.813V342.789C244.596 344.912 248.589 345.921 250.409 345.566C251.65 345.328 253.718 342.85 253.718 341.775V325.813H261.319V344.309C261.319 344.608 259.946 347.634 259.617 348.181C255.623 354.799 241.282 354.439 237.745 347.102C237.542 346.676 236.488 343.493 236.488 343.291V325.807H244.596V325.813Z" fill="white"/>
<path d="M329.225 325.812V332.4H315.543V336.454H327.705V343.042H315.543V352.164H307.434V325.812H329.225Z" fill="white"/>
<path d="M179.731 325.812V345.576H192.4V352.164H172.129V325.812H179.731Z" fill="white"/>
<path d="M346.455 325.812V345.576H359.124V352.164H338.854V325.812H346.455Z" fill="white"/>
<path fill-rule="evenodd" clip-rule="evenodd" d="M227.518 343.448C231.238 331.701 221.427 323.502 210.005 325.427C204.876 326.289 200.174 331.64 199.55 336.764C197.321 355.169 222.811 358.311 227.518 343.448ZM209.295 343.884C205.946 340.534 207.268 333.237 212.447 332.436C223.089 330.784 222.481 347.836 212.017 345.47C211.414 345.333 209.746 344.335 209.295 343.884Z" fill="white"/>
<path fill-rule="evenodd" clip-rule="evenodd" d="M387.502 352.164H396.117L396.122 352.159L385.242 325.792C384.566 325.097 382.641 325.196 380.868 325.288C379.786 325.344 378.761 325.398 378.112 325.265L366.224 352.159H374.839C374.936 352.159 375.119 351.489 375.342 350.672C375.629 349.624 375.981 348.334 376.303 347.912C376.622 347.497 384.741 347.355 385.663 347.669C386.608 347.996 387.008 350.031 387.247 351.248C387.352 351.786 387.426 352.164 387.502 352.164ZM383.448 341.517H378.888L380.92 335.446L383.205 339.991L383.448 341.517Z" fill="white"/>
<path fill-rule="evenodd" clip-rule="evenodd" d="M271.961 325.812V352.164H286.404C286.703 352.164 289.997 350.998 290.549 350.735C299.164 346.574 299.96 333.014 291.897 327.921C291.314 327.556 287.23 325.812 286.911 325.812H271.961ZM280.069 345.576V332.4C292.662 331.427 292.683 346.539 280.069 345.576Z" fill="white"/>
<path fill-rule="evenodd" clip-rule="evenodd" d="M429.558 352.164H429.563L429.558 352.169C429.558 352.167 429.558 352.166 429.558 352.164ZM429.558 352.164C429.506 351.145 427.808 348.903 426.306 346.919C425.059 345.272 423.946 343.803 424.025 343.362C424.101 342.933 424.849 342.439 425.576 341.959C426.061 341.639 426.537 341.325 426.797 341.041C429.943 337.615 429.508 330.764 425.758 327.845C425.18 327.389 422.165 325.812 421.709 325.812H405.239V352.164H412.84V344.563C413.178 344.613 413.604 344.578 414.039 344.543C414.694 344.489 415.368 344.434 415.78 344.669C416.024 344.809 416.881 346.264 417.817 347.856C419.019 349.898 420.353 352.164 420.695 352.164H429.558ZM412.835 337.98V332.4C423.761 330.809 423.893 339.657 412.835 337.98Z" fill="white"/>
<path d="M306.167 313.65C304.51 313.149 304.819 307.833 304.961 306.363C306.071 295.007 316.135 285.196 327.705 285.267C324.092 269.709 340.921 258.981 354.051 267.535C362.382 241.275 397.633 234.586 416.144 254.861C419.2 258.211 425.302 268.316 424.896 272.745C424.643 275.506 419.742 285.621 417.67 287.821C411.29 294.591 406.663 293.456 398.382 293.871C383.92 294.596 369.305 294.145 354.842 294.926C353.631 294.991 347.722 294.642 347.468 294.905C346.136 296.309 349.146 296.877 350.235 296.953C362.053 297.794 375.239 297.165 387.229 297.454C392.671 297.586 401.367 296.613 406.283 297.657C411.913 298.858 413.013 304.169 412.212 309.221C412.075 310.073 410.839 313.65 410.053 313.65H306.167Z" fill="white"/>
<path d="M415.121 313.65C413.195 313.077 416.296 307.452 416.976 306.383C423.528 296.091 432.665 297.875 442.998 296.927C444.092 296.826 446.459 296.076 445.278 294.9C444.634 294.262 431.677 294.667 428.286 292.883C421.324 289.224 425.484 279.682 426.974 273.905C445.455 271.179 461.388 287.461 460.471 305.785C460.405 307.098 459.518 313.645 458.2 313.645H415.126L415.121 313.65Z" fill="white"/>
<defs>
<filter id="filter0_d_2228_4" x="0" y="0" width="617" height="617" filterUnits="userSpaceOnUse" color-interpolation-filters="sRGB">
<feFlood flood-opacity="0" result="BackgroundImageFix"/>
<feColorMatrix in="SourceAlpha" type="matrix" values="0 0 0 0 0 0 0 0 0 0 0 0 0 0 0 0 0 0 127 0" result="hardAlpha"/>
<feMorphology radius="11" operator="dilate" in="SourceAlpha" result="effect1_dropShadow_2228_4"/>
<feOffset/>
<feGaussianBlur stdDeviation="25"/>
<feComposite in2="hardAlpha" operator="out"/>
<feColorMatrix type="matrix" values="0 0 0 0 1 0 0 0 0 0 0 0 0 0 0 0 0 0 0.5 0"/>
<feBlend mode="normal" in2="BackgroundImageFix" result="effect1_dropShadow_2228_4"/>
<feBlend mode="normal" in="SourceGraphic" in2="effect1_dropShadow_2228_4" result="shape"/>
</filter>
</defs>
</svg>
