<svg width="485" height="496" viewBox="0 0 485 496" fill="none" xmlns="http://www.w3.org/2000/svg">
<path d="M475.013 312.617C452.738 403.753 378.673 474.285 285.861 491.919C271.568 470.944 263.215 445.516 263.215 418.045C263.215 344.914 322.43 285.889 395.38 285.889C425.451 285.889 452.923 295.727 475.013 312.617Z" fill="#66A53C"/>
<path d="M374.219 49.9722L358.812 44.5895L377.003 148.904C385.913 199.576 370.32 251.547 335.237 289.226L293.843 333.402L455.709 307.045L472.044 267.51C483.738 239.111 487.265 208.114 482.253 178.045C472.415 118.834 431.021 69.8328 374.405 50.1579L374.219 49.9722Z" fill="#66A53C"/>
<path d="M426.008 192.154C436.875 192.154 445.684 183.345 445.684 172.479C445.684 161.612 436.875 152.804 426.008 152.804C415.141 152.804 406.332 161.612 406.332 172.479C406.332 183.345 415.141 192.154 426.008 192.154Z" fill="#1A6235"/>
<path d="M360.67 413.588C371.537 413.588 380.346 404.779 380.346 393.913C380.346 383.047 371.537 374.238 360.67 374.238C349.803 374.238 340.994 383.047 340.994 393.913C340.994 404.779 349.803 413.588 360.67 413.588Z" fill="#0F4924"/>
<path d="M482.068 254.89C482.068 274.75 479.655 294.24 475.014 312.615C452.739 403.751 378.675 474.283 285.863 491.916C271.384 494.515 256.349 496 241.128 496C206.601 496 173.931 488.761 144.231 475.768C114.345 462.59 87.4299 443.472 65.5261 419.899C24.8743 376.837 3.05176e-05 318.74 3.05176e-05 254.89C3.05176e-05 121.806 107.849 13.9651 241.128 13.9651C374.406 13.9651 482.068 121.806 482.068 254.89Z" fill="url(#paint0_linear_2178_6)"/>
<path d="M295.887 23.248C308.881 54.2453 236.302 48.3058 162.795 79.303C89.2872 110.3 42.6957 166.355 29.702 135.358C16.7082 104.361 65.7135 54.2453 139.035 23.248C212.543 -7.74919 282.709 -7.74919 295.703 23.248H295.887Z" fill="#66A53C"/>
<path d="M167.622 39.9563C198.25 53.6916 93.9294 119.398 99.4981 198.84C106.366 293.503 80.1931 317.261 49.565 303.526C18.9369 289.79 20.4218 219.629 52.9061 146.869C85.3905 74.1089 136.808 26.221 167.436 39.9563H167.622Z" fill="#66A53C"/>
<path d="M90.3995 111.227C101.266 111.227 110.076 102.418 110.076 91.5519C110.076 80.6857 101.266 71.877 90.3995 71.877C79.5326 71.877 70.7222 80.6857 70.7222 91.5519C70.7222 102.418 79.5326 111.227 90.3995 111.227Z" fill="#1A6235"/>
<path d="M161.122 438.462C161.122 453.311 154.625 466.675 144.23 475.77C114.344 462.591 87.4288 443.473 65.5251 419.9C72.9501 401.71 90.7697 388.903 111.56 388.903C138.847 388.903 161.122 411.177 161.122 438.462Z" fill="#66A53C"/>
<path fill-rule="evenodd" clip-rule="evenodd" d="M241.112 13.9616V56.0073C242.207 55.7616 243.291 55.5188 244.364 55.2786C280.337 47.2203 303.74 41.978 295.887 23.2445H295.703C289.286 7.93795 268.929 0.189876 241.112 0.00012207V13.9616Z" fill="#66A53C"/>
<path d="M475.013 312.614C452.738 403.749 378.673 474.282 285.861 491.915C271.568 470.941 263.215 445.512 263.215 418.041C263.215 344.91 322.43 285.885 395.38 285.885C425.451 285.885 452.923 295.723 475.013 312.614Z" fill="#66A53C"/>
<path d="M374.219 49.9686L358.812 44.5859L377.003 148.9C385.913 199.572 370.32 251.543 335.237 289.223L293.843 333.398L455.709 307.041L472.044 267.506C483.738 239.107 487.265 208.11 482.253 178.041C472.415 118.831 431.021 69.8292 374.405 50.1543L374.219 49.9686Z" fill="#66A53C"/>
<path d="M426.008 192.15C436.875 192.15 445.684 183.341 445.684 172.475C445.684 161.609 436.875 152.8 426.008 152.8C415.141 152.8 406.332 161.609 406.332 172.475C406.332 183.341 415.141 192.15 426.008 192.15Z" fill="#104C26"/>
<path d="M360.67 413.584C371.537 413.584 380.346 404.775 380.346 393.909C380.346 383.043 371.537 374.234 360.67 374.234C349.803 374.234 340.994 383.043 340.994 393.909C340.994 404.775 349.803 413.584 360.67 413.584Z" fill="#104C26"/>
<g style="mix-blend-mode:multiply">
<path d="M241.113 0.00012207C266.726 0.174911 286.016 6.75883 293.919 19.7511C317.039 24.9066 338.896 33.3778 358.968 44.6398L374.219 49.9689L374.406 50.1544C431.021 69.8294 472.415 118.831 482.253 178.041C485.49 197.459 485.163 217.264 481.378 236.506C481.835 242.574 482.069 248.705 482.069 254.89C482.069 274.75 479.656 294.24 475.015 312.615C452.74 403.751 378.675 474.283 285.863 491.916C271.384 494.515 256.349 496 241.128 496C235.326 496 229.575 495.796 223.883 495.394C369.948 283.896 392.467 197.22 230.638 0.27063C234.232 0.0698803 237.728 -0.0190549 241.113 0.00402832V0.00012207Z" fill="#7FCB88"/>
</g>
<path d="M129 204.258C129 181.472 147.472 163 170.258 163H255.024C265.382 163 273.778 171.396 273.778 181.754V312.279C273.778 322.636 265.382 331.032 255.024 331.032H245.853C244.883 331.032 243.956 331.43 243.288 332.132L243.111 332.317C241.759 333.737 239.476 333.677 238.199 332.189C237.57 331.455 236.652 331.032 235.686 331.032H179.978C178.92 331.032 177.909 331.466 177.18 332.231C175.731 333.753 173.33 333.837 171.778 332.42L171.482 332.15C170.694 331.431 169.667 331.032 168.601 331.032H147.754C137.396 331.032 129 322.636 129 312.279V204.258Z" fill="#EDE2F6"/>
<path d="M255.024 163C265.381 163 273.778 171.397 273.778 181.754V312.278C273.778 322.636 265.381 331.032 255.024 331.032H245.853C244.884 331.032 243.956 331.43 243.288 332.132L243.111 332.317C241.759 333.737 239.476 333.677 238.2 332.188C237.571 331.455 236.652 331.032 235.685 331.032H179.977C178.986 331.032 178.036 331.413 177.32 332.092L177.042 332.37C175.734 333.612 173.755 333.769 172.275 332.804L180.384 325.969H253.524C259.338 325.969 265.339 319.968 268.527 314.529C271.715 309.091 268.527 196.568 268.527 190.567C268.527 184.623 262.64 178.127 257.243 172.173L257.088 172.002C254.432 169.071 246.283 165.713 238.29 163H255.024Z" fill="url(#paint1_linear_2178_6)"/>
<path d="M169.883 216.26C167.257 211.759 167.445 181.754 169.883 176.127C174.379 165.752 256.471 166.6 262.338 173.689C266.839 179.128 265.526 208.759 262.338 216.26C259.15 223.762 172.508 220.761 169.883 216.26Z" fill="url(#paint2_radial_2178_6)"/>
<rect x="168.383" y="166.751" width="21.3791" height="44.6336" rx="10.6896" fill="#F2F2F2"/>
<rect x="171.758" y="172.002" width="6.7513" height="34.1316" rx="3.37565" fill="#E8E8E8"/>
<rect x="180.01" y="172.002" width="6.7513" height="34.1316" rx="3.37565" fill="#E8E8E8"/>
<circle cx="210.766" cy="187.38" r="4.1258" fill="#2B1847"/>
<path d="M209.266 188.505C208.437 187.884 208.269 186.709 208.89 185.88C209.51 185.051 210.686 184.882 211.515 185.503C212.344 186.124 210.411 185.726 209.79 186.555C209.169 187.384 210.095 189.126 209.266 188.505Z" fill="#AD96CD"/>
<circle cx="210.766" cy="196.756" r="4.1258" fill="#2B1847"/>
<path d="M208.728 198.121C207.989 197.395 207.979 196.208 208.704 195.469C209.43 194.73 210.618 194.719 211.356 195.445C212.095 196.171 210.099 195.387 209.373 196.126C208.647 196.865 209.467 198.847 208.728 198.121Z" fill="#AD96CD"/>
<circle cx="220.893" cy="269.145" r="50.6348" fill="url(#paint3_radial_2178_6)"/>
<circle cx="219.392" cy="265.395" r="49.6971" fill="#EDE2F6" stroke="#C3AAD7" stroke-width="1.87536"/>
<circle cx="219.392" cy="265.395" r="16.5032" fill="#2B1847" stroke="white" stroke-width="0.750145"/>
<circle cx="219.392" cy="265.395" r="10.8771" fill="#442E62" stroke="#6B4F92" stroke-width="0.750145"/>
<path d="M215.493 263.651C213.81 266.978 218.616 272.798 215.289 271.114C211.962 269.431 210.63 265.369 212.314 262.042C213.997 258.715 218.059 257.383 221.386 259.066C224.713 260.75 217.177 260.324 215.493 263.651Z" fill="url(#paint4_linear_2178_6)"/>
<circle cx="219.392" cy="265.02" r="33.3814" stroke="url(#paint5_linear_2178_6)" stroke-width="0.750145"/>
<circle cx="219.392" cy="265.02" r="40.4286" stroke="url(#paint6_linear_2178_6)" stroke-width="0.908508"/>
<path d="M161.444 212.322V185.692L153.755 190.755V204.633L161.444 212.322Z" fill="url(#paint7_linear_2178_6)"/>
<path d="M139.314 185.692L143.253 190.568H154.13L161.444 185.692H139.314Z" fill="url(#paint8_linear_2178_6)"/>
<path d="M139.314 212.134H161.256L154.505 205.196H143.253L139.314 212.134Z" fill="#ECDFF2"/>
<path d="M139.502 185.692V212.134L143.253 205.383V190.568L139.502 185.692Z" fill="url(#paint9_linear_2178_6)"/>
<rect x="142.878" y="190.005" width="12.0023" height="15.753" fill="#2B1847"/>
<rect x="145.503" y="193.381" width="6.7513" height="9.00174" fill="#442E62"/>
<rect x="147.754" y="196.006" width="2.62551" height="3.75072" fill="#AD96CD"/>
<path d="M147.352 229.949C150.053 223.498 159.48 227.261 163.855 229.949V328.593C160.167 326.28 151.703 320.154 147.352 314.153C141.914 306.652 143.977 238.013 147.352 229.949Z" fill="url(#paint10_linear_2178_6)"/>
<circle cx="149.066" cy="230.701" r="6.93884" stroke="url(#paint11_linear_2178_6)" stroke-width="0.750145"/>
<circle cx="149.066" cy="230.7" r="10.3145" stroke="#B699D1" stroke-width="0.750145"/>
<path d="M191.388 258.643H198.017C199.123 258.643 200.062 259.444 200.204 260.525C200.695 264.26 200.684 267.073 200.19 270.989C200.052 272.082 199.107 272.896 197.992 272.896H191.376C190.356 272.896 189.467 272.215 189.244 271.24C188.345 267.307 188.327 264.44 189.251 260.313C189.471 259.332 190.364 258.643 191.388 258.643Z" fill="url(#paint12_linear_2178_6)" stroke="#DCCAEA" stroke-width="0.750145"/>
<path d="M144.003 324.656C141.065 324.281 135.114 321.543 134.814 313.591C134.514 305.64 134.689 272.396 134.814 256.768" stroke="url(#paint13_linear_2178_6)" stroke-width="1.12522" stroke-linecap="round"/>
<path d="M244.579 184.51H243.852V183.796H244.579V184.51ZM244.561 188.129H243.87V185.086H244.561V188.129ZM247 185.668C246.9 185.668 246.786 185.692 246.658 185.74C246.53 185.788 246.378 185.882 246.202 186.022V188.129H245.511V185.086H246.166V185.494C246.354 185.33 246.532 185.212 246.7 185.14C246.868 185.064 247.038 185.026 247.21 185.026C247.502 185.026 247.724 185.12 247.876 185.308C248.028 185.492 248.104 185.752 248.104 186.088V188.129H247.414V186.172C247.414 185.836 247.276 185.668 247 185.668ZM249.868 187.588C250.016 187.588 250.138 187.564 250.234 187.516C250.33 187.464 250.378 187.388 250.378 187.288C250.378 187.2 250.346 187.132 250.282 187.084C250.222 187.032 250.112 186.986 249.952 186.946L249.61 186.856C249.346 186.788 249.15 186.674 249.022 186.514C248.898 186.354 248.836 186.164 248.836 185.944C248.836 185.684 248.926 185.466 249.106 185.29C249.286 185.114 249.564 185.026 249.94 185.026C250.092 185.026 250.252 185.044 250.42 185.08C250.588 185.116 250.764 185.174 250.948 185.254L250.75 185.842C250.582 185.762 250.43 185.706 250.294 185.674C250.158 185.642 250.038 185.626 249.934 185.626C249.65 185.626 249.508 185.722 249.508 185.914C249.508 185.99 249.532 186.05 249.58 186.094C249.632 186.138 249.726 186.178 249.862 186.214L250.204 186.304C250.496 186.38 250.708 186.496 250.84 186.652C250.976 186.808 251.044 187.004 251.044 187.24C251.044 187.52 250.948 187.749 250.756 187.925C250.568 188.101 250.27 188.189 249.862 188.189C249.514 188.189 249.148 188.109 248.764 187.949L248.95 187.378C249.138 187.454 249.308 187.508 249.46 187.54C249.612 187.572 249.748 187.588 249.868 187.588ZM253.583 188.027C253.479 188.075 253.359 188.113 253.223 188.141C253.087 188.173 252.949 188.189 252.809 188.189C252.577 188.189 252.391 188.141 252.251 188.045C252.111 187.949 252.009 187.815 251.945 187.643C251.885 187.47 251.855 187.274 251.855 187.054V185.686H251.363V185.086H251.855V184.294H252.545V185.086H253.493V185.686H252.545V187.054C252.545 187.238 252.579 187.366 252.647 187.438C252.719 187.506 252.821 187.54 252.953 187.54C253.017 187.54 253.085 187.534 253.157 187.522C253.233 187.506 253.317 187.48 253.409 187.444L253.583 188.027ZM256.443 188.159C256.238 188.159 256.074 188.117 255.95 188.033C255.83 187.949 255.742 187.845 255.686 187.721C255.514 187.881 255.348 187.999 255.188 188.075C255.028 188.151 254.856 188.189 254.672 188.189C254.404 188.189 254.206 188.103 254.078 187.931C253.954 187.759 253.892 187.54 253.892 187.276C253.892 187.1 253.924 186.946 253.988 186.814C254.056 186.678 254.166 186.572 254.318 186.496C254.47 186.42 254.678 186.382 254.942 186.382C255.046 186.382 255.154 186.39 255.266 186.406C255.378 186.418 255.49 186.434 255.602 186.454V186.1C255.602 185.932 255.556 185.818 255.464 185.758C255.372 185.694 255.248 185.662 255.092 185.662C254.972 185.662 254.84 185.678 254.696 185.71C254.556 185.742 254.404 185.792 254.24 185.86L254.042 185.272C254.446 185.108 254.812 185.026 255.14 185.026C255.436 185.026 255.664 185.076 255.824 185.176C255.988 185.276 256.102 185.408 256.166 185.572C256.23 185.736 256.262 185.912 256.262 186.1V187.27C256.262 187.33 256.278 187.388 256.31 187.444C256.347 187.496 256.415 187.522 256.515 187.522H256.581V188.159H256.443ZM254.558 187.264C254.558 187.372 254.582 187.458 254.63 187.522C254.678 187.582 254.748 187.613 254.84 187.613C254.932 187.613 255.036 187.588 255.152 187.54C255.268 187.492 255.418 187.38 255.602 187.204V186.946C255.394 186.91 255.19 186.892 254.99 186.892C254.834 186.892 254.722 186.924 254.654 186.988C254.59 187.052 254.558 187.144 254.558 187.264ZM258.788 188.129L258.158 187.108L257.54 188.129H256.82L257.804 186.568L256.886 185.086H257.63L258.194 185.992L258.74 185.086H259.46L258.542 186.538L259.532 188.129H258.788Z" fill="#CFBAE1"/>
<path d="M245.491 191.242H243.648V190.638H246.31V191.211H245.959C246.102 191.375 246.205 191.527 246.268 191.667C246.331 191.807 246.363 191.951 246.363 192.098C246.363 192.424 246.219 192.646 245.932 192.765C246.086 192.94 246.197 193.103 246.263 193.253C246.33 193.404 246.363 193.556 246.363 193.71C246.363 193.955 246.281 194.142 246.116 194.272C245.955 194.401 245.727 194.466 245.433 194.466H243.648V193.862H245.36C245.654 193.862 245.801 193.75 245.801 193.526C245.801 193.439 245.78 193.343 245.738 193.237C245.696 193.132 245.614 193.005 245.491 192.854H243.648V192.25H245.36C245.654 192.25 245.801 192.138 245.801 191.914C245.801 191.827 245.78 191.73 245.738 191.625C245.696 191.52 245.614 191.393 245.491 191.242ZM246.814 195.883V195.248H247.439V195.883H246.814ZM243.648 195.868V195.264H246.31V195.868H243.648ZM245.801 198.002C245.801 197.914 245.78 197.814 245.738 197.702C245.696 197.59 245.614 197.457 245.491 197.303H243.648V196.699H246.31V197.272H245.953C246.097 197.436 246.2 197.592 246.263 197.739C246.33 197.886 246.363 198.035 246.363 198.186C246.363 198.441 246.281 198.635 246.116 198.768C245.955 198.901 245.727 198.968 245.433 198.968H243.648V198.364H245.36C245.654 198.364 245.801 198.243 245.801 198.002ZM246.814 200.386V199.75H247.439V200.386H246.814ZM243.648 200.37V199.766H246.31V200.37H243.648Z" fill="#CFBAE1"/>
<path d="M248.353 192.092L250.54 190.823H251.607V200.005H250.459V192.065L248.866 192.983L248.353 192.092ZM258.914 200.005H253.675V199.113C253.675 198.438 253.756 197.871 253.918 197.412C254.089 196.953 254.315 196.575 254.594 196.278C254.882 195.972 255.201 195.729 255.552 195.549L256.43 195.103C256.844 194.887 257.173 194.662 257.416 194.428C257.668 194.194 257.794 193.856 257.794 193.415V193.186C257.794 192.682 257.65 192.317 257.362 192.092C257.083 191.867 256.668 191.754 256.119 191.754C255.813 191.754 255.489 191.795 255.147 191.876C254.805 191.948 254.427 192.074 254.013 192.254L253.635 191.268C254.085 191.061 254.517 190.913 254.931 190.823C255.354 190.733 255.759 190.688 256.146 190.688C257.146 190.688 257.861 190.922 258.293 191.39C258.725 191.849 258.941 192.448 258.941 193.186V193.415C258.941 193.901 258.847 194.306 258.658 194.631C258.478 194.955 258.235 195.229 257.929 195.454C257.632 195.67 257.312 195.864 256.97 196.035L256.092 196.494C255.669 196.719 255.354 197.03 255.147 197.426C254.949 197.822 254.841 198.326 254.823 198.938H258.914V200.005Z" fill="#CFBAE1"/>
<rect x="285.372" y="199.441" width="64.9339" height="100.382" rx="2.31907" fill="#F2F2F2"/>
<rect x="290.01" y="204.41" width="55.6576" height="71.5598" rx="2.31907" fill="#2B2631"/>
<g filter="url(#filter0_d_2178_6)">
<rect x="300.346" y="199.441" width="64.9339" height="100.382" rx="2.31907" transform="rotate(10.1121 300.346 199.441)" fill="#F2F2F2"/>
<rect x="304.039" y="205.147" width="55.6576" height="71.5598" rx="2.31907" transform="rotate(10.1121 304.039 205.147)" fill="#2B2631"/>
</g>
<g filter="url(#filter1_d_2178_6)">
<rect x="318.384" y="204.41" width="64.9339" height="100.382" rx="2.31907" transform="rotate(21.0125 318.384 204.41)" fill="#F2F2F2"/>
<rect x="320.932" y="210.712" width="55.6576" height="71.5598" rx="2.31907" transform="rotate(21.0125 320.932 210.712)" fill="#2B2631"/>
</g>
<defs>
<filter id="filter0_d_2178_6" x="274.788" y="191.839" width="92.1158" height="120.79" filterUnits="userSpaceOnUse" color-interpolation-filters="sRGB">
<feFlood flood-opacity="0" result="BackgroundImageFix"/>
<feColorMatrix in="SourceAlpha" type="matrix" values="0 0 0 0 0 0 0 0 0 0 0 0 0 0 0 0 0 0 127 0" result="hardAlpha"/>
<feOffset dx="-2.65036" dy="-2.31907"/>
<feGaussianBlur stdDeviation="2.82689"/>
<feComposite in2="hardAlpha" operator="out"/>
<feColorMatrix type="matrix" values="0 0 0 0 0.172292 0 0 0 0 0.0878944 0 0 0 0 0.221154 0 0 0 0.25 0"/>
<feBlend mode="normal" in2="BackgroundImageFix" result="effect1_dropShadow_2178_6"/>
<feBlend mode="normal" in="SourceGraphic" in2="effect1_dropShadow_2178_6" result="shape"/>
</filter>
<filter id="filter1_d_2178_6" x="278.656" y="200.345" width="100.103" height="120.483" filterUnits="userSpaceOnUse" color-interpolation-filters="sRGB">
<feFlood flood-opacity="0" result="BackgroundImageFix"/>
<feColorMatrix in="SourceAlpha" type="matrix" values="0 0 0 0 0 0 0 0 0 0 0 0 0 0 0 0 0 0 127 0" result="hardAlpha"/>
<feOffset dx="-1.98777" dy="-2.31907"/>
<feGaussianBlur stdDeviation="1.21152"/>
<feComposite in2="hardAlpha" operator="out"/>
<feColorMatrix type="matrix" values="0 0 0 0 0.172549 0 0 0 0 0.0862745 0 0 0 0 0.219608 0 0 0 0.25 0"/>
<feBlend mode="normal" in2="BackgroundImageFix" result="effect1_dropShadow_2178_6"/>
<feBlend mode="normal" in="SourceGraphic" in2="effect1_dropShadow_2178_6" result="shape"/>
</filter>
<linearGradient id="paint0_linear_2178_6" x1="193.05" y1="107.885" x2="342.645" y2="566.353" gradientUnits="userSpaceOnUse">
<stop offset="0.552885" stop-color="#1A6235"/>
</linearGradient>
<linearGradient id="paint1_linear_2178_6" x1="291.396" y1="303.186" x2="223.103" y2="259.781" gradientUnits="userSpaceOnUse">
<stop stop-color="#A787C0"/>
<stop offset="1" stop-color="#EDE2F6"/>
</linearGradient>
<radialGradient id="paint2_radial_2178_6" cx="0" cy="0" r="1" gradientUnits="userSpaceOnUse" gradientTransform="translate(216.613 194.587) rotate(-179.938) scale(74.8605 45.2588)">
<stop stop-color="#F7EDFF"/>
<stop offset="1" stop-color="#EDE2F6"/>
</radialGradient>
<radialGradient id="paint3_radial_2178_6" cx="0" cy="0" r="1" gradientUnits="userSpaceOnUse" gradientTransform="translate(220.893 265.207) rotate(64.692) scale(53.5211 432.782)">
<stop offset="0.701239" stop-color="#C3AAD7"/>
<stop offset="1" stop-color="#E9DBF4"/>
</radialGradient>
<linearGradient id="paint4_linear_2178_6" x1="218.483" y1="269.788" x2="215.503" y2="261.554" gradientUnits="userSpaceOnUse">
<stop stop-color="#462B6A"/>
<stop offset="1" stop-color="#B4A7C6"/>
</linearGradient>
<linearGradient id="paint5_linear_2178_6" x1="219.392" y1="231.263" x2="219.392" y2="298.776" gradientUnits="userSpaceOnUse">
<stop stop-color="#C5B1D6"/>
<stop offset="1" stop-color="#E7D5F7"/>
</linearGradient>
<linearGradient id="paint6_linear_2178_6" x1="219.392" y1="224.137" x2="219.392" y2="305.902" gradientUnits="userSpaceOnUse">
<stop stop-color="#C5B1D6"/>
<stop offset="1" stop-color="#EEDFFB"/>
</linearGradient>
<linearGradient id="paint7_linear_2178_6" x1="161.444" y1="199.007" x2="153.755" y2="199.007" gradientUnits="userSpaceOnUse">
<stop stop-color="#EBDEF7"/>
<stop offset="1" stop-color="#BAA9C9"/>
</linearGradient>
<linearGradient id="paint8_linear_2178_6" x1="139.314" y1="188.13" x2="161.444" y2="188.13" gradientUnits="userSpaceOnUse">
<stop stop-color="#EDE2F6"/>
<stop offset="1" stop-color="#BAA9C9"/>
</linearGradient>
<linearGradient id="paint9_linear_2178_6" x1="139.502" y1="198.913" x2="143.253" y2="198.913" gradientUnits="userSpaceOnUse">
<stop stop-color="#FDF0FF"/>
<stop offset="1" stop-color="#BFAFCD"/>
</linearGradient>
<linearGradient id="paint10_linear_2178_6" x1="163.855" y1="277.49" x2="144.003" y2="277.49" gradientUnits="userSpaceOnUse">
<stop stop-color="#F7EDFF"/>
<stop offset="1" stop-color="#EDE2F6"/>
</linearGradient>
<linearGradient id="paint11_linear_2178_6" x1="149.066" y1="223.387" x2="149.066" y2="238.014" gradientUnits="userSpaceOnUse">
<stop stop-color="#C5B1D6"/>
<stop offset="1" stop-color="#EEDFFB"/>
</linearGradient>
<linearGradient id="paint12_linear_2178_6" x1="188.261" y1="258.268" x2="197.826" y2="273.271" gradientUnits="userSpaceOnUse">
<stop offset="0.418269" stop-color="#F2F2F2"/>
<stop offset="1" stop-color="#D8D8D8"/>
</linearGradient>
<linearGradient id="paint13_linear_2178_6" x1="139.325" y1="256.768" x2="139.325" y2="324.656" gradientUnits="userSpaceOnUse">
<stop stop-color="#C3AAD7"/>
<stop offset="1" stop-color="#EDE2F6"/>
</linearGradient>
</defs>
</svg>
