<svg width="617" height="617" viewBox="0 0 617 617" fill="none" xmlns="http://www.w3.org/2000/svg">
<g filter="url(#filter0_d_2037_96)">
<circle cx="308.5" cy="308.5" r="247.5" fill="#F8735B"/>
</g>
<path fill-rule="evenodd" clip-rule="evenodd" d="M307 61.0005C446.641 260.305 452.109 368.92 307 556C307.167 556 307.333 556 307.5 556C444.19 556 555 445.19 555 308.5C555 171.81 444.19 61 307.5 61C307.333 61 307.167 61.0002 307 61.0005Z" fill="#E55039"/>
<path d="M60.9763 370C11.5479 463.751 608.131 465.578 552.381 370" stroke="#93131E" stroke-width="6" stroke-linecap="round"/>
<path d="M68.8926 229.314C20.6427 135.149 603 133.313 548.58 229.314" stroke="#93131E" stroke-width="6" stroke-linecap="round"/>
<circle cx="383.5" cy="159.5" r="14.5" fill="#FFD374"/>
<circle cx="383.5" cy="159.5" r="11.5" fill="#FFF1D3"/>
<ellipse cx="204.063" cy="435.5" rx="11" ry="10.5" fill="#FFD374"/>
<path d="M336.364 341.021C336.602 341.252 336.867 341.226 336.747 341.781C336.619 341.781 336.492 341.781 336.364 341.781V341.013V341.021Z" fill="white"/>
<path d="M345.356 302.807L358.7 303.191C356.78 315.75 354.502 328.889 352.275 341.508C352.275 341.55 352.173 341.585 352.054 341.602C351.414 341.815 350.433 341.755 349.759 341.602C346.892 341.764 344.017 341.764 341.15 341.602C340.28 341.67 339.392 341.738 338.471 341.789C338.215 341.764 338.01 341.917 338.104 341.525L345.356 302.807Z" fill="white"/>
<path d="M345.356 302.807L359.127 303.004L352.438 341.713C352.335 341.798 352.173 341.772 352.045 341.798C351.874 341.747 351.883 341.678 352.045 341.61L358.546 303.388L345.348 302.816L345.356 302.807Z" fill="white"/>
<path d="M349.759 341.602C349.929 341.653 349.921 341.721 349.759 341.789C346.9 341.823 344.008 341.823 341.15 341.789C340.979 341.738 340.988 341.67 341.15 341.602C344.017 341.602 346.892 341.602 349.759 341.602Z" fill="white"/>
<path d="M341.15 341.601V341.789C340.288 341.781 339.307 341.866 338.471 341.789C339.188 341.439 340.305 341.601 341.15 341.601Z" fill="white"/>
<path d="M352.054 341.602V341.789C351.422 341.892 350.458 341.781 349.759 341.789V341.602H352.054Z" fill="white"/>
<path d="M277.639 340.834V341.602C278.083 341.61 278.535 341.585 278.978 341.602V341.789C278.467 341.781 277.955 341.798 277.451 341.789C277.281 341.405 277.613 341.03 277.648 340.834H277.639Z" fill="white"/>
<path d="M245.5 313.507C244.8 313.507 244.092 313.481 243.392 313.507C243.879 313.182 245.047 313.191 245.5 313.507Z" fill="white"/>
<path d="M314.181 313.507C314.351 313.558 314.343 313.626 314.181 313.694C313.626 313.728 313.106 313.865 312.654 313.882C312.483 313.831 312.492 313.763 312.654 313.694C313.106 313.652 313.567 313.524 314.181 313.507Z" fill="white"/>
<path d="M312.645 313.694V313.882C312.261 313.899 311.877 313.865 311.493 313.882C311.306 313.984 311.075 314.053 310.922 313.882C311.314 313.498 312.09 313.737 312.645 313.694Z" fill="white"/>
<path d="M247.795 313.694C247.436 313.652 247.018 313.711 246.643 313.694V313.507C247.001 313.507 247.581 313.379 247.795 313.694Z" fill="white"/>
<path d="M275.156 313.89L270.37 341.601C265.822 341.789 261.292 341.789 256.787 341.601L256.617 341.542L261.514 313.941L275.156 313.89Z" fill="white"/>
<path d="M274.576 304.147C274.764 304.215 274.96 304.266 275.148 304.335C275.446 304.471 275.711 304.642 275.916 304.906C278.868 307.824 275.847 310.162 272.853 311.117C270.233 311.954 263.476 312.039 262.521 308.729C262.043 307.833 262.273 306.954 262.836 306.169C264.961 303.157 271.547 302.304 274.576 304.147Z" fill="white"/>
<path d="M275.156 313.89L261.659 314.069L256.796 341.602C256.966 341.653 256.958 341.721 256.796 341.789C256.651 341.781 256.378 341.858 256.42 341.695L261.403 313.703L275.165 313.882L275.156 313.89Z" fill="white"/>
<path d="M262.529 308.729C261.446 307.389 262.725 305.777 263.809 304.94C266.411 302.918 270.703 302.569 273.774 303.524C274.098 303.627 274.695 303.644 274.585 304.147C272.75 303.49 271.496 303.243 269.508 303.371C266.914 303.541 261.556 305.333 262.538 308.729H262.529Z" fill="white"/>
<path d="M270.37 341.602L269.909 341.806C265.635 341.542 261.019 342.122 256.787 341.798V341.61H270.37V341.602Z" fill="white"/>
<path d="M275.916 304.906L275.148 304.335C276.112 304.685 275.557 304.557 275.916 304.906Z" fill="white"/>
<path d="M297.919 305.29C297.697 306.237 296.443 313.114 296.58 313.507C298.866 313.575 301.161 313.643 303.465 313.694L302.108 319.411L295.24 319.428L291.222 341.593C289.925 341.755 288.346 341.738 287.015 341.593C286.256 341.738 285.488 341.738 284.72 341.593C282.826 341.755 280.873 341.798 278.978 341.593C277.699 341.952 277.255 341.696 277.639 340.825C277.818 339.674 278.014 338.539 278.211 337.387C278.347 337.089 278.415 336.773 278.398 336.432C278.467 336.048 278.518 335.664 278.586 335.288C278.723 334.99 278.791 334.674 278.774 334.333C278.842 333.957 278.893 333.565 278.961 333.189C279.098 332.891 279.166 332.575 279.149 332.234C279.661 329.427 280.181 326.628 280.676 323.822C280.813 323.523 280.881 323.207 280.864 322.866C280.932 322.491 280.992 322.098 281.052 321.723C281.188 321.424 281.256 321.108 281.239 320.767C281.316 320.341 281.35 319.863 281.427 319.428H276.265C276.479 317.679 277.127 315.836 277.221 314.078C277.229 313.797 277.315 313.634 277.477 313.592L282.007 313.609C282.417 313.635 282.673 313.532 282.767 313.31C282.767 313.251 282.767 313.182 282.767 313.123L282.954 312.167C283.082 310.964 283.253 309.309 283.526 308.157L283.552 307.995C288.261 306.997 292.971 306.024 297.697 305.069L297.876 305.29H297.919Z" fill="white"/>
<path d="M283.569 308.157C283.594 308.055 283.517 307.909 283.586 307.79L298.107 304.719C298.235 305.026 297.936 305.196 297.919 305.29L283.569 308.157Z" fill="white"/>
<path d="M303.465 313.694C301.451 313.506 299.003 313.95 297.049 313.703C296.836 313.677 296.673 313.788 296.58 313.506C298.627 313.668 300.982 313.293 302.996 313.506C303.192 313.523 303.465 313.412 303.473 313.703L303.465 313.694Z" fill="white"/>
<path d="M282.801 313.319C282.801 313.447 282.809 313.575 282.801 313.703C281.214 313.814 279.465 313.558 277.903 313.694C277.52 313.728 277.434 313.72 277.255 314.087C277.264 313.899 277.247 313.703 277.255 313.515C277.511 313.293 282.067 313.814 282.801 313.327V313.319Z" fill="white"/>
<path d="M284.72 341.602C284.891 341.653 284.882 341.721 284.72 341.79C282.818 341.79 280.89 341.841 278.978 341.79C278.808 341.738 278.816 341.67 278.978 341.602C280.881 341.653 282.809 341.602 284.72 341.602Z" fill="white"/>
<path d="M291.222 341.602L291.418 341.79C289.95 341.798 288.483 341.79 287.015 341.79C286.845 341.738 286.853 341.67 287.015 341.602H291.222Z" fill="white"/>
<path d="M287.015 341.602V341.79C286.256 341.79 285.48 341.79 284.72 341.79V341.602C285.48 341.602 286.256 341.602 287.015 341.602Z" fill="white"/>
<path d="M278.595 335.288C278.654 334.964 278.731 334.64 278.782 334.333C278.774 334.64 278.902 335.126 278.595 335.288Z" fill="white"/>
<path d="M278.211 337.395C278.27 337.063 278.347 336.747 278.398 336.44C278.39 336.747 278.518 337.233 278.211 337.395Z" fill="white"/>
<path d="M278.978 333.19C279.038 332.865 279.115 332.541 279.166 332.234C279.158 332.541 279.286 333.027 278.978 333.19Z" fill="white"/>
<path d="M281.086 321.722C281.146 321.39 281.222 321.083 281.274 320.767C281.265 321.074 281.393 321.56 281.086 321.722Z" fill="white"/>
<path d="M280.702 323.83C280.762 323.506 280.838 323.182 280.89 322.874C280.881 323.182 281.009 323.668 280.702 323.83Z" fill="white"/>
<path d="M282.801 313.123C282.826 312.79 282.707 312.449 282.988 312.167C282.954 312.466 283.125 312.961 282.801 313.123Z" fill="white"/>
<path d="M328.719 313.319C333.232 313.489 338.701 314.82 338.403 320.417C337.874 324.785 337.055 329.12 335.954 333.42C335.169 335.928 335.058 338.274 335.613 340.458C335.792 340.655 336.184 340.834 336.381 341.03C336.568 341.277 336.747 341.67 336.381 341.798C332.669 341.951 326.219 342.225 322.696 341.806C322.499 341.781 322.039 341.721 322.039 341.508V338.547C321.006 338.744 319.931 339.383 318.976 339.887L318.02 340.271C317.406 340.561 316.766 340.834 316.109 341.039C315.81 341.013 315.495 341.081 315.153 341.226C314.155 341.61 312.415 341.909 311.331 341.994C310.768 341.849 310.171 341.824 309.608 341.994C309.036 342.02 308.456 341.994 307.884 341.994C306.997 341.824 306.093 341.858 305.205 341.994C303.422 341.866 301.34 341.38 299.864 340.356C297.202 338.496 295.965 335.979 297.219 332.771C299.199 327.712 306.05 326.731 310.76 326.133C311.161 326.142 311.544 326.082 311.911 325.946C312.039 325.937 312.167 325.946 312.295 325.946L313.635 325.758C313.822 325.758 314.019 325.758 314.206 325.758L315.358 325.57C315.614 325.57 315.87 325.57 316.126 325.57L317.466 325.383C317.721 325.383 317.977 325.4 318.233 325.383C318.66 325.255 319.112 325.186 319.573 325.195C320.776 325.007 324.086 324.402 324.632 323.275C325.178 322.149 324.854 320.989 323.668 320.443C321.074 319.24 314.258 320.042 311.28 320.443C308.541 320.818 305.845 321.501 303.124 321.944L305.7 314.871C305.973 314.53 306.442 314.743 306.75 314.684C306.886 314.377 307.202 314.308 307.705 314.496C307.833 314.496 307.961 314.496 308.089 314.496C308.507 314.24 309.087 314.112 309.812 314.112C310.034 313.941 310.341 313.967 310.58 314.112C310.879 314.044 311.195 313.984 311.536 313.924C311.843 313.737 312.346 313.788 312.688 313.924C313.106 313.728 313.763 313.6 314.215 313.737C314.496 313.668 314.812 313.609 315.17 313.549C315.597 313.37 316.075 313.395 316.51 313.549C316.877 313.498 317.261 313.43 317.662 313.361C318.208 313.174 318.831 313.216 319.385 313.361C320.051 313.225 320.75 313.157 321.493 313.174C323.89 312.977 326.381 312.986 328.762 313.361L328.719 313.319ZM311.306 333.002C311.075 333.769 310.998 333.71 311.306 334.529C311.715 335.621 312.978 335.783 314.07 335.877C318.643 336.244 323.455 334.478 323.352 329.179C320.307 330.05 316.604 330.024 313.635 331.039C312.457 331.44 311.672 331.773 311.297 333.002H311.306Z" fill="white"/>
<path d="M335.604 340.45C335.016 339.801 334.981 339.298 335.033 338.445C335.331 333.266 337.456 326.935 338.07 321.603C338.821 315.119 334.222 313.873 328.719 313.31C328.548 313.259 328.557 313.191 328.719 313.122C332.678 313.464 338.744 314.504 338.676 319.709C338.599 325.408 335.783 332.652 335.442 338.47C335.399 339.213 335.545 339.742 335.613 340.45H335.604Z" fill="white"/>
<path d="M328.719 313.123V313.31C326.305 313.063 323.873 313.088 321.45 313.123H319.923C320.119 312.807 320.648 312.935 320.972 312.926C323.574 312.901 326.151 312.901 328.719 313.123Z" fill="white"/>
<path d="M307.867 341.977C306.997 341.977 306.041 342.037 305.188 341.977C305.871 341.653 307.227 341.661 307.867 341.977Z" fill="white"/>
<path d="M319.343 313.122C319.513 313.174 319.505 313.242 319.343 313.31C318.771 313.327 318.191 313.31 317.619 313.31C317.363 313.43 317.099 313.472 316.851 313.31C317.491 312.96 318.549 313.122 319.334 313.122H319.343Z" fill="white"/>
<path d="M319.914 313.122C320.426 313.122 320.938 313.122 321.441 313.122C320.955 313.122 320.034 313.293 319.334 313.31V313.122C319.522 313.122 319.718 313.122 319.906 313.122H319.914Z" fill="white"/>
<path d="M316.476 313.319C316.646 313.37 316.638 313.438 316.476 313.506C316.032 313.506 315.58 313.506 315.136 313.506C314.949 313.617 314.718 313.677 314.565 313.506C315.008 313.157 315.879 313.319 316.476 313.319Z" fill="white"/>
<path d="M309.394 314.078C309.539 313.993 309.667 313.941 309.778 314.078C309.429 314.223 308.388 314.453 308.055 314.462C307.876 313.848 308.831 314.095 309.394 314.078Z" fill="white"/>
<path d="M311.306 341.977C310.742 342.02 310.154 341.952 309.582 341.977C309.94 341.653 310.947 341.653 311.306 341.977Z" fill="white"/>
<path d="M317.431 325.357C317.167 325.69 316.51 325.545 316.092 325.545C316.356 325.212 317.013 325.357 317.431 325.357Z" fill="white"/>
<path d="M313.601 325.741C313.336 326.073 312.679 325.92 312.261 325.928C312.526 325.596 313.183 325.741 313.601 325.741Z" fill="white"/>
<path d="M319.53 325.161C319.061 325.237 318.779 325.314 318.191 325.348C318.464 324.99 319.112 325.203 319.53 325.161Z" fill="white"/>
<path d="M315.324 325.545C315.119 325.869 314.539 325.732 314.172 325.732C314.377 325.408 314.957 325.545 315.324 325.545Z" fill="white"/>
<path d="M311.877 325.929C311.664 326.27 311.092 326.091 310.725 326.116C311.067 326.074 311.391 325.963 311.877 325.929Z" fill="white"/>
<path d="M318.959 339.878C318.686 340.023 318.489 340.373 318.003 340.262C318.25 340.143 318.481 339.75 318.959 339.878Z" fill="white"/>
<path d="M307.671 314.462C307.304 314.36 306.997 314.598 306.715 314.65C306.587 313.814 307.424 314.453 307.671 314.462Z" fill="white"/>
<path d="M316.851 313.319C317.107 313.319 317.363 313.319 317.619 313.319C317.414 313.643 316.834 313.506 316.467 313.506V313.319C316.595 313.319 316.723 313.319 316.851 313.319Z" fill="white"/>
<path d="M310.546 313.89C310.717 313.942 310.708 314.01 310.546 314.078C310.29 314.078 310.034 314.078 309.778 314.078C309.65 314.078 309.522 314.078 309.394 314.078C309.599 313.754 310.179 313.89 310.546 313.89Z" fill="white"/>
<path d="M316.092 341.021C315.776 341.115 315.512 341.294 315.136 341.209C315.375 341.115 315.896 340.586 316.092 341.021Z" fill="white"/>
<path d="M314.556 313.506C314.744 313.506 314.94 313.506 315.128 313.506C314.966 313.822 314.479 313.677 314.172 313.694V313.506C314.3 313.506 314.428 313.506 314.556 313.506Z" fill="white"/>
<path d="M310.922 313.89C311.109 313.89 311.306 313.89 311.493 313.89C311.331 314.197 310.845 314.078 310.538 314.078V313.89C310.666 313.89 310.794 313.89 310.922 313.89Z" fill="white"/>
<path d="M311.306 334.529C310.998 333.71 311.075 333.769 311.306 333.002V334.529Z" fill="white"/>
<path d="M154.064 342.361C153.356 342.327 152.793 342.233 152.153 342.173V341.986C152.759 342.071 153.535 342.054 154.064 342.37V342.361Z" fill="white"/>
<path d="M156.547 342.361C155.787 342.352 155.011 342.387 154.252 342.361C154.798 342.037 156.035 342.045 156.547 342.361Z" fill="white"/>
<path d="M169.942 302.611L170.897 302.799C171.153 302.799 171.409 302.773 171.665 302.799L172.621 302.987C174.685 303.439 176.742 304.002 178.729 304.727L177.023 314.453C176.955 314.496 176.426 314.308 176.264 314.257L174.54 313.302C168.687 311.041 162.203 310.819 156.623 314.035C151.018 317.26 146.547 325.477 152.733 330.408C155.924 332.959 160.881 332.993 164.788 332.797L166.128 332.609C166.469 332.481 166.785 332.481 167.083 332.609C167.391 332.567 167.63 332.421 167.655 332.421C168.124 332.439 168.568 332.379 168.995 332.234C169.114 332.217 169.259 332.251 169.379 332.234C169.908 331.986 170.488 331.858 171.102 331.85C171.469 331.765 172.117 331.568 172.441 331.756L170.684 341.465C170.471 342.02 169.489 341.73 168.995 341.789L168.039 341.977C167.408 342.011 166.759 341.977 166.128 341.977L164.601 342.165C163.509 342.199 162.442 342.327 161.35 342.353C159.891 342.207 158.407 342.199 156.948 342.353C156.82 342.353 156.692 342.353 156.564 342.353C155.804 342.182 155.028 342.207 154.269 342.353C154.209 342.353 154.141 342.353 154.081 342.353C153.407 342.25 152.767 342.122 152.17 341.969C144.261 341.235 133.767 337.498 132.845 328.403V323.813C134.884 306.425 155.062 301.263 169.959 302.603L169.942 302.611Z" fill="white"/>
<path d="M170.513 302.611C170.368 302.79 170.129 302.714 169.942 302.611C158.108 302.415 144.099 304.173 136.693 314.59C134.637 317.482 133.639 320.383 132.828 323.821V319.231C138.434 305.623 154.653 301.596 168.133 302.219C168.824 302.253 169.856 302.406 170.513 302.611Z" fill="white"/>
<path d="M152.153 341.977C152.323 342.029 152.315 342.097 152.153 342.165C144.798 341.457 136.548 338.693 132.828 331.85V328.412C133.34 329.487 133.485 330.622 134.006 331.731C137.034 338.249 145.532 341.047 152.153 341.986V341.977Z" fill="white"/>
<path d="M161.333 342.361C159.874 342.395 158.39 342.37 156.931 342.361C158.236 342.045 160.028 342.045 161.333 342.361Z" fill="white"/>
<path d="M176.255 314.274C175.658 314.104 174.882 313.839 174.532 313.319C175.129 313.549 175.897 313.703 176.255 314.274Z" fill="white"/>
<path d="M171.085 331.85C170.488 331.987 169.984 332.132 169.362 332.234C169.754 331.696 170.496 331.867 171.085 331.85Z" fill="white"/>
<path d="M166.111 341.977C165.787 342.327 165.061 342.156 164.584 342.165C164.899 341.824 165.633 341.977 166.111 341.977Z" fill="white"/>
<path d="M168.986 332.234C168.713 332.592 168.065 332.379 167.647 332.421C168.013 332.379 168.56 332.293 168.986 332.234Z" fill="white"/>
<path d="M166.111 332.618C165.565 332.737 165.394 332.78 164.771 332.805C165.036 332.473 165.693 332.618 166.111 332.618Z" fill="white"/>
<path d="M168.986 341.79C168.798 341.815 168.491 341.952 168.031 341.977C168.193 341.67 168.679 341.798 168.986 341.79Z" fill="white"/>
<path d="M167.066 332.618C166.785 332.66 166.418 332.618 166.111 332.618C166.29 332.575 166.785 332.114 167.066 332.618Z" fill="white"/>
<path d="M172.621 302.995C172.313 302.987 171.827 303.115 171.665 302.807C172.151 302.85 172.254 302.918 172.621 302.995Z" fill="white"/>
<path d="M170.513 302.611C170.675 302.62 170.846 302.611 170.897 302.799C170.59 302.799 170.104 302.91 169.942 302.611C170.129 302.611 170.326 302.594 170.513 302.611Z" fill="white"/>
<path d="M243.017 313.695C244.177 313.49 245.491 313.507 246.651 313.695C246.958 313.515 247.453 313.541 247.803 313.695C256.454 314.676 259.057 323.293 256.497 330.699C254.091 337.669 247.743 341.679 240.534 342.174C239.519 342.037 238.486 342.029 237.471 342.174C237.283 342.174 237.087 342.182 236.899 342.174L235.944 341.986C235.816 341.969 235.679 342.003 235.56 341.986C235.082 341.858 234.638 341.73 234.22 341.602C233.785 341.636 233.214 341.329 232.881 341.031C232.284 341.329 229.502 338.855 229.673 338.753C229.775 338.684 230.031 339.145 229.63 339.119C229.11 343.198 228.163 347.259 227.48 351.311C227.378 351.414 227.216 351.329 227.148 351.354C222.737 351.516 218.3 351.533 213.863 351.397L220.322 314.266L220.646 314.087C224.4 313.806 228.47 313.891 232.318 314.087C232.429 314.13 232.719 313.976 232.71 314.198C232.292 315.256 232.326 316.467 232.13 317.525C232.574 317.611 231.925 318.14 231.959 318.114C235.116 315.384 238.819 313.712 243.034 313.703L243.017 313.695ZM239.766 332.806C240.116 332.652 240.201 332.618 240.534 332.422C240.773 332.285 240.892 332.217 241.106 332.038C241.396 331.808 241.455 331.705 241.677 331.466C244.049 328.898 245.499 323.395 241.865 321.339C238.529 319.454 233.7 320.972 232.07 324.453C229.076 330.844 233.103 335.681 239.758 332.806H239.766Z" fill="white"/>
<path d="M220.629 313.891C220.8 313.942 220.791 314.01 220.629 314.078L214.128 351.345H227.139C226.892 351.439 226.866 351.524 226.491 351.55C222.327 351.857 217.763 351.294 213.556 351.533L220.075 313.899C220.262 313.848 220.45 313.899 220.638 313.891H220.629Z" fill="white"/>
<path d="M243.017 313.507C243.187 313.558 243.179 313.626 243.017 313.695C239.143 313.942 234.809 315.572 232.011 318.276C231.405 318.387 232.087 317.645 232.113 317.517C235.219 315.008 239.041 313.703 243.017 313.507Z" fill="white"/>
<path d="M232.301 314.078H220.629V313.891C222.353 313.754 231.158 313.66 232.301 314.078Z" fill="white"/>
<path d="M232.872 341.022C232.992 341.081 232.992 341.141 232.872 341.209C232.403 341.022 232.122 341.056 231.55 340.715C230.774 340.254 230.321 339.631 229.622 339.111C229.647 338.931 229.519 338.59 229.716 338.539C230.688 339.588 231.55 340.424 232.872 341.022Z" fill="white"/>
<path d="M243.401 313.507C244.092 313.327 244.817 313.336 245.508 313.507C245.892 313.507 246.276 313.507 246.66 313.507C246.831 313.558 246.822 313.626 246.66 313.694C245.551 313.635 244.134 313.626 243.025 313.694V313.507C243.153 313.507 243.281 313.507 243.409 313.507H243.401Z" fill="white"/>
<path d="M240.525 342.174C239.578 342.242 238.427 342.208 237.462 342.174C238.282 341.849 239.749 341.858 240.525 342.174Z" fill="white"/>
<path d="M234.212 341.602C234.383 341.653 234.374 341.722 234.212 341.79C233.657 341.645 233.299 341.389 232.872 341.218V341.031C233.222 341.193 233.888 341.508 234.212 341.602Z" fill="white"/>
<path d="M235.551 341.977C235.108 341.909 234.647 341.901 234.212 341.79V341.602C234.587 341.713 235.227 341.542 235.551 341.986V341.977Z" fill="white"/>
<path d="M236.891 342.174C236.439 342.148 236.115 342.003 235.935 341.986C236.242 341.994 236.729 341.866 236.891 342.174Z" fill="white"/>
<path d="M241.677 331.474H241.49C243.239 329.495 244.484 324.802 242.914 322.507C242.624 322.089 242.112 321.816 241.873 321.347C245.5 323.403 244.058 328.906 241.686 331.474H241.677Z" fill="white"/>
<path d="M241.106 331.85C241.191 331.91 241.191 331.97 241.106 332.038C240.884 332.217 240.764 332.285 240.534 332.422H240.346C240.491 332.311 241.071 331.884 241.114 331.85H241.106Z" fill="white"/>
<path d="M240.338 332.43H240.525C240.193 332.618 240.107 332.66 239.758 332.814C239.8 332.439 240.235 332.507 240.329 332.43H240.338Z" fill="white"/>
<path d="M241.677 331.475C241.455 331.722 241.396 331.816 241.106 332.046V331.859C241.2 331.773 241.413 331.56 241.49 331.475H241.677Z" fill="white"/>
<path d="M200.545 313.123C201.296 312.961 202.09 312.969 202.84 313.123C203.651 312.952 204.521 312.944 205.323 313.123L206.475 313.31C211.065 313.72 215.962 314.914 215.664 320.486C215.365 326.057 212.976 332.473 212.601 338.061C212.524 339.153 212.481 339.682 213.172 340.544C213.403 340.834 214.802 341.576 213.36 341.79C212.507 341.739 211.679 341.67 210.877 341.602C207.883 341.773 204.879 341.764 201.885 341.602C201.219 341.764 200.272 341.781 199.59 341.602L199.197 341.414L199.24 338.829L198.822 338.744C195.785 340.467 191.015 341.756 187.534 341.994C186.391 341.867 185.231 341.832 184.087 341.994C183.831 341.994 183.575 341.994 183.32 341.994L181.596 341.807C181.468 341.807 181.34 341.807 181.212 341.807C169.421 339.614 172.953 327.9 183.32 326.902C183.712 326.714 184.156 326.586 184.659 326.518C185.017 326.449 185.401 326.39 185.811 326.33C186.016 326.134 186.34 326.211 186.579 326.33C186.707 326.322 186.835 326.339 186.963 326.33C187.125 325.963 187.739 326.031 188.114 326.142C188.242 326.134 188.37 326.151 188.498 326.142C188.746 325.75 189.403 325.861 189.838 325.955C189.966 325.938 190.094 325.972 190.222 325.955C190.444 325.613 191.049 325.622 191.374 325.767C191.681 325.699 191.996 325.639 192.329 325.579C192.585 325.357 192.986 325.477 193.285 325.579C193.541 325.562 193.797 325.596 194.053 325.579C194.326 325.204 194.957 325.289 195.392 325.392C195.64 325.366 195.913 325.426 196.16 325.392C196.288 325.059 196.791 325.093 197.116 325.204C199.428 324.76 204.171 323.31 200.938 320.426C197.465 319.121 190.683 320.085 186.937 320.673C184.83 320.998 182.5 321.8 180.47 321.766C180.333 321.714 180.137 321.595 180.163 321.51C180.436 320.673 182.492 315.068 182.748 314.812C183.405 314.155 190.725 313.558 192.414 313.43C195.119 313.217 197.849 313.029 200.554 313.174L200.545 313.123ZM200.161 329.18C197.243 330.076 193.95 330.067 191.169 330.997C190.034 331.381 188.806 332.089 188.567 333.386C188.021 336.312 193.276 335.997 194.991 335.681C195.58 335.579 195.708 335.442 196.143 335.297C199.257 334.256 200.716 332.763 200.929 329.274C200.963 328.676 200.426 329.103 200.161 329.18Z" fill="white"/>
<path d="M183.328 326.697C183.499 326.748 183.49 326.816 183.328 326.885C180.214 327.584 176.281 329.214 174.873 332.294C173.397 335.536 174.301 337.737 176.912 339.879C178.294 341.013 179.6 341.184 181.221 341.781C175.829 341.423 171.076 336.901 174.446 331.475C176.247 328.591 180.137 327.175 183.328 326.68V326.697Z" fill="white"/>
<path d="M200.545 312.935C200.716 312.986 200.707 313.055 200.545 313.123C197.841 313.174 195.111 313.276 192.414 313.507C189.335 313.771 186.237 314.249 183.175 314.693L180.453 321.723C180.077 321.723 179.583 322.124 179.685 321.629L182.21 314.787L182.603 314.411C188.55 313.473 194.522 312.961 200.545 312.935Z" fill="white"/>
<path d="M197.107 325.161C196.936 325.11 196.945 325.042 197.107 324.974C199.53 324.496 203.241 323.463 200.929 320.383C202.149 320.844 202.456 321.066 202.252 322.568C201.996 324.445 198.685 324.905 197.107 325.161Z" fill="white"/>
<path d="M199.59 341.602C199.76 341.653 199.752 341.721 199.59 341.79C199.334 341.772 199.078 341.807 198.822 341.79V338.735C198.916 338.684 199.359 337.745 199.564 338.471C199.786 339.281 199.462 340.697 199.59 341.602Z" fill="white"/>
<path d="M210.877 341.602C211.048 341.653 211.04 341.721 210.877 341.789C207.891 341.841 204.871 341.815 201.885 341.789C201.714 341.738 201.723 341.67 201.885 341.602C204.88 341.602 207.883 341.593 210.877 341.602Z" fill="white"/>
<path d="M187.543 341.977C186.451 342.054 185.214 341.977 184.096 341.977C185.052 341.653 186.57 341.653 187.543 341.977Z" fill="white"/>
<path d="M205.716 313.123C205.63 313.276 205.494 313.208 205.332 313.123C204.504 313.106 203.668 313.123 202.849 313.123C202.678 313.071 202.687 313.003 202.849 312.935C203.753 312.935 204.931 312.773 205.716 313.123Z" fill="white"/>
<path d="M213.36 341.79C212.652 341.892 211.637 341.772 210.877 341.79V341.602C211.662 341.602 212.729 341.44 213.36 341.79Z" fill="white"/>
<path d="M202.84 312.935V313.123C202.081 313.123 201.305 313.106 200.545 313.123V312.935C201.305 312.935 202.081 312.935 202.84 312.935Z" fill="white"/>
<path d="M201.885 341.602V341.79C201.126 341.79 200.341 341.832 199.59 341.79V341.602H201.885Z" fill="white"/>
<path d="M184.284 326.501C184.42 326.415 184.54 326.381 184.668 326.501C184.326 326.765 183.763 326.782 183.328 326.884V326.697C183.618 326.654 183.832 326.543 184.284 326.509V326.501Z" fill="white"/>
<path d="M183.328 341.977C182.791 341.977 181.98 342.131 181.605 341.79C182.151 341.807 182.944 341.628 183.328 341.977Z" fill="white"/>
<path d="M185.623 326.313H185.811C185.598 326.637 185.026 326.492 184.659 326.501C184.531 326.501 184.403 326.492 184.275 326.501C184.54 326.168 185.197 326.313 185.615 326.313H185.623Z" fill="white"/>
<path d="M195.384 325.357C194.94 325.4 194.385 325.528 194.044 325.545C193.822 324.956 195.034 325.042 195.384 325.357Z" fill="white"/>
<path d="M189.838 325.929C189.369 325.98 188.882 326.082 188.498 326.117C188.277 325.528 189.488 325.613 189.838 325.929Z" fill="white"/>
<path d="M191.365 325.545C191.536 325.596 191.527 325.664 191.365 325.733C190.904 325.767 190.555 325.886 190.213 325.92C190.051 325.315 190.819 325.554 191.365 325.536V325.545Z" fill="white"/>
<path d="M193.276 325.545C192.961 325.562 192.636 325.528 192.321 325.545C192.193 325.647 192.073 325.656 191.937 325.545C192.176 325.229 193.037 325.229 193.276 325.545Z" fill="white"/>
<path d="M188.114 326.117C187.688 326.159 187.27 326.279 186.963 326.304C186.758 325.733 187.773 325.793 188.114 326.117Z" fill="white"/>
<path d="M205.716 313.123C205.997 313.14 206.262 313.071 206.483 313.31C206.125 313.276 205.554 313.464 205.332 313.123C205.46 313.123 205.588 313.123 205.716 313.123Z" fill="white"/>
<path d="M197.107 324.973V325.161C196.783 325.212 196.399 325.323 196.151 325.349C196.006 324.692 196.629 325.059 197.107 324.965V324.973Z" fill="white"/>
<path d="M191.937 325.545C192.065 325.545 192.193 325.545 192.321 325.545C192.159 325.861 191.672 325.716 191.365 325.733V325.545C191.553 325.545 191.749 325.545 191.937 325.545Z" fill="white"/>
<path d="M186.579 326.313C186.323 326.33 186.067 326.313 185.811 326.313C185.751 326.313 185.683 326.313 185.623 326.313C185.751 326.014 186.451 326.014 186.579 326.313Z" fill="white"/>
<path d="M200.161 329.18C200.426 329.103 200.963 328.676 200.929 329.273C200.716 332.763 199.257 334.248 196.143 335.297H195.955C198.728 334.137 200.033 332.208 200.161 329.18Z" fill="white"/>
<path d="M195.955 335.288H196.143C195.708 335.433 195.58 335.561 194.991 335.672C195.196 335.348 195.588 335.28 195.947 335.288H195.955Z" fill="white"/>
<path d="M421.11 253.314C429.898 253.852 451.492 257.273 455.118 266.641C458.514 275.412 447.175 286.998 441.297 292.492C431.86 301.323 421.085 308.643 410.488 315.989C410.369 315.059 409.72 316.595 409.439 315.708C407.801 310.546 405.463 306.502 400.839 303.456C406.7 295.589 411.87 285.257 403.321 277.092C392.657 266.905 366.131 265.395 351.951 264.969C314.053 263.825 274.414 268.433 237.019 274.354C232.309 275.096 227.566 276.094 222.873 276.632C222.421 276.035 221.662 275.412 222.685 274.942C271.854 264.551 321.791 256.881 371.95 253.314C388.075 254.057 405.087 252.325 421.11 253.314Z" fill="white"/>
<path d="M359.51 339.682C359.903 341.67 360.978 343.411 361.806 345.228L311.502 372.274C310.683 372.888 308.149 373.238 309.011 371.694L359.51 339.682Z" fill="white"/>
<path d="M471.423 308.541L472.378 308.728C473.214 307.926 476.687 310.315 476.362 310.972C476.32 311.058 476.26 311.134 476.2 311.211C476.738 312.252 476.533 313.532 476.584 314.65C476.721 316.296 475.287 317.738 473.718 317.9C473.53 318.062 473.274 318.19 472.95 318.284C469.008 318.668 466.056 316.322 466.909 312.158C467.361 309.966 469.409 308.908 471.414 308.541H471.423ZM471.039 309.684C470.731 309.727 470.441 309.641 470.083 309.769C468.752 310.247 468.223 311.493 467.984 312.738C467.959 312.883 467.771 313.02 467.762 313.404C467.754 313.788 467.959 313.95 467.984 314.069C468.343 316.211 469.861 317.798 472.19 317.508C473.103 317.397 473.88 316.808 474.485 316.168C474.844 315.793 474.793 315.963 475.057 315.4C475.705 314.044 475.705 313.54 475.245 312.15C474.904 311.1 475.014 311.169 474.093 310.426C473.274 309.778 472.626 309.42 471.499 309.454C471.243 309.454 471.09 309.65 471.03 309.658L471.039 309.684Z" fill="white"/>
<path d="M472.19 308.541C472.19 308.541 472.25 308.353 472.66 308.336C473.803 308.302 475.569 308.779 476.388 309.599C477.088 310.29 476.695 311.075 476.78 311.979L476.209 311.22C475.577 310 473.726 308.907 472.387 308.737C472.241 308.72 472.182 308.66 472.199 308.549L472.19 308.541Z" fill="white"/>
<path d="M473.718 318.096C473.547 318.045 473.555 317.977 473.718 317.909C475.27 317.124 475.927 316.253 476.584 314.658C476.584 314.692 476.772 314.974 476.789 315.306C476.9 317.38 475.415 317.755 473.718 318.096Z" fill="white"/>
<path d="M473.717 318.097C473.487 318.148 473.368 318.25 472.95 318.284C473.146 318.045 473.461 318.028 473.717 317.9V318.088V318.097Z" fill="white"/>
<path d="M472.19 308.541L472.378 308.728C472.079 308.694 471.584 308.865 471.422 308.541C471.644 308.498 471.943 308.566 472.19 308.541Z" fill="white"/>
<path d="M433.55 347.139C433.439 347.156 433.405 347.403 432.978 347.258C431.988 346.917 432.15 345.441 432.236 344.579C432.679 339.929 435.614 332.635 436.792 327.729C437.594 324.367 439.513 318.566 434.13 318.472C434.147 318.472 434.104 318.301 434.411 318.284C440.426 317.926 438.942 323.181 438.054 327.072C436.834 332.413 434.804 337.796 433.652 343.12C433.37 344.409 432.884 345.936 433.558 347.139H433.55Z" fill="white"/>
<path d="M430.29 322.874C424.702 326.022 420.692 331.363 416.051 335.689L412.86 350.748C411.026 350.722 409.114 350.952 407.34 350.585C408.099 350.466 411.742 350.824 412.032 350.406L415.172 335.578C418.235 332.779 420.999 329.461 424.071 326.696C425.393 325.51 428.541 322.738 430.29 322.883V322.874Z" fill="white"/>
<path d="M419.011 318.472C419.301 318.412 420.078 318.08 419.958 318.557C419.626 319.863 419.216 321.16 418.918 322.482C418.346 325.042 417.877 328.744 417.1 331.082C416.955 331.517 416.213 332.259 415.855 332.609L415.778 332.157L419.011 318.472Z" fill="white"/>
<path d="M429.915 351.729C430.7 351.465 431.314 351.507 432.15 351.192C434.838 350.159 437.176 346.9 438.532 344.468C439.01 344.05 439.036 345.637 439.104 345.808C437.082 348.231 434.795 351.618 431.331 351.9C430.632 351.959 430.453 351.806 429.924 351.729H429.915Z" fill="white"/>
<path d="M448.276 336.824C447.977 337.148 447.038 337.139 446.748 336.824C447.26 336.824 447.772 336.841 448.276 336.824Z" fill="white"/>
<path d="M409.823 323.25C409.771 323.25 409.2 323.403 408.867 323.437C409.029 323.13 409.516 323.258 409.823 323.25Z" fill="white"/>
<path d="M450.383 336.628C450.212 336.577 450.221 336.508 450.383 336.44C457.226 335.322 466.866 332.259 465.877 323.54C465.459 319.863 461.398 318.523 458.224 318.481C458.71 318.165 459.674 318.242 460.237 318.284C463.198 318.498 466.764 320.059 467.199 323.369C468.394 332.515 457.499 335.868 450.383 336.636V336.628Z" fill="white"/>
<path d="M462.814 341.405C462.899 340.68 464.23 341.465 464.333 341.61C464.58 341.96 462.012 345.484 461.568 345.987C458.787 349.186 454.555 351.575 450.281 351.908C449.709 351.951 448.77 352.045 448.276 351.72C448.711 351.686 449.154 351.627 449.615 351.533C454.41 351.226 458.736 348.154 461.44 344.332C461.764 343.871 462.805 342.404 462.925 341.977C463.019 341.67 462.805 341.465 462.814 341.405Z" fill="white"/>
<path d="M445.025 337.012C445.161 336.935 445.281 336.901 445.409 337.012C444.812 339.119 444.863 341.644 445.699 343.7C446.458 345.569 448.045 346.704 449.811 347.523C444.615 346.772 443.157 341.789 444.163 337.199C444.359 336.926 444.752 337.037 445.033 337.02L445.025 337.012Z" fill="white"/>
<path d="M449.615 351.533C449.359 351.865 448.694 351.72 448.276 351.72C447.858 351.72 447.192 351.857 446.936 351.533C447.747 351.584 448.805 351.584 449.615 351.533Z" fill="white"/>
<path d="M450.383 336.44V336.628C449.786 336.696 449.316 336.781 448.66 336.815C449.12 336.534 449.837 336.525 450.383 336.431V336.44Z" fill="white"/>
<path d="M446.552 336.824C446.339 337.148 445.767 337.003 445.4 337.011C445.272 337.011 445.144 337.003 445.016 337.011C445.332 336.67 446.066 336.824 446.544 336.824H446.552Z" fill="white"/>
<path d="M456.884 320.195C451.304 323.105 447.781 329.47 445.981 335.288C445.597 335.297 445.213 335.288 444.837 335.288C444.718 335.177 445.341 333.437 445.452 333.138C446.962 329.094 452.081 320.4 456.884 320.195Z" fill="white"/>
<path d="M386.676 302.808C398.322 301.349 407.809 309.582 407.971 321.219C408.236 321.134 408.364 321.271 408.483 321.535C411.998 320.75 415.607 319.206 419.003 318.481L419.336 318.737L416.341 331.406C416.469 331.219 416.716 331.116 417.092 331.091C420.257 327.772 423.337 324.188 427.057 321.458C429.523 319.649 431.016 318.796 434.113 318.472C438.455 318.003 438.413 321.535 437.875 324.734C436.741 329.512 435.375 334.273 433.797 339.008C433.234 340.996 432.722 343.018 432.56 345.074C432.475 346.132 432.526 346.729 433.533 347.13C434.957 346.857 437.764 343.854 438.208 342.532C438.515 341.627 438.242 339.904 438.336 338.838C439.129 329.708 448.532 318.327 458.207 318.464C461.5 318.08 465.715 319.581 466.209 323.284C467.43 332.311 457.558 335.706 450.357 336.423C449.82 336.585 449.248 336.705 448.634 336.807C448.506 336.807 448.378 336.807 448.25 336.807C447.755 336.978 447.218 336.969 446.723 336.807C446.663 336.807 446.595 336.807 446.535 336.807L445.008 336.995C444.197 337.524 444.206 338.795 444.223 339.861C444.274 343.65 446.066 346.414 449.786 347.506C453.762 348.086 457.695 345.919 460.305 343.01C460.613 342.668 461.799 340.834 461.935 340.825C462.046 340.825 462.601 341.303 462.797 341.389C464.034 341.372 462.626 343.308 462.182 343.888C459.708 347.148 457.541 349.562 453.514 350.953C452.328 351.362 450.733 351.866 449.589 351.516C448.753 351.712 447.747 351.712 446.91 351.516C443.447 351.285 440.392 348.973 439.07 345.782C438.72 345.791 438.558 345.561 438.583 345.091C436.621 348.248 434.002 351.968 429.889 351.704C426.391 351.2 425.854 349.639 426.281 346.277C426.903 341.346 429.523 335.143 430.794 330.152C431.255 328.352 433.123 323.079 430.273 322.849C428.413 323.472 426.536 324.837 425.103 326.185C421.87 329.239 418.517 332.481 415.454 335.758L412.331 350.543C410.659 350.774 408.986 350.663 407.314 350.552C407.092 350.509 406.785 350.586 406.546 350.552L412.485 324.453C412.45 323.199 410.727 323.182 409.797 323.224C409.456 323.224 409.14 323.284 408.841 323.412C408.713 323.429 408.585 323.412 408.458 323.412C408.381 323.617 408.287 323.822 408.074 323.787C407.707 338.812 396.248 351.994 380.721 351.695C380.055 351.866 379.287 351.857 378.613 351.695C378.28 351.857 377.794 351.874 377.461 351.695C377.095 351.533 376.685 351.55 376.31 351.695C367.692 350.594 361.396 343.223 360.645 334.759C359.357 320.102 368.955 306.041 383.579 303.157L384.918 302.97C385.447 302.816 386.027 302.748 386.642 302.782L386.676 302.808ZM379.407 307.585C378.869 307.952 378.605 308.097 378.067 308.541C377.436 309.07 377.077 309.497 376.54 310.068C368.29 318.805 362.983 339.452 375.013 347.139C375.26 347.301 375.465 347.557 375.781 347.711C378.775 349.246 382.555 349.178 385.729 348.188C396.462 344.852 401.444 328.446 400.045 318.404C398.569 307.773 389.286 300.879 379.415 307.577L379.407 307.585ZM456.884 320.196C452.081 320.4 446.962 329.094 445.452 333.138C445.341 333.437 444.718 335.177 444.837 335.288C445.221 335.288 445.605 335.297 445.981 335.288C451.108 335.169 458.002 332.285 460.041 327.26C461.304 324.154 461.15 320.016 456.884 320.196Z" fill="white"/>
<path d="M408.483 323.446C408.517 335.817 400.77 347.327 388.732 350.825C385.899 351.652 383.681 351.874 380.746 351.917C380.575 351.866 380.584 351.797 380.746 351.729C386.471 351.482 391.667 349.937 396.308 346.533C403.577 341.201 407.459 332.362 407.724 323.446C407.98 323.429 408.236 323.446 408.483 323.446Z" fill="white"/>
<path d="M408.483 321.535C408.227 321.594 407.963 321.56 407.724 321.731C407.425 321.014 407.604 320.281 407.51 319.555C405.941 308.165 397.989 302.389 386.684 302.807H385.916L389.653 302.415C392.179 302.637 394.482 302.935 396.863 303.806C404.303 306.536 408.372 313.822 408.483 321.526V321.535Z" fill="white"/>
<path d="M380.746 351.729V351.917C380.047 351.925 379.338 351.917 378.639 351.917C378.468 351.866 378.477 351.797 378.639 351.729C379.33 351.746 380.047 351.755 380.746 351.729Z" fill="white"/>
<path d="M385.916 302.808C386.172 302.808 386.428 302.808 386.684 302.808C386.343 302.816 385.43 302.944 384.961 302.995C384.816 303.081 384.688 303.132 384.577 302.995C384.833 302.671 385.498 302.799 385.916 302.808Z" fill="white"/>
<path d="M378.647 351.729V351.917C378.229 351.917 377.572 352.062 377.308 351.729H377.496C377.879 351.746 378.263 351.729 378.647 351.729Z" fill="white"/>
<path d="M384.577 302.995C384.705 302.987 384.833 303.012 384.961 302.995C384.688 303.353 384.039 303.14 383.621 303.183C383.963 303.115 384.091 303.029 384.577 302.995Z" fill="white"/>
<path d="M377.496 351.729C377.436 351.729 377.368 351.729 377.308 351.729C376.992 351.712 376.651 351.763 376.352 351.729C376.531 351.422 377.308 351.413 377.504 351.729H377.496Z" fill="white"/>
<path d="M376.728 310.068C368.332 319.521 364.399 338.018 375.2 347.139H375.013C362.991 339.443 368.29 318.796 376.54 310.068H376.728Z" fill="white"/>
<path d="M378.263 308.541C377.879 308.882 377.069 309.693 376.736 310.068H376.548C377.095 309.496 377.444 309.061 378.076 308.541H378.263Z" fill="white"/>
<path d="M379.407 307.585C379.262 308.174 378.477 308.345 378.255 308.541H378.067C378.605 308.097 378.869 307.952 379.407 307.585Z" fill="white"/>
<path d="M375.772 347.71C375.465 347.548 375.26 347.301 375.004 347.139H375.192C375.32 347.25 375.857 347.147 375.764 347.71H375.772Z" fill="white"/>
<path d="M471.039 309.684C471.312 310.128 470.987 310.452 470.083 310.64C470.339 311.092 470.228 311.339 469.699 311.211C469.272 312.627 469.349 313.993 469.699 315.417C470.049 315.434 470.305 315.75 470.467 316.373C470.527 316.296 470.586 316.236 470.663 316.194C470.757 316.143 472.472 316.996 472.54 317.175C472.591 317.32 472.378 317.474 472.19 317.525C469.861 317.815 468.342 316.228 467.984 314.086C467.848 313.643 467.848 313.191 467.984 312.747C468.232 311.493 468.761 310.247 470.083 309.778C470.45 309.65 470.731 309.735 471.039 309.692V309.684Z" fill="white"/>
<path d="M474.101 310.452C475.023 311.186 474.903 311.117 475.253 312.175C475.441 312.977 475.398 313.609 474.545 313.916C474.972 314.402 475.142 314.905 475.065 315.417C474.801 315.98 474.852 315.801 474.494 316.185C473.897 315.955 473.052 314.564 472.967 313.89C472.77 313.446 473.436 312.551 473.922 312.747C474.118 312.226 474.212 311.928 473.922 311.407C473.555 311.518 473.137 311.424 472.651 311.143C471.883 311.16 471.346 310.998 471.047 310.639C471.235 309.547 473.282 310.119 474.11 310.452H474.101Z" fill="white"/>
<path d="M471.039 310.64C472.071 310.64 473.103 310.64 473.905 311.407C474.212 311.877 474.136 312.261 473.905 312.747C473.641 313.182 473.393 313.583 472.95 313.89C472.873 313.941 472.557 313.788 472.566 313.984L474.093 316.373C472.779 316.646 472.66 315.409 471.986 314.658C471.619 314.453 471.303 314.197 471.03 313.89C470.902 313.89 470.774 313.882 470.646 313.89C470.441 314.155 470.936 316.015 470.45 316.373C470.356 316.33 469.998 316.458 469.904 316.356C469.87 316.313 469.801 315.699 469.682 315.417C469.332 314.018 469.247 312.61 469.682 311.211C469.861 310.87 469.827 310.93 470.066 310.64C470.382 310.64 470.706 310.64 471.022 310.64H471.039ZM471.039 311.407C470.416 311.561 470.706 312.636 470.655 313.131C470.783 313.139 470.911 313.131 471.039 313.131C471.602 313.165 472.097 313.233 472.566 312.943C473.445 312.389 472.924 311.57 471.994 311.416C471.815 311.382 471.192 311.373 471.039 311.416V311.407Z" fill="white"/>
<path d="M471.038 313.89C471.781 313.839 471.909 313.856 471.994 314.658C472.045 315.144 471.96 315.69 471.994 316.185H471.038V313.89Z" fill="white"/>
<path d="M471.994 311.408C472.369 311.604 472.48 311.979 472.335 312.551L472.566 312.935C472.096 313.233 471.593 313.157 471.038 313.122C470.697 312.841 470.765 311.834 471.038 311.399C471.192 311.356 471.815 311.365 471.994 311.399V311.408Z" fill="white"/>
<defs>
<filter id="filter0_d_2037_96" x="0" y="0" width="617" height="617" filterUnits="userSpaceOnUse" color-interpolation-filters="sRGB">
<feFlood flood-opacity="0" result="BackgroundImageFix"/>
<feColorMatrix in="SourceAlpha" type="matrix" values="0 0 0 0 0 0 0 0 0 0 0 0 0 0 0 0 0 0 127 0" result="hardAlpha"/>
<feMorphology radius="11" operator="dilate" in="SourceAlpha" result="effect1_dropShadow_2037_96"/>
<feOffset/>
<feGaussianBlur stdDeviation="25"/>
<feComposite in2="hardAlpha" operator="out"/>
<feColorMatrix type="matrix" values="0 0 0 0 1 0 0 0 0 0 0 0 0 0 0 0 0 0 0.5 0"/>
<feBlend mode="normal" in2="BackgroundImageFix" result="effect1_dropShadow_2037_96"/>
<feBlend mode="normal" in="SourceGraphic" in2="effect1_dropShadow_2037_96" result="shape"/>
</filter>
</defs>
</svg>
