<svg width="42" height="43" viewBox="0 0 42 43" fill="none" xmlns="http://www.w3.org/2000/svg">
<path d="M28.7182 8.28316C22.1167 3.71595 13.2788 5.75693 9.01773 12.8327C4.75665 19.9084 6.66082 29.3813 13.2623 33.9485C19.8637 38.5157 28.7017 36.4747 32.9628 29.399C37.2238 22.3232 35.3197 12.8504 28.7182 8.28316ZM14.4512 31.9742C8.86525 28.1096 7.25406 20.0942 10.8597 14.107C14.4652 8.11973 21.9433 6.39279 27.5293 10.2574C33.1152 14.122 34.7264 22.1374 31.1208 28.1246C27.5152 34.1119 20.0371 35.8388 14.4512 31.9742Z" fill="white" stroke="white"/>
<path d="M25.4154 13.7676C23.5526 12.4788 21.0605 13.0555 19.8589 15.0508C19.5307 15.5957 19.677 16.3234 20.1854 16.6751C20.6937 17.0268 21.3726 16.87 21.7008 16.3251C22.2469 15.4183 23.3804 15.1565 24.2265 15.7419C25.0725 16.3272 25.3168 17.5422 24.7707 18.449C24.4512 18.9794 23.9299 19.3049 23.3422 19.3421C21.6313 19.4505 20.1771 20.2996 19.352 21.6698L19.2759 21.7961C18.9477 22.341 19.1321 23.0055 19.6404 23.3572C20.1488 23.7089 20.8658 23.489 21.1939 22.9441C21.7987 21.9398 22.8806 21.7263 23.4723 21.6882C24.7466 21.6058 25.9206 20.8724 26.6126 19.7234C27.8142 17.728 27.2782 15.0564 25.4154 13.7676Z" fill="white" stroke="white"/>
<path d="M17.2205 27.3755C17.7631 27.7508 18.4868 27.5837 18.837 27.0022C19.1872 26.4207 19.0312 25.645 18.4887 25.2696C17.9462 24.8943 17.2224 25.0614 16.8723 25.6429C16.5221 26.2244 16.678 27.0001 17.2205 27.3755Z" fill="white" stroke="white"/>
</svg>
