<svg width="38" height="40" viewBox="0 0 38 40" fill="none" xmlns="http://www.w3.org/2000/svg">
<path d="M14.3715 38.0292C14.3715 36.4292 14.3715 34.5292 12.8715 34.0292C6.87146 32.5292 -0.128526 34.0292 0.87146 18.0292C1.89719 1.6174 12.5401 0.0291805 19.3715 0.0292969C25.8715 0.0292346 36.3141 1.35022 37.2809 18.0667C38.2235 34.3636 31.6253 32.8359 25.9697 34.3637C24.5558 34.8729 24.5558 36.8082 24.5558 38.4379C24.5558 39.5149 23.1649 39.8081 21.6443 39.9013C20.8641 39.9491 20.0497 39.9443 19.3715 39.9658C18.7602 39.9851 18.0554 39.9612 17.3715 39.8729C15.8178 39.6725 14.3715 39.1401 14.3715 38.0292Z" fill="#F1DCBC"/>
<path d="M5.44644 25.627C4.64644 17.627 10.4464 17.8466 13.4464 18.127C15.7144 18.339 17.4464 22.1269 15.9464 24.1269C12.7798 27.9602 6.24644 33.627 5.44644 25.627Z" fill="#B9B2A8"/>
<path d="M33.2974 25.8552C34.0876 17.6149 28.3589 17.8411 25.3958 18.1299C23.1557 18.3483 21.4449 22.2499 22.9265 24.31C26.0542 28.2585 32.5073 34.0954 33.2974 25.8552Z" fill="#B9B2A8"/>
</svg>
