<svg width="53" height="52" viewBox="0 0 53 52" fill="none" xmlns="http://www.w3.org/2000/svg">
<path d="M39.4178 26C39.4178 19.3726 33.8213 14 26.9178 14C20.0142 14 14.4178 19.3726 14.4178 26C14.4178 32.6274 20.0142 38 26.9178 38C33.8213 38 39.4178 32.6274 39.4178 26Z" fill="#E0803F"/>
<path d="M26.9178 52L31.6809 40.75H22.1546L26.9178 52Z" fill="#E0803F"/>
<path d="M26.9178 0L31.6809 11.25H22.1546L26.9178 0Z" fill="#E0803F"/>
<path d="M52.9176 26.1006L41.6861 21.294L41.6492 30.8202L52.9176 26.1006Z" fill="#E0803F"/>
<path d="M0.917969 25.8995L12.1863 21.1799L12.1495 30.7061L0.917969 25.8995Z" fill="#E0803F"/>
<path d="M45.0569 7.37284L33.7958 12.1096L40.6207 18.7557L45.0569 7.37284Z" fill="#E0803F"/>
<path d="M8.77865 44.6272L13.2148 33.2443L20.0398 39.8904L8.77865 44.6272Z" fill="#E0803F"/>
<path d="M45.3072 44.3802L40.7174 33.0584L33.9831 39.7962L45.3072 44.3802Z" fill="#E0803F"/>
<path d="M8.52832 7.61993L19.8525 12.2039L13.1181 18.9418L8.52832 7.61993Z" fill="#E0803F"/>
</svg>
