<svg width="1640" height="1222" viewBox="0 0 1640 1222" fill="none" xmlns="http://www.w3.org/2000/svg">
<g clip-path="url(#clip0_5012_232)">
<path d="M1640 -2.50098H-1.56641V1228.54H1640V-2.50098Z" fill="#A6D6DF"/>
<path d="M892.625 241.467C901.437 239.93 912.629 238.574 917.765 244.375C919.769 246.651 920.266 249.589 922.345 251.834C925.869 255.586 932.828 256.219 938.688 255.3C944.532 254.381 950.03 252.271 955.98 251.774C967.518 250.795 978.318 255.933 989.691 257.756C1001.06 259.564 1016.37 255.149 1015.9 246.108C1018.91 258.163 1037.82 265.998 1052.29 261.177C1059.58 258.751 1065.26 253.868 1072.75 251.864C1080.23 249.875 1081.82 261.508 1125.48 259.866C1132.14 259.609 1139.96 258.133 1142.35 253.281C1144.24 249.438 1141.6 244.948 1137.47 242.356C1133.35 239.765 1128.09 238.665 1122.97 237.595C1136.63 240.171 1151.22 235.124 1158.06 226.264C1158.8 225.329 1159.45 224.32 1159.99 223.295C1165.61 212.627 1159.89 199.081 1147.26 193.113C1134.61 187.162 1116.58 189.497 1107.11 198.342C1112.71 188.277 1110.21 176.192 1102.9 166.789C1095.6 157.402 1084.06 150.41 1071.69 145.167C1057.32 139.064 1040.3 134.995 1024.61 138.597C1008.9 142.183 996.348 155.759 1001.73 167.829C993.999 161.726 980.427 160.868 971.54 165.915C962.638 170.978 959.55 181.315 964.626 188.94C957.893 178.829 941.188 173.525 927.33 177.096C913.457 180.682 904.103 192.707 906.438 203.963C893.138 196.413 874.957 194.424 859.487 198.809C844.018 203.194 831.741 213.862 827.765 226.324C824.104 228.388 791.283 226.218 780.678 240.85C780.648 240.88 780.618 240.925 780.588 240.955C774.789 249.077 864.217 246.38 892.641 241.467H892.625Z" fill="#DAE5EF"/>
<path d="M780.663 240.85C793.045 232.743 816.257 229.715 829.165 235.425C830.642 224.35 853.085 190.688 908.697 215.279C908.697 204.144 905.76 187.991 928.595 182.34C944.848 178.317 957.576 192.752 968.874 204.46C963.978 190.718 966.539 176.162 972.338 172.591C983.665 165.599 996.484 172.651 1003.86 180.336C1001.77 168.583 1004.42 157.071 1011.53 149.989C1018.63 142.892 1028.15 142.425 1039.02 144.308C1056.57 147.352 1072.78 158.231 1084.74 171.883C1096.71 185.55 1101.65 207.73 1091.03 222.527C1101.67 214.375 1109.98 206.54 1120.15 202.411C1130.33 198.297 1142.83 198.599 1151.18 205.892C1156.72 210.744 1159.37 219.046 1158.09 226.249C1158.83 225.315 1159.48 224.305 1160.02 223.28C1165.64 212.612 1159.92 199.066 1147.29 193.099C1134.64 187.147 1116.61 189.482 1107.14 198.328C1112.74 188.262 1110.24 176.177 1102.93 166.775C1095.63 157.387 1084.09 150.396 1071.72 145.152C1057.35 139.049 1040.33 134.981 1024.64 138.582C1008.93 142.168 996.378 155.745 1001.76 167.814C994.029 161.712 980.457 160.853 971.57 165.901C962.668 170.964 959.58 181.3 964.656 188.925C957.923 178.814 941.218 173.51 927.36 177.081C913.487 180.668 904.133 192.692 906.468 203.948C893.168 196.399 874.987 194.41 859.517 198.795C844.048 203.179 831.771 213.848 827.795 226.309C824.134 228.373 791.312 226.204 780.708 240.835L780.663 240.85Z" fill="white"/>
<path d="M1223.98 249.228C1218.4 248.263 1211.33 247.405 1208.07 251.066C1206.81 252.498 1206.49 254.366 1205.16 255.782C1202.94 258.163 1198.54 258.555 1194.83 257.982C1191.14 257.395 1187.65 256.069 1183.9 255.752C1176.59 255.135 1169.77 258.389 1162.57 259.534C1155.37 260.68 1145.68 257.892 1145.98 252.166C1144.08 259.791 1132.11 264.748 1122.95 261.704C1118.34 260.167 1114.74 257.078 1110.01 255.813C1105.27 254.562 1104.27 261.915 1076.65 260.876C1072.43 260.71 1067.49 259.776 1065.97 256.702C1064.78 254.261 1066.45 251.428 1069.06 249.785C1071.66 248.143 1074.99 247.45 1078.23 246.772C1069.58 248.399 1060.35 245.205 1056.03 239.599C1055.56 239.012 1055.15 238.379 1054.81 237.716C1051.25 230.965 1054.87 222.391 1062.87 218.624C1070.86 214.857 1082.28 216.334 1088.28 221.924C1084.72 215.55 1086.32 207.911 1090.94 201.959C1095.57 196.022 1102.86 191.607 1110.69 188.277C1119.79 184.42 1130.54 181.843 1140.48 184.118C1150.43 186.393 1158.36 194.982 1154.96 202.607C1159.86 198.749 1168.43 198.192 1174.06 201.401C1179.69 204.596 1181.65 211.151 1178.43 215.972C1182.69 209.568 1193.27 206.223 1202.03 208.483C1210.81 210.759 1216.72 218.368 1215.26 225.48C1223.68 220.704 1235.19 219.438 1244.96 222.226C1254.75 224.998 1262.52 231.749 1265.02 239.644C1267.34 240.94 1288.1 239.584 1294.82 248.836C1294.83 248.851 1294.85 248.881 1294.88 248.896C1298.55 254.035 1241.96 252.332 1223.99 249.228H1223.98Z" fill="#DAE5EF"/>
<path d="M1294.82 248.836C1286.99 243.712 1272.3 241.799 1264.14 245.4C1263.2 238.393 1249 217.087 1213.81 232.652C1213.81 225.616 1215.66 215.384 1201.22 211.813C1190.93 209.267 1182.89 218.398 1175.73 225.811C1178.82 217.117 1177.21 207.91 1173.55 205.65C1166.38 201.22 1158.27 205.695 1153.6 210.547C1154.93 203.104 1153.26 195.826 1148.75 191.35C1144.27 186.86 1138.24 186.559 1131.36 187.764C1120.26 189.693 1110 196.564 1102.44 205.213C1094.86 213.862 1091.74 227.891 1098.46 237.263C1091.73 232.11 1086.47 227.137 1080.04 224.531C1073.59 221.924 1065.68 222.12 1060.4 226.731C1056.89 229.805 1055.21 235.063 1056.03 239.614C1055.56 239.026 1055.15 238.393 1054.81 237.73C1051.25 230.98 1054.87 222.406 1062.87 218.639C1070.86 214.872 1082.28 216.349 1088.28 221.939C1084.72 215.565 1086.32 207.925 1090.94 201.974C1095.57 196.037 1102.86 191.622 1110.69 188.292C1119.79 184.434 1130.54 181.858 1140.48 184.133C1150.43 186.408 1158.36 194.997 1154.96 202.621C1159.86 198.764 1168.43 198.207 1174.06 201.416C1179.69 204.61 1181.65 211.165 1178.43 215.987C1182.69 209.583 1193.27 206.238 1202.03 208.498C1210.81 210.773 1216.72 218.383 1215.26 225.495C1223.68 220.718 1235.19 219.453 1244.96 222.24C1254.75 225.013 1262.52 231.763 1265.02 239.659C1267.34 240.955 1288.1 239.599 1294.82 248.851V248.836Z" fill="white"/>
<path d="M150.191 113.539C141.168 111.972 129.69 110.571 124.449 116.523C122.4 118.843 121.888 121.857 119.749 124.162C116.149 128.005 109.009 128.668 103.014 127.718C97.0342 126.769 91.3856 124.614 85.3002 124.102C73.4759 123.092 62.4197 128.366 50.7761 130.235C39.1174 132.088 23.437 127.568 23.919 118.301C20.8311 130.657 1.46027 138.673 -13.3616 133.746C-20.8328 131.259 -26.647 126.257 -34.3291 124.207C-42.0112 122.173 -43.6229 134.092 -88.3596 132.404C-95.1831 132.133 -103.181 130.641 -105.637 125.654C-107.565 121.706 -104.853 117.125 -100.636 114.473C-96.4182 111.821 -91.0107 110.691 -85.7839 109.606C-99.7773 112.243 -114.735 107.075 -121.739 98.0038C-122.507 97.0394 -123.155 96.0148 -123.712 94.96C-129.466 84.0356 -123.607 70.1578 -110.668 64.0401C-97.7137 57.9375 -79.2315 60.3333 -69.531 69.3893C-75.27 59.0676 -72.7093 46.7117 -65.223 37.068C-57.7368 27.4545 -45.9275 20.2971 -33.2446 14.9178C-18.5282 8.63435 -1.10042 4.46046 14.9867 8.15217C31.0889 11.8288 43.9376 25.7367 38.4245 38.0927C46.3326 31.8394 60.2356 30.9503 69.3486 36.1338C78.4616 41.3173 81.6249 51.9102 76.4282 59.7155C83.327 49.3486 100.438 43.924 114.643 47.5856C128.862 51.2623 138.427 63.588 136.047 75.1152C149.679 67.3852 168.297 65.3359 184.143 69.8413C199.989 74.3467 212.566 85.2561 216.633 98.0339C220.384 100.143 254.004 97.9284 264.865 112.906C264.895 112.936 264.925 112.982 264.955 113.012C270.89 121.329 179.292 118.572 150.176 113.539H150.191Z" fill="#DAE5EF"/>
<path d="M264.88 112.906C252.197 104.603 228.413 101.499 215.188 107.346C213.681 96.0143 190.68 61.5082 133.713 86.7173C133.713 75.3106 136.71 58.7507 113.333 52.9796C96.6731 48.8509 83.6437 63.6479 72.0754 75.6421C77.0914 61.5684 74.4553 46.666 68.5356 43.0044C56.9372 35.8471 43.8024 43.0647 36.2409 50.9303C38.3798 38.8908 35.6685 27.0924 28.3931 19.8446C21.1177 12.5516 11.3721 12.0845 0.240595 14.0132C-17.7445 17.1324 -34.3287 28.2677 -46.5899 42.2661C-58.851 56.2644 -63.9122 78.9873 -53.0368 94.1459C-63.9272 85.7981 -72.4377 77.7668 -82.8763 73.5477C-93.2998 69.3286 -106.103 69.645 -114.674 77.1188C-120.353 82.0763 -123.064 90.6048 -121.754 97.9732C-122.522 97.0088 -123.169 95.9842 -123.727 94.9294C-129.481 84.005 -123.621 70.1272 -110.682 64.0095C-97.7283 57.9069 -79.2462 60.3027 -69.5457 69.3587C-75.2846 59.037 -72.7239 46.6811 -65.2377 37.0374C-57.7515 27.4239 -45.9422 20.2665 -33.2592 14.8872C-18.5277 8.6339 -1.1 4.46001 14.9871 8.15172C31.0894 11.8284 43.938 25.7363 38.425 38.0922C46.333 31.8389 60.236 30.9499 69.349 36.1333C78.4621 41.3168 81.6253 51.9097 76.4286 59.7151C83.3274 49.3481 100.439 43.9236 114.643 47.5852C128.862 51.2618 138.427 63.5876 136.047 75.1147C149.679 67.3848 168.297 65.3355 184.143 69.8409C199.989 74.3463 212.567 85.2556 216.634 98.0335C220.384 100.143 254.005 97.928 264.865 112.906H264.88Z" fill="white"/>
<path d="M0 385.083C0 385.083 1267.89 549.251 1576.01 2.86328H1640V1228.52L0 1225.26V385.083Z" fill="#B68A67"/>
<path d="M1645.87 776.344C1645.87 776.344 1524.92 707.241 1512.12 926.724L1640 958.368L1661.9 774.867L1645.87 776.344Z" fill="#986F4F"/>
<path d="M1398.96 815.687L1385.33 758.368C1385.33 758.368 1248.35 663.634 1239.82 900.641L1397.58 926.74L1398.96 815.687Z" fill="#986F4F"/>
<path d="M1152.6 803.692C1152.6 803.692 1101.43 710.571 1060.05 803.692L1054.58 885.422L1151.96 893.272L1152.6 803.692Z" fill="#986F4F"/>
<path d="M977.881 786.635C977.881 786.635 917.253 730.461 900.88 801.055V872.765L984.193 883.885L977.881 786.62V786.635Z" fill="#986F4F"/>
<path d="M849.561 772.064C849.561 772.064 795.319 743.872 786.011 791.758L780.302 876.878L838.67 869.781L849.561 772.064Z" fill="#986F4F"/>
<path d="M721.135 795.315C721.135 795.315 687.514 761.638 671.608 795.315L662.359 870.882L726.392 864.87L721.15 795.315H721.135Z" fill="#986F4F"/>
<path d="M604.925 793.974C604.925 793.974 573.79 762.496 546.677 801.071V854.065L610.814 860.56L604.925 793.989V793.974Z" fill="#986F4F"/>
<path d="M483.804 796.504C483.804 796.504 455.983 744.534 436.311 796.504V860.544L490.221 856.822L499.801 841.302L493.79 804.4L483.804 796.519V796.504Z" fill="#986F4F"/>
<path d="M377.927 793.461C377.927 793.461 337.408 754.751 320.748 801.718L317.977 854.487L377.942 857.26V793.461H377.927Z" fill="#986F4F"/>
<path d="M264.022 789.092C264.022 789.092 209.208 755.354 188.181 801.026V854.488L262.426 852.348L264.037 789.092H264.022Z" fill="#986F4F"/>
<path d="M126.061 793.054C126.061 793.054 77.1368 746.192 49.376 793.054V851.458L129.887 854.487L126.076 793.054H126.061Z" fill="#986F4F"/>
<path d="M1640 699.435C1640 699.435 1514.06 666.842 1475.81 740.224L1495.11 761.094L1488.62 926.738H1397.59V716.688C1397.59 716.688 1237.91 675.115 1216.49 755.73L1223.99 764.936L1223.13 777.488L1219.35 898.712L1168.22 900.339L1164.33 758.593C1164.33 758.593 1061.4 694.01 1028.54 759.331L1035.89 779.236L1035.03 891.705L984.208 883.915L988.772 755.443C988.772 755.443 891.044 725.156 881.961 771.446L884.13 789.618L884.537 871.679L843.912 868.771L853.854 755.006C853.854 755.006 780.769 723.001 763.913 773.6L768.673 787.87L763.913 866.164L726.407 864.868L729.329 787.433C729.329 787.433 686.716 727.778 645.444 771.868L648.908 784.841L645.444 861.403L610.844 860.544V770.572C610.844 770.572 546.42 736.397 528.676 783.545L532.563 793.49L530.454 853.477L499.695 854.049L497.858 779.477C497.858 779.477 443.044 736.834 416.669 780.08L420.555 789.603L416.669 848.489L405.854 857.952L386.393 843.246L388.26 766.247C388.26 766.247 307.267 748.949 298.184 788.307L302.071 802.577L298.184 848.655L270.077 849.74L267.486 766.247C267.486 766.247 173.087 744.926 163.703 783.982L168.026 792.195L167.168 846.696L122.069 850.674L130.941 779.281C130.941 779.281 41.9951 717.366 21.0126 783.545V800.844L-3.61523 830.829L-0.677975 707.3L13.6619 683.206C13.6619 683.206 645.384 733.941 699.971 726.558C754.559 719.174 1146.98 666.044 1146.98 666.044L1618.32 564.213H1640V699.45V699.435Z" fill="#AA7854"/>
<path d="M0 1030.24C0 1030.24 964.807 998.027 1247.67 1233.29L0 1235.56V1030.26V1030.24Z" fill="url(#paint0_linear_5012_232)"/>
<path d="M-4.33838 304.227C-4.33838 304.227 215.61 342.802 317.028 338.025L317.585 391.638L387.507 391.804L384.223 361.336L366.69 358.397L366.555 341.657C366.555 341.657 436.1 349.115 495.222 346.041L498.882 361.004L483.277 365.314L484.181 393.175L556.271 394.923L556.979 362.21L551.722 347.081C551.722 347.081 686.204 340.391 731.046 327.01L737.071 362.797L752.044 359.588L750.582 392.03C753.926 389.046 813.59 389.799 853.763 372.938L870.182 348.859L885.29 341.25L893.153 276.502C893.153 276.502 1272.78 105.297 1390.38 -37.9111L1534.41 -31.4318C1534.41 -31.4318 1323.57 108.024 1308.98 117.698L1305.36 66.2101C1305.36 66.2101 1212.09 137.694 1164.68 160.311L1166.56 208.032L1154.9 217.902L1150.49 167.89C1150.49 167.89 1095.25 200.031 1078.8 207.052L1078 222.558L1070.1 234.944L1070.44 260.258L1052.1 271.333L1053.36 243.111C1053.36 243.111 1046.96 238.952 1042.44 227.831C1042.44 227.831 992.598 253.131 987.401 253.538C982.204 253.945 992.598 253.131 992.598 253.131C992.598 253.131 995.234 268.742 990.203 274.588L989.615 304.242L970.244 315.106L968.979 283.93C968.979 283.93 954.097 276.246 955.453 269.947L914.346 290.425L912.388 333.52L924.227 335.509L925.538 363.053C925.538 363.053 832.449 416.304 710.154 412.206L705.017 379.222L704.294 358.714L695.874 349.733L651.65 356.695L644.736 363.114L645.338 382.491L646.453 424.321C646.453 424.321 496.577 446.607 455.606 433.482L459.267 384.556L419.109 384.224L415.554 430.212C415.554 430.212 334.245 432.653 298.968 423.567L298.591 367.649L256.264 365.751L254.442 422.844C254.442 422.844 208.169 422.844 199.522 419.785L202.64 367.062L198.89 360.914C198.89 360.914 143.684 357.403 137.72 354.389L131.092 369.789L127.793 408.318L99.8816 402.773L102.081 353.591C102.081 353.591 54.1206 350.758 41.3925 346.403L37.8678 391.668C37.8678 391.668 -4.41369 389.257 -9.21875 379.839L-4.32332 304.167L-4.33838 304.227Z" fill="url(#paint1_linear_5012_232)"/>
<path d="M1453.51 551.676C1453.42 555.082 1451.07 558.005 1447.77 558.819L1434.41 562.119L1420.4 319.204C1420.4 319.204 1191.7 303.473 1214.7 594.576L1188.63 597.559L1182.51 440.549C1182.51 440.549 1039.99 437.927 1039.62 530.867L1045.12 645.099L994.903 646.681L999.542 530.867C999.542 530.867 953.103 481.022 894.328 550.411L886.36 569.683L884.627 669.495H868.887L867.2 555.082C867.2 555.082 867.2 555.082 867.185 555.082C852.875 566.278 800.983 485.783 761.699 571.687C761.489 572.154 760.223 574.866 759.545 583.516L753.189 686.748C751.788 688.812 742.901 679.651 740.4 679.651L747.706 594.696C745.657 594.696 743.684 593.852 742.268 592.376L726.166 575.635C726.166 575.635 674.997 522.158 630.457 579.146L634.222 678.219L619.506 674.844L610.589 580.728L609.655 555.73C614.339 554.811 539.387 528.095 528.165 581.406L528.873 678.219H517.666L510.195 580.698C510.195 580.698 432.274 518.752 409.771 586.936L408.385 683.282L403.519 683.237L388.487 571.762C388.487 571.762 340.798 519.295 294.615 559.015C287.415 565.208 283.303 574.264 282.986 583.742L279.537 683.222L273.979 679.5L260.723 579.116C260.723 579.116 204.358 523.454 156.308 573.827L157.076 688.993H150.84L137.298 570.557L94.6854 530.867C94.6854 530.867 38.3352 509.832 19.2205 547.955L0.060488 585.67L-13.4961 590.131L-1.50605 518.391L16.0271 486.009C16.0271 486.009 446.659 540.405 560.791 523.846C1014.36 458.088 1591.54 141.641 1630.89 90.4392C1667.66 42.5977 1700.37 192.797 1631.55 198.945C1628.19 199.247 1654.57 206.329 1651.24 206.871C1624.94 211.241 1479.91 225.043 1449.27 376.177" fill="#AA7854"/>
<path d="M1640 284.683C1640 284.683 1477.82 246.214 1486.15 511.64L1645.87 467.37L1640 284.683Z" fill="#986F4F"/>
<path d="M1374.8 382.084C1374.8 382.084 1242.64 376.434 1239.82 577.76L1390.02 554.585L1374.8 382.084Z" fill="#986F4F"/>
<path d="M1159.83 481.639C1159.83 481.639 1052.08 471.679 1060.53 614.586C1068.98 757.493 1068.98 611.015 1068.98 611.015H1171.3L1159.83 481.654V481.639Z" fill="#986F4F"/>
<path d="M984.192 535.237C984.192 535.237 898.138 525.804 900.954 631.311L1003.28 626.67L984.192 535.252V535.237Z" fill="#986F4F"/>
<path d="M847.602 570.858C847.602 570.858 782.711 528.968 766.066 638.816L832.614 652.302L862.544 641.965L847.602 570.858Z" fill="#986F4F"/>
<path d="M729.283 585.233C729.283 585.233 664.573 532.751 654.993 652.317L729.283 647.616V585.233Z" fill="#986F4F"/>
<path d="M606.341 595.237C606.341 595.237 546.074 530.655 538.588 649.227L606.341 656.731V595.237Z" fill="#986F4F"/>
<path d="M496.065 593.023C496.065 593.023 424.923 548.918 420.344 652.301L496.065 656.716L500.719 601.37L496.065 593.023Z" fill="#986F4F"/>
<path d="M381.151 584.268C381.151 584.268 295.579 537.527 300.173 656.731H391.152L381.151 584.268Z" fill="#986F4F"/>
<path d="M259.834 598.81C259.834 598.81 181.793 528.171 172.499 645.205L252.905 656.732L259.834 598.81Z" fill="#986F4F"/>
<path d="M131.092 585.655C131.092 585.655 19.6264 513.598 0.797852 634.129L138.533 652.301L131.107 585.655H131.092Z" fill="#986F4F"/>
<path d="M-0.677734 446.772V545.634C-0.677734 545.634 16.3885 514.624 69.5905 517.412C122.793 520.199 141.32 569.517 133.427 572.426C125.534 575.334 131.092 585.655 131.092 585.655L126.272 686.04L150.779 688.963L146.848 585.655L147.074 572.426C147.074 572.426 153.34 532.329 207.777 532.103C262.215 531.892 261.25 574.942 261.25 574.942L258.102 578.362V582.823C251.701 588.473 259.835 598.81 259.835 598.81L249.742 683.192H275.681V593.385C272.156 591.592 275.681 581.346 275.681 581.346C275.018 522.399 331.067 525.865 331.067 525.865C391.8 525.699 385.911 574.626 385.911 574.626L381.121 579.854L381.166 584.269L382.823 584.043C382.22 584.118 381.648 584.194 381.166 584.269C375.05 585.068 382.943 599.609 382.943 599.609L380.112 683.177H403.474V593.943C396.575 586.68 403.474 581.316 403.474 581.316C403.474 581.316 403.429 581.316 403.369 581.316H403.474C397.087 535.945 450.199 534.74 450.199 534.74C505.54 532.254 500.931 581.301 500.931 581.301C489.167 588.91 500.72 601.341 500.72 601.341L498.265 678.129H521.703V595.826C517.199 590.613 521.703 582.808 521.703 582.808C513.87 531.666 569.648 528.577 569.648 528.577C611.206 529.346 609.579 571.597 609.579 571.597L606.401 578.347C599.081 584.51 606.356 595.224 606.356 595.224L604.202 678.144H626.615L623.964 588.775C621.223 584.736 623.964 576.871 623.964 576.871C622.97 551.918 629.914 531.983 678.326 525.443C726.738 518.903 730.414 556.559 730.414 556.559L726.211 576.856L729.314 585.203L726.407 683.704H747.781V585.294L751.773 575.349L750.176 559C749.98 509.576 792.337 506.336 792.337 506.336C842.256 495.97 857.107 544.127 857.107 544.127L846.609 554.54C835.598 554.54 847.618 570.828 847.618 570.828L848.853 674.543L872.833 671.83L872.893 567.468C867.471 557.387 874.776 554.54 874.776 554.54C869.685 487.697 935.103 477.617 935.103 477.617C1004.06 482.303 992.191 529.27 992.191 529.27L984.208 535.207C976.134 541.777 984.208 550.29 984.208 550.29V656.687L1030.74 644.271L1024.14 544.564C1024.14 544.564 1016.46 533.625 1023.99 527.839C1020.54 442.598 1082.34 426.189 1082.34 426.189C1167.39 394.877 1159.83 481.594 1159.83 481.594C1159.83 481.594 1150.38 494.433 1159.83 509.305V610.955L1204.11 595.796L1202.26 471.273C1192.83 376.193 1269.36 330.792 1269.36 330.792C1379.62 247.691 1378.48 343.826 1375.78 373.736L1374.94 373.977C1374.94 373.977 1355.84 404.219 1369.8 421.683L1369.74 577.73L1441.98 560.266L1431.5 399.563C1431.5 399.563 1416.29 396.685 1432.42 359.753H1433.92C1449.74 135.78 1640.02 108.461 1640.02 108.461V41.5732C778.148 734.891 -0.677734 446.772 -0.677734 446.772ZM387.583 583.425C386.845 583.516 386.122 583.621 385.429 583.712L387.583 583.425ZM384.209 583.862C383.938 583.892 383.666 583.938 383.41 583.968L384.209 583.862ZM388.758 583.26L389.405 583.169C389.194 583.199 388.969 583.229 388.758 583.26ZM394.406 582.521L394.768 582.476C394.647 582.491 394.527 582.506 394.406 582.521ZM396.741 582.22L397.645 582.099C397.359 582.145 397.057 582.175 396.741 582.22ZM402.299 581.482L402.932 581.391C402.751 581.421 402.54 581.436 402.299 581.482ZM400.446 581.723L401.034 581.647C400.853 581.677 400.657 581.692 400.446 581.723ZM1420.59 360.778L1422.72 359.783H1424L1420.58 360.778H1420.59Z" fill="url(#paint2_linear_5012_232)"/>
<path d="M1640 635.154C1640 635.154 1470.65 613.622 1448.64 722.505L1447.16 743.917H1453.52V756.755C1453.52 756.755 1460.86 756.755 1460.86 767.152C1460.86 777.549 1455.96 947.398 1455.96 947.398H1436.73L1424.78 870.52L1419.89 745.137L1400.32 688.963C1400.32 688.963 1221.78 639.313 1198.55 746.358V761.652L1191.82 772.667L1197.93 892.549L1175.27 894.267L1164.3 790.432V758.608L1172.85 723.138C1172.85 723.138 1034.67 658.917 1013.28 757.388C1013.28 757.388 1008.41 764.696 1013.28 771.175C1018.14 777.654 1019.53 781.813 1019.53 781.813L1018.61 795.224L1019.53 875.733L1002.89 877.104L992.251 771.627L988.546 742.937C988.546 742.937 887.263 685.573 869.685 767.453C869.685 767.453 866.913 775.786 869.685 779.945C872.456 784.104 874.746 871.092 874.746 871.092L860.797 871.71L853.959 762.375L847.587 726.287C847.587 726.287 765.163 703.157 755.9 767.92L752.661 779.945V858.134L737.041 859.731L734.149 819.74L737.041 764.214L728.606 738.296C728.606 738.296 639.81 713.78 632.399 769.292L635.171 775.771L632.399 787.343V859.987L621.75 858.329L612.049 810.488L614.821 767.453L607.41 750.803L603.072 737.844C603.072 737.844 524.609 724.433 519.533 786.424L521.657 795.676L519.533 802.155V858.134L507.829 856.823L499.65 813.26L497.797 779.493L502.422 760.989L486.696 738.778C486.696 738.778 409.454 724.434 406.215 782.265L408.279 790.417L403.413 795.028V852.875L392.297 851.247L386.513 804.189L392.523 767.529L386.513 754.359C386.513 754.359 304.481 717.321 291.18 784.721V801.326L285.456 803.331V853.161L274.295 850.871L272.005 795.314L267.998 756.077C267.998 756.077 179.82 709.968 156.066 776.404L154.349 786.424L150.734 790.402L157.497 852.875L136.605 850.675L130.881 779.282L126.227 730.883C126.227 730.883 26.9622 713.705 18.9337 768.689L15.4994 786.439L5.48258 790.417V821.669L-3.67565 830.83L-8.82715 763.822L7.48594 725.443L39.2686 697.657C39.6 727.522 1496.33 671.303 1633.09 563.912C1758.89 465.125 1639.95 635.154 1639.95 635.154H1640Z" fill="#AA7854"/>
<path d="M796.133 943.796V918.511C796.133 918.511 278.016 870.941 -29.8242 889.912L-28.0619 905.131C-28.0619 905.131 616.297 914.624 796.133 943.796Z" fill="#B68A67"/>
<path d="M796.133 918.496L823.548 914.608C823.548 914.608 578.565 869.238 -28.0619 870.91L-29.8242 889.881C-29.8242 889.881 403.806 870.865 796.133 918.481V918.496Z" fill="url(#paint3_linear_5012_232)"/>
<path d="M0.797852 634.129C0.797852 634.129 1021.59 732.84 1653.56 447.283V574.986C1653.56 574.986 803.106 776.93 2.40958 698.651L0.797852 634.129Z" fill="url(#paint4_linear_5012_232)"/>
<path d="M-6.44727 887.441C-6.44727 887.441 1262.55 858.751 1639.95 1080.64L1671.69 1064.75L1664.07 948.437C1664.07 948.437 752.691 822.15 -6.44727 853.477V887.441Z" fill="url(#paint5_linear_5012_232)"/>
<path d="M847.603 942.29L855.676 912.455C855.676 912.455 1751.59 969.564 1837.62 1143.95L1687.49 1149.31C1687.49 1149.31 1465.39 1005.86 847.603 942.29Z" fill="#B68A67"/>
<path d="M862.545 911.972L934.786 908.205C934.786 908.205 1667.84 927.99 1837.62 1116.15L1706.94 1117.7C1706.94 1117.7 1543.87 950.095 862.56 911.972H862.545Z" fill="url(#paint6_linear_5012_232)"/>
<path d="M808.604 977.851L816.678 948.016C816.678 948.016 1712.59 1005.12 1798.63 1179.51L1648.5 1184.87C1648.5 1184.87 1426.39 1041.42 808.604 977.851Z" fill="#B68A67"/>
<path d="M775.707 975.546V948.017C775.707 948.017 289.613 896.227 0.797852 916.871L2.45477 933.446C2.45477 933.446 607.003 943.782 775.707 975.546Z" fill="#B68A67"/>
<path d="M823.547 947.548L895.788 943.781C895.788 943.781 1388.6 940.888 1798.63 1151.72L1667.94 1153.27C1667.94 1153.27 1504.87 985.671 823.562 947.548H823.547Z" fill="url(#paint7_linear_5012_232)"/>
<path d="M775.707 948.016L801.434 943.782C801.434 943.782 571.59 894.388 2.45477 896.211L0.797852 916.87C0.797852 916.87 407.631 896.166 775.707 948.016Z" fill="url(#paint8_linear_5012_232)"/>
<path d="M773.312 1012.22L780.317 983.41C780.317 983.41 1557.55 1038.54 1632.18 1206.92L1501.95 1212.1C1501.95 1212.1 1309.26 1073.59 773.312 1012.22Z" fill="#B68A67"/>
<path d="M740.114 1009.98V983.395C740.114 983.395 249.712 933.399 -41.6641 953.334L-39.9921 969.336C-39.9921 969.336 569.903 979.312 740.114 1009.98Z" fill="#B68A67"/>
<path d="M780.316 983.412L853.191 979.328C853.191 979.328 1334.43 975.561 1764.03 1205.23L1632.18 1206.92C1632.18 1206.92 1467.67 1024.83 780.316 983.412Z" fill="url(#paint9_linear_5012_232)"/>
<path d="M740.114 983.411L766.067 979.327C766.067 979.327 534.174 931.636 -39.9921 933.399L-41.6641 953.35C-41.6641 953.35 368.769 933.369 740.114 983.411Z" fill="url(#paint10_linear_5012_232)"/>
<path d="M1643.69 598.087C1643.69 598.087 1420.43 552.641 1428.71 743.811L1447.16 743.917L1447.98 751.225L1439.95 751.255L1436.73 756.936L1425.5 757.192C1425.5 757.192 1434.81 763.792 1436.73 773.556C1438.64 783.305 1436.73 947.398 1436.73 947.398L1388.59 940.903L1389.47 770.392L1375.77 766.218L1376.7 758.397H1385.32V750.456L1391.79 748.045C1391.79 748.045 1394.25 648.731 1272.65 655.406C1272.65 655.406 1186.26 664.266 1181.53 751.195L1168.95 752.099C1168.95 752.099 1174.27 760.914 1170.43 767.212L1181.64 775.063L1180.27 894.463L1151.96 893.288L1152.81 773.556L1144.63 766.218V754.766L1158.21 752.536L1162.37 746.704C1162.37 746.704 1149.03 676.11 1062.97 682.83C1062.97 682.83 999.677 698.305 1002.75 758.397C1002.75 758.397 994.571 767.709 1001.35 773.27L1010.09 778.317L1009.83 788.443H1003.58L1006.79 877.119H979.312L977.866 786.665L972.278 783.245L969.883 773.27L977.911 772.094L982.912 760.386L984.328 752.566L981.12 751.285L976.209 726.076C976.209 726.076 952.304 696.904 912.222 702.223C872.14 707.542 865.557 745.348 865.557 745.348L862.5 758.729L860.782 775.093C860.782 775.093 854.23 780.005 860.782 784.013V871.755L838.67 869.842L843.972 785.882L839.935 783.29L838.324 778.061L843.972 776.238V772.124H849.545C849.545 772.124 859.276 695.367 798.708 705.538C738.141 715.709 746.877 779.538 746.877 779.538L740.656 780.789V785.399L743.593 789.227L742.072 859.791H718.815L721.119 795.375L714.808 792.195V786.997H721.119V780.789L726.03 780.126C726.03 780.126 734.842 713.6 673.084 716.869C673.084 716.869 621.207 718.708 623.346 776.6L628.076 776.253L628.197 783.275L621.75 782.552L623.346 790.372L621.75 858.405L602.62 857.651L604.894 794.064L596.098 791.487V786.288H602.605L602.153 780.834H604.894C604.894 780.834 610.709 724.569 560.79 724.765C510.872 724.961 511.866 789.995 511.866 789.995H505.344V796.384L507.483 799.94L507.859 856.913H490.206L493.776 804.491L487.75 801.899V797.997L483.789 796.595V791.155L490.206 791.336C490.206 791.336 492.104 725.082 441.568 726.061C441.568 726.061 390.791 726.98 399.241 788.338L397.147 792.783L393.939 791.502L392.327 851.353L377.776 851.308L377.882 793.551L374.93 792.768V782.552C374.93 782.552 379.494 782.793 380.473 779.749C381.452 776.705 387.266 732.043 339.728 728.291C292.189 724.539 284.146 788.157 284.146 788.157L283.995 792.225L286.45 792.964L286.556 797.258L278.422 798.946L277.895 852.197L262.38 852.438L262.606 800.453C262.606 800.453 261.235 799.127 258.765 798.931V794.847L255.978 793.943V789.212L264.007 789.151C264.007 789.151 270.664 720.772 208.093 721.797C145.522 722.821 148.504 780.834 148.504 780.834L140.596 783.712C140.596 783.712 137.885 790.462 141.666 792.466L142.088 801.854L141.997 850.735H122.024L126.031 800.377C126.031 800.377 123.41 796.459 126.031 793.114L116.692 792.934V786.68H111.811V781.783L118.228 780.849C118.228 780.849 133.381 718.723 68.2947 718.587C3.20803 718.452 11.3269 773.616 11.3269 773.616L2.5302 777.338L1.02392 814.3L-6.44727 822.919L-0.69325 707.286V697.296C-0.69325 697.296 1663.33 662.413 1653.51 503.775C1643.69 345.137 1643.69 598.087 1643.69 598.087Z" fill="url(#paint11_linear_5012_232)"/>
<path d="M671.608 1066.87V1050.36C671.608 1050.36 1162.48 1064.24 1284.61 1227.82L1165.87 1226.91C1165.87 1226.91 1081.08 1112.56 671.608 1066.87Z" fill="#B68A67"/>
<path d="M654.994 1045.16V1062.89C654.994 1062.89 117.084 1030.96 -0.677734 1065.95V1010.97C-0.677734 1010.97 460.095 1006.46 654.994 1045.16Z" fill="#B68A67"/>
<path d="M720.186 1038.36L726.377 1010.96C726.377 1010.96 1413.86 1063.41 1479.88 1223.6L1364.68 1228.52C1364.68 1228.52 1194.24 1096.75 720.171 1038.36H720.186Z" fill="#B68A67"/>
<path d="M671.608 1050.36L720.186 1038.36C720.186 1038.36 1240.82 1080.63 1384.37 1221.98H1268.73C1268.73 1221.98 1068.38 1073.43 671.608 1050.36Z" fill="url(#paint12_linear_5012_232)"/>
<path d="M690.829 1036.24V1010.96C690.829 1010.96 257.048 963.4 -0.677734 982.356L0.798427 997.575C0.798427 997.575 540.275 1007.07 690.829 1036.24Z" fill="#B68A67"/>
<path d="M654.994 1045.16L690.828 1036.25C690.828 1036.25 465.382 990.131 0.798332 997.59L0 1030.26C0 1030.26 557.447 1020.36 654.994 1045.16Z" fill="url(#paint13_linear_5012_232)"/>
<path d="M726.377 1010.95L790.846 1007.07C790.846 1007.07 1445 1027.51 1596.51 1222L1479.88 1223.6C1479.88 1223.6 1334.36 1050.36 726.377 1010.95Z" fill="url(#paint14_linear_5012_232)"/>
<path d="M690.829 1010.95L713.784 1007.07C713.784 1007.07 508.673 961.697 0.798427 963.369L-0.677734 982.34C-0.677734 982.34 362.368 963.324 690.829 1010.94V1010.95Z" fill="url(#paint15_linear_5012_232)"/>
<path d="M1486.93 5.23654e-05C1486.93 5.23654e-05 1015.84 306.909 912.373 333.595L925.523 363.143C925.523 363.143 702.819 407.655 629.538 401.311C629.538 401.311 68.0241 417.946 -9.2334 379.914V485.588C-9.2334 485.588 819.661 701.274 1640 71.1822L1653.56 -10.9395L1486.93 5.23654e-05Z" fill="url(#paint16_linear_5012_232)"/>
<path d="M1411.36 274.015C1411.36 274.015 1441.5 118.436 1593.68 86.4156C1593.68 86.4156 1435.55 79.7103 1411.36 274.015Z" fill="#9F8568"/>
<path d="M1197.42 382.069C1197.42 382.069 1214.96 299.329 1314.93 279.831C1314.93 279.831 1211.58 283.824 1197.42 382.069Z" fill="#9F8568"/>
<path d="M1015.15 479.907C1015.15 479.907 1018.48 413.984 1095.05 397.198C1095.05 397.198 1020.15 391.261 1015.15 479.907Z" fill="#9F8568"/>
<path d="M619.867 535.025C619.867 535.025 645.911 498.696 694.805 512.031C694.805 512.031 644.962 484.472 619.867 535.025Z" fill="#9F8568"/>
<path d="M402.299 535.026C402.299 535.026 449.039 496.783 497.3 538.718C497.3 538.718 455.26 487.501 402.299 535.026Z" fill="#9F8568"/>
<path d="M243.913 526.768C243.913 526.768 183.587 484.969 147.391 535.026C147.391 535.026 175.965 474.165 243.913 526.768Z" fill="#9F8568"/>
<path d="M105.47 520.184C105.47 520.184 42.5377 483.418 -1.56641 518.376C-1.56641 518.376 40.0523 466.722 105.47 520.184Z" fill="#9F8568"/>
<path d="M1411.36 652.301C1411.36 652.301 1446.17 583.304 1532.24 573.751C1532.24 573.751 1419.1 569.532 1411.36 652.301Z" fill="#9F8568"/>
<path opacity="0.41" d="M-0.40625 402.879C199.855 445.251 453.001 469.812 738.171 426.4C804.267 416.335 866.989 403.406 926.201 388.504" stroke="#C49A6C" stroke-width="4" stroke-miterlimit="10"/>
<path opacity="0.41" d="M-0.663086 454.532C217.794 488.843 492.872 503.233 800.109 448.43C871.326 435.727 938.778 420.282 1002.34 403.029" stroke="#C49A6C" stroke-width="4" stroke-miterlimit="10"/>
<path opacity="0.32" d="M1071.23 365.268C1071.23 365.268 1516.15 118.421 1632.18 22.2559" stroke="#C49A6C" stroke-width="4" stroke-miterlimit="10"/>
<path opacity="0.32" d="M1118.49 282.74C1118.49 282.74 1563.42 35.9078 1679.45 -60.2725" stroke="#C49A6C" stroke-width="4" stroke-miterlimit="10"/>
<rect x="-38" y="-6" width="1743" height="1423" fill="#12027D" fill-opacity="0.16" style="mix-blend-mode:plus-darker"/>
</g>
<defs>
<linearGradient id="paint0_linear_5012_232" x1="0" y1="1132.16" x2="1247.67" y2="1132.16" gradientUnits="userSpaceOnUse">
<stop stop-color="#FBDEB5"/>
<stop offset="1" stop-color="#FFF5DA"/>
</linearGradient>
<linearGradient id="paint1_linear_5012_232" x1="-9.21875" y1="199.925" x2="1534.39" y2="199.925" gradientUnits="userSpaceOnUse">
<stop stop-color="#FBDEB5"/>
<stop offset="1" stop-color="#FFF5DA"/>
</linearGradient>
<linearGradient id="paint2_linear_5012_232" x1="-0.677734" y1="365.268" x2="1640" y2="365.268" gradientUnits="userSpaceOnUse">
<stop stop-color="#FBDEB5"/>
<stop offset="1" stop-color="#FFF5DA"/>
</linearGradient>
<linearGradient id="paint3_linear_5012_232" x1="-29.8242" y1="894.688" x2="823.548" y2="894.688" gradientUnits="userSpaceOnUse">
<stop stop-color="#FBDEB5"/>
<stop offset="1" stop-color="#FFF5DA"/>
</linearGradient>
<linearGradient id="paint4_linear_5012_232" x1="0.797852" y1="581.978" x2="1653.56" y2="581.978" gradientUnits="userSpaceOnUse">
<stop stop-color="#FBDEB5"/>
<stop offset="1" stop-color="#FFF5DA"/>
</linearGradient>
<linearGradient id="paint5_linear_5012_232" x1="-6.44727" y1="964.559" x2="1671.69" y2="964.559" gradientUnits="userSpaceOnUse">
<stop stop-color="#FBDEB5"/>
<stop offset="1" stop-color="#FFF5DA"/>
</linearGradient>
<linearGradient id="paint6_linear_5012_232" x1="862.545" y1="1012.96" x2="1837.62" y2="1012.96" gradientUnits="userSpaceOnUse">
<stop stop-color="#FBDEB5"/>
<stop offset="1" stop-color="#FFF5DA"/>
</linearGradient>
<linearGradient id="paint7_linear_5012_232" x1="823.547" y1="1048.52" x2="1798.63" y2="1048.52" gradientUnits="userSpaceOnUse">
<stop stop-color="#FBDEB5"/>
<stop offset="1" stop-color="#FFF5DA"/>
</linearGradient>
<linearGradient id="paint8_linear_5012_232" x1="0.797852" y1="922.083" x2="801.434" y2="922.083" gradientUnits="userSpaceOnUse">
<stop stop-color="#FBDEB5"/>
<stop offset="1" stop-color="#FFF5DA"/>
</linearGradient>
<linearGradient id="paint9_linear_5012_232" x1="780.316" y1="1093.11" x2="1764.03" y2="1093.11" gradientUnits="userSpaceOnUse">
<stop stop-color="#FBDEB5"/>
<stop offset="1" stop-color="#FFF5DA"/>
</linearGradient>
<linearGradient id="paint10_linear_5012_232" x1="-41.6641" y1="958.367" x2="766.067" y2="958.367" gradientUnits="userSpaceOnUse">
<stop stop-color="#FBDEB5"/>
<stop offset="1" stop-color="#FFF5DA"/>
</linearGradient>
<linearGradient id="paint11_linear_5012_232" x1="-6.44727" y1="699.435" x2="1653.56" y2="699.435" gradientUnits="userSpaceOnUse">
<stop stop-color="#FBDEB5"/>
<stop offset="1" stop-color="#FFF5DA"/>
</linearGradient>
<linearGradient id="paint12_linear_5012_232" x1="671.608" y1="1130.17" x2="1384.37" y2="1130.17" gradientUnits="userSpaceOnUse">
<stop stop-color="#FBDEB5"/>
<stop offset="1" stop-color="#FFF5DA"/>
</linearGradient>
<linearGradient id="paint13_linear_5012_232" x1="0" y1="1020.96" x2="690.828" y2="1020.96" gradientUnits="userSpaceOnUse">
<stop stop-color="#FBDEB5"/>
<stop offset="1" stop-color="#FFF5DA"/>
</linearGradient>
<linearGradient id="paint14_linear_5012_232" x1="726.377" y1="1115.33" x2="1596.51" y2="1115.33" gradientUnits="userSpaceOnUse">
<stop stop-color="#FBDEB5"/>
<stop offset="1" stop-color="#FFF5DA"/>
</linearGradient>
<linearGradient id="paint15_linear_5012_232" x1="-0.677734" y1="987.147" x2="713.784" y2="987.147" gradientUnits="userSpaceOnUse">
<stop stop-color="#FBDEB5"/>
<stop offset="1" stop-color="#FFF5DA"/>
</linearGradient>
<linearGradient id="paint16_linear_5012_232" x1="-9.21834" y1="255.135" x2="1653.56" y2="255.135" gradientUnits="userSpaceOnUse">
<stop stop-color="#FBDEB5"/>
<stop offset="1" stop-color="#FFF5DA"/>
</linearGradient>
<clipPath id="clip0_5012_232">
<rect width="1640" height="1222" fill="white"/>
</clipPath>
</defs>
</svg>
