<svg width="2732" height="2925" viewBox="0 0 2732 2925" fill="none" xmlns="http://www.w3.org/2000/svg">
<rect x="402.454" y="56.875" width="1927.13" height="369.687" fill="#FFF3DB"/>
<rect x="402.454" y="56.875" width="1927.13" height="93.4375" fill="#FFF9EF"/>
<rect x="402.454" y="320.938" width="1927.13" height="105.625" fill="#F2DDB1"/>
<path d="M316.035 20C316.035 8.95429 324.989 0 336.035 0H394.454C398.872 0 402.454 3.58172 402.454 8V491.687C402.454 496.106 398.872 499.687 394.454 499.687H336.035C324.989 499.687 316.035 490.733 316.035 479.687V20Z" fill="#C08A5F"/>
<path d="M316.035 20C316.035 8.95429 324.989 0 336.035 0H394.454C398.872 0 402.454 3.58172 402.454 8V491.687C402.454 496.106 398.872 499.687 394.454 499.687H336.035C324.989 499.687 316.035 490.733 316.035 479.687V20Z" fill="#C08A5F"/>
<path d="M316.035 20C316.035 8.95431 324.989 0 336.035 0H394.454C398.872 0 402.454 3.58172 402.454 8V373.875C402.454 378.293 398.872 381.875 394.454 381.875H336.035C324.989 381.875 316.035 372.921 316.035 361.875V20Z" fill="#E3B383"/>
<path d="M255.542 105.312C255.542 94.2668 264.497 85.3125 275.542 85.3125H308.035C312.453 85.3125 316.035 88.8942 316.035 93.3125V406.375C316.035 410.793 312.453 414.375 308.035 414.375H275.542C264.497 414.375 255.542 405.421 255.542 394.375V105.312Z" fill="#C08A5F"/>
<path d="M255.542 105.312C255.542 94.2668 264.497 85.3125 275.542 85.3125H299.393C303.812 85.3125 307.393 88.8942 307.393 93.3125V329.187C307.393 333.606 303.812 337.187 299.393 337.187H275.542C264.497 337.187 255.542 328.233 255.542 317.187V105.312Z" fill="#E3B383"/>
<path d="M56.8802 179.443C84.9685 207.068 201.633 218.037 256.455 220.068V244.443H29.1616C29.1616 244.443 23.2483 250.943 29.1616 220.068C35.0749 189.193 50.5563 175.38 56.8802 179.443Z" fill="#E3B383"/>
<path d="M56.8802 305.952C84.9685 278.327 201.633 267.358 256.455 265.327V240.952H29.1616C29.1616 240.952 23.2483 234.452 29.1616 265.327C35.0749 296.202 50.5563 310.015 56.8802 305.952Z" fill="#C08A5F"/>
<ellipse cx="22.2125" cy="239.687" rx="21.6046" ry="20.3125" fill="#E3B383"/>
<path d="M2416 20C2416 8.95429 2407.05 0 2396 0H2337.59C2333.17 0 2329.59 3.58172 2329.59 8V491.687C2329.59 496.106 2333.17 499.687 2337.59 499.687H2396C2407.05 499.687 2416 490.733 2416 479.687V20Z" fill="#C08A5F"/>
<path d="M2416 20C2416 8.95429 2407.05 0 2396 0H2337.59C2333.17 0 2329.59 3.58172 2329.59 8V491.687C2329.59 496.106 2333.17 499.687 2337.59 499.687H2396C2407.05 499.687 2416 490.733 2416 479.687V20Z" fill="#C08A5F"/>
<path d="M2416 20C2416 8.95431 2407.05 0 2396 0H2337.59C2333.17 0 2329.59 3.58172 2329.59 8V373.875C2329.59 378.293 2333.17 381.875 2337.59 381.875H2396C2407.05 381.875 2416 372.921 2416 361.875V20Z" fill="#E3B383"/>
<path d="M2476.5 105.312C2476.5 94.2668 2467.54 85.3125 2456.5 85.3125H2424C2419.59 85.3125 2416 88.8942 2416 93.3125V406.375C2416 410.793 2419.59 414.375 2424 414.375H2456.5C2467.54 414.375 2476.5 405.421 2476.5 394.375V105.312Z" fill="#C08A5F"/>
<path d="M2476.5 105.312C2476.5 94.2668 2467.54 85.3125 2456.5 85.3125H2432.65C2428.23 85.3125 2424.65 88.8942 2424.65 93.3125V329.187C2424.65 333.606 2428.23 337.187 2432.65 337.187H2456.5C2467.54 337.187 2476.5 328.233 2476.5 317.187V105.312Z" fill="#E3B383"/>
<path d="M2675.16 179.443C2647.07 207.068 2530.41 218.037 2475.58 220.068V244.443H2702.88C2702.88 244.443 2708.79 250.943 2702.88 220.068C2696.96 189.193 2681.48 175.38 2675.16 179.443Z" fill="#E3B383"/>
<path d="M2675.16 305.952C2647.07 278.327 2530.41 267.358 2475.58 265.327V240.952H2702.88C2702.88 240.952 2708.79 234.452 2702.88 265.327C2696.96 296.202 2681.48 310.015 2675.16 305.952Z" fill="#C08A5F"/>
<ellipse cx="21.6046" cy="20.3125" rx="21.6046" ry="20.3125" transform="matrix(-1 0 0 1 2731.43 219.375)" fill="#E3B383"/>
<path d="M451.841 631.039V404.608V366.229L2279.59 391.175V726.985L2188.85 736.58L2279.59 748.093V918.877L2117.56 922.714L2279.59 938.066V1089.66L2134.84 1101.17L2279.59 1118.44V1335.28L2152.12 1348.71L2279.59 1358.31V1488.79V1811.17L2033.3 1830.36L2279.59 1843.79V2133.55L2104.59 2154.66L2279.59 2170.01V2482.79H451.841V2024.17L641.962 1999.23L451.841 1985.79V1903.28L594.432 1886.01L451.841 1870.66V1720.98V1596.25V1580V1567.47V1016.74V880.498L540.42 867.066L451.841 859.39L598.752 845.958L451.841 836.363V648.31L544.741 638.715L451.841 631.039Z" fill="#F2DDB1"/>
<path d="M516.655 631.039V404.608V366.229L2219.1 391.175V726.985L2134.58 736.58L2219.1 748.093V918.877L2068.17 922.714L2219.1 938.066V1089.66L2084.27 1101.17L2219.1 1118.44V1335.28L2100.37 1348.71L2219.1 1358.31V1488.79V1811.17L1989.69 1830.36L2219.1 1843.79V2133.55L2056.1 2154.66L2219.1 2170.01V2482.79H516.655V2024.17L693.741 1999.23L516.655 1985.79V1903.28L649.47 1886.01L516.655 1870.66V1720.98V1596.25V1579V1567.47V1016.74V880.498L599.161 867.066L516.655 859.39L653.494 845.958L516.655 836.363V648.31L603.186 638.715L516.655 631.039Z" fill="#FFF3DB"/>
<rect x="451.841" y="2413.73" width="1827.75" height="69.0625" fill="#E5D0A4"/>
<rect x="451.841" y="2454.35" width="1827.75" height="28.4375" fill="#D8C59C"/>
<rect x="451.841" y="427.167" width="1827.75" height="101.562" fill="#E5D0A4"/>
<rect x="451.841" y="427.167" width="1827.75" height="40.625" fill="#C4AF8E"/>
<rect x="402.454" y="2482.19" width="1927.13" height="369.687" fill="#FFF3DB"/>
<rect x="402.454" y="2482.19" width="1927.13" height="93.4375" fill="#FFF9EF"/>
<rect x="402.454" y="2746.25" width="1927.13" height="105.625" fill="#F2DDB1"/>
<path d="M316.035 2445.31C316.035 2434.27 324.989 2425.31 336.035 2425.31H394.454C398.872 2425.31 402.454 2428.89 402.454 2433.31V2917C402.454 2921.42 398.872 2925 394.454 2925H336.035C324.989 2925 316.035 2916.05 316.035 2905V2445.31Z" fill="#C08A5F"/>
<path d="M316.035 2445.31C316.035 2434.27 324.989 2425.31 336.035 2425.31H394.454C398.872 2425.31 402.454 2428.89 402.454 2433.31V2917C402.454 2921.42 398.872 2925 394.454 2925H336.035C324.989 2925 316.035 2916.05 316.035 2905V2445.31Z" fill="#C08A5F"/>
<path d="M316.035 2445.31C316.035 2434.27 324.989 2425.31 336.035 2425.31H394.454C398.872 2425.31 402.454 2428.89 402.454 2433.31V2799.19C402.454 2803.61 398.872 2807.19 394.454 2807.19H336.035C324.989 2807.19 316.035 2798.23 316.035 2787.19V2445.31Z" fill="#E3B383"/>
<path d="M255.542 2530.63C255.542 2519.58 264.497 2510.63 275.542 2510.63H308.035C312.453 2510.63 316.035 2514.21 316.035 2518.63V2831.69C316.035 2836.11 312.453 2839.69 308.035 2839.69H275.542C264.497 2839.69 255.542 2830.73 255.542 2819.69V2530.63Z" fill="#C08A5F"/>
<path d="M255.542 2530.63C255.542 2519.58 264.497 2510.63 275.542 2510.63H299.393C303.812 2510.63 307.393 2514.21 307.393 2518.63V2754.5C307.393 2758.92 303.812 2762.5 299.393 2762.5H275.542C264.497 2762.5 255.542 2753.55 255.542 2742.5V2530.63Z" fill="#E3B383"/>
<path d="M56.8802 2604.76C84.9685 2632.38 201.633 2643.35 256.455 2645.38V2669.76H29.1616C29.1616 2669.76 23.2483 2676.26 29.1616 2645.38C35.0749 2614.51 50.5563 2600.69 56.8802 2604.76Z" fill="#E3B383"/>
<path d="M56.8802 2731.27C84.9685 2703.64 201.633 2692.67 256.455 2690.64V2666.27H29.1616C29.1616 2666.27 23.2483 2659.77 29.1616 2690.64C35.0749 2721.52 50.5563 2735.33 56.8802 2731.27Z" fill="#C08A5F"/>
<ellipse cx="22.2125" cy="2665" rx="21.6046" ry="20.3125" fill="#E3B383"/>
<path d="M2416 2445.31C2416 2434.27 2407.05 2425.31 2396 2425.31H2337.59C2333.17 2425.31 2329.59 2428.89 2329.59 2433.31V2917C2329.59 2921.42 2333.17 2925 2337.59 2925H2396C2407.05 2925 2416 2916.05 2416 2905V2445.31Z" fill="#C08A5F"/>
<path d="M2416 2445.31C2416 2434.27 2407.05 2425.31 2396 2425.31H2337.59C2333.17 2425.31 2329.59 2428.89 2329.59 2433.31V2917C2329.59 2921.42 2333.17 2925 2337.59 2925H2396C2407.05 2925 2416 2916.05 2416 2905V2445.31Z" fill="#C08A5F"/>
<path d="M2416 2445.31C2416 2434.27 2407.05 2425.31 2396 2425.31H2337.59C2333.17 2425.31 2329.59 2428.89 2329.59 2433.31V2799.19C2329.59 2803.61 2333.17 2807.19 2337.59 2807.19H2396C2407.05 2807.19 2416 2798.23 2416 2787.19V2445.31Z" fill="#E3B383"/>
<path d="M2476.5 2530.63C2476.5 2519.58 2467.54 2510.63 2456.5 2510.63H2424C2419.59 2510.63 2416 2514.21 2416 2518.63V2831.69C2416 2836.11 2419.59 2839.69 2424 2839.69H2456.5C2467.54 2839.69 2476.5 2830.73 2476.5 2819.69V2530.63Z" fill="#C08A5F"/>
<path d="M2476.5 2530.63C2476.5 2519.58 2467.54 2510.63 2456.5 2510.63H2432.65C2428.23 2510.63 2424.65 2514.21 2424.65 2518.63V2754.5C2424.65 2758.92 2428.23 2762.5 2432.65 2762.5H2456.5C2467.54 2762.5 2476.5 2753.55 2476.5 2742.5V2530.63Z" fill="#E3B383"/>
<path d="M2675.16 2604.76C2647.07 2632.38 2530.41 2643.35 2475.58 2645.38V2669.76H2702.88C2702.88 2669.76 2708.79 2676.26 2702.88 2645.38C2696.96 2614.51 2681.48 2600.69 2675.16 2604.76Z" fill="#E3B383"/>
<path d="M2675.16 2731.27C2647.07 2703.64 2530.41 2692.67 2475.58 2690.64V2666.27H2702.88C2702.88 2666.27 2708.79 2659.77 2702.88 2690.64C2696.96 2721.52 2681.48 2735.33 2675.16 2731.27Z" fill="#C08A5F"/>
<ellipse cx="21.6046" cy="20.3125" rx="21.6046" ry="20.3125" transform="matrix(-1 0 0 1 2731.43 2644.69)" fill="#E3B383"/>
</svg>
