<svg width="2222" height="3772" viewBox="0 0 2222 3772" fill="none" xmlns="http://www.w3.org/2000/svg">
<rect x="147.454" y="56.875" width="1927.13" height="369.687" fill="#FFF3DB"/>
<rect x="147.454" y="56.875" width="1927.13" height="93.4375" fill="#FFF9EF"/>
<rect x="147.454" y="320.938" width="1927.13" height="105.625" fill="#F2DDB1"/>
<path d="M61.0352 20C61.0352 8.95429 69.9895 0 81.0352 0H139.454C143.872 0 147.454 3.58172 147.454 8V491.687C147.454 496.106 143.872 499.687 139.454 499.687H81.0352C69.9895 499.687 61.0352 490.733 61.0352 479.687V20Z" fill="#C08A5F"/>
<path d="M61.0352 20C61.0352 8.95429 69.9895 0 81.0352 0H139.454C143.872 0 147.454 3.58172 147.454 8V491.687C147.454 496.106 143.872 499.687 139.454 499.687H81.0352C69.9895 499.687 61.0352 490.733 61.0352 479.687V20Z" fill="#C08A5F"/>
<path d="M61.0352 20C61.0352 8.95431 69.9895 0 81.0352 0H139.454C143.872 0 147.454 3.58172 147.454 8V373.875C147.454 378.293 143.872 381.875 139.454 381.875H81.0352C69.9895 381.875 61.0352 372.921 61.0352 361.875V20Z" fill="#E3B383"/>
<path d="M0.542236 105.312C0.542236 94.2668 9.49654 85.3125 20.5422 85.3125H53.0352C57.4534 85.3125 61.0352 88.8942 61.0352 93.3125V406.375C61.0352 410.793 57.4534 414.375 53.0352 414.375H20.5422C9.49655 414.375 0.542236 405.421 0.542236 394.375V105.312Z" fill="#C08A5F"/>
<path d="M0.542236 105.312C0.542236 94.2668 9.49654 85.3125 20.5422 85.3125H44.3933C48.8116 85.3125 52.3933 88.8942 52.3933 93.3125V329.187C52.3933 333.606 48.8116 337.187 44.3933 337.187H20.5422C9.49655 337.187 0.542236 328.233 0.542236 317.187V105.312Z" fill="#E3B383"/>
<path d="M2161 20C2161 8.95429 2152.05 0 2141 0H2082.59C2078.17 0 2074.59 3.58172 2074.59 8V491.687C2074.59 496.106 2078.17 499.687 2082.59 499.687H2141C2152.05 499.687 2161 490.733 2161 479.687V20Z" fill="#C08A5F"/>
<path d="M2161 20C2161 8.95429 2152.05 0 2141 0H2082.59C2078.17 0 2074.59 3.58172 2074.59 8V491.687C2074.59 496.106 2078.17 499.687 2082.59 499.687H2141C2152.05 499.687 2161 490.733 2161 479.687V20Z" fill="#C08A5F"/>
<path d="M2161 20C2161 8.95431 2152.05 0 2141 0H2082.59C2078.17 0 2074.59 3.58172 2074.59 8V373.875C2074.59 378.293 2078.17 381.875 2082.59 381.875H2141C2152.05 381.875 2161 372.921 2161 361.875V20Z" fill="#E3B383"/>
<path d="M2221.5 105.312C2221.5 94.2668 2212.54 85.3125 2201.5 85.3125H2169C2164.59 85.3125 2161 88.8942 2161 93.3125V406.375C2161 410.793 2164.59 414.375 2169 414.375H2201.5C2212.54 414.375 2221.5 405.421 2221.5 394.375V105.312Z" fill="#C08A5F"/>
<path d="M2221.5 105.312C2221.5 94.2668 2212.54 85.3125 2201.5 85.3125H2177.65C2173.23 85.3125 2169.65 88.8942 2169.65 93.3125V329.187C2169.65 333.606 2173.23 337.187 2177.65 337.187H2201.5C2212.54 337.187 2221.5 328.233 2221.5 317.187V105.312Z" fill="#E3B383"/>
<path d="M196.841 736.815V419.937V366.229L2024.59 401.139V871.085L1933.85 884.512L2024.59 900.624V1139.63L1862.56 1145L2024.59 1166.48V1378.63L1879.84 1394.74L2024.59 1418.91V1722.36L1897.12 1741.16L2024.59 1754.58V1937.19V2388.34L1778.3 2415.19L2024.59 2433.99V2839.49L1849.59 2869.03L2024.59 2890.51V3328.23H196.841V2686.42L386.962 2651.51L196.841 2632.71V2517.24L339.432 2493.07L196.841 2471.59V2262.12V2087.57V2064.83V2047.29V1276.58V1085.92L285.42 1067.12L196.841 1056.38L343.752 1037.58L196.841 1024.15V760.984L289.741 747.557L196.841 736.815Z" fill="#F2DDB1"/>
<path d="M261.655 736.815V419.937V366.229L1964.1 401.139V871.085L1879.58 884.512L1964.1 900.624V1139.63L1813.17 1145L1964.1 1166.48V1378.63L1829.27 1394.74L1964.1 1418.91V1722.36L1845.37 1741.16L1964.1 1754.58V1937.19V2388.34L1734.69 2415.19L1964.1 2433.99V2839.49L1801.1 2869.02L1964.1 2890.51V3328.23H261.655V2686.42L438.741 2651.51L261.655 2632.71V2517.24L394.47 2493.07L261.655 2471.59V2262.12V2087.57V2063.43V2047.29V1276.58V1085.92L344.161 1067.12L261.655 1056.38L398.494 1037.58L261.655 1024.15V760.984L348.186 747.557L261.655 736.815Z" fill="#FFF3DB"/>
<rect x="196.841" y="3231.58" width="1827.75" height="96.6487" fill="#E5D0A4"/>
<rect x="196.841" y="3288.43" width="1827.75" height="39.7965" fill="#D8C59C"/>
<rect x="196.841" y="451.508" width="1827.75" height="142.13" fill="#E5D0A4"/>
<rect x="196.841" y="451.508" width="1827.75" height="56.8522" fill="#C4AF8E"/>
<rect x="147.454" y="3328.88" width="1927.13" height="369.687" fill="#FFF3DB"/>
<rect x="147.454" y="3328.88" width="1927.13" height="93.4375" fill="#FFF9EF"/>
<rect x="147.454" y="3592.94" width="1927.13" height="105.625" fill="#F2DDB1"/>
<path d="M61.0352 3292C61.0352 3280.95 69.9895 3272 81.0352 3272H139.454C143.872 3272 147.454 3275.58 147.454 3280V3763.69C147.454 3768.11 143.872 3771.69 139.454 3771.69H81.0352C69.9895 3771.69 61.0352 3762.73 61.0352 3751.69V3292Z" fill="#C08A5F"/>
<path d="M61.0352 3292C61.0352 3280.95 69.9895 3272 81.0352 3272H139.454C143.872 3272 147.454 3275.58 147.454 3280V3763.69C147.454 3768.11 143.872 3771.69 139.454 3771.69H81.0352C69.9895 3771.69 61.0352 3762.73 61.0352 3751.69V3292Z" fill="#C08A5F"/>
<path d="M61.0352 3292C61.0352 3280.95 69.9895 3272 81.0352 3272H139.454C143.872 3272 147.454 3275.58 147.454 3280V3645.87C147.454 3650.29 143.872 3653.87 139.454 3653.87H81.0352C69.9895 3653.87 61.0352 3644.92 61.0352 3633.87V3292Z" fill="#E3B383"/>
<path d="M0.542236 3377.31C0.542236 3366.27 9.49654 3357.31 20.5422 3357.31H53.0352C57.4534 3357.31 61.0352 3360.89 61.0352 3365.31V3678.38C61.0352 3682.79 57.4534 3686.38 53.0352 3686.38H20.5422C9.49655 3686.38 0.542236 3677.42 0.542236 3666.38V3377.31Z" fill="#C08A5F"/>
<path d="M0.542236 3377.31C0.542236 3366.27 9.49654 3357.31 20.5422 3357.31H44.3933C48.8116 3357.31 52.3933 3360.89 52.3933 3365.31V3601.19C52.3933 3605.61 48.8116 3609.19 44.3933 3609.19H20.5422C9.49655 3609.19 0.542236 3600.23 0.542236 3589.19V3377.31Z" fill="#E3B383"/>
<path d="M2161 3292C2161 3280.95 2152.05 3272 2141 3272H2082.59C2078.17 3272 2074.59 3275.58 2074.59 3280V3763.69C2074.59 3768.11 2078.17 3771.69 2082.59 3771.69H2141C2152.05 3771.69 2161 3762.73 2161 3751.69V3292Z" fill="#C08A5F"/>
<path d="M2161 3292C2161 3280.95 2152.05 3272 2141 3272H2082.59C2078.17 3272 2074.59 3275.58 2074.59 3280V3763.69C2074.59 3768.11 2078.17 3771.69 2082.59 3771.69H2141C2152.05 3771.69 2161 3762.73 2161 3751.69V3292Z" fill="#C08A5F"/>
<path d="M2161 3292C2161 3280.95 2152.05 3272 2141 3272H2082.59C2078.17 3272 2074.59 3275.58 2074.59 3280V3645.87C2074.59 3650.29 2078.17 3653.87 2082.59 3653.87H2141C2152.05 3653.87 2161 3644.92 2161 3633.87V3292Z" fill="#E3B383"/>
<path d="M2221.5 3377.31C2221.5 3366.27 2212.54 3357.31 2201.5 3357.31H2169C2164.59 3357.31 2161 3360.89 2161 3365.31V3678.38C2161 3682.79 2164.59 3686.38 2169 3686.38H2201.5C2212.54 3686.38 2221.5 3677.42 2221.5 3666.38V3377.31Z" fill="#C08A5F"/>
<path d="M2221.5 3377.31C2221.5 3366.27 2212.54 3357.31 2201.5 3357.31H2177.65C2173.23 3357.31 2169.65 3360.89 2169.65 3365.31V3601.19C2169.65 3605.61 2173.23 3609.19 2177.65 3609.19H2201.5C2212.54 3609.19 2221.5 3600.23 2221.5 3589.19V3377.31Z" fill="#E3B383"/>
</svg>
