<svg width="1519" height="2606" viewBox="0 0 1519 2606" fill="none" xmlns="http://www.w3.org/2000/svg">
<path opacity="0.5" d="M327.364 462.4L267.395 486.076L224.22 514.256L237.321 563.703L225.083 608.169L253.947 627.238L307.99 666.683L351.412 620.15L356.665 564.765L463.102 515.103L392.482 468.575L327.364 462.4Z" fill="#273232"/>
<path opacity="0.5" d="M1438.65 1242.85L1470.88 1230.27L1494.11 1215.24L1487.19 1188.67L1493.85 1164.83L1478.4 1154.53L1449.47 1133.25L1426.07 1158.13L1423.14 1187.85L1365.9 1214.28L1403.71 1239.4L1438.65 1242.85Z" fill="#273232"/>
<path opacity="0.5" d="M143.727 560.759L94.0909 589.527L93.4846 629.529L130.978 642.556L154.272 669.723L179.064 659.429L181.119 637.895L195.392 615.07L214.252 571.898L181.007 514.539L143.727 560.759Z" fill="#273232"/>
<path opacity="0.5" d="M114.777 830.376L96.708 875.216L52.488 879.439L34.4921 917.581L64.8189 946.41L75.3577 982.634L103.642 983.543L114.99 963.763L138.629 948.062L175.531 914.822L168.582 845.278L114.777 830.376Z" fill="#273232"/>
<path opacity="0.5" d="M430.738 342.647L408.279 352.82L390.482 338.802L370.409 346.531L371.44 367.846L362.567 384.919L372.679 395.217L383.832 391.919L398.081 394.454L423.4 395.193L445.334 367.096L430.738 342.647Z" fill="#273232"/>
<path opacity="0.5" d="M663.951 1290.57L631.537 1295.11L614.129 1270.59L585.67 1272.91L578.992 1300.44L561.293 1318.85L570.309 1335.75L585.748 1335.74L602.943 1344.31L634.909 1354.74L673.372 1327.18L663.951 1290.57Z" fill="#273232"/>
<path opacity="0.5" d="M1403.5 1121.5L1422.67 1095.06L1452.34 1099.52L1470.37 1077.46L1455.2 1053.61L1454.22 1028.15L1435.83 1022.93L1425.16 1034.04L1407.1 1040.47L1377.48 1056.23L1370.67 1102.94L1403.5 1121.5Z" fill="#273232"/>
<path d="M1335.35 319.496L1364.37 317.699L1335.27 315.762C1324.35 305.143 1302.12 283.636 1300.56 282.556C1298.61 281.206 1267.74 274.548 1262.48 272.795C1258.28 271.392 1241.53 256.708 1233.69 249.542L1239.52 257.927L1259.43 274.924L1298.77 286.508L1335.35 319.496Z" fill="#232A2A"/>
<path d="M161.936 982.15C209.982 935.549 260.007 925.132 288.553 925.132C288.553 937.742 288.553 935.549 265.377 951.448C246.837 964.167 225.621 991.653 217.331 1003.81C195.569 1049.58 239.941 1018.88 260.007 996.13C274.157 980.086 312.121 964.035 332.642 970.911C337.259 961.134 349.656 940.374 362.318 935.549C389.656 925.132 434.953 919.65 425.344 925.132C415.734 930.615 356.383 959.672 356.383 970.911C356.383 982.15 366.557 982.15 362.318 987.907C358.079 993.663 333.208 999.694 284.596 1037.8C245.706 1068.28 249.173 1081.2 255.768 1083.85C290.814 1072.67 276.777 1096.73 265.377 1110.17C238.81 1127.71 253.224 1149.09 281.204 1121.95C303.588 1100.24 376.072 1054.79 409.517 1034.78C451.345 1017.15 549.925 979.409 609.616 969.54C669.307 959.672 695.158 965.429 700.622 969.54C688.638 968.882 641.364 979.5 619.225 984.891C574.683 1001.34 575.23 1008.56 581.071 1010.11C634.487 1001.89 611.877 1007.92 581.071 1027.93C556.426 1043.94 573.628 1043.55 585.31 1041.36C657.38 1026.01 758.56 1012.03 870.197 1021.35C981.835 1030.67 1061.25 1050.13 1105.06 1081.93C1140.11 1107.37 1197.1 1123.42 1221.22 1128.26C1228.91 1116.85 1179.2 1075.81 1153.39 1056.71C1110.15 1031.95 1017.11 982.424 990.879 982.424C964.651 982.424 958.471 978.221 958.659 976.119C971.321 964.935 1061.54 975.662 1105.06 982.424C1075.67 969.266 1064.36 956.108 1068.32 951.722C1072.28 947.336 1092.06 942.95 1176.85 982.424C1261.63 1021.9 1294.14 1053.42 1292.44 1056.71C1290.74 1060 1281.7 1060.28 1250.05 1044.1C1224.72 1031.16 1230.83 1047.12 1237.05 1056.71C1310.25 1124.69 1317.88 1161.43 1309.4 1166.64C1300.92 1171.84 1286.51 1166.64 1268.7 1161.43C1254.46 1157.26 1257.3 1163.16 1260.5 1166.64C1309.49 1195.97 1415.84 1262.63 1449.3 1294.65C1491.13 1334.67 1563.48 1463.24 1556.98 1453.92C1550.48 1444.6 1522.29 1401.35 1514.59 1416.91C1502.15 1442.03 1555.85 1416.91 1556.98 1639.77C1557.32 1707.91 1574.78 1696.79 1580.72 1682.81C1582.3 1661.32 1565.46 1576.32 1580.72 1576.32C1623.4 1602.63 1620.42 1701.08 1628.68 1674.36C1637.31 1646.45 1638.27 1616.81 1656.39 1649.32C1667.13 1668.59 1664.91 1744.7 1656.39 1787.33C1652.26 1807.96 1640.08 1847.08 1638.27 1851.81C1635.05 1860.19 1623.86 1868.53 1619.62 1851.81C1615.38 1835.09 1625.87 1797.94 1612.69 1808.65C1607.39 1812.95 1602.48 1837.69 1600.79 1848.38C1596.27 1876.85 1571.68 1925.68 1569.41 1919.38C1567.15 1913.07 1563.76 1907.04 1565.46 1893.89C1567.15 1880.73 1562.63 1878.54 1555.85 1881.82C1550.42 1884.46 1525.32 1978.32 1502.15 2019.43C1483.5 2051.96 1449.02 2118.12 1460.32 2122.51C1474.45 2127.99 1511.76 2084.68 1517.41 2094.54C1521.93 2102.44 1515.53 2118.3 1511.76 2125.25C1496.84 2135.77 1499.13 2143.16 1502.15 2145.53C1513.45 2138.51 1521.37 2135.66 1525.32 2142.79C1529.28 2149.92 1468.77 2249.26 1466.06 2262.86C1462.66 2279.85 1446.19 2283.14 1464.28 2248.6C1482.37 2214.06 1481.88 2192.38 1469.36 2188.84C1455.8 2185.01 1440.54 2216.8 1428.1 2210.22C1415.67 2203.65 1433.19 2174.59 1425.28 2173.49C1398.4 2169.77 1418.49 2229.97 1292.44 2315.5C1249.99 2344.3 1199.09 2369.13 1053.82 2380.64C908.551 2392.15 912.139 2444.88 1022.08 2444.88C1132.02 2444.88 985.904 2493.13 881.898 2470.1C767.189 2444.7 704.578 2454.75 704.578 2429.53C704.578 2413.08 936.049 2384.37 799.554 2384.37C663.058 2384.37 518.206 2311.67 430.818 2290.36C334.371 2290.36 562.202 2359.36 570.727 2367.03C580.527 2375.85 487.631 2355.39 478.026 2367.03C468.982 2378 505.417 2416.11 570.727 2429.53C542.465 2437.21 461.124 2416.28 424.948 2409.71C403.374 2405.78 274.807 2372.34 280.203 2354.97C285.686 2337.32 384.353 2358.15 388.762 2347.29C394.584 2332.95 351.834 2347.29 280.203 2302.34C248.172 2282.24 207.835 2230.27 207.835 2245.32C207.835 2258.48 207.835 2271.17 223.004 2294.11C196.776 2289.73 139.251 2233.26 118.525 2213.52C82.3492 2174.78 8.18813 2098.17 0.952957 2101.68C-8.09101 2106.07 9.99693 2148.83 0.952957 2151.02C-6.28221 2152.78 -13.3668 2141.52 -16.0047 2135.67C-20.5268 2147.07 -6.58379 2181.36 0.952957 2197.07C-115.715 2025.14 -113.228 1939.03 -97.401 1917.47C-73.8865 2002.56 -29.5707 2052.34 -10.3521 2066.59C-19.3961 2034.79 -2.43856 2011.77 37.1291 2055.63C68.7832 2090.71 88.7555 2092.18 94.7849 2088.52C93.8805 2071.86 55.9709 2012.86 37.1291 1985.45L28.0851 1993.13C10.7507 1970.83 -26.8575 1904.97 -38.6147 1819.88C-50.3719 1734.79 -33.7159 1730.33 -23.9182 1738.74C0.500694 1783.48 6.60546 1783.7 6.60548 1778.21C-14.8741 1689.4 7.05695 1630.18 4.79594 1595.09C2.98714 1567.02 -8.77012 1583.4 -14.4226 1595.09C-33.6412 1599.48 -14.4226 1518.34 -23.4667 1517.24C-32.5108 1516.14 -42.6853 1544.65 -44.9463 1575.35C-46.7551 1599.92 -57.7587 1614.83 -63.0344 1619.21C-102.602 1606.06 -51.7293 1465.7 -23.4667 1426.23C-0.856613 1394.65 0.273888 1413.07 -1.98712 1426.23C-35.4501 1480.62 -15.93 1475.21 -1.98712 1465.7C31.9281 1384.56 132.543 1301.23 142.718 1292.46C150.857 1285.44 162.69 1274.18 167.589 1269.43C220.044 1246.62 213.562 1235.81 203.765 1233.25C152.892 1244.21 118.977 1284.78 108.802 1277.11C100.663 1270.97 140.833 1238 161.936 1222.28C170.076 1208.25 193.213 1191.58 203.765 1185C233.158 1136.76 203.765 1141.14 193.59 1142.24C183.416 1143.33 142.718 1178.42 132.543 1171.84C124.403 1166.58 141.964 1134.56 151.762 1119.21C141.587 1119.21 54.5381 1204.74 45.4941 1202.55C38.2588 1200.79 42.4794 1194.5 45.4941 1191.58C46.2477 1187.19 39.1632 1189.39 4.79583 1233.25C-29.5715 1277.11 -29.1193 1277.11 -35.9023 1269.43C-35.9023 1191.58 134.804 1008.47 161.936 982.15Z" fill="url(#paint0_radial_194_380)"/>
<path d="M1449.3 982.424C1469.87 997.556 1470.87 1010.48 1468.8 1015.04C1432.17 1000.13 1418.87 982.881 1416.8 976.119C1419.06 971.916 1428.72 967.292 1449.3 982.424Z" fill="url(#paint1_radial_194_380)"/>
<path d="M936.049 840.428C978.726 840.428 989.86 847.439 1030.73 853.312C1084.15 860.987 1132.19 890.867 1120.04 901.557C1105.06 901.557 1054.75 879.353 1022.82 879.353C1014.9 879.353 1080.19 901.557 1068.32 915.538C1036.76 908.593 910.217 882.533 860.023 890.867C840.361 882.198 863.406 861.046 958.261 860.987C942.024 860.823 893.724 840.428 936.049 840.428Z" fill="url(#paint2_radial_194_380)"/>
<path d="M-86.6612 2209.14C-78.5216 2210.89 -60.6596 2236.91 -52.7461 2249.71C-45.3978 2239.84 -36.3538 2243.68 -16.0047 2282.6C0.27459 2313.74 -9.22165 2310.93 -16.0047 2305.63C-25.0487 2294.66 -49.9198 2267.25 -48.2241 2276.57C-46.8675 2284.03 -50.6735 2285.89 -52.7461 2285.89C-77.0519 2262.32 -96.8358 2206.94 -86.6612 2209.14Z" fill="url(#paint3_radial_194_380)"/>
<path d="M64.2612 2294.11C48.3252 2279.16 38.3824 2282.6 35.4333 2285.89C31.5011 2290.28 35.4333 2305.63 59.7392 2315.5C82.5446 2324.76 81.784 2310.56 64.2612 2294.11Z" fill="url(#paint4_radial_194_380)"/>
<path d="M1574.61 1158.96C1568 1158.96 1550.38 1147.98 1550.38 1158.96L1574.61 1195.19L1612.6 1240.75C1619.2 1259.63 1598.83 1244.59 1587.82 1233.61C1550.38 1187.51 1498.08 1151.28 1493.67 1140.3C1489.74 1130.5 1507.99 1132.61 1520.1 1132.61C1498.08 1112.3 1493.67 1101.15 1498.08 1098.58C1513.49 1089.58 1581.21 1158.96 1574.61 1158.96Z" fill="#45171E"/>
<path d="M383.613 770.797C414.175 763.487 461.85 743.533 481.8 747.312C489.511 755.95 466.473 767.13 440.415 773.363C406.508 787.173 401.351 800.297 434.689 788.952C469.034 777.263 499.669 762.008 502.249 772.793C504.828 783.577 369.599 839.618 347.202 833.573C324.805 827.529 392.385 809.465 383.91 803.891C366.959 792.744 309.497 831.04 300.469 821.055C292.7 812.462 347.581 779.415 383.613 770.797Z" fill="#45171E"/>
<path fill-rule="evenodd" clip-rule="evenodd" d="M475.454 1310.77C477.056 1304.16 469.056 1292.24 463.258 1295.79C323.603 1381.29 232.175 1523.39 232.175 1683.08L232.324 1684.18C238.381 1582.08 290.672 1550.92 279.735 1577.09C268.283 1604.5 271.094 1698.47 296.844 1803.47C315.695 1880.34 366.535 1928.99 393.105 1954.41C402.828 1963.72 409.301 1969.91 409.766 1973.24C411.152 1983.18 358.922 1959.81 346.709 1952.29L356.795 1974.04C334.676 1974.97 306.43 1937.79 295.072 1919.09C284.863 1905.81 276.549 1889.91 269.45 1873.79C321.485 2046.14 418.817 2089.69 675.405 2145.75C678.925 2146.52 682.533 2147.33 686.22 2148.16C711.149 2153.76 739.712 2160.17 769.432 2160.17C894.262 2160.17 1008.16 2122.47 1098.64 2059.81C1066.13 2077.05 1028.72 2095.13 1010.46 2097.79C984.992 2101.51 1050.69 2043.64 1113.64 2005.89C1139.96 1990.11 1169.13 1955.52 1190.51 1930.16C1207.81 1909.65 1220.02 1895.17 1221.51 1901.57C1223.44 1909.84 1219.93 1930.46 1216.25 1947.34C1273.51 1871.17 1306.69 1779.99 1306.69 1683.08C1306.69 1673.2 1306.08 1663.09 1304.9 1652.79C1303.92 1644.17 1297.76 1643.86 1296.56 1652.45C1287.87 1714.87 1280.27 1686.1 1274.42 1663.95C1273.27 1659.62 1272.19 1655.54 1271.19 1652.45C1251.22 1591.02 1251.22 1716.5 1251.22 1727.08C1251.22 1777.89 1231.8 1727.08 1222.92 1678.07C1220.08 1662.36 1215.81 1644.3 1211.72 1627.02L1211.72 1627.02C1203.05 1590.38 1195.21 1557.2 1203.51 1557.2C1206.35 1557.2 1208.51 1565.77 1211.4 1577.26C1214.16 1588.22 1217.59 1601.83 1222.92 1613.21C1230.45 1629.26 1229.14 1562.27 1229.03 1557.47C1229.03 1557.28 1229.02 1557.11 1229.01 1556.92C1228.68 1551.34 1224.09 1466.46 1258.98 1557.2C1268.19 1581.14 1282.28 1581.05 1286.16 1577.71C1286.85 1577.12 1287.37 1576.28 1287.09 1575.43C1247.67 1457.36 1155.28 1332.35 1069.67 1267.02C975.427 1195.08 912.433 1181.86 770.456 1211.11C769.786 1211.24 769.087 1211.32 768.403 1211.32C732.249 1211.38 696.934 1214.6 662.79 1220.67C661.833 1220.84 660.901 1221.16 660.034 1221.6C638.27 1232.65 625.586 1240.15 643.231 1237.49C687.609 1230.81 696.485 1268.68 643.231 1293.19C638.453 1295.39 633.575 1297.66 628.651 1299.94C601.433 1312.59 572.81 1325.88 551.976 1332.08C543.676 1334.55 540.083 1326.23 546.02 1319.92C557.723 1307.49 567.405 1294.41 558.912 1293.19C547.778 1291.59 507.309 1305.38 482.519 1314.68C478.691 1316.11 474.49 1314.74 475.454 1310.77Z" fill="url(#paint5_radial_194_380)"/>
<path d="M169.347 2029.26C131.836 1990.01 112.513 1896.31 107.54 1854.36C102.424 1899.58 76.4584 1904.84 64.1147 1901.82C24.2598 1871.74 41.4699 1794.19 55.0568 1759.17C55.0568 1707.56 94.3078 1647.02 113.933 1623.2C120.327 1575.48 152.563 1541.88 152.563 1552.01C152.563 1562.14 143.771 1598.4 119.794 1660.79C100.613 1710.7 103.632 1760.86 107.54 1779.7C134.98 1720.78 164.07 1736.51 192.843 1818.1C215.86 1883.37 213.393 1918.52 206.644 1927.94C225.399 1992.79 300.42 2082.94 335.586 2119.91C345.532 2110.67 379.277 2102.85 434.691 2145.5C503.957 2198.83 701.1 2237.22 763.973 2227.62C814.271 2219.94 817.61 2224.42 812.993 2227.62C788.27 2238.71 732.359 2244.33 707.494 2245.75C671.689 2260.26 539.834 2239.71 478.382 2227.62C515.892 2285.64 403.787 2236.87 343.046 2205.23C296.295 2223.61 229.378 2158.94 199.937 2122.2C208 2132.63 220.461 2152.01 217.3 2161.5C213.89 2171.74 199.54 2172.88 192.791 2172.17L143.771 2139.11C155.706 2123.75 170.057 2132.71 175.74 2139.11L143.771 2082.58C109.671 2033.1 146.613 2026.42 169.347 2029.26Z" fill="#A2BC77"/>
<path d="M979.765 2276.95C979.765 2278.01 921.688 2299.97 892.649 2310.81C902.773 2310.81 925.417 2320.94 919.823 2328.94C914.228 2336.94 889.186 2342.54 857.483 2347.07C825.78 2351.6 796.475 2335.6 787.417 2336.94C780.171 2338 753.494 2344.13 741.062 2347.07C709.519 2343.44 697.726 2333.47 695.772 2328.94C703.018 2317.21 728.984 2318.72 741.062 2320.94C778.359 2304.52 811.128 2318.01 821.784 2326C832.973 2320.94 864.409 2325.47 864.409 2320.94C864.409 2316.41 832.973 2318.81 832.973 2305.74C832.973 2288.65 877.02 2277.66 898.244 2274.55C957.12 2254.02 979.765 2275.61 979.765 2276.95Z" fill="#A2BC77"/>
<path d="M655.811 2344.4C670.73 2350.37 681.208 2341.91 684.583 2336.94C679.255 2323.07 665.401 2332.67 661.672 2332.67C657.942 2332.67 641.425 2326 640.892 2332.67C640.359 2339.34 637.162 2336.94 655.811 2344.4Z" fill="#A2BC77"/>
<path d="M1410.39 1711.56C1446.44 1729.54 1421.24 1840.27 1410.39 1893.61C1482.49 1854.19 1432.49 1984.92 1330.15 2064.93C1248.28 2128.94 1225.48 2175.39 1211.53 2153.35C1220.83 2131.32 1315.42 2030.05 1344.1 1989.86C1332.94 1997.28 1330.15 1986.76 1330.15 1980.58C1330.15 1980.58 1376.97 1917.84 1387.1 1839.57C1397.23 1761.29 1402.93 1707.85 1410.39 1711.56Z" fill="#A2BC77"/>
<path d="M1368.99 1388.17C1304.81 1306.64 1226.06 1259.46 1193.86 1247.47C1225.19 1337.83 1136.63 1241.87 1112.93 1223.32C1052.18 1175.73 1027.47 1186.86 989.25 1152.03C956.522 1122.2 835.142 1076.79 841.264 1072.58C890.274 1072.58 1082.65 1160.97 1163.98 1223.32C1130.99 1172.55 1153.34 1163.5 1163.98 1158.6C1191.62 1137.63 1398.94 1349.68 1398.94 1384.09C1433.91 1432.6 1461.17 1516.52 1449.14 1526.24C1436.73 1530.76 1393.1 1424.97 1368.99 1388.17Z" fill="#A2BC77"/>
<path d="M473.13 1099.24C371.18 1134.04 398.719 1140.81 425.232 1139.84C381.979 1163.91 383.72 1169.71 355.852 1196.39C333.558 1217.73 339.015 1240.46 355.852 1223.64C406.363 1167.39 441.198 1160.43 473.13 1147.09C498.675 1136.42 483.773 1129.11 473.13 1126.79C473.13 1119.83 516.092 1111.71 534.671 1105.91C553.249 1100.11 667.043 1081.56 661.527 1090.84C656.012 1100.11 658.334 1105.04 660.076 1105.91C669.145 1108 679.808 1105.22 690.266 1104.32C706.589 1102.92 722.414 1104.71 730.907 1102C730.907 1097.21 689.492 1097.02 674.591 1099.24C690.557 1076.05 642.659 1076.05 631.047 1076.05C619.435 1076.05 557.023 1081.85 546.863 1084.75C538.735 1087.07 494.321 1095.38 473.13 1099.24Z" fill="#A2BC77"/>
<path d="M258.68 1352.57C282.831 1330.29 324.695 1304.93 349.195 1303.03C361.434 1312.05 285.856 1339.24 284.904 1359C284.569 1365.96 313.762 1341.8 312.187 1353.36C311.482 1358.54 288.666 1377.19 268.085 1398.04C247.504 1418.89 205.95 1470.17 221.201 1435C236.451 1399.84 267.353 1371.57 269.831 1369.23C285.036 1354.85 214.382 1393.44 258.68 1352.57Z" fill="#A2BC77"/>
<path d="M374.451 1302.21C386.891 1295.89 394.965 1295.47 399.583 1300.03C401.672 1310.48 379.839 1311.91 370.134 1315.46C360.429 1319.01 368.395 1305.29 374.451 1302.21Z" fill="#A2BC77"/>
<g filter="url(#filter0_f_194_380)">
<path d="M1323.09 2123.49L1322.55 2124.33L1323.09 2123.49ZM1231.39 2402.73L1232.05 2403.49L1231.39 2402.73ZM1148.61 2278.04L1147.77 2278.6L1149.12 2280.61L1149.59 2278.24L1148.61 2278.04ZM1148.57 2277.99L1149.41 2277.43L1147.6 2278.23L1148.57 2277.99ZM1145.33 2304.01L1144.36 2303.75L1146.28 2304.34L1145.33 2304.01ZM1147.52 2276.6L1148.51 2276.41L1148.46 2276.15L1148.29 2275.95L1147.52 2276.6ZM1123.99 2321.85L1124.96 2322.1L1125 2321.94L1124.99 2321.79L1123.99 2321.85ZM1004.53 2434.15L1004.36 2433.16L1004.3 2433.17L1004.25 2433.19L1004.53 2434.15ZM972.312 2429.07L972.09 2430.05L972.312 2429.07ZM901.894 2418.78L901.93 2419.79L901.93 2419.79L901.894 2418.78ZM846.966 2503.34L846.102 2503.85L846.248 2504.1L846.501 2504.23L846.966 2503.34ZM847.102 2503.41L847.566 2502.52L847.566 2502.52L847.102 2503.41ZM911.041 2463.91L910.568 2464.79L911.041 2463.91ZM1093.18 2489.38L1093.5 2490.33L1093.18 2489.38ZM1214.18 2417.72L1213.53 2416.96L1213.52 2416.97L1214.18 2417.72ZM1214.19 2417.72L1214.84 2418.48L1214.85 2418.47L1214.19 2417.72ZM1294.03 2207.15L1294.94 2207.57L1294.97 2207.51L1294.99 2207.45L1294.03 2207.15ZM1295.88 2248.94L1295.36 2249.79L1295.88 2248.94ZM1215.97 2200.62L1216.91 2200.98L1215.97 2200.62ZM1251.2 2176.9L1251.89 2176.17L1251.84 2176.12L1251.78 2176.08L1251.2 2176.9ZM1222.86 2251.57L1222.65 2252.55L1222.86 2251.57ZM1254.61 2207.34L1253.61 2207.22L1253.61 2207.22L1254.61 2207.34ZM1266.85 2251.35L1266.85 2252.35L1266.85 2252.35L1266.85 2251.35ZM1243.11 2275.82L1244.04 2276.19L1243.11 2275.82ZM1272.55 2271L1271.58 2270.76L1272.55 2271ZM1242.11 2312.55L1242.55 2311.65L1242.11 2312.55ZM1322.55 2124.33C1348.21 2140.82 1359.89 2162.36 1361.9 2186.39C1363.91 2210.47 1356.23 2237.16 1342.95 2263.86C1316.38 2317.25 1267.65 2370.3 1230.74 2401.97L1232.05 2403.49C1269.07 2371.73 1318.02 2318.47 1344.74 2264.75C1358.11 2237.89 1365.96 2210.82 1363.9 2186.22C1361.83 2161.55 1349.81 2139.46 1323.64 2122.64L1322.55 2124.33ZM1149.59 2278.24C1162.95 2210.98 1195.9 2165.8 1230.69 2140.81C1248.08 2128.31 1265.92 2120.87 1281.99 2118.22C1298.06 2115.58 1312.29 2117.74 1322.55 2124.33L1323.64 2122.64C1312.83 2115.7 1298.06 2113.54 1281.66 2116.24C1265.25 2118.95 1247.12 2126.53 1229.51 2139.18C1194.29 2164.49 1161.07 2210.13 1147.62 2277.84L1149.59 2278.24ZM1147.74 2278.55C1147.75 2278.57 1147.76 2278.58 1147.77 2278.6L1149.44 2277.48C1149.43 2277.46 1149.42 2277.44 1149.41 2277.43L1147.74 2278.55ZM1147.6 2278.23C1148.89 2283.36 1148.83 2291.14 1144.39 2303.67L1146.28 2304.34C1150.8 2291.58 1150.96 2283.38 1149.55 2277.74L1147.6 2278.23ZM1146.3 2304.27C1148.88 2294.69 1149.9 2283.74 1148.51 2276.41L1146.54 2276.78C1147.85 2283.71 1146.9 2294.33 1144.36 2303.75L1146.3 2304.27ZM1124.99 2321.79C1124.06 2307.36 1124.57 2296.79 1125.97 2289.22C1127.37 2281.62 1129.64 2277.13 1132.12 2274.72C1134.53 2272.36 1137.22 2271.91 1139.77 2272.55C1142.38 2273.2 1144.89 2275.02 1146.75 2277.24L1148.29 2275.95C1146.24 2273.49 1143.38 2271.39 1140.26 2270.6C1137.08 2269.8 1133.67 2270.4 1130.71 2273.28C1127.81 2276.11 1125.43 2281.07 1123.99 2288.85C1122.56 2296.65 1122.04 2307.39 1122.98 2321.91L1124.99 2321.79ZM1004.7 2435.14C1087.37 2420.72 1116.65 2354.69 1124.96 2322.1L1123.01 2321.6C1114.79 2353.86 1085.88 2418.94 1004.36 2433.16L1004.7 2435.14ZM972.09 2430.05C979.883 2431.81 986.889 2433.4 992.483 2434.39C995.281 2434.88 997.75 2435.23 999.802 2435.38C1001.83 2435.52 1003.55 2435.48 1004.81 2435.12L1004.25 2433.19C1003.35 2433.44 1001.92 2433.51 999.945 2433.37C997.992 2433.23 995.601 2432.9 992.833 2432.41C987.296 2431.43 980.344 2429.86 972.533 2428.09L972.09 2430.05ZM901.93 2419.79C923.367 2419.03 950.717 2425.21 972.09 2430.05L972.533 2428.09C951.239 2423.27 923.611 2417.01 901.859 2417.78L901.93 2419.79ZM847.829 2502.83C838.437 2487.03 840.193 2466.71 850.24 2450.07C860.275 2433.45 878.523 2420.61 901.93 2419.79L901.859 2417.78C877.711 2418.63 858.872 2431.88 848.52 2449.03C838.181 2466.16 836.25 2487.28 846.102 2503.85L847.829 2502.83ZM847.566 2502.52L847.43 2502.45L846.501 2504.23L846.637 2504.3L847.566 2502.52ZM859.064 2494.66C858.461 2498.13 857.714 2500.48 856.888 2502.04C856.07 2503.57 855.217 2504.25 854.414 2504.52C853.588 2504.79 852.617 2504.7 851.43 2504.31C850.237 2503.91 848.965 2503.25 847.566 2502.52L846.637 2504.3C847.999 2505.01 849.42 2505.75 850.792 2506.21C852.169 2506.67 853.632 2506.9 855.049 2506.42C856.488 2505.94 857.686 2504.82 858.662 2502.98C859.631 2501.16 860.424 2498.57 861.044 2495.01L859.064 2494.66ZM911.514 2463.02C903.433 2458.71 896.264 2457.35 889.993 2458.1C883.721 2458.85 878.441 2461.7 874.119 2465.63C865.511 2473.47 860.629 2485.67 859.064 2494.66L861.044 2495.01C862.559 2486.3 867.294 2474.56 875.472 2467.12C879.543 2463.41 884.448 2460.79 890.231 2460.1C896.016 2459.4 902.773 2460.63 910.568 2464.79L911.514 2463.02ZM1092.86 2488.42C1054.48 2501.23 1024.68 2503.14 996.747 2497.75C968.782 2492.35 942.623 2479.63 911.514 2463.02L910.568 2464.79C941.675 2481.4 968.072 2494.26 996.366 2499.72C1024.69 2505.19 1054.85 2503.22 1093.5 2490.33L1092.86 2488.42ZM1213.52 2416.97C1196.18 2432.21 1181.89 2444.76 1164 2456.17C1146.12 2467.56 1124.62 2477.83 1092.86 2488.42L1093.5 2490.33C1125.37 2479.7 1147.03 2469.37 1165.08 2457.86C1183.12 2446.36 1197.52 2433.7 1214.85 2418.48L1213.52 2416.97ZM1213.53 2416.96L1213.53 2416.96L1214.84 2418.48L1214.84 2418.48L1213.53 2416.96ZM1230.74 2401.97C1224.58 2407.25 1218.9 2412.24 1213.52 2416.96L1214.85 2418.47C1220.23 2413.74 1225.9 2408.77 1232.05 2403.49L1230.74 2401.97ZM1294.99 2207.45C1298.78 2195.19 1302.5 2185.61 1306.4 2179.32C1310.33 2172.96 1314.17 2170.35 1318.14 2171.04L1318.48 2169.06C1313.19 2168.14 1308.69 2171.8 1304.69 2178.26C1300.65 2184.79 1296.86 2194.57 1293.07 2206.86L1294.99 2207.45ZM1296.4 2248.08C1291.03 2244.81 1288.11 2240.41 1287.75 2234.05C1287.38 2227.6 1289.64 2219.05 1294.94 2207.57L1293.11 2206.73C1287.78 2218.28 1285.34 2227.2 1285.74 2234.17C1286.15 2241.24 1289.48 2246.22 1295.36 2249.79L1296.4 2248.08ZM1327.47 2199.7C1325.91 2208.65 1323.03 2223.99 1317.96 2235.49C1315.41 2241.26 1312.38 2245.9 1308.82 2248.34C1307.06 2249.55 1305.19 2250.21 1303.17 2250.22C1301.15 2250.24 1298.9 2249.6 1296.4 2248.08L1295.36 2249.79C1298.1 2251.46 1300.71 2252.25 1303.19 2252.23C1305.66 2252.22 1307.92 2251.4 1309.96 2250C1313.99 2247.23 1317.21 2242.16 1319.8 2236.3C1324.99 2224.54 1327.9 2208.97 1329.45 2200.05L1327.47 2199.7ZM1318.14 2171.04C1322.29 2171.76 1325.3 2174.83 1326.95 2179.84C1328.61 2184.88 1328.85 2191.75 1327.47 2199.7L1329.45 2200.05C1330.87 2191.9 1330.66 2184.67 1328.86 2179.21C1327.05 2173.74 1323.59 2169.95 1318.48 2169.06L1318.14 2171.04ZM1216.91 2200.98C1222.7 2185.71 1229.63 2178.83 1235.76 2176.29C1241.88 2173.74 1247.41 2175.42 1250.61 2177.71L1251.78 2176.08C1248.11 2173.45 1241.85 2171.58 1234.99 2174.43C1228.15 2177.28 1220.92 2184.73 1215.04 2200.27L1216.91 2200.98ZM1223.08 2250.59C1218.35 2249.57 1213.34 2246.67 1211.17 2239.44C1208.97 2232.1 1209.65 2220.16 1216.91 2200.98L1215.04 2200.27C1207.72 2219.59 1206.85 2232.04 1209.24 2240.02C1211.67 2248.1 1217.38 2251.42 1222.65 2252.55L1223.08 2250.59ZM1253.61 2207.22C1252.14 2219.2 1246.78 2230.63 1240.56 2238.79C1237.45 2242.87 1234.15 2246.09 1231.06 2248.16C1227.93 2250.24 1225.18 2251.04 1223.08 2250.59L1222.65 2252.55C1225.55 2253.18 1228.88 2252.03 1232.18 2249.83C1235.5 2247.61 1238.96 2244.21 1242.16 2240.01C1248.56 2231.6 1254.08 2219.84 1255.6 2207.46L1253.61 2207.22ZM1250.5 2177.63C1250.9 2178 1251.46 2178.8 1252.04 2180.16C1252.61 2181.51 1253.18 2183.35 1253.61 2185.75C1254.48 2190.55 1254.8 2197.55 1253.61 2207.22L1255.6 2207.46C1256.81 2197.65 1256.5 2190.44 1255.59 2185.4C1255.14 2182.88 1254.53 2180.89 1253.89 2179.38C1253.26 2177.89 1252.56 2176.81 1251.89 2176.17L1250.5 2177.63ZM1266.85 2250.34C1261.59 2250.36 1249.97 2255.68 1242.17 2275.46L1244.04 2276.19C1251.67 2256.86 1262.71 2252.36 1266.85 2252.35L1266.85 2250.34ZM1273.53 2271.24C1275.71 2262.27 1275.56 2257.03 1273.99 2254C1272.34 2250.79 1269.29 2250.34 1266.85 2250.34L1266.85 2252.35C1269.11 2252.35 1271.1 2252.77 1272.21 2254.92C1273.41 2257.24 1273.75 2261.83 1271.58 2270.76L1273.53 2271.24ZM1241.67 2313.45C1245.05 2315.1 1248.55 2314.13 1251.77 2311.78C1254.98 2309.44 1258.09 2305.62 1260.92 2301.15C1266.59 2292.19 1271.33 2280.28 1273.53 2271.24L1271.58 2270.76C1269.42 2279.61 1264.77 2291.32 1259.22 2300.08C1256.45 2304.46 1253.5 2308.03 1250.58 2310.16C1247.68 2312.27 1245 2312.84 1242.55 2311.65L1241.67 2313.45ZM1242.17 2275.46C1239.76 2281.57 1237.84 2286.64 1236.49 2290.87C1235.14 2295.1 1234.33 2298.55 1234.16 2301.43C1233.99 2304.33 1234.47 2306.7 1235.76 2308.7C1237.03 2310.68 1239.03 2312.17 1241.67 2313.45L1242.55 2311.65C1240.08 2310.45 1238.45 2309.16 1237.45 2307.61C1236.45 2306.07 1236.01 2304.16 1236.17 2301.55C1236.32 2298.92 1237.07 2295.66 1238.4 2291.48C1239.74 2287.32 1241.63 2282.3 1244.04 2276.19L1242.17 2275.46Z" fill="#FFFACC"/>
</g>
<path d="M1193.43 2209.38C1210.52 2146.95 1261.18 2140.72 1284.36 2145.4C1318.72 2143.7 1340.63 2168.81 1345.35 2214.4C1350.07 2259.98 1273.88 2356.69 1233.38 2354.51C1192.89 2352.33 1172.07 2287.4 1193.43 2209.38Z" fill="#C6C895"/>
<path fill-rule="evenodd" clip-rule="evenodd" d="M1231.39 2402.73C1305.33 2339.31 1426.76 2190.1 1323.09 2123.49C1280.96 2096.41 1175.41 2143.07 1148.61 2278.04C1148.6 2278.02 1148.58 2278.01 1148.57 2277.99C1149.92 2283.37 1149.81 2291.36 1145.33 2304.01C1147.89 2294.51 1148.87 2283.73 1147.52 2276.6C1139.69 2267.23 1120.24 2263.95 1123.99 2321.85C1115.72 2354.27 1086.62 2419.83 1004.53 2434.15C1000.23 2435.39 987.916 2432.6 972.312 2429.07C950.978 2424.24 923.489 2418.02 901.894 2418.78C854.339 2420.46 827.722 2470.97 846.966 2503.34L847.102 2503.41C852.623 2506.29 857.609 2508.89 860.054 2494.84C863.135 2477.13 879.289 2446.96 911.041 2463.91C973.257 2497.12 1016.15 2515.08 1093.18 2489.38C1156.81 2468.15 1179.52 2448.19 1214.18 2417.72L1214.19 2417.72C1219.57 2412.99 1225.24 2408.01 1231.39 2402.73ZM1318.31 2170.05C1309.06 2168.44 1301.61 2182.6 1294.03 2207.15C1283.39 2230.18 1284.63 2242.09 1295.88 2248.94C1316.87 2261.71 1325.35 2217.74 1328.46 2199.88C1331.26 2183.78 1327.57 2171.66 1318.31 2170.05ZM1251.2 2176.9C1244.32 2171.97 1227.64 2169.81 1215.97 2200.62C1201.4 2239.13 1212.87 2249.42 1222.86 2251.57C1232.86 2253.72 1251.61 2231.7 1254.61 2207.34C1257 2187.86 1253.33 2178.93 1251.2 2176.9ZM1243.11 2275.82C1250.82 2256.27 1262.15 2251.36 1266.85 2251.35C1271.55 2251.34 1276.91 2253.1 1272.55 2271C1268.2 2288.9 1253.78 2318.22 1242.11 2312.55C1231.9 2307.59 1233.46 2300.27 1243.11 2275.82Z" fill="url(#paint6_linear_194_380)"/>
<g filter="url(#filter1_f_194_380)">
<path d="M270.649 2445.94L270.887 2446.91L270.93 2446.9L270.972 2446.89L270.649 2445.94ZM157.654 2413.07L158.498 2412.53L157.654 2413.07ZM378.206 2478.95L377.455 2479.62L377.5 2479.67L377.551 2479.71L378.206 2478.95ZM399.745 2516.77L399.319 2515.86L399.745 2516.77ZM358.635 2491.56L359.317 2490.82L358.635 2491.56ZM339.669 2476.59L339.472 2477.58L339.669 2476.59ZM336.467 2483.78L337.451 2483.58L336.467 2483.78ZM298.547 2476.37L299.187 2475.6L298.547 2476.37ZM298.074 2475.98L298.714 2475.21L298.074 2475.98ZM230.714 2478.63L231.078 2479.56L231.102 2479.55L231.125 2479.54L230.714 2478.63ZM228.701 2479.41L229.066 2480.35L229.068 2480.35L228.701 2479.41ZM228.696 2479.41L229.036 2480.36L229.049 2480.36L229.061 2480.35L228.696 2479.41ZM228.695 2479.41L228.355 2478.47L228.341 2478.47L228.328 2478.48L228.695 2479.41ZM103.428 2475.63L102.968 2476.52L103.428 2475.63ZM22.8821 2314.17L23.8849 2314.11L23.8791 2314.01L23.8543 2313.92L22.8821 2314.17ZM18.714 2229.27L17.7467 2229L18.714 2229.27ZM41.9053 2221.39L42.8691 2221.67L42.974 2221.31L42.8213 2220.97L41.9053 2221.39ZM34.1161 2256.96L35.1192 2256.9L35.1192 2256.9L34.1161 2256.96ZM36.0625 2255.85L35.0579 2255.85L36.0625 2255.85ZM42.8588 2223.73L43.8033 2223.39L42.6749 2220.28L41.8833 2223.49L42.8588 2223.73ZM42.9332 2223.94L41.9864 2224.28L43.2112 2227.73L43.9189 2224.14L42.9332 2223.94ZM118.766 2179.28L118.568 2180.26L118.766 2179.28ZM149.491 2293.14L149.336 2294.13L150.176 2294.26L150.444 2293.46L149.491 2293.14ZM130.571 2309.92L131.452 2310.4L131.477 2310.36L131.497 2310.31L130.571 2309.92ZM126.252 2333.37L127.205 2333.05L126.252 2333.37ZM127.027 2333.24L126.023 2333.2L127.027 2333.24ZM132.518 2308.81L133.442 2309.2L132.518 2308.81ZM150.666 2294.07L151.238 2293.24L151.138 2293.17L151.025 2293.13L150.666 2294.07ZM161.582 2329.45L162.55 2329.71L162.55 2329.71L161.582 2329.45ZM156.12 2338.43L155.313 2337.83L156.12 2338.43ZM133.403 2214.03L133.046 2213.09L133.018 2213.1L132.991 2213.11L133.403 2214.03ZM132.026 2233.59L131.12 2234.03L132.026 2233.59ZM148.29 2240.17L147.287 2240.21L148.29 2240.17ZM136.965 2261.85L136.924 2260.85L136.924 2260.85L136.965 2261.85ZM129.9 2249.9L128.936 2249.62L128.936 2249.62L129.9 2249.9ZM129.944 2249.75L130.908 2250.04L130.908 2250.04L129.944 2249.75ZM76.5034 2203.35L75.8446 2202.59L76.5034 2203.35ZM105.558 2202.64L106.563 2202.66L106.569 2202.39L106.441 2202.16L105.558 2202.64ZM60.1531 2229.6L61.122 2229.87L60.1531 2229.6ZM75.7802 2237.64L76.6153 2238.2L75.7802 2237.64ZM80.1406 2230.05L79.2495 2229.58L80.1406 2230.05ZM85.8475 2219.76L84.9845 2219.24L85.8475 2219.76ZM95.7349 2213.77L95.9902 2214.75L95.7349 2213.77ZM101.853 2240.1L102.345 2239.22L102.178 2239.13L101.988 2239.1L101.853 2240.1ZM108.691 2260.51L109.681 2260.68L108.691 2260.51ZM91.8462 2243.22L92.4659 2244.01L91.8462 2243.22ZM89.8631 2253.6L90.8674 2253.58L89.8631 2253.6ZM89.9204 2257.94L90.7477 2258.51L90.9228 2258.26L90.925 2257.95L89.9204 2257.94ZM91.2008 2278.94L91.1036 2279.94L91.2008 2278.94ZM270.411 2444.96C257.32 2448.16 235.97 2450.37 214.56 2446.59C193.155 2442.82 171.808 2433.09 158.498 2412.53L156.811 2413.62C170.528 2434.81 192.476 2444.74 214.211 2448.57C235.94 2452.4 257.574 2450.16 270.887 2446.91L270.411 2444.96ZM378.957 2478.28C368.768 2466.82 352.546 2454.81 333.426 2447.5C314.297 2440.18 292.203 2437.56 270.326 2444.98L270.972 2446.89C292.3 2439.65 313.901 2442.18 332.708 2449.37C351.524 2456.57 367.478 2468.39 377.455 2479.62L378.957 2478.28ZM400.171 2517.68C401.806 2516.91 402.944 2515.81 403.569 2514.41C404.187 2513.03 404.257 2511.46 403.966 2509.84C403.391 2506.62 401.352 2502.88 398.664 2499.11C393.262 2491.53 384.901 2483.38 378.861 2478.19L377.551 2479.71C383.536 2484.86 391.76 2492.89 397.028 2500.28C399.676 2503.99 401.494 2507.43 401.988 2510.19C402.232 2511.56 402.14 2512.69 401.735 2513.59C401.338 2514.48 400.592 2515.26 399.319 2515.86L400.171 2517.68ZM357.954 2492.3C365.052 2498.86 373.087 2506.28 380.504 2511.52C384.212 2514.14 387.817 2516.25 391.114 2517.43C394.397 2518.61 397.531 2518.91 400.171 2517.68L399.319 2515.86C397.373 2516.77 394.853 2516.64 391.79 2515.54C388.742 2514.45 385.309 2512.46 381.664 2509.88C374.376 2504.73 366.442 2497.41 359.317 2490.82L357.954 2492.3ZM339.472 2477.58C340.162 2477.72 341.138 2478.18 342.406 2479C343.653 2479.8 345.1 2480.9 346.717 2482.24C349.952 2484.91 353.789 2488.45 357.954 2492.3L359.317 2490.82C355.166 2486.99 351.284 2483.4 347.997 2480.69C346.353 2479.33 344.838 2478.17 343.497 2477.31C342.178 2476.46 340.941 2475.82 339.867 2475.61L339.472 2477.58ZM337.451 2483.58C337.225 2482.46 337.018 2481.43 336.903 2480.51C336.786 2479.59 336.778 2478.88 336.893 2478.37C336.997 2477.91 337.178 2477.7 337.423 2477.59C337.735 2477.44 338.343 2477.35 339.472 2477.58L339.867 2475.61C338.572 2475.35 337.455 2475.36 336.572 2475.77C335.621 2476.21 335.135 2477.03 334.933 2477.93C334.74 2478.78 334.784 2479.77 334.909 2480.76C335.035 2481.77 335.259 2482.87 335.482 2483.98L337.451 2483.58ZM335.02 2496.23C337.34 2494.91 338.139 2492.71 338.265 2490.43C338.389 2488.2 337.882 2485.72 337.451 2483.58L335.482 2483.98C335.926 2486.18 336.366 2488.39 336.259 2490.32C336.155 2492.2 335.545 2493.62 334.026 2494.49L335.02 2496.23ZM297.906 2477.15C308.489 2485.91 315.633 2491.83 321.099 2494.98C323.846 2496.57 326.254 2497.51 328.531 2497.72C330.84 2497.95 332.933 2497.42 335.02 2496.23L334.026 2494.49C332.249 2495.5 330.567 2495.9 328.724 2495.72C326.85 2495.54 324.728 2494.76 322.103 2493.24C316.822 2490.2 309.842 2484.42 299.187 2475.6L297.906 2477.15ZM297.433 2476.75L297.906 2477.15L299.187 2475.6L298.714 2475.21L297.433 2476.75ZM231.125 2479.54C238.68 2476.15 251.102 2471.95 263.755 2470.37C276.458 2468.78 289.123 2469.87 297.433 2476.75L298.714 2475.21C289.74 2467.78 276.35 2466.77 263.507 2468.37C250.615 2469.98 237.999 2474.25 230.303 2477.71L231.125 2479.54ZM229.068 2480.35C229.775 2480.07 230.445 2479.81 231.078 2479.56L230.35 2477.69C229.714 2477.94 229.041 2478.2 228.334 2478.48L229.068 2480.35ZM229.061 2480.35L229.066 2480.35L228.336 2478.48L228.331 2478.48L229.061 2480.35ZM229.035 2480.36L229.036 2480.36L228.356 2478.47L228.355 2478.47L229.035 2480.36ZM102.968 2476.52C161.718 2506.77 209.338 2488.09 229.062 2480.35L228.328 2478.48C208.715 2486.17 161.823 2504.57 103.888 2474.74L102.968 2476.52ZM21.8792 2314.23C23.2428 2337.2 29.8227 2370.68 42.875 2401.94C55.9172 2433.18 75.496 2462.38 102.968 2476.52L103.888 2474.74C77.0378 2460.91 57.7007 2432.24 44.7291 2401.17C31.7676 2370.12 25.2358 2336.86 23.8849 2314.11L21.8792 2314.23ZM17.7467 2229C13.5179 2244.07 13.4845 2261.27 15.0345 2276.74C16.5858 2292.23 19.7309 2306.06 21.9099 2314.43L23.8543 2313.92C21.6905 2305.61 18.5711 2291.89 17.0338 2276.54C15.4952 2261.18 15.5492 2244.27 19.6813 2229.54L17.7467 2229ZM42.8213 2220.97C41.5994 2218.26 39.9827 2215.6 38.0929 2213.59C36.2181 2211.59 33.9607 2210.1 31.4623 2210.01C28.9069 2209.91 26.4166 2211.28 24.132 2214.3C21.8577 2217.3 19.6965 2222.04 17.7467 2229L19.6813 2229.54C21.6015 2222.69 23.6786 2218.23 25.7338 2215.51C27.7787 2212.81 29.709 2211.95 31.3884 2212.02C33.1247 2212.08 34.916 2213.13 36.6269 2214.96C38.3228 2216.77 39.8287 2219.22 40.9892 2221.8L42.8213 2220.97ZM35.1192 2256.9C35.0633 2255.87 35.2514 2254.01 35.6595 2251.52C36.0628 2249.05 36.6667 2246.04 37.4048 2242.74C38.8807 2236.14 40.8849 2228.42 42.8691 2221.67L40.9414 2221.1C38.9454 2227.89 36.9301 2235.65 35.444 2242.3C34.701 2245.62 34.0883 2248.67 33.6765 2251.19C33.2694 2253.68 33.0439 2255.73 33.1129 2257.01L35.1192 2256.9ZM35.0579 2255.85C35.0565 2256.81 34.957 2257.63 34.816 2258.23C34.7452 2258.54 34.6684 2258.76 34.5986 2258.92C34.5197 2259.1 34.483 2259.11 34.5359 2259.06C34.5704 2259.03 34.6647 2258.96 34.8198 2258.93C34.9911 2258.9 35.1618 2258.92 35.2982 2258.99C35.4188 2259.05 35.4756 2259.12 35.4851 2259.14C35.496 2259.15 35.4832 2259.14 35.4566 2259.08C35.4023 2258.95 35.3318 2258.72 35.2673 2258.34C35.204 2257.97 35.1516 2257.5 35.1192 2256.9L33.1129 2257.01C33.1819 2258.28 33.3426 2259.25 33.6107 2259.87C33.7342 2260.16 33.9623 2260.57 34.4006 2260.79C34.6482 2260.91 34.932 2260.96 35.217 2260.9C35.4856 2260.85 35.694 2260.71 35.8414 2260.59C36.1204 2260.35 36.3056 2260.02 36.4324 2259.74C36.5684 2259.44 36.6812 2259.08 36.772 2258.69C36.9542 2257.92 37.0656 2256.94 37.0671 2255.85L35.0579 2255.85ZM41.8833 2223.49C40.5156 2229.05 38.8156 2236.18 37.4563 2242.37C36.7768 2245.47 36.1809 2248.34 35.754 2250.67C35.3333 2252.97 35.0593 2254.83 35.0579 2255.85L37.0671 2255.85C37.0682 2255.04 37.3034 2253.36 37.7304 2251.03C38.1512 2248.73 38.7416 2245.89 39.4189 2242.8C40.7732 2236.63 42.4688 2229.52 43.8343 2223.98L41.8833 2223.49ZM43.8799 2223.61C43.8547 2223.53 43.8291 2223.46 43.8033 2223.39L41.9143 2224.08C41.9386 2224.14 41.9627 2224.21 41.9864 2224.28L43.8799 2223.61ZM118.964 2178.29C92.8956 2173.04 74.5681 2179.46 62.2803 2189.73C50.0353 2199.97 43.8754 2213.96 41.9475 2223.75L43.9189 2224.14C45.7752 2214.71 51.7397 2201.17 63.569 2191.28C75.3556 2181.42 93.0524 2175.12 118.568 2180.26L118.964 2178.29ZM150.444 2293.46C156.095 2276.52 161.333 2250.49 158.663 2227.34C157.327 2215.76 154.003 2204.83 147.696 2196.11C141.371 2187.38 132.086 2180.94 118.964 2178.29L118.568 2180.26C131.204 2182.81 140.045 2188.97 146.068 2197.29C152.108 2205.64 155.355 2216.2 156.667 2227.57C159.292 2250.33 154.135 2276.04 148.538 2292.82L150.444 2293.46ZM131.497 2310.31C133.125 2306.43 136.458 2302.15 140.041 2298.94C141.827 2297.33 143.641 2296.03 145.295 2295.17C146.979 2294.31 148.36 2293.98 149.336 2294.13L149.646 2292.15C148.04 2291.9 146.191 2292.45 144.374 2293.39C142.527 2294.34 140.572 2295.76 138.699 2297.44C134.962 2300.79 131.418 2305.31 129.645 2309.53L131.497 2310.31ZM127.205 2333.05C127.127 2332.82 127.062 2332.36 127.05 2331.63C127.039 2330.93 127.079 2330.07 127.164 2329.09C127.334 2327.12 127.68 2324.72 128.133 2322.27C128.587 2319.83 129.143 2317.35 129.73 2315.22C130.323 2313.07 130.925 2311.36 131.452 2310.4L129.69 2309.44C129.043 2310.62 128.39 2312.52 127.793 2314.69C127.189 2316.88 126.619 2319.41 126.158 2321.91C125.696 2324.4 125.339 2326.86 125.162 2328.92C125.074 2329.94 125.029 2330.87 125.041 2331.67C125.054 2332.43 125.119 2333.15 125.298 2333.69L127.205 2333.05ZM126.023 2333.2C126.002 2333.7 125.987 2334.06 125.967 2334.29C125.962 2334.35 125.957 2334.39 125.953 2334.43C125.949 2334.46 125.946 2334.47 125.947 2334.47C125.947 2334.47 125.95 2334.46 125.955 2334.44C125.961 2334.42 125.972 2334.39 125.992 2334.35C126.012 2334.3 126.133 2334.05 126.45 2333.9C126.63 2333.82 126.829 2333.8 127.019 2333.83C127.195 2333.86 127.323 2333.93 127.4 2333.99C127.538 2334.08 127.605 2334.19 127.612 2334.2C127.635 2334.23 127.625 2334.22 127.579 2334.11C127.496 2333.91 127.378 2333.58 127.205 2333.05L125.298 2333.69C125.468 2334.2 125.607 2334.6 125.722 2334.88C125.775 2335.01 125.847 2335.17 125.941 2335.31C125.983 2335.38 126.082 2335.52 126.25 2335.63C126.447 2335.77 126.841 2335.93 127.281 2335.73C127.623 2335.58 127.765 2335.29 127.806 2335.21C127.862 2335.09 127.891 2334.98 127.906 2334.91C127.939 2334.77 127.956 2334.61 127.969 2334.47C127.994 2334.17 128.011 2333.76 128.031 2333.28L126.023 2333.2ZM131.593 2308.42C126.556 2320.27 126.171 2329.61 126.023 2333.2L128.031 2333.28C128.174 2329.78 128.545 2320.72 133.442 2309.2L131.593 2308.42ZM151.025 2293.13C149.462 2292.53 147.614 2292.91 145.843 2293.68C144.037 2294.47 142.118 2295.77 140.291 2297.32C136.647 2300.41 133.185 2304.67 131.593 2308.42L133.442 2309.2C134.877 2305.83 138.107 2301.81 141.59 2298.85C143.326 2297.38 145.079 2296.21 146.65 2295.52C148.255 2294.82 149.488 2294.69 150.308 2295.01L151.025 2293.13ZM162.55 2329.71C165.745 2318.07 163.685 2301.85 151.238 2293.24L150.095 2294.9C161.589 2302.85 163.674 2318.02 160.613 2329.18L162.55 2329.71ZM156.928 2339.03C158.227 2337.27 159.44 2335.63 160.414 2334.11C161.385 2332.6 162.162 2331.13 162.55 2329.71L160.613 2329.18C160.304 2330.31 159.655 2331.57 158.722 2333.03C157.792 2334.48 156.623 2336.06 155.313 2337.83L156.928 2339.03ZM158.498 2412.53C145.346 2392.2 142.695 2376.99 144.394 2365.35C146.097 2353.68 152.186 2345.43 156.928 2339.03L155.313 2337.83C150.578 2344.23 144.189 2352.84 142.406 2365.06C140.618 2377.31 143.473 2393.01 156.811 2413.62L158.498 2412.53ZM132.991 2213.11C130.961 2214.03 128.339 2215.24 127.453 2218.49C126.601 2221.61 127.438 2226.34 131.12 2234.03L132.932 2233.16C129.272 2225.51 128.746 2221.38 129.391 2219.02C130.004 2216.77 131.741 2215.88 133.815 2214.94L132.991 2213.11ZM149.294 2240.13C149.081 2234.85 148.075 2227.15 145.707 2221.25C144.527 2218.31 142.962 2215.7 140.879 2214.1C138.728 2212.44 136.094 2211.93 133.046 2213.09L133.76 2214.97C136.16 2214.05 138.059 2214.47 139.655 2215.69C141.319 2216.97 142.716 2219.2 143.842 2222C146.089 2227.6 147.078 2235.04 147.287 2240.21L149.294 2240.13ZM137.006 2262.85C138.35 2262.8 141.751 2262.67 144.653 2259.6C147.536 2256.56 149.728 2250.84 149.294 2240.13L147.287 2240.21C147.71 2250.68 145.538 2255.75 143.194 2258.22C140.869 2260.68 138.179 2260.79 136.924 2260.85L137.006 2262.85ZM136.764 2262.86C136.831 2262.86 136.909 2262.86 137.006 2262.85L136.924 2260.85C136.832 2260.85 136.739 2260.85 136.656 2260.86L136.764 2262.86ZM128.936 2249.62C127.468 2254.62 128.685 2258.02 130.747 2260.14C131.75 2261.18 132.918 2261.87 133.98 2262.29C135.023 2262.71 136.039 2262.9 136.764 2262.86L136.656 2260.86C136.309 2260.88 135.593 2260.78 134.728 2260.43C133.881 2260.09 132.963 2259.54 132.187 2258.74C130.69 2257.2 129.574 2254.57 130.864 2250.19L128.936 2249.62ZM128.981 2249.47L128.936 2249.62L130.864 2250.19L130.908 2250.04L128.981 2249.47ZM131.12 2234.03C131.833 2235.52 132 2237.02 131.634 2239.34C131.261 2241.7 130.351 2244.81 128.981 2249.47L130.908 2250.04C132.262 2245.43 133.22 2242.18 133.619 2239.65C134.027 2237.07 133.872 2235.12 132.932 2233.16L131.12 2234.03ZM77.1621 2204.11C84.3732 2197.85 90.6832 2196.58 95.4203 2197.34C100.217 2198.12 103.508 2200.97 104.676 2203.12L106.441 2202.16C104.956 2199.43 101.111 2196.22 95.7393 2195.36C90.3077 2194.49 83.4165 2196.02 75.8446 2202.59L77.1621 2204.11ZM61.122 2229.87C62.965 2223.15 64.7409 2218.68 67.1472 2214.92C69.5532 2211.16 72.6268 2208.05 77.1621 2204.11L75.8446 2202.59C71.2638 2206.57 68.0172 2209.83 65.4547 2213.83C62.8924 2217.84 61.0514 2222.53 59.1843 2229.34L61.122 2229.87ZM74.945 2237.09C73.9445 2238.58 72.3029 2239.82 70.4289 2240.58C68.5539 2241.34 66.5374 2241.58 64.8291 2241.21C63.1513 2240.84 61.7742 2239.89 61.0174 2238.18C60.2425 2236.44 60.0544 2233.76 61.122 2229.87L59.1843 2229.34C58.0498 2233.48 58.1473 2236.67 59.181 2239C60.2329 2241.37 62.1875 2242.69 64.4002 2243.17C66.5823 2243.65 69.0149 2243.32 71.1833 2242.44C73.3526 2241.56 75.3486 2240.1 76.6153 2238.2L74.945 2237.09ZM79.2495 2229.58C77.8381 2232.3 76.746 2234.39 74.945 2237.09L76.6153 2238.2C78.4836 2235.41 79.6199 2233.22 81.0317 2230.51L79.2495 2229.58ZM84.9845 2219.24C82.2156 2223.89 80.5944 2227 79.2495 2229.58L81.0317 2230.51C82.3708 2227.94 83.9711 2224.87 86.7104 2220.27L84.9845 2219.24ZM95.4796 2212.8C91.8619 2213.75 87.6124 2214.83 84.9845 2219.24L86.7104 2220.27C88.8668 2216.65 92.2938 2215.72 95.9902 2214.75L95.4796 2212.8ZM104.554 2202.62C104.46 2206.73 103.317 2208.87 101.789 2210.18C100.187 2211.55 98.0223 2212.13 95.4796 2212.8L95.9902 2214.75C98.4293 2214.11 101.078 2213.43 103.094 2211.71C105.183 2209.92 106.46 2207.15 106.563 2202.66L104.554 2202.62ZM101.36 2240.98C102.915 2241.85 105.037 2243.25 106.513 2246.08C107.991 2248.91 108.892 2253.32 107.7 2260.34L109.681 2260.68C110.923 2253.36 110.031 2248.47 108.295 2245.15C106.556 2241.81 104.042 2240.18 102.345 2239.22L101.36 2240.98ZM92.4659 2244.01C93.8635 2242.92 95.0495 2242.06 96.44 2241.53C97.805 2241.01 99.4336 2240.78 101.717 2241.1L101.988 2239.1C99.426 2238.76 97.4518 2238.99 95.7252 2239.65C94.024 2240.3 92.6296 2241.33 91.2265 2242.43L92.4659 2244.01ZM90.8674 2253.58C90.8074 2251.09 90.7599 2249.02 90.9837 2247.35C91.2072 2245.68 91.6764 2244.63 92.4659 2244.01L91.2265 2242.43C89.8236 2243.53 89.2418 2245.22 88.9922 2247.08C88.7428 2248.94 88.8 2251.19 88.8588 2253.63L90.8674 2253.58ZM90.925 2257.95C90.9359 2256.41 90.9003 2254.94 90.8674 2253.58L88.8588 2253.63C88.8918 2254.99 88.9264 2256.43 88.9158 2257.94L90.925 2257.95ZM91.298 2277.94C89.9757 2277.81 88.9594 2277.14 88.2194 2276.03C87.461 2274.89 86.991 2273.27 86.886 2271.33C86.6761 2267.45 87.9442 2262.58 90.7477 2258.51L89.0931 2257.37C86.0501 2261.79 84.6446 2267.1 84.8797 2271.44C84.9972 2273.61 85.5292 2275.61 86.5458 2277.14C87.5807 2278.7 89.1121 2279.75 91.1036 2279.94L91.298 2277.94ZM107.7 2260.34C106.197 2269.21 103.549 2273.68 100.676 2275.9C97.8217 2278.11 94.535 2278.26 91.298 2277.94L91.1036 2279.94C94.4942 2280.27 98.4316 2280.18 101.905 2277.49C105.359 2274.82 108.142 2269.75 109.681 2260.68L107.7 2260.34Z" fill="#FFFACC"/>
</g>
<path d="M122.393 2192.85C70.3405 2169.82 50.3084 2231.04 46.7989 2264.54C54.2254 2308.4 108.076 2305.66 134.073 2298.8C151.868 2273.08 174.445 2215.88 122.393 2192.85Z" fill="#C6C895"/>
<path fill-rule="evenodd" clip-rule="evenodd" d="M157.654 2413.07C184.681 2454.83 244.245 2452.38 270.649 2445.94C313.854 2431.27 358.04 2456.26 378.206 2478.95C390.231 2489.29 411.375 2511.32 399.745 2516.77C390.572 2521.06 372.859 2504.7 358.635 2491.56C350.32 2483.88 343.197 2477.3 339.669 2476.59C334.821 2475.62 335.567 2479.32 336.467 2483.78C337.341 2488.12 338.362 2493.17 334.523 2495.36C326.794 2499.76 319.784 2493.96 298.547 2476.37L298.074 2475.98C280.788 2461.67 245.965 2471.78 230.714 2478.63C230.079 2478.87 229.408 2479.14 228.701 2479.41L228.696 2479.41L228.695 2479.41C209.027 2487.13 161.771 2505.67 103.428 2475.63C49.1055 2447.66 25.5966 2359.89 22.8821 2314.17C18.5393 2297.5 10.3531 2259.07 18.714 2229.27C26.454 2201.68 37.1405 2210.8 41.9053 2221.39C37.9251 2234.93 33.8662 2252.34 34.1161 2256.96C34.3869 2261.96 36.0567 2259.97 36.0625 2255.85C36.0676 2252.2 40.1256 2234.84 42.8588 2223.73C42.8839 2223.8 42.9087 2223.87 42.9332 2223.94C46.7174 2204.72 67.182 2168.88 118.766 2179.28C170.282 2189.65 160.739 2259.42 149.491 2293.14C144.327 2292.33 133.971 2301.82 130.571 2309.92C128.223 2314.2 125.224 2330.27 126.252 2333.37C126.937 2335.43 126.946 2335.21 127.027 2333.24C127.173 2329.69 127.551 2320.49 132.518 2308.81C135.545 2301.69 145.901 2292.25 150.666 2294.07C162.637 2302.35 164.71 2318.04 161.582 2329.45C160.884 2331.99 158.73 2334.9 156.12 2338.43C146.644 2351.23 131.165 2372.14 157.654 2413.07ZM132.026 2233.59C124.684 2218.26 129.299 2215.87 133.403 2214.03C144.3 2209.88 147.868 2229.73 148.29 2240.17C149.147 2261.35 139.564 2261.74 136.965 2261.85C136.87 2261.85 136.785 2261.86 136.71 2261.86C134.567 2261.98 127.142 2259.29 129.9 2249.9L129.944 2249.75C132.669 2240.48 133.679 2237.05 132.026 2233.59ZM105.558 2202.64C102.906 2197.77 91.2864 2190.51 76.5034 2203.35C67.3872 2211.27 63.8632 2216.08 60.1531 2229.6C55.749 2245.67 71.2456 2244.43 75.7802 2237.64C77.6148 2234.9 78.729 2232.76 80.1406 2230.05C81.4826 2227.47 83.0933 2224.38 85.8475 2219.76C88.2396 2215.74 92.0779 2214.74 95.7349 2213.77C100.717 2212.47 105.362 2211.24 105.558 2202.64ZM108.691 2260.51C111.124 2246.16 105.105 2241.93 101.853 2240.1C97.007 2239.44 94.6469 2241.03 91.8462 2243.22C89.6538 2244.94 89.7443 2248.69 89.8631 2253.6C89.896 2254.96 89.9312 2256.42 89.9204 2257.94C84.0739 2266.43 84.5733 2278.3 91.2008 2278.94C97.8284 2279.59 105.649 2278.45 108.691 2260.51Z" fill="url(#paint7_linear_194_380)"/>
<g filter="url(#filter2_f_194_380)">
<path d="M1432.82 1954.83L1433.31 1953.96L1433.26 1953.93L1433.2 1953.9L1432.82 1954.83ZM1364.41 1902.27L1363.52 1902.74L1364.41 1902.27ZM1487.96 1990.8L1487.3 1991.57L1487.33 1991.59L1487.36 1991.62L1487.96 1990.8ZM1455.81 2161.04L1455.15 2161.8L1455.81 2161.04ZM1462.65 2172.29L1463.4 2172.96L1463.52 2172.83L1463.58 2172.67L1462.65 2172.29ZM1431.86 2157.38L1432.71 2156.85L1432.66 2156.76L1432.58 2156.68L1431.86 2157.38ZM1439.31 2099.86L1438.61 2099.13L1438.6 2099.14L1438.59 2099.15L1439.31 2099.86ZM1391.99 1978.65L1391.01 1978.43L1390.78 1979.5L1391.86 1979.64L1391.99 1978.65ZM1389.59 2002.58L1390.16 2001.75L1389.59 2002.58ZM1374.66 1992.47L1375.22 1991.63L1374.66 1992.47ZM1318.97 1944.02L1319.87 1943.59L1318.97 1944.02ZM1295.44 1911.4L1294.67 1912.05L1295.44 1911.4ZM1259.95 1859.08L1259.03 1859.48L1259.95 1859.08ZM1287.65 1728.61L1287.88 1729.59L1287.65 1728.61ZM1347.02 1825.94L1346.39 1826.72L1348.13 1828.11L1348.03 1825.89L1347.02 1825.94ZM1336.64 1843.22L1335.65 1843.35L1335.65 1843.36L1335.65 1843.37L1336.64 1843.22ZM1337.46 1840.37L1338.47 1840.33L1337.46 1840.37ZM1342.13 1826.23L1342.65 1827.09L1342.65 1827.09L1342.13 1826.23ZM1346.38 1826.29L1346.59 1825.31L1346.59 1825.31L1346.38 1826.29ZM1347.27 1826.46L1347.68 1825.54L1347.55 1825.48L1347.4 1825.46L1347.27 1826.46ZM1357.82 1866.01L1358.82 1865.92L1358.82 1865.92L1357.82 1866.01ZM1267.34 1769.71L1266.41 1769.35L1267.34 1769.71ZM1266.85 1770.97L1267.79 1771.33L1267.79 1771.33L1266.85 1770.97ZM1282.74 1749.15L1282.56 1750.14L1282.56 1750.14L1282.74 1749.15ZM1282.87 1777.11L1281.94 1776.73L1282.87 1777.11ZM1265.89 1795.13L1266.48 1794.32L1266.48 1794.32L1265.89 1795.13ZM1265.82 1795.07L1266.4 1794.26L1266.4 1794.26L1265.82 1795.07ZM1320.27 1780.56L1321.23 1780.27L1320.27 1780.56ZM1306.48 1757.36L1306.71 1758.34L1306.71 1758.34L1306.48 1757.36ZM1317.22 1804.96L1316.63 1805.77L1316.82 1805.91L1317.05 1805.95L1317.22 1804.96ZM1306.83 1785.45L1305.86 1785.71L1305.87 1785.72L1306.83 1785.45ZM1306.83 1785.45L1307.81 1785.19L1307.8 1785.18L1306.83 1785.45ZM1306.83 1785.45L1305.87 1785.72L1305.87 1785.72L1306.83 1785.45ZM1305.76 1781.57L1306.72 1781.3L1306.72 1781.3L1305.76 1781.57ZM1289.91 1796.02L1289.57 1795.08L1289.57 1795.08L1289.91 1796.02ZM1284.72 1805.72L1285.72 1805.88L1284.72 1805.72ZM1297.53 1805.33L1298.52 1805.18L1297.53 1805.33ZM1292.27 1816.85L1292.17 1815.85L1292.27 1816.85ZM1433.2 1953.9C1396.35 1939.01 1374.4 1918.96 1365.29 1901.8L1363.52 1902.74C1372.92 1920.45 1395.32 1940.77 1432.45 1955.76L1433.2 1953.9ZM1488.61 1990.04C1472.06 1975.88 1458.3 1967.99 1433.31 1953.96L1432.33 1955.71C1457.32 1969.75 1470.93 1977.55 1487.3 1991.57L1488.61 1990.04ZM1475.49 2098.96C1495.51 2090.09 1508.37 2069.83 1511.45 2048.37C1514.52 2026.9 1507.84 2004.04 1488.55 1989.99L1487.36 1991.62C1505.93 2005.14 1512.45 2027.19 1509.46 2048.09C1506.46 2069 1493.95 2088.58 1474.67 2097.12L1475.49 2098.96ZM1456.47 2160.29C1454.56 2158.61 1452.33 2155.03 1450.7 2150.21C1449.08 2145.44 1448.09 2139.56 1448.56 2133.38C1449.48 2121.09 1456.18 2107.51 1475.49 2098.96L1474.67 2097.12C1454.68 2105.98 1447.54 2120.21 1446.55 2133.23C1446.06 2139.71 1447.1 2145.85 1448.8 2150.86C1450.48 2155.83 1452.86 2159.79 1455.15 2161.8L1456.47 2160.29ZM1463.58 2172.67C1464 2171.63 1463.84 2169.97 1462.85 2167.96C1461.84 2165.89 1459.9 2163.3 1456.47 2160.29L1455.15 2161.8C1458.44 2164.69 1460.18 2167.08 1461.05 2168.84C1461.93 2170.65 1461.82 2171.66 1461.72 2171.91L1463.58 2172.67ZM1431.01 2157.91C1434.07 2162.84 1439.33 2169.55 1445.17 2173.6C1448.09 2175.63 1451.24 2177.05 1454.4 2177.16C1457.61 2177.27 1460.7 2176.02 1463.4 2172.96L1461.9 2171.63C1459.56 2174.28 1457.03 2175.24 1454.47 2175.15C1451.85 2175.06 1449.08 2173.87 1446.32 2171.95C1440.8 2168.12 1435.71 2161.66 1432.71 2156.85L1431.01 2157.91ZM1438.59 2099.15C1433.22 2104.63 1426.4 2114.11 1423.38 2124.83C1420.34 2135.6 1421.13 2147.69 1431.14 2158.08L1432.58 2156.68C1423.19 2146.93 1422.42 2135.64 1425.31 2125.38C1428.22 2115.07 1434.82 2105.87 1440.02 2100.56L1438.59 2099.15ZM1441.36 2004.23C1458.97 2024.24 1462.14 2044.19 1459.01 2061C1455.87 2077.87 1446.38 2091.64 1438.61 2099.13L1440 2100.58C1448.02 2092.85 1457.76 2078.72 1460.98 2061.37C1464.22 2043.96 1460.9 2023.38 1442.87 2002.9L1441.36 2004.23ZM1392.97 1978.86C1393.39 1976.91 1394.41 1975.14 1396.12 1974.09C1397.81 1973.05 1400.37 1972.61 1404.1 1973.67C1411.65 1975.83 1423.55 1984 1441.36 2004.23L1442.87 2002.9C1425.03 1982.64 1412.8 1974.07 1404.65 1971.74C1400.55 1970.57 1397.37 1970.96 1395.07 1972.37C1392.77 1973.78 1391.51 1976.1 1391.01 1978.43L1392.97 1978.86ZM1389.02 2003.4C1392.42 2005.76 1395.27 2007.22 1397.63 2007.92C1399.99 2008.62 1401.97 2008.6 1403.51 2007.82C1405.08 2007.03 1405.99 2005.58 1406.44 2003.87C1406.88 2002.18 1406.88 2000.17 1406.57 1998.06C1405.95 1993.85 1404.07 1989.03 1401.54 1985.15C1400.27 1983.2 1398.82 1981.46 1397.25 1980.14C1395.68 1978.83 1393.95 1977.89 1392.12 1977.65L1391.86 1979.64C1393.18 1979.81 1394.57 1980.51 1395.95 1981.68C1397.33 1982.84 1398.66 1984.42 1399.86 1986.25C1402.25 1989.91 1404.01 1994.46 1404.58 1998.35C1404.86 2000.3 1404.84 2002.02 1404.49 2003.37C1404.15 2004.69 1403.51 2005.57 1402.61 2006.02C1401.69 2006.49 1400.29 2006.62 1398.2 2006C1396.12 2005.38 1393.47 2004.05 1390.16 2001.75L1389.02 2003.4ZM1374.1 1993.3C1379.19 1996.71 1384.22 2000.08 1389.02 2003.4L1390.16 2001.75C1385.35 1998.42 1380.31 1995.04 1375.22 1991.63L1374.1 1993.3ZM1318.06 1944.46C1322.07 1952.87 1330.3 1961.19 1340.35 1969.31C1350.41 1977.45 1362.42 1985.49 1374.1 1993.3L1375.22 1991.63C1363.52 1983.8 1351.59 1975.82 1341.61 1967.75C1331.61 1959.66 1323.68 1951.58 1319.87 1943.59L1318.06 1944.46ZM1294.67 1912.05C1304.28 1923.44 1312.94 1933.72 1318.06 1944.46L1319.87 1943.59C1314.62 1932.58 1305.77 1922.09 1296.21 1910.75L1294.67 1912.05ZM1259.03 1859.48C1268.37 1880.87 1282.27 1897.34 1294.67 1912.05L1296.21 1910.75C1283.79 1896.03 1270.07 1879.76 1260.87 1858.67L1259.03 1859.48ZM1287.42 1727.63C1273.01 1731 1262.96 1738.61 1256.28 1748.74C1249.62 1758.84 1246.36 1771.39 1245.4 1784.62C1243.49 1811.08 1250.77 1840.54 1259.03 1859.48L1260.87 1858.67C1252.71 1839.96 1245.52 1810.82 1247.41 1784.77C1248.35 1771.75 1251.55 1759.57 1257.96 1749.84C1264.35 1740.15 1273.97 1732.84 1287.88 1729.59L1287.42 1727.63ZM1348.03 1825.89C1347.24 1808.6 1343.1 1781.63 1333.74 1760.2C1329.06 1749.49 1323.05 1740.07 1315.41 1733.96C1307.74 1727.82 1298.46 1725.05 1287.42 1727.63L1287.88 1729.59C1298.27 1727.16 1306.92 1729.74 1314.16 1735.53C1321.43 1741.35 1327.29 1750.44 1331.9 1761C1341.13 1782.13 1345.24 1808.84 1346.02 1825.98L1348.03 1825.89ZM1337.64 1843.09C1336.52 1834.69 1337.99 1829.8 1340 1827.46C1341 1826.31 1342.13 1825.77 1343.21 1825.68C1344.29 1825.59 1345.41 1825.94 1346.39 1826.72L1347.65 1825.15C1346.31 1824.08 1344.69 1823.54 1343.04 1823.68C1341.38 1823.82 1339.78 1824.64 1338.48 1826.15C1335.91 1829.12 1334.5 1834.73 1335.65 1843.35L1337.64 1843.09ZM1336.46 1840.42C1336.53 1841.92 1336.53 1842.93 1336.49 1843.57C1336.47 1843.89 1336.44 1844.08 1336.42 1844.19C1336.41 1844.25 1336.4 1844.25 1336.41 1844.23C1336.41 1844.22 1336.46 1844.09 1336.61 1843.97C1336.8 1843.81 1337.11 1843.7 1337.44 1843.78C1337.69 1843.85 1337.83 1844 1337.85 1844.04C1337.92 1844.11 1337.91 1844.14 1337.87 1844.01C1337.79 1843.81 1337.7 1843.46 1337.64 1843.06L1335.65 1843.37C1335.73 1843.86 1335.84 1844.35 1335.99 1844.73C1336.05 1844.9 1336.16 1845.15 1336.34 1845.36C1336.43 1845.45 1336.62 1845.65 1336.93 1845.73C1337.31 1845.83 1337.67 1845.71 1337.91 1845.5C1338.11 1845.33 1338.21 1845.13 1338.26 1845.02C1338.31 1844.88 1338.35 1844.75 1338.38 1844.62C1338.44 1844.37 1338.47 1844.06 1338.49 1843.69C1338.54 1842.95 1338.54 1841.86 1338.47 1840.33L1336.46 1840.42ZM1341.61 1825.37C1339.17 1826.85 1337.85 1829.47 1337.15 1832.19C1336.46 1834.93 1336.35 1837.94 1336.46 1840.42L1338.47 1840.33C1338.36 1837.95 1338.47 1835.16 1339.1 1832.69C1339.74 1830.2 1340.86 1828.17 1342.65 1827.09L1341.61 1825.37ZM1346.59 1825.31C1345.97 1825.17 1345.1 1824.98 1344.25 1824.92C1343.43 1824.85 1342.41 1824.88 1341.61 1825.37L1342.65 1827.09C1342.89 1826.94 1343.36 1826.86 1344.09 1826.92C1344.79 1826.97 1345.52 1827.13 1346.17 1827.27L1346.59 1825.31ZM1347.4 1825.46C1347.23 1825.44 1346.97 1825.39 1346.59 1825.31L1346.17 1827.27C1346.51 1827.34 1346.87 1827.42 1347.14 1827.46L1347.4 1825.46ZM1358.82 1865.92C1358.01 1856.82 1357.2 1847.69 1355.67 1840.42C1354.9 1836.78 1353.94 1833.56 1352.68 1831.01C1351.43 1828.48 1349.82 1826.5 1347.68 1825.54L1346.86 1827.38C1348.39 1828.06 1349.72 1829.57 1350.88 1831.91C1352.03 1834.23 1352.95 1837.27 1353.7 1840.83C1355.21 1847.96 1356.01 1856.96 1356.82 1866.1L1358.82 1865.92ZM1365.29 1901.8C1363.36 1898.16 1362.05 1892.8 1361.07 1886.49C1360.09 1880.19 1359.46 1873.06 1358.82 1865.92L1356.82 1866.1C1357.46 1873.22 1358.1 1880.42 1359.08 1886.79C1360.07 1893.14 1361.42 1898.79 1363.52 1902.74L1365.29 1901.8ZM1266.41 1769.35C1266.23 1769.79 1266.07 1770.21 1265.92 1770.6L1267.79 1771.33C1267.94 1770.95 1268.1 1770.52 1268.28 1770.07L1266.41 1769.35ZM1282.92 1748.16C1280.79 1747.77 1278.85 1748.63 1277.17 1750.04C1275.5 1751.45 1273.99 1753.49 1272.65 1755.72C1269.96 1760.2 1267.81 1765.74 1266.41 1769.35L1268.28 1770.07C1269.69 1766.44 1271.79 1761.06 1274.37 1756.76C1275.66 1754.6 1277.04 1752.78 1278.46 1751.58C1279.88 1750.39 1281.24 1749.9 1282.56 1750.14L1282.92 1748.16ZM1283.8 1777.5C1286.98 1769.88 1288.84 1763.09 1288.93 1757.97C1288.98 1755.41 1288.59 1753.18 1287.62 1751.46C1286.62 1749.7 1285.05 1748.55 1282.92 1748.16L1282.56 1750.14C1284.1 1750.42 1285.17 1751.21 1285.87 1752.45C1286.6 1753.73 1286.97 1755.56 1286.92 1757.93C1286.83 1762.68 1285.09 1769.19 1281.94 1776.73L1283.8 1777.5ZM1265.46 1796.05C1266.86 1797.08 1268.42 1797.4 1270.04 1796.95C1271.6 1796.53 1273.11 1795.43 1274.59 1793.83C1277.54 1790.62 1280.62 1785.1 1283.8 1777.5L1281.94 1776.73C1278.79 1784.28 1275.82 1789.53 1273.11 1792.46C1271.76 1793.93 1270.55 1794.73 1269.51 1795.02C1268.52 1795.29 1267.59 1795.12 1266.64 1794.43L1265.46 1796.05ZM1265.31 1795.94C1265.36 1795.98 1265.41 1796.02 1265.46 1796.05L1266.64 1794.43C1266.59 1794.39 1266.53 1794.35 1266.48 1794.32L1265.31 1795.94ZM1265.23 1795.89L1265.31 1795.94L1266.48 1794.32L1266.4 1794.26L1265.23 1795.89ZM1265.92 1770.6C1262.1 1780.3 1261.03 1785.99 1261.39 1789.59C1261.57 1791.43 1262.13 1792.74 1262.88 1793.75C1263.62 1794.73 1264.51 1795.37 1265.23 1795.89L1266.4 1794.26C1265.67 1793.73 1265.02 1793.25 1264.49 1792.54C1263.98 1791.86 1263.54 1790.9 1263.39 1789.39C1263.08 1786.3 1263.98 1780.99 1267.79 1771.33L1265.92 1770.6ZM1321.23 1780.27C1318.25 1770.46 1315.99 1764.26 1313.83 1760.65C1312.74 1758.84 1311.62 1757.58 1310.35 1756.87C1309.03 1756.14 1307.67 1756.06 1306.25 1756.38L1306.71 1758.34C1307.74 1758.1 1308.58 1758.18 1309.37 1758.62C1310.21 1759.09 1311.1 1760.01 1312.11 1761.69C1314.12 1765.05 1316.31 1771.01 1319.31 1780.85L1321.23 1780.27ZM1317.05 1805.95C1319.45 1806.38 1322.07 1804.64 1323.24 1800.64C1324.4 1796.64 1324.25 1790.17 1321.23 1780.27L1319.31 1780.85C1322.28 1790.6 1322.31 1796.63 1321.31 1800.07C1320.31 1803.51 1318.41 1804.15 1317.4 1803.97L1317.05 1805.95ZM1305.87 1785.72C1307.34 1791.04 1308.4 1794.88 1309.89 1797.95C1311.42 1801.09 1313.39 1803.41 1316.63 1805.77L1317.81 1804.15C1314.81 1801.95 1313.06 1799.88 1311.7 1797.08C1310.3 1794.21 1309.29 1790.58 1307.8 1785.18L1305.87 1785.72ZM1305.86 1785.71L1305.86 1785.71L1307.81 1785.19L1307.81 1785.19L1305.86 1785.71ZM1305.87 1785.72L1305.87 1785.72L1307.8 1785.18L1307.8 1785.18L1305.87 1785.72ZM1304.79 1781.85C1305.18 1783.22 1305.53 1784.51 1305.87 1785.72L1307.8 1785.18C1307.47 1783.98 1307.11 1782.68 1306.72 1781.3L1304.79 1781.85ZM1306.25 1756.38C1304.91 1756.69 1303.69 1757.24 1302.79 1758.31C1301.88 1759.38 1301.41 1760.83 1301.28 1762.73C1301.03 1766.48 1302.13 1772.4 1304.79 1781.85L1306.72 1781.3C1304.05 1771.83 1303.06 1766.22 1303.29 1762.87C1303.4 1761.22 1303.79 1760.23 1304.32 1759.61C1304.84 1758.99 1305.6 1758.6 1306.71 1758.34L1306.25 1756.38ZM1289.57 1795.08C1286.46 1796.19 1284.8 1799.17 1283.73 1805.55L1285.72 1805.88C1286.77 1799.55 1288.28 1797.67 1290.24 1796.97L1289.57 1795.08ZM1298.52 1805.18C1298.01 1801.9 1296.66 1799.16 1295.06 1797.34C1294.26 1796.43 1293.36 1795.72 1292.45 1795.31C1291.53 1794.89 1290.52 1794.74 1289.57 1795.08L1290.24 1796.97C1290.56 1796.86 1291.02 1796.86 1291.61 1797.14C1292.21 1797.41 1292.88 1797.91 1293.55 1798.67C1294.88 1800.18 1296.07 1802.55 1296.54 1805.49L1298.52 1805.18ZM1292.38 1817.85C1294.13 1817.67 1295.53 1817.33 1296.61 1816.73C1297.73 1816.1 1298.46 1815.22 1298.85 1814.07C1299.23 1812.97 1299.28 1811.68 1299.18 1810.25C1299.08 1808.81 1298.83 1807.12 1298.52 1805.18L1296.54 1805.49C1296.84 1807.44 1297.08 1809.05 1297.17 1810.39C1297.26 1811.73 1297.19 1812.7 1296.95 1813.42C1296.72 1814.1 1296.33 1814.59 1295.64 1814.97C1294.9 1815.38 1293.81 1815.68 1292.17 1815.85L1292.38 1817.85ZM1283.73 1805.55C1283.29 1808.2 1283.48 1811.4 1284.75 1813.89C1285.39 1815.15 1286.33 1816.26 1287.62 1816.99C1288.92 1817.72 1290.51 1818.04 1292.38 1817.85L1292.17 1815.85C1290.65 1816.01 1289.5 1815.74 1288.61 1815.24C1287.72 1814.74 1287.04 1813.96 1286.54 1812.98C1285.52 1810.98 1285.32 1808.26 1285.72 1805.88L1283.73 1805.55Z" fill="#FFFACC"/>
</g>
<path d="M1260.24 1763.4C1267.1 1740.37 1286.76 1739.07 1295.74 1741.3C1303.84 1743.25 1322.37 1753.26 1331.7 1777.73C1343.37 1808.32 1330.65 1826.53 1291.19 1833.35C1251.74 1840.18 1251.67 1792.18 1260.24 1763.4Z" fill="#C6C895"/>
<path fill-rule="evenodd" clip-rule="evenodd" d="M1364.41 1902.27C1373.66 1919.7 1395.84 1939.89 1432.82 1954.83C1457.81 1968.87 1471.49 1976.71 1487.96 1990.8C1525.81 2018.38 1514.38 2080.63 1475.08 2098.04C1435.78 2115.45 1447.4 2153.67 1455.81 2161.04C1462.54 2166.95 1463.17 2171 1462.65 2172.29C1452.56 2183.73 1437.92 2167.12 1431.86 2157.38C1412.46 2137.24 1428.74 2110.64 1439.31 2099.86C1455.09 2084.63 1477.76 2044.06 1442.11 2003.56C1406.47 1963.07 1393.84 1970.08 1391.99 1978.65C1404.57 1980.29 1416.43 2021.19 1389.59 2002.58C1384.79 1999.25 1379.75 1995.88 1374.66 1992.47C1351.28 1976.82 1326.79 1960.43 1318.97 1944.02C1313.78 1933.15 1305.03 1922.77 1295.44 1911.4C1283.03 1896.68 1269.22 1880.31 1259.95 1859.08C1243.53 1821.43 1231.02 1741.86 1287.65 1728.61C1330.51 1718.58 1345.46 1791.5 1347.02 1825.94C1342.38 1822.23 1334.39 1826.2 1336.64 1843.22C1336.92 1844.99 1337.74 1846.44 1337.46 1840.37C1337.24 1835.51 1337.9 1828.79 1342.13 1826.23C1343.18 1825.59 1345.11 1826.01 1346.38 1826.29C1346.74 1826.37 1347.05 1826.43 1347.27 1826.46C1354.6 1829.74 1356.2 1847.77 1357.82 1866.01C1359.09 1880.27 1360.37 1894.67 1364.41 1902.27ZM1266.85 1770.97C1267 1770.58 1267.17 1770.16 1267.34 1769.71C1270.16 1762.46 1275.83 1747.89 1282.74 1749.15C1290.08 1750.49 1289.2 1761.96 1282.87 1777.11C1276.54 1792.26 1270.75 1798.67 1266.05 1795.24C1266 1795.2 1265.95 1795.17 1265.89 1795.13L1265.82 1795.07C1262.92 1792.98 1259.23 1790.32 1266.85 1770.97ZM1306.48 1757.36C1311.38 1756.23 1314.29 1760.92 1320.27 1780.56C1326.26 1800.2 1320.64 1805.57 1317.22 1804.96C1310.97 1800.4 1309.8 1796.17 1306.83 1785.45L1306.83 1785.45L1306.83 1785.45C1306.5 1784.24 1306.14 1782.95 1305.76 1781.57C1300.43 1762.66 1301.59 1758.49 1306.48 1757.36ZM1284.72 1805.72C1285.79 1799.36 1287.37 1796.93 1289.91 1796.02C1292.44 1795.12 1296.55 1799.11 1297.53 1805.33C1298.75 1813.12 1299.05 1816.15 1292.27 1816.85C1285.5 1817.55 1283.88 1810.74 1284.72 1805.72Z" fill="url(#paint8_linear_194_380)"/>
<g filter="url(#filter3_f_194_380)">
<path d="M433.85 696.954L433.793 697.957L433.85 696.954ZM402.452 685.22L401.964 686.099L401.964 686.099L402.452 685.22ZM501.176 684.233L500.852 683.282L501.176 684.233ZM573.253 685.171L573.907 684.408L573.253 685.171ZM579.977 759.045L579.808 760.036L580.444 760.144L580.807 759.611L579.977 759.045ZM579.541 758.984L579.65 757.986L579.65 757.986L579.541 758.984ZM574.329 759.623L574.009 758.671L574.343 760.627L574.329 759.623ZM583.593 760.677L583.394 761.661L586.949 762.38L584.27 759.935L583.593 760.677ZM583.581 760.666L583.798 759.685L580.087 758.868L582.909 761.412L583.581 760.666ZM603.229 774.53L602.262 774.802L603.229 774.53ZM562.314 780.759L562.715 779.838L562.314 780.759ZM552.109 776.287L552.513 775.367L552.109 776.287ZM511.523 762.406L511.596 761.404L511.523 762.406ZM503.455 762.332L503.478 763.336L503.455 762.332ZM464.956 751.367L464.425 752.22L464.956 751.367ZM458.122 745.156L457.384 745.837L458.122 745.156ZM455.699 742.594L454.986 743.301L455.699 742.594ZM419.948 718.03L420.431 717.149L419.948 718.03ZM398.155 697.223L399.046 696.759L398.155 697.223ZM387.891 683.776L387.831 682.773L384.631 682.964L387.368 684.634L387.891 683.776ZM398.664 683.134L399.142 682.25L398.89 682.114L398.605 682.131L398.664 683.134ZM433.907 695.951C422.727 695.317 411.914 689.329 402.94 684.342L401.964 686.099C410.853 691.038 422.073 697.292 433.793 697.957L433.907 695.951ZM500.852 683.282C471.006 693.447 450.133 696.871 433.907 695.951L433.793 697.957C450.387 698.898 471.54 695.387 501.5 685.184L500.852 683.282ZM573.907 684.408C564.854 676.655 554.045 673.83 541.784 674.216C529.553 674.601 515.828 678.182 500.852 683.282L501.5 685.184C516.428 680.1 529.924 676.6 541.847 676.224C553.74 675.85 564.018 678.585 572.6 685.934L573.907 684.408ZM580.807 759.611C593.392 741.153 596.205 726.15 593.515 713.784C590.833 701.451 582.72 691.956 573.907 684.408L572.6 685.934C581.276 693.364 589.005 702.503 591.552 714.211C594.091 725.885 591.522 740.329 579.147 758.479L580.807 759.611ZM580.145 758.055C579.983 758.027 579.818 758.004 579.65 757.986L579.431 759.983C579.559 759.997 579.685 760.015 579.808 760.036L580.145 758.055ZM579.65 757.986C577.446 757.744 574.98 758.344 574.009 758.671L574.65 760.575C575.487 760.293 577.637 759.786 579.431 759.983L579.65 757.986ZM574.343 760.627C577.263 760.587 581.583 761.295 583.394 761.661L583.792 759.692C581.954 759.32 577.46 758.574 574.315 758.618L574.343 760.627ZM584.27 759.935C584.265 759.93 584.26 759.925 584.254 759.92L582.909 761.412C582.911 761.415 582.913 761.417 582.915 761.418L584.27 759.935ZM604.196 774.257C602.952 769.842 599.627 766.601 595.796 764.284C591.959 761.963 587.508 760.503 583.798 759.685L583.365 761.648C586.94 762.435 591.165 763.831 594.756 766.003C598.353 768.178 601.209 771.065 602.262 774.802L604.196 774.257ZM561.913 781.68C575.575 787.63 586.901 789.253 594.459 787.71C598.245 786.937 601.184 785.346 602.932 782.994C604.703 780.611 605.137 777.599 604.196 774.257L602.262 774.802C603.067 777.659 602.653 780.001 601.319 781.796C599.964 783.62 597.545 785.029 594.057 785.741C587.07 787.168 576.192 785.707 562.715 779.838L561.913 781.68ZM551.705 777.207C554.841 778.586 558.23 780.076 561.913 781.68L562.715 779.838C559.036 778.235 555.65 776.747 552.513 775.367L551.705 777.207ZM511.451 763.408C522.025 764.171 531.654 768.391 551.705 777.207L552.513 775.367C532.586 766.606 522.595 762.198 511.596 761.404L511.451 763.408ZM503.478 763.336C506.186 763.273 508.776 763.214 511.451 763.408L511.596 761.404C508.81 761.202 506.125 761.265 503.432 761.327L503.478 763.336ZM464.425 752.22C473.702 757.983 481.022 760.831 487.273 762.2C493.522 763.569 498.655 763.448 503.478 763.336L503.432 761.327C498.61 761.439 493.693 761.55 487.703 760.238C481.716 758.926 474.608 756.18 465.486 750.513L464.425 752.22ZM457.384 745.837C459.505 748.133 461.717 750.538 464.425 752.22L465.486 750.513C463.049 749 461.018 746.81 458.86 744.474L457.384 745.837ZM454.986 743.301C455.797 744.12 456.585 744.972 457.384 745.837L458.86 744.474C458.065 743.613 457.253 742.734 456.413 741.886L454.986 743.301ZM419.464 718.91C430.643 725.053 444.384 732.611 454.986 743.301L456.413 741.886C445.574 730.957 431.571 723.27 420.431 717.149L419.464 718.91ZM409.519 713.271C412.414 715.037 415.806 716.901 419.464 718.91L420.431 717.149C416.762 715.133 413.413 713.293 410.566 711.556L409.519 713.271ZM397.264 697.688C400.221 703.364 403.416 709.547 409.519 713.271L410.566 711.556C405.016 708.17 402.048 702.522 399.046 696.759L397.264 697.688ZM387.368 684.634C391.861 687.375 394.444 692.275 397.264 697.688L399.046 696.759C396.288 691.467 393.472 686.004 388.414 682.918L387.368 684.634ZM398.605 682.131L387.831 682.773L387.951 684.779L398.724 684.137L398.605 682.131ZM402.94 684.342C401.632 683.616 400.362 682.91 399.142 682.25L398.186 684.018C399.395 684.671 400.654 685.371 401.964 686.099L402.94 684.342Z" fill="#232A2A"/>
</g>
<path fill-rule="evenodd" clip-rule="evenodd" d="M405.547 686.408C413.783 691.106 422.95 696.336 433.85 696.954C450.26 697.885 471.273 694.417 501.176 684.233C531.079 674.05 555.619 670.069 573.253 685.171C590.743 700.149 604.937 722.438 579.977 759.045C579.834 759.021 579.689 759 579.541 758.984C577.541 758.765 575.233 759.319 574.329 759.623C577.362 759.58 581.768 760.308 583.593 760.677C583.589 760.673 583.585 760.67 583.581 760.666C590.867 762.272 600.932 766.378 603.229 774.53C606.721 786.926 589.453 792.579 562.314 780.759C558.633 779.156 555.246 777.666 552.109 776.287C532.12 767.498 522.31 763.185 511.523 762.406C508.793 762.208 506.156 762.269 503.455 762.332C493.811 762.555 483.355 762.796 464.956 751.367C462.383 749.769 460.261 747.472 458.122 745.156C457.325 744.293 456.525 743.427 455.699 742.594C444.979 731.784 431.107 724.162 419.948 718.03C416.284 716.017 412.914 714.165 410.043 712.413C404.216 708.858 401.134 702.943 398.155 697.223C395.366 691.871 392.667 686.69 387.891 683.776L400.609 683.639C402.221 684.511 403.865 685.448 405.547 686.408Z" fill="url(#paint9_linear_194_380)"/>
<path d="M541.347 700.049C553.654 695.645 558.514 700.054 559.406 702.809C560.801 706.364 555.702 709.877 552.978 711.189C540.849 717.15 534.432 715.15 532.715 712.555C530.999 709.96 529.039 704.452 541.347 700.049Z" fill="#E7CE98"/>
<path d="M564.014 722.965C567.666 713.743 573.464 711.358 576.868 712.251C582.862 714.723 581.366 721.43 580.361 724.647C577.46 733.932 570.927 738.516 567.028 737.439C563.13 736.362 561.118 730.279 564.014 722.965Z" fill="#E7CE98"/>
<path d="M537.188 723.576C541.518 719.584 547.696 722.748 550.243 724.828C559.611 732.123 555.013 736.425 553.448 737.049C551.882 737.674 544.643 741.127 538.827 736.421C534.862 733.212 531.775 728.565 537.188 723.576Z" fill="#E7CE98"/>
<path d="M520.216 655.225C517.019 654.961 513.855 658.356 512.673 660.087C509.19 667.63 516.635 664.706 520.456 661.306C521.996 659.935 523.919 661.371 527.058 660.613C530.198 659.856 529.116 656.006 526.882 656.883C524.649 657.76 524.213 655.556 520.216 655.225Z" fill="#3A5B4E"/>
<path d="M430.489 735.549C428.881 734.746 427.473 734.545 424.46 735.55C420.442 736.889 425.466 740.572 427.475 741.577C429.484 742.582 434.507 743.586 434.507 741.577C434.507 739.568 432.498 736.554 430.489 735.549Z" fill="#9AB474"/>
<path d="M531.511 662.423C530.838 662.91 530.57 663.418 530.912 664.744C531.367 666.511 534.216 665.184 535.057 664.576C535.897 663.968 537.038 662.2 535.756 661.869C534.474 661.538 532.352 661.815 531.511 662.423Z" fill="#3A5B4E"/>
<path d="M510.352 655.559L544.51 595.281L503.32 650.536C469.497 657.568 400.848 672.035 396.829 673.642C391.806 675.652 339.565 727.892 329.519 735.929C321.482 742.359 272.59 755.352 249.148 761.045H272.255L329.519 744.971L401.852 682.684L510.352 655.559Z" fill="#232A2A"/>
<defs>
<filter id="filter0_f_194_380" x="831.615" y="2107.08" width="540.647" height="407.646" filterUnits="userSpaceOnUse" color-interpolation-filters="sRGB">
<feFlood flood-opacity="0" result="BackgroundImageFix"/>
<feBlend mode="normal" in="SourceGraphic" in2="BackgroundImageFix" result="shape"/>
<feGaussianBlur stdDeviation="4.01852" result="effect1_foregroundBlur_194_380"/>
</filter>
<filter id="filter1_f_194_380" x="6.05964" y="2168.38" width="406.108" height="358.127" filterUnits="userSpaceOnUse" color-interpolation-filters="sRGB">
<feFlood flood-opacity="0" result="BackgroundImageFix"/>
<feBlend mode="normal" in="SourceGraphic" in2="BackgroundImageFix" result="shape"/>
<feGaussianBlur stdDeviation="4.01852" result="effect1_foregroundBlur_194_380"/>
</filter>
<filter id="filter2_f_194_380" x="1237.06" y="1718.63" width="283.141" height="466.574" filterUnits="userSpaceOnUse" color-interpolation-filters="sRGB">
<feFlood flood-opacity="0" result="BackgroundImageFix"/>
<feBlend mode="normal" in="SourceGraphic" in2="BackgroundImageFix" result="shape"/>
<feGaussianBlur stdDeviation="4.01852" result="effect1_foregroundBlur_194_380"/>
</filter>
<filter id="filter3_f_194_380" x="376.594" y="666.145" width="236.124" height="130.15" filterUnits="userSpaceOnUse" color-interpolation-filters="sRGB">
<feFlood flood-opacity="0" result="BackgroundImageFix"/>
<feBlend mode="normal" in="SourceGraphic" in2="BackgroundImageFix" result="shape"/>
<feGaussianBlur stdDeviation="4.01852" result="effect1_foregroundBlur_194_380"/>
</filter>
<radialGradient id="paint0_radial_194_380" cx="0" cy="0" r="1" gradientUnits="userSpaceOnUse" gradientTransform="translate(779.2 1658.38) rotate(90) scale(817.95 884.435)">
<stop offset="0.24522" stop-color="#A25252"/>
<stop offset="0.45522" stop-color="#D08042"/>
<stop offset="0.81022" stop-color="#9E402B"/>
<stop offset="0.875" stop-color="#51242B"/>
</radialGradient>
<radialGradient id="paint1_radial_194_380" cx="0" cy="0" r="1" gradientUnits="userSpaceOnUse" gradientTransform="translate(779.2 1658.38) rotate(90) scale(817.95 884.435)">
<stop offset="0.24522" stop-color="#A25252"/>
<stop offset="0.45522" stop-color="#D08042"/>
<stop offset="0.81022" stop-color="#9E402B"/>
<stop offset="0.875" stop-color="#51242B"/>
</radialGradient>
<radialGradient id="paint2_radial_194_380" cx="0" cy="0" r="1" gradientUnits="userSpaceOnUse" gradientTransform="translate(779.2 1658.38) rotate(90) scale(817.95 884.435)">
<stop offset="0.24522" stop-color="#A25252"/>
<stop offset="0.45522" stop-color="#D08042"/>
<stop offset="0.81022" stop-color="#9E402B"/>
<stop offset="0.875" stop-color="#51242B"/>
</radialGradient>
<radialGradient id="paint3_radial_194_380" cx="0" cy="0" r="1" gradientUnits="userSpaceOnUse" gradientTransform="translate(779.2 1658.38) rotate(90) scale(817.95 884.435)">
<stop offset="0.24522" stop-color="#A25252"/>
<stop offset="0.45522" stop-color="#D08042"/>
<stop offset="0.81022" stop-color="#9E402B"/>
<stop offset="0.875" stop-color="#51242B"/>
</radialGradient>
<radialGradient id="paint4_radial_194_380" cx="0" cy="0" r="1" gradientUnits="userSpaceOnUse" gradientTransform="translate(779.2 1658.38) rotate(90) scale(817.95 884.435)">
<stop offset="0.24522" stop-color="#A25252"/>
<stop offset="0.45522" stop-color="#D08042"/>
<stop offset="0.81022" stop-color="#9E402B"/>
<stop offset="0.875" stop-color="#51242B"/>
</radialGradient>
<radialGradient id="paint5_radial_194_380" cx="0" cy="0" r="1" gradientUnits="userSpaceOnUse" gradientTransform="translate(769.432 1678.39) rotate(90) scale(481.784 537.257)">
<stop offset="0.24" stop-color="#F8EDA9" stop-opacity="0.8"/>
<stop offset="0.721667" stop-color="#D08042"/>
</radialGradient>
<linearGradient id="paint6_linear_194_380" x1="1145.47" y1="2089.12" x2="1066.52" y2="2542.85" gradientUnits="userSpaceOnUse">
<stop offset="0.275046" stop-color="#022838"/>
<stop offset="0.600046" stop-color="#3A5C4E"/>
<stop offset="0.905046" stop-color="#A2BC77"/>
</linearGradient>
<linearGradient id="paint7_linear_194_380" x1="69.2177" y1="2185.92" x2="292.477" y2="2577.89" gradientUnits="userSpaceOnUse">
<stop offset="0.275046" stop-color="#022838"/>
<stop offset="0.600046" stop-color="#3A5C4E"/>
<stop offset="0.905046" stop-color="#A2BC77"/>
</linearGradient>
<linearGradient id="paint8_linear_194_380" x1="1300.43" y1="1748.01" x2="1396.97" y2="2105.06" gradientUnits="userSpaceOnUse">
<stop offset="0.26568" stop-color="#022838"/>
<stop offset="0.655086" stop-color="#3A5C4E"/>
<stop offset="0.940061" stop-color="#A2BC77"/>
</linearGradient>
<linearGradient id="paint9_linear_194_380" x1="595.849" y1="698.561" x2="400.254" y2="690.415" gradientUnits="userSpaceOnUse">
<stop offset="0.29022" stop-color="#4E1212"/>
<stop offset="0.73022" stop-color="#A25252"/>
<stop offset="0.82522" stop-color="#D08042"/>
</linearGradient>
</defs>
</svg>
