<svg width="1679" height="164" viewBox="0 0 1679 164" fill="none" xmlns="http://www.w3.org/2000/svg">
<mask id="mask0_1052_61" style="mask-type:alpha" maskUnits="userSpaceOnUse" x="1079" y="0" width="600" height="164">
<path d="M1428.13 155.123C1390.93 164.323 1329.3 158.957 1303.13 155.123C1291.96 155.123 1255.89 163.123 1199.13 163.123C1115.13 163.123 1069.6 150.738 1080.63 127.623C1091.13 105.623 1165.13 119.623 1209.63 113.123C1261.5 73.5 1300.96 87.2901 1334.63 81.6234C1334.63 81.6234 1303.13 33.1234 1397.63 5.62343C1473.23 -16.3766 1506.13 31.4567 1513.13 58.1234C1576.73 30.1234 1611.96 69.79 1621.63 93.1234C1660.46 94.1234 1695.13 128.261 1670.13 139.123C1597.63 170.623 1474.63 143.623 1428.13 155.123Z" fill="white"/>
</mask>
<g mask="url(#mask0_1052_61)">
<path d="M1428.13 155.123C1390.93 164.323 1329.3 158.957 1303.13 155.123C1291.96 155.123 1255.89 163.123 1199.13 163.123C1115.13 163.123 1069.6 150.738 1080.63 127.623C1091.13 105.623 1165.13 119.623 1209.63 113.123C1261.5 73.5 1300.96 87.2901 1334.63 81.6234C1334.63 81.6234 1303.13 33.1234 1397.63 5.62343C1473.23 -16.3766 1506.13 31.4567 1513.13 58.1234C1576.73 30.1234 1611.96 69.79 1621.63 93.1234C1660.46 94.1234 1695.13 128.261 1670.13 139.123C1597.63 170.623 1474.63 143.623 1428.13 155.123Z" fill="white"/>
<path d="M1094 133C1059.6 125.4 1079.67 151.5 1094 165.5C1105 170.167 1138.5 180.4 1184.5 184C1242 188.5 1312 165.5 1361 169.5C1410 173.5 1472.5 165.5 1508.5 169.5C1544.5 173.5 1639 160.5 1674.5 149.5C1702.9 140.7 1690.33 124.833 1680.5 118C1635.5 145.5 1573 133 1542 128.5C1511 124 1456 124 1421 133C1386 142 1337.5 137 1317.5 137C1297.5 137 1280 133 1243 137C1206 141 1176.5 144.5 1162.5 145C1148.5 145.5 1137 142.5 1094 133Z" fill="url(#paint0_linear_1052_61)"/>
<path d="M1509 63.5C1509.8 61.5 1513.5 57 1516.5 55.5C1516.5 54.5 1515.8 52.8 1513 54C1509.5 55.5 1508 66 1509 63.5Z" fill="url(#paint1_linear_1052_61)"/>
</g>
<mask id="mask1_1052_61" style="mask-type:alpha" maskUnits="userSpaceOnUse" x="0" y="54" width="394" height="85">
<path d="M280.418 54.6182C228.091 50.5061 216.05 67.7761 216.05 80.711C205.859 75.8939 158.611 75.5817 136.261 76.0277C125.31 76.0277 97.104 78.1686 71.8933 86.7324C40.3799 97.4371 -9.23718 86.7324 1.49094 106.804C7.17052 117.43 51.7783 110.818 71.8933 120.854C78.5983 124.199 100.725 128.882 136.261 128.882C171.798 128.882 199.958 128.213 253.598 130.22C307.238 132.227 259.633 140.256 352.832 137.58C427.391 135.439 383.898 102.789 352.832 86.7324C350.15 80.265 331.343 58.6202 280.418 54.6182Z" fill="white"/>
</mask>
<g mask="url(#mask1_1052_61)">
<path d="M280.418 54.6182C228.091 50.5061 216.05 67.7761 216.05 80.711C205.859 75.8939 158.611 75.5817 136.261 76.0277C125.31 76.0277 97.104 78.1686 71.8933 86.7324C40.3799 97.4371 -9.23718 86.7324 1.49094 106.804C7.17052 117.43 51.7783 110.818 71.8933 120.854C78.5983 124.199 100.725 128.882 136.261 128.882C171.798 128.882 199.958 128.213 253.598 130.22C307.238 132.227 259.633 140.256 352.832 137.58C427.391 135.439 383.898 102.789 352.832 86.7324C350.15 80.265 331.343 58.6202 280.418 54.6182Z" fill="white"/>
<path d="M8.34326 101.12C-10.8567 97.9202 0.343256 108.787 8.34326 114.62C35.8433 128.12 59.3433 126.12 72.8433 126.12C86.3433 126.12 115.843 130.12 138.343 134.12C160.843 138.12 242.843 133.62 262.343 134.12C281.843 134.62 291.843 140.62 342.843 140.12C393.843 139.62 387.843 132.12 394.843 130.12C401.843 128.12 401.343 118.62 391.843 122.62C382.343 126.62 318.843 125.62 312.343 126.12C305.843 126.62 289.843 118.12 274.843 118.62C259.843 119.12 237.843 114.62 227.343 111.62C216.843 108.62 177.343 109.62 146.843 114.62C116.343 119.62 101.343 114.62 91.8433 114.62C82.3433 114.62 73.8433 101.12 56.8433 103.62C39.8433 106.12 32.3433 105.12 8.34326 101.12Z" fill="url(#paint2_linear_1052_61)"/>
</g>
<defs>
<linearGradient id="paint0_linear_1052_61" x1="1383.47" y1="53.5873" x2="1383.47" y2="184.587" gradientUnits="userSpaceOnUse">
<stop stop-color="white" stop-opacity="0"/>
<stop offset="0.8" stop-color="#FBE2B7"/>
</linearGradient>
<linearGradient id="paint1_linear_1052_61" x1="1383.47" y1="53.5873" x2="1383.47" y2="184.587" gradientUnits="userSpaceOnUse">
<stop stop-color="white" stop-opacity="0"/>
<stop offset="0.8" stop-color="#FBE2B7"/>
</linearGradient>
<linearGradient id="paint2_linear_1052_61" x1="198.671" y1="100.542" x2="198.671" y2="140.15" gradientUnits="userSpaceOnUse">
<stop stop-color="white" stop-opacity="0"/>
<stop offset="0.8" stop-color="#FBE2B7"/>
</linearGradient>
</defs>
</svg>
