<svg width="1422" height="766" viewBox="0 0 1422 766" fill="none" xmlns="http://www.w3.org/2000/svg">
<mask id="mask0_1052_61" style="mask-type:alpha" maskUnits="userSpaceOnUse" x="156" y="48" width="1168" height="658">
<path d="M367.054 58.3705H158.867C158.315 58.3705 157.868 58.8169 157.867 59.3684L156.494 702.915C156.493 703.466 156.912 703.915 157.463 703.917C204.6 704.127 303.652 704.413 330.569 703.913C348.911 703.572 361.763 700.058 366.531 698.528C367.344 698.267 367.425 697.208 366.669 696.811C363.971 695.396 358.909 692.785 354.742 690.893C353.747 690.441 354.115 688.693 355.205 688.607C428.298 682.841 346.561 685.862 297.516 676.822C291.129 675.645 355.358 668.632 387.585 670.313C423.185 672.17 448.732 679.343 469.39 684.593C477.929 687.953 432.206 689.003 442.672 692.153C474.011 701.584 656.964 706.853 690.016 705.803C723.069 704.753 707.369 700.553 874.285 702.023C1041.2 703.493 1061.58 696.353 1030.18 693.203C1005.17 690.693 1080.79 688.114 1122.22 687.125C1122.55 687.117 1122.87 687.27 1122.99 687.572C1125.46 693.763 1086.98 700.722 1122.73 699.083C1168.44 696.987 1273.68 697.881 1322.58 696.382C1323.12 696.366 1323.53 695.924 1323.53 695.384V59.3705C1323.53 58.8182 1323.1 58.3707 1322.55 58.3687C1300.25 58.2897 1246.48 55.6207 1202.33 58.3705C1131.54 62.78 1172.31 58.3705 1180.3 67.8209C1188.28 77.2712 1126.31 73.4909 1109.51 70.7606C1092.71 68.0302 1105.93 62.1505 1116.95 58.3705C1141.18 50.0545 1171.48 48.08 1150.83 48.0808C1137.38 48.0813 1113.64 51.9446 1089.13 52.7008C1025.59 54.6608 918.135 58.3705 915.05 58.3705C912.202 58.3705 915.708 63.7406 918.286 67.044C918.625 67.478 918.562 68.1143 918.098 68.4095C911.468 72.6219 904.531 62.1505 889.709 62.1505C874.285 62.1505 876.488 56.0607 866.572 52.4907C856.897 49.0072 802.639 54.5212 804.109 58.1071C804.189 58.3009 804.433 58.3767 804.642 58.389C826.568 59.6715 857.463 63.9058 807.904 70.7606C745.655 79.3706 772.648 81.4706 762.457 88.4008C752.265 95.331 699.657 88.4008 692.771 84.6208C687.657 81.8139 732.854 79.5126 743.114 76.1737C743.883 75.9234 743.754 75.0653 742.984 74.819C730.087 70.6962 729.404 65.9268 728.975 62.933L728.974 62.9285C728.909 62.4705 728.527 62.133 728.065 62.1081L658.616 58.3705C598.02 57.2505 476.827 55.6825 476.827 58.3705C476.827 60.7512 480.716 66.2727 483.327 69.5953C483.768 70.1557 483.509 70.9917 482.838 71.2309C475.714 73.7674 473.397 77.5753 472.994 80.0679C472.884 80.7481 472.266 81.3425 471.589 81.215C459.726 78.9815 439.283 74.1527 442.672 70.7606C446.198 67.2326 441.203 63.5505 438.265 62.1505C419.075 55.0817 402.365 62.0479 395.978 66.6791C395.718 66.8677 395.39 66.9253 395.083 66.8319L367.344 58.4136C367.25 58.385 367.152 58.3705 367.054 58.3705Z" fill="url(#paint0_radial_1052_61)"/>
</mask>
<g mask="url(#mask0_1052_61)">
<path d="M367.054 58.3705H158.867C158.315 58.3705 157.868 58.8169 157.867 59.3684L156.494 702.915C156.493 703.466 156.912 703.915 157.463 703.917C204.6 704.127 303.652 704.413 330.569 703.913C348.911 703.572 361.763 700.058 366.531 698.528C367.344 698.267 367.425 697.208 366.669 696.811C363.971 695.396 358.909 692.785 354.742 690.893C353.747 690.441 354.115 688.693 355.205 688.607C428.298 682.841 346.561 685.862 297.516 676.822C291.129 675.645 355.358 668.632 387.585 670.313C423.185 672.17 448.732 679.343 469.39 684.593C477.929 687.953 432.206 689.003 442.672 692.153C474.011 701.584 656.964 706.853 690.016 705.803C723.069 704.753 707.369 700.553 874.285 702.023C1041.2 703.493 1061.58 696.353 1030.18 693.203C1005.17 690.693 1080.79 688.114 1122.22 687.125C1122.55 687.117 1122.87 687.27 1122.99 687.572C1125.46 693.763 1086.98 700.722 1122.73 699.083C1168.44 696.987 1273.68 697.881 1322.58 696.382C1323.12 696.366 1323.53 695.924 1323.53 695.384V59.3705C1323.53 58.8182 1323.1 58.3707 1322.55 58.3687C1300.25 58.2897 1246.48 55.6207 1202.33 58.3705C1131.54 62.78 1172.31 58.3705 1180.3 67.8209C1188.28 77.2712 1126.31 73.4909 1109.51 70.7606C1092.71 68.0302 1105.93 62.1505 1116.95 58.3705C1141.18 50.0545 1171.48 48.08 1150.83 48.0808C1137.38 48.0813 1113.64 51.9446 1089.13 52.7008C1025.59 54.6608 918.135 58.3705 915.05 58.3705C912.202 58.3705 915.708 63.7406 918.286 67.044C918.625 67.478 918.562 68.1143 918.098 68.4095C911.468 72.6219 904.531 62.1505 889.709 62.1505C874.285 62.1505 876.488 56.0607 866.572 52.4907C856.897 49.0072 802.639 54.5212 804.109 58.1071C804.189 58.3009 804.433 58.3767 804.642 58.389C826.568 59.6715 857.463 63.9058 807.904 70.7606C745.655 79.3706 772.648 81.4706 762.457 88.4008C752.265 95.331 699.657 88.4008 692.771 84.6208C687.657 81.8139 732.854 79.5126 743.114 76.1737C743.883 75.9234 743.754 75.0653 742.984 74.819C730.087 70.6962 729.404 65.9268 728.975 62.933L728.974 62.9285C728.909 62.4705 728.527 62.133 728.065 62.1081L658.616 58.3705C598.02 57.2505 476.827 55.6825 476.827 58.3705C476.827 60.7512 480.716 66.2727 483.327 69.5953C483.768 70.1557 483.509 70.9917 482.838 71.2309C475.714 73.7674 473.397 77.5753 472.994 80.0679C472.884 80.7481 472.266 81.3425 471.589 81.215C459.726 78.9815 439.283 74.1527 442.672 70.7606C446.198 67.2326 441.203 63.5505 438.265 62.1505C419.075 55.0817 402.365 62.0479 395.978 66.6791C395.718 66.8677 395.39 66.9253 395.083 66.8319L367.344 58.4136C367.25 58.385 367.152 58.3705 367.054 58.3705Z" fill="url(#paint1_radial_1052_61)"/>
<path d="M355.596 46.2121L171.77 82.1636C169.64 96.9613 168.557 127.886 181.266 133.206C193.975 138.525 262.999 125.965 295.923 119.02C301.803 116.497 316.934 109.968 330.407 104.037C343.881 98.107 386.491 97.1882 406.111 97.4701L427.887 66.5449L397.257 54.1073L355.596 46.2121Z" fill="url(#paint2_linear_1052_61)" style="mix-blend-mode:multiply"/>
<g opacity="0.2">
<path d="M1008.18 164.742L925.082 160.478L1014.22 152.961C1030.93 166.866 1075.07 185.305 1091.79 180.663C1108.5 176.02 1077.94 141.986 1068.2 124.799C1071.17 127.526 1092.41 144.282 1118.66 162.657C1144.91 181.032 1173.41 182.216 1184.37 180.511L1213.18 167.66L1185.87 190.807C1176.26 191.618 1158.64 196.506 1165.07 209.577C1171.49 222.648 1204.82 221.539 1220.68 219.35C1236.37 213.206 1269.27 200.79 1275.38 200.274C1281.5 199.758 1331.13 212.305 1355.17 218.643L1396.36 215.169C1391.79 217.185 1377.36 222.132 1356.21 225.787C1329.78 230.356 1307.76 212.007 1284.22 213.991C1260.69 215.976 1247.22 223.706 1227.79 229.385C1212.25 233.929 1191.28 226.722 1182.73 222.551C1159.74 235.833 1118.98 260.98 1139.84 255.307C1157.78 250.427 1190.22 259.3 1210.15 266.435C1214.9 267.422 1217.65 268.733 1218.76 269.709C1216.29 268.708 1213.39 267.594 1210.15 266.435C1204.19 265.198 1195.09 264.473 1182.12 265.566C1153 268.022 1120.13 275.473 1107.7 290.347C1097.75 302.246 1080.65 328.999 1073.34 340.888L1088.61 298.338C1110.18 271.336 1089.14 271.21 1075.93 274.523C1067.05 277.681 1042.78 289.059 1016.65 309.299C983.992 334.599 973.51 362.92 972.931 358.928L970.157 339.807C983.727 326.61 1015.17 295.811 1032.39 278.194C1053.91 256.173 1079.11 263.619 1103.07 258.408C1127.03 253.197 1100.99 244.12 1091.24 230.266C1083.44 219.184 1032.62 181.966 1008.18 164.742Z" fill="url(#paint3_linear_1052_61)" style="mix-blend-mode:multiply"/>
</g>
<path d="M1168.18 154.55C1168.18 154.55 1104.28 126.83 1094.91 85.2499C1112.81 87.2099 1157.38 89.9539 1192.42 85.2499C1227.45 80.5459 1233.27 68.7298 1231.8 63.4098L1308.1 91.1299C1291.39 98.1999 1272.29 112.13 1235.94 134.81C1199.58 157.49 1168.18 154.55 1168.18 154.55Z" fill="url(#paint4_linear_1052_61)" style="mix-blend-mode:multiply"/>
<path d="M1166.12 655.7L1280.02 582.952L1313.33 701.072L1166.12 712.732C1236.8 701.072 1244.01 693.975 1182.78 684.596C1133.8 677.093 1113.45 694.736 1120.21 701.072L1063.48 712.732L1020.27 691.694L1166.12 655.7Z" fill="url(#paint5_linear_1052_61)" style="mix-blend-mode:multiply"/>
<path d="M296.965 575.602L166.407 484.671L107.463 611.722L234.991 618.022L284.57 663.802C298.232 629.698 328.273 624.112 375.19 623.062L558.356 635.662L505.748 604.372L296.965 575.602Z" fill="url(#paint6_linear_1052_61)" style="mix-blend-mode:multiply"/>
<path d="M111.043 326.121L291.183 379.881L310.463 422.091C320.471 436.861 345.719 471.147 366.653 490.131C386.845 508.443 493.573 530.051 549.888 539.537C551.907 539.677 553.904 539.999 555.879 540.532C553.954 540.217 551.955 539.885 549.888 539.537C526.453 537.914 500.103 560.844 471.87 563.422C370.95 546.286 389.514 574.552 301.374 554.182C277.135 548.58 259.562 533.224 241.053 516.592C222.543 499.96 190.92 467.871 179.079 451.911C136.109 422.091 96.7206 336.831 111.043 326.121Z" fill="url(#paint7_linear_1052_61)" style="mix-blend-mode:multiply"/>
<path d="M278.511 626.632L384.279 666.112C426.972 703.282 399.612 727.922 384.279 729.952L177.7 703.282L160.347 681.232L155.94 550.612C171.273 552.502 204.748 559.726 215.986 573.502C227.224 587.278 262.352 614.662 278.511 626.632Z" fill="url(#paint8_linear_1052_61)" style="mix-blend-mode:multiply"/>
<path d="M1115.99 651.314C1149.11 635.704 1235.52 539.29 1228.67 524.151C1217.78 527.403 1096.56 597.892 1066.18 604.889C1028.21 613.636 1024.78 586.387 970.307 596.143C926.727 603.947 920.812 615.767 923.302 620.701C934.612 627.877 944.382 640.549 914.498 651.314C877.144 664.77 758.05 655.687 891.551 681.927C912.503 686.045 960.864 687.87 983.38 686.3C1013.78 681.142 1082.87 666.923 1115.99 651.314Z" fill="url(#paint9_linear_1052_61)" style="mix-blend-mode:multiply"/>
</g>
<g filter="url(#filter0_d_1052_61)">
<ellipse cx="78.4714" cy="23.7746" rx="78.4714" ry="23.7746" transform="matrix(-1 0 0 1 180.053 677.703)" fill="#6E4B10"/>
<ellipse cx="75.3873" cy="24.8196" rx="75.3873" ry="24.8196" transform="matrix(-1 0 0 1 156.066 681.361)" fill="url(#paint10_linear_1052_61)"/>
<path d="M79.6504 708.532L95.6345 665.506L148.569 675.988C150.329 677.566 154.695 688.153 158.225 702.144C160.796 712.336 146.705 720.363 137.105 722.117C158.225 715.324 179.025 691.55 79.6504 708.532Z" fill="#D0AC5B"/>
<path fill-rule="evenodd" clip-rule="evenodd" d="M4.99985 706.177C8.95229 493.522 52.8776 56.382 59.7669 37.8771C62.3308 30.9901 79.3603 26.8919 99.7507 25.5194C100.177 25.4907 100.848 26.2521 101.498 26.9909C102.107 27.6827 102.698 28.3548 103.056 28.3395C103.424 28.3238 104.333 27.5361 105.245 26.7457C106.165 25.9478 107.089 25.1471 107.463 25.1346C111.908 24.9872 116.442 24.961 120.959 25.0553C121.373 25.0639 121.787 27.0727 122.201 29.0805C122.614 31.084 123.026 33.0866 123.438 33.0993C123.898 33.1134 124.633 31.1337 125.368 29.1552C126.102 27.1769 126.837 25.1999 127.295 25.219C151.773 26.2417 173.47 30.8416 177.648 38.9221C196.959 76.2619 200.983 647.194 179.5 705.055C178.804 698.891 164.323 695.787 157.398 694.303C155.731 693.946 154.501 693.682 154.008 693.493C152.301 692.836 146.326 690.746 142.358 689.818C141.835 689.696 141.766 686.933 141.698 684.193C141.632 681.495 141.565 678.82 141.066 678.712L135.161 688.414C129.425 687.873 125.52 687.406 122.314 687.022C119.2 686.649 116.747 686.356 113.916 686.151C108.735 685.776 103.675 685.869 98.3527 685.968C95.8443 686.014 93.2778 686.062 90.613 686.062C89.8658 686.062 89.4639 685.541 89.064 685.023C88.6647 684.505 88.2674 683.99 87.5304 684C86.9541 684.007 86.7246 684.542 86.4953 685.077C86.2677 685.608 86.0403 686.138 85.4743 686.151C43.6193 687.101 9.05157 695.552 4.99985 706.177Z" fill="url(#paint11_linear_1052_61)"/>
</g>
<g filter="url(#filter1_d_1052_61)">
<ellipse cx="1321.42" cy="701.478" rx="78.4713" ry="23.7746" fill="#6E4B10"/>
<ellipse cx="1342.32" cy="706.18" rx="75.3873" ry="24.8196" fill="url(#paint12_linear_1052_61)"/>
<path d="M1343.35 708.532L1330.67 670.126L1277.74 680.608C1275.98 682.186 1268.31 688.153 1264.78 702.144C1262.2 712.336 1276.3 720.363 1285.9 722.117C1264.78 715.324 1243.98 691.55 1343.35 708.532Z" fill="#D0AC5B"/>
<path fill-rule="evenodd" clip-rule="evenodd" d="M1418 706.177C1414.05 493.521 1370.12 56.382 1363.23 37.8771C1358.71 25.7305 1309.19 22.259 1275.6 27.1156C1271.19 27.7527 1267.61 29.5995 1267.61 29.5995C1267.38 29.6416 1267.81 29.8026 1268.45 30.0485C1271 31.025 1277.06 33.3396 1259.9 34.8495C1251.91 34.8495 1262.93 29.5995 1262.93 29.5995C1262.93 29.5995 1247.23 35.2914 1245.35 38.9221C1226.04 76.262 1222.02 647.197 1243.5 705.056C1244.2 698.891 1258.68 695.787 1265.6 694.303C1267.27 693.946 1268.5 693.682 1268.99 693.493C1270.7 692.836 1276.67 690.746 1280.64 689.818C1281.16 689.696 1281.51 688.651 1281.86 687.614C1282.2 686.59 1282.54 685.574 1283.04 685.466L1287.84 688.414C1293.58 687.873 1297.48 687.406 1300.69 687.022C1303.8 686.649 1306.25 686.356 1309.08 686.151C1314.26 685.776 1319.33 685.869 1324.65 685.968C1327.16 686.014 1329.72 686.062 1332.39 686.062C1333.14 686.062 1333.65 684.951 1334.16 683.844C1334.67 682.741 1335.18 681.642 1335.92 681.652C1335.92 681.652 1340.03 686.198 1337.54 686.151C1379.39 687.103 1413.95 695.554 1418 706.177Z" fill="url(#paint13_linear_1052_61)"/>
</g>
<mask id="mask1_1052_61" style="mask-type:alpha" maskUnits="userSpaceOnUse" x="344" y="82" width="503" height="109">
<path d="M344.878 164.25C340.075 152.613 388.258 138.789 413.154 136.898C428.711 95.3216 473.918 103.839 494.577 113.295C490.172 103.276 539.385 82.6678 575.291 82.3164C650.433 81.5811 695.392 113.595 708.479 129.694C728.882 131.328 775.54 135.403 798.946 138.638C828.205 142.681 846.534 151.601 846.954 158.951C847.638 170.927 829.36 167.92 815.532 172.376C801.704 176.833 723.402 179.601 706.775 180.352C675.242 181.776 684.164 171.922 639.804 175.202C595.444 178.482 672.696 187.511 621.384 189.828C570.071 192.145 461.427 181.979 427.314 183.519C393.202 185.06 350.883 178.796 344.878 164.25Z" fill="white"/>
</mask>
<g mask="url(#mask1_1052_61)">
<path d="M344.878 164.25C340.075 152.613 388.258 138.789 413.154 136.898C428.711 95.3216 473.918 103.839 494.577 113.295C490.172 103.276 539.385 82.6678 575.291 82.3164C650.433 81.5811 695.392 113.595 708.479 129.694C728.882 131.328 775.54 135.403 798.946 138.638C828.205 142.681 846.534 151.601 846.954 158.951C847.638 170.927 829.36 167.92 815.532 172.376C801.704 176.833 723.402 179.601 706.775 180.352C675.242 181.776 684.164 171.922 639.804 175.202C595.444 178.482 672.696 187.511 621.384 189.828C570.071 192.145 461.427 181.979 427.314 183.519C393.202 185.06 350.883 178.796 344.878 164.25Z" fill="white"/>
<path d="M409.062 151.859C391.151 150.226 379.211 156.281 375.479 159.513C334.606 152.369 337.208 171.674 343.619 182.22L383.516 194.977H661.937C714.846 187.748 822.961 173.29 832.146 173.29C841.331 173.29 850.708 165.381 851.378 162.32C849.751 159.513 843.915 154.41 827.841 151.349C811.767 148.287 750.342 160.534 705.853 162.32C686.621 160.534 660.1 151.043 647.011 147.777C630.65 143.695 599.077 144.46 578.985 147.777C558.892 151.094 600.225 151.859 599.077 159.513C597.929 167.167 503.782 161.809 533.634 154.155C556.162 148.379 568.939 147.777 556.309 144.46C540.809 143.355 507.055 142.47 496.033 147.777C482.255 154.41 465.033 156.962 442.358 159.513C419.682 162.064 431.45 153.9 409.062 151.859Z" fill="url(#paint14_linear_1052_61)"/>
</g>
<mask id="mask2_1052_61" style="mask-type:alpha" maskUnits="userSpaceOnUse" x="91" y="571" width="227" height="44">
<path d="M252.29 572.231C222.251 570.133 215.339 578.946 215.339 585.546C209.488 583.088 182.365 582.928 169.535 583.156C163.248 583.156 147.056 584.248 132.584 588.618C114.493 594.081 86.0098 588.618 92.1684 598.86C95.4288 604.282 121.037 600.908 132.584 606.029C136.433 607.736 149.135 610.126 169.535 610.126C189.935 610.126 206.101 609.785 236.894 610.809C267.687 611.833 240.358 615.93 293.86 614.564C336.662 613.472 311.694 596.812 293.86 588.618C292.321 585.318 281.524 574.274 252.29 572.231Z" fill="white"/>
</mask>
<g mask="url(#mask2_1052_61)">
<path d="M252.29 572.231C222.251 570.133 215.339 578.946 215.339 585.546C209.488 583.088 182.365 582.928 169.535 583.156C163.248 583.156 147.056 584.248 132.584 588.618C114.493 594.081 86.0098 588.618 92.1684 598.86C95.4288 604.282 121.037 600.908 132.584 606.029C136.433 607.736 149.135 610.126 169.535 610.126C189.935 610.126 206.101 609.785 236.894 610.809C267.687 611.833 240.358 615.93 293.86 614.564C336.662 613.472 311.694 596.812 293.86 588.618C292.321 585.318 281.524 574.274 252.29 572.231Z" fill="white"/>
<path d="M96.1019 595.96C85.0799 594.327 91.5094 599.872 96.1019 602.849C111.889 609.737 125.379 608.717 133.129 608.717C140.879 608.717 157.814 610.758 170.73 612.799C183.647 614.84 230.72 612.544 241.914 612.799C253.108 613.054 258.849 616.116 288.126 615.86C317.403 615.605 313.959 611.778 317.977 610.758C321.996 609.737 321.709 604.89 316.255 606.931C310.802 608.972 274.349 608.462 270.617 608.717C266.886 608.972 257.701 604.635 249.09 604.89C240.479 605.145 227.849 602.849 221.822 601.318C215.794 599.787 193.119 600.297 175.61 602.849C158.101 605.4 149.49 602.849 144.036 602.849C138.583 602.849 133.703 595.96 123.944 597.236C114.185 598.511 109.879 598.001 96.1019 595.96Z" fill="url(#paint15_linear_1052_61)"/>
</g>
<mask id="mask3_1052_61" style="mask-type:alpha" maskUnits="userSpaceOnUse" x="953" y="103" width="171" height="46">
<path d="M1024.45 103.882C992.764 103.065 984.268 113.237 983.981 118.424C971.351 120.465 947.815 126.64 954.703 135.008C963.314 145.468 983.981 146.999 1006.66 148.275C1029.33 149.551 1064.06 144.448 1082.43 140.111C1100.8 135.773 1127.37 140.111 1122.9 127.864C1117.78 113.832 1073.06 108.644 1057.46 110.26C1059.66 108.474 1056.14 104.698 1024.45 103.882Z" fill="white"/>
</mask>
<g mask="url(#mask3_1052_61)">
<path d="M1024.45 103.882C992.764 103.065 984.268 113.237 983.981 118.424C971.351 120.465 947.815 126.64 954.703 135.008C963.314 145.468 983.981 146.999 1006.66 148.275C1029.33 149.551 1064.06 144.448 1082.43 140.111C1100.8 135.773 1127.37 140.111 1122.9 127.864C1117.78 113.832 1073.06 108.644 1057.46 110.26C1059.66 108.474 1056.14 104.698 1024.45 103.882Z" fill="white"/>
<path d="M969.539 131.9C946.577 126.593 950.404 134.111 955.188 138.534C957.771 140.149 965.521 144.248 975.854 147.718C988.77 152.056 1058.23 152.311 1077.46 147.718C1096.69 143.126 1136.3 140.319 1129.7 136.237C1123.1 132.155 1119.08 127.308 1109.32 126.287C1099.56 125.267 1090.09 129.859 1068.56 136.237C1047.04 142.616 1039.86 138.534 1045.03 138.534C1050.19 138.534 1047.32 131.9 1034.12 133.941C1020.92 135.982 1031.82 138.534 1012.02 140.319C992.215 142.105 998.242 138.534 969.539 131.9Z" fill="url(#paint16_linear_1052_61)"/>
</g>
<mask id="mask4_1052_61" style="mask-type:alpha" maskUnits="userSpaceOnUse" x="138" y="630" width="114" height="24">
<path d="M138.316 641.412C137.83 627.315 173.178 630.23 190.912 633.45C266.071 630.269 250.897 646.049 248.211 646.456L214.415 651.572C189.251 654.059 138.802 655.509 138.316 641.412Z" fill="white"/>
</mask>
<g mask="url(#mask4_1052_61)">
<path d="M138.316 641.412C137.83 627.315 173.178 630.23 190.912 633.45C266.071 630.269 250.897 646.049 248.211 646.456L214.415 651.572C189.251 654.059 138.802 655.509 138.316 641.412Z" fill="white"/>
<path d="M145.989 641.365C132.222 640.752 134.134 646.382 136.811 649.274C145.071 659.275 184.04 657.693 202.491 655.652C220.943 653.016 257.1 647.386 254.118 645.957C250.389 644.171 240.064 643.406 229.165 644.171C218.266 644.937 199.91 648.253 186.143 649.274C172.376 650.294 163.198 642.13 145.989 641.365Z" fill="url(#paint17_linear_1052_61)"/>
</g>
<mask id="mask5_1052_61" style="mask-type:alpha" maskUnits="userSpaceOnUse" x="892" y="507" width="531" height="168">
<path d="M1206.6 507.714C1123.77 501.386 1096.18 542.497 1092.74 563.843C1023.45 549.556 991.304 582.553 981.744 597.52C979.736 596.585 957.974 591.142 936.714 591.142C922.66 591.142 892.831 607.285 892.832 628.647C892.832 648.802 941.737 647.527 977.441 647.527C1011.29 647.527 1100.2 646.506 1100.2 654.67C1077.25 654.67 1060.5 662.835 1063.2 665.641C1078.4 681.459 1162.15 669.978 1179.36 669.978C1246.95 669.978 1310.43 670.234 1371.52 665.641C1418.56 662.105 1411.68 637.576 1379.84 632.219C1348 626.861 1296.38 617.421 1346.28 617.421C1371.82 617.421 1422 625.33 1422 605.174C1422 594.128 1386.91 591.142 1379.84 581.702C1368.37 566.394 1331.66 558.995 1304.41 566.394C1306.32 550.321 1289.44 514.041 1206.6 507.714Z" fill="white"/>
</mask>
<g mask="url(#mask5_1052_61)">
<path d="M1206.6 507.714C1123.77 501.386 1096.18 542.497 1092.74 563.843C1023.45 549.556 991.304 582.553 981.744 597.52C979.736 596.585 957.974 591.142 936.714 591.142C922.66 591.142 892.831 607.285 892.832 628.647C892.832 648.802 941.737 647.527 977.441 647.527C1011.29 647.527 1100.2 646.506 1100.2 654.67C1077.25 654.67 1060.5 662.835 1063.2 665.641C1078.4 681.459 1162.15 669.978 1179.36 669.978C1246.95 669.978 1310.43 670.234 1371.52 665.641C1418.56 662.105 1411.68 637.576 1379.84 632.219C1348 626.861 1296.38 617.421 1346.28 617.421C1371.82 617.421 1422 625.33 1422 605.174C1422 594.128 1386.91 591.142 1379.84 581.702C1368.37 566.394 1331.66 558.995 1304.41 566.394C1306.32 550.321 1289.44 514.041 1206.6 507.714Z" fill="white"/>
<path d="M890.824 629.523C888.53 636.054 898.281 642.619 903.444 645.086C913.54 651.821 936.905 655.376 947.326 656.312C984.421 656.312 1060.9 655.597 1070.08 652.74C1081.55 649.168 1109.57 654.272 1106.22 659.629C1104.79 661.925 1087.86 657.843 1055.74 666.262C1054.36 666.626 1080.12 681.57 1092.17 684.631C1142.07 682.25 1246.64 677.794 1265.69 679.019C1289.49 680.549 1394.75 667.027 1413.11 662.18C1431.47 657.332 1413.68 636.666 1402.78 632.329C1391.89 627.992 1384.43 632.329 1388.44 636.666L1388.55 636.777C1392.49 641.03 1393.92 642.574 1363.49 647.127C1332.8 651.719 1289.78 640.238 1310.43 636.666C1331.08 633.094 1249.63 626.716 1232.99 629.523C1216.36 632.329 1264.54 636.666 1261.67 642.534C1258.8 648.402 1228.98 647.382 1229.26 642.534C1229.55 637.687 1219.51 635.136 1207.18 636.666C1188.25 639.016 1159.73 640.393 1188.25 629.523C1200.3 624.93 1221 628.306 1193.7 620.338C1175.34 614.98 1149.24 614.98 1131.46 620.338C1122.99 622.889 1099.34 612.939 1080.69 612.939C1053.21 612.939 1055.74 620.338 1020.46 614.98C974.293 607.968 1012.15 623.91 1002.11 629.523C990.677 635.914 947.613 618.552 931.838 618.552C916.064 618.552 893.692 621.358 890.824 629.523Z" fill="url(#paint18_linear_1052_61)"/>
<path d="M1428.02 605.796C1432.38 611.307 1419.71 619.488 1412.82 622.89H1346.57C1324.49 622.89 1314.73 615.491 1311.58 612.94C1308.42 610.388 1308.42 605.796 1325.92 605.796C1343.42 605.796 1369.52 610.133 1389.31 610.388C1409.1 610.643 1422.58 598.907 1428.02 605.796Z" fill="url(#paint19_linear_1052_61)"/>
<path d="M1099.62 568.291C1096.18 564.617 1091.12 562.678 1089.01 562.168C1088.34 559.701 1088.27 555.279 1093.31 557.32C1099.62 559.872 1103.93 572.883 1099.62 568.291Z" fill="#FBE2B7"/>
<path d="M1298.1 572.628C1300.62 568.75 1305.65 566.25 1307.85 565.484C1308.9 562.593 1309.86 557.116 1305.27 558.341C1299.53 559.872 1294.94 577.476 1298.1 572.628Z" fill="#FBE2B7"/>
</g>
<mask id="mask6_1052_61" style="mask-type:alpha" maskUnits="userSpaceOnUse" x="452" y="617" width="421" height="57">
<path d="M575.177 621.886C552.69 623.315 549.555 632.857 550.797 637.449C542.308 636.02 531.199 639.065 527.566 640.256C524.984 639.66 516.093 637.041 501.179 635.408C482.536 633.367 452.708 637.449 452.708 646.124C452.708 654.798 497.164 665.769 514.372 664.493C531.581 663.218 576.037 665.769 583.781 669.086C589.976 671.739 619.441 671.892 633.4 671.637C644.585 672.488 672.291 674.035 693.63 673.423C720.304 672.658 743.822 666.279 779.1 669.086C807.323 671.331 841.53 671.722 855.106 671.637C891.818 664.902 860.268 651.822 839.905 646.124C823.652 643.487 786.271 638.674 766.768 640.511C747.264 642.348 699.558 637.874 678.142 635.408C665.236 625.968 661.794 631.581 633.4 621.886C610.684 614.13 585.693 618.654 575.177 621.886Z" fill="white"/>
</mask>
<g mask="url(#mask6_1052_61)">
<path d="M575.177 621.886C552.69 623.315 549.555 632.857 550.797 637.449C542.308 636.02 531.199 639.065 527.566 640.256C524.984 639.66 516.093 637.041 501.179 635.408C482.536 633.367 452.708 637.449 452.708 646.124C452.708 654.798 497.164 665.769 514.372 664.493C531.581 663.218 576.037 665.769 583.781 669.086C589.976 671.739 619.441 671.892 633.4 671.637C644.585 672.488 672.291 674.035 693.63 673.423C720.304 672.658 743.822 666.279 779.1 669.086C807.323 671.331 841.53 671.722 855.106 671.637C891.818 664.902 860.268 651.822 839.905 646.124C823.652 643.487 786.271 638.674 766.768 640.511C747.264 642.348 699.558 637.874 678.142 635.408C665.236 625.968 661.794 631.581 633.4 621.886C610.684 614.13 585.693 618.654 575.177 621.886Z" fill="white"/>
<path d="M464.754 640.055C437.764 640.055 455.003 653.577 465.901 663.783C482.537 673.223 506.342 669.14 541.333 668.12C576.324 667.099 600.704 673.733 623.935 677.05C647.167 680.366 717.723 684.959 756.443 677.05C787.419 670.722 844.877 672.202 869.734 673.733C881.015 670.416 899.218 662.813 881.78 658.935C859.982 654.087 864.571 654.343 835.316 658.935C806.061 663.527 728.335 654.343 717.723 654.343C707.111 654.343 657.206 657.915 633.974 658.935C610.742 659.956 571.735 654.343 562.844 651.026C553.953 647.709 529 654.343 517.241 654.343C485.405 654.343 483.11 640.055 464.754 640.055Z" fill="url(#paint20_linear_1052_61)"/>
</g>
<mask id="mask7_1052_61" style="mask-type:alpha" maskUnits="userSpaceOnUse" x="1146" y="197" width="132" height="47">
<path d="M1210.94 197.405C1246.29 197.405 1246.03 209.226 1242.78 215.265C1262.57 209.907 1291.54 215.265 1270.31 231.848C1249.09 248.432 1195.74 243.584 1178.82 239.757C1167.63 242.054 1152.26 239.502 1148.42 233.889C1139.47 220.826 1164.96 212.458 1178.82 209.907C1175.38 204.294 1204.63 197.405 1210.94 197.405Z" fill="white"/>
</mask>
<g mask="url(#mask7_1052_61)">
<path d="M1210.94 197.405C1246.29 197.405 1246.03 209.226 1242.78 215.265C1262.57 209.907 1291.54 215.265 1270.31 231.848C1249.09 248.432 1195.74 243.584 1178.82 239.757C1167.63 242.054 1152.26 239.502 1148.42 233.889C1139.47 220.826 1164.96 212.458 1178.82 209.907C1175.38 204.294 1204.63 197.405 1210.94 197.405Z" fill="white"/>
<path d="M1144.02 230.828C1142.88 234.298 1151.77 239.928 1156.36 242.309C1165.25 246.923 1175.19 240.842 1185.9 244.095C1197.66 247.667 1232.94 244.605 1250.72 244.095C1268.5 243.585 1291.16 225.215 1282.55 221.388C1273.95 217.561 1263.62 228.022 1252.15 230.828C1240.68 233.635 1227.2 230.828 1217.45 230.828C1207.7 230.828 1204.83 233.38 1195.65 234.4C1186.47 235.421 1166.97 229.042 1160.95 228.022C1154.92 227.001 1145.46 226.491 1144.02 230.828Z" fill="url(#paint21_linear_1052_61)"/>
</g>
<mask id="mask8_1052_61" style="mask-type:alpha" maskUnits="userSpaceOnUse" x="85" y="209" width="171" height="46">
<path d="M156.678 209.52C124.875 208.7 116.348 218.916 116.06 224.127C103.384 226.177 79.7623 232.378 86.6761 240.784C95.3183 251.29 116.06 252.828 138.818 254.109C161.576 255.39 196.433 250.265 214.87 245.909C233.307 241.552 259.973 245.909 255.488 233.608C250.35 219.514 205.459 214.304 189.807 215.927C192.016 214.133 188.482 210.34 156.678 209.52Z" fill="white"/>
</mask>
<g mask="url(#mask8_1052_61)">
<path d="M156.678 209.52C124.875 208.7 116.348 218.916 116.06 224.127C103.384 226.177 79.7623 232.378 86.6761 240.784C95.3183 251.29 116.06 252.828 138.818 254.109C161.576 255.39 196.433 250.265 214.87 245.909C233.307 241.552 259.973 245.909 255.488 233.608C250.35 219.514 205.459 214.304 189.807 215.927C192.016 214.133 188.482 210.34 156.678 209.52Z" fill="white"/>
<path d="M101.565 237.662C78.5194 232.332 82.3604 239.883 87.1617 244.325C89.7544 245.948 97.5324 250.065 107.903 253.55C120.867 257.906 190.581 258.163 209.882 253.55C229.183 248.937 268.937 246.119 262.312 242.018C255.686 237.918 251.653 233.049 241.858 232.024C232.064 230.999 222.557 235.612 200.952 242.018C179.346 248.425 172.144 244.325 177.329 244.325C182.515 244.325 179.634 237.662 166.382 239.712C153.131 241.762 164.078 244.325 144.201 246.119C124.323 247.912 130.373 244.325 101.565 237.662Z" fill="url(#paint22_linear_1052_61)"/>
</g>
<defs>
<filter id="filter0_d_1052_61" x="0" y="0" width="248.951" height="766" filterUnits="userSpaceOnUse" color-interpolation-filters="sRGB">
<feFlood flood-opacity="0" result="BackgroundImageFix"/>
<feColorMatrix in="SourceAlpha" type="matrix" values="0 0 0 0 0 0 0 0 0 0 0 0 0 0 0 0 0 0 127 0" result="hardAlpha"/>
<feOffset dx="25" dy="5"/>
<feGaussianBlur stdDeviation="15"/>
<feComposite in2="hardAlpha" operator="out"/>
<feColorMatrix type="matrix" values="0 0 0 0 0.431373 0 0 0 0 0.294118 0 0 0 0 0.0627451 0 0 0 0.25 0"/>
<feBlend mode="normal" in2="BackgroundImageFix" result="effect1_dropShadow_1052_61"/>
<feBlend mode="normal" in="SourceGraphic" in2="effect1_dropShadow_1052_61" result="shape"/>
</filter>
<filter id="filter1_d_1052_61" x="1199.05" y="15" width="218.951" height="736" filterUnits="userSpaceOnUse" color-interpolation-filters="sRGB">
<feFlood flood-opacity="0" result="BackgroundImageFix"/>
<feColorMatrix in="SourceAlpha" type="matrix" values="0 0 0 0 0 0 0 0 0 0 0 0 0 0 0 0 0 0 127 0" result="hardAlpha"/>
<feOffset dx="-15" dy="5"/>
<feGaussianBlur stdDeviation="7.5"/>
<feComposite in2="hardAlpha" operator="out"/>
<feColorMatrix type="matrix" values="0 0 0 0 0.431373 0 0 0 0 0.294118 0 0 0 0 0.0627451 0 0 0 0.25 0"/>
<feBlend mode="normal" in2="BackgroundImageFix" result="effect1_dropShadow_1052_61"/>
<feBlend mode="normal" in="SourceGraphic" in2="effect1_dropShadow_1052_61" result="shape"/>
</filter>
<radialGradient id="paint0_radial_1052_61" cx="0" cy="0" r="1" gradientUnits="userSpaceOnUse" gradientTransform="translate(740.008 377.008) rotate(90.0182) scale(434.005 769.924)">
<stop offset="0.50022" stop-color="#F8D689"/>
<stop offset="1" stop-color="#B8954F"/>
</radialGradient>
<radialGradient id="paint1_radial_1052_61" cx="0" cy="0" r="1" gradientUnits="userSpaceOnUse" gradientTransform="translate(740.008 377.008) rotate(90.0182) scale(434.005 769.924)">
<stop offset="0.50022" stop-color="#F8D689"/>
<stop offset="1" stop-color="#B8954F"/>
</radialGradient>
<linearGradient id="paint2_linear_1052_61" x1="244.569" y1="57.5197" x2="259.935" y2="175.437" gradientUnits="userSpaceOnUse">
<stop offset="0.321809" stop-color="#E1A331" stop-opacity="0"/>
<stop offset="1" stop-color="#7B591B" stop-opacity="0.5"/>
</linearGradient>
<linearGradient id="paint3_linear_1052_61" x1="1243.69" y1="24.9209" x2="1073.61" y2="428.373" gradientUnits="userSpaceOnUse">
<stop offset="0.0425108" stop-color="#7B591B" stop-opacity="0.5"/>
<stop offset="0.874452" stop-color="#E1A331" stop-opacity="0"/>
</linearGradient>
<linearGradient id="paint4_linear_1052_61" x1="1164.32" y1="37.1597" x2="1170.57" y2="216.447" gradientUnits="userSpaceOnUse">
<stop offset="0.459954" stop-color="#E1A331" stop-opacity="0"/>
<stop offset="1" stop-color="#7B591B" stop-opacity="0.5"/>
</linearGradient>
<linearGradient id="paint5_linear_1052_61" x1="1002.71" y1="595.879" x2="1117.23" y2="873.502" gradientUnits="userSpaceOnUse">
<stop stop-color="#7B591B" stop-opacity="0.5"/>
<stop offset="0.540046" stop-color="#E1A331" stop-opacity="0"/>
</linearGradient>
<linearGradient id="paint6_linear_1052_61" x1="348.748" y1="491.601" x2="296.007" y2="673.63" gradientUnits="userSpaceOnUse">
<stop stop-color="#7B591B" stop-opacity="0.5"/>
<stop offset="0.540046" stop-color="#E1A331" stop-opacity="0"/>
</linearGradient>
<linearGradient id="paint7_linear_1052_61" x1="146.3" y1="656.662" x2="363.416" y2="213.712" gradientUnits="userSpaceOnUse">
<stop stop-color="#7B591B" stop-opacity="0.5"/>
<stop offset="0.519485" stop-color="#E1A331" stop-opacity="0"/>
</linearGradient>
<linearGradient id="paint8_linear_1052_61" x1="445.426" y1="503.361" x2="326.12" y2="788.659" gradientUnits="userSpaceOnUse">
<stop offset="0.51233" stop-color="#E1A331" stop-opacity="0"/>
<stop offset="1" stop-color="#7B591B" stop-opacity="0.5"/>
</linearGradient>
<linearGradient id="paint9_linear_1052_61" x1="952.553" y1="535.589" x2="994.384" y2="736.558" gradientUnits="userSpaceOnUse">
<stop offset="0.459954" stop-color="#E1A331" stop-opacity="0"/>
<stop offset="1" stop-color="#7B591B" stop-opacity="0.5"/>
</linearGradient>
<linearGradient id="paint10_linear_1052_61" x1="150.775" y1="24.8196" x2="0" y2="24.8196" gradientUnits="userSpaceOnUse">
<stop stop-color="#E9C97A"/>
<stop offset="0.88522" stop-color="#6E4B10"/>
</linearGradient>
<linearGradient id="paint11_linear_1052_61" x1="-13.1791" y1="352.581" x2="212.895" y2="374.532" gradientUnits="userSpaceOnUse">
<stop stop-color="#886323"/>
<stop offset="0.300046" stop-color="#E6C479"/>
<stop offset="0.5" stop-color="#FFE19C"/>
<stop offset="0.7" stop-color="#E6C479"/>
<stop offset="1" stop-color="#886323"/>
</linearGradient>
<linearGradient id="paint12_linear_1052_61" x1="1417.71" y1="706.18" x2="1266.93" y2="706.18" gradientUnits="userSpaceOnUse">
<stop stop-color="#E9C97A"/>
<stop offset="0.88522" stop-color="#6E4B10"/>
</linearGradient>
<linearGradient id="paint13_linear_1052_61" x1="1418" y1="352.581" x2="1210.62" y2="356.193" gradientUnits="userSpaceOnUse">
<stop stop-color="#886323"/>
<stop offset="0.300046" stop-color="#E6C479"/>
<stop offset="0.5" stop-color="#FFE19C"/>
<stop offset="0.7" stop-color="#E6C479"/>
<stop offset="1" stop-color="#886323"/>
</linearGradient>
<linearGradient id="paint14_linear_1052_61" x1="595.656" y1="143.622" x2="595.656" y2="194.977" gradientUnits="userSpaceOnUse">
<stop stop-color="white" stop-opacity="0"/>
<stop offset="0.8" stop-color="#FBE2B7"/>
</linearGradient>
<linearGradient id="paint15_linear_1052_61" x1="205.362" y1="595.665" x2="205.362" y2="615.875" gradientUnits="userSpaceOnUse">
<stop stop-color="white" stop-opacity="0"/>
<stop offset="0.8" stop-color="#FBE2B7"/>
</linearGradient>
<linearGradient id="paint16_linear_1052_61" x1="1041" y1="126.145" x2="1041" y2="151.068" gradientUnits="userSpaceOnUse">
<stop stop-color="white" stop-opacity="0"/>
<stop offset="0.8" stop-color="#FBE2B7"/>
</linearGradient>
<linearGradient id="paint17_linear_1052_61" x1="194.6" y1="641.319" x2="194.6" y2="657.171" gradientUnits="userSpaceOnUse">
<stop stop-color="white" stop-opacity="0"/>
<stop offset="0.8" stop-color="#FBE2B7"/>
</linearGradient>
<linearGradient id="paint18_linear_1052_61" x1="1155.76" y1="612.939" x2="1155.76" y2="684.631" gradientUnits="userSpaceOnUse">
<stop stop-color="white" stop-opacity="0"/>
<stop offset="0.8" stop-color="#FBE2B7"/>
</linearGradient>
<linearGradient id="paint19_linear_1052_61" x1="1369.45" y1="603.626" x2="1369.45" y2="622.89" gradientUnits="userSpaceOnUse">
<stop offset="0.100023" stop-color="white" stop-opacity="0"/>
<stop offset="0.550023" stop-color="#FBE2B7" stop-opacity="0.8"/>
</linearGradient>
<linearGradient id="paint20_linear_1052_61" x1="669.679" y1="640.055" x2="669.679" y2="681.423" gradientUnits="userSpaceOnUse">
<stop stop-color="white" stop-opacity="0"/>
<stop offset="0.8" stop-color="#FBE2B7"/>
</linearGradient>
<linearGradient id="paint21_linear_1052_61" x1="1214.18" y1="220.556" x2="1214.18" y2="245.802" gradientUnits="userSpaceOnUse">
<stop stop-color="white" stop-opacity="0"/>
<stop offset="0.8" stop-color="#FBE2B7"/>
</linearGradient>
<linearGradient id="paint22_linear_1052_61" x1="173.284" y1="231.882" x2="173.284" y2="256.914" gradientUnits="userSpaceOnUse">
<stop stop-color="white" stop-opacity="0"/>
<stop offset="0.8" stop-color="#FBE2B7"/>
</linearGradient>
</defs>
</svg>
