<svg width="350" height="248" viewBox="0 0 350 248" fill="none" xmlns="http://www.w3.org/2000/svg">
<path d="M6.03004 95.1327C16.0244 65.4462 50.2638 55.3697 70.8982 53.4963C66.0347 48.0273 67.0334 35.4406 79.0367 28.3404C91.04 21.2402 111.996 23.9005 121.23 28.612C116.626 15.6347 146.723 1.16421 178.631 3.798C235.017 8.45226 247.797 26.5374 240.443 43.8333C245.107 37.2763 286.466 27.9993 322.223 58.4382C361.656 92.0067 348.763 119.401 333.459 134.491C337.996 135.67 345.916 143.235 341.296 164.054C336.676 184.873 308.148 192.118 294.462 193.138C285.233 212.472 260.352 207.5 250.323 202.78C250.147 213.556 245.666 229.228 211.024 239.815C170.406 252.227 134.375 238.56 127.461 228.961C114.514 233.171 65.3347 235.459 41.6167 208.485C17.8987 181.511 31.5741 168.517 31.73 158.988C12.1839 154.933 -6.32266 131.824 6.03004 95.1327Z" fill="white"/>
<path fill-rule="evenodd" clip-rule="evenodd" d="M70.8982 53.4963C50.2638 55.3697 16.0244 65.4462 6.03004 95.1327C-6.32266 131.824 12.1839 154.933 31.73 158.988C31.6943 161.172 30.9486 163.538 30.1056 166.212C27.27 175.207 23.3341 187.693 41.6167 208.485C65.3347 235.459 114.514 233.171 127.461 228.961C134.375 238.56 170.406 252.227 211.024 239.815C245.666 229.228 250.147 213.556 250.323 202.78C260.352 207.5 285.233 212.472 294.462 193.138C308.148 192.118 336.676 184.873 341.296 164.054C345.916 143.235 337.996 135.67 333.459 134.491C348.763 119.401 361.656 92.0067 322.223 58.4382C286.466 27.9993 245.107 37.2763 240.443 43.8333C247.797 26.5374 235.017 8.45226 178.631 3.798C146.723 1.16421 116.626 15.6347 121.23 28.612C111.996 23.9005 91.04 21.2402 79.0367 28.3404C67.0334 35.4406 66.0347 48.0273 70.8982 53.4963ZM197.982 62.8623C197.122 59.6374 195.501 56.4697 193.068 53.4722C180.595 38.0989 151.512 33.0203 128.11 42.1287C106.346 50.5994 97.1594 68.3567 106.012 83.1666C76.7749 86.6277 54.5722 103.125 54.2417 123.323C54.0183 136.973 63.835 149.261 79.2081 157.156C78.0154 160.225 77.3597 163.428 77.3057 166.728C76.9161 190.534 90.9271 206.001 140.137 213.36C185.962 220.214 206.049 205.852 213.614 188.3C223.414 188.875 232.925 187.62 241.345 184.29C249.668 180.997 256.01 176.037 260.275 169.993C267.872 171.134 276.23 170.39 283.719 167.475C299.385 161.378 305.315 148.093 296.966 137.802C293.908 134.033 289.359 131.189 284.052 129.397C304.654 113.394 303.235 87.7119 280.006 70.4649C257.431 53.7038 222.162 50.7771 197.982 62.8623Z" fill="url(#paint0_linear_5001_251)"/>
<defs>
<linearGradient id="paint0_linear_5001_251" x1="216.055" y1="41.3076" x2="187.039" y2="276.598" gradientUnits="userSpaceOnUse">
<stop stop-color="white" stop-opacity="0"/>
<stop offset="0.781231" stop-color="#FBF0E1"/>
</linearGradient>
</defs>
</svg>
