<svg width="395" height="691" viewBox="0 0 395 691" fill="none" xmlns="http://www.w3.org/2000/svg">
<mask id="mask0_1052_61" style="mask-type:alpha" maskUnits="userSpaceOnUse" x="39" y="83" width="320" height="555">
<path d="M353.787 183.678L353.787 84.9258C353.787 84.6826 353.59 84.4854 353.347 84.4849L40.5994 83.8337C40.3563 83.8332 40.1588 84.0177 40.1576 84.2608C40.0558 106.598 39.9163 153.605 40.1596 166.375C40.3277 175.198 42.0821 181.342 42.8075 183.523C42.925 183.876 43.3866 183.907 43.5631 183.579C44.2617 182.281 45.6344 179.689 46.58 177.632C46.7804 177.196 47.54 177.366 47.5785 177.844C50.4028 212.873 48.9204 174.005 53.3213 150.702C53.8932 147.674 57.3003 178.129 56.4837 193.41C55.5816 210.29 52.0966 222.404 49.546 232.199C47.9136 236.248 47.4034 214.568 45.873 219.531C41.2909 234.39 38.7312 321.141 39.2414 336.813C39.7515 352.486 41.792 345.041 41.0778 424.187C40.3636 503.334 43.8325 512.998 45.3629 498.109C46.5825 486.244 47.8359 522.124 48.3161 541.766C48.3197 541.911 48.2493 542.054 48.1152 542.109C45.1031 543.354 41.7082 525.011 42.5061 541.992C43.5251 563.677 43.0896 613.616 43.8192 636.788C43.8267 637.026 44.0213 637.203 44.2593 637.203L353.346 637.203C353.59 637.203 353.787 637.017 353.788 636.773C353.824 626.221 355.124 600.691 353.787 579.737C351.645 546.172 353.787 565.501 349.196 569.289C344.604 573.076 346.441 543.69 347.767 535.723C349.094 527.757 351.951 534.026 353.787 539.25C357.827 550.743 358.787 565.109 358.786 555.314C358.786 548.941 356.909 537.682 356.542 526.059C355.589 495.933 353.787 444.98 353.787 443.517C353.787 442.155 351.134 443.857 349.533 445.082C349.344 445.227 349.069 445.201 348.936 445.003C346.819 441.847 351.951 438.559 351.951 431.501C351.951 424.187 354.909 425.232 356.644 420.53C358.339 415.935 355.648 390.127 353.906 390.916C353.82 390.955 353.784 391.063 353.779 391.157C353.156 401.554 351.099 416.217 347.767 392.712C343.584 363.195 342.564 375.994 339.197 371.162C335.83 366.33 339.197 341.384 341.034 338.119C342.405 335.682 343.528 357.358 345.164 362.068C345.28 362.401 345.66 362.346 345.769 362.01C347.778 355.816 350.109 355.49 351.57 355.286L351.606 355.281C351.809 355.253 351.959 355.084 351.97 354.88L353.787 321.924C354.331 293.191 355.093 235.725 353.787 235.725C352.616 235.725 349.882 237.615 348.275 238.853C348.029 239.042 347.666 238.929 347.561 238.636C346.308 235.153 344.4 234.063 343.184 233.899C342.883 233.858 342.622 233.586 342.68 233.287C343.761 227.67 346.115 217.919 347.767 219.531C349.482 221.202 351.27 218.834 351.951 217.441C355.389 208.33 351.992 200.398 349.742 197.378C349.656 197.262 349.63 197.115 349.673 196.977L353.767 183.809C353.78 183.767 353.787 183.722 353.787 183.678Z" fill="url(#paint0_radial_1052_61)"/>
</mask>
<g mask="url(#mask0_1052_61)">
<path d="M353.787 183.678L353.787 84.9258C353.787 84.6826 353.59 84.4854 353.347 84.4849L40.5994 83.8337C40.3563 83.8332 40.1588 84.0177 40.1576 84.2608C40.0558 106.598 39.9163 153.605 40.1596 166.375C40.3277 175.198 42.0821 181.342 42.8075 183.523C42.925 183.876 43.3866 183.907 43.5631 183.579C44.2617 182.281 45.6344 179.689 46.58 177.632C46.7804 177.196 47.54 177.366 47.5785 177.844C50.4028 212.873 48.9204 174.005 53.3213 150.702C53.8932 147.674 57.3003 178.129 56.4837 193.41C55.5816 210.29 52.0966 222.404 49.546 232.199C47.9136 236.248 47.4034 214.568 45.873 219.531C41.2909 234.39 38.7312 321.141 39.2414 336.813C39.7515 352.486 41.792 345.041 41.0778 424.187C40.3636 503.334 43.8325 512.998 45.3629 498.109C46.5825 486.244 47.8359 522.124 48.3161 541.766C48.3197 541.911 48.2493 542.054 48.1152 542.109C45.1031 543.354 41.7082 525.011 42.5061 541.992C43.5251 563.677 43.0896 613.616 43.8192 636.788C43.8267 637.026 44.0213 637.203 44.2593 637.203L353.346 637.203C353.59 637.203 353.787 637.017 353.788 636.773C353.824 626.221 355.124 600.691 353.787 579.737C351.645 546.172 353.787 565.501 349.196 569.289C344.604 573.076 346.441 543.69 347.767 535.723C349.094 527.757 351.951 534.026 353.787 539.25C357.827 550.743 358.787 565.109 358.786 555.314C358.786 548.941 356.909 537.682 356.542 526.059C355.589 495.933 353.787 444.98 353.787 443.517C353.787 442.155 351.134 443.857 349.533 445.082C349.344 445.227 349.069 445.201 348.936 445.003C346.819 441.847 351.951 438.559 351.951 431.501C351.951 424.187 354.909 425.232 356.644 420.53C358.339 415.935 355.648 390.127 353.906 390.916C353.82 390.955 353.784 391.063 353.779 391.157C353.156 401.554 351.099 416.217 347.767 392.712C343.584 363.195 342.564 375.994 339.197 371.162C335.83 366.33 339.197 341.384 341.034 338.119C342.405 335.682 343.528 357.358 345.164 362.068C345.28 362.401 345.66 362.346 345.769 362.01C347.778 355.816 350.109 355.49 351.57 355.286L351.606 355.281C351.809 355.253 351.959 355.084 351.97 354.88L353.787 321.924C354.331 293.191 355.093 235.725 353.787 235.725C352.616 235.725 349.882 237.615 348.275 238.853C348.029 239.042 347.666 238.929 347.561 238.636C346.308 235.153 344.4 234.063 343.184 233.899C342.883 233.858 342.622 233.586 342.68 233.287C343.761 227.67 346.115 217.919 347.767 219.531C349.482 221.202 351.27 218.834 351.951 217.441C355.389 208.33 351.992 200.398 349.742 197.378C349.656 197.262 349.63 197.115 349.673 196.977L353.767 183.809C353.78 183.767 353.787 183.722 353.787 183.678Z" fill="url(#paint1_radial_1052_61)"/>
<path d="M359.694 178.241L342.227 91.0773C335.038 90.0672 320.014 89.5535 317.429 95.5797C314.845 101.606 320.947 134.335 324.321 149.946C325.547 152.735 328.719 159.909 331.6 166.298C334.481 172.687 334.928 192.891 334.791 202.194L349.815 212.52L355.858 197.996L359.694 178.241Z" fill="url(#paint2_linear_1052_61)" style="mix-blend-mode:multiply"/>
<g opacity="0.2">
<path d="M302.108 487.678L304.18 448.273L307.832 490.539C301.076 498.461 292.118 519.394 294.373 527.32C296.629 535.247 313.164 520.753 321.514 516.135C320.189 517.546 312.048 527.613 303.121 540.06C294.194 552.507 293.618 566.021 294.447 571.222L300.691 584.881L289.445 571.93C289.051 567.374 286.676 559.022 280.326 562.067C273.975 565.112 274.514 580.916 275.577 588.437C278.562 595.874 284.595 611.474 284.846 614.376C285.096 617.277 279.001 640.807 275.921 652.209L277.609 671.738C276.629 669.571 274.226 662.729 272.45 652.701C270.231 640.166 279.145 629.726 278.181 618.567C277.217 607.408 273.461 601.021 270.702 591.81C268.495 584.442 271.996 574.495 274.023 570.443C267.57 559.543 255.352 540.216 258.108 550.105C260.479 558.612 256.169 573.994 252.702 583.444C252.223 585.695 251.586 586.998 251.112 587.524C251.598 586.357 252.139 584.979 252.702 583.444C253.303 580.619 253.655 576.302 253.124 570.155C251.931 556.345 248.311 540.761 241.085 534.866C235.304 530.15 222.306 522.04 216.53 518.575L237.202 525.814C250.321 536.043 250.382 526.066 248.773 519.799C247.238 515.592 241.711 504.081 231.877 491.693C219.586 476.207 205.826 471.237 207.766 470.962L217.055 469.647C223.467 476.081 238.43 490.991 246.989 499.154C257.687 509.359 254.07 521.308 256.602 532.669C259.133 544.03 263.543 531.686 270.274 527.062C275.658 523.362 293.74 499.265 302.108 487.678Z" fill="url(#paint3_linear_1052_61)" style="mix-blend-mode:multiply"/>
</g>
<path d="M307.059 563.542C307.059 563.542 320.527 533.241 340.728 528.801C339.775 537.29 338.442 558.422 340.728 575.035C343.013 591.648 348.754 594.408 351.338 593.711L337.871 629.888C334.436 621.965 327.668 612.91 316.65 595.67C305.631 578.43 307.059 563.542 307.059 563.542Z" fill="url(#paint4_linear_1052_61)" style="mix-blend-mode:multiply"/>
<path d="M63.5832 562.568L98.9268 616.574L41.5396 632.37L35.8748 562.568C41.5396 596.082 44.9877 599.497 49.5442 570.467C53.1894 547.242 44.6183 537.594 41.5396 540.795L35.8748 513.899L46.0961 493.407L63.5832 562.568Z" fill="url(#paint5_linear_1052_61)" style="mix-blend-mode:multiply"/>
<path d="M102.497 150.441L146.674 88.5343L84.9487 60.585L81.8879 121.055L59.6463 144.563C76.2153 151.041 78.9291 165.286 79.4393 187.532L73.3177 274.384L88.5196 249.439L102.497 150.441Z" fill="url(#paint6_linear_1052_61)" style="mix-blend-mode:multiply"/>
<path d="M223.704 62.2825L197.585 147.699L177.078 156.841C169.902 161.586 153.245 173.558 144.022 183.484C135.125 193.059 124.628 243.666 120.019 270.368C119.951 271.326 119.795 272.273 119.536 273.209C119.689 272.297 119.85 271.349 120.019 270.368C120.808 259.257 109.667 246.762 108.415 233.375C116.74 185.522 103.008 194.324 112.904 152.531C115.626 141.038 123.086 132.705 131.167 123.929C139.247 115.152 154.837 100.157 162.591 94.5428C177.078 74.1676 218.501 55.491 223.704 62.2825Z" fill="url(#paint7_linear_1052_61)" style="mix-blend-mode:multiply"/>
<path d="M77.7048 141.69L58.524 191.842C40.4654 212.086 28.4943 199.112 27.5081 191.842L40.4654 93.889L51.1781 85.661L114.638 83.5713C113.72 90.8416 110.21 106.714 103.517 112.043C96.8245 117.372 83.5203 134.028 77.7048 141.69Z" fill="url(#paint8_linear_1052_61)" style="mix-blend-mode:multiply"/>
<path d="M65.7137 538.796C73.2972 554.5 120.139 595.475 127.494 592.227C125.914 587.061 91.6678 529.585 88.2683 515.179C84.0188 497.172 97.2574 495.548 92.5177 469.718C88.7259 449.054 82.9837 446.249 80.5866 447.43C77.0999 452.793 70.9437 457.425 65.7137 443.255C59.1761 425.543 63.589 369.072 50.8407 432.375C48.84 442.309 47.9533 465.241 48.716 475.917C51.2221 490.333 58.1301 523.091 65.7137 538.796Z" fill="url(#paint9_linear_1052_61)" style="mix-blend-mode:multiply"/>
</g>
<g filter="url(#filter0_d_1052_61)">
<ellipse cx="37.2086" cy="11.5506" rx="37.2086" ry="11.5506" transform="matrix(4.58625e-08 1 1 -4.16119e-08 344.106 598.995)" fill="#6E4B10"/>
<ellipse cx="35.7463" cy="12.0583" rx="35.7463" ry="12.0583" transform="matrix(4.58625e-08 1 1 -4.16119e-08 345.884 610.369)" fill="url(#paint10_linear_1052_61)"/>
<path d="M359.084 646.603L340.425 640.591L345.518 615.491C346.284 614.656 349.183 611.019 355.981 609.345C360.932 608.126 364.832 614.808 365.684 619.36C362.384 609.345 350.833 599.483 359.084 646.603Z" fill="#D0AC5B"/>
<path fill-rule="evenodd" clip-rule="evenodd" d="M357.94 682C254.624 680.126 42.2465 659.298 33.2561 656.031C27.3549 653.887 25.6683 630.407 28.0278 614.477C28.3373 612.388 29.2346 610.69 29.2346 610.69C29.255 610.582 29.3333 610.782 29.4527 611.087C29.9272 612.299 31.0517 615.171 31.7853 607.033C31.7853 603.245 29.2346 608.47 29.2346 608.47C29.2346 608.47 31.9999 601.026 33.7639 600.135C51.9049 590.979 329.286 589.071 357.395 599.257C354.4 599.587 352.892 606.454 352.171 609.738C351.997 610.528 351.87 611.111 351.777 611.345C351.458 612.154 350.443 614.987 349.992 616.869C349.933 617.117 349.425 617.282 348.921 617.447C348.424 617.609 347.93 617.77 347.878 618.007L349.31 620.281C349.047 623.001 348.82 624.853 348.634 626.373C348.453 627.85 348.31 629.013 348.21 630.355C348.028 632.812 348.074 635.211 348.121 637.735C348.144 638.924 348.167 640.141 348.167 641.405C348.167 641.759 347.627 642.004 347.09 642.247C346.554 642.489 346.02 642.731 346.025 643.08C346.025 643.08 348.243 645.039 348.21 643.841C348.672 663.687 352.778 680.078 357.94 682Z" fill="url(#paint11_linear_1052_61)"/>
</g>
<g filter="url(#filter1_d_1052_61)">
<ellipse cx="37.2086" cy="11.5506" rx="37.2086" ry="11.5506" transform="matrix(4.37114e-08 -1 -1 -4.37114e-08 52.894 95.0046)" fill="#6E4B10"/>
<ellipse cx="35.7463" cy="12.0583" rx="35.7463" ry="12.0583" transform="matrix(4.37114e-08 -1 -1 -4.37114e-08 51.1167 83.6309)" fill="url(#paint12_linear_1052_61)"/>
<path d="M37.9162 47.397L58.8193 54.9762L53.727 80.0758C52.9601 80.9106 47.8167 82.9808 41.0193 84.6545C36.068 85.8736 32.1679 79.1921 31.3158 74.64C34.616 84.6545 46.1666 94.5172 37.9162 47.397Z" fill="#D0AC5B"/>
<path fill-rule="evenodd" clip-rule="evenodd" d="M39.0593 12C142.375 13.874 354.753 34.7021 363.744 37.9688C367.09 39.1845 369.081 47.2593 369.748 56.9278C369.762 57.1302 369.392 57.4479 369.033 57.7562C368.697 58.045 368.37 58.3254 368.378 58.4951C368.385 58.6697 368.768 59.1005 369.152 59.5328C369.54 59.9693 369.929 60.4072 369.935 60.5848C370.006 62.6925 370.019 64.8422 369.973 66.9844C369.969 67.1806 368.993 67.3769 368.018 67.573C367.044 67.7687 366.071 67.9643 366.065 68.1598C366.058 68.3779 367.02 68.7264 367.981 69.0747C368.942 69.423 369.903 69.7711 369.894 69.9883C369.397 81.5949 367.162 91.883 363.236 93.8645C345.095 103.021 67.7184 104.929 39.6053 94.7428C42.5999 94.4119 44.1077 87.5458 44.8287 84.2626C45.0024 83.4719 45.1304 82.889 45.2226 82.6552C45.5416 81.8457 46.5571 79.0127 47.0078 77.1308C47.0671 76.883 48.4095 76.8505 49.7406 76.8183C51.0514 76.7866 52.3512 76.7551 52.4036 76.5185L47.6902 73.7186C47.9528 70.9985 48.1799 69.1468 48.3663 67.6268C48.5473 66.1505 48.69 64.987 48.7896 63.6447C48.9718 61.1883 48.9263 58.7888 48.8785 56.2652C48.8559 55.0758 48.8329 53.8588 48.8329 52.5952C48.8329 52.2409 49.0859 52.0503 49.3376 51.8607C49.589 51.6714 49.8391 51.483 49.8345 51.1335C49.831 50.8603 49.571 50.7514 49.3112 50.6427C49.0534 50.5348 48.7958 50.4269 48.7896 50.1586C48.3276 30.3116 44.2216 13.9203 39.0593 12Z" fill="url(#paint13_linear_1052_61)"/>
</g>
<mask id="mask1_1052_61" style="mask-type:alpha" maskUnits="userSpaceOnUse" x="232" y="106" width="82" height="20">
<path d="M266.107 106.021C250.881 105.655 246.799 110.21 246.661 112.534C240.594 113.448 229.285 116.213 232.595 119.961C236.732 124.645 246.661 125.331 257.556 125.902C268.451 126.474 285.138 124.188 293.964 122.246C302.79 120.303 315.556 122.246 313.409 116.761C310.949 110.477 289.459 108.154 281.966 108.877C283.023 108.077 281.332 106.386 266.107 106.021Z" fill="white"/>
</mask>
<g mask="url(#mask1_1052_61)">
<path d="M266.107 106.021C250.881 105.655 246.799 110.21 246.661 112.534C240.594 113.448 229.285 116.213 232.595 119.961C236.732 124.645 246.661 125.331 257.556 125.902C268.451 126.474 285.138 124.188 293.964 122.246C302.79 120.303 315.556 122.246 313.409 116.761C310.949 110.477 289.459 108.154 281.966 108.877C283.023 108.077 281.332 106.386 266.107 106.021Z" fill="white"/>
<path d="M239.723 118.569C228.69 116.192 230.529 119.559 232.828 121.539C234.069 122.263 237.792 124.099 242.757 125.653C248.963 127.595 282.337 127.71 291.577 125.653C300.816 123.596 319.848 122.339 316.676 120.511C313.504 118.683 311.573 116.512 306.884 116.055C302.196 115.598 297.645 117.655 287.301 120.511C276.958 123.368 273.511 121.539 275.993 121.539C278.475 121.539 277.096 118.569 270.752 119.483C264.409 120.397 269.649 121.539 260.133 122.339C250.618 123.139 253.514 121.539 239.723 118.569Z" fill="url(#paint14_linear_1052_61)"/>
</g>
<mask id="mask2_1052_61" style="mask-type:alpha" maskUnits="userSpaceOnUse" x="65" y="44" width="201" height="60">
<path d="M65.7225 89.3732C63.8103 83.0158 82.9911 75.463 92.9017 74.4301C99.0948 51.7157 117.091 56.3693 125.315 61.5353C123.561 56.0613 143.152 44.8026 157.445 44.6106C187.358 44.2089 205.255 61.6989 210.465 70.4944C218.587 71.3868 237.161 73.6133 246.479 75.3806C258.126 77.5897 265.422 82.4628 265.589 86.4782C265.862 93.0209 258.586 91.3783 253.081 93.8129C247.576 96.2475 216.406 97.7601 209.787 98.1703C197.234 98.9481 200.786 93.5645 183.127 95.3566C165.468 97.1487 196.221 102.081 175.794 103.347C155.368 104.613 112.118 99.0591 98.5388 99.9006C84.9592 100.742 68.1128 97.3199 65.7225 89.3732Z" fill="white"/>
</mask>
<g mask="url(#mask2_1052_61)">
<path d="M65.7225 89.3732C63.8103 83.0158 82.9911 75.463 92.9017 74.4301C99.0948 51.7157 117.091 56.3693 125.315 61.5353C123.561 56.0613 143.152 44.8026 157.445 44.6106C187.358 44.2089 205.255 61.6989 210.465 70.4944C218.587 71.3868 237.161 73.6133 246.479 75.3806C258.126 77.5897 265.422 82.4628 265.589 86.4782C265.862 93.0209 258.586 91.3783 253.081 93.8129C247.576 96.2475 216.406 97.7601 209.787 98.1703C197.234 98.9481 200.786 93.5645 183.127 95.3566C165.468 97.1487 196.221 102.081 175.794 103.347C155.368 104.613 112.118 99.0591 98.5388 99.9006C84.9592 100.742 68.1128 97.3199 65.7225 89.3732Z" fill="white"/>
<path d="M91.2729 82.6039C84.143 81.7118 79.3897 85.02 77.9043 86.7855C61.6334 82.8827 62.6693 93.4296 65.2212 99.1909L81.1036 106.16H191.938C213 102.211 256.039 94.3124 259.695 94.3124C263.351 94.3124 267.084 89.9914 267.35 88.3188C266.703 86.7855 264.38 83.9978 257.981 82.3251C251.582 80.6525 227.13 87.3431 209.42 88.3188C201.764 87.3431 191.206 82.1579 185.996 80.3737C179.483 78.1436 166.914 78.5617 158.916 80.3737C150.918 82.1858 167.371 82.6039 166.914 86.7855C166.457 90.9671 128.979 88.04 140.863 83.8584C149.831 80.7026 154.917 80.3737 149.889 78.5617C143.719 77.9577 130.282 77.4745 125.894 80.3737C120.41 83.9978 113.554 85.3917 104.527 86.7855C95.5006 88.1794 100.185 83.719 91.2729 82.6039Z" fill="url(#paint15_linear_1052_61)"/>
</g>
<mask id="mask3_1052_61" style="mask-type:alpha" maskUnits="userSpaceOnUse" x="314" y="130" width="53" height="21">
<path d="M339.65 130C353.732 130 353.628 135.294 352.333 137.998C360.217 135.599 371.758 137.998 363.302 145.425C354.847 152.852 333.594 150.681 326.853 148.967C322.396 149.996 316.273 148.853 314.741 146.339C311.177 140.489 321.33 136.741 326.853 135.599C325.481 133.085 337.136 130 339.65 130Z" fill="white"/>
</mask>
<g mask="url(#mask3_1052_61)">
<path d="M339.65 130C353.732 130 353.628 135.294 352.333 137.998C360.217 135.599 371.758 137.998 363.302 145.425C354.847 152.852 333.594 150.681 326.853 148.967C322.396 149.996 316.273 148.853 314.741 146.339C311.177 140.489 321.33 136.741 326.853 135.599C325.481 133.085 337.136 130 339.65 130Z" fill="white"/>
<path d="M312.991 144.968C312.534 146.522 316.076 149.044 317.904 150.11C321.446 152.176 325.406 149.453 329.673 150.91C334.358 152.51 348.412 151.139 355.496 150.91C362.581 150.681 371.607 142.455 368.179 140.741C364.752 139.027 360.638 143.712 356.068 144.968C351.497 146.225 346.127 144.968 342.242 144.968C338.357 144.968 337.214 146.111 333.558 146.568C329.902 147.025 322.132 144.169 319.732 143.712C317.333 143.254 313.562 143.026 312.991 144.968Z" fill="url(#paint16_linear_1052_61)"/>
</g>
<mask id="mask4_1052_61" style="mask-type:alpha" maskUnits="userSpaceOnUse" x="46" y="597" width="40" height="9">
<path d="M46.5257 601.393C46.3579 595.921 58.562 597.053 64.6851 598.303C90.6341 597.068 85.3951 603.193 84.4679 603.35L72.7995 605.336C64.1115 606.301 46.6935 606.864 46.5257 601.393Z" fill="white"/>
</mask>
<g mask="url(#mask4_1052_61)">
<path d="M46.5257 601.393C46.3579 595.921 58.562 597.053 64.6851 598.303C90.6341 597.068 85.3951 603.193 84.4679 603.35L72.7995 605.336C64.1115 606.301 46.6935 606.864 46.5257 601.393Z" fill="white"/>
<path d="M49.1757 601.374C44.4225 601.137 45.0827 603.322 46.0069 604.444C48.8588 608.326 62.3129 607.712 68.6835 606.92C75.054 605.896 87.5377 603.711 86.5078 603.157C85.2205 602.464 81.6557 602.167 77.8927 602.464C74.1298 602.761 67.7922 604.048 63.0391 604.444C58.2859 604.84 55.1171 601.671 49.1757 601.374Z" fill="url(#paint17_linear_1052_61)"/>
</g>
<mask id="mask5_1052_61" style="mask-type:alpha" maskUnits="userSpaceOnUse" x="191" y="545" width="183" height="65">
<path d="M299.332 545.254C270.734 542.798 261.208 558.754 260.02 567.039C236.096 561.494 224.998 574.301 221.698 580.11C221.004 579.747 213.491 577.635 206.151 577.635C201.299 577.635 191 583.901 191 592.191C191 600.014 207.885 599.519 220.212 599.519C231.897 599.519 262.594 599.123 262.594 602.292C254.673 602.292 248.889 605.461 249.82 606.55C255.069 612.689 283.984 608.233 289.925 608.233C313.263 608.233 335.18 608.332 356.272 606.55C372.512 605.178 370.135 595.657 359.143 593.578C348.151 591.498 330.327 587.834 347.557 587.834C356.376 587.834 373.7 590.904 373.7 583.081C373.7 578.794 361.586 577.635 359.143 573.971C355.182 568.03 342.507 565.158 333.1 568.03C333.76 561.791 327.931 547.71 299.332 545.254Z" fill="white"/>
</mask>
<g mask="url(#mask5_1052_61)">
<path d="M299.332 545.254C270.734 542.798 261.208 558.754 260.02 567.039C236.096 561.494 224.998 574.301 221.698 580.11C221.004 579.747 213.491 577.635 206.151 577.635C201.299 577.635 191 583.901 191 592.191C191 600.014 207.885 599.519 220.212 599.519C231.897 599.519 262.594 599.123 262.594 602.292C254.673 602.292 248.889 605.461 249.82 606.55C255.069 612.689 283.984 608.233 289.925 608.233C313.263 608.233 335.18 608.332 356.272 606.55C372.512 605.178 370.135 595.657 359.143 593.578C348.151 591.498 330.327 587.834 347.557 587.834C356.376 587.834 373.7 590.904 373.7 583.081C373.7 578.794 361.586 577.635 359.143 573.971C355.182 568.03 342.507 565.158 333.1 568.03C333.76 561.791 327.931 547.71 299.332 545.254Z" fill="white"/>
<path d="M190.307 592.532C189.515 595.067 192.882 597.615 194.664 598.572C198.15 601.186 206.217 602.566 209.815 602.929C222.622 602.929 249.029 602.652 252.197 601.543C256.158 600.156 265.83 602.137 264.674 604.217C264.179 605.108 258.337 603.523 247.246 606.791C246.768 606.932 255.663 612.733 259.822 613.921C277.052 612.997 313.157 611.267 319.732 611.742C327.951 612.336 364.293 607.088 370.63 605.207C376.968 603.325 370.828 595.304 367.065 593.621C363.303 591.937 360.728 593.621 362.114 595.304L362.15 595.347C363.51 596.998 364.004 597.597 353.499 599.364C342.904 601.147 328.05 596.691 335.18 595.304C342.309 593.918 314.187 591.442 308.443 592.532C302.7 593.621 319.336 595.304 318.346 597.582C317.355 599.859 307.057 599.463 307.156 597.582C307.255 595.7 303.789 594.71 299.531 595.304C292.995 596.216 283.15 596.751 292.995 592.532C297.154 590.749 304.302 592.059 294.877 588.967C288.539 586.887 279.528 586.887 273.388 588.967C270.465 589.957 262.298 586.095 255.861 586.095C246.373 586.095 247.246 588.967 235.066 586.887C219.125 584.166 232.194 590.353 228.729 592.532C224.782 595.012 209.914 588.274 204.468 588.274C199.021 588.274 191.297 589.363 190.307 592.532Z" fill="url(#paint18_linear_1052_61)"/>
<path d="M375.78 583.322C377.285 585.461 372.908 588.637 370.532 589.957H347.657C340.032 589.957 336.665 587.085 335.576 586.095C334.487 585.105 334.487 583.322 340.527 583.322C346.568 583.322 355.579 585.006 362.412 585.105C369.244 585.204 373.898 580.649 375.78 583.322Z" fill="url(#paint19_linear_1052_61)"/>
<path d="M262.397 568.766C261.208 567.34 259.459 566.587 258.733 566.389C258.502 565.432 258.475 563.716 260.218 564.508C262.397 565.498 263.882 570.548 262.397 568.766Z" fill="#FBE2B7"/>
<path d="M330.922 570.449C331.793 568.944 333.529 567.973 334.288 567.676C334.651 566.554 334.982 564.428 333.397 564.904C331.417 565.498 329.832 572.33 330.922 570.449Z" fill="#FBE2B7"/>
</g>
<mask id="mask6_1052_61" style="mask-type:alpha" maskUnits="userSpaceOnUse" x="117" y="617" width="145" height="22">
<path d="M159.283 618.662C151.52 619.217 150.437 622.92 150.866 624.703C147.935 624.148 144.1 625.33 142.845 625.792C141.954 625.561 138.884 624.544 133.735 623.91C127.299 623.118 117 624.703 117 628.069C117 631.436 132.349 635.694 138.29 635.199C144.232 634.704 159.58 635.694 162.254 636.982C164.393 638.012 174.566 638.071 179.385 637.972C183.247 638.302 192.813 638.903 200.18 638.665C209.39 638.368 217.51 635.892 229.69 636.982C239.434 637.853 251.244 638.005 255.931 637.972C268.606 635.358 257.714 630.281 250.683 628.069C245.071 627.046 232.165 625.178 225.432 625.891C218.698 626.604 202.227 624.868 194.833 623.91C190.377 620.247 189.189 622.425 179.385 618.662C171.543 615.652 162.914 617.408 159.283 618.662Z" fill="white"/>
</mask>
<g mask="url(#mask6_1052_61)">
<path d="M159.283 618.662C151.52 619.217 150.437 622.92 150.866 624.703C147.935 624.148 144.1 625.33 142.845 625.792C141.954 625.561 138.884 624.544 133.735 623.91C127.299 623.118 117 624.703 117 628.069C117 631.436 132.349 635.694 138.29 635.199C144.232 634.704 159.58 635.694 162.254 636.982C164.393 638.012 174.566 638.071 179.385 637.972C183.247 638.302 192.813 638.903 200.18 638.665C209.39 638.368 217.51 635.892 229.69 636.982C239.434 637.853 251.244 638.005 255.931 637.972C268.606 635.358 257.714 630.281 250.683 628.069C245.071 627.046 232.165 625.178 225.432 625.891C218.698 626.604 202.227 624.868 194.833 623.91C190.377 620.247 189.189 622.425 179.385 618.662C171.543 615.652 162.914 617.408 159.283 618.662Z" fill="white"/>
<path d="M121.159 625.714C111.84 625.714 117.792 630.962 121.555 634.923C127.298 638.587 135.517 637.003 147.598 636.607C159.679 636.211 168.096 638.785 176.117 640.073C184.138 641.36 208.498 643.142 221.867 640.073C232.561 637.617 252.399 638.191 260.981 638.785C264.876 637.498 271.161 634.547 265.14 633.042C257.614 631.16 259.199 631.259 249.098 633.042C238.998 634.824 212.162 631.259 208.498 631.259C204.834 631.259 187.604 632.646 179.583 633.042C171.562 633.438 158.095 631.259 155.025 629.972C151.955 628.685 143.34 631.259 139.28 631.259C128.289 631.259 127.496 625.714 121.159 625.714Z" fill="url(#paint20_linear_1052_61)"/>
</g>
<mask id="mask7_1052_61" style="mask-type:alpha" maskUnits="userSpaceOnUse" x="0" y="115" width="145" height="22">
<path d="M42.2834 116.662C34.5199 117.217 33.4372 120.92 33.8663 122.703C30.9352 122.148 27.0996 123.33 25.8453 123.792C24.9541 123.561 21.8844 122.544 16.7351 121.91C10.2985 121.118 0 122.703 0 126.069C0 129.436 15.3488 133.694 21.2902 133.199C27.2317 132.704 42.5804 133.694 45.2541 134.982C47.393 136.012 57.5661 136.071 62.3853 135.972C66.2472 136.302 75.813 136.903 83.1804 136.665C92.3897 136.368 100.51 133.892 112.69 134.982C122.434 135.853 134.244 136.005 138.931 135.972C151.606 133.358 140.714 128.281 133.683 126.069C128.071 125.046 115.165 123.178 108.432 123.891C101.698 124.604 85.2269 122.868 77.8331 121.91C73.377 118.247 72.1887 120.425 62.3853 116.662C54.5426 113.652 45.9143 115.408 42.2834 116.662Z" fill="white"/>
</mask>
<g mask="url(#mask7_1052_61)">
<path d="M42.2834 116.662C34.5199 117.217 33.4372 120.92 33.8663 122.703C30.9352 122.148 27.0996 123.33 25.8453 123.792C24.9541 123.561 21.8844 122.544 16.7351 121.91C10.2985 121.118 0 122.703 0 126.069C0 129.436 15.3488 133.694 21.2902 133.199C27.2317 132.704 42.5804 133.694 45.2541 134.982C47.393 136.012 57.5661 136.071 62.3853 135.972C66.2472 136.302 75.813 136.903 83.1804 136.665C92.3897 136.368 100.51 133.892 112.69 134.982C122.434 135.853 134.244 136.005 138.931 135.972C151.606 133.358 140.714 128.281 133.683 126.069C128.071 125.046 115.165 123.178 108.432 123.891C101.698 124.604 85.2269 122.868 77.8331 121.91C73.377 118.247 72.1887 120.425 62.3853 116.662C54.5426 113.652 45.9143 115.408 42.2834 116.662Z" fill="white"/>
<path d="M4.15892 123.714C-5.15973 123.714 0.792091 128.962 4.55501 132.923C10.2984 136.587 18.5175 135.003 30.5984 134.607C42.6794 134.211 51.0965 136.785 59.1174 138.073C67.1384 139.36 91.4984 141.142 104.867 138.073C115.561 135.617 135.399 136.191 143.981 136.785C147.876 135.498 154.161 132.547 148.14 131.042C140.614 129.16 142.199 129.259 132.098 131.042C121.998 132.824 95.1623 129.259 91.4984 129.259C87.8345 129.259 70.6042 130.646 62.5833 131.042C54.5623 131.438 41.095 129.259 38.0252 127.972C34.9555 126.685 26.3404 129.259 22.2804 129.259C11.2886 129.259 10.4965 123.714 4.15892 123.714Z" fill="url(#paint21_linear_1052_61)"/>
</g>
<mask id="mask8_1052_61" style="mask-type:alpha" maskUnits="userSpaceOnUse" x="79" y="569" width="79" height="17">
<path d="M134.536 569.122C124.173 568.308 121.788 571.728 121.788 574.29C119.77 573.336 110.413 573.274 105.986 573.363C103.817 573.363 98.2313 573.787 93.2384 575.483C86.9972 577.603 77.1706 575.483 79.2953 579.458C80.4201 581.562 89.2546 580.253 93.2384 582.24C94.5663 582.903 98.9484 583.83 105.986 583.83C113.024 583.83 118.601 583.698 129.225 584.095C139.848 584.493 130.42 586.083 148.878 585.553C163.644 585.129 155.031 578.663 148.878 575.483C148.347 574.202 144.622 569.915 134.536 569.122Z" fill="white"/>
</mask>
<g mask="url(#mask8_1052_61)">
<path d="M134.536 569.122C124.173 568.308 121.788 571.728 121.788 574.29C119.77 573.336 110.413 573.274 105.986 573.363C103.817 573.363 98.2313 573.787 93.2384 575.483C86.9972 577.603 77.1706 575.483 79.2953 579.458C80.4201 581.562 89.2546 580.253 93.2384 582.24C94.5663 582.903 98.9484 583.83 105.986 583.83C113.024 583.83 118.601 583.698 129.225 584.095C139.848 584.493 130.42 586.083 148.878 585.553C163.644 585.129 155.031 578.663 148.878 575.483C148.347 574.202 144.622 569.915 134.536 569.122Z" fill="white"/>
<path d="M80.6523 578.332C76.8498 577.698 79.0679 579.85 80.6523 581.006C86.0986 583.679 90.7528 583.283 93.4264 583.283C96.1001 583.283 101.943 584.075 106.399 584.868C110.855 585.66 127.095 584.769 130.957 584.868C134.819 584.967 136.799 586.155 146.9 586.056C157 585.957 155.812 584.472 157.198 584.075C158.584 583.679 158.485 581.798 156.604 582.59C154.722 583.382 142.146 583.184 140.859 583.283C139.572 583.382 136.403 581.699 133.432 581.798C130.462 581.897 126.104 581.006 124.025 580.412C121.945 579.817 114.123 580.015 108.082 581.006C102.042 581.996 99.0708 581.006 97.1894 581.006C95.3079 581.006 93.6245 578.332 90.2577 578.827C86.8908 579.322 85.4055 579.124 80.6523 578.332Z" fill="url(#paint22_linear_1052_61)"/>
</g>
<defs>
<filter id="filter0_d_1052_61" x="13.7728" y="587.996" width="356.228" height="102.822" filterUnits="userSpaceOnUse" color-interpolation-filters="sRGB">
<feFlood flood-opacity="0" result="BackgroundImageFix"/>
<feColorMatrix in="SourceAlpha" type="matrix" values="0 0 0 0 0 0 0 0 0 0 0 0 0 0 0 0 0 0 127 0" result="hardAlpha"/>
<feOffset dx="-6.61359" dy="2.20453"/>
<feGaussianBlur stdDeviation="3.30679"/>
<feComposite in2="hardAlpha" operator="out"/>
<feColorMatrix type="matrix" values="0 0 0 0 0.431373 0 0 0 0 0.294118 0 0 0 0 0.0627451 0 0 0 0.25 0"/>
<feBlend mode="normal" in2="BackgroundImageFix" result="effect1_dropShadow_1052_61"/>
<feBlend mode="normal" in="SourceGraphic" in2="effect1_dropShadow_1052_61" result="shape"/>
</filter>
<filter id="filter1_d_1052_61" x="24.7955" y="0.977357" width="369.454" height="116.049" filterUnits="userSpaceOnUse" color-interpolation-filters="sRGB">
<feFlood flood-opacity="0" result="BackgroundImageFix"/>
<feColorMatrix in="SourceAlpha" type="matrix" values="0 0 0 0 0 0 0 0 0 0 0 0 0 0 0 0 0 0 127 0" result="hardAlpha"/>
<feOffset dx="11.0226" dy="2.20453"/>
<feGaussianBlur stdDeviation="6.61359"/>
<feComposite in2="hardAlpha" operator="out"/>
<feColorMatrix type="matrix" values="0 0 0 0 0.431373 0 0 0 0 0.294118 0 0 0 0 0.0627451 0 0 0 0.25 0"/>
<feBlend mode="normal" in2="BackgroundImageFix" result="effect1_dropShadow_1052_61"/>
<feBlend mode="normal" in="SourceGraphic" in2="effect1_dropShadow_1052_61" result="shape"/>
</filter>
<radialGradient id="paint0_radial_1052_61" cx="0" cy="0" r="1" gradientUnits="userSpaceOnUse" gradientTransform="translate(198.982 360.518) rotate(-179.982) scale(210.855 365.074)">
<stop offset="0.50022" stop-color="#F8D689"/>
<stop offset="1" stop-color="#B8954F"/>
</radialGradient>
<radialGradient id="paint1_radial_1052_61" cx="0" cy="0" r="1" gradientUnits="userSpaceOnUse" gradientTransform="translate(198.982 360.518) rotate(-179.982) scale(210.855 365.074)">
<stop offset="0.50022" stop-color="#F8D689"/>
<stop offset="1" stop-color="#B8954F"/>
</radialGradient>
<linearGradient id="paint2_linear_1052_61" x1="354.2" y1="125.596" x2="296.959" y2="133.239" gradientUnits="userSpaceOnUse">
<stop offset="0.321809" stop-color="#E1A331" stop-opacity="0"/>
<stop offset="1" stop-color="#7B591B" stop-opacity="0.5"/>
</linearGradient>
<linearGradient id="paint3_linear_1052_61" x1="370.038" y1="599.348" x2="175.489" y2="515.316" gradientUnits="userSpaceOnUse">
<stop offset="0.0425108" stop-color="#7B591B" stop-opacity="0.5"/>
<stop offset="0.874452" stop-color="#E1A331" stop-opacity="0"/>
</linearGradient>
<linearGradient id="paint4_linear_1052_61" x1="364.092" y1="561.713" x2="276.993" y2="564.824" gradientUnits="userSpaceOnUse">
<stop offset="0.459954" stop-color="#E1A331" stop-opacity="0"/>
<stop offset="1" stop-color="#7B591B" stop-opacity="0.5"/>
</linearGradient>
<linearGradient id="paint5_linear_1052_61" x1="92.6462" y1="485.082" x2="-41.263" y2="541.68" gradientUnits="userSpaceOnUse">
<stop stop-color="#7B591B" stop-opacity="0.5"/>
<stop offset="0.540046" stop-color="#E1A331" stop-opacity="0"/>
</linearGradient>
<linearGradient id="paint6_linear_1052_61" x1="143.307" y1="174.994" x2="55.2113" y2="148.841" gradientUnits="userSpaceOnUse">
<stop stop-color="#7B591B" stop-opacity="0.5"/>
<stop offset="0.540046" stop-color="#E1A331" stop-opacity="0"/>
</linearGradient>
<linearGradient id="paint7_linear_1052_61" x1="63.1154" y1="79" x2="276.26" y2="186.045" gradientUnits="userSpaceOnUse">
<stop stop-color="#7B591B" stop-opacity="0.5"/>
<stop offset="0.519485" stop-color="#E1A331" stop-opacity="0"/>
</linearGradient>
<linearGradient id="paint8_linear_1052_61" x1="137.594" y1="220.836" x2="0.00650208" y2="161.884" gradientUnits="userSpaceOnUse">
<stop offset="0.51233" stop-color="#E1A331" stop-opacity="0"/>
<stop offset="1" stop-color="#7B591B" stop-opacity="0.5"/>
</linearGradient>
<linearGradient id="paint9_linear_1052_61" x1="121.937" y1="461.3" x2="24.5007" y2="482.08" gradientUnits="userSpaceOnUse">
<stop offset="0.459954" stop-color="#E1A331" stop-opacity="0"/>
<stop offset="1" stop-color="#7B591B" stop-opacity="0.5"/>
</linearGradient>
<linearGradient id="paint10_linear_1052_61" x1="71.4926" y1="12.0583" x2="0" y2="12.0583" gradientUnits="userSpaceOnUse">
<stop stop-color="#E9C97A"/>
<stop offset="0.88522" stop-color="#6E4B10"/>
</linearGradient>
<linearGradient id="paint11_linear_1052_61" x1="186.15" y1="682" x2="187.822" y2="583.666" gradientUnits="userSpaceOnUse">
<stop stop-color="#886323"/>
<stop offset="0.300046" stop-color="#E6C479"/>
<stop offset="0.5" stop-color="#FFE19C"/>
<stop offset="0.7" stop-color="#E6C479"/>
<stop offset="1" stop-color="#886323"/>
</linearGradient>
<linearGradient id="paint12_linear_1052_61" x1="71.4926" y1="12.0583" x2="0" y2="12.0583" gradientUnits="userSpaceOnUse">
<stop stop-color="#E9C97A"/>
<stop offset="0.88522" stop-color="#6E4B10"/>
</linearGradient>
<linearGradient id="paint13_linear_1052_61" x1="210.849" y1="3.38008" x2="200.686" y2="110.625" gradientUnits="userSpaceOnUse">
<stop stop-color="#886323"/>
<stop offset="0.300046" stop-color="#E6C479"/>
<stop offset="0.5" stop-color="#FFE19C"/>
<stop offset="0.7" stop-color="#E6C479"/>
<stop offset="1" stop-color="#886323"/>
</linearGradient>
<linearGradient id="paint14_linear_1052_61" x1="274.056" y1="115.991" x2="274.056" y2="127.153" gradientUnits="userSpaceOnUse">
<stop stop-color="white" stop-opacity="0"/>
<stop offset="0.8" stop-color="#FBE2B7"/>
</linearGradient>
<linearGradient id="paint15_linear_1052_61" x1="165.552" y1="78.1035" x2="165.552" y2="106.16" gradientUnits="userSpaceOnUse">
<stop stop-color="white" stop-opacity="0"/>
<stop offset="0.8" stop-color="#FBE2B7"/>
</linearGradient>
<linearGradient id="paint16_linear_1052_61" x1="340.94" y1="140.368" x2="340.94" y2="151.675" gradientUnits="userSpaceOnUse">
<stop stop-color="white" stop-opacity="0"/>
<stop offset="0.8" stop-color="#FBE2B7"/>
</linearGradient>
<linearGradient id="paint17_linear_1052_61" x1="65.959" y1="601.356" x2="65.959" y2="607.509" gradientUnits="userSpaceOnUse">
<stop stop-color="white" stop-opacity="0"/>
<stop offset="0.8" stop-color="#FBE2B7"/>
</linearGradient>
<linearGradient id="paint18_linear_1052_61" x1="281.779" y1="586.095" x2="281.779" y2="613.921" gradientUnits="userSpaceOnUse">
<stop stop-color="white" stop-opacity="0"/>
<stop offset="0.8" stop-color="#FBE2B7"/>
</linearGradient>
<linearGradient id="paint19_linear_1052_61" x1="355.556" y1="582.48" x2="355.556" y2="589.957" gradientUnits="userSpaceOnUse">
<stop offset="0.100023" stop-color="white" stop-opacity="0"/>
<stop offset="0.550023" stop-color="#FBE2B7" stop-opacity="0.8"/>
</linearGradient>
<linearGradient id="paint20_linear_1052_61" x1="191.911" y1="625.714" x2="191.911" y2="641.77" gradientUnits="userSpaceOnUse">
<stop stop-color="white" stop-opacity="0"/>
<stop offset="0.8" stop-color="#FBE2B7"/>
</linearGradient>
<linearGradient id="paint21_linear_1052_61" x1="74.9107" y1="123.714" x2="74.9107" y2="139.77" gradientUnits="userSpaceOnUse">
<stop stop-color="white" stop-opacity="0"/>
<stop offset="0.8" stop-color="#FBE2B7"/>
</linearGradient>
<linearGradient id="paint22_linear_1052_61" x1="118.347" y1="578.218" x2="118.347" y2="586.062" gradientUnits="userSpaceOnUse">
<stop stop-color="white" stop-opacity="0"/>
<stop offset="0.8" stop-color="#FBE2B7"/>
</linearGradient>
</defs>
</svg>
