<?xml version="1.0" encoding="UTF-8" standalone="no"?>
<!-- Created with Inkscape (http://www.inkscape.org/) -->

<svg
   version="1.1"
   id="svg2"
   width="684.91998"
   height="253.73334"
   viewBox="0 0 684.91998 253.73334"
   sodipodi:docname="AGCO-all-black.eps"
   xmlns:inkscape="http://www.inkscape.org/namespaces/inkscape"
   xmlns:sodipodi="http://sodipodi.sourceforge.net/DTD/sodipodi-0.dtd"
   xmlns="http://www.w3.org/2000/svg"
   xmlns:svg="http://www.w3.org/2000/svg">
  <defs
     id="defs6" />
  <sodipodi:namedview
     id="namedview4"
     pagecolor="#ffffff"
     bordercolor="#000000"
     borderopacity="0.25"
     inkscape:showpageshadow="2"
     inkscape:pageopacity="0.0"
     inkscape:pagecheckerboard="0"
     inkscape:deskcolor="#d1d1d1" />
  <g
     id="g8"
     inkscape:groupmode="layer"
     inkscape:label="ink_ext_XXXXXX"
     transform="matrix(1.3333333,0,0,-1.3333333,0,253.73333)">
    <g
       id="g10"
       transform="scale(0.1)">
      <path
         d="M 2950.04,1099.17 H 2817.2 c -143.11,0 -177.58,-18.73 -177.58,-158.42 v -68.41 c 0,-116.25 24.31,-142.488 170.41,-142.488 H 2948 c 158.27,0 188.67,14.886 188.67,75.839 v 48.75 h -255.64 v 126.582 h 429.11 V 850.699 c 0,-211.828 -65.88,-261.539 -340.84,-261.539 h -175.52 c -250.58,0 -322.55,55.32 -322.55,260.668 v 101.164 c 0,227.868 60.79,291.578 326.62,291.578 H 2952 c 286.12,0 358.14,-49.61 358.14,-203.47 h -174.45 c -1.05,50.7 -26.4,60.07 -185.65,60.07"
         style="fill:#231f20;fill-opacity:1;fill-rule:nonzero;stroke:none"
         id="path12" />
      <path
         d="m 3718.19,588.219 c -258.73,0 -328.72,57.203 -328.72,272.793 v 82.496 c 0,254.042 73.01,296.292 334.7,296.292 h 150.21 c 275.96,0 344.92,-38.41 344.92,-221.25 h -174.51 c -0.93,50.6 -18.27,76.93 -178.57,76.93 h -129.87 c -152.17,0 -176.48,-12.24 -176.48,-150.003 V 874.18 c 0,-126.481 24.31,-144.328 170.39,-144.328 h 138.04 c 149.11,0 178.52,12.117 177.52,85.257 h 174.41 c 1.05,-173.418 -46.58,-226.89 -347.89,-226.89 h -154.15"
         style="fill:#231f20;fill-opacity:1;fill-rule:nonzero;stroke:none"
         id="path14" />
      <path
         d="m 4779.84,589.16 h -149.22 c -269.75,0 -333.67,50.602 -333.67,275.692 v 78.656 c 0,241.952 59.91,299.062 336.8,299.062 h 149.11 c 290.22,0 354.07,-59.91 354.07,-296.211 v -78.8 c 0,-239.93 -65,-278.399 -357.09,-278.399 m -6.03,506.32 H 4649 c -159.32,0 -181.65,-25.39 -181.65,-154.73 v -67.512 c 0,-116.218 22.33,-140.687 175.56,-140.687 h 133.81 c 165.45,0 190.81,18.789 190.81,143.488 v 67.469 c 0,131.252 -24.37,151.972 -193.72,151.972"
         style="fill:#231f20;fill-opacity:1;fill-rule:nonzero;stroke:none"
         id="path16" />
      <path
         d="m 1842.16,876.039 139,241.861 h 8.1 L 2123.17,876.039 Z M 2116.09,1239.8 H 1849.23 L 1579.84,757.23 1682.32,589.16 h 0.56 l 86.21,156.559 h 427.13 l 85.25,-156.559 h 197.78 l -363.16,650.64"
         style="fill:#231f20;fill-opacity:1;fill-rule:nonzero;stroke:none"
         id="path18" />
      <path
         d="M 185.938,227.801 92.4297,417.512 h 62.6483 l 61.723,-126.621 58.058,126.621 H 337.5 L 243.992,226.41 V 100.711 h -58.054 v 127.09"
         style="fill:#231f20;fill-opacity:1;fill-rule:nonzero;stroke:none"
         id="path20" />
      <path
         d="m 414.609,136.969 c 36.297,0 44.469,41.863 44.469,80.84 0,39.05 -8.172,80.32 -44.469,80.32 -36.308,0 -44.945,-41.27 -44.945,-80.32 0,-38.977 8.637,-80.84 44.945,-80.84 z m 0,201.133 c 47.664,0 102.579,-24.981 102.579,-120.293 0,-97.95 -54.915,-120.6879 -102.579,-120.6879 -47.652,0 -103.031,22.7379 -103.031,120.6879 0,95.312 55.379,120.293 103.031,120.293"
         style="fill:#231f20;fill-opacity:1;fill-rule:nonzero;stroke:none"
         id="path22" />
      <path
         d="m 746.301,139.328 c 0,-14.527 0.437,-28.168 1.789,-38.617 h -52.637 c -0.449,11.809 -1.801,24.09 -1.801,35.91 l -1.351,0.348 0.437,-0.348 c -10.875,-17.23 -25.425,-39.4999 -62.168,-39.4999 -53.113,0 -68.988,39.4999 -68.988,86.6599 v 150.707 h 56.289 V 194.23 c 0,-35.859 10,-50.8 33.574,-50.8 29.95,0 38.59,27.179 38.59,57.148 v 133.91 h 56.266 v -195.16"
         style="fill:#231f20;fill-opacity:1;fill-rule:nonzero;stroke:none"
         id="path24" />
      <path
         d="m 798.887,295.879 c 0,14.512 -0.442,28.16 -1.821,38.609 h 50.825 c 0.468,-14.09 1.82,-28.617 1.82,-42.707 h 0.894 c 6.817,18.149 24.5,46.321 59.461,46.321 3.645,0 6.364,-0.903 9.512,-1.364 v -52.617 c -4.988,1.34 -9.953,2.25 -15.855,2.25 -23.149,0 -48.535,-14.062 -48.535,-57.633 V 100.711 h -56.301 v 195.168"
         style="fill:#231f20;fill-opacity:1;fill-rule:nonzero;stroke:none"
         id="path26" />
      <path
         d="m 1205,221.461 -39.94,147.918 h -0.9 L 1120.6,221.461 Z m 12.24,-44.449 h -108.9 l -22.7,-76.301 h -58.08 l 106.21,316.801 h 63.54 L 1299.4,100.711 h -59.94 l -22.22,76.301"
         style="fill:#231f20;fill-opacity:1;fill-rule:nonzero;stroke:none"
         id="path28" />
      <path
         d="m 1412.79,142.031 c 35.38,0 49.46,25.391 49.46,78.489 0,49.031 -18.61,75.359 -45.37,74.902 -29.5,-0.481 -40.86,-27.641 -40.86,-75.32 0,-54.961 17.71,-78.071 36.77,-78.071 z m -81.23,-77.5505 c 13.18,-7.2813 39.48,-20.0313 69,-20.0313 53.07,0 61.69,36.7422 61.69,73.4808 v 22.289 h -0.89 c -9.07,-18.129 -24.98,-39.508 -61.74,-39.508 -32.66,0 -81.67,21.859 -81.67,116.23 0,64.368 23.14,121.161 84.39,121.161 34.04,0 49.95,-19.512 61.73,-39.973 h 1.8 c 0,12.262 1.34,24.101 1.82,36.359 h 50.85 c -0.93,-12.258 -1.82,-24.558 -1.82,-36.84 V 125.27 C 1516.72,52.1992 1494.44,0 1408.69,0 c -37.19,0 -66.66,9.51172 -80.33,14.5117 l 3.2,49.9688"
         style="fill:#231f20;fill-opacity:1;fill-rule:nonzero;stroke:none"
         id="path30" />
      <path
         d="m 1569.78,295.879 c 0,14.512 -0.49,28.16 -1.86,38.609 h 50.85 c 0.45,-14.09 1.81,-28.617 1.81,-42.707 h 0.92 c 6.81,18.149 24.51,46.321 59.46,46.321 3.61,0 6.35,-0.903 9.51,-1.364 v -52.617 c -5.02,1.34 -9.99,2.25 -15.88,2.25 -23.12,0 -48.55,-14.062 -48.55,-57.633 V 100.711 h -56.26 v 195.168"
         style="fill:#231f20;fill-opacity:1;fill-rule:nonzero;stroke:none"
         id="path32" />
      <path
         d="m 1733.1,334.488 h 56.26 V 100.711 h -56.26 z m -0.94,99.371 h 58.12 v -55.371 h -58.12 v 55.371"
         style="fill:#231f20;fill-opacity:1;fill-rule:nonzero;stroke:none"
         id="path34" />
      <path
         d="m 2004.45,106.629 c -13.17,-4.938 -32.69,-9.5079 -55.38,-9.5079 -77.14,0 -109.81,53.9689 -109.81,120.2699 0,66.73 34.49,120.711 113.02,120.711 17.7,0 38.56,-5.481 48.97,-9.582 l -3.14,-44.399 c -9.98,4.949 -24.09,11.301 -39.53,11.301 -42.6,0 -61.22,-28.57 -61.22,-78.481 0,-43.57 20.88,-77.152 63.99,-77.152 13.59,0 32.19,6.34 39.9,11.301 l 3.2,-44.461"
         style="fill:#231f20;fill-opacity:1;fill-rule:nonzero;stroke:none"
         id="path36" />
      <path
         d="m 2223.63,139.328 c 0,-14.527 0.44,-28.168 1.8,-38.617 h -52.65 c -0.48,11.809 -1.81,24.09 -1.81,35.91 l -1.38,0.348 0.46,-0.348 c -10.87,-17.23 -25.42,-39.4999 -62.16,-39.4999 -53.12,0 -68.98,39.4999 -68.98,86.6599 v 150.707 h 56.28 V 194.23 c 0,-35.859 9.99,-50.8 33.58,-50.8 29.97,0 38.52,27.179 38.52,57.148 v 133.91 h 56.34 v -195.16"
         style="fill:#231f20;fill-opacity:1;fill-rule:nonzero;stroke:none"
         id="path38" />
      <path
         d="m 2279.83,441.102 h 56.26 V 100.711 h -56.26 v 340.391"
         style="fill:#231f20;fill-opacity:1;fill-rule:nonzero;stroke:none"
         id="path40" />
      <path
         d="m 2413.22,382.531 56.3,17.239 v -65.282 h 46.73 V 293.18 h -46.73 V 171.961 c 0,-24.941 9.07,-32.172 25.39,-32.172 9.97,0 17.25,2.699 21.34,5.012 V 104.82 c -8.63,-4.109 -20.86,-7.6989 -37.66,-7.6989 -41.73,0 -65.37,19.0389 -65.37,68.0199 V 293.18 h -37.2 v 41.308 h 37.2 v 48.043"
         style="fill:#231f20;fill-opacity:1;fill-rule:nonzero;stroke:none"
         id="path42" />
      <path
         d="m 2736.75,139.328 c 0,-14.527 0.4,-28.168 1.87,-38.617 h -52.67 c -0.48,11.809 -1.77,24.09 -1.77,35.91 l -1.45,0.348 0.52,-0.348 c -10.93,-17.23 -25.41,-39.4999 -62.21,-39.4999 -53.08,0 -68.99,39.4999 -68.99,86.6599 v 150.707 h 56.3 V 194.23 c 0,-35.859 9.93,-50.8 33.57,-50.8 29.97,0 38.57,27.179 38.57,57.148 v 133.91 h 56.26 v -195.16"
         style="fill:#231f20;fill-opacity:1;fill-rule:nonzero;stroke:none"
         id="path44" />
      <path
         d="m 2789.37,295.879 c 0,14.512 -0.48,28.16 -1.83,38.609 h 50.86 c 0.46,-14.09 1.82,-28.617 1.82,-42.707 h 0.88 c 6.81,18.149 24.51,46.321 59.43,46.321 3.66,0 6.36,-0.903 9.53,-1.364 v -52.617 c -4.99,1.34 -9.99,2.25 -15.82,2.25 -23.22,0 -48.61,-14.062 -48.61,-57.633 V 100.711 h -56.26 v 195.168"
         style="fill:#231f20;fill-opacity:1;fill-rule:nonzero;stroke:none"
         id="path46" />
      <path
         d="m 3072.03,237.789 c 0,41.289 -13.53,62.211 -38.98,62.211 -29.51,0 -41.8,-31.34 -41.8,-62.211 z m 42.69,-125.75 c -11.78,-4.93 -36.34,-14.9179 -69.92,-14.9179 -75.3,0 -107.99,53.9689 -107.99,117.1089 0,69.891 36.75,123.872 96.24,123.872 50.37,0 93.42,-29.5 93.42,-124.782 v -10.961 h -135.22 c 0,-39.929 15.93,-63.91 59.44,-63.91 34.55,0 50.85,10.41 61.3,18.102 l 2.73,-44.512"
         style="fill:#231f20;fill-opacity:1;fill-rule:nonzero;stroke:none"
         id="path48" />
      <path
         d="m 3497.68,107.52 c -11.82,-6.301 -39.98,-11.3403 -68.56,-11.3403 -96.24,0 -145.67,70.3593 -145.67,162.9493 0,92.551 49.43,162.859 143.9,162.859 32.22,0 58.51,-8.59 70.33,-13.047 l -3.19,-52.222 c -11.81,5.89 -30.4,17.242 -59.91,17.242 -48.12,0 -89.41,-32.699 -89.41,-114.832 0,-82.117 41.29,-114.809 89.41,-114.809 28.17,0 46.76,6.77 59.91,16.36 l 3.19,-53.16"
         style="fill:#231f20;fill-opacity:1;fill-rule:nonzero;stroke:none"
         id="path50" />
      <path
         d="m 3636.94,136.969 c 36.28,0 44.46,41.863 44.46,80.84 0,39.05 -8.18,80.32 -44.46,80.32 -36.33,0 -44.91,-41.27 -44.91,-80.32 0,-38.977 8.58,-80.84 44.91,-80.84 z m 0,201.133 c 47.67,0 102.59,-24.981 102.59,-120.293 0,-97.95 -54.92,-120.6879 -102.59,-120.6879 -47.61,0 -103.04,22.7379 -103.04,120.6879 0,95.312 55.43,120.293 103.04,120.293"
         style="fill:#231f20;fill-opacity:1;fill-rule:nonzero;stroke:none"
         id="path52" />
      <path
         d="m 3782.53,296.301 c 0,16.82 -0.89,29.508 -1.77,38.187 h 56.26 c 0.46,-12.258 1.83,-24.558 1.83,-36.84 h 0.88 c 8.63,18.172 26.8,40.454 59.02,40.454 39.5,0 52.2,-24.524 59.01,-37.223 11.34,16.34 28.16,37.223 62.56,37.223 50.85,0 67.19,-36.332 67.19,-93.02 V 100.711 h -56.26 v 147.551 c 0,28.976 -9.05,43.519 -29.97,43.519 -24.93,0 -38.11,-23.59 -38.11,-49.453 V 100.711 h -56.26 v 147.551 c 0,28.976 -9.05,43.519 -29.93,43.519 -24.98,0 -38.13,-23.59 -38.13,-49.453 V 100.711 h -56.32 v 195.59"
         style="fill:#231f20;fill-opacity:1;fill-rule:nonzero;stroke:none"
         id="path54" />
      <path
         d="m 4237.73,138.449 c 31.23,0 42.15,30.332 42.15,77.121 0,53.981 -8.65,81.192 -41.27,81.192 -33.15,0 -44.5,-35.864 -44.5,-79.821 0,-45.453 12.7,-78.492 43.62,-78.492 z m -99.88,156.082 c 0,16.77 -0.48,31.278 -1.82,39.957 h 52.67 c 0.88,-6.859 1.82,-20.488 1.82,-36.359 h 1.35 c 9.01,20.031 25.81,39.973 62.09,39.973 58.19,0 82.18,-55.332 82.18,-120.293 0,-76.258 -30.45,-120.6879 -80.78,-120.6879 -33.56,0 -52.15,19.0389 -60.31,37.1489 h -0.94 V 2.71094 h -56.26 V 294.531"
         style="fill:#231f20;fill-opacity:1;fill-rule:nonzero;stroke:none"
         id="path56" />
      <path
         d="m 4502.65,215.109 h -5.01 c -48.09,0 -76.66,-9.988 -76.66,-44.039 0,-21.332 14.05,-35.859 35.86,-35.859 33.51,0 45.81,24.988 45.81,66.73 z m -110.71,105.75 c 15.86,7.243 38.09,17.243 73.97,17.243 72.6,0 89.41,-35.391 89.41,-93.903 V 142.031 c 0,-16.761 1.82,-32.211 3.11,-41.32 h -50.8 c -2.71,9.109 -3.17,20.488 -3.17,31.789 h -0.88 c -14.11,-19.09 -31.81,-35.3789 -65.43,-35.3789 -36.27,0 -69.79,24.9689 -69.79,68.5389 0,63.488 51.73,79.422 122.93,79.422 h 11.36 v 8.59 c 0,23.109 -11.36,44.457 -43.52,44.457 -28.16,0 -53.13,-13.609 -64.02,-22.707 l -3.17,45.437"
         style="fill:#231f20;fill-opacity:1;fill-rule:nonzero;stroke:none"
         id="path58" />
      <path
         d="m 4607.46,295.879 c 0,14.512 -0.46,28.16 -1.83,38.609 h 52.62 c 0.48,-11.797 1.83,-24.097 1.83,-35.859 h 1.36 -0.48 c 8.17,14.012 24.05,39.473 62.2,39.473 53.08,0 68.96,-39.473 68.96,-86.731 v -150.66 h -56.21 V 240.98 c 0,35.801 -9.16,50.801 -32.27,50.801 -29.45,0 -39.92,-24.929 -39.92,-54.859 V 100.711 h -56.26 v 195.168"
         style="fill:#231f20;fill-opacity:1;fill-rule:nonzero;stroke:none"
         id="path60" />
      <path
         d="m 4925.05,157.969 h 0.88 l 44.98,176.519 h 54.49 L 4940.04,56.2617 C 4930.11,24.0391 4911.01,0 4873.37,0 c -15,0 -27.7,3.17188 -35.86,5.87109 l 3.18,43.16021 c 6.29,-2.3516 12.64,-4.5821 21.34,-4.5821 16.76,-0.4687 24,9.9922 31.28,34.0391 l 4.1,19.9805 -77.61,236.0192 h 58.09 l 47.16,-176.519"
         style="fill:#231f20;fill-opacity:1;fill-rule:nonzero;stroke:none"
         id="path62" />
      <path
         d="M 1196.5,1250.42 800.219,1902.98 0,588.91 Z"
         style="fill:#231f20;fill-opacity:1;fill-rule:nonzero;stroke:none"
         id="path64" />
      <path
         d="m 291.543,588.91 921.157,634.91 -10.35,17.02 L 152.105,588.91 h 139.438"
         style="fill:#231f20;fill-opacity:1;fill-rule:nonzero;stroke:none"
         id="path66" />
      <path
         d="m 583.336,588.91 656.814,589.74 -15.26,25.04 -787.456,-614.78 h 145.902"
         style="fill:#231f20;fill-opacity:1;fill-rule:nonzero;stroke:none"
         id="path68" />
      <path
         d="m 868.66,588.91 409.64,526.91 -19.5,32.13 L 722.773,588.91 H 868.66"
         style="fill:#231f20;fill-opacity:1;fill-rule:nonzero;stroke:none"
         id="path70" />
      <path
         d="m 1596.83,588.91 c 0,0 -197.91,320.445 -289.52,479.24 L 1008.09,588.91 h 588.74"
         style="fill:#231f20;fill-opacity:1;fill-rule:nonzero;stroke:none"
         id="path72" />
    </g>
  </g>
</svg>
