<?xml version="1.0" encoding="utf-8"?>
<!-- Generator: Adobe Illustrator 26.5.0, SVG Export Plug-In . SVG Version: 6.00 Build 0)  -->
<svg version="1.1" id="Layer_1" xmlns="http://www.w3.org/2000/svg" xmlns:xlink="http://www.w3.org/1999/xlink" x="0px" y="0px"
	 viewBox="0 0 165.8 100.8" style="enable-background:new 0 0 165.8 100.8;" xml:space="preserve">
<style type="text/css">
	.st0{fill-rule:evenodd;clip-rule:evenodd;fill:#FFFFFF;}
</style>
<path class="st0" d="M134.7,100.8H7.5c-4.1,0-7.5-3.4-7.5-7.5V31.1c0-2.7,1-5.2,3-7.1L24,3c1.9-1.9,4.4-3,7.1-3h127.3
	c4.1,0,7.5,3.4,7.5,7.5v62.2c0,2.7-1,5.2-3,7.1l-21,21C140,99.8,137.4,100.8,134.7,100.8z M9.8,91h125c0.1,0,0.2,0,0.2-0.1l21-21
	c0.1-0.1,0.1-0.1,0.1-0.2V9.8h-125c-0.1,0-0.2,0-0.2,0.1l-21,21c-0.1,0.1-0.1,0.1-0.1,0.2V91z M137.3,40.6h-8.8
	c-0.5,0-0.9,0.4-0.9,0.9V69c0,0.5-0.4,0.9-0.9,0.9h-7.9c-0.5,0-0.9-0.4-0.9-0.9V41.6c0-0.5-0.4-0.9-0.9-0.9h-8.7
	c-0.5,0-0.9-0.4-0.9-0.9v-7.9c0-0.5,0.4-0.9,0.9-0.9h29.1c0.5,0,0.9,0.4,0.9,0.9v7.9C138.2,40.2,137.8,40.6,137.3,40.6z M103.1,69.9
	h-8.9c-0.3,0-0.6-0.1-0.9-0.3c-0.3-0.2-0.5-0.4-0.7-0.6l-5.9-10.3c-0.1-0.1-0.2-0.2-0.4-0.2H80c-0.2,0-0.3,0.1-0.3,0.3v10
	c0,0.7-0.4,1.1-1.1,1.1H71c-0.7,0-1.1-0.4-1.1-1.1V32c0-0.7,0.4-1.1,1.1-1.1h24.9c0.9,0,1.7,0.2,2.5,0.5c0.8,0.4,1.5,0.8,2.1,1.4
	c0.6,0.6,1,1.3,1.4,2.1c0.4,0.8,0.5,1.6,0.5,2.5v14.7c0,1.4-0.4,2.7-1.3,3.8c-0.8,1.1-1.9,1.9-3.2,2.3l-0.2,0.1
	c-0.3,0.1-0.3,0.2-0.2,0.3l0.1,0.1l6,10.3c0.1,0.3,0.2,0.5,0.1,0.6C103.6,69.8,103.4,69.9,103.1,69.9z M92.7,39.9h-13v9.8h13V39.9z
	 M62.5,69.9h-7.9c-0.5,0-0.9-0.4-0.9-0.9V56.2c0-0.5-0.4-0.9-0.9-0.9H41.6c-0.5,0-0.9,0.4-0.9,0.9V69c0,0.5-0.4,0.9-0.9,0.9h-7.9
	c-0.5,0-0.9-0.4-0.9-0.9V31.8c0-0.5,0.4-0.9,0.9-0.9h7.9c0.5,0,0.9,0.4,0.9,0.9v12.8c0,0.5,0.4,0.9,0.9,0.9h11.2
	c0.5,0,0.9-0.4,0.9-0.9V31.8c0-0.5,0.4-0.9,0.9-0.9h7.9c0.5,0,0.9,0.4,0.9,0.9V69C63.4,69.5,63,69.9,62.5,69.9z"/>
</svg>
