<svg width="194" height="37" viewBox="0 0 194 37" fill="none" xmlns="http://www.w3.org/2000/svg">
<path d="M37.3073 4.40534C32.236 1.91574 26.3984 0.514679 20.3193 0.514679C14.2197 0.514679 8.38959 1.92614 3.30733 4.42774C1.50519 8.78548 0.513062 13.5381 0.513062 18.5173C0.513062 23.4939 1.5052 28.2455 3.30466 32.5996C8.3896 35.1048 14.2197 36.5136 20.3193 36.5136C26.3984 36.5136 32.238 35.11 37.3099 32.6231C39.1172 28.2611 40.112 23.5016 40.112 18.5173C40.112 13.5303 39.1156 8.76734 37.3073 4.40534Z" fill="#231F20"/>
<path d="M14.914 14.4329C14.0964 16.0616 13.5287 17.8845 13.2959 19.9652C13.2292 19.9731 12.8125 20.0095 12.8125 20.0095C11.1052 20.1657 9.34014 20.2985 7.62761 20.96L7.74841 21.6527C10.5407 25.124 14.7693 27.2179 14.8125 27.236L14.9099 27.1319L13.9964 25.6761C13.7787 25.5121 13.2073 25.3819 13.1901 25.3793C11.2855 24.7439 9.94894 22.2543 9.72921 21.8272C11.2979 21.822 12.6755 22.2777 14.0088 22.7179C14.8896 23.0095 15.7188 23.2829 16.5765 23.4236C18.0869 23.6657 19.6667 23.3819 21.0885 23.2048C22.2421 23.0668 23.3604 23.0693 24.4765 23.1423C24.6093 23.3064 25.7823 24.7256 26.8995 25.3089C28.3031 26.046 32.3896 27.2647 32.5912 27.3349C32.6745 27.4131 34.2473 28.9955 35.2145 30.8288C30.638 32.9355 25.488 34.0501 20.3177 34.0501C15.1344 34.0501 9.96774 32.9277 5.37241 30.7975C3.85521 26.8715 3.08601 22.7439 3.08601 18.5147C3.08601 14.2923 3.85681 10.1579 5.37508 6.23082C9.96774 4.10322 15.1344 2.97828 20.3177 2.97828C25.5 2.97828 30.6615 4.09802 35.2421 6.21268C36.764 10.1449 37.5364 14.2845 37.5364 18.5147C37.5364 22.3897 36.8917 26.1761 35.624 29.7819C34.164 27.2516 33.5729 26.486 33.5729 26.486C33.5547 26.4731 31.5131 25.4079 31.0068 24.9731C30.6041 24.624 30.4131 23.9131 30.1901 23.0903C29.8812 21.9496 29.4948 20.5381 28.388 19.3704L29.6172 18.8679C29.276 16.4991 26.4688 14.96 26.4401 14.9418L26.2812 15.0173C27.3527 16.3584 27.6651 17.5043 27.6651 18.1996C27.6651 18.5564 27.6093 18.7923 27.5849 18.8897C27.2631 18.7725 25.1901 18.1021 20.4765 18.2777C19.7839 18.3027 18.7943 18.2699 18.2021 17.697C17.8672 17.3715 17.6989 16.9079 17.6989 16.3105C17.6989 16.3064 17.6989 16.3064 17.6989 16.3053C17.7021 14.6709 18.3907 12.4668 18.4896 12.1553L19.7197 12.3064C21.1823 11.4912 21.7568 10.7907 21.836 10.6829L21.7683 10.6111C20.5183 10.7699 18.8828 11.1007 18.8828 11.1007C18.9912 10.8141 19.3229 9.87148 19.3229 8.80642C19.3229 7.65788 18.9375 6.36628 17.4751 5.61628L17.3193 5.69335C17.3317 5.70482 18.1719 6.61628 18.1719 7.86882C18.1719 8.21522 18.1041 8.59028 17.9375 8.97828C17.4609 8.77775 17.2631 8.75948 16.6917 8.74388C16.4131 7.76215 15.5584 6.93028 14.3932 6.50948L14.2516 6.59282C14.264 6.60322 15.4973 7.48082 15.5693 8.77508C14.9469 8.82615 14.6823 8.88708 13.9167 9.12148C13.5953 8.58402 12.862 8.19962 11.9437 8.08922L11.8245 8.18135C11.8349 8.18655 12.9183 8.56162 13.1615 9.39228C12.488 9.70122 11.7927 10.1762 11.3193 10.5579L11.3672 10.7387C14.1755 9.64748 16.7995 9.32722 17.4688 10.1231C17.5817 10.2569 17.6396 10.4147 17.6396 10.5996C17.6396 10.834 17.5495 11.1032 17.3724 11.4121C15.9807 11.7152 13.9036 12.3079 12.1937 12.9496L12.4203 13.6683C12.4203 13.6683 14.1407 14.0174 14.7917 14.1527C14.7917 14.1527 15.0364 14.1865 14.914 14.4329ZM36.0989 5.47042C31.3636 3.24122 25.9437 1.98868 20.3177 1.98868C14.6771 1.98868 9.26721 3.24802 4.51827 5.49122C2.91307 9.53975 2.03748 13.9314 2.03748 18.5251C2.03748 23.1032 2.91307 27.4912 4.50881 31.5345C9.25787 33.7819 14.6719 35.0423 20.3177 35.0423C25.9479 35.0423 31.3708 33.7897 36.1093 31.5553C37.7084 27.5095 38.586 23.1136 38.586 18.5251C38.586 13.9236 37.7041 9.52508 36.0989 5.47042Z" fill="white"/>
<path d="M50.0068 23.6293C50.0068 23.6293 51.736 24.2532 53.6719 24.2532C55.736 24.2532 57.0235 23.9693 57.7412 23.2376C58.3385 22.6371 58.5755 21.6319 58.5459 20.1464C58.5459 20.1412 58.5459 10.274 58.5459 10.274H61.5953V20.572C61.5511 25.1345 59.3473 27.0813 54.2281 27.0813C51.738 27.0813 50.0068 26.6829 50.0068 26.6829V23.6293Z" fill="#231F20"/>
<path d="M75.9896 20.1215C75.9896 17.4652 74.2516 15.9392 71.2177 15.9392C68.1839 15.9392 66.4391 17.4652 66.4391 20.1215C66.4391 23.8272 69.436 24.3808 71.2177 24.3808C73 24.3808 75.9896 23.8272 75.9896 20.1215ZM71.2177 13.2335C76.1136 13.2335 79.0375 15.8627 79.0375 20.2621C79.0375 23.4043 76.988 27.0813 71.2177 27.0813C65.4469 27.0813 63.3995 23.4043 63.3995 20.2621C63.3995 15.8627 66.3213 13.2335 71.2177 13.2335Z" fill="#231F20"/>
<path d="M91.815 13.5485V18.8079H83.888V13.5485H80.8437V26.7699H83.888V21.5136H91.815V26.7699H94.8593V13.5485H91.815Z" fill="#231F20"/>
<path d="M140.236 24.0668V21.5136H147.261V18.8079H140.236V16.2543H149.321V13.5485H137.192V26.7699H149.321V24.0668H140.236Z" fill="#231F20"/>
<path d="M154.4 24.0668V21.5136H161.431V18.8079H154.4V16.2543H163.485V13.5485H151.351V26.7699H163.485V24.0668H154.4Z" fill="#231F20"/>
<path d="M183.936 24.0668V21.5136H190.972V18.8079H183.936V16.2543H193.028V13.5485H180.897V26.7699H193.028V24.0668H183.936Z" fill="#231F20"/>
<path d="M126.304 10.2569H118.941V26.7699H126.304C133.187 26.7699 135.629 22.3923 135.629 18.6335C135.629 13.3939 132.139 10.2569 126.304 10.2569ZM126.304 12.9887C130.283 12.9887 132.564 14.9824 132.564 18.4652C132.564 23.322 128.639 24.046 126.304 24.046H121.999V12.9887H126.304Z" fill="#231F20"/>
<path d="M168.728 19.2272V16.2543H174.296C175.365 16.2543 175.98 16.7897 175.98 17.7272C175.98 19.0345 174.923 19.2349 174.296 19.2349L168.728 19.2272ZM175.668 21.7308C177.977 21.1736 178.859 19.3835 178.859 17.7923C178.859 15.136 177.095 13.5485 174.129 13.5485H165.515V26.7699H168.561V21.934H172.139L175.813 26.7699H179.499L175.668 21.7308Z" fill="#231F20"/>
<path d="M108.308 26.7699L100.386 17.7569V26.7699H97.3401V13.5485H100.36L108.308 22.4704V13.5485H111.358V26.7699H108.308Z" fill="#231F20"/>
</svg>
