<svg width="925" height="243" viewBox="0 0 925 243" fill="none" xmlns="http://www.w3.org/2000/svg">
<g clip-path="url(#clip0_13_2)">
<path d="M0 46C34.65 46 69.3 46 105 46C105 59.86 105 73.72 105 88C97.41 88 89.82 88 82 88C82 110.44 82 132.88 82 156C89.59 156 97.18 156 105 156C105 169.53 105 183.06 105 197C70.35 197 35.7 197 0 197C0 183.47 0 169.94 0 156C7.59 156 15.18 156 23 156C23 133.56 23 111.12 23 88C15.41 88 7.82 88 0 88C0 74.14 0 60.28 0 46Z" fill="#FF562F"/>
<path d="M0 46C34.65 46 69.3 46 105 46C105 59.86 105 73.72 105 88C97.41 88 89.82 88 82 88C82 110.44 82 132.88 82 156C89.59 156 97.18 156 105 156C105 169.53 105 183.06 105 197C70.35 197 35.7 197 0 197C0 183.47 0 169.94 0 156C7.59 156 15.18 156 23 156C23 133.56 23 111.12 23 88C15.41 88 7.82 88 0 88C0 74.14 0 60.28 0 46ZM6 52C6 61.9 6 71.8 6 82C12.8659 82.2892 12.8659 82.2892 19.7322 82.5681C20.5824 82.6062 21.4326 82.6443 22.3086 82.6836C23.1831 82.7203 24.0577 82.7569 24.9587 82.7947C27 83 27 83 28 84C28.1055 86.3317 28.1468 88.634 28.1453 90.9666C28.1486 91.695 28.152 92.4235 28.1554 93.174C28.165 95.5939 28.1669 98.0137 28.168 100.434C28.1712 102.109 28.1745 103.784 28.1781 105.459C28.1841 108.976 28.1859 112.493 28.1853 116.009C28.1852 120.523 28.1989 125.037 28.2161 129.551C28.2272 133.013 28.2292 136.474 28.2287 139.936C28.2299 141.6 28.2343 143.265 28.242 144.929C28.2518 147.254 28.249 149.579 28.2429 151.904C28.2485 152.597 28.2542 153.289 28.2599 154.003C28.2283 158.772 28.2283 158.772 26 161C23.937 161.319 23.937 161.319 21.4297 161.414C20.219 161.467 20.219 161.467 18.9839 161.522C17.445 161.573 17.445 161.573 15.875 161.625C10.9869 161.811 10.9869 161.811 6 162C6 171.57 6 181.14 6 191C36.69 191 67.38 191 99 191C99 181.43 99 171.86 99 162C92.5084 161.751 92.5084 161.751 86.0161 161.522C85.209 161.486 84.4019 161.451 83.5703 161.414C82.3292 161.367 82.3292 161.367 81.063 161.319C79 161 79 161 77 159C76.8071 156.596 76.7376 154.308 76.7571 151.904C76.7552 151.174 76.7533 150.444 76.7513 149.691C76.7476 147.272 76.7583 144.853 76.7695 142.434C76.7707 140.757 76.7712 139.081 76.7709 137.405C76.7725 133.89 76.7808 130.375 76.7942 126.861C76.8112 122.345 76.815 117.83 76.8142 113.315C76.8145 109.853 76.82 106.392 76.8272 102.931C76.8304 101.265 76.8324 99.5997 76.8331 97.9343C76.8353 95.6117 76.844 93.2892 76.8547 90.9666C76.8543 90.272 76.8538 89.5774 76.8534 88.8618C76.8855 84.1145 76.8855 84.1145 78 83C79.5595 82.8431 81.1254 82.7492 82.6914 82.6836C83.9667 82.6264 83.9667 82.6264 85.2678 82.5681C86.3551 82.525 87.4423 82.4819 88.5625 82.4375C92.0069 82.2931 95.4513 82.1488 99 82C99 72.1 99 62.2 99 52C68.31 52 37.62 52 6 52Z" fill="#FFFEFE"/>
<path d="M261 66C265.641 65.9381 270.281 65.8762 275.062 65.8125C277.238 65.7715 277.238 65.7715 279.457 65.7297C287.873 65.6754 293.365 65.8395 299.875 71.5C303.809 76.1283 303.333 80.9256 303.281 86.7539C302.885 91.3298 301.91 93.4604 299 97C296.355 98.1758 296.355 98.1758 294 99C294.364 99.6257 294.727 100.251 295.102 100.896C296.739 103.72 298.369 106.547 300 109.375C300.859 110.852 300.859 110.852 301.734 112.359C302.276 113.3 302.817 114.241 303.375 115.211C303.878 116.08 304.38 116.95 304.898 117.845C306 120 306 120 306 122C301.05 122 296.1 122 291 122C289.515 119.42 288.037 116.836 286.562 114.25C286.142 113.52 285.721 112.791 285.287 112.039C284.683 110.976 284.683 110.976 284.066 109.891C283.695 109.241 283.323 108.592 282.94 107.923C281.981 105.962 281.45 104.13 281 102C279.02 102 277.04 102 275 102C275 108.6 275 115.2 275 122C270.38 122 265.76 122 261 122C261 103.52 261 85.04 261 66ZM275 77C275 81.62 275 86.24 275 91C282.001 91.634 282.001 91.634 288.188 88.9375C290.323 86.0522 290.323 86.0522 290 82.3125C289.306 78.7446 289.306 78.7446 286 77C283.255 76.7581 283.255 76.7581 280.312 76.875C278.559 76.9162 276.806 76.9575 275 77Z" fill="white"/>
<path d="M553 62C557.29 62 561.58 62 566 62C566.33 68.27 566.66 74.54 567 81C568.98 80.01 570.96 79.02 573 78C577.855 77.1784 581.897 77.5388 586.438 79.4375C591.774 84.774 592.254 91.3561 592.293 98.6602C592.284 101.462 592.238 104.262 592.188 107.062C592.172 108.515 592.159 109.967 592.146 111.42C592.116 114.947 592.058 118.473 592 122C587.38 122 582.76 122 578 122C577.939 119.846 577.879 117.692 577.816 115.473C577.755 113.394 577.691 111.316 577.628 109.238C577.584 107.789 577.543 106.341 577.503 104.893C577.445 102.815 577.381 100.738 577.316 98.6602C577.28 97.4086 577.243 96.157 577.205 94.8674C577.322 92.1037 577.322 92.1037 576 91C571.968 90.7371 570.441 90.706 567 93C566.488 96.0041 566.488 96.0041 566.488 99.5391C566.453 100.841 566.417 102.143 566.381 103.484C566.358 104.865 566.335 106.245 566.312 107.625C566.279 109.013 566.245 110.401 566.209 111.789C566.126 115.192 566.061 118.596 566 122C561.71 122 557.42 122 553 122C553 102.2 553 82.4 553 62Z" fill="white"/>
<path d="M619 66C647 66 647 66 655 69C659.733 73.8338 661.15 77.1564 661.25 83.8125C661.192 88.6557 660.937 91.986 658 96C652.087 101.656 647.81 103.277 639.688 103.125C636.377 103.063 636.377 103.063 633 103C633 109.27 633 115.54 633 122C628.38 122 623.76 122 619 122C619 103.52 619 85.04 619 66ZM633 77C633 81.95 633 86.9 633 92C640.001 92.6595 640.001 92.6595 646.125 89.875C648.334 86.4882 648.759 84.9614 648 81C646.821 78.4009 646.821 78.4009 644 77C640.266 76.6669 636.763 76.8208 633 77Z" fill="white"/>
<path d="M746 62C750.62 62 755.24 62 760 62C760.33 72.23 760.66 82.46 761 93C764.247 88.7673 764.247 88.7673 767.492 84.5334C770.889 80.1111 770.889 80.1111 772 79C774.53 78.9269 777.033 78.9075 779.562 78.9375C780.629 78.9443 780.629 78.9443 781.717 78.9512C783.478 78.963 785.239 78.9809 787 79C784.396 83.7457 780.96 87.5737 777.232 91.4512C775.669 93.1233 775.669 93.1233 774 96C774.708 101.214 778.032 105.335 781 109.562C781.9 110.852 782.796 112.145 783.688 113.441C784.281 114.287 784.281 114.287 784.887 115.151C786 117 786 117 788 122C783.05 122 778.1 122 773 122C772.446 121.001 771.891 120.002 771.32 118.973C770.589 117.669 769.857 116.366 769.125 115.062C768.76 114.403 768.395 113.744 768.02 113.064C766.146 109.421 766.146 109.421 763 107C761.087 110.266 760.643 112.994 760.375 116.75C760.251 118.482 760.127 120.215 760 122C755.38 122 750.76 122 746 122C746 102.2 746 82.4 746 62Z" fill="white"/>
<path d="M179 0C180.98 0 182.96 0 185 0C185 80.19 185 160.38 185 243C183.02 243 181.04 243 179 243C179 162.81 179 82.62 179 0Z" fill="white"/>
<path d="M463.5 79.125C467.403 82.052 469.469 85.4073 471 90C471.085 92.4411 471.116 94.8526 471.098 97.293C471.096 97.999 471.095 98.705 471.093 99.4324C471.088 101.684 471.075 103.936 471.062 106.187C471.057 107.715 471.053 109.243 471.049 110.771C471.038 114.514 471.021 118.257 471 122C467.37 122 463.74 122 460 122C460 121.01 460 120.02 460 119C458.886 119.66 457.772 120.32 456.625 121C451.772 123.388 447.327 124.167 442 123C438.027 120.704 435.46 118.379 434 114C433.655 108.648 433.512 105.33 437 101C440.894 97.3354 444.703 95.943 449.812 94.75C450.505 94.5773 451.198 94.4045 451.912 94.2266C453.605 93.8062 455.302 93.4015 457 93C456.34 92.01 455.68 91.02 455 90C449.252 89.3103 445.197 90.8116 440 93C435.975 86.6583 435.975 86.6583 436.078 83.9062C437.419 81.1338 438.951 80.7816 441.812 79.75C449.08 77.3559 456.162 76.7663 463.5 79.125ZM448 106C446.941 107.979 446.941 107.979 447 110C447.33 110.66 447.66 111.32 448 112C452.66 112.385 452.66 112.385 456.937 110.875C458.445 108.215 458.2 105.998 458 103C453.616 103 451.679 103.711 448 106Z" fill="white"/>
<path d="M695.5 79.125C699.403 82.052 701.469 85.4073 703 90C703.085 92.4411 703.116 94.8526 703.098 97.293C703.096 97.999 703.095 98.705 703.093 99.4324C703.088 101.684 703.075 103.936 703.063 106.187C703.058 107.715 703.053 109.243 703.049 110.771C703.038 114.514 703.021 118.257 703 122C699.37 122 695.74 122 692 122C692 121.01 692 120.02 692 119C690.886 119.66 689.773 120.32 688.625 121C683.772 123.388 679.327 124.167 674 123C670.027 120.704 667.46 118.379 666 114C665.655 108.648 665.512 105.33 669 101C672.894 97.3354 676.703 95.943 681.813 94.75C682.505 94.5773 683.198 94.4045 683.912 94.2266C685.605 93.8062 687.302 93.4015 689 93C688.34 92.01 687.68 91.02 687 90C681.252 89.3103 677.197 90.8116 672 93C667.975 86.6583 667.975 86.6583 668.078 83.9062C669.419 81.1338 670.951 80.7816 673.813 79.75C681.08 77.3559 688.162 76.7663 695.5 79.125ZM680 106C678.941 107.979 678.941 107.979 679 110C679.33 110.66 679.66 111.32 680 112C684.66 112.385 684.66 112.385 688.938 110.875C690.445 108.215 690.2 105.998 690 103C685.616 103 683.679 103.711 680 106Z" fill="white"/>
<path d="M338.375 79.125C343.453 82.7523 346.726 86.861 348 93C348.196 96.6764 348.269 100.326 348 104C347 105 347 105 344.683 105.114C343.683 105.108 342.683 105.103 341.652 105.098C340.573 105.094 339.493 105.091 338.381 105.088C337.245 105.08 336.108 105.071 334.938 105.062C333.797 105.058 332.657 105.053 331.482 105.049C328.655 105.037 325.827 105.021 323 105C325.029 108.756 325.029 108.756 328.293 111.367C331.616 112.144 333.974 111.785 337.313 111.125C338.381 110.921 339.45 110.718 340.551 110.508C341.763 110.256 341.763 110.256 343 110C346.06 115.385 346.06 115.385 345.797 118.094C345 120 345 120 341.688 121.75C335.206 123.872 327.506 124.275 321.063 121.812C315.667 118.619 311.323 114.289 309.438 108.176C308.009 101.073 308.204 93.3131 312 87C318.932 78.3387 327.631 75.5438 338.375 79.125ZM324 91C323.34 92.32 322.68 93.64 322 95C326.62 95 331.24 95 336 95C335.44 90.9006 335.44 90.9007 332.5 89.25C328.59 87.295 327.591 88.5478 324 91Z" fill="white"/>
<path d="M420.312 79.375C425.257 82.2532 427.479 86.6087 429 92C429.376 96.4312 429.237 100.538 429 105C420.75 105 412.5 105 404 105C406.394 109.884 406.394 109.884 409.293 111.367C412.616 112.144 414.974 111.785 418.312 111.125C419.381 110.921 420.45 110.718 421.551 110.508C422.763 110.256 422.763 110.256 424 110C425.32 112.64 426.64 115.28 428 118C422.224 122.888 416.318 123.463 408.969 123.309C402.843 122.672 398.789 120.131 394.625 115.688C390.305 110.17 389.194 103.898 390 97C391.34 90.4804 393.947 85.3973 399 81C405.608 77.0605 413.146 76.522 420.312 79.375ZM407.187 89.125C404.595 90.9814 404.595 90.9814 404 95C408.29 95 412.58 95 417 95C416.67 93.35 416.34 91.7 416 90C411.662 88.0548 411.662 88.0548 407.187 89.125Z" fill="white"/>
<path d="M386 83C384.278 86.7649 382.008 89.1506 379 92C378.134 91.505 377.267 91.01 376.375 90.5C372.893 88.9522 370.752 88.732 367 89C367 90.32 367 91.64 367 93C367.568 93.1702 368.137 93.3403 368.723 93.5156C374.82 95.4292 380.647 97.268 384.938 102.25C386.758 106.961 386.821 111.099 384.812 115.75C381.989 119.255 379.287 121.571 375 123C366.041 123.88 359.628 122.821 352 118C352.823 114.015 354.661 111.321 357 108C357.568 108.289 358.137 108.577 358.723 108.875C363.786 111.31 367.386 112.478 373 112C372.898 110.059 372.898 110.059 372 108C369.667 106.595 369.667 106.595 366.812 105.562C361.714 103.414 356.598 101.196 354 96C353.491 91.2863 353.308 87.3011 355.562 83.0625C365.169 74.9339 375.884 76.8555 386 83Z" fill="white"/>
<path d="M543.687 80C544.781 80.66 545.874 81.32 547 82C545.286 85.5523 543.223 88.7402 541 92C540.484 91.6494 539.969 91.2987 539.437 90.9375C535.942 89.593 533.59 90.0862 530 91C526.827 93.6444 526.307 96.929 525.93 100.969C526.042 104.204 527.231 106.347 529 109C532.892 111.595 534.513 110.866 539 110C540.339 109.691 541.677 109.371 543 109C547 115.625 547 115.625 547 119C540.332 123.103 534.787 124.018 527 123C520.849 121.262 516.34 117.406 513 112C510.027 104.74 510.346 97.4273 513.035 90.1406C515.703 84.2211 519.578 81.0295 525.473 78.6953C531.827 76.9472 537.749 77.0621 543.687 80Z" fill="white"/>
<path d="M737.188 77.9375C739.075 77.9684 739.075 77.9684 741 78C742.073 81.2719 741.893 83.4295 741.062 86.75C740.868 87.5492 740.673 88.3484 740.473 89.1719C740.317 89.7752 740.161 90.3784 740 91C738.763 90.9175 737.525 90.835 736.25 90.75C732.991 90.7385 732.253 90.8058 729.562 92.875C727.035 96.3121 726.833 98.4261 726.684 102.664C726.642 103.786 726.6 104.907 726.557 106.062C726.498 107.826 726.498 107.826 726.438 109.625C726.394 110.808 726.351 111.992 726.307 113.211C726.2 116.14 726.1 119.07 726 122C721.71 122 717.42 122 713 122C713 107.81 713 93.62 713 79C716.63 79 720.26 79 724 79C724.33 80.65 724.66 82.3 725 84C725.763 83.1956 726.526 82.3912 727.312 81.5625C730.633 78.3968 732.77 77.8651 737.188 77.9375Z" fill="white"/>
<path d="M505.188 77.9375C507.075 77.9684 507.075 77.9684 509 78C510.073 81.2719 509.893 83.4295 509.062 86.75C508.868 87.5492 508.673 88.3484 508.473 89.1719C508.317 89.7752 508.161 90.3784 508 91C506.763 90.9175 505.525 90.835 504.25 90.75C500.991 90.7385 500.253 90.8058 497.562 92.875C495.035 96.3121 494.833 98.4261 494.684 102.664C494.642 103.786 494.6 104.907 494.557 106.062C494.498 107.826 494.498 107.826 494.438 109.625C494.394 110.808 494.351 111.992 494.307 113.211C494.2 116.14 494.1 119.07 494 122C489.71 122 485.42 122 481 122C481 107.81 481 93.62 481 79C484.63 79 488.26 79 492 79C492.33 80.65 492.66 82.3 493 84C493.763 83.1956 494.526 82.3912 495.312 81.5625C498.633 78.3968 500.77 77.8651 505.188 77.9375Z" fill="white"/>
<path d="M816 160C817.65 160 819.3 160 821 160C822.32 163.3 823.64 166.6 825 170C826.65 166.7 828.3 163.4 830 160C831.65 160 833.3 160 835 160C835 166.93 835 173.86 835 181C833.68 181 832.36 181 831 181C830.67 178.03 830.34 175.06 830 172C829.01 174.31 828.02 176.62 827 179C825.68 179 824.36 179 823 179C822.34 177.02 821.68 175.04 821 173C820.67 175.64 820.34 178.28 820 181C818.68 181 817.36 181 816 181C816 174.07 816 167.14 816 160Z" fill="white"/>
<path d="M662 160C673.625 159.75 673.625 159.75 677 162C677.258 163.91 677.258 163.91 677.125 166.062C677.084 167.362 677.043 168.661 677 170C677.33 170.33 677.66 170.66 678 171C678.371 176.841 678.371 176.841 678 179C673.075 182.283 667.823 181.115 662 181C662 174.07 662 167.14 662 160ZM667 164C667 165.32 667 166.64 667 168C668.65 168 670.3 168 672 168C672 166.68 672 165.36 672 164C670.35 164 668.7 164 667 164ZM667 172C667 173.98 667 175.96 667 178C668.98 177.67 670.96 177.34 673 177C673 175.68 673 174.36 673 173C671.934 171.704 671.934 171.704 669.438 171.938C668.633 171.958 667.829 171.979 667 172Z" fill="white"/>
<path d="M579.312 161.937C582.243 165.519 582.35 168.158 582.27 172.672C581.834 176.43 580.655 178.345 578 181C574.007 182.476 571.019 182.443 567.125 180.75C564.475 178.568 563.123 176.924 562.664 173.477C562.559 165.788 562.559 165.788 564.75 161.875C569.349 158.042 574.605 157.993 579.312 161.937ZM568 166C567.45 169.052 567.425 171.951 568 175C570.337 177.156 570.337 177.156 573 178C575.146 176.441 575.146 176.441 577 174C577.463 169.598 577.48 167.721 575 164C571.542 163.568 570.52 163.48 568 166Z" fill="white"/>
<path d="M351 160C363.455 159.63 363.455 159.63 365.898 161.289C367.727 164.129 367.297 166.734 367 170C366.34 170.66 365.68 171.32 365 172C365.438 175.173 366.774 178.057 368 181C366.02 181 364.04 181 362 181C361.023 179.21 360.047 177.419 359.07 175.629C358.086 173.834 358.086 173.834 356 173C356 175.64 356 178.28 356 181C354.35 181 352.7 181 351 181C351 174.07 351 167.14 351 160ZM356 164C356 165.65 356 167.3 356 169C357.65 169 359.3 169 361 169C361.591 167.054 361.591 167.054 362 165C360.934 163.704 360.934 163.704 358.438 163.938C357.633 163.958 356.829 163.979 356 164Z" fill="white"/>
<path d="M456 160C458.959 162.647 459.876 164.554 460.938 168.375C461.026 173.495 459.706 177.176 456.188 180.937C452.629 182.666 449.582 182.407 445.813 181.437C442.961 179.176 441.796 176.456 441 173C440.803 168.508 441.146 165.139 443.875 161.5C448.06 158.546 451.144 158.807 456 160ZM447.188 165.562C445.512 169.001 446.186 171.336 447 175C447.33 175.66 447.66 176.32 448 177C450.374 177.334 450.374 177.334 453 177C455.048 175.52 455.048 175.52 456 173C455.815 167.949 455.815 167.949 453 164C449.106 163.565 449.106 163.565 447.188 165.562Z" fill="white"/>
<path d="M283 160C284.65 160 286.3 160 288 160C289.801 162.188 289.801 162.188 291.312 165C291.824 165.928 292.336 166.856 292.863 167.812C293.238 168.534 293.614 169.256 294 170C294.33 166.7 294.66 163.4 295 160C296.32 160 297.64 160 299 160C299 166.93 299 173.86 299 181C297.35 181 295.7 181 294 181C292.35 178.03 290.7 175.06 289 172C288.67 174.97 288.34 177.94 288 181C286.35 181 284.7 181 283 181C283 174.07 283 167.14 283 160ZM287 168C288 170 288 170 288 170L287 168Z" fill="white"/>
<path d="M909 160C910.65 160 912.3 160 914 160C915.801 162.188 915.801 162.188 917.312 165C917.824 165.928 918.336 166.856 918.863 167.812C919.238 168.534 919.614 169.256 920 170C920.33 166.7 920.66 163.4 921 160C922.32 160 923.64 160 925 160C925 166.93 925 173.86 925 181C923.35 181 921.7 181 920 181C918.02 177.37 916.04 173.74 914 170C913.67 173.63 913.34 177.26 913 181C911.68 181 910.36 181 909 181C909 174.07 909 167.14 909 160Z" fill="white"/>
<path d="M702 160C703.65 160 705.3 160 707 160C708.98 163.63 710.96 167.26 713 171C713.33 167.37 713.66 163.74 714 160C715.32 160 716.64 160 718 160C718 166.93 718 173.86 718 181C716.35 181 714.7 181 713 181C711.199 178.812 711.199 178.812 709.688 176C709.176 175.072 708.664 174.144 708.137 173.188C707.762 172.466 707.386 171.744 707 171C706.67 174.3 706.34 177.6 706 181C704.68 181 703.36 181 702 181C702 174.07 702 167.14 702 160Z" fill="white"/>
<path d="M542 160C543.65 160 545.3 160 547 160C548.801 162.188 548.801 162.188 550.312 165C550.824 165.928 551.336 166.856 551.863 167.812C552.238 168.534 552.614 169.256 553 170C553.33 166.7 553.66 163.4 554 160C555.32 160 556.64 160 558 160C558 166.93 558 173.86 558 181C556.35 181 554.7 181 553 181C551.02 177.37 549.04 173.74 547 170C546.67 173.63 546.34 177.26 546 181C544.68 181 543.36 181 542 181C542 174.07 542 167.14 542 160Z" fill="white"/>
<path d="M774 160C775.65 160 777.3 160 779 160C779 162.64 779 165.28 779 168C781.31 168 783.62 168 786 168C786 165.36 786 162.72 786 160C787.65 160 789.3 160 791 160C791 166.93 791 173.86 791 181C789.35 181 787.7 181 786 181C786 178.03 786 175.06 786 172C783.69 172 781.38 172 779 172C779 174.97 779 177.94 779 181C777.35 181 775.7 181 774 181C774 174.07 774 167.14 774 160Z" fill="white"/>
<path d="M902 160C902.66 160.99 903.32 161.98 904 163C903.67 163.66 903.34 164.32 903 165C899.7 165 896.4 165 893 165C892.979 166.444 892.959 167.887 892.937 169.375C892.926 170.187 892.914 170.999 892.902 171.836C892.855 174.049 892.855 174.049 894 176C897.029 176.658 897.029 176.658 900 177C900 175.68 900 174.36 900 173C898.68 173 897.36 173 896 173C896 171.68 896 170.36 896 169C898.64 169 901.28 169 904 169C904 172.63 904 176.26 904 180C899.916 182.042 898.414 182.53 894 182C888.292 178.877 888.292 178.877 887 175C886.584 170.726 886.567 167.071 888.187 163.062C892.228 158.465 896.269 158.594 902 160Z" fill="white"/>
<path d="M643 160C654.464 159.63 654.464 159.63 656.867 161.289C658.741 164.119 658.298 166.72 658 170C657.34 170.66 656.68 171.32 656 172C656.438 175.173 657.774 178.057 659 181C657.02 181 655.04 181 653 181C652.023 179.21 651.047 177.419 650.07 175.629C649.086 173.834 649.086 173.834 647 173C647 175.64 647 178.28 647 181C645.68 181 644.36 181 643 181C643 174.07 643 167.14 643 160ZM647 164C647 165.65 647 167.3 647 169C648.65 169 650.3 169 652 169C652.591 167.054 652.591 167.054 653 165C651.934 163.704 651.934 163.704 649.438 163.938C648.633 163.958 647.829 163.979 647 164Z" fill="white"/>
<path d="M261 160C262.65 160 264.3 160 266 160C266.33 165.61 266.66 171.22 267 177C268.65 176.67 270.3 176.34 272 176C272.33 170.72 272.66 165.44 273 160C274.65 160 276.3 160 278 160C278.081 162.563 278.141 165.124 278.188 167.688C278.213 168.409 278.238 169.13 278.264 169.873C278.326 174.431 277.996 177.477 275 181C271.612 182.384 268.109 182.321 264.625 181.312C262.531 179.621 261.949 178.549 261 176C260.86 173.212 260.811 170.532 260.875 167.75C260.884 167.005 260.893 166.26 260.902 165.492C260.926 163.661 260.962 161.831 261 160Z" fill="white"/>
<path d="M383 160C384.375 162.063 384.375 162.063 385 164C381.675 165.108 379.378 164.845 376 164C376 164.99 376 165.98 376 167C376.908 167.248 377.815 167.495 378.75 167.75C382.201 169.077 383.894 169.968 386 173C386 176.408 385.591 178.237 383.5 180.938C379.736 182.537 375.859 182.363 372 181C370.727 178.941 370.727 178.941 370 177C370.99 176.34 371.98 175.68 373 175C375.688 175.875 375.688 175.875 378 177C378.99 176.01 379.98 175.02 381 174C380.092 173.732 379.185 173.464 378.25 173.188C373.162 171.328 373.162 171.328 371 169C370.526 165.753 370.354 163.892 372.312 161.188C375.988 158.601 378.815 158.842 383 160Z" fill="white"/>
<path d="M728 160C729.65 160 731.3 160 733 160C735.938 166.876 738.18 173.748 740 181C738.35 181 736.7 181 735 181C734.67 179.35 734.34 177.7 734 176C731.69 176 729.38 176 727 176C726.67 177.65 726.34 179.3 726 181C724.35 181 722.7 181 721 181C722.82 173.748 725.062 166.876 728 160ZM730 165C729.67 167.31 729.34 169.62 729 172C729.99 172 730.98 172 732 172C731.67 169.69 731.34 167.38 731 165C730.67 165 730.34 165 730 165Z" fill="white"/>
<path d="M608 160C608.66 160.99 609.32 161.98 610 163C609.67 163.66 609.34 164.32 609 165C606.36 165 603.72 165 601 165C603.229 166.734 605.14 168.06 607.75 169.188C610 171 610 171 610.492 172.863C610.63 175.076 610.545 176.851 610 179C607.727 181.344 606.21 181.949 602.957 182.086C600.812 181.938 600.812 181.938 597 181C595.5 178.938 595.5 178.938 595 177C595.99 176.34 596.98 175.68 598 175C600.688 175.875 600.688 175.875 603 177C603.66 176.34 604.32 175.68 605 175C604.434 174.651 603.868 174.301 603.285 173.941C602.552 173.486 601.818 173.031 601.062 172.563C600.332 172.11 599.601 171.658 598.848 171.191C597 170 597 170 596 169C595.625 165.625 595.625 165.625 596 162C599.782 158.333 603.098 158.705 608 160Z" fill="white"/>
<path d="M863 160C864.65 160 866.3 160 868 160C870.938 166.876 873.18 173.748 875 181C873.35 181 871.7 181 870 181C869.67 179.35 869.34 177.7 869 176C866.69 176 864.38 176 862 176C861.67 177.65 861.34 179.3 861 181C859.35 181 857.7 181 856 181C857.82 173.748 860.062 166.876 863 160ZM865 165C864.67 167.31 864.34 169.62 864 172C864.99 172 865.98 172 867 172C866.67 169.69 866.34 167.38 866 165C865.67 165 865.34 165 865 165Z" fill="white"/>
<path d="M801 160C802.65 160 804.3 160 806 160C808.938 166.876 811.18 173.748 813 181C811.35 181 809.7 181 808 181C807.794 180.361 807.588 179.721 807.375 179.062C806.105 176.651 806.105 176.651 802.875 176.25C801.926 176.167 800.978 176.085 800 176C799.67 177.65 799.34 179.3 799 181C797.35 181 795.7 181 794 181C795.82 173.748 798.062 166.876 801 160ZM803 166C802.67 167.98 802.34 169.96 802 172C802.99 172 803.98 172 805 172C804.67 170.02 804.34 168.04 804 166C803.67 166 803.34 166 803 166Z" fill="white"/>
<path d="M687 160C688.65 160 690.3 160 692 160C694.938 166.876 697.18 173.748 699 181C697.35 181 695.7 181 694 181C693.794 180.361 693.588 179.721 693.375 179.062C692.105 176.651 692.105 176.651 688.875 176.25C687.926 176.167 686.978 176.085 686 176C685.67 177.65 685.34 179.3 685 181C683.35 181 681.7 181 680 181C681.82 173.748 684.062 166.876 687 160ZM689 166C688.67 167.98 688.34 169.96 688 172C688.99 172 689.98 172 691 172C690.67 170.02 690.34 168.04 690 166C689.67 166 689.34 166 689 166Z" fill="white"/>
<path d="M840 160C851.342 159.507 851.342 159.507 854.391 161.793C856 164 856 164 856 167.563C855 171 855 171 853.312 172.938C850.409 174.271 848.159 174.215 845 174C845 176.31 845 178.62 845 181C843.35 181 841.7 181 840 181C840 174.07 840 167.14 840 160ZM845 164C845 165.98 845 167.96 845 170C846.98 169.67 848.96 169.34 851 169C850.67 167.35 850.34 165.7 850 164C848.35 164 846.7 164 845 164Z" fill="white"/>
<path d="M621 160C622.32 160 623.64 160 625 160C625.061 160.987 625.121 161.975 625.184 162.992C625.267 164.274 625.351 165.555 625.437 166.875C625.519 168.151 625.6 169.427 625.684 170.742C625.792 173.883 625.792 173.883 627 176C628.32 176 629.64 176 631 176C632.481 173.038 632.353 170.165 632.562 166.875C632.646 165.594 632.73 164.312 632.816 162.992C632.877 162.005 632.938 161.017 633 160C634.32 160 635.64 160 637 160C637.135 162.731 637.234 165.455 637.312 168.188C637.354 168.956 637.396 169.725 637.439 170.518C637.532 174.829 637.402 176.481 634.668 180.012C632 182 632 182 629 182.625C624.875 181.766 623.571 180.32 621 177C620.406 174.033 620.523 171.198 620.687 168.188C620.71 167.399 620.733 166.611 620.756 165.799C620.814 163.865 620.904 161.932 621 160Z" fill="white"/>
<path d="M312 160C313.98 160 315.96 160 318 160C318.205 160.782 318.41 161.565 318.621 162.371C318.891 163.383 319.16 164.395 319.438 165.437C319.838 166.952 319.838 166.952 320.246 168.496C320.76 170.918 320.76 170.918 322 172C322.205 171.218 322.41 170.435 322.621 169.629C322.891 168.617 323.16 167.605 323.438 166.562C323.704 165.553 323.971 164.544 324.246 163.504C325 161 325 161 326 160C327.666 159.959 329.334 159.957 331 160C330.026 163.314 329.045 166.626 328.062 169.937C327.785 170.883 327.507 171.829 327.221 172.803C326.953 173.702 326.686 174.601 326.41 175.527C326.041 176.776 326.041 176.776 325.664 178.051C325 180 325 180 324 181C322.334 181.041 320.666 181.043 319 181C316.062 174.124 313.82 167.252 312 160Z" fill="white"/>
<path d="M769 160C769.33 161.32 769.66 162.64 770 164C767.776 164.577 765.573 165.079 763.312 165.5C761.048 165.771 761.048 165.771 760 167C759.695 171.651 759.695 171.651 761 176C761.928 176 762.856 176 763.812 176C765.875 176 767.937 176 770 176C770 177.32 770 178.64 770 180C766.491 182.339 765.129 182.413 761 182C758.26 180.754 756.536 179.689 754.687 177.312C753.307 172.67 753.328 168.592 755.187 164.187C759.443 159.052 762.564 158.612 769 160Z" fill="white"/>
<path d="M334 160C338.29 160 342.58 160 347 160C347 161.32 347 162.64 347 164C344.03 164 341.06 164 338 164C338 165.32 338 166.64 338 168C340.64 168 343.28 168 346 168C346 169.32 346 170.64 346 172C343.36 172 340.72 172 338 172C338 173.65 338 175.3 338 177C340.97 177 343.94 177 347 177C347 178.32 347 179.64 347 181C342.71 181 338.42 181 334 181C334 174.07 334 167.14 334 160Z" fill="white"/>
<path d="M465 160C469.29 160 473.58 160 478 160C478 161.32 478 162.64 478 164C475.36 164 472.72 164 470 164C470 165.65 470 167.3 470 169C472.31 169 474.62 169 477 169C477 170.32 477 171.64 477 173C474.69 173 472.38 173 470 173C470 175.64 470 178.28 470 181C468.35 181 466.7 181 465 181C465 174.07 465 167.14 465 160Z" fill="white"/>
<path d="M416 160C417.98 160 419.96 160 422 160C422.99 162.31 423.98 164.62 425 167C425.99 164.69 426.98 162.38 428 160C429.65 160 431.3 160 433 160C432.58 163.36 431.598 165.876 430 168.812C427.845 172.911 427.328 176.402 427 181C425.68 181 424.36 181 423 181C422.773 179.763 422.546 178.525 422.312 177.25C420.989 171.191 418.505 165.651 416 160Z" fill="white"/>
<path d="M498 160C499.65 160 501.3 160 503 160C503 165.61 503 171.22 503 177C505.97 177 508.94 177 512 177C512 178.32 512 179.64 512 181C507.38 181 502.76 181 498 181C498 174.07 498 167.14 498 160Z" fill="white"/>
<path d="M515 160C516.65 160 518.3 160 520 160C520 165.61 520 171.22 520 177C522.64 177 525.28 177 528 177C528 178.32 528 179.64 528 181C523.71 181 519.42 181 515 181C515 174.07 515 167.14 515 160Z" fill="white"/>
<path d="M398 160C403.28 160 408.56 160 414 160C414 161.32 414 162.64 414 164C412.02 164 410.04 164 408 164C408 169.61 408 175.22 408 181C406.68 181 405.36 181 404 181C404 175.39 404 169.78 404 164C402.02 164 400.04 164 398 164C398 162.68 398 161.36 398 160Z" fill="white"/>
<path d="M878 160C879.65 160 881.3 160 883 160C883 166.93 883 173.86 883 181C881.35 181 879.7 181 878 181C878 174.07 878 167.14 878 160Z" fill="white"/>
<path d="M586 160C587.65 160 589.3 160 591 160C591 166.93 591 173.86 591 181C589.35 181 587.7 181 586 181C586 174.07 586 167.14 586 160Z" fill="white"/>
<path d="M532 160C533.65 160 535.3 160 537 160C537 166.93 537 173.86 537 181C535.35 181 533.7 181 532 181C532 174.07 532 167.14 532 160Z" fill="white"/>
<path d="M488 160C489.65 160 491.3 160 493 160C493 166.93 493 173.86 493 181C491.35 181 489.7 181 488 181C488 174.07 488 167.14 488 160Z" fill="white"/>
<path d="M390 160C391.32 160 392.64 160 394 160C394 166.93 394 173.86 394 181C392.68 181 391.36 181 390 181C390 174.07 390 167.14 390 160Z" fill="white"/>
<path d="M305 160C306.32 160 307.64 160 309 160C309 166.93 309 173.86 309 181C307.68 181 306.36 181 305 181C305 174.07 305 167.14 305 160Z" fill="white"/>
<path d="M742 171C744.64 171 747.28 171 750 171C750 172.32 750 173.64 750 175C747.36 175 744.72 175 742 175C742 173.68 742 172.36 742 171Z" fill="white"/>
</g>
<defs>
<clipPath id="clip0_13_2">
<rect width="925" height="243" fill="white"/>
</clipPath>
</defs>
</svg>

