<svg width="1001" height="600" viewBox="0 0 1001 600" fill="none" xmlns="http://www.w3.org/2000/svg">
<g clip-path="url(#clip0_4_15)">
<path d="M801.188 600C469.521 600 331.46 600 0.293716 600C0.293716 283.333 0.240356 316.905 0.240356 0.238419C450.24 0.238419 550.591 0.287933 1000.59 0.287933C1000.59 316.955 1000.33 283.085 1000.33 599.751C881.825 599.751 920.188 600 801.188 600ZM409.5 600C584.458 600 759.417 600 934.375 600C934.426 599.581 934.477 599.162 934.528 598.743C852.285 593.252 772.346 577.451 695.102 548.179C617.94 518.938 547.992 477.758 483.115 425.259C654.615 425.259 824.67 425.259 995.111 425.259C995.111 483.6 995.111 541.682 995.111 599.751C997.239 599.751 998.978 599.751 1000.33 599.751C1000.33 482.36 1000.33 365.218 1000.33 247.028C997.991 257.263 996.738 266.63 993.688 275.37C986.109 297.089 973.775 315.675 955.465 330.124C933.653 347.337 908.444 354.645 881.259 355.834C872.306 356.225 863.253 354.817 854.27 353.971C838.01 352.439 822.752 347.514 808.907 338.896C800.092 333.41 791.394 327.573 785.202 318.837C784.475 317.812 782.798 317.46 781.477 316.75C779.899 328.28 778.428 339.032 776.961 349.748C763.454 349.748 750.37 349.748 736.896 349.748C736.896 233.096 736.896 116.696 736.896 0.252243C725.429 0.252243 714.358 0.252243 702.896 0.252243C702.896 116.904 702.896 233.305 702.896 349.748C686.763 349.748 671.025 349.748 654.896 349.748C654.896 233.096 654.896 116.695 654.896 0.238419C436.441 0.238419 218.379 0.238419 0.240356 0.238419C0.240356 36.8809 0.240356 73.2844 0.240356 109.5C9.53648 110.009 18.641 110.02 27.6137 111.114C40.9595 112.74 54.4233 114.251 67.4597 117.382C93.1795 123.559 117.479 133.767 140.308 147.112C169.472 164.16 195.7 185.208 220.456 208.081C229.656 216.581 238.312 225.677 247.094 234.621C256.507 244.207 265.849 253.865 275.087 263.62C283.597 272.606 291.935 281.755 300.334 290.846C312.197 303.688 323.997 316.588 335.916 329.377C346.852 341.111 357.705 352.935 368.971 364.348C381.1 376.634 393.597 388.561 406.064 400.509C417.044 411.03 428.107 421.47 439.325 431.736C444.855 436.797 450.845 441.352 456.578 446.194C461.716 450.533 466.786 454.952 472.66 460C392.928 460 314.452 460 235.975 460C157.386 460 78.7966 460 0.293716 460C0.293716 506.989 0.293716 553.392 0.293716 600C136.558 600 272.529 600 409.5 600ZM785 27.5C785 66.3112 785 105.122 785 143.827C791.039 138.73 796.474 133.9 802.161 129.387C823.917 112.121 849.271 104.91 876.517 104.203C886.557 103.943 896.74 105.489 906.713 107.104C926.885 110.372 944.715 119.206 959.98 132.62C979.454 149.733 991.337 171.52 996.964 196.742C998.089 201.782 998.775 206.92 999.663 212.012C999.972 211.975 1000.28 211.938 1000.59 211.901C1000.59 141.324 1000.59 70.7477 1000.59 0.287933C928.657 0.287933 856.937 0.287933 785 0.287933C785 9.21613 785 17.8581 785 27.5ZM887.248 151.002C886.249 150.995 885.201 151.184 884.257 150.951C873.071 148.191 861.686 148.254 850.538 150.158C831.404 153.427 814.114 160.502 801.188 176.163C790.579 189.015 785.358 203.825 784.18 220.014C783.514 229.166 784.065 238.52 785.139 247.656C786.791 261.7 792.403 274.396 801.691 285.089C817.171 302.911 837.886 309.641 860.59 310.817C869.357 311.271 878.332 310.286 887.033 308.859C901.462 306.491 914.332 300.277 925.16 290.306C942.331 274.495 948.387 253.815 948.685 231.533C948.83 220.681 946.899 209.398 943.683 198.998C938.84 183.331 929.72 169.911 914.628 162.104C906.152 157.72 896.983 154.676 887.248 151.002Z" fill="white"/>
<path d="M409 600C272.529 600 136.558 600 0.293716 600C0.293716 553.392 0.293716 506.989 0.293716 460C78.7966 460 157.386 460 235.975 460C314.452 460 392.928 460 472.66 460C466.786 454.952 461.716 450.533 456.578 446.194C450.845 441.352 444.855 436.797 439.325 431.736C428.107 421.47 417.044 411.03 406.064 400.509C393.597 388.561 381.1 376.634 368.971 364.348C357.705 352.935 346.852 341.111 335.916 329.377C323.997 316.588 312.197 303.688 300.334 290.846C291.935 281.755 283.597 272.606 275.087 263.62C265.849 253.865 256.507 244.207 247.094 234.621C238.312 225.677 229.656 216.581 220.456 208.081C195.7 185.208 169.472 164.16 140.308 147.112C117.479 133.767 93.1795 123.559 67.4597 117.382C54.4233 114.251 40.9595 112.74 27.6137 111.114C18.641 110.02 9.53648 110.009 0.240356 109.5C0.240356 73.2844 0.240356 36.8809 0.240356 0.238419C218.379 0.238419 436.441 0.238419 654.896 0.238419C654.896 116.695 654.896 233.096 654.896 349.748C671.025 349.748 686.763 349.748 702.896 349.748C702.896 233.305 702.896 116.904 702.896 0.252243C714.358 0.252243 725.429 0.252243 736.896 0.252243C736.896 116.696 736.896 233.096 736.896 349.748C750.37 349.748 763.454 349.748 776.961 349.748C778.428 339.032 779.899 328.28 781.477 316.75C782.798 317.46 784.475 317.812 785.202 318.837C791.394 327.573 800.092 333.41 808.907 338.896C822.752 347.514 838.01 352.439 854.27 353.971C863.253 354.817 872.306 356.225 881.259 355.834C908.444 354.645 933.653 347.337 955.465 330.124C973.775 315.675 986.109 297.089 993.688 275.37C996.738 266.63 997.991 257.263 1000.33 247.028C1000.33 365.218 1000.33 482.36 1000.33 599.751C998.978 599.751 997.239 599.751 995.111 599.751C995.111 541.682 995.111 483.6 995.111 425.259C824.67 425.259 654.615 425.259 483.115 425.259C547.992 477.758 617.94 518.938 695.102 548.179C772.346 577.451 852.285 593.252 934.528 598.743C934.477 599.162 934.426 599.581 934.375 600C759.417 600 584.458 600 409 600ZM576.246 346.969C588.304 341.921 599.563 335.714 608.603 325.944C627.087 305.968 631.652 282.518 625.204 256.812C620.366 237.528 606.34 226.63 588.385 219.976C572.141 213.955 555.097 211.945 538.08 210.103C521.463 208.304 504.729 207.607 488.1 205.895C478.513 204.908 469.232 202.56 460.379 198.176C449.811 192.944 445.226 179.663 451.086 168.6C454.406 162.332 459.577 157.907 465.785 155.113C488.059 145.088 511.427 144.758 535.019 148.558C554.704 151.729 572.14 159.861 586.429 173.885C597.449 163.361 608.248 153.049 620.101 141.73C610.922 135.314 602.601 128.459 593.356 123.242C570.671 110.438 545.614 105.554 519.943 104.201C509.508 103.651 498.949 105.233 488.459 106.014C471.005 107.312 454.696 112.609 439.549 121.185C423.81 130.095 412.012 142.66 405.974 160.069C401.934 171.717 400.118 183.493 401.861 195.94C403.538 207.919 407.929 218.442 416.485 226.784C424.063 234.173 433.421 239.366 443.66 241.83C456.353 244.883 469.287 247.15 482.234 248.874C496.495 250.772 510.87 251.968 525.232 252.912C538.404 253.777 551.297 255.713 563.792 260.016C574.248 263.616 581.139 273.507 579.944 283.82C578.808 293.626 572.961 300.38 564.503 304.794C545.673 314.623 525.375 315.836 504.99 312.751C488.937 310.322 473.596 304.928 459.558 296.241C449.229 289.851 439.828 282.513 431.695 272.476C420.699 282.904 409.734 293.302 398.282 304.162C405.342 310.748 411.693 317.54 418.904 323.245C446.683 345.219 478.976 354.595 513.895 355.916C520.623 356.17 527.39 355.159 534.144 355.036C548.396 354.777 562.036 351.55 576.246 346.969Z" fill="black"/>
<path d="M785 27C785 17.8581 785 9.21613 785 0.287933C856.937 0.287933 928.657 0.287933 1000.59 0.287933C1000.59 70.7477 1000.59 141.324 1000.59 211.901C1000.28 211.938 999.972 211.975 999.663 212.012C998.775 206.92 998.089 201.782 996.964 196.742C991.337 171.52 979.454 149.733 959.98 132.62C944.715 119.206 926.885 110.372 906.713 107.104C896.74 105.489 886.557 103.943 876.517 104.203C849.271 104.91 823.917 112.121 802.161 129.387C796.474 133.9 791.039 138.73 785 143.827C785 105.122 785 66.3112 785 27Z" fill="black"/>
<path d="M887.687 151.015C896.983 154.676 906.152 157.72 914.628 162.104C929.72 169.911 938.84 183.331 943.683 198.998C946.899 209.398 948.83 220.681 948.685 231.533C948.387 253.815 942.331 274.495 925.16 290.306C914.332 300.277 901.462 306.491 887.033 308.859C878.332 310.286 869.357 311.271 860.59 310.817C837.886 309.641 817.171 302.911 801.691 285.089C792.403 274.396 786.791 261.7 785.139 247.656C784.065 238.52 783.514 229.166 784.18 220.014C785.358 203.825 790.579 189.015 801.188 176.163C814.114 160.502 831.404 153.427 850.538 150.158C861.686 148.254 873.071 148.191 884.257 150.951C885.201 151.184 886.249 150.995 887.687 151.015Z" fill="black"/>
<path d="M575.841 346.985C562.036 351.55 548.396 354.777 534.144 355.036C527.39 355.159 520.623 356.17 513.895 355.916C478.976 354.595 446.683 345.219 418.904 323.245C411.693 317.54 405.342 310.748 398.282 304.162C409.734 293.302 420.699 282.904 431.695 272.476C439.828 282.513 449.229 289.851 459.558 296.241C473.596 304.928 488.937 310.322 504.99 312.751C525.375 315.836 545.673 314.623 564.503 304.794C572.961 300.38 578.808 293.626 579.944 283.82C581.139 273.507 574.248 263.616 563.792 260.016C551.297 255.713 538.404 253.777 525.232 252.912C510.87 251.968 496.495 250.772 482.234 248.874C469.287 247.15 456.353 244.883 443.66 241.83C433.421 239.366 424.063 234.173 416.485 226.784C407.929 218.442 403.538 207.919 401.861 195.94C400.118 183.493 401.934 171.717 405.974 160.069C412.012 142.66 423.81 130.095 439.549 121.185C454.696 112.609 471.005 107.312 488.459 106.014C498.949 105.233 509.508 103.651 519.943 104.201C545.614 105.554 570.671 110.438 593.356 123.242C602.601 128.459 610.922 135.314 620.101 141.73C608.248 153.049 597.449 163.361 586.429 173.885C572.14 159.861 554.704 151.729 535.019 148.558C511.427 144.758 488.059 145.088 465.785 155.113C459.577 157.907 454.406 162.332 451.086 168.6C445.226 179.663 449.811 192.944 460.379 198.176C469.232 202.56 478.513 204.908 488.1 205.895C504.729 207.607 521.463 208.304 538.08 210.103C555.097 211.945 572.141 213.955 588.385 219.976C606.34 226.63 620.366 237.528 625.204 256.812C631.652 282.517 627.087 305.968 608.603 325.944C599.563 335.714 588.304 341.921 575.841 346.985Z" fill="white"/>
</g>
<defs>
<clipPath id="clip0_4_15">
<rect width="1001" height="600" fill="white"/>
</clipPath>
</defs>
</svg>

