<svg fill="none" height="92" viewBox="0 0 381 92" width="381" xmlns="http://www.w3.org/2000/svg"><g fill="#fff"><path d="m51.934 4.92188h37.6645c6.0968 0 11.0395 5.10732 11.0395 11.40752v44.2881c0 6.3003-4.9427 11.4076-11.0395 11.4076h-53.8992z"/><path d="m42.1508 17.6345h-30.3411c-6.04498 0-10.945442 5.1074-10.945442 11.4076v44.288c0 6.3004 4.900462 11.4077 10.945442 11.4077h37.3434l1.4974-6.2429h-23.0984z"/><path d="m145.865 71.9982-16.605-54.3437h9.381l11.753 41.5126 12.723-41.5126h8.842l12.723 41.5126 11.645-41.5126h9.597l-16.713 54.3437h-8.95l-12.723-41.2969-12.723 41.2969zm101.425-35.3665c0-7.44-5.284-12.1843-13.263-12.1843-7.44 0-12.723 4.4209-13.478 11.753l-8.518-1.6174c1.617-10.7825 10.567-17.7911 21.996-17.7911 13.155 0 22.32 7.7634 22.32 20.3789v34.8274h-9.057v-9.2729c-3.127 6.2538-10.244 10.1355-18.115 10.1355-10.89 0-18.33-6.6851-18.33-16.0659 0-10.459 8.518-16.1737 25.878-17.8989l10.567-1.1861zm-27.28 20.0554c0 5.0678 4.313 8.626 10.567 8.626 10.567 0 16.713-7.0086 16.713-17.8989v-2.5878l-10.567 1.186c-10.998 1.1861-16.713 4.96-16.713 10.6747zm98.035-20.5946-9.165 1.7252c-.431-8.0868-5.499-12.7233-13.694-12.7233-10.028 0-16.497 9.0573-16.497 23.6136v23.2902h-9.165v-54.3437h9.165v10.6746c3.989-7.7634 10.675-11.5372 18.654-11.5372 12.076 0 20.271 7.5477 20.702 19.3006zm9.769 55.5299v-73.9679h9.166v7.8712c2.911-4.96 10.027-8.7338 17.898-8.7338 16.713 0 25.986 12.0764 25.986 28.0345 0 15.958-9.488 28.0344-26.201 28.0344-6.901 0-14.017-3.4504-17.683-8.4103v27.1719zm25.986-26.9563c10.783 0 17.791-7.8712 17.791-19.8397 0-11.9686-7.008-19.8398-17.791-19.8398-10.567 0-17.575 7.8712-17.575 19.8398 0 11.9685 7.008 19.8397 17.575 19.8397z"/></g></svg>