<svg width="248" height="240" viewBox="0 0 248 240" fill="none" xmlns="http://www.w3.org/2000/svg">
<path d="M41.1757 126.423C41.1757 126.423 34.1205 57.5969 60.3981 26.5102C86.6757 -4.57654 119.351 -1.54078 134.898 13.5102C140.657 19.0852 143.812 22.9235 146.398 30.5102C152.475 48.3385 149.292 57.629 131.398 63.5102C124.349 65.827 108.636 59.4925 102.398 63.5102C92.7126 69.7483 92.1648 119.245 101.176 126.423C108.354 132.142 115.953 129.276 124.676 126.423C139.149 121.69 140.176 106.923 150.176 96.9235C160.117 86.9824 173.4 91.0544 186.176 96.9235C186.176 96.9235 235.497 91.3954 243.176 110.423C246.464 118.572 243.624 124.148 243.176 132.923C242.349 149.084 251.895 167.2 237.176 173.923C229.894 177.25 223.568 177.996 216.676 173.923C210.063 170.015 206.913 164.604 206.781 156.923C202.176 169.423 185.055 170.739 167.676 164.923C156.993 161.349 157.176 148.923 152.676 146.423C148.176 143.923 96.1757 138.923 76.1757 146.423C56.1757 153.923 54.6757 162.923 53.1757 168.423C51.6757 173.923 50.1757 234.923 50.1757 234.923L27.1757 219.423C27.1757 219.423 0.0825272 204.673 2.67567 189.923C3.95158 182.666 12.6757 173.923 12.6757 173.923L19.1757 162.423C19.1757 162.423 15.5593 135.67 27.1757 132.923C30.2161 132.205 35.1757 132.923 35.1757 132.923L41.1757 126.423Z" fill="#5E9644"/>
<path d="M186.176 96.9235C173.4 91.0544 160.117 86.9824 150.176 96.9235C140.176 106.923 139.149 121.69 124.676 126.423C115.953 129.276 108.354 132.142 101.176 126.423C92.1648 119.245 92.7126 69.7483 102.398 63.5102C108.636 59.4925 124.349 65.827 131.398 63.5102C149.292 57.629 152.475 48.3385 146.398 30.5102C143.812 22.9235 140.657 19.0852 134.898 13.5102C119.351 -1.54078 86.6757 -4.57654 60.3981 26.5102C34.1205 57.5969 41.1757 126.423 41.1757 126.423L35.1757 132.923C35.1757 132.923 30.2161 132.205 27.1757 132.923C15.5593 135.67 19.1757 162.423 19.1757 162.423L12.6757 173.923C12.6757 173.923 3.95158 182.666 2.67567 189.923C0.0825272 204.673 27.1757 219.423 27.1757 219.423L50.1757 234.923C50.1757 234.923 51.6757 173.923 53.1757 168.423C54.6757 162.923 56.1757 153.923 76.1757 146.423C96.1757 138.923 148.176 143.923 152.676 146.423C157.176 148.923 156.993 161.349 167.676 164.923C185.055 170.739 202.176 169.423 206.781 156.923M186.176 96.9235C201.729 104.069 209.551 115.884 211.176 132.923C212.08 142.409 206.781 156.923 206.781 156.923M186.176 96.9235C186.176 96.9235 235.497 91.3954 243.176 110.423C246.464 118.572 243.624 124.148 243.176 132.923C242.349 149.084 251.895 167.2 237.176 173.923C229.894 177.25 223.568 177.996 216.676 173.923C210.063 170.015 206.913 164.604 206.781 156.923" stroke="#216A38" stroke-width="5" stroke-linecap="round"/>
<path d="M125.425 27.8562C117.752 24.5677 108.425 22.8562 103.425 26.3563C91.9559 34.3851 113.453 58.4659 127.425 59.3562C137.274 59.9837 146.058 58.6289 147.426 48.8562C148.406 41.8491 147.426 37.8561 141.926 34.8562C136.921 32.1264 132.426 30.8562 125.425 27.8562Z" fill="white" stroke="#216A38" stroke-width="5" stroke-linecap="round"/>
<path d="M120.473 35.3562C115.008 35.3562 108.426 44.8563 108.426 44.8563C108.426 44.8563 111.523 50.3757 118.176 53.9236C125.676 57.9236 131.676 58.4236 131.676 58.4236C131.676 58.4236 129.783 35.3561 120.473 35.3562Z" fill="#2D2020" stroke="#216A38" stroke-width="2" stroke-linecap="round"/>
</svg>
