<svg width="1142" height="1052" viewBox="0 0 1142 1052" fill="none" xmlns="http://www.w3.org/2000/svg">
<rect x="57.0474" y="233.541" width="1038" height="819.156" rx="20" transform="rotate(-3.36305 57.0474 233.541)" fill="#6A4B8D"/>
<g clip-path="url(#clip0_5034_251)">
<rect x="55.6655" y="143.467" width="1038" height="792" rx="20" transform="rotate(1.66618 55.6655 143.467)" fill="url(#paint0_linear_5034_251)"/>
</g>
<path d="M386.758 145.095L386.525 153.091L402.519 153.557L402.751 145.56L394.755 145.327L386.758 145.095ZM362 222.408C366.416 222.536 370.1 219.06 370.229 214.643C370.357 210.227 366.881 206.543 362.465 206.414L362.232 214.411L362 222.408ZM365.867 89.4637L365.634 97.4603C371.679 97.6362 376.81 100.788 380.726 108.346C384.822 116.249 387.239 128.547 386.758 145.095L394.755 145.327L402.751 145.56C403.274 127.605 400.769 112.247 394.932 100.984C388.916 89.3741 379.1 81.8453 366.099 81.4671L365.867 89.4637ZM329.564 150.934L337.561 151.167C338.031 135.004 342.078 120.873 347.838 111.121C353.761 101.091 360.36 97.3069 365.634 97.4603L365.867 89.4637L366.099 81.4671C352.327 81.0665 341.277 90.7665 334.061 102.984C326.682 115.479 322.101 132.361 321.567 150.702L329.564 150.934ZM362.232 214.411L362.465 206.414C357.191 206.261 350.823 202.1 345.493 191.743C340.31 181.672 337.091 167.329 337.561 151.167L329.564 150.934L321.567 150.702C321.034 169.042 324.626 186.161 331.266 199.064C337.76 211.681 348.228 222.007 362 222.408L362.232 214.411Z" fill="url(#paint1_linear_5034_251)"/>
<path d="M492.713 148.177L492.481 156.173L508.474 156.639L508.706 148.642L500.71 148.409L492.713 148.177ZM467.955 225.49C472.371 225.618 476.055 222.142 476.184 217.726C476.312 213.309 472.836 209.625 468.42 209.496L468.187 217.493L467.955 225.49ZM471.822 92.5458L471.589 100.542C477.634 100.718 482.765 103.87 486.681 111.428C490.778 119.331 493.194 131.629 492.713 148.177L500.71 148.409L508.706 148.642C509.229 130.687 506.725 115.329 500.887 104.066C494.871 92.4562 485.055 84.9274 472.054 84.5492L471.822 92.5458ZM435.519 154.016L443.516 154.249C443.986 138.086 448.033 123.956 453.793 114.203C459.717 104.173 466.315 100.389 471.589 100.542L471.822 92.5458L472.054 84.5492C458.282 84.1486 447.232 93.8485 440.016 106.066C432.637 118.562 428.056 135.443 427.523 153.784L435.519 154.016ZM468.187 217.493L468.42 209.496C463.146 209.343 456.778 205.182 451.448 194.825C446.265 184.754 443.046 170.411 443.516 154.249L435.519 154.016L427.523 153.784C426.989 172.124 430.581 189.243 437.221 202.146C443.715 214.763 454.183 225.089 467.955 225.49L468.187 217.493Z" fill="url(#paint2_linear_5034_251)"/>
<path d="M598.668 151.259L598.436 159.255L614.429 159.721L614.661 151.724L606.665 151.491L598.668 151.259ZM573.91 228.572C578.326 228.7 582.011 225.224 582.139 220.808C582.267 216.391 578.791 212.707 574.375 212.578L574.142 220.575L573.91 228.572ZM577.777 95.6279L577.544 103.625C583.59 103.8 588.72 106.952 592.637 114.51C596.733 122.413 599.15 134.711 598.668 151.259L606.665 151.491L614.661 151.724C615.184 133.769 612.68 118.411 606.842 107.148C600.826 95.5382 591.01 88.0094 578.01 87.6313L577.777 95.6279ZM541.474 157.098L549.471 157.331C549.941 141.169 553.988 127.038 559.748 117.285C565.672 107.255 572.271 103.471 577.544 103.625L577.777 95.6279L578.01 87.6313C564.238 87.2307 553.187 96.9306 545.971 109.149C538.592 121.644 534.011 138.525 533.478 156.866L541.474 157.098ZM574.142 220.575L574.375 212.578C569.101 212.425 562.733 208.264 557.403 197.907C552.22 187.836 549.001 173.493 549.471 157.331L541.474 157.098L533.478 156.866C532.944 175.207 536.536 192.326 543.177 205.228C549.67 217.845 560.138 228.171 573.91 228.572L574.142 220.575Z" fill="url(#paint3_linear_5034_251)"/>
<path d="M704.624 154.341L704.391 162.338L720.384 162.803L720.617 154.806L712.62 154.574L704.624 154.341ZM679.865 231.654C684.282 231.782 687.966 228.306 688.095 223.89C688.223 219.473 684.747 215.789 680.331 215.66L680.098 223.657L679.865 231.654ZM683.732 98.71L683.5 106.707C689.545 106.882 694.675 110.034 698.592 117.592C702.688 125.496 705.105 137.793 704.624 154.341L712.62 154.574L720.617 154.806C721.139 136.851 718.635 121.494 712.798 110.23C706.781 98.6203 696.966 91.0915 683.965 90.7133L683.732 98.71ZM647.43 160.18L655.426 160.413C655.897 144.251 659.944 130.12 665.704 120.367C671.627 110.337 678.226 106.553 683.5 106.707L683.732 98.71L683.965 90.7133C670.193 90.3127 659.142 100.013 651.927 112.231C644.548 124.726 639.967 141.607 639.433 159.948L647.43 160.18ZM680.098 223.657L680.331 215.66C675.057 215.507 668.689 211.346 663.359 200.989C658.176 190.918 654.956 176.575 655.426 160.413L647.43 160.18L639.433 159.948C638.9 178.289 642.492 195.408 649.132 208.311C655.625 220.927 666.093 231.253 679.865 231.654L680.098 223.657Z" fill="url(#paint4_linear_5034_251)"/>
<path d="M810.579 157.423L810.346 165.42L826.339 165.885L826.572 157.888L818.575 157.656L810.579 157.423ZM785.82 234.736C790.237 234.864 793.921 231.388 794.05 226.972C794.178 222.555 790.702 218.871 786.286 218.743L786.053 226.739L785.82 234.736ZM789.688 101.792L789.455 109.789C795.5 109.965 800.63 113.116 804.547 120.674C808.643 128.578 811.06 140.875 810.579 157.423L818.575 157.656L826.572 157.888C827.094 139.933 824.59 124.576 818.753 113.312C812.736 101.702 802.921 94.1736 789.92 93.7954L789.688 101.792ZM753.385 163.263L761.382 163.495C761.852 147.333 765.899 133.202 771.659 123.449C777.582 113.419 784.181 109.635 789.455 109.789L789.688 101.792L789.92 93.7954C776.148 93.3948 765.098 103.095 757.882 115.313C750.503 127.808 745.922 144.689 745.388 163.03L753.385 163.263ZM786.053 226.739L786.286 218.743C781.012 218.589 774.644 214.428 769.314 204.071C764.131 194 760.911 179.657 761.382 163.495L753.385 163.263L745.388 163.03C744.855 181.371 748.447 198.49 755.087 211.393C761.58 224.009 772.048 234.335 785.82 234.736L786.053 226.739Z" fill="url(#paint5_linear_5034_251)"/>
<path d="M41.1754 126.424C41.1754 126.424 34.1202 57.5969 60.3978 26.5102C86.6754 -4.57651 119.351 -1.54075 134.898 13.5102C140.657 19.0852 143.812 22.9235 146.398 30.5102C152.474 48.3385 149.292 57.629 131.398 63.5102C124.349 65.8271 108.636 59.4925 102.398 63.5102C92.7124 69.7483 92.1646 119.245 101.175 126.424C108.354 132.142 115.953 129.276 124.675 126.424C139.149 121.69 140.175 106.924 150.175 96.9235C160.117 86.9824 173.4 91.0544 186.175 96.9235C186.175 96.9235 235.497 91.3954 243.175 110.424C246.464 118.572 243.624 124.148 243.175 132.924C242.349 149.084 251.895 167.2 237.175 173.923C229.893 177.25 223.568 177.996 216.675 173.923C210.062 170.015 206.913 164.604 206.781 156.923C202.175 169.423 185.055 170.739 167.675 164.924C156.993 161.349 157.175 148.923 152.675 146.423C148.175 143.923 96.1754 138.923 76.1754 146.423C56.1754 153.923 54.6754 162.923 53.1754 168.423C51.6754 173.923 50.1754 234.923 50.1754 234.923L27.1754 219.423C27.1754 219.423 0.082283 204.673 2.67543 189.923C3.95134 182.666 12.6754 173.923 12.6754 173.923L19.1754 162.423C19.1754 162.423 15.5591 135.67 27.1754 132.924C30.2158 132.205 35.1754 132.924 35.1754 132.924L41.1754 126.424Z" fill="#5E9644"/>
<path d="M186.175 96.9235C173.4 91.0544 160.117 86.9824 150.175 96.9235C140.175 106.924 139.149 121.69 124.675 126.424C115.953 129.276 108.354 132.142 101.175 126.424C92.1646 119.245 92.7124 69.7483 102.398 63.5102C108.636 59.4925 124.349 65.8271 131.398 63.5102C149.292 57.629 152.474 48.3385 146.398 30.5102C143.812 22.9235 140.657 19.0852 134.898 13.5102C119.351 -1.54075 86.6754 -4.57651 60.3978 26.5102C34.1202 57.5969 41.1754 126.424 41.1754 126.424L35.1754 132.924C35.1754 132.924 30.2158 132.205 27.1754 132.924C15.5591 135.67 19.1754 162.423 19.1754 162.423L12.6754 173.923C12.6754 173.923 3.95134 182.666 2.67543 189.923C0.0822831 204.673 27.1754 219.423 27.1754 219.423L50.1754 234.923C50.1754 234.923 51.6754 173.923 53.1754 168.423C54.6754 162.923 56.1754 153.923 76.1754 146.423C96.1754 138.923 148.175 143.923 152.675 146.423C157.175 148.923 156.993 161.349 167.675 164.924C185.055 170.739 202.175 169.423 206.781 156.923M186.175 96.9235C201.729 104.069 209.55 115.884 211.175 132.924C212.08 142.409 206.781 156.923 206.781 156.923M186.175 96.9235C186.175 96.9235 235.497 91.3954 243.175 110.424C246.464 118.572 243.624 124.148 243.175 132.924C242.349 149.084 251.895 167.2 237.175 173.923C229.893 177.25 223.568 177.996 216.675 173.923C210.062 170.015 206.913 164.604 206.781 156.923" stroke="#216A38" stroke-width="5" stroke-linecap="round"/>
<path d="M125.425 27.8561C117.752 24.5676 108.425 22.8561 103.425 26.3562C91.9557 34.385 113.453 58.4658 127.425 59.3561C137.273 59.9836 146.057 58.6288 147.425 48.8561C148.406 41.849 147.425 37.856 141.925 34.8561C136.921 32.1263 132.425 30.8561 125.425 27.8561Z" fill="white" stroke="#216A38" stroke-width="5" stroke-linecap="round"/>
<path d="M120.473 35.3561C115.008 35.3561 108.425 44.8562 108.425 44.8562C108.425 44.8562 111.523 50.3756 118.175 53.9235C125.675 57.9235 131.675 58.4235 131.675 58.4235C131.675 58.4235 129.782 35.356 120.473 35.3561Z" fill="#2D2020" stroke="#216A38" stroke-width="2" stroke-linecap="round"/>
<defs>
<linearGradient id="paint0_linear_5034_251" x1="574.666" y1="143.467" x2="574.666" y2="935.467" gradientUnits="userSpaceOnUse">
<stop stop-color="#FCADF8"/>
<stop offset="1" stop-color="#BA80D5"/>
</linearGradient>
<linearGradient id="paint1_linear_5034_251" x1="363.794" y1="89.7134" x2="360.167" y2="214.396" gradientUnits="userSpaceOnUse">
<stop stop-color="#14123D"/>
<stop offset="0.600962" stop-color="#7059A6"/>
<stop offset="0.855769" stop-color="#533085"/>
<stop offset="1" stop-color="#512D83"/>
</linearGradient>
<linearGradient id="paint2_linear_5034_251" x1="469.749" y1="92.7954" x2="466.122" y2="217.479" gradientUnits="userSpaceOnUse">
<stop stop-color="#14123D"/>
<stop offset="0.600962" stop-color="#7059A6"/>
<stop offset="0.855769" stop-color="#533085"/>
<stop offset="1" stop-color="#512D83"/>
</linearGradient>
<linearGradient id="paint3_linear_5034_251" x1="575.704" y1="95.8775" x2="572.077" y2="220.561" gradientUnits="userSpaceOnUse">
<stop stop-color="#14123D"/>
<stop offset="0.600962" stop-color="#7059A6"/>
<stop offset="0.855769" stop-color="#533085"/>
<stop offset="1" stop-color="#512D83"/>
</linearGradient>
<linearGradient id="paint4_linear_5034_251" x1="681.66" y1="98.9596" x2="678.033" y2="223.643" gradientUnits="userSpaceOnUse">
<stop stop-color="#14123D"/>
<stop offset="0.600962" stop-color="#7059A6"/>
<stop offset="0.855769" stop-color="#533085"/>
<stop offset="1" stop-color="#512D83"/>
</linearGradient>
<linearGradient id="paint5_linear_5034_251" x1="787.615" y1="102.042" x2="783.988" y2="226.725" gradientUnits="userSpaceOnUse">
<stop stop-color="#14123D"/>
<stop offset="0.600962" stop-color="#7059A6"/>
<stop offset="0.855769" stop-color="#533085"/>
<stop offset="1" stop-color="#512D83"/>
</linearGradient>
<clipPath id="clip0_5034_251">
<rect x="55.6655" y="143.467" width="1038" height="777" rx="20" transform="rotate(1.66618 55.6655 143.467)" fill="white"/>
</clipPath>
</defs>
</svg>
