<svg xmlns="http://www.w3.org/2000/svg" fill="none" viewBox="31.769138955223877 43.3573486 276.7582089552239 185.49" style="max-height: 500px" width="276.7582089552239" height="185.49">
<ellipse fill="#EE82CD" transform="rotate(90 169.972 188.023)" ry="137.028" rx="143.601" cy="188.023" cx="169.972"/>
<path fill="#ED47B9" d="M269.077 287.128C269.077 287.128 243.197 284.039 235.695 275.533C221.97 259.973 241.155 241.777 253.623 233.097C258.873 229.441 264.601 226.215 270.7 224.191C273.378 223.303 276.668 222.933 279.133 222.052C281.289 221.281 278.626 221.134 277.974 220.92C257.845 214.309 235.391 200.905 228.648 179.513C220.875 154.855 233.9 129.948 262.238 140.187C285.85 148.717 296.687 176.167 306.747 196.871C307.515 225.067 289.443 266.762 269.077 287.128Z"/>
<path fill="#ED47B9" d="M207.529 50.6549C210.41 58.1167 207.228 66.162 204.213 73.1039C197.2 89.2519 184.085 101.088 167.884 107.682C146.431 116.414 123.938 113.954 101.848 109.239C101.648 110.157 102.324 110.239 102.848 110.655C113.459 119.092 121.795 124.935 130.898 135.456C139.071 144.9 146.856 156.069 151.166 167.821C159.813 186.784 161.209 213.032 143.562 227.509C131.08 237.75 114.666 233.975 102.764 225.266C78.0271 207.157 58.3819 174.855 39.1596 151.02C38.6927 150.441 38.5448 149.697 37.5538 149.763C55.7895 73.5026 130.904 26.64 207.529 50.6549Z"/>
<path style="mix-blend-mode:multiply" fill-opacity="0.5" fill="#D5BAD1" d="M280 103.369C139.778 112.681 104.843 245.153 96.5001 309.368C-5.99993 231.868 32.2957 111.323 91.5001 68.8685C140.489 33.7395 220 28.8685 280 103.369Z"/>
</svg>