<svg width="1728" height="1489" viewBox="0 0 1728 1489" fill="none" xmlns="http://www.w3.org/2000/svg">
<g clip-path="url(#clip0_3_513)">
<rect width="1728" height="1489" fill="#642E38"/>
<path d="M140 1187.5L-85.5 1009.5V1522.5H1813L1837 1404.5L1795 1187.5L1627 1137.5L1260.5 1332.5L821 1187.5H140Z" fill="#381D1A"/>
<path d="M144 761L-85.5 794V-91.5H1813V459.5L1619.5 413.5L1455.5 125L649 158L400 276L144 761Z" fill="#743F41"/>
<path d="M-67 735V9.5V-88H1832.5V233.5L1570.5 144L1496 187L1473.5 615L1417.5 233.5L1349.5 193.5L1260 -24.5L1040 61.5H636L363 121.5L322 187H258.5L183.5 461.5V144L82 187L-67 735Z" fill="#3B1315"/>
<circle cx="864" cy="745" r="650" fill="url(#paint0_radial_3_513)" fill-opacity="0.6" style="mix-blend-mode:lighten"/>
</g>
<defs>
<radialGradient id="paint0_radial_3_513" cx="0" cy="0" r="1" gradientUnits="userSpaceOnUse" gradientTransform="translate(864 745) rotate(90) scale(689.695)">
<stop offset="0.16" stop-color="#E9664B"/>
<stop offset="1" stop-color="#83392A" stop-opacity="0"/>
</radialGradient>
<clipPath id="clip0_3_513">
<rect width="1728" height="1489" fill="white"/>
</clipPath>
</defs>
</svg>
