<svg width="auto" height="1253" viewBox="0 0 940 1253" fill="none" xmlns="http://www.w3.org/2000/svg">
<path d="M870.984 1230.91L936.319 1135.66C938.711 1132.18 939.936 1128.02 939.819 1123.79L933.119 883.579C933.077 882.082 932.867 880.594 932.493 879.144L926.076 854.25C925.065 850.33 925.268 846.196 926.657 842.394L930.393 832.17C931.187 829.996 931.598 827.701 931.607 825.386L933.048 463.736C933.053 462.443 932.933 461.153 932.689 459.884L921.144 399.768C920.018 393.907 921.569 387.849 925.373 383.249L935.412 371.112C938.377 367.526 940 363.019 940 358.365V71.7598C940 66.8592 938.201 62.1292 934.944 58.4675L906.525 26.518C904.417 24.1476 901.775 22.3128 898.817 21.1651L847.772 1.35487C845.464 0.459404 843.011 0 840.536 0H361.174C357.742 0 354.367 0.883195 351.375 2.56462L337.652 10.2769C331.567 13.6964 324.14 13.6964 318.055 10.2769L304.332 2.56462C301.34 0.883194 297.966 0 294.534 0H46.3962C37.2981 0 29.3464 6.14064 27.046 14.9431L9.32369 82.7574C8.84208 84.6003 8.6262 86.5026 8.6826 88.4066L11.5058 183.703C11.8079 193.9 19.7361 202.235 29.9051 203.047L40.4567 203.89C51.1694 204.745 57.5334 216.258 52.5596 225.784L28.4398 271.983C27.0741 274.599 25.1465 276.88 22.7951 278.663L10.9236 287.665C5.85719 291.507 2.91941 297.529 3.01013 303.887L8.57071 693.607C8.58857 694.859 8.7239 696.106 8.97491 697.332L14.3776 723.728C15.0964 727.24 14.8582 730.88 13.6879 734.268L1.66677 769.071C0.573125 772.237 0.2923 775.628 0.85007 778.931L8.31837 823.158C8.50417 824.258 8.59756 825.372 8.59756 826.488V1117.57C8.59756 1120.48 9.84469 1123.26 12.0242 1125.19C15.6888 1128.45 16.5203 1133.85 14.0045 1138.06L11.5064 1142.23C9.62394 1145.38 8.87422 1149.08 9.38162 1152.71L16.5266 1203.86C17.6286 1211.75 23.3062 1218.23 30.9804 1220.36L143.725 1251.69C146.83 1252.55 150.097 1252.65 153.249 1251.98L257.595 1229.73C261.186 1228.97 264.918 1229.2 268.383 1230.42L303.858 1242.86C305.707 1243.51 307.641 1243.88 309.599 1243.96L394.734 1247.7C397.867 1247.84 400.989 1247.24 403.847 1245.94L428.098 1234.98C430.78 1233.77 433.697 1233.17 436.64 1233.21L854.185 1239.6C860.886 1239.7 867.193 1236.44 870.984 1230.91Z" fill="url(#paint0_linear_2_303)"/>
<mask id="mask0_2_303" style="mask-type:alpha" maskUnits="userSpaceOnUse" x="0" y="0" width="940" height="1253">
<path d="M870.984 1230.91L936.319 1135.66C938.711 1132.18 939.936 1128.02 939.819 1123.79L933.119 883.579C933.077 882.082 932.867 880.594 932.493 879.144L926.076 854.25C925.065 850.33 925.268 846.196 926.657 842.394L930.393 832.17C931.187 829.996 931.598 827.701 931.607 825.386L933.048 463.736C933.053 462.443 932.933 461.153 932.689 459.884L921.144 399.768C920.018 393.907 921.569 387.849 925.373 383.249L935.412 371.112C938.377 367.526 940 363.019 940 358.365V71.7598C940 66.8592 938.201 62.1292 934.944 58.4675L906.525 26.518C904.417 24.1476 901.775 22.3128 898.817 21.1651L847.772 1.35487C845.464 0.459404 843.011 0 840.536 0H361.174C357.742 0 354.367 0.883195 351.375 2.56462L337.652 10.2769C331.567 13.6964 324.14 13.6964 318.055 10.2769L304.332 2.56462C301.34 0.883194 297.966 0 294.534 0H46.3962C37.2981 0 29.3464 6.14064 27.046 14.9431L9.32369 82.7574C8.84208 84.6003 8.6262 86.5026 8.6826 88.4066L11.5058 183.703C11.8079 193.9 19.7361 202.235 29.9051 203.047L40.4567 203.89C51.1694 204.745 57.5334 216.258 52.5596 225.784L28.4398 271.983C27.0741 274.599 25.1465 276.88 22.7951 278.663L10.9236 287.665C5.85719 291.507 2.91941 297.529 3.01013 303.887L8.57071 693.607C8.58857 694.859 8.7239 696.106 8.97491 697.332L14.3776 723.728C15.0964 727.24 14.8582 730.88 13.6879 734.268L1.66677 769.071C0.573125 772.237 0.2923 775.628 0.85007 778.931L8.31837 823.158C8.50417 824.258 8.59756 825.372 8.59756 826.488V1117.57C8.59756 1120.48 9.84469 1123.26 12.0242 1125.19C15.6888 1128.45 16.5203 1133.85 14.0045 1138.06L11.5064 1142.23C9.62394 1145.38 8.87422 1149.08 9.38162 1152.71L16.5266 1203.86C17.6286 1211.75 23.3062 1218.23 30.9804 1220.36L143.725 1251.69C146.83 1252.55 150.097 1252.65 153.249 1251.98L257.595 1229.73C261.186 1228.97 264.918 1229.2 268.383 1230.42L303.858 1242.86C305.707 1243.51 307.641 1243.88 309.599 1243.96L394.734 1247.7C397.867 1247.84 400.989 1247.24 403.847 1245.94L428.098 1234.98C430.78 1233.77 433.697 1233.17 436.64 1233.21L854.185 1239.6C860.886 1239.7 867.193 1236.44 870.984 1230.91Z" fill="url(#paint1_linear_2_303)"/>
</mask>
<g mask="url(#mask0_2_303)">
<g opacity="0.6">
<path d="M57.3175 149.241L13.1833 188.105C10.8906 199.16 13.1833 218.99 40.6955 209.87C68.2077 200.749 100.305 208.142 112.915 212.979L120.366 194.324L57.3175 149.241Z" fill="url(#paint2_linear_2_303)" style="mix-blend-mode:multiply"/>
</g>
<path d="M10.89 38.8647L66.4875 68.402L63.0485 81.8751L1.71924 73.5839L10.89 38.8647Z" fill="#787878" fill-opacity="0.5" style="mix-blend-mode:multiply"/>
<path d="M318.683 57.5198L298.049 -5.7002H357.085L347.342 57.5198H318.683Z" fill="#787878" fill-opacity="0.5" style="mix-blend-mode:multiply"/>
<path d="M89.9882 1114.64L-0.572754 1120.86V1144.7L84.8297 1131.74L89.9882 1114.64Z" fill="#787878" fill-opacity="0.5" style="mix-blend-mode:multiply"/>
<path d="M130 1299L171.27 1196.36L330 1175L316.508 1252.13L130 1299Z" fill="#787878" fill-opacity="0.5" style="mix-blend-mode:multiply"/>
<path d="M812.756 50.7833L847.72 -13.9913L961.781 50.7833L863.195 98.9756L812.756 50.7833Z" fill="#787878" fill-opacity="0.5" style="mix-blend-mode:multiply"/>
<path d="M959 1011L840.5 919.5L826 1131.5H959V1011Z" fill="#787878" fill-opacity="0.5" style="mix-blend-mode:multiply"/>
<path d="M984 789L855.5 650.5L823 789L958.5 899.5L984 789Z" fill="#787878" fill-opacity="0.5" style="mix-blend-mode:multiply"/>
<path d="M967.512 352.374L846 282.417L833.39 399.012L894.433 436.581L955.476 474.15L967.512 352.374Z" fill="#787878" fill-opacity="0.5" style="mix-blend-mode:multiply"/>
<path d="M264.5 1185.5L242.5 1192V1244L253.5 1247.5L271.5 1244L279 1188L264.5 1185.5Z" fill="#787878" fill-opacity="0.5" style="mix-blend-mode:multiply"/>
<path d="M4.5 1248.5L66.5 1146L171 1170.5L127.5 1274.5L4.5 1248.5Z" fill="url(#paint3_linear_2_303)" fill-opacity="0.5" style="mix-blend-mode:multiply"/>
<path d="M831.5 742L947.5 844L938.5 862.5L835.5 787L831.5 742Z" fill="url(#paint4_linear_2_303)" fill-opacity="0.5" style="mix-blend-mode:multiply"/>
<path d="M823.647 312.991L953.183 373.62L932.549 399.012L823.073 352.892L823.647 312.991Z" fill="url(#paint5_linear_2_303)" fill-opacity="0.5" style="mix-blend-mode:multiply"/>
<path d="M434 1262V1163L726.5 1178L894.5 1262H434Z" fill="#787878" fill-opacity="0.5" style="mix-blend-mode:multiply"/>
<path d="M-16.0488 698.011H87.6951L95.7195 759.158L-16.0488 777.295V698.011Z" fill="#787878" fill-opacity="0.5" style="mix-blend-mode:multiply"/>
<path d="M944.585 63.7382L922.232 96.3846L863.195 101.567L845.427 117.112H798.427V147.686L852.878 142.504L969.805 175.669L944.585 63.7382Z" fill="#787878" fill-opacity="0.5" style="mix-blend-mode:multiply"/>
<path d="M85.9759 45.6013L64.7686 -7.25479L292.891 -12.955L327.854 48.1923L85.9759 45.6013Z" fill="url(#paint6_linear_2_303)" fill-opacity="0.6" style="mix-blend-mode:multiply"/>
<path d="M22.3535 275.681L45.2803 221.788L119.219 214.015L78.5243 282.935L22.3535 275.681Z" fill="url(#paint7_linear_2_303)" fill-opacity="0.4" style="mix-blend-mode:screen"/>
<path d="M91.7076 308.327L-13.1826 292.781V699.048L91.7076 692.311V308.327Z" fill="url(#paint8_linear_2_303)" fill-opacity="0.6" style="mix-blend-mode:multiply"/>
</g>
<path d="M284.529 83.8791C238.143 93.7421 200.885 73.8689 170.074 67.9665C169.53 67.8622 168.97 67.8555 168.423 67.9409C141.432 72.1549 126.906 81.738 114.201 100.981C73.4822 162.653 103.306 141.404 133.127 197.893C156.769 242.676 128.486 298.621 105.649 341.319C105.238 342.087 105.037 342.885 105.063 343.756C108.279 453.068 133.127 743.429 133.127 777.293C133.127 819.79 68.896 894.417 105.026 986.147C141.156 1077.88 84.9202 1101.46 105.026 1129.18C149.758 1190.85 266.75 1153.02 290.837 1144.73C314.924 1136.44 461.164 1129.18 507.617 1144.73C554.069 1160.28 574.783 1057.77 665.9 1161.31C703.75 1204.33 781.746 1125.56 801.818 1108.45C821.89 1091.35 813.861 963.862 801.818 936.914C789.774 909.965 835.08 703.38 835.08 643.067C835.08 442.506 802.683 416.818 813.287 362.695C823.044 312.894 845.976 289.892 845.976 251.792C845.976 219.487 855.469 183.216 840.815 162.654C833.501 152.391 806.324 156.065 796.584 146.095C796.24 145.743 795.968 145.318 795.8 144.857C789.64 127.968 832.432 106.037 840.815 100.463C871.21 80.2505 796.656 45.0114 703.75 61.0765C660.144 68.6167 586.759 95.7979 534.571 80.2505C482.383 64.7031 343.025 71.4412 284.529 83.8791Z" fill="#B7B6B6"/>
<path d="M144.834 94.3806C154.033 87.293 191.957 89.1692 206.341 85C222.429 95.4229 217.966 117.728 177.031 131.903C136.095 146.078 126.628 132.25 127.011 123.565C129.119 116.79 135.635 101.468 144.834 94.3806Z" fill="#454545"/>
<path d="M148.905 97.4147C158.141 90.3327 186.424 93.2498 209.513 87C222.212 92.7281 222.328 120.744 181.229 134.908C140.131 149.072 130.626 135.255 131.011 126.576C133.128 119.806 139.669 104.497 148.905 97.4147Z" fill="#949494"/>
<path d="M135.574 167.839C137.893 163.541 151.614 160.975 158.185 160.228C167.461 158.66 165.142 165.601 163.403 167.839C161.663 170.077 154.127 175.897 147.749 177.688C141.372 179.479 132.676 173.211 135.574 167.839Z" fill="#454545"/>
<path d="M137.574 168.71C139.893 163.935 153.614 161.083 160.185 160.254C169.461 158.511 167.142 166.223 165.403 168.71C163.663 171.197 156.127 177.664 149.749 179.653C143.372 181.643 134.676 174.679 137.574 168.71Z" fill="#949494"/>
<path d="M788.129 199.827C787.125 191.743 792.187 177.656 796.161 169.094C796.583 168.186 797.916 168.434 798.044 169.427C802.037 200.316 822.3 227.906 822.986 241.457C823.698 255.507 796.543 279.965 800.099 271.119C802.914 264.118 805.385 250.09 805.209 243.743C805.205 243.605 805.173 243.48 805.113 243.355C799.865 232.516 789.261 208.934 788.129 199.827Z" fill="#454545"/>
<path d="M788.087 200.853C787.34 193.065 791.572 178.952 794.768 170.107C795.129 169.107 796.592 169.322 796.703 170.38C799.932 200.959 814.464 229.061 814.988 242.468C815.537 256.514 796.322 280.963 799.067 272.12C801.244 265.105 801.443 251.034 801.268 244.711C801.265 244.601 801.245 244.501 801.207 244.398C797.16 233.578 788.961 209.966 788.087 200.853Z" fill="#949494"/>
<path d="M745.296 247.472C749.994 243.252 758.217 239.824 763.669 237.982C765.566 237.341 767.693 237.988 768.686 239.727C773.921 248.888 769.261 258.225 764.698 263.562C763.364 265.122 761.125 265.41 759.33 264.415C751.153 259.879 740.216 252.035 745.296 247.472Z" fill="#949494"/>
<path d="M134.203 970.848C131.22 937.837 161.843 925.233 180.607 922.446C182.831 922.116 184.921 923.447 185.692 925.558C193.458 946.8 207.176 987.356 208.899 1004.63C211.18 1027.49 174.213 1055.34 163.853 1044.64C156.808 1037.36 138.194 1015.02 134.203 970.848Z" fill="#949494"/>
<path d="M234.059 1037.37C230.257 1031.69 239.037 1013.24 243.903 1004.73C259.523 998.723 263.165 1029.86 260.487 1039.1C257.809 1048.34 238.812 1044.48 234.059 1037.37Z" fill="#949494"/>
<path d="M745.801 71.2643C748.752 65.5547 780.781 66.7518 787.786 74.2485C804.918 83.2202 776.51 101.357 765.392 103.87C754.275 106.383 742.113 78.4014 745.801 71.2643Z" fill="#949494"/>
<defs>
<linearGradient id="paint0_linear_2_303" x1="470" y1="0" x2="832.066" y2="1215.15" gradientUnits="userSpaceOnUse">
<stop offset="0.120023" stop-color="#676767"/>
<stop offset="0.625023" stop-color="#454545"/>
</linearGradient>
<linearGradient id="paint1_linear_2_303" x1="470" y1="0" x2="832.066" y2="1215.15" gradientUnits="userSpaceOnUse">
<stop offset="0.120023" stop-color="#676767"/>
<stop offset="0.625023" stop-color="#454545"/>
</linearGradient>
<linearGradient id="paint2_linear_2_303" x1="66.4387" y1="149.241" x2="90.0187" y2="215.127" gradientUnits="userSpaceOnUse">
<stop offset="0.240035" stop-color="#787878"/>
<stop offset="0.575035" stop-color="#989898" stop-opacity="0.684196"/>
<stop offset="1" stop-color="#DEDEDE" stop-opacity="0"/>
</linearGradient>
<linearGradient id="paint3_linear_2_303" x1="20.5" y1="1182.5" x2="171" y2="1210.25" gradientUnits="userSpaceOnUse">
<stop stop-color="#787878"/>
<stop offset="1" stop-color="#DEDEDE" stop-opacity="0"/>
</linearGradient>
<linearGradient id="paint4_linear_2_303" x1="881" y1="835.5" x2="897.5" y2="798.5" gradientUnits="userSpaceOnUse">
<stop stop-color="#787878"/>
<stop offset="0.855035" stop-color="#DEDEDE" stop-opacity="0"/>
</linearGradient>
<linearGradient id="paint5_linear_2_303" x1="900.452" y1="348.228" x2="884.342" y2="381.706" gradientUnits="userSpaceOnUse">
<stop offset="0.265023" stop-color="#787878"/>
<stop offset="1" stop-color="#DEDEDE" stop-opacity="0"/>
</linearGradient>
<linearGradient id="paint6_linear_2_303" x1="64.7686" y1="17.6187" x2="335.305" y2="17.6187" gradientUnits="userSpaceOnUse">
<stop offset="0.190023" stop-color="#787878"/>
<stop offset="1" stop-color="#DEDEDE" stop-opacity="0"/>
</linearGradient>
<linearGradient id="paint7_linear_2_303" x1="70.7864" y1="214.015" x2="70.7864" y2="282.935" gradientUnits="userSpaceOnUse">
<stop stop-color="#737373" stop-opacity="0"/>
<stop offset="0.935023" stop-color="#D9D9D9"/>
</linearGradient>
<linearGradient id="paint8_linear_2_303" x1="39.2625" y1="292.781" x2="39.0283" y2="699.566" gradientUnits="userSpaceOnUse">
<stop stop-color="#575757"/>
<stop offset="0.447535" stop-color="#787878"/>
<stop offset="1" stop-color="#DEDEDE" stop-opacity="0"/>
</linearGradient>
</defs>
</svg>
