<svg width="800" height="2113" viewBox="0 0 800 2113" fill="none" xmlns="http://www.w3.org/2000/svg">
<path d="M490.238 123.054L415.84 185.004L449.152 194.242L501.897 256.192L490.238 439.936L425.833 520.296L388.079 663.76L379.196 731.144C377.715 735.311 389.634 743.534 449.152 743.1C508.671 742.665 512.076 704.517 506.339 685.497C479.319 671.187 442.268 644.088 510.226 650.174C578.183 656.261 584.069 596.557 578.517 565.944L550.756 541.49C675.123 537.686 671.237 401.916 640.145 406.721C619.047 409.981 567.968 383.897 611.829 365.964C655.691 348.031 645.158 309.13 638.506 303.033C627.797 293.218 615.779 280.863 606.832 251.301C603.533 240.4 589.066 160.55 555.198 132.292C528.103 109.685 500.602 116.714 490.238 123.054Z" fill="url(#paint0_linear_2777_510)"/>
<path d="M477.23 98.4504C487.415 101.485 497.341 114.165 501.031 120.126L452.877 174.315L457.305 216.583L486.087 400.285L420.22 521.669L315.607 633.841L349.924 802.911L294.02 863.603L197.157 897.201C180.552 894.491 152.655 886.363 173.909 875.525C200.478 861.978 170.588 845.179 158.411 840.302C148.67 836.4 139.223 824.948 135.718 819.71C128.706 805.621 124.869 775.058 165.607 765.521C206.345 755.983 148.633 726.504 114.684 712.957C98.2958 659.858 157.495 645.498 200.324 644.442C194.392 640.104 187.789 630.715 181.658 612.707C168.374 573.691 206.381 561.769 227.045 560.685C260.625 558.337 314.499 548.222 261.363 526.546C208.226 504.87 231.104 456.822 249.185 435.508C270.219 427.199 302.654 395.733 264.13 336.341C215.975 262.102 326.427 119.412 334.176 112.368C351.361 96.7455 464.5 94.6572 477.23 98.4504Z" fill="url(#paint1_linear_2777_510)"/>
<path d="M320.872 219.34C333.289 176.329 361.154 180.726 373.534 188.301V219.34L336.394 310.793H310.894C309.047 298.23 308.455 262.35 320.872 219.34Z" fill="#F1A39C"/>
<path d="M315.329 328.529C295.373 291.726 327.71 257.769 346.372 245.39L369.654 252.041L464.445 423.308L505.466 468.203H560.345L599.148 485.939L586.399 566.861C579.007 575.545 561.343 597.013 549.813 613.419C538.282 629.825 488.097 620.255 464.445 613.419L441.163 646.121C447.261 655.174 460.454 679.931 464.445 706.535C468.436 733.14 415.479 728.706 388.501 723.163L324.753 735.911L224.418 825.701C224.418 830.135 221.868 831.465 211.669 801.314C201.469 771.162 221.092 750.322 232.179 743.671C239.016 732.955 247.035 707.422 224.418 691.016C201.802 674.61 227.929 654.25 243.82 646.121L285.949 602.888L336.394 543.028L315.329 485.939C308.493 484.277 293.045 476.073 285.949 456.563C278.854 437.053 308.862 412.592 324.753 402.8C329.927 393.378 335.285 365.332 315.329 328.529Z" fill="#F1A39C"/>
<path d="M202.549 608.016L319.709 484.831L352.47 545.313L191.713 698.775L202.549 608.016Z" fill="#FFECDD"/>
<path d="M151.676 346.771C144.698 380.821 128.222 406.208 119.222 404.365C110.222 402.521 112.107 374.144 119.085 340.094C126.064 306.043 135.053 279.122 144.053 280.966C153.053 282.81 158.655 312.72 151.676 346.771Z" fill="#95ACB8"/>
<path d="M147.273 345.868C140.294 379.919 127.341 406.028 118.341 404.184C109.342 402.34 107.703 373.242 114.682 339.191C121.66 305.141 134.613 279.032 143.613 280.876C152.613 282.719 154.251 311.818 147.273 345.868Z" fill="#C2EBFF"/>
<path d="M178.413 422.929C150.584 402.101 121.405 394.057 115.899 401.411C110.394 408.766 130.646 428.733 158.475 449.561C186.305 470.39 210.903 484.552 216.409 477.197C221.915 469.843 206.243 443.757 178.413 422.929Z" fill="#95ACB8"/>
<path d="M175.719 426.528C147.889 405.699 120.866 394.777 115.36 402.131C109.854 409.485 127.951 432.332 155.781 453.16C183.61 473.989 210.633 484.911 216.139 477.557C221.645 470.203 203.548 447.356 175.719 426.528Z" fill="#C2EBFF"/>
<path d="M166.577 480.665C182.294 529.555 202.269 582.889 210.292 603.445L191.999 698.462L179.839 704.558L173.944 705.114C168.541 702.891 158.325 693.224 150.859 672.335C143.393 651.446 135.632 528.074 132.685 468.998L166.577 480.665Z" fill="#FFECDD"/>
<path d="M172.598 457.913C175.258 465.895 169.272 477.128 165.946 481.746L134.348 471.216L102.751 423.549L101.089 390.848C99.7586 353.601 103.306 353.712 106.632 355.929C113.099 362.765 123.927 377.546 124.37 381.98C124.814 386.414 130.468 401.933 131.022 413.018L148.761 430.755C155.598 436.482 169.937 449.932 172.598 457.913Z" fill="#FFECDD"/>
<path d="M236.06 658.314L270.983 553.005V529.172L290.384 521.412L304.797 548.571L308.123 593.466L236.06 658.314Z" fill="#FCD1BC"/>
<path d="M713.341 675.496L615.224 511.99L559.79 507.001L490.499 511.99L513.781 576.284L547.595 550.234L644.049 681.593L713.341 675.496Z" fill="#FFECDD"/>
<path d="M719.438 687.69C719.882 684.586 714.819 678.268 712.232 675.497H650.701L642.94 681.039C626.975 675.718 522.835 780.067 472.76 832.907L501.031 849.534C550.367 818.311 650.812 754.645 657.907 749.767C665.003 744.89 697.08 716.697 712.232 703.21C714.449 699.33 718.995 690.794 719.438 687.69Z" fill="#FFECDD"/>
<path d="M461.136 848.152C460.688 841.857 469.168 835.366 473.464 832.907H476.267L501.483 848.152L511.009 915.528C509.888 929.462 506.862 958.216 503.724 961.757C500.586 965.298 497.187 963.232 495.879 961.757L487.474 921.43C486.129 902.545 477.574 882.742 473.464 875.201C469.542 868.808 461.585 854.447 461.136 848.152Z" fill="#FFECDD"/>
<path d="M653.474 682.702L632.409 640.578L608.573 632.818L619.105 647.783L635.181 670.508L642.941 680.485C628.529 682.702 601.256 707.865 611.899 699.884C622.542 691.903 644.604 685.473 653.474 682.702Z" fill="#FCD1BC"/>
<path fill-rule="evenodd" clip-rule="evenodd" d="M547.036 549.81C548.53 551.176 550.041 552.557 551.583 553.918L550.26 555.417C548.656 554.002 547.114 552.593 545.607 551.215C542.63 548.493 539.786 545.893 536.856 543.609C532.472 540.191 528.022 537.589 522.931 536.524C512.798 534.405 499.673 538.302 478.941 555.438L477.667 553.897C498.51 536.669 512.271 532.252 523.341 534.567C528.852 535.719 533.583 538.521 538.085 542.032C541.075 544.363 544.021 547.055 547.036 549.81Z" fill="#E6B69C"/>
<path d="M431.739 443.261C439.278 443.261 445.228 420.721 447.261 409.451L502.14 355.134H524.313L506.575 448.25C540.389 431.622 571.432 443.815 579.747 448.25L615.224 511.435L514.89 576.838L431.739 662.748L288.167 616.745L311.449 494.807C342.492 442.929 371.317 433.654 381.849 435.502C395.338 438.088 424.201 443.261 431.739 443.261Z" fill="url(#paint2_linear_2777_510)"/>
<path d="M502.14 397.812C467.106 435.945 450.956 432.176 443.935 423.862L451.141 397.812L494.933 369.545C511.933 363.078 537.174 359.679 502.14 397.812Z" fill="#FCD1BC"/>
<path fill-rule="evenodd" clip-rule="evenodd" d="M355.974 484.403L348.471 492.482H348.035C329.999 492.482 312.638 497.254 306.254 499.625L305.558 497.75C312.056 495.336 329.428 490.559 347.598 490.483L354.509 483.042L355.974 484.403Z" fill="#E6B69C"/>
<path fill-rule="evenodd" clip-rule="evenodd" d="M405.839 506.046L400.605 511.279L400.261 511.32C377.043 514.083 363.338 518.633 355.191 523.384C347.09 528.109 344.488 533.03 343.453 536.652L341.53 536.102C342.713 531.965 345.654 526.631 354.183 521.657C362.625 516.733 376.54 512.158 399.68 509.375L404.424 504.631L405.839 506.046Z" fill="#E6B69C"/>
<path d="M187 1958.72L195.255 1890.91L207.362 1857L261.295 1870.3L269 1938.11C267.532 1941.88 259.864 1952.6 240.933 1965.37C222.001 1978.13 197.089 1966.25 187 1958.72Z" fill="#EBBF72"/>
<path d="M189 1943.72L196.55 1875.91L207.624 1842L256.953 1855.3L264 1923.11C262.658 1926.88 255.644 1937.6 238.329 1950.37C221.013 1963.13 198.228 1951.25 189 1943.72Z" fill="#FFECDD"/>
<path d="M252 1905.5L259 1914.5L218.5 1961L213 1957L222.845 1944L194 1911V1898.5L228.398 1936.67L252 1905.5Z" fill="#EBBF72"/>
<path d="M279.297 526.955C274.308 535.823 283.363 530.65 287.613 526.955L299.808 530.834C309.416 531.573 322.092 536.266 295.928 549.125C269.763 561.984 262.667 552.451 262.667 545.245L264.885 539.148L279.297 526.955Z" fill="white"/>
<path d="M289.061 573.499C279.32 548.454 282.049 525.381 287.953 516.685C290.994 511.119 297.917 503.351 305.667 498.133C308.433 498.133 325.59 513.786 341.088 535.816C356.4 532.531 373.245 524.093 400.698 523.629C428.15 523.165 487.168 585.706 506.021 585.706L505.467 591.803L477.241 623.356L462.3 635.531H457.318C419.682 637.386 358.616 594.949 332.787 573.499H289.061Z" fill="white"/>
<path d="M406.241 720.946L462.229 635.59L460.566 629.493L397.926 609.54L331.406 561.873L290.385 572.404C281.072 595.905 278.744 635.036 278.744 651.663L264.886 738.128L392.383 770.275L406.241 720.946Z" fill="white"/>
<path d="M489.945 578.501C608.794 609.539 636.289 568.155 635.181 543.582C653.474 572.404 673.43 596.237 673.43 605.105C662.343 648.338 621.877 644.458 593.605 638.361C584.182 637.253 518.031 602.334 484.956 586.261L489.945 578.501Z" fill="white"/>
<path d="M658.463 589.032C637.176 636.477 553.139 608.8 513.782 589.032C614.005 628.052 649.778 593.835 655.137 571.85L662.343 582.381L658.463 589.032Z" fill="#D5E4EE"/>
<path d="M462.782 851.197C462.782 846.763 416.218 794.293 392.936 768.612L385.73 760.853L329.188 749.767L263.776 738.128C249.142 751.43 223.679 799.466 212.777 821.821C183.952 856.851 181.18 957.615 183.398 1003.62L329.188 1030.22L414.555 882.236L455.576 917.708L498.814 1030.22C498.998 1028.19 499.922 1012.04 502.14 963.712C504.911 903.298 462.782 856.74 462.782 851.197Z" fill="white"/>
<path d="M529.857 1435.94C486.841 1391.16 485.695 1190.04 490.499 1095.07H471.652L361.894 1388.28L435.62 1731.36C440.794 1798.24 455.243 1932.67 471.652 1935.33C488.06 1937.99 522.466 1899.12 537.617 1879.35C542.606 1873.25 549.591 1859.84 537.617 1854.96C522.65 1848.87 525.976 1815.06 552.584 1809.51C573.871 1805.08 570.323 1797.32 572.54 1793.44C575.682 1786.42 561.675 1779.69 549.258 1771.27C536.841 1762.85 567.921 1745.22 585.844 1746.33L576.421 1662.63C576.421 1648.22 569.547 1630.6 542.052 1626.61C514.557 1622.62 554.432 1596.49 560.899 1588.92C574.203 1568.52 543.161 1558.62 525.976 1556.22C498.925 1552.23 522.466 1529.06 537.617 1517.97C552.954 1509.29 572.873 1480.73 529.857 1435.94Z" fill="url(#paint3_linear_2777_510)"/>
<path d="M156.241 1390.15C156.241 1310.97 178.864 1110.08 179.518 1009.72L183.952 987.545L330.865 990.905L377.3 1067.43L330.865 1310.3L368.144 1522.12L428.968 1780.53V1871.47C422.646 1895.31 403.461 1945.88 377.3 1957.41C351.139 1968.95 313.642 1952.61 298.164 1943C303.178 1935.97 307.189 1922.48 283.121 1924.7C253.036 1927.47 239.302 1900.85 246.496 1899.75C253.69 1898.64 244.534 1872.57 196.136 1881.45C157.418 1888.54 140.763 1869.99 137.275 1859.82L143.16 1823.78C106.012 1821.56 100.649 1799.19 102.612 1788.29L143.16 1690.14C118.962 1698.46 63.3699 1630.81 86.2606 1618.05C104.573 1607.85 140.544 1467.41 156.241 1398.47C161.255 1428.41 156.241 1401.24 156.241 1390.15Z" fill="url(#paint4_linear_2777_510)"/>
<path d="M461.119 599.008C473.98 604.329 494.194 596.791 502.694 594.574C502.694 597.235 476.825 624.135 463.891 635.035L407.349 719.837L391.273 770.829C407.647 770.829 433.023 806.762 444.619 826.256C444.962 826.812 445.288 827.366 445.598 827.918C445.284 827.379 444.957 826.824 444.619 826.256C431.198 804.505 392.661 780.377 374.643 770.829V751.984L391.273 699.884L461.119 599.008Z" fill="#D5E4EE"/>
<path d="M206.68 1405.46L139.051 1700.32C120.869 1708.75 109.671 1684.99 106.345 1672.06L190.604 1414.33L212.777 1245.83L206.68 1405.46Z" fill="url(#paint5_linear_2777_510)"/>
<path d="M343.927 259.256C341.986 240.953 354.258 209.343 360.637 195.825L377.318 170.51L441.485 161.23L500.065 190.09L520.861 263.009L543.159 282.524C543.627 287.717 546.854 300.947 545.655 309.495C544.457 318.043 538.065 322.047 535.019 322.98C534.775 330.788 527.567 346.487 525.42 354.025C498.838 388.254 450.957 410.57 437.632 412.78C419.022 415.866 411.698 408.604 405.044 404.24C392.555 390.433 366.118 364.235 356.383 344.833C348.831 329.779 347.564 299.927 348.751 286.467L344.823 268.402C345.229 273.559 344.299 267.671 343.612 262.834L344.823 268.402C344.689 266.701 344.409 263.797 343.927 259.256Z" fill="#FFE8D9"/>
<path d="M417.774 316.924C418.07 325.476 410.052 332.693 399.867 333.045C389.682 333.397 381.185 326.75 380.89 318.199C380.594 309.647 388.612 302.429 398.797 302.077C408.983 301.725 417.479 308.372 417.774 316.924Z" fill="url(#paint6_radial_2777_510)" fill-opacity="0.34"/>
<path d="M501.295 317.156C501.645 327.304 486.739 336.055 468.001 336.703C449.264 337.35 433.789 329.648 433.439 319.5C433.088 309.352 447.994 300.601 466.732 299.953C485.47 299.306 500.944 307.008 501.295 317.156Z" fill="url(#paint7_radial_2777_510)" fill-opacity="0.34"/>
<path d="M383.209 319.701C383.466 327.164 376.323 333.468 367.253 333.781C358.183 334.095 350.622 328.299 350.364 320.836C350.106 313.373 357.25 307.069 366.32 306.755C375.389 306.442 382.951 312.238 383.209 319.701Z" fill="url(#paint8_radial_2777_510)" fill-opacity="0.34"/>
<path d="M381.15 284.873C381.047 284.751 380.946 284.632 380.848 284.515C380.95 284.634 381.05 284.753 381.15 284.873C385.915 290.53 395.251 302.426 394.27 307.319C394.428 313.48 391.715 325.154 383.829 338.194C388.195 325.538 393.99 300.318 381.15 284.873Z" fill="#E6B69C"/>
<path d="M394.279 360.32C390.56 364.364 394.261 372.245 395.525 375.867C395.15 386.586 403.981 389.876 410.553 389.509C423.441 388.79 433.801 378.396 437.405 371.963C435.81 372.106 432.151 372.137 430.279 371.118C427.938 369.844 418 364.13 409.212 359.649C402.182 356.065 396.724 358.617 394.279 360.32Z" fill="#E69180"/>
<path d="M395.851 376.094C396.495 374.725 397.788 370.943 399.694 371.009C400.878 371.249 405.198 371.411 406.184 370.492C407.407 369.352 422.694 375.839 435.687 372.98C437.134 372.169 437.129 372.317 435.917 372.871L435.687 372.98C429.246 376.068 398.358 372.604 395.851 376.094Z" fill="#AC6055"/>
<path d="M418.121 297.261C419.446 297.378 424.324 296.324 426.598 295.783L427.15 295.831C446.834 299.793 463.351 295.499 469.149 292.857L471.163 295.26C445.714 312.492 416.464 297.115 418.121 297.261Z" fill="#5B1204"/>
<path fill-rule="evenodd" clip-rule="evenodd" d="M469.288 292.244L471.902 295.364L471.443 295.674C458.579 304.385 444.762 304.846 434.397 303.161C429.213 302.319 424.882 300.938 421.947 299.775C420.48 299.193 419.355 298.664 418.643 298.28C418.293 298.091 418.021 297.926 417.857 297.799C417.815 297.766 417.77 297.728 417.728 297.685C417.702 297.658 417.618 297.571 417.577 297.439C417.553 297.363 417.533 297.231 417.592 297.086C417.653 296.936 417.767 296.853 417.854 296.812C417.992 296.748 418.126 296.759 418.163 296.763L418.165 296.763C418.434 296.787 418.937 296.751 419.618 296.66C420.285 296.571 421.08 296.435 421.911 296.277C423.571 295.963 425.351 295.566 426.482 295.296L426.561 295.277L427.222 295.336L427.249 295.341C446.823 299.28 463.233 295.003 468.942 292.402L469.288 292.244ZM427.079 296.327L426.635 296.288C425.49 296.559 423.738 296.949 422.097 297.26C421.258 297.419 420.443 297.558 419.751 297.651C419.712 297.656 419.673 297.661 419.634 297.666C420.296 297.996 421.2 298.403 422.315 298.845C425.193 299.986 429.455 301.345 434.557 302.174C444.641 303.813 457.968 303.379 470.422 295.154L469.008 293.467C462.836 296.155 446.483 300.225 427.079 296.327Z" fill="#402020"/>
<path d="M426.598 295.783L432.071 277.903C451.527 271.829 462.89 285.999 469.149 292.857C456.52 299.756 435.52 297.682 426.598 295.783Z" fill="url(#paint9_linear_2777_510)"/>
<path d="M377.534 303.141L376.576 301.387C361.258 308.494 354.602 304.458 353.189 301.551C351.747 302.759 346.136 303.711 343.51 304.036C356.503 313.194 371.607 307.255 377.534 303.141Z" fill="#5B1204"/>
<path fill-rule="evenodd" clip-rule="evenodd" d="M376.791 300.736L378.189 303.295L377.82 303.551C374.798 305.649 369.467 308.195 363.241 309.061C357.004 309.928 349.845 309.113 343.222 304.445L342.164 303.699L343.449 303.54C344.75 303.379 346.792 303.062 348.684 302.637C349.63 302.424 350.53 302.186 351.276 301.93C352.038 301.669 352.583 301.406 352.868 301.168L353.359 300.756L353.639 301.332C354.254 302.598 356.1 304.26 359.732 304.728C363.363 305.196 368.758 304.463 376.366 300.933L376.791 300.736ZM353.022 302.266C352.623 302.492 352.131 302.694 351.6 302.876C350.806 303.148 349.868 303.396 348.903 303.612C347.528 303.922 346.08 304.174 344.881 304.352C350.943 308.202 357.398 308.864 363.103 308.07C368.908 307.263 373.914 304.949 376.878 302.982L376.361 302.036C368.87 305.447 363.413 306.211 359.605 305.72C356.115 305.27 353.993 303.76 353.022 302.266Z" fill="#402020"/>
<path d="M355.804 284.533C367.004 283.739 374.319 295.439 376.576 301.387C360.414 307.975 354.251 304.241 353.19 301.551C351.371 296.939 354.175 288.284 355.804 284.533Z" fill="url(#paint10_linear_2777_510)"/>
<path d="M431.437 240.929C423.368 241.553 411.547 255.664 409.853 260.151C426.32 243.798 461.855 251.011 475.579 253.149C462.667 248.115 449.477 239.534 431.437 240.929Z" fill="#F59F94"/>
<path d="M375.992 263.681C366.312 247.248 352.92 253.968 344.031 266.427C346.147 263.461 361.598 259.542 375.992 263.681Z" fill="#F59F94"/>
<path fill-rule="evenodd" clip-rule="evenodd" d="M455.261 245.098C448.136 242.514 440.402 240.738 431.475 241.428C429.58 241.575 427.413 242.522 425.172 243.984C422.94 245.44 420.68 247.378 418.608 249.446C416.537 251.512 414.664 253.698 413.205 255.643C412.604 256.444 412.078 257.199 411.639 257.882C420.024 251.116 432.092 249.192 443.746 249.216C454.143 249.238 464.31 250.813 471.41 251.969C469.874 251.306 468.33 250.614 466.771 249.915C466.371 249.736 465.97 249.556 465.568 249.376C462.234 247.886 458.826 246.392 455.261 245.098ZM467.181 249.003C470.096 250.309 472.935 251.582 475.761 252.683L475.502 253.643C474.552 253.495 473.5 253.323 472.359 253.137C465.228 251.972 454.613 250.239 443.744 250.216C431.115 250.19 418.291 252.476 410.205 260.506L409.385 259.975C409.835 258.784 410.927 257.014 412.405 255.043C413.892 253.06 415.796 250.838 417.901 248.738C420.005 246.639 422.319 244.652 424.625 243.146C426.923 241.647 429.259 240.596 431.398 240.431C440.512 239.726 448.393 241.543 455.602 244.158C459.204 245.465 462.641 246.973 465.976 248.464C466.379 248.644 466.781 248.824 467.181 249.003ZM368.402 254.985C371.26 256.527 373.972 259.266 376.423 263.428L377.06 264.509L375.854 264.162C368.738 262.115 361.35 262.059 355.477 262.885C352.541 263.297 349.997 263.929 348.065 264.634C347.099 264.987 346.294 265.356 345.674 265.719C345.045 266.088 344.642 266.431 344.438 266.718L343.624 266.137C348.097 259.868 353.762 254.952 359.613 253.73C362.555 253.116 365.536 253.44 368.402 254.985ZM346.303 264.273C346.736 264.075 347.21 263.882 347.722 263.695C349.732 262.961 352.347 262.315 355.338 261.895C360.984 261.101 368.014 261.104 374.907 262.869C372.703 259.421 370.34 257.167 367.927 255.866C365.282 254.439 362.544 254.14 359.817 254.709C355.079 255.698 350.349 259.318 346.303 264.273Z" fill="#E9A196"/>
<path d="M405.131 192.181L446.152 160.588L370.208 128.995L316.992 188.856L349.144 225.991C362.448 168.902 382.958 186.639 405.131 192.181Z" fill="#FCCECE"/>
<path d="M328.079 201.604C340.052 175.886 364.665 179.433 374.089 184.421L361.893 192.181L348.589 225.437C335.101 226.73 316.105 227.321 328.079 201.604Z" fill="#F1A39C"/>
<path d="M446.706 188.301C428.968 172.228 414.555 186.638 407.349 191.627L422.316 152.274L463.336 143.406L519.324 176.662L550.921 237.63L553.693 291.948C551.475 285.851 544.823 286.738 518.77 291.948C485.51 298.599 460.508 200.807 446.706 188.301Z" fill="#FCCECE"/>
<path d="M494.933 410.56C488.281 380.408 515.444 334.626 534.846 323.541L557.019 386.172L530.411 433.839L507.683 447.695C506.205 447.88 501.585 440.712 494.933 410.56Z" fill="#FCCECE"/>
<path fill-rule="evenodd" clip-rule="evenodd" d="M551.61 556.048C541.046 539.764 526.685 533.894 520.91 532.991L521.064 532.003C527.114 532.948 541.727 538.976 552.449 555.504L551.61 556.048Z" fill="#FCD1BC"/>
<path d="M499.368 119.019L423.424 166.131L494.933 110.705L499.368 119.019Z" fill="#F1A39C"/>
<path fill-rule="evenodd" clip-rule="evenodd" d="M436.807 180.916C436.807 180.087 437.479 179.416 438.307 179.416C442.239 179.416 444.563 182.742 445.977 185.819C447.068 188.192 447.847 190.939 448.439 193.024C448.634 193.712 448.809 194.328 448.968 194.835C451.684 203.507 453.944 212.281 456.191 221.01C456.314 221.487 456.437 221.964 456.56 222.442C458.934 231.656 461.323 240.813 464.264 249.824C467.75 260.507 473.547 269.468 484.375 272.252C486.063 272.686 488.312 273.152 490.521 273.31C492.781 273.471 494.764 273.29 496.077 272.633C496.818 272.263 497.719 272.563 498.089 273.304C498.46 274.045 498.159 274.946 497.418 275.317C495.364 276.344 492.711 276.474 490.308 276.302C487.854 276.127 485.413 275.616 483.628 275.157C471.31 271.99 465.015 261.795 461.412 250.755C458.437 241.641 456.027 232.397 453.655 223.19C453.534 222.72 453.412 222.249 453.291 221.779C451.039 213.033 448.798 204.327 446.105 195.732C445.905 195.096 445.704 194.387 445.491 193.634C444.909 191.587 444.235 189.212 443.251 187.072C441.87 184.068 440.27 182.416 438.307 182.416C437.479 182.416 436.807 181.744 436.807 180.916Z" fill="#FCCECE"/>
<path fill-rule="evenodd" clip-rule="evenodd" d="M384.6 177.739C385.52 177.765 386.463 177.793 387.442 177.793C388.27 177.793 388.942 178.464 388.942 179.293C388.942 180.121 388.27 180.793 387.442 180.793C386.324 180.793 385.298 180.766 384.339 180.742C379.651 180.621 376.556 180.542 372.191 183.774C365.483 188.743 361.951 198.225 360.044 206.501C358.716 212.266 358.255 218.168 358.033 224.171C357.953 226.353 357.904 228.566 357.854 230.79C357.769 234.626 357.683 238.497 357.434 242.302C356.789 252.131 355.669 262.976 351.794 271.988C347.879 281.092 341.122 288.381 329.314 290.892C322.124 292.421 314.271 292.846 306.937 291.657C305.806 291.474 304.213 291.031 302.797 290.322C301.478 289.663 299.848 288.543 299.408 286.783C299.207 285.979 299.696 285.165 300.5 284.964C301.303 284.763 302.118 285.252 302.319 286.055C302.416 286.443 302.938 287.039 304.139 287.639C305.244 288.192 306.539 288.553 307.417 288.696C314.327 289.816 321.801 289.422 328.69 287.958C339.363 285.688 345.428 279.198 349.038 270.802C352.688 262.314 353.795 251.938 354.44 242.106C354.686 238.352 354.769 234.613 354.852 230.833C354.902 228.594 354.951 226.34 355.035 224.06C355.26 217.992 355.729 211.869 357.121 205.828C359.046 197.471 362.765 187.023 370.406 181.363C375.651 177.479 379.802 177.599 384.6 177.739Z" fill="#FCCECE"/>
<path d="M611.343 304.696C593.161 297.602 583.072 256.66 580.3 237.076C578.638 245.944 580.079 271.884 599.148 304.696C622.984 345.711 591.941 364.556 566.442 384.51C546.042 400.472 553.507 412.223 559.79 416.102C574.942 419.613 607.795 428.296 617.995 434.947C628.195 441.598 604.876 459.889 591.941 468.203L599.148 482.059C609.126 475.593 629.636 457.118 631.854 434.947C634.625 407.234 526.53 427.742 580.3 384.51C623.317 349.924 618.919 316.89 611.343 304.696Z" fill="url(#paint11_linear_2777_510)"/>
<path d="M540.389 435.502C516.925 418.898 527.62 378.276 543.174 359.256C510.841 389.436 525.752 442.447 534.291 439.936C541.83 437.719 559.975 440.859 566.443 442.707C566.886 440.933 545.748 438.642 540.389 435.502Z" fill="url(#paint12_linear_2777_510)"/>
<path d="M307.568 334.626C279.63 298.71 295.927 251.672 307.568 232.642C269.43 260.577 272.091 296.752 278.189 311.347C291.493 321.693 315.995 350.7 307.568 383.955C297.036 425.525 277.635 409.451 253.798 447.695C234.729 478.291 271.722 501.828 292.602 509.773L299.254 503.121C293.932 503.121 280.776 491.667 274.863 485.939C248.698 460.222 271.721 434.208 286.504 424.416C305.166 409.451 335.507 370.542 307.568 334.626Z" fill="url(#paint13_linear_2777_510)"/>
<path d="M505.021 189.69C507.138 195.435 505.826 201.207 502.092 202.583C498.357 203.959 493.614 200.417 491.497 194.672C489.38 188.927 490.692 183.155 494.426 181.779C498.161 180.404 502.904 183.945 505.021 189.69Z" fill="#FFE4E4"/>
<path d="M522.894 184.429C523.985 188.106 523.146 191.598 521.021 192.228C518.897 192.857 516.291 190.387 515.201 186.709C514.11 183.032 514.949 179.54 517.073 178.91C519.198 178.281 521.804 180.751 522.894 184.429Z" fill="#FFE4E4"/>
<path d="M572.52 163.071C573.269 164.748 565.374 169.904 554.886 174.587C544.398 179.27 535.288 181.707 534.539 180.03C533.79 178.353 541.685 173.197 552.173 168.514C562.662 163.831 571.771 161.393 572.52 163.071Z" fill="#FFE4E4"/>
<path d="M317.865 165.318C315.057 170.085 310.551 172.637 307.8 171.017C305.049 169.397 305.095 164.219 307.903 159.451C310.712 154.684 315.218 152.133 317.969 153.753C320.72 155.373 320.674 160.551 317.865 165.318Z" fill="#FFE5E5"/>
<path d="M335.6 174.529C332.182 180.331 326.631 183.398 323.202 181.379C319.772 179.359 319.763 173.018 323.181 167.215C326.6 161.412 332.151 158.346 335.58 160.365C339.009 162.385 339.018 168.726 335.6 174.529Z" fill="#FFE5E5"/>
<path fill-rule="evenodd" clip-rule="evenodd" d="M386.13 333.02C386.624 333.267 386.824 333.868 386.577 334.362C385.713 336.09 384.931 337.74 384.626 339.431C384.624 339.801 384.617 340.159 384.61 340.508C384.597 341.202 384.584 341.865 384.614 342.525C384.701 343.145 384.837 343.757 385.03 344.318C385.361 344.867 385.902 345.325 386.658 345.863C387.75 346.64 388.978 347.147 390.326 347.704C390.544 347.794 390.765 347.886 390.99 347.98C390.98 347.976 390.974 347.973 390.974 347.973C390.974 347.973 391.002 347.982 391.084 348.01C391.17 348.038 391.284 348.077 391.397 348.116C391.504 348.154 391.633 348.202 391.74 348.248C391.786 348.268 391.869 348.305 391.952 348.355C391.984 348.375 392.084 348.437 392.182 348.542L392.183 348.543C392.216 348.578 392.664 349.057 392.35 349.684C392.188 350.009 391.916 350.159 391.744 350.224C391.575 350.288 391.418 350.303 391.316 350.308C391.108 350.317 390.893 350.288 390.718 350.257C390.353 350.192 389.917 350.07 389.515 349.945C388.791 349.721 388.056 349.449 387.808 349.357C387.777 349.345 387.754 349.336 387.739 349.331C386.378 348.834 384.684 347.92 383.793 346.409C383.561 346.016 383.367 345.594 383.206 345.158C382.922 344.632 382.725 344.021 382.661 343.294C382.644 343.103 382.631 342.91 382.621 342.717C382.555 342.223 382.516 341.741 382.498 341.289C382.469 340.598 382.519 339.924 382.626 339.267C382.626 339.265 382.626 339.263 382.626 339.261C382.626 339.135 382.649 339.016 382.691 338.905C383.08 336.923 383.97 335.104 384.788 333.467C385.035 332.973 385.636 332.773 386.13 333.02ZM390.958 350.089C390.958 350.089 390.957 350.088 390.954 350.087C390.957 350.088 390.958 350.089 390.958 350.089Z" fill="#E6B69C"/>
<path fill-rule="evenodd" clip-rule="evenodd" d="M403.947 445.868C404.121 445.344 404.688 445.061 405.211 445.235C405.512 445.335 405.821 445.437 406.135 445.54C407.377 445.949 408.703 446.386 409.929 446.866C411.327 447.412 412.757 447.883 414.215 448.354C414.376 448.407 414.538 448.459 414.7 448.511C415.994 448.928 417.311 449.353 418.611 449.829C418.883 449.928 419.146 450.027 419.403 450.123C421.043 450.736 422.418 451.251 424.027 451.297C424.579 451.312 425.014 451.773 424.998 452.325C424.982 452.877 424.522 453.311 423.97 453.296C422.003 453.24 420.291 452.595 418.668 451.985C418.418 451.891 418.17 451.797 417.924 451.707C416.663 451.245 415.385 450.833 414.086 450.414C413.924 450.362 413.762 450.31 413.6 450.258C412.141 449.786 410.66 449.299 409.201 448.728C408.031 448.271 406.773 447.856 405.536 447.449C405.215 447.343 404.895 447.238 404.579 447.133C404.055 446.958 403.772 446.392 403.947 445.868Z" fill="#E6B69C"/>
<path fill-rule="evenodd" clip-rule="evenodd" d="M502.008 455.179C502.314 455.639 502.19 456.26 501.731 456.566C500.352 457.485 498.748 458.079 497.172 458.542C496.381 458.774 495.581 458.978 494.809 459.172C494.731 459.192 494.653 459.212 494.575 459.231C493.881 459.405 493.214 459.573 492.574 459.753C486.395 461.49 480.072 462.019 473.762 462.082C470.986 462.11 468.183 462.341 465.346 462.595C465.054 462.621 464.762 462.647 464.469 462.673C461.929 462.902 459.36 463.133 456.808 463.228C455.891 463.262 455.133 463.729 454.126 464.352C453.99 464.435 453.85 464.522 453.704 464.611C453.4 464.796 453.01 465.104 452.536 465.477C452.318 465.649 452.082 465.835 451.829 466.029C451.455 466.316 451.056 466.608 450.671 466.848C450.304 467.077 449.869 467.31 449.432 467.407C448.893 467.527 448.359 467.187 448.239 466.647C448.119 466.108 448.459 465.574 448.998 465.454C449.094 465.433 449.295 465.349 449.614 465.151C449.915 464.963 450.253 464.717 450.611 464.442C450.791 464.305 450.981 464.154 451.176 464.001C451.701 463.588 452.251 463.154 452.664 462.902C452.785 462.829 452.912 462.749 453.044 462.666C454.001 462.066 455.245 461.284 456.734 461.229C459.23 461.137 461.744 460.91 464.292 460.681C464.584 460.655 464.876 460.629 465.168 460.603C468.005 460.349 470.879 460.111 473.742 460.082C479.962 460.02 486.09 459.499 492.033 457.828C492.701 457.64 493.397 457.465 494.086 457.292C494.165 457.272 494.243 457.252 494.321 457.233C495.094 457.039 495.859 456.843 496.609 456.623C498.114 456.181 499.491 455.655 500.621 454.902C501.081 454.596 501.702 454.72 502.008 455.179Z" fill="#E6B69C"/>
<path d="M494.531 1852.19C492.757 1845.98 480.488 1841.11 474.575 1839.44L448.521 1861.61C430.967 1899.12 393.532 1977.34 384.219 1990.2C374.906 2003.06 380.338 2010.34 384.219 2012.37C445.75 2024.01 457.391 2009.6 474.575 2000.73C491.76 1991.87 496.749 1859.95 494.531 1852.19Z" fill="#EBBF72"/>
<path d="M317.158 1457.98L311.561 1427.77L362.917 1403.21L391.592 1419.35C408.975 1448.53 440.608 1474.19 456.199 1540.6C462.77 1568.59 459.502 1739.53 454.925 1822.13L414.523 1824.42L317.158 1457.98Z" fill="#FFECDD"/>
<path d="M416.447 1841.29L414.726 1824.71L438.264 1813.89C441.725 1813.53 449.189 1812.98 451.357 1813.64C453.525 1814.31 458.716 1822.19 461.04 1826.05C480.965 1840.07 485.212 1849.98 484.845 1853.19C481.066 1870.71 473.528 1914.02 473.601 1947.09C473.674 1980.15 455.693 1996.99 446.693 2001.27C403.818 2016.9 379.115 2000.65 372.123 1990.58L416.447 1841.29Z" fill="#FFECDD"/>
<path d="M496.041 975.906C480.167 911.057 440.793 879.464 419.543 873.922C339.165 903.852 312.002 1088.86 312.002 1108.37C312.002 1127.88 302.209 1315.67 300.361 1378.3V1419.87L316.437 1448.14L339.165 1471.97L389.609 1419.87C492.493 1109.93 515.443 1055.17 496.041 975.906Z" fill="url(#paint14_linear_2777_510)"/>
<path d="M460.01 1613.86C431.185 1635.14 382.958 1632.34 362.447 1628.27L369.099 1655.43C397.925 1666.07 441.717 1651 460.01 1642.13V1613.86Z" fill="#EBBF72"/>
<path d="M383.512 1950.85L399.033 2007.38H409.565L387.392 1937.55L383.512 1950.85Z" fill="#EBBF72"/>
<path d="M479.412 1904.85L399.034 1981.89V1990.2L479.412 1918.15V1904.85Z" fill="#EBBF72"/>
<path d="M411.228 1808.96L481.629 1886.56L484.955 1881.57L407.348 1796.77L411.228 1808.96Z" fill="#EBBF72"/>
<path d="M446.101 1792.97L415.663 1827.8L412.891 1820.04L439.957 1788.64L408.832 1766.72L401.805 1775.7L399.587 1767.94L403.623 1763.05L394.044 1756.3V1747.44L408.058 1757.67L437.486 1721.98L398.248 1702.78L385.175 1713.63L382.957 1705.87L390.903 1699.19L379.631 1693.67L377.414 1684.25L397.317 1693.8L459.455 1641.57H460.01V1651.55L404.77 1697.37L442.754 1715.59L459.455 1695.34V1701.99L447.162 1717.71L459.455 1723.6L457.792 1731.92L442.066 1724.22L413.054 1761.32L444.014 1783.93L457.792 1767.94V1779.58L450.106 1788.38L457.792 1793.99V1801.2L446.101 1792.97Z" fill="#EBBF72"/>
<path d="M459.456 1207.03C417.327 1170.67 341.383 1174.89 309.232 1181.54L307.569 1207.03C359.898 1183.98 427.305 1208.14 454.467 1223.11L459.456 1207.03Z" fill="#EFC06C"/>
<path d="M182.289 1703.1L144.594 1821.71H135.725L198.919 1557.33L182.289 1703.1Z" fill="url(#paint15_linear_2777_510)"/>
<path d="M263.776 1664.3L248.809 1894.87C240.827 1874.92 204.093 1877.69 186.724 1881.57L257.124 1604.44L263.776 1664.3Z" fill="url(#paint16_linear_2777_510)"/>
<path d="M302.025 1683.14V1930.34C302.025 1922.8 288.352 1923.51 281.515 1924.8L302.025 1683.14Z" fill="url(#paint17_linear_2777_510)"/>
<path d="M382.404 1951.4C361.117 1966.92 337.318 1957.87 328.079 1951.4C346.581 1928.06 320.667 1594.68 305.107 1427.63L314.775 1440.38L360.23 1621.07L417.327 1841.66L382.404 1951.4Z" fill="url(#paint18_linear_2777_510)"/>
<path d="M469.434 1343.93C482.665 1410.44 509.619 1542.71 513.576 1549.85C514.198 1550.37 514.32 1550.51 513.781 1550.12C513.721 1550.08 513.653 1549.99 513.576 1549.85C510.618 1547.35 496.372 1536.02 488.281 1529.61L469.434 1343.93Z" fill="url(#paint19_linear_2777_510)"/>
<path d="M544.269 1687.02V1766.28V1771.27L524.867 1755.75C543.937 1707.42 532.813 1669.1 524.867 1655.98C488.947 1659.53 496.966 1595.02 505.466 1562.31V1595.02C498.814 1610.98 508.237 1629.01 513.781 1636.03C523.944 1636.95 544.269 1648.45 544.269 1687.02Z" fill="url(#paint20_linear_2777_510)"/>
<path d="M239.651 829.232C204.952 768.451 242.396 738.784 265.455 731.548L267.102 725.346C191.885 752.222 228.67 826.131 235.807 832.849C241.517 838.225 240.749 832.677 239.651 829.232Z" fill="#FFE9A2"/>
<path fill-rule="evenodd" clip-rule="evenodd" d="M267.829 724.555L265.868 731.943L265.605 732.025C254.165 735.615 239.171 744.769 231.341 760.533C223.528 776.265 222.795 798.697 240.085 828.984L240.111 829.03L240.127 829.08C240.407 829.959 240.669 830.979 240.811 831.933C240.95 832.865 240.988 833.815 240.756 834.507C240.636 834.865 240.427 835.205 240.071 835.409C239.711 835.616 239.288 835.633 238.848 835.521C238 835.305 236.898 834.562 235.465 833.214C234.514 832.319 233.128 830.373 231.583 827.65C230.029 824.912 228.29 821.348 226.644 817.181C223.351 808.849 220.417 798.082 220.072 786.672C219.727 775.258 221.971 763.183 229.057 752.265C236.144 741.343 248.046 731.624 266.934 724.875L267.829 724.555ZM232.453 827.157C233.991 829.867 235.316 831.7 236.15 832.485C237.572 833.824 238.515 834.404 239.095 834.552C239.368 834.621 239.504 834.581 239.573 834.542C239.647 834.5 239.736 834.405 239.808 834.189C239.96 833.736 239.957 832.989 239.822 832.08C239.692 831.21 239.453 830.265 239.19 829.433C221.808 798.962 222.451 776.186 230.446 760.088C238.369 744.136 253.456 734.858 265.042 731.154L266.374 726.142C248.175 732.815 236.731 742.276 229.896 752.809C222.947 763.517 220.731 775.379 221.072 786.641C221.412 797.907 224.312 808.558 227.574 816.813C229.204 820.94 230.923 824.462 232.453 827.157Z" fill="#DAA06A"/>
<path d="M399.034 746.962L400.697 742.528C447.815 812.365 288.721 843.404 282.069 841.741C276.748 840.411 279.852 838.6 282.069 837.861C413.779 815.691 412.707 767.839 399.034 746.962Z" fill="#FCE39B"/>
<path fill-rule="evenodd" clip-rule="evenodd" d="M400.569 741.445L401.111 742.249C407.043 751.04 409.752 759.255 409.9 766.901C410.049 774.548 407.634 781.58 403.392 788.002C394.921 800.824 379.14 811.248 361.759 819.4C344.363 827.558 325.292 833.474 310.158 837.246C302.59 839.133 296.001 840.484 291.092 841.313C288.638 841.727 286.599 842.011 285.065 842.165C284.299 842.243 283.653 842.288 283.141 842.301C282.645 842.313 282.228 842.296 281.948 842.226C280.603 841.89 279.7 841.504 279.184 841.054C278.917 840.822 278.725 840.547 278.657 840.227C278.588 839.902 278.662 839.598 278.803 839.34C279.068 838.855 279.604 838.46 280.139 838.157C280.694 837.842 281.336 837.579 281.911 837.387L281.948 837.374L281.986 837.368C347.812 826.288 380.319 808.807 394.687 791.606C409.004 774.464 405.357 757.529 398.615 747.236L398.476 747.024L400.569 741.445ZM400.821 743.619L399.59 746.901C406.433 757.505 410.011 774.819 395.454 792.247C380.851 809.73 348.049 827.257 282.191 838.348C281.668 838.524 281.105 838.759 280.632 839.027C280.128 839.313 279.805 839.592 279.681 839.819C279.628 839.916 279.626 839.977 279.635 840.02C279.645 840.068 279.685 840.164 279.841 840.3C280.17 840.587 280.875 840.927 282.19 841.256C282.327 841.29 282.623 841.313 283.116 841.301C283.594 841.289 284.213 841.246 284.965 841.17C286.47 841.019 288.485 840.738 290.926 840.327C295.806 839.503 302.37 838.157 309.916 836.276C325.011 832.514 344.016 826.617 361.334 818.494C378.669 810.364 394.242 800.038 402.557 787.451C406.708 781.168 409.044 774.331 408.9 766.92C408.761 759.739 406.292 751.978 400.821 743.619Z" fill="#DAA06A"/>
<path d="M300.363 821.233C312.337 818.129 318.287 825.113 319.765 828.993C306.461 836.531 296.113 829.178 292.602 824.559C290.2 824.744 288.389 824.337 300.363 821.233Z" fill="#E5B66C"/>
<path fill-rule="evenodd" clip-rule="evenodd" d="M314.251 822.062C317.526 823.967 319.455 826.777 320.232 828.815L320.385 829.216L320.011 829.428C313.237 833.266 307.18 833.326 302.361 831.812C297.705 830.348 294.227 827.424 292.37 825.076C291.86 825.106 291.359 825.108 291.025 825.045C290.924 825.026 290.804 824.995 290.694 824.937C290.594 824.885 290.401 824.755 290.353 824.498C290.306 824.241 290.437 824.048 290.517 823.957C290.603 823.857 290.716 823.775 290.826 823.706C291.259 823.434 292.139 823.082 293.609 822.612C295.098 822.136 297.24 821.526 300.237 820.749C306.342 819.167 310.959 820.148 314.251 822.062ZM313.748 822.926C310.702 821.155 306.358 820.196 300.488 821.717C297.499 822.492 295.377 823.097 293.913 823.565C293.308 823.758 292.824 823.925 292.44 824.069C292.481 824.066 292.522 824.063 292.564 824.06L292.835 824.039L293 824.256C294.701 826.494 298.083 829.419 302.661 830.858C307.13 832.262 312.762 832.258 319.133 828.772C318.339 826.965 316.595 824.582 313.748 822.926Z" fill="#DAA06A"/>
<path d="M213.803 825.577C212.452 813.283 220.219 808.4 224.271 807.495C229.82 821.742 221.055 830.924 215.979 833.734C215.816 836.138 215.154 837.871 213.803 825.577Z" fill="#E5B66C"/>
<path fill-rule="evenodd" clip-rule="evenodd" d="M216.619 811.954C218.975 808.987 222.033 807.482 224.162 807.007L224.581 806.913L224.737 807.313C227.562 814.568 226.751 820.569 224.56 825.12C222.442 829.517 219.047 832.539 216.457 834.038C216.413 834.547 216.343 835.043 216.233 835.365C216.2 835.462 216.152 835.576 216.079 835.677C216.012 835.769 215.856 835.94 215.595 835.951C215.334 835.961 215.162 835.803 215.083 835.711C214.997 835.611 214.932 835.488 214.879 835.369C214.672 834.902 214.45 833.98 214.196 832.458C213.94 830.917 213.644 828.709 213.305 825.632C212.617 819.364 214.251 814.936 216.619 811.954ZM217.402 812.576C215.211 815.336 213.637 819.496 214.299 825.522C214.637 828.592 214.93 830.778 215.183 832.294C215.287 832.92 215.383 833.424 215.471 833.824C215.474 833.784 215.477 833.742 215.48 833.7L215.498 833.429L215.736 833.297C218.195 831.935 221.577 829.01 223.659 824.686C225.691 820.467 226.497 814.893 223.962 808.087C222.059 808.614 219.45 809.997 217.402 812.576Z" fill="#DAA06A"/>
<path d="M214.984 748.023C224.302 739.889 232.749 743.471 235.807 746.279C227.285 758.974 214.74 757.029 209.533 754.47C207.468 755.711 205.667 756.158 214.984 748.023Z" fill="#E5B66C"/>
<path fill-rule="evenodd" clip-rule="evenodd" d="M227.774 742.549C231.556 742.786 234.539 744.436 236.145 745.911L236.462 746.201L236.222 746.558C231.883 753.022 226.494 755.786 221.507 756.588C216.688 757.364 212.268 756.305 209.557 755.036C209.115 755.292 208.667 755.518 208.34 755.611C208.241 755.639 208.12 755.665 207.996 755.663C207.883 755.661 207.653 755.631 207.495 755.422C207.337 755.214 207.368 754.983 207.399 754.866C207.432 754.738 207.495 754.614 207.563 754.503C207.828 754.066 208.458 753.357 209.562 752.279C210.68 751.187 212.322 749.683 214.655 747.647C219.405 743.5 223.974 742.31 227.774 742.549ZM227.711 743.547C224.194 743.326 219.88 744.413 215.313 748.4C212.987 750.431 211.36 751.921 210.26 752.995C209.806 753.438 209.447 753.805 209.169 754.105C209.204 754.084 209.24 754.063 209.275 754.042L209.509 753.902L209.753 754.022C212.276 755.261 216.61 756.364 221.348 755.601C225.972 754.857 231.007 752.333 235.144 746.364C233.625 745.104 230.999 743.753 227.711 743.547Z" fill="#DAA06A"/>
<path d="M243.035 720.166C255.205 717.95 260.625 725.352 261.814 729.33C247.992 735.87 238.213 727.776 235.051 722.912C232.642 722.92 230.866 722.381 243.035 720.166Z" fill="#E5B66C"/>
<path fill-rule="evenodd" clip-rule="evenodd" d="M256.825 722.013C259.951 724.153 261.668 727.097 262.293 729.187L262.416 729.598L262.028 729.782C254.99 733.112 248.945 732.727 244.251 730.862C239.714 729.061 236.461 725.889 234.782 723.411C234.271 723.403 233.771 723.369 233.442 723.281C233.343 723.255 233.225 723.215 233.12 723.149C233.024 723.09 232.842 722.946 232.813 722.686C232.784 722.426 232.929 722.244 233.015 722.159C233.109 722.066 233.227 721.992 233.342 721.931C233.794 721.692 234.698 721.405 236.198 721.045C237.718 720.68 239.899 720.229 242.946 719.674C249.15 718.544 253.683 719.862 256.825 722.013ZM256.26 722.838C253.352 720.847 249.09 719.572 243.125 720.658C240.087 721.211 237.926 721.658 236.432 722.017C235.814 722.165 235.318 722.297 234.926 722.412C234.966 722.412 235.008 722.412 235.049 722.412L235.322 722.411L235.47 722.64C237.002 724.996 240.16 728.162 244.62 729.933C248.973 731.662 254.59 732.072 261.201 729.064C260.541 727.203 258.978 724.699 256.26 722.838Z" fill="#DAA06A"/>
<path d="M207.126 789.039C208.795 776.784 217.514 773.928 221.665 774.032C223.595 789.199 212.866 795.983 207.26 797.48C206.52 799.772 205.457 801.293 207.126 789.039Z" fill="#E5B66C"/>
<path fill-rule="evenodd" clip-rule="evenodd" d="M213.16 776.504C216.165 774.196 219.497 773.477 221.678 773.532L222.107 773.543L222.161 773.969C223.144 781.692 220.902 787.318 217.673 791.202C214.553 794.955 210.527 797.063 207.651 797.89C207.485 798.374 207.297 798.838 207.112 799.124C207.056 799.21 206.982 799.309 206.886 799.389C206.8 799.462 206.607 799.59 206.351 799.537C206.095 799.484 205.967 799.289 205.912 799.181C205.853 799.063 205.819 798.928 205.797 798.8C205.71 798.296 205.717 797.348 205.84 795.81C205.965 794.252 206.213 792.039 206.63 788.971C207.481 782.723 210.14 778.823 213.16 776.504ZM213.769 777.297C210.974 779.444 208.439 783.099 207.621 789.106C207.205 792.165 206.96 794.358 206.837 795.89C206.787 796.523 206.758 797.035 206.746 797.444C206.759 797.405 206.771 797.366 206.784 797.326L206.868 797.067L207.131 796.997C209.847 796.272 213.836 794.253 216.904 790.563C219.898 786.961 222.031 781.749 221.221 774.532C219.248 774.582 216.381 775.291 213.769 777.297Z" fill="#DAA06A"/>
<path d="M385.854 768.303C391.278 757.188 400.453 757.207 404.363 758.606C401.444 773.614 389.129 776.697 383.337 776.362C381.916 778.307 380.43 779.419 385.854 768.303Z" fill="#E5B66C"/>
<path fill-rule="evenodd" clip-rule="evenodd" d="M395.512 758.29C399.089 757.039 402.478 757.4 404.532 758.135L404.936 758.28L404.854 758.701C403.368 766.344 399.476 770.984 395.193 773.661C391.054 776.248 386.57 776.99 383.579 776.874C383.27 777.281 382.946 777.663 382.681 777.876C382.601 777.94 382.499 778.012 382.384 778.058C382.279 778.1 382.055 778.161 381.828 778.031C381.602 777.9 381.541 777.675 381.524 777.555C381.504 777.424 381.515 777.286 381.534 777.157C381.609 776.651 381.913 775.753 382.512 774.331C383.118 772.891 384.047 770.867 385.405 768.084C388.17 762.417 391.917 759.547 395.512 758.29ZM395.842 759.234C392.515 760.397 388.962 763.074 386.303 768.523C384.949 771.298 384.029 773.303 383.433 774.719C383.187 775.304 382.999 775.782 382.859 776.167C382.884 776.134 382.908 776.101 382.933 776.067L383.094 775.847L383.366 775.863C386.172 776.025 390.593 775.357 394.662 772.813C398.635 770.331 402.293 766.049 403.785 758.942C401.895 758.371 398.951 758.147 395.842 759.234Z" fill="#DAA06A"/>
<path d="M370.859 789.305C382.832 786.201 388.782 793.185 390.26 797.065C376.957 804.603 366.609 797.25 363.098 792.631C360.696 792.816 358.885 792.409 370.859 789.305Z" fill="#E5B66C"/>
<path fill-rule="evenodd" clip-rule="evenodd" d="M384.746 790.134C388.022 792.039 389.951 794.849 390.727 796.887L390.88 797.288L390.507 797.5C383.732 801.338 377.676 801.398 372.857 799.884C368.2 798.42 364.722 795.496 362.866 793.148C362.356 793.178 361.855 793.18 361.52 793.117C361.42 793.098 361.299 793.067 361.189 793.009C361.089 792.957 360.897 792.827 360.849 792.57C360.801 792.313 360.933 792.121 361.012 792.029C361.099 791.93 361.211 791.847 361.322 791.778C361.755 791.506 362.635 791.154 364.105 790.684C365.594 790.208 367.735 789.598 370.733 788.821C376.837 787.239 381.455 788.22 384.746 790.134ZM384.244 790.999C381.197 789.227 376.853 788.268 370.984 789.789C367.995 790.564 365.873 791.169 364.409 791.637C363.804 791.83 363.319 791.997 362.936 792.141C362.977 792.139 363.018 792.136 363.059 792.132L363.331 792.112L363.496 792.328C365.197 794.566 368.578 797.491 373.157 798.93C377.625 800.334 383.258 800.33 389.629 796.844C388.834 795.037 387.091 792.654 384.244 790.999Z" fill="#DAA06A"/>
<path d="M339.964 807.075C352.225 805.437 357.289 813.086 358.289 817.116C344.173 822.996 334.788 814.449 331.859 809.441C329.452 809.335 327.704 808.713 339.964 807.075Z" fill="#E5B66C"/>
<path fill-rule="evenodd" clip-rule="evenodd" d="M353.651 809.571C356.673 811.857 358.249 814.879 358.774 816.996L358.877 817.412L358.481 817.578C351.294 820.572 345.274 819.901 340.672 817.817C336.226 815.803 333.126 812.481 331.567 809.926C331.057 809.895 330.559 809.836 330.234 809.733C330.137 809.702 330.021 809.657 329.919 809.587C329.826 809.522 329.651 809.37 329.634 809.109C329.617 808.848 329.771 808.673 329.861 808.592C329.959 808.504 330.081 808.435 330.199 808.38C330.661 808.162 331.577 807.919 333.093 807.63C334.629 807.337 336.828 806.989 339.898 806.579C346.148 805.744 350.614 807.274 353.651 809.571ZM353.048 810.369C350.237 808.243 346.04 806.767 340.03 807.57C336.969 807.979 334.79 808.324 333.28 808.612C332.657 808.731 332.155 808.839 331.757 808.935C331.798 808.937 331.839 808.939 331.881 808.941L332.153 808.953L332.291 809.188C333.709 811.614 336.714 814.926 341.085 816.906C345.352 818.839 350.944 819.514 357.689 816.821C357.118 814.931 355.674 812.356 353.048 810.369Z" fill="#DAA06A"/>
<path d="M328.183 847.751C338.809 841.421 338.027 832.28 336.307 828.501C321.592 832.659 319.545 845.187 320.361 850.93C318.541 852.508 317.556 854.081 328.183 847.751Z" fill="#E5B66C"/>
<path fill-rule="evenodd" clip-rule="evenodd" d="M337.359 837.295C338.308 833.626 337.666 830.279 336.762 828.294L336.584 827.903L336.171 828.02C328.678 830.137 324.377 834.401 322.065 838.892C319.832 843.232 319.466 847.761 319.831 850.732C319.451 851.073 319.097 851.428 318.906 851.71C318.849 851.795 318.787 851.902 318.75 852.021C318.717 852.129 318.674 852.357 318.824 852.572C318.973 852.787 319.202 852.828 319.323 852.836C319.455 852.845 319.592 852.823 319.719 852.793C320.217 852.676 321.086 852.298 322.454 851.583C323.839 850.859 325.779 849.765 328.439 848.181C333.857 844.953 336.406 840.981 337.359 837.295ZM336.391 837.044C335.509 840.456 333.136 844.219 327.927 847.322C325.274 848.902 323.352 849.985 321.99 850.697C321.428 850.991 320.967 851.218 320.595 851.39C320.626 851.363 320.657 851.336 320.689 851.308L320.895 851.13L320.856 850.86C320.461 848.078 320.759 843.616 322.955 839.35C325.098 835.185 329.061 831.184 336.02 829.105C336.746 830.941 337.215 833.856 336.391 837.044Z" fill="#DAA06A"/>
<path d="M243.998 801.098C238.162 790.194 228.993 790.556 225.139 792.101C228.618 806.989 241.04 809.608 246.816 809.056C248.309 810.947 249.835 812.002 243.998 801.098Z" fill="#E5B66C"/>
<path fill-rule="evenodd" clip-rule="evenodd" d="M233.972 791.453C230.351 790.338 226.978 790.825 224.953 791.637L224.554 791.796L224.652 792.214C226.423 799.795 230.486 804.287 234.867 806.802C239.1 809.232 243.608 809.805 246.593 809.577C246.916 809.973 247.255 810.343 247.528 810.545C247.61 810.606 247.714 810.674 247.831 810.716C247.938 810.754 248.164 810.807 248.385 810.668C248.606 810.529 248.659 810.302 248.672 810.181C248.686 810.05 248.671 809.912 248.647 809.784C248.553 809.281 248.215 808.395 247.564 806.997C246.904 805.58 245.9 803.592 244.439 800.862C241.463 795.303 237.611 792.574 233.972 791.453ZM233.678 792.409C237.046 793.447 240.696 795.989 243.557 801.334C245.015 804.056 246.009 806.026 246.657 807.419C246.926 807.994 247.131 808.464 247.285 808.844C247.26 808.812 247.234 808.78 247.208 808.747L247.039 808.533L246.768 808.559C243.97 808.826 239.527 808.324 235.365 805.935C231.303 803.603 227.486 799.461 225.729 792.415C227.596 791.774 230.53 791.439 233.678 792.409Z" fill="#DAA06A"/>
<path d="M242.563 776.723C243.498 764.39 235.571 759.772 231.49 759.004C226.425 773.43 235.495 782.311 240.664 784.949C240.907 787.345 241.628 789.055 242.563 776.723Z" fill="#E5B66C"/>
<path fill-rule="evenodd" clip-rule="evenodd" d="M239.288 763.203C236.833 760.316 233.726 758.916 231.582 758.513L231.16 758.433L231.018 758.838C228.439 766.184 229.453 772.155 231.797 776.629C234.061 780.953 237.556 783.857 240.196 785.268C240.256 785.776 240.343 786.269 240.464 786.587C240.501 786.683 240.553 786.796 240.629 786.894C240.698 786.983 240.86 787.149 241.122 787.151C241.383 787.152 241.549 786.989 241.625 786.895C241.708 786.791 241.769 786.667 241.818 786.546C242.008 786.071 242.2 785.143 242.401 783.613C242.606 782.064 242.827 779.848 243.061 776.761C243.538 770.473 241.755 766.103 239.288 763.203ZM238.526 763.851C240.81 766.535 242.523 770.64 242.064 776.685C241.831 779.764 241.611 781.959 241.41 783.482C241.327 784.112 241.248 784.619 241.174 785.022C241.17 784.981 241.165 784.94 241.161 784.898L241.133 784.627L240.891 784.503C238.387 783.226 234.909 780.416 232.682 776.165C230.509 772.016 229.515 766.473 231.819 759.586C233.738 760.048 236.392 761.342 238.526 763.851Z" fill="#DAA06A"/>
<path d="M256.489 757.623C261.899 746.501 256.229 739.288 252.717 737.072C242.697 748.621 247.86 760.217 251.694 764.572C251.038 766.89 251.079 768.745 256.489 757.623Z" fill="#E5B66C"/>
<path fill-rule="evenodd" clip-rule="evenodd" d="M258.422 743.847C257.202 740.259 254.829 737.814 252.984 736.649L252.621 736.42L252.339 736.745C247.237 742.625 245.981 748.55 246.513 753.573C247.027 758.426 249.207 762.413 251.142 764.697C251.011 765.191 250.91 765.682 250.906 766.022C250.905 766.124 250.911 766.248 250.946 766.367C250.978 766.476 251.067 766.69 251.31 766.788C251.552 766.886 251.766 766.795 251.872 766.735C251.987 766.669 252.09 766.576 252.179 766.481C252.531 766.111 253.051 765.318 253.802 763.97C254.563 762.604 255.584 760.626 256.938 757.841C259.697 752.171 259.648 747.451 258.422 743.847ZM257.475 744.169C258.61 747.505 258.691 751.952 256.039 757.404C254.689 760.181 253.676 762.141 252.928 763.483C252.619 764.038 252.359 764.48 252.142 764.827C252.153 764.788 252.164 764.748 252.175 764.708L252.249 764.446L252.069 764.241C250.212 762.132 248.013 758.239 247.507 753.467C247.014 748.81 248.131 743.29 252.809 737.735C254.423 738.871 256.415 741.051 257.475 744.169Z" fill="#DAA06A"/>
<path d="M425.443 776.213C422.737 764.145 413.807 762.042 409.679 762.498C409.047 777.775 420.315 783.621 426.028 784.635C426.961 786.856 428.149 788.282 425.443 776.213Z" fill="#E5B66C"/>
<path fill-rule="evenodd" clip-rule="evenodd" d="M418.364 764.238C415.173 762.194 411.792 761.761 409.624 762.001L409.198 762.049L409.18 762.478C408.858 770.256 411.571 775.671 415.119 779.266C418.547 782.74 422.738 784.499 425.674 785.078C425.88 785.545 426.107 785.992 426.316 786.261C426.379 786.341 426.462 786.434 426.563 786.506C426.656 786.571 426.859 786.683 427.11 786.608C427.36 786.533 427.471 786.328 427.516 786.216C427.565 786.093 427.587 785.956 427.598 785.826C427.642 785.317 427.554 784.373 427.301 782.851C427.044 781.309 426.609 779.125 425.931 776.104C424.552 769.951 421.57 766.292 418.364 764.238ZM417.825 765.08C420.792 766.981 423.629 770.407 424.955 776.323C425.631 779.336 426.062 781.499 426.314 783.015C426.419 783.641 426.491 784.149 426.538 784.556C426.522 784.519 426.506 784.48 426.489 784.442L426.384 784.191L426.116 784.143C423.348 783.652 419.201 781.98 415.83 778.564C412.54 775.23 409.972 770.219 410.164 762.959C412.135 762.841 415.051 763.303 417.825 765.08Z" fill="#DAA06A"/>
<path d="M408.157 809.356C412.113 797.638 405.574 791.203 401.81 789.45C393.335 802.176 399.927 813.024 404.282 816.857C403.926 819.239 404.201 821.074 408.157 809.356Z" fill="#E5B66C"/>
<path fill-rule="evenodd" clip-rule="evenodd" d="M408.328 795.446C406.663 792.043 403.998 789.917 402.021 788.997L401.632 788.815L401.394 789.173C397.078 795.653 396.584 801.689 397.748 806.604C398.874 811.353 401.541 815.031 403.75 817.051C403.683 817.557 403.645 818.057 403.684 818.395C403.696 818.497 403.718 818.619 403.768 818.733C403.813 818.837 403.929 819.038 404.182 819.104C404.435 819.17 404.636 819.053 404.733 818.98C404.839 818.901 404.929 818.795 405.006 818.69C405.308 818.277 405.723 817.425 406.297 815.993C406.878 814.542 407.641 812.45 408.631 809.516C410.648 803.542 410.001 798.866 408.328 795.446ZM407.429 795.886C408.978 799.051 409.623 803.452 407.683 809.196C406.696 812.122 405.94 814.194 405.369 815.621C405.132 816.21 404.93 816.682 404.759 817.054C404.765 817.013 404.771 816.972 404.777 816.931L404.817 816.662L404.613 816.482C402.503 814.625 399.828 811.042 398.721 806.373C397.641 801.816 398.05 796.199 401.985 790.095C403.73 791.017 405.982 792.927 407.429 795.886Z" fill="#DAA06A"/>
<path d="M372.376 832.989C381.307 824.432 378.489 815.701 375.964 812.405C362.561 819.765 363.383 832.431 365.47 837.845C364.05 839.791 363.445 841.546 372.376 832.989Z" fill="#E5B66C"/>
<path fill-rule="evenodd" clip-rule="evenodd" d="M378.966 820.737C379.065 816.95 377.687 813.833 376.361 812.101L376.1 811.76L375.723 811.967C368.898 815.715 365.666 820.836 364.423 825.732C363.223 830.462 363.885 834.958 364.908 837.77C364.614 838.188 364.349 838.614 364.227 838.932C364.191 839.027 364.154 839.146 364.145 839.27C364.137 839.383 364.146 839.614 364.34 839.79C364.534 839.966 364.767 839.955 364.886 839.935C365.016 839.914 365.145 839.862 365.262 839.804C365.721 839.578 366.483 839.015 367.655 838.011C368.842 836.994 370.486 835.492 372.722 833.35C377.275 828.987 378.866 824.543 378.966 820.737ZM377.966 820.711C377.874 824.234 376.408 828.433 372.03 832.628C369.801 834.764 368.171 836.252 367.004 837.251C366.522 837.665 366.125 837.989 365.801 838.24C365.825 838.207 365.849 838.173 365.874 838.139L366.034 837.919L365.936 837.665C364.925 835.043 364.212 830.629 365.393 825.978C366.545 821.438 369.507 816.648 375.82 813.058C376.94 814.684 378.053 817.419 377.966 820.711Z" fill="#DAA06A"/>
<defs>
<linearGradient id="paint0_linear_2777_510" x1="606.909" y1="620.625" x2="518.786" y2="743.127" gradientUnits="userSpaceOnUse">
<stop stop-color="#FCCECE"/>
<stop offset="1" stop-color="#FDDBAD"/>
</linearGradient>
<linearGradient id="paint1_linear_2777_510" x1="292.601" y1="432.73" x2="306.456" y2="897.201" gradientUnits="userSpaceOnUse">
<stop stop-color="#FCCECE"/>
<stop offset="1" stop-color="#FCDBAB"/>
</linearGradient>
<linearGradient id="paint2_linear_2777_510" x1="463.336" y1="355.134" x2="463.336" y2="524.183" gradientUnits="userSpaceOnUse">
<stop stop-color="#FAC0A7"/>
<stop offset="0.655" stop-color="#FFECDD"/>
</linearGradient>
<linearGradient id="paint3_linear_2777_510" x1="473.869" y1="1095.07" x2="473.869" y2="1935.46" gradientUnits="userSpaceOnUse">
<stop offset="0.54" stop-color="white"/>
<stop offset="1" stop-color="#D5E4EE"/>
</linearGradient>
<linearGradient id="paint4_linear_2777_510" x1="254.907" y1="987.545" x2="254.907" y2="1961.38" gradientUnits="userSpaceOnUse">
<stop offset="0.54" stop-color="white"/>
<stop offset="1" stop-color="#D5E4EE"/>
</linearGradient>
<linearGradient id="paint5_linear_2777_510" x1="159.561" y1="1245.83" x2="159.561" y2="1702.09" gradientUnits="userSpaceOnUse">
<stop stop-color="white"/>
<stop offset="1" stop-color="#D5E4EE"/>
</linearGradient>
<radialGradient id="paint6_radial_2777_510" cx="0" cy="0" r="1" gradientUnits="userSpaceOnUse" gradientTransform="translate(399.332 317.561) rotate(88.0216) scale(15.4933 18.4533)">
<stop offset="0.45" stop-color="#F9A19F"/>
<stop offset="1" stop-color="#FFE8D9"/>
</radialGradient>
<radialGradient id="paint7_radial_2777_510" cx="0" cy="0" r="1" gradientUnits="userSpaceOnUse" gradientTransform="translate(467.367 318.328) rotate(88.0216) scale(18.3857 33.9481)">
<stop offset="0.45" stop-color="#F9A19F"/>
<stop offset="1" stop-color="#FFE8D9"/>
</radialGradient>
<radialGradient id="paint8_radial_2777_510" cx="0" cy="0" r="1" gradientUnits="userSpaceOnUse" gradientTransform="translate(366.786 320.268) rotate(88.0216) scale(13.5211 16.432)">
<stop offset="0.45" stop-color="#F9A19F"/>
<stop offset="1" stop-color="#FFE8D9"/>
</radialGradient>
<linearGradient id="paint9_linear_2777_510" x1="449.33" y1="277.812" x2="447.533" y2="298.193" gradientUnits="userSpaceOnUse">
<stop stop-color="#FFECDD"/>
<stop offset="1" stop-color="#FBCEB8"/>
</linearGradient>
<linearGradient id="paint10_linear_2777_510" x1="365.821" y1="285.224" x2="364.044" y2="305.382" gradientUnits="userSpaceOnUse">
<stop stop-color="#FFECDD"/>
<stop offset="1" stop-color="#EAB8A2"/>
</linearGradient>
<linearGradient id="paint11_linear_2777_510" x1="593.05" y1="276.983" x2="592.507" y2="482.059" gradientUnits="userSpaceOnUse">
<stop stop-color="#FCCECE"/>
<stop offset="1" stop-color="#F1A39C"/>
</linearGradient>
<linearGradient id="paint12_linear_2777_510" x1="543.227" y1="442.707" x2="543.227" y2="350.145" gradientUnits="userSpaceOnUse">
<stop stop-color="#F1A39C"/>
<stop offset="1" stop-color="#FCCECE"/>
</linearGradient>
<linearGradient id="paint13_linear_2777_510" x1="283.69" y1="232.642" x2="283.69" y2="509.773" gradientUnits="userSpaceOnUse">
<stop stop-color="#FCCECE"/>
<stop offset="1" stop-color="#F1A39C"/>
</linearGradient>
<linearGradient id="paint14_linear_2777_510" x1="401.337" y1="873.922" x2="401.337" y2="1471.97" gradientUnits="userSpaceOnUse">
<stop offset="0.185" stop-color="#FCD7C3"/>
<stop offset="0.79" stop-color="#FFECDD"/>
</linearGradient>
<linearGradient id="paint15_linear_2777_510" x1="167.322" y1="1557.33" x2="167.322" y2="1821.71" gradientUnits="userSpaceOnUse">
<stop stop-color="white"/>
<stop offset="0.595" stop-color="#D5E4EE"/>
</linearGradient>
<linearGradient id="paint16_linear_2777_510" x1="225.25" y1="1604.44" x2="225.25" y2="1894.87" gradientUnits="userSpaceOnUse">
<stop stop-color="white"/>
<stop offset="0.325" stop-color="#D5E4EE"/>
</linearGradient>
<linearGradient id="paint17_linear_2777_510" x1="291.77" y1="1683.14" x2="291.77" y2="1930.34" gradientUnits="userSpaceOnUse">
<stop stop-color="white"/>
<stop offset="0.41" stop-color="#D5E4EE"/>
</linearGradient>
<linearGradient id="paint18_linear_2777_510" x1="361.062" y1="1424.3" x2="361.062" y2="1959.97" gradientUnits="userSpaceOnUse">
<stop stop-color="#FFFAFA"/>
<stop offset="0.7" stop-color="#D5E4EE"/>
</linearGradient>
<linearGradient id="paint19_linear_2777_510" x1="506.852" y1="1343.93" x2="506.852" y2="1771.27" gradientUnits="userSpaceOnUse">
<stop stop-color="white"/>
<stop offset="1" stop-color="#D5E4EE"/>
</linearGradient>
<linearGradient id="paint20_linear_2777_510" x1="506.852" y1="1343.93" x2="506.852" y2="1771.27" gradientUnits="userSpaceOnUse">
<stop stop-color="white"/>
<stop offset="1" stop-color="#D5E4EE"/>
</linearGradient>
</defs>
</svg>
