<svg width="1319" height="1914" viewBox="0 0 1319 1914" fill="none" xmlns="http://www.w3.org/2000/svg">
<path d="M562.136 1863.15L537.479 1847.69L706.793 1792.62C733.506 1804.64 787.834 1830.26 791.45 1836.6C795.067 1842.94 781.724 1848.22 774.601 1850.07C761.122 1850.07 627.342 1858.79 562.136 1863.15Z" fill="#EAC79B"/>
<path d="M891.313 584.173C931.313 638.983 986.902 768.888 971.45 850.032C952.135 951.463 889.669 989.895 944.738 998.612C998.51 1007.12 1022.5 988.435 1022.07 972.795C1022.05 972.417 1022.02 972.042 1022 971.67C1022.04 972.043 1022.06 972.418 1022.07 972.795C1024.29 1009.71 1008.77 1074.07 928.71 1044.57C847.834 1014.78 724.875 828.241 673.506 738.696L774.601 498.591L891.313 584.173Z" fill="#381D1A"/>
<path fill-rule="evenodd" clip-rule="evenodd" d="M1054.16 354.883C955.505 434.033 960.981 514.635 971.533 540.143L972.592 542.703L972.883 545.441C990.739 713.656 918.492 838.991 877.965 882.37L876.169 884.293L873.914 885.697C839.111 907.364 809.87 941.325 787.319 976.098C764.848 1010.75 749.932 1044.79 743.213 1064.96L742.624 1066.73L741.702 1068.36C700.714 1140.69 638.064 1190.93 577.224 1224.31C516.807 1257.46 457.045 1274.62 419.319 1280.3C316.904 1301.65 266.078 1381.56 253.895 1417.61C250.415 1427.9 238.93 1433.48 228.24 1430.07C217.551 1426.66 211.706 1415.55 215.185 1405.25C230.381 1360.28 290.147 1266.71 411.167 1241.77L411.742 1241.66L412.323 1241.57C445.15 1236.7 500.524 1221.11 556.959 1190.14C612.834 1159.48 668.625 1114.38 705.067 1050.94C713.027 1027.65 729.126 991.606 752.778 955.135C776.518 918.529 808.749 880.119 849.339 854.158C883.354 816.377 947.965 703.993 932.649 551.773C916.102 507.56 919.579 411.639 1028.04 324.626C1036.66 317.71 1049.5 318.876 1056.71 327.232C1063.93 335.587 1062.78 347.967 1054.16 354.883Z" fill="#F09562"/>
<path fill-rule="evenodd" clip-rule="evenodd" d="M1017.41 359.557C811.949 624.527 406.893 1165.68 230.043 1403.15L226.835 1400.76C403.682 1163.3 808.76 622.111 1014.25 357.106L1017.41 359.557Z" fill="#FFF2C3"/>
<path d="M826.794 872.221C845.533 869.051 852.958 889.654 854.328 900.352C805.999 922.857 756.246 1025.95 735.561 1075.87C691.835 1162.09 587.89 1219.83 543.233 1236.74C543.233 1225.01 530.082 1213.62 523.507 1209.4C601.425 1184.04 674.191 1094.89 703.095 1052.89C698.493 1008.84 785.15 913.691 826.794 872.221Z" fill="url(#paint0_linear_2495_9)"/>
<path d="M911.45 1722.49L811.998 1378.97L814.875 1354.41H889.669C976.463 1400.05 977.477 1618.82 968.162 1722.49H911.45Z" fill="#FFEDDC"/>
<path d="M520.631 258.877C520.631 108.716 554.466 68.0349 585.562 69.0915C585.562 69.0915 734.739 139.617 768.027 139.617C801.314 139.617 786.109 278.295 796.794 297.71C807.479 317.124 848.985 360.707 856.794 399.536C864.602 438.365 883.506 523.944 883.506 523.944L683.781 414.193L471.187 480.57C462.599 489.912 455.541 491.311 452.823 486.303L471.187 480.57C491.59 458.374 520.631 391.342 520.631 258.877Z" fill="#381D1A"/>
<path d="M794.326 204.204C810.628 267.07 890.992 423.822 914.737 445.498C953.365 480.761 913.915 651.529 942.271 676.49C970.627 701.452 1042.54 785.449 1026.93 863.503C1011.95 938.354 907.03 995.715 923.451 1009.03C924.413 1009.54 925.345 1010.03 926.242 1010.5C925.079 1010.09 924.154 1009.6 923.451 1009.03C900.329 996.72 859.799 971.036 862.955 955.82C867.064 936.01 1083.23 896.784 992.819 819.523C902.408 742.261 864.19 726.017 885.97 676.49C907.751 626.964 923.367 526.326 873.231 530.288C823.094 534.25 763.505 237.486 794.326 204.204Z" fill="#5A2F30"/>
<path d="M632.41 1326.28C590.657 1299.02 548.164 1128.44 532.137 1046.55L686.246 1004.16L708.438 1124.21C686.739 1149.88 746.246 1232.77 762.684 1278.73C797.533 1291.73 785.423 1345.03 791.04 1362.33L653.78 1370.26C656.082 1350.29 640.493 1332.62 632.41 1326.28Z" fill="#FFD8C8"/>
<path d="M765.149 59.9821C779.084 72.9779 776.613 121.923 773.635 144.772L765.149 229.561L779.441 224.41C880.557 137.878 812.045 78.7362 765.149 59.9821Z" fill="#5A2F30"/>
<path d="M398.576 899.559C315.398 759.775 415.425 543.099 475.836 452.234L582.685 555.25L486.932 991.48C450.768 982.922 412.96 926.633 398.576 899.559Z" fill="#381D1A"/>
<path d="M385.832 938.388C314.161 855.975 321.867 797.336 334.464 738.696C375.467 528.805 505.299 305.357 527.205 161.414C585.086 482.032 469.669 523.949 398.574 643.209C341.697 738.617 437.201 946.312 480.763 1004.95L385.832 938.388Z" fill="#5A2F30"/>
<path d="M469.26 529.891C456.439 416.098 513.643 399.801 540.766 392.801L514.876 529.891L545.672 725.224L478.275 867.464L469.26 529.891Z" fill="#FFEDDC"/>
<path d="M868.299 505.749C865.737 499.897 816.108 378.934 769.26 405.877L680.083 550.099L787.343 590.908C787.343 590.908 786.003 545.302 800.936 544.456C815.869 543.61 945.307 666.14 940.919 651.668C936.532 637.197 1012.57 621.169 1012.57 621.169C1012.57 621.169 870.861 511.601 868.299 505.749Z" fill="#FFEDDC"/>
<path d="M697.341 348.03C682.957 332.578 697.341 276.316 697.341 276.316H694.464L613.916 296.919C613.916 296.919 622.546 353.577 603.231 363.482C583.916 373.388 535.834 395.972 535.834 395.972L603.231 476.799L804.6 395.972C804.6 395.972 711.724 363.482 697.341 348.03Z" fill="#FFD8C8"/>
<path d="M595.424 367.443L631.27 488.055L652.547 509.175L526.187 621.812C472.691 562.18 504.132 446.011 533.37 394.385L595.424 367.443Z" fill="url(#paint1_linear_2495_9)"/>
<path d="M754.053 557.627C757.341 583.935 787.067 585.494 797.615 581.003L766.793 641.624L747.478 659.85L754.053 557.627Z" fill="#FCFCFC"/>
<path d="M562.548 229.957L551.452 164.219C551.452 164.219 551.452 76.26 598.712 61.9963C645.972 47.7327 763.917 113.9 763.917 113.9L755.287 164.219C758.988 158.522 767.615 153.885 775.013 164.219C782.41 174.554 772.958 219.656 755.287 224.047C740.63 227.69 739.826 225.29 739.978 224.365L733.917 243.066C702.325 294.567 663.643 312.37 640.63 312.37C617.616 312.37 566.246 264.428 562.548 229.957Z" fill="#FFEFE2"/>
<path d="M512.822 607.549C638.033 378.321 770.492 376.953 770.492 376.953L789.807 392.802C733.588 427.351 762.41 621.548 770.492 712.149L537.068 722.054L512.822 607.549Z" fill="#FCFCFC"/>
<path d="M812.41 1379.77C733.835 1330.32 683.232 1124.61 667.753 1027.93L869.944 973.65L855.56 1189.59C855.56 1207.81 867.204 1301.45 890.902 1355.6L812.41 1379.77Z" fill="#FFEDDC"/>
<path d="M668.574 79.7944L625.012 65.9269L619.67 31.0602L663.642 38.9844L668.574 79.7944Z" fill="#5A2F30"/>
<path d="M478.379 1137.81C452.102 1106.93 409.362 1125.87 411.827 1102.81C414.293 1079.75 510.85 753.754 510.85 753.754L526.379 681.727L759.178 641.625L970.627 1121.36C970.627 1121.36 934.906 1131.88 912.735 1121.36C890.564 1110.83 836.778 1079.75 784.223 1079.75C731.669 1079.75 759.178 1137.81 616.707 1155.44C591.977 1158.5 511.226 1176.41 478.379 1137.81Z" fill="white"/>
<path d="M703.505 1732L655.012 1364.71L784.464 1357.58C807.806 1404.18 788.436 1573.78 775.834 1652.76C765.313 1667.66 771.45 1711.8 775.834 1732H703.505Z" fill="#FFD8C8"/>
<path d="M482.411 1203.45L540.356 758.503L709.67 641.625L795.56 1171.28C685.424 1169.8 540.904 1192.11 482.411 1203.45Z" fill="url(#paint2_linear_2495_9)"/>
<path fill-rule="evenodd" clip-rule="evenodd" d="M712.595 419.793C713.443 420.5 713.558 421.761 712.851 422.61C686.035 454.796 645.125 507.239 609.575 559.934C591.8 586.282 575.384 612.664 562.742 636.59C550.077 660.56 541.289 681.901 538.631 698.208C538.454 699.298 537.426 700.038 536.336 699.86C535.246 699.682 534.506 698.655 534.684 697.564C537.45 680.59 546.495 658.776 559.205 634.722C571.938 610.623 588.439 584.111 606.26 557.697C641.901 504.867 682.896 452.314 709.778 420.049C710.485 419.201 711.746 419.086 712.595 419.793ZM730.506 446.608C731.425 447.221 731.673 448.463 731.06 449.382C710.748 479.845 676.007 535.846 646.062 589.135C631.088 615.78 617.33 641.718 607.177 663.431C602.1 674.288 597.938 684.063 594.976 692.325C592 700.629 590.294 707.255 590.024 711.87C589.959 712.973 589.013 713.815 587.91 713.75C586.808 713.686 585.966 712.739 586.031 711.637C586.336 706.426 588.207 699.356 591.211 690.975C594.23 682.553 598.448 672.656 603.554 661.736C613.767 639.895 627.579 613.86 642.574 587.175C672.567 533.803 707.36 477.715 727.732 447.162C728.345 446.243 729.587 445.995 730.506 446.608Z" fill="#E1E7F2"/>
<path d="M802.958 756.129H509.123L519.808 638.85C536.904 650.578 692.136 643.737 767.615 638.85C767.615 651.529 791.177 722.319 802.958 756.129Z" fill="#F6E6A3"/>
<path fill-rule="evenodd" clip-rule="evenodd" d="M518.126 635.271L520.939 637.201C521.742 637.751 523.105 638.341 525.124 638.912C527.112 639.475 529.605 639.985 532.572 640.441C538.505 641.352 546.19 642.024 555.228 642.488C573.298 643.416 596.61 643.508 621.784 643.081C672.122 642.227 729.766 639.296 767.486 636.854L769.615 636.717V638.85C769.615 640.212 769.943 642.529 770.609 645.737C771.265 648.9 772.221 652.797 773.413 657.253C775.795 666.161 779.099 677.224 782.777 688.968C790.132 712.45 798.96 738.579 804.846 755.471L805.772 758.129H506.933L518.126 635.271ZM521.535 641.94L511.314 754.129H800.145C794.276 737.208 785.955 712.498 778.96 690.163C775.275 678.398 771.952 667.273 769.549 658.286C768.347 653.794 767.37 649.816 766.692 646.549C766.25 644.419 765.922 642.532 765.75 640.974C727.974 643.392 671.394 646.239 621.852 647.08C596.645 647.508 573.227 647.417 555.023 646.482C545.925 646.015 538.089 645.335 531.965 644.395C528.904 643.925 526.235 643.384 524.034 642.761C523.143 642.509 522.305 642.237 521.535 641.94Z" fill="#FFF2C3"/>
<path d="M831.724 430.664L821.533 409.99C816.737 392.751 751.989 366.594 720.215 355.67L704.328 350.805C712.001 436.096 792.456 439.582 831.724 430.664Z" fill="url(#paint3_linear_2495_9)"/>
<path d="M823.506 410.042C814.487 392.934 781.641 358.085 722.411 355.558C729.249 382.274 759.043 430.572 823.506 410.042Z" fill="url(#paint4_linear_2495_9)"/>
<path fill-rule="evenodd" clip-rule="evenodd" d="M719.806 353.445L720.473 356.054C723.973 369.726 733.326 388.907 750.114 402.09C767.016 415.363 791.274 422.406 824.113 411.948L826.39 411.223L825.276 409.11C815.96 391.439 782.509 356.12 722.496 353.56L719.806 353.445ZM820.549 408.859C790.138 417.863 768.01 411.058 752.585 398.944C737.698 387.254 728.895 370.489 725.08 357.699C779.43 360.99 810.502 391.954 820.549 408.859Z" fill="#FFF2C3"/>
<g filter="url(#filter0_f_2495_9)">
<path d="M668.985 226.393C668.985 237.771 650.954 246.996 628.711 246.996C606.469 246.996 588.438 237.771 588.438 226.393C588.438 215.014 606.469 205.789 628.711 205.789C650.954 205.789 668.985 215.014 668.985 226.393Z" fill="#FFDCCB"/>
</g>
<path fill-rule="evenodd" clip-rule="evenodd" d="M629.771 226.818C628.692 226.581 627.626 227.263 627.388 228.342C626.979 230.2 625.83 232.547 624.514 234.866C623.893 235.959 623.264 236.998 622.696 237.934C622.674 237.971 622.652 238.007 622.631 238.043C622.063 238.98 621.529 239.863 621.183 240.529C620.675 241.51 621.057 242.717 622.038 243.226C623.019 243.734 624.226 243.351 624.734 242.371C625.005 241.849 625.457 241.097 626.052 240.115C626.076 240.075 626.1 240.035 626.125 239.995C626.687 239.066 627.343 237.984 627.992 236.841C629.319 234.504 630.745 231.701 631.295 229.201C631.532 228.122 630.85 227.055 629.771 226.818ZM623.479 246.111C622.771 246.959 622.884 248.22 623.731 248.928L629.896 254.079C630.743 254.787 632.004 254.674 632.713 253.826C633.421 252.979 633.308 251.718 632.46 251.009L626.296 245.859C625.448 245.15 624.187 245.263 623.479 246.111Z" fill="#E1B6A5"/>
<path fill-rule="evenodd" clip-rule="evenodd" d="M620.791 176.18C619.974 176.923 619.914 178.188 620.657 179.005C624.043 182.726 627.259 186.683 629.237 191.784C631.2 196.846 631.999 203.188 630.259 211.73C630.038 212.813 630.737 213.869 631.819 214.089C632.901 214.31 633.958 213.611 634.178 212.529C636.054 203.321 635.237 196.192 632.967 190.338C630.712 184.524 627.08 180.12 623.616 176.313C622.873 175.496 621.608 175.436 620.791 176.18Z" fill="#E1B6A5"/>
<path d="M534.603 1830.26C565.507 1830.26 665.014 1758.94 710.904 1723.28L762.684 1676.93C765.15 1696.74 774.191 1742.7 790.629 1768.06C807.068 1793.41 797.479 1823.53 790.629 1835.41C768.027 1830.26 649.671 1849.28 643.507 1849.28C637.342 1849.28 558.028 1850.47 542.822 1849.28C530.658 1848.33 532.275 1836.2 534.603 1830.26Z" fill="#FFD8C8"/>
<path d="M872.82 1911.88C864.929 1909.35 861.039 1893.92 860.08 1886.52L912.271 1843.73L974.326 1861.56C976.381 1888.9 945.97 1911.88 937.751 1911.88C929.532 1911.88 882.682 1915.05 872.82 1911.88Z" fill="#F6E6A3"/>
<path d="M860.492 1884.94C853.506 1856.41 899.122 1775.98 909.394 1721.3C919.666 1666.63 967.339 1721.3 967.339 1721.3L973.914 1850.87C980.818 1877.17 949.393 1894.84 932.818 1900.39C915.147 1894.98 867.478 1913.47 860.492 1884.94Z" fill="#FFEDDC"/>
<path d="M556.795 197.469C561.793 166.997 602.475 84.3186 626.658 64.7372L628.577 16.9849L595.1 28.8777C519.398 59.1851 531.909 158.084 536.248 168.545C545.288 190.337 554.322 195.701 556.795 197.469Z" fill="#5A2F30"/>
<path d="M719.122 150.512C676.711 146.075 663.095 95.0424 661.588 70.081L643.506 12.4372C660.601 -7.8489 735.012 29.0781 754.053 44.9266C802.382 85.4988 780.08 137.377 766.382 158.244C759.058 156.983 752.723 166.087 750.646 172.39C750.557 173.673 750.328 175.032 749.943 176.47C749.859 175.444 750.112 174.009 750.646 172.39C751.771 156.126 730.421 151.859 719.122 150.512Z" fill="#5A2F30"/>
<path d="M739.481 697.572C722.623 693.548 716.635 687.662 711.398 671.392C708.283 687.89 702.719 694.115 684.244 698.467C702.828 702.753 708.249 709.058 712.327 724.647C717.666 709.538 720.806 701.194 739.481 697.572Z" fill="#FFF2C3"/>
<path d="M857.803 1162.25L765.971 760.487H806.328L966.518 1162.25H857.803Z" fill="url(#paint5_linear_2495_9)"/>
<path d="M621.726 2.13611C580.301 22.1052 557.616 65.1339 551.452 84.1522C590.246 45.7988 617.479 41.2291 626.246 43.7385C678.849 45.6403 724.054 103.435 740.081 132.094C715.424 48.7307 650.904 10.7207 621.726 2.13611Z" fill="url(#paint6_linear_2495_9)"/>
<path fill-rule="evenodd" clip-rule="evenodd" d="M621.551 0L622.29 0.217438C651.993 8.95651 717.115 47.3957 741.999 131.527L738.336 133.07C730.41 118.897 715.228 97.4595 695.526 79.3547C675.794 61.2221 651.782 46.663 626.174 45.7372L625.93 45.7283L625.696 45.6613C621.964 44.5932 613.485 44.91 600.916 50.4518C588.432 55.9559 572.122 66.5291 552.858 85.5744L549.549 83.5355C555.806 64.2331 578.755 20.6303 620.857 0.334523L621.551 0ZM621.899 4.27594C586.731 21.5409 565.347 55.775 556.456 76.5959C573.246 61.0637 587.728 51.895 599.302 46.7918C612.034 41.1783 621.458 40.3983 626.553 41.7486C653.457 42.8044 678.262 58.058 698.233 76.4095C712.29 89.3272 724.076 103.893 732.658 116.439C705.457 45.7423 648.909 12.5199 621.899 4.27594Z" fill="#FFF2C3"/>
<path d="M773.262 673.671L833.262 731.518C850.523 766.384 838.604 781.045 833.262 791.742C828.988 800.301 795.591 774.177 779.426 760.045L736.687 743.404C727.509 736.933 707.755 722.643 702.166 717.254C696.577 711.866 696.55 699.161 697.235 693.482C709.728 689.044 753.125 697.444 773.262 702.198L756.824 685.161C745.728 678.425 707.92 666.935 714.906 660.992C720.495 656.237 756.139 667.463 773.262 673.671Z" fill="#FFEDDC"/>
<path d="M905.697 1728.04C933.97 1705.85 961.45 1745.34 970.217 1758.15V1784.7C949.833 1766.95 908.436 1767.13 893.368 1770.83L905.697 1728.04Z" fill="#F6E6A3"/>
<path opacity="0.9" d="M657.479 271.562C649.996 266.778 632.288 260.081 621.314 271.562C630.875 273.356 651.493 275.868 657.479 271.562Z" fill="#FCD9CC"/>
<path d="M659.122 174.092C676.424 171.453 713.303 166.411 722.409 167.362C707.991 165.514 664.13 164.59 659.122 174.092Z" fill="#402020"/>
<path d="M616.51 173.632C601.732 168.094 570.113 156.864 561.86 156.245C574.997 156.888 614.008 163.454 616.51 173.632Z" fill="#402020"/>
<path fill-rule="evenodd" clip-rule="evenodd" d="M617.885 270.659C618.383 269.673 619.586 269.277 620.572 269.775C624.444 271.731 630 272.433 636.776 272.433C642.524 272.433 648.903 271.935 655.535 271.417C656.674 271.328 657.819 271.238 658.97 271.151C660.072 271.067 661.032 271.892 661.116 272.993C661.2 274.095 660.375 275.055 659.274 275.139C658.141 275.225 657.008 275.314 655.876 275.403C649.255 275.92 642.694 276.433 636.776 276.433C629.888 276.433 623.527 275.749 618.769 273.346C617.783 272.848 617.387 271.645 617.885 270.659Z" fill="#E1B6A5"/>
<path d="M615.562 1851.66C612.603 1831.05 590.767 1816.66 581.041 1812.43L615.562 1790.24C632.986 1790.56 642.822 1831.32 645.562 1851.66H615.562Z" fill="#EAC79B"/>
<path d="M652.136 1766.08C682.054 1765.12 693.643 1816.66 695.698 1842.54L741.725 1837C747.643 1812.91 711.588 1759.87 692.821 1736.36L652.136 1766.08Z" fill="#EAC79B"/>
<path d="M626.228 127.685C581.845 125.466 591.845 82.9128 602.393 61.9136C612.685 57.9513 601.612 89.2523 629.534 90.8371C657.456 92.422 656.675 73.4035 667.753 63.1021C683.387 71.4224 681.708 130.458 626.228 127.685Z" fill="url(#paint7_linear_2495_9)"/>
<path d="M853.916 40.9639C799.282 48.721 778.452 66.95 774.866 75.0949C768.317 78.327 756.717 80.68 762.704 64.2351C768.691 47.7901 826.007 41.8689 853.916 40.9639Z" fill="#5A2F30"/>
<path d="M853.346 123.183C814.925 84.94 787.414 79.2725 778.461 81.219C771.917 77.979 763.164 70.271 780.509 65.3596C797.853 60.4483 836.294 101.862 853.346 123.183Z" fill="#381D1A"/>
<path fill-rule="evenodd" clip-rule="evenodd" d="M605.699 178.387C609.859 180.179 613.493 182.644 615.607 184.401C616.457 185.107 616.573 186.368 615.867 187.217C615.161 188.067 613.9 188.183 613.05 187.477C611.191 185.932 607.881 183.682 604.116 182.061C600.308 180.42 596.341 179.554 593.017 180.355C591.943 180.614 590.863 179.954 590.604 178.88C590.345 177.806 591.006 176.726 592.079 176.467C596.645 175.366 601.583 176.614 605.699 178.387Z" fill="#EAC6B8"/>
<path d="M624.491 200.251C614.926 190.866 590.366 175.061 568.644 186.916C577.505 201.571 601.08 224.755 624.491 200.251Z" fill="white"/>
<mask id="mask0_2495_9" style="mask-type:alpha" maskUnits="userSpaceOnUse" x="568" y="182" width="57" height="29">
<path d="M624.491 200.25C614.926 190.866 590.365 175.061 568.644 186.916C577.505 201.571 601.08 224.755 624.491 200.25Z" fill="white"/>
</mask>
<g mask="url(#mask0_2495_9)">
<path d="M627.21 192.897C628.421 201.897 621.699 210.123 612.195 211.27C602.691 212.417 594.005 206.05 592.794 197.05C591.583 188.05 598.305 179.824 607.809 178.678C617.313 177.531 625.999 183.897 627.21 192.897Z" fill="#565E63"/>
</g>
<path d="M564.191 184.802C591.009 166.711 615.703 188.06 624.601 200.368C586.586 173.841 573.669 188.82 570.54 189.197C568.037 189.499 565.259 186.178 564.191 184.802Z" fill="#402020"/>
<path d="M560.492 180.132L565.013 185.969L576.201 182.257L560.492 180.132Z" fill="#402020"/>
<path d="M667.685 198.097C677.163 189.607 701.562 175.45 723.34 186.742C714.605 200.101 691.246 221.076 667.685 198.097Z" fill="white"/>
<mask id="mask1_2495_9" style="mask-type:alpha" maskUnits="userSpaceOnUse" x="667" y="182" width="57" height="27">
<path d="M667.685 198.097C677.163 189.607 701.562 175.45 723.34 186.742C714.605 200.101 691.246 221.076 667.685 198.097Z" fill="white"/>
</mask>
<g mask="url(#mask1_2495_9)">
<path d="M680.915 193.828C679.775 202.104 686.549 209.798 696.047 211.014C705.544 212.231 714.167 206.508 715.308 198.233C716.448 189.957 709.673 182.263 700.176 181.046C690.678 179.83 682.055 185.553 680.915 193.828Z" fill="#565E63"/>
</g>
<path d="M727.768 184.869C700.855 167.745 676.364 187.009 667.574 198.205C705.325 174.391 718.336 188.414 721.463 188.815C723.964 189.135 726.712 186.12 727.768 184.869Z" fill="#402020"/>
<path d="M731.431 180.583L727.753 184.789L715.71 182.666L731.431 180.583Z" fill="#402020"/>
<path fill-rule="evenodd" clip-rule="evenodd" d="M683.632 177.707C684.7 177.99 685.335 179.086 685.052 180.153C684.927 180.623 684.914 181.266 685.094 181.704C685.17 181.887 685.269 182.014 685.407 182.112C685.548 182.212 685.837 182.356 686.403 182.401C687.504 182.488 688.327 183.451 688.24 184.552C688.153 185.653 687.19 186.475 686.088 186.388C684.935 186.297 683.924 185.963 683.095 185.376C682.263 184.786 681.722 184.018 681.397 183.23C680.776 181.726 680.92 180.128 681.186 179.126C681.469 178.059 682.565 177.423 683.632 177.707Z" fill="#402020"/>
<path fill-rule="evenodd" clip-rule="evenodd" d="M605.846 176.915C604.779 177.199 604.143 178.294 604.427 179.362C604.551 179.831 604.565 180.475 604.384 180.912C604.308 181.095 604.209 181.223 604.071 181.32C603.93 181.42 603.642 181.564 603.075 181.609C601.974 181.696 601.152 182.659 601.239 183.76C601.326 184.861 602.289 185.684 603.39 185.597C604.543 185.506 605.554 185.171 606.383 184.584C607.215 183.995 607.756 183.226 608.081 182.439C608.702 180.935 608.559 179.337 608.293 178.335C608.009 177.267 606.914 176.632 605.846 176.915Z" fill="#402020"/>
<path fill-rule="evenodd" clip-rule="evenodd" d="M759.896 174.09C758.798 175.764 757.836 177.621 757.119 179.255C756.675 180.267 755.495 180.727 754.483 180.283C753.472 179.839 753.012 178.659 753.456 177.648C754.245 175.848 755.31 173.789 756.55 171.897C757.773 170.032 759.25 168.199 760.898 166.979C762.548 165.757 764.737 164.907 767.034 165.883C769.171 166.791 770.743 169.033 771.95 172.191C772.344 173.222 771.827 174.379 770.795 174.773C769.764 175.167 768.608 174.65 768.213 173.618C767.119 170.754 766.068 169.819 765.47 169.565C765.033 169.379 764.376 169.381 763.279 170.193C762.181 171.006 761.01 172.39 759.896 174.09Z" fill="#EAC6B8"/>
<path fill-rule="evenodd" clip-rule="evenodd" d="M770.343 187.959C771.438 188.104 772.208 189.109 772.063 190.204C771.635 193.438 770.552 198.461 768.668 203.122C766.833 207.661 764.021 212.414 759.819 214.343C757.355 215.475 755.258 215.739 753.42 215.57C751.928 215.432 750.632 214.997 749.693 214.682C749.527 214.626 749.372 214.575 749.229 214.529C748.156 214.184 747.807 214.191 747.547 214.288C747.256 214.397 746.578 214.825 745.517 216.686C744.969 217.646 743.748 217.98 742.788 217.432C741.829 216.885 741.495 215.664 742.042 214.704C743.241 212.603 744.515 211.15 746.15 210.54C747.817 209.919 749.369 210.372 750.453 210.72C750.66 210.787 750.859 210.853 751.052 210.917C751.987 211.227 752.795 211.495 753.787 211.586C754.903 211.689 756.3 211.558 758.15 210.708C760.853 209.467 763.177 206.032 764.959 201.623C766.692 197.337 767.704 192.653 768.098 189.679C768.243 188.584 769.248 187.814 770.343 187.959Z" fill="#EAC6B8"/>
<path d="M761.039 224.808C761.039 229.622 758.095 233.524 754.464 233.524C750.833 233.524 747.889 229.622 747.889 224.808C747.889 219.994 750.833 216.091 754.464 216.091C758.095 216.091 761.039 219.994 761.039 224.808Z" fill="#EAC78B"/>
<path d="M828.438 741.864C856.711 752.324 921.588 648.914 947.204 621.971C932.41 600.417 988.711 607.707 1018.71 614.047C1023.64 623.556 1027.34 654.461 1024.05 670.705C1021.42 683.701 876.93 768.938 828.438 794.956V741.864Z" fill="#FFEDDC"/>
<path d="M748.063 286.221C736.885 282.417 740.392 236.826 743.542 214.506C710.995 268.391 734.912 285.56 750.94 287.409C754.638 288.598 759.241 290.024 748.063 286.221Z" fill="#5A2F30"/>
<path d="M561.489 267.202C550.311 263.399 553.818 217.808 556.968 195.488C524.42 249.373 548.338 266.542 564.366 268.391C568.064 269.58 572.667 271.006 561.489 267.202Z" fill="#5A2F30"/>
<path d="M854.328 472.442C838.876 470.857 819.122 526.59 813.643 552.873L867.889 595.267L891.314 522.76C882.437 521.492 863.917 488.158 854.328 472.442Z" fill="url(#paint8_linear_2495_9)"/>
<path d="M648.848 1360.35L693.643 1739.93L739.67 1829.87C751.04 1732.93 768.19 1536.99 745.834 1528.74C723.478 1520.5 689.67 1422.56 675.561 1374.62L648.848 1360.35Z" fill="#EAC79B"/>
<path d="M843.232 1501.01L905.287 1726.46L962.821 1757.76C973.251 1659.49 975.954 1586.98 965.697 1488.73H948.026C924.026 1490 890.629 1421.11 876.931 1386.5L852.273 1364.32L843.232 1386.5C860.328 1437.22 850.355 1483.97 843.232 1501.01Z" fill="#F6E6A3"/>
<path d="M635.979 24.1501C627.56 22.141 624.57 19.2014 621.955 11.0769C620.4 19.3154 617.621 22.4239 608.395 24.5973C617.676 26.7372 620.383 29.886 622.419 37.6705C625.085 30.1257 626.653 25.9589 635.979 24.1501Z" fill="#FFF2C3"/>
<path d="M582.496 699.155C565.638 695.131 559.65 689.245 554.413 672.975C551.298 689.473 545.734 695.698 527.259 700.05C545.844 704.336 551.265 710.641 555.342 726.23C560.681 711.121 563.821 702.777 582.496 699.155Z" fill="#FFF2C3"/>
<path d="M686.057 698.363C669.199 694.34 663.211 688.453 657.974 672.184C654.86 688.682 649.295 694.906 630.821 699.259C649.405 703.544 654.826 709.85 658.903 725.438C664.242 710.33 667.383 701.985 686.057 698.363Z" fill="#FFF2C3"/>
<path d="M635.098 699.155C618.24 695.131 612.252 689.245 607.015 672.975C603.9 689.473 598.336 695.698 579.861 700.05C598.445 704.336 603.866 710.641 607.944 726.23C613.283 711.121 616.423 702.777 635.098 699.155Z" fill="#FFF2C3"/>
<path fill-rule="evenodd" clip-rule="evenodd" d="M696.621 701.019C696.86 699.94 697.927 699.26 699.006 699.499L759.828 712.97C760.906 713.209 761.587 714.277 761.348 715.355C761.109 716.433 760.041 717.114 758.963 716.875L698.141 703.404C697.062 703.165 696.382 702.097 696.621 701.019Z" fill="#E1B6A5"/>
<path fill-rule="evenodd" clip-rule="evenodd" d="M699.91 717.265C700.149 716.186 701.217 715.506 702.295 715.745L763.117 729.216C764.195 729.455 764.876 730.523 764.637 731.601C764.398 732.679 763.33 733.36 762.252 733.121L701.43 719.65C700.352 719.411 699.671 718.343 699.91 717.265Z" fill="#E1B6A5"/>
<path d="M863.78 1863.15C889.424 1829.55 946.519 1854.83 973.094 1871.47V1831.45C929.039 1808.95 888.711 1817.45 874.053 1824.72C861.56 1837.08 861.588 1856.81 863.78 1863.15Z" fill="#F6E6A3"/>
<path d="M788.162 1762.11C772.71 1757.04 746.382 1774.26 735.149 1783.51L732.683 1769.64C733.012 1758.55 765.697 1748.11 781.998 1744.28L788.162 1762.11Z" fill="#EAC79B"/>
<defs>
<filter id="filter0_f_2495_9" x="558.438" y="175.789" width="140.548" height="101.206" filterUnits="userSpaceOnUse" color-interpolation-filters="sRGB">
<feFlood flood-opacity="0" result="BackgroundImageFix"/>
<feBlend mode="normal" in="SourceGraphic" in2="BackgroundImageFix" result="shape"/>
<feGaussianBlur stdDeviation="15" result="effect1_foregroundBlur_2495_9"/>
</filter>
<linearGradient id="paint0_linear_2495_9" x1="688.917" y1="871.893" x2="688.917" y2="1236.74" gradientUnits="userSpaceOnUse">
<stop stop-color="#F4E3A1"/>
<stop offset="1" stop-color="#D48E5E"/>
</linearGradient>
<linearGradient id="paint1_linear_2495_9" x1="574.864" y1="367.443" x2="602.055" y2="528.247" gradientUnits="userSpaceOnUse">
<stop stop-color="#FCFCFC"/>
<stop offset="1" stop-color="#ECF4FF"/>
</linearGradient>
<linearGradient id="paint2_linear_2495_9" x1="638.986" y1="1203.45" x2="638.986" y2="641.625" gradientUnits="userSpaceOnUse">
<stop stop-color="#EBF3FF"/>
<stop offset="1" stop-color="white"/>
</linearGradient>
<linearGradient id="paint3_linear_2495_9" x1="768.026" y1="350.805" x2="803.634" y2="449.979" gradientUnits="userSpaceOnUse">
<stop stop-color="#F7F1AB"/>
<stop offset="1" stop-color="#DEA772"/>
</linearGradient>
<linearGradient id="paint4_linear_2495_9" x1="772.958" y1="355.558" x2="772.958" y2="414.99" gradientUnits="userSpaceOnUse">
<stop stop-color="#F2F7FE"/>
<stop offset="1" stop-color="#CBDCF3"/>
</linearGradient>
<linearGradient id="paint5_linear_2495_9" x1="866.245" y1="1162.25" x2="866.245" y2="760.487" gradientUnits="userSpaceOnUse">
<stop offset="0.549561" stop-color="#F2F7FF"/>
<stop offset="1" stop-color="white"/>
</linearGradient>
<linearGradient id="paint6_linear_2495_9" x1="645.767" y1="2.13611" x2="645.958" y2="117.434" gradientUnits="userSpaceOnUse">
<stop stop-color="#F2DD9D"/>
<stop offset="1" stop-color="#DB9E6B"/>
</linearGradient>
<linearGradient id="paint7_linear_2495_9" x1="634.466" y1="61.5671" x2="647.875" y2="128.327" gradientUnits="userSpaceOnUse">
<stop stop-color="#DBEBFF"/>
<stop offset="1" stop-color="#FBFCFD"/>
</linearGradient>
<linearGradient id="paint8_linear_2495_9" x1="852.273" y1="472.046" x2="906.139" y2="638.06" gradientUnits="userSpaceOnUse">
<stop stop-color="#F6E8A5"/>
<stop offset="1" stop-color="#DA9D6A"/>
</linearGradient>
</defs>
</svg>
