<svg width="923" height="2085" viewBox="0 0 923 2085" fill="none" xmlns="http://www.w3.org/2000/svg">
<path fill-rule="evenodd" clip-rule="evenodd" d="M364.065 589.326L564.818 433.867L517.223 318.602C505.019 327.075 481.588 351.113 485.493 379.486C489.923 411.669 470.234 418.055 461.992 420.728C461.152 421.001 460.43 421.235 459.865 421.454C457.245 422.469 456.2 420.324 454.847 417.546C453.047 413.853 450.702 409.041 443.39 409.041C430.576 409.041 425.084 417.907 426.305 421.454C426.305 419.68 427.647 416.489 433.017 417.907C437.695 419.143 438.223 423.825 438.734 428.351C438.956 430.318 439.174 432.255 439.729 433.867C439.79 434.044 439.853 434.228 439.918 434.419C441.811 439.96 445.586 451.009 456.204 451.009C467.188 451.009 468.408 475.835 444.611 472.288C420.813 468.742 407.999 473.47 398.846 481.746C389.693 490.021 381.761 500.07 381.761 503.617C381.761 503.799 381.763 504.026 381.764 504.293C381.8 509.196 381.931 527.535 373.828 532.58C370.318 534.767 363.818 536.254 356.786 537.864C346.708 540.17 335.537 542.727 330.505 547.949C323.671 555.042 321.962 571.79 321.962 579.277L364.065 589.326ZM511.731 335.153C503.799 339.685 488.666 352.059 491.595 365.299C494.524 378.54 506.24 350.719 511.731 335.153ZM418.372 481.746C408.609 484.504 388.717 491.795 387.253 498.888L418.372 481.746Z" fill="#160903"/>
<path fill-rule="evenodd" clip-rule="evenodd" d="M543.461 190.334C558.594 178.039 572.954 180.876 578.242 183.832L596.548 187.378L609.362 183.832C642.068 170.118 664.889 219.101 672.211 245.306C686.904 356.534 710.839 371.959 723.617 380.194C725.167 381.193 726.553 382.087 727.739 383.032C734.342 388.3 734.915 392.542 735.436 396.402C735.78 398.946 736.101 401.324 738.112 403.721C738.431 404.101 738.752 404.483 739.077 404.868C746.002 413.098 753.977 422.573 753.977 433.867C753.977 436.515 753.717 439.379 753.443 442.411C752.454 453.333 751.269 466.427 761.299 479.382C770.176 490.847 789.887 503.447 804.611 512.859C811.141 517.033 816.69 520.58 819.877 523.123C828.176 529.743 829.437 560.953 829.03 575.731L816.216 570.008C812.348 564.625 803.637 551.377 799.741 541.447C796.65 533.569 791.339 532.595 784.126 531.273C779.974 530.513 775.192 529.636 769.842 527.261C761.698 523.645 762.234 519.596 763.056 513.397C763.712 508.449 764.549 502.131 761.299 493.568C755.652 478.691 738.756 475.511 727.961 473.478C724.758 472.875 722.092 472.374 720.416 471.697C713.094 468.742 714.314 458.102 727.739 447.462C738.478 438.95 737.095 434.852 735.061 433.867C735.061 439.383 708.823 456.329 699.67 433.867C695.453 423.518 689.293 418.69 682.802 413.602C675.204 407.647 667.151 401.335 661.228 385.397C652.441 361.753 657.567 329.439 661.228 316.238L600.819 263.63H581.293L517.223 318.602C505.019 327.075 481.588 351.113 485.493 379.486C489.923 411.669 470.234 418.055 461.992 420.728C461.152 421.001 460.43 421.235 459.865 421.454C457.245 422.469 456.2 420.324 454.847 417.546C453.047 413.853 450.702 409.041 443.39 409.041C430.576 409.041 425.084 417.907 426.305 421.454C426.305 419.68 427.647 416.489 433.017 417.907C437.695 419.143 438.223 423.825 438.734 428.351C438.956 430.318 439.174 432.255 439.729 433.867C439.79 434.044 439.853 434.228 439.918 434.419C441.811 439.96 445.586 451.009 456.204 451.009C467.188 451.009 468.408 475.835 444.611 472.288C420.813 468.742 407.999 473.47 398.846 481.746C389.693 490.021 381.761 500.07 381.761 503.617C381.761 503.799 381.763 504.026 381.764 504.293C381.8 509.196 381.931 527.535 373.828 532.58C370.318 534.767 363.818 536.254 356.786 537.864C346.708 540.17 335.537 542.727 330.505 547.949C323.671 555.042 321.962 571.79 321.962 579.277L364.065 589.326C343.522 595.04 297.555 602.448 278.029 586.37C258.503 570.293 273.147 552.087 282.91 544.993C278.842 547.949 273.757 556.343 285.961 566.273C301.216 578.686 317.691 557.998 310.979 527.852C306.708 508.671 332.079 492.362 353.931 478.316C366.423 470.285 377.766 462.994 381.761 456.329C385.765 449.648 391.391 447.132 396.097 445.027C404.298 441.358 409.703 438.941 398.846 417.907C387.651 396.217 414.707 373.512 441.387 351.121C455.424 339.342 469.357 327.649 477.561 316.238C488.662 300.796 499.631 275.706 510.095 251.77C522.062 224.397 533.37 198.533 543.461 190.334ZM511.731 335.153C503.799 339.685 488.666 352.059 491.595 365.299C494.524 378.54 506.24 350.719 511.731 335.153ZM418.372 481.746C408.609 484.504 388.717 491.795 387.253 498.888L418.372 481.746ZM742.993 482.928C745.401 491.06 751.456 508.43 756.418 512.859C762.619 518.394 760.079 489.43 742.993 482.928Z" fill="#2F1216"/>
<path fill-rule="evenodd" clip-rule="evenodd" d="M661.228 316.238L633.159 391.308L630.108 456.329L735.061 533.763L816.216 570.008C812.348 564.625 803.637 551.377 799.741 541.447C796.65 533.569 791.339 532.595 784.126 531.273C779.974 530.513 775.192 529.636 769.842 527.261C761.698 523.645 762.234 519.596 763.056 513.397C763.712 508.449 764.549 502.131 761.299 493.568C755.652 478.691 738.756 475.511 727.961 473.478C724.758 472.875 722.092 472.374 720.416 471.697C713.094 468.742 714.314 458.102 727.739 447.462C738.478 438.95 737.095 434.852 735.061 433.867C735.061 439.383 708.823 456.329 699.67 433.867C695.453 423.518 689.293 418.69 682.802 413.602C675.204 407.647 667.151 401.335 661.228 385.397C652.441 361.753 657.567 329.439 661.228 316.238ZM742.993 482.928C745.401 491.06 751.456 508.43 756.418 512.859C762.619 518.394 760.079 489.43 742.993 482.928Z" fill="#160903"/>
<path fill-rule="evenodd" clip-rule="evenodd" d="M547.734 383.624L545.293 430.911C524.547 450.221 480.491 490.14 470.24 495.341C457.426 501.843 647.195 598.784 732.011 520.759C709.231 498.691 651.1 444.743 637.432 438.596V383.624C632.754 420.863 616.075 492.149 586.786 479.382C557.497 466.614 548.548 410.223 547.734 383.624Z" fill="#FFF1DC"/>
<path d="M637.432 383.624H547.734C548.548 410.223 557.497 466.614 586.786 479.382C616.075 492.149 632.754 420.863 637.432 383.624Z" fill="#E5BCB9"/>
<path d="M530.648 372.392C528.696 368.136 522.919 340.67 520.885 328.06C519.265 318.011 527.157 312.1 540.582 312.1C567.229 312.1 579.227 282.151 582.074 269.541H593.668H603.825C606.319 282.131 616.83 312.032 640.175 312.032C651.936 312.032 660.839 316.163 659.42 326.195C657.638 338.785 653.646 365.027 651.936 369.276C649.797 374.587 630.553 388.751 626.277 399.964C622 411.177 622 424.75 618.258 428.291C614.516 431.832 599.77 433.276 593.668 433.867C586.346 433.867 569.871 432.093 565.599 428.547C561.328 425 561.328 411.405 556.446 400.174C551.565 388.943 533.089 377.712 530.648 372.392Z" fill="#FFF1DC"/>
<path d="M639.465 313.097C606.811 314.634 597.891 278.724 597.513 260.578H583.34C584.663 277.87 573.971 308.554 533.088 322.704C523.936 335.745 528.655 350.361 530.648 365.278C529.021 369.613 526.84 372.27 522.715 365.278C517.834 357.003 512.952 339.384 512.952 322.704C512.952 299.096 530.038 281.955 542.242 268.359C552.005 257.483 573.709 258.64 583.34 260.578H597.513L653.071 254.173L666.11 347.682C659.496 362.627 646.041 387.904 645.134 369.458C644 346.401 656.472 339.997 653.071 325.906C650.35 314.634 642.866 312.67 639.465 313.097Z" fill="#381B0E"/>
<path d="M555.056 214.569V231.12C553.013 231.957 549.926 232.659 546.513 232.905L570.921 273.11C580.263 273.954 590.268 274.18 600.82 273.555L561.158 215.67C558.215 215.422 556.078 215.064 555.056 214.569Z" fill="#F4DE85"/>
<path fill-rule="evenodd" clip-rule="evenodd" d="M509.292 255.946L500.139 200.974C502.58 204.757 521.495 209.249 530.648 211.022V229.346C531.575 230.052 532.602 230.638 533.698 231.12L550.785 270.212C533.166 266.699 518.961 261.188 509.292 255.946ZM564.209 272.387C566.406 272.662 568.643 272.905 570.921 273.11L546.513 232.905C544.855 233.025 543.119 233.037 541.389 232.905L564.209 272.387ZM600.82 273.555L561.158 215.67C575.087 216.843 607.047 215.545 624.007 214.569V231.12C630.841 233.957 643.533 231.711 649.025 229.346V211.022L687.467 203.338L674.043 255.946C647.918 267.101 623.145 272.233 600.82 273.555Z" fill="#E19059"/>
<path d="M533.698 231.12L550.785 270.212C555.063 271.066 559.543 271.801 564.209 272.387L541.389 232.905C538.711 232.701 536.046 232.151 533.698 231.12Z" fill="#F4DE85"/>
<path d="M573.648 328.651C577.853 326.759 575.789 320.77 574.232 318.011L544.447 310.918L539.191 315.056L545.031 313.282C551.105 313.282 566.64 323.528 573.648 328.651Z" fill="#2C224D"/>
<path d="M577.736 328.06C578.32 325.892 579.021 321.085 577.152 319.193C579.683 320.376 583.342 323.804 577.736 328.06Z" fill="#2C224D"/>
<path d="M607.561 328.651C603.168 326.759 605.324 320.77 606.951 318.011L638.07 310.918L643.562 315.056L637.46 313.282C631.114 313.282 614.883 323.528 607.561 328.651Z" fill="#2C224D"/>
<path d="M603.29 328.06C602.679 325.892 601.947 321.085 603.9 319.193C601.256 320.376 597.432 323.804 603.29 328.06Z" fill="#2C224D"/>
<path fill-rule="evenodd" clip-rule="evenodd" d="M627.68 336.406C630.121 335.223 639.884 323.401 638.053 323.401C636.83 323.401 628.032 325.22 621.567 326.974C622.787 327.292 624.742 332.544 619.86 334.909C615.955 336.8 613.9 334.29 613.36 332.798C612.312 335.307 610.926 338.494 609.985 341.159C615.07 339.968 625.728 337.351 627.68 336.406Z" fill="#243050"/>
<path d="M617.906 328.156C617.567 328.483 614.049 331.151 613.36 332.798C613.9 334.29 615.955 336.8 619.86 334.909C624.742 332.544 622.787 327.292 621.567 326.974C618.357 327.844 618.31 327.763 617.906 328.156Z" fill="#FFF4C7"/>
<path fill-rule="evenodd" clip-rule="evenodd" d="M554.446 337.572C551.973 336.354 542.081 324.173 543.936 324.173C545.175 324.173 554.697 326.349 561.247 328.156C560.011 328.484 557.538 333.309 562.484 335.745C566.441 337.693 568.523 335.107 569.07 333.57C570.133 336.155 571.423 339.723 572.376 342.469C567.224 341.242 556.425 338.546 554.446 337.572Z" fill="#243050"/>
<path d="M566.039 329.834C566.382 330.171 568.373 331.873 569.07 333.57C568.523 335.107 566.441 337.693 562.484 335.745C557.538 333.309 560.011 328.484 561.247 328.156C564.5 329.053 565.629 329.43 566.039 329.834Z" fill="#FFF4C7"/>
<path d="M617.906 349.931C618.085 349.409 610.583 348.158 609.985 341.159M609.985 341.159C615.07 339.968 625.728 337.351 627.68 336.406C630.121 335.223 639.884 323.401 638.053 323.401C636.83 323.401 628.032 325.22 621.567 326.974M609.985 341.159C610.926 338.494 612.312 335.307 613.36 332.798M613.36 332.798C614.049 331.151 617.567 328.483 617.906 328.156C618.31 327.763 618.357 327.844 621.567 326.974M613.36 332.798C613.9 334.29 615.955 336.8 619.86 334.909C624.742 332.544 622.787 327.292 621.567 326.974M561.247 349.931C561.066 349.394 573.531 345.793 572.376 342.469M572.376 342.469C567.224 341.242 556.425 338.546 554.446 337.572C551.973 336.354 542.081 324.173 543.936 324.173C545.175 324.173 554.697 326.349 561.247 328.156M572.376 342.469C571.423 339.723 570.133 336.155 569.07 333.57M569.07 333.57C568.373 331.873 566.382 330.171 566.039 329.834C565.629 329.43 564.5 329.053 561.247 328.156M569.07 333.57C568.523 335.107 566.441 337.693 562.484 335.745C557.538 333.309 560.011 328.484 561.247 328.156" stroke="#222E4E"/>
<path d="M600.82 354.069C598.867 351.231 598.379 344.611 598.379 341.655C592.753 330.3 587.051 336.214 584.627 341.064C584.126 344.414 582.735 351.653 581.904 354.069C580.684 357.615 583.735 367.664 582.515 371.21C581.162 375.14 579.464 374.166 577.633 377.121C577.023 378.895 577.633 381.259 578.243 382.441C584.627 383.032 586.379 385.988 586.786 387.761H593.498C594.108 387.17 593.498 386.579 594.718 384.215C595.991 381.748 599.803 382.047 601.43 382.441C602.244 382.047 603.749 380.668 603.261 378.304C602.651 375.348 599.6 374.166 599.6 370.619C599.6 367.073 603.261 357.615 600.82 354.069Z" fill="url(#paint0_linear_2495_5)"/>
<ellipse cx="10.3436" cy="18.3797" rx="10.3436" ry="18.3797" transform="matrix(0.95528 0.295703 -0.31326 0.949667 630.03 347.566)" fill="#F1D0CE"/>
<ellipse cx="10.3203" cy="18.4256" rx="10.3203" ry="18.4256" transform="matrix(-0.916209 0.4007 0.422428 0.906397 549.559 348.749)" fill="#F1D0CE"/>
<path fill-rule="evenodd" clip-rule="evenodd" d="M875.427 793.837C886.398 771.111 904.654 733.295 893.712 714.639C881.958 694.599 861.336 545.74 851.472 465.786C845.584 471.894 832.05 484.819 825.013 487.657C823.879 514.778 821.12 558.296 818.233 603.837C813.041 685.748 807.433 774.204 810.116 785.571C814.532 804.287 839.423 815.747 850.454 820.825C851.616 821.36 852.625 821.824 853.439 822.219C861.982 826.357 868.694 819.263 868.084 811.579C867.911 809.407 871.103 802.794 875.427 793.837Z" fill="#FFF1DC"/>
<path d="M850.388 456.92C841.235 449.432 823.418 439.896 825.37 461.648C825.724 465.593 825.552 474.776 825.013 487.657C832.05 484.819 845.584 471.894 851.472 465.786C851.095 462.726 850.733 459.767 850.388 456.92Z" fill="#E5BCB9"/>
<path d="M799.743 193.289C804.987 195.075 814.598 198.506 821.099 201.542L810.116 171.683C799.186 168.172 787.33 162.026 782.837 152.63L799.743 193.289Z" fill="#F4DE85"/>
<path fill-rule="evenodd" clip-rule="evenodd" d="M923.001 0.591099C914.34 3.34956 897.808 33.5744 900.971 132.406C903.607 150.927 898.034 189.152 854.653 193.881V205.703L832.058 222.253L811.946 2084.81H802.183L824.15 221.662L799.743 205.111V193.289C804.987 195.075 814.598 198.506 821.099 201.542L810.116 171.683C815.296 173.347 820.269 174.42 824.15 174.965L833.599 201.542C835.889 200.563 838.544 199.554 841.236 198.58L832.058 173.493C845.947 170.476 866.963 163.713 871.034 151.321C877.247 132.406 882.331 80.3895 880.072 59.1099C877.812 37.8304 907.185 5.31989 923.001 0.591099ZM782.837 152.63L799.743 193.289C752.88 188.561 746.86 150.336 749.707 131.815C753.124 32.9833 735.266 2.75846 725.91 0C742.995 4.72879 774.725 37.2393 772.284 58.5188C769.843 79.7984 775.335 131.815 782.047 150.73L782.837 152.63Z" fill="#E19059"/>
<path d="M824.15 174.965L833.599 201.542C835.889 200.563 838.544 199.554 841.236 198.58L832.058 173.493C828.987 174.16 826.264 174.644 824.15 174.965Z" fill="#F4DE85"/>
<path d="M855.878 419.089C857.709 423.818 861.98 426.774 861.98 432.684C861.98 438.595 857.709 438.004 855.878 443.324C854.048 448.644 857.099 449.826 857.709 453.373C858.319 456.92 858.319 459.875 854.658 461.057C850.997 462.239 806.453 465.195 802.182 462.239C797.91 459.284 799.741 448.644 802.182 447.462C800.91 445.491 799.321 441.78 799.5 438.004C798.039 439.186 788.147 440.96 791.808 432.684C794.712 426.122 796.106 415.144 796.328 410.347C796.33 410.306 796.332 410.264 796.334 410.223C796.365 409.659 796.477 409.067 796.69 408.449C798.521 403.13 816.733 397.389 822.318 396.036C829.64 394.263 837.835 391.173 841.234 392.49C842.731 393.07 847.336 396.036 850.997 397.218C855.878 398.992 859.321 399.518 860.15 403.13C859.742 411.996 854.473 415.459 855.878 419.089Z" fill="#FFF1DC"/>
<path d="M802.182 447.462C799.741 448.644 797.91 459.284 802.182 462.239C806.453 465.195 850.997 462.239 854.658 461.057C858.319 459.875 858.319 456.92 857.709 453.373C857.099 449.826 854.048 448.644 855.878 443.324C857.709 438.004 861.98 438.595 861.98 432.684C861.98 426.774 857.709 423.818 855.878 419.089C854.473 415.459 859.742 411.996 860.15 403.13C859.321 399.518 855.878 398.992 850.997 397.218C847.336 396.036 842.731 393.07 841.234 392.49C837.835 391.173 829.64 394.263 822.318 396.036C816.733 397.389 798.521 403.13 796.69 408.449C795.226 412.705 798.521 415.74 800.351 416.725M802.182 447.462C804.622 446.28 831.471 448.053 838.793 446.28C844.651 444.861 844.895 442.93 844.285 442.142M802.182 447.462C800.91 445.491 799.321 441.78 799.5 438.004M802.182 431.502C812.352 431.108 833.301 430.202 835.742 429.729C838.183 429.256 840.42 427.562 841.234 426.774M802.182 431.502C800.148 429.335 796.934 423.345 800.351 416.725M802.182 431.502C800.352 433.452 799.608 435.74 799.5 438.004M800.351 416.725C810.928 415.346 832.447 412.469 833.912 411.996C835.376 411.523 836.962 409.435 837.573 408.449M796.334 410.223C796.131 414.951 794.737 426.064 791.808 432.684C788.147 440.96 798.039 439.186 799.5 438.004" stroke="#E5BCB9"/>
<path d="M591.057 406.676C588.617 406.676 586.786 405.494 584.345 404.312C583.18 403.748 580.944 403.716 578.854 403.867C580.277 403.03 583.735 401.356 586.176 401.356C589.227 401.356 595.167 401.574 595.939 401.948C597.159 402.539 599.6 404.42 600.82 405.844C599.717 405.647 598.478 405.494 597.159 405.494C593.498 405.494 593.498 406.676 591.057 406.676Z" fill="#C29DAD"/>
<path d="M575.192 404.312C576.095 404.153 577.441 403.968 578.854 403.867C580.944 403.716 583.18 403.747 584.345 404.312C586.786 405.494 588.617 406.676 591.057 406.676C593.498 406.676 593.498 405.494 597.159 405.494C598.478 405.494 599.717 405.647 600.82 405.844C602.78 406.192 604.311 406.676 605.092 406.676" stroke="#9E5F71" stroke-linecap="round"/>
<path d="M267.047 1552.82C328.066 1489.92 342.1 957.975 341.49 699.861C311.184 949.937 241.785 1469.64 162.704 1520.9C197.502 1534.94 225.218 1543.12 267.047 1552.82Z" fill="#060D1D"/>
<path d="M0.0624447 1488.98C0.974546 1495.61 11.6748 1502.57 18.6993 1502.57L32.1235 1477.16C10.6696 1477.16 2.07319 1481.21 0.340998 1486.09C0.24224 1487.07 0.149409 1488.04 0.0624447 1488.98Z" fill="#060D1D"/>
<path d="M726.52 515.438C629.377 566.509 515.19 521.743 470.24 492.977C444.408 505.193 386.4 533.408 361.016 548.54C334.322 564.453 333.108 566.56 323.223 583.722C321.358 586.959 319.184 590.733 316.472 595.237C309.352 607.06 303.61 654.704 296.376 714.731C286.249 798.756 273.198 907.046 249.351 975.314C208.468 1092.35 130.974 1209.98 72.396 1275C26.4222 1326.03 5.44917 1435.09 0.340998 1486.09C2.07319 1481.21 10.6696 1477.16 32.1235 1477.16C64.3415 1479.05 128.127 1511.44 155.992 1527.4L162.704 1520.9C241.785 1469.64 311.184 949.937 341.49 699.861C342.1 957.975 328.066 1489.92 267.047 1552.82C265.013 1554.98 260.457 1559.79 258.504 1561.68C256.063 1564.05 341.798 1578.43 384.203 1554C389.019 1551.66 398.537 1547.29 404.339 1545.13C436.069 1533.31 493.427 1517.94 564.209 1517.94C634.991 1517.94 750.317 1571.14 740.554 1586.51C735.74 1594.09 724.398 1590.46 715.892 1587.73C707.148 1584.93 701.401 1583.09 708.824 1595.38C723.469 1619.61 860.761 1613.7 865.643 1571.14C870.524 1528.58 847.337 1145.55 821.099 1029.69C800.108 937.01 805.438 837.39 810.726 799.166L821.099 574.548C820.285 567.455 817.072 552.323 810.726 548.54C808.892 547.447 807.058 546.512 805.119 545.523C798.669 542.233 791.052 538.348 778.386 526.078C765.206 513.31 738.317 513.665 726.52 515.438Z" fill="url(#paint1_linear_2495_5)"/>
<ellipse cx="86.0951" cy="43.7543" rx="86.0951" ry="43.7543" transform="matrix(0.765468 -0.643474 0.667236 0.744846 281.692 603.776)" fill="#E19059"/>
<ellipse cx="52.0194" cy="20.2625" rx="52.0194" ry="20.2625" transform="matrix(0.786686 -0.617353 0.641508 0.767116 313.422 583.214)" fill="#EED394"/>
<path d="M328.675 633.067C310.619 635.566 304.471 624.595 304.877 617.108C307.757 628.93 316.471 628.178 325.624 625.974C413.979 604.695 438.509 548.146 439.729 522.532C444 531.398 441.938 546.767 437.898 556.224C415.932 607.65 354.302 629.521 328.675 633.067Z" fill="#AE442D"/>
<path d="M587.396 998.367C435.093 947.768 400.271 738.874 401.898 640.751C428.747 657.893 700.281 702.817 663.67 716.412C627.058 730.007 520.275 663.804 574.582 716.412C628.889 769.02 734.452 813.352 587.396 784.98C479.69 764.199 424.459 692.95 406.062 651.425C531.54 968.227 697.578 957.665 765.572 912.066C769.64 961.915 739.699 1048.96 587.396 998.367Z" fill="black"/>
<path d="M414.712 1220.03C361.016 1078.16 376.27 796.999 386.644 711.092C399.824 965.501 542.852 1271.26 616.685 1355.39C571.734 1369.38 468.409 1361.89 414.712 1220.03Z" fill="black"/>
<path d="M401.898 640.751C400.271 738.874 435.093 947.768 587.396 998.367C739.699 1048.96 769.64 961.915 765.572 912.066C696.824 958.172 527.841 968.457 401.898 640.751ZM401.898 640.751C414.712 679.37 469.751 762.281 587.396 784.98C734.452 813.352 628.889 769.02 574.582 716.412C520.275 663.804 627.058 730.007 663.67 716.412C700.281 702.817 428.747 657.893 401.898 640.751ZM386.644 711.092C376.27 796.999 361.016 1078.16 414.712 1220.03C468.409 1361.89 571.734 1369.38 616.685 1355.39C542.852 1271.26 399.824 965.501 386.644 711.092Z" stroke="black"/>
<path d="M604.096 2070.02C578.987 2052.76 539.741 2022.43 524.411 1998.14C531.209 2008.69 550.458 2012.82 559.324 2013.56C564.363 2020.77 586.461 2054.46 604.096 2070.02Z" fill="#2F1216"/>
<path d="M556.535 2002.89C557.4 2008.5 558.363 2012.18 559.324 2013.56L537.576 1993.52L543.986 1991.47L556.535 2002.89Z" fill="#2F1216"/>
<path d="M543.986 1991.47L537.576 1993.52L535.147 1991.28L541.522 1989.23L543.986 1991.47Z" fill="#2F1216"/>
<path d="M524.07 1981.07L524.014 1973.3L541.522 1989.23L535.147 1991.28L529.608 1986.17L524.07 1981.07Z" fill="#2F1216"/>
<path d="M524.191 1997.79L524.17 1994.8L535.147 1991.28L537.576 1993.52L524.191 1997.79Z" fill="#2F1216"/>
<path d="M554.635 1985.02C554.71 1986.03 554.787 1987.03 554.867 1988L543.986 1991.47L541.522 1989.23L554.635 1985.02Z" fill="#2F1216"/>
<path d="M524.014 1973.3L523.963 1966.14C526.484 1965.42 530.382 1963.88 534.696 1961.42C536.279 1962.97 537.925 1964.5 539.578 1965.98C533.93 1969.37 527.91 1971.95 524.014 1973.3Z" fill="#2F1216"/>
<path d="M539.578 1965.98C537.925 1964.5 536.279 1962.97 534.696 1961.42C536.446 1960.42 538.264 1959.27 540.088 1957.97C541.779 1959.5 543.464 1960.94 545.082 1962.28C543.354 1963.6 541.487 1964.84 539.578 1965.98Z" fill="#2F1216"/>
<path d="M553.758 1968.92C553.876 1972.03 554.016 1975.02 554.175 1977.86C550.568 1975.23 545.033 1970.88 539.578 1965.98C541.487 1964.84 543.354 1963.6 545.082 1962.28C548.437 1965.06 551.507 1967.36 553.758 1968.92Z" fill="#2F1216"/>
<path d="M523.837 1948.22L523.771 1938.67C527.13 1945.18 533.659 1952.16 540.088 1957.97C538.264 1959.27 536.446 1960.42 534.696 1961.42C530.076 1956.89 525.993 1952.22 523.837 1948.22Z" fill="#2F1216"/>
<path d="M553.332 1944.44C553.329 1947.29 553.342 1950.08 553.372 1952.8C551.912 1956.22 548.823 1959.43 545.082 1962.28C543.464 1960.94 541.779 1959.5 540.088 1957.97C544.85 1954.56 549.644 1950.08 553.332 1944.44Z" fill="#2F1216"/>
<path d="M523.73 1932.7L523.673 1924.34C526.119 1924.86 530.521 1924.63 535.856 1922.31C537.825 1924.34 539.867 1926.3 541.877 1928.15C535.213 1932.07 527.956 1932.97 523.73 1932.7Z" fill="#2F1216"/>
<path d="M541.877 1928.15C539.867 1926.3 537.825 1924.34 535.856 1922.31C537.976 1921.39 540.243 1920.14 542.593 1918.47C544.492 1920.21 546.353 1921.83 548.087 1923.3C546.164 1925.28 544.052 1926.88 541.877 1928.15Z" fill="#2F1216"/>
<path d="M554.338 1906.79C554.207 1909.34 554.09 1911.86 553.986 1914.36C552.441 1917.97 550.401 1920.91 548.087 1923.3C546.353 1921.83 544.492 1920.21 542.593 1918.47C546.382 1915.78 550.387 1912 554.338 1906.79Z" fill="#2F1216"/>
<path d="M553.547 1927.71C553.464 1931.17 553.406 1934.55 553.371 1937.87C550.416 1935.61 546.224 1932.16 541.877 1928.15C544.052 1926.88 546.164 1925.28 548.087 1923.3C550.134 1925.03 552.003 1926.53 553.547 1927.71Z" fill="#2F1216"/>
<path d="M523.548 1905.83C523.525 1902.26 523.501 1898.67 523.478 1895.08C526.23 1902.2 534.731 1911.27 542.593 1918.47C540.243 1920.14 537.976 1921.39 535.856 1922.31C530.478 1916.79 525.649 1910.86 523.548 1905.83Z" fill="#2F1216"/>
<path d="M523.4 1883.13C523.374 1879.15 523.349 1875.16 523.324 1871.19C526.486 1868.84 530.491 1865.73 534.717 1862.25C536.306 1865.14 537.976 1868.14 539.669 1871.13C533.564 1876.48 527.498 1880.69 523.4 1883.13Z" fill="#2F1216"/>
<path d="M539.669 1871.13C537.976 1868.14 536.306 1865.14 534.717 1862.25C536.758 1860.56 538.851 1858.8 540.926 1856.99C542.651 1859.7 544.392 1862.41 546.094 1865.04C544.005 1867.2 541.835 1869.24 539.669 1871.13Z" fill="#2F1216"/>
<path d="M556.144 1880.41C555.657 1886.09 555.24 1891.7 554.889 1897.21C550.827 1890.47 545.125 1880.78 539.669 1871.13C541.835 1869.24 544.005 1867.2 546.094 1865.04C549.828 1870.82 553.371 1876.23 556.144 1880.41Z" fill="#2F1216"/>
<path d="M523.119 1837.75C523.096 1833.92 523.074 1830.13 523.053 1826.4C524.028 1829.88 532.284 1843.41 540.926 1856.99C538.851 1858.8 536.758 1860.56 534.717 1862.25C528.496 1850.9 523.503 1840.96 523.119 1837.75Z" fill="#2F1216"/>
<path d="M561.857 1832.52C561.267 1836.33 560.713 1840.13 560.193 1843.92C557.636 1851.45 552.214 1858.74 546.094 1865.04C544.392 1862.41 542.651 1859.7 540.926 1856.99C551.155 1848.07 560.934 1838.14 561.857 1832.52Z" fill="#2F1216"/>
<path fill-rule="evenodd" clip-rule="evenodd" d="M517.154 1542.27C556.712 1565.57 593.804 1555.92 607.406 1548.19C598.206 1616.71 581.195 1734.62 567.022 1803.71C565.057 1813.3 563.343 1822.93 561.857 1832.52C560.934 1838.14 551.155 1848.07 540.926 1856.99C532.284 1843.41 524.028 1829.88 523.053 1826.4C522.833 1787.92 522.687 1755.61 522.721 1742.2C522.793 1713.48 519.506 1610.57 517.154 1542.27ZM560.193 1843.92C557.636 1851.45 552.214 1858.74 546.094 1865.04C549.828 1870.82 553.371 1876.23 556.144 1880.41C557.164 1868.51 558.496 1856.28 560.193 1843.92ZM534.717 1862.25C530.491 1865.73 526.486 1868.84 523.324 1871.19C523.252 1859.85 523.183 1848.61 523.119 1837.75C523.503 1840.96 528.496 1850.9 534.717 1862.25ZM554.889 1897.21C550.827 1890.47 545.125 1880.78 539.669 1871.13C533.564 1876.48 527.498 1880.69 523.4 1883.13C523.426 1887.12 523.451 1891.1 523.478 1895.08C526.23 1902.2 534.731 1911.27 542.593 1918.47C546.382 1915.78 550.387 1912 554.338 1906.79C554.5 1903.63 554.684 1900.44 554.889 1897.21ZM535.856 1922.31C530.521 1924.63 526.119 1924.86 523.673 1924.34C523.631 1918.24 523.59 1912.06 523.548 1905.83C525.649 1910.86 530.478 1916.79 535.856 1922.31ZM553.986 1914.36C553.797 1918.91 553.652 1923.36 553.547 1927.71C552.003 1926.53 550.134 1925.03 548.087 1923.3C550.401 1920.91 552.441 1917.97 553.986 1914.36ZM553.332 1944.44C553.335 1942.28 553.348 1940.09 553.371 1937.87C550.416 1935.61 546.224 1932.16 541.877 1928.15C535.213 1932.07 527.956 1932.97 523.73 1932.7L523.771 1938.67C527.13 1945.18 533.659 1952.16 540.088 1957.97C544.85 1954.56 549.644 1950.08 553.332 1944.44ZM553.372 1952.8C551.912 1956.22 548.823 1959.43 545.082 1962.28C548.437 1965.06 551.507 1967.36 553.758 1968.92C553.568 1963.87 553.435 1958.48 553.372 1952.8ZM534.696 1961.42C530.382 1963.88 526.484 1965.42 523.963 1966.14C523.922 1960.38 523.88 1954.39 523.837 1948.22C525.993 1952.22 530.076 1956.89 534.696 1961.42ZM554.175 1977.86C550.568 1975.23 545.033 1970.88 539.578 1965.98C533.93 1969.37 527.91 1971.95 524.014 1973.3L541.522 1989.23L554.635 1985.02C554.468 1982.74 554.314 1980.36 554.175 1977.86ZM554.867 1988C555.348 1993.86 555.916 1998.87 556.535 2002.89L543.986 1991.47L554.867 1988ZM524.17 1994.8L535.147 1991.28L529.608 1986.17L524.07 1981.07C524.104 1985.88 524.138 1990.48 524.17 1994.8ZM537.576 1993.52L559.324 2013.56C550.458 2012.82 531.209 2008.69 524.411 1998.14C524.336 1998.02 524.263 1997.9 524.191 1997.79L537.576 1993.52Z" fill="#FFF1DC"/>
<path d="M516.087 1511.84L610.648 1523.62C609.723 1530.77 608.634 1539.04 607.406 1548.19C593.804 1555.92 556.712 1565.57 517.154 1542.27C516.767 1531.02 516.405 1520.72 516.087 1511.84Z" fill="#ECCECB"/>
<path d="M450.749 2071.54C473.701 2053.79 509.487 2022.72 523.13 1998.27C517.074 2008.89 499.234 2013.49 490.986 2014.47C486.48 2021.74 466.778 2055.67 450.749 2071.54Z" fill="#2F1216"/>
<path d="M493.3 2003.83C492.644 2009.41 491.845 2013.08 490.986 2014.47L510.729 1994.05L504.696 1992.19L493.3 2003.83Z" fill="#2F1216"/>
<path d="M504.696 1992.19L510.729 1994.05L512.934 1991.77L506.934 1989.91L504.696 1992.19Z" fill="#2F1216"/>
<path d="M522.99 1981.36L522.834 1973.68L506.934 1989.91L512.934 1991.77L517.962 1986.57L522.99 1981.36Z" fill="#2F1216"/>
<path d="M523.326 1997.92L523.266 1994.96L512.934 1991.77L510.729 1994.05L523.326 1997.92Z" fill="#2F1216"/>
<path d="M494.592 1986.09C494.549 1987.1 494.504 1988.09 494.456 1989.05L504.696 1992.19L506.934 1989.91L494.592 1986.09Z" fill="#2F1216"/>
<path d="M522.834 1973.68L522.689 1966.59C520.318 1965.95 516.642 1964.52 512.552 1962.2C511.118 1963.78 509.625 1965.34 508.123 1966.85C513.481 1970.06 519.164 1972.44 522.834 1973.68Z" fill="#2F1216"/>
<path d="M508.123 1966.85C509.625 1965.34 511.118 1963.78 512.552 1962.2C510.894 1961.26 509.167 1960.17 507.432 1958.93C505.896 1960.49 504.363 1961.97 502.89 1963.34C504.537 1964.59 506.312 1965.77 508.123 1966.85Z" fill="#2F1216"/>
<path d="M494.977 1970.13C494.951 1973.22 494.901 1976.18 494.829 1979C498.122 1976.3 503.167 1971.84 508.123 1966.85C506.312 1965.77 504.537 1964.59 502.89 1963.34C499.836 1966.17 497.035 1968.53 494.977 1970.13Z" fill="#2F1216"/>
<path d="M522.325 1948.85L522.13 1939.4C519.173 1945.93 513.271 1953.01 507.432 1958.93C509.167 1960.17 510.894 1961.26 512.552 1962.2C516.74 1957.6 520.422 1952.87 522.325 1948.85Z" fill="#2F1216"/>
<path d="M494.717 1945.9C494.797 1948.72 494.859 1951.48 494.905 1954.17C496.358 1957.52 499.326 1960.62 502.89 1963.34C504.363 1961.97 505.896 1960.49 507.432 1958.93C502.9 1955.69 498.308 1951.39 494.717 1945.9Z" fill="#2F1216"/>
<path d="M522.008 1933.49L521.837 1925.21C519.57 1925.79 515.458 1925.69 510.421 1923.53C508.639 1925.59 506.787 1927.59 504.963 1929.47C511.282 1933.17 518.074 1933.87 522.008 1933.49Z" fill="#2F1216"/>
<path d="M504.963 1929.47C506.787 1927.59 508.639 1925.59 510.421 1923.53C508.419 1922.68 506.271 1921.5 504.035 1919.91C502.311 1921.68 500.619 1923.34 499.041 1924.83C500.887 1926.74 502.9 1928.27 504.963 1929.47Z" fill="#2F1216"/>
<path d="M492.768 1908.66C492.959 1911.18 493.136 1913.68 493.3 1916.15C494.838 1919.68 496.819 1922.54 499.041 1924.83C500.619 1923.34 502.311 1921.68 504.035 1919.91C500.429 1917.34 496.593 1913.71 492.768 1908.66Z" fill="#2F1216"/>
<path d="M494.068 1929.35C494.238 1932.77 494.384 1936.12 494.505 1939.4C497.2 1937.08 501.017 1933.55 504.963 1929.47C502.9 1928.27 500.887 1926.74 499.041 1924.83C497.179 1926.6 495.476 1928.13 494.068 1929.35Z" fill="#2F1216"/>
<path d="M521.456 1906.89C521.382 1903.35 521.308 1899.8 521.233 1896.25C518.858 1903.37 511.174 1912.58 504.035 1919.91C506.271 1921.5 508.419 1922.68 510.421 1923.53C515.288 1917.92 519.632 1911.93 521.456 1906.89Z" fill="#2F1216"/>
<path d="M520.985 1884.42C520.902 1880.48 520.819 1876.53 520.735 1872.6C517.724 1870.36 513.905 1867.39 509.87 1864.05C508.466 1866.97 506.989 1869.97 505.49 1872.98C511.327 1878.11 517.098 1882.12 520.985 1884.42Z" fill="#2F1216"/>
<path d="M505.49 1872.98C506.989 1869.97 508.466 1866.97 509.87 1864.05C507.922 1862.44 505.922 1860.75 503.939 1859.02C502.403 1861.74 500.852 1864.48 499.336 1867.13C501.342 1869.2 503.42 1871.16 505.49 1872.98Z" fill="#2F1216"/>
<path d="M490.375 1882.6C490.983 1888.22 491.522 1893.76 491.997 1899.2C495.604 1892.41 500.662 1882.68 505.49 1872.98C503.42 1871.16 501.342 1869.2 499.336 1867.13C496.009 1872.95 492.849 1878.39 490.375 1882.6Z" fill="#2F1216"/>
<path d="M520.029 1839.5C519.947 1835.71 519.866 1831.96 519.785 1828.27C518.969 1831.73 511.634 1845.35 503.939 1859.02C505.922 1860.75 507.922 1862.44 509.87 1864.05C515.367 1852.66 519.756 1842.69 520.029 1839.5Z" fill="#2F1216"/>
<path d="M483.763 1835.36C484.415 1839.11 485.033 1842.86 485.62 1846.59C488.207 1853.98 493.459 1861.05 499.336 1867.13C500.852 1864.48 502.403 1861.74 503.939 1859.02C494.16 1850.46 484.774 1840.9 483.763 1835.36Z" fill="#2F1216"/>
<path fill-rule="evenodd" clip-rule="evenodd" d="M517.656 1546.91C481.391 1571.02 446.542 1562.47 433.65 1555.18C444.069 1622.75 463.099 1738.99 478.172 1806.99C480.262 1816.42 482.119 1825.91 483.763 1835.36C484.774 1840.9 494.16 1850.46 503.939 1859.02C511.634 1845.35 518.969 1831.73 519.785 1828.27C518.957 1790.18 518.225 1758.2 517.834 1744.93C516.996 1716.5 517.297 1614.57 517.656 1546.91ZM485.62 1846.59C488.207 1853.98 493.459 1861.05 499.336 1867.13C496.009 1872.95 492.849 1878.39 490.375 1882.6C489.105 1870.86 487.535 1858.79 485.62 1846.59ZM509.87 1864.05C513.905 1867.39 517.724 1870.36 520.735 1872.6C520.498 1861.37 520.26 1850.25 520.029 1839.5C519.756 1842.69 515.367 1852.66 509.87 1864.05ZM491.997 1899.2C495.604 1892.41 500.662 1882.68 505.49 1872.98C511.327 1878.11 517.098 1882.12 520.985 1884.42C521.068 1888.37 521.151 1892.31 521.233 1896.25C518.858 1903.37 511.174 1912.58 504.035 1919.91C500.429 1917.34 496.593 1913.71 492.768 1908.66C492.532 1905.54 492.276 1902.39 491.997 1899.2ZM510.421 1923.53C515.458 1925.69 519.57 1925.79 521.837 1925.21C521.712 1919.18 521.585 1913.06 521.456 1906.89C519.632 1911.93 515.288 1917.92 510.421 1923.53ZM493.3 1916.15C493.598 1920.64 493.853 1925.05 494.068 1929.35C495.476 1928.13 497.179 1926.6 499.041 1924.83C496.819 1922.54 494.838 1919.68 493.3 1916.15ZM494.717 1945.9C494.657 1943.77 494.586 1941.6 494.505 1939.4C497.2 1937.08 501.017 1933.55 504.963 1929.47C511.282 1933.17 518.074 1933.87 522.008 1933.49L522.13 1939.4C519.173 1945.93 513.271 1953.01 507.432 1958.93C502.9 1955.69 498.308 1951.39 494.717 1945.9ZM494.905 1954.17C496.358 1957.52 499.326 1960.62 502.89 1963.34C499.836 1966.17 497.035 1968.53 494.977 1970.13C495.02 1965.13 494.999 1959.8 494.905 1954.17ZM512.552 1962.2C516.642 1964.52 520.318 1965.95 522.689 1966.59C522.572 1960.88 522.451 1954.95 522.325 1948.85C520.422 1952.87 516.74 1957.6 512.552 1962.2ZM494.829 1979C498.122 1976.3 503.167 1971.84 508.123 1966.85C513.481 1970.06 519.164 1972.44 522.834 1973.68L506.934 1989.91L494.592 1986.09C494.687 1983.84 494.766 1981.47 494.829 1979ZM494.456 1989.05C494.165 1994.86 493.769 1999.83 493.3 2003.83L504.696 1992.19L494.456 1989.05ZM523.266 1994.96L512.934 1991.77L517.962 1986.57L522.99 1981.36C523.087 1986.13 523.179 1990.68 523.266 1994.96ZM510.729 1994.05L490.986 2014.47C499.234 2013.49 517.074 2008.89 523.13 1998.27C523.197 1998.15 523.262 1998.03 523.326 1997.92L510.729 1994.05Z" fill="#FFF1DC"/>
<path d="M517.834 1516.76L429.967 1530.95C431.021 1538 432.259 1546.16 433.65 1555.18C446.542 1562.47 481.391 1571.02 517.656 1546.91C517.716 1535.77 517.776 1525.56 517.834 1516.76Z" fill="#ECCECB"/>
<path d="M804.014 193.88L829.032 207.476L851.609 193.88" stroke="#7B4E2C" stroke-width="4" stroke-linecap="round"/>
<path d="M501.205 203.129C506.9 205.69 519.633 211.404 527.443 211.404M617.752 215.542C609.209 217.315 592.734 218.497 554.902 215.542V232.093M683.042 204.902C673.279 207.267 670.228 207.858 650.092 211.404V229.137" stroke="#FFF8ED" stroke-width="4" stroke-linecap="round"/>
<defs>
<linearGradient id="paint0_linear_2495_5" x1="591.667" y1="385.397" x2="590.522" y2="327.468" gradientUnits="userSpaceOnUse">
<stop stop-color="#F0CCCC"/>
<stop offset="1" stop-color="#F3E9DD"/>
</linearGradient>
<linearGradient id="paint1_linear_2495_5" x1="433.149" y1="492.977" x2="433.149" y2="1609.59" gradientUnits="userSpaceOnUse">
<stop stop-color="#060D1D"/>
<stop offset="1" stop-color="#59707C"/>
</linearGradient>
</defs>
</svg>
