<svg width="1000" height="2002" viewBox="0 0 1000 2002" fill="none" xmlns="http://www.w3.org/2000/svg">
<path d="M610.343 1998.5C597.943 1996.1 598.843 1974.17 600.843 1963.5L691.343 1912C705.343 1938.5 695.343 1963.5 691.343 1986C687.343 2008.5 625.843 2001.5 610.343 1998.5Z" fill="#AD8938"/>
<path d="M260.343 1913.5C246.743 1905.1 249.01 1892.67 251.843 1887.5L295.343 1897.5C361.843 1883.17 496.443 1859 502.843 1877C509.243 1895 500.177 1918.5 494.843 1928L343.343 1938C321.343 1933.34 273.943 1921.9 260.343 1913.5Z" fill="#AD8938"/>
<path d="M693.843 541.005C693.843 628.266 625.567 699.005 541.343 699.005C457.12 699.005 388.843 628.266 388.843 541.005C388.843 453.744 457.12 383.005 541.343 383.005C625.567 383.005 693.843 453.744 693.843 541.005Z" fill="#61A785"/>
<path d="M653.343 644.005C667.343 642.005 685.51 583.172 692.843 554.005L759.343 570.505C757.743 642.505 700.677 681.172 672.343 691.505L653.343 644.005Z" fill="#72AD99"/>
<path d="M447.843 664.005C433.843 662.005 415.677 603.172 408.343 574.005L341.843 590.505C343.443 662.505 400.51 701.172 428.843 711.505L447.843 664.005Z" fill="#72AD99"/>
<path d="M642.976 1828L557.843 1526.56L560.306 1505H624.331C698.629 1545.06 699.497 1737.03 691.523 1828H642.976Z" fill="#EDF1E6"/>
<path d="M558.714 1527C492.516 1483.66 449.884 1303.33 436.843 1218.59L607.186 1171L595.068 1360.29C595.068 1376.27 604.878 1458.35 624.843 1505.82L558.714 1527Z" fill="url(#paint0_linear_4734_9942)"/>
<path d="M599.46 1970.62C593.512 1945.63 632.344 1875.18 641.088 1827.29C649.833 1779.4 690.416 1827.29 690.416 1827.29L696.013 1940.77C701.89 1963.81 675.139 1979.29 661.029 1984.15C645.986 1979.41 605.407 1995.6 599.46 1970.62Z" fill="#EDF1E6"/>
<path fill-rule="evenodd" clip-rule="evenodd" d="M608.495 1722.5H682.272L661.264 1769.7L692.745 1806.06L685.941 1811.95L657.222 1778.78L642.955 1810.83L634.732 1807.17L650.716 1771.27L608.495 1722.5ZM654.758 1762.19L668.415 1731.5H628.192L654.758 1762.19Z" fill="#AD8938"/>
<path d="M370.343 678.005C375.143 634.005 427.01 620.005 452.343 618.505L437.843 734.505V955.505L384.843 1138L370.343 902.505C368.343 846.005 365.543 722.005 370.343 678.005Z" fill="url(#paint1_linear_4734_9942)"/>
<path d="M302.343 289.005L479.843 315.005L390.343 355.505L350.843 525.005L227.343 590.505L210.843 452.005L277.843 403.005L302.343 289.005Z" fill="#61A785"/>
<path fill-rule="evenodd" clip-rule="evenodd" d="M74.5475 659.492L93.9521 635.522L87.7342 630.488L67.5213 655.457L58.5934 658.393L61.0929 665.993L67.7196 663.813L71.6957 672.647L78.9907 669.363L74.5475 659.492Z" fill="#FFC0C0"/>
<path d="M220.344 282.505C223.944 181.705 336.177 176.505 391.844 186.505L439.344 205.005L466.344 293.005C444.677 301.672 399.444 319.005 391.844 319.005C382.344 319.005 350.844 314.505 334.344 319.005C317.844 323.505 350.844 416.005 350.844 437.505C350.844 459.005 290.344 457.005 255.344 461.505C220.344 466.005 250.844 492.005 255.344 524.005C258.944 549.605 240.51 547.672 230.844 543.505L164.344 504.005C108.344 469.005 119.487 447.933 135.343 426.005C158.843 393.505 212.844 401.005 230.844 393.505C248.844 386.005 249.344 399.505 220.344 282.505Z" fill="#78C9A3"/>
<path d="M558.843 97.0052C737.243 38.2052 762.177 173.505 752.343 248.505L709.343 280.005C702.01 274.338 684.843 255.905 674.843 227.505C664.843 199.105 572.343 198.005 527.343 201.005L558.843 97.0052Z" fill="#78C9A3"/>
<path d="M408.344 861.505C371.144 892.705 392.844 942.838 408.344 964.005L430.844 1000H396.344C353.844 986.505 362.343 967.005 352.843 917.505C345.243 877.905 388.677 824.338 408.344 814.505V861.505Z" fill="url(#paint2_linear_4734_9942)"/>
<path d="M479.844 0.00376879C571.96 -0.79313 579.215 125.001 546.345 173.004C546.345 173.004 500.346 197.004 492.845 197.004C485.343 197.004 479.844 78.5049 448.844 98.0037C417.845 117.503 508.843 191.319 479.844 197.004C450.846 202.688 437.344 229.504 437.344 229.504C335.923 222.26 350.382 112.528 360.844 86.5037C371.307 60.4793 393.986 0.746535 479.844 0.00376879Z" fill="#79B7A0"/>
<path d="M246.343 1885C244.743 1875.8 301.677 1845.84 330.343 1832L362.843 1743L518.343 1499C517.677 1554.84 513.543 1677.1 502.343 1719.5C488.504 1771.9 493.719 1798.88 502.051 1841.99L502.343 1843.5C510.843 1887.5 501.343 1920.5 485.843 1914C470.343 1907.5 355.343 1915 342.343 1920.5C329.343 1926 248.343 1896.5 246.343 1885Z" fill="url(#paint3_linear_4734_9942)"/>
<path d="M104.843 543.005C151.243 485.005 207.51 511.838 229.843 536.004V624.504C229.843 629.837 219.543 644.504 178.343 660.504C137.143 676.504 98.1766 647.837 83.8432 631.504C71.5099 626.171 58.4432 601.005 104.843 543.005Z" fill="#98E5C1"/>
<path fill-rule="evenodd" clip-rule="evenodd" d="M413.95 1679.68L507.686 1710.22L465.802 1746.04L495.348 1793.56L487.704 1798.31L458.882 1751.95L428.554 1777.88L422.705 1771.04L454.076 1744.22L413.95 1679.68ZM460.995 1738.3L489.642 1713.81L434.62 1695.88L460.995 1738.3Z" fill="#AD8938"/>
<path d="M899.843 369.005C911.443 268.605 774.51 237.674 709.843 242.007L663.843 321.007L730.343 405.007L824.343 467.507C874.343 450.507 885.343 494.505 899.843 369.005Z" fill="#6EA795"/>
<path fill-rule="evenodd" clip-rule="evenodd" d="M411.736 1774.67C412.752 1772.4 415.414 1771.38 417.682 1772.4C428.702 1777.33 445.821 1783.98 461.32 1787.89C469.094 1789.86 476.229 1791.07 481.889 1791.13C487.871 1791.19 490.788 1789.94 491.886 1788.62L498.8 1794.39C494.898 1799.07 488.17 1800.19 481.798 1800.13C475.103 1800.06 467.176 1798.65 459.116 1796.62C442.949 1792.53 425.318 1785.68 414.004 1780.61C411.736 1779.6 410.72 1776.93 411.736 1774.67Z" fill="#AD8938"/>
<path fill-rule="evenodd" clip-rule="evenodd" d="M630.373 1811.63C630.661 1809.16 632.895 1807.39 635.363 1807.68C647.51 1809.09 666.042 1810.27 682.127 1809.26C690.196 1808.75 697.4 1807.7 702.809 1805.97C708.507 1804.15 710.874 1802.01 711.502 1800.32L719.937 1803.46C717.759 1809.32 711.692 1812.58 705.547 1814.54C699.113 1816.6 691.065 1817.71 682.694 1818.24C665.899 1819.3 646.797 1818.07 634.323 1816.62C631.855 1816.33 630.086 1814.1 630.373 1811.63Z" fill="#AD8938"/>
<path d="M696.843 329.505C740.177 338.672 822.643 377.905 805.843 461.505C789.043 545.105 812.843 578.338 826.843 584.505C769.677 602.838 658.243 608.505 669.843 484.505C681.121 363.945 619.897 345.791 585.243 351.922L582.343 352.505C583.287 352.292 584.254 352.097 585.243 351.922L696.843 329.505Z" fill="#78C9A3"/>
<path d="M320.343 471.505C318.743 359.505 402.677 322.838 444.843 318.505V449.505C413.843 452.005 413.343 547.005 411.343 587.005C409.343 627.005 320.343 678.005 291.343 647.005C268.143 622.205 238.677 626.338 226.843 631.505V533.505C258.677 559.505 321.943 583.505 320.343 471.505Z" fill="#98E5C1"/>
<path d="M181.343 1846C248.143 1820.8 362.51 1217.84 411.343 919.505C470.943 892.305 584.843 930.838 634.343 953.505C638.177 973.005 647.143 1035.9 652.343 1131.5C658.843 1251 442.843 1715.5 426.843 1776C410.968 1836.03 184.919 1888.18 124.247 1902.18L122.843 1902.5C76.0433 1913.3 103.343 1935.34 122.843 1945C86.0099 1943.5 10.0433 1937.8 0.843251 1927C-10.6567 1913.5 97.8432 1877.5 181.343 1846Z" fill="url(#paint4_linear_4734_9942)"/>
<path d="M635.343 816.505C624.943 838.105 525.343 724.172 476.843 664.505C433.243 713.705 464.677 854.338 485.843 918.505L635.343 957.005C619.743 950.605 628.843 860.672 635.343 816.505Z" fill="url(#paint5_linear_4734_9942)"/>
<path fill-rule="evenodd" clip-rule="evenodd" d="M543.267 942.041C544.627 942.275 545.541 943.567 545.307 944.928C522.717 1076.38 483.755 1276.65 440.281 1450.22C418.546 1537.01 395.668 1617.17 373.127 1678.76C361.858 1709.54 350.65 1735.75 339.682 1755.83C328.772 1775.81 317.898 1790.12 307.139 1796.64C225.675 1846 144.769 1870.73 114.344 1876.95C112.991 1877.23 111.67 1876.36 111.394 1875.01C111.117 1873.65 111.99 1872.33 113.343 1872.06C143.251 1865.94 223.612 1841.41 304.548 1792.37C314.088 1786.59 324.434 1773.32 335.293 1753.44C346.094 1733.66 357.204 1707.71 368.432 1677.04C390.883 1615.7 413.712 1535.73 435.431 1449.01C478.865 1275.59 517.803 1075.46 540.379 944.081C540.613 942.721 541.906 941.807 543.267 942.041Z" fill="#C6DEAC"/>
<path fill-rule="evenodd" clip-rule="evenodd" d="M519.995 930.592C521.328 930.952 522.117 932.324 521.757 933.657C485.003 1069.67 427.571 1275.42 374.724 1450.63C348.302 1538.23 323.018 1618.22 302.032 1678.05C291.541 1707.96 282.11 1732.87 274.138 1751.19C270.153 1760.35 266.513 1767.9 263.268 1773.63C260.084 1779.24 257.101 1783.44 254.343 1785.51C217.696 1812.99 195.012 1838.06 188.348 1847C187.522 1848.11 185.956 1848.33 184.849 1847.51C183.742 1846.68 183.514 1845.12 184.339 1844.01C191.341 1834.62 214.39 1809.22 251.343 1781.51C253.185 1780.12 255.735 1776.78 258.918 1771.16C262.04 1765.65 265.601 1758.27 269.553 1749.19C277.454 1731.04 286.838 1706.26 297.314 1676.39C318.262 1616.67 343.522 1536.76 369.937 1449.18C422.765 1274.04 480.183 1068.34 516.93 932.353C517.29 931.02 518.662 930.231 519.995 930.592Z" fill="#C6DEAC"/>
<path d="M478.843 667.505C584.843 718.005 621.177 645.172 616.343 603.505C629.843 613.505 653.343 733.005 655.343 746.505C656.943 757.305 638.677 817.672 629.343 841.505L478.843 667.505Z" fill="#FBFEE0"/>
<path fill-rule="evenodd" clip-rule="evenodd" d="M927.139 764.492L907.734 740.522L913.952 735.488L934.165 760.457L943.093 763.393L940.594 770.993L933.967 768.813L929.991 777.647L922.696 774.363L927.139 764.492Z" fill="#FFC0C0"/>
<path d="M507.843 193.005C537.01 170.005 615.643 137.805 696.843 193.005C719.01 224.172 750.043 296.605 696.843 337.005C657.843 352.005 571.643 369.305 538.843 318.505C535.542 313.393 532.72 309.058 530.325 305.415L531.843 313.005C521.65 295.617 508.923 272.864 530.325 305.415L507.843 193.005Z" fill="#9FEFC9"/>
<path d="M474.843 612.505C506.043 608.905 503.177 568.672 497.843 549.005L576.343 539.005C572.843 549.005 574.843 576.005 576.343 589.005C577.543 599.405 602.843 601.338 615.343 601.005L621.843 642.505C613.51 668.172 583.143 716.105 528.343 702.505C473.543 688.905 469.843 636.838 474.843 612.505Z" fill="#E9D9D0"/>
<mask id="mask0_4734_9942" style="mask-type:alpha" maskUnits="userSpaceOnUse" x="473" y="539" width="149" height="166">
<path d="M474.843 612.505C506.043 608.905 503.177 568.672 497.843 549.005L576.343 539.005C572.843 549.005 574.843 576.005 576.343 589.005C577.543 599.405 602.843 601.338 615.343 601.005L621.843 642.505C613.51 668.172 583.143 716.105 528.343 702.505C473.543 688.905 469.843 636.838 474.843 612.505Z" fill="#E9D9D0"/>
</mask>
<g mask="url(#mask0_4734_9942)">
<path d="M460.343 543.005L582.343 513.505L597.843 599.505C581.343 607.172 571.343 637.505 516.343 618.505C487.192 608.435 466.343 570.338 460.343 543.005Z" fill="#E9D9D0"/>
</g>
<path d="M454.343 513.505C448.238 493.381 447.523 484.144 449.343 470.005L485.343 382.005L634.343 474.505L613.343 524.005C580.941 556.425 563.054 562.963 531.343 567.005C489.531 553.423 473.246 541.336 454.343 513.505Z" fill="#EDF1E6"/>
<path d="M986.343 521.505C995.843 457.505 889.343 441.505 868.843 455.505L792.843 439.505L835.843 527.005C846.843 540.838 881.743 570.405 933.343 578.005C984.943 585.605 999.177 553.838 999.843 537.005L986.343 521.505Z" fill="#78C9A3"/>
<path d="M559.343 937.505C488.543 817.505 483.343 663.838 489.843 605.505L461.343 612.005C393.343 648.405 400.01 831.338 408.343 924.505C415.543 912.105 514.01 932.338 559.343 937.505Z" fill="url(#paint6_linear_4734_9942)"/>
<path d="M451.512 508.505C448.312 442.105 483.179 400.838 505.012 394.505L451.512 334.005C354.312 433.205 411.012 491.672 451.512 508.505Z" fill="url(#paint7_linear_4734_9942)"/>
<path fill-rule="evenodd" clip-rule="evenodd" d="M436.843 339.504C440.645 367.693 587.099 485.246 701.343 497.004C781.73 505.277 812.014 604.418 791.681 644.847L790.843 645.005C772.843 671.005 771.643 727.505 890.843 757.505C916.01 754.838 959.543 738.105 932.343 692.505C906.277 648.805 883.333 632.841 873.985 629.826C888.651 559.119 884.516 421.333 751.343 430.504C691.01 376.671 560.459 302.894 520.343 288.004C466.42 267.989 435.864 297.951 436.843 339.504Z" fill="url(#paint8_linear_4734_9942)"/>
<g filter="url(#filter0_f_4734_9942)">
<path d="M588.843 467.505C588.843 474.408 561.085 480.005 526.843 480.005C492.602 480.005 464.843 474.408 464.843 467.505C464.843 460.601 492.602 455.005 526.843 455.005C561.085 455.005 588.843 460.601 588.843 467.505Z" fill="#E7CEC6"/>
</g>
<path fill-rule="evenodd" clip-rule="evenodd" d="M521.002 465.65C522.303 465.186 523.733 465.864 524.198 467.164L529.198 481.164C529.662 482.464 528.984 483.895 527.684 484.359C526.384 484.824 524.953 484.146 524.489 482.846L519.489 468.846C519.024 467.545 519.702 466.115 521.002 465.65Z" fill="#94CA9A"/>
<path fill-rule="evenodd" clip-rule="evenodd" d="M508.71 505.086C526.062 500.541 547.379 503.193 555.881 505.063C557.229 505.36 558.082 506.693 557.785 508.042C557.488 509.39 556.155 510.243 554.806 509.946C546.641 508.15 526.224 505.668 509.977 509.923C508.641 510.273 507.275 509.474 506.925 508.138C506.575 506.802 507.374 505.436 508.71 505.086Z" fill="#94CA9A"/>
<path d="M517.343 522.505H545.843C545.01 524.338 541.343 528.305 533.343 529.505C525.343 530.705 519.343 525.338 517.343 522.505Z" fill="#E0D7BA"/>
<path fill-rule="evenodd" clip-rule="evenodd" d="M927.391 729.735C928.645 730.314 929.192 731.799 928.613 733.053L925.613 739.553C925.035 740.806 923.549 741.353 922.296 740.775C921.042 740.196 920.495 738.711 921.073 737.457L924.073 730.957C924.652 729.704 926.137 729.157 927.391 729.735ZM899.343 744.505C899.343 743.124 900.463 742.005 901.843 742.005H910.843C912.224 742.005 913.343 743.124 913.343 744.505C913.343 745.886 912.224 747.005 910.843 747.005H901.843C900.463 747.005 899.343 745.886 899.343 744.505Z" fill="#78C9A3"/>
<path fill-rule="evenodd" clip-rule="evenodd" d="M591.945 946.507C593.324 946.563 594.397 947.727 594.341 949.106C591.174 1027.12 585.097 1148.1 577.162 1257.49C573.194 1312.18 568.76 1363.99 563.99 1406.09C559.231 1448.1 554.112 1480.7 548.713 1496.8C548.274 1498.11 546.857 1498.81 545.548 1498.38C544.239 1497.94 543.534 1496.52 543.973 1495.21C549.174 1479.7 554.251 1447.64 559.022 1405.53C563.781 1363.52 568.209 1311.78 572.175 1257.12C580.106 1147.81 586.179 1026.89 589.345 948.904C589.401 947.524 590.565 946.451 591.945 946.507Z" fill="#C6DEAC"/>
<path d="M692.343 716.505C681.943 623.705 638.677 604.505 618.343 606.505L632.343 783.505C635.677 806.838 643.743 861.605 649.343 894.005C654.943 926.405 631.01 1041.5 618.343 1095L677.343 1155C697.743 1125.8 695.843 1069.5 692.343 1045C696.677 974.171 702.743 809.305 692.343 716.505Z" fill="url(#paint9_linear_4734_9942)"/>
<path d="M632.843 947.661C653.243 912.061 707.01 932.828 731.343 947.661L720.843 972.161C670.043 954.561 646.51 968.494 638.843 981.161L632.843 947.661Z" fill="#9EEEC8"/>
<path d="M867.843 722.505C867.843 735.484 857.098 746.005 843.843 746.005C830.588 746.005 819.843 735.484 819.843 722.505C819.843 709.526 830.588 699.005 843.843 699.005C857.098 699.005 867.843 709.526 867.843 722.505Z" fill="#FBFEE0"/>
<path d="M940.843 680.505C940.843 693.484 930.098 704.005 916.843 704.005C903.588 704.005 892.843 693.484 892.843 680.505C892.843 667.526 903.588 657.005 916.843 657.005C930.098 657.005 940.843 667.526 940.843 680.505Z" fill="#FBFEE0"/>
<path d="M854.843 722.505C854.843 735.484 851.038 746.005 846.343 746.005C841.649 746.005 837.843 735.484 837.843 722.505C837.843 709.526 841.649 699.005 846.343 699.005C851.038 699.005 854.843 709.526 854.843 722.505Z" fill="#040404"/>
<path d="M926.843 680.505C926.843 693.484 923.038 704.005 918.343 704.005C913.649 704.005 909.843 693.484 909.843 680.505C909.843 667.526 913.649 657.005 918.343 657.005C923.038 657.005 926.843 667.526 926.843 680.505Z" fill="#040404"/>
<path d="M636.843 958.005C674.677 1114.34 750.743 1453.3 752.343 1558.5C754.343 1690 726.843 1900 809.843 1918.5C861.663 1930.05 881.13 1939.66 895.744 1941.35C906.028 1939.1 915.246 1936.72 922.843 1934.5C911.573 1940.52 904.537 1942.36 895.744 1941.35C845.788 1952.28 770.663 1960.38 733.843 1934.5C678.343 1895.5 586.343 1401 595.343 1348C602.543 1305.6 626.01 1070.34 636.843 958.005Z" fill="url(#paint10_linear_4734_9942)"/>
<path d="M692.343 706.005C674.743 758.405 537.51 699.838 491.343 684.005C500.343 697.338 563.543 774.505 600.343 822.505C637.143 870.505 684.343 849.505 703.343 833.005C715.743 803.405 702.677 736.505 692.343 706.005Z" fill="url(#paint11_linear_4734_9942)"/>
<path d="M430.843 231.505C490.843 146.305 554.51 203.338 578.843 242.505L587.343 317.005C561.01 319.172 492.743 336.105 446.343 326.505C399.943 316.905 391.677 284.172 393.343 269.005C402.543 267.805 422.177 243.505 430.843 231.505Z" fill="#9EEEC8"/>
<path d="M867.843 722.505C867.843 719.419 867.222 716.363 866.016 713.512C864.81 710.661 863.042 708.07 860.814 705.888C858.585 703.706 855.939 701.975 853.028 700.794C850.116 699.613 846.995 699.005 843.843 699.005C840.692 699.005 837.571 699.613 834.659 700.794C831.747 701.975 829.101 703.706 826.873 705.888C824.644 708.07 822.876 710.661 821.67 713.512C820.464 716.363 819.843 719.419 819.843 722.505L843.843 722.505H867.843Z" fill="#93DEBD"/>
<path d="M931.604 661.581C929.171 659.683 926.379 658.293 923.39 657.49C920.4 656.688 917.27 656.488 914.178 656.904C911.087 657.319 908.095 658.34 905.373 659.91C902.651 661.48 900.252 663.566 898.314 666.052C896.375 668.537 894.935 671.371 894.075 674.394C893.216 677.416 892.953 680.567 893.303 683.666C893.653 686.766 894.609 689.753 896.115 692.457C897.621 695.162 899.649 697.531 902.082 699.429L916.843 680.505L931.604 661.581Z" fill="#93DEBD"/>
<path fill-rule="evenodd" clip-rule="evenodd" d="M512.399 190.98C512.689 189.63 514.019 188.771 515.368 189.061C525.611 191.262 541.143 196.003 554.53 203.123C561.224 206.683 567.483 210.892 572.278 215.756C576.72 220.261 580.017 225.445 581.107 231.289C591.935 236.204 607.218 242.56 619.425 246.368C625.827 248.366 631.116 249.574 634.437 249.63C635.243 249.644 635.846 249.586 636.272 249.492C636.438 249.456 636.559 249.418 636.643 249.386C636.624 249.271 636.582 249.101 636.496 248.866C634.488 243.389 631.607 240.779 629.063 239.578C626.445 238.342 623.938 238.48 622.571 238.897C621.25 239.299 619.854 238.554 619.452 237.233C619.05 235.912 619.794 234.515 621.115 234.113C623.581 233.363 627.375 233.252 631.198 235.057C635.097 236.898 638.798 240.62 641.19 247.144C641.552 248.13 641.762 249.2 641.61 250.275C641.448 251.418 640.896 252.399 640.038 253.125C638.507 254.419 636.295 254.662 634.353 254.63C630.248 254.56 624.355 253.144 617.936 251.141C604.969 247.096 588.759 240.296 577.802 235.278C577.013 234.916 576.468 234.171 576.362 233.31C575.751 228.334 573.033 223.644 568.718 219.266C564.402 214.889 558.617 210.96 552.182 207.537C539.31 200.691 524.242 196.082 514.318 193.949C512.968 193.659 512.109 192.33 512.399 190.98Z" fill="#78C9A3"/>
<path d="M514.843 285.505C514.843 298.484 501.412 309.005 484.843 309.005C468.275 309.005 454.843 298.484 454.843 285.505C454.843 272.526 468.275 262.005 484.843 262.005C501.412 262.005 514.843 272.526 514.843 285.505Z" fill="#FBFEE0"/>
<path d="M499.843 285.505C499.843 296.274 492.904 305.005 484.343 305.005C475.783 305.005 468.843 296.274 468.843 285.505C468.843 274.735 475.783 266.005 484.343 266.005C492.904 266.005 499.843 274.735 499.843 285.505Z" fill="#040404"/>
<path d="M515.271 294.902C517.438 289.059 516.553 282.355 512.811 276.267C509.068 270.179 502.775 265.204 495.315 262.437C487.855 259.67 479.839 259.338 473.032 261.514C466.224 263.689 461.183 268.195 459.015 274.038L487.143 284.47L515.271 294.902Z" fill="#93DEBD"/>
<path fill-rule="evenodd" clip-rule="evenodd" d="M958.283 524.36C958.64 526.26 957.388 528.089 955.488 528.445L939.488 531.445C937.589 531.801 935.76 530.55 935.403 528.65C935.047 526.75 936.299 524.921 938.198 524.565L954.198 521.565C956.098 521.209 957.927 522.46 958.283 524.36Z" fill="#040404"/>
<path d="M628.343 607.505L614.343 601.505L616.343 673.005L628.343 725.505C636.343 723.905 631.677 646.172 628.343 607.505Z" fill="#FBFEE0"/>
<path fill-rule="evenodd" clip-rule="evenodd" d="M601.354 422.782C601.474 421.407 602.687 420.39 604.063 420.51L667.308 426.055C668.683 426.176 669.7 427.388 669.58 428.764C669.459 430.139 668.246 431.157 666.871 431.036L603.626 425.491C602.25 425.371 601.233 424.158 601.354 422.782Z" fill="#9AE3CE"/>
<path fill-rule="evenodd" clip-rule="evenodd" d="M614.395 407.787C614.54 406.414 615.77 405.419 617.143 405.563L645.107 408.515C646.48 408.66 647.475 409.89 647.33 411.263C647.185 412.636 645.955 413.632 644.582 413.487L616.618 410.536C615.245 410.391 614.25 409.16 614.395 407.787Z" fill="#9AE3CE"/>
<path fill-rule="evenodd" clip-rule="evenodd" d="M614.274 439.126C614.409 437.752 615.632 436.748 617.006 436.883L675.365 442.611C676.739 442.746 677.743 443.969 677.608 445.343C677.474 446.717 676.25 447.722 674.876 447.587L616.518 441.859C615.144 441.724 614.139 440.501 614.274 439.126Z" fill="#9AE3CE"/>
<path fill-rule="evenodd" clip-rule="evenodd" d="M646.428 443.935C647.496 443.061 647.653 441.486 646.779 440.417L618.543 405.917C617.669 404.849 616.093 404.691 615.025 405.566C613.956 406.44 613.799 408.015 614.674 409.084L642.91 443.584C643.784 444.653 645.359 444.81 646.428 443.935Z" fill="#9AE3CE"/>
<path fill-rule="evenodd" clip-rule="evenodd" d="M676.521 445.858C677.545 444.932 677.623 443.351 676.697 442.327L646.706 409.187C645.779 408.163 644.198 408.084 643.175 409.01C642.151 409.937 642.072 411.518 642.998 412.542L672.99 445.682C673.916 446.706 675.497 446.785 676.521 445.858Z" fill="#9AE3CE"/>
<path fill-rule="evenodd" clip-rule="evenodd" d="M618.295 441.04C619.419 440.238 619.68 438.677 618.878 437.553L607.849 422.096C607.047 420.972 605.486 420.711 604.362 421.513C603.238 422.315 602.977 423.876 603.779 425L614.808 440.457C615.61 441.581 617.171 441.842 618.295 441.04Z" fill="#9AE3CE"/>
<path fill-rule="evenodd" clip-rule="evenodd" d="M684.319 235.737C685.683 235.947 686.619 237.224 686.408 238.589L676.729 301.334C676.519 302.699 675.242 303.634 673.877 303.424C672.513 303.213 671.577 301.936 671.788 300.572L681.467 237.826C681.677 236.462 682.954 235.526 684.319 235.737Z" fill="#B9FCE8"/>
<path fill-rule="evenodd" clip-rule="evenodd" d="M698.427 249.732C699.787 249.967 700.7 251.26 700.466 252.621L695.688 280.331C695.453 281.691 694.16 282.604 692.799 282.37C691.438 282.135 690.526 280.842 690.76 279.481L695.538 251.771C695.773 250.411 697.066 249.498 698.427 249.732Z" fill="#B9FCE8"/>
<path fill-rule="evenodd" clip-rule="evenodd" d="M667.163 247.558C668.525 247.782 669.447 249.069 669.223 250.431L659.681 308.288C659.456 309.651 658.17 310.573 656.807 310.348C655.445 310.124 654.523 308.837 654.747 307.475L664.289 249.618C664.514 248.255 665.8 247.333 667.163 247.558Z" fill="#B9FCE8"/>
<path fill-rule="evenodd" clip-rule="evenodd" d="M660.256 279.327C661.059 280.45 662.62 280.71 663.744 279.908L700.021 253.994C701.144 253.192 701.405 251.631 700.602 250.507C699.799 249.384 698.238 249.123 697.115 249.926L660.837 275.839C659.714 276.642 659.454 278.203 660.256 279.327Z" fill="#B9FCE8"/>
<path fill-rule="evenodd" clip-rule="evenodd" d="M656.364 309.229C657.222 310.311 658.794 310.494 659.876 309.636L694.912 281.882C695.994 281.025 696.177 279.452 695.319 278.37C694.462 277.288 692.89 277.106 691.807 277.963L656.772 305.717C655.689 306.574 655.507 308.147 656.364 309.229Z" fill="#B9FCE8"/>
<path fill-rule="evenodd" clip-rule="evenodd" d="M664.99 251.445C665.716 252.619 667.257 252.982 668.431 252.255L684.578 242.263C685.752 241.537 686.115 239.996 685.388 238.822C684.662 237.648 683.121 237.285 681.947 238.012L665.8 248.003C664.626 248.73 664.263 250.271 664.99 251.445Z" fill="#B9FCE8"/>
<path fill-rule="evenodd" clip-rule="evenodd" d="M321.131 267.291C321.855 267.694 322.114 268.608 321.71 269.332L301.462 305.622C301.059 306.346 300.145 306.605 299.421 306.201C298.698 305.798 298.439 304.884 298.842 304.161L319.09 267.87C319.494 267.146 320.408 266.887 321.131 267.291Z" fill="#95DDBB"/>
<path fill-rule="evenodd" clip-rule="evenodd" d="M326.593 279.094C327.31 279.51 327.553 280.428 327.136 281.145L317.885 297.057C317.469 297.773 316.551 298.016 315.835 297.599C315.118 297.183 314.875 296.265 315.292 295.549L324.543 279.637C324.959 278.921 325.877 278.678 326.593 279.094Z" fill="#95DDBB"/>
<path fill-rule="evenodd" clip-rule="evenodd" d="M307.908 270.63C308.627 271.041 308.877 271.958 308.466 272.677L289.417 306C289.006 306.719 288.089 306.969 287.37 306.557C286.651 306.146 286.401 305.23 286.812 304.511L305.861 271.188C306.272 270.469 307.189 270.219 307.908 270.63Z" fill="#95DDBB"/>
<path fill-rule="evenodd" clip-rule="evenodd" d="M296.625 288.393C296.841 289.193 297.665 289.666 298.465 289.449L326.632 281.823C327.432 281.607 327.905 280.783 327.688 279.983C327.472 279.183 326.648 278.711 325.848 278.927L297.681 286.554C296.881 286.77 296.408 287.594 296.625 288.393Z" fill="#95DDBB"/>
<path fill-rule="evenodd" clip-rule="evenodd" d="M287.416 305.846C287.672 306.634 288.518 307.065 289.306 306.809L317.131 297.77C317.919 297.515 318.351 296.668 318.095 295.88C317.839 295.093 316.993 294.661 316.205 294.917L288.379 303.956C287.591 304.212 287.16 305.058 287.416 305.846Z" fill="#95DDBB"/>
<path fill-rule="evenodd" clip-rule="evenodd" d="M305.89 272.374C306.053 273.187 306.844 273.713 307.656 273.549L319.841 271.101C320.654 270.938 321.18 270.147 321.017 269.335C320.853 268.523 320.063 267.997 319.251 268.16L307.065 270.608C306.253 270.771 305.727 271.562 305.89 272.374Z" fill="#95DDBB"/>
<path fill-rule="evenodd" clip-rule="evenodd" d="M191.447 430.861C192.19 430.494 193.089 430.799 193.456 431.542L211.857 468.803C212.224 469.546 211.919 470.445 211.176 470.812C210.433 471.179 209.534 470.874 209.167 470.131L190.766 432.87C190.399 432.127 190.704 431.228 191.447 430.861Z" fill="#95DDBB"/>
<path fill-rule="evenodd" clip-rule="evenodd" d="M204.266 433.058C205.015 432.704 205.909 433.025 206.262 433.774L214.119 450.419C214.472 451.168 214.152 452.062 213.403 452.416C212.653 452.769 211.759 452.449 211.406 451.699L203.549 435.055C203.196 434.306 203.516 433.412 204.266 433.058Z" fill="#95DDBB"/>
<path fill-rule="evenodd" clip-rule="evenodd" d="M186.696 443.645C187.442 443.286 188.339 443.6 188.698 444.347L205.335 478.937C205.694 479.683 205.38 480.58 204.633 480.939C203.886 481.298 202.99 480.984 202.631 480.237L185.994 445.647C185.635 444.9 185.949 444.004 186.696 443.645Z" fill="#95DDBB"/>
<path fill-rule="evenodd" clip-rule="evenodd" d="M194.924 463.014C195.705 463.289 196.562 462.879 196.837 462.097L206.535 434.574C206.81 433.793 206.4 432.936 205.619 432.661C204.838 432.386 203.981 432.796 203.706 433.577L194.008 461.1C193.733 461.882 194.143 462.738 194.924 463.014Z" fill="#95DDBB"/>
<path fill-rule="evenodd" clip-rule="evenodd" d="M204.073 480.498C204.867 480.734 205.702 480.282 205.938 479.488L214.279 451.445C214.515 450.651 214.063 449.816 213.269 449.579C212.475 449.343 211.64 449.795 211.404 450.59L203.063 478.633C202.827 479.427 203.279 480.262 204.073 480.498Z" fill="#95DDBB"/>
<path fill-rule="evenodd" clip-rule="evenodd" d="M186.987 446.297C187.749 446.623 188.631 446.27 188.957 445.509L193.853 434.085C194.179 433.323 193.827 432.441 193.065 432.115C192.304 431.789 191.422 432.141 191.096 432.903L186.199 444.327C185.873 445.088 186.226 445.97 186.987 446.297Z" fill="#95DDBB"/>
<path fill-rule="evenodd" clip-rule="evenodd" d="M690.897 143.006C690.598 144.354 689.263 145.204 687.915 144.904L628.784 131.778C627.436 131.479 626.586 130.143 626.885 128.795C627.184 127.448 628.519 126.597 629.867 126.897L688.998 140.023C690.346 140.323 691.196 141.658 690.897 143.006Z" fill="#95DDBB"/>
<path fill-rule="evenodd" clip-rule="evenodd" d="M676.693 155.566C676.37 156.908 675.02 157.735 673.678 157.412L647.596 151.135C646.253 150.812 645.427 149.462 645.75 148.12C646.073 146.777 647.423 145.951 648.765 146.274L674.848 152.55C676.19 152.873 677.016 154.223 676.693 155.566Z" fill="#95DDBB"/>
<path fill-rule="evenodd" clip-rule="evenodd" d="M680.713 125.936C680.4 127.281 679.056 128.117 677.711 127.804L623.226 115.113C621.881 114.8 621.045 113.456 621.358 112.111C621.671 110.766 623.015 109.93 624.36 110.243L678.846 122.934C680.19 123.248 681.027 124.592 680.713 125.936Z" fill="#95DDBB"/>
<path fill-rule="evenodd" clip-rule="evenodd" d="M650.727 117.258C649.553 117.985 649.192 119.526 649.919 120.7L672.327 156.852C673.054 158.025 674.596 158.387 675.769 157.659C676.943 156.932 677.304 155.391 676.577 154.217L654.169 118.066C653.441 116.892 651.9 116.53 650.727 117.258Z" fill="#95DDBB"/>
<path fill-rule="evenodd" clip-rule="evenodd" d="M622.498 111.691C621.362 112.475 621.077 114.032 621.862 115.168L646.1 150.253C646.885 151.389 648.442 151.674 649.578 150.889C650.714 150.104 650.998 148.547 650.214 147.411L625.976 112.327C625.191 111.191 623.634 110.906 622.498 111.691Z" fill="#95DDBB"/>
<path fill-rule="evenodd" clip-rule="evenodd" d="M676.982 123.498C675.763 124.146 675.301 125.66 675.949 126.879L684.455 142.874C685.103 144.093 686.617 144.556 687.836 143.907C689.055 143.259 689.517 141.745 688.869 140.526L680.364 124.531C679.715 123.312 678.202 122.85 676.982 123.498Z" fill="#95DDBB"/>
<path fill-rule="evenodd" clip-rule="evenodd" d="M391.915 112.509C393.174 111.943 394.654 112.505 395.22 113.764L420.052 169.01C420.618 170.27 420.056 171.749 418.797 172.315C417.538 172.881 416.058 172.319 415.492 171.06L390.659 115.814C390.093 114.555 390.655 113.075 391.915 112.509Z" fill="#8ECAB4"/>
<path fill-rule="evenodd" clip-rule="evenodd" d="M410.475 116.384C411.744 115.841 413.214 116.429 413.757 117.698L424.321 142.357C424.864 143.627 424.276 145.096 423.007 145.64C421.738 146.183 420.268 145.595 419.725 144.326L409.161 119.667C408.618 118.398 409.206 116.928 410.475 116.384Z" fill="#8ECAB4"/>
<path fill-rule="evenodd" clip-rule="evenodd" d="M384.321 130.877C385.586 130.324 387.06 130.902 387.613 132.167L410.017 183.429C410.57 184.695 409.992 186.168 408.727 186.721C407.462 187.274 405.988 186.697 405.435 185.432L383.031 134.169C382.478 132.904 383.056 131.43 384.321 130.877Z" fill="#8ECAB4"/>
<path fill-rule="evenodd" clip-rule="evenodd" d="M395.293 160.103C396.578 160.609 398.03 159.977 398.535 158.692L414.116 119.115C414.622 117.831 413.99 116.379 412.706 115.873C411.421 115.368 409.969 115.999 409.464 117.284L393.883 156.861C393.377 158.145 394.009 159.597 395.293 160.103Z" fill="#8ECAB4"/>
<path fill-rule="evenodd" clip-rule="evenodd" d="M407.709 186.059C409.017 186.5 410.436 185.797 410.877 184.489L424.508 144.083C424.949 142.775 424.247 141.357 422.938 140.915C421.63 140.474 420.212 141.177 419.77 142.485L406.139 182.891C405.698 184.199 406.401 185.617 407.709 186.059Z" fill="#8ECAB4"/>
<path fill-rule="evenodd" clip-rule="evenodd" d="M384.597 135.326C385.846 135.916 387.336 135.381 387.925 134.133L395.661 117.752C396.25 116.503 395.716 115.013 394.468 114.423C393.219 113.834 391.729 114.368 391.14 115.617L383.404 131.998C382.814 133.246 383.349 134.736 384.597 135.326Z" fill="#8ECAB4"/>
<path fill-rule="evenodd" clip-rule="evenodd" d="M816.72 338.226C817.776 337.337 819.353 337.471 820.243 338.527L861.16 387.071C862.049 388.126 861.915 389.704 860.859 390.594C859.803 391.483 858.226 391.349 857.336 390.293L816.42 341.749C815.53 340.694 815.665 339.116 816.72 338.226Z" fill="#83C5B0"/>
<path fill-rule="evenodd" clip-rule="evenodd" d="M836.541 336.797C837.613 335.926 839.187 336.088 840.058 337.16L857.797 358.977C858.668 360.049 858.505 361.623 857.434 362.494C856.363 363.365 854.788 363.203 853.917 362.132L836.179 340.314C835.308 339.243 835.47 337.668 836.541 336.797Z" fill="#83C5B0"/>
<path fill-rule="evenodd" clip-rule="evenodd" d="M814.349 358.925C815.414 358.046 816.989 358.197 817.868 359.262L855.192 404.489C856.07 405.554 855.92 407.13 854.855 408.009C853.79 408.887 852.214 408.737 851.335 407.672L814.012 362.445C813.133 361.38 813.284 359.804 814.349 358.925Z" fill="#83C5B0"/>
<path fill-rule="evenodd" clip-rule="evenodd" d="M833.747 385.015C835.121 385.149 836.344 384.144 836.477 382.77L840.801 338.398C840.935 337.024 839.929 335.801 838.555 335.667C837.181 335.533 835.958 336.539 835.824 337.913L831.501 382.285C831.367 383.659 832.373 384.881 833.747 385.015Z" fill="#83C5B0"/>
<path fill-rule="evenodd" clip-rule="evenodd" d="M853.72 407.607C855.099 407.672 856.27 406.607 856.336 405.228L858.456 360.582C858.522 359.202 857.457 358.031 856.077 357.966C854.698 357.9 853.527 358.965 853.462 360.344L851.341 404.991C851.276 406.37 852.341 407.541 853.72 407.607Z" fill="#83C5B0"/>
<path fill-rule="evenodd" clip-rule="evenodd" d="M815.849 363.118C817.211 363.343 818.498 362.42 818.722 361.058L821.809 342.322C822.033 340.96 821.11 339.673 819.748 339.449C818.386 339.224 817.099 340.147 816.875 341.509L813.789 360.245C813.564 361.607 814.487 362.894 815.849 363.118Z" fill="#83C5B0"/>
<path fill-rule="evenodd" clip-rule="evenodd" d="M708.469 355.855C709.102 355.321 710.048 355.402 710.582 356.035L736.3 386.548C736.834 387.181 736.753 388.127 736.12 388.661C735.486 389.195 734.54 389.114 734.006 388.481L708.288 357.969C707.754 357.335 707.835 356.389 708.469 355.855Z" fill="#9DE1CC"/>
<path fill-rule="evenodd" clip-rule="evenodd" d="M720.926 354.958C721.569 354.435 722.514 354.533 723.036 355.176L734.186 368.889C734.708 369.532 734.611 370.477 733.968 370.999C733.325 371.522 732.381 371.424 731.858 370.782L720.709 357.068C720.186 356.425 720.283 355.481 720.926 354.958Z" fill="#9DE1CC"/>
<path fill-rule="evenodd" clip-rule="evenodd" d="M706.978 368.866C707.616 368.339 708.562 368.429 709.089 369.068L732.549 397.496C733.076 398.134 732.985 399.08 732.346 399.607C731.708 400.134 730.762 400.044 730.235 399.405L706.775 370.978C706.248 370.339 706.339 369.393 706.978 368.866Z" fill="#9DE1CC"/>
<path fill-rule="evenodd" clip-rule="evenodd" d="M719.131 385.139C719.956 385.219 720.689 384.616 720.77 383.792L723.487 355.902C723.567 355.077 722.964 354.344 722.14 354.264C721.315 354.183 720.582 354.786 720.501 355.611L717.784 383.501C717.703 384.325 718.307 385.059 719.131 385.139Z" fill="#9DE1CC"/>
<path fill-rule="evenodd" clip-rule="evenodd" d="M731.682 399.338C732.51 399.377 733.212 398.739 733.252 397.911L734.584 369.849C734.624 369.021 733.985 368.319 733.157 368.279C732.33 368.24 731.627 368.879 731.588 369.706L730.255 397.769C730.216 398.596 730.855 399.299 731.682 399.338Z" fill="#9DE1CC"/>
<path fill-rule="evenodd" clip-rule="evenodd" d="M707.887 371.376C708.704 371.511 709.476 370.957 709.611 370.14L711.551 358.363C711.685 357.546 711.132 356.774 710.314 356.64C709.497 356.505 708.725 357.058 708.59 357.876L706.651 369.652C706.516 370.47 707.069 371.241 707.887 371.376Z" fill="#9DE1CC"/>
<path fill-rule="evenodd" clip-rule="evenodd" d="M723.061 609.728C723.832 610.031 724.21 610.902 723.907 611.673L709.282 648.801C708.978 649.572 708.107 649.951 707.337 649.647C706.566 649.344 706.187 648.473 706.491 647.702L721.116 610.573C721.419 609.803 722.29 609.424 723.061 609.728Z" fill="#9DE1CC"/>
<path fill-rule="evenodd" clip-rule="evenodd" d="M729.771 620.262C730.536 620.579 730.899 621.457 730.582 622.222L723.814 638.549C723.497 639.314 722.62 639.678 721.854 639.36C721.089 639.043 720.726 638.166 721.043 637.4L727.811 621.073C728.128 620.308 729.005 619.945 729.771 620.262Z" fill="#9DE1CC"/>
<path fill-rule="evenodd" clip-rule="evenodd" d="M710.905 614.599C711.672 614.91 712.042 615.785 711.73 616.553L697.867 650.703C697.555 651.471 696.68 651.84 695.913 651.529C695.145 651.217 694.775 650.342 695.087 649.575L708.951 615.424C709.262 614.657 710.137 614.287 710.905 614.599Z" fill="#9DE1CC"/>
<path fill-rule="evenodd" clip-rule="evenodd" d="M702.363 633.026C702.684 633.789 703.563 634.148 704.327 633.827L730.157 622.964C730.921 622.643 731.28 621.763 730.958 621C730.637 620.236 729.758 619.877 728.994 620.199L703.164 631.061C702.4 631.383 702.041 632.262 702.363 633.026Z" fill="#9DE1CC"/>
<path fill-rule="evenodd" clip-rule="evenodd" d="M695.833 650.816C696.192 651.563 697.088 651.878 697.835 651.519L723.159 639.356C723.906 638.997 724.221 638.101 723.862 637.354C723.503 636.608 722.607 636.293 721.861 636.652L696.536 648.815C695.789 649.173 695.475 650.07 695.833 650.816Z" fill="#9DE1CC"/>
<path fill-rule="evenodd" clip-rule="evenodd" d="M709.128 616.591C709.398 617.375 710.252 617.791 711.035 617.521L722.319 613.631C723.102 613.361 723.518 612.507 723.248 611.724C722.978 610.941 722.124 610.525 721.341 610.795L710.058 614.684C709.274 614.954 708.858 615.808 709.128 616.591Z" fill="#9DE1CC"/>
<path fill-rule="evenodd" clip-rule="evenodd" d="M663.252 939.097C663.766 939.3 664.019 939.88 663.816 940.394L656.634 958.627C656.432 959.141 655.851 959.394 655.337 959.191C654.823 958.989 654.571 958.408 654.773 957.894L661.955 939.661C662.158 939.147 662.738 938.895 663.252 939.097Z" fill="#CCF8EA"/>
<path fill-rule="evenodd" clip-rule="evenodd" d="M666.551 944.272C667.062 944.484 667.304 945.069 667.092 945.579L663.769 953.597C663.558 954.107 662.972 954.349 662.462 954.138C661.952 953.926 661.71 953.341 661.921 952.831L665.245 944.813C665.456 944.303 666.041 944.061 666.551 944.272Z" fill="#CCF8EA"/>
<path fill-rule="evenodd" clip-rule="evenodd" d="M657.285 941.49C657.797 941.698 658.043 942.281 657.836 942.793L651.027 959.564C650.82 960.076 650.236 960.322 649.725 960.114C649.213 959.906 648.966 959.323 649.174 958.811L655.982 942.041C656.19 941.529 656.773 941.283 657.285 941.49Z" fill="#CCF8EA"/>
<path fill-rule="evenodd" clip-rule="evenodd" d="M652.748 950.885C652.962 951.395 653.549 951.634 654.058 951.42L666.743 946.085C667.252 945.871 667.491 945.285 667.277 944.776C667.063 944.266 666.477 944.027 665.967 944.241L653.282 949.576C652.773 949.79 652.534 950.376 652.748 950.885Z" fill="#CCF8EA"/>
<path fill-rule="evenodd" clip-rule="evenodd" d="M649.547 959.635C649.787 960.132 650.384 960.342 650.882 960.103L663.318 954.13C663.816 953.891 664.026 953.293 663.787 952.795C663.548 952.298 662.95 952.088 662.452 952.327L650.016 958.3C649.518 958.539 649.308 959.137 649.547 959.635Z" fill="#CCF8EA"/>
<path fill-rule="evenodd" clip-rule="evenodd" d="M656.065 942.799C656.245 943.321 656.814 943.599 657.336 943.419L662.877 941.508C663.399 941.328 663.677 940.759 663.497 940.237C663.317 939.715 662.747 939.438 662.225 939.618L656.684 941.528C656.162 941.708 655.885 942.277 656.065 942.799Z" fill="#CCF8EA"/>
<path fill-rule="evenodd" clip-rule="evenodd" d="M381.252 866.097C381.766 866.3 382.019 866.88 381.816 867.394L374.634 885.627C374.432 886.141 373.851 886.394 373.337 886.191C372.823 885.989 372.571 885.408 372.773 884.894L379.955 866.661C380.158 866.147 380.738 865.895 381.252 866.097Z" fill="#CCF8EA"/>
<path fill-rule="evenodd" clip-rule="evenodd" d="M384.551 871.272C385.062 871.484 385.304 872.069 385.092 872.579L381.769 880.597C381.558 881.107 380.972 881.349 380.462 881.138C379.952 880.926 379.71 880.341 379.921 879.831L383.245 871.813C383.456 871.303 384.041 871.061 384.551 871.272Z" fill="#CCF8EA"/>
<path fill-rule="evenodd" clip-rule="evenodd" d="M375.285 868.49C375.797 868.698 376.043 869.281 375.836 869.793L369.027 886.564C368.82 887.076 368.236 887.322 367.725 887.114C367.213 886.906 366.966 886.323 367.174 885.811L373.982 869.041C374.19 868.529 374.773 868.283 375.285 868.49Z" fill="#CCF8EA"/>
<path fill-rule="evenodd" clip-rule="evenodd" d="M370.748 877.885C370.962 878.395 371.549 878.634 372.058 878.42L384.743 873.085C385.252 872.871 385.491 872.285 385.277 871.776C385.063 871.266 384.477 871.027 383.967 871.241L371.282 876.576C370.773 876.79 370.534 877.376 370.748 877.885Z" fill="#CCF8EA"/>
<path fill-rule="evenodd" clip-rule="evenodd" d="M367.547 886.635C367.787 887.132 368.384 887.342 368.882 887.103L381.318 881.13C381.816 880.891 382.026 880.293 381.787 879.795C381.548 879.298 380.95 879.088 380.452 879.327L368.016 885.3C367.518 885.539 367.308 886.137 367.547 886.635Z" fill="#CCF8EA"/>
<path fill-rule="evenodd" clip-rule="evenodd" d="M374.065 869.799C374.245 870.321 374.814 870.599 375.336 870.419L380.877 868.508C381.399 868.328 381.677 867.759 381.497 867.237C381.317 866.715 380.747 866.438 380.225 866.618L374.684 868.528C374.162 868.708 373.885 869.277 374.065 869.799Z" fill="#CCF8EA"/>
<path fill-rule="evenodd" clip-rule="evenodd" d="M386.784 971.892C386.377 972.265 385.745 972.238 385.371 971.831L372.119 957.394C371.746 956.987 371.773 956.355 372.18 955.981C372.587 955.608 373.219 955.635 373.593 956.042L386.845 970.479C387.218 970.886 387.191 971.518 386.784 971.892Z" fill="#CCF8EA"/>
<path fill-rule="evenodd" clip-rule="evenodd" d="M380.687 972.593C380.274 972.96 379.642 972.921 379.276 972.508L373.521 966.011C373.154 965.598 373.193 964.966 373.606 964.599C374.019 964.233 374.651 964.271 375.018 964.685L380.773 971.182C381.139 971.595 381.101 972.227 380.687 972.593Z" fill="#CCF8EA"/>
<path fill-rule="evenodd" clip-rule="evenodd" d="M387.244 965.479C386.833 965.848 386.201 965.814 385.832 965.404L373.731 951.943C373.362 951.532 373.396 950.9 373.806 950.531C374.217 950.162 374.849 950.195 375.219 950.606L387.319 964.067C387.688 964.477 387.654 965.11 387.244 965.479Z" fill="#CCF8EA"/>
<path fill-rule="evenodd" clip-rule="evenodd" d="M380.781 957.288C380.23 957.258 379.758 957.68 379.728 958.232L378.974 971.972C378.943 972.524 379.366 972.995 379.917 973.026C380.469 973.056 380.94 972.633 380.971 972.082L381.725 958.342C381.755 957.79 381.333 957.319 380.781 957.288Z" fill="#CCF8EA"/>
<path fill-rule="evenodd" clip-rule="evenodd" d="M374.315 950.581C373.763 950.578 373.313 951.024 373.31 951.576L373.239 965.372C373.236 965.925 373.681 966.375 374.234 966.378C374.786 966.381 375.236 965.935 375.239 965.383L375.31 951.587C375.313 951.034 374.868 950.584 374.315 950.581Z" fill="#CCF8EA"/>
<path fill-rule="evenodd" clip-rule="evenodd" d="M386.601 963.809C386.053 963.742 385.554 964.133 385.488 964.681L384.78 970.499C384.714 971.047 385.104 971.546 385.652 971.612C386.201 971.679 386.699 971.289 386.766 970.74L387.473 964.922C387.54 964.374 387.149 963.875 386.601 963.809Z" fill="#CCF8EA"/>
<path fill-rule="evenodd" clip-rule="evenodd" d="M356.633 511.972C357.966 512.329 358.758 513.7 358.402 515.034L341.992 576.364C341.635 577.698 340.265 578.49 338.931 578.133C337.597 577.776 336.805 576.405 337.162 575.071L353.571 513.741C353.928 512.407 355.299 511.615 356.633 511.972Z" fill="#B9F9E6"/>
<path fill-rule="evenodd" clip-rule="evenodd" d="M369.144 527.412C370.471 527.792 371.239 529.177 370.858 530.504L363.111 557.534C362.731 558.862 361.346 559.629 360.019 559.249C358.692 558.868 357.924 557.484 358.305 556.157L366.052 529.126C366.432 527.799 367.817 527.032 369.144 527.412Z" fill="#B9F9E6"/>
<path fill-rule="evenodd" clip-rule="evenodd" d="M338.299 521.868C339.629 522.239 340.407 523.618 340.036 524.948L324.292 581.433C323.921 582.763 322.542 583.541 321.212 583.17C319.882 582.8 319.104 581.421 319.475 580.091L335.219 523.605C335.59 522.275 336.969 521.498 338.299 521.868Z" fill="#B9F9E6"/>
<path fill-rule="evenodd" clip-rule="evenodd" d="M327.996 552.704C328.673 553.908 330.197 554.335 331.4 553.659L370.268 531.822C371.471 531.145 371.899 529.621 371.223 528.417C370.546 527.214 369.022 526.786 367.818 527.462L328.951 549.3C327.747 549.976 327.32 551.5 327.996 552.704Z" fill="#B9F9E6"/>
<path fill-rule="evenodd" clip-rule="evenodd" d="M320.893 582.01C321.628 583.178 323.171 583.53 324.34 582.794L362.172 558.993C363.341 558.258 363.692 556.714 362.957 555.546C362.222 554.377 360.678 554.026 359.51 554.761L321.678 578.562C320.509 579.298 320.157 580.841 320.893 582.01Z" fill="#B9F9E6"/>
<path fill-rule="evenodd" clip-rule="evenodd" d="M335.718 525.498C336.313 526.743 337.806 527.271 339.052 526.675L356.185 518.489C357.43 517.893 357.958 516.401 357.362 515.155C356.767 513.909 355.275 513.382 354.029 513.977L336.896 522.164C335.65 522.759 335.123 524.252 335.718 525.498Z" fill="#B9F9E6"/>
<path fill-rule="evenodd" clip-rule="evenodd" d="M342.633 565.972C343.966 566.329 344.758 567.7 344.402 569.034L327.992 630.364C327.635 631.698 326.265 632.49 324.931 632.133C323.597 631.776 322.805 630.405 323.162 629.071L339.571 567.741C339.928 566.407 341.299 565.615 342.633 565.972Z" fill="#B9F9E6"/>
<path fill-rule="evenodd" clip-rule="evenodd" d="M355.144 581.412C356.471 581.792 357.239 583.177 356.858 584.504L349.111 611.534C348.731 612.862 347.346 613.629 346.019 613.249C344.692 612.868 343.924 611.484 344.305 610.157L352.052 583.126C352.432 581.799 353.817 581.032 355.144 581.412Z" fill="#B9F9E6"/>
<path fill-rule="evenodd" clip-rule="evenodd" d="M324.299 575.868C325.629 576.239 326.407 577.618 326.036 578.948L310.292 635.433C309.921 636.763 308.542 637.541 307.212 637.17C305.882 636.8 305.104 635.421 305.475 634.091L321.219 577.605C321.59 576.275 322.969 575.498 324.299 575.868Z" fill="#B9F9E6"/>
<path fill-rule="evenodd" clip-rule="evenodd" d="M313.996 606.704C314.673 607.908 316.197 608.335 317.4 607.659L356.268 585.822C357.471 585.145 357.899 583.621 357.223 582.417C356.546 581.214 355.022 580.786 353.818 581.462L314.951 603.3C313.747 603.976 313.32 605.5 313.996 606.704Z" fill="#B9F9E6"/>
<path fill-rule="evenodd" clip-rule="evenodd" d="M306.893 636.01C307.628 637.178 309.171 637.53 310.34 636.794L348.172 612.993C349.341 612.258 349.692 610.714 348.957 609.546C348.222 608.377 346.678 608.026 345.51 608.761L307.678 632.562C306.509 633.298 306.157 634.841 306.893 636.01Z" fill="#B9F9E6"/>
<path fill-rule="evenodd" clip-rule="evenodd" d="M321.718 579.498C322.313 580.743 323.806 581.271 325.052 580.675L342.185 572.489C343.43 571.893 343.958 570.401 343.362 569.155C342.767 567.909 341.275 567.382 340.029 567.977L322.896 576.164C321.65 576.759 321.123 578.252 321.718 579.498Z" fill="#B9F9E6"/>
<path d="M715.843 780.005C704.643 802.805 574.51 741.172 510.843 707.505C546.843 751.005 606.843 839.805 620.843 851.005C634.843 862.205 686.843 847.338 703.343 838.005L715.843 780.005Z" fill="#FBFEE0"/>
<path d="M190.843 617.505C190.843 635.454 176.293 650.005 158.343 650.005C140.394 650.005 125.843 635.454 125.843 617.505C125.843 599.556 140.394 585.005 158.343 585.005C176.293 585.005 190.843 599.556 190.843 617.505Z" fill="#FBFEE0"/>
<path d="M180.843 617.005C180.843 629.155 170.994 639.005 158.843 639.005C146.693 639.005 136.843 629.155 136.843 617.005C136.843 604.855 146.693 595.005 158.843 595.005C170.994 595.005 180.843 604.855 180.843 617.005Z" fill="#040404"/>
<path fill-rule="evenodd" clip-rule="evenodd" d="M409.843 283.005C409.843 281.624 410.962 280.505 412.343 280.505H423.843C425.224 280.505 426.343 281.624 426.343 283.005C426.343 284.386 425.224 285.505 423.843 285.505H412.343C410.962 285.505 409.843 284.386 409.843 283.005ZM80.1432 601.605C81.4687 601.218 82.8566 601.979 83.2432 603.305L86.7432 615.305C87.1298 616.63 86.3687 618.018 85.0432 618.405C83.7177 618.791 82.3298 618.03 81.9432 616.705L78.4432 604.705C78.0566 603.379 78.8177 601.991 80.1432 601.605ZM109.286 618.474C109.579 619.823 108.723 621.155 107.374 621.448L95.8743 623.948C94.5251 624.241 93.1935 623.385 92.9002 622.036C92.6069 620.687 93.4629 619.355 94.8121 619.062L106.312 616.562C107.661 616.269 108.993 617.125 109.286 618.474Z" fill="#6EA795"/>
<path fill-rule="evenodd" clip-rule="evenodd" d="M282.083 1896.73C278.539 1900.74 276.239 1905.42 277.456 1910.45L280.029 1921.08L284.922 1911.29C286.388 1908.36 287.794 1904.8 289.117 1900.93C289.33 1900.71 289.553 1900.5 289.787 1900.27C293.871 1896.41 300.34 1892.23 308.769 1887.92C325.563 1879.33 349.198 1870.72 374.408 1863.42C399.589 1856.12 426.158 1850.17 448.749 1846.84C460.047 1845.18 470.285 1844.18 478.822 1843.98C487.46 1843.79 493.984 1844.42 498.07 1845.8C500.164 1846.5 502.432 1845.37 503.136 1843.28C503.839 1841.18 502.712 1838.92 500.618 1838.21C495.173 1836.38 487.507 1835.78 478.639 1835.98C469.668 1836.19 459.083 1837.23 447.583 1838.92C424.578 1842.31 397.652 1848.35 372.181 1855.73C346.738 1863.11 322.562 1871.88 305.127 1880.79C300.688 1883.06 296.624 1885.37 293.058 1887.71C293.336 1886.66 293.608 1885.6 293.872 1884.56C296.35 1874.76 298.271 1865.1 299.286 1859.18C299.66 1857 298.197 1854.94 296.02 1854.56C293.842 1854.19 291.775 1855.65 291.401 1857.83C290.417 1863.57 288.538 1873.02 286.116 1882.6C284.876 1887.5 283.514 1892.36 282.083 1896.73Z" fill="#AD8938"/>
<path fill-rule="evenodd" clip-rule="evenodd" d="M616.281 1900.65C618.411 1900.06 620.613 1901.31 621.2 1903.44C622.804 1909.27 626.953 1926.76 630.651 1944.54C632.502 1953.45 634.25 1962.47 635.515 1970.19C635.601 1970.72 635.685 1971.24 635.767 1971.75C639.501 1965.59 644.659 1958.29 650.455 1950.76C662.885 1934.6 678.577 1916.93 690.173 1906.53C691.817 1905.05 694.346 1905.19 695.821 1906.83C697.296 1908.48 697.159 1911.01 695.515 1912.48C684.41 1922.45 669.052 1939.7 656.796 1955.64C650.673 1963.59 645.407 1971.12 641.865 1977.14C640.086 1980.16 638.81 1982.7 638.065 1984.66C637.775 1985.42 637.59 1986.03 637.482 1986.51C637.507 1987.22 637.512 1987.88 637.497 1988.48L629.673 1989.54C629.299 1988.32 629.312 1987.08 629.453 1986C629.269 1982.62 628.622 1977.6 627.621 1971.49C626.381 1963.92 624.658 1955.02 622.818 1946.17C619.134 1928.45 615.025 1911.15 613.487 1905.57C612.9 1903.44 614.151 1901.23 616.281 1900.65Z" fill="#AD8938"/>
<path d="M625.343 932.505C624.143 944.905 481.51 914.338 410.343 897.505V924.505L636.843 965.005L625.343 932.505Z" fill="#AD8938"/>
<path fill-rule="evenodd" clip-rule="evenodd" d="M405.843 891.816L411.379 893.126C446.922 901.533 500.291 913.364 544.892 921.541C567.214 925.634 587.223 928.789 601.674 930.155C608.94 930.841 614.577 931.053 618.336 930.765C620.259 930.618 621.346 930.361 621.835 930.165C621.9 930.139 621.943 930.119 621.968 930.107C621.808 930.199 620.993 930.745 620.864 932.072L629.586 931.004L643.666 970.796L405.843 928.272V891.816ZM621.995 930.093C621.995 930.093 621.987 930.098 621.968 930.107C621.985 930.098 621.994 930.093 621.995 930.093ZM414.843 903.187V920.738L630.021 959.214L622.937 939.195C621.706 939.468 620.375 939.635 619.023 939.739C614.474 940.087 608.215 939.813 600.828 939.115C585.974 937.711 565.652 934.497 543.269 930.394C500.727 922.594 450.32 911.501 414.843 903.187Z" fill="#AD8938"/>
<path d="M765.843 958.59C760.102 943.451 746.817 937.558 737.841 937.161C697.749 947.28 703.733 959.78 706.126 969.899C708.52 980.018 730.661 987.757 748.612 992.518C762.974 996.328 774.62 982.201 775.418 976.447C777.792 974.307 770.786 971.623 765.843 958.59Z" fill="url(#paint12_linear_4734_9942)"/>
<path fill-rule="evenodd" clip-rule="evenodd" d="M727.823 958.608C728.594 958.306 729.464 958.686 729.767 959.458L733.121 968.016C733.423 968.787 733.043 969.658 732.272 969.96C731.5 970.262 730.63 969.882 730.328 969.111L726.974 960.552C726.671 959.781 727.052 958.911 727.823 958.608Z" fill="#3B9FA4"/>
<path d="M750.843 970.005C750.843 976.632 745.471 982.005 738.843 982.005C732.216 982.005 726.843 976.632 726.843 970.005C726.843 963.377 732.216 958.005 738.843 958.005C745.471 958.005 750.843 963.377 750.843 970.005Z" fill="#FBFEE0"/>
<path d="M738.843 970.005C738.843 974.423 736.157 978.005 732.843 978.005C729.53 978.005 726.843 974.423 726.843 970.005C726.843 965.587 729.53 962.005 732.843 962.005C736.157 962.005 738.843 965.587 738.843 970.005Z" fill="#3B9FA4"/>
<path fill-rule="evenodd" clip-rule="evenodd" d="M768.792 978.689C768.967 979.213 768.683 979.779 768.16 979.954L765.16 980.954C764.636 981.128 764.069 980.845 763.895 980.321C763.72 979.797 764.003 979.231 764.527 979.056L767.527 978.056C768.051 977.882 768.617 978.165 768.792 978.689Z" fill="#3B9FA4"/>
<defs>
<filter id="filter0_f_4734_9942" x="439.843" y="430.005" width="174" height="75" filterUnits="userSpaceOnUse" color-interpolation-filters="sRGB">
<feFlood flood-opacity="0" result="BackgroundImageFix"/>
<feBlend mode="normal" in="SourceGraphic" in2="BackgroundImageFix" result="shape"/>
<feGaussianBlur stdDeviation="12.5" result="effect1_foregroundBlur_4734_9942"/>
</filter>
<linearGradient id="paint0_linear_4734_9942" x1="530.843" y1="1527" x2="530.843" y2="1171" gradientUnits="userSpaceOnUse">
<stop stop-color="#EDF1E6"/>
<stop offset="1" stop-color="#E9D9D1"/>
</linearGradient>
<linearGradient id="paint1_linear_4734_9942" x1="410.018" y1="618.505" x2="410.018" y2="1138" gradientUnits="userSpaceOnUse">
<stop stop-color="#EDEFE4"/>
<stop offset="1" stop-color="#EADED5"/>
</linearGradient>
<linearGradient id="paint2_linear_4734_9942" x1="391.402" y1="1000" x2="391.402" y2="814.505" gradientUnits="userSpaceOnUse">
<stop stop-color="#9EEEC8"/>
<stop offset="1" stop-color="#577864"/>
</linearGradient>
<linearGradient id="paint3_linear_4734_9942" x1="382.327" y1="1921.18" x2="382.327" y2="1499" gradientUnits="userSpaceOnUse">
<stop stop-color="#EDF1E6"/>
<stop offset="1" stop-color="#E9D9D1"/>
</linearGradient>
<linearGradient id="paint4_linear_4734_9942" x1="326.243" y1="910.149" x2="326.243" y2="1945" gradientUnits="userSpaceOnUse">
<stop stop-color="#FBFEE0"/>
<stop offset="1" stop-color="#E6FBD1"/>
</linearGradient>
<linearGradient id="paint5_linear_4734_9942" x1="545.143" y1="664.505" x2="545.143" y2="957.005" gradientUnits="userSpaceOnUse">
<stop stop-color="#FCFEE1"/>
<stop offset="1" stop-color="#C0DAA6"/>
</linearGradient>
<linearGradient id="paint6_linear_4734_9942" x1="478.99" y1="599.505" x2="478.99" y2="924.505" gradientUnits="userSpaceOnUse">
<stop stop-color="#FEFEE2"/>
<stop offset="1" stop-color="#E5FBD0"/>
</linearGradient>
<linearGradient id="paint7_linear_4734_9942" x1="451.428" y1="508.505" x2="451.428" y2="334.005" gradientUnits="userSpaceOnUse">
<stop stop-color="#7AD1A7"/>
<stop offset="1" stop-color="#6AA191"/>
</linearGradient>
<linearGradient id="paint8_linear_4734_9942" x1="922.343" y1="653.005" x2="400.343" y2="282.005" gradientUnits="userSpaceOnUse">
<stop stop-color="#A2F3CC"/>
<stop offset="1" stop-color="#619588"/>
</linearGradient>
<linearGradient id="paint9_linear_4734_9942" x1="658.214" y1="606.368" x2="658.214" y2="1155" gradientUnits="userSpaceOnUse">
<stop stop-color="#EDF1E6"/>
<stop offset="1" stop-color="#E9D7CF"/>
</linearGradient>
<linearGradient id="paint10_linear_4734_9942" x1="758.786" y1="958.005" x2="758.786" y2="1951.73" gradientUnits="userSpaceOnUse">
<stop stop-color="#F8FEDE"/>
<stop offset="1" stop-color="#CFE3B5"/>
</linearGradient>
<linearGradient id="paint11_linear_4734_9942" x1="708.394" y1="768.051" x2="491.343" y2="768.051" gradientUnits="userSpaceOnUse">
<stop stop-color="#E6FBD1"/>
<stop offset="1" stop-color="#FBFEE0"/>
</linearGradient>
<linearGradient id="paint12_linear_4734_9942" x1="704.343" y1="965.161" x2="861.843" y2="1008.5" gradientUnits="userSpaceOnUse">
<stop stop-color="#9EEEC8"/>
<stop offset="1" stop-color="#EFFFB7"/>
</linearGradient>
</defs>
</svg>
