<svg width="1877" height="2263" viewBox="0 0 1877 2263" fill="none" xmlns="http://www.w3.org/2000/svg">
<path d="M1091.29 197.363L1094.23 237.98L570.416 855.852L547.238 917.831L539.643 919.006L532.489 933.362L489.173 965.551L287.878 1172.7L248.58 1131.06C218.788 1099.5 170.277 1099.5 140.485 1131.06L138.77 1132.87L139.554 1133.7L138.966 1135.47C127.5 1171.43 92.9541 1265.59 71.6388 1269.47L31.8014 1272.21L0 1392.05L187.427 1184.36L230.352 1229.83L148.325 1336.78L94.5711 1350.11L56.5957 1457.7L161.653 1416.25L173.07 1358.88L171.894 1357.71L274.403 1276.47L313.947 1318.36L123.089 1511.79L234.321 1476.91L237.457 1436.05C241.034 1415.67 314.437 1382.35 358.39 1365.45L359.419 1366.52L361.134 1364.71C361.134 1364.71 361.379 1364.47 361.575 1364.22L365.25 1362.36L364.172 1361.23C391.221 1329.14 390.045 1280.88 361.183 1250.26L321.346 1208.08L588.056 948.942L613.438 907.493L605.353 908.767L1142.45 272.717H1164.69L1183.95 174.483L1091.29 197.412V197.363Z" fill="url(#paint0_linear_2495_8)"/>
<mask id="mask0_2495_8" style="mask-type:luminance" maskUnits="userSpaceOnUse" x="0" y="174" width="1184" height="1338">
<path d="M1091.29 197.363L1094.23 237.98L570.416 855.852L547.238 917.831L539.643 919.006L532.489 933.362L489.173 965.551L287.878 1172.7L248.58 1131.06C218.788 1099.5 170.277 1099.5 140.485 1131.06L138.77 1132.87L139.554 1133.7L138.966 1135.47C127.5 1171.43 92.9541 1265.59 71.6388 1269.47L31.8014 1272.21L0 1392.05L187.427 1184.36L230.352 1229.83L148.325 1336.78L94.5711 1350.11L56.5957 1457.7L161.653 1416.25L173.07 1358.88L171.894 1357.71L274.403 1276.47L313.947 1318.36L123.089 1511.79L234.321 1476.91L237.457 1436.05C241.034 1415.67 314.437 1382.35 358.39 1365.45L359.419 1366.52L361.134 1364.71C361.134 1364.71 361.379 1364.47 361.575 1364.22L365.25 1362.36L364.172 1361.23C391.221 1329.14 390.045 1280.88 361.183 1250.26L321.346 1208.08L588.056 948.942L613.438 907.493L605.353 908.767L1142.45 272.717H1164.69L1183.95 174.483L1091.29 197.412V197.363Z" fill="white"/>
</mask>
<g mask="url(#mask0_2495_8)">
<path d="M314.878 1233.01C363.829 1263.78 378.186 1325.96 352.265 1376.81C342.269 1396.46 371.865 1413.8 381.861 1394.11C416.456 1326.2 397.64 1244.53 332.175 1203.37C313.408 1191.61 296.208 1221.25 314.878 1232.96V1233.01Z" fill="#4E7D83"/>
<path d="M336.291 1218.61C430.421 1125.08 524.551 1031.55 618.681 938.017C634.361 922.436 610.106 898.184 594.426 913.764C500.296 1007.29 406.166 1100.83 312.036 1194.36C296.355 1209.94 320.611 1234.19 336.291 1218.61Z" fill="#4E7D83"/>
<path d="M690.908 830.914C831.932 645.91 985.254 470.509 1149.6 305.838C1165.23 290.208 1140.98 265.956 1125.35 281.585C958.941 448.363 804.148 626.263 661.312 813.619C647.934 831.159 677.727 848.258 690.908 830.914Z" fill="#4E7D83"/>
<path d="M1145.73 297.264C1165.48 298.537 1185.23 299.811 1205.02 301.085C1227.07 302.506 1226.97 268.21 1205.02 266.789C1185.27 265.515 1165.53 264.241 1145.73 262.967C1123.68 261.546 1123.78 295.843 1145.73 297.264Z" fill="#4E7D83"/>
<path d="M1103 182.224C1112.12 211.572 1133.43 229.308 1163.86 232.934L1149.06 207.113C1116.09 250.474 1120.35 308.287 1155.73 348.659C1170.28 365.268 1194.49 340.967 1179.98 324.407C1154.01 294.765 1155.43 255.03 1178.71 224.458C1187.53 212.846 1175.08 199.96 1163.91 198.637C1149.21 196.874 1140.29 186.487 1136.13 173.111C1129.61 152.092 1096.49 161.058 1103.05 182.224H1103Z" fill="#4E7D83"/>
</g>
<path d="M1219.77 29.3604C1219.77 29.3604 1269.07 -20.9081 1296.65 10.1055C1324.24 41.1192 1364.03 34.4069 1364.03 34.4069C1364.03 34.4069 1431.8 54.7397 1431.01 125.831C1430.23 196.922 1494.32 235.432 1494.32 235.432C1494.32 235.432 1529.65 339.105 1410.73 391.137C1291.8 443.17 1068.7 523.766 1068.7 523.766C1068.7 523.766 991.967 557.964 965.066 527.784C965.066 527.784 1039.45 535.329 1017.3 492.605C1017.3 492.605 991.183 468.304 975.356 489.274C959.529 510.244 980.893 445.325 997.505 445.13C1014.12 444.934 1015.68 399.662 1015.68 399.662C1015.68 399.662 1044.94 356.106 1071.05 357.772C1097.17 359.438 1146.22 340.183 1142.25 306.671C1138.28 273.158 1142.89 225.535 1161.26 218.725C1179.64 211.915 1101.92 230.19 1103.49 155.767C1103.49 155.767 1151.76 160.372 1141.47 133.425C1131.18 106.478 1143.62 27.7436 1165.87 28.5766C1188.12 29.4095 1211.88 29.4095 1219.77 29.4095V29.3604Z" fill="url(#paint1_linear_2495_8)"/>
<mask id="mask1_2495_8" style="mask-type:luminance" maskUnits="userSpaceOnUse" x="965" y="0" width="535" height="541">
<path d="M1219.77 29.3604C1219.77 29.3604 1269.07 -20.9081 1296.65 10.1055C1324.24 41.1192 1364.03 34.4069 1364.03 34.4069C1364.03 34.4069 1431.8 54.7397 1431.01 125.831C1430.23 196.922 1494.32 235.432 1494.32 235.432C1494.32 235.432 1529.65 339.105 1410.73 391.137C1291.8 443.17 1068.7 523.766 1068.7 523.766C1068.7 523.766 991.967 557.964 965.066 527.784C965.066 527.784 1039.45 535.329 1017.3 492.605C1017.3 492.605 991.183 468.304 975.356 489.274C959.529 510.244 980.893 445.325 997.505 445.13C1014.12 444.934 1015.68 399.662 1015.68 399.662C1015.68 399.662 1044.94 356.106 1071.05 357.772C1097.17 359.438 1146.22 340.183 1142.25 306.671C1138.28 273.158 1142.89 225.535 1161.26 218.725C1179.64 211.915 1101.92 230.19 1103.49 155.767C1103.49 155.767 1151.76 160.372 1141.47 133.425C1131.18 106.478 1143.62 27.7436 1165.87 28.5766C1188.12 29.4095 1211.88 29.4095 1219.77 29.4095V29.3604Z" fill="white"/>
</mask>
<g mask="url(#mask1_2495_8)">
<path d="M1175.62 302.849C1166.61 365.121 1100.8 382.318 1056.5 414.361C1039.74 426.462 1024.41 441.308 1014.21 459.485C1008.77 469.137 1004.95 479.475 1002.89 490.352C1001.87 495.643 996.28 540.375 985.646 529.939L979.178 554.486C1023.47 540.424 1058.36 509.655 1078.55 467.863C1086.83 450.666 1064.19 437.682 1053.17 453.018C1044.4 465.217 1035.68 477.417 1026.9 489.617L1052.29 504.462C1057.38 493.34 1061.35 479.818 1069 470.215C1076.64 460.612 1089.92 454.291 1100.26 447.971C1122.06 434.694 1144.7 422.984 1167.93 412.401L1150.09 389.324C1136.32 403.484 1121.87 416.517 1106.04 428.324C1091.14 439.397 1105.21 464.727 1120.89 453.703L1162.59 424.405L1142.5 404.317C1123.44 429.108 1101.92 451.499 1078.4 472.028C1065.76 483.051 1082.13 503.776 1096.24 495.104L1121.72 479.426C1135.25 471.097 1126.43 446.011 1110.4 452.577C1097.32 457.917 1084.58 461.837 1070.52 463.698L1077.91 491.086C1094.18 478.642 1111.04 467.863 1129.12 458.309C1145.98 449.441 1131.13 424.699 1114.27 432.93L1102.46 438.711L1120.3 461.788C1137.6 444.15 1156.85 431.852 1180.47 424.405L1161.85 410.245C1160.43 422.494 1157.49 431.901 1151.95 442.925C1143.33 460.073 1166.26 472.909 1177.34 457.77C1189.15 441.602 1202.77 428.079 1218.5 415.782L1193.41 405.395C1194.63 434.106 1180.72 457.329 1164.2 479.622L1191.06 490.939C1198.41 462.327 1212.22 438.564 1233.98 418.525L1208.89 408.138C1207.28 421.857 1201.1 433.567 1190.08 441.994L1211.69 458.603C1215.17 441.602 1222.07 428.667 1235.01 416.859L1210.46 402.553C1203.89 420.436 1192.77 433.42 1176.21 442.876L1197.82 459.485C1206.49 438.074 1220.21 421.171 1238.34 407.11L1215.26 389.275C1200.56 410.882 1182.68 428.912 1160.92 443.464L1181.01 448.755C1176.36 442.68 1188.21 423.033 1190.57 417.007C1197.48 399.368 1169.15 391.823 1162.2 409.167C1155.24 426.511 1145.83 440.671 1133.09 453.997L1157.64 468.304C1162.2 445.325 1170.28 424.748 1182.78 404.905L1157.39 390.059C1147.69 410.392 1136.37 429.647 1122.55 447.481L1147.1 461.788C1156.36 433.616 1168.27 406.914 1183.07 381.191L1157.69 366.346L1146.03 388.394C1137.06 405.395 1160.48 418.378 1171.41 403.239L1194.24 371.539L1166.85 364.141C1166.7 382.024 1163.67 397.997 1156.27 414.312C1148.87 430.627 1172.98 446.256 1181.65 429.157C1188.85 414.9 1196.1 400.642 1203.31 386.385L1176.45 375.067L1157.34 440.965C1152.49 457.77 1174.98 465.413 1184.2 452.283C1195.52 436.163 1206.84 420.093 1218.15 403.974L1191.3 392.656L1183.9 423.572C1180.03 439.887 1201.74 449.049 1210.76 434.89L1229.67 405.346L1202.82 394.028L1194.14 416.321C1188.56 430.725 1208.89 440.034 1218.69 430.627C1240.74 409.412 1261.18 378.889 1240.5 349.443L1227.81 371.539L1234.62 371.931L1220.46 353.313C1213.94 377.615 1207.91 402.063 1201.79 426.511C1197.52 443.366 1219.18 451.009 1228.64 437.829C1233.74 430.725 1238.88 423.572 1243.98 416.468L1216.59 409.069C1215.7 417.251 1214.87 425.483 1213.99 433.665H1243.39C1245.69 405.787 1236.87 380.995 1217.96 360.467C1211.34 353.264 1199.73 355.763 1194.88 363.455C1183.27 381.877 1171.65 400.348 1160.04 418.77C1152.4 430.921 1140.64 444.297 1138.19 458.75C1135 478.005 1154.55 496.427 1172.44 483.933C1187.82 473.154 1173.17 447.677 1157.59 458.554C1165.43 461.249 1170.53 459.485 1172.98 453.361L1180.42 441.504C1184.59 434.939 1188.7 428.324 1192.87 421.759C1201.98 407.257 1211.15 392.803 1220.26 378.301L1197.18 381.289C1210.95 396.282 1215.7 413.626 1213.99 433.714C1212.42 452.675 1241.43 452.283 1243.39 433.714C1244.27 425.532 1245.1 417.3 1245.99 409.118C1247.65 393.097 1226.09 391.235 1218.6 401.72C1213.5 408.824 1208.35 415.978 1203.26 423.082L1230.11 434.4C1236.28 410 1242.26 385.552 1248.78 361.201C1251.38 351.55 1244.08 343.171 1234.62 342.584L1227.81 342.192C1217.17 341.555 1208.84 355.371 1215.12 364.288C1227.37 381.73 1210.07 398.144 1197.92 409.853L1222.47 424.16L1231.14 401.867C1237.41 385.748 1212.86 377.125 1204.29 390.549L1185.37 420.093L1212.22 431.411L1219.62 400.495C1223.59 383.739 1202.23 375.704 1192.77 389.177L1158.81 437.486L1185.67 448.804L1204.78 382.906C1209.33 367.228 1185.57 356.498 1177.92 371.588L1156.27 414.361L1181.65 429.206C1191.15 408.187 1196.05 387.218 1196.25 364.19C1196.35 348.561 1176.94 345.572 1168.86 356.792L1146.03 388.492L1171.41 403.337L1183.07 381.289C1191.89 364.582 1167.14 349.982 1157.69 366.444C1141.66 394.371 1128.78 423.523 1118.78 454.095C1114.42 467.373 1134.22 480.21 1143.33 468.402C1158.72 448.51 1171.9 427.785 1182.73 405.052C1190.81 388.149 1167.59 374.038 1157.34 390.206C1143.53 412.058 1134.27 435.282 1129.22 460.612C1126.47 474.281 1142.99 486.138 1153.77 474.918C1170.08 457.917 1181.75 439.005 1190.42 417.153L1162.05 409.314C1154.26 429.108 1141.22 445.227 1155.43 463.747C1160.04 469.725 1168.27 473.889 1175.52 469.039C1201.54 451.597 1222.81 430.235 1240.4 404.317C1250.64 389.275 1229.33 377.223 1217.32 386.483C1194.88 403.827 1179.84 425.678 1169.2 451.842C1164.16 464.335 1180.57 474.232 1190.81 468.451C1214.19 455.124 1229.33 435.673 1238.59 410.588C1243.98 395.939 1224.03 387.169 1214.04 396.282C1197.77 411.127 1187.58 429.402 1183.17 451.009C1180.91 462.082 1193.6 476.045 1204.78 467.618C1224.97 452.283 1235.21 433.567 1238.15 408.383C1239.71 394.861 1221.49 390.206 1213.06 397.997C1187.77 421.269 1171.11 450.127 1162.59 483.394C1158.23 500.444 1179.88 507.598 1189.44 494.712C1209.14 468.108 1224.13 439.495 1222.66 405.64C1222.07 391.921 1207.42 387.561 1197.57 395.253C1179.84 409.118 1165.09 425.091 1151.81 443.219L1177.19 458.064C1184.98 442.533 1189.15 427.785 1191.11 410.588C1192.18 401.132 1180.86 393.783 1172.49 396.429C1144.21 405.346 1120.15 420.191 1099.38 441.357C1087.27 453.703 1102.51 471.587 1117.21 464.433L1129.02 458.652L1114.17 433.273C1096.04 442.827 1079.24 453.606 1062.97 466.05C1053.12 473.546 1054 495.594 1070.37 493.438C1086.73 491.282 1102.37 487.657 1118.05 481.238L1106.73 454.389L1081.25 470.068L1099.08 493.144C1124.61 470.852 1147.1 446.305 1167.78 419.456C1176.75 407.845 1159.26 391.186 1147.69 399.368C1133.78 409.118 1119.91 418.917 1105.99 428.667L1120.84 454.046C1138.68 440.72 1155.34 426.462 1170.87 410.49C1183.12 397.899 1167.73 380.75 1153.03 387.414C1125.89 399.76 1099.67 413.724 1074.53 429.794C1065.17 435.771 1052.68 441.651 1045.62 450.323C1037.39 460.465 1032.29 478.299 1026.9 490.058C1018.97 507.304 1041.21 520.336 1052.29 504.903C1061.06 492.703 1069.78 480.504 1078.55 468.304L1053.17 453.459C1036.26 488.49 1008.82 514.702 971.387 526.559C961.048 529.841 956.736 543.119 964.919 551.105C983.147 568.939 1009.41 562.031 1021.37 540.522C1029.26 526.363 1028.47 510.341 1031.95 495.006C1036.07 476.78 1046.7 461.935 1060.27 449.441C1110.4 403.386 1192.62 389.863 1203.99 311.08C1206.69 292.56 1178.37 284.574 1175.62 303.241V302.849Z" fill="#EFC06C"/>
<path d="M1375.84 208.975C1375.59 246.554 1402.79 273.991 1412.05 308.728C1420.23 339.399 1408.57 373.45 1383.68 392.95L1404.16 404.856C1415.04 356.155 1425.67 293.197 1382.65 256.059C1371.82 246.701 1357.66 258.215 1363.39 270.904C1376.13 299.125 1385.1 328.963 1390.69 359.438L1414.3 352.921C1407.93 321.908 1401.51 290.845 1395.14 259.832L1377.16 273.648C1399.6 290.502 1399.36 324.994 1399.9 350.031C1400.19 364.141 1419.55 366.297 1423.96 353.264L1431.21 331.805C1436.26 316.861 1412.64 310.394 1407.59 325.288L1400.34 346.748L1424.4 349.982C1423.61 314.265 1420.38 275.608 1389.56 252.433C1380.25 245.427 1369.66 256.941 1371.57 266.25C1377.94 297.263 1384.36 328.326 1390.73 359.34C1392.06 365.807 1399.75 369.58 1405.83 367.914C1412.69 366.052 1415.58 359.389 1414.4 352.823C1408.42 320.193 1398.28 288.689 1384.61 258.46L1365.35 273.305C1401.17 304.27 1389.56 358.213 1380.59 398.291C1377.75 411.029 1391.67 417.545 1401.07 410.196C1430.47 387.169 1443.51 347.189 1437.63 310.933C1434.64 292.413 1425.52 275.559 1416.95 259.097C1408.37 242.634 1400.29 227.152 1400.44 208.926C1400.53 193.15 1376.03 193.15 1375.94 208.926L1375.84 208.975Z" fill="#EFC06C"/>
<path d="M1099.96 172.768C1105.65 190.945 1128.83 194.717 1145.09 191.827C1163.08 188.593 1179.1 176.883 1187.92 160.911L1183.46 159C1180.33 170.367 1180.03 182.322 1176.6 193.639C1173.81 202.801 1168.27 212.747 1158.42 215.589C1148.57 218.431 1137.11 214.021 1128.92 208.24C1120.74 202.458 1114.42 194.031 1111.43 184.428L1107.31 186.829C1117.26 197.412 1131.72 203.193 1146.22 201.626C1148.67 201.332 1149.85 197.216 1146.86 196.824C1143.28 196.285 1139.66 195.795 1136.08 195.256C1132.99 194.815 1131.67 199.519 1134.76 199.96C1138.33 200.499 1141.96 200.989 1145.54 201.528L1146.17 196.726C1132.84 198.196 1119.86 193.149 1110.74 183.4C1109.08 181.636 1105.94 183.448 1106.63 185.8C1111.72 202.115 1125.35 215.344 1141.86 219.95C1150.63 222.399 1160.24 221.958 1167.68 216.422C1174.49 211.375 1178.61 203.487 1181.11 195.501C1184.69 184.085 1184.93 171.935 1188.12 160.421C1188.85 157.775 1184.98 156.06 1183.66 158.51C1175.82 172.719 1162.1 183.057 1146.27 186.682C1132.31 189.867 1109.72 187.858 1104.62 171.592C1103.69 168.603 1098.94 169.877 1099.92 172.915L1099.96 172.768Z" fill="#EFC06C"/>
<path d="M1129.81 189.475L1121.87 189.867C1115.5 190.161 1112.17 197.706 1116.67 202.41C1125.3 211.425 1137.7 218.676 1150.58 217.696C1163.47 216.716 1174.35 208.975 1179.15 196.922C1180.23 194.276 1178.61 190.749 1176.5 189.181C1174.15 187.417 1170.97 187.123 1168.32 188.593C1158.81 193.982 1148.23 197.167 1137.25 197.657L1140.98 211.376C1143.43 210.053 1145.83 208.681 1148.28 207.358C1150.73 206.035 1152.2 202.851 1151.81 200.058C1151.42 197.51 1149.41 194.325 1146.56 193.933C1144.21 193.64 1141.86 193.297 1139.51 193.003V207.162C1156.85 204.614 1172.93 195.893 1185.23 183.498C1191.89 176.736 1181.5 166.349 1174.84 173.111C1164.16 183.939 1150.63 190.749 1135.64 193.003C1128.68 194.031 1128.58 206.231 1135.64 207.162C1137.99 207.456 1140.34 207.799 1142.69 208.093L1140.93 194.668C1138.48 195.991 1136.08 197.363 1133.63 198.686C1127.36 202.165 1130 212.698 1137.35 212.404C1150.93 211.768 1164.01 208.044 1175.82 201.332L1165.04 193.052C1162.69 198.98 1155.34 203.047 1149.01 203.096C1140.73 203.193 1133.04 198.294 1127.11 192.072L1121.92 204.614L1129.85 204.222C1133.82 204.026 1137.21 200.989 1137.21 196.873C1137.21 193.052 1133.82 189.328 1129.85 189.524L1129.81 189.475Z" fill="#EFC06C"/>
<path d="M1221.78 31.2221L1226.63 23.9218C1227.32 22.844 1226.88 21.1782 1225.75 20.5902C1224.52 19.9533 1223.15 20.3452 1222.42 21.4721L1217.57 28.7723C1216.88 29.8502 1217.32 31.516 1218.45 32.104C1219.67 32.7409 1221.05 32.349 1221.78 31.2221Z" fill="#EFC06C"/>
<path d="M1207.82 70.9568C1200.71 63.7056 1190.47 54.8375 1179.69 60.4229C1169.59 65.6653 1170.28 80.7557 1169.99 90.3587C1169.25 115.738 1172.34 142.734 1160.48 166.202C1155.19 176.589 1147.1 185.947 1135.83 189.818C1133.43 190.651 1133.58 194.962 1136.47 194.619C1154.06 192.464 1169.25 182.175 1180.23 168.554C1192.72 153.023 1199.48 134.013 1203.4 114.66C1205.81 102.754 1207.23 90.7016 1208.4 78.6489L1204.73 80.7557C1206.05 81.4416 1207.42 82.1276 1208.75 82.8135C1211.15 84.0383 1213.74 81.0007 1211.74 78.9429C1205.32 72.6226 1197.38 68.1641 1188.51 66.4003C1185.42 65.7633 1184.1 70.5158 1187.19 71.1037C1195.27 72.7206 1202.42 76.5911 1208.26 82.3725L1211.25 78.502C1209.92 77.816 1208.55 77.1301 1207.23 76.4442C1205.46 75.5622 1203.75 76.6891 1203.55 78.5509C1199.97 114.464 1193.6 156.404 1162.1 179.137C1154.5 184.575 1145.83 188.495 1136.52 189.622L1137.16 194.423C1156.17 187.809 1167 168.701 1171.46 150.083C1174.35 137.884 1174.69 125.194 1174.74 112.7C1174.74 106.184 1174.74 99.7167 1174.84 93.2004C1174.94 86.6841 1174.94 80.5597 1176.16 74.4844C1177.39 68.4091 1181.06 62.8726 1188.17 63.6076C1194.88 64.2935 1199.93 69.7319 1204.43 74.2884C1206.64 76.5422 1210.12 73.0635 1207.91 70.8098L1207.82 70.9568Z" fill="#EFC06C"/>
<path d="M1181.6 69.4869V77.375C1184.83 76.9341 1188.07 76.4932 1191.25 76.0522L1190.62 71.8387C1190.32 69.8299 1187.87 68.164 1185.91 68.262C1185.03 68.262 1184.2 68.507 1183.46 68.9479C1182.53 69.4379 1181.4 70.8097 1181.21 71.8876C1180.96 73.5044 1180.72 75.1213 1180.42 76.7381L1187.63 73.7984C1186.84 73.2105 1188.41 74.5823 1187.72 73.8474C1187.58 73.6514 1187.38 73.5045 1187.23 73.3575C1186.7 72.7695 1187.23 73.2595 1187.38 73.5535C1187.28 73.3085 1187.04 73.0635 1186.89 72.8185C1186.79 72.6226 1186.7 72.3776 1186.55 72.1816C1186.25 71.6427 1186.89 73.2595 1186.65 72.4266C1186.55 72.1326 1186.45 71.8876 1186.4 71.5937C1186.3 71.2507 1186.21 70.2708 1186.4 71.7406C1186.16 69.7319 1185.32 68.0661 1183.41 67.2821C1181.6 66.5472 1179.44 66.8902 1178.07 68.311C1177.48 68.899 1176.9 69.4869 1176.31 70.0748L1184.49 74.8273C1184.49 74.5334 1184.93 73.4065 1184.59 74.1904C1184.25 75.0723 1184.69 74.2394 1184.69 74.1414C1184.69 74.2884 1183.9 74.9743 1184.39 74.5333C1184.54 74.3864 1184.74 74.2394 1184.83 74.0924C1185.13 73.7494 1184 74.5823 1184.44 74.3864C1184.64 74.3374 1184.83 74.1904 1184.98 74.0924C1185.57 73.7494 1184.54 74.2394 1184.49 74.2884C1184.64 74.1414 1186.06 73.9454 1185.03 74.0924C1184 74.2394 1185.47 74.1904 1185.67 74.0924C1184.93 73.9944 1184.78 73.9454 1185.13 74.0434C1185.23 74.0434 1185.32 74.0434 1185.42 74.0924C1185.67 74.1414 1185.91 74.2394 1186.16 74.2884C1186.35 74.3374 1186.55 74.4844 1186.74 74.4844C1186.35 74.4844 1185.86 74.0924 1186.6 74.4844C1188.36 75.3663 1189.88 76.5911 1191.45 77.767C1193.31 79.1879 1195.22 80.2657 1197.48 81.0986C1199.44 81.7846 1202.03 80.6577 1203.01 78.8449C1204.09 76.7871 1203.7 74.6313 1202.23 72.9165C1201.1 71.5936 1199.97 70.2708 1198.9 68.9479C1197.23 66.9882 1193.65 67.1351 1191.99 68.9479C1190.08 71.0547 1190.22 73.7984 1191.99 75.8562C1193.11 77.1791 1194.24 78.5019 1195.32 79.8248L1200.07 71.6427C1199.04 71.2507 1201.05 72.1816 1200.07 71.6427C1199.83 71.4957 1199.58 71.3977 1199.39 71.2997C1198.85 71.0057 1198.36 70.7118 1197.87 70.3688C1196.99 69.7809 1196.1 69.0949 1195.27 68.458C1193.16 66.8902 1190.91 65.4203 1188.36 64.7834C1185.47 64.0485 1182.53 64.3424 1179.88 65.7633C1177.48 67.0371 1175.43 69.5359 1174.98 72.2796C1174.64 74.3864 1175.18 76.7381 1177.24 77.816C1179.15 78.8449 1181.6 78.6489 1183.17 77.0321C1183.76 76.4441 1184.34 75.8562 1184.93 75.2683L1176.55 71.7896C1176.8 73.9454 1177.24 75.9052 1178.37 77.816C1179.49 79.7268 1180.86 81.0496 1182.58 82.2745C1184.98 83.9893 1189.29 82.3235 1189.78 79.3348C1190.03 77.718 1190.27 76.1012 1190.57 74.4844H1181.11L1181.75 78.6979C1181.89 79.7758 1183.07 81.1476 1184 81.6376C1184.98 82.1765 1186.01 82.3725 1187.14 82.2255C1189.49 81.8825 1191.4 79.8738 1191.4 77.424V69.5359C1191.4 66.9882 1189.1 64.5384 1186.45 64.6364C1183.8 64.7344 1181.55 66.7922 1181.55 69.5359L1181.6 69.4869Z" fill="#EFC06C"/>
<path d="M1206.2 77.081L1208.94 80.0206C1208.94 80.0206 1209.43 80.4126 1209.73 80.5106C1210.02 80.6576 1210.31 80.7555 1210.66 80.7066C1211 80.7066 1211.29 80.6576 1211.59 80.5106C1211.88 80.4126 1212.18 80.2656 1212.37 80.0206C1212.81 79.5307 1213.11 78.9428 1213.11 78.3058L1213.01 77.6689C1212.91 77.2769 1212.67 76.8849 1212.37 76.591L1209.63 73.6513C1209.63 73.6513 1209.14 73.2594 1208.84 73.1614C1208.55 73.0144 1208.26 72.9164 1207.91 72.9654C1207.57 72.9654 1207.28 73.0144 1206.98 73.1614C1206.69 73.2594 1206.39 73.4063 1206.2 73.6513C1205.76 74.1413 1205.46 74.7292 1205.46 75.3661L1205.56 76.0031C1205.66 76.395 1205.9 76.787 1206.2 77.081Z" fill="#EFC06C"/>
<path d="M1197.97 67.478L1191.2 62.9704L1187.43 71.9365C1192.92 73.9452 1191.84 82.7643 1190.52 86.9778C1188.17 94.278 1184 100.696 1182.87 108.389C1181.99 114.464 1190.81 117.306 1192.33 110.985C1193.85 104.665 1195.22 99.0305 1196.69 93.0042H1187.23C1187.97 96.3358 1188.75 99.6675 1189.49 102.999C1190.66 108.144 1197.33 107.164 1198.95 102.999C1200.56 98.8346 1202.18 94.523 1203.8 90.2605H1194.34C1194.54 91.5343 1194.73 92.8082 1194.98 94.1311C1195.91 99.9124 1204.19 97.9527 1204.58 92.8082C1204.78 90.3095 1205.02 87.8108 1205.22 85.312C1205.66 79.7756 1196.89 78.6977 1195.61 83.9892L1192.87 95.5029L1202.47 96.8258C1202.62 92.0243 1201.59 87.8107 1199.63 83.4502C1198.55 81.0985 1194.98 80.4125 1192.92 81.6864C1187.87 84.8711 1183.9 88.8886 1180.77 93.9841L1189.88 96.4338L1189.44 82.6173C1189.29 78.1588 1182.38 75.4151 1180.33 80.1676C1178.07 85.263 1176.85 90.3585 1176.7 95.9439H1186.5V85.802C1186.5 80.3636 1178.17 79.0407 1176.85 84.4791L1175.43 90.5055H1184.88C1183.51 86.3409 1182.19 82.1763 1180.82 78.0118L1172.63 82.7643C1175.13 85.704 1177.58 88.6437 1180.08 91.6324C1181.7 93.5921 1185.37 93.4942 1186.99 91.6324C1191.11 86.9289 1196.2 84.8711 1202.42 85.508L1197.52 80.6085C1197.13 119.216 1181.01 156.893 1152.25 182.909L1159.16 189.818C1181.75 163.606 1183.12 128.133 1183.66 95.258H1173.86C1174.69 106.772 1175.47 118.285 1176.31 129.75C1176.6 134.013 1183.36 137.099 1185.42 132.2C1186.94 128.623 1188.46 125.096 1189.93 121.519L1180.96 120.343C1182.09 125.635 1181.99 130.583 1180.77 135.826L1190.37 137.148C1190.81 132.935 1191.3 128.721 1191.74 124.557C1192.33 119.461 1184.98 118.285 1182.63 122.107L1179.39 127.3L1188.36 131.073L1193.07 116.767L1183.46 115.444L1182.38 129.603C1181.94 135.434 1190.22 135.777 1191.99 130.926L1195.86 120.147C1197.72 114.954 1189.29 111.328 1186.89 116.375L1178.56 133.915L1187.53 137.687L1192.82 118.383C1194.49 112.308 1185.08 109.711 1183.36 115.787L1177.34 137.05L1186.79 139.647C1188.17 133.964 1189.34 128.133 1190.91 122.499C1192.48 116.865 1195.96 111.524 1198.8 106.233L1189.83 102.46C1186.3 120.147 1180.28 137.05 1171.65 152.876C1168.61 158.461 1176.65 163.067 1180.13 157.824C1181.16 156.256 1182.19 154.738 1183.22 153.17L1174.25 151.994L1174.4 152.778L1174.89 149.005L1174.45 149.74L1177.39 147.486L1176.65 147.682L1181.4 148.956L1180.82 148.417L1182.24 151.896L1181.94 152.876C1185.62 147.731 1177.14 142.881 1173.47 147.927C1171.02 151.357 1172.98 156.599 1177.24 157.236C1182.04 157.971 1184.34 153.415 1183.66 149.397C1182.92 144.89 1176.8 145.086 1174.69 148.221C1173.66 149.789 1172.63 151.308 1171.6 152.876L1180.08 157.824C1189.1 141.264 1195.56 123.577 1199.24 105.057C1200.27 99.8635 1193.07 96.1398 1190.27 101.284C1187.48 106.429 1183.61 111.916 1181.94 117.6C1180.08 123.969 1178.86 130.583 1177.29 137.05C1175.72 143.518 1185.03 145.722 1186.74 139.647L1192.77 118.383L1183.31 115.787L1178.02 135.091C1176.6 140.284 1184.54 144.008 1186.99 138.863L1195.32 121.323L1186.35 117.551L1182.48 128.329L1192.09 129.652L1193.16 115.493C1193.6 109.76 1185.18 109.172 1183.56 114.17L1178.86 128.476C1177.09 133.866 1184.93 136.854 1187.82 132.249L1191.06 127.056L1181.94 124.606C1181.5 128.819 1181.01 133.033 1180.57 137.197C1179.98 142.734 1188.95 143.812 1190.17 138.52C1191.84 131.563 1191.89 124.802 1190.37 117.845C1189.54 114.023 1183.07 112.749 1181.4 116.669C1179.88 120.245 1178.37 123.773 1176.9 127.349L1186.01 129.799C1185.18 118.285 1184.39 106.772 1183.56 95.307C1183.12 89.0846 1173.86 88.9376 1173.76 95.307C1173.27 125.243 1172.78 158.951 1152.1 182.958C1147.99 187.711 1154.31 194.129 1159.01 189.867C1189.64 162.234 1206.74 121.715 1207.18 80.6575C1207.18 77.8158 1204.87 76.052 1202.28 75.758C1193.65 74.8271 1185.62 78.2568 1179.93 84.7241H1186.84C1184.34 81.7844 1181.89 78.8447 1179.39 75.8561C1176.21 72.0835 1169.74 76.101 1171.21 80.6085C1172.58 84.7731 1173.91 88.9376 1175.28 93.1022C1176.7 97.5117 1183.56 98.0506 1184.74 93.1022L1186.16 87.0758L1176.55 85.753V95.8949C1176.55 102.215 1186.25 102.215 1186.35 95.8949C1186.45 92.0733 1187.09 88.5457 1188.61 85.067L1179.49 82.6173L1179.93 96.4338C1180.08 101.284 1186.5 103.097 1189.05 98.8835C1191.3 95.2089 1194.05 92.4162 1197.72 90.1135L1191.01 88.3497C1192.23 91.1424 1192.58 93.7881 1192.48 96.7768C1192.33 102.264 1200.81 103.489 1202.08 98.0997L1204.83 86.5859L1195.22 85.263C1195.03 87.7618 1194.78 90.2605 1194.58 92.7592L1204.19 91.4364C1203.99 90.1625 1203.8 88.8886 1203.55 87.5658C1202.72 82.2744 1195.61 83.5972 1194.09 87.5658C1192.48 91.8283 1190.86 96.0419 1189.24 100.304H1198.7C1197.97 96.9728 1197.18 93.6411 1196.45 90.3095C1195.37 85.606 1188.12 85.704 1186.99 90.3095C1185.52 96.2868 1184.1 102.264 1182.63 108.291L1192.09 110.887C1193.6 100.402 1201.1 91.6323 1201.1 80.8045C1201.1 72.7204 1197.67 65.2242 1189.78 62.3825C1184.34 60.4227 1181.6 68.4088 1186.01 71.3485L1192.77 75.8561C1198.06 79.3347 1202.96 70.8586 1197.72 67.38L1197.97 67.478Z" fill="#EFC06C"/>
<path d="M1231.38 68.9968C1232.07 59.8348 1240.79 53.4655 1249.66 54.1514C1259.36 54.8864 1267.45 61.9906 1273.08 69.3888C1283.86 83.5483 1291.12 100.451 1300.97 115.297C1310.81 130.142 1321.3 143.42 1334.58 154.444C1340.61 159.49 1347.17 163.606 1353.79 167.77C1360.4 171.935 1368.1 176.834 1369.08 185.065L1377.45 181.587C1354.87 159.196 1322.18 158.461 1294.11 147.241C1277.64 140.676 1265.24 129.064 1254.66 115.101C1249.37 108.144 1244.22 100.941 1239.57 93.4942C1234.57 85.508 1230.7 75.6601 1236.82 67.233H1228.35C1229.87 70.6626 1230.31 74.1903 1229.77 77.9139L1239.37 79.2367C1239.86 77.0319 1238.69 75.9051 1235.79 75.9051C1236.58 81.2945 1246.08 80.0696 1245.4 74.5822C1244.91 70.7116 1245.59 67.8209 1248.49 65.0772L1240.79 64.0974L1240.89 64.7343L1249.86 68.5069L1250.84 63.4114C1252.06 57.2381 1242.61 54.5924 1241.38 60.8147L1240.4 65.9102C1239.42 70.9566 1247.02 75.1212 1249.37 69.6828C1250.98 65.9102 1251.03 62.9215 1249.27 59.1979C1247.9 56.2582 1243.68 56.1602 1241.58 58.218C1237.07 62.5785 1234.86 68.4089 1235.65 74.6802L1245.25 73.3574C1244.66 69.0458 1239.96 66.4001 1235.79 67.576C1230.65 69.0458 1229.57 74.6802 1229.57 79.2857C1229.57 84.5771 1238.39 86.194 1239.18 80.6086C1240.11 74.0433 1239.37 68.4579 1236.73 62.3826C1235.11 58.659 1230.16 59.7858 1228.25 62.3826C1216.34 78.8448 1230.01 97.4627 1239.52 111.083C1250 126.027 1261.52 140.872 1277.54 150.181C1306.6 167.133 1345.6 163.998 1370.4 188.544C1373.14 191.288 1379.27 189.475 1378.78 185.065C1377.11 170.563 1365.16 163.361 1353.74 156.256C1339.09 147.192 1327.03 134.797 1316.79 121.029C1306.55 107.262 1298.17 92.2203 1289.65 77.2769C1281.76 63.5094 1271.22 48.664 1254.71 45.0384C1238.2 41.4128 1222.66 52.2406 1221.49 68.9478C1221.05 75.2191 1230.85 75.2191 1231.29 68.9478L1231.38 68.9968Z" fill="#EFC06C"/>
<path d="M1237.12 55.2787L1234.52 59.9332C1230.45 67.1844 1240.06 74.8276 1246.08 68.8502C1260.39 54.6418 1289.3 114.954 1294.45 123.626C1307.09 144.939 1324.09 166.399 1349.33 172.523L1351.29 158.07C1299.94 158.658 1257.75 121.52 1245.35 72.7698L1231.92 78.4532C1247.85 102.412 1263.77 126.37 1279.7 150.279C1284.89 158.119 1297.54 150.916 1292.39 142.881C1277.98 120.344 1266.03 96.4342 1256.77 71.3489L1243.34 77.0324C1259.31 98.3451 1273.67 120.785 1286.36 144.204L1299.05 136.806C1285.73 114.807 1272.4 92.8087 1259.02 70.81L1247.46 79.7271C1261.81 95.4054 1273.77 112.945 1283.37 131.955C1287.64 140.431 1300.23 132.984 1296.07 124.557C1288.62 109.369 1280.24 94.7195 1270.88 80.609L1259.31 89.526C1274.11 107.507 1286.95 126.909 1297.98 147.438L1309.54 138.521C1304.25 133.033 1299.35 126.027 1292.14 123.234C1284.26 120.148 1276.07 117.796 1267.79 116.179C1251.62 112.994 1235.16 112.358 1218.79 114.464C1210.41 115.542 1208.99 125.635 1216.83 128.918L1227.56 133.376L1224.33 121.079C1221.88 123.185 1219.33 124.116 1216.19 124.655C1208.06 126.125 1209.92 139.452 1218.15 139.109L1227.17 138.717L1225.21 124.263L1215.95 126.958C1206.88 129.604 1210.66 143.322 1219.87 141.117L1230.36 138.619C1236.19 137.247 1237.9 127.889 1232.12 125.194C1228.79 123.626 1226.58 121.618 1225.36 118.041L1223.45 125.194C1224.08 124.704 1224.77 124.557 1225.5 124.9L1223.74 111.476C1218.2 115.395 1212.18 117.159 1205.46 115.689V129.849C1210.36 127.987 1214.68 127.448 1219.87 128.085L1213.5 117.012C1211.54 120.589 1209.09 121.814 1205.07 121.422L1210.27 133.964C1212.23 132.151 1213.94 131.808 1216.54 131.955L1212.81 118.237C1211.2 119.413 1209.73 120.344 1207.72 119.413L1209.19 130.976C1211.74 128.379 1214.14 128.281 1217.42 129.604L1215.66 116.179L1211.74 118.727L1220.65 119.854C1218.5 117.6 1220.11 115.983 1222.86 116.326C1231.04 117.404 1232.9 103.44 1224.82 101.873C1222.61 101.481 1222.42 100.942 1222.03 98.786L1220.11 105.939L1223.69 102.461L1218.5 104.616C1219.38 104.763 1220.11 105.155 1220.65 105.841L1225.06 95.0624C1223.25 95.4054 1221.73 95.0624 1220.11 94.1805L1223.74 100.55L1224.03 96.6302L1220.41 103C1220.8 102.951 1221.19 103.098 1221.49 103.44L1219.58 96.2873L1218.69 100.844L1223.84 95.6993L1208.26 99.227L1215.41 111.525C1215.41 111.525 1214.33 111.084 1214.23 110.839L1221.34 101.53C1218.94 101.236 1217.13 99.8149 1215.51 98.1981L1214.04 109.761C1216.49 108.193 1219.67 108.046 1221.58 110.692L1227.95 99.6189L1223.15 99.5209V114.219C1222.81 112.994 1222.71 113.043 1222.86 114.415C1223.2 116.914 1225.8 118.825 1228 119.56C1234.03 121.52 1239.96 122.793 1244.22 116.767C1247.16 112.554 1247.41 106.674 1244.22 102.559C1235.65 91.4858 1220.11 105.449 1226.53 116.522C1231.29 124.704 1243.98 117.306 1239.22 109.124L1239.13 112.015C1231.73 110.741 1229.96 109.222 1233.79 107.458C1235.7 106.821 1235.94 106.38 1234.52 106.184L1231.97 105.351L1237.12 110.496C1236.24 103.93 1229.87 98.737 1223.2 99.5209C1214.04 100.599 1213.5 113.974 1223.2 114.219L1228 114.317C1233.25 114.464 1237.66 107.85 1234.37 103.245C1227.95 94.3275 1216.39 90.8979 1206.74 97.0222C1202.77 99.5209 1201.79 105.106 1205.27 108.585C1209.92 113.19 1215.07 115.395 1221.49 116.228C1226.14 116.816 1229.96 111.035 1228.59 106.919C1225.26 97.0712 1212.71 93.0046 1205.17 101.089C1200.12 106.576 1205.12 115.003 1212.32 113.386L1227.91 109.859C1230.21 109.32 1232.61 107.115 1233.05 104.714C1234.32 98.1491 1234.57 93.4456 1228 90.016C1223.1 87.4682 1218.01 88.1051 1213.16 90.2609C1210.75 91.3388 1209.68 94.2295 1209.53 96.6302L1209.24 100.55C1209.04 103 1210.76 105.792 1212.86 106.919C1218.2 109.712 1223.25 110.349 1229.13 109.271C1233.44 108.487 1236.28 102.069 1233.54 98.492C1227.32 90.4079 1217.17 86.4883 1209.92 95.6014C1203.5 103.636 1212.81 114.562 1221.09 116.13L1223.05 101.677C1206.88 99.5699 1200.17 119.707 1210.46 130.29C1212.62 132.543 1216.68 133.18 1219.38 131.416L1223.3 128.869C1228.98 125.145 1227.32 117.796 1221.54 115.444C1213.6 112.211 1204.87 114.611 1198.99 120.589C1195.91 123.724 1196.15 130.045 1200.46 132.151C1207.08 135.336 1214.28 135.434 1220.41 130.976C1226.53 126.517 1224.28 117.698 1216.68 117.257C1210.22 116.865 1204.73 119.266 1199.97 123.577C1194.88 128.281 1199.29 135.532 1205.17 136.12C1213.99 137.002 1222.07 132.102 1226.29 124.41C1229.18 119.119 1225.41 114.023 1219.92 113.337C1213.65 112.602 1207.47 113.337 1201.59 115.64C1195.42 117.992 1193.85 128.134 1201.59 129.8C1212.03 132.053 1222.42 130.29 1231.19 124.116C1235.94 120.736 1236.09 112.162 1229.42 110.692C1222.76 109.222 1218.06 110.79 1213.11 114.807C1211.2 116.326 1210.46 119.707 1211.2 121.96C1213.55 128.918 1217.91 134.699 1224.72 137.884L1226.48 124.459L1216 126.958L1219.92 141.117L1229.18 138.423C1236.92 136.169 1235.75 123.626 1227.22 123.969L1218.2 124.361L1220.16 138.815C1225.8 137.786 1230.5 135.14 1234.81 131.416C1239.47 127.399 1236.19 121.079 1231.58 119.119L1220.85 114.66L1218.89 129.114C1233.54 127.252 1248.39 127.35 1262.89 130.094C1269.75 131.416 1276.51 133.18 1283.13 135.483C1286.75 136.757 1288.32 137.541 1290.92 140.236L1299.25 148.908C1305.18 155.032 1314.69 147.242 1310.81 139.991C1299.2 118.384 1285.43 98.0511 1269.85 79.1391C1264.56 72.7208 1253.68 81.0989 1258.29 88.0562C1267.64 102.167 1276.02 116.816 1283.47 132.004L1296.16 124.606C1286.02 104.518 1273.13 85.9984 1257.94 69.4382C1252.31 63.2648 1242.07 71.251 1246.38 78.3552L1286.41 144.351C1291.31 152.435 1303.61 145.282 1299.1 136.953C1286.41 113.533 1272.05 91.0938 1256.08 69.7811C1251.57 63.7548 1239.47 66.8905 1242.65 75.4645C1252.36 101.726 1264.7 126.909 1279.8 150.524L1292.49 143.126C1276.56 119.168 1260.64 95.2094 1244.71 71.3C1240.16 64.4897 1229.18 68.6542 1231.29 76.9833C1245.25 131.955 1293.66 173.699 1351.39 173.062C1359.52 172.964 1361.58 160.617 1353.35 158.609C1324.63 151.602 1310.18 121.765 1296.9 98.2471C1289.65 85.4105 1281.85 71.7409 1270.98 61.599C1261.18 52.486 1246.38 48.3214 1235.84 58.8063L1247.41 67.7234L1250 63.0689C1254.66 54.8378 1241.97 47.3906 1237.31 55.6707L1237.12 55.2787Z" fill="#EFC06C"/>
<path d="M1218.35 107.164C1212.42 105.498 1205.95 107.948 1202.03 112.602C1198.46 116.865 1196.84 122.058 1195.61 127.399L1210.07 129.358C1210.07 127.791 1210.17 126.174 1210.22 124.606C1210.26 122.842 1209.38 120.637 1208.06 119.413C1206.54 117.992 1204.92 117.502 1202.87 117.257C1199.58 116.865 1195.86 117.894 1193.21 119.853L1203.99 128.134C1204.14 127.742 1204.34 127.301 1204.43 126.909C1203.85 128.771 1204.14 127.595 1204.43 127.056C1204.78 126.321 1205.17 125.635 1205.61 124.949C1205.81 124.655 1206 124.361 1206.2 124.018C1207.03 122.744 1205.07 125.292 1206.1 124.116C1206.69 123.479 1207.28 122.842 1207.86 122.205L1195.56 115.052L1188.36 139.255C1187.28 142.93 1189.68 147.438 1193.51 148.319C1197.33 149.201 1201.35 147.144 1202.57 143.175L1209.78 118.972C1210.66 115.983 1209.19 112.161 1206.39 110.692C1203.6 109.222 1199.93 109.516 1197.48 111.818C1193.9 115.297 1191.4 119.56 1189.78 124.214C1188.8 126.958 1190.22 130.24 1192.43 131.955C1194.63 133.67 1198.26 134.258 1200.61 132.543C1200.95 132.298 1201.35 132.102 1201.69 131.857C1200.02 132.347 1202.82 131.073 1201.69 131.857C1201.89 131.808 1202.08 131.759 1202.33 131.71C1201.15 131.857 1200.81 131.906 1201.4 131.857C1201.89 131.857 1202.38 131.857 1202.87 131.906L1195.52 124.557C1195.52 126.125 1195.42 127.742 1195.37 129.309C1195.27 132.984 1198.26 136.071 1201.74 136.512C1205.22 136.953 1208.99 134.846 1209.82 131.269C1210.22 129.505 1210.66 127.742 1211.2 125.978C1211.34 125.537 1211.49 125.145 1211.64 124.704C1212.13 123.185 1210.9 126.223 1211.59 124.802C1211.98 124.018 1212.42 123.234 1212.86 122.499C1213.6 121.323 1211.74 123.626 1212.72 122.646C1213.01 122.352 1213.3 122.058 1213.6 121.764C1214.48 120.784 1212.18 122.597 1213.4 121.911C1213.74 121.715 1214.09 121.519 1214.43 121.274C1215.51 120.588 1212.81 121.715 1214.14 121.421C1214.43 121.372 1215.61 121.127 1214.28 121.274C1212.86 121.421 1214.33 121.323 1214.68 121.274C1215.26 121.274 1214.92 121.274 1213.7 121.127C1213.94 121.127 1214.23 121.225 1214.48 121.323C1218.2 122.352 1222.66 120.049 1223.54 116.179C1224.43 112.308 1222.37 108.242 1218.4 107.115L1218.35 107.164Z" fill="#EFC06C"/>
<path d="M1421.65 197.608C1425.08 223.918 1445.47 241.899 1461.05 261.693C1478.15 283.398 1486.87 310.394 1486.43 338.027C1486.19 353.558 1483.05 368.992 1476.78 383.249C1475.51 386.091 1479.77 388.589 1480.99 385.699C1492.07 360.418 1494.13 331.756 1487.56 305.054C1484.33 291.825 1478.89 278.988 1471.34 267.622C1463.79 256.255 1454.88 246.995 1446.5 236.804C1437.14 225.388 1428.51 212.65 1426.55 197.657C1426.16 194.57 1421.26 194.521 1421.65 197.657V197.608Z" fill="#EFC06C"/>
</g>
<path d="M725.992 2093.02L702.815 2121.34L692.28 2162.74C692.28 2162.74 734.372 2277.34 848.641 2261.46C848.641 2261.46 892.251 2249.51 886.224 2218.1C880.197 2186.7 853.149 2129.03 853.149 2129.03L771.955 2111.59L725.943 2093.02H725.992Z" fill="#5D4E34"/>
<path d="M1452.62 2151.66L1443.12 2161.27V2176.6C1443.12 2176.6 1672.29 2225.3 1718.3 2217.22C1764.31 2209.13 1784.26 2203.3 1784.26 2203.3C1784.26 2203.3 1781.27 2180.72 1763.29 2182.48C1745.3 2184.25 1613.69 2177.09 1613.69 2177.09L1452.62 2151.66Z" fill="#5D4E34"/>
<path d="M1181.11 158.755L1169.84 205.055C1169.84 205.055 1171.6 232.345 1165.09 241.703C1158.57 251.061 1187.58 366.395 1187.58 366.395C1187.58 366.395 1224.28 372.666 1241.48 372.666C1258.68 372.666 1232.61 437.878 1232.61 437.878C1232.61 437.878 1165.09 476.192 1149.7 476.192C1134.31 476.192 1071.4 440.671 1001.47 565.019C1001.47 565.019 900.826 604.999 881.226 647.918L850.454 677.511H802.923L618.387 837.381L544.298 869.962L493.681 928.658L469.278 949.677L462.957 992.057L495.543 960.897L500.59 956.242L561.693 943.259C566.152 942.573 569.583 947.472 567.574 951.784L556.45 976.134L537.781 996.614L521.66 1012.83L574.238 999.7C588.693 996.075 601.433 987.158 610.253 974.517L658.421 905.288C658.421 905.288 843.79 852.814 855.207 839.88C866.624 826.945 913.959 768.788 913.959 768.788C913.959 768.788 1083.3 728.417 1097.02 704.164C1110.74 679.912 1132.11 780.89 1132.11 780.89L1161.12 836.597C1161.12 836.597 1175.23 888.335 1184.39 909.207C1193.56 930.079 1133.19 1011.85 1133.19 1011.85C1133.19 1011.85 1095.26 1068.1 1087.08 1092.4C1078.89 1116.7 1004.36 1252.17 1004.36 1270.4C1004.36 1288.62 977.61 1472.65 977.61 1472.65L880.197 1575.78C880.197 1575.78 815.271 1670.83 811.449 1697.14C807.627 1723.45 773.229 1893.31 773.229 1893.31L761.273 2008.16L735.547 2072.83C735.547 2072.83 701.198 2140.98 706.196 2158.38C721.533 2211.83 766.565 2231.33 835.656 2245.98C856.53 2250.39 875.542 2255.73 865.301 2184.29C865.301 2184.29 848.298 2036.23 850.307 2018.1C852.316 1999.98 899.552 1875.87 919.153 1862.89C938.753 1849.91 1004.81 1724.33 1004.81 1724.33L1031.76 1595.97L1070.91 1554.52C1070.91 1554.52 1119.86 1526 1134.56 1502.68C1149.26 1479.36 1280.34 1297.93 1280.34 1297.93L1345.07 1526L1389.12 1634.87L1376.87 1777.44L1457.67 2028.83C1457.67 2028.83 1443.12 2153.28 1457.67 2167.34C1472.22 2181.4 1697.38 2208.5 1721.98 2203.94C1746.58 2199.38 1773.09 2183.36 1773.09 2177.39C1773.09 2171.41 1563.07 2023.1 1563.07 2023.1C1563.07 2023.1 1530.92 1944.96 1534.7 1904.88C1538.47 1864.8 1551.75 1736.58 1551.75 1736.58L1519.61 1598.37L1515.83 1468.14L1529.06 1243.74C1529.06 1243.74 1502.55 1085.49 1495.01 1067.46C1487.46 1049.43 1494.13 987.354 1494.13 987.354L1486.82 933.558L1557.29 765.31L1563.22 748.897C1563.22 748.897 1597.76 822.046 1608.84 830.816C1619.91 839.586 1628.19 898.134 1628.19 898.134C1628.19 898.134 1702.82 1060.55 1748.44 1104.45C1748.44 1104.45 1759.51 1133.7 1745.69 1163C1731.88 1192.25 1715.31 1262.51 1715.31 1262.51C1715.31 1262.51 1734.67 1275.69 1738.79 1263.98C1742.9 1252.27 1773.18 1218.61 1773.18 1218.61C1773.18 1218.61 1820.32 1277.16 1820.32 1290.29C1820.32 1303.42 1791.31 1318.07 1791.31 1318.07L1784.4 1351.73L1820.32 1329.78V1376.62C1820.32 1391.27 1834.14 1391.27 1834.14 1391.27L1867.31 1325.42L1876.97 1282.99V1220.08C1876.97 1220.08 1824.44 1130.81 1821.69 1117.68C1818.95 1104.55 1769.17 889.413 1765.05 876.234C1760.93 863.054 1709.78 808.915 1709.78 808.915C1709.78 808.915 1700.12 709.407 1694.59 691.867C1689.05 674.327 1655.88 612.838 1655.88 612.838C1655.88 612.838 1654.5 539.689 1646.22 517.74C1637.94 495.79 1590.95 459.191 1590.95 459.191L1427.88 415.292C1427.88 415.292 1389.17 365.562 1390.59 347.973C1390.59 347.973 1369.86 289.767 1369.86 267.671C1369.86 267.671 1379.17 269.728 1387.7 257.333C1396.22 244.937 1396.22 188.201 1394.36 186.976C1392.5 185.751 1380.4 176.344 1373.68 180.705C1366.97 185.065 1359.72 201.185 1359.72 201.185L1333.6 158.951C1333.6 158.951 1286.8 133.621 1277.69 133.621C1268.58 133.621 1206.59 131.808 1184.1 147.487L1181.21 158.951L1181.11 158.755Z" fill="url(#paint2_linear_2495_8)"/>
<mask id="mask2_2495_8" style="mask-type:luminance" maskUnits="userSpaceOnUse" x="462" y="133" width="1415" height="2116">
<path d="M1181.11 158.755L1169.84 205.055C1169.84 205.055 1171.6 232.345 1165.09 241.703C1158.57 251.061 1187.58 366.395 1187.58 366.395C1187.58 366.395 1224.28 372.666 1241.48 372.666C1258.68 372.666 1232.61 437.878 1232.61 437.878C1232.61 437.878 1165.09 476.192 1149.7 476.192C1134.31 476.192 1071.4 440.671 1001.47 565.019C1001.47 565.019 900.826 604.999 881.226 647.918L850.454 677.511H802.923L618.387 837.381L544.298 869.962L493.681 928.658L469.278 949.677L462.957 992.057L495.543 960.897L500.59 956.242L561.693 943.259C566.152 942.573 569.583 947.472 567.574 951.784L556.45 976.134L537.781 996.614L521.66 1012.83L574.238 999.7C588.693 996.075 601.433 987.158 610.253 974.517L658.421 905.288C658.421 905.288 843.79 852.814 855.207 839.88C866.624 826.945 913.959 768.788 913.959 768.788C913.959 768.788 1083.3 728.417 1097.02 704.164C1110.74 679.912 1132.11 780.89 1132.11 780.89L1161.12 836.597C1161.12 836.597 1175.23 888.335 1184.39 909.207C1193.56 930.079 1133.19 1011.85 1133.19 1011.85C1133.19 1011.85 1095.26 1068.1 1087.08 1092.4C1078.89 1116.7 1004.36 1252.17 1004.36 1270.4C1004.36 1288.62 977.61 1472.65 977.61 1472.65L880.197 1575.78C880.197 1575.78 815.271 1670.83 811.449 1697.14C807.627 1723.45 773.229 1893.31 773.229 1893.31L761.273 2008.16L735.547 2072.83C735.547 2072.83 701.198 2140.98 706.196 2158.38C721.533 2211.83 766.565 2231.33 835.656 2245.98C856.53 2250.39 875.542 2255.73 865.301 2184.29C865.301 2184.29 848.298 2036.23 850.307 2018.1C852.316 1999.98 899.552 1875.87 919.153 1862.89C938.753 1849.91 1004.81 1724.33 1004.81 1724.33L1031.76 1595.97L1070.91 1554.52C1070.91 1554.52 1119.86 1526 1134.56 1502.68C1149.26 1479.36 1280.34 1297.93 1280.34 1297.93L1345.07 1526L1389.12 1634.87L1376.87 1777.44L1457.67 2028.83C1457.67 2028.83 1443.12 2153.28 1457.67 2167.34C1472.22 2181.4 1697.38 2208.5 1721.98 2203.94C1746.58 2199.38 1773.09 2183.36 1773.09 2177.39C1773.09 2171.41 1563.07 2023.1 1563.07 2023.1C1563.07 2023.1 1530.92 1944.96 1534.7 1904.88C1538.47 1864.8 1551.75 1736.58 1551.75 1736.58L1519.61 1598.37L1515.83 1468.14L1529.06 1243.74C1529.06 1243.74 1502.55 1085.49 1495.01 1067.46C1487.46 1049.43 1494.13 987.354 1494.13 987.354L1486.82 933.558L1557.29 765.31L1563.22 748.897C1563.22 748.897 1597.76 822.046 1608.84 830.816C1619.91 839.586 1628.19 898.134 1628.19 898.134C1628.19 898.134 1702.82 1060.55 1748.44 1104.45C1748.44 1104.45 1759.51 1133.7 1745.69 1163C1731.88 1192.25 1715.31 1262.51 1715.31 1262.51C1715.31 1262.51 1734.67 1275.69 1738.79 1263.98C1742.9 1252.27 1773.18 1218.61 1773.18 1218.61C1773.18 1218.61 1820.32 1277.16 1820.32 1290.29C1820.32 1303.42 1791.31 1318.07 1791.31 1318.07L1784.4 1351.73L1820.32 1329.78V1376.62C1820.32 1391.27 1834.14 1391.27 1834.14 1391.27L1867.31 1325.42L1876.97 1282.99V1220.08C1876.97 1220.08 1824.44 1130.81 1821.69 1117.68C1818.95 1104.55 1769.17 889.413 1765.05 876.234C1760.93 863.054 1709.78 808.915 1709.78 808.915C1709.78 808.915 1700.12 709.407 1694.59 691.867C1689.05 674.327 1655.88 612.838 1655.88 612.838C1655.88 612.838 1654.5 539.689 1646.22 517.74C1637.94 495.79 1590.95 459.191 1590.95 459.191L1427.88 415.292C1427.88 415.292 1389.17 365.562 1390.59 347.973C1390.59 347.973 1369.86 289.767 1369.86 267.671C1369.86 267.671 1379.17 269.728 1387.7 257.333C1396.22 244.937 1396.22 188.201 1394.36 186.976C1392.5 185.751 1380.4 176.344 1373.68 180.705C1366.97 185.065 1359.72 201.185 1359.72 201.185L1333.6 158.951C1333.6 158.951 1286.8 133.621 1277.69 133.621C1268.58 133.621 1206.59 131.808 1184.1 147.487L1181.21 158.951L1181.11 158.755Z" fill="white"/>
</mask>
<g mask="url(#mask2_2495_8)">
<path d="M1187.63 366.346C1187.63 366.346 1299.54 346.748 1315.96 333.324C1332.37 319.899 1357.02 273.109 1357.02 273.109L1369.76 267.426L1397.15 368.502L1439.1 407.551C1439.1 407.551 1358.49 509.509 1324.14 515.045C1289.79 520.581 1129.37 501.621 1118.14 492.899C1106.92 484.178 1072.62 487.363 1060.27 491.724C1047.93 496.084 1102.46 433.665 1102.46 433.665L1206.39 428.912L1187.58 366.346" fill="#A06647"/>
<path d="M960.46 1557.46C960.46 1557.46 947.916 1593.12 960.46 1619.04C973.004 1644.96 1031.81 1595.82 1031.81 1595.82L1211.64 1436.15L1280.38 1297.78L1096.68 1494.94L1017.4 1572.6L973.788 1595.67L960.362 1557.51L960.46 1557.46Z" fill="#A06647"/>
<path d="M1522.64 1352.22L1519.61 1598.17L1500.99 1629.18C1500.99 1629.18 1493.05 1666.96 1483.15 1675.34C1473.25 1683.72 1415.77 1639.67 1415.77 1639.67L1481.19 1700.52C1481.19 1700.52 1518.82 1677.44 1518.82 1664.85C1518.82 1652.26 1549.59 1757.75 1549.59 1757.75L1541.8 1834.03L1584.24 1711.01V1604L1578.31 1463.44L1522.69 1352.22" fill="#A06647"/>
<path d="M960.46 1388.03C960.46 1388.03 1013.28 1692.93 1529.06 1243.55L1504.71 1108.22C1504.71 1108.22 1021.02 1193.62 1003.68 1171.62C986.333 1149.62 960.46 1388.03 960.46 1388.03Z" fill="#A06647"/>
<path d="M1113.1 645.567C1113.1 645.567 1098 674.523 1122.21 741.401C1146.42 808.278 1065.17 741.401 1065.17 741.401L914.008 768.691L855.256 839.782L774.993 890.197L946.838 729.103L1113.05 645.567H1113.1Z" fill="#A06647"/>
<path d="M1566.74 549.194C1577.87 554.535 1579.58 658.697 1563.26 748.652C1544.2 853.794 1610.65 872.51 1595.56 861.242L1606.83 941.789L1656.76 969.128L1643.48 828.464L1566.79 549.194H1566.74Z" fill="#A06647"/>
</g>
<path d="M1180.77 177.912C1180.77 177.912 1192.97 168.358 1196.01 169.044C1199.04 169.73 1204.09 178.402 1203.7 180.215C1203.31 182.028 1186.01 175.217 1180.77 177.961V177.912Z" fill="#FFD074"/>
<path d="M1242.65 173.111C1242.65 173.111 1247.02 163.655 1248.68 163.655C1250.35 163.655 1289.01 161.205 1300.03 168.358C1300.03 168.358 1246.23 169.24 1242.65 173.062V173.111Z" fill="#FFD074"/>
<path d="M1194.19 293.736C1194.19 293.736 1231.19 272.766 1241.09 273.109C1250.98 273.452 1261.23 283.398 1261.23 283.398L1194.19 293.736Z" fill="white"/>
<path d="M1205.22 199.421C1204.19 216.52 1198.6 233.13 1188.85 247.191C1187.97 248.514 1190.08 249.739 1190.96 248.416C1200.95 233.962 1206.64 216.912 1207.67 199.372C1207.77 197.804 1205.32 197.804 1205.22 199.372V199.421Z" fill="#A06647"/>
<path d="M1188.02 252.776C1188.66 256.941 1190.81 260.959 1194 263.702L1195.47 261.791C1192.33 259.538 1190.08 256.157 1189 252.482C1188.56 250.964 1186.21 251.601 1186.65 253.119C1187.92 257.431 1190.57 261.253 1194.24 263.898C1195.37 264.682 1196.79 262.869 1195.71 261.987C1192.77 259.44 1190.96 255.961 1190.37 252.139C1190.27 251.503 1189.44 251.111 1188.85 251.307C1188.17 251.503 1187.87 252.139 1188.02 252.825V252.776Z" fill="#A06647"/>
<path d="M1195.81 296.382C1216.78 290.698 1238.2 286.73 1259.85 284.672C1261.42 284.525 1261.42 282.075 1259.85 282.222C1238 284.329 1216.34 288.298 1195.17 294.03C1193.65 294.422 1194.29 296.823 1195.81 296.382Z" fill="#A06647"/>
<path d="M1203.7 207.015C1203.7 207.015 1197.57 184.674 1189.93 188.544C1182.29 192.415 1181.7 206.427 1181.7 206.427L1203.7 207.015Z" fill="url(#paint3_linear_2495_8)"/>
<path d="M1250.1 191.533C1250.1 191.533 1254.17 176.639 1267.6 178.794C1281.02 180.95 1296.65 196.53 1296.65 196.53H1255.84L1250.1 191.582" fill="url(#paint4_linear_2495_8)"/>
<path d="M1250.2 194.521L1248.63 208.289C1248.63 208.289 1282.34 201.283 1290.48 201.43C1298.61 201.577 1299.98 198.245 1299.98 198.245C1299.98 198.245 1258.68 183.645 1250.2 194.521Z" fill="#F1F2F2"/>
<mask id="mask3_2495_8" style="mask-type:luminance" maskUnits="userSpaceOnUse" x="1248" y="190" width="52" height="19">
<path d="M1250.2 194.521L1248.63 208.289C1248.63 208.289 1282.34 201.283 1290.48 201.43C1298.61 201.577 1299.98 198.245 1299.98 198.245C1299.98 198.245 1258.68 183.645 1250.2 194.521Z" fill="white"/>
</mask>
<g mask="url(#mask3_2495_8)">
<path d="M1256.62 212.454C1262.19 212.454 1266.71 206.86 1266.71 199.96C1266.71 193.06 1262.19 187.466 1256.62 187.466C1251.04 187.466 1246.53 193.06 1246.53 199.96C1246.53 206.86 1251.04 212.454 1256.62 212.454Z" fill="#00B3D3"/>
</g>
<path d="M1181.7 206.378C1181.7 206.378 1179.64 221.224 1181.7 220.979C1183.76 220.734 1201 213.678 1201 213.678C1201 213.678 1203.89 211.523 1203.7 209.906C1203.5 208.289 1199.83 202.704 1193.21 202.704C1186.6 202.704 1181.7 206.329 1181.7 206.329V206.378Z" fill="#F1F2F2"/>
<mask id="mask4_2495_8" style="mask-type:luminance" maskUnits="userSpaceOnUse" x="1180" y="202" width="24" height="19">
<path d="M1181.7 206.378C1181.7 206.378 1179.64 221.224 1181.7 220.979C1183.76 220.734 1201 213.678 1201 213.678C1201 213.678 1203.89 211.523 1203.7 209.906C1203.5 208.289 1199.83 202.704 1193.21 202.704C1186.6 202.704 1181.7 206.329 1181.7 206.329V206.378Z" fill="white"/>
</mask>
<g mask="url(#mask4_2495_8)">
<path d="M1186.55 222.693C1190.39 222.693 1193.51 217.845 1193.51 211.865C1193.51 205.885 1190.39 201.038 1186.55 201.038C1182.71 201.038 1179.59 205.885 1179.59 211.865C1179.59 217.845 1182.71 222.693 1186.55 222.693Z" fill="#00B3D3"/>
</g>
<path d="M1175.72 209.955L1184.39 202.165C1184.39 202.165 1187.43 195.256 1201.74 206.084C1201.74 206.084 1190.52 199.176 1175.72 210.004V209.955Z" fill="#231F20"/>
<path d="M1242.65 199.96C1242.65 199.96 1250.59 187.172 1260.49 187.172C1270.39 187.172 1295.38 194.962 1300.03 198.245C1300.03 198.245 1253.53 184.233 1242.65 199.96Z" fill="#231F20"/>
<path d="M1390.29 469.676C1403.03 458.26 1403.62 435.722 1421.7 430.284C1441.84 424.257 1462.27 436.947 1482.66 435.869C1488.93 435.526 1488.98 425.727 1482.66 426.07C1460.8 427.246 1439.59 413.773 1417.73 421.269C1408.82 424.306 1402.3 430.529 1397.79 438.662C1393.28 446.795 1390.49 456.349 1383.34 462.718C1378.63 466.932 1385.59 473.84 1390.24 469.627L1390.29 469.676Z" fill="#A06647"/>
<path d="M1048.32 640.226C1069.83 642.039 1090.46 649.388 1108.54 661.049C1113.83 664.479 1118.78 656.003 1113.49 652.573C1093.89 639.932 1071.54 632.338 1048.32 630.378C1042.05 629.839 1042.05 639.638 1048.32 640.177V640.226Z" fill="#A06647"/>
<path d="M1104.08 652.573C1130.64 678.687 1128.43 723.028 1160.24 745.418C1165.38 749.044 1170.28 740.568 1165.18 736.942C1150.44 726.555 1143.38 708.623 1137.11 692.406C1130.83 676.189 1124.07 658.452 1110.99 645.616C1106.48 641.206 1099.57 648.115 1104.08 652.524V652.573Z" fill="#A06647"/>
<path d="M1185.27 755.168C1235.89 756.197 1286.31 741.792 1329.24 715.041C1341.34 707.496 1352.86 698.922 1363.64 689.564C1366.04 687.506 1362.56 684.028 1360.16 686.085C1322.62 718.618 1276.02 740.323 1226.88 747.623C1213.11 749.681 1199.14 750.513 1185.23 750.22C1182.09 750.171 1182.09 755.07 1185.23 755.119L1185.27 755.168Z" fill="#A06647"/>
<path d="M1339.09 518.426C1339.77 518.426 1340.41 518.426 1341.1 518.426C1341.29 518.426 1341.44 518.426 1341.64 518.475C1341.34 518.475 1341.39 518.475 1341.64 518.475C1341.98 518.524 1342.32 518.622 1342.66 518.671C1343.3 518.818 1343.94 519.014 1344.58 519.259C1344.72 519.308 1344.92 519.406 1345.07 519.455C1344.87 519.357 1344.87 519.357 1345.07 519.455C1345.41 519.602 1345.7 519.749 1346 519.945C1346.58 520.239 1347.12 520.581 1347.61 520.973C1347.76 521.071 1347.91 521.169 1348.05 521.267C1348.3 521.414 1347.81 521.071 1348.15 521.365C1348.4 521.561 1348.64 521.806 1348.89 522.002C1349.38 522.492 1349.87 522.982 1350.31 523.472C1350.31 523.472 1350.7 523.962 1350.5 523.717C1350.31 523.472 1350.7 524.011 1350.7 524.011C1350.9 524.305 1351.09 524.599 1351.29 524.942C1351.97 526.02 1353.49 526.559 1354.62 525.824C1355.75 525.089 1356.24 523.619 1355.5 522.492C1352.07 516.907 1345.65 513.183 1339.04 513.526C1337.76 513.575 1336.54 514.604 1336.59 515.976C1336.64 517.25 1337.67 518.475 1339.04 518.426H1339.09Z" fill="#A06647"/>
<path d="M1361.68 549.831C1367.56 583.686 1373.44 617.591 1379.32 651.446C1379.86 654.533 1384.56 653.21 1384.02 650.123C1378.14 616.268 1372.26 582.364 1366.38 548.508C1365.84 545.422 1361.14 546.744 1361.68 549.831Z" fill="#A06647"/>
<path d="M1423.27 694.904C1452.38 719.451 1487.51 747.819 1528.38 738.804C1531.46 738.118 1530.14 733.414 1527.05 734.1C1488.2 742.674 1454.34 714.698 1426.75 691.426C1424.35 689.417 1420.87 692.847 1423.27 694.904Z" fill="#A06647"/>
<path d="M1545.38 729.691L1553.76 715.678C1554.4 714.6 1554.05 712.935 1552.88 712.347C1551.7 711.759 1550.23 712.053 1549.54 713.229L1541.17 727.241C1540.53 728.319 1540.87 729.985 1542.05 730.573C1543.22 731.161 1544.69 730.867 1545.38 729.691Z" fill="#A06647"/>
<path d="M1503.63 670.897L1511.57 673.102C1513.48 673.641 1515.54 672.906 1516.71 671.338C1517.25 670.652 1517.55 669.917 1517.69 669.035C1517.84 668.055 1517.69 666.732 1517.11 665.899C1516.13 664.675 1515.2 663.401 1514.07 662.323C1512.94 661.245 1511.72 660.216 1510.44 659.236C1508.19 657.521 1505.79 656.296 1503.14 655.268L1500.54 664.724C1501.38 664.92 1502.16 665.164 1502.95 665.507L1501.77 665.018C1502.95 665.507 1504.07 666.193 1505.1 666.977L1504.12 666.193C1505.1 666.977 1505.98 667.859 1506.77 668.839L1505.98 667.859C1506.18 668.153 1506.38 668.398 1506.57 668.692C1507.31 669.77 1508.24 670.603 1509.51 670.946C1510.69 671.289 1512.26 671.142 1513.28 670.456C1514.31 669.77 1515.24 668.79 1515.54 667.516C1515.83 666.242 1515.78 664.822 1515.05 663.744C1512.26 659.579 1508.04 656.345 1503.09 655.268C1501.82 654.974 1500.45 655.072 1499.32 655.758C1498.29 656.345 1497.31 657.521 1497.07 658.697C1496.77 659.971 1496.82 661.343 1497.56 662.47L1498.34 663.45C1498.93 664.038 1499.66 664.479 1500.5 664.724C1500.64 664.773 1500.84 664.871 1500.99 664.92L1499.81 664.43C1501.82 665.312 1503.73 666.438 1505.49 667.761L1504.51 666.977C1506.28 668.349 1507.85 669.917 1509.22 671.681L1508.43 670.701L1508.53 670.848L1514.07 663.646L1506.13 661.441C1504.91 661.098 1503.44 661.294 1502.36 661.931C1501.33 662.519 1500.35 663.695 1500.1 664.871C1499.81 666.144 1499.86 667.516 1500.59 668.643C1501.33 669.77 1502.26 670.554 1503.53 670.897H1503.63Z" fill="#A06647"/>
<path d="M1230.45 682.705C1230.75 682.215 1231.09 681.725 1231.38 681.235C1231.53 681.039 1231.63 680.843 1231.78 680.647C1231.78 680.647 1232.46 679.716 1232.02 680.304C1231.58 680.892 1232.17 680.108 1232.27 680.01C1232.46 679.765 1232.66 679.569 1232.81 679.373C1233.15 678.981 1233.49 678.589 1233.83 678.246C1234.62 677.413 1235.45 676.629 1236.33 675.943C1236.48 675.796 1236.77 675.649 1236.87 675.502C1236.38 675.894 1236.28 675.943 1236.58 675.747C1236.68 675.698 1236.77 675.6 1236.87 675.551C1237.31 675.208 1237.8 674.914 1238.24 674.571C1239.13 673.984 1240.06 673.445 1241.04 672.955C1241.48 672.71 1241.92 672.514 1242.41 672.269C1243.1 671.975 1242.7 671.975 1242.31 672.269C1242.51 672.122 1242.85 672.024 1243.1 671.975C1244.08 671.583 1245.1 671.289 1246.13 670.995C1246.67 670.848 1247.21 670.75 1247.75 670.652C1248.14 670.554 1249.91 670.309 1248.44 670.505L1243.73 664.283C1243.59 664.674 1243.34 665.115 1243.29 665.507C1243.44 664.577 1243.54 664.969 1243.29 665.409C1243.19 665.605 1243.1 665.801 1243 665.997C1242.56 666.83 1242.07 667.565 1241.53 668.349C1241.14 668.888 1241.53 668.3 1241.72 668.153C1241.58 668.251 1241.43 668.496 1241.33 668.643C1241.04 668.986 1240.69 669.378 1240.35 669.721C1240.06 670.015 1239.71 670.309 1239.42 670.603C1239.27 670.75 1239.08 670.897 1238.93 670.995C1238.49 671.436 1239.91 670.309 1239.03 670.897C1238.34 671.387 1237.61 671.828 1236.87 672.269C1236.63 672.416 1236.38 672.514 1236.19 672.612C1236.04 672.661 1235.35 672.955 1236.04 672.71C1236.73 672.465 1236.04 672.71 1235.89 672.759C1235.7 672.857 1235.5 672.906 1235.3 672.955C1234.47 673.249 1233.59 673.445 1232.71 673.592C1231.97 673.739 1232.95 673.494 1233.1 673.592C1232.95 673.494 1232.46 673.641 1232.32 673.641C1231.83 673.641 1231.38 673.641 1230.89 673.641C1228.35 673.592 1225.9 675.943 1225.99 678.54C1226.09 681.137 1228.15 683.39 1230.89 683.439C1241.09 683.684 1250.05 676.384 1253.14 666.879C1254.02 664.136 1251.52 660.265 1248.44 660.657C1243.05 661.343 1237.9 663.009 1233.3 665.997C1228.69 668.986 1224.82 672.955 1221.93 677.658C1220.56 679.863 1221.39 683.146 1223.69 684.37C1225.99 685.595 1228.93 684.958 1230.4 682.607L1230.45 682.705Z" fill="#A06647"/>
<path d="M1192.82 926.943C1191.55 917.144 1188.56 907.737 1183.71 899.065C1182.19 896.322 1177.92 898.771 1179.49 901.515C1183.85 909.354 1186.74 918.026 1187.92 926.894C1188.07 928.217 1188.9 929.344 1190.37 929.344C1191.55 929.344 1193.02 928.217 1192.82 926.894V926.943Z" fill="#A06647"/>
<path d="M1188.02 885.347C1199.14 853.941 1217.81 825.426 1242.56 803.085C1244.91 800.978 1241.43 797.499 1239.08 799.606C1213.69 822.536 1194.68 851.834 1183.27 884.024C1182.24 887.013 1186.94 888.286 1187.97 885.347H1188.02Z" fill="#A06647"/>
<path d="M1378.58 751.444C1378.58 770.944 1378.58 790.444 1378.58 809.993C1378.58 813.129 1383.48 813.129 1383.48 809.993C1383.48 790.493 1383.48 770.993 1383.48 751.444C1383.48 748.309 1378.58 748.309 1378.58 751.444Z" fill="#A06647"/>
<path d="M1244.86 902.936L1276.07 895.244C1279.11 894.509 1277.84 889.756 1274.75 890.54L1243.54 898.232C1240.5 898.967 1241.77 903.72 1244.86 902.936Z" fill="#A06647"/>
<path d="M1288.08 880.055C1294.25 866.778 1300.57 852.912 1311.06 842.378C1320.57 832.775 1334.63 826.357 1348.1 830.473C1351.14 831.404 1352.42 826.651 1349.43 825.769C1335.22 821.409 1320.37 827.337 1309.69 836.94C1297.63 847.817 1290.58 863.152 1283.86 877.606C1282.54 880.447 1286.75 882.946 1288.08 880.055Z" fill="#A06647"/>
<path d="M1403.33 828.807C1420.97 831.894 1437.28 840.174 1450.27 852.471C1452.57 854.627 1456.05 851.198 1453.75 848.993C1440.18 836.156 1423.07 827.288 1404.65 824.103C1401.56 823.565 1400.24 828.268 1403.33 828.807Z" fill="#A06647"/>
<path d="M1458.06 865.308L1461.69 886.915C1461.88 888.238 1463.5 888.972 1464.72 888.629C1466.1 888.238 1466.64 886.915 1466.44 885.592L1462.81 863.985C1462.62 862.662 1461 861.928 1459.78 862.27C1458.4 862.662 1457.86 863.985 1458.06 865.308Z" fill="#A06647"/>
<path d="M1377.55 848.111C1378.58 867.219 1376.62 886.278 1371.62 904.749C1370.79 907.786 1375.54 909.109 1376.33 906.072C1381.37 887.209 1383.43 867.66 1382.4 848.16C1382.26 845.024 1377.36 845.024 1377.5 848.16L1377.55 848.111Z" fill="#A06647"/>
<path d="M1357.12 909.501L1318.65 908.227C1315.52 908.129 1315.52 913.029 1318.65 913.127L1357.12 914.401C1360.26 914.499 1360.26 909.599 1357.12 909.501Z" fill="#A06647"/>
<path d="M1393.18 914.009C1404.7 915.283 1416.31 914.597 1427.58 912C1430.67 911.314 1429.35 906.562 1426.26 907.296C1415.38 909.746 1404.26 910.334 1393.18 909.109C1391.86 908.962 1390.73 910.334 1390.73 911.559C1390.73 912.98 1391.86 913.862 1393.18 914.009Z" fill="#A06647"/>
<path d="M1365.5 934.635C1366.87 949.481 1365.25 964.326 1360.79 978.535C1359.81 981.523 1364.57 982.846 1365.5 979.858C1370.1 965.306 1371.77 949.873 1370.4 934.685C1370.1 931.549 1365.2 931.549 1365.5 934.685V934.635Z" fill="#A06647"/>
<path d="M1313.22 986.717C1314.15 986.913 1315.08 987.158 1316.01 987.501C1316.99 987.844 1317.43 988.04 1318.36 988.481C1320.03 989.314 1321.74 990.441 1323.02 991.47C1326.1 994.066 1328.26 997.006 1329.92 1000.73C1330.46 1001.95 1332.23 1002.2 1333.26 1001.61C1334.48 1000.88 1334.68 999.456 1334.14 998.28C1330.56 990.245 1323.16 983.875 1314.54 982.014C1313.26 981.72 1311.89 982.405 1311.5 983.728C1311.16 984.953 1311.89 986.472 1313.22 986.766V986.717Z" fill="#A06647"/>
<path d="M1395.39 997.692C1406.46 988.726 1417.59 979.809 1428.66 970.842C1429.69 970.01 1429.49 968.246 1428.66 967.364C1427.63 966.335 1426.21 966.531 1425.18 967.364C1414.11 976.33 1402.98 985.247 1391.91 994.213C1390.88 995.046 1391.08 996.81 1391.91 997.692C1392.94 998.721 1394.36 998.525 1395.39 997.692Z" fill="#A06647"/>
<path d="M1441.3 949.922V928.315C1441.3 925.179 1436.4 925.179 1436.4 928.315V949.922C1436.4 953.057 1441.3 953.057 1441.3 949.922Z" fill="#A06647"/>
<path d="M1216.49 956.242V977.849C1216.49 980.984 1221.39 980.984 1221.39 977.849V956.242C1221.39 953.106 1216.49 953.106 1216.49 956.242Z" fill="#A06647"/>
<path d="M1226.88 983.385C1247.8 1009.45 1261.13 1041.1 1266.03 1074.12C1266.47 1077.21 1271.22 1075.89 1270.73 1072.8C1265.68 1038.9 1251.77 1006.66 1230.36 979.907C1228.4 977.457 1224.92 980.936 1226.88 983.385Z" fill="#A06647"/>
<path d="M1394.9 1104.06C1411.31 1075.64 1431.36 1049.53 1454.73 1026.55C1456.98 1024.34 1453.5 1020.87 1451.25 1023.07C1427.58 1046.34 1407.25 1072.85 1390.64 1101.61C1389.07 1104.35 1393.28 1106.8 1394.85 1104.06H1394.9Z" fill="#A06647"/>
<path d="M1315.37 839.782L1358.25 825.426C1360.7 824.593 1360.5 820.331 1357.61 820.625C1346.98 821.703 1336.54 823.809 1326.35 826.945C1323.8 827.729 1324.14 831.845 1326.98 831.747C1338.65 831.453 1350.21 829.101 1361.04 824.789C1363.93 823.613 1362.66 818.91 1359.72 820.086C1349.23 824.25 1338.21 826.602 1326.94 826.896L1327.57 831.698C1337.32 828.66 1347.37 826.553 1357.51 825.524L1356.87 820.723L1314 835.078C1311.01 836.058 1312.28 840.811 1315.32 839.782H1315.37Z" fill="#A06647"/>
<path d="M1216 963.101C1215.9 972.361 1221.98 979.71 1228.35 985.737C1234.72 991.763 1242.12 997.691 1242.75 1006.71C1243 1009.84 1247.9 1009.84 1247.65 1006.71C1246.97 997.691 1241.04 990.93 1234.72 985.002C1228.4 979.074 1220.75 972.508 1220.85 963.101C1220.85 959.966 1216 959.966 1215.95 963.101H1216Z" fill="#A06647"/>
<path d="M802.531 1746.04C802.531 1746.04 765.34 1834.13 761.371 2008.06C761.371 2008.06 814.144 2036.38 850.356 2017.96L970.407 1786.8L874.513 1809.83L802.531 1746.04Z" fill="url(#paint5_linear_2495_8)"/>
<path d="M1390.1 1818.21L1457.72 2028.69C1457.72 2028.69 1527.94 2042.6 1563.12 2022.91C1563.12 2022.91 1541.21 1937.9 1544.79 1804.54L1514.12 1840.84L1390.1 1818.21Z" fill="url(#paint6_linear_2495_8)"/>
<path d="M835.705 2245.83C835.705 2245.83 758.186 2020.65 759.803 2011.88L756.03 2021.34C756.03 2021.34 824.728 2241.32 828.012 2244.17C831.295 2247.01 835.656 2245.83 835.656 2245.83H835.705Z" fill="#5D4E34"/>
<path d="M1501.77 2179.44C1501.77 2179.44 1676.9 2123.35 1687.24 2111.59C1687.24 2111.59 1702.67 2116.24 1699 2120.11C1695.32 2123.98 1534.35 2185.27 1518.09 2182.33L1501.82 2179.44H1501.77Z" fill="#5D4E34"/>
<path d="M1486.19 1094.9C1486.19 1094.9 1139.7 1184.46 1125 1115.92C1125 1115.92 1108.83 1052.03 1119.12 1042.72C1129.41 1033.36 1080.85 1064.52 1080.85 1064.52L1001.42 1234.29L976.385 1357.95C976.385 1357.95 1027.35 1454.52 1123.04 1438.5C1218.74 1422.48 1514.07 1180 1514.07 1180V1137.42C1514.07 1137.42 1512.89 1087.16 1486.14 1094.85L1486.19 1094.9Z" fill="url(#paint7_linear_2495_8)"/>
<mask id="mask5_2495_8" style="mask-type:luminance" maskUnits="userSpaceOnUse" x="976" y="1040" width="539" height="401">
<path d="M1486.19 1094.9C1486.19 1094.9 1139.7 1184.46 1125 1115.92C1125 1115.92 1108.83 1052.03 1119.12 1042.72C1129.41 1033.36 1080.85 1064.52 1080.85 1064.52L1001.42 1234.29L976.385 1357.95C976.385 1357.95 1027.35 1454.52 1123.04 1438.5C1218.74 1422.48 1514.07 1180 1514.07 1180V1137.42C1514.07 1137.42 1512.89 1087.16 1486.14 1094.85L1486.19 1094.9Z" fill="white"/>
</mask>
<g mask="url(#mask5_2495_8)">
<path d="M1089.38 1130.08C1089.38 1130.08 1096.19 1305.13 1461.15 1101.02C1461.15 1101.02 1083.7 1265.89 1089.38 1102.44C1095.06 938.996 1089.38 1130.08 1089.38 1130.08Z" fill="#95ACB8"/>
<path d="M1047.83 1135.17C1047.83 1135.17 1020.14 1245.51 1101.88 1226.25C1101.88 1226.25 1038.32 1240.66 1026.95 1234.68C1015.59 1228.65 1015.59 1173.39 1015.59 1173.39L1047.83 1135.17Z" fill="#95ACB8"/>
<path d="M1154.06 1221.45C1154.06 1221.45 1275.04 1234.88 1426.26 1119.98C1426.26 1119.98 1264.17 1221.45 1154.06 1221.45Z" fill="#95ACB8"/>
<path d="M1505.64 1103.03C1505.64 1103.03 1496.87 1110.87 1480.99 1122.87C1465.12 1134.88 1496.87 1133.7 1496.87 1133.7C1496.87 1133.7 1444.63 1175.79 1421.95 1182.99C1399.26 1190.19 1525.24 1158.93 1526.37 1144.53C1527.49 1130.12 1505.59 1103.03 1505.59 1103.03" fill="#95ACB8"/>
<path d="M1021.27 1265.89C1021.27 1265.89 1074.63 1400.53 1422 1182.94C1422 1182.94 1057.63 1478.62 1021.27 1265.89Z" fill="#95ACB8"/>
<path d="M990.399 1288.72L1004.22 1332.03L976.385 1380.1L948.553 1342.86L990.399 1288.72Z" fill="#95ACB8"/>
<path d="M1030.33 1370.49C1030.33 1370.49 1265.68 1477.59 1514.07 1180.05L1236.92 1446.24C1236.92 1446.24 1049.64 1430.61 1030.33 1370.54V1370.49Z" fill="#95ACB8"/>
</g>
<path d="M1344.82 1178.68C1364.86 1160.16 1407.93 1158.3 1407.49 1121.31C1406.95 1080.2 1440.67 1091.81 1440.67 1091.81C1440.67 1091.81 1459.97 1130.91 1479.92 1122.92C1499.81 1114.94 1536.71 1091.47 1536.85 1114.2C1537 1136.93 1500.4 1172.46 1500.4 1172.46C1500.4 1172.46 1564 1240.8 1544.3 1256.87C1524.65 1272.94 1459.24 1229.68 1459.24 1229.68C1459.24 1229.68 1427.29 1307.83 1401.86 1304.55C1386.03 1302.49 1401.32 1208.91 1401.32 1208.91C1401.32 1208.91 1340.46 1233.11 1330.51 1207.14C1327.47 1199.21 1333.45 1181.72 1344.92 1178.63L1344.82 1178.68Z" fill="#7CAEA5"/>
<mask id="mask6_2495_8" style="mask-type:luminance" maskUnits="userSpaceOnUse" x="1329" y="1090" width="220" height="215">
<path d="M1344.82 1178.68C1364.86 1160.16 1407.93 1158.3 1407.49 1121.31C1406.95 1080.2 1440.67 1091.81 1440.67 1091.81C1440.67 1091.81 1459.97 1130.91 1479.92 1122.92C1499.81 1114.94 1536.71 1091.47 1536.85 1114.2C1537 1136.93 1500.4 1172.46 1500.4 1172.46C1500.4 1172.46 1564 1240.8 1544.3 1256.87C1524.65 1272.94 1459.24 1229.68 1459.24 1229.68C1459.24 1229.68 1427.29 1307.83 1401.86 1304.55C1386.03 1302.49 1401.32 1208.91 1401.32 1208.91C1401.32 1208.91 1340.46 1233.11 1330.51 1207.14C1327.47 1199.21 1333.45 1181.72 1344.92 1178.63L1344.82 1178.68Z" fill="white"/>
</mask>
<g mask="url(#mask6_2495_8)">
<path d="M1462.23 1245.41C1488.64 1258.93 1518.04 1265.79 1547.73 1264.66C1553.02 1264.47 1557.53 1260.3 1557.53 1254.86C1557.53 1249.72 1553.02 1244.87 1547.73 1245.07C1521.52 1246.09 1495.5 1240.46 1472.12 1228.51C1467.42 1226.1 1461.49 1227.28 1458.7 1232.03C1456.15 1236.39 1457.47 1243.01 1462.23 1245.46V1245.41Z" fill="#4B939A"/>
<path d="M1313.46 1189.11C1310.81 1197.35 1312.58 1206.7 1317.53 1213.71C1323.21 1221.74 1331.49 1226.3 1341.24 1227.38C1350.99 1228.46 1359.67 1225.86 1368.14 1222.28C1372.65 1220.37 1376.96 1218.22 1381.37 1216.11C1383.19 1215.23 1385 1214.35 1386.91 1213.61C1387.84 1213.22 1388.97 1213.02 1389.85 1212.53C1391.62 1211.5 1390.24 1213.32 1388.28 1211.9L1384.76 1208.37C1384.76 1204.99 1384.56 1204.06 1384.07 1205.67C1383.82 1206.41 1383.53 1207.1 1383.24 1207.83C1382.6 1209.4 1381.96 1210.97 1381.37 1212.53C1380.25 1215.42 1379.07 1218.31 1377.94 1221.21C1375.54 1227.23 1373.14 1233.26 1370.74 1239.28C1365.94 1251.34 1361.14 1263.39 1356.38 1275.44C1354.42 1280.34 1358.54 1286.22 1363.24 1287.5C1368.83 1289.01 1373.34 1285.58 1375.3 1280.64C1381.33 1265.45 1387.4 1250.21 1393.43 1235.02C1396.56 1227.18 1400.04 1219.39 1402.79 1211.41C1405.78 1202.73 1401.27 1193.33 1391.57 1192.74C1384.31 1192.3 1377.21 1196.46 1370.89 1199.5C1364.22 1202.69 1357.71 1206.12 1350.41 1207.58C1345.7 1208.52 1339.87 1208.27 1336.29 1205.43C1332.42 1202.34 1331.2 1198.28 1332.47 1194.31C1334.09 1189.26 1330.56 1183.63 1325.61 1182.25C1320.32 1180.78 1315.18 1184.07 1313.56 1189.11H1313.46Z" fill="#4B939A"/>
<path d="M1354.13 1191.91C1357.27 1191.91 1357.27 1187.01 1354.13 1187.01C1350.99 1187.01 1350.99 1191.91 1354.13 1191.91Z" fill="#4B939A"/>
<path d="M1356.29 1172.99C1359.42 1172.99 1359.42 1168.1 1356.29 1168.1C1353.15 1168.1 1353.15 1172.99 1356.29 1172.99Z" fill="#4B939A"/>
<path d="M1452.08 1243.94C1455.22 1243.94 1455.22 1239.04 1452.08 1239.04C1448.95 1239.04 1448.95 1243.94 1452.08 1243.94Z" fill="#4B939A"/>
<path d="M1396.17 1256.33C1399.31 1256.33 1399.31 1251.44 1396.17 1251.44C1393.04 1251.44 1393.04 1256.33 1396.17 1256.33Z" fill="#4B939A"/>
<path d="M1407.3 1307.83C1410.43 1307.83 1410.43 1302.93 1407.3 1302.93C1404.16 1302.93 1404.16 1307.83 1407.3 1307.83Z" fill="#4B939A"/>
<path d="M1408.72 1306.41C1411.85 1306.41 1411.85 1301.51 1408.72 1301.51C1405.58 1301.51 1405.58 1306.41 1408.72 1306.41Z" fill="#4B939A"/>
<path d="M1437.63 1094.6C1440.76 1094.6 1440.76 1089.7 1437.63 1089.7C1434.49 1089.7 1434.49 1094.6 1437.63 1094.6Z" fill="#4B939A"/>
<path d="M1408.33 1108.47C1411.46 1108.47 1411.46 1103.57 1408.33 1103.57C1405.19 1103.57 1405.19 1108.47 1408.33 1108.47Z" fill="#4B939A"/>
<path d="M1502.36 1169.76C1505.49 1169.76 1505.49 1164.86 1502.36 1164.86C1499.22 1164.86 1499.22 1169.76 1502.36 1169.76Z" fill="#4B939A"/>
<path d="M1472.22 1125.18C1475.36 1125.18 1475.36 1120.28 1472.22 1120.28C1469.09 1120.28 1469.09 1125.18 1472.22 1125.18Z" fill="#4B939A"/>
<path d="M1525.04 1112C1528.18 1112 1528.18 1107.1 1525.04 1107.1C1521.91 1107.1 1521.91 1112 1525.04 1112Z" fill="#4B939A"/>
<path d="M1504.42 1203.86C1507.55 1203.86 1507.55 1198.96 1504.42 1198.96C1501.28 1198.96 1501.28 1203.86 1504.42 1203.86Z" fill="#4B939A"/>
<path d="M1473.59 1150.07C1475.16 1150.07 1475.16 1147.62 1473.59 1147.62C1472.03 1147.62 1472.03 1150.07 1473.59 1150.07Z" fill="#4B939A"/>
<path d="M1434 1143.35C1435.57 1143.35 1435.57 1140.9 1434 1140.9C1432.43 1140.9 1432.43 1143.35 1434 1143.35Z" fill="#4B939A"/>
<path d="M1426.5 1113.61C1428.07 1113.61 1428.07 1111.16 1426.5 1111.16C1424.94 1111.16 1424.94 1113.61 1426.5 1113.61Z" fill="#4B939A"/>
<path d="M1403.77 1176.38C1405.34 1176.38 1405.34 1173.93 1403.77 1173.93C1402.2 1173.93 1402.2 1176.38 1403.77 1176.38Z" fill="#4B939A"/>
<path d="M1388.19 1169.71C1389.75 1169.71 1389.75 1167.26 1388.19 1167.26C1386.62 1167.26 1386.62 1169.71 1388.19 1169.71Z" fill="#4B939A"/>
<path d="M1455.95 1154.33C1457.52 1154.33 1457.52 1151.88 1455.95 1151.88C1454.39 1151.88 1454.39 1154.33 1455.95 1154.33Z" fill="#4B939A"/>
<path d="M1422.73 1237.03C1424.3 1237.03 1424.3 1234.58 1422.73 1234.58C1421.16 1234.58 1421.16 1237.03 1422.73 1237.03Z" fill="#4B939A"/>
<path d="M1407.69 1216.36C1409.26 1216.36 1409.26 1213.91 1407.69 1213.91C1406.12 1213.91 1406.12 1216.36 1407.69 1216.36Z" fill="#4B939A"/>
<path d="M1510.34 1229.29C1511.91 1229.29 1511.91 1226.84 1510.34 1226.84C1508.78 1226.84 1508.78 1229.29 1510.34 1229.29Z" fill="#4B939A"/>
<path d="M1512.89 1246.14C1514.46 1246.14 1514.46 1243.69 1512.89 1243.69C1511.32 1243.69 1511.32 1246.14 1512.89 1246.14Z" fill="#4B939A"/>
<path d="M1464.82 1207.19C1466.39 1207.19 1466.39 1204.74 1464.82 1204.74C1463.25 1204.74 1463.25 1207.19 1464.82 1207.19Z" fill="#4B939A"/>
<path d="M1432.29 1187.01C1433.85 1187.01 1433.85 1184.56 1432.29 1184.56C1430.72 1184.56 1430.72 1187.01 1432.29 1187.01Z" fill="#4B939A"/>
<path d="M1508.48 1122.92C1510.05 1122.92 1510.05 1120.47 1508.48 1120.47C1506.91 1120.47 1506.91 1122.92 1508.48 1122.92Z" fill="#4B939A"/>
<path d="M1523.82 1143.4C1525.39 1143.4 1525.39 1140.95 1523.82 1140.95C1522.25 1140.95 1522.25 1143.4 1523.82 1143.4Z" fill="#4B939A"/>
<path d="M1475.06 1134.39C1476.63 1134.39 1476.63 1131.94 1475.06 1131.94C1473.5 1131.94 1473.5 1134.39 1475.06 1134.39Z" fill="#4B939A"/>
<path d="M1466.19 1172.85C1467.76 1172.85 1467.76 1170.4 1466.19 1170.4C1464.63 1170.4 1464.63 1172.85 1466.19 1172.85Z" fill="#4B939A"/>
</g>
<path d="M1372.02 177.129C1372.02 177.129 1363.34 206.525 1357.17 213.63C1357.17 213.63 1353.54 217.206 1350.7 218.676C1350.7 218.676 1340.61 157.139 1329.97 155.718C1319.34 154.297 1372.02 177.129 1372.02 177.129Z" fill="url(#paint8_linear_2495_8)"/>
<path d="M1214.63 133.376C1214.63 133.376 1194.68 156.208 1181.11 158.756L1171.02 163.312L1180.77 143.322C1180.77 143.322 1207.91 130.78 1214.63 133.376Z" fill="url(#paint9_linear_2495_8)"/>
<path d="M1227.66 131.71C1227.66 131.71 1293.52 162.577 1319.29 154.248C1345.07 145.919 1328.55 149.495 1328.55 149.495L1264.36 125.733L1227.66 131.661V131.71Z" fill="url(#paint10_linear_2495_8)"/>
<path d="M1372.02 177.128C1374.52 161.744 1366.87 146.556 1353.44 140.137L1288.27 109.026C1288.27 109.026 1258.14 60.7169 1250.05 65.6164C1241.97 70.5159 1238.69 85.9002 1238.69 85.9002C1238.69 85.9002 1220.16 38.2774 1211.59 47.3904C1203.01 56.5034 1201.79 92.9065 1201.79 92.9065C1201.79 92.9065 1186.21 70.5159 1181.7 81.0008C1177.19 91.4856 1171.02 125.782 1171.02 125.782V152.435C1171.02 152.435 1208.31 102.852 1372.02 177.128Z" fill="#7BAFA5"/>
<mask id="mask7_2495_8" style="mask-type:luminance" maskUnits="userSpaceOnUse" x="1171" y="46" width="202" height="132">
<path d="M1372.02 177.128C1374.52 161.744 1366.87 146.556 1353.44 140.137L1288.27 109.026C1288.27 109.026 1258.14 60.7169 1250.05 65.6164C1241.97 70.5159 1238.69 85.9002 1238.69 85.9002C1238.69 85.9002 1220.16 38.2774 1211.59 47.3904C1203.01 56.5034 1201.79 92.9065 1201.79 92.9065C1201.79 92.9065 1186.21 70.5159 1181.7 81.0008C1177.19 91.4856 1171.02 125.782 1171.02 125.782V152.435C1171.02 152.435 1208.31 102.852 1372.02 177.128Z" fill="white"/>
</mask>
<g mask="url(#mask7_2495_8)">
<path d="M1176.75 166.986C1178.61 165.174 1180.67 163.606 1182.58 161.842C1182.33 162.087 1181.4 162.724 1182.19 162.136C1182.43 161.94 1182.68 161.793 1182.92 161.597C1183.46 161.205 1184.05 160.813 1184.59 160.421C1185.67 159.686 1186.74 159 1187.82 158.314C1189.93 157.04 1192.13 155.865 1194.39 154.836C1194.73 154.689 1195.07 154.542 1195.42 154.395C1196.3 154.003 1195.22 154.493 1194.93 154.591C1195.52 154.395 1196.05 154.15 1196.59 153.954C1197.87 153.464 1199.14 153.023 1200.42 152.631C1204.09 151.504 1206.79 147.437 1205.56 143.567C1204.34 139.696 1200.46 137.198 1196.5 138.422C1185.18 141.95 1174.84 148.172 1166.36 156.551C1163.62 159.245 1163.47 164.292 1166.36 166.937C1169.25 169.583 1173.81 169.828 1176.75 166.937V166.986Z" fill="#4B939A"/>
<path d="M1175.96 166.84C1199.78 143.665 1234.42 140.186 1265.78 146.262C1300.62 153.023 1334.48 167.28 1365.94 183.4C1374.32 187.711 1381.77 175.022 1373.34 170.71C1338.99 153.023 1301.26 136.806 1262.84 130.877C1228.2 125.537 1191.5 131.171 1165.58 156.453C1158.77 163.067 1169.2 173.454 1175.96 166.84Z" fill="#4B939A"/>
<path d="M1177.34 165.125C1188.41 143.567 1215.9 146.36 1236.04 148.809C1240.01 149.299 1243.39 145.086 1243.39 141.46C1243.39 137.1 1240.01 134.601 1236.04 134.111C1221.78 132.396 1206.93 130.779 1192.97 135.14C1181.11 138.863 1170.38 146.458 1164.6 157.677C1160.28 166.055 1172.98 173.503 1177.29 165.076L1177.34 165.125Z" fill="#4B939A"/>
<path d="M1183.31 81.0495C1183.71 81.1964 1184.1 81.3434 1184.49 81.4904L1183.31 81.0005C1184.93 81.6864 1186.45 82.5683 1187.87 83.6462L1186.89 82.8623C1188.36 83.9892 1189.68 85.312 1190.81 86.7818L1190.03 85.8019C1191.2 87.3698 1192.18 89.0356 1192.97 90.8484L1192.48 89.6725C1192.82 90.5054 1193.11 91.2893 1193.36 92.1712C1194.05 94.621 1196.84 96.4338 1199.39 95.6009C1201.93 94.768 1203.55 92.2202 1202.82 89.5745C1200.42 81.2454 1194.14 74.4352 1185.91 71.5935C1183.51 70.7606 1180.42 72.5734 1179.88 75.0231C1179.25 77.7668 1180.72 80.1676 1183.31 81.0495Z" fill="#4B939A"/>
<path d="M1210.95 49.301C1219.92 60.3248 1225.99 73.4554 1229.08 87.2719C1229.67 89.8686 1232.66 91.3874 1235.11 90.7015C1237.75 89.9666 1239.13 87.2719 1238.54 84.6751C1235.06 69.1438 1227.95 54.6904 1217.86 42.3927C1216.19 40.335 1212.67 40.6779 1210.95 42.3927C1208.94 44.4015 1209.29 47.2432 1210.95 49.301Z" fill="#4B939A"/>
<path d="M1249.96 70.9076C1257.6 72.7694 1262.5 79.5307 1266.42 85.949C1270.58 92.8083 1274.31 100.157 1280.19 105.792C1286.07 111.426 1293.32 114.121 1301.06 115.934C1308.81 117.747 1316.74 118.775 1323.51 123.185C1328.8 126.664 1333.7 118.188 1328.45 114.709C1314.93 105.841 1295.82 109.271 1284.79 96.3359C1274.46 84.2342 1270.05 65.7142 1252.65 61.4517C1246.53 59.9328 1243.93 69.3888 1250.05 70.9076H1249.96Z" fill="#4B939A"/>
</g>
<defs>
<linearGradient id="paint0_linear_2495_8" x1="0" y1="843.114" x2="1183.95" y2="843.114" gradientUnits="userSpaceOnUse">
<stop stop-color="#4B939A"/>
<stop offset="0.03" stop-color="#4F959A"/>
<stop offset="0.25" stop-color="#67A2A0"/>
<stop offset="0.45" stop-color="#76ABA3"/>
<stop offset="0.61" stop-color="#7CAEA5"/>
<stop offset="1" stop-color="#DAAA5C"/>
</linearGradient>
<linearGradient id="paint1_linear_2495_8" x1="1215.56" y1="28.0866" x2="1240.88" y2="593.878" gradientUnits="userSpaceOnUse">
<stop stop-color="#FFE5BA"/>
<stop offset="0.23" stop-color="#FFE1AF"/>
<stop offset="0.62" stop-color="#FFD994"/>
<stop offset="1" stop-color="#FFD074"/>
</linearGradient>
<linearGradient id="paint2_linear_2495_8" x1="1619.62" y1="1932.41" x2="519.917" y2="468.667" gradientUnits="userSpaceOnUse">
<stop stop-color="#A06647"/>
<stop offset="0.09" stop-color="#A86E4D"/>
<stop offset="0.36" stop-color="#B87E5B"/>
<stop offset="0.64" stop-color="#C28864"/>
<stop offset="1" stop-color="#C68C67"/>
</linearGradient>
<linearGradient id="paint3_linear_2495_8" x1="1192.67" y1="203.537" x2="1179.79" y2="186.387" gradientUnits="userSpaceOnUse">
<stop stop-color="#C68C67"/>
<stop offset="0.61" stop-color="#A06647"/>
</linearGradient>
<linearGradient id="paint4_linear_2495_8" x1="1274.16" y1="195.11" x2="1254.17" y2="168.454" gradientUnits="userSpaceOnUse">
<stop stop-color="#C68C67"/>
<stop offset="0.61" stop-color="#A06647"/>
</linearGradient>
<linearGradient id="paint5_linear_2495_8" x1="748.435" y1="1871.51" x2="951.686" y2="1919.24" gradientUnits="userSpaceOnUse">
<stop offset="0.48" stop-color="#F2E0A5"/>
<stop offset="0.49" stop-color="#ECD59D"/>
<stop offset="0.51" stop-color="#E3C490"/>
<stop offset="0.53" stop-color="#DEBA88"/>
<stop offset="0.56" stop-color="#DDB786"/>
</linearGradient>
<linearGradient id="paint6_linear_2495_8" x1="1431.01" y1="1927.07" x2="1602.42" y2="1913.2" gradientUnits="userSpaceOnUse">
<stop offset="0.48" stop-color="#ECD59D"/>
<stop offset="0.49" stop-color="#E3C490"/>
<stop offset="0.5" stop-color="#DEBA88"/>
<stop offset="0.51" stop-color="#DDB786"/>
</linearGradient>
<linearGradient id="paint7_linear_2495_8" x1="976.385" y1="1240.66" x2="1514.12" y2="1240.66" gradientUnits="userSpaceOnUse">
<stop stop-color="#F1F2F2"/>
<stop offset="0.31" stop-color="#DEE9EE"/>
<stop offset="0.94" stop-color="#AFD4E5"/>
<stop offset="1" stop-color="#ABD2E5"/>
</linearGradient>
<linearGradient id="paint8_linear_2495_8" x1="1328.55" y1="187.173" x2="1372.02" y2="187.173" gradientUnits="userSpaceOnUse">
<stop stop-color="#FFE5BA"/>
<stop offset="0.23" stop-color="#FFE1AF"/>
<stop offset="0.62" stop-color="#FFD994"/>
<stop offset="1" stop-color="#FFD074"/>
</linearGradient>
<linearGradient id="paint9_linear_2495_8" x1="1171.02" y1="148.124" x2="1214.63" y2="148.124" gradientUnits="userSpaceOnUse">
<stop stop-color="#FFE5BA"/>
<stop offset="0.23" stop-color="#FFE1AF"/>
<stop offset="0.62" stop-color="#FFD994"/>
<stop offset="1" stop-color="#FFD074"/>
</linearGradient>
<linearGradient id="paint10_linear_2495_8" x1="1227.66" y1="140.725" x2="1333.8" y2="140.725" gradientUnits="userSpaceOnUse">
<stop stop-color="#FFE5BA"/>
<stop offset="0.23" stop-color="#FFE1AF"/>
<stop offset="0.62" stop-color="#FFD994"/>
<stop offset="1" stop-color="#FFD074"/>
</linearGradient>
</defs>
</svg>
