<svg width="1291" height="1516" viewBox="0 0 1291 1516" fill="none" xmlns="http://www.w3.org/2000/svg">
<g clip-path="url(#clip0_5001_4)">
<rect width="1290" height="1516" transform="translate(1)" fill="#384646"/>
<path d="M742.815 147.052L615 -9.05078L658.169 -0.0448399L746.201 139.547L822.382 129.04L864.705 207.092L822.382 147.052H742.815Z" fill="#2B3535"/>
<path d="M76.4134 1258.34L1.07874 1330.39L-4 1373.92L86.5709 1267.35L56.9449 1168.29L76.4134 1139.77L45.9409 1168.29L76.4134 1258.34Z" fill="#2B3535"/>
<path d="M788 1017.08C788 1025.14 799.604 1036.22 805.842 1041.04C810.649 1039.07 815.945 1037.39 821.234 1036.61C816.81 1033.02 813.003 1029.93 810.628 1028.46C809.135 1027.54 807.55 1026.19 805.843 1024.73C801.083 1020.67 795.366 1015.79 788 1017.08Z" fill="#18061E"/>
<path d="M788 1050.35C801.345 1055.46 835.346 1063.13 864.589 1052.98C858.641 1053.85 844.745 1054.2 836.738 1048.6C831.536 1044.96 826.023 1040.49 821.234 1036.61C815.945 1037.39 810.649 1039.07 805.842 1041.04C797.677 1044.38 790.922 1048.51 788 1050.35Z" fill="#824162"/>
<path fill-rule="evenodd" clip-rule="evenodd" d="M836.738 985.495C838.914 988.578 843.527 995.096 844.571 996.496C845.877 998.248 842.831 1000.44 836.738 1001.31C834.189 1001.68 827.525 1001.28 820.382 1000.85C810.453 1000.25 799.598 999.601 797.574 1000.87C794.789 1002.63 793.702 1000.14 793.506 998.685C790.257 1004.9 788 1011.95 788 1017.08C795.366 1015.79 801.083 1020.67 805.843 1024.73C807.55 1026.19 809.135 1027.54 810.628 1028.46C813.003 1029.93 816.81 1033.02 821.234 1036.61C826.023 1040.49 831.536 1044.96 836.738 1048.6C844.745 1054.2 858.641 1053.85 864.589 1052.98C835.346 1063.13 801.345 1055.46 788 1050.35V1056.48C790.611 1080.99 846.747 1084.06 864.589 1084.93C878.862 1085.63 882.14 1096.02 881.995 1101.13C961.369 1102.53 978.311 1050.64 976.861 1024.52L971.639 1020.15C974.25 1013.14 975.555 991.691 971.639 989.94C968.506 988.539 949.736 994.61 940.742 997.82C939.212 996.574 937.613 995.399 935.956 994.293C928.833 989.539 920.656 986.064 912.457 983.768C899.774 980.215 887.039 979.48 878.079 981.185C874.921 981.786 872.316 982.32 870.023 982.789C860.625 984.714 856.482 985.563 841.09 985.563C839.581 985.563 838.132 985.538 836.738 985.495Z" fill="#060E1D"/>
<path d="M934.215 972.42C928.993 972.069 917.534 979.839 912.457 983.768C920.656 986.064 928.833 989.539 935.956 994.293C937.551 987.148 939.437 972.77 934.215 972.42Z" fill="#18061E"/>
<path d="M1201.39 966.291L1211.41 965.415L1205.32 957.192C1204.07 960.153 1202.76 963.194 1201.39 966.291Z" fill="#FEEED5"/>
<path d="M1211.68 941.338L1221.42 940.901L1214.72 933.021C1213.81 935.616 1212.79 938.4 1211.68 941.338Z" fill="#FEEDD5"/>
<path d="M822.665 984.473C814.774 983.691 809.329 983.152 804.536 985.563C800.692 987.496 796.638 992.698 793.506 998.685C793.702 1000.14 794.789 1002.63 797.574 1000.87C799.598 999.601 810.453 1000.25 820.382 1000.85C827.525 1001.28 834.189 1001.68 836.738 1001.31C842.831 1000.44 845.877 998.248 844.571 996.496C843.527 995.096 838.914 988.578 836.738 985.495C831.267 985.326 826.654 984.868 822.665 984.473Z" fill="#934B2C"/>
<path d="M1199.23 907.193C1196.76 910.111 1191.92 916.211 1192.27 917.262C1192.7 918.575 1205.32 917.262 1206.19 915.51C1207.06 913.759 1199.66 906.674 1199.23 907.193Z" fill="#934B2C"/>
<path d="M1276.25 1180.79C1280.6 1180.21 1289.83 1179.39 1291.92 1180.79C1294.53 1182.55 1284.96 1192.18 1284.09 1192.61C1283.22 1193.05 1276.25 1188.67 1276.25 1180.79Z" fill="#934B2C"/>
<path d="M1193.14 1136.14C1200.1 1135.41 1215.68 1135 1222.29 1139.21C1230.56 1144.46 1205.32 1177.29 1190.96 1179.92C1176.6 1182.55 1176.17 1159.34 1178.78 1155.4C1179.43 1154.41 1180.12 1152.92 1180.91 1151.19C1183.28 1146.04 1186.62 1138.76 1193.14 1136.14Z" fill="#915F4A"/>
<path fill-rule="evenodd" clip-rule="evenodd" d="M886.782 1127.4C915.358 1134.55 979.472 1129.15 1007.32 1050.35C1011.82 1057.36 1023.08 1068.39 1032.13 1056.48C1043.21 1085.23 1080.31 1137.82 1140.05 1118.2C1152.81 1120.83 1179.82 1127.4 1185.74 1132.65C1190.24 1130.17 1202.88 1125.65 1217.51 1127.4C1232.13 1129.15 1273.21 1145.93 1291.92 1154.1C1302.65 1168.84 1316.46 1204.01 1285.83 1226.77C1255.19 1249.53 1164.27 1247.93 1122.64 1244.28C1116.4 1256.25 1106.63 1282.37 1117.42 1291.12C1126.7 1291.85 1145.79 1295.32 1147.88 1303.38C1150.49 1313.45 1146.57 1329.21 1140.05 1330.96L1068.68 1330.52C1069.55 1327.02 1072.16 1262.67 1071.29 1253.47C1070.79 1248.15 1061.91 1247.78 1054.89 1247.48C1052.21 1247.36 1049.79 1247.26 1048.23 1246.9L1047.98 1247.39C1041.53 1260.21 1035.03 1273.14 1037.78 1291.12C1045.62 1290.97 1064.76 1303.38 1062.59 1330.52H998.184C999.823 1326.12 1001.23 1310.33 1002.63 1294.63C1003.45 1285.33 1004.28 1276.06 1005.15 1269.22C1006.52 1258.39 1005.31 1243.99 1005.15 1242.53C1004.82 1239.59 988.527 1241.03 978.094 1241.96C974.537 1242.27 971.661 1242.53 970.333 1242.53C968.056 1242.53 967.115 1257.46 965.958 1275.82C965.712 1279.73 965.455 1283.8 965.174 1287.91C963.794 1308.09 963.804 1326.16 963.806 1329.97L954.668 1330.52H904.624C902.276 1327.92 899.439 1311.89 904.624 1303.37C907.364 1298.86 913.017 1297.23 917.875 1295.82C920.863 1294.95 923.55 1294.18 925.076 1292.87L927.252 1269.22L929.428 1242.53H904.624C903.753 1262.96 898.967 1299.87 896.791 1313L894.18 1330.52H841.09C827.513 1314.42 836.883 1301.05 843.266 1296.37C848.053 1295.5 865.894 1285.43 866.765 1282.8C867.635 1280.18 872.857 1215.83 871.116 1203.13C869.724 1192.97 880.98 1148.41 886.782 1127.4ZM1147.44 1095.88C1179.5 1063.19 1241.7 997.295 1234.04 995.193C1226.94 993.244 1205.21 1007.94 1188.78 1019.04C1183.08 1022.9 1178.01 1026.32 1174.42 1028.46C1163.28 1035.12 1165.43 1031.24 1167.9 1028.46C1180.72 1009.4 1192.36 986.62 1201.39 966.291C1202.76 963.194 1204.07 960.153 1205.32 957.192C1207.69 951.574 1209.82 946.24 1211.68 941.338C1212.79 938.4 1213.81 935.616 1214.72 933.021C1218.18 923.15 1220.12 915.997 1220.12 913.332C1220.12 904.139 1214.02 898.886 1196.62 898.01C1182.69 897.31 1138.6 933.031 1118.29 950.979L1105.23 940.035C1107.7 945.872 1111.76 957.808 1108.28 958.859C1104.8 959.91 1092.9 970.97 1087.39 976.37L1073.9 970.241L1083.48 985.563C1081.59 987.022 1075.82 992.041 1067.81 1000.45C1062.35 1006.18 1055.59 1017.91 1048.74 1029.81C1060.23 1054.46 1096.06 1102.19 1147.44 1095.88ZM1199.23 907.193C1196.76 910.111 1191.92 916.211 1192.27 917.262C1192.7 918.575 1205.32 917.262 1206.19 915.51C1207.06 913.759 1199.66 906.674 1199.23 907.193ZM1193.14 1136.14C1200.1 1135.41 1215.68 1135 1222.29 1139.21C1230.56 1144.46 1205.32 1177.29 1190.96 1179.92C1176.6 1182.55 1176.17 1159.34 1178.78 1155.4C1179.43 1154.41 1180.12 1152.92 1180.91 1151.19C1183.28 1146.04 1186.62 1138.76 1193.14 1136.14ZM1276.25 1180.79C1280.6 1180.21 1289.83 1179.39 1291.92 1180.79C1294.53 1182.55 1284.96 1192.18 1284.09 1192.61C1283.22 1193.05 1276.25 1188.67 1276.25 1180.79Z" fill="#060E1D"/>
<path d="M1140.05 1118.2L1147.44 1095.88C1096.06 1102.19 1060.23 1054.46 1048.74 1029.81C1043.03 1039.71 1037.27 1049.72 1032.13 1056.48C1043.21 1085.23 1080.31 1137.82 1140.05 1118.2Z" fill="#354553"/>
<path d="M954.231 1063.91C954.231 1071.41 946.243 1077.48 936.39 1077.48C926.536 1077.48 918.548 1071.41 918.548 1063.91C918.548 1056.42 926.536 1050.34 936.39 1050.34C946.243 1050.34 954.231 1056.42 954.231 1063.91Z" fill="#955270"/>
<path d="M1128.3 1023.64C1128.3 1031.13 1122.06 1037.21 1114.37 1037.21C1106.68 1037.21 1100.45 1031.13 1100.45 1023.64C1100.45 1016.14 1106.68 1010.07 1114.37 1010.07C1122.06 1010.07 1128.3 1016.14 1128.3 1023.64Z" fill="#955270"/>
<path d="M1237.96 1175.98C1237.96 1183.47 1231.72 1189.55 1224.03 1189.55C1216.34 1189.55 1210.11 1183.47 1210.11 1175.98C1210.11 1168.48 1216.34 1162.41 1224.03 1162.41C1231.72 1162.41 1237.96 1168.48 1237.96 1175.98Z" fill="#955270"/>
<path d="M1260.59 1165.47C1260.59 1173.93 1252.4 1180.79 1242.31 1180.79C1232.22 1180.79 1224.03 1173.93 1224.03 1165.47C1224.03 1157.01 1232.22 1150.15 1242.31 1150.15C1252.4 1150.15 1260.59 1157.01 1260.59 1165.47Z" fill="#F1DCBC"/>
<path d="M1136.17 1003.85C1127.84 1015.54 1116.27 1021.55 1110.33 1017.27C1104.39 1012.99 1106.33 1000.04 1114.66 988.343C1122.98 976.647 1134.55 970.637 1140.49 974.919C1146.43 979.2 1144.5 992.152 1136.17 1003.85Z" fill="#F1DCBC"/>
<path d="M943.049 1046.25C939.877 1057.91 924.34 1063.79 908.345 1059.39C892.35 1054.98 881.954 1041.96 885.126 1030.3C888.298 1018.64 903.836 1012.76 919.831 1017.16C935.826 1021.57 946.221 1034.59 943.049 1046.25Z" fill="#F1DCBC"/>
<path d="M1134.81 980.112C1137.81 982.132 1136.11 989.955 1131.02 997.585C1125.93 1005.21 1119.38 1009.76 1116.39 1007.74C1113.4 1005.72 1115.09 997.899 1120.18 990.269C1125.27 982.639 1131.82 978.092 1134.81 980.112Z" fill="#934B2C"/>
<path d="M1245.52 1155.27C1251.14 1154.86 1255.94 1158.03 1256.25 1162.35C1256.56 1166.68 1252.26 1170.51 1246.64 1170.92C1241.02 1171.32 1236.22 1168.15 1235.91 1163.83C1235.6 1159.51 1239.9 1155.67 1245.52 1155.27Z" fill="#934B2C"/>
<path d="M928.992 1038.96C928.992 1046.7 922.562 1052.97 914.631 1052.97C906.7 1052.97 900.271 1046.7 900.271 1038.96C900.271 1031.22 906.7 1024.95 914.631 1024.95C922.562 1024.95 928.992 1031.22 928.992 1038.96Z" fill="#934B2C"/>
<path d="M893.309 1123.45C897.139 1116.79 892.874 1112.8 890.263 1111.63C879.674 1117.03 859.192 1128.09 861.977 1129.14C864.762 1130.19 884.026 1125.78 893.309 1123.45Z" fill="#E6DFEF"/>
<path d="M937.261 1111.63C925.772 1105.32 920.579 1114.25 919.419 1119.51C920.289 1122.57 949.88 1146.65 950.315 1142.27C950.664 1138.77 941.757 1120.38 937.261 1111.63Z" fill="#E6DFEF"/>
<path d="M973.379 1084.49C961.891 1084.49 960.469 1093.24 961.195 1097.62C973.234 1102.29 997.139 1110.84 996.443 1107.69C995.747 1104.54 980.777 1090.91 973.379 1084.49Z" fill="#E6DFEF"/>
<path d="M987.304 1051.22C981.734 1055.07 983.823 1060.99 985.564 1063.47C996.153 1060.41 1016.72 1054.02 1014.28 1052.97C1011.85 1051.92 995.282 1051.36 987.304 1051.22Z" fill="#E6DFEF"/>
<path d="M1007.32 1017.95C1004.19 1018.3 994.122 1026.85 989.48 1031.08C993.31 1033.18 997.168 1036.92 998.619 1038.52C1002.83 1031.52 1010.46 1017.6 1007.32 1017.95Z" fill="#E6DFEF"/>
<path d="M976.86 1024.95C975.816 1090.09 913.471 1102.87 882.43 1101.12C882.43 1107.43 885.621 1121.55 887.216 1127.83C964.85 1144.64 999.634 1083.17 1007.32 1050.34C998.27 1033.53 983.242 1026.41 976.86 1024.95Z" fill="#893844"/>
<path d="M1050.84 1033.27C1061.86 1056.03 1095.4 1100.68 1141.35 1097.18" stroke="#8DADC9" stroke-width="4" stroke-linecap="round"/>
<path d="M895.486 1100.68C915.504 1101.27 959.194 1091.49 973.816 1047.71" stroke="#E798A4" stroke-width="4" stroke-linecap="round"/>
<path d="M857.626 1105.94C875.903 1096.74 861.393 1056 857.191 1055.16C855.015 1054.72 850.912 1054.6 845.441 1055.16C840.569 1055.65 835.868 1056.47 832.386 1057.78C833.402 1059.1 835.346 1063.82 836.738 1070.48C838.479 1078.79 830.646 1097.62 831.081 1102.43C831.516 1107.25 839.349 1115.13 857.626 1105.94Z" fill="#893844"/>
<path d="M848.709 1088C848.476 1089.08 849.162 1090.15 850.242 1090.38C851.322 1090.61 852.386 1089.93 852.619 1088.85L848.709 1088ZM843.45 1055.34C843.589 1056.87 844.312 1058.83 845.059 1060.82C845.849 1062.93 846.786 1065.36 847.604 1068.12C849.234 1073.64 850.355 1080.39 848.709 1088L852.619 1088.85C854.455 1080.35 853.182 1072.88 851.44 1066.99C850.572 1064.05 849.578 1061.48 848.804 1059.42C847.987 1057.24 847.513 1055.85 847.434 1054.98L843.45 1055.34Z" fill="#49151D"/>
<path d="M940.744 1178.17C913.328 1194.8 923.337 1226.76 931.17 1236.39L925.948 1293.74" stroke="#483229" stroke-width="4" stroke-linecap="round"/>
<path d="M852.093 1310.66C852.495 1309.63 851.986 1308.47 850.957 1308.07C849.929 1307.67 848.769 1308.18 848.367 1309.21L852.093 1310.66ZM935.209 1310.66C935.611 1309.63 935.103 1308.47 934.074 1308.07C933.045 1307.67 931.885 1308.18 931.483 1309.21L935.209 1310.66ZM869.499 1310.66C869.901 1309.63 869.393 1308.47 868.364 1308.07C867.335 1307.67 866.175 1308.18 865.773 1309.21L869.499 1310.66ZM918.238 1310.66C918.639 1309.63 918.131 1308.47 917.102 1308.07C916.073 1307.67 914.914 1308.18 914.512 1309.21L918.238 1310.66ZM1135.68 1308.92C1135.12 1307.97 1133.89 1307.65 1132.94 1308.21C1131.99 1308.77 1131.67 1310 1132.23 1310.95L1135.68 1308.92ZM1036.9 1308.48C1036.34 1307.53 1035.11 1307.21 1034.16 1307.77C1033.21 1308.33 1032.89 1309.56 1033.45 1310.51L1036.9 1308.48ZM1117.84 1308.92C1117.28 1307.97 1116.05 1307.65 1115.1 1308.21C1114.15 1308.77 1113.83 1310 1114.39 1310.95L1117.84 1308.92ZM1051.26 1308.48C1050.7 1307.53 1049.47 1307.21 1048.52 1307.77C1047.57 1308.33 1047.25 1309.56 1047.81 1310.51L1051.26 1308.48ZM854.406 1330.51C854.406 1329.2 853.872 1327.74 853.397 1326.49C852.872 1325.1 852.284 1323.67 851.801 1322.02C850.856 1318.81 850.391 1315.02 852.093 1310.66L848.367 1309.21C846.239 1314.65 846.862 1319.4 847.963 1323.15C848.502 1324.99 849.176 1326.63 849.657 1327.9C850.189 1329.31 850.406 1330.07 850.406 1330.51L854.406 1330.51ZM937.522 1330.51C937.522 1329.2 936.988 1327.74 936.514 1326.49C935.989 1325.1 935.4 1323.67 934.917 1322.02C933.972 1318.81 933.507 1315.02 935.209 1310.66L931.483 1309.21C929.356 1314.65 929.979 1319.4 931.079 1323.15C931.619 1324.99 932.292 1326.63 932.773 1327.9C933.305 1329.31 933.522 1330.07 933.522 1330.51L937.522 1330.51ZM871.812 1330.51C871.812 1329.2 871.278 1327.74 870.804 1326.49C870.279 1325.1 869.69 1323.67 869.207 1322.02C868.262 1318.81 867.797 1315.02 869.499 1310.66L865.773 1309.21C863.646 1314.65 864.269 1319.4 865.369 1323.15C865.909 1324.99 866.582 1326.63 867.064 1327.9C867.596 1329.31 867.812 1330.07 867.812 1330.51L871.812 1330.51ZM920.551 1330.51C920.551 1329.2 920.016 1327.74 919.542 1326.49C919.017 1325.1 918.429 1323.67 917.945 1322.02C917.001 1318.81 916.536 1315.02 918.238 1310.66L914.512 1309.21C912.384 1314.65 913.007 1319.4 914.108 1323.15C914.647 1324.99 915.321 1326.63 915.802 1327.9C916.334 1329.31 916.551 1330.07 916.551 1330.51L920.551 1330.51ZM1132.23 1310.95C1133.83 1313.67 1134.38 1315.85 1134.42 1317.63C1134.45 1319.4 1133.97 1320.92 1133.26 1322.33C1132.51 1323.8 1131.61 1325 1130.7 1326.37C1129.9 1327.58 1128.91 1329.17 1128.91 1330.95H1132.91C1132.91 1330.53 1133.17 1329.88 1134.03 1328.58C1134.78 1327.45 1135.94 1325.89 1136.83 1324.13C1137.75 1322.31 1138.47 1320.14 1138.42 1317.55C1138.37 1314.96 1137.56 1312.11 1135.68 1308.92L1132.23 1310.95ZM1033.45 1310.51C1035.05 1313.23 1035.6 1315.41 1035.64 1317.19C1035.67 1318.96 1035.19 1320.48 1034.48 1321.89C1033.73 1323.37 1032.83 1324.56 1031.92 1325.94C1031.12 1327.14 1030.13 1328.73 1030.13 1330.51H1034.13C1034.13 1330.09 1034.39 1329.45 1035.25 1328.15C1036 1327.01 1037.16 1325.45 1038.05 1323.7C1038.97 1321.88 1039.68 1319.7 1039.64 1317.11C1039.59 1314.52 1038.78 1311.67 1036.9 1308.48L1033.45 1310.51ZM1114.39 1310.95C1115.99 1313.67 1116.54 1315.85 1116.58 1317.63C1116.61 1319.4 1116.13 1320.92 1115.42 1322.33C1114.67 1323.8 1113.77 1325 1112.86 1326.37C1112.06 1327.58 1111.07 1329.17 1111.07 1330.95H1115.07C1115.07 1330.53 1115.33 1329.88 1116.19 1328.58C1116.94 1327.45 1118.1 1325.89 1118.99 1324.13C1119.91 1322.31 1120.62 1320.14 1120.58 1317.55C1120.53 1314.96 1119.72 1312.11 1117.84 1308.92L1114.39 1310.95ZM1047.81 1310.51C1049.41 1313.23 1049.96 1315.41 1050 1317.19C1050.03 1318.96 1049.55 1320.48 1048.84 1321.89C1048.09 1323.37 1047.19 1324.56 1046.28 1325.94C1045.48 1327.14 1044.49 1328.73 1044.49 1330.51H1048.49C1048.49 1330.09 1048.75 1329.45 1049.61 1328.15C1050.36 1327.01 1051.52 1325.45 1052.41 1323.7C1053.33 1321.88 1054.04 1319.7 1054 1317.11C1053.95 1314.52 1053.14 1311.67 1051.26 1308.48L1047.81 1310.51Z" fill="#7E6459"/>
</g>
<path d="M1213.2 494.354L1268.22 649.275L1278.38 661.974V543.455L1239.44 480.81L1155.63 444.407L1179.33 397L1126 452.873L1213.2 494.354Z" fill="#2B3535"/>
<path d="M23.8928 123H1.41602L1.41618 60.11L1.5001 59L1.41608 99.1972L1.41611 86.5756L1.41615 71.6217L1.41615 72.4369L1.41612 110.378H11.848V59H23.8928V123Z" fill="#89A3A3"/>
<path d="M104.784 123H32.75V59H79.3521V99.1972H56.9402V86.5756H67.2738V71.6217H44.7948V110.378H92.7054V59H104.784V123Z" fill="#89A3A3"/>
<path d="M185.639 123H113.605V59H160.208V99.1972H137.829V86.5756H148.129V71.6217H125.684V110.378H173.594V59H185.639V123Z" fill="#89A3A3"/>
<path d="M266.532 123H194.498V59H241.067V99.1972H218.688V86.5756H229.022V71.6217H206.543V110.378H254.453V59H266.532V123Z" fill="#89A3A3"/>
<path d="M347.389 123H275.355V59H321.958V99.1972H299.579V86.5756H309.879V71.6217H287.4V110.378H335.344V59H347.389V123Z" fill="#89A3A3"/>
<path d="M428.245 123H356.211V59H402.813V99.1972H380.435V86.5756H390.768V71.6217H368.289V110.378H416.2V59H428.245V123Z" fill="#89A3A3"/>
<path d="M526.454 123H454.42V59H500.988V99.1972H478.61V86.5756H488.944V71.6217H466.465V110.378H514.375V59H526.454V123Z" fill="#89A3A3"/>
<path d="M607.31 123H535.276V59H581.878V99.1972H559.467V86.5756H569.8V71.6217H547.321V110.378H595.265V59H607.31V123Z" fill="#89A3A3"/>
<path d="M688.173 123H616.14V59H662.742V99.1972H640.363V86.5756H650.697V71.6217H628.218V110.378H676.129V59H688.173V123Z" fill="#89A3A3"/>
<path d="M769.059 123H697.025V59H743.594V99.1972H721.216V86.5756H731.549V71.6217H709.07V110.378H756.981V59H769.059V123Z" fill="#89A3A3"/>
<path d="M849.915 123H777.882V59H824.484V99.1972H802.072V86.5756H812.406V71.6217H789.96V110.378H837.837V59H849.915V123Z" fill="#89A3A3"/>
<path d="M930.772 123H858.738V59H905.34V99.1972H882.962V86.5756H893.296V71.6217H870.817V110.378H918.727V59H930.772V123Z" fill="#89A3A3"/>
<path d="M1011.66 123H939.631V59H986.199V99.1972H963.821V86.5756H974.155V71.6217H951.676V110.378H999.586V59H1011.66V123Z" fill="#89A3A3"/>
<path d="M1109.87 123H1037.84V59H1084.41V99.1972H1062.03V86.5756H1072.36V71.6217H1049.88V110.378H1097.8V59H1109.87V123Z" fill="#89A3A3"/>
<path d="M1190.73 123H1118.7V59H1165.3V99.1972H1142.92V86.5756H1153.22V71.6217H1130.77V110.378H1178.69V59H1190.73V123Z" fill="#89A3A3"/>
<path d="M1271.62 123H1199.59V59H1246.16V99.1972H1223.78V86.5756H1234.11V71.6217H1211.63V110.378H1259.54V59H1271.62V123Z" fill="#89A3A3"/>
<path d="M1291 123H1280.45V59H1291V99.7035V87.25V71.6217V110.5V115.5V59V123Z" fill="#89A3A3"/>
<path d="M50.2446 1396H0.5V1332H24.813V1372.2H2.43465V1359.58H12.7683V1344.62H0.5V1383.38H38.1999V1332H50.2446V1396Z" fill="#89A3A3"/>
<path d="M148.454 1396H76.4199V1332H122.988V1372.2H100.61V1359.58H110.944V1344.62H88.4647V1383.38H136.375V1332H148.454V1396Z" fill="#89A3A3"/>
<path d="M229.311 1396H157.277V1332H203.879V1372.2H181.468V1359.58H191.801V1344.62H169.322V1383.38H217.266V1332H229.311V1396Z" fill="#89A3A3"/>
<path d="M310.174 1396H238.141V1332H284.743V1372.2H262.364V1359.58H272.698V1344.62H250.219V1383.38H298.13V1332H310.174V1396Z" fill="#89A3A3"/>
<path d="M391.059 1396H319.025V1332H365.594V1372.2H343.216V1359.58H353.549V1344.62H331.07V1383.38H378.981V1332H391.059V1396Z" fill="#89A3A3"/>
<path d="M471.915 1396H399.881V1332H446.483V1372.2H424.071V1359.58H434.405V1344.62H411.959V1383.38H459.836V1332H471.915V1396Z" fill="#89A3A3"/>
<path d="M552.772 1396H480.738V1332H527.34V1372.2H504.962V1359.58H515.296V1344.62H492.817V1383.38H540.727V1332H552.772V1396Z" fill="#89A3A3"/>
<path d="M633.665 1396H561.631V1332H608.199V1372.2H585.821V1359.58H596.155V1344.62H573.676V1383.38H621.586V1332H633.665V1396Z" fill="#89A3A3"/>
<path d="M731.873 1396H659.84V1332H706.408V1372.2H684.03V1359.58H694.364V1344.62H671.885V1383.38H719.795V1332H731.873V1396Z" fill="#89A3A3"/>
<path d="M812.73 1396H740.696V1332H787.298V1372.2H764.92V1359.58H775.22V1344.62H752.775V1383.38H800.685V1332H812.73V1396Z" fill="#89A3A3"/>
<path d="M893.623 1396H821.589V1332H868.157V1372.2H845.779V1359.58H856.113V1344.62H833.634V1383.38H881.544V1332H893.623V1396Z" fill="#89A3A3"/>
<path d="M974.479 1396H902.445V1332H949.047V1372.2H926.636V1359.58H936.969V1344.62H914.524V1383.38H962.401V1332H974.479V1396Z" fill="#89A3A3"/>
<path d="M1055.34 1396H983.309V1332H1029.91V1372.2H1007.53V1359.58H1017.87V1344.62H995.387V1383.38H1043.3V1332H1055.34V1396Z" fill="#89A3A3"/>
<path d="M1136.23 1396H1064.19V1332H1110.76V1372.2H1088.38V1359.58H1098.72V1344.62H1076.24V1383.38H1124.15V1332H1136.23V1396Z" fill="#89A3A3"/>
<path d="M1217.08 1396H1145.05V1332H1191.65V1372.2H1169.27V1359.58H1179.57V1344.62H1157.13V1383.38H1205.04V1332H1217.08V1396Z" fill="#89A3A3"/>
<path d="M1290.6 1396H1244V1332H1290.6V1372.2H1268.22V1359.58H1278.52V1344.62H1256.08V1383.38H1290.6L1291 1332H1290.6V1396Z" fill="#89A3A3"/>
<defs>
<clipPath id="clip0_5001_4">
<rect width="1290" height="1516" fill="white" transform="translate(1)"/>
</clipPath>
</defs>
</svg>
