<svg width="1280" height="1516" viewBox="0 0 1280 1516" fill="none" xmlns="http://www.w3.org/2000/svg">
<g clip-path="url(#clip0_194_380)">
<rect width="1290" height="1516" transform="translate(-6)" fill="#384646"/>
<path d="M735.815 147.052L608 -9.05078L651.169 -0.0448399L739.201 139.547L815.382 129.04L857.705 207.092L815.382 147.052H735.815Z" fill="#2B3535"/>
<path d="M69.4134 1258.34L-5.92126 1330.39L-11 1373.92L79.5709 1267.35L49.9449 1168.29L69.4134 1139.77L38.9409 1168.29L69.4134 1258.34Z" fill="#2B3535"/>
<path d="M733 1018.08C733 1026.14 744.604 1037.22 750.842 1042.04C755.649 1040.07 760.945 1038.39 766.234 1037.61C761.81 1034.02 758.003 1030.93 755.628 1029.46C754.135 1028.54 752.55 1027.19 750.843 1025.73C746.083 1021.67 740.366 1016.79 733 1018.08Z" fill="#18061E"/>
<path d="M733 1051.35C746.345 1056.46 780.346 1064.13 809.589 1053.98C803.641 1054.85 789.745 1055.2 781.738 1049.6C776.536 1045.96 771.023 1041.49 766.234 1037.61C760.945 1038.39 755.649 1040.07 750.842 1042.04C742.677 1045.38 735.922 1049.51 733 1051.35Z" fill="#824162"/>
<path fill-rule="evenodd" clip-rule="evenodd" d="M781.738 986.495C783.914 989.578 788.527 996.096 789.571 997.496C790.877 999.248 787.831 1001.44 781.738 1002.31C779.189 1002.68 772.525 1002.28 765.382 1001.85C755.453 1001.25 744.598 1000.6 742.574 1001.87C739.789 1003.63 738.702 1001.14 738.506 999.685C735.257 1005.9 733 1012.95 733 1018.08C740.366 1016.79 746.083 1021.67 750.843 1025.73C752.55 1027.19 754.135 1028.54 755.628 1029.46C758.003 1030.93 761.81 1034.02 766.234 1037.61C771.023 1041.49 776.536 1045.96 781.738 1049.6C789.745 1055.2 803.641 1054.85 809.589 1053.98C780.346 1064.13 746.345 1056.46 733 1051.35V1057.48C735.611 1081.99 791.747 1085.06 809.589 1085.93C823.862 1086.63 827.14 1097.02 826.995 1102.13C906.369 1103.53 923.311 1051.64 921.861 1025.52L916.639 1021.15C919.25 1014.14 920.555 992.691 916.639 990.94C913.506 989.539 894.736 995.61 885.742 998.82C884.212 997.574 882.613 996.399 880.956 995.293C873.833 990.539 865.656 987.064 857.457 984.768C844.774 981.215 832.039 980.48 823.079 982.185C819.921 982.786 817.316 983.32 815.023 983.789C805.625 985.714 801.482 986.563 786.09 986.563C784.581 986.563 783.132 986.538 781.738 986.495Z" fill="#060E1D"/>
<path d="M879.215 973.42C873.993 973.069 862.534 980.839 857.457 984.768C865.656 987.064 873.833 990.539 880.956 995.293C882.551 988.148 884.437 973.77 879.215 973.42Z" fill="#18061E"/>
<path d="M1146.39 967.291L1156.41 966.415L1150.32 958.192C1149.07 961.153 1147.76 964.194 1146.39 967.291Z" fill="#FEEED5"/>
<path d="M1156.68 942.338L1166.42 941.901L1159.72 934.021C1158.81 936.616 1157.79 939.4 1156.68 942.338Z" fill="#FEEDD5"/>
<path d="M767.665 985.473C759.774 984.691 754.329 984.152 749.536 986.563C745.692 988.496 741.638 993.698 738.506 999.685C738.702 1001.14 739.789 1003.63 742.574 1001.87C744.598 1000.6 755.453 1001.25 765.382 1001.85C772.525 1002.28 779.189 1002.68 781.738 1002.31C787.831 1001.44 790.877 999.248 789.571 997.496C788.527 996.096 783.914 989.578 781.738 986.495C776.267 986.326 771.654 985.868 767.665 985.473Z" fill="#934B2C"/>
<path d="M1144.23 908.193C1141.76 911.111 1136.92 917.211 1137.27 918.262C1137.7 919.575 1150.32 918.262 1151.19 916.51C1152.06 914.759 1144.66 907.674 1144.23 908.193Z" fill="#934B2C"/>
<path d="M1221.25 1181.79C1225.6 1181.21 1234.83 1180.39 1236.92 1181.79C1239.53 1183.55 1229.96 1193.18 1229.09 1193.61C1228.22 1194.05 1221.25 1189.67 1221.25 1181.79Z" fill="#934B2C"/>
<path d="M1138.14 1137.14C1145.1 1136.41 1160.68 1136 1167.29 1140.21C1175.56 1145.46 1150.32 1178.29 1135.96 1180.92C1121.6 1183.55 1121.17 1160.34 1123.78 1156.4C1124.43 1155.41 1125.12 1153.92 1125.91 1152.19C1128.28 1147.04 1131.62 1139.76 1138.14 1137.14Z" fill="#915F4A"/>
<path fill-rule="evenodd" clip-rule="evenodd" d="M831.782 1128.4C860.358 1135.55 924.472 1130.15 952.322 1051.35C956.819 1058.36 968.075 1069.39 977.127 1057.48C988.21 1086.23 1025.31 1138.82 1085.05 1119.2C1097.81 1121.83 1124.82 1128.4 1130.74 1133.65C1135.24 1131.17 1147.88 1126.65 1162.51 1128.4C1177.13 1130.15 1218.21 1146.93 1236.92 1155.1C1247.65 1169.84 1261.46 1205.01 1230.83 1227.77C1200.19 1250.53 1109.27 1248.93 1067.64 1245.28C1061.4 1257.25 1051.63 1283.37 1062.42 1292.12C1071.7 1292.85 1090.79 1296.32 1092.88 1304.38C1095.49 1314.45 1091.57 1330.21 1085.05 1331.96L1013.68 1331.52C1014.55 1328.02 1017.16 1263.67 1016.29 1254.47C1015.79 1249.15 1006.91 1248.78 999.89 1248.48C997.205 1248.36 994.793 1248.26 993.228 1247.9L992.981 1248.39C986.533 1261.21 980.034 1274.14 982.784 1292.12C990.617 1291.97 1009.76 1304.38 1007.59 1331.52H943.184C944.823 1327.12 946.229 1311.33 947.625 1295.63C948.453 1286.33 949.278 1277.06 950.146 1270.22C951.521 1259.39 950.308 1244.99 950.146 1243.53C949.822 1240.59 933.527 1242.03 923.094 1242.96C919.537 1243.27 916.661 1243.53 915.333 1243.53C913.056 1243.53 912.115 1258.46 910.958 1276.82C910.712 1280.73 910.455 1284.8 910.174 1288.91C908.794 1309.09 908.804 1327.16 908.806 1330.97L899.668 1331.52H849.624C847.276 1328.92 844.439 1312.89 849.624 1304.37C852.364 1299.86 858.017 1298.23 862.875 1296.82C865.863 1295.95 868.55 1295.18 870.076 1293.87L872.252 1270.22L874.428 1243.53H849.624C848.753 1263.96 843.967 1300.87 841.791 1314L839.18 1331.52H786.09C772.513 1315.42 781.883 1302.05 788.266 1297.37C793.053 1296.5 810.894 1286.43 811.765 1283.8C812.635 1281.18 817.857 1216.83 816.116 1204.13C814.724 1193.97 825.98 1149.41 831.782 1128.4ZM1092.44 1096.88C1124.5 1064.19 1186.7 998.295 1179.04 996.193C1171.94 994.244 1150.21 1008.94 1133.78 1020.04C1128.08 1023.9 1123.01 1027.32 1119.42 1029.46C1108.28 1036.12 1110.43 1032.24 1112.9 1029.46C1125.72 1010.4 1137.36 987.62 1146.39 967.291C1147.76 964.194 1149.07 961.153 1150.32 958.192C1152.69 952.574 1154.82 947.24 1156.68 942.338C1157.79 939.4 1158.81 936.616 1159.72 934.021C1163.18 924.15 1165.12 916.997 1165.12 914.332C1165.12 905.139 1159.02 899.886 1141.62 899.01C1127.69 898.31 1083.6 934.031 1063.29 951.979L1050.23 941.035C1052.7 946.872 1056.76 958.808 1053.28 959.859C1049.8 960.91 1037.9 971.97 1032.39 977.37L1018.9 971.241L1028.48 986.563C1026.59 988.022 1020.82 993.041 1012.81 1001.45C1007.35 1007.18 1000.59 1018.91 993.736 1030.81C1005.23 1055.46 1041.06 1103.19 1092.44 1096.88ZM1144.23 908.193C1141.76 911.111 1136.92 917.211 1137.27 918.262C1137.7 919.575 1150.32 918.262 1151.19 916.51C1152.06 914.759 1144.66 907.674 1144.23 908.193ZM1138.14 1137.14C1145.1 1136.41 1160.68 1136 1167.29 1140.21C1175.56 1145.46 1150.32 1178.29 1135.96 1180.92C1121.6 1183.55 1121.17 1160.34 1123.78 1156.4C1124.43 1155.41 1125.12 1153.92 1125.91 1152.19C1128.28 1147.04 1131.62 1139.76 1138.14 1137.14ZM1221.25 1181.79C1225.6 1181.21 1234.83 1180.39 1236.92 1181.79C1239.53 1183.55 1229.96 1193.18 1229.09 1193.61C1228.22 1194.05 1221.25 1189.67 1221.25 1181.79Z" fill="#060E1D"/>
<path d="M1085.05 1119.2L1092.44 1096.88C1041.06 1103.19 1005.23 1055.46 993.736 1030.81C988.033 1040.71 982.266 1050.72 977.127 1057.48C988.21 1086.23 1025.31 1138.82 1085.05 1119.2Z" fill="#354553"/>
<path d="M899.231 1064.91C899.231 1072.41 891.243 1078.48 881.39 1078.48C871.536 1078.48 863.548 1072.41 863.548 1064.91C863.548 1057.42 871.536 1051.34 881.39 1051.34C891.243 1051.34 899.231 1057.42 899.231 1064.91Z" fill="#955270"/>
<path d="M1073.3 1024.64C1073.3 1032.13 1067.06 1038.21 1059.37 1038.21C1051.68 1038.21 1045.45 1032.13 1045.45 1024.64C1045.45 1017.14 1051.68 1011.07 1059.37 1011.07C1067.06 1011.07 1073.3 1017.14 1073.3 1024.64Z" fill="#955270"/>
<path d="M1182.96 1176.98C1182.96 1184.47 1176.72 1190.55 1169.03 1190.55C1161.34 1190.55 1155.11 1184.47 1155.11 1176.98C1155.11 1169.48 1161.34 1163.41 1169.03 1163.41C1176.72 1163.41 1182.96 1169.48 1182.96 1176.98Z" fill="#955270"/>
<path d="M1205.59 1166.47C1205.59 1174.93 1197.4 1181.79 1187.31 1181.79C1177.22 1181.79 1169.03 1174.93 1169.03 1166.47C1169.03 1158.01 1177.22 1151.15 1187.31 1151.15C1197.4 1151.15 1205.59 1158.01 1205.59 1166.47Z" fill="#F1DCBC"/>
<path d="M1081.17 1004.85C1072.84 1016.54 1061.27 1022.55 1055.33 1018.27C1049.39 1013.99 1051.33 1001.04 1059.66 989.343C1067.98 977.647 1079.55 971.637 1085.49 975.919C1091.43 980.2 1089.5 993.152 1081.17 1004.85Z" fill="#F1DCBC"/>
<path d="M888.049 1047.25C884.877 1058.91 869.34 1064.79 853.345 1060.39C837.35 1055.98 826.954 1042.96 830.126 1031.3C833.298 1019.64 848.836 1013.76 864.831 1018.16C880.826 1022.57 891.221 1035.59 888.049 1047.25Z" fill="#F1DCBC"/>
<path d="M1079.81 981.112C1082.81 983.132 1081.11 990.955 1076.02 998.585C1070.93 1006.21 1064.38 1010.76 1061.39 1008.74C1058.4 1006.72 1060.09 998.899 1065.18 991.269C1070.27 983.639 1076.82 979.092 1079.81 981.112Z" fill="#934B2C"/>
<path d="M1190.52 1156.27C1196.14 1155.86 1200.94 1159.03 1201.25 1163.35C1201.56 1167.68 1197.26 1171.51 1191.64 1171.92C1186.02 1172.32 1181.22 1169.15 1180.91 1164.83C1180.6 1160.51 1184.9 1156.67 1190.52 1156.27Z" fill="#934B2C"/>
<path d="M873.992 1039.96C873.992 1047.7 867.562 1053.97 859.631 1053.97C851.7 1053.97 845.271 1047.7 845.271 1039.96C845.271 1032.22 851.7 1025.95 859.631 1025.95C867.562 1025.95 873.992 1032.22 873.992 1039.96Z" fill="#934B2C"/>
<path d="M838.309 1124.45C842.139 1117.79 837.874 1113.8 835.263 1112.63C824.674 1118.03 804.192 1129.09 806.977 1130.14C809.762 1131.19 829.026 1126.78 838.309 1124.45Z" fill="#E6DFEF"/>
<path d="M882.261 1112.63C870.772 1106.32 865.579 1115.25 864.419 1120.51C865.289 1123.57 894.88 1147.65 895.315 1143.27C895.664 1139.77 886.757 1121.38 882.261 1112.63Z" fill="#E6DFEF"/>
<path d="M918.379 1085.49C906.891 1085.49 905.469 1094.24 906.195 1098.62C918.234 1103.29 942.139 1111.84 941.443 1108.69C940.747 1105.54 925.777 1091.91 918.379 1085.49Z" fill="#E6DFEF"/>
<path d="M932.304 1052.22C926.734 1056.07 928.823 1061.99 930.564 1064.47C941.153 1061.41 961.721 1055.02 959.284 1053.97C956.848 1052.92 940.282 1052.36 932.304 1052.22Z" fill="#E6DFEF"/>
<path d="M952.322 1018.95C949.189 1019.3 939.122 1027.85 934.48 1032.08C938.31 1034.18 942.168 1037.92 943.619 1039.52C947.825 1032.52 955.455 1018.6 952.322 1018.95Z" fill="#E6DFEF"/>
<path d="M921.86 1025.95C920.816 1091.09 858.471 1103.87 827.43 1102.12C827.43 1108.43 830.621 1122.55 832.216 1128.82C909.85 1145.63 944.634 1084.17 952.322 1051.34C943.27 1034.53 928.242 1027.41 921.86 1025.95Z" fill="#893844"/>
<path d="M995.837 1034.27C1006.86 1057.03 1040.4 1101.68 1086.35 1098.18" stroke="#8DADC9" stroke-width="4" stroke-linecap="round"/>
<path d="M840.486 1101.68C860.504 1102.27 904.194 1092.49 918.816 1048.71" stroke="#E798A4" stroke-width="4" stroke-linecap="round"/>
<path d="M802.626 1106.94C820.903 1097.74 806.393 1057 802.191 1056.16C800.015 1055.72 795.912 1055.6 790.441 1056.16C785.569 1056.65 780.868 1057.47 777.386 1058.78C778.402 1060.1 780.346 1064.82 781.738 1071.48C783.479 1079.8 775.646 1098.62 776.081 1103.43C776.516 1108.25 784.349 1116.13 802.626 1106.94Z" fill="#893844"/>
<path d="M793.709 1089C793.476 1090.08 794.162 1091.15 795.242 1091.38C796.322 1091.61 797.386 1090.93 797.619 1089.85L793.709 1089ZM788.45 1056.34C788.589 1057.87 789.312 1059.83 790.059 1061.82C790.849 1063.93 791.786 1066.36 792.604 1069.12C794.234 1074.64 795.355 1081.39 793.709 1089L797.619 1089.85C799.455 1081.35 798.182 1073.88 796.44 1067.99C795.572 1065.06 794.578 1062.48 793.804 1060.42C792.987 1058.24 792.513 1056.85 792.434 1055.98L788.45 1056.34Z" fill="#49151D"/>
<path d="M885.744 1179.17C858.328 1195.8 868.337 1227.76 876.17 1237.39L870.948 1294.74" stroke="#483229" stroke-width="4" stroke-linecap="round"/>
<path d="M797.093 1311.66C797.495 1310.63 796.986 1309.47 795.957 1309.07C794.929 1308.67 793.769 1309.18 793.367 1310.21L797.093 1311.66ZM880.209 1311.66C880.611 1310.63 880.103 1309.47 879.074 1309.07C878.045 1308.67 876.885 1309.18 876.483 1310.21L880.209 1311.66ZM814.499 1311.66C814.901 1310.63 814.393 1309.47 813.364 1309.07C812.335 1308.67 811.175 1309.18 810.773 1310.21L814.499 1311.66ZM863.238 1311.66C863.639 1310.63 863.131 1309.47 862.102 1309.07C861.073 1308.67 859.914 1309.18 859.512 1310.21L863.238 1311.66ZM1080.68 1309.92C1080.12 1308.97 1078.89 1308.65 1077.94 1309.21C1076.99 1309.77 1076.67 1311 1077.23 1311.95L1080.68 1309.92ZM981.898 1309.48C981.337 1308.53 980.111 1308.21 979.159 1308.77C978.207 1309.33 977.89 1310.56 978.451 1311.51L981.898 1309.48ZM1062.84 1309.92C1062.28 1308.97 1061.05 1308.65 1060.1 1309.21C1059.15 1309.77 1058.83 1311 1059.39 1311.95L1062.84 1309.92ZM996.258 1309.48C995.697 1308.53 994.471 1308.21 993.52 1308.77C992.568 1309.33 992.251 1310.56 992.811 1311.51L996.258 1309.48ZM799.406 1331.51C799.406 1330.2 798.872 1328.74 798.397 1327.49C797.872 1326.1 797.284 1324.67 796.801 1323.02C795.856 1319.81 795.391 1316.02 797.093 1311.66L793.367 1310.21C791.239 1315.65 791.862 1320.4 792.963 1324.15C793.502 1325.99 794.176 1327.63 794.657 1328.9C795.189 1330.31 795.406 1331.07 795.406 1331.51L799.406 1331.51ZM882.522 1331.51C882.522 1330.2 881.988 1328.74 881.514 1327.49C880.989 1326.1 880.4 1324.67 879.917 1323.02C878.972 1319.81 878.507 1316.02 880.209 1311.66L876.483 1310.21C874.356 1315.65 874.979 1320.4 876.079 1324.15C876.619 1325.99 877.292 1327.63 877.773 1328.9C878.305 1330.31 878.522 1331.07 878.522 1331.51L882.522 1331.51ZM816.812 1331.51C816.812 1330.2 816.278 1328.74 815.804 1327.49C815.279 1326.1 814.69 1324.67 814.207 1323.02C813.262 1319.81 812.797 1316.02 814.499 1311.66L810.773 1310.21C808.646 1315.65 809.269 1320.4 810.369 1324.15C810.909 1325.99 811.582 1327.63 812.064 1328.9C812.596 1330.31 812.812 1331.07 812.812 1331.51L816.812 1331.51ZM865.551 1331.51C865.551 1330.2 865.016 1328.74 864.542 1327.49C864.017 1326.1 863.429 1324.67 862.945 1323.02C862.001 1319.81 861.536 1316.02 863.238 1311.66L859.512 1310.21C857.384 1315.65 858.007 1320.4 859.108 1324.15C859.647 1325.99 860.321 1327.63 860.802 1328.9C861.334 1330.31 861.551 1331.07 861.551 1331.51L865.551 1331.51ZM1077.23 1311.95C1078.83 1314.67 1079.38 1316.85 1079.42 1318.63C1079.45 1320.4 1078.97 1321.92 1078.26 1323.33C1077.51 1324.8 1076.61 1326 1075.7 1327.37C1074.9 1328.58 1073.91 1330.17 1073.91 1331.95H1077.91C1077.91 1331.53 1078.17 1330.88 1079.03 1329.58C1079.78 1328.45 1080.94 1326.89 1081.83 1325.13C1082.75 1323.31 1083.47 1321.14 1083.42 1318.55C1083.37 1315.96 1082.56 1313.11 1080.68 1309.92L1077.23 1311.95ZM978.451 1311.51C980.052 1314.23 980.603 1316.41 980.636 1318.19C980.669 1319.96 980.189 1321.48 979.477 1322.89C978.732 1324.37 977.826 1325.56 976.916 1326.94C976.119 1328.14 975.128 1329.73 975.128 1331.51H979.128C979.128 1331.09 979.389 1330.45 980.25 1329.15C981 1328.01 982.161 1326.45 983.047 1324.7C983.967 1322.88 984.684 1320.7 984.635 1318.11C984.587 1315.52 983.778 1312.67 981.898 1309.48L978.451 1311.51ZM1059.39 1311.95C1060.99 1314.67 1061.54 1316.85 1061.58 1318.63C1061.61 1320.4 1061.13 1321.92 1060.42 1323.33C1059.67 1324.8 1058.77 1326 1057.86 1327.37C1057.06 1328.58 1056.07 1330.17 1056.07 1331.95H1060.07C1060.07 1331.53 1060.33 1330.88 1061.19 1329.58C1061.94 1328.45 1063.1 1326.89 1063.99 1325.13C1064.91 1323.31 1065.62 1321.14 1065.58 1318.55C1065.53 1315.96 1064.72 1313.11 1062.84 1309.92L1059.39 1311.95ZM992.811 1311.51C994.412 1314.23 994.963 1316.41 994.996 1318.19C995.03 1319.96 994.55 1321.48 993.838 1322.89C993.092 1324.37 992.186 1325.56 991.276 1326.94C990.479 1328.14 989.489 1329.73 989.489 1331.51H993.489C993.489 1331.09 993.749 1330.45 994.611 1329.15C995.36 1328.01 996.521 1326.45 997.408 1324.7C998.327 1322.88 999.044 1320.7 998.996 1318.11C998.947 1315.52 998.138 1312.67 996.258 1309.48L992.811 1311.51Z" fill="#7E6459"/>
</g>
<path d="M1206.2 494.354L1261.22 649.275L1271.38 661.974V543.455L1232.44 480.81L1148.63 444.407L1172.33 397L1119 452.873L1206.2 494.354Z" fill="#2B3535"/>
<path d="M16.8927 123H-55.1074V59H-8.53885V99.1972H-30.9173V86.5756H-20.5836V71.6217H-43.0627V110.378H4.84792V59H16.8927V123Z" fill="#89A3A3"/>
<path d="M97.7837 123H25.75V59H72.3521V99.1972H49.9402V86.5756H60.2738V71.6217H37.7948V110.378H85.7054V59H97.7837V123Z" fill="#89A3A3"/>
<path d="M178.639 123H106.605V59H153.208V99.1972H130.829V86.5756H141.129V71.6217H118.684V110.378H166.594V59H178.639V123Z" fill="#89A3A3"/>
<path d="M259.532 123H187.498V59H234.067V99.1972H211.688V86.5756H222.022V71.6217H199.543V110.378H247.453V59H259.532V123Z" fill="#89A3A3"/>
<path d="M340.389 123H268.355V59H314.958V99.1972H292.579V86.5756H302.879V71.6217H280.4V110.378H328.344V59H340.389V123Z" fill="#89A3A3"/>
<path d="M421.245 123H349.211V59H395.813V99.1972H373.435V86.5756H383.768V71.6217H361.289V110.378H409.2V59H421.245V123Z" fill="#89A3A3"/>
<path d="M519.454 123H447.42V59H493.988V99.1972H471.61V86.5756H481.944V71.6217H459.465V110.378H507.375V59H519.454V123Z" fill="#89A3A3"/>
<path d="M600.31 123H528.276V59H574.878V99.1972H552.467V86.5756H562.8V71.6217H540.321V110.378H588.265V59H600.31V123Z" fill="#89A3A3"/>
<path d="M681.173 123H609.14V59H655.742V99.1972H633.363V86.5756H643.697V71.6217H621.218V110.378H669.129V59H681.173V123Z" fill="#89A3A3"/>
<path d="M762.059 123H690.025V59H736.594V99.1972H714.216V86.5756H724.549V71.6217H702.07V110.378H749.981V59H762.059V123Z" fill="#89A3A3"/>
<path d="M842.915 123H770.882V59H817.484V99.1972H795.072V86.5756H805.406V71.6217H782.96V110.378H830.837V59H842.915V123Z" fill="#89A3A3"/>
<path d="M923.772 123H851.738V59H898.34V99.1972H875.962V86.5756H886.296V71.6217H863.817V110.378H911.727V59H923.772V123Z" fill="#89A3A3"/>
<path d="M1004.66 123H932.631V59H979.199V99.1972H956.821V86.5756H967.155V71.6217H944.676V110.378H992.586V59H1004.66V123Z" fill="#89A3A3"/>
<path d="M1102.87 123H1030.84V59H1077.41V99.1972H1055.03V86.5756H1065.36V71.6217H1042.88V110.378H1090.8V59H1102.87V123Z" fill="#89A3A3"/>
<path d="M1183.73 123H1111.7V59H1158.3V99.1972H1135.92V86.5756H1146.22V71.6217H1123.77V110.378H1171.69V59H1183.73V123Z" fill="#89A3A3"/>
<path d="M1264.62 123H1192.59V59H1239.16V99.1972H1216.78V86.5756H1227.11V71.6217H1204.63V110.378H1252.54V59H1264.62V123Z" fill="#89A3A3"/>
<path d="M1345.48 123H1273.45V59H1320.05V99.1972H1297.64V86.5756H1307.97V71.6217H1285.52V110.378H1333.4V59H1345.48V123Z" fill="#89A3A3"/>
<path d="M43.2446 1396H-28.7891V1332H17.813V1372.2H-4.56535V1359.58H5.76831V1344.62H-16.7108V1383.38H31.1999V1332H43.2446V1396Z" fill="#89A3A3"/>
<path d="M141.454 1396H69.4199V1332H115.988V1372.2H93.61V1359.58H103.944V1344.62H81.4647V1383.38H129.375V1332H141.454V1396Z" fill="#89A3A3"/>
<path d="M222.311 1396H150.277V1332H196.879V1372.2H174.468V1359.58H184.801V1344.62H162.322V1383.38H210.266V1332H222.311V1396Z" fill="#89A3A3"/>
<path d="M303.174 1396H231.141V1332H277.743V1372.2H255.364V1359.58H265.698V1344.62H243.219V1383.38H291.13V1332H303.174V1396Z" fill="#89A3A3"/>
<path d="M384.059 1396H312.025V1332H358.594V1372.2H336.216V1359.58H346.549V1344.62H324.07V1383.38H371.981V1332H384.059V1396Z" fill="#89A3A3"/>
<path d="M464.915 1396H392.881V1332H439.483V1372.2H417.071V1359.58H427.405V1344.62H404.959V1383.38H452.836V1332H464.915V1396Z" fill="#89A3A3"/>
<path d="M545.772 1396H473.738V1332H520.34V1372.2H497.962V1359.58H508.296V1344.62H485.817V1383.38H533.727V1332H545.772V1396Z" fill="#89A3A3"/>
<path d="M626.665 1396H554.631V1332H601.199V1372.2H578.821V1359.58H589.155V1344.62H566.676V1383.38H614.586V1332H626.665V1396Z" fill="#89A3A3"/>
<path d="M724.873 1396H652.84V1332H699.408V1372.2H677.03V1359.58H687.364V1344.62H664.885V1383.38H712.795V1332H724.873V1396Z" fill="#89A3A3"/>
<path d="M805.73 1396H733.696V1332H780.298V1372.2H757.92V1359.58H768.22V1344.62H745.775V1383.38H793.685V1332H805.73V1396Z" fill="#89A3A3"/>
<path d="M886.623 1396H814.589V1332H861.157V1372.2H838.779V1359.58H849.113V1344.62H826.634V1383.38H874.544V1332H886.623V1396Z" fill="#89A3A3"/>
<path d="M967.479 1396H895.445V1332H942.047V1372.2H919.636V1359.58H929.969V1344.62H907.524V1383.38H955.401V1332H967.479V1396Z" fill="#89A3A3"/>
<path d="M1048.34 1396H976.309V1332H1022.91V1372.2H1000.53V1359.58H1010.87V1344.62H988.387V1383.38H1036.3V1332H1048.34V1396Z" fill="#89A3A3"/>
<path d="M1129.23 1396H1057.19V1332H1103.76V1372.2H1081.38V1359.58H1091.72V1344.62H1069.24V1383.38H1117.15V1332H1129.23V1396Z" fill="#89A3A3"/>
<path d="M1210.08 1396H1138.05V1332H1184.65V1372.2H1162.27V1359.58H1172.57V1344.62H1150.13V1383.38H1198.04V1332H1210.08V1396Z" fill="#89A3A3"/>
<path d="M1308.29 1396H1236.26V1332H1282.86V1372.2H1260.48V1359.58H1270.78V1344.62H1248.34V1383.38H1296.25V1332H1308.29V1396Z" fill="#89A3A3"/>
<defs>
<clipPath id="clip0_194_380">
<rect width="1290" height="1516" fill="white" transform="translate(-6)"/>
</clipPath>
</defs>
</svg>
