<svg width="375" height="812" viewBox="0 0 375 812" fill="none" xmlns="http://www.w3.org/2000/svg">
<g clip-path="url(#clip0_5077_402)">
<rect width="375" height="812" rx="20" fill="#191642"/>
<g clip-path="url(#clip1_5077_402)">
<rect width="1000" height="1000" transform="translate(-312 -94)" fill="#12011A"/>
<g clip-path="url(#clip2_5077_402)">
<circle cx="73.7799" cy="613.907" r="0.65311" fill="white"/>
<circle cx="299.138" cy="208.616" r="0.941673" fill="white"/>
<circle cx="120.835" cy="259.779" r="0.585119" fill="white"/>
<circle cx="66.8562" cy="596.384" r="0.936533" fill="white"/>
<circle cx="133.513" cy="624.345" r="0.642973" fill="white"/>
<circle cx="80.0404" cy="405.666" r="0.590241" fill="white"/>
<circle cx="309.464" cy="321.535" r="0.528928" fill="white"/>
<circle cx="233.28" cy="91.7516" r="0.667897" fill="white"/>
<circle cx="235.791" cy="562.305" r="0.586127" fill="white"/>
<circle cx="132.507" cy="442.421" r="0.523973" fill="white"/>
<circle cx="287.62" cy="381.884" r="0.567928" fill="white"/>
<circle cx="95.7163" cy="418.012" r="0.785809" fill="white"/>
<circle cx="127.592" cy="387.562" r="0.588186" fill="white"/>
<circle cx="298.669" cy="650.532" r="0.569727" fill="white"/>
<circle cx="160.848" cy="507.855" r="0.694909" fill="white"/>
<circle cx="280.85" cy="281.43" r="0.825623" fill="white"/>
<circle cx="9.01714" cy="510.333" r="0.713124" fill="white"/>
<circle cx="329.439" cy="562.218" r="0.809747" fill="white"/>
<circle cx="261.117" cy="784.449" r="0.583436" fill="white"/>
<circle cx="151.108" cy="654.279" r="0.98766" fill="white"/>
<circle cx="125.283" cy="265.078" r="0.56662" fill="white"/>
<circle cx="52.4943" cy="4.25384" r="0.756042" fill="white"/>
<circle cx="259.568" cy="161.597" r="0.720831" fill="white"/>
<circle cx="355.284" cy="94.788" r="0.602419" fill="white"/>
<circle cx="308.297" cy="213.981" r="0.938012" fill="white"/>
<circle cx="35.6898" cy="767.404" r="0.891493" fill="white"/>
<circle cx="230.219" cy="497.005" r="0.752293" fill="white"/>
<circle cx="279.725" cy="101.114" r="0.503102" fill="white"/>
<circle cx="131.967" cy="110.342" r="0.995708" fill="white"/>
<circle cx="305.808" cy="286.709" r="0.8486" fill="white"/>
<circle cx="296.357" cy="666.898" r="0.637784" fill="white"/>
<circle cx="258.2" cy="344.92" r="0.631727" fill="white"/>
<circle cx="278.569" cy="223.164" r="0.699232" fill="white"/>
<circle cx="87.3009" cy="7.80736" r="0.908432" fill="white"/>
<circle cx="185.43" cy="624.712" r="0.879554" fill="white"/>
<circle cx="333.041" cy="144.512" r="0.701227" fill="white"/>
<circle cx="39.2241" cy="798.425" r="0.609518" fill="white"/>
<circle cx="233.468" cy="39.693" r="0.793808" fill="white"/>
<circle cx="206.563" cy="379.381" r="0.731917" fill="white"/>
<circle cx="283.327" cy="348.196" r="0.711135" fill="white"/>
<circle cx="317.344" cy="665.972" r="0.802759" fill="white"/>
<circle cx="150.846" cy="586.527" r="0.535338" fill="white"/>
<circle cx="120.281" cy="618.176" r="0.656088" fill="white"/>
<circle cx="76.5759" cy="544.386" r="0.669842" fill="white"/>
<circle cx="235.516" cy="728.971" r="0.625492" fill="white"/>
<circle cx="351.504" cy="503.075" r="0.969198" fill="white"/>
<circle cx="121.039" cy="147.636" r="0.894369" fill="white"/>
<circle cx="285.165" cy="299.985" r="0.711915" fill="white"/>
<circle cx="272.759" cy="675.518" r="0.748478" fill="white"/>
<circle cx="232.58" cy="560.785" r="0.547875" fill="white"/>
<circle cx="200.464" cy="265.121" r="0.649854" fill="white"/>
<circle cx="312.671" cy="144.732" r="0.866767" fill="white"/>
<circle cx="134.55" cy="283.082" r="0.974039" fill="white"/>
<circle cx="237.302" cy="604.084" r="0.701773" fill="white"/>
<circle cx="37.9491" cy="598.579" r="0.773418" fill="white"/>
<circle cx="308.813" cy="805.568" r="0.934994" fill="white"/>
<circle cx="161.93" cy="333.837" r="0.514045" fill="white"/>
<circle cx="86.1123" cy="189.681" r="0.678253" fill="white"/>
<circle cx="100.96" cy="775.669" r="0.507405" fill="white"/>
<circle cx="156.084" cy="258.624" r="0.88267" fill="white"/>
<circle cx="366.009" cy="165.619" r="0.518382" fill="white"/>
<circle cx="151.85" cy="383.531" r="0.628506" fill="white"/>
<circle cx="138.126" cy="4.31736" r="0.514381" fill="white"/>
<circle cx="186.895" cy="329.168" r="0.975645" fill="white"/>
<circle cx="40.8375" cy="94.0304" r="0.676881" fill="white"/>
<circle cx="298.39" cy="284.068" r="0.906149" fill="white"/>
<circle cx="279.746" cy="569.732" r="0.919332" fill="white"/>
<circle cx="24.112" cy="670.3" r="0.944097" fill="white"/>
<circle cx="305.07" cy="783.664" r="0.522449" fill="white"/>
<circle cx="169.827" cy="657.13" r="0.710541" fill="white"/>
<circle cx="283.147" cy="638.007" r="0.866705" fill="white"/>
<circle cx="156.527" cy="232.683" r="0.891192" fill="white"/>
<circle cx="29.3372" cy="30.3173" r="0.620718" fill="white"/>
<circle cx="256.77" cy="70.1745" r="0.86468" fill="white"/>
<circle cx="130.521" cy="453.217" r="0.897297" fill="white"/>
<circle cx="355.789" cy="419.724" r="0.786204" fill="white"/>
<circle cx="335.463" cy="778.303" r="0.566975" fill="white"/>
<circle cx="316.308" cy="326.991" r="0.837419" fill="white"/>
<circle cx="23.0609" cy="661.458" r="0.794771" fill="white"/>
<circle cx="114.924" cy="509.542" r="0.950245" fill="white"/>
<circle cx="2.35191" cy="400.14" r="0.644177" fill="white"/>
<circle cx="137.181" cy="388.718" r="0.983149" fill="white"/>
<circle cx="221.267" cy="289.599" r="0.952135" fill="white"/>
<circle cx="220.995" cy="690.769" r="0.681415" fill="white"/>
<circle cx="10.1636" cy="80.3958" r="0.693197" fill="white"/>
<circle cx="201.158" cy="118.042" r="0.781879" fill="white"/>
<circle cx="41.0486" cy="15.962" r="0.710006" fill="white"/>
<circle cx="228.899" cy="208.099" r="0.913345" fill="white"/>
<circle cx="176.977" cy="629.82" r="0.660068" fill="white"/>
<circle cx="363.919" cy="534.522" r="0.524793" fill="white"/>
<circle cx="82.231" cy="173.294" r="0.912167" fill="white"/>
<circle cx="108.814" cy="286.943" r="0.700969" fill="white"/>
<circle cx="94.0463" cy="301.119" r="0.848948" fill="white"/>
<circle cx="324.858" cy="498.603" r="0.584031" fill="white"/>
<circle cx="108.543" cy="597.181" r="0.785107" fill="white"/>
<circle cx="184.52" cy="499.386" r="0.902989" fill="white"/>
<circle cx="259.077" cy="293.044" r="0.708162" fill="white"/>
<circle cx="43.8715" cy="514.246" r="0.992247" fill="white"/>
<circle cx="147.032" cy="191.649" r="0.506879" fill="white"/>
<circle cx="144.883" cy="103.403" r="0.679521" fill="white"/>
<circle cx="20.9263" cy="609.979" r="0.677566" fill="white"/>
<circle cx="51.4235" cy="611.248" r="0.543522" fill="white"/>
<circle cx="336.236" cy="363.116" r="0.917181" fill="white"/>
<circle cx="375.236" cy="122.383" r="0.508984" fill="white"/>
<circle cx="278.437" cy="129.702" r="0.914383" fill="white"/>
<circle cx="92.4421" cy="661.249" r="0.649041" fill="white"/>
<circle cx="158.006" cy="118.33" r="0.795448" fill="white"/>
<circle cx="282.574" cy="766.552" r="0.853768" fill="white"/>
<circle cx="139.918" cy="387.172" r="0.778945" fill="white"/>
<circle cx="187.184" cy="559.364" r="0.637542" fill="white"/>
<circle cx="43.5976" cy="738.413" r="0.782903" fill="white"/>
<circle cx="285.283" cy="372.706" r="0.512603" fill="white"/>
<circle cx="241.59" cy="637.898" r="0.985923" fill="white"/>
<circle cx="369.699" cy="85.374" r="0.605403" fill="white"/>
<circle cx="153.244" cy="404.526" r="0.761272" fill="white"/>
<circle cx="308.346" cy="18.9515" r="0.773039" fill="white"/>
<circle cx="192.483" cy="382.054" r="0.689453" fill="white"/>
<circle cx="231.016" cy="623.637" r="0.648164" fill="white"/>
<circle cx="15.3303" cy="603.995" r="0.671809" fill="white"/>
<circle cx="215.466" cy="37.6237" r="0.583211" fill="white"/>
<circle cx="9.04601" cy="802.099" r="0.726857" fill="white"/>
<circle cx="101.506" cy="752.963" r="0.909367" fill="white"/>
<circle cx="230.496" cy="26.1416" r="0.809101" fill="white"/>
<circle cx="135.131" cy="636.74" r="0.710653" fill="white"/>
<circle cx="45.4862" cy="602.203" r="0.549998" fill="white"/>
<circle cx="28.7468" cy="349.983" r="0.954042" fill="white"/>
<circle cx="201.413" cy="779.964" r="0.810115" fill="white"/>
<circle cx="288.418" cy="323.715" r="0.800136" fill="white"/>
<circle cx="347.079" cy="131.376" r="0.52558" fill="white"/>
<circle cx="91.8707" cy="740.444" r="0.822653" fill="white"/>
<circle cx="305.389" cy="12.6624" r="0.561281" fill="white"/>
<circle cx="41.3405" cy="255.451" r="0.947766" fill="white"/>
<circle cx="187.503" cy="246.569" r="0.531023" fill="white"/>
<circle cx="332.345" cy="739.826" r="0.943781" fill="white"/>
<circle cx="97.5791" cy="133.397" r="0.822961" fill="white"/>
<circle cx="241.169" cy="156.04" r="0.755316" fill="white"/>
<circle cx="346.262" cy="353.064" r="0.505902" fill="white"/>
<circle cx="143.448" cy="84.4399" r="0.771959" fill="white"/>
<circle cx="265.12" cy="95.6869" r="0.720846" fill="white"/>
<circle cx="108.322" cy="801.282" r="0.840374" fill="white"/>
<circle cx="79.7107" cy="622.296" r="0.796175" fill="white"/>
<circle cx="94.4308" cy="615.992" r="0.860403" fill="white"/>
<circle cx="314.312" cy="250.495" r="0.894253" fill="white"/>
<circle cx="17.717" cy="520.16" r="0.967274" fill="white"/>
<circle cx="87.4557" cy="560.331" r="0.750032" fill="white"/>
<circle cx="59.0437" cy="568.691" r="0.682328" fill="white"/>
<circle cx="187.51" cy="73.6128" r="0.512419" fill="white"/>
<circle cx="148.571" cy="522.13" r="0.730183" fill="white"/>
<circle cx="106.787" cy="529.385" r="0.611875" fill="white"/>
<circle cx="163.425" cy="639.683" r="0.578768" fill="white"/>
<circle cx="194.776" cy="514.455" r="0.6254" fill="white"/>
<circle cx="147.688" cy="702.397" r="0.875182" fill="white"/>
<circle cx="115.64" cy="767.368" r="0.593705" fill="white"/>
<circle cx="140.473" cy="445.436" r="0.816544" fill="white"/>
<circle cx="337.361" cy="14.7498" r="0.60356" fill="white"/>
<circle cx="45.4205" cy="710.403" r="0.640694" fill="white"/>
<circle cx="56.9795" cy="0.816033" r="0.946405" fill="white"/>
<circle cx="374.94" cy="752.803" r="0.746765" fill="white"/>
<circle cx="16.0311" cy="2.02459" r="0.642266" fill="white"/>
<circle cx="317.392" cy="751.404" r="0.967717" fill="white"/>
<circle cx="196.826" cy="7.51461" r="0.660363" fill="white"/>
<circle cx="183.921" cy="585.277" r="0.816557" fill="white"/>
<circle cx="45.6284" cy="235.946" r="0.872036" fill="white"/>
<circle cx="347.342" cy="592.388" r="0.713332" fill="white"/>
<circle cx="72.0151" cy="590.217" r="0.850567" fill="white"/>
<circle cx="261.393" cy="582.309" r="0.649927" fill="white"/>
<circle cx="65.6885" cy="204.727" r="0.915654" fill="white"/>
<circle cx="46.4872" cy="637.574" r="0.692489" fill="white"/>
<circle cx="241.527" cy="672.707" r="0.705041" fill="white"/>
<circle cx="239.794" cy="133.305" r="0.874103" fill="white"/>
<circle cx="81.9495" cy="424.438" r="0.905067" fill="white"/>
<circle cx="29.2866" cy="699.322" r="0.971299" fill="white"/>
<circle cx="265.494" cy="62.4519" r="0.574223" fill="white"/>
<circle cx="300.817" cy="802.418" r="0.843718" fill="white"/>
<circle cx="69.4536" cy="656.156" r="0.732586" fill="white"/>
<circle cx="119.04" cy="104.163" r="0.926105" fill="white"/>
<circle cx="194.503" cy="68.387" r="0.551601" fill="white"/>
<circle cx="41.9039" cy="53.911" r="0.922955" fill="white"/>
<circle cx="208.343" cy="0.561066" r="0.954133" fill="white"/>
<circle cx="3.56312" cy="375.592" r="0.926676" fill="white"/>
<circle cx="198.69" cy="375.894" r="0.659109" fill="white"/>
<circle cx="142.673" cy="190.189" r="0.821393" fill="white"/>
<circle cx="134.545" cy="111.108" r="0.636539" fill="white"/>
<circle cx="314.166" cy="807.584" r="0.849246" fill="white"/>
<circle cx="254.769" cy="199.73" r="0.573542" fill="white"/>
<circle cx="203.284" cy="453.162" r="0.906799" fill="white"/>
<circle cx="133.655" cy="260.352" r="0.631351" fill="white"/>
<circle cx="319.621" cy="541.338" r="0.728473" fill="white"/>
<circle cx="135.813" cy="409.273" r="0.630826" fill="white"/>
<circle cx="358.216" cy="458.18" r="0.529535" fill="white"/>
<circle cx="133.013" cy="672.443" r="0.863791" fill="white"/>
<circle cx="257.796" cy="573.165" r="0.821021" fill="white"/>
<circle cx="360.036" cy="303.183" r="0.508164" fill="white"/>
<circle cx="331.534" cy="592.435" r="0.603723" fill="white"/>
<circle cx="57.0371" cy="731.591" r="0.773516" fill="white"/>
<circle cx="242.201" cy="642.243" r="0.801849" fill="white"/>
<circle cx="35.3493" cy="622.178" r="0.804702" fill="white"/>
<circle cx="84.0532" cy="171.644" r="0.511308" fill="white"/>
<circle cx="277.071" cy="736.352" r="0.549496" fill="white"/>
<circle cx="350.533" cy="619.289" r="0.652916" fill="white"/>
<circle cx="238.136" cy="107.921" r="0.517597" fill="white"/>
<circle cx="308.793" cy="644.895" r="0.623116" fill="white"/>
<circle cx="161.341" cy="201.234" r="0.941378" fill="white"/>
<circle cx="78.6313" cy="395.424" r="0.935732" fill="white"/>
<circle cx="302.164" cy="809.558" r="0.899591" fill="white"/>
<circle cx="57.9918" cy="226.387" r="0.83056" fill="white"/>
<circle cx="120.958" cy="352.614" r="0.597764" fill="white"/>
<circle cx="238.688" cy="596.77" r="0.604175" fill="white"/>
<circle cx="262.512" cy="498.884" r="0.560383" fill="white"/>
<circle cx="42.6412" cy="400.121" r="0.897864" fill="white"/>
<circle cx="106.211" cy="24.779" r="0.639874" fill="white"/>
<circle cx="53.498" cy="578.801" r="0.60011" fill="white"/>
<circle cx="237.244" cy="474.501" r="0.577304" fill="white"/>
<circle cx="165.396" cy="496.342" r="0.651885" fill="white"/>
<circle cx="158.836" cy="61.9787" r="0.856424" fill="white"/>
<circle cx="311.111" cy="739.806" r="0.680156" fill="white"/>
<circle cx="152.613" cy="799.095" r="0.524508" fill="white"/>
<circle cx="357.68" cy="440.231" r="0.782318" fill="white"/>
<circle cx="354.431" cy="217.432" r="0.662571" fill="white"/>
<circle cx="13.8325" cy="258.316" r="0.587439" fill="white"/>
<circle cx="108.369" cy="210.01" r="0.863026" fill="white"/>
<circle cx="0.094557" cy="407.112" r="0.650221" fill="white"/>
<circle cx="39.55" cy="524.469" r="0.782687" fill="white"/>
<circle cx="238.147" cy="218.066" r="0.79688" fill="white"/>
<circle cx="72.8459" cy="348.267" r="0.683384" fill="white"/>
<circle cx="233.195" cy="309.921" r="0.727906" fill="white"/>
<circle cx="27.9925" cy="602.948" r="0.735825" fill="white"/>
<circle cx="272.047" cy="0.896093" r="0.670263" fill="white"/>
<circle cx="364.718" cy="374.937" r="0.917804" fill="white"/>
<circle cx="3.95458" cy="335.116" r="0.677634" fill="white"/>
<circle cx="365.813" cy="358.024" r="0.833319" fill="white"/>
<circle cx="375.34" cy="435.91" r="0.552262" fill="white"/>
<circle cx="320.243" cy="721.987" r="0.722" fill="white"/>
<circle cx="250.637" cy="438.717" r="0.93961" fill="white"/>
<circle cx="14.0231" cy="409.575" r="0.848466" fill="white"/>
<circle cx="285.484" cy="751.307" r="0.937905" fill="white"/>
<circle cx="27.9584" cy="354.775" r="0.522446" fill="white"/>
<circle cx="123.229" cy="589.125" r="0.925814" fill="white"/>
<circle cx="227.655" cy="785.622" r="0.806351" fill="white"/>
<circle cx="256.289" cy="391.105" r="0.82593" fill="white"/>
<circle cx="253.413" cy="564.41" r="0.915244" fill="white"/>
<circle cx="82.6311" cy="289.137" r="0.898333" fill="white"/>
<circle cx="74.1657" cy="517.537" r="0.636305" fill="white"/>
<circle cx="18.3947" cy="270.744" r="0.666924" fill="white"/>
<circle cx="270.383" cy="124.352" r="0.778769" fill="white"/>
<circle cx="271.034" cy="84.3645" r="0.626443" fill="white"/>
<circle cx="97.5517" cy="463.614" r="0.564713" fill="white"/>
<circle cx="146.214" cy="350.779" r="0.542962" fill="white"/>
<circle cx="324.81" cy="190.03" r="0.801394" fill="white"/>
<circle cx="247.741" cy="124.262" r="0.718987" fill="white"/>
<circle cx="270.132" cy="719.892" r="0.589277" fill="white"/>
<circle cx="63.6596" cy="681.353" r="0.58408" fill="white"/>
<circle cx="6.98234" cy="807.08" r="0.929357" fill="white"/>
<circle cx="123.451" cy="145.434" r="0.913634" fill="white"/>
<circle cx="370.804" cy="122.366" r="0.999054" fill="white"/>
<circle cx="327.03" cy="286.031" r="0.653077" fill="white"/>
<circle cx="189.155" cy="202.831" r="0.941574" fill="white"/>
<circle cx="204.939" cy="306.094" r="0.868731" fill="white"/>
<circle cx="346.738" cy="365.449" r="0.938771" fill="white"/>
<circle cx="271.826" cy="739.466" r="0.919467" fill="white"/>
<circle cx="282.438" cy="782.496" r="0.658026" fill="white"/>
<circle cx="255.973" cy="199.125" r="0.975083" fill="white"/>
<circle cx="291.525" cy="233.041" r="0.539643" fill="white"/>
<circle cx="349.455" cy="308.131" r="0.886662" fill="white"/>
<circle cx="334.15" cy="99.9667" r="0.666389" fill="white"/>
<circle cx="277.716" cy="801.256" r="0.813144" fill="white"/>
<circle cx="85.8542" cy="685.688" r="0.694236" fill="white"/>
<circle cx="207.914" cy="432.661" r="0.561185" fill="white"/>
<circle cx="74.0719" cy="576.558" r="0.567638" fill="white"/>
<circle cx="341.829" cy="77.1888" r="0.776166" fill="white"/>
<circle cx="373.437" cy="394.504" r="0.509213" fill="white"/>
<circle cx="8.39368" cy="317.766" r="0.517309" fill="white"/>
<circle cx="220.769" cy="136.43" r="0.871251" fill="white"/>
<circle cx="19.847" cy="360.637" r="0.988955" fill="white"/>
<circle cx="329.644" cy="52.7752" r="0.911937" fill="white"/>
<circle cx="27.1532" cy="106.222" r="0.720312" fill="white"/>
<circle cx="310.161" cy="507.839" r="0.81283" fill="white"/>
<circle cx="123.463" cy="583.751" r="0.51507" fill="white"/>
<circle cx="261.404" cy="796.674" r="0.591071" fill="white"/>
<circle cx="77.2421" cy="107.183" r="0.679299" fill="white"/>
<circle cx="270.921" cy="97.8137" r="0.61153" fill="white"/>
<circle cx="186.774" cy="377.465" r="0.567485" fill="white"/>
<circle cx="15.0334" cy="147.857" r="0.6181" fill="white"/>
</g>
<g clip-path="url(#clip3_5077_402)">
<g filter="url(#filter0_f_5077_402)">
<ellipse cx="449.863" cy="420.618" rx="450" ry="135" transform="rotate(-18.9788 449.863 420.618)" fill="#0000FF" fill-opacity="0.05"/>
</g>
<g filter="url(#filter1_f_5077_402)">
<ellipse cx="-202.26" cy="760.007" rx="450" ry="135" transform="rotate(97.511 -202.26 760.007)" fill="#0000FF" fill-opacity="0.05"/>
</g>
<g filter="url(#filter2_f_5077_402)">
<ellipse cx="19.5715" cy="196.124" rx="450" ry="135" transform="rotate(-146.846 19.5715 196.124)" fill="#0000FF" fill-opacity="0.05"/>
</g>
</g>
</g>
<g opacity="0.49" style="mix-blend-mode:screen">
<path d="M-132.281 666.36C-166.256 632.891 -229.145 666.36 -215.41 683.344C-267.457 672.154 -295.324 861.364 -263.518 873.853C-231.713 886.341 740.688 982.249 742.996 924.832C743.575 910.445 677.809 669.357 657.81 671.356C636.413 648.976 603.595 653.039 589.861 657.868C567.885 616.306 522.875 629.894 503.117 641.883C517.333 608.746 503.117 514 326.015 514C147.151 514 149.803 602.323 101.5 590.5C30 573 4.34015 589.764 -30.3573 632.391C-101.921 622.9 -132.281 642.382 -132.281 666.36Z" fill="url(#paint0_linear_5077_402)"/>
</g>
<path d="M37.5156 18.4453C35.0703 18.4453 33.3281 20.1172 33.3281 22.4062V22.4219C33.3281 24.5625 34.8438 26.1406 37.0078 26.1406C38.5547 26.1406 39.5391 25.3516 39.9531 24.4609H40.1094C40.1094 24.5469 40.1016 24.6328 40.1016 24.7188C40.0156 26.875 39.2578 28.625 37.4688 28.625C36.4766 28.625 35.7812 28.1094 35.4844 27.3203L35.4609 27.2422H33.4766L33.4922 27.3281C33.8516 29.0547 35.3984 30.2812 37.4688 30.2812C40.3047 30.2812 42.0156 28.0312 42.0156 24.2344V24.2188C42.0156 20.1562 39.9219 18.4453 37.5156 18.4453ZM37.5078 24.5938C36.2266 24.5938 35.2969 23.6562 35.2969 22.3516V22.3359C35.2969 21.0781 36.2891 20.0859 37.5312 20.0859C38.7812 20.0859 39.7578 21.0938 39.7578 22.3828V22.3984C39.7578 23.6719 38.7812 24.5938 37.5078 24.5938ZM45.5625 22.6953C46.2812 22.6953 46.8047 22.1484 46.8047 21.4609C46.8047 20.7656 46.2812 20.2266 45.5625 20.2266C44.8516 20.2266 44.3203 20.7656 44.3203 21.4609C44.3203 22.1484 44.8516 22.6953 45.5625 22.6953ZM45.5625 28.4922C46.2812 28.4922 46.8047 27.9531 46.8047 27.2578C46.8047 26.5625 46.2812 26.0234 45.5625 26.0234C44.8516 26.0234 44.3203 26.5625 44.3203 27.2578C44.3203 27.9531 44.8516 28.4922 45.5625 28.4922ZM54.5781 30H56.5078V27.8359H58.0234V26.1719H56.5078V18.7266H53.6562C52.125 21.0547 50.5234 23.6484 49.0625 26.1875V27.8359H54.5781V30ZM50.9375 26.2188V26.1016C52.0312 24.1875 53.3359 22.1016 54.4922 20.3359H54.6094V26.2188H50.9375ZM62.6953 30H64.7109V18.7266H62.7031L59.7578 20.7969V22.6953L62.5625 20.7109H62.6953V30Z" fill="black"/>
<rect x="305" y="19" width="3" height="10" rx="1" fill="black"/>
<rect x="290" y="25" width="3" height="4" rx="1" fill="black"/>
<rect x="295" y="23" width="3" height="6" rx="1" fill="black"/>
<rect x="300" y="21" width="3" height="8" rx="1" fill="black"/>
<path d="M322.646 29.6464L320.743 27.7427C320.619 27.6194 320.645 27.4131 320.794 27.3234C322.152 26.5088 323.848 26.5088 325.206 27.3234C325.355 27.4131 325.381 27.6194 325.257 27.7427L323.354 29.6464C323.158 29.8417 322.842 29.8417 322.646 29.6464Z" fill="black"/>
<path d="M318.324 25.3244L319.294 26.2938C319.41 26.4102 319.596 26.4173 319.721 26.3102C321.608 24.6931 324.392 24.6931 326.279 26.3102C326.404 26.4173 326.59 26.4102 326.706 26.2938L327.676 25.3244C327.852 25.1481 327.844 24.8599 327.659 24.6931C325.01 22.3093 320.99 22.3093 318.341 24.6931C318.156 24.8599 318.148 25.1481 318.324 25.3244Z" fill="black"/>
<path d="M315.392 22.392L316.237 23.2367C316.387 23.3873 316.626 23.4029 316.795 23.273C320.453 20.4591 325.547 20.4591 329.205 23.273C329.374 23.4029 329.613 23.3873 329.763 23.2367L330.608 22.392C330.818 22.1824 330.8 21.8373 330.57 21.6503C326.161 18.0681 319.839 18.0681 315.43 21.6503C315.2 21.8373 315.182 22.1824 315.392 22.392Z" fill="black"/>
<rect opacity="0.3" x="334.5" y="18.5" width="22" height="11" rx="2.5" stroke="black"/>
<rect x="336" y="20" width="19" height="8" rx="1" fill="black"/>
<path opacity="0.3" d="M358 26C359.105 26 360 25.1046 360 24C360 22.8954 359.105 22 358 22V26Z" fill="black"/>
</g>
<defs>
<filter id="filter0_f_5077_402" x="-127.967" y="76.4111" width="1155.66" height="688.414" filterUnits="userSpaceOnUse" color-interpolation-filters="sRGB">
<feFlood flood-opacity="0" result="BackgroundImageFix"/>
<feBlend mode="normal" in="SourceGraphic" in2="BackgroundImageFix" result="shape"/>
<feGaussianBlur stdDeviation="75" result="effect1_foregroundBlur_5077_402"/>
</filter>
<filter id="filter1_f_5077_402" x="-498.495" y="163.513" width="592.469" height="1192.99" filterUnits="userSpaceOnUse" color-interpolation-filters="sRGB">
<feFlood flood-opacity="0" result="BackgroundImageFix"/>
<feBlend mode="normal" in="SourceGraphic" in2="BackgroundImageFix" result="shape"/>
<feGaussianBlur stdDeviation="75" result="effect1_foregroundBlur_5077_402"/>
</filter>
<filter id="filter2_f_5077_402" x="-514.408" y="-224.755" width="1067.96" height="841.76" filterUnits="userSpaceOnUse" color-interpolation-filters="sRGB">
<feFlood flood-opacity="0" result="BackgroundImageFix"/>
<feBlend mode="normal" in="SourceGraphic" in2="BackgroundImageFix" result="shape"/>
<feGaussianBlur stdDeviation="75" result="effect1_foregroundBlur_5077_402"/>
</filter>
<linearGradient id="paint0_linear_5077_402" x1="272.146" y1="514" x2="272.146" y2="749.784" gradientUnits="userSpaceOnUse">
<stop stop-color="#DAAFED"/>
<stop offset="1" stop-color="#7C6487" stop-opacity="0"/>
</linearGradient>
<clipPath id="clip0_5077_402">
<rect width="375" height="812" rx="20" fill="white"/>
</clipPath>
<clipPath id="clip1_5077_402">
<rect width="1000" height="1000" fill="white" transform="translate(-312 -94)"/>
</clipPath>
<clipPath id="clip2_5077_402">
<rect width="1000" height="1000" fill="white" transform="translate(-312 -94)"/>
</clipPath>
<clipPath id="clip3_5077_402">
<rect width="1000" height="1000" fill="white" transform="translate(-312 -94)"/>
</clipPath>
</defs>
</svg>
