<svg width="350" height="456" viewBox="0 0 350 456" fill="none" xmlns="http://www.w3.org/2000/svg">
<path d="M2.40253 56.0131C1.07565 45.0474 8.88946 35.0823 19.8552 33.7554L159.557 16.8512C167.545 15.8846 175.335 19.7997 179.326 26.7872L181.491 30.5769C185.482 37.5644 193.271 41.4795 201.26 40.5129L282.389 30.6961C293.354 29.3692 303.32 37.1831 304.646 48.1488L347.111 399.089C348.438 410.055 340.624 420.02 329.658 421.347L70.5484 452.7C59.5827 454.026 49.6176 446.213 48.2907 435.247L2.40253 56.0131Z" fill="#EDDBFF"/>
<rect x="38.2568" y="56.551" width="274" height="361" rx="10" fill="white"/>
<rect x="200.541" y="388.665" width="144.169" height="46.543" rx="10" transform="rotate(-6.9 200.541 388.665)" fill="#EDDBFF"/>
<path d="M314.88 132.051L327.044 113.111C332.344 104.859 319.984 97.9495 315.463 104.988L292.861 140.179C284.045 153.372 300.148 159.258 306.539 149.307L321.59 126.406" stroke="#A315D6" stroke-width="2" stroke-linecap="round"/>
<rect x="313.257" y="130.671" width="1.36113" height="3" transform="rotate(-6.9 313.257 130.671)" fill="white"/>
</svg>
