<svg width="335" height="180" viewBox="0 0 335 180" fill="none" xmlns="http://www.w3.org/2000/svg">
<path d="M301.621 1.02207C301.985 0.939605 302.259 1.08587 302.782 1.50175C303.305 1.91763 305.346 4.01747 305.346 4.01747C305.346 4.01747 310.925 10.5788 312.988 15.5842C314.16 18.4289 314.91 20.0871 315.178 23.1523C315.528 27.1439 313.471 33.2696 313.471 33.2696C313.471 33.2696 310.464 41.571 309.654 43.2636C308.844 44.9562 308.541 46.225 307.064 47.4619C305.586 48.6999 303.773 49.7608 302.472 49.2749" stroke="#F2F2F2" stroke-width="2" stroke-linecap="round"/>
<rect x="37.5671" y="32.9619" width="294" height="127" rx="10" transform="rotate(3.83987 37.5671 32.9619)" fill="#F7AAF6"/>
<path d="M297.829 37.1214C303.349 36.9345 307.975 41.2574 308.162 46.777L311.786 153.716C311.973 159.235 307.65 163.861 302.13 164.049L14.2954 173.802C8.77574 173.989 4.14952 169.666 3.96248 164.147L0.338673 57.2081C0.151631 51.6885 4.47459 47.0622 9.99426 46.8752L297.829 37.1214ZM296.562 45.9614C294.629 45.9614 293.063 47.5288 293.063 49.4618C293.063 51.3947 294.629 52.9614 296.562 52.9615C298.495 52.9615 300.063 51.3949 300.063 49.462C300.063 47.529 298.495 45.9614 296.562 45.9614Z" fill="url(#paint0_linear_5076_343)"/>
<path d="M299.413 48.2991C296.525 44.5211 299.212 36.1235 299.212 36.1235C299.212 36.1235 300.857 31.1148 302.627 28.2823C305.02 24.4518 305.385 23.3841 309.562 19.962C315.263 15.2912 323.95 17.9416 327.513 24.3933C329.827 28.582 331.774 33.2796 331.562 36.962" stroke="#F2F2F2" stroke-width="2" stroke-linecap="round"/>
<defs>
<linearGradient id="paint0_linear_5076_343" x1="11.0622" y1="36.9619" x2="254.562" y2="115.962" gradientUnits="userSpaceOnUse">
<stop stop-color="#56269F"/>
<stop offset="1" stop-color="#916490"/>
</linearGradient>
</defs>
</svg>
