<svg width="1444" height="686" viewBox="0 0 1444 686" fill="none" xmlns="http://www.w3.org/2000/svg">
<mask id="mask0_3002_4242" style="mask-type:alpha" maskUnits="userSpaceOnUse" x="0" y="0" width="1444" height="686">
<rect width="1444" height="686" fill="#D9D9D9"/>
</mask>
<g mask="url(#mask0_3002_4242)">
<path d="M1152.27 533.795C1155.25 500.562 1160.8 462.89 1189.69 443.905C1197.45 438.808 1206.46 435.464 1213.71 429.732C1227.63 418.725 1232.85 400.935 1237.35 384.282C1243.26 362.388 1249.18 340.494 1255.08 318.601C1256.22 314.377 1257.49 309.931 1260.77 306.88C1263.94 303.936 1268.43 302.782 1272.72 301.742C1286.04 298.501 1299.36 295.261 1312.68 292.015C1316.19 291.163 1320.06 290.329 1323.32 291.821C1326.73 293.375 1328.46 296.976 1329.91 300.296C1335.17 312.309 1340.42 324.327 1345.67 336.34C1347.59 340.729 1349.68 345.34 1353.71 348.164C1361.41 353.564 1372.15 350.244 1381.72 350.61C1395.43 351.13 1407.61 359.868 1415.27 370.675C1422.92 381.481 1426.81 394.226 1430.59 406.741C1439.47 436.161 1448.35 465.582 1457.23 494.996C1429.22 522.633 1388.58 534.572 1349.6 544.653C1315.14 553.562 1279.76 561.9 1244.14 559.403C1208.51 556.905 1172.09 541.795 1153.26 512.992C1148.24 523.959 1159.06 535.915 1170.61 540.704C1182.16 545.487 1195.57 546.904 1205.23 554.597C1188.21 547.053 1171.95 537.955 1156.76 527.474C1173.32 542.567 1194.46 553.088 1216.96 557.408" fill="url(#paint0_linear_3002_4242)"/>
<path d="M11.9181 529.82L464.745 562.334H804.049L1542 497.31L1472.84 707.428C1472.84 707.428 1030.25 762.416 1000.84 759.917C971.436 757.418 498.334 700.151 498.334 700.151L-187 743.66L11.9181 529.824V529.82Z" fill="url(#paint1_linear_3002_4242)"/>
<path d="M-26.763 466.347L447.278 494.5H802.477L1575 430L1502.6 664.895C1502.6 664.895 1039.27 726.368 1008.49 723.571C977.707 720.774 482.441 656.761 482.441 656.761L-235 705.403L-26.763 466.351V466.347Z" fill="url(#paint2_linear_3002_4242)"/>
<path d="M166.611 475.889C161.765 446.395 153.465 417.416 141.916 389.657C140.36 385.915 138.485 381.909 134.76 379.996C130.268 377.685 124.785 379.19 119.78 380.152C97.7798 384.365 73.5982 375.722 60.01 358.771C51.8571 348.6 47.5302 336.169 40.574 325.227C33.6178 314.284 22.4407 304.226 8.97637 304.136C2.16166 304.092 -4.33472 306.614 -10.6248 309.098C-27.2312 315.649 -43.8376 322.211 -60.4441 328.762C-67.2116 331.437 -74.4685 334.502 -78.0586 340.572C-80.4284 344.578 -80.8351 349.339 -80.9648 353.926C-82.5329 411.061 -45.8243 467.178 8.14516 492.554C62.1146 517.93 130.462 512.051 179.692 479.117C171.899 476.778 164.111 474.434 156.318 472.096" fill="url(#paint3_linear_3002_4242)"/>
<path d="M67.9216 524.643C70.9988 514.014 74.076 503.385 77.1533 492.755C80.7434 480.358 84.8699 467.144 95.3514 459.01C102.249 453.656 111.074 451.195 119.639 448.857C134.259 444.868 150.311 440.946 164.265 446.697C169.724 448.946 174.44 452.538 178.932 456.247C186.171 462.221 193.127 468.689 198.008 476.526C203.992 486.132 206.586 497.611 205.277 508.705C204.917 511.788 204.228 514.926 202.43 517.522C200.814 519.86 198.409 521.589 195.998 523.189C158.535 548 105.42 549.359 66.6011 526.495C67.4205 526.461 68.234 526.422 69.0475 526.394" fill="url(#paint4_linear_3002_4242)"/>
<path d="M-24.5134 511.492C-17.3097 495.99 -9.05066 480.504 3.76524 468.711C16.5811 456.918 34.8028 449.265 52.3466 452.415C63.4942 454.418 73.3271 460.482 82.4527 466.871C128.14 498.837 164.607 542.562 186.866 592.117C188.8 596.414 190.657 601.13 189.407 605.639C188.21 609.969 184.426 613.152 180.724 615.921C165.62 627.211 147.104 636.548 128.028 634.277C116.102 632.856 105.037 626.993 93.0403 626.321C78.6268 625.516 65.1212 632.223 51.4505 636.626C19.5699 646.897 -16.6022 644.537 -46.7025 630.221C-68.8621 619.681 -89.265 598.808 -85.5629 575.547C-84.1716 566.825 -79.544 558.915 -74.993 551.223C-66.5807 536.996 -57.5259 522.132 -42.7764 513.74C-36.3036 510.059 -28.9348 507.799 -21.4126 507.201" fill="url(#paint5_linear_3002_4242)"/>
<path d="M186.996 501.874C192.543 499.34 198.208 499.692 203.779 501.963C208.973 504.078 214.355 507.524 218.234 511.457C219.37 512.608 220.263 513.92 220.832 515.298C222.576 517.73 223.964 520.409 224.931 523.267C225.69 525.519 225.597 533.044 223.374 534.36C213.497 540.189 200.088 537.942 191.732 530.613C188.109 528.319 185.145 525.145 183.079 521.511C180.203 518.217 178.007 514.378 176.762 510.193C175.39 505.549 183.649 503.403 186.996 501.874Z" fill="url(#paint6_linear_3002_4242)"/>
<path d="M240.919 510.528C241.357 510.899 243.889 512.193 244.328 512.562C247.192 513.488 247.83 513.847 250.392 515.541C253.735 517.757 251.58 523.63 250.604 526.758C249.914 528.979 247.627 530.058 245.328 529.6C237.694 528.073 231.528 522.288 229.735 515.094C229.152 512.755 231.444 510.993 233.868 509.947C236.384 508.861 238.777 508.733 240.919 510.528Z" fill="url(#paint7_linear_3002_4242)"/>
<path fill-rule="evenodd" clip-rule="evenodd" d="M1.40424 614.268C14.2303 610.183 28.7981 613.281 40.2498 620.726C51.2028 627.854 68.6994 642.595 60.2992 656.715C55.8779 664.138 47.259 663.819 39.7016 661.649C36.1882 660.642 32.7749 659.825 29.1672 659.769C25.5594 659.713 21.9572 660.077 18.3848 660.519C4.77315 662.203 -12.5345 664.575 -20.2924 650.712C-26.4727 639.664 -21.196 627.187 -10.4887 622.162C-10.4299 621.227 -10.0464 620.336 -9.25123 619.742C-6.99141 618.053 -4.60688 616.68 -2.13652 615.6C-1.34338 614.855 -0.309757 614.344 0.770569 614.293C0.981899 614.282 1.1932 614.275 1.40424 614.268Z" fill="url(#paint8_linear_3002_4242)"/>
<path d="M175.978 235.18C175.978 235.18 152.204 248.371 150.612 265.507C150.146 270.475 150.742 275.745 153.636 279.912C157.739 285.826 165.403 288.287 171.822 291.895C179.115 295.99 185.128 301.854 192.143 306.374C199.158 310.894 207.936 314.066 216.065 311.789C230.307 307.795 234.257 290.525 234.057 276.427C233.892 264.645 232.595 252.875 230.19 241.311C229.5 237.983 228.68 234.604 226.812 231.706C224.737 228.5 221.471 226.1 217.94 224.394C203.786 217.552 175.978 235.18 175.978 235.18Z" fill="url(#paint9_linear_3002_4242)"/>
<path d="M170.755 230.973C172.211 237.294 178.885 242.139 185.693 241.837C192.738 241.524 198.733 236.254 201.421 230.072C207.639 215.805 201.342 202.324 183.406 203.661C176.279 204.193 169.616 224.275 170.755 230.973Z" fill="url(#paint10_linear_3002_4242)"/>
<path d="M46.3027 180.155C35.6531 188.349 55.9371 219.337 63.7009 216.176C66.5836 215.007 68.8237 212.702 70.4272 210.151C75.4085 202.24 74.4122 191.354 68.075 184.372C61.7437 177.39 53.0434 174.968 46.3027 180.155Z" fill="url(#paint11_linear_3002_4242)"/>
<path d="M70.1793 69.7489C67.6267 75.1027 65.0093 80.8257 65.9112 86.6383C66.8073 92.4508 72.8085 97.9446 78.7507 96.2831C87.7053 93.7712 95.4102 85.6258 94.4022 76.8091C93.3941 67.9924 81.1677 61.5365 73.8342 67.0301" fill="url(#paint12_linear_3002_4242)"/>
<path fill-rule="evenodd" clip-rule="evenodd" d="M157.851 326.631C159.131 326.01 162.981 326.228 164.53 327.795C170.411 333.723 185.535 361.15 171.945 360.161C166.46 359.762 164.119 357.674 159.418 354.963C155.916 352.942 153.24 348.394 152.993 344.645C152.817 341.99 152.953 340.074 153.662 337.209C154.704 332.995 156.703 327.188 157.851 326.631Z" fill="url(#paint13_linear_3002_4242)"/>
<path fill-rule="evenodd" clip-rule="evenodd" d="M1243.15 387.626C1245.97 391.332 1246.25 396.178 1246.42 401.139C1246.58 406.095 1246.25 408.478 1244.01 412.956C1239.52 421.917 1221.51 426.243 1217.89 418.507C1215.31 412.991 1215.34 407.364 1218.18 401.139C1222.64 391.366 1233.47 374.924 1243.15 387.626Z" fill="url(#paint14_linear_3002_4242)"/>
<path d="M1276.32 472.025C1283 473.189 1291.3 482.927 1294.05 488.746C1303.21 508.184 1308.41 529.871 1313.1 550.899C1313.34 551.947 1314.15 553.576 1314.23 554.624C1314.31 555.671 1313.72 559.202 1313.45 559.396C1304.67 565.667 1283.19 542.713 1269.22 531.268C1260.11 538.251 1231.91 540.639 1231.16 546.205C1229.07 556.37 1227.9 571.268 1221.7 579.57C1216.32 580.19 1210.1 575.745 1207.73 571.85C1195.89 551.291 1189.91 553.998 1170.91 575.264C1170.29 575.962 1162.03 580.152 1161.17 580.54C1161.06 580.463 1157.57 579.57 1157.29 579.182C1153.88 574.308 1159.55 560.1 1160.59 555.012C1162.3 546.593 1171.45 499.26 1171.45 499.26C1171.45 499.26 1245.17 473.46 1258.36 471.521C1263.51 471.022 1271.14 471.028 1276.32 472.025Z" fill="#7AB026"/>
<path d="M1130.52 463.761C1129.13 456.079 1127.38 447.815 1125.48 440.483C1123.58 433.189 1118.73 427.137 1117.14 419.726C1114.19 406.109 1117.06 373.713 1127.89 363.471C1128.31 363.083 1129.55 362.346 1130.02 362.578C1130.49 362.811 1130.64 363.199 1130.95 363.471C1134.13 366.419 1135.1 373.364 1136.5 377.476C1139.49 386.051 1143.72 394.78 1147.13 403.005C1147.87 404.751 1151.13 413.053 1152.83 413.131C1154.7 413.209 1152.83 389.271 1156.05 380.031C1156.18 379.349 1158.53 367.549 1161.37 369.678C1162.61 370.609 1163.77 373.829 1163.89 374.14C1167.46 382.016 1169.55 391.482 1173.78 399.319L1179.21 410.337C1181.23 411.307 1181.62 410.958 1181.15 408.475C1180.9 407.094 1179.96 406.084 1181.85 405.139C1183.4 404.518 1188.29 403.742 1190.04 403.626C1193.3 403.432 1198.5 403.626 1201.79 403.897C1205.67 404.208 1205.52 405.139 1205.4 408.281C1206.37 408.863 1206.76 407.738 1207.77 406.419C1215.68 395.944 1216.61 384.537 1222.78 373.442C1223.75 371.696 1226.66 366.652 1227.79 370.842C1228.91 375.032 1228.22 378.795 1228.45 382.83C1228.8 388.611 1228.91 395.711 1229.15 401.492C1229.26 403.742 1230.89 408.398 1230.43 410.337C1229.96 412.277 1227.67 412.549 1229.15 413.752C1230.62 414.954 1230.85 414.605 1231.2 413.752C1231.75 412.277 1232.09 410.958 1232.87 409.406C1238.38 398.466 1244.32 388.107 1250.1 377.67C1252.39 373.519 1254.87 367.816 1257.31 364.091C1259.76 360.367 1260.57 359.591 1261.85 360.367C1263.13 361.143 1263.75 366.807 1263.91 367.7C1266.16 381.744 1267.63 396.759 1267.09 410.958C1266.57 424.431 1256.81 436.582 1253.63 453.131C1252.08 461.471 1249.14 476.045 1244.78 482.577C1235.24 496.894 1207.34 505.623 1190.93 506.709C1171.57 507.99 1152.1 501.316 1139.99 486.341C1136.11 481.535 1131.61 469.689 1130.52 463.761Z" fill="#7AB026"/>
<path d="M1140.84 379.455C1142.98 385.158 1144.3 387.641 1145.97 391.482C1147.63 395.323 1149.61 399.785 1151.4 403.936C1151.86 403.781 1151.98 402.384 1151.98 401.996C1152.83 390.784 1153.22 381.007 1156.48 370.105C1156.96 368.491 1157 367.492 1158.73 366.342C1159.89 365.566 1162.57 366.148 1163.62 367.079C1166.45 369.601 1169.24 378.602 1170.72 382.365C1172.19 386.128 1173.78 390.9 1175.49 395.013C1176.46 397.302 1177.9 401.143 1179.06 403.16C1179.82 404.475 1181.98 404.172 1183.25 402.54C1183.52 402.19 1184.92 398.427 1185.19 397.612C1186.55 393.422 1187.36 388.728 1187.98 384.46C1188.6 380.192 1189.19 377.554 1188.95 374.295C1188.72 371.036 1186.47 368.747 1185.97 365.566C1185.11 360.251 1186.78 354.16 1192.99 354.004C1195.2 353.927 1197.49 354.858 1198.57 356.875C1202.03 363.277 1195.16 368.941 1194.66 374.644C1194.15 380.348 1194.11 389.737 1194.66 393.306C1195.57 399.336 1199 401.307 1204.12 402.229C1208.85 403.08 1209.48 396.824 1211.26 392.801C1214.17 386.245 1217.35 376.39 1221.19 370.532C1223.45 367.095 1224.46 366.23 1227.67 368.476C1228.72 369.135 1229.61 372.239 1229.88 373.481C1231.94 383.063 1230.81 393.383 1231.4 403.238C1231.4 412.573 1241.03 387.243 1245.87 379.261C1249.05 373.951 1253.32 365.993 1256.81 360.678C1259.25 358.854 1263.21 358.427 1264.34 361.88C1265.11 364.169 1265.31 367.467 1265.69 369.872C1268.23 385.563 1270.74 403.535 1268.1 419.377C1267.13 424.46 1264.92 430.241 1262.78 434.974C1259.8 441.608 1254.6 448.436 1253.63 455.924C1253.51 456.817 1253.39 457.864 1253.32 458.795C1254.25 458.834 1255.53 458.718 1256.5 458.795C1258.17 458.95 1260.92 459.843 1262.36 460.425C1264.41 461.239 1266.55 462.365 1265.69 464.964C1264.84 467.563 1257.89 466.671 1255.57 466.904C1253.24 467.137 1252.31 467.486 1252.15 467.563C1251.76 467.796 1251.03 471.016 1250.6 471.715C1263.46 468.405 1279.7 465.889 1289.28 477.534C1298.32 488.514 1302.59 502.093 1306.7 515.633C1309.69 525.41 1311.82 535.419 1314.73 545.468C1315.59 548.455 1317.76 552.762 1318.22 555.477C1318.69 558.193 1318.22 558.465 1317.33 559.667C1316.44 560.87 1315.78 560.754 1314.27 561.103C1305.15 563.276 1297.51 560.405 1290.29 554.857C1284.28 550.24 1276.32 541.51 1271.63 535.536C1270.81 534.527 1271.16 533.285 1269.38 533.673C1267.59 534.061 1264.76 535.807 1263.09 536.428C1256.58 538.833 1249.4 541.976 1242.84 543.567C1236.28 545.157 1237.25 544.381 1234.62 545.119C1234.62 547.446 1234.38 549.852 1234 552.141C1233.1 557.534 1231.32 565.797 1229.73 570.725C1228.14 575.652 1227.79 575.923 1226.7 577.475C1225.62 579.027 1222.67 581.665 1222.4 581.782C1220.07 582.713 1217.16 582.596 1214.83 581.627C1212.5 580.657 1211.8 579.648 1210.76 578.794C1205.65 574.637 1202.67 568.196 1199.16 562.732C1197.68 561.801 1194 562.461 1192.13 562.267C1190.27 562.073 1189.22 561.258 1187.9 561.336L1187.52 561.413C1186.59 563.159 1185.19 564.556 1183.95 565.991C1179.45 571.19 1174.33 576.777 1168.43 580.385C1167.23 581.122 1164.47 582.829 1163.23 582.984C1161.99 583.14 1157.53 582.092 1156.71 581.782C1155.9 581.471 1154.81 579.764 1154.58 579.066C1153.07 575.031 1154.42 567.621 1155.04 563.353C1156.13 555.749 1158.15 549.852 1160.2 542.636C1163.15 532.316 1165.67 521.84 1167.34 511.288C1167.5 510.201 1168.35 509.076 1167.92 507.718C1167.81 507.291 1161.37 505.274 1160.32 504.77C1156.44 502.985 1151.86 500.424 1148.29 498.368C1144.72 496.312 1136.61 489.8 1134.02 481.414C1132.67 477.061 1129.13 470.357 1132.08 470.357C1133.79 470.357 1139.9 484.696 1140.77 485.759C1152.87 500.696 1171.57 508.184 1190.93 506.904C1207.34 505.817 1234.27 497.127 1243.81 482.772C1244.67 481.491 1245.56 479.823 1245.83 478.31C1246.41 478.504 1247.69 478.116 1248.35 478.31C1249.01 478.504 1248.51 478.892 1248.54 478.931C1246.68 484.091 1243 488.242 1239 491.85C1237.57 493.169 1234.23 496.04 1232.6 496.971C1231.2 497.786 1229.03 498.873 1227.56 499.648C1219.72 503.839 1212.89 506.166 1204.16 507.757C1195.43 509.348 1186.51 510.744 1177.43 509.27C1175.45 508.96 1173.55 508.261 1171.57 508.378C1171.96 509.58 1171.14 510.395 1170.99 511.249C1170.02 515.866 1169.59 519.978 1168.82 524.401C1168.39 526.729 1167.54 527.97 1167.38 530.647C1167.23 530.686 1166.84 530.57 1166.8 530.647C1166.76 530.725 1166.84 531.307 1166.8 531.54C1164.86 539.92 1163.31 548.184 1161.6 556.602C1159.89 565.021 1158.26 570.88 1158.65 575.923C1158.83 578.259 1158.97 579.414 1162.07 578.794C1162.45 578.717 1164.98 576.505 1165.4 576.195C1170.45 572.626 1174.95 568.785 1179.33 564.09C1180.42 562.888 1183.25 560.211 1183.37 558.814C1183.53 556.813 1169.32 557.456 1185.93 555.051C1188.1 555.012 1192.25 556.564 1194.69 556.835C1197.14 557.107 1199.62 556.952 1201.79 556.486C1203.97 556.021 1206.29 554.352 1207.65 556.098C1209.01 557.844 1207.89 556.99 1207.92 557.068C1207.54 559.357 1205.09 560.366 1203.11 561.103C1201.13 561.84 1202.57 560.87 1202.69 561.53C1203.66 562.5 1204.39 563.625 1205.21 564.711C1206.88 566.806 1208.23 569.561 1209.98 571.811C1211.73 574.061 1215.3 577.359 1215.68 577.553C1216.07 577.747 1217.74 578.212 1217.86 578.212C1219.99 578.6 1221.89 577.126 1222.63 575.186C1222.82 574.682 1222.71 574.255 1222.78 574.022C1226.12 564.09 1227.9 553.344 1230 543.179C1230.38 541.258 1230.1 539.07 1231.59 537.398C1233.72 535.031 1236.63 538.368 1235.7 540.928H1236.75C1243.7 538.678 1250.52 536.118 1257.39 533.712C1260.18 532.742 1262.2 532.044 1264.96 530.686C1266.74 529.805 1270.39 527.388 1272.52 527.776C1274.66 528.164 1293.15 552.747 1298.09 555.361C1300.5 556.648 1314.59 562.522 1314.03 555.827C1313.96 554.779 1313.14 553.15 1312.91 552.102C1308.21 531.074 1303.02 509.387 1293.86 489.949C1291.11 484.13 1282.72 473.693 1276.01 472.529C1267.87 471.116 1252.43 472.833 1248.35 473.46C1248.61 472.048 1249.08 470.808 1249.32 469.697C1249.59 468.484 1249.32 467.216 1251.18 466.283C1254.91 464.77 1259.41 466.438 1262.82 465.701C1266.24 464.964 1265.03 463.722 1263.29 462.52C1260.77 460.735 1253.51 459.688 1250.6 460.425C1251.03 458.33 1251.38 455.459 1251.76 453.364C1254.66 438.311 1264.68 426.911 1265.23 411.191C1265.81 396.953 1265.34 381.977 1263.09 367.933C1262.16 362.08 1261.77 357.756 1257.47 364.324C1254.99 368.088 1252.54 373.752 1250.25 377.903C1244.47 388.379 1238.54 398.699 1233.03 409.639C1232.25 411.191 1231.9 412.51 1231.36 413.985C1230.81 415.459 1229.26 415.692 1228.37 414.993C1226.9 413.829 1228.99 411.346 1229.3 410.144C1229.81 408.204 1228.68 403.781 1228.56 401.531C1228.29 395.75 1228.29 389.931 1227.94 384.111C1227.71 380.076 1228.37 376.119 1227.28 372.123C1226.2 368.127 1223.91 371.929 1222.94 373.675C1216.77 384.732 1215.84 396.177 1207.92 406.652C1206.95 407.971 1207.15 409.833 1204.78 409.251C1204.9 406.109 1205.83 404.441 1201.95 404.13C1198.65 403.859 1193.49 403.626 1190.19 403.859C1186.9 404.091 1184.18 404.557 1182.63 405.178C1181.08 405.798 1181.35 406.691 1181.35 406.768C1181.01 408.463 1183.18 412.544 1178.9 410.571L1173.47 399.552C1169.28 391.715 1167.42 382.21 1163.85 374.334C1162.09 370.443 1160.89 368.12 1158.96 372.937C1157.88 375.537 1157.91 378.485 1157.26 381.124C1155.12 389.853 1154.04 399.358 1154.23 408.863C1154.5 422.375 1149.25 409.178 1146.82 403.432C1143.4 395.207 1139.6 386.284 1136.65 377.709C1135.22 373.597 1134.29 366.652 1131.11 363.704C1129.66 362.361 1129.99 361.76 1128.04 363.704C1117.22 373.946 1117.06 404.79 1120.01 418.408C1122.96 432.025 1125.25 432.568 1127.15 439.862C1129.05 447.195 1130.06 455.575 1131.46 463.218C1133.24 470.163 1132.23 467.059 1132.89 468.882C1131.92 468.727 1129.01 469.115 1127.77 469.193C1127.65 467.874 1129.9 469.232 1129.83 467.913C1129.75 466.593 1129.32 465.313 1129.21 464.615C1127.19 455.187 1125.71 445.139 1121.45 436.371C1120.32 434.043 1118.15 431.405 1117.29 429.271C1110.28 411.743 1112.71 388.863 1118.46 371.424C1119.39 368.553 1120.63 365.217 1122.38 362.928C1124.12 360.639 1124.7 359.785 1127.61 359.009C1129.9 358.776 1131.07 359.009 1131.88 359.785C1135.96 363.67 1138.83 374.064 1140.84 379.455Z" fill="#2E7037"/>
<path d="M1136.65 479.784C1137.16 479.707 1138.71 479.668 1139.14 479.784C1139.75 479.952 1142.18 480.365 1142.05 481.724C1141.91 483.084 1138.43 484.901 1135.76 486.458C1133.12 487.998 1129.01 491.575 1126.84 489.367C1125.38 487.879 1126.1 485.876 1128 484.324C1128.33 484.056 1130.09 482.671 1131.57 481.841C1133.46 480.783 1135.02 479.978 1136.69 479.746L1136.65 479.784Z" fill="#388F44"/>
<path d="M1232.6 496.933L1231.09 500.308C1227.56 506.36 1223.83 510.162 1218.48 514.546C1215.06 517.34 1214.05 517.689 1209.67 518.659C1205.29 519.629 1204.98 519.474 1202.69 519.784C1198.5 520.366 1192.02 518.969 1188.06 519.9C1186.12 520.366 1182.67 521.918 1180.61 522.694C1176.65 524.207 1173.05 527.194 1169.71 529.328C1165.17 533.635 1166.99 530.779 1167.96 525.448C1168.74 521.026 1169.98 515.827 1170.91 511.21C1171.84 506.593 1171.88 509.542 1171.49 508.339C1173.51 508.223 1175.37 508.921 1177.35 509.231C1186.43 510.667 1195 509.348 1204.08 507.718C1213.16 506.089 1219.64 503.8 1227.48 499.61C1228.95 498.834 1231.16 497.747 1232.52 496.933H1232.6Z" fill="#388F44"/>
<path d="M1195.9 401.259C1195.51 402.462 1187.4 402.423 1186.86 401.88C1186.31 401.336 1187.4 400.561 1187.44 400.444C1190.23 392.452 1191.16 381.744 1190.47 373.131C1190.04 367.971 1186.47 364.712 1188.87 359.203C1189.59 357.775 1191.07 356.681 1192.72 356.681C1194.73 356.487 1196.56 358.194 1196.79 360.173C1197.29 364.324 1195.39 365.566 1194.15 368.98C1191.78 375.381 1190.74 390.473 1193.38 396.72C1193.61 397.263 1196.06 400.742 1195.9 401.259Z" fill="#7AB026"/>
<path d="M1250.64 459.61C1253.55 458.873 1261.5 460.231 1264.02 462.015C1266.55 463.8 1265.07 465.468 1263.37 465.856C1259.95 466.632 1255.49 465.313 1251.77 466.826C1248.97 467.963 1245.96 471.222 1242.41 470.745C1241.21 470.59 1240.51 468.727 1240.75 467.641C1241.07 466.126 1243.55 463.747 1245.13 462.636C1247.23 461.162 1249.55 459.882 1250.64 459.61Z" fill="#388F44"/>
<path d="M1127.58 468.338C1124.61 468.788 1118.67 472.475 1117.03 475.098C1115.4 477.722 1118.71 477.257 1120.44 476.952C1123.88 476.343 1126.18 474.825 1130.2 474.774C1133.22 474.736 1138.11 475.665 1141.19 473.849C1142.24 473.239 1141.31 472.16 1140.67 471.249C1139.78 469.98 1136.57 468.749 1134.69 468.338C1132.19 467.792 1128.69 468.167 1127.58 468.338Z" fill="#388F44"/>
<path d="M1183.64 558.736C1183.48 560.094 1180.69 562.81 1179.6 564.013C1176.13 567.731 1167.58 578.082 1162.14 578.988C1161.76 579.066 1159.62 579.376 1159.23 578.406C1160.2 578.406 1162.43 576.133 1162.65 575.885C1167.5 570.414 1169.63 562.383 1175.41 557.805C1178.11 555.655 1184.03 554.081 1183.64 558.736Z" fill="#388F44"/>
<path d="M1208.31 556.99C1208.47 557.611 1208.16 558.581 1208.31 559.279C1208.38 559.575 1209.56 561.037 1209.79 561.336C1211.84 564.827 1213.7 568.746 1215.76 572.276C1217.82 575.807 1218.79 577.359 1220.42 576.893C1222.05 576.428 1222.28 573.557 1223.06 573.169C1222.98 573.402 1222.86 575.031 1222.71 575.497C1221.97 577.436 1220.03 578.872 1217.93 578.523C1214.24 577.907 1211.63 574.722 1209.4 571.889C1207.65 569.638 1206.8 566.69 1205.13 564.595C1204.28 563.547 1203.46 562.306 1202.49 561.336C1202.34 560.44 1207.15 558.746 1207.69 556.99C1208.12 556.486 1208.12 556.68 1208.31 556.99Z" fill="#388F44"/>
<path d="M1251.18 472.49C1254 472.546 1257.03 473.245 1257.86 474.896C1258.98 476.836 1256.96 478.426 1255.22 478.814C1252.6 479.397 1241.89 479.839 1244.47 474.391C1245.61 472.704 1248.53 472.438 1251.18 472.49Z" fill="#388F44"/>
<path d="M1271.16 528.357C1271.16 528.357 1270.39 527.775 1271.75 527.193C1275.16 526.301 1276.71 528.939 1278.61 531.073C1280.13 532.78 1281.52 534.992 1283.15 536.97C1288.66 543.76 1296.96 550.743 1304.33 555.554C1305.54 556.33 1307.24 557.649 1309.57 559.007C1308.49 559.007 1305.23 558.231 1304.1 557.96C1302.75 557.633 1299.76 556.256 1297.93 555.283C1288.54 550.317 1280.4 541.975 1273.68 533.711C1272.3 532.09 1273.7 528.162 1271.16 528.357Z" fill="#388F44"/>
<path d="M1271.75 527.193C1271.9 527.892 1271.78 528.124 1271.36 528.357C1268.6 529.754 1259.41 533.013 1256.61 533.983C1257.39 533.207 1257.68 533.123 1258.24 532.935C1260.57 532.159 1264.07 530.106 1267.87 528.551C1269.38 527.932 1271.75 527.193 1271.75 527.193Z" fill="#388F44"/>
<path d="M1202.45 449.6C1210.94 443.489 1222.4 436.129 1233.03 434.663C1237.06 434.159 1242.45 436.603 1244.35 440.328C1246.33 444.208 1246.18 448.708 1244.78 452.704C1240.51 464.964 1228.91 471.87 1216.15 471.327C1212.27 471.133 1203.04 469.697 1199.78 467.641C1196.6 465.64 1194.18 462.386 1195.7 458.524C1196.88 455.578 1199.83 451.404 1202.45 449.6ZM1232.13 454.023C1233.8 452.743 1236.83 449.911 1237.14 447.738C1237.6 444.401 1236.94 440.677 1233.03 440.056C1229.11 439.435 1223.29 441.569 1219.21 443.936C1215.14 446.303 1212.31 449.251 1211.88 451.928C1211.45 454.605 1211.88 456.584 1214.09 457.786C1219.14 460.541 1227.94 457.204 1232.13 453.984V454.023Z" fill="#251D51"/>
<path d="M1245.25 428.456C1242.1 427.283 1238.53 421.172 1238.61 419.765C1238.69 418.524 1240.16 416.196 1240.79 415.032C1246.64 404.014 1251.18 394.159 1255.76 382.365C1256.19 381.279 1256.5 378.446 1257.47 377.826C1258.9 376.895 1260.34 377.942 1260.57 379.455C1262.49 391.247 1260.46 405.947 1257.97 417.399C1256.63 423.578 1253.17 431.406 1245.25 428.456Z" fill="#388F44"/>
<path d="M1129.4 379.028C1130.56 379.799 1131.17 383.57 1131.53 384.848C1134.56 394.741 1138.98 403.431 1142.75 413.014C1143.17 414.139 1144.41 416.933 1144.45 417.942C1144.56 420.849 1135.42 428.345 1133.32 429.076C1129.07 430.554 1128.21 429.004 1127.11 424.809C1125.71 419.455 1124.59 410.337 1124.32 404.751C1124.05 399.047 1124.78 385.236 1127.23 380.231C1127.58 379.532 1128.62 378.369 1129.4 379.067V379.028Z" fill="#388F44"/>
<path d="M1202.53 477.185C1204.25 490.226 1193.38 488.165 1187.9 485.177C1186.59 485.958 1185.22 487.847 1183.64 488.165C1180.2 488.902 1175.99 488.134 1174.09 484.867C1173.12 483.199 1172.97 479.978 1174.64 478.388C1177.08 475.982 1177.31 479.629 1178.13 480.754C1178.94 481.88 1182.05 482.461 1183.17 480.754C1184.3 479.047 1184.88 475.594 1188.18 475.866C1191.13 476.138 1190.5 480.172 1192.1 480.366C1193.69 480.56 1195.43 480.444 1196.09 480.25C1197.18 479.901 1196.6 477.767 1196.79 476.952C1197.02 475.979 1198.34 473.693 1199.93 473.693C1201.34 473.693 1202.45 476.086 1202.53 477.185Z" fill="#388F44"/>
<path d="M1182.36 430.745C1188.53 427.874 1195.43 427.253 1201.52 431.559C1207.46 435.764 1197.49 441.297 1193.53 442.073C1189.07 442.953 1181.72 442.702 1179.02 438.388C1177.78 436.278 1179.21 432.723 1182.36 430.745ZM1194.58 432.374C1192.87 431.133 1189.07 431.482 1187.13 432.335C1184.14 433.616 1184.96 436.681 1187.94 437.069C1190.93 437.457 1191.82 436.913 1192.99 436.448C1194.15 435.982 1195.28 434.314 1195.32 434.159C1195.55 433.266 1195.24 432.878 1194.58 432.413V432.374Z" fill="#251D51"/>
<path d="M1162.96 392.025C1165.4 397.457 1168.31 402.695 1170.95 408.049C1171.18 410.687 1165.09 413.364 1162.96 414.179C1159.59 416.001 1159.58 406.218 1159.51 405.294C1159.23 401.608 1158.73 397.573 1158.54 393.888C1158.54 385.973 1160.51 386.594 1162.96 392.025Z" fill="#388F44"/>
<path d="M1219.99 411.424C1218.57 410.196 1215.49 407.852 1215.49 405.992C1215.49 402.384 1218.44 394.702 1219.99 391.482C1220.73 389.93 1221.23 388.417 1222.9 387.525C1225.34 394.572 1226.15 404.549 1225.15 411.773C1224.58 415.878 1223.01 414.043 1219.99 411.424Z" fill="#388F44"/>
<path d="M1231.17 481.801C1229.29 482.523 1224.38 482.353 1223.32 480.316C1222.26 478.279 1222.5 475.782 1224.41 474.042C1226.33 472.302 1227.21 471.666 1228.35 470.732C1237.62 463.49 1237.72 479.28 1231.17 481.801Z" fill="#388F44"/>
<path d="M1158.54 474.741C1159.47 475.711 1158.54 478.814 1157.91 479.862C1156.51 482.234 1151.84 482.939 1149.46 482.461C1145.7 481.711 1145.85 477.037 1149.03 475.129C1152.21 473.22 1156.63 472.762 1158.5 474.702L1158.54 474.741Z" fill="#388F44"/>
<path d="M1231.3 454.644C1226.85 457.947 1217.55 461.37 1212.16 458.544C1209.81 457.31 1209.4 454.28 1209.81 451.852C1210.22 449.424 1215.2 445.006 1217.59 443.653C1221.91 441.185 1227.18 438.877 1232.24 439.673C1237.31 440.469 1237.67 444.13 1237.22 447.553C1236.74 451.14 1233.92 452.704 1231.3 454.644Z" fill="#BBBBBC"/>
<path d="M1195.64 434.16C1195.44 435.193 1194.93 436.05 1193.23 436.809C1192.02 437.347 1189.29 437.706 1188 437.527C1184.95 437.078 1184.06 433.532 1187.16 432.05C1189.03 431.154 1196.45 430.011 1195.64 434.16Z" fill="#BBBBBC"/>
<path d="M1181.73 465.484C1176.96 469.63 1164.95 470.984 1158.8 470.434C1152.66 469.884 1144.5 466.034 1140.15 460.661C1135.8 455.289 1135.25 453.216 1134.67 450.254C1134.08 447.293 1133.5 443.316 1134.79 439.593C1142.23 418.5 1190.66 452.898 1181.73 465.484ZM1142.49 444.363C1142.57 450.624 1147.22 452.561 1152.44 455.226C1156.71 457.383 1161.77 458.568 1165.96 455.522C1172.4 450.829 1167.87 450.953 1164.41 447.011C1160.3 442.46 1142.34 432.541 1142.49 444.363Z" fill="#251D51"/>
<path d="M1156.56 439.772C1169.93 443.767 1179.39 462.149 1158.53 458.98C1150.4 457.746 1144.21 453.359 1142.81 446.51C1140.97 437.525 1148.43 437.341 1156.56 439.772Z" fill="#BBBBBC"/>
<path d="M1390.37 455.449C1366.43 474.227 1339.07 489.079 1309.86 499.128C1294.47 504.418 1276.94 509.638 1269.43 523.443C1265.66 530.379 1265.12 538.438 1264.66 546.232C1263.1 572.283 1261.55 598.341 1260 624.392C1341.27 623.059 1422.02 599.972 1490.55 558.477C1497.38 554.343 1504.29 549.832 1508.55 543.287C1513.22 536.118 1514.14 527.369 1514.82 518.959C1517.84 481.435 1518.29 443.723 1516.17 406.148C1515.94 402.066 1515.49 397.562 1512.36 394.747C1508.92 391.647 1503.55 391.757 1498.84 392.29C1440.63 398.829 1393.17 437.965 1349.71 475.299" fill="url(#paint15_linear_3002_4242)"/>
<path d="M1284.01 651.162C1289.17 629.634 1276.4 607.294 1258.79 592.852C1250.47 586.027 1240.76 580.34 1229.96 578.416C1215.58 575.848 1200.5 580.281 1188.44 588.153C1176.39 596.024 1167.02 607.08 1158.98 618.682C1152.45 628.094 1146.57 638.201 1144.5 649.296C1142.44 660.392 1144.7 672.676 1152.76 680.937C1159.52 687.846 1169.39 691.161 1179.06 693.3C1201.56 698.285 1225.28 698.24 1247.76 693.163C1263.54 689.601 1280.39 681.945 1285.48 667.333C1289.19 656.661 1285.62 645.078 1282.05 634.366" fill="url(#paint16_linear_3002_4242)"/>
<path d="M1325.63 422.566C1318.17 425.271 1313.31 423.675 1306.78 430.064C1292.02 444.481 1291.07 466.743 1291 486.833C1290.98 492.04 1291.11 497.656 1294.4 501.816C1296.73 504.76 1300.34 506.515 1303.91 507.971C1320.04 514.523 1338.11 516.739 1355.46 514.289C1363.82 513.112 1372.34 510.694 1378.52 505.228C1386.07 498.553 1388.95 488.394 1390.1 478.663C1391.67 465.358 1390.53 451.488 1384.6 439.333C1378.67 427.185 1367.51 416.961 1353.82 413.737C1340.13 410.519 1336.46 418.639 1325.63 422.566Z" fill="url(#paint17_linear_3002_4242)"/>
<path d="M1099.58 610.512C1102.89 609.316 1106.57 609.856 1108.91 612.501C1111.24 615.153 1111.21 618.702 1110.6 621.926C1109.3 628.775 1110.42 631.615 1104.76 637.531C1098.64 643.919 1088.4 641.568 1081.68 640.47C1076.88 639.682 1078.47 631.804 1079.33 628.582C1080.98 622.425 1086.3 617.617 1092.54 615.757C1094.52 613.588 1096.73 611.541 1099.58 610.512Z" fill="url(#paint18_linear_3002_4242)"/>
<path fill-rule="evenodd" clip-rule="evenodd" d="M1099.78 672.065C1103.05 671.558 1107.39 671.545 1109.29 674.6C1112.37 679.579 1107.96 687.034 1101.64 686.384H1101.66C1099.6 686.175 1098.61 684.688 1096.73 683.863C1094.93 683.075 1093.6 683.581 1092.22 682.277C1090.44 680.58 1090.16 677.233 1092.22 675.588C1094.43 673.827 1096.9 672.514 1099.78 672.065Z" fill="url(#paint19_linear_3002_4242)"/>
<path fill-rule="evenodd" clip-rule="evenodd" d="M1000.24 648.061C1001.96 645.221 1005.6 643.901 1008.74 645.162C1011.88 646.423 1013.34 649.842 1012.44 652.903C1011.64 655.672 1008.98 658.012 1005.81 657.85H1005.81C1005.15 657.815 1004.52 657.679 1003.95 657.457C1003.37 657.365 1002.82 657.184 1002.4 656.894C1000.72 655.731 999.637 654.392 999.356 652.403C999.143 650.895 999.438 649.393 1000.24 648.061Z" fill="url(#paint20_linear_3002_4242)"/>
<path fill-rule="evenodd" clip-rule="evenodd" d="M960.949 620.251C969.072 618.945 976.305 622.961 982.914 626.92C986.332 628.967 989.764 631.21 993.538 632.633C997.866 634.258 1002.49 634.362 1007.08 634.225C1016.02 633.952 1025.09 632.886 1033.6 636.24C1040.99 639.159 1046.35 645.08 1046.43 652.906C1046.48 659.483 1042.51 666.172 1035.39 667.621C1035.38 667.624 1035.36 667.625 1035.35 667.627C1033.15 670.079 1030.62 672.265 1027.84 674.11C1025.5 677.026 1022.15 679.421 1018.27 681.271C1009.67 685.372 999.948 686.653 990.64 688.57C979.784 690.8 968.894 693.549 957.88 694.953C949.321 696.041 940.498 695.61 933.125 691.502C930.568 691.238 928.024 690.802 925.511 690.182C918.114 688.363 908.58 684.93 906.45 677.098C904.56 670.137 908.854 662.883 914.998 659.204C915.579 658.857 916.061 658.583 916.532 658.112C924.059 650.579 931.922 643.318 939.614 635.935C945.593 630.195 952.004 621.694 960.949 620.251Z" fill="url(#paint21_linear_3002_4242)"/>
<path d="M1348.57 356.163C1367.77 358.561 1391.22 343.632 1389.04 328.981C1386.87 314.33 1379.87 291.152 1367.77 290.015C1355.67 288.877 1320.58 352.667 1348.57 356.163Z" fill="url(#paint22_linear_3002_4242)"/>
<path d="M1251.15 234.036C1242.72 236.676 1240.02 256.064 1246.93 265.645C1253.86 275.226 1267.92 279.091 1279.52 273.295C1296.86 264.635 1255.21 232.766 1251.15 234.036Z" fill="url(#paint23_linear_3002_4242)"/>
<path d="M1264.6 88.5271C1222.13 137.353 1265.8 146.881 1275.19 137.353C1284.58 127.824 1285.58 113.291 1283.59 100.382C1282.84 95.5916 1281.57 90.5154 1277.8 87.2525C1274.01 83.9961 1267.9 84.7375 1264.6 88.5271Z" fill="url(#paint24_linear_3002_4242)"/>
<path d="M1336.79 12.9995C1331.3 21.6939 1326.13 29.6592 1332.24 35.9681C1338.3 42.2148 1348.14 38.0487 1353.28 30.9257C1360.8 20.4917 1348.34 15.4768 1336.79 12.9995Z" fill="url(#paint25_linear_3002_4242)"/>
<path fill-rule="evenodd" clip-rule="evenodd" d="M1149.2 211.005C1152.58 210.901 1155.85 212.415 1158.32 214.515C1159.53 215.535 1160.59 216.789 1161.31 218.174C1168.48 231.915 1152.58 229.339 1146.52 232.369C1144.25 233.5 1136.35 235.348 1134.51 233.246C1124.49 221.793 1137.98 211.346 1149.2 211.005Z" fill="url(#paint26_linear_3002_4242)"/>
</g>
<defs>
<linearGradient id="paint0_linear_3002_4242" x1="1303.46" y1="296.768" x2="1303.46" y2="565.06" gradientUnits="userSpaceOnUse">
<stop offset="0.29" stop-color="#F89D4E"/>
<stop offset="0.97" stop-color="#F06324"/>
</linearGradient>
<linearGradient id="paint1_linear_3002_4242" x1="-186.342" y1="631.937" x2="1539" y2="631.937" gradientUnits="userSpaceOnUse">
<stop offset="0.29" stop-color="#503111"/>
<stop offset="0.97" stop-color="#311211"/>
</linearGradient>
<linearGradient id="paint2_linear_3002_4242" x1="668.697" y1="433.698" x2="668.697" y2="726.741" gradientUnits="userSpaceOnUse">
<stop offset="0.29" stop-color="#F89D4E"/>
<stop offset="0.97" stop-color="#F06324"/>
</linearGradient>
<linearGradient id="paint3_linear_3002_4242" x1="49.3008" y1="309.659" x2="49.3008" y2="513.39" gradientUnits="userSpaceOnUse">
<stop offset="0.29" stop-color="#F89D4E"/>
<stop offset="0.97" stop-color="#F06324"/>
</linearGradient>
<linearGradient id="paint4_linear_3002_4242" x1="135.893" y1="449.024" x2="135.893" y2="547.781" gradientUnits="userSpaceOnUse">
<stop offset="0.29" stop-color="#F89D4E"/>
<stop offset="0.97" stop-color="#F06324"/>
</linearGradient>
<linearGradient id="paint5_linear_3002_4242" x1="51.877" y1="456.922" x2="51.877" y2="647.755" gradientUnits="userSpaceOnUse">
<stop offset="0.29" stop-color="#F89D4E"/>
<stop offset="0.97" stop-color="#F06324"/>
</linearGradient>
<linearGradient id="paint6_linear_3002_4242" x1="180.197" y1="523.966" x2="221.18" y2="523.966" gradientUnits="userSpaceOnUse">
<stop offset="0.29" stop-color="#F89D4E"/>
<stop offset="0.97" stop-color="#F06324"/>
</linearGradient>
<linearGradient id="paint7_linear_3002_4242" x1="233.081" y1="524.689" x2="248.471" y2="524.689" gradientUnits="userSpaceOnUse">
<stop offset="0.29" stop-color="#F89D4E"/>
<stop offset="0.97" stop-color="#F06324"/>
</linearGradient>
<linearGradient id="paint8_linear_3002_4242" x1="-18.9166" y1="642.552" x2="58.3679" y2="642.552" gradientUnits="userSpaceOnUse">
<stop offset="0.29" stop-color="#F89D4E"/>
<stop offset="0.97" stop-color="#F06324"/>
</linearGradient>
<linearGradient id="paint9_linear_3002_4242" x1="191.936" y1="227.005" x2="191.936" y2="318.056" gradientUnits="userSpaceOnUse">
<stop offset="0.29" stop-color="#F89D4E"/>
<stop offset="0.97" stop-color="#F06324"/>
</linearGradient>
<linearGradient id="paint10_linear_3002_4242" x1="186.744" y1="209.344" x2="186.744" y2="247.509" gradientUnits="userSpaceOnUse">
<stop offset="0.29" stop-color="#F89D4E"/>
<stop offset="0.97" stop-color="#F06324"/>
</linearGradient>
<linearGradient id="paint11_linear_3002_4242" x1="57.5281" y1="182.575" x2="57.5281" y2="222.7" gradientUnits="userSpaceOnUse">
<stop offset="0.29" stop-color="#F89D4E"/>
<stop offset="0.97" stop-color="#F06324"/>
</linearGradient>
<linearGradient id="paint12_linear_3002_4242" x1="80.0132" y1="71.0363" x2="80.0132" y2="102.552" gradientUnits="userSpaceOnUse">
<stop offset="0.29" stop-color="#F89D4E"/>
<stop offset="0.97" stop-color="#F06324"/>
</linearGradient>
<linearGradient id="paint13_linear_3002_4242" x1="168.996" y1="342.163" x2="168.996" y2="362.656" gradientUnits="userSpaceOnUse">
<stop offset="0.29" stop-color="#F89D4E"/>
<stop offset="0.97" stop-color="#F06324"/>
</linearGradient>
<linearGradient id="paint14_linear_3002_4242" x1="1229.31" y1="385.92" x2="1229.31" y2="425.131" gradientUnits="userSpaceOnUse">
<stop offset="0.29" stop-color="#F89D4E"/>
<stop offset="0.97" stop-color="#F06324"/>
</linearGradient>
<linearGradient id="paint15_linear_3002_4242" x1="1386.94" y1="398.38" x2="1386.94" y2="630.281" gradientUnits="userSpaceOnUse">
<stop offset="0.29" stop-color="#F89D4E"/>
<stop offset="0.97" stop-color="#F06324"/>
</linearGradient>
<linearGradient id="paint16_linear_3002_4242" x1="1213.85" y1="583.681" x2="1213.85" y2="702.744" gradientUnits="userSpaceOnUse">
<stop offset="0.29" stop-color="#F89D4E"/>
<stop offset="0.97" stop-color="#F06324"/>
</linearGradient>
<linearGradient id="paint17_linear_3002_4242" x1="1339.09" y1="419.104" x2="1339.09" y2="521.39" gradientUnits="userSpaceOnUse">
<stop offset="0.29" stop-color="#F89D4E"/>
<stop offset="0.97" stop-color="#F06324"/>
</linearGradient>
<linearGradient id="paint18_linear_3002_4242" x1="1081.13" y1="631.246" x2="1105.71" y2="631.246" gradientUnits="userSpaceOnUse">
<stop offset="0.29" stop-color="#F89D4E"/>
<stop offset="0.97" stop-color="#F06324"/>
</linearGradient>
<linearGradient id="paint19_linear_3002_4242" x1="1094.2" y1="684.899" x2="1104.37" y2="684.899" gradientUnits="userSpaceOnUse">
<stop offset="0.29" stop-color="#F89D4E"/>
<stop offset="0.97" stop-color="#F06324"/>
</linearGradient>
<linearGradient id="paint20_linear_3002_4242" x1="1002.78" y1="657.112" x2="1006.93" y2="657.112" gradientUnits="userSpaceOnUse">
<stop offset="0.29" stop-color="#F89D4E"/>
<stop offset="0.97" stop-color="#F06324"/>
</linearGradient>
<linearGradient id="paint21_linear_3002_4242" x1="907.317" y1="664.492" x2="1038.17" y2="664.492" gradientUnits="userSpaceOnUse">
<stop offset="0.29" stop-color="#F89D4E"/>
<stop offset="0.97" stop-color="#F06324"/>
</linearGradient>
<linearGradient id="paint22_linear_3002_4242" x1="1364.95" y1="296.688" x2="1364.95" y2="370.421" gradientUnits="userSpaceOnUse">
<stop offset="0.29" stop-color="#F89D4E"/>
<stop offset="0.97" stop-color="#F06324"/>
</linearGradient>
<linearGradient id="paint23_linear_3002_4242" x1="1260.13" y1="234.841" x2="1260.13" y2="282.399" gradientUnits="userSpaceOnUse">
<stop offset="0.29" stop-color="#F89D4E"/>
<stop offset="0.97" stop-color="#F06324"/>
</linearGradient>
<linearGradient id="paint24_linear_3002_4242" x1="1260" y1="89.2216" x2="1260" y2="151.149" gradientUnits="userSpaceOnUse">
<stop offset="0.29" stop-color="#F89D4E"/>
<stop offset="0.97" stop-color="#F06324"/>
</linearGradient>
<linearGradient id="paint25_linear_3002_4242" x1="1341.05" y1="10.4031" x2="1341.05" y2="43.9747" gradientUnits="userSpaceOnUse">
<stop offset="0.29" stop-color="#F89D4E"/>
<stop offset="0.97" stop-color="#F06324"/>
</linearGradient>
<linearGradient id="paint26_linear_3002_4242" x1="1147.01" y1="218.015" x2="1147.01" y2="239.862" gradientUnits="userSpaceOnUse">
<stop offset="0.29" stop-color="#F89D4E"/>
<stop offset="0.97" stop-color="#F06324"/>
</linearGradient>
</defs>
</svg>
