<svg width="1512" height="1186" viewBox="0 200 1512 1186" fill="none" xmlns="http://www.w3.org/2000/svg">
<g clip-path="url(#clip0_323_1925)">
<rect width="1512" height="1186" fill="#BEDDFF"/>
<path d="M-167.137 791.891L1608 901C1605.14 816.449 1601.99 512.766 1528.14 452.984C1435.83 378.256 1402.4 383.519 1310.09 452.984C1217.79 522.449 1119.44 682.43 1073.28 657.17C1027.13 631.91 869.782 513.087 781.617 517.998C693.452 522.91 483.451 631.91 483.451 711.9C483.451 791.891 139.37 356.519 34.3415 356.519C-70.6874 356.519 -162.699 341.433 -204.71 406.338C-238.319 458.261 -218.615 627.349 -234 657.17L-204.71 791.891H-167.137Z" fill="#46616F"/>
<path d="M723.356 447.767L782.095 453.683L870.569 462.593L948.41 470.433L1020.35 477.678L1086.59 484.349L1149.37 490.672L1226.1 498.318V447.396V421.935L723.356 371.054V447.767Z" fill="#FBEDCD"/>
<path d="M782.095 491.59V453.683C773.845 464.055 743.618 487.843 688.707 500.011L735.401 495.801L782.095 491.59Z" fill="#FBEDCD"/>
<path d="M870.569 500.714V462.593C860.794 489.616 839.869 496.171 813.379 494.817L844.662 498.043L870.569 500.714Z" fill="#FBEDCD"/>
<path d="M847.415 797.606L844.662 498.043L813.379 494.817L814.755 797.606H847.415Z" fill="#FBEDCD"/>
<path d="M912.736 797.606H930.261V506.87L905.748 504.342V797.606H912.736Z" fill="#FBEDCD"/>
<path d="M1002.86 797.606V514.357L980.089 512.009V797.606H1002.86Z" fill="#FBEDCD"/>
<path d="M1071.83 797.606V521.469L1050.38 519.257L1052.19 797.606H1071.83Z" fill="#FBEDCD"/>
<path d="M1138.15 797.606V528.31L1119.18 526.353V797.606H1138.15Z" fill="#FBEDCD"/>
<path d="M1211.08 797.606L1210.75 535.762L1189.63 533.596L1189.8 797.606H1211.08Z" fill="#FBEDCD"/>
<path d="M1226.1 396.474L1183.69 389.24L1167.52 387.626L723.356 343.278V363.449L1226.1 415.362V396.474Z" fill="#FFF7E5"/>
<path d="M710.487 319.801L723.356 343.278L957.32 289.502L966.478 287.397C985.865 314.401 1037.57 358.687 1089.32 319.801L1183.69 389.24L1226.1 396.474L1089.32 304.922C1030.18 326.878 999.779 295.773 991.969 277.477V254L710.487 319.801Z" fill="#FFF7E5"/>
<path d="M232 500.011L259.059 497.134L277.209 495.204L311.198 491.59L351.787 487.275L371.586 485.17L392.376 482.959L429.995 478.959L476.523 474.012L492.693 472.293L516.782 469.731L557.371 465.416L600.27 460.854L620.069 458.749L644.489 456.153L688.707 451.451L723.356 447.767V371.054L232 423.959V500.011Z" fill="#D4B4AB"/>
<path d="M723.356 447.767L688.707 451.451V500.011C743.618 487.843 773.845 464.055 782.095 453.683L723.356 447.767Z" fill="#D4B4AB"/>
<path d="M782.095 453.683V491.59L813.379 494.817C839.869 496.171 860.794 489.616 870.569 462.593L782.095 453.683Z" fill="#D4B4AB"/>
<path d="M723.356 371.054L1226.1 421.935V415.362L723.356 363.449V371.054Z" fill="#D4B4AB"/>
<path d="M782.095 491.59V797.606H814.755L813.379 494.817C807.755 494.529 786.394 492.288 782.095 491.59Z" fill="#D4B4AB"/>
<path d="M881.236 501.995V797.606H905.748V504.342L881.236 501.995Z" fill="#D4B4AB"/>
<path d="M957.32 509.661V797.606H980.089V512.009L957.32 509.661Z" fill="#D4B4AB"/>
<path d="M1028.93 517.045L1032.56 797.606H1052.19L1050.38 519.257L1028.93 517.045Z" fill="#D4B4AB"/>
<path d="M1100.21 524.396V797.606H1119.18V526.353L1100.21 524.396Z" fill="#D4B4AB"/>
<path d="M1168.51 531.43V797.606H1189.8L1189.63 533.596L1168.51 531.43Z" fill="#D4B4AB"/>
<path d="M870.569 462.593V500.714L881.236 501.995L905.748 504.342C918.979 499.713 946.034 486.449 948.41 470.433L870.569 462.593Z" fill="#D4B4AB"/>
<path d="M948.41 508.742V470.433C946.034 486.449 918.979 499.713 905.748 504.342L930.261 506.87L948.41 508.742Z" fill="#FBEDCD"/>
<path d="M1020.35 516.161V477.678C1013.48 507.162 990.649 512.85 980.089 512.009L1002.86 514.357L1020.35 516.161Z" fill="#FBEDCD"/>
<path d="M948.41 470.433V508.742L957.32 509.661L980.089 512.009C990.649 512.85 1013.48 507.162 1020.35 477.678L948.41 470.433Z" fill="#D4B4AB"/>
<path d="M1086.59 522.991V484.349C1083.35 513.085 1061.1 519.595 1050.38 519.257L1071.83 521.469L1086.59 522.991Z" fill="#FBEDCD"/>
<path d="M1020.35 477.678V516.161L1028.93 517.045L1050.38 519.257C1061.1 519.595 1083.35 513.085 1086.59 484.349L1020.35 477.678Z" fill="#D4B4AB"/>
<path d="M1149.37 529.467V490.672C1147.26 514.945 1128.37 524.573 1119.18 526.353L1138.15 528.31L1149.37 529.467Z" fill="#FBEDCD"/>
<path d="M1086.59 484.349V522.991L1087.75 523.112L1100.21 524.396L1119.18 526.353C1128.37 524.573 1147.26 514.945 1149.37 490.672L1086.59 484.349Z" fill="#D4B4AB"/>
<path d="M1226.1 498.318L1149.37 490.672V529.467L1168.51 531.43L1189.63 533.596C1199.09 532.735 1219.63 524.474 1226.1 498.318Z" fill="#D4B4AB"/>
<path d="M1226.1 537.336V498.318C1219.63 524.474 1199.09 532.735 1189.63 533.596L1210.75 535.762L1226.1 537.336Z" fill="#FBEDCD"/>
<path d="M688.707 500.011V451.451L644.489 456.153V797.606H688.707V500.011Z" fill="#DEC6B8"/>
<path d="M557.371 797.606V465.416L516.782 469.731V797.606H557.371Z" fill="#DEC6B8"/>
<path d="M429.995 797.606V478.959L392.376 482.959V797.606H429.995Z" fill="#DEC6B8"/>
<path d="M311.198 797.606V491.59L277.209 495.204V797.606H311.198Z" fill="#DEC6B8"/>
<path d="M620.069 458.749V797.606H644.489V456.153L620.069 458.749Z" fill="#C2908C"/>
<path d="M492.693 472.293V797.606H516.782V469.731L492.693 472.293Z" fill="#C1908C"/>
<path d="M371.586 485.17V797.606H392.376V482.959L371.586 485.17Z" fill="#C1908C"/>
<path d="M259.059 497.134V797.606H277.209V495.204L259.059 497.134Z" fill="#C1908C"/>
<path d="M371.586 797.606V485.17L351.787 487.275V797.606H371.586Z" fill="#907272"/>
<path d="M492.693 797.606V472.293L476.523 474.012V797.606H492.693Z" fill="#907272"/>
<path d="M620.069 797.606V458.749L600.27 460.854V797.606H620.069Z" fill="#907272"/>
<path d="M723.356 343.278L587.73 358.429L232 398.168V418.008L723.356 363.449V343.278Z" fill="#D4B4AB"/>
<path d="M232 423.959L723.356 371.054V363.449L232 418.008V423.959Z" fill="#C1908C"/>
<path d="M688.707 500.011V797.606H735.401V495.801L688.707 500.011Z" fill="#907272"/>
<path d="M587.73 358.429L723.356 343.278L710.487 319.801L587.73 343.278V358.429Z" fill="#C1908C"/>
<path d="M232 797.606V883.233C436.221 904.503 849.844 939.864 870.569 911.149C891.294 882.435 1000.01 903.173 1052.19 911.149C1048.33 901.218 1026.45 867.796 966.478 861.415L964.518 861.207C888.909 853.164 740.566 837.383 844.662 825.522C928.666 815.951 925.046 802.923 912.736 797.606H905.748H881.236H847.415H814.755H782.095H735.401H688.707H644.489H620.069H600.27H557.371H516.782H492.693H476.523H429.995H392.376H371.586H351.787H311.198H277.209H259.059H232Z" fill="#C1908C"/>
<path d="M1284.01 825.522H844.662C740.566 837.383 888.909 853.164 964.518 861.207L966.478 861.415L1318 861.207L1284.01 825.522Z" fill="#D4B4AB"/>
<path d="M912.736 797.606C925.046 802.923 928.666 815.951 844.662 825.522H1284.01V797.606H1211.08H1189.8H1168.51H1138.15H1119.18H1100.21H1071.83H1052.19H1032.56H1002.86H980.089H957.32H930.261H912.736Z" fill="#FBEDCD"/>
<path d="M966.478 861.415C1026.45 867.796 1048.33 901.218 1052.19 911.149L1318 955V861.207L966.478 861.415Z" fill="#FBEDCD"/>
<path fill-rule="evenodd" clip-rule="evenodd" d="M1167.52 387.626L1089.32 327.737C1031.77 376.94 977.339 322.748 957.32 289.502L723.356 343.278L1167.52 387.626Z" fill="#FBEDCD"/>
<path d="M1089.32 319.801C1037.57 358.687 985.865 314.401 966.478 287.397L957.32 289.502C977.339 322.748 1031.77 376.94 1089.32 327.737L1167.52 387.626L1183.69 389.24L1089.32 319.801Z" fill="#C1908C"/>
<path d="M-15.6406 807.61L-201 844.59V1243L492.724 1235.2C482.951 1201.97 453.1 1140.82 400.767 1104.62C383.937 1092.97 364.782 1083.91 343.222 1079.19C254.62 1059.77 225.143 929.916 221.481 867.414H143.982C144.754 841.99 142.363 787.617 126.632 773.518C110.901 759.419 25.229 746.649 -15.6406 742.026V807.61Z" fill="#D89D7B"/>
<path fill-rule="evenodd" clip-rule="evenodd" d="M343.222 724.981V773.518L461.204 844.59L475.663 1059.83L400.767 1104.62C453.1 1140.82 482.951 1201.97 492.724 1235.2L906.819 1230.54C869.708 1213.12 787.217 1166.67 754.136 1120.21C737.406 1096.72 732.651 1070.06 727.788 1042.79C720.631 1002.66 713.24 961.219 667.095 926.641C605.096 880.184 425.347 772.844 343.222 724.981ZM657.841 1128.01C630.081 1082.94 640.491 1018.71 649.166 992.224L730.134 1151.13L657.841 1128.01Z" fill="#D89D7B"/>
<path d="M657.841 867.414C687.433 891.876 747.369 952.701 750.376 1000.31C753.384 1047.93 762.04 993.573 765.992 960.444C747.774 923.954 700.639 854.262 657.841 867.414Z" fill="#D89D7B"/>
<path d="M833.947 788.953C859.876 823.581 932.092 899.599 1013.52 926.641C1059.04 941.756 1075.41 999.557 1092.04 1058.26C1112.6 1130.83 1133.55 1204.78 1210.45 1201.11C1253.34 1129.36 1309.29 974.023 1189.92 926.641C1070.55 879.26 902.867 815.107 833.947 788.953Z" fill="#D89D7B"/>
<path d="M1266.26 992.224C1270.89 1000.41 1280.14 1020.19 1280.14 1033.83C1280.14 1050.87 1309.35 1040.47 1300.67 1025.16C1299.77 1023.57 1298.68 1021.6 1297.46 1019.38L1297.46 1019.38C1286.92 1000.24 1266.26 962.711 1266.26 992.224Z" fill="#D89D7B"/>
<path fill-rule="evenodd" clip-rule="evenodd" d="M-15.6406 742.026C25.1326 730.663 110.67 711.344 126.632 724.981V688H246.349V773.518H343.222L461.204 844.59L475.663 1059.83L400.767 1104.62C383.937 1092.97 364.782 1083.91 343.222 1079.19C254.62 1059.77 225.143 929.916 221.481 867.414H143.982C144.754 841.99 142.363 787.617 126.632 773.518C110.901 759.419 25.229 746.649 -15.6406 742.026ZM906.819 1230.54L1571.05 1223.07L1591 867.414L833.947 788.953L685.024 773.518V742.026L343.222 724.981C425.347 772.844 605.096 880.184 667.095 926.641C713.24 961.219 720.631 1002.66 727.788 1042.79C732.651 1070.06 737.406 1096.72 754.136 1120.21C787.217 1166.67 869.708 1213.12 906.819 1230.54ZM1013.52 926.641C932.092 899.599 859.876 823.581 833.947 788.953C902.867 815.107 1070.55 879.26 1189.92 926.641C1309.29 974.023 1253.34 1129.36 1210.45 1201.11C1133.55 1204.78 1112.6 1130.83 1092.04 1058.26C1075.41 999.557 1059.04 941.756 1013.52 926.641ZM649.166 992.224C640.491 1018.71 630.081 1082.94 657.841 1128.01L730.134 1151.13L649.166 992.224ZM657.841 867.414C687.433 891.876 747.369 952.701 750.376 1000.31C753.384 1047.93 762.04 993.573 765.992 960.444C747.774 923.954 700.639 854.262 657.841 867.414ZM1266.26 992.224C1270.89 1000.41 1280.14 1020.19 1280.14 1033.83C1280.14 1050.87 1309.35 1040.47 1300.67 1025.16C1299.77 1023.57 1298.68 1021.6 1297.46 1019.38L1297.46 1019.38C1286.92 1000.24 1266.26 962.711 1266.26 992.224ZM1273.78 1151.13C1286.04 1121.54 1283.13 1071.96 1280.14 1050.87C1305.23 1050.87 1311.97 1102.05 1315.39 1128.01C1315.95 1132.27 1316.42 1135.85 1316.86 1138.41C1320.05 1156.62 1258.45 1188.11 1273.78 1151.13Z" fill="#FDDBB5"/>
<path d="M1280.14 1050.87C1283.13 1071.96 1286.04 1121.54 1273.78 1151.13C1258.45 1188.11 1320.05 1156.62 1316.86 1138.41C1316.42 1135.85 1315.95 1132.27 1315.39 1128.01C1311.97 1102.05 1305.23 1050.87 1280.14 1050.87Z" fill="#D89D7B"/>
<path fill-rule="evenodd" clip-rule="evenodd" d="M760.074 978.883C722.374 993.526 669.596 1032.18 760.074 1069.63C815.917 1092.75 822.044 1111.78 827.515 1128.78C833.125 1146.2 838.047 1161.49 895.154 1176.85C946.827 1190.75 982.964 1210.41 1014.63 1227.64C1052.09 1248.02 1083.29 1265 1126.56 1265C1163.77 1265 1224.87 1257.21 1290.1 1248.9C1364.81 1239.38 1444.95 1229.16 1500.85 1229.16C1599.99 1229.16 1600.33 1219.32 1604.76 1092.17C1605 1085.03 1605.27 1077.53 1605.56 1069.63C1609.34 967.379 1607.92 911.958 1606.66 863.121C1606.09 841.009 1605.56 820.246 1605.56 797.097C1605.56 722.822 1473.08 668.2 1448.49 772.532C1372.42 772.532 1222.99 802.242 1233.87 921.081C1204.56 896.227 1133.79 866.343 1085.19 945.647C1049.24 1004.33 1008.51 986.75 969.87 970.069C943.231 958.57 917.579 947.497 895.154 962.12C851.188 990.79 786.781 985.241 760.074 978.883ZM1412.92 842.471C1312.26 834.379 1291.91 930.041 1294.32 978.883C1290.67 1023.39 1242.84 1022.81 1186.14 1009.81C1147.2 1000.87 1095.15 1010.35 1057.75 1017.16C1040.71 1020.26 1026.71 1022.81 1018.38 1022.81C1008.99 1022.81 997.616 1020.44 984.176 1017.63L984.175 1017.63C959.525 1012.48 927.913 1005.88 888.791 1009.81C828.337 1015.88 833.254 1052.87 837.015 1069.63C838.385 1075.74 850.121 1080.35 864.489 1085.99C889.557 1095.84 922.633 1108.84 922.633 1138.41C922.633 1175.64 972.192 1196.7 996.971 1202.57H1561.59L1584.15 1157.2L1594.28 842.471C1588.78 827.347 1563.96 797.097 1508.66 797.097C1453.35 797.097 1421.79 827.347 1412.92 842.471Z" fill="#E7E0F0"/>
<path d="M1294.32 978.883C1291.91 930.041 1312.26 834.379 1412.92 842.471C1421.79 827.347 1453.35 797.097 1508.66 797.097C1563.96 797.097 1588.78 827.347 1594.28 842.471L1584.15 1157.2L1561.59 1202.57H996.971C972.192 1196.7 922.633 1175.64 922.633 1138.41C922.633 1108.84 889.557 1095.84 864.489 1085.99C850.121 1080.35 838.385 1075.74 837.015 1069.63C833.254 1052.87 828.337 1015.88 888.791 1009.81C927.913 1005.88 959.525 1012.48 984.175 1017.63L984.176 1017.63C997.616 1020.44 1008.99 1022.81 1018.38 1022.81C1026.71 1022.81 1040.71 1020.26 1057.75 1017.16C1095.15 1010.35 1147.2 1000.87 1186.14 1009.81C1242.84 1022.81 1290.67 1023.39 1294.32 978.883Z" fill="#C3C3DC"/>
<path fill-rule="evenodd" clip-rule="evenodd" d="M-189.83 640.455C-146.732 628.413 -47.2869 628.028 5.70412 722.822C63.5545 719.258 186.949 736.868 217.726 835.824C264.585 815.69 364.897 804.554 391.277 921.081C415.189 926.476 463.532 942.237 465.615 962.12C467.47 979.832 435.981 987.711 379.835 1001.76C357.194 1007.42 330.543 1014.09 300.452 1022.81C195.743 1053.16 132.397 1072.52 110.413 1154.89C102.771 1183.52 72.8236 1203.88 35.4971 1217.33C40.4143 1182.84 56.4389 1113.04 81.1989 1109.8C94.9411 1108.01 102.239 1088.09 110.791 1064.76C121.5 1035.54 134.173 1000.95 163.925 989.865C185.503 981.824 222.365 978.482 258.81 975.178C312.748 970.288 365.772 965.481 366.98 945.647C367.953 929.681 352.639 929.055 331.684 928.197C309.017 927.269 279.749 926.072 257.353 904.897C222.875 872.297 191.886 863.463 180.702 863.121C180.702 816.753 64.0366 791.693 5.70412 784.959C-36.411 722.429 -144.689 707.847 -193.564 708.372C-192.219 683.405 -190.953 660.418 -189.83 640.455Z" fill="#E7E0F0"/>
<path d="M-211.813 1154.89C-209.21 1232.05 -189.83 1207.2 -153.963 1229.16C-130.565 1243.49 -34.543 1242.57 35.4971 1217.33C40.4143 1182.84 56.4389 1113.04 81.1989 1109.8C94.9411 1108.01 102.239 1088.09 110.791 1064.76C121.5 1035.54 134.173 1000.95 163.925 989.865C185.503 981.824 222.365 978.482 258.81 975.178C312.748 970.288 365.772 965.481 366.98 945.647C367.953 929.681 352.639 929.055 331.684 928.197C309.017 927.269 279.749 926.072 257.353 904.897C222.875 872.297 191.886 863.463 180.702 863.121C180.702 816.753 64.0366 791.693 5.70412 784.959C-36.411 722.429 -144.689 707.847 -193.564 708.372C-202.036 865.692 -213.611 1101.61 -211.813 1154.89Z" fill="#C3C3DC"/>
<path d="M1057.75 891.892C1048.45 882.162 1023.86 868.54 999.864 891.892C969.87 921.081 1057.75 922.526 1057.75 891.892Z" fill="#E7E0F0"/>
<path d="M1400.48 744.787C1386.02 758.467 1341.24 778.716 1277.83 750.278C1198.58 714.73 1264.53 700.28 1294.32 700.28C1324.12 700.28 1375.31 695.078 1365.19 709.528C1355.07 723.978 1317.75 739.296 1341.47 744.787C1365.19 750.278 1388.04 722.822 1400.48 744.787Z" fill="#E7E0F0"/>
<path d="M1327.01 680.627C1339.64 688.334 1367.68 700.395 1378.78 686.986C1392.67 670.223 1339.16 661.424 1327.01 680.627Z" fill="#E7E0F0"/>
<path d="M-34.502 626.583C-26.4029 644.79 2.86942 683.922 55.1662 694.789C120.537 708.372 149.752 654.327 124.297 640.455C98.8433 626.583 -6.15526 578.897 -34.502 626.583Z" fill="#E7E0F0"/>
<path d="M-61.9809 603.173C-48.386 605.774 -15.8162 607.277 5.70412 592.48C32.6045 573.984 -61.9809 574.851 -61.9809 603.173Z" fill="#E7E0F0"/>
<rect x="-39" width="1556" height="1203" fill="#426D6E" fill-opacity="0.6"/>
<path fill-rule="evenodd" clip-rule="evenodd" d="M559.939 1699.49C543.824 1719.66 512.748 1742.91 499.225 1752.01C524.286 1751.02 575.146 1747.2 578.097 1739.84C579.982 1735.14 578.976 1730.05 578.035 1725.29C577.135 1720.73 576.293 1716.47 578.097 1713.14C578.664 1712.09 579.386 1710.6 580.268 1708.79C585.116 1698.81 594.793 1678.9 610.156 1666.84C623.649 1656.26 656.41 1575.54 674.1 1528.56C629.701 1543.04 612.166 1513.03 608.949 1496.21C595.246 1573.79 573.459 1682.56 559.939 1699.49Z" fill="#F1C3A8"/>
<path d="M685.623 1496.21C689.028 1484.11 640.513 1464.26 615.83 1455.86C613.911 1467.58 611.579 1481.32 608.949 1496.21C612.166 1513.03 629.701 1543.04 674.1 1528.56C680.216 1512.31 684.53 1500.1 685.623 1496.21Z" fill="#CB7E73"/>
<path fill-rule="evenodd" clip-rule="evenodd" d="M988.344 1722.04C991.596 1736.28 988.776 1739.84 991.181 1739.84C993.555 1739.84 997.717 1741.19 1003.56 1743.09C1011.69 1745.73 1023.07 1749.42 1037.43 1752.01C1044.3 1753.25 1048.62 1754.16 1051.2 1754.83C1051.5 1755.14 1051.78 1755.45 1052.07 1755.74C1052.3 1755.99 1052.52 1756.23 1052.75 1756.46C1054.78 1756.46 1056.04 1756.08 1051.2 1754.83C1037.03 1739.82 1010.76 1710.89 1007.92 1703.34C1005.44 1696.75 973.666 1575.47 950.707 1487.31C939.663 1528.38 904.825 1523.42 888.786 1515.8C915.727 1575.46 959.881 1655.84 972.456 1678.12C983.01 1696.81 985.092 1707.79 988.344 1722.04Z" fill="#F1C3A8"/>
<path d="M938.978 1442.21L879.966 1496.21C882.612 1502.11 885.579 1508.7 888.786 1515.8C904.825 1523.42 939.663 1528.38 950.707 1487.31C946.405 1470.79 942.411 1455.43 938.978 1442.21Z" fill="#CB7E73"/>
<path d="M817.549 747.523C796.895 739.926 754.282 744.357 735.557 747.523C727.377 750.657 714.934 755.645 702.079 761.2C721.875 804.04 778.622 864.015 847.243 761.2C837.142 755.903 826.538 750.829 817.549 747.523Z" fill="#CB7E73"/>
<path fill-rule="evenodd" clip-rule="evenodd" d="M702.079 761.2C721.875 804.04 778.622 864.015 847.243 761.2C860.353 768.075 872.615 775.325 879.399 779.571C854.527 893.621 797.803 1125.04 769.886 1138.34C734.989 1154.96 677.963 1123.2 676.545 1099.46C676.324 1095.77 675.691 1091.64 674.772 1087.29C673.99 1083.59 673.001 1079.73 671.882 1075.84C671.1 1073.12 670.256 1070.4 669.374 1067.7C665.374 1055.47 660.61 1043.89 657.536 1037.15C655.172 1035.66 648.968 1031.03 643.067 1024.39C639.183 1020.01 636.636 1009.72 634.681 1001.81C632.923 994.703 633.062 988.044 631.718 990.855L616.398 926.461C612.029 968.446 601.931 1053.92 595.31 1072.13C595.055 1072.74 594.803 1073.34 594.553 1073.94C591.295 1081.77 588.435 1088.84 586.324 1094.42C575.543 1122.91 544.335 1109.26 540.079 1094.42C536.853 1083.17 538.029 1055.21 539.158 1028.38C539.518 1019.82 539.873 1011.37 540.079 1003.61C540.676 981.145 539.739 979.243 534.725 969.068C532.588 964.73 529.709 958.889 525.894 949.31C514.879 921.661 516.957 900.196 519.192 877.103C519.548 873.429 519.908 869.713 520.219 865.925C522.489 838.327 582.636 819.929 604.765 814.587C620.742 810.731 630.36 803.472 642.267 794.485C646.853 791.024 651.778 787.307 657.536 783.429C667.01 777.049 684.912 768.619 702.079 761.2Z" fill="#F1C3A8"/>
<path d="M631.718 990.855L616.398 926.461C612.029 968.446 601.931 1053.92 595.31 1072.13C608.681 1040.15 629.479 995.539 631.718 990.855Z" fill="#CB7E73"/>
<path fill-rule="evenodd" clip-rule="evenodd" d="M917.983 809.543C931.318 815.181 959.973 829.187 967.917 840.108C968.529 840.95 969.274 841.936 970.125 843.063C983.07 860.203 1020.71 910.039 995.153 985.217C990.341 987.927 984.943 989.762 979.265 990.92C974.034 991.987 968.564 992.478 963.094 992.548C960.628 992.58 958.162 992.526 955.717 992.401C953.905 992.308 952.106 992.176 950.327 992.01C937.258 990.793 925.306 987.77 917.983 985.217V809.543ZM917.983 1014.59V1027.65C917.983 1033.6 921.659 1047.24 925.385 1061.07C928.905 1074.13 932.469 1087.36 933.02 1094.42C934.155 1108.96 979.833 1113.71 988.344 1094.42C996.855 1075.13 991.465 1037.15 988.344 1016.08C981.997 1020.5 973.53 1022.39 964.512 1022.73C959.858 1022.9 955.058 1022.66 950.327 1022.14C948.032 1021.89 945.754 1021.57 943.518 1021.21C942.177 1020.99 940.851 1020.75 939.546 1020.5C931.01 1018.85 923.329 1016.57 917.983 1014.59Z" fill="#F1C3A8"/>
<path d="M964.512 1022.73L979.265 990.92C974.034 991.987 968.564 992.478 963.094 992.548L950.327 1022.14C955.058 1022.66 959.858 1022.9 964.512 1022.73Z" fill="#F4DE85"/>
<path fill-rule="evenodd" clip-rule="evenodd" d="M988.344 1016.08C986.285 1002.18 989.939 995.259 993.193 989.099C993.884 987.79 994.557 986.516 995.153 985.217C990.341 987.927 984.943 989.762 979.265 990.92L964.512 1022.73C973.53 1022.39 981.997 1020.5 988.344 1016.08ZM955.717 992.401C958.162 992.526 960.628 992.58 963.094 992.548L950.327 1022.14C948.032 1021.89 945.754 1021.57 943.518 1021.21L955.717 992.401ZM950.327 992.01C937.258 990.793 925.306 987.77 917.983 985.217V1014.59C923.329 1016.57 931.01 1018.85 939.546 1020.5L950.327 992.01Z" fill="#E19059"/>
<path d="M943.518 1021.21L955.717 992.401C953.905 992.308 952.106 992.176 950.327 992.01L939.546 1020.5C940.851 1020.75 942.177 1020.99 943.518 1021.21Z" fill="#F4DE85"/>
<path d="M674.772 1087.29C673.99 1083.59 673.001 1079.73 671.882 1075.84L669.374 1067.7C665.144 1070.07 655.153 1074.59 649.025 1073.64C642.896 1072.69 655.172 1082.34 662.075 1087.29H674.772Z" fill="#686349"/>
<path d="M767.332 887.588C757.414 888.082 752.579 890.852 731.585 884.323C744.919 891.445 761.067 954.413 766.765 990.559C764.516 965.501 785.49 891.742 798.824 884.323C779.532 891.742 779.248 886.994 767.332 887.588Z" fill="#E9A196"/>
<path d="M617.769 923.299C617.497 922.228 616.409 921.58 615.338 921.852C614.267 922.124 613.62 923.212 613.892 924.283L617.769 923.299ZM635.123 1004.8L633.137 1005.04L635.123 1004.8ZM709.858 1045.38C710.961 1045.31 711.801 1044.36 711.735 1043.26C711.669 1042.16 710.722 1041.32 709.62 1041.38L709.858 1045.38ZM706.618 817.259L707.644 818.975L706.618 817.259ZM565.525 952.269C564.7 951.534 563.436 951.607 562.701 952.432C561.967 953.256 562.039 954.521 562.864 955.255L565.525 952.269ZM552.182 1049.49C551.461 1050.33 551.555 1051.59 552.392 1052.31C553.229 1053.03 554.492 1052.94 555.213 1052.1L552.182 1049.49ZM597.483 972.446C597.969 971.454 597.558 970.256 596.565 969.77C595.573 969.285 594.375 969.696 593.89 970.688L597.483 972.446ZM577.521 1043.53C577.605 1044.63 578.566 1045.46 579.667 1045.37C580.768 1045.29 581.593 1044.33 581.509 1043.23L577.521 1043.53ZM731.585 884.323L732.179 882.414C731.194 882.107 730.137 882.6 729.739 883.552C729.342 884.504 729.733 885.602 730.642 886.088L731.585 884.323ZM767.332 887.588L767.233 885.59L767.332 887.588ZM798.824 884.323L799.797 886.071C800.714 885.561 801.081 884.427 800.636 883.476C800.191 882.525 799.087 882.08 798.107 882.457L798.824 884.323ZM767.332 995.307L765.384 995.758L769.31 995.008L767.332 995.307ZM613.892 924.283C616.917 936.198 621.511 954.544 625.462 970.858C629.435 987.263 632.701 1001.39 633.137 1005.04L637.108 1004.57C636.636 1000.61 633.283 986.159 629.349 969.917C625.394 953.584 620.796 935.222 617.769 923.299L613.892 924.283ZM633.137 1005.04C633.755 1010.21 636.906 1017.7 641.176 1024.29C643.329 1027.61 645.816 1030.78 648.495 1033.37C651.159 1035.94 654.106 1038.03 657.192 1039.05L658.447 1035.25C656.142 1034.49 653.699 1032.83 651.274 1030.49C648.864 1028.16 646.563 1025.25 644.532 1022.11C640.432 1015.79 637.625 1008.89 637.108 1004.57L633.137 1005.04ZM657.192 1039.05C662.802 1040.9 673.489 1042.62 683.871 1043.81C694.266 1045 704.703 1045.68 709.858 1045.38L709.62 1041.38C704.844 1041.67 694.713 1041.02 684.325 1039.83C673.926 1038.65 663.618 1036.96 658.447 1035.25L657.192 1039.05ZM580.617 823.675C583.885 821.517 594.265 816.885 608.17 816.885V812.885C593.477 812.885 582.332 817.749 578.413 820.338L580.617 823.675ZM608.17 816.885C616.93 816.885 624.58 818.119 632.162 819.273C639.709 820.422 647.202 821.494 655.378 821.036L655.154 817.042C647.442 817.474 640.325 816.47 632.764 815.319C625.238 814.173 617.284 812.885 608.17 812.885V816.885ZM655.378 821.036C663.252 820.595 674.997 820.743 685.418 820.705C690.597 820.687 695.448 820.622 699.264 820.41C701.169 820.304 702.856 820.16 704.216 819.959C705.473 819.773 706.768 819.499 707.644 818.975L705.592 815.542C705.596 815.539 705.559 815.562 705.458 815.6C705.361 815.637 705.227 815.68 705.05 815.727C704.693 815.821 704.222 815.914 703.63 816.002C702.445 816.177 700.896 816.313 699.042 816.416C695.339 816.622 690.579 816.687 685.403 816.705C675.113 816.742 663.168 816.593 655.154 817.042L655.378 821.036ZM707.644 818.975C707.835 818.862 708.512 818.689 709.97 818.853C711.315 819.004 712.963 819.396 714.74 819.942C718.286 821.032 722.076 822.651 724.474 823.808L726.212 820.206C723.692 818.989 719.708 817.284 715.915 816.119C714.024 815.537 712.111 815.068 710.416 814.878C708.833 814.7 706.99 814.706 705.592 815.542L707.644 818.975ZM562.864 955.255C566.507 958.501 568.68 961.488 569.996 965.382C571.34 969.362 571.841 974.431 571.841 981.953H575.841C575.841 974.341 575.348 968.728 573.785 964.101C572.193 959.39 569.543 955.848 565.525 952.269L562.864 955.255ZM571.841 981.953C571.841 1003.26 569.397 1017.23 565.754 1027.29C562.126 1037.32 557.267 1043.59 552.182 1049.49L555.213 1052.1C560.435 1046.04 565.648 1039.34 569.515 1028.66C573.367 1018.01 575.841 1003.54 575.841 981.953H571.841ZM593.89 970.688C590.713 977.182 586.115 988.548 582.564 1001.68C579.016 1014.79 576.475 1029.8 577.521 1043.53L581.509 1043.23C580.512 1030.13 582.936 1015.62 586.425 1002.72C589.91 989.839 594.418 978.712 597.483 972.446L593.89 970.688ZM828.819 826.819C832.791 825.157 839.316 822.657 845.932 820.576C852.626 818.471 859.144 816.885 863.227 816.885V812.885C858.459 812.885 851.405 814.662 844.732 816.76C837.981 818.884 831.341 821.428 827.275 823.129L828.819 826.819ZM863.227 816.885C871.715 816.885 878.71 819.556 880.999 820.797L882.906 817.281C880.087 815.753 872.442 812.885 863.227 812.885V816.885ZM730.991 886.233C741.606 889.534 748.263 890.524 753.588 890.589C756.24 890.621 758.521 890.423 760.722 890.193C762.94 889.962 765.023 889.705 767.432 889.585L767.233 885.59C764.683 885.717 762.442 885.992 760.307 886.215C758.156 886.439 756.056 886.619 753.636 886.589C748.816 886.53 742.558 885.641 732.179 882.414L730.991 886.233ZM767.432 889.585C770.264 889.444 772.396 889.619 774.324 889.856C776.206 890.086 778.133 890.415 780.219 890.513C784.576 890.716 789.763 889.951 799.542 886.19L798.107 882.457C788.594 886.115 783.993 886.685 780.405 886.517C778.519 886.429 776.936 886.146 774.811 885.885C772.731 885.63 770.359 885.434 767.233 885.59L767.432 889.585ZM730.642 886.088C731.896 886.757 733.387 888.215 735.052 890.596C736.69 892.941 738.381 896.013 740.093 899.689C743.514 907.037 746.93 916.605 750.125 927.138C756.513 948.195 761.954 972.883 764.789 990.87L768.741 990.247C765.878 972.088 760.397 947.22 753.953 925.977C750.732 915.359 747.253 905.591 743.719 898C741.952 894.206 740.15 890.908 738.33 888.305C736.537 885.738 734.607 883.67 732.527 882.559L730.642 886.088ZM768.757 990.38C768.219 984.39 769.068 975.296 770.92 964.778C772.764 954.307 775.573 942.579 778.869 931.392C782.167 920.198 785.938 909.595 789.693 901.358C791.572 897.237 793.426 893.753 795.192 891.098C796.995 888.385 798.563 886.757 799.797 886.071L797.852 882.576C795.752 883.744 793.748 886.044 791.861 888.883C789.935 891.779 787.981 895.471 786.054 899.699C782.196 908.162 778.363 918.956 775.032 930.261C771.7 941.573 768.854 953.447 766.981 964.085C765.116 974.676 764.186 984.199 764.773 990.738L768.757 990.38ZM769.31 995.008C769.232 994.492 769.143 993.662 769.044 992.745C768.95 991.87 768.845 990.912 768.741 990.247L764.789 990.87C764.876 991.417 764.969 992.264 765.067 993.175C765.161 994.044 765.261 994.983 765.355 995.605L769.31 995.008ZM764.773 990.738C764.878 991.907 765.093 994.501 765.384 995.758L769.281 994.856C769.07 993.946 768.879 991.739 768.757 990.38L764.773 990.738Z" fill="#E9A196"/>
<path fill-rule="evenodd" clip-rule="evenodd" d="M629.45 805.982C634.273 800.937 671.155 778.681 682.22 771.559C691.072 765.861 716.171 756.722 727.614 752.864L736.693 739.51L731.586 705.384L722.224 633.275C723.358 644.354 723.415 669.241 714.563 680.161C709.917 685.894 703.919 687.596 698.335 689.181C690.623 691.371 683.701 693.336 682.22 705.384C681.023 715.122 678.455 718.73 676.18 721.924C673.603 725.544 671.404 728.633 672.007 739.51C672.263 744.143 672.767 748.319 673.212 752.01C674.734 764.63 675.569 771.559 663.495 771.559C651.012 771.559 654.322 759.096 657.537 752.864C652.809 757.113 644.77 767.75 650.444 776.307C656.119 784.863 642.784 788.774 635.408 789.66C631.247 790.191 622.357 793.309 620.087 801.53C617.873 809.552 605.482 815.059 599.125 816.959C611.138 813.467 625.215 810.411 629.45 805.982ZM698.959 693.811C695.082 693.811 687.611 695.354 688.746 701.527C689.88 707.699 696.027 698.955 698.959 693.811Z" fill="#A47250"/>
<path fill-rule="evenodd" clip-rule="evenodd" d="M747.758 563.836C754.113 566.923 762.7 565.122 766.199 563.836C768.185 563.836 772.894 563.243 775.845 560.869C779.533 557.901 829.467 550.483 847.057 574.816C855.302 586.222 853.449 598.802 851.665 610.906C849.644 624.622 847.713 637.726 860.675 647.816C880.194 663.009 896.044 654.146 901.529 647.816C901.303 665.858 888.195 670.962 881.67 671.259C896.517 674.226 927.688 682.891 933.589 693.811C940.902 707.344 929.253 717.086 926.288 719.565L926.212 719.628C923.375 722.002 915.431 735.356 933.589 735.356C948.115 735.356 955.151 723.288 956.853 717.254C956.38 719.035 954.811 725.148 952.314 735.356C949.817 745.564 933.873 748.512 926.212 748.709C933.684 752.468 948.796 761.826 949.477 769.185C950.21 777.105 941.69 786.564 936.047 792.829C935.136 793.841 934.299 794.77 933.589 795.595C928.482 801.53 936.142 810.433 952.314 818.445C965.251 824.855 965.459 835.557 963.946 840.107L929.617 822.506C928.507 816.998 924.116 804.735 915.431 799.75C906.781 794.784 909.034 786.427 911.312 777.981C911.892 775.828 912.475 773.669 912.878 771.559C914.864 761.173 897.558 752.01 888.762 757.018C879.967 762.027 864.931 739.51 877.13 727.584C886.89 718.044 888.952 708.809 888.762 705.384C886.398 710.111 878.322 719.103 864.931 717.254C852.468 715.534 853.059 712.756 855.228 702.558C855.972 699.058 856.902 694.685 857.554 689.181C859.246 674.907 853.216 672.852 844.58 669.91C840.182 668.411 835.108 666.682 830.034 662.991C818.005 654.241 813.673 637.754 813.011 630.604L799.677 747.588L731.586 705.384L722.224 633.275C723.358 644.354 723.415 669.241 714.563 680.161C709.917 685.894 703.919 687.596 698.335 689.181C690.623 691.371 683.701 693.336 682.22 705.384C681.023 715.122 678.455 718.73 676.18 721.924C673.603 725.544 671.404 728.633 672.007 739.51C672.263 744.143 672.767 748.319 673.212 752.01C674.734 764.63 675.569 771.559 663.495 771.559C651.012 771.559 654.322 759.096 657.537 752.864C652.809 757.113 644.77 767.75 650.444 776.307C656.119 784.863 642.784 788.774 635.408 789.66C631.247 790.191 622.357 793.309 620.087 801.53C617.873 809.552 605.482 815.059 599.125 816.959C598.967 817.007 598.811 817.052 598.66 817.095C597.154 817.536 595.682 817.985 594.269 818.445C581.502 822.599 575.828 821.116 571.856 814.29C568.679 808.83 555.023 799.552 548.592 795.595C566.144 802.567 589.263 796.618 605.551 792.427C610.063 791.266 614.05 790.24 617.25 789.66C632.003 786.99 641.366 769.185 637.677 759.986C636.155 756.189 629.317 759.974 621.671 764.207C610.79 770.23 598.273 777.159 597.107 764.437C595.489 746.792 601.401 739.385 605.029 734.839C605.855 733.804 606.563 732.917 607.036 732.092C607.853 730.667 612.04 729.152 616.371 727.584C625.575 724.253 635.431 720.685 614.98 717.254C590.922 713.219 586.42 697.174 587.177 689.657C587.36 696.388 592.311 698.009 599.171 700.255C602.895 701.474 607.183 702.878 611.576 705.384C619.429 709.865 626.721 704.128 634.228 698.222C638.654 694.739 643.156 691.198 647.891 689.657C660.658 685.502 657.253 681.645 647.891 671.259C644.11 667.064 640.467 664.999 636.926 662.991C631.7 660.029 626.694 657.191 621.789 647.816C613.562 632.088 632.571 618.735 647.891 612.8C657.864 608.936 671.443 611.486 682.994 613.654C689.188 614.817 694.8 615.871 698.959 615.767C709.814 615.497 705.13 608.578 700.35 601.516L700.349 601.514C699.882 600.824 699.414 600.133 698.959 599.446C694.964 593.41 698.956 588.1 706.997 577.407C709.234 574.432 711.784 571.041 714.563 567.101C725.606 551.444 736.437 557.544 744.301 561.973C745.529 562.665 746.685 563.315 747.758 563.836ZM698.959 693.811C695.082 693.811 687.611 695.354 688.746 701.527C689.88 707.699 696.027 698.955 698.959 693.811Z" fill="#EBAA7F"/>
<path d="M799.677 747.588L877.13 795.595L929.617 822.506C928.507 816.998 924.116 804.735 915.431 799.75C906.781 794.784 909.034 786.427 911.312 777.981C911.892 775.828 912.475 773.669 912.878 771.559C914.864 761.173 897.558 752.01 888.762 757.018C879.967 762.027 864.931 739.51 877.13 727.584C886.89 718.044 888.952 708.809 888.762 705.384C886.398 710.111 878.322 719.103 864.931 717.254C852.468 715.534 853.059 712.756 855.228 702.558C855.972 699.058 856.902 694.685 857.554 689.181C859.246 674.907 853.216 672.852 844.58 669.91C840.182 668.411 835.108 666.682 830.034 662.991C818.005 654.241 813.673 637.754 813.011 630.604L799.677 747.588Z" fill="#A47250"/>
<path d="M851.596 612.206C855.379 610.129 863.398 603.719 865.214 594.698C867.484 583.421 897.274 589.653 879.4 602.116C865.101 612.087 854.906 612.997 851.596 612.206C846.489 603.205 838.488 584.727 847.34 582.828C856.192 580.929 853.866 601.622 851.596 612.206Z" fill="#597C62"/>
<path d="M861.31 589.182C863.981 586.181 869.096 577.896 868.185 568.766C867.047 557.354 894.257 555.367 882.359 572.086C872.841 585.46 864.36 589.056 861.31 589.182C854.477 581.921 842.576 566.352 849.637 562.167C856.697 557.982 860.361 578.433 861.31 589.182Z" fill="#597C62"/>
<path d="M694.168 612.282C691.051 610.194 684.443 603.752 682.946 594.685C681.076 583.351 656.528 589.615 671.257 602.141C683.04 612.162 691.441 613.077 694.168 612.282C698.376 603.235 704.969 584.664 697.675 582.755C690.381 580.846 692.298 601.644 694.168 612.282Z" fill="#597C62"/>
<path d="M686.164 589.141C683.962 586.125 679.747 577.798 680.498 568.622C681.436 557.152 659.014 555.155 668.818 571.958C676.662 585.401 683.65 589.015 686.164 589.141C691.794 581.843 701.601 566.195 695.783 561.989C689.965 557.783 686.946 578.338 686.164 589.141Z" fill="#597C62"/>
<path d="M851.596 1120.53L657.537 1137.45C676.167 1158.22 724.663 1197.27 769.603 1187.3C814.543 1177.33 842.99 1138.63 851.596 1120.53Z" fill="#B0AB93"/>
<path d="M690.731 1203.62C723.358 1225.68 798.428 1256.56 837.694 1203.62C886.776 1137.45 812.727 1297.39 791.165 1312.53C769.603 1327.66 709.74 1284.63 708.321 1270.09C707.614 1262.84 720.529 1265.85 734.815 1269.18C749.171 1272.52 764.911 1276.19 769.603 1270.09C774.223 1264.09 755.631 1255.41 734.52 1245.56C712.848 1235.44 688.521 1224.09 683.922 1213.12C676.659 1195.79 685.435 1199.57 690.731 1203.62Z" fill="#B0AB93"/>
<path fill-rule="evenodd" clip-rule="evenodd" d="M640.23 1168.01C666.994 1258.92 728.919 1443.99 762.51 1457.04C804.5 1473.36 894.153 1241.9 895.288 1235.97C896.195 1231.22 866.538 1157.03 851.596 1120.53C842.99 1138.63 814.543 1177.33 769.603 1187.3C724.663 1197.27 676.167 1158.22 657.537 1137.45L640.23 1168.01ZM690.731 1203.62C723.358 1225.68 798.428 1256.56 837.694 1203.62C886.776 1137.45 812.727 1297.39 791.165 1312.53C769.603 1327.66 709.74 1284.63 708.321 1270.09C707.614 1262.84 720.529 1265.85 734.815 1269.18C749.171 1272.52 764.911 1276.19 769.603 1270.09C774.223 1264.09 755.631 1255.41 734.52 1245.56C712.848 1235.44 688.521 1224.09 683.922 1213.12C676.659 1195.79 685.435 1199.57 690.731 1203.62ZM769.603 1382.26C804.556 1382.98 831.641 1298.88 840.815 1256.74C842.895 1249.82 847.056 1237.89 847.056 1245.56C847.056 1255.15 837.694 1323.21 828.048 1354.07C818.837 1383.54 800.528 1403.63 769.603 1395.32C744.863 1388.67 759.295 1383.85 769.603 1382.26Z" fill="#EFE8DF"/>
<path d="M840.815 1256.74C831.641 1298.88 804.556 1382.98 769.603 1382.26C759.295 1383.85 744.863 1388.67 769.603 1395.32C800.528 1403.63 818.837 1383.54 828.048 1354.07C837.694 1323.21 847.056 1255.15 847.056 1245.56C847.056 1237.89 842.895 1249.82 840.815 1256.74Z" fill="#B0AB93"/>
<path d="M721.373 632.683C722.886 651.18 725.685 689.717 724.778 695.89C723.643 703.605 746.623 725.564 750.595 736.247C753.773 744.794 762.108 745.704 767.593 744.913C773.136 745.455 784.935 744.374 787.779 735.708C791.334 724.875 813.529 701.942 812.074 694.298C810.91 688.183 812.15 649.624 812.916 631.109L764.781 599.15L721.373 632.683Z" fill="#F1C3A8"/>
<path d="M759.105 688.768C764.552 684.732 767.332 685.949 768.184 687.136V689.658C767.616 690.449 766.538 692.507 765.63 695.593C764.495 699.451 760.807 701.528 757.402 706.573C753.998 711.617 753.431 709.837 751.728 715.475C750.026 721.113 761.374 727.048 764.495 721.113C766.992 716.365 767.9 718.541 768.751 720.223V744.594V787.584C769.205 793.044 755.511 796.586 751.161 798.267C754.565 795.893 751.445 791.442 743.217 784.914C734.989 778.385 720.236 770.967 716.548 759.393C712.86 747.82 719.953 753.162 727.896 746.93C735.84 740.698 727.896 733.576 724.208 727.048C720.52 720.52 725.627 718.739 727.896 710.43C730.166 702.121 734.989 703.605 746.054 700.934C757.119 698.264 752.296 693.812 759.105 688.768Z" fill="#EBAA7F"/>
<path d="M777.243 688.633C771.623 684.847 768.987 685.912 768.184 687.136V689.658C768.784 690.423 769.952 692.701 770.987 695.743C772.282 699.545 776.06 701.455 779.676 706.341C783.291 711.227 783.787 709.423 785.722 714.978C787.657 720.534 776.535 726.97 773.167 721.182C770.472 716.552 769.535 718.505 768.751 720.223V744.594V787.584C768.519 793.058 785.248 796.163 789.673 797.648C786.167 795.429 789.11 790.843 797.083 783.954C805.056 777.064 819.527 768.993 822.748 757.268C825.969 745.544 819.084 751.197 810.874 745.328C802.664 739.46 810.328 731.991 813.755 725.304C817.182 718.618 811.995 717.069 809.382 708.872C806.77 700.674 802 702.372 790.81 700.201C779.62 698.029 784.269 693.367 777.243 688.633Z" fill="#EBAA7F"/>
<path d="M761.659 654.639C762.037 654.738 762.567 655.53 761.659 657.904C760.524 660.871 757.687 665.916 758.822 670.96C759.729 674.996 760.335 677.192 760.524 677.786C759.956 678.676 758.822 680.694 758.822 681.643C758.822 682.83 760.24 684.017 761.659 684.017C763.077 684.017 763.077 682.237 763.928 682.533C764.609 682.771 767.238 684.017 768.468 684.611C769.639 683.962 771.663 683.142 772.316 682.874C773.132 682.539 773.205 684.325 774.584 684.263C775.964 684.201 777.295 682.949 777.246 681.759C777.207 680.806 776.021 678.832 775.432 677.964C775.592 677.361 776.09 675.132 776.808 671.045C777.705 665.936 774.738 661.001 773.513 658.074C772.532 655.733 773.015 654.916 773.379 654.8C771.035 651.566 769.035 651.375 767.986 651.375C766.737 651.375 763.928 651.316 761.659 654.639Z" fill="url(#paint0_linear_323_1925)"/>
<path fill-rule="evenodd" clip-rule="evenodd" d="M725.628 643.364C728.181 642.572 734.139 641.286 737.544 642.473C739.37 643.11 741.301 644.731 743.315 646.421C745.992 648.668 748.814 651.037 751.729 651.376C756.836 651.969 761.943 651.672 761.375 647.518C761.23 646.456 760.727 645.339 760.017 644.254C760.292 645.678 759.713 647.023 759.389 647.518C759.843 646.331 758.633 643.166 757.971 641.732C755.982 639.676 753.621 638.072 752.297 637.725C750.027 637.132 740.097 635.351 732.437 637.725C726.309 639.625 725.344 642.276 725.628 643.364Z" fill="#EBAA7F"/>
<path fill-rule="evenodd" clip-rule="evenodd" d="M808.758 641.622C806.18 640.927 800.188 639.878 796.845 641.244C795.051 641.976 793.194 643.719 791.258 645.536C788.684 647.952 785.97 650.5 783.079 650.976C778.014 651.81 772.912 651.735 773.303 647.463C773.404 646.371 773.858 645.207 774.521 644.066C774.306 645.534 774.939 646.883 775.283 647.374C774.781 646.181 775.855 642.892 776.455 641.397C778.35 639.207 780.637 637.461 781.942 637.049C784.18 636.341 794.002 634.078 801.736 636.163C807.923 637.831 808.995 640.497 808.758 641.622Z" fill="#EBAA7F"/>
<path fill-rule="evenodd" clip-rule="evenodd" d="M745.488 654.343C742.537 654.106 734.99 658.003 731.586 659.981C733.364 661.516 735.179 662.673 736.976 663.527C740.381 659.149 748.041 653.309 751.446 664.979C752.706 664.656 753.767 664.247 754.566 663.839C752.864 659.981 749.176 654.64 745.488 654.343Z" fill="#D9D9D9"/>
<path d="M751.446 664.979C747.792 665.916 742.463 666.134 736.976 663.527C740.381 659.149 748.041 653.309 751.446 664.979Z" fill="#4D88A8"/>
<path fill-rule="evenodd" clip-rule="evenodd" d="M789.514 653.313C792.488 652.93 800.289 656.682 803.817 658.605C802.084 660.298 800.299 661.595 798.517 662.574C794.886 658.129 786.887 652.343 783.945 664.753C782.657 664.471 781.566 664.09 780.74 663.697C782.296 659.569 785.796 653.792 789.514 653.313Z" fill="#D9D9D9"/>
<path d="M783.945 664.753C787.681 665.572 793.08 665.56 798.517 662.574C794.886 658.129 786.887 652.343 783.945 664.753Z" fill="#4D88A8"/>
<path d="M730.451 660.279C733.856 658.795 740.211 654.582 745.204 654.344C750.198 654.107 752.864 660.873 754.567 664.137M804.958 658.735C801.454 657.363 794.853 653.315 789.796 653.297C784.738 653.279 782.327 660.359 780.744 663.794" stroke="#E89F94" stroke-width="3" stroke-linecap="round"/>
<path d="M764.211 706.867H769.318L772.856 707.022C773.721 707.401 775.514 707.761 777.156 708.028C775.776 706.665 772.551 703.522 770.737 703.603L769.318 703.603H766.197C764.382 703.603 761.28 706.627 759.956 708.14C761.585 707.779 763.362 707.312 764.211 706.867Z" fill="#E9A196"/>
<path d="M756.551 708.65C758.915 708.353 763.076 707.463 764.211 706.869C765.44 707.067 766.481 707.147 767.749 707.147C769.034 707.166 771.914 707.159 773.135 706.906C774.293 707.448 778.486 708.152 780.86 708.342" stroke="#AE5143" stroke-linecap="round"/>
<ellipse cx="7.68201" cy="14.7986" rx="7.68201" ry="14.7986" transform="matrix(0.966477 -0.256752 0.235974 0.971759 723.641 673.422)" fill="#E9A196"/>
<ellipse cx="7.6996" cy="14.7771" rx="7.6996" ry="14.7771" transform="matrix(-0.947511 -0.319723 -0.29474 0.955577 812.766 674.402)" fill="#E9A196"/>
<ellipse cx="11.9468" cy="4.14459" rx="11.9468" ry="4.14459" transform="matrix(0.969494 -0.245117 0.225172 0.974319 668.568 1028.03)" fill="#E9A196"/>
<path d="M663.211 1084.03C781.008 1082.13 843.936 871.167 860.675 765.921C891.769 757.137 898.408 778.483 897.841 790.254C903.137 792.529 915.034 798.979 920.254 806.575C926.779 816.071 951.462 895.006 942.1 971.863C932.737 1048.72 855 1124.69 831.169 1143.98C807.337 1163.26 672.29 1163.26 650.16 1133.29C645.816 1127.41 643.683 1121.83 643.112 1116.68C641.355 1100.81 654.362 1088.89 663.211 1084.03Z" fill="#EFE8DF"/>
<path d="M925.077 963.851C920.444 986.701 897.387 1043.5 842.234 1087.89C814.648 1110.09 780.945 1120.7 750.027 1124.94C781.803 1118.08 806.202 1091.75 871.172 995.01C923.148 917.618 928.766 941.991 925.077 963.851Z" fill="#B0AB93"/>
<path d="M791.165 1034.48C789.804 1031.63 782.654 1035.66 779.25 1038.04C770.94 1048.96 755.756 1066.57 738.679 1081.77C756.742 1067.19 792.527 1037.33 791.165 1034.48Z" fill="#B0AB93"/>
<path d="M890.181 769.779C892.829 771.56 898.125 778.266 898.125 790.848M898.125 790.848C898.125 794.404 896.356 802.418 893.372 813.104M898.125 790.848C906.542 804.598 924.397 841.77 928.482 880.466C933.589 928.835 935.575 937.441 935.575 949.014M842.234 945.156C858.702 917.597 883.157 849.69 893.372 813.104M893.372 813.104C893.159 858.21 882.634 959.4 842.234 1003.32M674.56 1123.8C691.01 1127.06 719.128 1129.18 750.027 1124.94M750.027 1124.94C780.945 1120.7 814.648 1110.09 842.234 1087.89C897.387 1043.5 920.444 986.701 925.077 963.851C928.766 941.991 923.148 917.618 871.172 995.01C806.202 1091.75 781.803 1118.08 750.027 1124.94ZM644.486 1109.26C648.742 1113.11 664.914 1118.52 695.554 1109.26C709.368 1105.08 724.661 1094.24 738.679 1081.77M738.679 1081.77C755.756 1066.57 770.94 1048.96 779.25 1038.04C782.654 1035.66 789.804 1031.63 791.165 1034.48C792.527 1037.33 756.742 1067.19 738.679 1081.77Z" stroke="#B0AB93" stroke-width="6" stroke-linecap="round"/>
<path fill-rule="evenodd" clip-rule="evenodd" d="M630.867 1071.57C638.338 1070.29 655.323 1070.98 663.494 1084.03C645.582 1091.12 624.625 1110.45 643.634 1151.99C649.221 1164.2 619.883 1161.88 602.212 1154.07C599.659 1153.18 594.609 1149.97 594.836 1144.27C594.859 1143.7 594.855 1142.77 594.851 1141.55C594.805 1127.74 594.631 1076.48 630.867 1071.57Z" fill="#EFE8DF"/>
<path d="M660.94 1142.2C629.619 1113.95 649.592 1091.65 663.494 1084.03C645.582 1091.12 624.625 1110.45 643.634 1151.99C649.221 1164.2 619.883 1161.88 602.212 1154.07C603.063 1159.71 615.546 1173.06 641.081 1170.39C647.762 1169.69 652.4 1167.34 655.55 1164.2C662.03 1157.74 662.213 1147.92 660.94 1142.2Z" fill="#B0AB93"/>
<path d="M654.699 1076.91C640.419 1078 610.554 1096.2 611.008 1136.56M605.901 1157.33C593.417 1124.99 617.703 1103.61 621.789 1098.86M645.621 1167.42C641.176 1167.82 624.626 1155.55 624.626 1116.08" stroke="#B0AB93" stroke-width="6" stroke-linecap="round"/>
<path d="M882.238 1090.86C833.155 1182.85 718.536 1159.41 661.51 1141.31C651.485 1135.67 634.897 1119.11 648.743 1097.98" stroke="#686349" stroke-width="8" stroke-linecap="round"/>
<path fill-rule="evenodd" clip-rule="evenodd" d="M544.052 1138.34C568.167 1128.84 579.516 1118.46 583.204 1100.65C586.892 1082.85 580.098 1066.2 549.726 1060.59C540.08 1058.81 526.745 1064.63 515.964 1070.98C508.428 1075.41 504.888 1080.37 501.451 1085.18C498.677 1089.06 495.969 1092.85 491.281 1096.2C489.114 1097.75 486.786 1099.23 484.328 1100.65C507.735 1100.24 546.832 1108.98 515.964 1147.22C528.738 1143.39 539.23 1140.24 544.052 1138.34Z" fill="#F1C3A8"/>
<path d="M422.623 1127.95L438.795 1173.65C455.086 1165.46 489.179 1155.24 514.75 1147.58L515.964 1147.22C546.832 1108.98 507.735 1100.24 484.328 1100.65C466.604 1110.92 442.14 1118.31 422.623 1127.95Z" fill="#CB7E73"/>
<path d="M442.767 1005.1L268 857.021L383.187 987.887L285.306 1005.1L565.33 1250.8L513.978 1266.53L710.591 1442.8L558.521 1287.3L629.733 1258.82L355.951 1022.31L442.767 1005.1Z" fill="#FDC986"/>
<path d="M383.351 1117.55C390.395 1103.37 407.151 1074.74 417.828 1073.62C419.347 1073.47 420.834 1073.54 422.277 1073.79C427.343 1070.94 438.959 1066.09 444.891 1069.44C452.305 1073.62 454.9 1085.48 463.427 1085.13C471.954 1084.78 471.212 1097.33 455.456 1097.33C456.541 1099.2 457.287 1101.4 457.496 1103.95C462.562 1103.84 473.214 1105.84 475.29 1114.76C480.11 1114.99 489.6 1117.55 489.007 1125.92C488.414 1134.28 463.056 1162.87 450.452 1176.12C448.228 1178.44 442.889 1183.44 436.364 1180.65C429.84 1177.86 434.881 1174.03 429.691 1170.19C424.501 1166.36 421.906 1170.54 418.57 1169.5C415.233 1168.45 413.009 1165.61 414.121 1161.43C415.233 1157.24 409.302 1153.11 404.111 1153.11C401.95 1153.11 396.326 1152.76 398.551 1144.05C400.775 1135.33 394.163 1136.03 389.653 1136.03C376.678 1136.03 380.06 1124.17 383.351 1117.55Z" fill="#F1C3A8"/>
<path d="M422.277 1073.79C420.834 1073.54 419.347 1073.47 417.828 1073.62C407.151 1074.74 390.395 1103.37 383.351 1117.55C380.06 1124.17 376.678 1136.03 389.653 1136.03C394.163 1136.03 400.775 1135.33 398.551 1144.05C396.326 1152.76 401.95 1153.11 404.111 1153.11C409.302 1153.11 415.233 1157.24 414.121 1161.43C413.009 1165.61 415.233 1168.45 418.57 1169.5C421.906 1170.54 424.501 1166.36 429.691 1170.19C434.881 1174.03 429.84 1177.86 436.364 1180.65C442.889 1183.44 448.228 1178.44 450.452 1176.12C463.056 1162.87 488.414 1134.28 489.007 1125.92C489.6 1117.55 480.11 1114.99 475.29 1114.76C473.214 1105.84 462.562 1103.84 457.496 1103.95C457.287 1101.4 456.541 1099.2 455.456 1097.33M422.277 1073.79C430.974 1075.31 438.057 1083.43 440.813 1087.92C444.784 1088.54 451.923 1091.23 455.456 1097.33M422.277 1073.79C427.343 1070.94 438.959 1066.09 444.891 1069.44C452.305 1073.62 454.9 1085.48 463.427 1085.13C471.954 1084.78 471.212 1097.33 455.456 1097.33" stroke="#E9A397" stroke-width="2"/>
<path d="M456.753 1104.3C450.08 1113.48 438.217 1132.54 429.691 1138.82M439.329 1088.27C432.656 1097.45 416.938 1117.2 407.447 1122.78M474.919 1115.46C468.246 1124.64 456.383 1143.7 447.856 1149.97" stroke="#CB7E73" stroke-width="4" stroke-linecap="round"/>
<path fill-rule="evenodd" clip-rule="evenodd" d="M970.726 1138.93C947.847 1129.43 937.081 1119.05 933.582 1101.24C930.083 1083.44 936.529 1066.79 965.343 1061.18C974.494 1059.4 987.145 1065.23 997.373 1071.57C1004.52 1076 1007.88 1080.96 1011.14 1085.77C1013.77 1089.65 1016.34 1093.44 1020.79 1096.79C1022.85 1098.34 1025.06 1099.82 1027.39 1101.24C1005.18 1100.83 968.088 1109.58 997.373 1147.81C985.255 1143.99 975.3 1140.83 970.726 1138.93Z" fill="#F1C3A8"/>
<path d="M1085.93 1128.54L1070.59 1174.24C1055.13 1166.05 1022.78 1155.84 998.526 1148.18L997.373 1147.81C968.088 1109.58 1005.18 1100.83 1027.39 1101.24C1044.2 1111.51 1067.41 1118.9 1085.93 1128.54Z" fill="#CB7E73"/>
<path d="M1066.82 1005.69L1232.62 857.613L1123.34 988.479L1216.2 1005.69L950.539 1251.4L999.257 1267.12L812.727 1443.39L956.999 1287.9L889.439 1259.41L1149.18 1022.9L1066.82 1005.69Z" fill="#FDC986"/>
<path d="M1123.19 1118.14C1116.51 1103.97 1100.61 1075.33 1090.48 1074.22C1089.04 1074.06 1087.63 1074.13 1086.26 1074.38C1081.45 1071.54 1070.43 1066.69 1064.8 1070.03C1057.77 1074.22 1055.31 1086.07 1047.22 1085.72C1039.13 1085.37 1039.83 1097.92 1054.78 1097.92C1053.75 1099.8 1053.04 1101.99 1052.85 1104.55C1048.04 1104.43 1037.93 1106.43 1035.96 1115.35C1031.39 1115.59 1022.39 1118.14 1022.95 1126.51C1023.51 1134.88 1047.57 1163.46 1059.53 1176.71C1061.64 1179.03 1066.7 1184.03 1072.89 1181.24C1079.08 1178.45 1074.3 1174.62 1079.22 1170.78C1084.15 1166.95 1086.61 1171.13 1089.78 1170.09C1092.94 1169.04 1095.05 1166.2 1094 1162.02C1092.94 1157.84 1098.57 1153.7 1103.49 1153.7C1105.54 1153.7 1110.88 1153.35 1108.77 1144.64C1106.66 1135.92 1112.93 1136.62 1117.21 1136.62C1129.52 1136.62 1126.31 1124.77 1123.19 1118.14Z" fill="#F1C3A8"/>
<path d="M1086.26 1074.38C1087.63 1074.13 1089.04 1074.06 1090.48 1074.22C1100.61 1075.33 1116.51 1103.97 1123.19 1118.14C1126.31 1124.77 1129.52 1136.62 1117.21 1136.62C1112.93 1136.62 1106.66 1135.92 1108.77 1144.64C1110.88 1153.35 1105.54 1153.7 1103.49 1153.7C1098.57 1153.7 1092.94 1157.84 1094 1162.02C1095.05 1166.2 1092.94 1169.04 1089.78 1170.09C1086.61 1171.13 1084.15 1166.95 1079.22 1170.78C1074.3 1174.62 1079.08 1178.45 1072.89 1181.24C1066.7 1184.03 1061.64 1179.03 1059.53 1176.71C1047.57 1163.46 1023.51 1134.88 1022.95 1126.51C1022.39 1118.14 1031.39 1115.59 1035.96 1115.35C1037.93 1106.43 1048.04 1104.43 1052.85 1104.55C1053.04 1101.99 1053.75 1099.8 1054.78 1097.92M1086.26 1074.38C1078.01 1075.9 1071.29 1084.02 1068.67 1088.51C1064.91 1089.13 1058.13 1091.82 1054.78 1097.92M1086.26 1074.38C1081.45 1071.54 1070.43 1066.69 1064.8 1070.03C1057.77 1074.22 1055.31 1086.07 1047.22 1085.72C1039.13 1085.37 1039.83 1097.92 1054.78 1097.92" stroke="#E9A397" stroke-width="2"/>
<path d="M1053.55 1104.9C1059.88 1114.08 1071.13 1133.13 1079.22 1139.41M1070.08 1088.86C1076.41 1098.04 1091.32 1117.79 1100.33 1123.37M1036.31 1116.05C1042.65 1125.23 1053.9 1144.29 1061.99 1150.57" stroke="#CB7E73" stroke-width="4" stroke-linecap="round"/>
</g>
<defs>
<linearGradient id="paint0_linear_323_1925" x1="767.903" y1="651.375" x2="767.903" y2="684.611" gradientUnits="userSpaceOnUse">
<stop stop-color="#F1C3A8"/>
<stop offset="1" stop-color="#E89F94"/>
</linearGradient>
<clipPath id="clip0_323_1925">
<rect width="1512" height="1186" fill="white"/>
</clipPath>
</defs>
</svg>
