<svg width="1747" height="1747" viewBox="0 0 1747 1747" fill="none" xmlns="http://www.w3.org/2000/svg">
<path d="M1222.68 1108.13C1222.84 1107.98 1223.1 1107.73 1223.47 1108.09C1223.65 1108.28 1223.71 1108.64 1223.63 1108.93C1223.57 1109.22 1223.43 1109.48 1223.22 1109.69C1223 1109.9 1222.74 1110.15 1222.14 1110.21C1221.79 1110.21 1221.53 1110.26 1220.93 1109.9C1220.8 1109.84 1220.6 1109.65 1220.6 1109.65H1220.54H1220.52L1220.3 1109.37L1220.16 1109.2C1219.8 1108.68 1219.7 1107.94 1219.8 1107.38C1219.9 1106.81 1220.12 1106.37 1220.42 1105.97C1220.6 1105.76 1220.7 1105.61 1221.05 1105.36C1221.23 1105.21 1221.47 1105.08 1221.69 1104.96C1222.14 1104.73 1222.72 1104.56 1223.28 1104.54C1224.47 1104.47 1225.58 1104.89 1226.39 1105.46C1227.2 1106.03 1227.84 1106.79 1228.22 1107.82C1228.41 1108.34 1228.53 1108.87 1228.53 1109.6C1228.53 1110 1228.37 1110.67 1228.37 1110.61V1110.68L1228.22 1111.05L1228.06 1111.43C1227.2 1113.24 1225.54 1114.1 1224.31 1114.38C1223.02 1114.69 1221.89 1114.56 1220.95 1114.21L1218.83 1113.47L1218.77 1112.86C1218.63 1111.31 1219.05 1110.04 1220.08 1109.5C1221.09 1108.95 1222.48 1109.25 1223.79 1110.17L1221.61 1108.8C1221.77 1108.57 1221.91 1108.36 1221.91 1108.22C1221.87 1108.13 1221.95 1108.32 1222.03 1108.43C1222.12 1108.57 1222.2 1108.68 1222.3 1108.8C1222.48 1109.01 1222.66 1109.12 1222.66 1109.12C1222.52 1109.04 1223.87 1109.77 1223.3 1109.46V1109.41V1109.33C1223.35 1109.16 1223.2 1109.27 1223.16 1109.33C1223.04 1109.37 1222.88 1109.35 1222.76 1109.41C1222.52 1109.48 1222.56 1109.54 1222.76 1109.33C1222.96 1109.14 1223.12 1108.78 1223.1 1108.66C1223.1 1108.61 1223.1 1108.59 1223.1 1108.66V1108.7H1223.12C1222.76 1107.8 1223.02 1108.45 1222.94 1108.26V1108.28V1108.32C1222.94 1108.32 1222.92 1108.36 1222.94 1108.38C1223.02 1108.4 1223 1108.43 1223 1108.41C1222.96 1108.3 1222.4 1108.17 1222.5 1108.22C1222.14 1108.36 1222.4 1108.26 1222.32 1108.28C1222.32 1108.28 1222.32 1108.38 1222.32 1108.34C1222.3 1108.34 1222.32 1108.28 1222.32 1108.24C1222.32 1108.13 1222.28 1108.03 1222.3 1108.07C1222.32 1108.17 1222.62 1108.34 1222.58 1108.28C1222.58 1108.28 1222.54 1108.28 1222.5 1108.32C1222.42 1108.4 1222.64 1108.19 1222.68 1108.13Z" fill="#EED394"/>
<path d="M1216.19 1053.4C1216.61 1053.33 1217.01 1053.57 1217.09 1053.96C1217.17 1054.34 1216.91 1054.74 1216.51 1054.81C1216.08 1054.89 1215.68 1054.64 1215.6 1054.26C1215.52 1053.86 1215.78 1053.48 1216.19 1053.4Z" fill="#EED394"/>
<path d="M1223.56 1167.03C1223.26 1165.91 1223.42 1164.95 1224.73 1164.53C1225.98 1164.11 1227.13 1164.93 1227.45 1166.42C1227.72 1167.6 1227.13 1168.65 1226.08 1168.9C1225 1169.15 1223.91 1168.35 1223.56 1167.03Z" fill="#EED394"/>
<path d="M1201.61 1012.22C1202.36 1012.94 1202.96 1013.4 1203.3 1013.99C1203.4 1014.16 1202.7 1014.74 1202.36 1015.14C1201.81 1014.66 1201.21 1014.24 1200.78 1013.67C1200.66 1013.52 1201.17 1012.96 1201.61 1012.24V1012.22Z" fill="#EED394"/>
<circle opacity="0.25" cx="874.5" cy="845.5" r="386.5" fill="#E2FDFF"/>
<path d="M1093 1135L1097.27 1147.44H1111.07L1099.9 1155.12L1104.17 1167.56L1093 1159.88L1081.83 1167.56L1086.1 1155.12L1074.93 1147.44H1088.73L1093 1135Z" fill="#8DD9DE"/>
<path d="M730 461L733.143 470.328H743.315L735.086 476.093L738.229 485.422L730 479.657L721.771 485.422L724.914 476.093L716.685 470.328H726.857L730 461Z" fill="#8DD9DE"/>
<path d="M701 1171L707.511 1189.31H728.581L711.535 1200.63L718.046 1218.94L701 1207.62L683.954 1218.94L690.465 1200.63L673.419 1189.31H694.489L701 1171Z" fill="#8DD9DE"/>
<path d="M1225.5 1003L1232.12 1022.35H1253.56L1236.22 1034.3L1242.84 1053.65L1225.5 1041.7L1208.16 1053.65L1214.78 1034.3L1197.44 1022.35H1218.88L1225.5 1003Z" fill="#8DD9DE"/>
<path d="M943.5 1188L950.123 1207.35H971.556L954.217 1219.3L960.84 1238.65L943.5 1226.7L926.16 1238.65L932.783 1219.3L915.444 1207.35H936.877L943.5 1188Z" fill="#8DD9DE"/>
<path d="M1052.5 485L1058.45 501.929L1077.7 501.929L1062.13 512.392L1068.08 529.321L1052.5 518.858L1036.92 529.321L1042.87 512.392L1027.3 501.929L1046.55 501.929L1052.5 485Z" fill="#8DD9DE"/>
<path d="M1262 824L1268.06 841.275H1287.68L1271.81 851.951L1277.87 869.225L1262 858.549L1246.13 869.225L1252.19 851.951L1236.32 841.275H1255.94L1262 824Z" fill="#8DD9DE"/>
<path d="M1194.5 633L1201.57 653.039L1224.46 653.039L1205.94 665.423L1213.02 685.461L1194.5 673.077L1175.98 685.461L1183.06 665.423L1164.54 653.039L1187.43 653.039L1194.5 633Z" fill="#8DD9DE"/>
<path d="M867 440L874.858 461.766H900.287L879.714 475.218L887.572 496.984L867 483.532L846.428 496.984L854.286 475.218L833.713 461.766H859.142L867 440Z" fill="#8DD9DE"/>
<path d="M622.5 520L629.123 536.929L650.556 536.929L633.217 547.392L639.84 564.321L622.5 553.858L605.16 564.321L611.783 547.392L594.444 536.929L615.877 536.929L622.5 520Z" fill="#8DD9DE"/>
<path d="M785 1216L789.266 1228.09L803.07 1228.09L791.902 1235.57L796.168 1247.66L785 1240.18L773.832 1247.66L778.098 1235.57L766.93 1228.09L780.734 1228.09L785 1216Z" fill="#8DD9DE"/>
<path d="M1144 534L1148.27 546.092L1162.07 546.092L1150.9 553.566L1155.17 565.658L1144 558.184L1132.83 565.658L1137.1 553.566L1125.93 546.092L1139.73 546.092L1144 534Z" fill="#8DD9DE"/>
<path d="M559 1073L566.633 1095.11H591.336L571.351 1108.78L578.985 1130.89L559 1117.22L539.015 1130.89L546.649 1108.78L526.664 1095.11H551.367L559 1073Z" fill="#8DD9DE"/>
<path d="M532 624L539.184 644.384H562.434L543.625 656.982L550.809 677.366L532 664.768L513.191 677.366L520.375 656.982L501.566 644.384H524.816L532 624Z" fill="#8DD9DE"/>
<path d="M489 766L493.266 778.092L507.07 778.092L495.902 785.566L500.168 797.658L489 790.184L477.832 797.658L482.098 785.566L470.93 778.092L484.734 778.092L489 766Z" fill="#8DD9DE"/>
<path d="M496 924L502.511 942.311H523.581L506.535 953.628L513.046 971.939L496 960.622L478.954 971.939L485.465 953.628L468.419 942.311H489.489L496 924Z" fill="#8DD9DE"/>
<path d="M1343.53 846.815C1343.53 846.719 1343.63 846.548 1343.98 846.509C1344.32 846.452 1344.86 846.643 1345.23 847.082C1345.57 847.539 1345.87 848.112 1345.65 849.008C1345.51 849.504 1345.14 849.943 1344.64 850.172L1344.26 850.324L1343.83 850.248C1343.55 850.21 1343.27 850.076 1343.01 849.905C1342 849.123 1342 848.283 1342.04 847.597C1342.12 846.91 1342.44 846.338 1342.87 845.956C1343.29 845.575 1343.81 845.479 1344.12 845.518C1344.44 845.594 1344.56 845.708 1344.54 845.823C1344.5 846.071 1344.04 846.242 1343.85 846.719C1343.75 846.948 1343.69 847.291 1343.71 847.654C1343.71 847.997 1343.98 848.436 1343.98 848.398C1343.98 848.398 1343.98 848.455 1344.04 848.417C1344.12 848.322 1344.16 847.883 1344.08 847.673C1344 847.177 1343.59 847.024 1343.51 846.776L1343.53 846.815Z" fill="#EED394"/>
<path d="M1347.5 732.498C1347.85 732.974 1348.33 733.413 1348.49 733.947C1348.55 734.157 1347.93 734.558 1347.63 734.863C1347.18 734.443 1346.62 734.1 1346.38 733.604C1346.19 733.241 1346.46 732.688 1346.54 732.23C1346.86 732.326 1347.18 732.402 1347.5 732.498Z" fill="#EED394"/>
<ellipse cx="873.383" cy="873.385" rx="662.663" ry="662.663" transform="rotate(23.7426 873.383 873.385)" fill="url(#paint0_radial_4009_4479)" fill-opacity="0.5" style="mix-blend-mode:color-dodge"/>
<path d="M930.812 462.355C930.701 462.322 930.648 462.027 930.649 461.489C930.639 461.387 930.668 461.157 930.697 460.926C930.712 460.811 930.732 460.678 930.752 460.544C930.835 460.47 930.981 460.454 931.119 460.396C931.766 460.192 931.995 460.102 932.572 459.997C933.511 459.761 935.423 459.979 936.112 461.78C936.485 462.689 936.002 463.958 935.002 464.394C934.046 464.823 933.174 464.7 932.375 464.539C931.563 464.354 930.85 464.04 930.177 463.658C929.524 463.282 928.719 462.602 928.611 461.553C928.503 460.505 929.246 459.712 929.865 459.401C930.513 459.058 931.238 458.997 931.822 459.134C932.962 459.437 933.539 460.069 933.901 460.476C934.257 460.902 934.395 461.183 934.312 461.258C934.223 461.35 933.932 461.243 933.479 461.007C933.02 460.789 932.347 460.407 931.618 460.347C930.986 460.236 930.037 460.907 930.223 461.361C930.208 461.815 931.595 462.571 932.751 462.82C933.336 462.956 933.959 462.964 934.242 462.83C934.495 462.727 934.627 462.488 934.545 462.224C934.37 461.534 933.496 461.151 932.673 461.202C932.312 461.193 931.699 461.288 931.63 461.247C931.519 461.214 931.447 461.252 931.438 461.349C931.398 461.416 931.357 461.483 931.295 461.624C931.066 462.113 930.91 462.365 930.775 462.344L930.812 462.355Z" fill="#8DD9DE"/>
<path d="M1282.87 946.11C1282.67 946.211 1282.36 946.376 1282.13 945.929C1282.02 945.696 1282.07 945.332 1282.23 945.081C1282.37 944.824 1282.57 944.607 1282.82 944.462C1283.08 944.322 1283.39 944.157 1283.97 944.269C1284.28 944.364 1284.54 944.382 1284.99 944.896C1285.08 944.984 1285.21 945.223 1285.21 945.223L1285.27 945.239L1285.29 945.245L1285.41 945.58L1285.49 945.784C1285.67 946.377 1285.55 947.117 1285.3 947.619C1285.04 948.139 1284.71 948.498 1284.32 948.798C1284.09 948.949 1283.95 949.067 1283.57 949.21C1283.36 949.306 1283.1 949.367 1282.86 949.415C1282.39 949.511 1281.8 949.514 1281.28 949.376C1280.16 949.121 1279.27 948.412 1278.69 947.642C1278.12 946.871 1277.74 945.962 1277.69 944.87C1277.67 944.326 1277.71 943.781 1277.92 943.087C1278.04 942.704 1278.38 942.109 1278.36 942.164L1278.38 942.091L1278.62 941.783L1278.88 941.462C1280.19 939.967 1281.96 939.602 1283.17 939.668C1284.44 939.732 1285.44 940.172 1286.21 940.763L1287.94 942.06L1287.82 942.661C1287.51 944.18 1286.75 945.286 1285.65 945.514C1284.57 945.765 1283.38 945.088 1282.44 943.849L1284.04 945.766C1283.83 945.941 1283.64 946.102 1283.6 946.23C1283.61 946.333 1283.59 946.128 1283.55 945.996C1283.51 945.846 1283.47 945.714 1283.41 945.576C1283.31 945.325 1283.17 945.166 1283.17 945.166C1283.28 945.278 1282.25 944.21 1282.68 944.659L1282.66 944.713L1282.64 944.786C1282.55 944.94 1282.72 944.869 1282.77 944.825C1282.89 944.822 1283.03 944.885 1283.16 944.864C1283.41 944.858 1283.38 944.792 1283.14 944.937C1282.9 945.064 1282.65 945.366 1282.63 945.481C1282.62 945.536 1282.61 945.554 1282.63 945.481L1282.64 945.445L1282.62 945.439C1282.7 946.398 1282.65 945.705 1282.66 945.91L1282.67 945.891L1282.68 945.855C1282.68 945.855 1282.71 945.824 1282.7 945.8C1282.63 945.759 1282.66 945.728 1282.65 945.747C1282.66 945.867 1283.14 946.151 1283.06 946.069C1283.43 946.041 1283.16 946.06 1283.24 946.064C1283.24 946.064 1283.27 945.973 1283.26 946.009C1283.28 946.015 1283.24 946.064 1283.23 946.101C1283.2 946.21 1283.21 946.313 1283.2 946.271C1283.21 946.174 1282.98 945.926 1283 945.992C1283 945.992 1283.04 946.003 1283.09 945.977C1283.18 945.927 1282.92 946.066 1282.87 946.11Z" fill="#8DD9DE"/>
<path d="M1158.51 853.628C1158.37 853.625 1158.25 853.628 1158.09 853.62C1158.03 853.622 1157.97 853.624 1157.88 853.638C1157.88 853.638 1157.81 853.658 1157.74 853.714C1157.66 853.77 1157.63 853.88 1157.65 853.807C1157.69 853.739 1157.63 853.481 1157.63 853.523L1159.97 853.349C1160.29 854.024 1160.47 854.817 1160.48 855.656L1157.4 854.17C1157.4 854.17 1157.43 854.06 1157.42 853.976C1157.4 853.813 1157.31 853.706 1157.37 853.784C1157.41 853.873 1157.6 853.911 1157.66 854.03C1157.85 853.886 1157.27 854.112 1157.33 854.129C1157.33 854.129 1157.45 853.927 1157.46 853.83C1157.66 853.571 1157.26 853.013 1157.28 852.559C1157.3 852.088 1157.13 851.578 1157.81 851.205C1158.31 850.86 1159.27 850.751 1160.23 851.258C1160.72 851.524 1161.2 851.928 1161.59 852.583C1161.78 852.899 1161.94 853.305 1162.01 853.745C1162.03 853.853 1162.04 853.973 1162.04 854.094L1162.05 854.275L1162.06 854.359L1162.05 854.396L1162.03 854.608L1162.05 854.734C1162.05 854.753 1162.05 854.734 1162.05 854.795L1162.02 855.043C1161.77 856.282 1161.31 856.94 1160.6 857.623C1159.91 858.233 1159.03 858.684 1157.92 858.809C1157.23 858.88 1156.47 858.791 1155.79 858.506L1152.97 857.399L1153.49 854.885C1153.66 854.059 1154 853.325 1154.47 852.751L1155.41 850.982C1156.67 850.164 1157.89 850.472 1158.45 850.82C1159.08 851.209 1159.38 851.739 1159.5 852.213C1159.71 853.271 1159 853.676 1158.49 853.622L1158.51 853.628Z" fill="#8DD9DE"/>
<path d="M1160.17 881.36C1159.82 881.133 1159.51 880.404 1160.45 879.631C1161.42 878.966 1163.12 878.941 1164.56 880.131C1164.93 880.442 1165.27 880.862 1165.56 881.429C1165.69 881.746 1165.8 881.979 1165.87 882.478C1165.9 882.725 1165.92 882.991 1165.9 883.245C1165.9 883.462 1165.91 883.426 1165.92 883.528C1165.78 885.06 1164.94 886.242 1163.83 887.043C1162.73 887.826 1161.5 888.154 1160.19 888.138C1159.47 888.102 1158.96 888.067 1157.99 887.675L1157.74 887.56L1157.68 887.543L1157.4 887.399L1157.2 887.278C1156.92 887.116 1156.66 886.935 1156.39 886.736C1154.24 884.954 1153.75 882.912 1153.52 881.39L1153.06 878.483L1155.23 877.739C1158.53 876.622 1161.03 878.233 1161.82 879.566L1162.54 880.678C1162.65 881.291 1162.21 882.214 1161.72 882.463C1161.25 882.74 1160.89 882.713 1160.64 882.695C1160.12 882.6 1159.79 882.36 1159.55 882.028C1159.28 881.691 1159.3 881.219 1159.49 881.015C1159.64 880.981 1159.8 880.97 1159.96 880.979C1160.08 880.994 1160.4 881.052 1160.23 881.099C1160.2 881.051 1160.19 881.088 1160.29 880.976C1160.38 880.865 1160.4 880.611 1160.39 880.75C1160.4 880.81 1160.43 880.961 1160.51 881.043C1160.58 881.126 1160.6 881.071 1160.43 881.1L1159.78 882.457C1159 882.622 1158.15 883.103 1158 883.536L1159.72 879.891C1160.12 880.666 1160.65 881.305 1160.76 881.339L1160.78 881.344L1160.2 882.126L1160.27 882.107C1160.35 882.092 1160.48 882.089 1160.52 882.064C1160.37 881.778 1160.52 881.665 1160.49 881.575C1160.48 881.394 1160.49 881.835 1160.74 882.228C1160.85 882.4 1161 882.547 1161.07 882.606L1161.14 882.628L1161.1 882.617C1161.33 882.744 1160.61 882.328 1161.62 882.912L1161.65 882.803C1161.74 882.649 1161.15 882.93 1160.97 883.074C1160.74 883.303 1160.97 883.056 1161.03 882.873C1161.14 882.568 1161.13 882.248 1161.09 882.116C1161.07 882.05 1161.1 882.098 1161.03 881.997C1160.98 881.901 1160.88 881.813 1160.78 881.761C1160.59 881.627 1160.34 881.531 1160.17 881.378L1160.17 881.36Z" fill="#8DD9DE"/>
<path d="M1155.84 752.005C1155.79 751.692 1155.93 751.314 1156.4 751.079C1156.86 750.838 1157.7 750.732 1158.68 751.305L1161.16 752.771L1157.27 754.368C1156.37 754.735 1155.2 755.019 1153.81 755.199L1150.62 755.612L1151.17 751.616C1151.33 750.41 1152.2 749.155 1153.22 748.489C1154.26 747.804 1155.38 747.504 1156.58 747.486C1157.74 747.498 1159.13 747.796 1160.42 748.941C1160.69 749.164 1161.11 749.648 1161.4 750.173C1161.6 750.512 1161.55 750.459 1161.61 750.554L1161.66 750.65L1161.68 750.697L1161.7 750.703L1161.84 751.062L1161.83 751.098C1162.12 751.943 1162.21 752.907 1162.02 753.746C1161.49 756.019 1160.1 757.172 1158.62 757.862C1157.15 758.516 1155.01 758.709 1153.2 757.425C1151.8 756.446 1151.05 754.707 1151.09 753.383C1151.1 752.053 1151.56 751.135 1152.03 750.44C1153.01 749.08 1154.19 748.561 1155.06 748.442C1155.96 748.335 1156.49 748.654 1156.66 749.085C1157 749.964 1156.39 751.236 1156.59 752.452C1156.62 752.578 1156.66 752.71 1156.71 752.787C1156.73 752.871 1156.99 752.87 1156.57 752.881C1156.27 752.913 1156.16 752.958 1156.11 752.983C1156.18 752.945 1156.11 752.983 1156.24 752.883C1156.3 752.84 1156.32 752.809 1156.34 752.772L1156.34 752.754C1156.47 752.672 1155.34 753.408 1155.82 753.094L1155.86 753.147L1155.95 753.253L1156.04 753.36C1156.04 753.36 1156.03 753.318 1156.01 753.312C1155.99 753.264 1155.91 753.26 1155.92 753.224C1155.94 753.133 1155.96 753.078 1155.95 752.915C1155.95 752.655 1155.84 752.326 1155.78 752.206C1155.72 752.069 1155.7 752.124 1155.89 752.3C1156.06 752.471 1156.41 752.656 1156.62 752.699C1156.84 752.723 1156.76 752.701 1156.69 752.721C1156.81 752.996 1156.67 752.413 1156.7 752.564C1156.69 752.66 1156.77 752.725 1156.68 752.776C1156.46 752.95 1156.27 753.608 1156.29 753.734C1156.31 753.879 1156.29 753.456 1156.05 753.106C1155.84 752.743 1155.56 752.677 1155.8 752.75L1154.17 749.432C1155.53 749.802 1156.65 750.257 1157.5 750.731L1156.12 753.744C1156.24 753.639 1156.28 753.215 1156.15 752.934C1156.04 752.604 1155.87 752.313 1155.83 751.982L1155.84 752.005Z" fill="#8DD9DE"/>
<path d="M1242.34 1030.38C1241.97 1030.53 1241.46 1030.48 1241.07 1029.88C1240.7 1029.29 1240.59 1028.19 1241.33 1027.09C1241.69 1026.56 1242.29 1025.99 1243.28 1025.71C1243.48 1025.63 1244.02 1025.59 1244.25 1025.58L1244.4 1025.55L1244.43 1025.56L1244.44 1025.54L1244.71 1025.58L1244.92 1025.61C1245.53 1025.69 1246.11 1025.96 1246.6 1026.29C1247.6 1026.99 1248.24 1027.94 1248.53 1029.1C1248.82 1030.22 1248.71 1031.88 1247.52 1033.22L1247.02 1033.79L1246.11 1034.13C1244.37 1034.76 1242.53 1034.49 1241.1 1033.68C1239.65 1032.8 1238.4 1031.51 1238.14 1029.16C1238.07 1028.6 1238.25 1027.18 1238.76 1026.42C1239.27 1025.56 1239.93 1025.02 1240.57 1024.65C1241.85 1023.94 1243.13 1023.85 1244.36 1024.18C1245.6 1024.51 1246.62 1025.54 1246.85 1026.44L1247.1 1027.04C1246.75 1028.07 1246.23 1028.73 1245.52 1028.87C1244.81 1029.02 1244.04 1028.62 1243.29 1027.82L1243.85 1028.23C1244.08 1028.06 1243.83 1028.18 1243.79 1028.63C1243.71 1029.1 1243.95 1029.44 1243.74 1029.05C1243.61 1028.7 1242.68 1028.42 1243.54 1028.72C1243.56 1028.52 1243.8 1028.59 1244 1028.4C1244.21 1028.26 1244.35 1028.06 1244.35 1028.04C1244.34 1027.94 1244.19 1028.63 1244.32 1028.81L1244.08 1030.01C1244.08 1030.01 1243.67 1029.85 1243.53 1029.91C1243.37 1029.96 1243.66 1029.87 1243.82 1029.68C1243.88 1029.59 1243.93 1029.51 1243.93 1029.53C1244.14 1029.55 1243.94 1029.53 1243.98 1029.54L1243.84 1029.54C1243.84 1029.54 1243.95 1029.58 1243.93 1029.63C1243.95 1029.79 1244.1 1030.02 1244.15 1030.05C1244.31 1030.14 1243.76 1029.82 1243.44 1029.92C1243.07 1029.97 1242.74 1030.25 1242.35 1030.39L1242.34 1030.38Z" fill="#8DD9DE"/>
<path d="M1160.33 1045.71C1160.27 1045.57 1160.31 1045.37 1160.62 1045.2C1160.93 1045.06 1161.49 1044.99 1162.08 1045.32C1162.37 1045.49 1162.67 1045.76 1162.88 1046.2C1162.94 1046.3 1162.99 1046.45 1163.02 1046.62C1163.05 1046.87 1163.06 1046.69 1163.07 1046.98C1163.07 1047.26 1163.01 1047.58 1162.9 1047.84C1162.65 1048.38 1162.19 1048.82 1161.63 1049.09C1161.07 1049.34 1160.23 1049.45 1159.42 1049L1159.02 1048.78L1158.8 1048.24C1158.48 1047.43 1158.63 1046.53 1159.02 1045.9C1159.46 1045.25 1160 1044.64 1161.27 1044.52C1161.6 1044.48 1162.29 1044.61 1162.69 1044.85C1163.14 1045.08 1163.48 1045.43 1163.73 1045.8C1164.24 1046.53 1164.52 1047.61 1163.98 1048.72L1163.57 1049.56L1162.61 1049.65C1162.16 1049.69 1161.69 1049.71 1161.23 1049.63C1158.52 1049.29 1156.52 1047.35 1155.92 1045.34L1155.35 1043.46L1157.07 1043.34C1159.06 1043.2 1160.52 1044 1161.28 1044.7C1162.04 1045.45 1162.17 1046.09 1161.95 1046.28C1161.53 1046.75 1159.71 1045.62 1157.55 1046.27L1158.7 1044.27C1159.2 1045.15 1160.34 1046.01 1161.59 1046.15C1161.8 1046.18 1162 1046.18 1162.19 1046.17L1161.48 1047.43C1161.48 1047.43 1160.99 1047.45 1161.09 1047.46C1161.15 1047.47 1161.44 1047.04 1161.27 1047.15C1161.35 1047.26 1161.52 1047.57 1161.51 1047.48C1161.46 1047.43 1161.12 1047.37 1161.13 1047.41L1160.69 1046.92C1160.69 1046.92 1160.73 1046.57 1160.7 1046.54C1160.73 1046.57 1160.75 1046.6 1160.92 1046.71C1160.99 1046.73 1161.03 1046.74 1161.03 1046.74C1161.01 1046.85 1161.03 1046.58 1161 1046.69C1160.99 1046.73 1160.94 1046.77 1160.98 1046.76C1161.04 1046.74 1161.05 1046.65 1161.04 1046.55C1160.96 1046.1 1160.55 1045.92 1160.4 1045.66L1160.33 1045.71Z" fill="#8DD9DE"/>
<path d="M1041.59 1133.73C1041.82 1133.8 1041.99 1134.17 1041.82 1134.79C1041.66 1135.4 1041.11 1136.27 1040.02 1136.82C1039 1137.37 1037.2 1137.67 1035.59 1136.56C1034.82 1136.05 1034.22 1135.28 1033.86 1134.41C1033.69 1133.96 1033.56 1133.52 1033.5 1132.99C1033.47 1132.34 1033.5 1131.65 1033.7 1131.04C1033.84 1130.6 1034.06 1130.21 1034.29 1129.84L1034.62 1129.26L1035.25 1129.19L1035.87 1129.14L1036.56 1129.21C1036.91 1129.25 1037.26 1129.28 1037.59 1129.32C1038.99 1129.5 1040.3 1129.7 1041.51 1129.86C1041.38 1131.14 1041.23 1132.45 1041.09 1133.12C1040.97 1133.66 1040.83 1134.14 1040.67 1134.53C1040.37 1135.31 1040.08 1135.74 1039.76 1135.73C1039.44 1135.71 1039.18 1135.25 1038.95 1134.45C1038.85 1134.06 1038.74 1133.57 1038.66 1133.01C1038.57 1132.56 1038.47 1132.63 1038.4 1132.55C1038.29 1132.58 1038.22 1132.61 1038.17 1132.64L1038.16 1132.68C1038.16 1132.68 1038.1 1132.68 1037.95 1132.67L1037.29 1132.65L1036.98 1132.64L1036.97 1132.68C1036.96 1132.81 1037.01 1133.01 1037.06 1133.16C1037.17 1133.47 1037.33 1133.76 1037.51 1133.95C1037.83 1134.35 1038.47 1134.5 1039.1 1134.43C1040.38 1134.34 1041.07 1133.51 1041.55 1133.66L1041.59 1133.73Z" fill="#8DD9DE"/>
<path d="M996.256 563.256C996.355 562.927 997.475 562.826 998.837 563.934C999.497 564.491 1000.17 565.332 1000.55 566.482C1000.63 566.686 1000.77 567.226 1000.8 567.672C1000.85 568.124 1000.86 568.607 1000.8 569.068C1000.69 569.989 1000.37 570.831 1000.06 571.812C999.024 571.56 998.018 571.416 996.853 570.926C995.52 570.326 995.062 569.969 994.41 569.453C994.008 569.113 993.527 568.63 993.11 568.205C993.074 567.657 993.05 567.132 993.087 566.605C993.154 566.047 993.297 565.573 993.457 565.242C993.775 564.521 994.257 563.929 994.784 563.45C995.852 562.517 997.316 562.081 998.606 562.29L1000.12 562.548L999.913 563.78C999.312 567.184 997.322 568.497 996.949 568.126C996.449 567.776 997.253 566.046 997.08 563.604L998.387 565.093C997.968 565.146 997.493 565.382 997.098 565.821C996.91 566.043 996.754 566.295 996.677 566.55C996.578 566.879 996.657 566.684 996.64 566.738C996.659 566.744 996.609 566.709 996.69 566.773C997.917 567.661 997.38 567.3 997.606 567.487C997.667 567.486 997.841 567.578 997.832 567.137C997.766 566.42 997.537 565.773 997.269 565.254C996.758 564.204 996.122 563.634 996.274 563.262L996.256 563.256Z" fill="#8DD9DE"/>
<path d="M1219.22 697.381C1219.25 697.151 1219.58 696.931 1220.22 697.024C1220.84 697.111 1221.71 697.572 1222.31 698.59C1222.6 699.096 1222.83 699.725 1222.83 700.48C1222.82 701.235 1222.55 702.13 1221.97 702.81C1221.38 703.489 1220.56 703.981 1219.66 704.167C1218.72 704.342 1217.83 704.395 1216.66 703.821C1216.38 703.677 1216.13 703.502 1215.88 703.308L1215.52 703.021C1215.44 702.897 1215.4 702.747 1215.34 702.627C1215.24 702.358 1215.08 702.072 1215.02 701.814C1214.97 701.579 1214.91 701.424 1214.87 701.232C1214.71 700.486 1214.71 699.768 1214.79 699.095C1214.93 697.744 1215.46 696.649 1216.06 695.872C1217.3 694.294 1218.63 694.097 1218.87 694.466C1219.17 694.875 1218.59 695.718 1218.27 697.037C1218.12 697.687 1217.99 698.464 1218.04 699.278C1218.06 699.682 1218.12 700.098 1218.24 700.494C1218.28 700.583 1218.32 700.715 1218.34 700.763C1218.34 700.763 1218.71 700.874 1218.92 700.797C1219.19 700.778 1219.4 700.663 1219.55 700.569C1219.84 700.417 1220.05 700.001 1219.99 699.464C1219.93 698.391 1219.15 697.818 1219.19 697.334L1219.22 697.381Z" fill="#8DD9DE"/>
<path d="M719.561 531.621C719.585 531.409 719.863 531.154 720.402 531.177C720.927 531.176 721.743 531.481 722.367 532.227C722.977 532.948 723.503 534.083 723.246 535.54C723.112 536.256 722.716 537.033 722.057 537.612C721.399 538.19 720.512 538.521 719.676 538.548C717.274 538.682 715.15 536.887 715.056 534.787L714.995 533.513L715.939 533.26C717.719 532.78 718.922 533.68 719.371 534.333C719.859 535.058 719.7 535.587 719.422 535.703C719.14 535.837 718.762 535.683 718.309 535.647C717.88 535.597 717.266 535.691 717.086 535.956L717.969 534.429C718.103 534.588 718.223 534.724 718.503 534.868C718.764 535.007 719.158 535.106 719.426 535.087C719.809 535.023 719.87 535.021 720.075 534.744C720.261 534.461 720.28 533.929 720.204 533.508C720.097 532.659 719.506 532.142 719.532 531.652L719.561 531.621Z" fill="#8DD9DE"/>
<path d="M803.704 469.584C803.496 469.202 803.819 468.463 804.915 468.176C805.931 467.884 807.774 468.2 808.827 469.931L809.312 470.735L808.898 471.506L808.72 471.831C808.031 472.978 806.828 473.353 805.985 473.338C805.118 473.336 804.392 472.998 803.895 472.57C802.86 471.581 803.263 470.646 803.688 470.575C804.148 470.455 804.703 470.622 805.088 470.419C805.274 470.335 805.498 470.263 805.634 470.145C805.706 470.107 805.747 470.039 805.752 470.021C805.778 470.069 805.93 470.234 805.886 470.181L805.746 471.653C805.626 471.378 805.257 470.928 804.825 470.619C804.423 470.278 803.909 470.044 803.693 469.62L803.704 469.584Z" fill="#8DD9DE"/>
<path d="M706.905 456.595C706.777 456.417 706.778 456.079 707.19 455.784C707.601 455.49 708.406 455.433 709.133 455.832C709.5 456.022 709.876 456.314 710.173 456.802C710.322 457.046 710.449 457.363 710.496 457.676C710.535 457.947 710.545 458.249 710.494 458.552C710.379 459.135 710.17 459.63 709.439 460.047C708.787 460.469 707.726 460.707 706.583 460.482C705.628 460.234 704.853 459.722 704.408 459.19C703.944 458.652 703.799 458.13 703.562 457.64C703.854 456.872 704.362 455.989 705.053 455.639C705.723 455.223 706.387 455.164 706.848 455.243C707.867 455.411 708.157 456.056 707.984 456.362C707.819 456.711 707.416 456.908 707.171 457.253C706.823 457.606 706.944 457.941 707.092 457.986C707.184 458.014 707.184 458.014 707.19 457.996C707.19 457.996 707.197 458.038 707.319 458.035C707.338 458.04 707.368 458.009 707.392 457.997L707.41 458.002C707.926 457.898 707.562 457.968 707.671 457.941L707.634 457.93C707.634 457.93 707.495 457.988 707.471 458.001C707.519 457.975 707.534 457.86 707.543 457.763C707.524 457.558 707.491 457.329 707.363 457.151C707.241 456.955 706.993 456.841 706.857 456.62L706.905 456.595Z" fill="#8DD9DE"/>
<path d="M492.636 626.944C492.553 626.481 493.18 625.873 494.467 625.623C495.092 625.492 495.885 625.472 496.732 625.608C498.022 625.817 499.514 626.625 500.759 627.318C501.281 627.595 501.489 627.777 499.104 626.581C498.512 626.402 497.859 625.688 496.93 626.424C496.749 626.489 496.439 626.715 496.358 626.65L496.043 626.556L495.51 626.515C495.166 626.451 495.078 626.544 494.844 626.314C494.768 626.232 494.608 626.024 494.597 626.061L494.544 626.104C494.836 626.073 494.919 625.799 495.795 625.903C496.467 626.086 496.679 626.389 496.851 626.62C497.173 627.095 497.266 627.522 497.216 628.024C497.21 628.58 496.553 629.02 496.268 628.894C496.117 628.789 496.039 628.646 496.017 628.52C495.981 628.37 496.025 628.224 496.112 628.07C496.054 627.993 496.136 628.257 496.103 628.167C496.14 628.178 495.979 628.11 495.772 628.127C495.493 628.183 495.511 628.188 495.432 628.184C495.376 628.168 495.297 628.164 495.249 628.189C495.171 628.245 495.313 628.109 495.418 627.961C495.499 627.826 495.591 627.655 495.6 627.558C495.606 627.54 495.617 627.503 495.622 627.485L495.628 627.466C495.808 629.413 495.688 628.003 495.715 628.449L495.752 628.46C495.752 628.46 495.861 628.433 495.832 628.464C495.821 628.501 495.81 628.537 495.804 628.556C496.029 628.882 495.971 628.805 495.947 628.818C495.929 628.812 496.075 628.796 495.93 628.673C495.355 628.44 494.829 628.242 494.383 628.048C493.461 627.691 492.742 627.395 492.665 626.913L492.636 626.944Z" fill="#8DD9DE"/>
<path d="M1117.43 897.197C1117.31 897 1117.27 896.73 1117.5 896.44C1117.73 896.15 1118.26 895.913 1118.9 896.005C1119.53 896.074 1120.2 896.396 1120.7 897.084C1120.94 897.416 1121.17 897.845 1121.24 898.442C1121.3 899.02 1121.16 899.712 1120.75 900.248L1120.51 900.575L1120.2 900.74L1119.94 900.861C1118.11 901.663 1116.47 900.792 1115.88 899.937C1115.23 899.023 1115.5 898.249 1115.93 898.099C1116.39 897.918 1116.92 898.038 1117.38 897.959C1117.84 897.936 1118.31 897.779 1118.44 897.679L1118.46 897.684L1118.41 898.525C1118.52 898.601 1118.48 898.548 1118.31 898.558C1118.22 898.53 1117.8 898.722 1117.93 898.64C1117.99 898.56 1118 898.385 1117.99 898.222C1118.1 897.856 1117.72 897.522 1117.41 897.149L1117.43 897.197Z" fill="#8DD9DE"/>
<path d="M825.67 1175.61C825.836 1175.46 826.208 1175.44 826.631 1175.84C827.035 1176.24 827.405 1177.09 827.256 1178.12C827.129 1179.08 826.475 1180.52 824.664 1180.97C823.778 1181.16 822.828 1181.03 821.998 1180.5C821.131 1179.96 820.466 1179.09 820.19 1178.13C819.972 1177.44 819.961 1176.74 820.124 1176.13C820.263 1175.54 820.648 1175 820.889 1174.53C822.256 1174.15 823.697 1174.12 824.88 1174.62C825.717 1174.99 826.308 1175.51 826.698 1176.02C827.472 1177.07 827.365 1177.9 827.016 1178.05C826.643 1178.22 826.094 1177.89 825.341 1177.65C824.952 1177.53 824.527 1177.4 824.049 1177.38C823.911 1177.43 823.859 1177.54 823.88 1177.6C823.9 1177.67 823.956 1177.69 823.956 1177.69C823.787 1177.58 824.178 1178.29 824.882 1177.43C825.459 1176.79 825.366 1176.02 825.678 1175.66L825.67 1175.61Z" fill="#8DD9DE"/>
<path d="M866.606 1117.7C866.662 1117.91 866.537 1118.2 866.151 1118.34C865.783 1118.49 865.195 1118.43 864.713 1118.08C864.231 1117.74 863.988 1117.21 864.029 1116.8C864.052 1116.39 864.277 1116.18 864.503 1116.17C864.998 1116.2 865.41 1116.44 865.747 1116.66C866.054 1116.91 866.425 1117.23 866.611 1117.68L866.606 1117.7Z" fill="#8DD9DE"/>
<path d="M1297.92 1006.32C1297.9 1006.41 1297.76 1006.55 1297.43 1006.49C1297.1 1006.45 1296.65 1006.12 1296.45 1005.6C1296.26 1005.07 1296.15 1004.43 1296.61 1003.64C1296.89 1003.2 1297.35 1002.88 1297.87 1002.8L1298.27 1002.76L1298.64 1002.95C1298.89 1003.07 1299.11 1003.27 1299.3 1003.51C1300 1004.54 1299.76 1005.34 1299.52 1005.99C1299.25 1006.62 1298.79 1007.08 1298.29 1007.33C1297.79 1007.58 1297.28 1007.52 1297.01 1007.4C1296.74 1007.24 1296.66 1007.1 1296.71 1006.99C1296.82 1006.77 1297.3 1006.73 1297.6 1006.33C1297.76 1006.13 1297.91 1005.82 1298 1005.47C1298.1 1005.14 1297.99 1004.65 1297.97 1004.68C1297.97 1004.68 1297.99 1004.63 1297.92 1004.65C1297.82 1004.72 1297.66 1005.13 1297.67 1005.35C1297.6 1005.85 1297.93 1006.11 1297.93 1006.37L1297.92 1006.32Z" fill="#8DD9DE"/>
<path d="M872.626 497.585C872.515 497.552 872.389 497.434 872.471 497.16C872.496 496.809 873.265 496.603 873.639 496.835C874.01 496.946 874.54 497.464 874.695 498.089C874.869 498.719 874.516 499.489 873.749 499.756C873.368 499.881 872.991 499.926 872.573 499.84C872.277 499.751 872.023 499.655 871.81 499.491C871.41 499.211 871.167 498.879 870.992 498.588C870.685 497.997 870.762 497.542 870.967 497.464C871.196 497.374 871.502 497.566 871.918 497.791C872.124 497.912 872.354 498.021 872.576 498.088C872.687 498.122 872.779 498.15 872.877 498.159C872.848 498.19 873.081 498.22 872.973 497.909C872.973 497.909 872.952 497.843 872.958 497.825L873.013 497.642C872.935 497.499 873.031 497.648 872.987 497.594C872.876 497.561 872.732 497.637 872.608 497.58L872.626 497.585Z" fill="#8DD9DE"/>
<path d="M1178.28 603.458C1178.28 603.06 1180.02 602.768 1182.4 602.726L1181.67 604.019C1181.47 603.782 1181.24 603.571 1180.9 603.41C1179.89 602.928 1178.63 603.166 1177.96 603.521C1177.23 603.878 1176.92 604.423 1176.66 604.345C1176.47 604.326 1176.3 603.478 1177.18 602.55C1178 601.701 1179.81 600.991 1181.68 601.832C1182.28 602.112 1182.78 602.583 1183.11 603.118L1183.96 604.511L1182.38 604.394C1180.03 604.224 1178.29 603.839 1178.31 603.446L1178.28 603.458Z" fill="#8DD9DE"/>
<path d="M929.361 1203.39C929.012 1203.74 928.04 1203.35 926.935 1203C925.841 1202.61 924.837 1202.32 924.778 1201.85C924.695 1201.39 925.972 1200.83 927.491 1201.35C929.011 1201.87 929.699 1203.07 929.361 1203.39Z" fill="#8DD9DE"/>
<path d="M761.329 583.501C761.218 583.468 761.092 583.35 761.175 583.076C761.2 582.725 761.968 582.519 762.342 582.751C762.713 582.862 763.243 583.38 763.398 584.005C763.572 584.635 763.219 585.405 762.452 585.672C762.071 585.797 761.694 585.842 761.276 585.756C760.98 585.667 760.726 585.571 760.513 585.407C760.113 585.127 759.851 584.79 759.695 584.504C759.389 583.913 759.465 583.458 759.67 583.38C759.899 583.29 760.205 583.482 760.621 583.707C760.827 583.828 761.057 583.937 761.279 584.004C761.39 584.038 761.482 584.065 761.58 584.075C761.551 584.106 761.784 584.136 761.676 583.825L761.655 583.759L761.71 583.576C761.632 583.433 761.729 583.582 761.684 583.529C761.573 583.495 761.429 583.571 761.305 583.514L761.329 583.501Z" fill="#8DD9DE"/>
<path d="M838.688 533.942C838.278 533.898 837.979 533.549 838.015 533.162C838.056 532.756 838.407 532.463 838.799 532.501C839.21 532.545 839.508 532.894 839.472 533.282C839.431 533.688 839.08 533.981 838.688 533.942Z" fill="#8DD9DE"/>
<path d="M799.915 479.159C799.504 479.115 799.205 478.766 799.241 478.379C799.283 477.973 799.633 477.68 800.026 477.718C800.436 477.762 800.735 478.111 800.699 478.499C800.658 478.905 800.307 479.197 799.915 479.159Z" fill="#8DD9DE"/>
<path d="M778.563 559.585C778.153 559.541 777.854 559.192 777.89 558.804C777.931 558.399 778.282 558.106 778.674 558.144C779.085 558.188 779.383 558.537 779.347 558.924C779.306 559.33 778.955 559.623 778.563 559.585Z" fill="#8DD9DE"/>
<path d="M757.645 579.583C757.235 579.539 756.936 579.19 756.972 578.802C757.013 578.397 757.364 578.104 757.756 578.142C758.148 578.18 758.465 578.535 758.429 578.923C758.388 579.328 758.037 579.621 757.645 579.583Z" fill="#8DD9DE"/>
<path d="M1016.71 611.766C1016.3 611.723 1016 611.374 1016.04 610.986C1016.08 610.58 1016.43 610.287 1016.82 610.326C1017.23 610.37 1017.53 610.719 1017.5 611.106C1017.45 611.512 1017.1 611.805 1016.71 611.766Z" fill="#8DD9DE"/>
<path d="M693.548 563.251C693.137 563.207 692.838 562.858 692.874 562.47C692.916 562.065 693.266 561.772 693.658 561.81C694.069 561.854 694.368 562.203 694.332 562.591C694.29 562.996 693.94 563.289 693.548 563.251Z" fill="#8DD9DE"/>
<path d="M654.145 495.929C653.735 495.885 653.436 495.536 653.472 495.148C653.513 494.742 653.864 494.449 654.256 494.488C654.667 494.532 654.965 494.881 654.929 495.268C654.888 495.674 654.537 495.967 654.145 495.929Z" fill="#8DD9DE"/>
<path d="M1273.05 1000.31C1272.64 1000.26 1272.34 999.915 1272.38 999.527C1272.41 999.139 1272.77 998.828 1273.16 998.867C1273.57 998.911 1273.87 999.26 1273.84 999.647C1273.79 1000.05 1273.44 1000.35 1273.05 1000.31Z" fill="#8DD9DE"/>
<path d="M1237.77 991.239C1237.36 991.195 1237.06 990.846 1237.1 990.459C1237.14 990.053 1237.49 989.76 1237.88 989.798C1238.27 989.837 1238.59 990.191 1238.55 990.579C1238.51 990.985 1238.16 991.278 1237.77 991.239Z" fill="#8DD9DE"/>
<path d="M1202.14 968.778C1201.73 968.734 1201.43 968.385 1201.47 967.998C1201.51 967.592 1201.86 967.299 1202.25 967.337C1202.66 967.381 1202.96 967.73 1202.93 968.118C1202.88 968.524 1202.53 968.817 1202.14 968.778Z" fill="#8DD9DE"/>
<path d="M1187.15 1004.62C1186.74 1004.58 1186.44 1004.23 1186.48 1003.84C1186.52 1003.44 1186.87 1003.14 1187.26 1003.18C1187.67 1003.23 1187.97 1003.58 1187.93 1003.96C1187.89 1004.37 1187.54 1004.66 1187.15 1004.62Z" fill="#8DD9DE"/>
<path d="M1192.64 674.438C1192.41 676.6 1190.43 678.234 1188.25 678.077C1185.95 677.9 1184.26 675.858 1184.5 673.52C1184.72 671.315 1186.64 669.702 1188.84 669.888C1191.13 670.059 1192.88 672.178 1192.64 674.438Z" fill="#8DD9DE"/>
<path d="M680.74 1225.01C678.55 1224.91 676.814 1223.03 676.87 1220.83C676.924 1218.44 678.778 1216.71 681.122 1216.83C683.33 1216.94 685.077 1218.78 685.04 1220.98C685.019 1223.27 683.028 1225.12 680.74 1225.01Z" fill="#8DD9DE"/>
<path d="M1106.76 1208.53C1109.06 1208.81 1110.64 1210.92 1110.33 1213.25C1110.01 1215.43 1107.99 1216.97 1105.83 1216.7C1103.68 1216.43 1101.99 1214.39 1102.16 1212.27C1102.35 1210.05 1104.54 1208.26 1106.76 1208.53Z" fill="#8DD9DE"/>
<path d="M973.246 507.462C971.091 507.311 969.347 505.391 969.392 503.233C969.461 500.924 971.411 499.14 973.744 499.305C975.978 499.459 977.633 501.272 977.566 503.503C977.486 505.85 975.541 507.615 973.246 507.462Z" fill="#8DD9DE"/>
<path d="M564.231 1029.49C561.942 1029.18 560.376 1027.07 560.714 1024.74C561.026 1022.57 563.064 1021.03 565.236 1021.32C567.524 1021.63 569.166 1023.82 568.795 1026.06C568.451 1028.21 566.366 1029.77 564.231 1029.49Z" fill="#8DD9DE"/>
<path d="M562.46 1079.55C560.202 1079.41 558.378 1077.29 558.585 1075.06C558.788 1072.91 560.742 1071.24 562.921 1071.38C565.161 1071.52 566.815 1073.33 566.749 1075.56C566.663 1077.93 564.774 1079.71 562.46 1079.55Z" fill="#8DD9DE"/>
<path d="M1065.26 557.318C1065.54 554.991 1067.58 553.496 1069.96 553.852C1072.18 554.201 1073.65 556.139 1073.38 558.369C1073.11 560.539 1071.17 562.105 1068.95 561.895C1066.64 561.676 1064.97 559.622 1065.26 557.318Z" fill="#8DD9DE"/>
<path d="M758.739 541.086C758.851 538.769 760.87 537.027 763.173 537.222C765.335 537.415 767.068 539.371 766.987 541.518C766.897 543.761 764.83 545.53 762.508 545.329C760.261 545.15 758.636 543.306 758.745 541.068L758.739 541.086Z" fill="#8DD9DE"/>
<path d="M897.937 1219.39C895.627 1219.15 893.983 1217.1 894.278 1214.78C894.564 1212.55 896.439 1211.09 898.713 1211.31C901.084 1211.55 902.684 1213.54 902.383 1215.88C902.095 1218.05 900.131 1219.61 897.919 1219.38L897.937 1219.39Z" fill="#8DD9DE"/>
<path d="M1071.05 643.008C1071.21 640.805 1073.11 639.144 1075.3 639.227C1077.53 639.321 1079.44 641.43 1079.28 643.651C1079.11 645.891 1076.97 647.637 1074.7 647.393C1072.49 647.147 1070.89 645.23 1071.05 643.008Z" fill="#8DD9DE"/>
<path d="M1193.32 738.766C1193.2 741.101 1191.2 742.832 1188.91 742.618C1186.74 742.425 1185.03 740.475 1185.11 738.328C1185.2 736.084 1187.27 734.316 1189.59 734.517C1191.86 734.701 1193.45 736.515 1193.32 738.766Z" fill="#8DD9DE"/>
<path d="M967.138 1153.74C967.289 1151.5 969.086 1149.89 971.337 1149.99C973.668 1150.09 975.493 1152.08 975.336 1154.34C975.19 1156.57 973.039 1158.35 970.771 1158.11C968.582 1157.86 966.961 1155.94 967.12 1153.74L967.138 1153.74Z" fill="#8DD9DE"/>
<path d="M973.943 1233.98C974.092 1231.68 976.105 1229.95 978.403 1230.17C980.578 1230.38 982.237 1232.32 982.102 1234.51C981.96 1236.85 980.012 1238.5 977.64 1238.26C975.367 1238.04 973.816 1236.21 973.943 1233.98Z" fill="#8DD9DE"/>
<path d="M1173.09 874.411C1173.25 872.19 1175.1 870.596 1177.35 870.714C1179.75 870.841 1181.43 872.719 1181.24 875.093C1181.04 877.424 1179.03 879.088 1176.73 878.814C1174.56 878.561 1172.92 876.572 1173.1 874.417L1173.09 874.411Z" fill="#8DD9DE"/>
<path d="M730.849 499.7C732.657 499.866 733.587 500.664 733.511 501.856C733.438 503.169 732.192 503.89 730.466 503.589C729.987 503.504 729.411 503.471 729.115 503.182C728.616 502.693 727.881 501.914 728.006 501.434C728.161 500.783 728.948 500.184 729.581 499.757C729.909 499.537 730.507 499.697 730.849 499.7Z" fill="#8DD9DE"/>
<path d="M894.606 1249.16C893.252 1249.03 892.36 1248.1 892.476 1246.98C892.6 1245.77 893.928 1244.57 894.996 1244.71C896.087 1244.84 897.123 1246.23 897.041 1247.44C896.972 1248.68 896.077 1249.3 894.606 1249.16Z" fill="#8DD9DE"/>
<path d="M688.385 1074.58C686.732 1074.44 685.417 1073.11 685.425 1072.07C685.452 1071.04 686.552 1070.14 687.596 1070.3C688.774 1070.47 690.141 1071.9 689.788 1072.87C689.526 1073.61 688.732 1074.16 688.367 1074.57L688.385 1074.58Z" fill="#8DD9DE"/>
<path d="M873.935 1220.13C873.993 1218.93 874.808 1218.1 875.879 1218.16C877.011 1218.22 878.128 1219.48 878.126 1220.69C878.132 1221.81 877.251 1222.66 876.137 1222.6C874.883 1222.54 873.855 1221.4 873.922 1220.1L873.935 1220.13Z" fill="#8DD9DE"/>
<path d="M653.241 1125.39C651.906 1125.27 650.78 1124.11 650.92 1122.98C651.053 1121.86 651.738 1121.33 652.876 1121.38C654.172 1121.43 655.425 1122.56 655.424 1123.64C655.403 1124.65 654.357 1125.51 653.26 1125.4L653.241 1125.39Z" fill="#8DD9DE"/>
<path d="M1155.64 1155.54C1154.54 1155.43 1153.78 1154.32 1153.87 1153.01C1153.98 1151.67 1154.92 1150.82 1156.11 1151.04C1157.18 1151.22 1157.91 1152.42 1157.74 1153.66C1157.57 1154.81 1156.64 1155.64 1155.63 1155.56L1155.64 1155.54Z" fill="#8DD9DE"/>
<path d="M640.425 1025.69C640.152 1025.19 639.493 1024.5 639.387 1023.71C639.242 1022.65 640.831 1021.39 641.908 1021.44C642.942 1021.49 643.816 1022.61 643.624 1023.65C643.435 1024.75 641.958 1025.9 640.443 1025.7L640.425 1025.69Z" fill="#8DD9DE"/>
<path d="M1210.23 1042.21C1208.52 1041.93 1207.34 1040.28 1207.64 1039.16C1207.92 1038.09 1208.69 1037.6 1209.8 1037.82C1210.93 1038.02 1212.11 1039.59 1211.71 1040.58C1211.43 1041.32 1210.61 1041.83 1210.22 1042.23L1210.23 1042.21Z" fill="#8DD9DE"/>
<path d="M1299.03 889.463C1298.99 890.624 1298.57 891.492 1297.24 891.532C1295.97 891.588 1295.15 890.485 1295.29 888.972C1295.39 887.767 1296.23 886.924 1297.26 886.976C1298.33 887.04 1299.1 888.108 1299.03 889.463Z" fill="#8DD9DE"/>
<path d="M1032.59 578.418C1032.64 577.178 1033.42 576.337 1034.45 576.389C1035.59 576.433 1036.5 577.702 1036.36 579.095C1036.27 580.143 1035.78 580.893 1034.61 580.94C1033.34 580.997 1032.53 579.954 1032.59 578.418Z" fill="#8DD9DE"/>
<path d="M1131.59 1072.42C1132.81 1072.65 1133.58 1073.6 1133.37 1074.61C1133.17 1075.7 1132.03 1076.28 1130.63 1076.03C1129.38 1075.8 1128.66 1074.92 1128.86 1073.85C1129.08 1072.72 1130.16 1072.15 1131.59 1072.42Z" fill="#8DD9DE"/>
<path d="M1116.66 634.53C1114.78 634.402 1113.37 633.2 1113.75 632.278C1113.97 631.728 1114.75 631.147 1115.36 631.089C1116.63 630.936 1118.2 632.244 1117.9 633.151C1117.71 633.791 1116.95 634.239 1116.66 634.548L1116.66 634.53Z" fill="#8DD9DE"/>
<path d="M1056.09 629.159C1054.68 629.014 1053.41 627.318 1053.77 626.251C1053.94 625.685 1054.74 625.049 1055.32 624.985C1056.25 624.865 1057.54 626.748 1057.23 627.789C1057.04 628.392 1056.38 628.85 1056.09 629.159Z" fill="#8DD9DE"/>
<path d="M684.808 1254.2C684.389 1254.45 683.799 1255.07 683.107 1255.22C681.882 1255.47 680.651 1254.46 680.665 1253.41C680.673 1252.38 681.268 1251.88 682.299 1251.87C683.594 1251.86 684.815 1252.77 684.826 1254.21L684.808 1254.2Z" fill="#8DD9DE"/>
<path d="M1184.57 696.211C1183.64 696.15 1182.62 694.967 1182.79 694.02C1182.97 693.019 1183.64 692.645 1184.63 692.723C1185.68 692.799 1186.53 693.116 1186.62 694.298C1186.7 695.22 1185.52 696.277 1184.56 696.229L1184.57 696.211Z" fill="#8DD9DE"/>
<path d="M1022.57 461.455C1022.35 463.061 1021.71 463.688 1020.57 463.584C1019.48 463.473 1018.84 462.782 1018.93 461.656C1019.04 460.553 1019.78 459.798 1020.84 460.079C1021.58 460.259 1022.13 461.103 1022.57 461.455Z" fill="#8DD9DE"/>
<path d="M669.7 1077.3C668.548 1078.11 667.897 1078.93 667.143 1079.02C666.097 1079.14 665.373 1078.33 665.391 1077.2C665.408 1076.07 666.183 1075.3 667.221 1075.48C667.951 1075.6 668.566 1076.44 669.694 1077.32L669.7 1077.3Z" fill="#8DD9DE"/>
<path d="M474.063 1053.27C472.797 1053.05 472.221 1052.42 472.341 1051.28C472.457 1050.16 473.152 1049.59 474.268 1049.71C475.402 1049.83 475.933 1050.55 475.841 1051.66C475.757 1052.81 474.984 1053.23 474.044 1053.27L474.063 1053.27Z" fill="#8DD9DE"/>
<path d="M678.848 1092.7C678.004 1091.55 677.183 1090.93 677.085 1090.18C676.947 1089.16 677.735 1088.42 678.883 1088.43C680.05 1088.44 680.784 1089.22 680.641 1090.23C680.543 1090.96 679.709 1091.59 678.867 1092.71L678.848 1092.7Z" fill="#8DD9DE"/>
<path d="M1054.46 657.216C1053.81 656.043 1053.15 655.346 1053.03 654.552C1052.87 653.608 1053.59 653.009 1054.61 653.038C1055.53 653.075 1056.52 654.427 1056.16 655.337C1055.94 655.928 1055.3 656.331 1054.47 657.198L1054.46 657.216Z" fill="#8DD9DE"/>
<path d="M719.116 1158.49C718.307 1157.49 717.444 1156.87 717.316 1156.16C717.151 1155.23 718.019 1154.7 718.992 1154.75C720.044 1154.81 720.942 1155.38 720.82 1156.46C720.736 1157.07 719.911 1157.6 719.116 1158.49Z" fill="#8DD9DE"/>
<path d="M1147.68 1218.86C1146.92 1217.68 1146.26 1217 1146.07 1216.21C1145.87 1215.39 1146.5 1214.78 1147.42 1214.74C1148.36 1214.7 1149.55 1215.94 1149.29 1216.86C1149.11 1217.44 1148.47 1217.9 1147.68 1218.86Z" fill="#8DD9DE"/>
<path d="M1005.33 1135.98C1003.87 1135.92 1002.68 1134.74 1002.98 1133.86C1003.19 1133.29 1003.89 1132.64 1004.51 1132.48C1005.45 1132.23 1006.51 1133.47 1006.27 1134.53C1006.13 1135.13 1005.56 1135.63 1005.33 1135.98Z" fill="#8DD9DE"/>
<path d="M997.736 591.73C999.121 591.151 999.8 590.638 1000.51 590.614C1001.59 590.581 1002.39 591.618 1002.16 592.505C1001.94 593.375 1001.27 593.869 1000.45 593.582C999.682 593.312 999.031 592.657 997.736 591.73Z" fill="#8DD9DE"/>
<path d="M1267.71 673.971C1266.62 674.778 1265.97 675.599 1265.24 675.678C1264.2 675.782 1263.87 674.788 1263.99 673.848C1264.1 672.945 1264.57 672.051 1265.59 672.237C1266.22 672.348 1266.75 673.144 1267.73 673.977L1267.71 673.971Z" fill="#8DD9DE"/>
<path d="M1206.17 870.327C1206.64 870.11 1207.3 869.573 1208 869.525C1209.08 869.431 1210.05 870.519 1209.66 871.338C1209.39 871.876 1206.78 871.262 1206.17 871.338C1205.11 871.498 1206.05 871.707 1206.17 870.309L1206.17 870.327Z" fill="#8DD9DE"/>
<path d="M1194.69 858.565C1195.67 857.985 1196.25 857.36 1196.81 857.352C1197.98 857.364 1198.37 858.297 1198.31 859.356C1198.25 860.354 1197.63 861.143 1196.69 860.781C1195.98 860.508 1195.57 859.546 1194.7 858.547L1194.69 858.565Z" fill="#8DD9DE"/>
<path d="M527.383 754.641C526.607 753.531 525.895 752.878 525.643 752.105C525.39 751.272 526.011 750.682 526.932 750.641C527.938 750.585 529.123 751.679 528.898 752.627C528.735 753.235 528.104 753.722 527.378 754.659L527.383 754.641Z" fill="#8DD9DE"/>
<path d="M1256.41 841.708C1256.06 841.922 1255.51 842.492 1254.9 842.568C1253.89 842.703 1252.84 841.43 1253.15 840.468C1253.3 839.975 1253.94 839.39 1254.45 839.287C1255.44 839.086 1256.48 840.256 1256.41 841.708Z" fill="#8DD9DE"/>
<path d="M1176.62 773.222C1175.97 771.969 1175.44 771.331 1175.35 770.626C1175.21 769.729 1175.67 768.932 1176.75 768.838C1177.7 768.766 1178.55 769.717 1178.26 770.788C1178.08 771.469 1177.44 772.053 1176.62 773.222Z" fill="#8DD9DE"/>
<path d="M1099.2 1245.38C1097.56 1245.12 1097.15 1244.39 1097.22 1243.29C1097.28 1242.29 1097.8 1241.63 1098.84 1241.75C1099.86 1241.85 1100.36 1242.66 1100.16 1243.6C1100.01 1244.29 1099.47 1244.88 1099.19 1245.4L1099.2 1245.38Z" fill="#8DD9DE"/>
<path d="M779.592 1135.62C780.709 1134.87 781.351 1134.14 782.122 1134C782.953 1133.85 783.473 1134.6 783.424 1135.5C783.384 1136.51 782.429 1137.53 781.583 1137.26C780.972 1137.08 780.523 1136.42 779.592 1135.62Z" fill="#8DD9DE"/>
<path d="M1034.62 1119.14C1033.37 1119.76 1032.7 1120.3 1031.99 1120.36C1031.08 1120.45 1030.34 1119.88 1030.29 1118.83C1030.25 1117.91 1031.27 1117.08 1032.3 1117.39C1032.99 1117.59 1033.51 1118.27 1034.62 1119.14Z" fill="#8DD9DE"/>
<path d="M1200.14 930.245C1199.76 930.412 1199.16 930.947 1198.58 930.913C1197.49 930.862 1196.81 929.979 1196.94 928.985C1197.02 928.451 1197.83 927.778 1198.42 927.636C1199.31 927.426 1200.33 928.79 1200.16 930.251L1200.14 930.245Z" fill="#8DD9DE"/>
<path d="M1200.41 727.215C1199.86 727.41 1199.17 727.898 1198.47 727.886C1197.38 727.877 1196.72 726.903 1196.97 725.942C1197.21 725.036 1197.87 724.778 1198.7 724.908C1199.74 725.081 1200.45 725.594 1200.41 727.215Z" fill="#8DD9DE"/>
<path d="M1075.88 1189.2C1075.35 1189.43 1074.69 1189.95 1073.99 1190C1072.86 1190.06 1072.03 1189.11 1072.42 1188.21C1072.65 1187.68 1073.43 1187.14 1074.02 1187.08C1075.05 1186.99 1075.8 1187.6 1075.88 1189.2Z" fill="#8DD9DE"/>
<path d="M1036.5 1170.15C1034.94 1169.92 1034.11 1169.37 1034.41 1168.24C1034.57 1167.73 1035.39 1167.12 1035.95 1167.07C1036.95 1166.99 1037.94 1167.57 1037.76 1168.71C1037.66 1169.32 1036.83 1169.81 1036.5 1170.15Z" fill="#8DD9DE"/>
<path d="M482.864 908.391C481.415 908.174 480.518 906.928 480.921 905.994C481.131 905.499 481.773 904.975 482.301 904.895C483.25 904.763 484.239 906.037 483.949 907.065C483.773 907.649 483.14 908.076 482.877 908.415L482.864 908.391Z" fill="#8DD9DE"/>
<path d="M1179.06 1074.4C1179.4 1074.22 1180 1073.65 1180.55 1073.69C1181.64 1073.76 1182.26 1074.65 1182.05 1075.66C1181.93 1076.2 1181.23 1076.91 1180.67 1077.04C1179.74 1077.23 1178.87 1075.98 1179.06 1074.4Z" fill="#8DD9DE"/>
<path d="M1223.74 734.677C1223.26 733.716 1222.68 732.964 1222.55 732.169C1222.47 731.586 1223 730.889 1223.33 730.313C1223.38 730.227 1224.24 730.405 1224.29 730.561C1224.56 731.617 1224.76 732.694 1224.87 733.784C1224.9 733.971 1224.36 734.208 1223.75 734.701L1223.74 734.677Z" fill="#8DD9DE"/>
<path d="M804.836 1262.91C804.559 1262.49 803.931 1261.96 803.831 1261.35C803.688 1260.35 804.395 1259.75 805.408 1259.73C806.318 1259.73 806.845 1260.33 806.862 1261.21C806.865 1262.2 806.309 1262.77 804.841 1262.89L804.836 1262.91Z" fill="#8DD9DE"/>
<path d="M1151.08 786.468C1150.87 786.086 1150.37 785.597 1150.33 785.067C1150.24 783.945 1151.44 782.495 1151.98 782.874C1152.46 783.218 1152.71 784.052 1152.78 784.69C1152.85 785.547 1152.61 786.411 1151.1 786.455L1151.08 786.468Z" fill="#8DD9DE"/>
<path d="M741.191 1099.18C741.741 1100.3 742.381 1100.99 742.238 1101.47C742.084 1101.98 741.25 1102.6 740.677 1102.63C739.854 1102.68 739.26 1101.91 739.531 1101.07C739.72 1100.51 740.354 1100.08 741.172 1099.18L741.191 1099.18Z" fill="#8DD9DE"/>
<path d="M1074.62 1031.9C1075.33 1032.23 1076.25 1032.53 1076.98 1033.05C1077.66 1033.53 1077.57 1034.44 1076.78 1034.58C1076.05 1034.72 1075.08 1034.45 1074.41 1034.05C1073.68 1033.61 1073.6 1032.79 1074.62 1031.9Z" fill="#8DD9DE"/>
<path d="M1070.02 1117.29C1069.28 1116.27 1068.55 1115.67 1068.6 1115.19C1068.66 1114.65 1069.46 1114.21 1069.95 1113.72C1070.41 1114.2 1071.19 1114.63 1071.26 1115.17C1071.34 1115.66 1070.68 1116.25 1070.02 1117.29Z" fill="#8DD9DE"/>
<path d="M1257.16 891.159C1256.49 890.179 1255.95 889.48 1255.54 888.717C1255.5 888.645 1256.37 887.892 1256.45 887.957C1257.16 888.47 1257.83 889.088 1258.41 889.762C1258.46 889.815 1257.77 890.467 1257.14 891.153L1257.16 891.159Z" fill="#8DD9DE"/>
<path d="M1095.93 1114.31C1096.96 1113.71 1097.48 1113.17 1098.1 1113.07C1098.98 1112.96 1099.61 1113.67 1099.37 1114.47C1099.21 1115.02 1098.48 1115.76 1097.97 1115.76C1097.46 1115.79 1096.9 1115.04 1095.93 1114.29L1095.93 1114.31Z" fill="#8DD9DE"/>
<path d="M1117.45 604.046C1116.79 602.993 1116.1 602.365 1116.16 601.867C1116.24 601.352 1117.04 600.697 1117.62 600.592C1118.47 600.45 1119.1 601.158 1118.89 602.01C1118.75 602.605 1118.16 603.086 1117.45 604.046Z" fill="#8DD9DE"/>
<path d="M959.167 1185.31C958.624 1184.23 958.021 1183.55 958.133 1183.05C958.263 1182.55 959.107 1182.22 959.631 1181.82C960.034 1182.36 960.779 1182.91 960.765 1183.42C960.752 1183.93 959.962 1184.41 959.148 1185.3L959.167 1185.31Z" fill="#8DD9DE"/>
<path d="M524.802 1020.66C525.849 1020 526.48 1019.31 526.959 1019.4C527.493 1019.5 528.285 1020.36 528.264 1020.83C528.238 1021.32 527.384 1022.08 526.842 1022.13C526.361 1022.19 525.786 1021.42 524.802 1020.66Z" fill="#8DD9DE"/>
<path d="M970.228 548.805C969.13 549.371 968.454 550.004 967.992 549.865C967.455 549.704 967.111 548.903 966.684 548.376C967.214 547.958 967.752 547.243 968.306 547.211C968.795 547.198 969.303 547.989 970.234 548.787L970.228 548.805Z" fill="#8DD9DE"/>
<path d="M1136.57 709.547C1136.06 708.418 1135.58 707.814 1135.57 707.216C1135.57 706.358 1136.31 705.765 1137.12 706.107C1137.66 706.329 1138.28 707.154 1138.26 707.686C1138.23 708.176 1137.42 708.649 1136.57 709.547Z" fill="#8DD9DE"/>
<path d="M592.822 1008.81C592.357 1007.67 591.778 1006.98 591.945 1006.49C592.099 1005.98 592.956 1005.68 593.493 1005.31C593.891 1005.87 594.619 1006.46 594.582 1006.99C594.555 1007.48 593.715 1007.92 592.804 1008.8L592.822 1008.81Z" fill="#8DD9DE"/>
<path d="M889.306 1165.19C888.63 1164.15 887.925 1163.54 887.989 1163.06C888.069 1162.53 888.842 1162.1 889.328 1161.63C889.808 1162.12 890.604 1162.55 890.67 1163.07C890.723 1163.57 890.004 1164.15 889.293 1165.17L889.306 1165.19Z" fill="#8DD9DE"/>
<path d="M908.753 545.813C908.372 544.663 907.853 543.909 908.051 543.45C908.242 542.95 909.114 542.735 909.683 542.388C910.051 542.977 910.726 543.618 910.651 544.134C910.582 544.631 909.703 545.004 908.753 545.813Z" fill="#8DD9DE"/>
<path d="M1149.86 900.865C1150.87 900.133 1151.43 899.406 1151.92 899.454C1152.45 899.513 1153.26 900.277 1153.3 900.766C1153.33 901.212 1152.52 902.024 1151.99 902.104C1151.5 902.177 1150.9 901.497 1149.85 900.841L1149.86 900.865Z" fill="#8DD9DE"/>
<path d="M833.806 1144.16C834.889 1143.65 835.577 1143.04 836.04 1143.18C836.576 1143.34 836.897 1144.15 837.318 1144.7C836.77 1145.11 836.232 1145.83 835.669 1145.82C835.205 1145.82 834.702 1145.01 833.806 1144.16Z" fill="#8DD9DE"/>
<path d="M1098.62 676.307C1097.58 676.931 1096.92 677.631 1096.45 677.528C1095.9 677.403 1095.52 676.591 1095.08 676.058C1095.59 675.616 1096.09 674.891 1096.63 674.853C1097.11 674.817 1097.65 675.558 1098.6 676.301L1098.62 676.307Z" fill="#8DD9DE"/>
<path d="M1140.03 662.84C1139.01 663.41 1138.45 663.938 1137.84 664.013C1136.92 664.115 1136.35 663.326 1136.59 662.559C1136.75 662.011 1137.54 661.333 1138.07 661.313C1138.58 661.306 1139.11 662.084 1140.03 662.84Z" fill="#8DD9DE"/>
<path d="M1185.16 1090.76C1184.8 1089.67 1184.41 1089.08 1184.5 1088.59C1184.6 1088.12 1185.21 1087.77 1185.62 1087.35C1185.93 1087.86 1186.48 1088.39 1186.47 1088.88C1186.44 1089.37 1185.84 1089.83 1185.16 1090.76Z" fill="#8DD9DE"/>
<path d="M1274.56 1043.77C1274.08 1042.87 1273.66 1042.26 1273.51 1041.6C1273.47 1041.41 1274.28 1041.06 1274.71 1040.77C1275.08 1041.38 1275.51 1041.95 1275.73 1042.61C1275.8 1042.79 1275.18 1043.18 1274.56 1043.75L1274.56 1043.77Z" fill="#8DD9DE"/>
<path d="M1034.04 1220.7C1034.63 1220.22 1035.07 1219.62 1035.4 1219.68C1035.8 1219.76 1036.36 1220.38 1036.36 1220.76C1036.37 1221.12 1035.77 1221.74 1035.37 1221.78C1035.04 1221.82 1034.62 1221.19 1034.04 1220.7Z" fill="#8DD9DE"/>
<path d="M1094.99 929.106C1094.52 928.327 1094.12 927.847 1093.96 927.302C1093.91 927.109 1094.54 926.761 1094.85 926.475C1095.24 926.931 1095.73 927.317 1095.95 927.843C1096.04 928.028 1095.48 928.477 1094.99 929.106Z" fill="#8DD9DE"/>
<path d="M1165.97 957.032C1165.57 956.233 1165.19 955.722 1165.08 955.17C1165.05 955.001 1165.73 954.688 1166.08 954.455C1166.4 954.931 1166.86 955.366 1167.02 955.894C1167.08 956.091 1166.5 956.475 1165.97 957.032Z" fill="#8DD9DE"/>
<path d="M1261.32 1114.69C1261.14 1114.14 1260.82 1113.58 1260.83 1113.03C1260.83 1112.81 1261.52 1112.6 1261.89 1112.39C1262.18 1112.91 1262.6 1113.4 1262.67 1113.94C1262.74 1114.34 1262.34 1114.79 1262.13 1115.21C1261.86 1115.03 1261.59 1114.87 1261.32 1114.69Z" fill="#8DD9DE"/>
<path d="M1288.56 819.118C1288.23 818.401 1287.86 817.951 1287.91 817.527C1287.93 817.255 1288.65 816.735 1288.83 816.809C1289.26 817.016 1289.78 817.492 1289.79 817.854C1289.79 818.193 1289.16 818.541 1288.59 819.105L1288.56 819.118Z" fill="#8DD9DE"/>
<path d="M626.739 507.239C627.327 506.759 627.79 506.161 628.11 506.237C628.51 506.318 629.074 506.926 629.075 507.324C629.092 507.668 628.454 508.313 628.106 508.328C627.722 508.332 627.33 507.755 626.733 507.257L626.739 507.239Z" fill="#8DD9DE"/>
<path d="M701.132 526.531C700.753 525.779 700.296 525.283 700.375 524.888C700.448 524.512 701.093 524.248 701.473 523.924C701.768 524.352 702.302 524.791 702.297 525.208C702.285 525.583 701.693 525.942 701.132 526.531Z" fill="#8DD9DE"/>
<path d="M1172.85 1025.16C1173.47 1024.77 1173.96 1024.24 1174.27 1024.33C1174.64 1024.44 1175.12 1025.13 1175.07 1025.49C1175.02 1025.87 1174.39 1026.16 1174.03 1026.49C1173.7 1026.11 1173.37 1025.73 1172.87 1025.17L1172.85 1025.16Z" fill="#8DD9DE"/>
<path d="M1124.17 589.497C1123.91 588.803 1123.55 588.316 1123.67 588.072C1123.82 587.778 1124.38 587.588 1124.77 587.548C1124.92 587.532 1125.31 588.169 1125.24 588.406C1125.14 588.753 1124.7 589 1124.17 589.497Z" fill="#8DD9DE"/>
<path d="M474.663 821.997C474.296 822.145 473.787 822.091 473.401 821.497C473.033 820.908 472.923 819.799 473.656 818.705C474.017 818.176 474.614 817.599 475.607 817.32C475.812 817.243 476.348 817.205 476.574 817.193L476.725 817.159L476.762 817.17L476.768 817.152L477.038 817.194L477.252 817.218C477.854 817.3 478.437 817.575 478.924 817.901C479.925 818.601 480.567 819.551 480.862 820.716C481.15 821.838 481.034 823.497 479.845 824.832L479.351 825.4L478.44 825.743C476.696 826.374 474.861 826.1 473.429 825.291C471.977 824.415 470.731 823.123 470.469 820.774C470.396 820.214 470.581 818.795 471.093 818.033C471.595 817.168 472.261 816.632 472.897 816.265C474.18 815.556 475.478 815.469 476.692 815.795C477.925 816.126 478.967 817.157 479.18 818.058L479.426 818.65C479.075 819.679 478.553 820.339 477.844 820.484C477.134 820.629 476.364 820.238 475.616 819.435L476.179 819.844C476.412 819.675 476.153 819.796 476.119 820.244C476.037 820.717 476.281 821.049 476.073 820.668C475.938 820.309 475.013 820.03 475.872 820.329C475.89 820.135 476.13 820.207 476.332 820.009C476.535 819.871 476.675 819.674 476.68 819.656C476.671 819.553 476.523 820.246 476.651 820.424L476.41 821.626C476.41 821.626 475.995 821.461 475.857 821.519C475.699 821.572 475.99 821.48 476.148 821.288C476.213 821.208 476.259 821.122 476.253 821.141C476.468 821.165 476.272 821.146 476.309 821.157L476.168 821.155C476.168 821.155 476.279 821.188 476.263 821.243C476.274 821.406 476.428 821.632 476.473 821.685C476.628 821.772 476.08 821.447 475.766 821.552C475.389 821.598 475.062 821.878 474.676 822.02L474.663 821.997Z" fill="#8DD9DE"/>
<path d="M530.277 797.923C530.249 798.014 530.107 798.15 529.781 798.092C529.45 798.052 529.006 797.719 528.799 797.199C528.616 796.666 528.504 796.034 528.966 795.237C529.238 794.801 529.698 794.481 530.226 794.402L530.622 794.361L530.989 794.551C531.237 794.666 531.458 794.872 531.649 795.109C532.349 796.136 532.107 796.94 531.872 797.586C531.6 798.221 531.139 798.68 530.64 798.928C530.141 799.177 529.632 799.123 529.366 799.003C529.092 798.841 529.014 798.698 529.065 798.594C529.174 798.367 529.649 798.331 529.953 797.925C530.111 797.733 530.266 797.421 530.352 797.069C530.451 796.74 530.337 796.248 530.326 796.284C530.326 796.284 530.342 796.229 530.276 796.249C530.174 796.318 530.011 796.727 530.024 796.95C529.955 797.447 530.282 797.705 530.284 797.965L530.277 797.923Z" fill="#8DD9DE"/>
<path d="M505.395 791.927C504.985 791.883 504.686 791.534 504.722 791.146C504.763 790.74 505.114 790.447 505.506 790.486C505.917 790.53 506.215 790.879 506.179 791.266C506.138 791.672 505.787 791.965 505.395 791.927Z" fill="#8DD9DE"/>
<path d="M470.114 782.858C469.703 782.814 469.405 782.465 469.441 782.078C469.482 781.672 469.833 781.379 470.225 781.418C470.636 781.461 470.934 781.81 470.898 782.198C470.857 782.604 470.506 782.897 470.114 782.858Z" fill="#8DD9DE"/>
<path d="M506.904 835.39C506.428 834.489 506.005 833.884 505.861 833.223C505.818 833.031 506.631 832.678 507.061 832.389C507.423 832.996 507.876 833.57 508.081 834.23C508.148 834.409 507.526 834.8 506.91 835.371L506.904 835.39Z" fill="#8DD9DE"/>
<path d="M493.647 906.3C493.47 905.748 493.152 905.194 493.158 904.638C493.163 904.421 493.852 904.21 494.218 904.001C494.504 904.526 494.923 905.011 495.002 905.552C495.065 905.95 494.664 906.407 494.458 906.823C494.19 906.642 493.916 906.48 493.647 906.3Z" fill="#8DD9DE"/>
<defs>
<radialGradient id="paint0_radial_4009_4479" cx="0" cy="0" r="1" gradientUnits="userSpaceOnUse" gradientTransform="translate(865.227 855.795) rotate(-113.743) scale(555.5 555.5)">
<stop stop-color="#93C1C6"/>
<stop offset="1" stop-color="#759599" stop-opacity="0"/>
</radialGradient>
</defs>
</svg>
