<svg width="1512" height="1186" viewBox="0 0 1512 1186" fill="none" xmlns="http://www.w3.org/2000/svg">
<g clip-path="url(#clip0_323_1925)">
<rect width="1512" height="1186" fill="#BEDDFF"/>
<path d="M-167.137 791.891L1608 901C1605.14 816.449 1601.99 512.766 1528.14 452.984C1435.83 378.256 1402.4 383.519 1310.09 452.984C1217.79 522.449 1119.44 682.43 1073.28 657.17C1027.13 631.91 869.782 513.087 781.617 517.998C693.452 522.91 483.451 631.91 483.451 711.9C483.451 791.891 139.37 356.519 34.3415 356.519C-70.6874 356.519 -162.699 341.433 -204.71 406.338C-238.319 458.261 -218.615 627.349 -234 657.17L-204.71 791.891H-167.137Z" fill="#46616F"/>
<path d="M723.356 447.767L782.095 453.683L870.569 462.593L948.41 470.433L1020.35 477.678L1086.59 484.349L1149.37 490.672L1226.1 498.318V447.396V421.935L723.356 371.054V447.767Z" fill="#FBEDCD"/>
<path d="M782.095 491.59V453.683C773.845 464.055 743.618 487.843 688.707 500.011L735.401 495.801L782.095 491.59Z" fill="#FBEDCD"/>
<path d="M870.569 500.714V462.593C860.794 489.616 839.869 496.171 813.379 494.817L844.662 498.043L870.569 500.714Z" fill="#FBEDCD"/>
<path d="M847.415 797.606L844.662 498.043L813.379 494.817L814.755 797.606H847.415Z" fill="#FBEDCD"/>
<path d="M912.736 797.606H930.261V506.87L905.748 504.342V797.606H912.736Z" fill="#FBEDCD"/>
<path d="M1002.86 797.606V514.357L980.089 512.009V797.606H1002.86Z" fill="#FBEDCD"/>
<path d="M1071.83 797.606V521.469L1050.38 519.257L1052.19 797.606H1071.83Z" fill="#FBEDCD"/>
<path d="M1138.15 797.606V528.31L1119.18 526.353V797.606H1138.15Z" fill="#FBEDCD"/>
<path d="M1211.08 797.606L1210.75 535.762L1189.63 533.596L1189.8 797.606H1211.08Z" fill="#FBEDCD"/>
<path d="M1226.1 396.474L1183.69 389.24L1167.52 387.626L723.356 343.278V363.449L1226.1 415.362V396.474Z" fill="#FFF7E5"/>
<path d="M710.487 319.801L723.356 343.278L957.32 289.502L966.478 287.397C985.865 314.401 1037.57 358.687 1089.32 319.801L1183.69 389.24L1226.1 396.474L1089.32 304.922C1030.18 326.878 999.779 295.773 991.969 277.477V254L710.487 319.801Z" fill="#FFF7E5"/>
<path d="M232 500.011L259.059 497.134L277.209 495.204L311.198 491.59L351.787 487.275L371.586 485.17L392.376 482.959L429.995 478.959L476.523 474.012L492.693 472.293L516.782 469.731L557.371 465.416L600.27 460.854L620.069 458.749L644.489 456.153L688.707 451.451L723.356 447.767V371.054L232 423.959V500.011Z" fill="#D4B4AB"/>
<path d="M723.356 447.767L688.707 451.451V500.011C743.618 487.843 773.845 464.055 782.095 453.683L723.356 447.767Z" fill="#D4B4AB"/>
<path d="M782.095 453.683V491.59L813.379 494.817C839.869 496.171 860.794 489.616 870.569 462.593L782.095 453.683Z" fill="#D4B4AB"/>
<path d="M723.356 371.054L1226.1 421.935V415.362L723.356 363.449V371.054Z" fill="#D4B4AB"/>
<path d="M782.095 491.59V797.606H814.755L813.379 494.817C807.755 494.529 786.394 492.288 782.095 491.59Z" fill="#D4B4AB"/>
<path d="M881.236 501.995V797.606H905.748V504.342L881.236 501.995Z" fill="#D4B4AB"/>
<path d="M957.32 509.661V797.606H980.089V512.009L957.32 509.661Z" fill="#D4B4AB"/>
<path d="M1028.93 517.045L1032.56 797.606H1052.19L1050.38 519.257L1028.93 517.045Z" fill="#D4B4AB"/>
<path d="M1100.21 524.396V797.606H1119.18V526.353L1100.21 524.396Z" fill="#D4B4AB"/>
<path d="M1168.51 531.43V797.606H1189.8L1189.63 533.596L1168.51 531.43Z" fill="#D4B4AB"/>
<path d="M870.569 462.593V500.714L881.236 501.995L905.748 504.342C918.979 499.713 946.034 486.449 948.41 470.433L870.569 462.593Z" fill="#D4B4AB"/>
<path d="M948.41 508.742V470.433C946.034 486.449 918.979 499.713 905.748 504.342L930.261 506.87L948.41 508.742Z" fill="#FBEDCD"/>
<path d="M1020.35 516.161V477.678C1013.48 507.162 990.649 512.85 980.089 512.009L1002.86 514.357L1020.35 516.161Z" fill="#FBEDCD"/>
<path d="M948.41 470.433V508.742L957.32 509.661L980.089 512.009C990.649 512.85 1013.48 507.162 1020.35 477.678L948.41 470.433Z" fill="#D4B4AB"/>
<path d="M1086.59 522.991V484.349C1083.35 513.085 1061.1 519.595 1050.38 519.257L1071.83 521.469L1086.59 522.991Z" fill="#FBEDCD"/>
<path d="M1020.35 477.678V516.161L1028.93 517.045L1050.38 519.257C1061.1 519.595 1083.35 513.085 1086.59 484.349L1020.35 477.678Z" fill="#D4B4AB"/>
<path d="M1149.37 529.467V490.672C1147.26 514.945 1128.37 524.573 1119.18 526.353L1138.15 528.31L1149.37 529.467Z" fill="#FBEDCD"/>
<path d="M1086.59 484.349V522.991L1087.75 523.112L1100.21 524.396L1119.18 526.353C1128.37 524.573 1147.26 514.945 1149.37 490.672L1086.59 484.349Z" fill="#D4B4AB"/>
<path d="M1226.1 498.318L1149.37 490.672V529.467L1168.51 531.43L1189.63 533.596C1199.09 532.735 1219.63 524.474 1226.1 498.318Z" fill="#D4B4AB"/>
<path d="M1226.1 537.336V498.318C1219.63 524.474 1199.09 532.735 1189.63 533.596L1210.75 535.762L1226.1 537.336Z" fill="#FBEDCD"/>
<path d="M688.707 500.011V451.451L644.489 456.153V797.606H688.707V500.011Z" fill="#DEC6B8"/>
<path d="M557.371 797.606V465.416L516.782 469.731V797.606H557.371Z" fill="#DEC6B8"/>
<path d="M429.995 797.606V478.959L392.376 482.959V797.606H429.995Z" fill="#DEC6B8"/>
<path d="M311.198 797.606V491.59L277.209 495.204V797.606H311.198Z" fill="#DEC6B8"/>
<path d="M620.069 458.749V797.606H644.489V456.153L620.069 458.749Z" fill="#C2908C"/>
<path d="M492.693 472.293V797.606H516.782V469.731L492.693 472.293Z" fill="#C1908C"/>
<path d="M371.586 485.17V797.606H392.376V482.959L371.586 485.17Z" fill="#C1908C"/>
<path d="M259.059 497.134V797.606H277.209V495.204L259.059 497.134Z" fill="#C1908C"/>
<path d="M371.586 797.606V485.17L351.787 487.275V797.606H371.586Z" fill="#907272"/>
<path d="M492.693 797.606V472.293L476.523 474.012V797.606H492.693Z" fill="#907272"/>
<path d="M620.069 797.606V458.749L600.27 460.854V797.606H620.069Z" fill="#907272"/>
<path d="M723.356 343.278L587.73 358.429L232 398.168V418.008L723.356 363.449V343.278Z" fill="#D4B4AB"/>
<path d="M232 423.959L723.356 371.054V363.449L232 418.008V423.959Z" fill="#C1908C"/>
<path d="M688.707 500.011V797.606H735.401V495.801L688.707 500.011Z" fill="#907272"/>
<path d="M587.73 358.429L723.356 343.278L710.487 319.801L587.73 343.278V358.429Z" fill="#C1908C"/>
<path d="M232 797.606V883.233C436.221 904.503 849.844 939.864 870.569 911.149C891.294 882.435 1000.01 903.173 1052.19 911.149C1048.33 901.218 1026.45 867.796 966.478 861.415L964.518 861.207C888.909 853.164 740.566 837.383 844.662 825.522C928.666 815.951 925.046 802.923 912.736 797.606H905.748H881.236H847.415H814.755H782.095H735.401H688.707H644.489H620.069H600.27H557.371H516.782H492.693H476.523H429.995H392.376H371.586H351.787H311.198H277.209H259.059H232Z" fill="#C1908C"/>
<path d="M1284.01 825.522H844.662C740.566 837.383 888.909 853.164 964.518 861.207L966.478 861.415L1318 861.207L1284.01 825.522Z" fill="#D4B4AB"/>
<path d="M912.736 797.606C925.046 802.923 928.666 815.951 844.662 825.522H1284.01V797.606H1211.08H1189.8H1168.51H1138.15H1119.18H1100.21H1071.83H1052.19H1032.56H1002.86H980.089H957.32H930.261H912.736Z" fill="#FBEDCD"/>
<path d="M966.478 861.415C1026.45 867.796 1048.33 901.218 1052.19 911.149L1318 955V861.207L966.478 861.415Z" fill="#FBEDCD"/>
<path fill-rule="evenodd" clip-rule="evenodd" d="M1167.52 387.626L1089.32 327.737C1031.77 376.94 977.339 322.748 957.32 289.502L723.356 343.278L1167.52 387.626Z" fill="#FBEDCD"/>
<path d="M1089.32 319.801C1037.57 358.687 985.865 314.401 966.478 287.397L957.32 289.502C977.339 322.748 1031.77 376.94 1089.32 327.737L1167.52 387.626L1183.69 389.24L1089.32 319.801Z" fill="#C1908C"/>
<path d="M-15.6406 807.61L-201 844.59V1243L492.724 1235.2C482.951 1201.97 453.1 1140.82 400.767 1104.62C383.937 1092.97 364.782 1083.91 343.222 1079.19C254.62 1059.77 225.143 929.916 221.481 867.414H143.982C144.754 841.99 142.363 787.617 126.632 773.518C110.901 759.419 25.229 746.649 -15.6406 742.026V807.61Z" fill="#D89D7B"/>
<path fill-rule="evenodd" clip-rule="evenodd" d="M343.222 724.981V773.518L461.204 844.59L475.663 1059.83L400.767 1104.62C453.1 1140.82 482.951 1201.97 492.724 1235.2L906.819 1230.54C869.708 1213.12 787.217 1166.67 754.136 1120.21C737.406 1096.72 732.651 1070.06 727.788 1042.79C720.631 1002.66 713.24 961.219 667.095 926.641C605.096 880.184 425.347 772.844 343.222 724.981ZM657.841 1128.01C630.081 1082.94 640.491 1018.71 649.166 992.224L730.134 1151.13L657.841 1128.01Z" fill="#D89D7B"/>
<path d="M657.841 867.414C687.433 891.876 747.369 952.701 750.376 1000.31C753.384 1047.93 762.04 993.573 765.992 960.444C747.774 923.954 700.639 854.262 657.841 867.414Z" fill="#D89D7B"/>
<path d="M833.947 788.953C859.876 823.581 932.092 899.599 1013.52 926.641C1059.04 941.756 1075.41 999.557 1092.04 1058.26C1112.6 1130.83 1133.55 1204.78 1210.45 1201.11C1253.34 1129.36 1309.29 974.023 1189.92 926.641C1070.55 879.26 902.867 815.107 833.947 788.953Z" fill="#D89D7B"/>
<path d="M1266.26 992.224C1270.89 1000.41 1280.14 1020.19 1280.14 1033.83C1280.14 1050.87 1309.35 1040.47 1300.67 1025.16C1299.77 1023.57 1298.68 1021.6 1297.46 1019.38L1297.46 1019.38C1286.92 1000.24 1266.26 962.711 1266.26 992.224Z" fill="#D89D7B"/>
<path fill-rule="evenodd" clip-rule="evenodd" d="M-15.6406 742.026C25.1326 730.663 110.67 711.344 126.632 724.981V688H246.349V773.518H343.222L461.204 844.59L475.663 1059.83L400.767 1104.62C383.937 1092.97 364.782 1083.91 343.222 1079.19C254.62 1059.77 225.143 929.916 221.481 867.414H143.982C144.754 841.99 142.363 787.617 126.632 773.518C110.901 759.419 25.229 746.649 -15.6406 742.026ZM906.819 1230.54L1571.05 1223.07L1591 867.414L833.947 788.953L685.024 773.518V742.026L343.222 724.981C425.347 772.844 605.096 880.184 667.095 926.641C713.24 961.219 720.631 1002.66 727.788 1042.79C732.651 1070.06 737.406 1096.72 754.136 1120.21C787.217 1166.67 869.708 1213.12 906.819 1230.54ZM1013.52 926.641C932.092 899.599 859.876 823.581 833.947 788.953C902.867 815.107 1070.55 879.26 1189.92 926.641C1309.29 974.023 1253.34 1129.36 1210.45 1201.11C1133.55 1204.78 1112.6 1130.83 1092.04 1058.26C1075.41 999.557 1059.04 941.756 1013.52 926.641ZM649.166 992.224C640.491 1018.71 630.081 1082.94 657.841 1128.01L730.134 1151.13L649.166 992.224ZM657.841 867.414C687.433 891.876 747.369 952.701 750.376 1000.31C753.384 1047.93 762.04 993.573 765.992 960.444C747.774 923.954 700.639 854.262 657.841 867.414ZM1266.26 992.224C1270.89 1000.41 1280.14 1020.19 1280.14 1033.83C1280.14 1050.87 1309.35 1040.47 1300.67 1025.16C1299.77 1023.57 1298.68 1021.6 1297.46 1019.38L1297.46 1019.38C1286.92 1000.24 1266.26 962.711 1266.26 992.224ZM1273.78 1151.13C1286.04 1121.54 1283.13 1071.96 1280.14 1050.87C1305.23 1050.87 1311.97 1102.05 1315.39 1128.01C1315.95 1132.27 1316.42 1135.85 1316.86 1138.41C1320.05 1156.62 1258.45 1188.11 1273.78 1151.13Z" fill="#FDDBB5"/>
<path d="M1280.14 1050.87C1283.13 1071.96 1286.04 1121.54 1273.78 1151.13C1258.45 1188.11 1320.05 1156.62 1316.86 1138.41C1316.42 1135.85 1315.95 1132.27 1315.39 1128.01C1311.97 1102.05 1305.23 1050.87 1280.14 1050.87Z" fill="#D89D7B"/>
<path fill-rule="evenodd" clip-rule="evenodd" d="M760.074 978.883C722.374 993.526 669.596 1032.18 760.074 1069.63C815.917 1092.75 822.044 1111.78 827.515 1128.78C833.125 1146.2 838.047 1161.49 895.154 1176.85C946.827 1190.75 982.964 1210.41 1014.63 1227.64C1052.09 1248.02 1083.29 1265 1126.56 1265C1163.77 1265 1224.87 1257.21 1290.1 1248.9C1364.81 1239.38 1444.95 1229.16 1500.85 1229.16C1599.99 1229.16 1600.33 1219.32 1604.76 1092.17C1605 1085.03 1605.27 1077.53 1605.56 1069.63C1609.34 967.379 1607.92 911.958 1606.66 863.121C1606.09 841.009 1605.56 820.246 1605.56 797.097C1605.56 722.822 1473.08 668.2 1448.49 772.532C1372.42 772.532 1222.99 802.242 1233.87 921.081C1204.56 896.227 1133.79 866.343 1085.19 945.647C1049.24 1004.33 1008.51 986.75 969.87 970.069C943.231 958.57 917.579 947.497 895.154 962.12C851.188 990.79 786.781 985.241 760.074 978.883ZM1412.92 842.471C1312.26 834.379 1291.91 930.041 1294.32 978.883C1290.67 1023.39 1242.84 1022.81 1186.14 1009.81C1147.2 1000.87 1095.15 1010.35 1057.75 1017.16C1040.71 1020.26 1026.71 1022.81 1018.38 1022.81C1008.99 1022.81 997.616 1020.44 984.176 1017.63L984.175 1017.63C959.525 1012.48 927.913 1005.88 888.791 1009.81C828.337 1015.88 833.254 1052.87 837.015 1069.63C838.385 1075.74 850.121 1080.35 864.489 1085.99C889.557 1095.84 922.633 1108.84 922.633 1138.41C922.633 1175.64 972.192 1196.7 996.971 1202.57H1561.59L1584.15 1157.2L1594.28 842.471C1588.78 827.347 1563.96 797.097 1508.66 797.097C1453.35 797.097 1421.79 827.347 1412.92 842.471Z" fill="#E7E0F0"/>
<path d="M1294.32 978.883C1291.91 930.041 1312.26 834.379 1412.92 842.471C1421.79 827.347 1453.35 797.097 1508.66 797.097C1563.96 797.097 1588.78 827.347 1594.28 842.471L1584.15 1157.2L1561.59 1202.57H996.971C972.192 1196.7 922.633 1175.64 922.633 1138.41C922.633 1108.84 889.557 1095.84 864.489 1085.99C850.121 1080.35 838.385 1075.74 837.015 1069.63C833.254 1052.87 828.337 1015.88 888.791 1009.81C927.913 1005.88 959.525 1012.48 984.175 1017.63L984.176 1017.63C997.616 1020.44 1008.99 1022.81 1018.38 1022.81C1026.71 1022.81 1040.71 1020.26 1057.75 1017.16C1095.15 1010.35 1147.2 1000.87 1186.14 1009.81C1242.84 1022.81 1290.67 1023.39 1294.32 978.883Z" fill="#C3C3DC"/>
<path fill-rule="evenodd" clip-rule="evenodd" d="M-189.83 640.455C-146.732 628.413 -47.2869 628.028 5.70412 722.822C63.5545 719.258 186.949 736.868 217.726 835.824C264.585 815.69 364.897 804.554 391.277 921.081C415.189 926.476 463.532 942.237 465.615 962.12C467.47 979.832 435.981 987.711 379.835 1001.76C357.194 1007.42 330.543 1014.09 300.452 1022.81C195.743 1053.16 132.397 1072.52 110.413 1154.89C102.771 1183.52 72.8236 1203.88 35.4971 1217.33C40.4143 1182.84 56.4389 1113.04 81.1989 1109.8C94.9411 1108.01 102.239 1088.09 110.791 1064.76C121.5 1035.54 134.173 1000.95 163.925 989.865C185.503 981.824 222.365 978.482 258.81 975.178C312.748 970.288 365.772 965.481 366.98 945.647C367.953 929.681 352.639 929.055 331.684 928.197C309.017 927.269 279.749 926.072 257.353 904.897C222.875 872.297 191.886 863.463 180.702 863.121C180.702 816.753 64.0366 791.693 5.70412 784.959C-36.411 722.429 -144.689 707.847 -193.564 708.372C-192.219 683.405 -190.953 660.418 -189.83 640.455Z" fill="#E7E0F0"/>
<path d="M-211.813 1154.89C-209.21 1232.05 -189.83 1207.2 -153.963 1229.16C-130.565 1243.49 -34.543 1242.57 35.4971 1217.33C40.4143 1182.84 56.4389 1113.04 81.1989 1109.8C94.9411 1108.01 102.239 1088.09 110.791 1064.76C121.5 1035.54 134.173 1000.95 163.925 989.865C185.503 981.824 222.365 978.482 258.81 975.178C312.748 970.288 365.772 965.481 366.98 945.647C367.953 929.681 352.639 929.055 331.684 928.197C309.017 927.269 279.749 926.072 257.353 904.897C222.875 872.297 191.886 863.463 180.702 863.121C180.702 816.753 64.0366 791.693 5.70412 784.959C-36.411 722.429 -144.689 707.847 -193.564 708.372C-202.036 865.692 -213.611 1101.61 -211.813 1154.89Z" fill="#C3C3DC"/>
<path d="M1057.75 891.892C1048.45 882.162 1023.86 868.54 999.864 891.892C969.87 921.081 1057.75 922.526 1057.75 891.892Z" fill="#E7E0F0"/>
<path d="M1400.48 744.787C1386.02 758.467 1341.24 778.716 1277.83 750.278C1198.58 714.73 1264.53 700.28 1294.32 700.28C1324.12 700.28 1375.31 695.078 1365.19 709.528C1355.07 723.978 1317.75 739.296 1341.47 744.787C1365.19 750.278 1388.04 722.822 1400.48 744.787Z" fill="#E7E0F0"/>
<path d="M1327.01 680.627C1339.64 688.334 1367.68 700.395 1378.78 686.986C1392.67 670.223 1339.16 661.424 1327.01 680.627Z" fill="#E7E0F0"/>
<path d="M-34.502 626.583C-26.4029 644.79 2.86942 683.922 55.1662 694.789C120.537 708.372 149.752 654.327 124.297 640.455C98.8433 626.583 -6.15526 578.897 -34.502 626.583Z" fill="#E7E0F0"/>
<path d="M-61.9809 603.173C-48.386 605.774 -15.8162 607.277 5.70412 592.48C32.6045 573.984 -61.9809 574.851 -61.9809 603.173Z" fill="#E7E0F0"/>
<rect x="-39" width="1556" height="1203" fill="#426D6E" fill-opacity="0.6"/>
</g>
<defs>
<clipPath id="clip0_323_1925">
<rect width="1512" height="1186" fill="white"/>
</clipPath>
</defs>
</svg>
