<svg width="2366" height="2989" viewBox="0 0 2366 2989" fill="none" xmlns="http://www.w3.org/2000/svg">
<g clip-path="url(#clip0_1434_865)">
<rect width="2364.89" height="2988.96" transform="translate(0.350586)" fill="white"/>
<rect x="-192.032" y="-1381.08" width="2560.4" height="3283.01" fill="url(#paint0_linear_1434_865)"/>
<rect x="-171.541" y="1026.04" width="2702.73" height="1972.31" fill="url(#paint1_linear_1434_865)"/>
<circle cx="1258.81" cy="-268.241" r="762.49" fill="url(#paint2_linear_1434_865)" stroke="#FFE6B4" stroke-width="15.6408"/>
<ellipse cx="130.459" cy="87.9636" rx="130.459" ry="87.9636" transform="matrix(-1 0 0 1 960.245 -87.5898)" fill="#022838"/>
<ellipse cx="130.459" cy="87.9636" rx="130.459" ry="87.9636" transform="matrix(-1 0 0 1 960.245 -87.5898)" fill="#022838"/>
<ellipse cx="130.459" cy="87.9636" rx="130.459" ry="87.9636" transform="matrix(-1 0 0 1 960.245 -87.5898)" fill="#022838"/>
<ellipse cx="130.459" cy="87.9636" rx="130.459" ry="87.9636" transform="matrix(-1 0 0 1 960.245 -87.5898)" fill="#F0F2E4"/>
<ellipse cx="75.9286" cy="65.1817" rx="75.9286" ry="65.1817" transform="matrix(-1 0 0 1 736.612 -25.5742)" fill="#022838"/>
<ellipse cx="75.9286" cy="65.1817" rx="75.9286" ry="65.1817" transform="matrix(-1 0 0 1 736.612 -25.5742)" fill="#022838"/>
<ellipse cx="75.9286" cy="65.1817" rx="75.9286" ry="65.1817" transform="matrix(-1 0 0 1 736.612 -25.5742)" fill="#022838"/>
<ellipse cx="75.9286" cy="65.1817" rx="75.9286" ry="65.1817" transform="matrix(-1 0 0 1 736.612 -25.5742)" fill="#F0F2E4"/>
<path d="M931.276 65.1735C931.276 101.31 965.27 98.4084 1007.2 98.4084C1049.14 98.4084 1083.13 101.31 1083.13 65.1735C1083.13 29.0368 1049.14 -0.257812 1007.2 -0.257812C965.27 -0.257812 931.276 29.0368 931.276 65.1735Z" fill="#022838"/>
<path d="M931.276 65.1735C931.276 101.31 965.27 98.4084 1007.2 98.4084C1049.14 98.4084 1083.13 101.31 1083.13 65.1735C1083.13 29.0368 1049.14 -0.257812 1007.2 -0.257812C965.27 -0.257812 931.276 29.0368 931.276 65.1735Z" fill="#022838"/>
<path d="M931.276 65.1735C931.276 101.31 965.27 98.4084 1007.2 98.4084C1049.14 98.4084 1083.13 101.31 1083.13 65.1735C1083.13 29.0368 1049.14 -0.257812 1007.2 -0.257812C965.27 -0.257812 931.276 29.0368 931.276 65.1735Z" fill="#022838"/>
<path d="M931.276 65.1735C931.276 101.31 965.27 98.4084 1007.2 98.4084C1049.14 98.4084 1083.13 101.31 1083.13 65.1735C1083.13 29.0368 1049.14 -0.257812 1007.2 -0.257812C965.27 -0.257812 931.276 29.0368 931.276 65.1735Z" fill="#F0F2E4"/>
<path d="M532.295 90.0482C532.295 107.753 659.302 104.041 814.041 104.041C968.781 104.041 1109.35 109.372 1109.35 91.6675C1109.35 73.9628 972.433 52.9023 817.694 52.9023C662.954 52.9023 532.295 72.3434 532.295 90.0482Z" fill="#022838"/>
<path d="M532.295 90.0482C532.295 107.753 659.302 104.041 814.041 104.041C968.781 104.041 1109.35 109.372 1109.35 91.6675C1109.35 73.9628 972.433 52.9023 817.694 52.9023C662.954 52.9023 532.295 72.3434 532.295 90.0482Z" fill="#022838"/>
<path d="M532.295 90.0482C532.295 107.753 659.302 104.041 814.041 104.041C968.781 104.041 1109.35 109.372 1109.35 91.6675C1109.35 73.9628 972.433 52.9023 817.694 52.9023C662.954 52.9023 532.295 72.3434 532.295 90.0482Z" fill="#022838"/>
<path d="M532.295 90.0482C532.295 107.753 659.302 104.041 814.041 104.041C968.781 104.041 1109.35 109.372 1109.35 91.6675C1109.35 73.9628 972.433 52.9023 817.694 52.9023C662.954 52.9023 532.295 72.3434 532.295 90.0482Z" fill="#F0F2E4"/>
<path opacity="0.45" d="M-153.008 615.887V1014.05H2677V572.449L2503.72 516.898L2326.87 551.687L1703.24 674.378L1494.08 611.521L1345.6 566.91L1133.43 638.738L1127.37 640.789L1032.08 673.044L991.046 686.938L971.695 684.014L945.4 680.043L748.105 650.246L560.592 621.93L490.997 605.919L376.903 579.665L196.916 538.251L133.715 552.269L4.3756 580.965L-15.4136 585.357L-56.5922 594.5L-117.784 608.07L-119.345 608.421L-153.008 615.887Z" fill="#529FAF"/>
<path opacity="0.65" d="M2677 1445.64H-153.008V815.326L126.532 924.885L260.315 866.853L613.733 986.975L899.268 904.522L1007.09 866.33L1403.36 1009.11L1903.62 857.815L2450.72 951.607L2677 857.674V1445.64Z" fill="#AFE0E4"/>
<rect x="-87.2383" y="1955.82" width="2653.63" height="71.1997" fill="#FFDCAA"/>
<rect x="-83.3887" y="1992.39" width="2653.63" height="71.1997" fill="#C08A5F"/>
<rect x="-83.3887" y="2009.71" width="2653.63" height="71.1997" fill="#FFDCAA"/>
<rect x="-83.3887" y="2071.29" width="2653.63" height="71.1997" fill="#C08A5F"/>
<rect x="-83.3887" y="2086.67" width="2653.63" height="73.124" fill="#FFDCAA"/>
<rect x="-87.2383" y="2125.16" width="2653.63" height="71.1997" fill="#FFDCAA"/>
<rect x="-83.3887" y="2161.73" width="2653.63" height="71.1997" fill="#C08A5F"/>
<rect x="-83.3887" y="2179.04" width="2653.63" height="71.1997" fill="#FFDCAA"/>
<rect x="-83.3887" y="2240.62" width="2653.63" height="71.1997" fill="#C08A5F"/>
<rect x="-83.3887" y="2256.02" width="2653.63" height="73.124" fill="#FFDCAA"/>
<path d="M1313.66 2002.01V2075.13" stroke="#C08A5F" stroke-width="15.6408"/>
<path d="M1806.29 2171.35V2244.47" stroke="#C08A5F" stroke-width="15.6408"/>
<path d="M1090.44 2250.24V2329.14" stroke="#C08A5F" stroke-width="15.6408"/>
<path d="M518.921 2086.67V2159.8" stroke="#C08A5F" stroke-width="15.6408"/>
<g clip-path="url(#clip1_1434_865)">
<path d="M1171.93 572.321V624.219H1210.69V499.115C1210.69 499.115 1171.93 532.446 1171.93 572.321Z" fill="#FFDCAA"/>
<path d="M1249.49 572.321V624.219H1210.74V499.115C1210.74 499.115 1249.49 532.446 1249.49 572.321Z" fill="#FFDCAA"/>
<path d="M2198.8 1854.21H222.576V1905.19H2198.8V1854.21Z" fill="#FFDCAA"/>
<path d="M2198.8 1105.66H222.576V1156.65H2198.8V1105.66Z" fill="#FFDCAA"/>
<path d="M2198.8 983.4H222.576V1034.39H2198.8V983.4Z" fill="#FFDCAA"/>
<path d="M2198.85 983.401L2179.93 1030.68L1210.69 643.347L241.496 1030.68L222.576 983.401L1210.69 588.455L2198.85 983.401Z" fill="#FFDCAA"/>
<path d="M2161.21 1034.39H260.163V1105.72H2161.21V1034.39Z" fill="#C08A5F"/>
<path d="M222.577 1955.77L2198.8 1955.77V1905.14L222.577 1905.14V1955.77Z" fill="#E3B383"/>
<path d="M2099.02 1156.65H301.707V1854.21H2099.02V1156.65Z" fill="#C08A5F"/>
<path d="M355.627 1239.65H289.127V1771.27H355.627V1239.65Z" fill="#FFDCAA"/>
<path d="M260.162 1156.65V1185.72C276.14 1185.72 289.126 1198.66 289.126 1214.64H355.625C355.625 1198.66 368.56 1185.72 384.589 1185.72V1156.65H260.162Z" fill="#E3B383"/>
<path d="M355.625 1214.64H289.126C282.227 1214.64 276.647 1220.22 276.647 1227.12C276.647 1234.02 282.227 1239.6 289.126 1239.6H355.625C362.524 1239.6 368.104 1234.02 368.104 1227.12C368.104 1220.22 362.524 1214.64 355.625 1214.64Z" fill="#E3B383"/>
<path d="M260.162 1854.21V1825.14C276.14 1825.14 289.126 1812.21 289.126 1796.22H355.625C355.625 1812.21 368.56 1825.14 384.589 1825.14V1854.21H260.162Z" fill="#E3B383"/>
<path d="M355.625 1796.22H289.126C282.227 1796.22 276.647 1790.64 276.647 1783.74C276.647 1776.84 282.227 1771.26 289.126 1771.26H355.625C362.524 1771.26 368.104 1776.84 368.104 1783.74C368.104 1790.64 362.524 1796.22 355.625 1796.22Z" fill="#E3B383"/>
<path d="M609.453 1239.65H542.953V1771.26H609.453V1239.65Z" fill="#FFDCAA"/>
<path d="M513.988 1156.65V1185.72C529.966 1185.72 542.952 1198.66 542.952 1214.64H609.452C609.452 1198.66 622.386 1185.72 638.415 1185.72V1156.65H514.039H513.988Z" fill="#E3B383"/>
<path d="M609.402 1214.64H542.902C536.004 1214.64 530.424 1220.22 530.424 1227.12C530.424 1234.02 536.004 1239.6 542.902 1239.6H609.402C616.3 1239.6 621.88 1234.02 621.88 1227.12C621.88 1220.22 616.3 1214.64 609.402 1214.64Z" fill="#E3B383"/>
<path d="M513.988 1854.21V1825.14C529.966 1825.14 542.952 1812.21 542.952 1796.22H609.452C609.452 1812.21 622.386 1825.14 638.415 1825.14V1854.21H514.039H513.988Z" fill="#E3B383"/>
<path d="M609.402 1796.22H542.902C536.004 1796.22 530.424 1790.64 530.424 1783.74C530.424 1776.84 536.004 1771.26 542.902 1771.26H609.402C616.3 1771.26 621.88 1776.84 621.88 1783.74C621.88 1790.64 616.3 1796.22 609.402 1796.22Z" fill="#E3B383"/>
<path d="M863.226 1239.65H796.727V1771.26H863.226V1239.65Z" fill="#FFDCAA"/>
<path d="M767.812 1156.65V1185.72C783.791 1185.72 796.776 1198.66 796.776 1214.64H863.276C863.276 1198.66 876.211 1185.72 892.239 1185.72V1156.65H767.863H767.812Z" fill="#E3B383"/>
<path d="M863.225 1214.64H796.725C789.827 1214.64 784.247 1220.22 784.247 1227.12C784.247 1234.02 789.827 1239.6 796.725 1239.6H863.225C870.123 1239.6 875.703 1234.02 875.703 1227.12C875.703 1220.22 870.123 1214.64 863.225 1214.64Z" fill="#E3B383"/>
<path d="M767.812 1854.21V1825.14C783.791 1825.14 796.776 1812.21 796.776 1796.22H863.276C863.276 1812.21 876.211 1825.14 892.239 1825.14V1854.21H767.863H767.812Z" fill="#E3B383"/>
<path d="M863.225 1796.22H796.725C789.827 1796.22 784.247 1790.64 784.247 1783.74C784.247 1776.84 789.827 1771.26 796.725 1771.26H863.225C870.123 1771.26 875.703 1776.84 875.703 1783.74C875.703 1790.64 870.123 1796.22 863.225 1796.22Z" fill="#E3B383"/>
<path d="M1117.05 1239.65H1050.55V1771.26H1117.05V1239.65Z" fill="#FFDCAA"/>
<path d="M1021.59 1156.65V1185.72C1037.56 1185.72 1050.55 1198.66 1050.55 1214.64H1117.05C1117.05 1198.66 1129.98 1185.72 1146.01 1185.72V1156.65H1021.64H1021.59Z" fill="#E3B383"/>
<path d="M1117.05 1214.64H1050.55C1043.65 1214.64 1038.07 1220.22 1038.07 1227.12C1038.07 1234.02 1043.65 1239.6 1050.55 1239.6H1117.05C1123.95 1239.6 1129.53 1234.02 1129.53 1227.12C1129.53 1220.22 1123.95 1214.64 1117.05 1214.64Z" fill="#E3B383"/>
<path d="M1021.59 1854.21V1825.14C1037.56 1825.14 1050.55 1812.21 1050.55 1796.22H1117.05C1117.05 1812.21 1129.98 1825.14 1146.01 1825.14V1854.21H1021.64H1021.59Z" fill="#E3B383"/>
<path d="M1117.05 1796.22H1050.55C1043.65 1796.22 1038.07 1790.64 1038.07 1783.74C1038.07 1776.84 1043.65 1771.26 1050.55 1771.26H1117.05C1123.95 1771.26 1129.53 1776.84 1129.53 1783.74C1129.53 1790.64 1123.95 1796.22 1117.05 1796.22Z" fill="#E3B383"/>
<path d="M1370.88 1239.65H1304.38V1771.27H1370.88V1239.65Z" fill="#FFDCAA"/>
<path d="M1275.41 1156.65V1185.72C1291.39 1185.72 1304.38 1198.66 1304.38 1214.64H1370.88C1370.88 1198.66 1383.81 1185.72 1399.84 1185.72V1156.65H1275.46H1275.41Z" fill="#E3B383"/>
<path d="M1370.82 1214.64H1304.32C1297.43 1214.64 1291.85 1220.22 1291.85 1227.12C1291.85 1234.02 1297.43 1239.6 1304.32 1239.6H1370.82C1377.72 1239.6 1383.3 1234.02 1383.3 1227.12C1383.3 1220.22 1377.72 1214.64 1370.82 1214.64Z" fill="#E3B383"/>
<path d="M1275.41 1854.21V1825.14C1291.39 1825.14 1304.38 1812.21 1304.38 1796.22H1370.88C1370.88 1812.21 1383.81 1825.14 1399.84 1825.14V1854.21H1275.46H1275.41Z" fill="#E3B383"/>
<path d="M1370.82 1796.22H1304.32C1297.43 1796.22 1291.85 1790.64 1291.85 1783.74C1291.85 1776.84 1297.43 1771.26 1304.32 1771.26H1370.82C1377.72 1771.26 1383.3 1776.84 1383.3 1783.74C1383.3 1790.64 1377.72 1796.22 1370.82 1796.22Z" fill="#E3B383"/>
<path d="M1624.65 1239.65H1558.15V1771.27H1624.65V1239.65Z" fill="#FFDCAA"/>
<path d="M1529.24 1156.65V1185.72C1545.21 1185.72 1558.2 1198.66 1558.2 1214.64H1624.7C1624.7 1198.66 1637.63 1185.72 1653.66 1185.72V1156.65H1529.29H1529.24Z" fill="#E3B383"/>
<path d="M1624.65 1214.64H1558.15C1551.25 1214.64 1545.67 1220.22 1545.67 1227.12C1545.67 1234.02 1551.25 1239.6 1558.15 1239.6H1624.65C1631.55 1239.6 1637.13 1234.02 1637.13 1227.12C1637.13 1220.22 1631.55 1214.64 1624.65 1214.64Z" fill="#E3B383"/>
<path d="M1529.24 1854.21V1825.14C1545.21 1825.14 1558.2 1812.21 1558.2 1796.22H1624.7C1624.7 1812.21 1637.63 1825.14 1653.66 1825.14V1854.21H1529.29H1529.24Z" fill="#E3B383"/>
<path d="M1624.65 1796.22H1558.15C1551.25 1796.22 1545.67 1790.64 1545.67 1783.74C1545.67 1776.84 1551.25 1771.26 1558.15 1771.26H1624.65C1631.55 1771.26 1637.13 1776.84 1637.13 1783.74C1637.13 1790.64 1631.55 1796.22 1624.65 1796.22Z" fill="#E3B383"/>
<path d="M1878.47 1239.65H1811.97V1771.26H1878.47V1239.65Z" fill="#FFDCAA"/>
<path d="M1783.06 1156.65V1185.72C1799.04 1185.72 1812.03 1198.66 1812.03 1214.64H1878.52C1878.52 1198.66 1891.46 1185.72 1907.49 1185.72V1156.65H1783.11H1783.06Z" fill="#E3B383"/>
<path d="M1878.47 1214.64H1811.97C1805.07 1214.64 1799.5 1220.22 1799.5 1227.12C1799.5 1234.02 1805.07 1239.6 1811.97 1239.6H1878.47C1885.37 1239.6 1890.95 1234.02 1890.95 1227.12C1890.95 1220.22 1885.37 1214.64 1878.47 1214.64Z" fill="#E3B383"/>
<path d="M1783.06 1854.21V1825.14C1799.04 1825.14 1812.03 1812.21 1812.03 1796.22H1878.52C1878.52 1812.21 1891.46 1825.14 1907.49 1825.14V1854.21H1783.11H1783.06Z" fill="#E3B383"/>
<path d="M1878.47 1796.22H1811.97C1805.07 1796.22 1799.5 1790.64 1799.5 1783.74C1799.5 1776.84 1805.07 1771.26 1811.97 1771.26H1878.47C1885.37 1771.26 1890.95 1776.84 1890.95 1783.74C1890.95 1790.64 1885.37 1796.22 1878.47 1796.22Z" fill="#E3B383"/>
<path d="M2132.3 1239.65H2065.8V1771.27H2132.3V1239.65Z" fill="#FFDCAA"/>
<path d="M2036.83 1156.65V1185.72C2052.81 1185.72 2065.8 1198.66 2065.8 1214.64H2132.3C2132.3 1198.66 2145.23 1185.72 2161.26 1185.72V1156.65H2036.89H2036.83Z" fill="#E3B383"/>
<path d="M2132.3 1214.64H2065.8C2058.9 1214.64 2053.32 1220.22 2053.32 1227.12C2053.32 1234.02 2058.9 1239.6 2065.8 1239.6H2132.3C2139.2 1239.6 2144.78 1234.02 2144.78 1227.12C2144.78 1220.22 2139.2 1214.64 2132.3 1214.64Z" fill="#E3B383"/>
<path d="M2036.83 1854.21V1825.14C2052.81 1825.14 2065.8 1812.21 2065.8 1796.22H2132.3C2132.3 1812.21 2145.23 1825.14 2161.26 1825.14V1854.21H2036.89H2036.83Z" fill="#E3B383"/>
<path d="M2132.3 1796.22H2065.8C2058.9 1796.22 2053.32 1790.64 2053.32 1783.74C2053.32 1776.84 2058.9 1771.26 2065.8 1771.26H2132.3C2139.2 1771.26 2144.78 1776.84 2144.78 1783.74C2144.78 1790.64 2139.2 1796.22 2132.3 1796.22Z" fill="#E3B383"/>
<path d="M222.576 892.943V983.398H281.366V951.741C281.366 919.273 255.04 892.943 222.576 892.943Z" fill="#FFDCAA"/>
<path d="M2198.8 892.943V983.398H2140.01V951.741C2140.01 919.273 2166.33 892.943 2198.8 892.943Z" fill="#FFDCAA"/>
<path d="M1210.69 643.344L359.836 983.398H2061.54L1210.69 643.344Z" fill="#E3B383"/>
<path d="M296.837 1105.66H347.815V1034.33H296.837V1105.66Z" fill="#E3B383"/>
<path d="M423.75 1105.66H474.728V1034.33H423.75V1105.66Z" fill="#E3B383"/>
<path d="M550.662 1105.66H601.64V1034.33H550.662V1105.66Z" fill="#E3B383"/>
<path d="M677.625 1105.66H728.604V1034.33H677.625V1105.66Z" fill="#E3B383"/>
<path d="M804.487 1105.66H855.465V1034.33H804.487V1105.66Z" fill="#E3B383"/>
<path d="M931.399 1105.66H982.377V1034.33H931.399V1105.66Z" fill="#E3B383"/>
<path d="M1058.31 1105.66H1109.29V1034.33H1058.31V1105.66Z" fill="#E3B383"/>
<path d="M1185.17 1105.66H1236.15V1034.33H1185.17V1105.66Z" fill="#E3B383"/>
<path d="M1312.08 1105.66H1363.06V1034.33H1312.08V1105.66Z" fill="#E3B383"/>
<path d="M1439 1105.66H1489.98V1034.33H1439V1105.66Z" fill="#E3B383"/>
<path d="M1565.96 1105.66H1616.94V1034.33H1565.96V1105.66Z" fill="#E3B383"/>
<path d="M1692.82 1105.66H1743.8V1034.33H1692.82V1105.66Z" fill="#E3B383"/>
<path d="M1819.73 1105.66H1870.71V1034.33H1819.73V1105.66Z" fill="#E3B383"/>
<path d="M1946.65 1105.66H1997.63V1034.33H1946.65V1105.66Z" fill="#E3B383"/>
<path d="M2073.51 1105.66H2124.49V1034.33H2073.51V1105.66Z" fill="#E3B383"/>
</g>
<path d="M551.029 422.619C527.557 417.528 519.328 410.437 512.403 391.057C507.645 410.547 499.713 417.817 473.776 422.619C499.656 428.055 507.082 435.631 512.403 454.182C520.236 436.381 524.83 426.553 551.029 422.619Z" fill="#FFF2C3"/>
<g opacity="0.8" filter="url(#filter0_f_1434_865)">
<ellipse cx="1239.26" cy="-128.255" rx="706.965" ry="727.298" fill="#FFFEE9"/>
</g>
<path d="M110.356 2018.78C71.5427 2010.36 57.9355 1998.64 46.484 1966.59C38.6172 1998.82 25.5013 2010.84 -17.3877 2018.78C25.4062 2027.77 37.6854 2040.3 46.484 2070.97C59.4371 2041.54 67.034 2025.29 110.356 2018.78Z" fill="#FFF2C3"/>
<g clip-path="url(#clip2_1434_865)">
<path d="M-228.333 1142.36H122.818L122.818 1024.32H-228.333V1142.36Z" fill="#D5BF9B"/>
<path d="M-193.082 1205.03H85.6152V1142.36H-193.082V1205.03Z" fill="#FBF0E1"/>
<path d="M-193.082 2563.62H85.6152L85.6152 1142.44H-193.082L-193.082 2563.62Z" fill="#FFFAEB"/>
<path d="M-193.082 1173.7H85.6152V1142.37H-193.082V1173.7Z" fill="#D5BF9B"/>
<path d="M-193.082 1290.42H85.6152V1259.08H-193.082V1290.42Z" fill="#D5BF9B"/>
<path d="M-228.333 1046.53H122.818V1024.4H-228.333V1046.53Z" fill="#FBF0E1"/>
<path d="M-228.333 1153.54H122.818V1131.4H-228.333V1153.54Z" fill="#FBF0E1"/>
<path d="M97.5473 1024.39H-213.093C-213.093 1024.39 -294.115 1054.62 -310.927 979.675C-327.739 904.656 -268.572 875.825 -227.139 875.825C-185.706 875.825 114.413 861.409 154.22 881.635C194.08 901.787 209.807 949.52 195.165 979.675C180.468 1009.83 178.461 1037.41 97.5473 1024.39Z" fill="#D5BF9B"/>
<path d="M-57.9375 902.449L119.184 895.756L130.03 895.388C133.067 895.388 136.05 895.462 139.033 896.05C144.998 897.08 150.855 899.213 156.333 902.522C167.233 909.142 176.507 920.615 181.659 934.663C186.865 948.784 187.624 965.553 183.232 979.822C178.839 994.384 169.403 1006.67 157.905 1013.43C152.157 1016.82 145.92 1018.95 139.575 1019.69C133.501 1020.27 124.39 1020.64 118.642 1020.49C106.006 1019.83 93.5864 1012.04 85.4516 999.165C77.4795 986.588 73.7918 967.466 78.998 952.977C84.1501 937.973 96.9488 928.117 110.236 928.044L132.254 927.235C138.707 927.161 145.269 930.03 150.367 935.546C155.465 940.988 158.936 949.079 159.261 957.904C159.749 966.289 156.062 974.894 150.855 980.778C145.649 987.03 139.033 990.266 131.82 991.59C124.77 992.987 117.286 993.134 110.778 989.604C103.89 986.662 101.287 975.409 102.969 966.215C105.192 956.654 114.032 953.859 121.082 954.006C114.14 953.418 104.921 955.11 101.83 965.701C99.4435 975.335 101.992 988.353 109.748 992.619C116.906 997.106 124.77 997.326 132.254 996.517C139.684 995.708 147.71 992.619 153.892 985.926C160.075 979.601 165.444 969.525 165.335 957.61C165.335 946.284 161.268 935.251 155.085 927.823C148.903 920.321 140.768 916.055 132.471 915.467L110.181 914.584C94.1288 913.555 76.5033 924.072 67.9889 945.254C59.3118 967.024 63.7046 993.355 73.846 1011.52C84.2043 1029.98 100.42 1041.38 117.177 1043.66C126.18 1044.47 131.82 1044.62 140.497 1044.62C148.849 1044.25 157.2 1042.19 165.173 1038.15C181.062 1030.2 195.488 1014.32 203.298 992.252C211.27 970.113 211.161 943.195 204.057 920.983C197.007 898.477 183.774 880.531 168.264 869.573C160.454 864.13 152.048 860.306 143.48 858.173C139.195 857.07 134.803 856.481 130.464 856.26L119.184 855.746L-57.9375 849.053V902.375V902.449Z" fill="white"/>
<path d="M-254.31 790.436L138.763 790.436L138.763 624.069H-254.31V790.436Z" fill="#FBF0E1"/>
<path d="M-254.31 755.428L138.763 755.428V624.07H-254.31V755.428Z" fill="#D5BF9B"/>
<path d="M-254.31 860.453L138.763 860.453V805.733L-254.31 805.733V860.453Z" fill="#FBF0E1"/>
<path d="M-254.31 825.443L138.763 825.443V805.732L-254.31 805.732V825.443Z" fill="#D5BF9B"/>
<path d="M-254.637 726.595H138.707L181.062 624.068H-296.938L-254.637 726.595Z" fill="white"/>
<path d="M-254.31 805.734L138.763 805.734V777.271L-254.31 777.271V805.734Z" fill="white"/>
<path d="M-216.456 1246.21H112.731V1226.5H-216.456V1246.21Z" fill="#D5BF9B"/>
<path d="M-216.456 1226.5H112.731V1198.04H-216.456V1226.5Z" fill="white"/>
<path d="M-216.456 1274.75H112.731V1246.29H-216.456V1274.75Z" fill="white"/>
<path d="M-193.082 2563.62H85.6152V2532.28H-193.082V2563.62Z" fill="#D5BF9B"/>
<path d="M-216.456 2547.95H112.731V2519.49H-216.456V2547.95Z" fill="white"/>
<path d="M-291.026 2832.43H187.245V2803.97H-291.026V2832.43Z" fill="#D5BF9B"/>
<path d="M-291.026 2882.59H187.245V2832.43H-291.026V2882.59Z" fill="#FFFAEB"/>
<path d="M-291.026 2818.17H187.245V2789.7H-291.026V2818.17Z" fill="white"/>
<path d="M-356.103 2925.25H252.324V2896.79H-356.103V2925.25Z" fill="#D5BF9B"/>
<path d="M-356.103 2993.72H252.324V2925.32H-356.103V2993.72Z" fill="#FFFAEB"/>
<path d="M-356.103 2911.06H252.324V2882.6H-356.103V2911.06Z" fill="white"/>
<path d="M81.981 1117.72H89.1939C96.3523 1117.72 102.155 1109.85 102.155 1100.15V1078.38C102.155 1068.67 96.3523 1060.8 89.1939 1060.8H81.981C74.8226 1060.8 69.0196 1068.67 69.0196 1078.38V1100.15C69.0196 1109.85 74.8226 1117.72 81.981 1117.72Z" fill="#FBF0E1"/>
<path d="M10.8824 1117.72H18.0952C25.2536 1117.72 31.0566 1109.85 31.0566 1100.15L31.0566 1078.38C31.0566 1068.67 25.2536 1060.8 18.0952 1060.8H10.8824C3.72397 1060.8 -2.07905 1068.67 -2.07905 1078.38L-2.07905 1100.15C-2.07905 1109.85 3.72397 1117.72 10.8824 1117.72Z" fill="#FBF0E1"/>
<path d="M54.3764 2488.89H48.899C43.4758 2488.89 39.083 2482.93 39.083 2475.58L39.083 1320.28C39.083 1312.92 43.4758 1306.97 48.899 1306.97H54.3764C59.7996 1306.97 64.1924 1312.92 64.1924 1320.28L64.1924 2475.58C64.1924 2482.93 59.7996 2488.89 54.3764 2488.89Z" fill="#EBD1AD"/>
<path d="M-274.81 2789.78H169.35L85.6155 2563.62H-193.082L-274.81 2789.78Z" fill="#FFFAEB"/>
<path d="M228.125 2248.33C200.816 2241.09 191.242 2230.99 183.185 2203.41C177.65 2231.15 168.421 2241.5 138.244 2248.33C168.354 2256.07 176.994 2266.85 183.185 2293.26C192.299 2267.92 197.644 2253.93 228.125 2248.33Z" fill="white"/>
<path d="M228.125 2248.33C200.816 2241.09 191.242 2230.99 183.185 2203.41C177.65 2231.15 168.421 2241.5 138.244 2248.33C168.354 2256.07 176.994 2266.85 183.185 2293.26C192.299 2267.92 197.644 2253.93 228.125 2248.33Z" fill="white"/>
</g>
<g clip-path="url(#clip3_1434_865)">
<path d="M2274.04 1103.26H2625.19V985.216H2274.04V1103.26Z" fill="#D5BF9B"/>
<path d="M2309.29 1165.93H2587.99V1103.26H2309.29V1165.93Z" fill="#FBF0E1"/>
<path d="M2309.29 2524.51H2587.99V1103.34H2309.29V2524.51Z" fill="#FFFAEB"/>
<path d="M2309.29 1134.59H2587.99V1103.26H2309.29V1134.59Z" fill="#D5BF9B"/>
<path d="M2309.29 1251.31H2587.99V1219.98H2309.29V1251.31Z" fill="#D5BF9B"/>
<path d="M2274.04 1007.43L2625.19 1007.43V985.292H2274.04V1007.43Z" fill="#FBF0E1"/>
<path d="M2274.04 1114.44H2625.19V1092.3H2274.04V1114.44Z" fill="#FBF0E1"/>
<path d="M2599.92 985.289H2289.28C2289.28 985.289 2208.26 1015.52 2191.44 940.572C2174.63 865.552 2233.8 836.721 2275.23 836.721C2316.67 836.721 2616.79 822.306 2656.59 842.532C2696.45 862.684 2712.18 910.417 2697.54 940.572C2682.84 970.727 2680.83 998.307 2599.92 985.289Z" fill="#D5BF9B"/>
<path d="M2444.54 810.025L2267.42 816.718L2256.14 817.233C2251.75 817.527 2247.41 818.042 2243.13 819.145C2234.5 821.352 2226.15 825.103 2218.34 830.545C2202.78 841.504 2189.55 859.45 2182.5 881.956C2175.34 904.167 2175.23 931.013 2183.26 953.224C2191.12 975.289 2205.54 991.175 2221.38 999.118C2229.35 1003.16 2237.7 1005.3 2246.06 1005.59C2254.73 1005.59 2260.37 1005.52 2269.38 1004.63C2286.19 1002.35 2302.35 990.955 2312.71 972.494C2322.85 954.327 2327.24 927.997 2318.56 906.227C2310.1 885.045 2292.42 874.527 2276.37 875.557L2254.08 876.44C2245.84 876.954 2237.65 881.294 2231.47 888.796C2225.23 896.151 2221.16 907.183 2221.22 918.583C2221.11 930.571 2226.48 940.574 2232.66 946.899C2238.84 953.592 2246.87 956.755 2254.3 957.49C2261.78 958.373 2269.65 958.078 2276.81 953.592C2284.61 949.326 2287.11 936.234 2284.72 926.673C2281.58 916.156 2272.41 914.391 2265.47 914.979C2272.47 914.832 2281.31 917.627 2283.58 927.188C2285.27 936.308 2282.66 947.635 2275.77 950.576C2269.27 954.107 2261.78 953.886 2254.73 952.562C2247.57 951.238 2240.9 948.002 2235.7 941.751C2230.49 935.793 2226.8 927.262 2227.29 918.877C2227.62 910.051 2231.09 901.961 2236.19 896.518C2241.23 891.002 2247.79 888.134 2254.3 888.207L2276.32 889.016C2289.6 889.164 2302.4 898.945 2307.55 913.949C2312.76 928.438 2309.07 947.635 2301.1 960.138C2292.97 973.009 2280.49 980.805 2267.91 981.467C2262.16 981.614 2253.05 981.246 2246.98 980.658C2240.58 979.922 2234.34 977.789 2228.65 974.406C2217.15 967.64 2207.66 955.357 2203.32 940.795C2198.87 926.526 2199.69 909.684 2204.89 895.636C2210.05 881.588 2219.27 870.188 2230.22 863.495C2235.7 860.259 2241.55 858.053 2247.52 857.023C2250.5 856.508 2253.54 856.361 2256.52 856.361L2267.37 856.729L2444.49 863.422V810.099L2444.54 810.025Z" fill="white"/>
<path d="M2248.06 751.334L2641.14 751.334V584.967H2248.06V751.334Z" fill="#FBF0E1"/>
<path d="M2248.06 716.324L2641.14 716.324V584.967H2248.06V716.324Z" fill="#D5BF9B"/>
<path d="M2248.06 821.35L2641.14 821.35V766.63L2248.06 766.63V821.35Z" fill="#FBF0E1"/>
<path d="M2248.06 786.342L2641.14 786.342V766.631L2248.06 766.631V786.342Z" fill="#D5BF9B"/>
<path d="M2247.74 687.493H2641.08L2683.44 584.967H2205.44L2247.74 687.493Z" fill="white"/>
<path d="M2248.06 766.633L2641.14 766.633V738.17L2248.06 738.17V766.633Z" fill="white"/>
<path d="M2285.92 1207.11H2615.1V1187.4H2285.92V1207.11Z" fill="#D5BF9B"/>
<path d="M2285.92 1187.4H2615.1V1158.94H2285.92V1187.4Z" fill="white"/>
<path d="M2285.92 1235.65H2615.1V1207.19H2285.92V1235.65Z" fill="white"/>
<path d="M2309.29 2524.51H2587.99V2493.18H2309.29V2524.51Z" fill="#D5BF9B"/>
<path d="M2285.92 2508.85H2615.1V2480.38H2285.92V2508.85Z" fill="white"/>
<path d="M2211.35 2793.33H2689.62V2764.87H2211.35V2793.33Z" fill="#D5BF9B"/>
<path d="M2211.35 2843.49H2689.62V2793.33H2211.35V2843.49Z" fill="#FFFAEB"/>
<path d="M2211.35 2779.06H2689.62V2750.6H2211.35V2779.06Z" fill="white"/>
<path d="M2146.27 2886.15H2754.7V2857.69H2146.27V2886.15Z" fill="#D5BF9B"/>
<path d="M2146.27 2954.62H2754.7V2886.22H2146.27V2954.62Z" fill="#FFFAEB"/>
<path d="M2146.27 2871.96H2754.7V2843.49H2146.27V2871.96Z" fill="white"/>
<path d="M2374.26 1078.62H2381.47C2388.63 1078.62 2394.43 1070.75 2394.43 1061.04V1039.27C2394.43 1029.57 2388.63 1021.7 2381.47 1021.7H2374.26C2367.1 1021.7 2361.3 1029.57 2361.3 1039.27V1061.04C2361.3 1070.75 2367.1 1078.62 2374.26 1078.62Z" fill="#FBF0E1"/>
<path d="M2306.47 1078.62H2313.68C2320.84 1078.62 2326.64 1070.75 2326.64 1061.04V1039.27C2326.64 1029.57 2320.84 1021.7 2313.68 1021.7H2306.47C2299.31 1021.7 2293.51 1029.57 2293.51 1039.27V1061.04C2293.51 1070.75 2299.31 1078.62 2306.47 1078.62Z" fill="#FBF0E1"/>
<path d="M2346.11 2449.79H2340.64C2335.21 2449.79 2330.82 2443.83 2330.82 2436.48V1281.18C2330.82 1273.82 2335.21 1267.87 2340.64 1267.87H2346.11C2351.54 1267.87 2355.93 1273.82 2355.93 1281.18V2436.48C2355.93 2443.83 2351.54 2449.79 2346.11 2449.79Z" fill="#EBD1AD"/>
<path d="M2227.56 2750.67H2671.72L2587.99 2524.51H2309.29L2227.56 2750.67Z" fill="#FFFAEB"/>
</g>
<g opacity="0.5">
<ellipse cx="213.189" cy="143.745" rx="213.189" ry="143.745" transform="matrix(-1 0 0 1 580.812 148.588)" fill="#022838"/>
<ellipse cx="213.189" cy="143.745" rx="213.189" ry="143.745" transform="matrix(-1 0 0 1 580.812 148.588)" fill="#022838"/>
<ellipse cx="213.189" cy="143.745" rx="213.189" ry="143.745" transform="matrix(-1 0 0 1 580.812 148.588)" fill="#022838"/>
<ellipse cx="213.189" cy="143.745" rx="213.189" ry="143.745" transform="matrix(-1 0 0 1 580.812 148.588)" fill="#F0F2E4"/>
<ellipse cx="124.078" cy="106.516" rx="124.078" ry="106.516" transform="matrix(-1 0 0 1 215.364 249.93)" fill="#022838"/>
<ellipse cx="124.078" cy="106.516" rx="124.078" ry="106.516" transform="matrix(-1 0 0 1 215.364 249.93)" fill="#022838"/>
<ellipse cx="124.078" cy="106.516" rx="124.078" ry="106.516" transform="matrix(-1 0 0 1 215.364 249.93)" fill="#022838"/>
<ellipse cx="124.078" cy="106.516" rx="124.078" ry="106.516" transform="matrix(-1 0 0 1 215.364 249.93)" fill="#F0F2E4"/>
<path d="M533.471 398.223C533.471 457.275 589.022 452.533 657.549 452.533C726.075 452.533 781.627 457.275 781.627 398.223C781.627 339.17 726.075 291.299 657.549 291.299C589.022 291.299 533.471 339.17 533.471 398.223Z" fill="#022838"/>
<path d="M533.471 398.223C533.471 457.275 589.022 452.533 657.549 452.533C726.075 452.533 781.627 457.275 781.627 398.223C781.627 339.17 726.075 291.299 657.549 291.299C589.022 291.299 533.471 339.17 533.471 398.223Z" fill="#022838"/>
<path d="M533.471 398.223C533.471 457.275 589.022 452.533 657.549 452.533C726.075 452.533 781.627 457.275 781.627 398.223C781.627 339.17 726.075 291.299 657.549 291.299C589.022 291.299 533.471 339.17 533.471 398.223Z" fill="#022838"/>
<path d="M533.471 398.223C533.471 457.275 589.022 452.533 657.549 452.533C726.075 452.533 781.627 457.275 781.627 398.223C781.627 339.17 726.075 291.299 657.549 291.299C589.022 291.299 533.471 339.17 533.471 398.223Z" fill="#F0F2E4"/>
<path d="M-118.519 438.87C-118.519 467.802 89.0275 461.737 341.894 461.737C594.76 461.737 824.475 470.448 824.475 441.516C824.475 412.584 600.728 378.168 347.862 378.168C94.9958 378.168 -118.519 409.937 -118.519 438.87Z" fill="#022838"/>
<path d="M-118.519 438.87C-118.519 467.802 89.0275 461.737 341.894 461.737C594.76 461.737 824.475 470.448 824.475 441.516C824.475 412.584 600.728 378.168 347.862 378.168C94.9958 378.168 -118.519 409.937 -118.519 438.87Z" fill="#022838"/>
<path d="M-118.519 438.87C-118.519 467.802 89.0275 461.737 341.894 461.737C594.76 461.737 824.475 470.448 824.475 441.516C824.475 412.584 600.728 378.168 347.862 378.168C94.9958 378.168 -118.519 409.937 -118.519 438.87Z" fill="#022838"/>
<path d="M-118.519 438.87C-118.519 467.802 89.0275 461.737 341.894 461.737C594.76 461.737 824.475 470.448 824.475 441.516C824.475 412.584 600.728 378.168 347.862 378.168C94.9958 378.168 -118.519 409.937 -118.519 438.87Z" fill="#F0F2E4"/>
</g>
<rect width="2371.15" height="2988.96" transform="matrix(-1 0 0 1 2371.15 0)" fill="#6C5D4E" fill-opacity="0.45"/>
</g>
<defs>
<filter id="filter0_f_1434_865" x="-93.3376" y="-1481.19" width="2665.19" height="2705.86" filterUnits="userSpaceOnUse" color-interpolation-filters="sRGB">
<feFlood flood-opacity="0" result="BackgroundImageFix"/>
<feBlend mode="normal" in="SourceGraphic" in2="BackgroundImageFix" result="shape"/>
<feGaussianBlur stdDeviation="312.816" result="effect1_foregroundBlur_1434_865"/>
</filter>
<linearGradient id="paint0_linear_1434_865" x1="1088.17" y1="-686.525" x2="1088.17" y2="870.411" gradientUnits="userSpaceOnUse">
<stop stop-color="#70D6DE"/>
<stop offset="1" stop-color="#FDF1DB"/>
</linearGradient>
<linearGradient id="paint1_linear_1434_865" x1="1179.83" y1="2308.81" x2="1179.83" y2="2998.34" gradientUnits="userSpaceOnUse">
<stop stop-color="#FFF3DB"/>
<stop offset="1" stop-color="#FFE0A3"/>
</linearGradient>
<linearGradient id="paint2_linear_1434_865" x1="1215.02" y1="-1169.15" x2="1259.59" y2="1196.52" gradientUnits="userSpaceOnUse">
<stop stop-color="#FFFFC6"/>
<stop offset="1" stop-color="#FFB84E"/>
</linearGradient>
<clipPath id="clip0_1434_865">
<rect width="2364.89" height="2988.96" fill="white" transform="translate(0.350586)"/>
</clipPath>
<clipPath id="clip1_1434_865">
<rect width="1976.27" height="1456.71" fill="white" transform="translate(222.576 499.115)"/>
</clipPath>
<clipPath id="clip2_1434_865">
<rect width="608.428" height="2369.58" fill="white" transform="translate(-356.104 624.068)"/>
</clipPath>
<clipPath id="clip3_1434_865">
<rect width="608.428" height="2369.58" fill="white" transform="translate(2146.27 584.967)"/>
</clipPath>
</defs>
</svg>
