<svg width="2376" height="2839" viewBox="0 0 2376 2839" fill="none" xmlns="http://www.w3.org/2000/svg">
<g clip-path="url(#clip0_323_1092)">
<rect width="2375.84" height="2838.81" transform="translate(0 0.0761719)" fill="white"/>
<rect x="-190.817" y="-9.87695" width="2791.89" height="3733.46" fill="url(#paint0_linear_323_1092)"/>
<g opacity="0.5">
<ellipse cx="146.368" cy="98.6907" rx="146.368" ry="98.6907" transform="matrix(-1 0 0 1 2114.6 1802.89)" fill="#022838"/>
<ellipse cx="146.368" cy="98.6907" rx="146.368" ry="98.6907" transform="matrix(-1 0 0 1 2114.6 1802.89)" fill="#022838"/>
<ellipse cx="146.368" cy="98.6907" rx="146.368" ry="98.6907" transform="matrix(-1 0 0 1 2114.6 1802.89)" fill="#022838"/>
<ellipse cx="146.368" cy="98.6907" rx="146.368" ry="98.6907" transform="matrix(-1 0 0 1 2114.6 1802.89)" fill="#466E7E"/>
<ellipse cx="85.188" cy="73.1305" rx="85.188" ry="73.1305" transform="matrix(-1 0 0 1 1863.7 1872.47)" fill="#022838"/>
<ellipse cx="85.188" cy="73.1305" rx="85.188" ry="73.1305" transform="matrix(-1 0 0 1 1863.7 1872.47)" fill="#022838"/>
<ellipse cx="85.188" cy="73.1305" rx="85.188" ry="73.1305" transform="matrix(-1 0 0 1 1863.7 1872.47)" fill="#022838"/>
<ellipse cx="85.188" cy="73.1305" rx="85.188" ry="73.1305" transform="matrix(-1 0 0 1 1863.7 1872.47)" fill="#466E7E"/>
<path d="M2082.1 1974.28C2082.1 2014.83 2120.24 2011.57 2167.29 2011.57C2214.34 2011.57 2252.48 2014.83 2252.48 1974.28C2252.48 1933.74 2214.34 1900.87 2167.29 1900.87C2120.24 1900.87 2082.1 1933.74 2082.1 1974.28Z" fill="#022838"/>
<path d="M2082.1 1974.28C2082.1 2014.83 2120.24 2011.57 2167.29 2011.57C2214.34 2011.57 2252.48 2014.83 2252.48 1974.28C2252.48 1933.74 2214.34 1900.87 2167.29 1900.87C2120.24 1900.87 2082.1 1933.74 2082.1 1974.28Z" fill="#022838"/>
<path d="M2082.1 1974.28C2082.1 2014.83 2120.24 2011.57 2167.29 2011.57C2214.34 2011.57 2252.48 2014.83 2252.48 1974.28C2252.48 1933.74 2214.34 1900.87 2167.29 1900.87C2120.24 1900.87 2082.1 1933.74 2082.1 1974.28Z" fill="#022838"/>
<path d="M2082.1 1974.28C2082.1 2014.83 2120.24 2011.57 2167.29 2011.57C2214.34 2011.57 2252.48 2014.83 2252.48 1974.28C2252.48 1933.74 2214.34 1900.87 2167.29 1900.87C2120.24 1900.87 2082.1 1933.74 2082.1 1974.28Z" fill="#466E7E"/>
<path d="M1634.47 2002.19C1634.47 2022.05 1776.96 2017.89 1950.57 2017.89C2124.18 2017.89 2281.89 2023.87 2281.89 2004.01C2281.89 1984.14 2128.28 1960.51 1954.67 1960.51C1781.06 1960.51 1634.47 1982.33 1634.47 2002.19Z" fill="#022838"/>
<path d="M1634.47 2002.19C1634.47 2022.05 1776.96 2017.89 1950.57 2017.89C2124.18 2017.89 2281.89 2023.87 2281.89 2004.01C2281.89 1984.14 2128.28 1960.51 1954.67 1960.51C1781.06 1960.51 1634.47 1982.33 1634.47 2002.19Z" fill="#022838"/>
<path d="M1634.47 2002.19C1634.47 2022.05 1776.96 2017.89 1950.57 2017.89C2124.18 2017.89 2281.89 2023.87 2281.89 2004.01C2281.89 1984.14 2128.28 1960.51 1954.67 1960.51C1781.06 1960.51 1634.47 1982.33 1634.47 2002.19Z" fill="#022838"/>
<path d="M1634.47 2002.19C1634.47 2022.05 1776.96 2017.89 1950.57 2017.89C2124.18 2017.89 2281.89 2023.87 2281.89 2004.01C2281.89 1984.14 2128.28 1960.51 1954.67 1960.51C1781.06 1960.51 1634.47 1982.33 1634.47 2002.19Z" fill="#466E7E"/>
</g>
<g opacity="0.8" clip-path="url(#clip1_323_1092)">
<path opacity="0.8" d="M449.233 2774.88L536.417 2558.83L731.298 2360.99L676.153 2318.55L703.363 2180.63L769.282 2183.87L807.981 2084.48L812.869 2086.38L772.79 2189.27L707.636 2186.05L681.932 2316.3L736.615 2358.43L891.327 2433.95L591.143 2635.75L449.233 2774.88ZM540.522 2562.11L463.471 2753.57L587.786 2631.78L880.779 2434.76L735.746 2363.92L540.485 2562.18L540.522 2562.11Z" fill="#C6C895"/>
<path opacity="0.8" d="M682.423 2330.67C689.74 2328.79 694.146 2321.34 692.264 2314.02C690.383 2306.71 682.926 2302.31 675.609 2304.19C668.292 2306.07 663.886 2313.53 665.767 2320.84C667.649 2328.15 675.106 2332.56 682.423 2330.67Z" fill="#C6C895"/>
<path opacity="0.8" d="M774.417 2199.81C781.734 2197.93 786.14 2190.48 784.258 2183.17C782.377 2175.85 774.92 2171.45 767.603 2173.33C760.286 2175.22 755.88 2182.67 757.761 2189.98C759.643 2197.3 767.1 2201.7 774.417 2199.81Z" fill="#C6C895"/>
<path opacity="0.8" d="M813.806 2098.68C821.122 2096.8 825.529 2089.34 823.647 2082.03C821.765 2074.72 814.309 2070.31 806.992 2072.2C799.675 2074.08 795.269 2081.53 797.15 2088.85C799.032 2096.16 806.489 2100.56 813.806 2098.68Z" fill="#C6C895"/>
<path opacity="0.8" d="M904.796 2429.51C907.456 2439.85 901.211 2450.41 890.867 2453.07C880.523 2455.73 869.953 2449.49 867.293 2439.16C864.633 2428.82 870.878 2418.25 881.222 2415.59C891.566 2412.93 902.136 2419.17 904.796 2429.51Z" fill="#C6C895"/>
<path opacity="0.8" d="M708.881 2196.59C716.198 2194.71 720.604 2187.25 718.722 2179.94C716.841 2172.63 709.384 2168.22 702.067 2170.11C694.75 2171.99 690.344 2179.44 692.225 2186.76C694.107 2194.07 701.564 2198.47 708.881 2196.59Z" fill="#C6C895"/>
<path opacity="0.8" d="M738.594 2373.94C745.911 2372.05 750.317 2364.6 748.435 2357.29C746.553 2349.97 739.097 2345.57 731.78 2347.45C724.463 2349.34 720.057 2356.79 721.938 2364.1C723.82 2371.42 731.277 2375.82 738.594 2373.94Z" fill="#C6C895"/>
</g>
<path d="M661.964 2781.81C668.979 2766.72 677.368 2752.4 683.289 2736.7C690.858 2716.51 695.515 2695 704.95 2675.7C705.723 2673.92 707.042 2672.24 706.823 2670.16C706.714 2661.79 706.823 2653.42 706.755 2645.05C706.625 2642.77 707.316 2640.46 708.724 2638.8C711.076 2636.56 714.317 2636.74 717.114 2635.77C728.552 2632.77 739.561 2626.91 751.512 2627.09C757.563 2625.02 762.821 2620.59 769.05 2619.05C775.087 2617.42 781.234 2616.04 786.97 2613.33C799.626 2607.85 810.402 2598.17 819.838 2587.49C827.769 2578.59 835.639 2569.59 844.226 2561.47C853.819 2552.51 864.827 2545.06 877.011 2541.46C884.792 2539.05 892.908 2538.38 900.949 2538.62C906.815 2538.76 912.709 2538.29 918.548 2538.88C922.247 2539.69 926.007 2539.2 929.72 2539.46C935.88 2540.44 940.516 2545.32 945.159 2549.47C951.155 2555.21 957.186 2560.97 962.43 2567.58C965.014 2570.78 967.804 2573.75 970.518 2576.82C973.602 2580.31 976.077 2584.43 979.263 2587.8C990.401 2596.85 1001.18 2606.42 1012.04 2615.88C1014.51 2618.14 1017.93 2617.84 1020.83 2618.9C1025.97 2619.2 1030.6 2622.01 1035.65 2622.9C1043.25 2611.39 1049.01 2598.58 1054.89 2585.95C1060.87 2573.07 1066.45 2559.8 1074.49 2548.3C1079.08 2541.53 1084.24 2535.25 1088.67 2528.36C1092.43 2522.79 1095.31 2516.57 1098.81 2510.82C1104.84 2500.59 1115.67 2494.26 1126.65 2494.36C1132.32 2492.99 1137.98 2494.87 1143.67 2494.53C1148.45 2494.3 1153.14 2495.72 1157.93 2495.37C1161.79 2490.74 1165.27 2485.72 1169.48 2481.46C1174.24 2476.06 1179.55 2471.37 1184.76 2466.55C1194.58 2457.24 1204.45 2447.87 1212.68 2436.76C1224.52 2421.23 1233.65 2403.51 1243.09 2386.15C1250.67 2372.03 1258.62 2358.12 1267.74 2345.14C1274.04 2336.06 1280.75 2327.21 1288.6 2319.73C1293.65 2314.71 1299.52 2310.92 1305.33 2307.16C1310.61 2303.71 1316.96 2304.25 1322.83 2304.2C1332.19 2304.34 1341.52 2303.48 1350.86 2303.74C1356.36 2304.06 1361.78 2302.66 1367.28 2303.01C1374.58 2302.5 1381.84 2301.46 1389.13 2300.85C1400.39 2300.16 1411.6 2298.83 1422.68 2296.5C1426.12 2295.66 1429.65 2295.41 1433.08 2294.61C1433.74 2287.74 1437.94 2281.91 1443.17 2278.48C1452.13 2272.64 1462.57 2270.72 1471.91 2265.82C1479.71 2262.07 1487.08 2256.34 1495.84 2255.85C1500.18 2255.92 1504.53 2255.64 1508.85 2256.04C1517.46 2257.31 1526.02 2259.4 1534.73 2259.34C1544.78 2259.53 1554.83 2259.05 1564.85 2259.69C1589.33 2260.93 1613.55 2265.93 1638.05 2266.68C1646.44 2267.71 1654.92 2267.23 1663.34 2267.86C1673.07 2268.47 1682.88 2267.29 1692.55 2268.63C1695.01 2256.92 1697.99 2244.79 1705.17 2235.46C1709.31 2229.94 1714.25 2225.27 1718.59 2219.97C1721.93 2215.99 1726.93 2214.69 1731.66 2214.78C1735.81 2214.77 1739.95 2214.82 1744.09 2214.78C1742.92 2208.53 1742.75 2202.14 1742.2 2195.8C1742.71 2189.96 1741.41 2184.19 1740.3 2178.52C1738.13 2168.19 1735.16 2158.05 1731.28 2148.34C1729.84 2144.38 1727.27 2140.88 1726.87 2136.51C1725.84 2127.86 1723.36 2119.43 1723.48 2110.64C1723.58 2108.18 1722.89 2105.79 1722.98 2103.36C1726.58 2099.49 1730.95 2096.45 1735.73 2094.77C1735.74 2091.9 1736.51 2089.13 1736.53 2086.27C1736.55 2083.27 1739.27 2080.86 1741.9 2081.17C1747.37 2081.38 1752.86 2081.58 1758.29 2080.79C1761.82 2079.56 1765.04 2077.41 1767.93 2074.88C1770.44 2072.55 1773.93 2073.9 1776.82 2074.31C1786.53 2077.15 1796.04 2080.73 1805.64 2083.93C1809.98 2083.11 1814.44 2083.11 1818.76 2082.08C1823.88 2080.8 1829.16 2081.75 1834.31 2080.86C1847.32 2078.99 1860.4 2077.47 1873.2 2074.21C1882.97 2071.69 1892.26 2067.42 1901.8 2064.09C1906.26 2062.67 1910.89 2061.01 1915.57 2061.96C1923.31 2061.85 1931.06 2060.35 1938.83 2061.11C1944.06 2061.62 1949.42 2060.51 1954.53 2062.17C1957.95 2062.95 1961.49 2063.02 1964.82 2064.27C1976.11 2067.15 1987.62 2068.79 1998.94 2071.44C2003.95 2072.54 2008.16 2076.71 2013.44 2076.45C2018.25 2076.55 2022.88 2078.13 2027.6 2079C2044.3 2081.95 2060.88 2085.72 2077.4 2089.73C2090.53 2093.17 2103.65 2096.85 2116.38 2101.86C2130.19 2107.01 2143.41 2114.45 2157.88 2117.18C2163.24 2118.09 2168.62 2119.19 2174.06 2119.04C2179.32 2118.87 2184.56 2119.42 2189.81 2119.01C2192.33 2118.72 2194.58 2120.47 2195.87 2122.76C2207.4 2141.41 2221.49 2158.04 2231.86 2177.58C2234.22 2176.92 2236.65 2176.77 2239.07 2176.75C2245.65 2175.78 2252.28 2175.36 2258.87 2174.53C2262.31 2174.76 2265.69 2174 2269.1 2173.77C2277.78 2173.84 2286.55 2173.2 2295.1 2175.11C2297.18 2175.52 2299.11 2177.14 2301.29 2176.56C2309.66 2175.04 2318.15 2174.52 2326.49 2172.73C2339.1 2170.76 2351.77 2169.12 2364.2 2165.99C2374.92 2163.33 2385.97 2160.89 2395.55 2154.62C2400.58 2151.34 2406.2 2149.15 2412.03 2148.61C2417.3 2148.18 2422.4 2146.23 2427.71 2146.45C2431.94 2146.43 2436.04 2147.34 2440.09 2148.49V2149.19H2472.14V2096.1H2860.56C2860.54 2109.57 2860.53 4081.7 2860.53 4081.7H660.282V2781.9C660.699 2781.88 661.54 2781.83 661.964 2781.81Z" fill="#1A2020"/>
<path d="M1997.21 2033.22C1990.2 2009.84 1981.81 1987.65 1975.88 1963.33C1968.31 1932.04 1963.66 1898.71 1954.22 1868.8C1953.45 1866.04 1952.13 1863.44 1952.35 1860.22C1952.46 1847.25 1952.35 1834.29 1952.41 1821.32C1952.54 1817.79 1951.85 1814.19 1950.45 1811.63C1948.09 1808.15 1944.85 1808.43 1942.05 1806.93C1930.61 1802.29 1919.6 1793.2 1907.65 1793.49C1901.6 1790.27 1896.34 1783.41 1890.11 1781.03C1884.07 1778.51 1877.92 1776.36 1872.19 1772.17C1859.53 1763.68 1848.75 1748.67 1839.31 1732.12C1831.38 1718.33 1823.51 1704.4 1814.92 1691.81C1805.32 1677.93 1794.31 1666.38 1782.13 1660.81C1774.35 1657.07 1766.23 1656.03 1758.19 1656.4C1752.32 1656.63 1746.42 1655.9 1740.58 1656.8C1736.88 1658.06 1733.12 1657.3 1729.41 1657.7C1723.25 1659.22 1718.61 1666.78 1713.97 1673.22C1707.97 1682.11 1701.94 1691.03 1696.69 1701.28C1694.11 1706.24 1691.32 1710.84 1688.6 1715.59C1685.52 1720.99 1683.05 1727.38 1679.86 1732.61C1668.72 1746.63 1657.93 1761.46 1647.07 1776.11C1644.61 1779.62 1641.19 1779.15 1638.29 1780.79C1633.14 1781.26 1628.51 1785.61 1623.46 1787C1615.86 1769.17 1610.1 1749.31 1604.22 1729.74C1598.23 1709.78 1592.66 1689.22 1584.62 1671.4C1580.02 1660.91 1574.87 1651.19 1570.43 1640.5C1566.67 1631.87 1563.8 1622.23 1560.29 1613.33C1554.26 1597.48 1543.43 1587.67 1532.45 1587.82C1526.78 1585.7 1521.12 1588.61 1515.43 1588.09C1510.64 1587.73 1505.95 1589.93 1501.16 1589.4C1497.3 1582.21 1493.82 1574.44 1489.6 1567.84C1484.85 1559.47 1479.54 1552.2 1474.33 1544.74C1464.51 1530.31 1454.63 1515.8 1446.41 1498.58C1434.56 1474.51 1425.42 1447.06 1415.99 1420.16C1408.4 1398.28 1400.45 1376.72 1391.33 1356.62C1385.03 1342.54 1378.31 1328.83 1370.46 1317.24C1365.42 1309.47 1359.54 1303.59 1353.73 1297.76C1348.46 1292.41 1342.1 1293.25 1336.23 1293.18C1326.87 1293.4 1317.54 1292.06 1308.19 1292.47C1302.69 1292.96 1297.27 1290.79 1291.77 1291.33C1284.48 1290.55 1277.21 1288.93 1269.92 1287.99C1258.66 1286.91 1247.45 1284.86 1236.37 1281.25C1232.92 1279.95 1229.39 1279.56 1225.96 1278.32C1225.3 1267.67 1221.1 1258.65 1215.87 1253.33C1206.91 1244.28 1196.46 1241.3 1187.13 1233.71C1179.32 1227.89 1171.95 1219.03 1163.19 1218.27C1158.85 1218.37 1154.5 1217.94 1150.17 1218.57C1141.56 1220.52 1133.01 1223.77 1124.29 1223.68C1114.24 1223.96 1104.19 1223.22 1094.17 1224.22C1069.68 1226.14 1045.46 1233.88 1020.96 1235.04C1012.56 1236.65 1004.08 1235.89 995.658 1236.87C985.934 1237.82 976.12 1235.99 966.444 1238.06C963.982 1219.92 961.007 1201.12 953.82 1186.67C949.682 1178.12 944.745 1170.88 940.403 1162.67C937.065 1156.51 932.06 1154.48 927.334 1154.63C923.183 1154.61 919.039 1154.69 914.902 1154.63C916.064 1144.94 916.242 1135.04 916.789 1125.21C916.276 1116.17 917.583 1107.23 918.683 1098.44C920.858 1082.44 923.833 1066.72 927.71 1051.68C929.146 1045.55 931.718 1040.12 932.121 1033.34C933.154 1019.95 935.636 1006.88 935.513 993.264C935.411 989.459 936.101 985.749 936.012 981.98C932.408 975.997 928.039 971.286 923.259 968.671C923.245 964.231 922.479 959.943 922.458 955.503C922.438 950.851 919.716 947.117 917.083 947.612C911.619 947.93 906.121 948.236 900.691 947.011C897.163 945.103 893.949 941.782 891.056 937.86C888.546 934.244 885.052 936.34 882.159 936.976C872.455 941.381 862.943 946.929 853.342 951.887C848.992 950.615 844.54 950.615 840.218 949.013C835.096 947.035 829.81 948.507 824.661 947.117C811.654 944.232 798.565 941.876 785.77 936.823C775.998 932.913 766.704 926.294 757.158 921.135C752.699 918.932 748.069 916.365 743.392 917.837C735.644 917.672 727.896 915.352 720.127 916.518C714.896 917.307 709.527 915.587 704.419 918.167C701 919.38 697.457 919.474 694.127 921.417C682.837 925.881 671.328 928.425 660.003 932.524C654.99 934.232 650.778 940.686 645.505 940.298C640.691 940.451 636.054 942.889 631.343 944.243C614.636 948.813 598.053 954.655 581.531 960.862C568.394 966.198 555.278 971.898 542.545 979.66C528.731 987.645 515.512 999.176 501.035 1003.4C495.673 1004.81 490.298 1006.51 484.855 1006.29C479.596 1006.02 474.351 1006.87 469.099 1006.24C466.575 1005.78 464.326 1008.5 463.04 1012.05C451.51 1040.94 437.416 1066.71 427.042 1096.98C424.683 1095.97 422.248 1095.73 419.834 1095.7C413.249 1094.2 406.622 1093.54 400.023 1092.26C396.583 1092.61 393.205 1091.45 389.792 1091.08C381.114 1091.19 372.348 1090.21 363.793 1093.16C361.707 1093.8 359.778 1096.31 357.604 1095.41C349.226 1093.06 340.733 1092.25 332.397 1089.48C319.787 1086.42 307.108 1083.87 294.676 1079.03C283.953 1074.91 272.902 1071.13 263.328 1061.41C258.295 1056.32 252.673 1052.93 246.84 1052.11C241.575 1051.44 236.473 1048.41 231.159 1048.75C226.926 1048.73 222.83 1050.13 218.775 1051.91V1053H186.716V970.744H-201.767C-201.746 991.615 -201.739 4047.35 -201.739 4047.35H1998.9V2033.36C1998.48 2033.32 1997.64 2033.25 1997.21 2033.22Z" fill="#1C2627"/>
<path opacity="0.8" d="M1694.72 3080.67C1694.72 3080.67 1716.71 3037.25 1713.16 3012.17C1709.62 2987.09 1661.99 2732.36 1661.99 2732.36L1593.17 2710.53L1556.14 2698.4C1556.14 2698.4 1607.28 2700.84 1626.7 2705.66C1646.12 2710.48 1667.27 2710.53 1667.27 2710.53C1667.27 2710.53 1670.82 2621.02 1658.45 2611.23C1646.08 2601.44 1589.63 2545.6 1584.35 2514.07L1579.07 2482.55C1579.07 2482.55 1593.17 2514.07 1602 2518.94C1610.82 2523.82 1686.13 2569.86 1682.87 2581.99C1679.6 2594.13 1699.02 2748.65 1699.02 2748.65L1739.53 2703.32L1790.77 2671.41L1766.17 2720.28L1720.8 2781.61H1744.7L1720.8 2810.03C1720.8 2810.03 1745.75 2981.12 1758.53 2995.02C1771.31 3008.92 1803.9 3080.67 1803.9 3080.67H1694.68H1694.72Z" fill="#283C3C"/>
<path opacity="0.8" d="M2316.71 2719.92C2316.71 2719.92 2294.72 2673.56 2298.27 2646.78C2301.81 2620 2349.44 2347.97 2349.44 2347.97L2418.26 2324.66L2455.29 2311.71C2455.29 2311.71 2404.15 2314.31 2384.73 2319.46C2365.31 2324.61 2344.16 2324.66 2344.16 2324.66C2344.16 2324.66 2340.61 2229.07 2352.98 2218.62C2365.35 2208.16 2421.8 2148.53 2427.08 2114.86L2432.36 2081.2C2432.36 2081.2 2418.26 2114.86 2409.43 2120.07C2400.61 2125.27 2325.29 2174.44 2328.56 2187.4C2331.83 2200.35 2312.41 2365.37 2312.41 2365.37L2271.9 2316.96L2220.66 2282.89L2245.26 2335.07L2290.63 2400.56H2266.73L2290.63 2430.91C2290.63 2430.91 2265.68 2613.62 2252.9 2628.47C2240.12 2643.31 2207.53 2719.92 2207.53 2719.92H2316.75H2316.71Z" fill="#283C3C"/>
<path opacity="0.8" d="M1776.07 2971.88L1743.95 3191.8L1794.8 3158.81L1818 2971.88L1794.8 2908.8L1848.33 2836.46L1794.8 2872.92L1776.07 2836.46L1831.82 2736.92L1864.39 2713.19H1818L1743.95 2836.46L1776.07 2971.88Z" fill="#2B4141"/>
<path d="M2290.6 3914.4L2324.23 2908.7L2552.58 2666.27V3686.05L2290.6 3914.4Z" fill="#3A4A3F"/>
<path d="M2244.87 2272.22C2129.54 2311.15 1590.67 2852.51 1590.67 2852.51C1590.67 2852.51 1651.03 2962.67 1749.78 2961.87C1848.53 2961.08 1913.06 2911.29 2154.41 2921.88C2395.77 2932.47 2552.58 2772.52 2552.58 2772.52V2272.22C2552.58 2272.22 2360.2 2233.28 2244.87 2272.22Z" fill="#212B23"/>
<path d="M2254.87 2239.1C2143.29 2277.42 1621.95 2810.26 1621.95 2810.26C1621.95 2810.26 1680.35 2918.69 1775.89 2917.91C1871.42 2917.13 1933.85 2868.12 2167.36 2878.55C2400.87 2888.97 2552.58 2731.54 2552.58 2731.54V2239.1C2552.58 2239.1 2366.46 2200.78 2254.87 2239.1Z" fill="url(#paint1_linear_323_1092)"/>
<path style="mix-blend-mode:color-dodge" opacity="0.6" d="M1946.75 345.73C1946.75 -615.706 1152.1 -1395.09 171.781 -1395.09C-808.54 -1395.09 -1603.18 -615.706 -1603.18 345.73C-1603.18 1307.17 -808.501 2086.55 171.781 2086.55C1152.06 2086.55 1946.75 1307.14 1946.75 345.73Z" fill="url(#paint2_radial_323_1092)"/>
<path d="M2806.43 678.966C2806.43 316.656 2497.9 22.9668 2117.2 22.9668C1736.5 22.9668 1428.01 316.656 1428.01 678.966C1428.01 1041.28 1736.61 1334.93 2117.2 1334.93C2497.79 1334.93 2806.43 1041.24 2806.43 678.966Z" fill="#F5ECA1"/>
<path opacity="0.15" d="M2107.29 135.204C2126.77 133.738 2149.19 133.738 2141.71 155.075C2134.22 211.962 2022.17 268.849 2111.84 325.736C2156.68 354.162 2216.44 375.499 2231.85 431.897C2234.46 442.653 2235.41 453.513 2235.05 464.374C2233.73 497.095 2220.85 529.921 2189.92 562.433C2180.41 569.383 2169.88 575.075 2158.77 579.79C2125.38 593.863 2086.67 598.926 2054.02 601.895C2042.2 603.222 2030.2 604.165 2018.17 604.619C2000.12 605.282 1981.96 604.758 1964.56 602.803C1955.87 601.825 1947.36 600.498 1939.14 598.752C1902.6 588.799 1857.8 567.462 1872.73 524.788C1878.34 515.883 1884.4 507.467 1890.82 499.226C1897.24 491.019 1903.99 483.022 1910.78 475.095C1916.21 469.752 1923.07 463.047 1929.64 455.818C1936.2 448.59 1942.44 440.802 1946.55 433.224C1954.92 382.553 1895.15 396.801 1868.03 398.093C1856.95 399.944 1845.95 402.109 1835.38 403.89C1803.64 409.233 1775.61 411.014 1760.68 389.677C1714.92 330.555 1736.35 285.087 1784.6 249.817C1792.63 243.95 1801.44 238.327 1810.91 232.984C1895.18 190.59 1977.37 162.129 2069.28 139.395C2085.02 136.846 2097.68 135.484 2107.33 135.169L2107.29 135.204Z" fill="#C5B6A2"/>
<path opacity="0.08" d="M2594.69 945.802C2589.73 954.637 2584.34 963.472 2578.54 972.203C2572.75 980.933 2566.51 989.524 2559.9 998.01C2502.7 1087.58 2390.65 1130.22 2286.05 1094.67C2226.28 1073.34 2226.28 995.111 2263.63 966.685C2308.46 924.011 2360.75 1002.24 2413.03 995.111C2465.32 987.987 2495.22 931.1 2547.87 908.855C2558.33 905.957 2568.42 905.538 2577.92 908.715C2587.46 911.963 2596.45 918.808 2604.74 930.541C2603.64 935.43 2600.37 940.599 2594.65 945.802H2594.69Z" fill="#C5B6A2"/>
<path opacity="0.09" d="M1744.17 551.675C1743.65 569.729 1736.76 587.015 1721.75 598.609C1718.81 600.879 1715.51 602.869 1711.81 604.441C1707.88 606.292 1703.77 607.794 1699.55 608.981C1678.56 614.883 1654.42 612.648 1634.17 603.778C1631.05 602.311 1628.04 600.565 1625.18 598.609C1622.32 596.654 1619.64 594.488 1617.22 592.114C1592.27 567.773 1592.49 524.052 1612.37 497.022C1625.99 478.479 1649.36 469.225 1672.18 470.692C1676.77 470.971 1681.32 471.705 1685.76 472.857C1690.6 473.66 1694.97 474.847 1698.96 476.419C1702.96 477.955 1706.56 479.876 1709.86 482.076C1731.55 496.464 1744.86 524.89 1744.13 551.64L1744.17 551.675Z" fill="#AEA290"/>
<path opacity="0.2" d="M1982.25 1021.72C1852.74 995.112 1807.9 902.675 1791.13 789.948C1784.16 782.65 1776.75 775.526 1769.08 768.541C1755.69 754.014 1745.67 743.119 1745.67 743.119C1729.93 726.007 1707.73 715.461 1683.92 713.75C1625.84 709.559 1578.51 757.472 1586.51 812.403C1586.51 812.403 1587.39 818.479 1588.71 827.594C1590.03 836.708 1591.83 848.861 1593.59 861.048C1593.37 873.76 1594.58 885.808 1597.04 897.297C1599.53 908.891 1603.28 919.926 1608.16 930.542C1613.18 938.12 1618.54 945.768 1624.23 953.416C1629.91 961.064 1635.93 968.711 1642.28 976.289C1688.36 1052.03 1770.55 1087.58 1848.66 1125.33C1860.88 1129.21 1873.32 1132.35 1885.9 1134.66C1923.69 1141.57 1962.92 1140.91 2002.14 1130.22C2024.56 1123.1 2046.97 1116.01 2054.42 1094.67C2054.42 1084.02 2046.94 1076.9 2038.61 1069.77C2030.28 1062.65 2021.03 1055.53 2017.36 1044.91C2008.41 1037.33 1996.96 1029.44 1982.25 1021.72Z" fill="#AEA290"/>
<path d="M1880.03 509.398C1853.41 502.333 1844.08 492.494 1836.23 465.604C1830.84 492.647 1821.84 502.734 1792.44 509.398C1821.78 516.939 1830.2 527.452 1836.23 553.192C1845.11 528.492 1850.32 514.856 1880.03 509.398Z" fill="#C6C895"/>
<g opacity="0.5">
<ellipse cx="146.368" cy="98.6907" rx="146.368" ry="98.6907" transform="matrix(-1 0 0 1 1764.25 1413.44)" fill="#022838"/>
<ellipse cx="146.368" cy="98.6907" rx="146.368" ry="98.6907" transform="matrix(-1 0 0 1 1764.25 1413.44)" fill="#022838"/>
<ellipse cx="146.368" cy="98.6907" rx="146.368" ry="98.6907" transform="matrix(-1 0 0 1 1764.25 1413.44)" fill="#022838"/>
<ellipse cx="146.368" cy="98.6907" rx="146.368" ry="98.6907" transform="matrix(-1 0 0 1 1764.25 1413.44)" fill="#466E7E"/>
<ellipse cx="85.188" cy="73.1305" rx="85.188" ry="73.1305" transform="matrix(-1 0 0 1 1513.34 1483.02)" fill="#022838"/>
<ellipse cx="85.188" cy="73.1305" rx="85.188" ry="73.1305" transform="matrix(-1 0 0 1 1513.34 1483.02)" fill="#022838"/>
<ellipse cx="85.188" cy="73.1305" rx="85.188" ry="73.1305" transform="matrix(-1 0 0 1 1513.34 1483.02)" fill="#022838"/>
<ellipse cx="85.188" cy="73.1305" rx="85.188" ry="73.1305" transform="matrix(-1 0 0 1 1513.34 1483.02)" fill="#466E7E"/>
<path d="M1731.75 1584.83C1731.75 1625.37 1769.89 1622.12 1816.94 1622.12C1863.98 1622.12 1902.12 1625.37 1902.12 1584.83C1902.12 1544.28 1863.98 1511.42 1816.94 1511.42C1769.89 1511.42 1731.75 1544.28 1731.75 1584.83Z" fill="#022838"/>
<path d="M1731.75 1584.83C1731.75 1625.37 1769.89 1622.12 1816.94 1622.12C1863.98 1622.12 1902.12 1625.37 1902.12 1584.83C1902.12 1544.28 1863.98 1511.42 1816.94 1511.42C1769.89 1511.42 1731.75 1544.28 1731.75 1584.83Z" fill="#022838"/>
<path d="M1731.75 1584.83C1731.75 1625.37 1769.89 1622.12 1816.94 1622.12C1863.98 1622.12 1902.12 1625.37 1902.12 1584.83C1902.12 1544.28 1863.98 1511.42 1816.94 1511.42C1769.89 1511.42 1731.75 1544.28 1731.75 1584.83Z" fill="#022838"/>
<path d="M1731.75 1584.83C1731.75 1625.37 1769.89 1622.12 1816.94 1622.12C1863.98 1622.12 1902.12 1625.37 1902.12 1584.83C1902.12 1544.28 1863.98 1511.42 1816.94 1511.42C1769.89 1511.42 1731.75 1544.28 1731.75 1584.83Z" fill="#466E7E"/>
<path d="M1284.11 1612.73C1284.11 1632.6 1426.61 1628.43 1600.22 1628.43C1773.83 1628.43 1931.54 1634.42 1931.54 1614.55C1931.54 1594.69 1777.92 1571.06 1604.31 1571.06C1430.7 1571.06 1284.11 1592.87 1284.11 1612.73Z" fill="#022838"/>
<path d="M1284.11 1612.73C1284.11 1632.6 1426.61 1628.43 1600.22 1628.43C1773.83 1628.43 1931.54 1634.42 1931.54 1614.55C1931.54 1594.69 1777.92 1571.06 1604.31 1571.06C1430.7 1571.06 1284.11 1592.87 1284.11 1612.73Z" fill="#022838"/>
<path d="M1284.11 1612.73C1284.11 1632.6 1426.61 1628.43 1600.22 1628.43C1773.83 1628.43 1931.54 1634.42 1931.54 1614.55C1931.54 1594.69 1777.92 1571.06 1604.31 1571.06C1430.7 1571.06 1284.11 1592.87 1284.11 1612.73Z" fill="#022838"/>
<path d="M1284.11 1612.73C1284.11 1632.6 1426.61 1628.43 1600.22 1628.43C1773.83 1628.43 1931.54 1634.42 1931.54 1614.55C1931.54 1594.69 1777.92 1571.06 1604.31 1571.06C1430.7 1571.06 1284.11 1592.87 1284.11 1612.73Z" fill="#466E7E"/>
</g>
<g opacity="0.5">
<ellipse cx="130.459" cy="87.9636" rx="130.459" ry="87.9636" transform="matrix(-1 0 0 1 443.591 1164.75)" fill="#022838"/>
<ellipse cx="130.459" cy="87.9636" rx="130.459" ry="87.9636" transform="matrix(-1 0 0 1 443.591 1164.75)" fill="#022838"/>
<ellipse cx="130.459" cy="87.9636" rx="130.459" ry="87.9636" transform="matrix(-1 0 0 1 443.591 1164.75)" fill="#022838"/>
<ellipse cx="130.459" cy="87.9636" rx="130.459" ry="87.9636" transform="matrix(-1 0 0 1 443.591 1164.75)" fill="#466E7E"/>
<ellipse cx="75.9286" cy="65.1817" rx="75.9286" ry="65.1817" transform="matrix(-1 0 0 1 219.958 1226.77)" fill="#022838"/>
<ellipse cx="75.9286" cy="65.1817" rx="75.9286" ry="65.1817" transform="matrix(-1 0 0 1 219.958 1226.77)" fill="#022838"/>
<ellipse cx="75.9286" cy="65.1817" rx="75.9286" ry="65.1817" transform="matrix(-1 0 0 1 219.958 1226.77)" fill="#022838"/>
<ellipse cx="75.9286" cy="65.1817" rx="75.9286" ry="65.1817" transform="matrix(-1 0 0 1 219.958 1226.77)" fill="#466E7E"/>
<path d="M414.621 1317.51C414.621 1353.65 448.616 1350.75 490.55 1350.75C532.484 1350.75 566.479 1353.65 566.479 1317.51C566.479 1281.37 532.484 1252.08 490.55 1252.08C448.616 1252.08 414.621 1281.37 414.621 1317.51Z" fill="#022838"/>
<path d="M414.621 1317.51C414.621 1353.65 448.616 1350.75 490.55 1350.75C532.484 1350.75 566.479 1353.65 566.479 1317.51C566.479 1281.37 532.484 1252.08 490.55 1252.08C448.616 1252.08 414.621 1281.37 414.621 1317.51Z" fill="#022838"/>
<path d="M414.621 1317.51C414.621 1353.65 448.616 1350.75 490.55 1350.75C532.484 1350.75 566.479 1353.65 566.479 1317.51C566.479 1281.37 532.484 1252.08 490.55 1252.08C448.616 1252.08 414.621 1281.37 414.621 1317.51Z" fill="#022838"/>
<path d="M414.621 1317.51C414.621 1353.65 448.616 1350.75 490.55 1350.75C532.484 1350.75 566.479 1353.65 566.479 1317.51C566.479 1281.37 532.484 1252.08 490.55 1252.08C448.616 1252.08 414.621 1281.37 414.621 1317.51Z" fill="#466E7E"/>
<path d="M15.6412 1342.38C15.6412 1360.09 142.648 1356.38 297.387 1356.38C452.126 1356.38 592.698 1361.71 592.698 1344C592.698 1326.3 455.779 1305.24 301.039 1305.24C146.3 1305.24 15.6412 1324.68 15.6412 1342.38Z" fill="#022838"/>
<path d="M15.6412 1342.38C15.6412 1360.09 142.648 1356.38 297.387 1356.38C452.126 1356.38 592.698 1361.71 592.698 1344C592.698 1326.3 455.779 1305.24 301.039 1305.24C146.3 1305.24 15.6412 1324.68 15.6412 1342.38Z" fill="#022838"/>
<path d="M15.6412 1342.38C15.6412 1360.09 142.648 1356.38 297.387 1356.38C452.126 1356.38 592.698 1361.71 592.698 1344C592.698 1326.3 455.779 1305.24 301.039 1305.24C146.3 1305.24 15.6412 1324.68 15.6412 1342.38Z" fill="#022838"/>
<path d="M15.6412 1342.38C15.6412 1360.09 142.648 1356.38 297.387 1356.38C452.126 1356.38 592.698 1361.71 592.698 1344C592.698 1326.3 455.779 1305.24 301.039 1305.24C146.3 1305.24 15.6412 1324.68 15.6412 1342.38Z" fill="#466E7E"/>
</g>
<path d="M2933.48 2296.83L3050.91 2362.34L2923.08 2342.8L2854.91 2410.71L2822.96 2347.35L2698.91 2376.89V2327.53H2603.13C2603.13 2327.53 2702.5 2305.67 2702.5 2209.01C2702.5 2112.36 2705.62 1784.11 2661.47 1747.25C2617.32 1710.39 2435.88 1576.79 2435.88 1576.79L2451.38 1532.62C2451.38 1532.62 2654.47 1681.39 2682.08 1652.38C2709.69 1623.38 2432.85 1338.68 2432.85 1338.68L2042.84 1079.96L2099.76 1097.81L2301.62 1185.98L2263.61 1123.24L2319.58 1185.98C2319.58 1185.98 2455.07 1272.73 2483.72 1276.57C2512.37 1280.4 2588.29 1406.06 2636.79 1402.94C2685.3 1399.82 2681.99 1079.96 2681.99 1079.96L2790.72 1090.4C2790.72 1090.4 2730.96 1419.18 2769.63 1402.94C3159.26 1239.35 3250.41 1224.89 2852.83 1415.43C2852.83 1415.43 2812.37 1482.1 2822.96 1502.54C2833.55 1522.98 2933.48 2296.92 2933.48 2296.92V2296.83Z" fill="#1D2121"/>
<path d="M1909.71 1111.91C1782.72 1111.91 1679.77 1014.74 1679.77 894.866C1679.77 774.994 1782.72 677.818 1909.71 677.818C2036.71 677.818 2139.65 774.994 2139.65 894.866C2139.65 1014.74 2036.71 1111.91 1909.71 1111.91Z" fill="#353F31"/>
<path d="M1797.22 1285.67C1670.22 1285.67 1567.27 1188.49 1567.27 1068.62C1567.27 948.745 1670.22 851.57 1797.22 851.57C1924.21 851.57 2027.16 948.745 2027.16 1068.62C2027.16 1188.49 1924.21 1285.67 1797.22 1285.67Z" fill="#353F31"/>
<path d="M1766.39 1127.69C1639.4 1127.69 1536.45 1030.52 1536.45 910.647C1536.45 790.775 1639.4 693.6 1766.39 693.6C1893.39 693.6 1996.33 790.775 1996.33 910.647C1996.33 1030.52 1893.39 1127.69 1766.39 1127.69Z" fill="#353F31"/>
<path d="M2208.02 1981.81C2049.86 1981.81 1921.64 1860.78 1921.64 1711.48C1921.64 1562.19 2049.86 1441.16 2208.02 1441.16C2366.19 1441.16 2494.41 1562.19 2494.41 1711.48C2494.41 1860.78 2366.19 1981.81 2208.02 1981.81Z" fill="#353F31"/>
<path d="M1985.92 1080.05C1902.37 1080.05 1834.65 1016.12 1834.65 937.255C1834.65 858.392 1902.37 794.461 1985.92 794.461C2069.47 794.461 2137.2 858.392 2137.2 937.255C2137.2 1016.12 2069.47 1080.05 1985.92 1080.05Z" fill="#232D28"/>
<path d="M1911.9 1194.38C1828.35 1194.38 1760.62 1130.45 1760.62 1051.59C1760.62 972.722 1828.35 908.791 1911.9 908.791C1995.45 908.791 2063.18 972.722 2063.18 1051.59C2063.18 1130.45 1995.45 1194.38 1911.9 1194.38Z" fill="#232D28"/>
<path d="M1891.56 1090.41C1808.01 1090.41 1740.28 1026.47 1740.28 947.611C1740.28 868.748 1808.01 804.816 1891.56 804.816C1975.11 804.816 2042.83 868.748 2042.83 947.611C2042.83 1026.47 1975.11 1090.41 1891.56 1090.41Z" fill="#232D28"/>
<path d="M2014.77 1727.45C1887.77 1727.45 1784.83 1630.27 1784.83 1510.4C1784.83 1390.53 1887.77 1293.35 2014.77 1293.35C2141.76 1293.35 2244.71 1390.53 2244.71 1510.4C2244.71 1630.27 2141.76 1727.45 2014.77 1727.45Z" fill="#353F31"/>
<path d="M2262.66 1686.03C2135.67 1686.03 2032.72 1588.86 2032.72 1468.99C2032.72 1349.12 2135.67 1251.94 2262.66 1251.94C2389.65 1251.94 2492.6 1349.12 2492.6 1468.99C2492.6 1588.86 2389.65 1686.03 2262.66 1686.03Z" fill="#353F31"/>
<path d="M1938.75 523.242C1938.75 776.345 2097.21 994.464 2325.55 1094.06C2410.36 1131.1 2504.81 1151.72 2604.46 1151.72C2723.69 1151.72 2835.63 1122.18 2932.36 1070.32C2994.66 1037.03 3050.64 994.464 3098.29 944.665C3132.33 909.234 3162.11 870.054 3186.88 827.93C3187.07 827.662 3187.16 827.394 3187.35 827.127C3230.09 754.391 3257.89 672.73 3267.06 585.893C3269.14 565.278 3270.27 544.394 3270.27 523.242C3270.27 176.162 2972.16 -105.143 2604.46 -105.143C2236.77 -105.143 1938.75 176.162 1938.75 523.242Z" fill="url(#paint3_linear_323_1092)"/>
<path d="M2215.38 803.133C2215.38 913.531 2256.7 1014.92 2325.53 1094.08C2410.34 1131.11 2504.8 1151.73 2604.45 1151.73C2629.03 1151.73 2653.33 1150.48 2677.25 1147.98C2682.26 1147.54 2687.27 1146.91 2692.19 1146.29C2692.66 1146.29 2693.04 1146.2 2693.42 1146.11C2700.32 1145.3 2707.13 1144.32 2713.84 1143.25C2720.36 1142.27 2726.89 1141.2 2733.41 1139.95C2736.15 1139.41 2738.9 1138.88 2741.64 1138.34C2745.89 1137.54 2750.24 1136.65 2754.5 1135.76C2757.24 1135.13 2759.89 1134.51 2762.53 1133.88C2766.6 1132.99 2770.57 1132.01 2774.54 1131.03C2777 1130.4 2779.36 1129.86 2781.73 1129.15C2786.45 1127.99 2791.18 1126.74 2795.81 1125.4C2801.49 1123.8 2807.07 1122.1 2812.55 1120.4C2818.69 1118.53 2824.75 1116.57 2830.8 1114.43C2835.43 1112.91 2839.97 1111.3 2844.41 1109.61C2848.29 1108.27 2852.07 1106.84 2855.85 1105.32C2857.27 1104.79 2858.59 1104.34 2859.92 1103.72C2863.89 1102.2 2867.86 1100.59 2871.83 1098.9C2876.46 1097.02 2881.1 1095.06 2885.63 1093.01C2886.49 1092.65 2887.43 1092.29 2888.28 1091.85C2894.14 1089.26 2899.91 1086.58 2905.58 1083.81C2911.35 1081.05 2917.02 1078.28 2922.7 1075.34C2922.98 1075.16 2923.26 1075.07 2923.55 1074.89C2926.48 1073.46 2929.41 1071.94 2932.34 1070.34C2930.73 1077.66 2929.41 1085.06 2928.37 1092.56C2938.3 1125.49 2952.29 1156.82 2969.88 1186C3054.12 1133.43 3119.92 1056.68 3156.33 966.276C3173.82 922.902 3184.6 876.315 3187.24 827.855C3187.34 827.587 3187.34 827.319 3187.34 827.14C3187.81 819.197 3188 811.165 3188 803.133C3188 731.647 3170.7 663.998 3139.78 603.757C3137.13 598.491 3134.3 593.404 3131.46 588.317C3049.86 443.024 2888 344.049 2701.64 344.049C2433.13 344.049 2215.38 549.584 2215.38 803.133Z" fill="#232D28"/>
<path d="M2099.58 1873.74C2003.71 1873.74 1925.99 1800.38 1925.99 1709.88C1925.99 1619.39 2003.71 1546.03 2099.58 1546.03C2195.45 1546.03 2273.17 1619.39 2273.17 1709.88C2273.17 1800.38 2195.45 1873.74 2099.58 1873.74Z" fill="#232D28"/>
<path d="M1963.91 1710.12C1888.97 1710.12 1828.23 1652.79 1828.23 1582.05C1828.23 1511.32 1888.97 1453.99 1963.91 1453.99C2038.84 1453.99 2099.58 1511.32 2099.58 1582.05C2099.58 1652.79 2038.84 1710.12 1963.91 1710.12Z" fill="#232D28"/>
<path d="M2325.16 1779.56L2317.13 1793.66L2300.2 1795.27L2311.93 1806.96L2308.34 1822.58L2323.65 1815.71L2338.31 1823.74L2336.13 1807.85L2348.8 1797.14L2332.07 1794.2L2325.16 1779.56Z" fill="#7E7854"/>
<path d="M2206.7 1709.86C2103 1709.86 2018.93 1630.51 2018.93 1532.62C2018.93 1434.73 2103 1355.38 2206.7 1355.38C2310.41 1355.38 2394.48 1434.73 2394.48 1532.62C2394.48 1630.51 2310.41 1709.86 2206.7 1709.86Z" fill="#2D362F"/>
<path d="M2279.5 1437.59L2242.44 1468.02L2194.88 1456.33L2213.98 1499.08L2187.6 1538.08L2236.58 1534.15L2267.78 1569.94L2278.84 1524.78L2324.5 1507.82L2282.53 1483.9L2279.5 1437.59Z" fill="#5D593D"/>
<path d="M-120.576 2323.21L-174.475 2353.27L-115.802 2344.3L-84.5133 2375.47L-69.8451 2346.39L-12.9086 2359.95V2337.3H31.0524C31.0524 2337.3 -14.5577 2327.26 -14.5577 2282.9C-14.5577 2238.53 -15.9896 2087.87 4.27666 2070.95C24.543 2054.03 107.821 1992.71 107.821 1992.71L100.704 1972.43C100.704 1972.43 7.48805 2040.72 -5.18381 2027.41C-17.8557 2014.09 109.21 1883.42 109.21 1883.42L288.222 1764.67L262.097 1772.86L169.445 1813.33L186.89 1784.54L161.199 1813.33C161.199 1813.33 99.0118 1853.15 85.8626 1854.91C72.7133 1856.67 37.8657 1914.35 15.6032 1912.91C-6.65939 1911.48 -5.14037 1764.67 -5.14037 1764.67L-55.0467 1769.46C-55.0467 1769.46 -27.62 1920.37 -45.3693 1912.91C-224.207 1837.83 -266.042 1831.19 -83.5584 1918.65C-83.5584 1918.65 -64.9847 1949.25 -69.8451 1958.63C-74.7056 1968.01 -120.576 2323.25 -120.576 2323.25V2323.21Z" fill="#1D2121"/>
<path d="M349.327 1779.34C407.616 1779.34 454.868 1734.73 454.868 1679.71C454.868 1624.69 407.616 1580.09 349.327 1580.09C291.038 1580.09 243.786 1624.69 243.786 1679.71C243.786 1734.73 291.038 1779.34 349.327 1779.34Z" fill="#353F31"/>
<path d="M400.963 1859.09C459.251 1859.09 506.504 1814.49 506.504 1759.46C506.504 1704.44 459.251 1659.84 400.963 1659.84C342.674 1659.84 295.422 1704.44 295.422 1759.46C295.422 1814.49 342.674 1859.09 400.963 1859.09Z" fill="#353F31"/>
<path d="M415.111 1786.58C473.4 1786.58 520.652 1741.98 520.652 1686.96C520.652 1631.93 473.4 1587.33 415.111 1587.33C356.823 1587.33 309.57 1631.93 309.57 1686.96C309.57 1741.98 356.823 1786.58 415.111 1786.58Z" fill="#353F31"/>
<path d="M212.407 2178.61C285.004 2178.61 343.856 2123.06 343.856 2054.53C343.856 1986.01 285.004 1930.46 212.407 1930.46C139.81 1930.46 80.958 1986.01 80.958 2054.53C80.958 2123.06 139.81 2178.61 212.407 2178.61Z" fill="#353F31"/>
<path d="M314.348 1764.71C352.696 1764.71 383.783 1735.37 383.783 1699.17C383.783 1662.97 352.696 1633.63 314.348 1633.63C276 1633.63 244.913 1662.97 244.913 1699.17C244.913 1735.37 276 1764.71 314.348 1764.71Z" fill="#232D28"/>
<path d="M348.325 1817.19C386.672 1817.19 417.759 1787.84 417.759 1751.65C417.759 1715.45 386.672 1686.1 348.325 1686.1C309.977 1686.1 278.89 1715.45 278.89 1751.65C278.89 1787.84 309.977 1817.19 348.325 1817.19Z" fill="#232D28"/>
<path d="M357.659 1769.46C396.007 1769.46 427.094 1740.12 427.094 1703.92C427.094 1667.72 396.007 1638.38 357.659 1638.38C319.312 1638.38 288.225 1667.72 288.225 1703.92C288.225 1740.12 319.312 1769.46 357.659 1769.46Z" fill="#232D28"/>
<path d="M301.109 2061.86C359.398 2061.86 406.65 2017.26 406.65 1962.24C406.65 1907.22 359.398 1862.62 301.109 1862.62C242.821 1862.62 195.568 1907.22 195.568 1962.24C195.568 2017.26 242.821 2061.86 301.109 2061.86Z" fill="#353F31"/>
<path d="M187.327 2042.85C245.616 2042.85 292.868 1998.25 292.868 1943.23C292.868 1888.21 245.616 1843.61 187.327 1843.61C129.038 1843.61 81.7861 1888.21 81.7861 1943.23C81.7861 1998.25 129.038 2042.85 187.327 2042.85Z" fill="#353F31"/>
<path d="M335.998 1509.14C335.998 1625.31 263.265 1725.43 158.462 1771.14C119.535 1788.14 76.1814 1797.61 30.4412 1797.61C-24.2822 1797.61 -75.6642 1784.05 -120.059 1760.25C-148.658 1744.97 -174.348 1725.43 -196.22 1702.57C-211.843 1686.31 -225.513 1668.32 -236.883 1648.99C-236.97 1648.87 -237.013 1648.74 -237.1 1648.62C-256.715 1615.24 -269.474 1577.75 -273.684 1537.9C-274.638 1528.43 -275.159 1518.85 -275.159 1509.14C-275.159 1349.83 -138.329 1220.72 30.4412 1220.72C199.211 1220.72 335.998 1349.83 335.998 1509.14Z" fill="url(#paint4_linear_323_1092)"/>
<path d="M209.026 1637.61C209.026 1688.28 190.062 1734.81 158.469 1771.15C119.542 1788.15 76.1888 1797.61 30.4486 1797.61C19.1654 1797.61 8.01241 1797.04 -2.96698 1795.89C-5.26701 1795.69 -7.56711 1795.4 -9.82375 1795.11C-10.0407 1795.11 -10.2143 1795.07 -10.3879 1795.03C-13.5559 1794.66 -16.6803 1794.21 -19.7615 1793.72C-22.7559 1793.27 -25.7503 1792.78 -28.7447 1792.2C-30.0032 1791.96 -31.2617 1791.71 -32.5202 1791.47C-34.473 1791.1 -36.4695 1790.69 -38.4223 1790.28C-39.6808 1789.99 -40.8959 1789.7 -42.111 1789.42C-43.977 1789.01 -45.7998 1788.56 -47.6224 1788.11C-48.7507 1787.82 -49.8354 1787.57 -50.9204 1787.25C-53.0902 1786.71 -55.2603 1786.14 -57.3867 1785.53C-59.9905 1784.79 -62.5508 1784.01 -65.0678 1783.23C-67.8885 1782.37 -70.6659 1781.47 -73.4433 1780.49C-75.5697 1779.79 -77.6528 1779.05 -79.6925 1778.28C-81.4717 1777.66 -83.2077 1777.01 -84.9436 1776.31C-85.5945 1776.06 -86.202 1775.86 -86.8096 1775.57C-88.6323 1774.88 -90.455 1774.14 -92.2776 1773.36C-94.4041 1772.5 -96.5306 1771.6 -98.6137 1770.66C-99.0042 1770.49 -99.4381 1770.33 -99.8286 1770.12C-102.519 1768.94 -105.167 1767.71 -107.77 1766.44C-110.418 1765.17 -113.021 1763.9 -115.625 1762.55C-115.755 1762.46 -115.885 1762.42 -116.016 1762.34C-117.361 1761.69 -118.706 1760.99 -120.052 1760.25C-119.314 1763.61 -118.706 1767.01 -118.229 1770.45C-122.785 1785.57 -129.208 1799.95 -137.28 1813.34C-175.947 1789.21 -206.151 1753.98 -222.859 1712.49C-230.887 1692.58 -235.834 1671.2 -237.049 1648.95C-237.093 1648.83 -237.093 1648.71 -237.093 1648.63C-237.31 1644.98 -237.396 1641.29 -237.396 1637.61C-237.396 1604.8 -229.455 1573.74 -215.264 1546.09C-214.049 1543.68 -212.747 1541.34 -211.445 1539.01C-173.994 1472.32 -99.6985 1426.89 -14.1634 1426.89C109.083 1426.89 209.026 1521.23 209.026 1637.61Z" fill="#232D28"/>
<path d="M262.18 2129.01C306.184 2129.01 341.857 2095.34 341.857 2053.8C341.857 2012.26 306.184 1978.59 262.18 1978.59C218.176 1978.59 182.504 2012.26 182.504 2053.8C182.504 2095.34 218.176 2129.01 262.18 2129.01Z" fill="#232D28"/>
<path d="M324.452 2053.91C358.845 2053.91 386.727 2027.59 386.727 1995.13C386.727 1962.66 358.845 1936.35 324.452 1936.35C290.059 1936.35 262.178 1962.66 262.178 1995.13C262.178 2027.59 290.059 2053.91 324.452 2053.91Z" fill="#232D28"/>
<path d="M158.638 2085.78L162.327 2092.25L170.095 2092.99L164.714 2098.36L166.363 2105.52L159.332 2102.37L152.606 2106.06L153.604 2098.76L147.789 2093.85L155.47 2092.5L158.638 2085.78Z" fill="#5D593D"/>
<path d="M213.011 2053.79C260.61 2053.79 299.197 2017.37 299.197 1972.44C299.197 1927.51 260.61 1891.08 213.011 1891.08C165.412 1891.08 126.825 1927.51 126.825 1972.44C126.825 2017.37 165.412 2053.79 213.011 2053.79Z" fill="#353F31"/>
<path d="M179.597 1928.82L196.609 1942.79L218.437 1937.42L209.671 1957.04L221.779 1974.94L199.299 1973.14L184.979 1989.57L179.901 1968.84L158.94 1961.06L178.209 1950.08L179.597 1928.82Z" fill="#5D593D"/>
<path d="M87.5889 371.759C71.4313 367.47 65.7667 361.497 60.9995 345.17C57.7246 361.589 52.2645 367.713 34.4102 371.759C52.225 376.338 57.3367 382.721 60.9995 398.349C66.3918 383.352 69.5544 375.073 87.5889 371.759Z" fill="#C6C895"/>
<path d="M503.634 73.0191C487.476 68.7298 481.812 62.7563 477.044 46.4297C473.77 62.849 468.309 68.9731 450.455 73.0191C468.27 77.5978 473.382 83.9803 477.044 99.6085C482.437 84.612 485.599 76.3329 503.634 73.0191Z" fill="#C6C895"/>
<path d="M738.247 290.427C711.634 283.362 702.304 273.524 694.452 246.633C689.058 273.676 680.065 283.763 650.658 290.427C680 297.969 688.42 308.481 694.452 334.221C703.334 309.521 708.543 295.885 738.247 290.427Z" fill="#C6C895"/>
<path d="M1786.18 1809.15C1759.57 1802.09 1750.24 1792.25 1742.39 1765.36C1736.99 1792.4 1728 1802.49 1698.59 1809.15C1727.93 1816.69 1736.35 1827.2 1742.39 1852.94C1751.27 1828.24 1756.48 1814.61 1786.18 1809.15Z" fill="#C6C895"/>
<path d="M2419.63 1990.58C2404.43 1986.55 2399.1 1980.92 2394.61 1965.56C2391.53 1981.01 2386.39 1986.78 2369.58 1990.58C2386.35 1994.89 2391.16 2000.9 2394.61 2015.61C2399.68 2001.49 2402.66 1993.7 2419.63 1990.58Z" fill="#C6C895"/>
<path d="M129.819 487.501C121.264 485.23 118.266 482.067 115.742 473.424C114.008 482.116 111.117 485.359 101.665 487.501C111.096 489.925 113.803 493.304 115.742 501.577C118.597 493.638 120.271 489.255 129.819 487.501Z" fill="#C6C895"/>
<path d="M372.252 2620.13C359.421 2616.72 354.922 2611.98 351.137 2599.01C348.536 2612.05 344.2 2616.91 330.021 2620.13C344.169 2623.76 348.228 2628.83 351.137 2641.24C355.419 2629.33 357.93 2622.76 372.252 2620.13Z" fill="#C6C895"/>
<path d="M527.096 1702.79C506.186 1697.24 498.855 1689.51 492.686 1668.38C488.448 1689.63 481.382 1697.56 458.276 1702.79C481.331 1708.72 487.946 1716.98 492.686 1737.2C499.664 1717.8 503.757 1707.08 527.096 1702.79Z" fill="#C6C895"/>
<path d="M270.586 1038.06C230.667 1027.46 216.672 1012.7 204.895 972.367C196.804 1012.93 183.314 1028.06 139.203 1038.06C183.216 1049.37 195.845 1065.14 204.895 1103.75C218.217 1066.7 226.03 1046.25 270.586 1038.06Z" fill="#C6C895"/>
<path d="M1801.82 365.503C1789.47 362.223 1785.13 357.655 1781.49 345.17C1778.98 357.726 1774.81 362.409 1761.16 365.503C1774.78 369.004 1778.69 373.885 1781.49 385.836C1785.61 374.368 1788.03 368.037 1801.82 365.503Z" fill="#C6C895"/>
<path d="M1768.98 91.7887C1748.07 86.2379 1740.74 78.5075 1734.57 57.3789C1730.33 78.6274 1723.26 86.5528 1700.16 91.7887C1723.21 97.7141 1729.83 105.974 1734.57 126.198C1741.54 106.791 1745.64 96.0771 1768.98 91.7887Z" fill="#C6C895"/>
<path d="M2394.61 1206.2C2383.68 1203.29 2379.85 1199.25 2376.62 1188.21C2374.41 1199.32 2370.71 1203.46 2358.63 1206.2C2370.69 1209.29 2374.14 1213.61 2376.62 1224.18C2380.27 1214.04 2382.41 1208.44 2394.61 1206.2Z" fill="#C6C895"/>
<circle cx="105.575" cy="469.514" r="3.9102" fill="#FDFFD7"/>
<circle cx="125.908" cy="370.977" r="3.9102" fill="#FDFFD7"/>
<circle cx="215.062" cy="394.438" r="3.9102" fill="#FDFFD7"/>
<circle cx="391.803" cy="322.49" r="3.9102" fill="#FDFFD7"/>
<circle cx="360.521" cy="106.647" r="3.9102" fill="#FDFFD7"/>
<circle cx="1811.99" cy="289.645" r="19.551" fill="#FDFFD7"/>
<circle cx="2086.48" cy="1080.29" r="12.5127" fill="#FDFFD7"/>
<path d="M1379.52 2998.63L1106.59 2899.31L1409.24 2721.79L1608.66 2678L1574.25 2795.3L1379.52 2998.63Z" fill="url(#paint5_linear_323_1092)"/>
<path d="M1574.25 2841.44L1409.24 3015.84L1379.52 3059.63L1438.17 3187.1L1423.31 3239.5L1499.95 3672.75L1608.66 3375.58L1574.25 2841.44Z" fill="url(#paint6_linear_323_1092)"/>
<g opacity="0.8">
<ellipse cx="146.368" cy="98.6907" rx="146.368" ry="98.6907" transform="matrix(-1 0 0 1 450.421 2270.55)" fill="#022838"/>
<ellipse cx="146.368" cy="98.6907" rx="146.368" ry="98.6907" transform="matrix(-1 0 0 1 450.421 2270.55)" fill="#022838"/>
<ellipse cx="146.368" cy="98.6907" rx="146.368" ry="98.6907" transform="matrix(-1 0 0 1 450.421 2270.55)" fill="#022838"/>
<ellipse cx="146.368" cy="98.6907" rx="146.368" ry="98.6907" transform="matrix(-1 0 0 1 450.421 2270.55)" fill="#466E7E"/>
<ellipse cx="85.188" cy="73.1305" rx="85.188" ry="73.1305" transform="matrix(-1 0 0 1 199.516 2340.13)" fill="#022838"/>
<ellipse cx="85.188" cy="73.1305" rx="85.188" ry="73.1305" transform="matrix(-1 0 0 1 199.516 2340.13)" fill="#022838"/>
<ellipse cx="85.188" cy="73.1305" rx="85.188" ry="73.1305" transform="matrix(-1 0 0 1 199.516 2340.13)" fill="#022838"/>
<ellipse cx="85.188" cy="73.1305" rx="85.188" ry="73.1305" transform="matrix(-1 0 0 1 199.516 2340.13)" fill="#466E7E"/>
<path d="M417.919 2441.94C417.919 2482.49 456.059 2479.23 503.107 2479.23C550.155 2479.23 588.295 2482.49 588.295 2441.94C588.295 2401.4 550.155 2368.53 503.107 2368.53C456.059 2368.53 417.919 2401.4 417.919 2441.94Z" fill="#022838"/>
<path d="M417.919 2441.94C417.919 2482.49 456.059 2479.23 503.107 2479.23C550.155 2479.23 588.295 2482.49 588.295 2441.94C588.295 2401.4 550.155 2368.53 503.107 2368.53C456.059 2368.53 417.919 2401.4 417.919 2441.94Z" fill="#022838"/>
<path d="M417.919 2441.94C417.919 2482.49 456.059 2479.23 503.107 2479.23C550.155 2479.23 588.295 2482.49 588.295 2441.94C588.295 2401.4 550.155 2368.53 503.107 2368.53C456.059 2368.53 417.919 2401.4 417.919 2441.94Z" fill="#022838"/>
<path d="M417.919 2441.94C417.919 2482.49 456.059 2479.23 503.107 2479.23C550.155 2479.23 588.295 2482.49 588.295 2441.94C588.295 2401.4 550.155 2368.53 503.107 2368.53C456.059 2368.53 417.919 2401.4 417.919 2441.94Z" fill="#466E7E"/>
<path d="M-29.7169 2469.85C-29.7169 2489.71 112.778 2485.55 286.388 2485.55C459.997 2485.55 617.712 2491.53 617.712 2471.67C617.712 2451.8 464.095 2428.17 290.485 2428.17C116.875 2428.17 -29.7169 2449.99 -29.7169 2469.85Z" fill="#022838"/>
<path d="M-29.7169 2469.85C-29.7169 2489.71 112.778 2485.55 286.388 2485.55C459.997 2485.55 617.712 2491.53 617.712 2471.67C617.712 2451.8 464.095 2428.17 290.485 2428.17C116.875 2428.17 -29.7169 2449.99 -29.7169 2469.85Z" fill="#022838"/>
<path d="M-29.7169 2469.85C-29.7169 2489.71 112.778 2485.55 286.388 2485.55C459.997 2485.55 617.712 2491.53 617.712 2471.67C617.712 2451.8 464.095 2428.17 290.485 2428.17C116.875 2428.17 -29.7169 2449.99 -29.7169 2469.85Z" fill="#022838"/>
<path d="M-29.7169 2469.85C-29.7169 2489.71 112.778 2485.55 286.388 2485.55C459.997 2485.55 617.712 2491.53 617.712 2471.67C617.712 2451.8 464.095 2428.17 290.485 2428.17C116.875 2428.17 -29.7169 2449.99 -29.7169 2469.85Z" fill="#466E7E"/>
</g>
<g opacity="0.8">
<ellipse cx="100.777" cy="67.9498" rx="100.777" ry="67.9498" transform="matrix(-1 0 0 1 735.679 2229.89)" fill="#022838"/>
<ellipse cx="100.777" cy="67.9498" rx="100.777" ry="67.9498" transform="matrix(-1 0 0 1 735.679 2229.89)" fill="#022838"/>
<ellipse cx="100.777" cy="67.9498" rx="100.777" ry="67.9498" transform="matrix(-1 0 0 1 735.679 2229.89)" fill="#022838"/>
<ellipse cx="100.777" cy="67.9498" rx="100.777" ry="67.9498" transform="matrix(-1 0 0 1 735.679 2229.89)" fill="#466E7E"/>
<ellipse cx="58.653" cy="50.3513" rx="58.653" ry="50.3513" transform="matrix(-1 0 0 1 562.928 2277.79)" fill="#022838"/>
<ellipse cx="58.653" cy="50.3513" rx="58.653" ry="50.3513" transform="matrix(-1 0 0 1 562.928 2277.79)" fill="#022838"/>
<ellipse cx="58.653" cy="50.3513" rx="58.653" ry="50.3513" transform="matrix(-1 0 0 1 562.928 2277.79)" fill="#022838"/>
<ellipse cx="58.653" cy="50.3513" rx="58.653" ry="50.3513" transform="matrix(-1 0 0 1 562.928 2277.79)" fill="#466E7E"/>
<path d="M713.3 2347.89C713.3 2375.81 739.56 2373.57 771.953 2373.57C804.347 2373.57 830.606 2375.81 830.606 2347.89C830.606 2319.98 804.347 2297.35 771.953 2297.35C739.56 2297.35 713.3 2319.98 713.3 2347.89Z" fill="#022838"/>
<path d="M713.3 2347.89C713.3 2375.81 739.56 2373.57 771.953 2373.57C804.347 2373.57 830.606 2375.81 830.606 2347.89C830.606 2319.98 804.347 2297.35 771.953 2297.35C739.56 2297.35 713.3 2319.98 713.3 2347.89Z" fill="#022838"/>
<path d="M713.3 2347.89C713.3 2375.81 739.56 2373.57 771.953 2373.57C804.347 2373.57 830.606 2375.81 830.606 2347.89C830.606 2319.98 804.347 2297.35 771.953 2297.35C739.56 2297.35 713.3 2319.98 713.3 2347.89Z" fill="#022838"/>
<path d="M713.3 2347.89C713.3 2375.81 739.56 2373.57 771.953 2373.57C804.347 2373.57 830.606 2375.81 830.606 2347.89C830.606 2319.98 804.347 2297.35 771.953 2297.35C739.56 2297.35 713.3 2319.98 713.3 2347.89Z" fill="#466E7E"/>
<path d="M405.097 2367.11C405.097 2380.79 503.207 2377.92 622.739 2377.92C742.272 2377.92 850.86 2382.04 850.86 2368.36C850.86 2354.68 745.093 2338.42 625.561 2338.42C506.028 2338.42 405.097 2353.43 405.097 2367.11Z" fill="#022838"/>
<path d="M405.097 2367.11C405.097 2380.79 503.207 2377.92 622.739 2377.92C742.272 2377.92 850.86 2382.04 850.86 2368.36C850.86 2354.68 745.093 2338.42 625.561 2338.42C506.028 2338.42 405.097 2353.43 405.097 2367.11Z" fill="#022838"/>
<path d="M405.097 2367.11C405.097 2380.79 503.207 2377.92 622.739 2377.92C742.272 2377.92 850.86 2382.04 850.86 2368.36C850.86 2354.68 745.093 2338.42 625.561 2338.42C506.028 2338.42 405.097 2353.43 405.097 2367.11Z" fill="#022838"/>
<path d="M405.097 2367.11C405.097 2380.79 503.207 2377.92 622.739 2377.92C742.272 2377.92 850.86 2382.04 850.86 2368.36C850.86 2354.68 745.093 2338.42 625.561 2338.42C506.028 2338.42 405.097 2353.43 405.097 2367.11Z" fill="#466E7E"/>
</g>
<g opacity="0.8" clip-path="url(#clip2_323_1092)">
<path d="M1479.09 2038.13L1203.39 2040.33L1203.42 2044.81L1479.13 2042.61L1479.09 2038.13Z" fill="#C6C895"/>
<path d="M1268.53 2182.5L1477.83 2038.55L1528.86 1995.67L1565.66 1971.33L1587.79 1936.44L1539.65 1928.59L1501.02 1938.61L1499.91 1934.25L1539.89 1924.08L1595.16 1933.13L1568.54 1974.8L1531.56 1999.25L1480.53 2042.14L1271.04 2186.21L1268.53 2182.5Z" fill="#C6C895"/>
<path d="M1584.2 1939.63C1586.86 1943.65 1592.28 1944.75 1596.31 1942.09C1600.34 1939.43 1601.44 1934.01 1598.78 1929.98C1596.12 1925.96 1590.7 1924.85 1586.67 1927.52C1582.64 1930.18 1581.54 1935.6 1584.2 1939.63Z" fill="#C6C895"/>
<path d="M1493.18 1941.22C1495.84 1945.25 1501.26 1946.35 1505.29 1943.69C1509.32 1941.02 1510.42 1935.6 1507.76 1931.58C1505.1 1927.55 1499.68 1926.45 1495.65 1929.11C1491.62 1931.78 1490.52 1937.2 1493.18 1941.22Z" fill="#C6C895"/>
<path d="M1556.39 1980.15C1560.37 1986.17 1568.49 1987.83 1574.52 1983.84C1580.55 1979.85 1582.21 1971.73 1578.22 1965.7C1574.24 1959.68 1566.12 1958.03 1560.09 1962.01C1554.06 1966 1552.4 1974.12 1556.39 1980.15Z" fill="#C6C895"/>
<path d="M1259.56 2191.12C1263.28 2196.75 1270.87 2198.3 1276.51 2194.57C1282.15 2190.84 1283.7 2183.25 1279.97 2177.61C1276.25 2171.98 1268.66 2170.43 1263.02 2174.16C1257.38 2177.89 1255.83 2185.48 1259.56 2191.12Z" fill="#C6C895"/>
<path d="M1457.3 2054.81C1465.24 2066.82 1481.43 2070.11 1493.45 2062.16C1505.47 2054.21 1508.77 2038.03 1500.83 2026.02C1492.89 2014.01 1476.7 2010.72 1464.68 2018.67C1452.66 2026.61 1449.36 2042.8 1457.3 2054.81Z" fill="#C6C895"/>
<path d="M1532.24 1931.13C1534.9 1935.15 1540.33 1936.25 1544.35 1933.59C1548.38 1930.93 1549.49 1925.5 1546.83 1921.48C1544.16 1917.46 1538.74 1916.35 1534.71 1919.02C1530.69 1921.68 1529.58 1927.1 1532.24 1931.13Z" fill="#C6C895"/>
<path d="M1523.03 2002.21C1525.69 2006.23 1531.11 2007.34 1535.14 2004.67C1539.17 2002.01 1540.27 1996.59 1537.61 1992.56C1534.95 1988.54 1529.53 1987.44 1525.5 1990.1C1521.47 1992.76 1520.37 1998.18 1523.03 2002.21Z" fill="#C6C895"/>
</g>
<g opacity="0.7" clip-path="url(#clip3_323_1092)">
<path style="mix-blend-mode:color-dodge" d="M112.478 762.849C109.83 755.047 114.026 746.566 121.828 743.943C129.637 741.283 597.686 607.935 597.686 607.935C597.686 607.935 139.181 769.581 131.37 772.214C123.57 774.856 115.117 770.651 112.477 762.84L112.478 762.849Z" fill="url(#paint7_linear_323_1092)"/>
</g>
<g opacity="0.7" clip-path="url(#clip4_323_1092)">
<path fill-rule="evenodd" clip-rule="evenodd" d="M2075.97 1917.43C2030.24 1921.07 1979.19 1944.14 1985.51 2023.54C2057.72 2017.79 2080.99 1980.52 2075.97 1917.43Z" fill="#E9C97A"/>
</g>
<g opacity="0.7" clip-path="url(#clip5_323_1092)">
<path fill-rule="evenodd" clip-rule="evenodd" d="M277.105 2714.75C315.209 2717.79 357.748 2737 352.482 2803.17C292.316 2798.38 272.921 2767.32 277.105 2714.75Z" fill="#E9C97A"/>
</g>
<g opacity="0.7" clip-path="url(#clip6_323_1092)">
<path fill-rule="evenodd" clip-rule="evenodd" d="M247.742 2564.6C306.206 2569.26 371.476 2598.75 363.396 2700.26C271.08 2692.91 241.322 2645.26 247.742 2564.6Z" fill="#E9C97A"/>
</g>
<rect x="-15.6406" y="-12.4375" width="2389.92" height="5962.28" fill="#3F5967" fill-opacity="0.4"/>
</g>
<defs>
<linearGradient id="paint0_linear_323_1092" x1="1205.91" y1="1043.43" x2="1205.91" y2="2779.85" gradientUnits="userSpaceOnUse">
<stop stop-color="#1D3437"/>
<stop offset="1" stop-color="#53949D"/>
</linearGradient>
<linearGradient id="paint1_linear_323_1092" x1="2552.58" y1="2569.99" x2="277.625" y2="2222.07" gradientUnits="userSpaceOnUse">
<stop stop-color="#3A4A3F"/>
<stop offset="1" stop-color="#8AB096"/>
</linearGradient>
<radialGradient id="paint2_radial_323_1092" cx="0" cy="0" r="1" gradientUnits="userSpaceOnUse" gradientTransform="translate(171.781 345.73) rotate(-180) scale(1774.96 1740.82)">
<stop stop-color="#AAAABD"/>
<stop offset="0.09" stop-color="#9696A6"/>
<stop offset="0.32" stop-color="#61616C"/>
<stop offset="0.54" stop-color="#37373D"/>
<stop offset="0.73" stop-color="#19191B"/>
<stop offset="0.89" stop-color="#060607"/>
<stop offset="1"/>
</radialGradient>
<linearGradient id="paint3_linear_323_1092" x1="2604.51" y1="1151.72" x2="1229.37" y2="470.196" gradientUnits="userSpaceOnUse">
<stop offset="0.211171" stop-color="#353F31"/>
<stop offset="0.401966" stop-color="#353F31"/>
<stop offset="1" stop-color="#AC9962"/>
</linearGradient>
<linearGradient id="paint4_linear_323_1092" x1="30.4193" y1="1797.61" x2="1628.74" y2="-256.75" gradientUnits="userSpaceOnUse">
<stop stop-color="#353F31"/>
<stop offset="1" stop-color="#F5ECA1"/>
</linearGradient>
<linearGradient id="paint5_linear_323_1092" x1="1357.62" y1="3672.75" x2="624.851" y2="-871.686" gradientUnits="userSpaceOnUse">
<stop stop-color="#3D4D42"/>
<stop offset="1" stop-color="#8EB399"/>
</linearGradient>
<linearGradient id="paint6_linear_323_1092" x1="1357.62" y1="3672.75" x2="624.851" y2="-871.686" gradientUnits="userSpaceOnUse">
<stop stop-color="#3D4D42"/>
<stop offset="1" stop-color="#8EB399"/>
</linearGradient>
<linearGradient id="paint7_linear_323_1092" x1="632.681" y1="594.639" x2="153.053" y2="756.549" gradientUnits="userSpaceOnUse">
<stop offset="0.15"/>
<stop offset="0.41" stop-color="#010102"/>
<stop offset="0.53" stop-color="#080809"/>
<stop offset="0.61" stop-color="#141316"/>
<stop offset="0.69" stop-color="#252428"/>
<stop offset="0.75" stop-color="#3C393F"/>
<stop offset="0.81" stop-color="#57535C"/>
<stop offset="0.87" stop-color="#78727F"/>
<stop offset="0.92" stop-color="#9E96A7"/>
<stop offset="0.96" stop-color="#C7BDD3"/>
<stop offset="1" stop-color="#F1E5FF"/>
</linearGradient>
<clipPath id="clip0_323_1092">
<rect width="2375.84" height="2838.81" fill="white" transform="translate(0 0.0761719)"/>
</clipPath>
<clipPath id="clip1_323_1092">
<rect width="535.256" height="591.372" fill="white" transform="translate(301.868 2202.17) rotate(-14.4295)"/>
</clipPath>
<clipPath id="clip2_323_1092">
<rect width="178.305" height="426.994" fill="white" transform="translate(1529.21 1824.79) rotate(56.5215)"/>
</clipPath>
<clipPath id="clip3_323_1092">
<rect width="495.814" height="129.819" fill="white" transform="translate(103.229 644.605) rotate(-4.24152)"/>
</clipPath>
<clipPath id="clip4_323_1092">
<rect width="98.5915" height="98.5915" fill="white" transform="translate(2075.97 1917.43) rotate(85.4488)"/>
</clipPath>
<clipPath id="clip5_323_1092">
<rect width="82.1543" height="82.1543" fill="white" transform="matrix(-0.0793499 0.996847 0.996847 0.0793499 277.105 2714.75)"/>
</clipPath>
<clipPath id="clip6_323_1092">
<rect width="126.053" height="126.053" fill="white" transform="matrix(-0.0793499 0.996847 0.996847 0.0793499 247.742 2564.6)"/>
</clipPath>
</defs>
</svg>
