<svg width="1920" height="2747" viewBox="0 0 1920 2747" fill="none" xmlns="http://www.w3.org/2000/svg">
<g clip-path="url(#clip0_5001_237)">
<rect width="1920" height="2747" fill="white"/>
<rect width="1920" height="4159" fill="url(#paint0_linear_5001_237)"/>
<path opacity="0.65" d="M2227.63 2764H-213V2303L28.0787 2383.13L365.807 2357.46L467.098 2383.13L615.015 2453.71L941.398 2383.13L1108.61 2410.65L1357.82 2424.58L1560.66 2334.08L1996.11 2399.25L2227.63 2333.97V2764Z" fill="#607B7D"/>
<path opacity="0.45" d="M-175.863 2304.34V2716H2264.77V2259.43L2115.33 2202L1962.82 2237.97L1424.99 2364.82L1244.6 2299.83L1097.51 2304.34L933.578 2327.97L928.354 2330.09L846.171 2363.44L681.092 2390.64L601.268 2339.87L439.554 2310.59L379.534 2294.04L281.139 2266.89L210.008 2259.43L71.41 2238.57L-40.1338 2268.24L-57.2003 2272.78L-92.7133 2282.23L-145.486 2296.26L-146.832 2296.62L-175.863 2304.34Z" fill="#2C3739" fill-opacity="0.5"/>
<g opacity="0.64">
<path d="M-282.385 2653.81C-276.135 2640.47 -264.88 2641.48 -251.936 2638.09C-228.559 2605.12 -180.59 2629.34 -181.914 2657.1C-166.11 2657.85 -157.423 2672.59 -155.325 2680.29C-153.987 2678.5 -146.863 2677.58 -143.468 2677.35C-129.075 2664.6 -109.411 2680.14 -101.378 2689.51C-84.262 2692.18 -83.6298 2708.88 -85.4532 2716.9C-73.7934 2721.51 -70.3057 2733.43 -70.0193 2738.81C-54.3821 2739.91 -41.6337 2745.78 -37.2141 2748.58C-25.2439 2740.38 -13.77 2751.43 -9.52929 2757.99C12.9738 2760.16 14.7799 2778.61 12.8701 2787.56C17.7095 2786.99 22.4279 2790.36 24.1822 2792.11C28.3069 2793.91 26.5031 2808.26 25.0856 2815.21C42.1277 2819.44 43.8551 2831.56 42.5885 2837.1C54.0862 2844.07 58.6349 2856.25 59.472 2861.47C84.3449 2861.25 84.0288 2875.59 80.7616 2882.78C92.6504 2881.54 92.312 2884.08 90.6568 2885.51C85.9056 2885.28 59.8277 2885.54 58.3988 2883.97C57.2558 2882.71 59.6612 2882.03 61.0068 2881.84C59.0063 2881.74 55.4103 2880.07 53.8623 2879.24C39.5849 2880.12 18.4677 2876.91 9.69383 2875.2L-18.6882 2873.84L-71.2636 2871.33C-119.313 2866.69 -173.688 2869.14 -194.869 2870.95C-181.666 2871.58 -178.679 2874.82 -178.835 2876.36C-208.657 2878.05 -270.693 2881.11 -280.257 2879.85C-289.821 2878.59 -293.98 2873.31 -294.864 2870.82C-303.947 2867.88 -341.383 2869.65 -358.966 2870.9C-372.019 2870.28 -386.103 2867.52 -391.513 2866.21L-468.532 2862.54C-473.933 2862.28 -484.427 2863.87 -488.998 2864.7C-491.595 2864.41 -497.619 2863.89 -500.939 2864.13C-504.259 2864.37 -508.141 2861.86 -509.667 2860.58C-509.347 2853.88 -503.468 2854.98 -500.569 2856.38L-476.926 2853.31C-469.288 2842.39 -459.578 2835.52 -455.678 2833.45C-432.989 2821.2 -412.883 2829.94 -405.666 2835.84C-392.348 2808.84 -363.606 2809.21 -366.511 2807.07C-368.836 2805.35 -370.973 2802.51 -371.75 2801.3C-393.716 2799.42 -437.819 2795.04 -438.505 2792.61C-439.19 2790.17 -430.709 2790.3 -426.383 2790.68C-426.935 2785.44 -393.827 2787.72 -377.204 2789.51C-377.698 2774.65 -366.977 2767.78 -361.555 2766.2C-352.827 2734.54 -330.608 2726.91 -320.59 2727.05C-320.875 2712 -310.538 2705.47 -303.203 2698.81C-297.334 2693.47 -283.801 2691.38 -277.767 2691C-290.708 2671.56 -290.212 2670.5 -282.663 2654.4L-282.385 2653.81Z" fill="white"/>
<path opacity="0.6" fill-rule="evenodd" clip-rule="evenodd" d="M-155.327 2680.29C-155.652 2679.23 -156.443 2676.91 -157.005 2676.08L-160 2678.44C-165.484 2673.88 -180.602 2667.13 -197.197 2676.67C-197.932 2677.63 -199.731 2679.88 -201.046 2681.17C-201.136 2681.26 -201.255 2681.38 -201.402 2681.51C-203.932 2683.9 -214.397 2693.75 -214.882 2715.11C-218.628 2715.26 -227.342 2715.96 -232.226 2717.48C-232.833 2716.63 -235.041 2714.75 -239.013 2713.96C-242.694 2708.79 -255.221 2700.9 -275.888 2710.7C-296.556 2720.49 -305.629 2732.15 -307.583 2736.75C-311.624 2737.42 -320.361 2741.41 -322.974 2752.06C-333.452 2756.28 -352.736 2768.61 -346.06 2784.17C-347.463 2789.07 -346.756 2801.92 -332.698 2814.07C-333.282 2815.35 -334.456 2818.61 -334.485 2821.31C-337.962 2818.45 -347.401 2813.87 -357.342 2818.4C-361.559 2821 -369.483 2827.58 -367.44 2833.09C-375.802 2833.67 -393.003 2837.79 -394.921 2849.63C-395.556 2849.37 -397.383 2848.96 -399.61 2849.41C-403.896 2845.11 -416.824 2836.96 -434.252 2838.74C-437.969 2836.97 -449.644 2836.96 -466.606 2851.04C-468.212 2852.3 -468.928 2854.54 -458.95 2853.41L-451.948 2853.74C-450.898 2853.79 -489.705 2858.46 -509.239 2860.79C-508.747 2861.85 -506.338 2864.06 -500.636 2864.33L-488.821 2864.89C-484.437 2864.06 -474.531 2862.44 -469.98 2862.66L-421.53 2864.97L-391.648 2866.39C-383.976 2868.01 -366.751 2871.19 -359.221 2870.95C-355.414 2870.83 -350.482 2870.52 -345.328 2870.2L-345.327 2870.2L-345.326 2870.2C-337.734 2869.73 -329.66 2869.23 -323.988 2869.24L-323.208 2869.25L-323.208 2869.25L-323.208 2869.25L-323.208 2869.25C-313.641 2869.26 -298.892 2869.28 -295.419 2870.61C-293.813 2874.15 -287.244 2881.03 -273.822 2880.22L-234.669 2879.08L-178.527 2876.43C-178.701 2874.81 -182.123 2871.44 -194.426 2870.85L-149.284 2868.93C-140.357 2868.75 -120.404 2868.51 -112.007 2869.01L-109.772 2869.15C-98.0397 2869.85 -73.6139 2871.3 -70.4671 2871.68C-67.7759 2872.01 -15.8326 2874.37 9.80272 2875.51C16.6049 2876.96 34.9265 2879.76 53.7956 2879.3C55.1133 2880.14 58.399 2881.84 60.9996 2881.96C58.6785 2882.46 55.4028 2883.7 60.8684 2884.71C66.334 2885.73 83.109 2886.09 90.8133 2886.14C92.6482 2884.45 93.2237 2881.32 80.8467 2882.28C84.1228 2875.34 84.436 2861.41 59.4797 2861.28C58.212 2855.45 53.0329 2842.47 42.4593 2837.16C43.8916 2831.65 42.4449 2819.59 25.2005 2815.41C26.7043 2808.84 28.6324 2794.94 24.3149 2791.93C22.4534 2790.23 17.5594 2786.96 12.8749 2787.44C15.3948 2781.02 12.8863 2767.49 -17.3067 2764.69C-20.9742 2763.2 -30.4973 2760.91 -39.2496 2763.65C-42.6161 2757.6 -55.0512 2746.03 -77.8594 2748.15C-106.37 2750.8 -133.121 2715.25 -109.814 2703.45C-106.508 2702.46 -97.5125 2703.55 -87.9729 2715.83C-87.3169 2715.22 -86.6979 2713.01 -89.4698 2709.12C-92.9346 2704.26 -105.389 2690.82 -117.384 2697.95C-122.636 2693.78 -136.277 2688.14 -148.826 2699.02C-151.119 2701.98 -155.287 2709.69 -153.623 2716.84L-153.912 2722.9C-159.72 2725.57 -171.428 2733.35 -171.793 2743.1C-182.017 2743.33 -204.182 2747.72 -211.051 2763.54C-217.664 2762.49 -232.495 2766.21 -238.917 2789.47C-232.897 2788.48 -219.154 2787.35 -212.348 2790.73C-203.84 2794.96 -195.333 2800.5 -191.809 2815.96C-192.007 2817.48 -195.247 2815.8 -199.483 2810.02C-201.197 2807.68 -212.2 2806.55 -217.559 2810.66C-217.747 2810.8 -217.937 2810.95 -218.13 2811.1L-218.382 2811.29L-218.386 2811.3C-225.022 2816.41 -234.241 2823.52 -251.068 2819.59C-253.198 2823.08 -259.712 2830.57 -268.731 2832.59C-279.653 2835.05 -279.762 2835.19 -281.28 2837.24C-281.328 2837.3 -281.379 2837.37 -281.431 2837.44C-281.59 2837.43 -281.811 2837.39 -282.089 2837.35L-282.089 2837.35C-285.42 2836.79 -296.994 2834.85 -309.955 2865.34C-311.94 2861.86 -313.302 2852.23 -302.868 2841.55C-292.434 2830.87 -283.981 2829.15 -281.058 2829.62C-280.372 2822.68 -274.876 2809.29 -258.379 2811.28C-258.195 2806.55 -256.234 2796.53 -249.864 2794.33C-252.104 2789.63 -252.809 2776.99 -237.704 2764.02C-239.317 2760.62 -240.291 2751.78 -231.278 2743.59C-222.266 2735.4 -213.255 2737.05 -209.877 2738.91C-203.207 2728.24 -184.314 2710.03 -162.102 2722.51C-160.439 2723.11 -158.415 2722.73 -163.626 2716.36C-165.749 2709.64 -167.061 2693.02 -155.327 2680.29ZM-286.588 2676.22C-283.742 2682.24 -277.715 2691.19 -277.715 2691.19C-273.476 2689.88 -262.398 2687.17 -250.967 2691.32C-250.967 2691.32 -244.627 2697.65 -238.25 2697.95C-231.873 2698.24 -220.678 2691.06 -223.364 2680.11C-223.49 2680.4 -223.614 2680.69 -223.739 2680.99C-225.855 2685.98 -228.085 2691.23 -237.907 2690.77C-240.876 2689.96 -246.342 2686.83 -244.226 2676.11C-245.306 2674.22 -249.518 2671.44 -257.729 2675.46C-260.325 2677.34 -286.588 2676.22 -286.588 2676.22ZM-186.472 2852.49C-182.093 2850.03 -172.025 2847.02 -166.776 2854.68C-163.446 2851.42 -154.704 2845.39 -146.378 2847.39C-148.068 2840.79 -147.224 2825.19 -130.324 2815.57C-130.732 2806.61 -125.519 2788.38 -101.398 2787.12C-101.302 2787.05 -101.166 2786.94 -100.99 2786.79C-98.3354 2784.56 -86.6918 2774.77 -67.0445 2786.76C-63.0037 2784.36 -50.9402 2782.26 -35.0131 2793.05C-33.9454 2793.43 -31.7743 2793.45 -31.6312 2790.45C-35.5922 2785.92 -46.8793 2776.99 -60.3398 2777.55C-61.1571 2771.92 -65.6926 2762.61 -77.296 2770.48C-82.3683 2764.72 -96.9165 2755.16 -114.531 2762.94C-132.674 2770.95 -134.332 2782.99 -135.146 2788.9C-135.32 2790.17 -135.455 2791.15 -135.705 2791.75C-136.726 2792.37 -137.78 2792.91 -138.845 2793.45C-143.426 2795.8 -148.205 2798.25 -151.472 2807.04C-151.789 2808.45 -152.075 2812.33 -150.675 2816.6C-160.284 2818.4 -170.373 2829.2 -166.287 2844.43L-168.133 2846.35C-170.792 2844.3 -177.447 2840.89 -182.791 2843.65C-185.006 2844.54 -188.843 2847.57 -186.472 2852.49Z" fill="url(#paint1_linear_5001_237)"/>
</g>
<path d="M-175.025 2016.51C-162.48 1992.69 -140.228 1994.38 -114.575 1988.19C-67.8823 1929.22 26.6844 1971.84 23.6898 2021.3C54.9439 2022.47 71.9299 2048.63 75.9744 2062.33C78.6467 2059.13 92.7525 2057.42 99.4713 2056.96C128.116 2034.1 166.807 2061.57 182.572 2078.17C216.396 2082.74 217.42 2112.48 213.704 2126.78C236.708 2134.88 243.446 2156.07 243.94 2165.65C274.859 2167.43 299.999 2177.76 308.705 2182.7C332.496 2167.97 355.045 2187.53 363.345 2199.16C407.833 2202.79 411.156 2235.63 407.256 2251.6C416.838 2250.53 426.126 2256.48 429.573 2259.58C437.708 2262.75 433.946 2288.33 431.047 2300.72C464.704 2308.06 467.957 2329.64 465.376 2339.52C488.027 2351.8 496.861 2373.45 498.446 2382.73C547.654 2382.08 546.834 2407.62 540.274 2420.47C563.81 2418.14 563.106 2422.67 559.812 2425.23C550.416 2424.87 498.823 2425.62 496.018 2422.83C493.774 2420.6 498.542 2419.35 501.206 2419.01C497.25 2418.86 490.159 2415.91 487.108 2414.46C458.851 2416.17 417.119 2410.68 399.785 2407.72L343.657 2405.61L239.682 2401.71C144.69 2393.94 37.0895 2398.9 -4.83671 2402.35C21.2743 2403.33 27.1397 2409.06 26.8085 2411.8C-32.2104 2415.13 -154.974 2421.25 -173.877 2419.11C-192.781 2416.97 -200.937 2407.6 -202.652 2403.18C-220.581 2398.04 -294.664 2401.59 -329.465 2404C-355.279 2403.03 -383.102 2398.26 -393.787 2396L-546.101 2390.28C-556.783 2389.88 -577.563 2392.82 -586.619 2394.34C-591.752 2393.85 -603.661 2392.99 -610.232 2393.46C-616.803 2393.92 -624.449 2389.5 -627.451 2387.23C-626.728 2375.29 -615.113 2377.2 -609.396 2379.64L-562.582 2373.92C-547.323 2354.4 -528.023 2342.07 -520.279 2338.34C-475.227 2316.27 -435.571 2331.62 -421.374 2342.05C-394.662 2293.82 -337.808 2294.17 -343.526 2290.39C-348.101 2287.36 -352.29 2282.32 -353.812 2280.18C-397.241 2277.06 -484.428 2269.73 -485.752 2265.4C-487.075 2261.06 -470.299 2261.21 -461.745 2261.83C-462.766 2252.51 -397.3 2256.22 -364.44 2259.24C-365.217 2232.77 -343.915 2220.41 -333.167 2217.54C-315.472 2161.05 -271.414 2147.23 -251.597 2147.37C-251.956 2120.57 -231.42 2108.84 -216.818 2096.88C-205.136 2087.32 -178.334 2083.44 -166.394 2082.7C-192.037 2047.8 -190.706 2046.29 -175.025 2016.51Z" fill="white"/>
<path d="M23.8167 2023.31C24.3778 2014.05 19.0844 2000.51 16.0933 1995.34C6.58375 2021.41 -23.9997 2027.17 -37.8284 2026.36C-30.9662 2030.9 -27.4165 2034.49 -26.4993 2035.71C-2.02026 2036.63 13.6923 2026.8 23.8167 2023.31Z" fill="#B5EDF8"/>
<path opacity="0.6" fill-rule="evenodd" clip-rule="evenodd" d="M78.3315 2057.67C77.7354 2055.75 76.2751 2051.54 75.2031 2050.04L69.2044 2054.43C58.5952 2046.26 29.1047 2034.39 -3.98442 2052.2C-5.4729 2053.97 -9.11116 2058.11 -11.756 2060.51C-11.9359 2060.68 -12.1754 2060.88 -12.4677 2061.14L-12.4708 2061.14C-17.5553 2065.55 -38.5834 2083.77 -40.4418 2122.68C-47.8265 2123.07 -65.0175 2124.56 -74.7027 2127.46C-75.863 2125.94 -80.1315 2122.57 -87.9222 2121.24C-94.9525 2111.93 -119.293 2097.9 -160.415 2116.29C-201.536 2134.68 -219.899 2156.16 -223.941 2164.6C-231.93 2165.91 -249.306 2173.41 -254.903 2192.88C-275.718 2200.85 -314.223 2223.82 -301.729 2251.97C-304.7 2260.94 -303.849 2284.31 -276.674 2306.06C-277.878 2308.42 -280.328 2314.37 -280.499 2319.3C-287.226 2314.19 -305.624 2306.09 -325.396 2314.62C-333.812 2319.47 -349.698 2331.65 -345.906 2341.63C-362.399 2342.92 -396.455 2350.89 -400.733 2372.5C-401.973 2372.05 -405.553 2371.35 -409.958 2372.22C-418.218 2364.51 -443.337 2350.01 -477.739 2353.72C-484.986 2350.6 -507.98 2350.9 -541.984 2377C-545.2 2379.33 -546.706 2383.43 -527.004 2381.11L-513.227 2381.53C-511.161 2381.59 -587.793 2391.13 -626.368 2395.89C-625.444 2397.82 -620.791 2401.77 -609.573 2402.11L-586.324 2402.82C-577.654 2401.18 -558.075 2397.97 -549.12 2398.24L-453.79 2401.15L-394.993 2402.94C-379.951 2405.68 -346.158 2411 -331.315 2410.35C-323.813 2410.03 -314.085 2409.34 -303.919 2408.62C-288.946 2407.56 -273.021 2406.44 -261.849 2406.3L-260.313 2406.28L-260.312 2406.28C-241.471 2406.05 -212.42 2405.7 -205.635 2408.01C-202.621 2414.42 -189.975 2426.78 -163.503 2424.94L-86.3384 2421.81L24.3527 2415.47C24.0792 2412.53 17.4801 2406.47 -6.72756 2405.73L82.2673 2401.02C99.8574 2400.45 139.167 2399.49 155.686 2400.17L160.072 2400.35C183.146 2401.31 231.209 2403.3 237.391 2403.91C242.678 2404.44 344.888 2407.34 395.332 2408.72C408.668 2411.18 444.637 2415.77 481.821 2414.44C484.381 2415.92 490.781 2418.93 495.898 2419.09C491.306 2420.05 484.801 2422.41 495.524 2424.1C506.246 2425.8 539.271 2426 554.444 2425.89C558.129 2422.77 559.395 2417.05 534.976 2419.14C541.722 2406.4 542.927 2381.04 493.778 2381.46C491.527 2370.89 481.874 2347.39 461.273 2338C464.326 2327.93 461.986 2306 428.198 2298.85C431.437 2286.85 435.821 2261.5 427.445 2256.13C423.85 2253.09 414.349 2247.26 405.102 2248.25C410.336 2236.5 405.967 2211.92 346.616 2207.65C339.455 2205.04 320.795 2201.11 303.44 2206.34C297.065 2195.41 273.061 2174.68 228.048 2179.15C171.781 2184.75 120.592 2120.73 166.997 2098.62C173.549 2096.73 191.222 2098.47 209.493 2120.58C210.811 2119.44 212.123 2115.41 206.828 2108.4C200.209 2099.63 176.245 2075.5 152.319 2088.81C142.151 2081.35 115.521 2071.46 90.3441 2091.61C85.7039 2097.06 77.1673 2111.21 80.1434 2124.18L79.3177 2135.23C67.7651 2140.25 44.3771 2154.72 43.2461 2172.5C23.0996 2173.18 -20.743 2181.79 -34.9409 2210.77C-47.9214 2209.04 -77.2899 2216.22 -90.9212 2258.73C-79.0216 2256.77 -51.9065 2254.35 -38.6435 2260.32C-22.0648 2267.79 -5.54194 2277.66 0.745692 2305.71C0.292559 2308.47 -6.01966 2305.5 -14.1186 2295.1C-17.3945 2290.89 -39.0206 2289.13 -49.7487 2296.75C-50.2916 2297.14 -50.843 2297.53 -51.4036 2297.93C-64.6906 2307.43 -83.1492 2320.61 -116.126 2313.91C-120.468 2320.33 -133.615 2334.14 -151.465 2338.07C-173.081 2342.83 -173.301 2343.1 -176.377 2346.86L-176.385 2346.87L-176.424 2346.92C-176.508 2347.02 -176.595 2347.13 -176.684 2347.24C-176.997 2347.23 -177.43 2347.17 -177.976 2347.09L-177.976 2347.09L-177.977 2347.09C-184.513 2346.16 -207.228 2342.94 -234.043 2398.81C-237.807 2392.53 -240.083 2375.04 -219.081 2355.31C-198.078 2335.58 -181.356 2332.21 -175.62 2333C-173.975 2320.34 -162.583 2295.81 -130.175 2298.98C-129.613 2290.36 -125.328 2272.07 -112.687 2267.89C-116.901 2259.39 -117.755 2236.38 -87.457 2212.37C-90.491 2206.22 -92.035 2190.14 -73.9382 2174.98C-55.8412 2159.82 -38.1639 2162.6 -31.5873 2165.88C-17.9995 2146.28 19.9817 2112.6 63.2037 2134.74C66.4539 2135.79 70.4561 2135.03 60.4623 2123.58C56.5644 2111.4 54.681 2081.16 78.3315 2057.67ZM-180.033 2053.79C-174.682 2064.69 -163.188 2080.81 -163.188 2080.81C-154.784 2078.32 -132.85 2073.09 -110.51 2080.34C-110.51 2080.34 -98.2898 2091.69 -85.7421 2092.06C-73.1944 2092.43 -50.8422 2079.05 -55.6693 2059.18C-55.9284 2059.71 -56.1855 2060.25 -56.4434 2060.78L-56.4459 2060.79C-60.824 2069.93 -65.4381 2079.56 -84.7643 2078.97C-90.5779 2077.58 -101.211 2072.04 -96.5908 2052.45C-98.6373 2049.04 -106.816 2044.1 -123.16 2051.64C-128.353 2055.14 -180.033 2053.79 -180.033 2053.79ZM12.0494 2371.61C20.7426 2367.05 40.6225 2361.35 50.5966 2375.04C57.2679 2369.06 74.6728 2357.95 90.9227 2361.33C87.8837 2349.48 90.1959 2321.32 123.756 2303.52C123.332 2287.37 134.328 2254.34 181.701 2251.44C181.894 2251.3 182.166 2251.09 182.516 2250.82C187.819 2246.72 211.073 2228.76 249.115 2249.86C257.143 2245.43 280.898 2241.32 311.691 2260.35C313.77 2261.01 318.029 2260.99 318.436 2255.57C310.855 2247.5 289.087 2231.7 262.655 2233.08C261.289 2222.93 252.783 2206.27 229.687 2220.77C219.978 2210.52 191.839 2193.66 156.954 2208.16C121.023 2223.1 117.265 2244.86 115.418 2255.54C115.024 2257.83 114.717 2259.6 114.202 2260.7C112.172 2261.83 110.082 2262.84 107.971 2263.85C98.8843 2268.21 89.4047 2272.75 82.6263 2288.7C81.944 2291.24 81.2212 2298.25 83.788 2305.93C64.8596 2309.42 44.6121 2329.17 51.9871 2356.53L48.2852 2360.04C43.1542 2356.42 30.2421 2350.45 19.6414 2355.56C15.2583 2357.23 7.60363 2362.79 12.0494 2371.61Z" fill="url(#paint2_linear_5001_237)"/>
<path d="M235.746 2418.43C273.952 2414.01 299.198 2418.07 307.045 2420.65C302.624 2422.94 278.702 2424.44 267.294 2424.91C271.773 2426.21 287.481 2429.84 314.486 2433.85C341.491 2437.87 348.159 2441.14 348.118 2442.26C343.685 2443.14 322.476 2445.3 273.099 2446.95C223.722 2448.59 204.117 2443.48 200.486 2440.72C186.349 2439.61 154.956 2437.1 142.484 2435.87C126.895 2434.34 130.551 2426.62 147.506 2424.69C161.071 2423.15 211.985 2419.88 235.746 2418.43Z" fill="white"/>
<path d="M241.293 2424C250.701 2419.78 288.258 2419.83 305.86 2420.38C300.114 2423.2 277.859 2424.51 267.449 2424.81L282.475 2429.03L251.383 2428.07C246.646 2427.92 242.682 2425.29 241.293 2424Z" fill="#AFD0D0"/>
<path d="M198.083 2426.4C182.685 2425.92 148.576 2429.24 133.447 2430.96C123.589 2435.91 174.663 2440.07 201.432 2441.53C237.084 2451.87 313.835 2446.69 347.754 2442.8C348.372 2441.1 346.55 2437.6 334.311 2437.22C319.011 2436.74 292.479 2441.08 289.024 2440.97C270.401 2435.89 245.731 2437.74 235.724 2439.31C190.973 2439.79 191.984 2430.91 198.083 2426.4Z" fill="#AFD0D0"/>
<path d="M1544.98 2370.81C1557.52 2346.99 1579.77 2348.67 1605.42 2342.49C1652.12 2283.52 1746.68 2326.14 1743.69 2375.59C1774.94 2376.77 1791.93 2402.93 1795.97 2416.63C1798.65 2413.43 1812.75 2411.72 1819.47 2411.26C1848.12 2388.4 1886.81 2415.87 1902.57 2432.47C1936.4 2437.04 1937.42 2466.78 1933.7 2481.08C1956.71 2489.18 1963.45 2510.37 1963.94 2519.95C1994.86 2521.73 2020 2532.06 2028.7 2537C2052.5 2522.27 2075.04 2541.83 2083.35 2553.46C2127.83 2557.09 2131.16 2589.93 2127.26 2605.9C2136.84 2604.83 2146.13 2610.77 2149.57 2613.88C2157.71 2617.04 2153.95 2642.62 2151.05 2655.02C2184.7 2662.35 2187.96 2683.94 2185.38 2693.82C2208.03 2706.1 2216.86 2727.74 2218.45 2737.03C2267.65 2736.38 2266.83 2761.92 2260.27 2774.77C2283.81 2772.44 2283.11 2776.97 2279.81 2779.53C2270.42 2779.17 2218.82 2779.91 2216.02 2777.13C2213.77 2774.9 2218.54 2773.65 2221.21 2773.31C2217.25 2773.16 2210.16 2770.21 2207.11 2768.76C2178.85 2770.46 2137.12 2764.98 2119.79 2762.02L2063.66 2759.91L1959.68 2756.01C1864.69 2748.24 1757.09 2753.2 1715.16 2756.65C1741.27 2757.63 1747.14 2763.35 1746.81 2766.1C1687.79 2769.42 1565.03 2775.55 1546.12 2773.41C1527.22 2771.27 1519.06 2761.9 1517.35 2757.48C1499.42 2752.34 1425.34 2755.88 1390.54 2758.3C1364.72 2757.33 1336.9 2752.56 1326.21 2750.3L1173.9 2744.58C1163.22 2744.18 1142.44 2747.12 1133.38 2748.64C1128.25 2748.15 1116.34 2747.29 1109.77 2747.75C1103.2 2748.22 1095.55 2743.8 1092.55 2741.53C1093.27 2729.59 1104.89 2731.5 1110.6 2733.94L1157.42 2728.22C1172.68 2708.7 1191.98 2696.36 1199.72 2692.64C1244.77 2670.57 1284.43 2685.92 1298.63 2696.35C1325.34 2648.12 1382.19 2648.47 1376.47 2644.69C1371.9 2641.66 1367.71 2636.62 1366.19 2634.47C1322.76 2631.36 1235.57 2624.03 1234.25 2619.7C1232.92 2615.36 1249.7 2615.51 1258.26 2616.13C1257.23 2606.81 1322.7 2610.52 1355.56 2613.54C1354.78 2587.07 1376.08 2574.71 1386.83 2571.84C1404.53 2515.35 1448.59 2501.52 1468.4 2501.67C1468.04 2474.87 1488.58 2463.14 1503.18 2451.18C1514.86 2441.62 1541.67 2437.74 1553.61 2437C1527.96 2402.1 1529.29 2400.59 1544.98 2370.81Z" fill="white"/>
<path d="M1743.82 2377.61C1744.38 2368.34 1739.08 2354.81 1736.09 2349.64C1726.58 2375.71 1696 2381.47 1682.17 2380.65C1689.03 2385.2 1692.58 2388.79 1693.5 2390.01C1717.98 2390.93 1733.69 2381.1 1743.82 2377.61Z" fill="#B5EDF8"/>
<path d="M1639.92 2345.8C1629.5 2341.12 1613.02 2341.21 1606.08 2341.85L1604.03 2343C1621.77 2344.65 1640.03 2350.12 1645.95 2352.61C1645.84 2349.48 1641.88 2346.76 1639.92 2345.8Z" fill="#B5EDF8"/>
<path opacity="0.6" fill-rule="evenodd" clip-rule="evenodd" d="M1798.33 2411.97C1797.74 2410.05 1796.28 2405.84 1795.2 2404.34L1789.2 2408.73C1778.6 2400.56 1749.1 2388.69 1716.02 2406.5C1714.53 2408.27 1710.89 2412.41 1708.24 2414.81C1708.06 2414.97 1707.82 2415.18 1707.53 2415.44L1707.53 2415.44C1702.44 2419.84 1681.42 2438.07 1679.56 2476.98C1672.17 2477.36 1654.98 2478.86 1645.3 2481.76C1644.14 2480.24 1639.87 2476.87 1632.08 2475.54C1625.05 2466.22 1600.71 2452.2 1559.59 2470.59C1518.46 2488.98 1500.1 2510.45 1496.06 2518.89C1488.07 2520.21 1470.69 2527.71 1465.1 2547.18C1444.28 2555.15 1405.78 2578.12 1418.27 2606.27C1415.3 2615.24 1416.15 2638.61 1443.33 2660.36C1442.12 2662.72 1439.67 2668.67 1439.5 2673.6C1432.77 2668.49 1414.38 2660.39 1394.6 2668.92C1386.19 2673.77 1370.3 2685.95 1374.09 2695.93C1357.6 2697.22 1323.54 2705.19 1319.27 2726.8C1318.03 2726.35 1314.45 2725.65 1310.04 2726.52C1301.78 2718.81 1276.66 2704.31 1242.26 2708.02C1235.01 2704.9 1212.02 2705.2 1178.02 2731.29C1174.8 2733.63 1173.29 2737.73 1193 2735.4L1206.77 2735.82C1208.84 2735.89 1132.21 2745.43 1093.63 2750.19C1094.56 2752.12 1099.21 2756.07 1110.43 2756.41L1133.68 2757.12C1142.35 2755.48 1161.93 2752.27 1170.88 2752.54L1266.21 2755.45L1325.01 2757.23C1340.05 2759.98 1373.84 2765.3 1388.68 2764.65C1396.19 2764.33 1405.91 2763.64 1416.08 2762.92C1431.05 2761.86 1446.98 2760.74 1458.15 2760.6L1459.69 2760.58L1459.69 2760.58C1478.53 2760.35 1507.58 2760 1514.36 2762.31C1517.38 2768.72 1530.03 2781.08 1556.5 2779.24L1633.66 2776.11L1744.35 2769.77C1744.08 2766.83 1737.48 2760.77 1713.27 2760.03L1802.27 2755.32C1819.86 2754.75 1859.17 2753.78 1875.69 2754.47L1880.07 2754.65C1903.15 2755.61 1951.21 2757.6 1957.39 2758.21C1962.68 2758.74 2064.89 2761.64 2115.33 2763.02C2128.67 2765.48 2164.64 2770.07 2201.82 2768.73C2204.38 2770.22 2210.78 2773.23 2215.9 2773.39C2211.31 2774.35 2204.8 2776.7 2215.52 2778.4C2226.25 2780.1 2259.27 2780.3 2274.44 2780.19C2278.13 2777.07 2279.39 2771.35 2254.98 2773.44C2261.72 2760.7 2262.93 2735.34 2213.78 2735.76C2211.53 2725.19 2201.87 2701.69 2181.27 2692.29C2184.33 2682.22 2181.99 2660.3 2148.2 2653.15C2151.44 2641.15 2155.82 2615.79 2147.44 2610.42C2143.85 2607.38 2134.35 2601.55 2125.1 2602.55C2130.34 2590.8 2125.97 2566.22 2066.62 2561.95C2059.46 2559.33 2040.8 2555.41 2023.44 2560.64C2017.07 2549.71 1993.06 2528.97 1948.05 2533.45C1891.78 2539.05 1840.59 2475.03 1887 2452.92C1893.55 2451.03 1911.22 2452.77 1929.49 2474.88C1930.81 2473.74 1932.12 2469.71 1926.83 2462.7C1920.21 2453.93 1896.25 2429.8 1872.32 2443.11C1862.15 2435.65 1835.52 2425.76 1810.34 2445.91C1805.7 2451.36 1797.17 2465.51 1800.14 2478.48L1799.32 2489.53C1787.77 2494.55 1764.38 2509.02 1763.25 2526.8C1743.1 2527.48 1699.26 2536.09 1685.06 2565.07C1672.08 2563.34 1642.71 2570.51 1629.08 2613.03C1640.98 2611.07 1668.09 2608.65 1681.36 2614.62C1697.94 2622.09 1714.46 2631.96 1720.75 2660.01C1720.29 2662.77 1713.98 2659.8 1705.88 2649.39C1702.61 2645.18 1680.98 2643.43 1670.25 2651.05C1669.71 2651.44 1669.16 2651.83 1668.6 2652.23C1655.31 2661.72 1636.85 2674.91 1603.87 2668.21C1599.53 2674.63 1586.38 2688.44 1568.54 2692.37C1546.92 2697.13 1546.7 2697.4 1543.62 2701.16L1543.61 2701.17L1543.58 2701.22C1543.49 2701.32 1543.41 2701.43 1543.32 2701.54C1543 2701.53 1542.57 2701.47 1542.02 2701.39L1542.02 2701.39L1542.02 2701.39C1535.49 2700.46 1512.77 2697.24 1485.96 2753.11C1482.19 2746.83 1479.92 2729.34 1500.92 2709.61C1521.92 2689.88 1538.64 2686.51 1544.38 2687.3C1546.03 2674.63 1557.42 2650.11 1589.83 2653.28C1590.39 2644.66 1594.67 2626.37 1607.31 2622.19C1603.1 2613.69 1602.24 2590.68 1632.54 2566.67C1629.51 2560.52 1627.97 2544.44 1646.06 2529.28C1664.16 2514.12 1681.84 2516.9 1688.41 2520.18C1702 2500.58 1739.98 2466.9 1783.2 2489.04C1786.45 2490.09 1790.46 2489.33 1780.46 2477.88C1776.56 2465.7 1774.68 2435.46 1798.33 2411.97ZM1539.97 2408.09C1545.32 2418.99 1556.81 2435.11 1556.81 2435.11C1565.22 2432.62 1587.15 2427.39 1609.49 2434.64C1609.49 2434.64 1621.71 2445.99 1634.26 2446.36C1646.81 2446.72 1669.16 2433.35 1664.33 2413.47C1664.07 2414.01 1663.81 2414.54 1663.56 2415.08L1663.55 2415.09C1659.18 2424.23 1654.56 2433.86 1635.24 2433.27C1629.42 2431.88 1618.79 2426.34 1623.41 2406.75C1621.36 2403.34 1613.18 2398.4 1596.84 2405.94C1591.65 2409.44 1539.97 2408.09 1539.97 2408.09ZM1732.05 2725.91C1740.74 2721.35 1760.62 2715.65 1770.6 2729.34C1777.27 2723.36 1794.67 2712.24 1810.92 2715.63C1807.88 2703.78 1810.2 2675.62 1843.76 2657.81C1843.33 2641.67 1854.33 2608.64 1901.7 2605.73C1901.89 2605.6 1902.17 2605.39 1902.52 2605.12C1907.82 2601.02 1931.07 2583.06 1969.11 2604.16C1977.14 2599.72 2000.9 2595.62 2031.69 2614.64C2033.77 2615.31 2038.03 2615.29 2038.44 2609.87C2030.86 2601.8 2009.09 2586 1982.66 2587.37C1981.29 2577.23 1972.78 2560.57 1949.69 2575.07C1939.98 2564.82 1911.84 2547.95 1876.95 2562.46C1841.02 2577.4 1837.26 2599.15 1835.42 2609.84C1835.02 2612.12 1834.72 2613.9 1834.2 2615C1832.17 2616.13 1830.08 2617.14 1827.97 2618.15C1818.88 2622.51 1809.4 2627.05 1802.63 2643C1801.94 2645.54 1801.22 2652.55 1803.79 2660.22C1784.86 2663.72 1764.61 2683.47 1771.99 2710.83L1768.29 2714.34C1763.15 2710.72 1750.24 2704.75 1739.64 2709.85C1735.26 2711.53 1727.6 2717.09 1732.05 2725.91Z" fill="url(#paint3_linear_5001_237)"/>
<path d="M1381.18 2632.36C1371.29 2631.99 1277.99 2625.8 1275.02 2625.69C1277.64 2628.29 1336.54 2632.92 1365.66 2634.9C1369.34 2639.68 1374.77 2642.84 1377.02 2643.81C1390.84 2638.26 1408.49 2642.46 1415.59 2645.26C1413.38 2632.68 1391.07 2632.73 1381.18 2632.36Z" fill="#F5ECA1"/>
<path d="M1421.08 2817.4H354.925L-93.6701 2358.44L-106.515 2268L68.3773 2315.3L173.609 2387.03L275.383 2326.73L354.925 2375.59L431.008 2543.48L554.026 2562.71L704.71 2657.31L842.549 2612.61L922.091 2729.56L1272.37 2686.94L1386.99 2612.61L1421.08 2657.31V2817.4Z" fill="#232A2A"/>
<path d="M1421.08 2898.74L1192.78 2970.03L749.029 2849.42L354.682 2898.74L120.952 2738.63H-136.999L-106.863 2349.27L68.0691 2396.58L173.325 2468.32L275.122 2408.01L354.682 2456.88L430.782 2624.78L553.828 2644.02L704.547 2738.63L842.417 2693.92L921.977 2810.88L1272.34 2768.26L1386.98 2693.92L1421.08 2738.63V2898.74Z" fill="#6A7D7D"/>
<path d="M1368.34 2523.29L1250.37 2478.4L1135.69 2539.51L1154.67 2672.47L1112.22 2785.08L1178.55 2843.26L1242.88 2815.55L1329.13 2822.46L1480.11 2811.13L1508.83 2708.56L1368.34 2523.29Z" fill="#374242"/>
<path d="M744.124 2259.33L650.928 2176.63L525.917 2183.77L499.603 2302.18L421.686 2325.44L465.338 2454.07L533.296 2455.55L609.945 2494.36L751.817 2542.72L811.8 2467.99L744.124 2259.33Z" fill="#222B2B"/>
<path d="M729.729 2207.39L636.533 2124.69L511.523 2131.83L485.208 2250.24L409.364 2328.1L450.944 2402.13L518.901 2403.61L595.55 2442.42L737.423 2490.77L797.406 2416.05L729.729 2207.39Z" fill="#374242"/>
<path d="M1159.88 2471.51L1166.16 2358.02L1089.24 2270.67L988.564 2316.5L888.757 2303.9L859.115 2374.94L897.052 2425.37L912.994 2502.66L921.925 2585.3L959.186 2630.57L1047.91 2635.57L1159.88 2471.51Z" fill="#273131"/>
<path d="M1120.18 2423.28L1126.46 2309.8L1049.55 2222.44L948.864 2268.28L849.058 2255.67L819.416 2326.71L857.353 2377.14L873.295 2454.44L919.775 2584.6L1008.21 2587.34L1120.18 2423.28Z" fill="#4E6060"/>
<path d="M1133.75 2960.24L1224.22 2944.98L1277.09 2863.2L1220.41 2785.28L1209.83 2697.49L1147.92 2685.01L1116.07 2726.69L1058.61 2754.4L995.496 2777.08L967.569 2817.24L981.847 2894.15L1133.75 2960.24Z" fill="#273131"/>
<path d="M1163.51 2917.47L1253.98 2902.21L1306.85 2820.42L1250.16 2742.51L1239.59 2654.71L1177.68 2642.24L1145.83 2683.91L1088.36 2711.62L995.614 2775.12L1011.6 2851.38L1163.51 2917.47Z" fill="#4E6060"/>
<path d="M1785.31 2235.3L1865.77 2294.79L1965.26 2280.15L1977.85 2183.55L2038.52 2159.38L1994.41 2059.6L1939.94 2063.27L1875.86 2037.7L1758.91 2009.15L1716.27 2073.21L1785.31 2235.3Z" fill="#222B2B"/>
<path d="M1800.53 2275.82L1880.99 2335.32L1980.48 2320.67L1993.08 2224.08L2048.19 2156.38L2009.64 2100.12L1955.17 2103.79L1891.08 2078.22L1774.14 2049.67L1731.49 2113.73L1800.53 2275.82Z" fill="#374242"/>
<path d="M1987.02 2425.95L1891.92 2396.98L1801.69 2444.14L1819.67 2539.21L1788.18 2621.38L1842.36 2661.35L1893.1 2639.62L1962.08 2642.17L2034.15 2651.79L2080.36 2629.56L2103.08 2555.22L1987.02 2425.95Z" fill="#273131"/>
<path d="M1937.78 2449.63L1842.68 2420.67L1752.45 2467.82L1770.43 2562.9L1738.95 2645.06L1793.12 2685.03L1843.87 2663.31L1912.85 2665.85L2033.1 2653.47L2053.85 2578.91L1937.78 2449.63Z" fill="#4E6060"/>
<path d="M1735.62 1719.29L1751.07 1815.09L1834.96 1874.41L1915.16 1818.41L2005.39 1811.32L2018.37 1746.82L1975.63 1711.43L1947.3 1649.75L1924.15 1582.37L1882.97 1551.18L1803.9 1562.65L1735.62 1719.29Z" fill="#273131"/>
<path d="M1779.5 1752.54L1794.95 1848.34L1878.85 1907.66L1959.04 1851.65L2049.28 1844.56L2062.25 1780.07L2019.51 1744.67L1991.18 1683L1926.18 1582.59L1847.78 1595.9L1779.5 1752.54Z" fill="#4E6060"/>
<path d="M1373.5 2679.55L1327.27 2731.65L1334.95 2805.17L1405.57 2824.26L1453.62 2871.14L1496.17 2849.04L1495.16 2809.23L1515.94 2765.48L1542.46 2722.03L1539.86 2684.99L1494.79 2646.3L1373.5 2679.55Z" fill="#273131"/>
<path d="M1376.27 2719.01L1330.04 2771.11L1337.72 2844.64L1408.34 2863.72L1456.39 2910.6L1498.94 2888.5L1497.93 2848.7L1518.71 2804.95L1543.33 2723.25L1497.56 2685.77L1376.27 2719.01Z" fill="#4E6060"/>
<path d="M1631.81 729.075C1639.4 716.763 1685.02 729.93 1706.88 738.053V835.526H1691.78C1575.43 836.951 1343.84 838.946 1348.33 835.526C1352.82 832.106 1360.27 830.396 1363.43 829.969H1409.17C1401.26 825.123 1392.34 815.433 1419.96 815.433C1454.47 815.433 1440.67 817.571 1444.55 800.898C1448.43 784.225 1574.85 806.028 1553.71 800.898C1532.57 795.767 1575.71 761.994 1589.09 750.451C1599.79 741.216 1622.03 754.298 1631.81 761.994C1628.64 756.151 1624.21 741.387 1631.81 729.075Z" fill="#5EBFC5" fill-opacity="0.15"/>
<path d="M1781.96 729.075C1774.36 716.763 1728.74 729.93 1706.88 738.053V835.526H1721.98C1838.33 836.951 2069.92 838.946 2065.43 835.526C2060.94 832.106 2053.49 830.396 2050.33 829.969H2004.59C2012.5 825.123 2021.42 815.433 1993.81 815.433C1959.29 815.433 1973.1 817.571 1969.21 800.898C1965.33 784.225 1838.91 806.028 1860.05 800.898C1881.19 795.767 1838.05 761.994 1824.67 750.451C1813.97 741.216 1791.74 754.298 1781.96 761.994C1785.12 756.151 1789.55 741.387 1781.96 729.075Z" fill="#5EBFC5" fill-opacity="0.15"/>
<path d="M1740.96 831.552C1746.26 822.964 1778.07 832.148 1793.32 837.814V905.8H1782.79C1701.64 906.794 1540.11 908.185 1543.24 905.8C1546.37 903.414 1551.57 902.221 1553.77 901.923H1585.67C1580.16 898.544 1573.94 891.785 1593.2 891.785C1617.27 891.785 1607.64 893.276 1610.35 881.647C1613.06 870.018 1701.24 885.225 1686.49 881.647C1671.74 878.069 1701.84 854.512 1711.17 846.461C1718.63 840.02 1734.14 849.145 1740.96 854.512C1738.75 850.437 1735.66 840.14 1740.96 831.552Z" fill="#5EBFC5" fill-opacity="0.25"/>
<path d="M1845.69 831.552C1840.39 822.964 1808.57 832.148 1793.33 837.814V905.8H1803.86C1885.01 906.794 2046.54 908.185 2043.41 905.8C2040.28 903.414 2035.08 902.221 2032.87 901.923H2000.97C2006.49 898.544 2012.71 891.785 1993.45 891.785C1969.38 891.785 1979.01 893.276 1976.3 881.647C1973.59 870.018 1885.41 885.225 1900.16 881.647C1914.91 878.069 1884.81 854.512 1875.48 846.461C1868.02 840.02 1852.51 849.145 1845.69 854.512C1847.9 850.437 1850.99 840.14 1845.69 831.552Z" fill="#5EBFC5" fill-opacity="0.25"/>
<path d="M1742.16 319.047C1716.27 319.047 1698.64 350.783 1696.12 359.613C1668.07 356.362 1656.78 381.139 1654.64 393.933C1617.15 379.784 1591.71 401.685 1583.68 414.405C1535.68 415.248 1528.31 423.085 1530.62 426.898H1571.96C1560.92 437.977 1561.14 462.824 1562.64 473.862C1546.34 475.247 1543.71 483.22 1544.43 487.033C1494.82 471.981 1454.82 497.018 1441.01 511.418C1434.69 510.841 1417.79 511.208 1400.72 517.289C1383.65 523.37 1388.08 527.951 1392.44 529.482C1399.6 526.712 1430.59 526.471 1445.19 526.697C1494.56 524.469 1502.52 529.933 1500.33 532.944C1484.89 532.944 1472.42 540.244 1478.24 542.652C1484.06 545.061 1548.16 545.437 1544.43 542.652C1540.7 539.868 1521.67 535.051 1523.76 532.944C1525.85 530.836 1611.58 526.998 1611.58 529.482C1611.58 531.965 1607.11 535.051 1597.48 535.051C1589.78 535.051 1587.36 538.513 1587.11 540.244C1638.74 545.136 1668.81 543.33 1698.06 540.244C1727.31 537.158 1802 537.61 1802 534.298C1797.23 528.518 1786.88 526.672 1782.3 526.471C1785.89 522.858 1887.66 522.557 1896.91 522.256C1906.17 521.955 1914.82 523.762 1914.23 526.471C1913.63 529.18 1905.57 528.277 1896.91 530.084C1889.99 531.529 1892.34 533.496 1894.38 534.298C1894.38 534.298 2014.36 530.385 2020.93 530.234C2027.49 530.084 2023.84 524.364 2023.84 524.364C2011 524.364 2000.48 516.085 1994.06 516.085C1988.93 516.085 1977.15 513.727 1971.9 512.547C1963.49 490.39 1939.64 482.141 1928.78 480.787C1941.85 471.334 1928.4 465.107 1920.05 463.175C1922.43 418.981 1899.53 403.09 1883.56 400.331H1901.91C1928.78 401.761 1930.72 395.138 1920.05 392.579C1909.38 390.02 1875.13 390.848 1875.13 390.848C1864.38 350.868 1832.15 348.299 1817.37 352.012C1809.43 334.13 1793.47 333.974 1786.48 336.132C1779.5 322.042 1760.74 319.047 1742.16 319.047Z" fill="white"/>
<path d="M1514.2 445.37C1520.65 445.743 1521.82 442.652 1521.6 441.06C1521.09 439.962 1518.91 437.808 1514.23 437.977C1509.55 438.146 1506.64 440.264 1505.78 441.302C1505.9 442.503 1507.75 444.998 1514.2 445.37Z" fill="white"/>
<path opacity="0.6" fill-rule="evenodd" clip-rule="evenodd" d="M1695.97 359.389C1698.42 353.669 1703.21 345.465 1705.45 342.078C1706.82 345.666 1712.13 354.15 1721.27 359.389C1730.4 364.627 1742.63 364.13 1747.61 363.227V365.109C1727.07 364.567 1720.79 374.466 1720.22 379.484C1715.39 364.853 1702.04 359.991 1695.97 359.389ZM1793.27 363.227C1799.72 361.421 1809.19 351.034 1813.12 346.067C1814.19 344.75 1816.25 349.532 1817.15 352.088C1815.3 352.75 1813.69 355.977 1813.12 357.507C1831.33 356.002 1840.95 360.693 1843.49 363.227C1865.39 377.858 1868.14 396.368 1866.77 403.794C1883.18 402.288 1894.1 410.141 1897.36 415.309C1913.78 428.179 1919.67 447.747 1919.67 463.101C1939.73 468.158 1934.39 476.899 1929.22 480.637C1954.95 485.333 1968.49 503.667 1972.05 512.247C1983.44 515.227 1990.34 515.789 1994.09 516.094C1995.55 516.213 1996.54 516.293 1997.12 516.462C1998.05 516.73 1999.52 517.386 2001.4 518.231L2001.4 518.231L2001.4 518.231L2001.4 518.231L2001.4 518.232C2003.75 519.284 2006.75 520.629 2010.18 521.881C2015.13 523.687 2021.4 524.189 2023.91 524.214C2026.42 529.091 2022.86 530.31 2020.78 530.31L1946.08 532.568L1894.6 534.45C1887.14 531.56 1899.65 529.332 1906.84 528.579C1910.64 528.454 1917.3 527.45 1913.48 524.44C1909.66 521.429 1882.14 521.931 1868.86 522.558L1818.57 523.612C1794.81 523.612 1784.59 525.569 1782.45 526.547C1794.21 527.571 1800.38 532.242 1802 534.45C1796.64 536.83 1760.16 537.551 1737.24 538.005L1735.87 538.032L1734.32 538.062C1721.59 538.317 1706.47 539.598 1691.61 540.856C1680.08 541.832 1668.71 542.795 1658.74 543.255C1640.47 544.098 1603.52 541.499 1587.33 540.094C1587.93 536.106 1592.78 535.503 1597.7 535.503C1602.63 535.503 1606.88 534.45 1611.81 531.138C1616.73 527.827 1592.78 528.579 1590.24 528.805C1589.45 528.875 1585.63 529.004 1580.21 529.187H1580.21L1580.21 529.187C1568.22 529.59 1548.42 530.257 1536.29 531.138C1522.21 532.162 1522.27 533.772 1524.06 534.45C1527.36 536.055 1535.64 539.733 1542.26 541.6C1548.89 543.466 1541.04 544.033 1536.29 544.083C1522.24 544.234 1492.97 544.445 1488.32 544.083C1483.66 543.722 1478.76 542.277 1476.9 541.6C1478.57 535.097 1493.36 533.17 1500.55 533.02C1500.85 528.871 1494.58 528.133 1487.29 527.275L1487.29 527.274C1485.45 527.058 1483.55 526.835 1481.67 526.547C1475.63 525.62 1457.9 525.958 1441.54 526.269C1432.65 526.439 1424.17 526.6 1418.18 526.547C1404.57 526.427 1395.34 528.454 1392.43 529.482C1389.81 528.82 1388.55 526.397 1388.26 525.268C1401.69 523.461 1430.7 519.804 1439.29 519.623C1447.89 519.442 1464.76 511.319 1472.12 507.28C1501.85 491.204 1536.05 493.306 1549.43 496.367C1549.84 488.178 1554.72 483.723 1557.11 482.518C1564.51 479.448 1572.88 481.239 1576.14 482.518V484.776C1560.54 493.055 1566.89 511.57 1568.45 513C1569.16 513.647 1570.42 512.969 1571.54 512.367C1572.89 511.639 1574.04 511.022 1573.75 513C1573.33 515.89 1576.01 517.215 1577.41 517.516C1584.27 519.295 1589.76 512.867 1591.93 510.323C1592.33 509.854 1592.62 509.516 1592.78 509.387C1593.61 508.725 1592.43 504.244 1591.73 502.087C1590.18 505.94 1586.86 504.395 1585.39 503.14C1582.35 502.177 1583.13 497.22 1583.9 494.862C1596.67 470.958 1619.81 465.534 1629.79 465.81L1631.8 462.197L1628.52 459.639C1624.46 446.934 1597.7 453.768 1595.99 465.283C1586.44 464.079 1579.62 474.365 1577.41 479.658C1574.18 475.564 1566.56 473.838 1563.16 473.487C1571.93 473.487 1576.31 468.018 1577.41 465.283C1575.2 444.33 1587.53 433.221 1593.97 430.286C1612.6 397.953 1649.39 400.156 1665.45 405.299C1683.9 368.33 1721.09 384.878 1737.38 397.773C1746.82 379.89 1764 371.907 1771.41 370.151C1768.87 369.549 1764.17 365.259 1763.35 363.227C1762.69 361.601 1764.97 359.991 1766.19 359.389C1773.35 363.679 1785.21 365.485 1793.27 363.227ZM1883.56 400.256L1875.95 397.321C1895.42 395.891 1921.39 395.65 1925.86 395.891C1926.19 397.346 1924.24 400.256 1913.85 400.256H1883.56ZM1858.11 488.539C1855.92 487.21 1850.96 484.4 1848.64 483.798C1846.31 483.196 1838.66 483.547 1835.13 483.798C1830.58 475.193 1815.64 459.382 1792.3 464.982C1788.67 451.359 1770.94 427.351 1729.1 440.296C1726.91 436.984 1718.73 432.348 1703.51 440.296C1688.29 448.244 1688.91 458.81 1691.12 463.1C1683.19 469.749 1669.44 486.733 1677.91 501.484C1668.81 499.753 1650.01 502.117 1647.62 525.418H1651.28C1654.78 518.77 1665.53 506.286 1680.45 509.538C1685.13 510.993 1693.81 510.892 1691.12 498.85C1689.16 488.64 1692.46 468.595 1721.41 470.1C1722.91 462.975 1731.22 449.613 1752.53 453.166C1773.84 456.718 1781.36 467.892 1782.45 473.035C1795.38 470.602 1823.15 470.747 1830.73 490.797L1858.11 488.539Z" fill="url(#paint4_linear_5001_237)"/>
<path d="M1667.33 464.047C1649.1 464.047 1636.68 486.391 1634.92 492.609C1615.16 490.32 1607.21 507.765 1605.71 516.773C1579.31 506.811 1561.4 522.231 1555.74 531.187C1521.95 531.78 1516.76 537.298 1518.39 539.983H1547.5C1539.72 547.783 1539.88 565.278 1540.93 573.05C1529.46 574.025 1527.6 579.638 1528.11 582.323C1493.18 571.725 1465.02 589.353 1455.3 599.492C1450.85 599.086 1438.95 599.344 1426.93 603.625C1414.91 607.907 1418.03 611.133 1421.1 612.21C1426.14 610.26 1447.96 610.09 1458.24 610.249C1493 608.681 1498.6 612.528 1497.06 614.648C1486.19 614.648 1477.41 619.788 1481.51 621.483C1485.61 623.179 1530.74 623.444 1528.11 621.483C1525.48 619.523 1512.09 616.131 1513.56 614.648C1515.03 613.164 1575.39 610.461 1575.39 612.21C1575.39 613.959 1572.24 616.131 1565.46 616.131C1560.04 616.131 1558.34 618.569 1558.16 619.788C1594.52 623.232 1615.69 621.96 1636.28 619.788C1656.88 617.615 1709.46 617.933 1709.46 615.601C1706.1 611.532 1698.82 610.232 1695.59 610.09C1698.12 607.547 1769.77 607.335 1776.29 607.123C1782.8 606.911 1788.9 608.183 1788.48 610.09C1788.06 611.998 1782.38 611.362 1776.29 612.634C1771.41 613.651 1773.07 615.036 1774.5 615.601C1774.5 615.601 1858.98 612.846 1863.6 612.74C1868.23 612.634 1865.65 608.607 1865.65 608.607C1856.62 608.607 1849.21 602.778 1844.69 602.778C1841.08 602.778 1832.78 601.117 1829.09 600.287C1823.16 584.686 1806.37 578.879 1798.72 577.925C1807.93 571.269 1798.46 566.885 1792.58 565.525C1794.26 534.408 1778.13 523.22 1766.89 521.277H1779.81C1798.72 522.284 1800.09 517.621 1792.58 515.819C1785.06 514.017 1760.95 514.6 1760.95 514.6C1753.38 486.452 1730.69 484.643 1720.29 487.257C1714.7 474.666 1703.46 474.557 1698.54 476.076C1693.62 466.156 1680.41 464.047 1667.33 464.047Z" fill="white"/>
<path d="M1506.82 552.99C1511.36 553.253 1512.19 551.076 1512.03 549.955C1511.67 549.182 1510.14 547.666 1506.84 547.785C1503.55 547.904 1501.5 549.395 1500.89 550.126C1500.97 550.972 1502.28 552.728 1506.82 552.99Z" fill="white"/>
<path d="M1819.41 524.564C1813.19 523.97 1811.5 526.613 1811.43 528.008C1812.74 531.453 1820.1 529.439 1820.78 529.121C1821.46 528.803 1824.4 529.121 1824.98 526.684C1825.44 524.734 1821.46 524.458 1819.41 524.564Z" fill="white"/>
<path opacity="0.6" fill-rule="evenodd" clip-rule="evenodd" d="M1634.8 492.452C1636.53 488.424 1639.9 482.648 1641.48 480.264C1642.44 482.79 1646.18 488.763 1652.61 492.452C1659.04 496.14 1667.66 495.79 1671.16 495.154V496.479C1656.7 496.097 1652.28 503.068 1651.88 506.6C1648.47 496.299 1639.08 492.876 1634.8 492.452ZM1703.31 495.154C1707.85 493.882 1714.52 486.57 1717.29 483.072C1718.04 482.145 1719.49 485.512 1720.12 487.311C1718.82 487.778 1717.69 490.049 1717.29 491.127C1730.1 490.067 1736.88 493.37 1738.67 495.154C1754.09 505.456 1756.02 518.488 1755.06 523.716C1766.62 522.657 1774.3 528.185 1776.6 531.824C1788.16 540.886 1792.31 554.663 1792.31 565.473C1806.43 569.034 1802.67 575.188 1799.03 577.82C1817.15 581.127 1826.68 594.036 1829.19 600.077C1837.2 602.175 1842.06 602.57 1844.71 602.785C1845.73 602.869 1846.43 602.925 1846.84 603.044C1847.49 603.233 1848.52 603.695 1849.85 604.29C1851.5 605.031 1853.61 605.978 1856.03 606.859C1859.52 608.131 1863.93 608.485 1865.7 608.502C1867.46 611.936 1864.96 612.794 1863.49 612.794L1810.9 614.384L1774.66 615.709C1769.4 613.674 1778.21 612.106 1783.27 611.576C1785.95 611.487 1790.64 610.781 1787.95 608.661C1785.26 606.542 1765.88 606.895 1756.53 607.336L1721.12 608.078C1704.39 608.078 1697.2 609.456 1695.69 610.145C1703.97 610.866 1708.32 614.155 1709.46 615.709C1705.68 617.385 1680 617.893 1663.86 618.212L1661.81 618.253C1652.84 618.432 1642.19 619.333 1631.73 620.22C1623.62 620.907 1615.61 621.585 1608.59 621.909C1595.73 622.502 1569.71 620.672 1558.31 619.683C1558.73 616.875 1562.15 616.451 1565.62 616.451C1569.08 616.451 1572.08 615.709 1575.54 613.377C1579.01 611.046 1562.15 611.576 1560.36 611.735C1559.81 611.784 1557.12 611.875 1553.3 612.003H1553.3L1553.29 612.003C1544.86 612.288 1530.91 612.757 1522.38 613.377C1512.46 614.098 1512.5 615.232 1513.76 615.709C1516.09 616.839 1521.92 619.429 1526.58 620.743C1531.25 622.057 1525.72 622.457 1522.38 622.492C1512.48 622.598 1491.88 622.746 1488.6 622.492C1485.32 622.237 1481.87 621.22 1480.56 620.743C1481.74 616.165 1492.15 614.808 1497.21 614.702C1497.42 611.781 1493.01 611.261 1487.87 610.657L1487.87 610.657L1487.87 610.657L1487.87 610.657C1486.58 610.505 1485.24 610.347 1483.92 610.145C1479.67 609.492 1467.18 609.73 1455.66 609.949C1449.4 610.069 1443.43 610.182 1439.21 610.145C1429.63 610.06 1423.14 611.487 1421.09 612.212C1419.24 611.745 1418.36 610.039 1418.15 609.244C1427.6 607.972 1448.03 605.397 1454.08 605.27C1460.13 605.143 1472.01 599.423 1477.2 596.579C1498.13 585.26 1522.2 586.741 1531.62 588.895C1531.92 583.13 1535.35 579.993 1537.04 579.145C1542.25 576.983 1548.14 578.244 1550.43 579.145V580.735C1539.45 586.564 1543.92 599.6 1545.02 600.607C1545.52 601.062 1546.41 600.585 1547.19 600.161C1548.15 599.648 1548.95 599.214 1548.75 600.607C1548.46 602.641 1550.35 603.574 1551.33 603.786C1556.16 605.039 1560.02 600.513 1561.55 598.722C1561.83 598.391 1562.03 598.154 1562.15 598.063C1562.74 597.597 1561.9 594.442 1561.41 592.923C1560.32 595.636 1557.98 594.548 1556.95 593.665C1554.8 592.986 1555.35 589.496 1555.9 587.836C1564.89 571.006 1581.18 567.187 1588.21 567.381L1589.62 564.838L1587.31 563.036C1584.45 554.091 1565.62 558.902 1564.41 567.01C1557.68 566.162 1552.88 573.404 1551.33 577.131C1549.06 574.249 1543.69 573.033 1541.29 572.786C1547.47 572.786 1550.56 568.935 1551.33 567.01C1549.77 552.257 1558.45 544.436 1562.99 542.369C1576.1 519.604 1602.01 521.155 1613.32 524.776C1626.3 498.747 1652.49 510.398 1663.96 519.477C1670.6 506.886 1682.7 501.266 1687.92 500.029C1686.13 499.605 1682.82 496.585 1682.24 495.154C1681.78 494.01 1683.38 492.876 1684.24 492.452C1689.28 495.472 1697.64 496.744 1703.31 495.154ZM1766.88 521.226L1761.52 519.159C1775.23 518.152 1793.52 517.983 1796.67 518.152C1796.9 519.177 1795.52 521.226 1788.21 521.226H1766.88ZM1748.96 583.384C1747.42 582.448 1743.93 580.469 1742.29 580.046C1740.65 579.622 1735.27 579.869 1732.78 580.046C1729.58 573.987 1719.06 562.855 1702.63 566.798C1700.07 557.206 1687.59 540.302 1658.13 549.417C1656.59 547.085 1650.83 543.821 1640.11 549.417C1629.39 555.013 1629.83 562.452 1631.39 565.473C1625.8 570.154 1616.12 582.112 1622.09 592.498C1615.68 591.28 1602.44 592.944 1600.76 609.35H1603.33C1605.8 604.669 1613.37 595.879 1623.88 598.168C1627.17 599.193 1633.28 599.122 1631.39 590.644C1630 583.455 1632.33 569.341 1652.72 570.401C1653.77 565.385 1659.62 555.977 1674.62 558.478C1689.63 560.979 1694.92 568.847 1695.69 572.468C1704.8 570.754 1724.34 570.857 1729.68 584.974L1748.96 583.384Z" fill="url(#paint5_linear_5001_237)"/>
<ellipse cx="1525.45" cy="566.652" rx="33.5139" ry="26.1644" transform="rotate(-53.9299 1525.45 566.652)" fill="#569EA3"/>
<path d="M1695.84 811.713C1839.55 701.061 1740.32 631.285 1672.75 610.228L1780.88 466.869C1841.65 479.938 1880.51 529.691 1892.35 552.934L2006.7 703.573L1900.34 880.498L2016.66 1029.4L1801.66 1104.34C1566.38 1062.42 1633.08 891.788 1695.84 811.713Z" fill="url(#paint6_linear_5001_237)"/>
<mask id="mask0_5001_237" style="mask-type:alpha" maskUnits="userSpaceOnUse" x="1637" y="466" width="380" height="752">
<path d="M1695.85 811.713C1839.55 701.061 1740.32 631.285 1672.75 610.228L1780.88 466.869C1841.65 479.938 1880.52 529.691 1892.35 552.934L2006.7 703.573L1900.34 880.498L2016.66 1029.4L1988.33 1217.77L1802.9 1109.07C1567.62 1067.15 1633.08 891.788 1695.85 811.713Z" fill="url(#paint7_linear_5001_237)"/>
</mask>
<g mask="url(#mask0_5001_237)">
<path d="M1838.28 781.236C1908.7 666.371 1785.91 566.122 1715.71 530.356L1637.5 607.88L1699.22 674.418L1516.52 917.439L1736.16 1204.98L1978.26 1173C1922.8 1120.73 1767.87 896.101 1838.28 781.236Z" fill="#DAE4CB"/>
</g>
<path d="M1509.42 668.942C1471.24 597.305 1587.74 327.652 1599.2 362.661C1599.2 362.661 1565.65 493.853 1592.83 423.87C1620.02 353.887 1645.08 342.975 1701.47 343.067C1712.2 373.015 1713.96 393.05 1709.8 412.208L1724.18 375.323C1728.97 390.58 1755.19 414.364 1802.37 392.091C1792.75 423.563 1787.46 489.617 1843.21 502.053C1828.24 502.515 1799.5 517.346 1804.29 572.971C1794.14 552.325 1764.75 519.484 1728.36 553.284C1732.58 566.36 1728.66 610.711 1636.26 640.406C1619.28 658.002 1570.88 685.598 1547.66 685.094C1524.44 684.59 1509.02 676.742 1509.42 668.942Z" fill="#5EBFC5"/>
<ellipse cx="1606.53" cy="573.539" rx="48.801" ry="37.6297" transform="rotate(-50.8728 1606.53 573.539)" fill="#FEDD92"/>
<ellipse cx="1606.82" cy="573.843" rx="33.5939" ry="25.9037" transform="rotate(-50.8728 1606.82 573.843)" fill="#040404"/>
<mask id="mask1_5001_237" style="mask-type:alpha" maskUnits="userSpaceOnUse" x="1564" y="528" width="85" height="91">
<ellipse cx="1606.53" cy="573.539" rx="48.801" ry="37.6297" transform="rotate(-50.8728 1606.53 573.539)" fill="#FEDD92"/>
</mask>
<g mask="url(#mask1_5001_237)">
<rect x="1526.03" y="609.168" width="165.218" height="42.3334" transform="rotate(-51.7885 1526.03 609.168)" fill="#569EA3"/>
</g>
<circle cx="1554.37" cy="665.416" r="4.99769" transform="rotate(-14.6223 1554.37 665.416)" fill="#569EA3"/>
<path d="M1717.63 529.552C1733.99 553.842 1740.77 609.861 1636.97 639.616L1563.4 683.721" stroke="#569EA3" stroke-width="10" stroke-linecap="round"/>
<path d="M1678.98 473.402L1725.3 373.814C1707.73 423.85 1700.61 476.365 1699.25 496.369C1688.19 501.872 1676.68 491.532 1678.98 473.402Z" fill="#569EA3"/>
<path d="M1716.97 486.276L1777.59 416.989" stroke="#569EA3" stroke-width="10" stroke-linecap="round"/>
<path d="M1723.71 496.974L1809.34 496.504" stroke="#569EA3" stroke-width="10" stroke-linecap="round"/>
<path d="M1730.74 507.597L1796.18 548.244" stroke="#569EA3" stroke-width="10" stroke-linecap="round"/>
<path d="M1585.61 442.769C1569.45 455.227 1535.98 484.13 1524.11 509.173C1522.64 513.774 1521.27 518.127 1520.04 522.16C1520.55 518.033 1521.98 513.665 1524.11 509.173C1541.65 454.487 1574.93 364.674 1595.03 360.101C1601.71 362.006 1612.52 380.087 1585.61 442.769Z" fill="#569EA3"/>
<path d="M1789.38 581.774C1794.82 604.578 1794.71 651.294 1750.69 655.722M1757.86 740.21C1767.23 757.124 1798.61 784.678 1849.12 759.579M1672.4 844.302C1670.68 896.243 1699.44 981.441 1828.32 906.706M1709.57 1076.35C1754.27 1101.48 1842.25 1125.78 1874.79 1028.98" stroke="#BEC6B1" stroke-width="5" stroke-linecap="round"/>
<path d="M1597.25 841.122C1580.05 805.467 1547.56 785.766 1542.91 780.138C1538.25 774.511 1558.57 838.567 1558.57 838.567C1575.52 861.014 1591.42 849.623 1597.25 841.122Z" fill="#569EA3"/>
<path d="M1717.01 1142C1427.8 1231.13 1385.57 998.328 1400.61 870.784L1540.02 896.15C1629.62 1037 1736.97 1005.99 1779.45 972.882L1717.01 1142Z" fill="url(#paint8_linear_5001_237)"/>
<mask id="mask2_5001_237" style="mask-type:alpha" maskUnits="userSpaceOnUse" x="1397" y="870" width="383" height="292">
<path d="M1717.01 1142C1427.8 1231.13 1385.57 998.328 1400.61 870.784L1540.02 896.15C1629.62 1037 1736.97 1005.99 1779.45 972.882L1717.01 1142Z" fill="url(#paint9_linear_5001_237)"/>
</mask>
<g mask="url(#mask2_5001_237)">
<path d="M1444.2 946.545L1377.91 921.635L1369.6 1175.9L1736.64 1242.69L1773.26 1041.38C1766.88 1066.61 1727.24 1116.97 1619.75 1116.54C1512.25 1116.1 1447.15 1003.16 1444.2 946.545Z" fill="#F4F5DC"/>
</g>
<ellipse cx="29.6922" cy="27.3403" rx="29.6922" ry="27.3403" transform="matrix(-0.983847 -0.179013 -0.179013 0.983847 1509.36 724.732)" fill="#569EA3"/>
<path d="M1604.6 925.53C1599.27 880.934 1580.87 846.31 1563.78 832.942C1528.37 710.562 1459.51 735.98 1411.44 701.239C1372.99 673.446 1354.12 713.02 1349.49 736.282L1391.45 811.148C1381.4 794.081 1339.57 779.298 1325.74 789.63C1311.91 799.962 1332.57 811.193 1345.38 818.005C1355.62 823.454 1402.96 890.734 1425.35 923.693L1532 955.05L1550.41 906.407C1547.28 921.973 1609.68 968.037 1604.6 925.53Z" fill="#5EBFC5"/>
<circle cx="35.8658" cy="35.8658" r="35.8658" transform="matrix(-0.983847 -0.179013 -0.179013 0.983847 1505.36 786.156)" fill="#FEDD92"/>
<mask id="mask3_5001_237" style="mask-type:alpha" maskUnits="userSpaceOnUse" x="1427" y="779" width="73" height="72">
<circle cx="35.8658" cy="35.8658" r="35.8658" transform="matrix(-0.983847 -0.179013 -0.179013 0.983847 1505.35 786.156)" fill="#FEDD92"/>
</mask>
<g mask="url(#mask3_5001_237)">
<circle cx="22.9306" cy="22.9306" r="22.9306" transform="matrix(-0.983847 -0.179013 -0.179013 0.983847 1490.31 796.566)" fill="#040404"/>
<path d="M1520 749.977L1478.93 742.504L1452.83 885.963L1493.9 893.436L1520 749.977Z" fill="#569EA3"/>
</g>
<g opacity="0.5">
<path d="M1877.3 981.354L1878.03 980.676L1878.86 981.232C1883.13 984.088 1885.89 987.754 1886.86 991.399C1887.83 995.044 1887.02 998.73 1884.02 1001.49C1881.02 1004.25 1876.52 1005.47 1871.78 1005.29C1867.04 1005.12 1862 1003.56 1857.73 1000.71L1856.9 1000.15L1857.63 999.473L1858.59 998.593L1859.32 997.916L1860.16 998.472C1863.7 1000.84 1867.84 1002.1 1871.62 1002.23C1875.4 1002.37 1878.75 1001.4 1880.91 999.411C1883.07 997.419 1883.76 994.669 1882.99 991.758C1882.21 988.848 1879.98 985.839 1876.44 983.467L1875.61 982.911L1876.34 982.233L1877.3 981.354Z" fill="#76D3D9" stroke="#76D3D9" stroke-width="2"/>
<path d="M1882.56 999.569L1883.3 998.891L1884.13 999.447C1888.4 1002.3 1891.15 1005.97 1892.12 1009.61C1893.09 1013.26 1892.28 1016.94 1889.28 1019.71C1886.29 1022.47 1881.78 1023.68 1877.05 1023.51C1872.31 1023.33 1867.26 1021.78 1863 1018.92L1862.16 1018.37L1862.9 1017.69L1863.85 1016.81L1864.59 1016.13L1865.42 1016.69C1868.97 1019.06 1873.1 1020.31 1876.88 1020.45C1880.67 1020.59 1884.02 1019.62 1886.18 1017.63C1888.34 1015.63 1889.03 1012.88 1888.25 1009.97C1887.48 1007.06 1885.25 1004.05 1881.7 1001.68L1880.87 1001.13L1881.61 1000.45L1882.56 999.569Z" fill="#76D3D9" stroke="#76D3D9" stroke-width="2"/>
<path d="M1858.89 998.366L1859.62 997.688L1860.45 998.244C1864.72 1001.1 1867.48 1004.77 1868.45 1008.41C1869.41 1012.06 1868.6 1015.74 1865.61 1018.5C1862.61 1021.26 1858.1 1022.48 1853.37 1022.3C1848.63 1022.13 1843.58 1020.57 1839.32 1017.72L1838.49 1017.16L1839.22 1016.48L1840.18 1015.61L1840.91 1014.93L1841.74 1015.48C1845.29 1017.86 1849.42 1019.11 1853.21 1019.25C1856.99 1019.38 1860.34 1018.41 1862.5 1016.42C1864.66 1014.43 1865.35 1011.68 1864.58 1008.77C1863.8 1005.86 1861.57 1002.85 1858.03 1000.48L1857.2 999.923L1857.93 999.245L1858.89 998.366Z" fill="#76D3D9" stroke="#76D3D9" stroke-width="2"/>
<path d="M1864.15 1016.58L1864.89 1015.9L1865.72 1016.46C1869.99 1019.31 1872.74 1022.98 1873.71 1026.63C1874.68 1030.27 1873.87 1033.96 1870.87 1036.72C1867.88 1039.48 1863.37 1040.69 1858.63 1040.52C1853.9 1040.34 1848.85 1038.79 1844.58 1035.93L1843.75 1035.38L1844.49 1034.7L1845.44 1033.82L1846.18 1033.14L1847.01 1033.7C1850.55 1036.07 1854.69 1037.32 1858.47 1037.46C1862.25 1037.6 1865.6 1036.63 1867.76 1034.64C1869.93 1032.65 1870.61 1029.9 1869.84 1026.98C1869.07 1024.07 1866.84 1021.07 1863.29 1018.69L1862.46 1018.14L1863.2 1017.46L1864.15 1016.58Z" fill="#76D3D9" stroke="#76D3D9" stroke-width="2"/>
</g>
<path d="M1634.12 984.986C1604.99 970.362 1569.02 921.844 1554.67 899.413C1535.1 936.013 1476.59 936.601 1449.78 932.32C1463.95 941.115 1453.82 1003.18 1446.98 1033.11C1497.3 990.39 1533.73 1018.31 1545.66 1037.62C1543.21 986.731 1603.61 981.327 1634.12 984.986Z" fill="#5EBFC5"/>
<path d="M1553.09 891.656C1561.96 925.118 1611.24 966.4 1634.12 984.985C1584.94 968.866 1544.59 920.885 1530.56 898.91C1534.34 885.303 1539.91 885.078 1553.09 891.656Z" fill="#569EA3"/>
<path d="M1536.75 1016.57L1523.35 937.638" stroke="#569EA3" stroke-width="10" stroke-linecap="round"/>
<path d="M1482.45 1016.68L1513.27 938.793" stroke="#569EA3" stroke-width="10" stroke-linecap="round"/>
<path d="M1595.16 979.026L1527.5 929.653" stroke="#569EA3" stroke-width="10" stroke-linecap="round"/>
<path d="M1348.95 821.344L1400.48 889.585C1402.37 906.563 1396.56 935.784 1441.97 944.047" stroke="#569EA3" stroke-width="10" stroke-linecap="round"/>
<circle cx="4.99769" cy="4.99769" r="4.99769" transform="matrix(-0.983847 -0.179013 -0.179013 0.983847 1390.82 725.873)" fill="#569EA3"/>
<path d="M1877.37 924.28C1864.98 904.12 1790.56 925.68 1754.9 938.98V1098.58H1779.53C1969.34 1100.91 2347.11 1104.18 2339.79 1098.58C2332.47 1092.98 2320.32 1090.18 2315.16 1089.48H2240.55C2253.45 1081.55 2268 1065.68 2222.95 1065.68C2166.65 1065.68 2189.17 1069.18 2182.83 1041.88C2176.5 1014.58 1970.27 1050.28 2004.76 1041.88C2039.25 1033.48 1968.87 978.18 1947.05 959.28C1929.59 944.16 1893.32 965.58 1877.37 978.18C1882.53 968.613 1889.76 944.44 1877.37 924.28Z" fill="#5EBFC5" fill-opacity="0.1"/>
<path d="M1818.02 930.109C1847.15 930.109 1866.99 965.812 1869.82 975.747C1901.38 972.089 1914.08 999.963 1916.49 1014.36C1958.66 998.439 1987.28 1023.08 1996.32 1037.39C2050.31 1038.34 2058.6 1047.15 2056 1051.44H2009.5C2021.92 1063.91 2021.67 1091.86 2019.99 1104.28C2038.32 1105.84 2041.28 1114.8 2040.47 1119.09C2096.28 1102.16 2141.29 1130.33 2156.81 1146.53C2163.92 1145.88 2182.94 1146.29 2202.14 1153.13C2221.35 1159.97 2216.36 1165.13 2211.46 1166.85C2203.4 1163.73 2168.54 1163.46 2152.11 1163.72C2096.58 1161.21 2087.62 1167.36 2090.08 1170.74C2107.46 1170.74 2121.48 1178.96 2114.93 1181.67C2108.38 1184.38 2036.27 1184.8 2040.47 1181.67C2044.67 1178.53 2066.07 1173.11 2063.72 1170.74C2061.37 1168.37 1964.92 1164.05 1964.92 1166.85C1964.92 1169.64 1969.96 1173.11 1980.79 1173.11C1989.45 1173.11 1992.18 1177.01 1992.46 1178.96C1934.37 1184.46 1900.54 1182.43 1867.63 1178.96C1834.73 1175.49 1750.7 1175.99 1750.7 1172.27C1756.07 1165.76 1767.71 1163.69 1772.86 1163.46C1768.83 1159.4 1654.34 1159.06 1643.93 1158.72C1633.52 1158.38 1623.78 1160.41 1624.45 1163.46C1625.12 1166.51 1634.19 1165.49 1643.93 1167.53C1651.72 1169.15 1649.08 1171.36 1646.78 1172.27C1646.78 1172.27 1511.8 1167.86 1504.42 1167.7C1497.03 1167.53 1501.14 1161.09 1501.14 1161.09C1515.58 1161.09 1527.42 1151.78 1534.63 1151.78C1540.41 1151.78 1553.66 1149.12 1559.57 1147.8C1569.03 1122.87 1595.86 1113.59 1608.08 1112.07C1593.38 1101.43 1608.5 1094.43 1617.91 1092.25C1615.22 1042.54 1640.99 1024.66 1658.95 1021.55H1638.3C1608.08 1023.16 1605.9 1015.71 1617.91 1012.83C1629.91 1009.95 1668.44 1010.89 1668.44 1010.89C1680.53 965.908 1716.79 963.018 1733.41 967.195C1742.34 947.077 1760.3 946.902 1768.16 949.33C1776.02 933.479 1797.12 930.109 1818.02 930.109Z" fill="white"/>
<path d="M1575.02 1026.81C1584.95 1025.86 1587.66 1030.08 1587.77 1032.31C1585.68 1037.81 1573.92 1034.6 1572.83 1034.09C1571.74 1033.58 1567.04 1034.09 1566.12 1030.19C1565.38 1027.08 1571.74 1026.64 1575.02 1026.81Z" fill="white"/>
<path opacity="0.6" fill-rule="evenodd" clip-rule="evenodd" d="M1870 975.494C1867.24 969.059 1861.85 959.83 1859.34 956.02C1857.8 960.056 1851.81 969.601 1841.54 975.494C1831.26 981.387 1817.5 980.828 1811.91 979.812V981.929C1835.01 981.319 1842.07 992.456 1842.71 998.101C1848.15 981.641 1863.17 976.171 1870 975.494ZM1760.54 979.812C1753.28 977.78 1742.63 966.095 1738.21 960.507C1737 959.025 1734.68 964.405 1733.67 967.281C1735.76 968.026 1737.56 971.655 1738.21 973.377C1717.72 971.684 1706.9 976.961 1704.04 979.812C1679.4 996.272 1676.31 1017.1 1677.85 1025.45C1659.38 1023.76 1647.1 1032.59 1643.44 1038.4C1624.97 1052.88 1618.34 1074.9 1618.34 1092.17C1595.77 1097.86 1601.77 1107.69 1607.59 1111.9C1578.65 1117.18 1563.41 1137.81 1559.41 1147.46C1546.6 1150.81 1538.84 1151.44 1534.61 1151.79C1532.97 1151.92 1531.86 1152.01 1531.2 1152.2C1530.16 1152.5 1528.51 1153.24 1526.39 1154.19C1523.75 1155.38 1520.38 1156.89 1516.52 1158.3C1510.94 1160.33 1503.9 1160.89 1501.07 1160.92C1498.25 1166.41 1502.24 1167.78 1504.6 1167.78L1588.62 1170.32L1646.54 1172.44C1654.94 1169.19 1640.86 1166.68 1632.78 1165.83C1628.49 1165.69 1621.01 1164.56 1625.3 1161.18C1629.6 1157.79 1660.56 1158.35 1675.5 1159.06L1732.08 1160.25C1758.81 1160.25 1770.3 1162.45 1772.71 1163.55C1759.48 1164.7 1752.53 1169.95 1750.71 1172.44C1756.75 1175.12 1797.78 1175.93 1823.57 1176.44H1823.58C1824.7 1176.46 1825.79 1176.48 1826.85 1176.5C1841.17 1176.79 1858.19 1178.23 1874.91 1179.65C1887.87 1180.74 1900.66 1181.83 1911.88 1182.34C1932.43 1183.29 1974 1180.37 1992.22 1178.79C1991.54 1174.3 1986.09 1173.62 1980.55 1173.62C1975.01 1173.62 1970.22 1172.44 1964.68 1168.71C1959.14 1164.99 1986.09 1165.83 1988.94 1166.09C1989.83 1166.17 1994.13 1166.31 2000.22 1166.52L2000.23 1166.52C2013.71 1166.97 2035.99 1167.72 2049.63 1168.71C2065.48 1169.86 2065.41 1171.68 2063.4 1172.44C2059.68 1174.24 2050.37 1178.38 2042.92 1180.48C2035.46 1182.58 2044.29 1183.22 2049.63 1183.28C2065.44 1183.45 2098.37 1183.68 2103.61 1183.28C2108.85 1182.87 2114.35 1181.24 2116.45 1180.48C2114.57 1173.17 2097.93 1171 2089.84 1170.83C2089.51 1166.16 2096.56 1165.33 2104.76 1164.37C2106.83 1164.12 2108.97 1163.87 2111.08 1163.55C2117.88 1162.51 2137.82 1162.88 2156.23 1163.24H2156.23C2166.23 1163.43 2175.78 1163.61 2182.51 1163.55C2197.82 1163.41 2208.2 1165.69 2211.47 1166.85C2214.43 1166.1 2215.84 1163.38 2216.17 1162.11C2201.06 1160.08 2168.43 1155.96 2158.76 1155.76C2149.09 1155.55 2130.1 1146.42 2121.82 1141.87C2088.38 1123.79 2049.91 1126.15 2034.86 1129.59C2034.39 1120.38 2028.9 1115.37 2026.21 1114.02C2017.89 1110.56 2008.47 1112.58 2004.81 1114.02V1116.56C2022.35 1125.87 2015.22 1146.7 2013.45 1148.31C2012.66 1149.03 2011.24 1148.27 2009.98 1147.59C2008.46 1146.78 2007.17 1146.08 2007.49 1148.31C2007.96 1151.56 2004.95 1153.05 2003.38 1153.39C1995.66 1155.39 1989.49 1148.16 1987.05 1145.3L1987.05 1145.3C1986.59 1144.77 1986.27 1144.39 1986.09 1144.24C1985.15 1143.5 1986.48 1138.46 1987.26 1136.03C1989.01 1140.36 1992.75 1138.63 1994.4 1137.21C1997.82 1136.13 1996.94 1130.55 1996.08 1127.9C1981.71 1101.01 1955.67 1094.91 1944.45 1095.22L1942.19 1091.15L1945.88 1088.28C1950.45 1073.98 1980.55 1081.67 1982.48 1094.63C1993.22 1093.27 2000.89 1104.84 2003.38 1110.8C2007.01 1106.19 2015.58 1104.25 2019.41 1103.85C2009.54 1103.85 2004.61 1097.7 2003.38 1094.63C2005.86 1071.05 1991.99 1058.56 1984.74 1055.25C1963.79 1018.88 1922.4 1021.36 1904.33 1027.14C1883.58 985.553 1841.74 1004.17 1823.41 1018.68C1812.8 998.558 1793.47 989.577 1785.13 987.602C1787.98 986.924 1793.27 982.098 1794.2 979.812C1794.93 977.983 1792.38 976.171 1791.01 975.494C1782.95 980.32 1769.6 982.352 1760.54 979.812ZM1658.97 1021.47L1667.53 1018.17C1645.62 1016.56 1616.41 1016.29 1611.37 1016.56C1611.01 1018.2 1613.2 1021.47 1624.88 1021.47H1658.97ZM1687.59 1120.79C1690.05 1119.29 1695.63 1116.13 1698.25 1115.45C1700.87 1114.78 1709.47 1115.17 1713.45 1115.45C1718.57 1105.77 1735.37 1087.99 1761.63 1094.29C1765.71 1078.96 1785.65 1051.95 1832.73 1066.51C1835.19 1062.79 1844.4 1057.57 1861.52 1066.51C1878.64 1075.46 1877.95 1087.34 1875.46 1092.17C1884.38 1099.65 1899.85 1118.76 1890.31 1135.35C1900.55 1133.4 1921.71 1136.06 1924.39 1162.28H1920.28C1916.34 1154.8 1904.25 1140.75 1887.46 1144.41C1882.2 1146.05 1872.43 1145.94 1875.46 1132.39C1877.67 1120.9 1873.94 1098.35 1841.37 1100.04C1839.7 1092.03 1830.34 1077 1806.37 1080.99C1782.4 1084.99 1773.94 1097.56 1772.71 1103.35C1758.16 1100.61 1726.93 1100.77 1718.4 1123.33L1687.59 1120.79Z" fill="url(#paint10_linear_5001_237)"/>
<path d="M1902.2 1093.23C1922.7 1093.23 1936.67 1118.37 1938.66 1125.37C1960.88 1122.79 1969.83 1142.42 1971.52 1152.55C2001.22 1141.34 2021.37 1158.69 2027.73 1168.77C2065.74 1169.43 2071.58 1175.64 2069.75 1178.66H2037.01C2045.76 1187.44 2045.58 1207.12 2044.4 1215.86C2057.3 1216.96 2059.39 1223.27 2058.82 1226.3C2098.11 1214.37 2129.8 1234.2 2140.73 1245.61C2145.74 1245.15 2159.13 1245.44 2172.65 1250.26C2186.17 1255.08 2182.66 1258.71 2179.21 1259.92C2173.53 1257.72 2148.99 1257.53 2137.42 1257.71C2098.32 1255.95 2092.01 1260.28 2093.75 1262.66C2105.98 1262.66 2115.85 1268.44 2111.24 1270.35C2106.63 1272.26 2055.86 1272.56 2058.82 1270.35C2061.77 1268.15 2076.84 1264.33 2075.19 1262.66C2073.53 1260.99 2005.62 1257.95 2005.62 1259.92C2005.62 1261.89 2009.17 1264.33 2016.8 1264.33C2022.89 1264.33 2024.81 1267.07 2025.01 1268.44C1984.11 1272.32 1960.29 1270.89 1937.13 1268.44C1913.96 1266 1854.8 1266.36 1854.8 1263.73C1858.58 1259.16 1866.77 1257.69 1870.4 1257.53C1867.56 1254.67 1786.95 1254.43 1779.62 1254.2C1772.29 1253.96 1765.43 1255.39 1765.91 1257.53C1766.38 1259.68 1772.76 1258.96 1779.62 1260.4C1785.1 1261.54 1783.24 1263.1 1781.63 1263.73C1781.63 1263.73 1686.59 1260.63 1681.39 1260.51C1676.19 1260.4 1679.09 1255.86 1679.09 1255.86C1689.25 1255.86 1697.58 1249.31 1702.67 1249.31C1706.73 1249.31 1716.06 1247.44 1720.22 1246.5C1726.89 1228.95 1745.77 1222.42 1754.38 1221.35C1744.03 1213.86 1754.68 1208.93 1761.3 1207.4C1759.41 1172.39 1777.55 1159.8 1790.2 1157.62H1775.66C1754.38 1158.75 1752.84 1153.51 1761.3 1151.48C1769.75 1149.45 1796.88 1150.11 1796.88 1150.11C1805.39 1118.44 1830.92 1116.4 1842.62 1119.35C1848.91 1105.18 1861.55 1105.06 1867.09 1106.77C1872.62 1095.61 1887.48 1093.23 1902.2 1093.23Z" fill="white"/>
<path d="M1731.11 1161.32C1738.11 1160.65 1740.01 1163.62 1740.09 1165.19C1738.62 1169.07 1730.34 1166.8 1729.57 1166.44C1728.8 1166.09 1725.49 1166.44 1724.84 1163.7C1724.32 1161.51 1728.8 1161.2 1731.11 1161.32Z" fill="white"/>
<path opacity="0.6" fill-rule="evenodd" clip-rule="evenodd" d="M1938.78 1125.19C1936.85 1120.66 1933.05 1114.16 1931.28 1111.48C1930.2 1114.32 1925.98 1121.04 1918.75 1125.19C1911.52 1129.34 1901.83 1128.95 1897.89 1128.23V1129.72C1914.15 1129.29 1919.12 1137.13 1919.58 1141.11C1923.41 1129.52 1933.98 1125.67 1938.78 1125.19ZM1861.72 1128.23C1856.61 1126.8 1849.11 1118.57 1845.99 1114.64C1845.14 1113.59 1843.51 1117.38 1842.8 1119.41C1844.27 1119.93 1845.54 1122.49 1845.99 1123.7C1831.57 1122.51 1823.95 1126.22 1821.94 1128.23C1804.59 1139.82 1802.42 1154.48 1803.5 1160.36C1790.5 1159.17 1781.85 1165.39 1779.27 1169.48C1766.27 1179.68 1761.6 1195.18 1761.6 1207.34C1745.71 1211.35 1749.93 1218.27 1754.03 1221.23C1733.65 1224.95 1722.92 1239.47 1720.11 1246.27C1711.09 1248.63 1705.62 1249.07 1702.65 1249.32C1701.49 1249.41 1700.71 1249.47 1700.25 1249.61C1699.51 1249.82 1698.35 1250.34 1696.86 1251.01L1696.86 1251.01L1696.86 1251.01L1696.86 1251.01L1696.86 1251.01L1696.86 1251.01L1696.86 1251.01C1695 1251.84 1692.63 1252.91 1689.91 1253.9C1685.98 1255.33 1681.02 1255.73 1679.03 1255.75C1677.04 1259.61 1679.86 1260.58 1681.51 1260.58L1740.67 1262.36L1781.45 1263.85C1787.36 1261.57 1777.46 1259.8 1771.76 1259.2C1768.75 1259.11 1763.48 1258.31 1766.5 1255.93C1769.53 1253.54 1791.32 1253.94 1801.85 1254.44L1841.68 1255.27C1860.5 1255.27 1868.59 1256.82 1870.29 1257.6C1860.97 1258.41 1856.08 1262.11 1854.8 1263.85C1859.05 1265.74 1887.94 1266.31 1906.1 1266.67L1907.64 1266.7L1908.41 1266.72C1918.49 1266.92 1930.47 1267.93 1942.24 1268.93L1942.24 1268.93C1951.37 1269.7 1960.38 1270.47 1968.28 1270.83C1982.74 1271.5 2012.01 1269.44 2024.84 1268.33C2024.36 1265.17 2020.52 1264.69 2016.62 1264.69C2012.72 1264.69 2009.35 1263.85 2005.45 1261.23C2001.55 1258.61 2020.52 1259.2 2022.53 1259.38C2023.16 1259.44 2026.18 1259.54 2030.48 1259.69L2030.48 1259.69C2039.97 1260.01 2055.66 1260.53 2065.26 1261.23C2076.42 1262.04 2076.37 1263.32 2074.96 1263.85C2072.34 1265.13 2065.78 1268.04 2060.54 1269.52C2055.29 1271 2061.5 1271.45 2065.26 1271.49C2076.39 1271.6 2099.58 1271.77 2103.27 1271.49C2106.95 1271.2 2110.83 1270.05 2112.31 1269.52C2110.98 1264.37 2099.27 1262.84 2093.57 1262.72C2093.34 1259.44 2098.31 1258.85 2104.08 1258.17C2105.53 1258 2107.04 1257.82 2108.53 1257.6C2113.31 1256.86 2127.36 1257.13 2140.32 1257.38L2140.32 1257.38C2147.36 1257.51 2154.08 1257.64 2158.82 1257.6C2169.6 1257.5 2176.91 1259.11 2179.21 1259.92C2181.29 1259.4 2182.29 1257.48 2182.52 1256.58C2171.88 1255.15 2148.9 1252.25 2142.1 1252.11C2135.29 1251.97 2121.92 1245.53 2116.09 1242.33C2092.55 1229.6 2065.46 1231.27 2054.86 1233.69C2054.53 1227.2 2050.67 1223.67 2048.77 1222.72C2042.91 1220.29 2036.28 1221.71 2033.7 1222.72V1224.51C2046.06 1231.07 2041.03 1245.73 2039.79 1246.86C2039.23 1247.38 2038.23 1246.84 2037.35 1246.36C2036.28 1245.79 2035.37 1245.3 2035.59 1246.86C2035.93 1249.15 2033.8 1250.2 2032.7 1250.44C2027.26 1251.85 2022.92 1246.76 2021.2 1244.74L2021.2 1244.74L2021.2 1244.74L2021.19 1244.74C2020.88 1244.37 2020.65 1244.1 2020.52 1244C2019.86 1243.48 2020.8 1239.93 2021.35 1238.22C2022.58 1241.27 2025.21 1240.05 2026.37 1239.05C2028.79 1238.29 2028.17 1234.37 2027.56 1232.5C2017.44 1213.56 1999.11 1209.27 1991.21 1209.49L1989.61 1206.62L1992.21 1204.6C1995.43 1194.53 2016.62 1199.95 2017.98 1209.07C2025.55 1208.11 2030.94 1216.26 2032.7 1220.45C2035.25 1217.21 2041.29 1215.84 2043.99 1215.57C2037.04 1215.57 2033.57 1211.23 2032.7 1209.07C2034.45 1192.47 2024.68 1183.67 2019.58 1181.35C2004.83 1155.74 1975.68 1157.48 1962.96 1161.56C1948.35 1132.27 1918.89 1145.38 1905.98 1155.59C1898.51 1141.43 1884.9 1135.11 1879.03 1133.71C1881.04 1133.24 1884.77 1129.84 1885.42 1128.23C1885.94 1126.94 1884.13 1125.67 1883.17 1125.19C1877.5 1128.59 1868.1 1130.02 1861.72 1128.23ZM1790.2 1157.56L1796.23 1155.24C1780.8 1154.1 1760.24 1153.91 1756.69 1154.1C1756.43 1155.26 1757.98 1157.56 1766.21 1157.56H1790.2ZM1810.36 1227.49C1812.09 1226.44 1816.02 1224.21 1817.86 1223.73C1819.71 1223.26 1825.76 1223.53 1828.56 1223.73C1832.17 1216.92 1844 1204.39 1862.49 1208.83C1865.36 1198.04 1879.4 1179.02 1912.55 1189.28C1914.28 1186.65 1920.76 1182.98 1932.82 1189.28C1944.87 1195.57 1944.38 1203.94 1942.63 1207.34C1948.91 1212.61 1959.8 1226.06 1953.09 1237.74C1960.3 1236.37 1975.19 1238.24 1977.09 1256.7H1974.19C1971.41 1251.43 1962.9 1241.55 1951.08 1244.12C1947.38 1245.27 1940.5 1245.19 1942.63 1235.66C1944.19 1227.57 1941.57 1211.69 1918.63 1212.88C1917.45 1207.24 1910.87 1196.66 1893.99 1199.47C1877.11 1202.28 1871.15 1211.13 1870.29 1215.21C1860.04 1213.28 1838.05 1213.4 1832.05 1229.28L1810.36 1227.49Z" fill="url(#paint11_linear_5001_237)"/>
<path d="M746.369 2324.59C746.238 2322.98 747.962 2321.89 749.359 2322.69L750.036 2323.08C750.575 2323.39 751.228 2323.43 751.802 2323.19L752.523 2322.89C754.01 2322.27 755.582 2323.57 755.25 2325.15L755.09 2325.91C754.962 2326.52 755.124 2327.15 755.529 2327.63L756.038 2328.22C757.087 2329.44 756.335 2331.34 754.734 2331.51L753.957 2331.59C753.339 2331.66 752.786 2332.01 752.463 2332.54L752.056 2333.21C751.218 2334.58 749.181 2334.46 748.523 2332.99L748.204 2332.27C747.95 2331.7 747.446 2331.29 746.84 2331.14L746.08 2330.96C744.513 2330.59 744.006 2328.61 745.201 2327.53L745.78 2327.01C746.242 2326.59 746.483 2325.98 746.432 2325.36L746.369 2324.59Z" fill="#FFFACC" fill-opacity="0.2"/>
<path d="M536.771 2424.85C134.894 2487.46 11.2872 2386.44 -0.281311 2328.1L-159.117 2261.24C-152.953 2295.77 -136.52 2393.85 -120.105 2509.95C-103.689 2626.05 124.862 2633.63 237.086 2622.91C383.846 2572.25 685.677 2494.45 718.913 2588.46C760.459 2705.98 536.771 2763.47 481.546 2788.8C426.321 2814.12 472.173 2820.96 605.93 2820.96C914.735 2834.64 1039.12 2346.59 536.771 2424.85Z" fill="url(#paint12_linear_5001_237)"/>
<mask id="mask4_5001_237" style="mask-type:alpha" maskUnits="userSpaceOnUse" x="-159" y="2261" width="1035" height="560">
<path d="M536.866 2424.57C135.183 2487.16 11.6366 2386.17 0.0736694 2327.85L-158.685 2261C-152.524 2295.52 -136.099 2393.58 -119.692 2509.65C-103.284 2625.71 125.156 2633.29 237.326 2622.57C384.015 2571.93 685.699 2494.15 718.919 2588.14C760.445 2705.63 536.866 2763.1 481.667 2788.42C426.469 2813.74 472.299 2820.58 605.99 2820.58C914.646 2834.25 1038.97 2346.33 536.866 2424.57Z" fill="url(#paint13_linear_5001_237)"/>
</mask>
<g mask="url(#mask4_5001_237)">
<path d="M-152.103 2332.66H62.8669C288.809 2308.52 791.318 2300.74 943.256 2502.81C1112.51 2727.92 714.863 2841.93 508.505 2824.38C740.125 2837.73 812.049 2637.59 768.293 2532.69C743.539 2473.34 608.268 2440.27 283.154 2502.81C23.0634 2552.84 -115.388 2410.22 -152.103 2332.66Z" fill="url(#paint14_linear_5001_237)"/>
<path d="M336.076 2491.42C318.69 2477.83 289.132 2449.33 309.996 2444.07" stroke="#BEC6B1" stroke-width="5" stroke-linecap="round"/>
</g>
<path d="M26.6697 2489.24C16.9052 2458.94 12.4775 2399.35 72.8828 2403.44" stroke="#BEC6B1" stroke-width="5" stroke-linecap="round"/>
<path d="M567.883 2475.24C555.809 2460.59 538.905 2429.28 567.883 2421.24" stroke="#BEC6B1" stroke-width="5" stroke-linecap="round"/>
<g opacity="0.5">
<path d="M-12.921 2495.76L-12.7232 2494.78L-11.726 2494.86C-6.33137 2495.34 -1.66901 2497.15 1.49643 2499.73C4.6504 2502.3 6.42381 2505.74 5.67457 2509.46C4.92533 2513.18 1.85138 2516.19 -2.20868 2518.12C-6.2835 2520.06 -11.4963 2520.99 -16.8909 2520.51L-17.8881 2520.42L-17.6903 2519.44L-17.4588 2518.29L-17.261 2517.31L-16.2639 2517.4C-11.6979 2517.8 -7.36951 2517.01 -4.08055 2515.44C-0.77677 2513.87 1.33556 2511.61 1.83738 2509.12C2.33921 2506.63 1.19526 2504.08 -1.37121 2501.99C-3.92617 2499.91 -7.78712 2498.38 -12.3531 2497.98L-13.3502 2497.89L-13.1524 2496.91L-12.921 2495.76Z" fill="#76D3D9" stroke="#76D3D9" stroke-width="2"/>
<path d="M4.04194 2508.82L4.23974 2507.83L5.23686 2507.92C10.6315 2508.4 15.2939 2510.21 18.4593 2512.78C21.6133 2515.35 23.3867 2518.8 22.6375 2522.52C21.8883 2526.24 18.8143 2529.25 14.7542 2531.18C10.6794 2533.12 5.46661 2534.05 0.0719525 2533.57L-0.92517 2533.48L-0.727372 2532.5L-0.495896 2531.35L-0.298098 2530.37L0.699025 2530.46C5.265 2530.86 9.59338 2530.06 12.8824 2528.5C16.1861 2526.93 18.2985 2524.67 18.8003 2522.18C19.3021 2519.69 18.1582 2517.14 15.5917 2515.05C13.0367 2512.96 9.17577 2511.44 4.60979 2511.04L3.61267 2510.95L3.81046 2509.97L4.04194 2508.82Z" fill="#76D3D9" stroke="#76D3D9" stroke-width="2"/>
<path d="M-16.6788 2517.91L-16.481 2516.93L-15.4838 2517.02C-10.0892 2517.5 -5.42682 2519.3 -2.26139 2521.88C0.892579 2524.45 2.66599 2527.89 1.91675 2531.61C1.16751 2535.33 -1.90644 2538.35 -5.9665 2540.28C-10.0413 2542.22 -15.2541 2543.14 -20.6488 2542.67L-21.6459 2542.58L-21.4481 2541.59L-21.2166 2540.45L-21.0188 2539.46L-20.0217 2539.55C-15.4557 2539.96 -11.1273 2539.16 -7.83837 2537.6C-4.53459 2536.03 -2.42226 2533.77 -1.92044 2531.27C-1.41861 2528.78 -2.56256 2526.23 -5.12902 2524.14C-7.68398 2522.06 -11.5449 2520.54 -16.1109 2520.13L-17.108 2520.04L-16.9102 2519.06L-16.6788 2517.91Z" fill="#76D3D9" stroke="#76D3D9" stroke-width="2"/>
<path d="M0.284128 2530.97L0.481926 2529.99L1.47905 2530.08C6.87371 2530.55 11.5361 2532.36 14.7015 2534.94C17.8555 2537.51 19.6289 2540.95 18.8797 2544.67C18.1304 2548.39 15.0565 2551.41 10.9964 2553.34C6.92159 2555.27 1.70879 2556.2 -3.68587 2555.72L-4.68299 2555.64L-4.48519 2554.65L-4.25371 2553.5L-4.05592 2552.52L-3.05879 2552.61C1.50718 2553.02 5.83557 2552.22 9.12454 2550.65C12.4283 2549.08 14.5407 2546.82 15.0425 2544.33C15.5443 2541.84 14.4004 2539.29 11.8339 2537.2C9.27892 2535.12 5.41795 2533.6 0.851976 2533.19L-0.145147 2533.1L0.0526514 2532.12L0.284128 2530.97Z" fill="#76D3D9" stroke="#76D3D9" stroke-width="2"/>
</g>
<g opacity="0.5">
<path d="M816.067 2483.09L816.265 2482.11L817.262 2482.2C822.657 2482.68 827.319 2484.48 830.485 2487.06C833.639 2489.63 835.412 2493.07 834.663 2496.79C833.914 2500.51 830.84 2503.53 826.78 2505.46C822.705 2507.4 817.492 2508.32 812.097 2507.85L811.1 2507.76L811.298 2506.77L811.529 2505.63L811.727 2504.64L812.724 2504.73C817.29 2505.14 821.619 2504.34 824.908 2502.78C828.212 2501.21 830.324 2498.95 830.826 2496.45C831.327 2493.96 830.184 2491.41 827.617 2489.32C825.062 2487.24 821.201 2485.72 816.635 2485.31L815.638 2485.22L815.836 2484.24L816.067 2483.09Z" fill="#76D3D9" stroke="#76D3D9" stroke-width="2"/>
<path d="M833.03 2496.15L833.228 2495.17L834.225 2495.26C839.62 2495.73 844.282 2497.54 847.448 2500.12C850.602 2502.69 852.375 2506.13 851.626 2509.85C850.877 2513.57 847.803 2516.59 843.743 2518.52C839.668 2520.45 834.455 2521.38 829.06 2520.9L828.063 2520.82L828.261 2519.83L828.492 2518.68L828.69 2517.7L829.687 2517.79C834.253 2518.19 838.582 2517.4 841.871 2515.83C845.174 2514.26 847.287 2512 847.789 2509.51C848.29 2507.02 847.146 2504.47 844.58 2502.38C842.025 2500.3 838.164 2498.78 833.598 2498.37L832.601 2498.28L832.799 2497.3L833.03 2496.15Z" fill="#76D3D9" stroke="#76D3D9" stroke-width="2"/>
<path d="M812.31 2505.25L812.507 2504.26L813.504 2504.35C818.899 2504.83 823.561 2506.63 826.727 2509.21C829.881 2511.78 831.654 2515.23 830.905 2518.95C830.156 2522.67 827.082 2525.68 823.022 2527.61C818.947 2529.55 813.734 2530.48 808.34 2530L807.342 2529.91L807.54 2528.93L807.772 2527.78L807.969 2526.8L808.967 2526.89C813.533 2527.29 817.861 2526.49 821.15 2524.93C824.454 2523.36 826.566 2521.1 827.068 2518.61C827.57 2516.12 826.426 2513.57 823.859 2511.48C821.304 2509.39 817.443 2507.87 812.877 2507.47L811.88 2507.38L812.078 2506.39L812.31 2505.25Z" fill="#76D3D9" stroke="#76D3D9" stroke-width="2"/>
<path d="M829.272 2518.3L829.47 2517.32L830.467 2517.41C835.862 2517.89 840.524 2519.69 843.69 2522.27C846.844 2524.84 848.617 2528.29 847.868 2532.01C847.119 2535.73 844.045 2538.74 839.985 2540.67C835.91 2542.61 830.697 2543.54 825.302 2543.06L824.305 2542.97L824.503 2541.99L824.735 2540.84L824.932 2539.86L825.929 2539.94C830.495 2540.35 834.824 2539.55 838.113 2537.99C841.417 2536.42 843.529 2534.16 844.031 2531.67C844.533 2529.17 843.389 2526.63 840.822 2524.53C838.267 2522.45 834.406 2520.93 829.84 2520.52L828.843 2520.44L829.041 2519.45L829.272 2518.3Z" fill="#76D3D9" stroke="#76D3D9" stroke-width="2"/>
</g>
<g opacity="0.5">
<path d="M435.114 2518.09L435.312 2517.11L436.309 2517.2C441.704 2517.68 446.366 2519.48 449.532 2522.06C452.686 2524.63 454.459 2528.07 453.71 2531.79C452.96 2535.51 449.887 2538.53 445.826 2540.46C441.752 2542.4 436.539 2543.32 431.144 2542.85L430.147 2542.76L430.345 2541.77L430.576 2540.63L430.774 2539.64L431.771 2539.73C436.337 2540.14 440.666 2539.34 443.955 2537.78C447.258 2536.21 449.371 2533.95 449.873 2531.45C450.374 2528.96 449.23 2526.41 446.664 2524.32C444.109 2522.24 440.248 2520.72 435.682 2520.31L434.685 2520.22L434.883 2519.24L435.114 2518.09Z" fill="#76D3D9" stroke="#76D3D9" stroke-width="2"/>
<path d="M452.077 2531.15L452.275 2530.17L453.272 2530.26C458.667 2530.73 463.329 2532.54 466.494 2535.12C469.648 2537.69 471.422 2541.13 470.673 2544.85C469.923 2548.57 466.849 2551.59 462.789 2553.52C458.715 2555.45 453.502 2556.38 448.107 2555.9L447.11 2555.82L447.308 2554.83L447.539 2553.68L447.737 2552.7L448.734 2552.79C453.3 2553.19 457.629 2552.4 460.918 2550.83C464.221 2549.26 466.334 2547 466.835 2544.51C467.337 2542.02 466.193 2539.47 463.627 2537.38C461.072 2535.3 457.211 2533.78 452.645 2533.37L451.648 2533.28L451.846 2532.3L452.077 2531.15Z" fill="#76D3D9" stroke="#76D3D9" stroke-width="2"/>
<path d="M431.356 2540.25L431.554 2539.26L432.551 2539.35C437.946 2539.83 442.608 2541.63 445.774 2544.21C448.928 2546.78 450.701 2550.23 449.952 2553.95C449.203 2557.67 446.129 2560.68 442.069 2562.61C437.994 2564.55 432.781 2565.48 427.386 2565L426.389 2564.91L426.587 2563.93L426.819 2562.78L427.016 2561.8L428.013 2561.89C432.579 2562.29 436.908 2561.49 440.197 2559.93C443.501 2558.36 445.613 2556.1 446.115 2553.61C446.617 2551.12 445.473 2548.57 442.906 2546.48C440.351 2544.39 436.49 2542.87 431.924 2542.47L430.927 2542.38L431.125 2541.39L431.356 2540.25Z" fill="#76D3D9" stroke="#76D3D9" stroke-width="2"/>
<path d="M448.319 2553.3L448.517 2552.32L449.514 2552.41C454.909 2552.89 459.571 2554.69 462.737 2557.27C465.891 2559.84 467.664 2563.29 466.915 2567.01C466.166 2570.73 463.092 2573.74 459.032 2575.67C454.957 2577.61 449.744 2578.54 444.349 2578.06L443.352 2577.97L443.55 2576.99L443.781 2575.84L443.979 2574.86L444.976 2574.94C449.542 2575.35 453.871 2574.55 457.16 2572.99C460.463 2571.42 462.576 2569.16 463.078 2566.67C463.579 2564.17 462.436 2561.63 459.869 2559.53C457.314 2557.45 453.453 2555.93 448.887 2555.52L447.89 2555.44L448.088 2554.45L448.319 2553.3Z" fill="#76D3D9" stroke="#76D3D9" stroke-width="2"/>
</g>
<path d="M233.819 2423.22C240.927 2415.25 238.889 2394.1 236.981 2384.51C238.301 2382.57 242.315 2380.32 247.807 2386.88C253.299 2393.45 249.505 2415.98 246.921 2426.42L242.732 2420.03L233.819 2423.22Z" fill="#FFC1C1"/>
<path d="M-50.224 1999.32C50.3578 1950.74 148.05 2050.56 184.323 2106.54L190.2 2126.15L135.267 2286.75C102.706 2230.85 44.356 2194.19 19.2511 2182.85C-51.5448 2185.41 -46.4104 2322.08 -34.9938 2390.09L-113.081 2233.4C-134.038 2175.62 -150.806 2047.9 -50.224 1999.32Z" fill="url(#paint15_linear_5001_237)"/>
<g opacity="0.5">
<path d="M83.5775 2082.75L83.9745 2081.83L82.9947 2081.61C78.8375 2080.71 74.5555 2080.97 70.9764 2082.17C67.4036 2083.37 64.4209 2085.55 63.1421 2088.52C61.8632 2091.5 62.6151 2094.5 64.6308 2096.92C66.65 2099.34 69.991 2101.27 74.1482 2102.18L75.128 2102.39L75.5251 2101.47L75.9159 2100.56L76.313 2099.64L75.3332 2099.42C71.9097 2098.67 69.2358 2097.1 67.6633 2095.21C66.0873 2093.32 65.6709 2091.2 66.5043 2089.26C67.3377 2087.32 69.3542 2085.73 72.1477 2084.79C74.9349 2083.85 78.3863 2083.62 81.8098 2084.37L82.7896 2084.58L83.1867 2083.66L83.5775 2082.75Z" fill="#76D3D9" stroke="#76D3D9" stroke-width="2"/>
<path d="M65.5306 2087.84L65.9277 2086.92L64.9478 2086.7C60.7906 2085.79 56.5087 2086.05 52.9296 2087.26C49.3567 2088.45 46.374 2090.64 45.0952 2093.61C43.8163 2096.58 44.5682 2099.58 46.5839 2102.01C48.6031 2104.43 51.9441 2106.36 56.1013 2107.27L57.0811 2107.48L57.4782 2106.56L57.869 2105.65L58.2661 2104.72L57.2863 2104.51C53.8628 2103.76 51.1889 2102.19 49.6164 2100.3C48.0405 2098.41 47.624 2096.28 48.4574 2094.35C49.2908 2092.41 51.3073 2090.82 54.1008 2089.88C56.888 2088.94 60.3394 2088.71 63.7629 2089.46L64.7427 2089.67L65.1398 2088.75L65.5306 2087.84Z" fill="#76D3D9" stroke="#76D3D9" stroke-width="2"/>
<path d="M76.8548 2100.02L77.2519 2099.1L76.2721 2098.88C72.1148 2097.97 67.8329 2098.23 64.2538 2099.43C60.6809 2100.63 57.6982 2102.82 56.4194 2105.79C55.1406 2108.76 55.8924 2111.76 57.9081 2114.19C59.9273 2116.61 63.2683 2118.54 67.4255 2119.44L68.4054 2119.66L68.8024 2118.74L69.1932 2117.83L69.5903 2116.9L68.6105 2116.69C65.187 2115.94 62.5131 2114.37 60.9407 2112.48C59.3647 2110.59 58.9482 2108.46 59.7817 2106.53C60.6151 2104.59 62.6315 2103 65.425 2102.06C68.2122 2101.12 71.6636 2100.89 75.0871 2101.64L76.0669 2101.85L76.464 2100.93L76.8548 2100.02Z" fill="#76D3D9" stroke="#76D3D9" stroke-width="2"/>
<path d="M58.806 2105.11L59.2031 2104.18L58.2232 2103.97C54.066 2103.06 49.784 2103.32 46.2049 2104.52C42.6321 2105.72 39.6494 2107.91 38.3706 2110.88C37.0917 2113.85 37.8436 2116.85 39.8593 2119.27C41.8785 2121.7 45.2195 2123.62 49.3767 2124.53L50.3565 2124.75L50.7536 2123.82L51.1444 2122.92L51.5415 2121.99L50.5617 2121.78C47.1382 2121.03 44.4643 2119.46 42.8918 2117.57C41.3158 2115.68 40.8994 2113.55 41.7328 2111.61C42.5662 2109.68 44.5827 2108.08 47.3762 2107.15C50.1634 2106.21 53.6148 2105.98 57.0383 2106.72L58.0181 2106.94L58.4152 2106.02L58.806 2105.11Z" fill="#76D3D9" stroke="#76D3D9" stroke-width="2"/>
</g>
<mask id="mask5_5001_237" style="mask-type:alpha" maskUnits="userSpaceOnUse" x="-129" y="1986" width="320" height="405">
<path d="M-50.224 1999.32C50.3578 1950.74 148.05 2050.56 184.323 2106.54L190.2 2126.15L135.267 2286.75C102.706 2230.85 44.356 2194.19 19.2511 2182.85C-51.5448 2185.41 -46.4104 2322.08 -34.9938 2390.09L-113.081 2233.4C-134.038 2175.62 -150.806 2047.9 -50.224 1999.32Z" fill="url(#paint16_linear_5001_237)"/>
</mask>
<g mask="url(#mask5_5001_237)">
<path d="M-56.2263 2118.15C-13.7635 2069.37 87.4168 2128.43 110.236 2163.92L158.829 2205.4L110.644 2276.45L25.7367 2238.75L-41.8113 2437.33L-113.232 2293.33C-96.9481 2255.36 -98.6891 2166.93 -56.2263 2118.15Z" fill="url(#paint17_linear_5001_237)"/>
<path d="M83.6703 2136.16C78.1884 2152.17 59.8701 2185.52 30.4521 2190.85M-43.58 2110.87C-25.8631 2124.72 3.99773 2163.5 -18.2934 2207.78M-96.7895 2219.96C-77.7704 2223.79 -40.2277 2239.8 -42.2095 2273.15" stroke="#BEC6B1" stroke-width="5" stroke-linecap="round"/>
</g>
<path d="M192.343 2072.19L226.184 2153.76C232.451 2112.26 244.048 2098.26 252.66 2095.34C284.323 2112.56 287.601 2202.52 299.597 2231.97C309.194 2255.53 294.364 2295.2 292.682 2311.82C297.768 2328.41 308.023 2351.21 296.381 2379.69C284.738 2408.17 226.745 2383.37 199.203 2367.42C182.866 2350.65 157.611 2327.49 143.329 2318.87C129.461 2309.46 125.835 2312.19 109.859 2262.42C93.8828 2212.65 142.011 2173.99 173.31 2158.39C147.443 2105.61 179.993 2076.96 192.343 2072.19Z" fill="#5EBFC5"/>
<mask id="mask6_5001_237" style="mask-type:alpha" maskUnits="userSpaceOnUse" x="106" y="2072" width="197" height="321">
<path d="M192.275 2072.3L226.115 2153.86C232.382 2112.36 243.98 2098.37 252.592 2095.45C284.255 2112.66 287.533 2202.62 299.529 2232.07C309.125 2255.63 294.295 2295.31 292.614 2311.93C297.7 2328.52 307.955 2351.32 296.312 2379.8C284.67 2408.27 226.676 2383.48 199.135 2367.52C188.712 2349.37 156.135 2330.19 141.853 2321.57C133.536 2316.55 125.767 2312.29 109.791 2262.52C93.8144 2212.76 141.942 2174.09 173.241 2158.5C147.374 2105.72 179.925 2077.07 192.275 2072.3Z" fill="#5EBFC5"/>
</mask>
<g mask="url(#mask6_5001_237)">
<path d="M247.552 2080.63C226.289 2072.18 219.456 2103.97 221.916 2126L226.006 2155.06C278.007 2177.72 316.202 2265.38 316.202 2265.38C316.202 2265.38 344.881 2268.13 328.248 2247.62C311.615 2227.1 315.632 2163.04 315.632 2163.04C301.798 2139.1 268.815 2089.09 247.552 2080.63Z" fill="#569EA3"/>
</g>
<ellipse cx="202.735" cy="2282.07" rx="35.8658" ry="36.7477" transform="rotate(34.1469 202.735 2282.07)" fill="#FEDD92"/>
<rect x="181.676" y="2257.44" width="28.2223" height="38.2176" rx="14.1111" transform="rotate(12.855 181.676 2257.44)" fill="#040404"/>
<path d="M243.969 2244.32L242.581 2254.75" stroke="#569EA3" stroke-width="10" stroke-linecap="round"/>
<path d="M162.501 2082.15C156.686 2124.24 177.982 2151.85 189.356 2160.39L118.166 2232.88C116.69 2221.65 89.1318 2213.19 75.5375 2210.37C98.7754 2192.03 98.2828 2159.72 95.1318 2145.86C126.785 2151.99 153.234 2105.94 162.501 2082.15Z" fill="#5EBFC5"/>
<path d="M308.583 2215.05C317.102 2232.81 306.586 2255.19 300.126 2264L295.07 2223.61C298.779 2209.94 307.656 2211.16 308.583 2215.05Z" fill="url(#paint18_linear_5001_237)"/>
<path d="M153.098 2187.67L105.342 2153.85" stroke="#569EA3" stroke-width="10" stroke-linecap="round"/>
<path d="M162.624 2179.37L150.686 2122.09" stroke="#569EA3" stroke-width="10" stroke-linecap="round"/>
<path d="M89.4294 2207.17L147.066 2197.07" stroke="#569EA3" stroke-width="10" stroke-linecap="round"/>
<path d="M109.762 2223.28C106.059 2241.13 105.158 2283.17 131.179 2308.49C131.179 2308.49 218.797 2384.61 223.305 2381.63" stroke="#569EA3" stroke-width="10" stroke-linecap="round"/>
<circle cx="268.645" cy="2370.82" r="4.99769" transform="rotate(34.1469 268.645 2370.82)" fill="#569EA3"/>
<path d="M180.881 2180.22L161.086 2085.8L170.98 2194.82C181.216 2197.5 182.786 2193.52 180.881 2180.22Z" fill="#569EA3"/>
<path d="M-220.035 1061.03C-235.811 1035.24 -330.585 1062.83 -376 1079.84V1284.04H-344.628C-102.912 1287.03 378.189 1291.21 368.866 1284.04C359.544 1276.88 344.067 1273.3 337.494 1272.4H242.481C258.914 1262.25 277.439 1241.95 220.072 1241.95C148.365 1241.95 177.048 1246.43 168.981 1211.5C160.913 1176.57 -101.717 1222.25 -57.7957 1211.5C-13.8746 1200.75 -103.51 1130 -131.296 1105.81C-153.526 1086.47 -199.718 1113.88 -220.035 1130C-213.462 1117.76 -204.259 1086.83 -220.035 1061.03Z" fill="#5EBFC5" fill-opacity="0.2"/>
<path d="M-67.3398 1018C-42.7331 1018 -25.974 1048.16 -23.5866 1056.55C3.07663 1053.46 13.808 1077.01 15.8407 1089.17C51.4673 1075.72 75.6438 1096.54 83.2787 1108.63C128.89 1109.43 135.896 1116.87 133.698 1120.5H94.412C104.907 1131.03 104.694 1154.64 103.276 1165.13C118.763 1166.45 121.264 1174.03 120.579 1177.65C167.722 1163.34 205.745 1187.14 218.864 1200.82C224.868 1200.28 240.932 1200.62 257.157 1206.4C273.382 1212.18 269.165 1216.54 265.028 1217.99C258.22 1215.36 228.768 1215.13 214.893 1215.34C167.977 1213.23 160.408 1218.42 162.488 1221.28C177.167 1221.28 189.01 1228.22 183.478 1230.51C177.947 1232.8 117.033 1233.15 120.579 1230.51C124.124 1227.86 142.207 1223.28 140.222 1221.28C138.236 1219.28 56.7574 1215.63 56.7574 1217.99C56.7574 1220.35 61.0121 1223.28 70.1599 1223.28C77.4781 1223.28 79.7804 1226.57 80.0168 1228.22C30.9451 1232.87 2.36731 1231.15 -25.4305 1228.22C-53.2283 1225.29 -124.212 1225.72 -124.212 1222.57C-119.673 1217.08 -109.84 1215.32 -105.491 1215.13C-108.895 1211.7 -205.62 1211.41 -214.413 1211.12C-223.206 1210.84 -231.432 1212.55 -230.865 1215.13C-230.297 1217.7 -222.639 1216.85 -214.413 1218.56C-207.832 1219.94 -210.064 1221.81 -212.002 1222.57C-212.002 1222.57 -326.029 1218.85 -332.27 1218.71C-338.51 1218.56 -335.035 1213.13 -335.035 1213.13C-322.838 1213.13 -312.84 1205.26 -306.741 1205.26C-301.862 1205.26 -290.668 1203.02 -285.68 1201.9C-277.681 1180.84 -255.022 1173 -244.693 1171.71C-257.116 1162.73 -244.338 1156.81 -236.396 1154.97C-238.665 1112.97 -216.895 1097.87 -201.719 1095.25H-219.164C-244.693 1096.61 -246.536 1090.31 -236.396 1087.88C-226.255 1085.45 -193.706 1086.24 -193.706 1086.24C-183.495 1048.24 -152.86 1045.8 -138.82 1049.33C-131.275 1032.33 -116.104 1032.19 -109.462 1034.24C-102.824 1020.85 -84.9971 1018 -67.3398 1018Z" fill="white"/>
<path d="M149.312 1138.05C143.18 1138.41 142.067 1135.47 142.277 1133.96C142.759 1132.91 144.833 1130.87 149.281 1131.03C153.728 1131.19 156.49 1133.2 157.315 1134.19C157.202 1135.33 155.444 1137.7 149.312 1138.05Z" fill="white"/>
<path opacity="0.6" fill-rule="evenodd" clip-rule="evenodd" d="M-23.4429 1056.34C-25.7688 1050.9 -30.3214 1043.11 -32.4488 1039.89C-33.7489 1043.3 -38.8026 1051.36 -47.4823 1056.34C-56.162 1061.32 -67.787 1060.84 -72.5145 1059.99V1061.77C-52.9993 1061.26 -47.0332 1070.67 -46.4895 1075.44C-41.8944 1061.53 -29.2104 1056.91 -23.4429 1056.34ZM-115.913 1059.99C-122.04 1058.27 -131.041 1048.4 -134.776 1043.68C-135.797 1042.43 -137.754 1046.97 -138.605 1049.4C-136.847 1050.03 -135.32 1053.1 -134.776 1054.55C-152.079 1053.12 -161.226 1057.58 -163.637 1059.99C-184.457 1073.89 -187.062 1091.48 -185.762 1098.54C-201.363 1097.11 -211.74 1104.57 -214.836 1109.48C-230.437 1121.71 -236.039 1140.31 -236.039 1154.9C-255.101 1159.71 -250.033 1168.02 -245.116 1171.57C-269.567 1176.03 -282.44 1193.46 -285.82 1201.61C-296.641 1204.44 -303.201 1204.98 -306.767 1205.27H-306.767H-306.768H-306.768C-308.156 1205.38 -309.09 1205.46 -309.647 1205.62C-310.531 1205.87 -311.921 1206.49 -313.711 1207.3C-315.941 1208.3 -318.792 1209.58 -322.056 1210.77C-326.765 1212.48 -332.717 1212.96 -335.104 1212.98C-337.487 1217.62 -334.112 1218.78 -332.126 1218.78L-261.142 1220.92L-212.213 1222.71C-205.121 1219.96 -217.011 1217.85 -223.842 1217.13C-227.459 1217.01 -233.784 1216.06 -230.154 1213.2C-226.523 1210.34 -200.37 1210.81 -187.748 1211.41L-139.953 1212.41C-117.374 1212.41 -107.664 1214.27 -105.631 1215.2C-116.807 1216.17 -122.673 1220.61 -124.21 1222.71C-119.113 1224.97 -84.4495 1225.66 -62.6585 1226.09C-61.7109 1226.11 -60.7876 1226.13 -59.8921 1226.14C-47.7907 1226.39 -33.4174 1227.6 -19.2933 1228.8C-8.33951 1229.73 2.46442 1230.64 11.9425 1231.08C29.3019 1231.88 64.4179 1229.41 79.806 1228.08C79.2387 1224.28 74.6293 1223.71 69.9491 1223.71C65.2689 1223.71 61.2268 1222.71 56.5466 1219.56C51.8664 1216.42 74.6293 1217.13 77.0404 1217.35C77.7906 1217.41 81.418 1217.54 86.5635 1217.71L86.5716 1217.71L86.5728 1217.71C97.9638 1218.09 116.786 1218.73 128.31 1219.56C141.699 1220.54 141.642 1222.07 139.94 1222.71C136.796 1224.24 128.934 1227.73 122.637 1229.51C116.34 1231.28 123.796 1231.82 128.31 1231.87C141.665 1232.01 169.482 1232.21 173.907 1231.87C178.332 1231.52 182.984 1230.15 184.757 1229.51C183.168 1223.33 169.109 1221.49 162.277 1221.35C161.994 1217.41 167.956 1216.71 174.885 1215.89L174.885 1215.89C176.63 1215.69 178.435 1215.47 180.218 1215.2C185.962 1214.32 202.813 1214.64 218.363 1214.94L218.365 1214.94C226.811 1215.1 234.874 1215.25 240.565 1215.2C253.5 1215.09 262.264 1217.01 265.03 1217.99C267.526 1217.36 268.717 1215.06 269.001 1213.98C256.237 1212.27 228.666 1208.79 220.497 1208.62C212.328 1208.45 196.292 1200.73 189.295 1196.89C161.044 1181.61 128.547 1183.61 115.83 1186.52C115.433 1178.74 110.795 1174.5 108.526 1173.36C101.491 1170.44 93.5394 1172.14 90.4429 1173.36V1175.5C105.264 1183.37 99.2361 1200.97 97.7469 1202.33C97.0732 1202.94 95.877 1202.3 94.8149 1201.72C93.5293 1201.03 92.4403 1200.45 92.7121 1202.33C93.1092 1205.07 90.5611 1206.33 89.2374 1206.62C82.7123 1208.31 77.5011 1202.2 75.4383 1199.78C75.0575 1199.34 74.784 1199.01 74.6293 1198.89C73.8351 1198.26 74.9603 1194 75.6221 1191.95C77.0971 1195.62 80.2551 1194.15 81.6497 1192.96C84.5429 1192.04 83.8007 1187.33 83.068 1185.09C70.9277 1162.37 48.9353 1157.22 39.4566 1157.48L37.542 1154.04L40.6621 1151.61C44.5198 1139.54 69.9491 1146.03 71.5801 1156.98C80.6569 1155.83 87.1336 1165.61 89.2374 1170.64C92.3008 1166.75 99.5434 1165.11 102.782 1164.77C94.4424 1164.77 90.2774 1159.58 89.2374 1156.98C91.3364 1137.06 79.6169 1126.51 73.4948 1123.72C55.7949 1092.99 20.8302 1095.08 5.56036 1099.97C-11.9693 1064.84 -47.3169 1080.56 -62.7995 1092.82C-71.7629 1075.82 -88.0917 1068.24 -95.1357 1066.57C-92.7247 1065.99 -88.2572 1061.92 -87.4771 1059.99C-86.8531 1058.44 -89.0136 1056.91 -90.1718 1056.34C-96.9794 1060.42 -108.255 1062.13 -115.913 1059.99ZM-201.717 1095.18L-194.484 1092.39C-212.993 1091.03 -237.67 1090.8 -241.925 1091.03C-242.232 1092.41 -240.379 1095.18 -230.508 1095.18H-201.717ZM-177.535 1179.08C-175.455 1177.82 -170.742 1175.14 -168.529 1174.57C-166.317 1174 -159.051 1174.33 -155.694 1174.57C-151.368 1166.39 -137.172 1151.37 -114.99 1156.69C-111.539 1143.74 -94.695 1120.93 -54.9272 1133.23C-52.847 1130.08 -45.0703 1125.68 -30.6041 1133.23C-16.1379 1140.78 -16.7288 1150.83 -18.8326 1154.9C-11.2922 1161.22 1.77466 1177.36 -6.28101 1191.38C2.37033 1189.74 20.2404 1191.98 22.5095 1214.13H19.0348C15.7019 1207.81 5.49048 1195.94 -8.69208 1199.03C-13.1359 1200.42 -21.3854 1200.32 -18.8326 1188.88C-16.9652 1179.17 -20.109 1160.12 -47.6232 1161.55C-49.0414 1154.78 -56.9411 1142.08 -77.1938 1145.46C-97.4464 1148.84 -104.59 1159.46 -105.63 1164.34C-117.921 1162.03 -144.306 1162.17 -151.51 1181.22L-177.535 1179.08Z" fill="url(#paint19_linear_5001_237)"/>
</g>
<defs>
<linearGradient id="paint0_linear_5001_237" x1="960" y1="4159" x2="960" y2="0" gradientUnits="userSpaceOnUse">
<stop stop-color="#98C8D3"/>
<stop offset="0.41" stop-color="#5EA6B7"/>
<stop offset="1" stop-color="#0A3147"/>
</linearGradient>
<linearGradient id="paint1_linear_5001_237" x1="-204.182" y1="2688.15" x2="-58.9762" y2="2834.94" gradientUnits="userSpaceOnUse">
<stop stop-color="#89E4F5"/>
<stop offset="1" stop-color="#61C8EE"/>
</linearGradient>
<linearGradient id="paint2_linear_5001_237" x1="-22.9578" y1="2072.87" x2="239.354" y2="2358.57" gradientUnits="userSpaceOnUse">
<stop stop-color="#89E4F5"/>
<stop offset="1" stop-color="#61C8EE"/>
</linearGradient>
<linearGradient id="paint3_linear_5001_237" x1="1697.04" y1="2427.17" x2="1959.35" y2="2712.86" gradientUnits="userSpaceOnUse">
<stop stop-color="#89E4F5"/>
<stop offset="1" stop-color="#61C8EE"/>
</linearGradient>
<linearGradient id="paint4_linear_5001_237" x1="1630.24" y1="376.061" x2="2066.89" y2="653.19" gradientUnits="userSpaceOnUse">
<stop offset="0.0484235" stop-color="#F9DFD4"/>
<stop offset="0.552395" stop-color="#AFD0D0"/>
</linearGradient>
<linearGradient id="paint5_linear_5001_237" x1="1588.53" y1="504.19" x2="1895.96" y2="699.312" gradientUnits="userSpaceOnUse">
<stop offset="0.0484235" stop-color="#F9DFD4"/>
<stop offset="0.552395" stop-color="#AFD0D0"/>
</linearGradient>
<linearGradient id="paint6_linear_5001_237" x1="1727.68" y1="480.748" x2="1884.72" y2="1082.67" gradientUnits="userSpaceOnUse">
<stop stop-color="#5EBFC5"/>
<stop offset="1" stop-color="#4A6A65"/>
</linearGradient>
<linearGradient id="paint7_linear_5001_237" x1="1727.68" y1="480.748" x2="1884.72" y2="1082.67" gradientUnits="userSpaceOnUse">
<stop stop-color="#5EBFC5"/>
<stop offset="1" stop-color="#4A6A65"/>
</linearGradient>
<linearGradient id="paint8_linear_5001_237" x1="1584.8" y1="950.612" x2="1832.51" y2="1208.44" gradientUnits="userSpaceOnUse">
<stop stop-color="#5EBFC5"/>
<stop offset="1" stop-color="#2D5C5F"/>
</linearGradient>
<linearGradient id="paint9_linear_5001_237" x1="1584.8" y1="950.612" x2="1832.51" y2="1208.44" gradientUnits="userSpaceOnUse">
<stop stop-color="#5EBFC5"/>
<stop offset="1" stop-color="#2D5C5F"/>
</linearGradient>
<linearGradient id="paint10_linear_5001_237" x1="1943.94" y1="994.25" x2="1452.72" y2="1306.02" gradientUnits="userSpaceOnUse">
<stop offset="0.0484235" stop-color="#F9DFD4"/>
<stop offset="0.552395" stop-color="#AFD0D0"/>
</linearGradient>
<linearGradient id="paint11_linear_5001_237" x1="1990.85" y1="1138.4" x2="1644.99" y2="1357.91" gradientUnits="userSpaceOnUse">
<stop offset="0.0484235" stop-color="#F9DFD4"/>
<stop offset="0.552395" stop-color="#AFD0D0"/>
</linearGradient>
<linearGradient id="paint12_linear_5001_237" x1="-12.9477" y1="2382.3" x2="1047.54" y2="3215.29" gradientUnits="userSpaceOnUse">
<stop stop-color="#5EBFC5"/>
<stop offset="1" stop-color="#2D5C5F"/>
</linearGradient>
<linearGradient id="paint13_linear_5001_237" x1="-12.5865" y1="2382.03" x2="1047.58" y2="3214.57" gradientUnits="userSpaceOnUse">
<stop stop-color="#5EBFC5"/>
<stop offset="1" stop-color="#2D5C5F"/>
</linearGradient>
<linearGradient id="paint14_linear_5001_237" x1="-152.103" y1="2573.31" x2="1315.21" y2="3053.02" gradientUnits="userSpaceOnUse">
<stop stop-color="#F4F5DC"/>
<stop offset="1" stop-color="#DDE6CD"/>
</linearGradient>
<linearGradient id="paint15_linear_5001_237" x1="110.443" y1="2026.58" x2="-104.25" y2="2343.12" gradientUnits="userSpaceOnUse">
<stop stop-color="#5EBFC5"/>
<stop offset="1" stop-color="#2D5C5F"/>
</linearGradient>
<linearGradient id="paint16_linear_5001_237" x1="110.443" y1="2026.58" x2="-104.25" y2="2343.12" gradientUnits="userSpaceOnUse">
<stop stop-color="#5EBFC5"/>
<stop offset="1" stop-color="#2D5C5F"/>
</linearGradient>
<linearGradient id="paint17_linear_5001_237" x1="72.731" y1="2129.47" x2="12.0287" y2="2362.66" gradientUnits="userSpaceOnUse">
<stop stop-color="#DAE4CB"/>
<stop offset="1" stop-color="#FCFAE1"/>
</linearGradient>
<linearGradient id="paint18_linear_5001_237" x1="304.101" y1="2243.13" x2="296.235" y2="2287" gradientUnits="userSpaceOnUse">
<stop stop-color="#5EBFC5"/>
<stop offset="1" stop-color="#2D5C5F"/>
</linearGradient>
<linearGradient id="paint19_linear_5001_237" x1="39.0234" y1="1072.18" x2="-375.951" y2="1335.56" gradientUnits="userSpaceOnUse">
<stop offset="0.0484235" stop-color="#F9DFD4"/>
<stop offset="0.552395" stop-color="#AFD0D0"/>
</linearGradient>
<clipPath id="clip0_5001_237">
<rect width="1920" height="2747" fill="white"/>
</clipPath>
</defs>
</svg>
