<svg width="2365" height="1876" viewBox="0 0 2365 1876" fill="none" xmlns="http://www.w3.org/2000/svg">
<g clip-path="url(#clip0_323_1840)">
<rect width="2364.89" height="1875.33" transform="translate(0.0917969 0.0761719)" fill="white"/>
<g clip-path="url(#clip1_323_1840)">
<rect width="2364.89" height="1875.33" transform="translate(0.0917969 0.0761719)" fill="#8A3A46"/>
<path d="M858.7 1830.81C880.539 1752.5 791.021 1511.65 743.029 1399.93L613.992 997.178L879.886 331.661L1444.52 -96.1152C1699.99 -79.6924 2178.54 -37.1494 2049.04 1.63985C1919.53 40.4291 1815.73 298.815 1780.01 423.16C1753.11 484.472 1545.14 460.698 1444.52 441.147C1366.32 469.926 1330.6 453.138 1322.52 441.147C1283.42 544.376 1188.01 609.285 1175.5 633.529C1162.98 657.772 1075.4 1106.66 1069.14 1256.82C1062.88 1406.97 998.756 1552.43 986.244 1579.8C976.233 1601.7 937.236 2116.02 918.988 2370.44C920.031 2209.86 917.268 1877.6 897.873 1833.18C879.294 1790.63 864.495 1812.62 858.7 1830.81C858.475 1831.62 858.238 1832.41 857.989 1833.18C858.208 1832.4 858.445 1831.61 858.7 1830.81Z" fill="#A25252"/>
<path d="M1040.99 3101.81C865.852 2981.71 709.816 2648.65 739.902 1886.36C754.234 1523.22 765.598 1255.86 777.737 1056.61L592.878 1303.74L656.224 1582.93C722.541 1763.11 683.856 1772.18 656.224 1754.19C621.188 1820.51 553.516 1827.7 524.059 1823.01V2597.23L759.453 2694.99L739.902 2900.66L1040.99 3101.81Z" fill="#D08042"/>
<path d="M700.018 728.938L788.427 901.769C802.23 727.673 818.15 622.649 840.785 552.718L700.018 728.938Z" fill="#D08042"/>
<path d="M570.199 1104.32L700.018 1038.63L674.993 789.937L656.224 958.858L615.557 883L570.199 1104.32Z" fill="#D08042"/>
<path d="M517.02 1113.7L488.867 1206.76L632.762 1141.86L524.059 1153.74L517.02 1113.7Z" fill="#D08042"/>
<path fill-rule="evenodd" clip-rule="evenodd" d="M975.555 381.493C912.006 429.425 870.579 460.672 840.785 552.718L700.018 728.938L788.427 901.769C784.742 948.245 781.207 999.645 777.737 1056.61L592.878 1303.74L656.224 1582.93C722.541 1763.11 683.856 1772.18 656.224 1754.19C621.188 1820.51 553.516 1827.7 524.059 1823.01V2597.23L759.453 2694.99L739.902 2900.66L1040.99 3101.81C1084.99 3131.98 1130.19 3148.71 1173.95 3155.43L840.785 3197.12C731.299 3067.8 514.674 2800.88 524.059 2767.72C533.443 2734.56 387.202 2718.45 312.908 2714.54L400.496 1998.97H312.908L400.496 1582.93H348.1L470.88 761.784C482.871 703.129 545.487 556.572 700.018 439.583C696.108 381.19 718.787 249.078 840.785 187.766C962.783 126.454 1141.87 19.0285 1216.16 -27.0202C1453.83 -21.0932 1598.56 -14.5208 1549.31 -7.74442C1413.29 10.9747 1391.27 113.333 1375.61 186.121C1371.65 204.561 1368.09 221.102 1363.19 233.906C1354.18 257.447 1305.45 277.511 1245.88 293.346C1177.22 311.6 1094.17 324.234 1040.99 330.097C1016.87 350.333 995.158 366.707 975.555 381.493ZM700.018 1038.63L570.199 1104.32L615.557 883L656.224 958.858L674.993 789.937L700.018 1038.63ZM517.02 1113.7L488.867 1206.76L632.762 1141.86L524.059 1153.74L517.02 1113.7ZM470.88 1754.19L524.059 1539.13L592.878 1693.19L470.88 1754.19Z" fill="#9E402B"/>
<path d="M524.059 1539.13L470.88 1754.19L592.878 1693.19L524.059 1539.13Z" fill="#D08042"/>
<path d="M1114.5 1173.14C1112.62 1190.03 1135.61 1474.74 1147.35 1614.99L1238.19 396.571L1163.77 456.788L1155.95 736.758H1132.49V520.915L1105.16 583.478V970.588L1155.95 958.858L1132.49 1056.61L1105.16 1153.74C1111.26 1160.95 1115.32 1165.75 1114.5 1173.14Z" fill="#D08042"/>
<path d="M1119.19 1006.56L1105.16 1104.32L1090.26 1094.93L1119.19 1006.56Z" fill="#D08042"/>
<path d="M1098.08 439.583V545.94L1132.49 484.159L1098.08 439.583Z" fill="#D08042"/>
<path fill-rule="evenodd" clip-rule="evenodd" d="M1040.99 330.097C1046.46 540.466 1059.6 980.286 1068.36 1056.61C1075.48 1118.64 1093.83 1140.34 1105.16 1153.74L1132.49 1056.61L1155.95 958.858L1105.16 970.588V583.478L1132.49 520.915V736.758H1155.95L1163.77 456.788L1238.19 396.571L1245.88 293.346C1177.22 311.6 1094.17 324.234 1040.99 330.097ZM1105.16 1104.32L1119.19 1006.56L1090.26 1094.93L1105.16 1104.32ZM1098.08 439.583V545.94L1132.49 484.159L1098.08 439.583ZM1119.19 445.839L1105.16 405.955L1145 416.904L1119.19 445.839Z" fill="#9E402B"/>
<path d="M1105.16 405.955L1119.19 445.839L1145 416.904L1105.16 405.955Z" fill="#D08042"/>
<path d="M226.101 2218.73L252.691 2872.51L269.895 2815.42L312.908 2976.52L122.09 2900.66L176.051 2767.72V2849.05L226.101 2218.73Z" fill="#9E402B"/>
<path d="M400.496 789.937L252.691 1693.19L122.09 1668.95L348.1 814.18L400.496 789.937Z" fill="#9E402B"/>
<path fill-rule="evenodd" clip-rule="evenodd" d="M1341.29 3134.49C1293.09 3154.72 1234.92 3164.79 1173.95 3155.43L1341.29 3134.49ZM840.785 3197.12C731.299 3067.8 514.674 2800.88 524.059 2767.72C533.443 2734.56 387.202 2718.45 312.908 2714.54L400.496 1998.97H312.908L400.496 1582.93H348.1L470.88 761.784C482.871 703.129 545.487 556.572 700.018 439.583C696.108 381.19 718.787 249.078 840.785 187.766C962.783 126.454 1141.87 19.0285 1216.16 -27.0202C795.555 -37.5096 83.8625 -45.9771 -358.865 -49.9746V3347.21L840.785 3197.12ZM252.691 2872.51L226.101 2218.73L176.051 2849.05V2767.72L122.09 2900.66L312.908 2976.52L269.895 2815.42L252.691 2872.51ZM400.496 789.937L252.691 1693.19L122.09 1668.95L348.1 814.18L400.496 789.937ZM400.496 728.938L348.1 761.784L373.125 676.541L400.496 619.452V728.938Z" fill="#4E1212"/>
<path d="M348.1 761.784L400.496 728.938V619.452L373.125 676.541L348.1 761.784Z" fill="#9E402B"/>
<path d="M1929.38 1706.49C1903.73 1658.94 1820.68 1625.68 1782.36 1614.99C1782.36 1575.89 1815.21 1587.62 1854.31 1570.41C1893.41 1553.21 1961.45 1614.99 1961.45 1675.21C1961.45 1735.42 1961.45 1765.92 1929.38 1706.49Z" fill="#FF7556"/>
<path d="M996.41 2381.39C1013.88 2370.96 1056.16 2350.11 1085.56 2350.11C1122.32 2350.11 1020.65 2412.67 996.41 2381.39Z" fill="#FF7556"/>
<path d="M1052.72 2300.84C1072.11 2289.58 1072.79 2268.51 1070.7 2259.39C1076.18 2239.84 1116.84 2241.4 1122.32 2267.21C1127.79 2293.02 1116.06 2314.92 1070.7 2329.77C1025.35 2344.63 1028.47 2314.92 1052.72 2300.84Z" fill="#FF7556"/>
<path fill-rule="evenodd" clip-rule="evenodd" d="M1155.95 2928.82C1056.47 3008.9 1066.79 3118.33 1085.56 3133.71L1443.74 3180.64C1480.23 3132.43 1531.33 2897.07 1443.74 2745.04C1356.15 2593.01 1296.19 2525.28 1277.16 2510.43C1332.69 2515.38 1453.28 2551.72 1491.44 2657.45C1539.15 2789.61 1619.7 2719.23 1571.99 2475.23C1547.95 2352.25 1501.45 2298.01 1463.14 2253.33C1425.46 2209.36 1395.7 2174.65 1403.07 2092.82C1412.45 1988.6 1438.06 1952.39 1462.94 1917.2C1477.46 1896.66 1491.73 1876.48 1502.39 1843.34C1526.89 1835.26 1568.55 1856.01 1539.15 2003.66C1510.98 2145.07 1629.73 2193.75 1709.32 2226.36C1733.6 2236.32 1754.24 2244.77 1765.94 2253.92C1770 2257.09 1774.16 2260.2 1778.36 2263.35C1825.99 2298.99 1879.02 2338.67 1848.83 2510.43C1815.99 2697.33 1853.53 2837.32 1995.08 2844.36C2050.35 2847.1 2101.21 2866.19 2148.83 2884.06C2223.15 2911.95 2289.55 2936.87 2352.47 2892.06C2384.76 2869.06 2407.26 2840.4 2427.2 2815C2470.97 2759.23 2502.38 2719.22 2598.03 2789.61C2617 2803.58 2635.11 2817.54 2652.56 2830.98C2763.09 2916.18 2846.6 2980.55 2949.95 2892.06C3045.67 2810.1 2958.03 2651.45 2902.24 2582.37C2951.51 2574.81 3053.96 2572.05 3069.6 2621.47C3089.15 2683.26 3243.21 2610.53 3173.61 2437.7C3117.93 2299.43 3126.43 2201.26 3137.64 2169.46C3173.09 2185.62 3254.94 2261.89 3298.74 2437.7C3325.17 2543.81 3314.59 2607.26 3306.17 2657.71C3297.16 2711.73 3290.63 2750.85 3334.71 2811.51C3402.91 2905.35 3504.94 3047.62 3547.43 3107.03L3855.55 3111.03C3702.01 3039.61 3399.93 2841.7 3419.95 2621.47C3437.4 2429.52 3376.52 2355.82 3292.19 2253.75C3255.58 2209.45 3214.56 2159.8 3173.61 2092.82C3065.38 1915.76 3104.53 1792.77 3137.64 1753.41C3069.6 1785.47 3026.59 1839.43 3069.6 2053.71C3112.61 2267.99 2977.32 2436.13 2930.4 2314.13C2892.86 2216.53 2492.37 1809.72 2427.2 1843.34C2549.19 1882.45 2594.9 2271.12 2441.62 2231.24C2341.96 2205.3 2426.5 2485.89 2352.47 2537.01C2312.64 2564.52 2348.35 2586.23 2315.71 2621.47C2214.83 2730.4 2076.08 2642.59 2197.3 2475.23C2294.27 2341.35 2199.45 2271.9 2180.42 2253.92C2123.33 2343.07 1963.01 2282.07 1995.08 2003.66C2020.73 1780.94 1908.27 1710.66 1848.83 1703.36C1858.22 1782.08 1864.79 1952.36 1815.99 2003.66C1754.99 2067.79 1626.73 1989.59 1637.68 1639.23C1646.44 1358.95 1551.14 1306.08 1502.39 1314.68C1567.3 1371.77 1373.35 1771.4 1277.16 1875.41C1180.97 1979.42 1298.28 2250.01 1334.25 2314.13C1370.22 2378.26 1302.19 2503.39 1220.07 2386.08C1137.96 2268.77 923.68 2500.26 973.73 2475.23C1004.14 2460.03 1033.11 2485.53 1070.46 2518.41C1094.58 2539.65 1122.19 2563.96 1155.95 2582.37C1241.97 2629.29 1280.29 2828.71 1155.95 2928.82Z" fill="#FF7556"/>
<path d="M1443.74 2745.04C1531.33 2897.07 1480.23 3132.43 1443.74 3180.64L3547.43 3107.03C3504.94 3047.62 3402.91 2905.35 3334.71 2811.51C3290.63 2750.85 3297.16 2711.73 3306.17 2657.71C3314.59 2607.26 3325.17 2543.81 3298.74 2437.7C3254.94 2261.89 3173.09 2185.62 3137.64 2169.46C3126.43 2201.26 3117.93 2299.43 3173.61 2437.7C3243.21 2610.53 3089.15 2683.26 3069.6 2621.47C3053.96 2572.05 2951.51 2574.81 2902.24 2582.37C2958.03 2651.45 3045.67 2810.1 2949.95 2892.06C2846.6 2980.55 2763.09 2916.18 2652.56 2830.98C2635.11 2817.54 2617 2803.58 2598.03 2789.61C2502.38 2719.22 2470.97 2759.23 2427.2 2815C2407.26 2840.4 2384.76 2869.06 2352.47 2892.06C2289.55 2936.87 2223.15 2911.95 2148.83 2884.06C2101.21 2866.19 2050.35 2847.1 1995.08 2844.36C1853.53 2837.32 1815.99 2697.33 1848.83 2510.43C1879.02 2338.67 1825.99 2298.99 1778.36 2263.35C1774.16 2260.2 1770 2257.09 1765.94 2253.92C1754.24 2244.77 1733.6 2236.32 1709.32 2226.36C1629.73 2193.75 1510.98 2145.07 1539.15 2003.66C1568.55 1856.01 1526.89 1835.26 1502.39 1843.34C1491.73 1876.48 1477.46 1896.66 1462.94 1917.2C1438.06 1952.39 1412.45 1988.6 1403.07 2092.82C1395.7 2174.65 1425.46 2209.36 1463.14 2253.33C1501.45 2298.01 1547.95 2352.25 1571.99 2475.23C1619.7 2719.23 1539.15 2789.61 1491.44 2657.45C1453.28 2551.72 1332.69 2515.38 1277.16 2510.43C1296.19 2525.28 1356.15 2593.01 1443.74 2745.04Z" fill="#FBE6BF"/>
<path d="M4065.62 965.651C4090.98 894.182 4173.07 844.185 4210.95 828.12C4210.95 769.347 4178.48 786.979 4139.83 761.118C4101.18 735.258 4033.93 828.12 4033.93 918.631C4033.93 1009.14 4033.93 1054.99 4065.62 965.651Z" fill="#FF7556"/>
<path d="M4987.84 1980.08C4970.58 1964.41 4928.79 1933.06 4899.72 1933.06C4863.39 1933.06 4963.88 2027.1 4987.84 1980.08Z" fill="#FF7556"/>
<path d="M4932.19 1859.01C4913.02 1842.08 4912.35 1810.42 4914.41 1796.71C4909 1767.32 4868.8 1769.67 4863.39 1808.46C4857.98 1847.26 4869.57 1880.17 4914.41 1902.5C4959.24 1924.84 4956.15 1880.17 4932.19 1859.01Z" fill="#FF7556"/>
<path fill-rule="evenodd" clip-rule="evenodd" d="M4830.15 2802.91C4928.48 2923.28 4918.27 3087.77 4899.72 3110.89L4545.67 3181.42C4509.6 3108.96 4459.09 2755.19 4545.67 2526.68C4632.25 2298.17 4691.52 2196.37 4710.33 2174.04C4655.44 2181.48 4536.24 2236.1 4498.52 2395.02C4451.36 2593.68 4371.74 2487.88 4418.9 2121.14C4442.66 1936.28 4488.63 1854.75 4526.49 1787.59C4563.74 1721.51 4593.15 1669.34 4585.87 1546.33C4576.59 1389.69 4551.29 1335.26 4526.69 1282.36C4512.34 1251.5 4498.23 1221.16 4487.7 1171.36C4463.47 1159.21 4422.3 1190.4 4451.36 1412.33C4479.2 1624.88 4361.82 1698.04 4283.15 1747.07C4259.15 1762.03 4238.75 1774.74 4227.18 1788.48C4223.17 1793.25 4219.06 1797.93 4214.91 1802.65C4167.82 1856.23 4115.41 1915.88 4145.24 2174.04C4177.71 2454.97 4140.61 2665.38 4000.69 2675.96C3946.05 2680.09 3895.77 2708.78 3848.7 2735.64C3775.24 2777.56 3709.61 2815.01 3647.41 2747.67C3615.49 2713.1 3593.25 2670.01 3573.55 2631.84C3530.27 2548.01 3499.23 2487.87 3404.68 2593.68C3385.93 2614.67 3368.02 2635.65 3350.78 2655.86C3241.52 2783.92 3158.97 2880.67 3056.82 2747.67C2962.2 2624.48 3048.83 2386.01 3103.97 2282.18C3055.27 2270.81 2954.01 2266.66 2938.54 2340.95C2919.22 2433.81 2766.93 2324.5 2835.73 2064.72C2890.77 1856.89 2882.37 1709.33 2871.29 1661.53C2836.25 1685.82 2755.34 1800.47 2712.05 2064.72C2685.92 2224.22 2696.38 2319.58 2704.7 2395.41C2713.61 2476.62 2720.06 2535.42 2676.49 2626.59C2609.08 2767.65 2508.23 2981.49 2466.22 3070.78L2161.65 3076.8C2313.42 2969.44 2612.02 2671.97 2592.23 2340.95C2574.98 2052.42 2635.16 1941.66 2718.52 1788.24C2754.71 1721.65 2795.25 1647.02 2835.73 1546.33C2942.72 1280.21 2904.02 1095.34 2871.29 1036.18C2938.54 1084.37 2981.06 1165.48 2938.54 1487.56C2896.03 1809.64 3029.76 2062.37 3076.14 1878.99C3113.25 1732.29 3509.13 1120.81 3573.55 1171.36C3452.95 1230.13 3407.77 1814.34 3559.29 1754.39C3657.8 1715.41 3574.24 2137.16 3647.41 2214C3686.79 2255.35 3651.48 2287.98 3683.74 2340.95C3783.46 2504.68 3920.62 2372.69 3800.8 2121.14C3704.94 1919.9 3798.67 1815.52 3817.48 1788.48C3873.91 1922.48 4032.38 1830.8 4000.69 1412.33C3975.33 1077.55 4086.49 971.918 4145.24 960.947C4135.97 1079.28 4129.47 1335.22 4177.71 1412.33C4238.01 1508.72 4364.78 1391.17 4353.96 864.558C4345.3 443.269 4439.51 363.807 4487.7 376.737C4423.53 462.547 4615.25 1063.21 4710.33 1219.55C4805.41 1375.89 4689.46 1782.6 4653.9 1878.99C4618.34 1975.38 4685.59 2163.46 4766.76 1987.13C4847.93 1810.81 5059.74 2158.75 5010.26 2121.14C4980.2 2098.28 4951.57 2136.62 4914.65 2186.04C4890.81 2217.96 4863.51 2254.5 4830.15 2282.18C4745.11 2352.71 4707.24 2652.45 4830.15 2802.91Z" fill="#FF7556"/>
<path d="M4545.67 2526.68C4459.09 2755.19 4509.6 3108.96 4545.67 3181.42L2466.22 3070.78C2508.23 2981.49 2609.08 2767.65 2676.49 2626.59C2720.06 2535.42 2713.61 2476.62 2704.7 2395.41C2696.38 2319.58 2685.92 2224.22 2712.05 2064.72C2755.34 1800.47 2836.25 1685.82 2871.29 1661.53C2882.37 1709.33 2890.77 1856.89 2835.73 2064.72C2766.93 2324.5 2919.22 2433.81 2938.54 2340.95C2954.01 2266.66 3055.27 2270.81 3103.97 2282.18C3048.83 2386.01 2962.2 2624.48 3056.82 2747.67C3158.97 2880.67 3241.52 2783.92 3350.78 2655.86C3368.02 2635.65 3385.93 2614.67 3404.68 2593.68C3499.23 2487.87 3530.27 2548.01 3573.55 2631.84C3593.25 2670.01 3615.49 2713.1 3647.41 2747.67C3709.61 2815.01 3775.24 2777.56 3848.7 2735.64C3895.77 2708.78 3946.05 2680.09 4000.69 2675.96C4140.61 2665.38 4177.71 2454.97 4145.24 2174.04C4115.41 1915.88 4167.82 1856.23 4214.91 1802.65C4219.06 1797.93 4223.17 1793.25 4227.18 1788.48C4238.75 1774.74 4259.15 1762.03 4283.15 1747.07C4361.82 1698.04 4479.2 1624.88 4451.36 1412.33C4422.3 1190.4 4463.47 1159.21 4487.7 1171.36C4498.23 1221.16 4512.34 1251.5 4526.69 1282.36C4551.29 1335.26 4576.59 1389.69 4585.87 1546.33C4593.15 1669.34 4563.74 1721.51 4526.49 1787.59C4488.63 1854.75 4442.66 1936.28 4418.9 2121.14C4371.74 2487.88 4451.36 2593.68 4498.52 2395.02C4536.24 2236.1 4655.44 2181.48 4710.33 2174.04C4691.52 2196.37 4632.25 2298.17 4545.67 2526.68Z" fill="#FBE6BF"/>
</g>
<rect x="0.0917969" y="0.0761719" width="2355.51" height="2002.02" fill="#13151D" fill-opacity="0.32"/>
</g>
<defs>
<clipPath id="clip0_323_1840">
<rect width="2364.89" height="1875.33" fill="white" transform="translate(0.0917969 0.0761719)"/>
</clipPath>
<clipPath id="clip1_323_1840">
<rect width="2364.89" height="1875.33" fill="white" transform="translate(0.0917969 0.0761719)"/>
</clipPath>
</defs>
</svg>
