<svg width="1512" height="1199" viewBox="0 0 1512 1199" fill="none" xmlns="http://www.w3.org/2000/svg">
<g clip-path="url(#clip0_0_1)">
<rect width="1512" height="1199" fill="#8A3A46"/>
<path d="M548.954 1170.49C562.917 1120.42 505.684 966.43 475 895L392.5 637.5L562.5 212L923.5 -61.5C1086.83 -51 1392.8 -23.8 1310 1C1227.2 25.8 1160.83 191 1138 270.5C1120.8 309.7 987.833 294.5 923.5 282C873.5 300.4 850.667 289.667 845.5 282C820.5 348 759.5 389.5 751.5 405C743.5 420.5 687.5 707.5 683.5 803.5C679.5 899.5 638.5 992.5 630.5 1010C624.1 1024 599.167 1352.83 587.5 1515.5C588.167 1412.83 586.4 1200.4 574 1172C562.122 1144.79 552.66 1158.85 548.954 1170.49C548.811 1171 548.659 1171.51 548.5 1172C548.64 1171.5 548.792 1171 548.954 1170.49Z" fill="#A25252"/>
<path d="M665.5 1983.1C553.526 1906.32 453.765 1693.38 473 1206C482.163 973.826 489.429 802.886 497.19 675.5L379 833.5L419.5 1012C461.9 1127.2 437.167 1133 419.5 1121.5C397.1 1163.9 353.833 1168.5 335 1165.5V1660.5L485.5 1723L473 1854.5L665.5 1983.1Z" fill="#D08042"/>
<path d="M447.5 466L504.024 576.5C512.85 465.191 523.028 398.044 537.5 353.333L447.5 466Z" fill="#D08042"/>
<path d="M364.5 706L447.5 664L431.5 505L419.5 613L393.5 564.5L364.5 706Z" fill="#D08042"/>
<path d="M330.5 712L312.5 771.5L404.5 730L335 737.596L330.5 712Z" fill="#D08042"/>
<path fill-rule="evenodd" clip-rule="evenodd" d="M623.665 243.86C583.035 274.505 556.549 294.483 537.5 353.333L447.5 466L504.024 576.5C501.668 606.215 499.409 639.077 497.19 675.5L379 833.5L419.5 1012C461.9 1127.2 437.167 1133 419.5 1121.5C397.1 1163.9 353.833 1168.5 335 1165.5V1660.5L485.5 1723L473 1854.5L665.5 1983.1C693.631 2002.39 722.533 2013.09 750.512 2017.39L537.5 2044.04C467.5 1961.36 329 1790.7 335 1769.5C341 1748.3 247.5 1738 200 1735.5L256 1278H200L256 1012H222.5L301 487C308.667 449.499 348.7 355.798 447.5 281C445 243.667 459.5 159.2 537.5 120C615.5 80.8 730 12.1173 777.5 -17.324C929.45 -13.5346 1021.98 -9.33248 990.5 -5C903.532 6.96811 889.454 72.4109 879.444 118.948C876.908 130.738 874.633 141.314 871.5 149.5C865.74 164.551 834.582 177.379 796.5 187.503C752.602 199.174 699.503 207.252 665.5 211C650.078 223.938 636.199 234.406 623.665 243.86ZM447.5 664L364.5 706L393.5 564.5L419.5 613L431.5 505L447.5 664ZM330.5 712L312.5 771.5L404.5 730L335 737.596L330.5 712ZM301 1121.5L335 984L379 1082.5L301 1121.5Z" fill="#9E402B"/>
<path d="M335 984L301 1121.5L379 1082.5L335 984Z" fill="#D08042"/>
<path d="M712.5 750C711.3 760.8 726 942.833 733.5 1032.5L791.58 253.5L744 292L739 471H724V333L706.529 373V620.5L739 613L724 675.5L706.529 737.596C710.428 742.205 713.025 745.276 712.5 750Z" fill="#D08042"/>
<path d="M715.5 643.5L706.529 706L697 700L715.5 643.5Z" fill="#D08042"/>
<path d="M702 281V349L724 309.5L702 281Z" fill="#D08042"/>
<path fill-rule="evenodd" clip-rule="evenodd" d="M665.5 211C669 345.5 677.4 626.7 683 675.5C687.551 715.156 699.286 729.032 706.529 737.596L724 675.5L739 613L706.529 620.5V373L724 333V471H739L744 292L791.58 253.5L796.5 187.503C752.602 199.174 699.503 207.252 665.5 211ZM706.529 706L715.5 643.5L697 700L706.529 706ZM702 281V349L724 309.5L702 281ZM715.5 285L706.529 259.5L732 266.5L715.5 285Z" fill="#9E402B"/>
<path d="M706.529 259.5L715.5 285L732 266.5L706.529 259.5Z" fill="#D08042"/>
<path d="M144.5 1418.5L161.5 1836.5L172.5 1800L200 1903L78 1854.5L112.5 1769.5V1821.5L144.5 1418.5Z" fill="#9E402B"/>
<path d="M256 505L161.5 1082.5L78 1067L222.5 520.5L256 505Z" fill="#9E402B"/>
<path fill-rule="evenodd" clip-rule="evenodd" d="M857.5 2004C826.68 2016.93 789.491 2023.37 750.512 2017.39L857.5 2004ZM537.5 2044.04C467.5 1961.36 329 1790.7 335 1769.5C341 1748.3 247.5 1738 200 1735.5L256 1278H200L256 1012H222.5L301 487C308.667 449.499 348.7 355.798 447.5 281C445 243.667 459.5 159.2 537.5 120C615.5 80.8 730 12.1173 777.5 -17.324C508.582 -24.0304 53.5593 -29.4442 -229.5 -32V2140L537.5 2044.04ZM161.5 1836.5L144.5 1418.5L112.5 1821.5V1769.5L78 1854.5L200 1903L172.5 1800L161.5 1836.5ZM256 505L161.5 1082.5L78 1067L222.5 520.5L256 505ZM256 466L222.5 487L238.5 432.5L256 396V466Z" fill="#4E1212"/>
<path d="M222.5 487L256 466V396L238.5 432.5L222.5 487Z" fill="#9E402B"/>
<path d="M1233.5 1091C1217.1 1060.6 1164 1039.33 1139.5 1032.5C1139.5 1007.5 1160.5 1015 1185.5 1004C1210.5 993 1254 1032.5 1254 1071C1254 1109.5 1254 1129 1233.5 1091Z" fill="#FF7556"/>
<path d="M637 1522.5C648.166 1515.83 675.2 1502.5 694 1502.5C717.5 1502.5 652.5 1542.5 637 1522.5Z" fill="#FF7556"/>
<path d="M673 1471C685.4 1463.8 685.833 1450.33 684.5 1444.5C688 1432 714 1433 717.5 1449.5C721 1466 713.5 1480 684.5 1489.5C655.5 1499 657.5 1480 673 1471Z" fill="#FF7556"/>
<path fill-rule="evenodd" clip-rule="evenodd" d="M738.999 1872.5C675.399 1923.7 682 1993.67 694 2003.5L922.999 2033.5C946.333 2002.68 978.999 1852.2 922.999 1755C866.999 1657.8 828.666 1614.5 816.499 1605C851.999 1608.17 929.099 1631.4 953.499 1699C983.999 1783.5 1035.5 1738.5 1005 1582.5C989.626 1503.87 959.897 1469.19 935.408 1440.62C911.312 1412.51 892.288 1390.32 896.999 1338C902.999 1271.37 919.369 1248.22 935.278 1225.72C944.559 1212.59 953.683 1199.69 960.499 1178.5C976.166 1173.33 1002.8 1186.6 983.999 1281C965.994 1371.41 1041.92 1402.53 1092.8 1423.38C1108.32 1429.75 1121.52 1435.15 1129 1441C1131.59 1443.03 1134.25 1445.02 1136.94 1447.03C1167.4 1469.82 1201.3 1495.19 1182 1605C1161 1724.5 1185 1814 1275.5 1818.5C1310.84 1820.26 1343.36 1832.46 1373.8 1843.88C1421.32 1861.71 1463.77 1877.65 1504 1849C1524.65 1834.29 1539.03 1815.97 1551.78 1799.73C1579.77 1764.07 1599.84 1738.49 1661 1783.5C1673.13 1792.43 1684.71 1801.35 1695.86 1809.95C1766.53 1864.42 1819.93 1905.57 1886 1849C1947.2 1796.6 1891.17 1695.17 1855.5 1651C1887 1646.17 1952.5 1644.4 1962.5 1676C1975 1715.5 2073.5 1669 2029 1558.5C1993.4 1470.1 1998.83 1407.33 2006 1387C2028.67 1397.33 2081 1446.1 2109 1558.5C2125.9 1626.35 2119.13 1666.91 2113.75 1699.17C2107.99 1733.71 2103.82 1758.72 2132 1797.5C2175.6 1857.5 2240.83 1948.46 2268 1986.44L2465 1989C2366.83 1943.33 2173.7 1816.8 2186.5 1676C2197.66 1553.27 2158.73 1506.15 2104.81 1440.9C2081.41 1412.57 2055.18 1380.83 2029 1338C1959.8 1224.8 1984.83 1146.17 2006 1121C1962.5 1141.5 1935 1176 1962.5 1313C1990 1450 1903.5 1557.5 1873.5 1479.5C1849.5 1417.1 1593.44 1157 1551.78 1178.5C1629.78 1203.5 1659 1452 1561 1426.5C1497.28 1409.92 1551.33 1589.31 1504 1622C1478.53 1639.59 1501.37 1653.47 1480.5 1676C1416 1745.64 1327.29 1689.5 1404.79 1582.5C1466.79 1496.9 1406.17 1452.5 1394 1441C1357.5 1498 1255 1459 1275.5 1281C1291.9 1138.6 1220 1093.67 1182 1089C1188 1139.33 1192.2 1248.2 1161 1281C1122 1322 1040 1272 1047 1048C1052.6 868.799 991.666 834.999 960.499 840.499C1002 876.999 877.999 1132.5 816.499 1199C754.999 1265.5 829.999 1438.5 852.999 1479.5C875.999 1520.5 832.499 1600.5 779.999 1525.5C727.499 1450.5 590.499 1598.5 622.499 1582.5C641.943 1572.78 660.463 1589.08 684.341 1610.11C699.762 1623.68 717.417 1639.23 738.999 1651C793.999 1681 818.499 1808.5 738.999 1872.5Z" fill="#FF7556"/>
<path d="M922.999 1755C978.999 1852.2 946.333 2002.68 922.999 2033.5L2268 1986.44C2240.83 1948.46 2175.6 1857.5 2132 1797.5C2103.82 1758.72 2107.99 1733.71 2113.75 1699.17C2119.13 1666.91 2125.9 1626.35 2109 1558.5C2081 1446.1 2028.67 1397.33 2006 1387C1998.83 1407.33 1993.4 1470.1 2029 1558.5C2073.5 1669 1975 1715.5 1962.5 1676C1952.5 1644.4 1887 1646.17 1855.5 1651C1891.17 1695.17 1947.2 1796.6 1886 1849C1819.93 1905.57 1766.53 1864.42 1695.86 1809.95C1684.71 1801.35 1673.13 1792.43 1661 1783.5C1599.84 1738.49 1579.77 1764.07 1551.78 1799.73C1539.03 1815.97 1524.65 1834.29 1504 1849C1463.77 1877.65 1421.32 1861.71 1373.8 1843.88C1343.36 1832.46 1310.84 1820.26 1275.5 1818.5C1185 1814 1161 1724.5 1182 1605C1201.3 1495.19 1167.4 1469.82 1136.94 1447.03C1134.25 1445.02 1131.59 1443.03 1129 1441C1121.52 1435.15 1108.32 1429.75 1092.8 1423.38C1041.92 1402.53 965.994 1371.41 983.999 1281C1002.8 1186.6 976.166 1173.33 960.499 1178.5C953.683 1199.69 944.559 1212.59 935.278 1225.72C919.369 1248.22 902.999 1271.37 896.999 1338C892.288 1390.32 911.312 1412.51 935.408 1440.62C959.897 1469.19 989.626 1503.87 1005 1582.5C1035.5 1738.5 983.999 1783.5 953.499 1699C929.099 1631.4 851.999 1608.17 816.499 1605C828.666 1614.5 866.999 1657.8 922.999 1755Z" fill="#FBE6BF"/>
<path d="M2599.31 617.343C2615.52 571.65 2668.01 539.684 2692.23 529.413C2692.23 491.836 2671.47 503.109 2646.76 486.575C2622.04 470.041 2579.04 529.413 2579.04 587.281C2579.04 645.15 2579.04 674.46 2599.31 617.343Z" fill="#FF7556"/>
<path d="M3188.94 1265.92C3177.9 1255.9 3151.18 1235.86 3132.59 1235.86C3109.36 1235.86 3173.61 1295.99 3188.94 1265.92Z" fill="#FF7556"/>
<path d="M3153.35 1188.52C3141.09 1177.69 3140.66 1157.45 3141.98 1148.68C3138.52 1129.89 3112.82 1131.4 3109.36 1156.2C3105.9 1181 3113.32 1202.04 3141.98 1216.32C3170.65 1230.6 3168.67 1202.04 3153.35 1188.52Z" fill="#FF7556"/>
<path fill-rule="evenodd" clip-rule="evenodd" d="M3088.11 1792C3150.98 1868.96 3144.45 1974.13 3132.59 1988.91L2906.23 2034C2883.17 1987.68 2850.88 1761.49 2906.23 1615.39C2961.59 1469.29 2999.48 1404.21 3011.5 1389.93C2976.41 1394.69 2900.2 1429.61 2876.08 1531.22C2845.93 1658.23 2795.03 1590.59 2825.18 1356.11C2840.37 1237.92 2869.76 1185.79 2893.97 1142.85C2917.78 1100.61 2936.59 1067.25 2931.93 988.604C2926 888.455 2909.82 853.654 2894.09 819.834C2884.92 800.103 2875.9 780.706 2869.16 748.862C2853.68 741.096 2827.35 761.037 2845.93 902.928C2863.73 1038.82 2788.68 1085.6 2738.39 1116.94C2723.04 1126.51 2710 1134.64 2702.6 1143.42C2700.04 1146.47 2697.41 1149.46 2694.75 1152.48C2664.65 1186.74 2631.14 1224.87 2650.22 1389.93C2670.97 1569.55 2647.25 1704.07 2557.79 1710.84C2522.86 1713.48 2490.71 1731.82 2460.62 1748.99C2413.66 1775.79 2371.69 1799.74 2331.93 1756.68C2311.51 1734.58 2297.3 1707.03 2284.7 1682.63C2257.03 1629.03 2237.19 1590.58 2176.73 1658.23C2164.75 1671.65 2153.3 1685.06 2142.27 1697.98C2072.42 1779.86 2019.64 1841.71 1954.33 1756.68C1893.83 1677.92 1949.22 1525.45 1984.48 1459.07C1953.34 1451.8 1888.59 1449.15 1878.71 1496.65C1866.35 1556.02 1768.99 1486.12 1812.98 1320.03C1848.17 1187.16 1842.79 1092.82 1835.71 1062.26C1813.3 1077.79 1761.57 1151.09 1733.9 1320.03C1717.19 1422.01 1723.88 1482.98 1729.2 1531.47C1734.9 1583.38 1739.02 1620.98 1711.16 1679.27C1668.06 1769.46 1603.58 1906.18 1576.73 1963.26L1382 1967.11C1479.03 1898.47 1669.94 1708.28 1657.29 1496.65C1646.26 1312.17 1684.74 1241.36 1738.04 1143.27C1761.17 1100.69 1787.1 1052.98 1812.98 988.604C1881.38 818.455 1856.63 700.263 1835.71 662.435C1878.71 693.248 1905.89 745.105 1878.71 951.027C1851.53 1156.95 1937.03 1318.53 1966.68 1201.29C1990.41 1107.5 2243.51 716.546 2284.7 748.862C2207.6 786.439 2178.71 1159.96 2275.58 1121.63C2338.56 1096.71 2285.14 1366.35 2331.93 1415.48C2357.1 1441.92 2334.53 1462.78 2355.15 1496.65C2418.91 1601.32 2506.6 1516.94 2429.99 1356.11C2368.71 1227.44 2428.63 1160.71 2440.66 1143.42C2476.74 1229.1 2578.06 1170.48 2557.79 902.928C2541.58 688.889 2612.65 621.351 2650.22 614.336C2644.28 689.991 2640.13 853.627 2670.97 902.928C2709.52 964.555 2790.58 889.4 2783.66 552.71C2778.12 283.357 2838.36 232.553 2869.16 240.82C2828.14 295.682 2950.71 679.72 3011.5 779.675C3072.3 879.63 2998.16 1139.66 2975.42 1201.29C2952.69 1262.92 2995.69 1383.16 3047.58 1270.43C3099.48 1157.7 3234.9 1380.16 3203.27 1356.11C3184.05 1341.49 3165.74 1366 3142.14 1397.6C3126.9 1418.01 3109.44 1441.37 3088.11 1459.07C3033.74 1504.16 3009.53 1695.8 3088.11 1792Z" fill="#FF7556"/>
<path d="M2906.23 1615.39C2850.88 1761.49 2883.17 1987.68 2906.23 2034L1576.73 1963.26C1603.58 1906.18 1668.06 1769.46 1711.16 1679.27C1739.02 1620.98 1734.9 1583.38 1729.2 1531.47C1723.88 1482.98 1717.19 1422.01 1733.9 1320.03C1761.57 1151.09 1813.3 1077.79 1835.71 1062.26C1842.79 1092.82 1848.17 1187.16 1812.98 1320.03C1768.99 1486.12 1866.35 1556.02 1878.71 1496.65C1888.59 1449.15 1953.34 1451.8 1984.48 1459.07C1949.22 1525.45 1893.83 1677.92 1954.33 1756.68C2019.64 1841.71 2072.42 1779.86 2142.27 1697.98C2153.3 1685.06 2164.75 1671.65 2176.73 1658.23C2237.19 1590.58 2257.03 1629.03 2284.7 1682.63C2297.3 1707.03 2311.51 1734.58 2331.93 1756.68C2371.69 1799.74 2413.66 1775.79 2460.62 1748.99C2490.71 1731.82 2522.86 1713.48 2557.79 1710.84C2647.25 1704.07 2670.97 1569.55 2650.22 1389.93C2631.14 1224.87 2664.65 1186.74 2694.75 1152.48C2697.41 1149.46 2700.04 1146.47 2702.6 1143.42C2710 1134.64 2723.04 1126.51 2738.39 1116.94C2788.68 1085.6 2863.73 1038.82 2845.93 902.928C2827.35 761.037 2853.68 741.096 2869.16 748.862C2875.9 780.706 2884.92 800.103 2894.09 819.834C2909.82 853.654 2926 888.455 2931.93 988.604C2936.59 1067.25 2917.78 1100.61 2893.97 1142.85C2869.76 1185.79 2840.37 1237.92 2825.18 1356.11C2795.03 1590.59 2845.93 1658.23 2876.08 1531.22C2900.2 1429.61 2976.41 1394.69 3011.5 1389.93C2999.48 1404.21 2961.59 1469.29 2906.23 1615.39Z" fill="#FBE6BF"/>
</g>
<path fill-rule="evenodd" clip-rule="evenodd" d="M1000.04 535.735L1172.66 402.063L1131.74 302.952C1121.24 310.237 1101.1 330.906 1104.45 355.303C1108.26 382.976 1091.33 388.467 1084.25 390.766C1083.52 391 1082.9 391.201 1082.42 391.389C1080.17 392.262 1079.27 390.418 1078.1 388.029C1076.56 384.854 1074.54 380.716 1068.25 380.716C1057.23 380.716 1052.51 388.34 1053.56 391.389C1053.56 389.865 1054.72 387.12 1059.33 388.34C1063.35 389.403 1063.81 393.429 1064.25 397.32C1064.44 399.011 1064.63 400.677 1065.1 402.063C1065.16 402.215 1065.21 402.373 1065.27 402.537C1066.89 407.302 1070.14 416.802 1079.27 416.802C1088.71 416.802 1089.76 438.149 1069.3 435.1C1048.84 432.05 1037.82 436.116 1029.95 443.232C1022.08 450.347 1015.26 458.988 1015.26 462.037C1015.26 462.195 1015.26 462.39 1015.26 462.619C1015.29 466.835 1015.41 482.604 1008.44 486.942C1005.42 488.822 999.831 490.101 993.785 491.485C985.119 493.468 975.513 495.666 971.187 500.157C965.311 506.256 963.841 520.657 963.841 527.095L1000.04 535.735ZM1127.02 317.184C1120.19 321.08 1107.18 331.72 1109.7 343.105C1112.22 354.49 1122.29 330.568 1127.02 317.184ZM1046.74 443.232C1038.35 445.604 1021.24 451.872 1019.98 457.971L1046.74 443.232Z" fill="#160903"/>
<path fill-rule="evenodd" clip-rule="evenodd" d="M1154.3 192.66C1167.31 182.088 1179.66 184.528 1184.2 187.069L1199.94 190.119L1210.96 187.069C1239.09 175.277 1258.71 217.395 1265 239.928C1277.64 335.568 1298.22 348.831 1309.21 355.912C1310.54 356.771 1311.73 357.539 1312.75 358.352C1318.43 362.882 1318.92 366.53 1319.37 369.849C1319.66 372.036 1319.94 374.081 1321.67 376.142C1321.94 376.468 1322.22 376.797 1322.5 377.128C1328.45 384.205 1335.31 392.352 1335.31 402.063C1335.31 404.34 1335.09 406.803 1334.85 409.41C1334 418.801 1332.98 430.06 1341.61 441.199C1349.24 451.057 1366.19 461.892 1378.85 469.984C1384.46 473.574 1389.24 476.624 1391.98 478.81C1399.11 484.502 1400.2 511.339 1399.85 524.045L1388.83 519.124C1385.5 514.496 1378.01 503.105 1374.66 494.566C1372 487.792 1367.44 486.955 1361.23 485.818C1357.66 485.164 1353.55 484.41 1348.95 482.368C1341.95 479.259 1342.41 475.778 1343.12 470.447C1343.68 466.193 1344.4 460.76 1341.61 453.397C1336.75 440.605 1322.22 437.87 1312.94 436.123C1310.19 435.604 1307.89 435.173 1306.45 434.591C1300.16 432.05 1301.21 422.901 1312.75 413.753C1321.98 406.434 1320.79 402.91 1319.05 402.063C1319.05 406.806 1296.48 421.377 1288.61 402.063C1284.99 393.165 1279.69 389.013 1274.11 384.638C1267.58 379.517 1260.65 374.09 1255.56 360.386C1248.01 340.055 1252.41 312.27 1255.56 300.919L1203.62 255.684H1186.83L1131.74 302.952C1121.24 310.237 1101.1 330.906 1104.45 355.303C1108.26 382.976 1091.33 388.467 1084.25 390.766C1083.52 391 1082.9 391.201 1082.42 391.389C1080.17 392.262 1079.27 390.418 1078.1 388.029C1076.56 384.854 1074.54 380.716 1068.25 380.716C1057.23 380.716 1052.51 388.34 1053.56 391.389C1053.56 389.865 1054.72 387.12 1059.33 388.34C1063.35 389.403 1063.81 393.429 1064.25 397.32C1064.44 399.011 1064.63 400.677 1065.1 402.063C1065.16 402.215 1065.21 402.373 1065.27 402.537C1066.89 407.302 1070.14 416.802 1079.27 416.802C1088.71 416.802 1089.76 438.149 1069.3 435.1C1048.84 432.05 1037.82 436.116 1029.95 443.232C1022.08 450.347 1015.26 458.988 1015.26 462.037C1015.26 462.195 1015.26 462.39 1015.26 462.619C1015.29 466.835 1015.41 482.604 1008.44 486.942C1005.42 488.822 999.831 490.101 993.785 491.485C985.119 493.468 975.513 495.666 971.187 500.157C965.311 506.256 963.841 520.657 963.841 527.095L1000.04 535.735C982.38 540.648 942.854 547.018 926.065 533.194C909.275 519.369 921.867 503.715 930.262 497.616C926.764 500.157 922.392 507.374 932.886 515.913C946.002 526.586 960.169 508.797 954.397 482.876C950.725 466.384 972.54 452.36 991.329 440.282C1002.07 433.377 1011.82 427.108 1015.26 421.377C1018.7 415.633 1023.54 413.469 1027.59 411.659C1034.64 408.505 1039.29 406.426 1029.95 388.34C1020.32 369.689 1043.59 350.166 1066.53 330.914C1078.6 320.785 1090.58 310.731 1097.63 300.919C1107.18 287.641 1116.61 266.068 1125.61 245.486C1135.9 221.949 1145.62 199.71 1154.3 192.66ZM1127.02 317.184C1120.19 321.08 1107.18 331.72 1109.7 343.105C1112.22 354.49 1122.29 330.568 1127.02 317.184ZM1046.74 443.232C1038.35 445.604 1021.24 451.872 1019.98 457.971L1046.74 443.232ZM1325.87 444.248C1327.94 451.24 1333.14 466.177 1337.41 469.984C1342.74 474.744 1340.56 449.839 1325.87 444.248Z" fill="#2F1216"/>
<path fill-rule="evenodd" clip-rule="evenodd" d="M1255.56 300.919L1231.43 365.468L1228.8 421.377L1319.05 487.959L1388.83 519.124C1385.5 514.496 1378.01 503.105 1374.66 494.566C1372 487.792 1367.44 486.955 1361.23 485.818C1357.66 485.164 1353.55 484.41 1348.95 482.368C1341.95 479.259 1342.41 475.778 1343.12 470.447C1343.68 466.193 1344.4 460.76 1341.61 453.397C1336.75 440.605 1322.22 437.87 1312.94 436.123C1310.19 435.604 1307.89 435.173 1306.45 434.591C1300.16 432.05 1301.21 422.901 1312.75 413.753C1321.98 406.434 1320.79 402.91 1319.05 402.063C1319.05 406.806 1296.48 421.377 1288.61 402.063C1284.99 393.165 1279.69 389.013 1274.11 384.638C1267.58 379.517 1260.65 374.09 1255.56 360.386C1248.01 340.055 1252.41 312.27 1255.56 300.919ZM1325.87 444.248C1327.94 451.24 1333.14 466.177 1337.41 469.984C1342.74 474.744 1340.56 449.839 1325.87 444.248Z" fill="#160903"/>
<path fill-rule="evenodd" clip-rule="evenodd" d="M1157.97 358.859L1155.87 399.52C1138.03 416.123 1100.15 450.448 1091.34 454.92C1080.32 460.511 1243.49 543.866 1316.42 476.776C1296.84 457.8 1246.85 411.413 1235.1 406.127V358.859C1231.08 390.88 1216.74 452.176 1191.55 441.197C1166.37 430.219 1158.67 381.731 1157.97 358.859Z" fill="#FFF1DC"/>
<path d="M1235.1 358.859H1157.97C1158.67 381.731 1166.37 430.219 1191.55 441.197C1216.74 452.176 1231.08 390.88 1235.1 358.859Z" fill="#E5BCB9"/>
<path d="M1143.28 349.205C1141.6 345.545 1136.63 321.928 1134.89 311.085C1133.49 302.445 1140.28 297.362 1151.82 297.362C1174.73 297.362 1185.05 271.61 1187.5 260.768H1197.47H1206.2C1208.35 271.593 1217.38 297.303 1237.46 297.303C1247.57 297.303 1255.23 300.855 1254 309.482C1252.47 320.307 1249.04 342.872 1247.57 346.525C1245.73 351.092 1229.18 363.271 1225.51 372.912C1221.83 382.554 1221.83 394.225 1218.61 397.269C1215.39 400.314 1202.71 401.555 1197.47 402.064C1191.17 402.064 1177.01 400.539 1173.33 397.489C1169.66 394.44 1169.66 382.75 1165.46 373.093C1161.27 363.436 1145.38 353.779 1143.28 349.205Z" fill="#FFF1DC"/>
<path d="M1236.85 298.217C1208.77 299.538 1201.1 268.662 1200.77 253.058H1188.59C1189.73 267.927 1180.53 294.311 1145.38 306.477C1137.51 317.691 1141.57 330.259 1143.28 343.085C1141.88 346.812 1140.01 349.097 1136.46 343.085C1132.26 335.97 1128.06 320.82 1128.06 306.477C1128.06 286.178 1142.76 271.439 1153.25 259.749C1161.64 250.397 1180.31 251.392 1188.59 253.058H1200.77L1248.55 247.551L1259.76 327.955C1254.07 340.805 1242.5 362.54 1241.72 346.68C1240.75 326.854 1251.47 321.347 1248.55 309.231C1246.21 299.538 1239.77 297.849 1236.85 298.217Z" fill="#381B0E"/>
<path d="M1164.27 213.497V227.728C1162.51 228.448 1159.86 229.051 1156.92 229.263L1177.91 263.834C1185.94 264.559 1194.54 264.754 1203.62 264.216L1169.51 214.443C1166.98 214.23 1165.15 213.922 1164.27 213.497Z" fill="#F4DE85"/>
<path fill-rule="evenodd" clip-rule="evenodd" d="M1124.92 249.075L1117.05 201.807C1119.15 205.059 1135.41 208.922 1143.28 210.447V226.203C1144.08 226.81 1144.96 227.314 1145.9 227.728L1160.59 261.342C1145.45 258.321 1133.23 253.583 1124.92 249.075ZM1172.14 263.211C1174.03 263.448 1175.95 263.657 1177.91 263.834L1156.92 229.263C1155.5 229.366 1154 229.377 1152.52 229.263L1172.14 263.211ZM1203.62 264.216L1169.51 214.443C1181.49 215.452 1208.97 214.336 1223.56 213.497V227.728C1229.43 230.168 1240.35 228.236 1245.07 226.203V210.447L1278.12 203.84L1266.58 249.075C1244.12 258.667 1222.81 263.079 1203.62 264.216Z" fill="#E19059"/>
<path d="M1145.9 227.728L1160.59 261.342C1164.27 262.076 1168.13 262.708 1172.14 263.211L1152.52 229.263C1150.21 229.088 1147.92 228.615 1145.9 227.728Z" fill="#F4DE85"/>
<path d="M1180.25 311.592C1183.87 309.965 1182.1 304.815 1180.76 302.443L1155.15 296.344L1150.63 299.902L1155.65 298.377C1160.87 298.377 1174.23 307.187 1180.25 311.592Z" fill="#2C224D"/>
<path d="M1183.77 311.083C1184.27 309.22 1184.87 305.086 1183.27 303.459C1185.44 304.476 1188.59 307.424 1183.77 311.083Z" fill="#2C224D"/>
<path d="M1209.42 311.592C1205.64 309.965 1207.49 304.815 1208.89 302.443L1235.65 296.344L1240.37 299.902L1235.12 298.377C1229.67 298.377 1215.71 307.187 1209.42 311.592Z" fill="#2C224D"/>
<path d="M1205.74 311.083C1205.22 309.22 1204.59 305.086 1206.27 303.459C1203.99 304.476 1200.71 307.424 1205.74 311.083Z" fill="#2C224D"/>
<path fill-rule="evenodd" clip-rule="evenodd" d="M1226.71 318.258C1228.81 317.241 1237.21 307.076 1235.63 307.076C1234.58 307.076 1227.02 308.64 1221.46 310.148C1222.51 310.422 1224.19 314.938 1219.99 316.971C1216.63 318.597 1214.86 316.439 1214.4 315.156C1213.5 317.313 1212.31 320.054 1211.5 322.345C1215.87 321.321 1225.03 319.071 1226.71 318.258Z" fill="#243050"/>
<path d="M1218.31 311.164C1218.02 311.446 1214.99 313.74 1214.4 315.156C1214.86 316.439 1216.63 318.597 1219.99 316.971C1224.19 314.938 1222.51 310.422 1221.46 310.148C1218.7 310.897 1218.66 310.827 1218.31 311.164Z" fill="#FFF4C7"/>
<path fill-rule="evenodd" clip-rule="evenodd" d="M1163.74 319.261C1161.62 318.213 1153.11 307.74 1154.71 307.74C1155.77 307.74 1163.96 309.611 1169.59 311.164C1168.53 311.447 1166.4 315.595 1170.65 317.69C1174.06 319.365 1175.85 317.141 1176.32 315.82C1177.23 318.042 1178.34 321.111 1179.16 323.471C1174.73 322.417 1165.44 320.098 1163.74 319.261Z" fill="#243050"/>
<path d="M1173.71 312.607C1174.01 312.897 1175.72 314.361 1176.32 315.82C1175.85 317.141 1174.06 319.365 1170.65 317.69C1166.4 315.595 1168.53 311.447 1169.59 311.164C1172.39 311.936 1173.36 312.26 1173.71 312.607Z" fill="#FFF4C7"/>
<path d="M1218.31 329.888C1218.46 329.439 1212.01 328.363 1211.5 322.345M1211.5 322.345C1215.87 321.321 1225.03 319.071 1226.71 318.258C1228.81 317.241 1237.21 307.076 1235.63 307.076C1234.58 307.076 1227.02 308.64 1221.46 310.148M1211.5 322.345C1212.31 320.054 1213.5 317.313 1214.4 315.156M1214.4 315.156C1214.99 313.74 1218.02 311.446 1218.31 311.164C1218.66 310.827 1218.7 310.897 1221.46 310.148M1214.4 315.156C1214.86 316.439 1216.63 318.597 1219.99 316.971C1224.19 314.938 1222.51 310.422 1221.46 310.148M1169.59 329.888C1169.43 329.426 1180.15 326.33 1179.16 323.471M1179.16 323.471C1174.73 322.417 1165.44 320.098 1163.74 319.261C1161.62 318.213 1153.11 307.74 1154.71 307.74C1155.77 307.74 1163.96 309.611 1169.59 311.164M1179.16 323.471C1178.34 321.111 1177.23 318.042 1176.32 315.82M1176.32 315.82C1175.72 314.361 1174.01 312.897 1173.71 312.607C1173.36 312.26 1172.39 311.936 1169.59 311.164M1176.32 315.82C1175.85 317.141 1174.06 319.365 1170.65 317.69C1166.4 315.595 1168.53 311.447 1169.59 311.164" stroke="#222E4E"/>
<path d="M1203.62 333.448C1201.94 331.009 1201.52 325.316 1201.52 322.775C1196.68 313.011 1191.78 318.096 1189.69 322.267C1189.26 325.147 1188.07 331.371 1187.35 333.448C1186.3 336.498 1188.93 345.138 1187.88 348.188C1186.71 351.566 1185.25 350.729 1183.68 353.27C1183.16 354.795 1183.68 356.828 1184.2 357.845C1189.69 358.353 1191.2 360.894 1191.55 362.419H1197.32C1197.85 361.911 1197.32 361.402 1198.37 359.369C1199.47 357.249 1202.74 357.506 1204.14 357.845C1204.84 357.506 1206.14 356.32 1205.72 354.287C1205.19 351.746 1202.57 350.729 1202.57 347.679C1202.57 344.63 1205.72 336.498 1203.62 333.448Z" fill="url(#paint0_linear_0_1)"/>
<ellipse cx="8.89398" cy="15.8039" rx="8.89398" ry="15.8039" transform="matrix(0.95528 0.295703 -0.31326 0.949667 1228.73 327.855)" fill="#F1D0CE"/>
<ellipse cx="8.87396" cy="15.8433" rx="8.87396" ry="15.8433" transform="matrix(-0.916209 0.4007 0.422428 0.906397 1159.54 328.873)" fill="#F1D0CE"/>
<path fill-rule="evenodd" clip-rule="evenodd" d="M1439.74 711.585C1449.17 692.043 1464.87 659.527 1455.46 643.486C1445.36 626.255 1427.62 498.257 1419.14 429.509C1414.08 434.761 1402.44 445.875 1396.39 448.314C1395.42 471.635 1393.04 509.054 1390.56 548.212C1386.1 618.644 1381.28 694.703 1383.58 704.477C1387.38 720.57 1408.78 730.424 1418.27 734.79C1419.27 735.251 1420.13 735.65 1420.83 735.989C1428.18 739.547 1433.95 733.448 1433.43 726.84C1433.28 724.972 1436.02 719.286 1439.74 711.585Z" fill="#FFF1DC"/>
<path d="M1418.21 421.885C1410.34 415.447 1395.02 407.247 1396.7 425.951C1397 429.343 1396.86 437.239 1396.39 448.314C1402.44 445.875 1414.08 434.761 1419.14 429.509C1418.82 426.877 1418.51 424.333 1418.21 421.885Z" fill="#E5BCB9"/>
<path d="M1374.66 195.201C1379.17 196.736 1387.44 199.686 1393.03 202.297L1383.58 176.622C1374.18 173.603 1363.99 168.319 1360.13 160.239L1374.66 195.201Z" fill="#F4DE85"/>
<path fill-rule="evenodd" clip-rule="evenodd" d="M1480.65 29.5083C1473.2 31.8801 1458.99 57.8691 1461.71 142.85C1463.97 158.776 1459.18 191.643 1421.88 195.709V205.874L1402.45 220.105L1385.16 1821.63H1376.76L1395.65 219.597L1374.66 205.366V195.201C1379.17 196.736 1387.44 199.686 1393.03 202.297L1383.58 176.622C1388.04 178.053 1392.31 178.975 1395.65 179.445L1403.77 202.297C1405.74 201.455 1408.03 200.587 1410.34 199.75L1402.45 178.179C1414.39 175.585 1432.46 169.77 1435.96 159.114C1441.31 142.85 1445.68 98.1233 1443.73 79.8259C1441.79 61.5286 1467.05 33.5743 1480.65 29.5083ZM1360.13 160.239L1374.66 195.201C1334.37 191.135 1329.19 158.267 1331.64 142.342C1334.58 57.3609 1319.22 31.3719 1311.18 29C1325.87 33.0661 1353.15 61.0203 1351.05 79.3177C1348.95 97.615 1353.68 142.342 1359.45 158.606L1360.13 160.239Z" fill="#E19059"/>
<path d="M1395.65 179.445L1403.77 202.297C1405.74 201.455 1408.03 200.587 1410.34 199.75L1402.45 178.179C1399.81 178.753 1397.47 179.169 1395.65 179.445Z" fill="#F4DE85"/>
<path d="M1422.93 389.356C1424.5 393.422 1428.18 395.963 1428.18 401.046C1428.18 406.128 1424.5 405.62 1422.93 410.195C1421.36 414.769 1423.98 415.785 1424.5 418.835C1425.03 421.885 1425.03 424.426 1421.88 425.442C1418.73 426.459 1380.43 429 1376.76 426.459C1373.09 423.918 1374.66 414.769 1376.76 413.752C1375.66 412.058 1374.3 408.867 1374.45 405.62C1373.2 406.637 1364.69 408.161 1367.84 401.046C1370.34 395.403 1371.53 385.964 1371.73 381.839C1371.73 381.804 1371.73 381.768 1371.73 381.732C1371.76 381.247 1371.85 380.738 1372.04 380.207C1373.61 375.633 1389.27 370.697 1394.07 369.534C1400.37 368.009 1407.41 365.352 1410.34 366.484C1411.63 366.983 1415.58 369.534 1418.73 370.55C1422.93 372.075 1425.89 372.527 1426.6 375.633C1426.25 383.257 1421.72 386.235 1422.93 389.356Z" fill="#FFF1DC"/>
<path d="M1376.76 413.752C1374.66 414.769 1373.09 423.918 1376.76 426.459C1380.43 429 1418.73 426.459 1421.88 425.442C1425.03 424.426 1425.03 421.885 1424.5 418.835C1423.98 415.785 1421.36 414.769 1422.93 410.195C1424.5 405.62 1428.18 406.128 1428.18 401.046C1428.18 395.963 1424.5 393.422 1422.93 389.356C1421.72 386.235 1426.25 383.257 1426.6 375.633C1425.89 372.527 1422.93 372.075 1418.73 370.55C1415.58 369.534 1411.63 366.983 1410.34 366.484C1407.41 365.352 1400.37 368.009 1394.07 369.534C1389.27 370.697 1373.61 375.633 1372.04 380.207C1370.78 383.867 1373.61 386.476 1375.18 387.323M1376.76 413.752C1378.86 412.736 1401.94 414.261 1408.24 412.736C1413.28 411.516 1413.49 409.856 1412.96 409.178M1376.76 413.752C1375.66 412.058 1374.3 408.867 1374.45 405.62M1376.76 400.029C1385.5 399.691 1403.52 398.911 1405.62 398.505C1407.71 398.098 1409.64 396.641 1410.34 395.963M1376.76 400.029C1375.01 398.166 1372.25 393.015 1375.18 387.323M1376.76 400.029C1375.18 401.706 1374.55 403.673 1374.45 405.62M1375.18 387.323C1384.28 386.137 1402.78 383.663 1404.04 383.257C1405.3 382.85 1406.66 381.054 1407.19 380.207M1371.73 381.732C1371.56 385.798 1370.36 395.353 1367.84 401.046C1364.69 408.161 1373.2 406.637 1374.45 405.62" stroke="#E5BCB9"/>
<path d="M1195.22 378.682C1193.12 378.682 1191.55 377.665 1189.45 376.649C1188.45 376.163 1186.53 376.137 1184.73 376.266C1185.95 375.546 1188.93 374.107 1191.03 374.107C1193.65 374.107 1198.76 374.294 1199.42 374.616C1200.47 375.124 1202.57 376.742 1203.62 377.966C1202.67 377.797 1201.6 377.665 1200.47 377.665C1197.32 377.665 1197.32 378.682 1195.22 378.682Z" fill="#C29DAD"/>
<path d="M1181.58 376.65C1182.36 376.514 1183.52 376.355 1184.73 376.267C1186.53 376.138 1188.45 376.165 1189.45 376.65C1191.55 377.667 1193.12 378.683 1195.22 378.683C1197.32 378.683 1197.32 377.667 1200.47 377.667C1201.6 377.667 1202.67 377.799 1203.62 377.967C1205.3 378.267 1206.62 378.683 1207.29 378.683" stroke="#9E5F71" stroke-linecap="round"/>
<path d="M916.621 1364.2C969.089 1310.12 981.156 852.719 980.631 630.779C954.573 845.808 894.9 1292.68 826.902 1336.75C856.823 1348.82 880.654 1355.86 916.621 1364.2Z" fill="#060D1D"/>
<path d="M687.054 1309.31C687.838 1315.01 697.039 1321 703.079 1321L714.621 1299.14C696.174 1299.14 688.783 1302.63 687.293 1306.82C687.208 1307.67 687.128 1308.5 687.054 1309.31Z" fill="#060D1D"/>
<path d="M1311.7 472.203C1228.17 516.116 1129.99 477.624 1091.34 452.889C1069.13 463.393 1019.25 487.654 997.421 500.665C974.468 514.348 973.425 516.16 964.924 530.916C963.321 533.7 961.452 536.945 959.12 540.818C952.998 550.984 948.061 591.95 941.84 643.565C933.132 715.815 921.91 808.928 901.406 867.628C866.252 968.264 799.619 1069.41 749.25 1125.32C709.719 1169.19 691.685 1262.97 687.293 1306.82C688.783 1302.63 696.174 1299.14 714.621 1299.14C742.324 1300.77 797.17 1328.62 821.13 1342.34L826.902 1336.75C894.9 1292.68 954.573 845.808 980.631 630.779C981.156 852.719 969.089 1310.12 916.621 1364.2C914.872 1366.06 910.955 1370.19 909.276 1371.82C907.177 1373.85 980.896 1386.22 1017.36 1365.21C1021.5 1363.21 1029.68 1359.45 1034.67 1357.59C1061.96 1347.42 1111.28 1334.21 1172.14 1334.21C1233 1334.21 1332.16 1379.95 1323.77 1393.17C1319.63 1399.68 1309.88 1396.56 1302.56 1394.22C1295.04 1391.81 1290.1 1390.23 1296.49 1400.79C1309.08 1421.63 1427.13 1416.55 1431.33 1379.95C1435.52 1343.36 1415.59 1014.01 1393.03 914.388C1374.98 834.693 1379.56 749.034 1384.11 716.167L1393.03 523.028C1392.33 516.929 1389.56 503.918 1384.11 500.665C1382.53 499.725 1380.95 498.921 1379.29 498.071C1373.74 495.242 1367.19 491.902 1356.3 481.351C1344.97 470.373 1321.84 470.678 1311.7 472.203Z" fill="url(#paint1_linear_0_1)"/>
<ellipse cx="74.0292" cy="37.6223" rx="74.0292" ry="37.6223" transform="matrix(0.765468 -0.643474 0.667236 0.744846 929.213 548.16)" fill="#E19059"/>
<ellipse cx="44.7291" cy="17.4228" rx="44.7291" ry="17.4228" transform="matrix(0.786686 -0.617353 0.641508 0.767116 956.498 530.48)" fill="#EED394"/>
<path d="M969.613 573.345C954.088 575.494 948.801 566.06 949.151 559.622C951.627 569.787 959.12 569.142 966.99 567.246C1042.96 548.949 1064.05 500.325 1065.1 478.301C1068.78 485.925 1067 499.139 1063.53 507.272C1044.64 551.49 991.649 570.296 969.613 573.345Z" fill="#AE442D"/>
<path d="M1192.07 887.45C1061.12 843.943 1031.17 664.324 1032.57 579.953C1055.66 594.693 1289.14 633.32 1257.66 645.01C1226.18 656.7 1134.36 599.775 1181.06 645.01C1227.75 690.245 1318.52 728.365 1192.07 703.968C1099.46 686.1 1051.97 624.836 1036.15 589.131C1144.05 861.534 1286.82 852.453 1345.28 813.244C1348.78 856.107 1323.03 930.957 1192.07 887.45Z" fill="black"/>
<path d="M1043.59 1078.05C997.421 956.065 1010.54 714.303 1019.46 640.436C1030.79 859.191 1153.77 1122.1 1217.26 1194.44C1178.61 1206.47 1089.76 1200.03 1043.59 1078.05Z" fill="black"/>
<path d="M1032.57 579.953C1031.17 664.324 1061.12 843.943 1192.07 887.45C1323.03 930.957 1348.78 856.107 1345.28 813.244C1286.17 852.888 1140.87 861.732 1032.57 579.953ZM1032.57 579.953C1043.59 613.159 1090.92 684.451 1192.07 703.968C1318.52 728.365 1227.75 690.245 1181.06 645.01C1134.36 599.775 1226.18 656.7 1257.66 645.01C1289.14 633.32 1055.66 594.693 1032.57 579.953ZM1019.46 640.436C1010.54 714.303 997.421 956.065 1043.59 1078.05C1089.76 1200.03 1178.61 1206.47 1217.26 1194.44C1153.77 1122.1 1030.79 859.191 1019.46 640.436Z" stroke="black"/>
<path d="M1378.34 195.709L1399.85 207.399L1419.26 195.709" stroke="#7B4E2C" stroke-width="4" stroke-linecap="round"/>
<path d="M1117.96 203.66C1122.86 205.863 1133.81 210.776 1140.52 210.776M1218.18 214.334C1210.83 215.858 1196.66 216.875 1164.13 214.334V228.565M1274.32 205.185C1265.92 207.218 1263.3 207.726 1245.98 210.776V226.024" stroke="#FFF8ED" stroke-width="4" stroke-linecap="round"/>
<path d="M618.839 828.562C620.317 834.763 631.204 841.19 636.847 843.764C640.154 841.377 643.885 839.115 647.778 837.554C643.745 835.596 640.274 833.912 638.193 833.212C636.883 832.771 635.427 832.019 633.857 831.208C629.48 828.947 624.224 826.231 618.839 828.562Z" fill="#18061E"/>
<path d="M624.941 854.176C636.06 855.682 663.411 855.411 683.861 842.277C679.484 844.032 668.945 846.827 661.808 843.969C657.17 842.112 652.145 839.673 647.778 837.554C643.885 839.115 640.154 841.377 636.847 843.764C631.229 847.818 626.833 852.231 624.941 854.176Z" fill="#824162"/>
<path fill-rule="evenodd" clip-rule="evenodd" d="M650.234 795.386C652.46 797.364 657.175 801.543 658.229 802.432C659.546 803.543 657.623 805.781 653.135 807.563C651.257 808.308 646.099 809.211 640.57 810.18C632.885 811.525 624.483 812.997 623.172 814.345C621.368 816.199 620.084 814.487 619.667 813.399C618.327 818.772 617.899 824.615 618.839 828.562C624.224 826.231 629.48 828.947 633.857 831.208C635.427 832.019 636.883 832.771 638.193 833.212C640.274 833.912 643.745 835.596 647.778 837.554C652.145 839.673 657.17 842.112 661.808 843.969C668.945 846.827 679.484 844.032 683.861 842.277C663.411 855.411 636.06 855.682 624.941 854.176L626.065 858.894C632.553 877.293 675.948 869.448 689.722 866.879C700.741 864.824 705.147 872.227 705.973 876.185C766.793 862.837 770.204 819.809 764.307 799.964L759.519 797.542C760.227 791.676 757.289 774.924 753.98 774.288C751.332 773.779 738.124 781.864 731.851 785.97C730.455 785.289 729.019 784.675 727.551 784.125C721.245 781.76 714.368 780.571 707.691 780.293C697.363 779.863 687.511 781.612 680.987 784.553C678.688 785.59 676.798 786.475 675.134 787.253C668.317 790.443 665.311 791.849 653.567 794.647C652.416 794.921 651.306 795.166 650.234 795.386Z" fill="#060E1D"/>
<path d="M722.212 767.602C718.163 768.281 710.844 776.346 707.691 780.293C714.368 780.571 721.245 781.76 727.551 784.125C727.458 778.334 726.26 766.922 722.212 767.602Z" fill="#18061E"/>
<path d="M924.941 714.321L932.432 711.824L926.276 706.601C925.867 709.107 925.422 711.687 924.941 714.321Z" fill="#FEEED5"/>
<path d="M928.216 693.241L935.573 691.132L929.011 686.285C928.792 688.448 928.527 690.776 928.216 693.241Z" fill="#FEEDD5"/>
<path d="M639.309 797.157C633.144 797.99 628.891 798.564 625.676 801.291C623.098 803.478 620.959 808.22 619.667 813.399C620.084 814.487 621.368 816.199 623.172 814.345C624.483 812.997 632.885 811.525 640.57 810.18C646.099 809.211 651.257 808.308 653.135 807.563C657.623 805.781 659.546 803.543 658.229 802.432C657.175 801.543 652.46 797.364 650.234 795.386C646.029 796.25 642.425 796.737 639.309 797.157Z" fill="#934B2C"/>
<path d="M912.457 669.215C911.111 671.91 908.533 677.487 908.991 678.232C909.564 679.164 918.952 675.86 919.295 674.353C919.638 672.847 912.694 668.737 912.457 669.215Z" fill="#934B2C"/>
<path d="M1021.41 865.853C1024.62 864.613 1031.51 862.307 1033.36 863.006C1035.67 863.879 1030.13 873.034 1029.55 873.529C1028.97 874.024 1022.85 871.92 1021.41 865.853Z" fill="#934B2C"/>
<path d="M949.798 846.585C954.977 844.758 966.789 841.611 972.606 843.644C979.878 846.186 966.642 876.05 956.166 880.682C945.691 885.315 941.104 867.532 942.374 864.024C942.693 863.142 942.942 861.87 943.231 860.393C944.091 855.997 945.307 849.781 949.798 846.585Z" fill="#915F4A"/>
<path fill-rule="evenodd" clip-rule="evenodd" d="M714.443 895.537C737.558 895.847 785.487 880.037 792.286 814.311C797.001 818.886 807.613 825.333 812.336 814.521C826.066 834.64 864.02 868.387 906 842.425C916.222 842.126 938.034 842.272 943.513 845.241C946.489 842.514 955.311 836.732 966.788 835.423C978.266 834.113 1012.69 839.565 1028.46 842.455C1039.36 851.851 1056.34 876.415 1037.14 899.508C1017.94 922.602 948.275 937.892 915.841 942.65C913.276 952.996 910.607 974.882 920.447 979.661C927.664 978.535 942.867 977.739 945.938 983.561C949.776 990.838 949.678 1003.68 945.019 1006.22L890.485 1018.85C890.507 1016 880.697 965.981 878.347 959.061C876.987 955.058 870.142 956.381 864.733 957.426C862.664 957.826 860.804 958.186 859.543 958.19L859.445 958.613C856.877 969.659 854.289 980.792 859.685 994.136C865.635 992.6 882.519 998.668 885.837 1019.96L836.696 1031.67C837.14 1027.98 835.316 1015.57 833.503 1003.23C832.429 995.918 831.358 988.633 830.767 983.209C829.83 974.623 826.262 963.754 825.871 962.659C825.085 960.456 812.916 964.529 805.126 967.137C802.469 968.026 800.322 968.745 799.308 968.986C797.571 969.4 799.591 981.064 802.076 995.412C802.605 998.467 803.155 1001.64 803.694 1004.86C806.344 1020.65 809.664 1034.56 810.364 1037.49L803.492 1039.58L765.309 1048.67C763.041 1047.1 757.937 1035.27 760.329 1027.77C761.594 1023.8 765.607 1021.51 769.056 1019.55C771.177 1018.34 773.085 1017.25 774.01 1015.97L771.333 997.368L768.097 976.422L749.171 980.93C752.254 996.816 755.37 1026.1 756.119 1036.61L757.34 1050.57L716.832 1060.22C703.519 1050.29 708.217 1038.29 712.23 1033.54C715.722 1031.99 727.488 1021 727.671 1018.82C727.853 1016.64 720.036 966.146 716.379 956.689C713.454 949.123 713.87 912.768 714.443 895.537ZM907.55 823.892C926.015 792.901 961.388 730.862 955.159 730.637C949.38 730.427 935.494 745.688 924.998 757.222C921.354 761.228 918.118 764.784 915.772 767.087C908.493 774.234 909.419 770.856 910.792 768.273C917.08 751.269 921.785 731.612 924.941 714.321C925.422 711.687 925.867 709.107 926.276 706.601C927.051 701.845 927.698 697.352 928.216 693.241C928.527 690.776 928.792 688.448 929.011 686.285C929.843 678.056 930.009 672.196 929.521 670.145C927.835 663.067 922.223 660.13 908.781 662.62C898.027 664.612 870.933 700.128 858.73 717.637L846.761 711.585C849.713 715.63 855.002 724.081 852.538 725.523C850.074 726.965 843.027 737.642 839.812 742.801L828.395 740.534L838.509 750.59C837.338 752.056 833.854 756.97 829.286 764.896C826.17 770.304 823.164 780.565 820.117 790.968C833.408 807.859 869.501 838.091 907.55 823.892ZM912.457 669.215C911.111 671.91 908.533 677.487 908.991 678.232C909.564 679.164 918.952 675.86 919.295 674.353C919.638 672.847 912.694 668.737 912.457 669.215ZM949.798 846.585C954.977 844.758 966.789 841.611 972.606 843.644C979.878 846.186 966.642 876.05 956.166 880.682C945.691 885.315 941.104 867.532 942.374 864.024C942.693 863.142 942.942 861.87 943.231 860.393C944.091 855.997 945.307 849.781 949.798 846.585ZM1021.41 865.853C1024.62 864.613 1031.51 862.307 1033.36 863.006C1035.67 863.879 1030.13 873.034 1029.55 873.529C1028.97 874.024 1022.85 871.92 1021.41 865.853Z" fill="#060E1D"/>
<path d="M906 842.425L907.55 823.892C869.501 838.091 833.408 807.859 820.117 790.968C817.582 799.626 815.017 808.382 812.336 814.521C826.066 834.64 864.02 868.387 906 842.425Z" fill="#354553"/>
<path d="M754.264 834.4C755.639 840.17 750.658 846.3 743.14 848.091C735.621 849.882 728.412 846.656 727.037 840.886C725.663 835.116 730.644 828.987 738.162 827.196C745.68 825.404 752.89 828.63 754.264 834.4Z" fill="#955270"/>
<path d="M879.691 771.755C881.066 777.525 877.423 783.336 871.555 784.734C865.687 786.132 859.816 782.588 858.441 776.818C857.067 771.048 860.709 765.237 866.577 763.839C872.445 762.441 878.317 765.985 879.691 771.755Z" fill="#955270"/>
<path d="M991.303 869.106C992.677 874.876 989.035 880.687 983.167 882.085C977.299 883.483 971.427 879.939 970.053 874.168C968.678 868.398 972.321 862.588 978.189 861.19C984.057 859.792 989.928 863.336 991.303 869.106Z" fill="#955270"/>
<path d="M1006.64 856.905C1008.19 863.419 1003.21 870.188 995.506 872.023C987.805 873.857 980.303 870.063 978.751 863.549C977.199 857.034 982.185 850.266 989.886 848.431C997.588 846.596 1005.09 850.39 1006.64 856.905Z" fill="#F1DCBC"/>
<path d="M882.07 755.088C877.86 765.606 870.136 772.336 864.818 770.119C859.499 767.903 858.6 757.58 862.81 747.062C867.019 736.545 874.743 729.815 880.062 732.031C885.38 734.247 886.279 744.57 882.07 755.088Z" fill="#F1DCBC"/>
<path d="M742.493 822.834C742.211 832.387 731.434 839.741 718.423 839.258C705.411 838.775 695.091 830.64 695.373 821.087C695.654 811.534 706.431 804.181 719.443 804.663C732.455 805.146 742.774 813.281 742.493 822.834Z" fill="#F1DCBC"/>
<path d="M876.681 737.062C879.336 738.073 879.475 744.404 876.993 751.203C874.51 758.001 870.346 762.693 867.691 761.682C865.036 760.671 864.896 754.34 867.379 747.541C869.861 740.742 874.026 736.051 876.681 737.062Z" fill="#934B2C"/>
<path d="M993.274 851.785C997.487 850.45 1001.74 852.02 1002.76 855.292C1003.79 858.563 1001.21 862.297 997 863.632C992.788 864.966 988.539 863.396 987.51 860.125C986.481 856.854 989.062 853.12 993.274 851.785Z" fill="#934B2C"/>
<path d="M730.43 819.778C731.849 825.734 728.093 831.731 722.042 833.172C715.991 834.614 709.935 830.954 708.516 824.998C707.097 819.042 710.852 813.045 716.904 811.603C722.955 810.162 729.011 813.821 730.43 819.778Z" fill="#934B2C"/>
<path d="M718.699 891.309C720.401 885.491 716.413 883.188 714.207 882.763C707.118 888.845 693.519 901.083 695.836 901.386C698.154 901.688 712.044 894.794 718.699 891.309Z" fill="#E6DFEF"/>
<path d="M750.067 874.221C740.145 871.456 737.82 879.275 737.898 883.53C739.124 885.731 766.118 898.889 765.648 895.44C765.271 892.68 755.103 880.144 750.067 874.221Z" fill="#E6DFEF"/>
<path d="M772.648 846.761C763.882 848.849 764.403 855.848 765.759 859.086C775.802 860.493 795.61 862.731 794.501 860.431C793.391 858.131 779.47 850.359 772.648 846.761Z" fill="#E6DFEF"/>
<path d="M777.171 818.616C773.628 822.594 776.308 826.776 778.091 828.369C785.608 824.085 800.13 815.426 798.078 815.06C796.026 814.694 783.285 817.278 777.171 818.616Z" fill="#E6DFEF"/>
<path d="M786.343 789.364C784.017 790.203 777.904 798.616 775.138 802.718C778.445 803.639 782.075 805.814 783.476 806.786C785.401 800.629 788.669 788.525 786.343 789.364Z" fill="#E6DFEF"/>
<path d="M764.385 800.293C775.535 850.632 730.31 871.805 706.304 876.099C707.46 880.952 712.485 891.246 714.853 895.787C777.171 894.618 792.44 840.977 792.284 814.303C782.295 803.007 769.523 800.256 764.385 800.293Z" fill="#893844"/>
<path d="M822.355 793.248C834.942 808.769 868.72 837.05 903.14 826.001" stroke="#8DADC9" stroke-width="4" stroke-linecap="round"/>
<path d="M716.183 873.389C731.564 870.2 763.107 854.732 766.235 818.372" stroke="#E798A4" stroke-width="4" stroke-linecap="round"/>
<path d="M688.26 884.313C700.52 873.913 681.977 845.184 678.615 845.297C676.875 845.356 673.723 846.014 669.65 847.433C666.022 848.697 662.586 850.184 660.171 851.828C661.186 852.655 663.537 855.941 665.819 860.811C668.673 866.898 666.149 882.814 667.364 886.442C668.579 890.07 676.001 894.712 688.26 884.313Z" fill="#893844"/>
<path d="M677.737 872.144C677.762 873.248 678.678 874.123 679.782 874.098C680.887 874.072 681.761 873.157 681.736 872.052L677.737 872.144ZM667.754 848.069C668.162 849.287 669.111 850.716 670.035 852.097C671.027 853.581 672.177 855.263 673.301 857.23C675.536 861.143 677.598 866.073 677.737 872.144L681.736 872.052C681.577 865.088 679.203 859.499 676.774 855.246C675.565 853.13 674.325 851.317 673.359 849.873C672.325 848.326 671.746 847.394 671.547 846.798L667.754 848.069Z" fill="#49151D"/>
<path d="M764.928 924.815C747.06 942.605 760.558 965.388 768.301 971.379L774.834 1016.48" stroke="#483229" stroke-width="4" stroke-linecap="round"/>
<path d="M722.011 1042.98C722.16 1041.89 721.394 1040.88 720.299 1040.73C719.205 1040.58 718.197 1041.35 718.047 1042.44L722.011 1042.98ZM785.429 1027.87C785.578 1026.78 784.812 1025.77 783.717 1025.62C782.623 1025.47 781.615 1026.24 781.466 1027.33L785.429 1027.87ZM735.292 1039.82C735.441 1038.72 734.675 1037.72 733.58 1037.57C732.486 1037.42 731.478 1038.18 731.329 1039.28L735.292 1039.82ZM772.48 1030.96C772.629 1029.87 771.863 1028.86 770.768 1028.71C769.674 1028.56 768.666 1029.33 768.516 1030.42L772.48 1030.96ZM937.961 989.76C937.198 988.961 935.932 988.932 935.134 989.695C934.335 990.457 934.305 991.723 935.068 992.522L937.961 989.76ZM862.509 1007.38C861.747 1006.58 860.481 1006.55 859.682 1007.31C858.883 1008.08 858.854 1009.34 859.616 1010.14L862.509 1007.38ZM924.348 993.003C923.585 992.204 922.319 992.175 921.52 992.937C920.721 993.7 920.692 994.966 921.455 995.765L924.348 993.003ZM873.467 1004.77C872.704 1003.97 871.438 1003.94 870.639 1004.7C869.84 1005.47 869.811 1006.73 870.574 1007.53L873.467 1004.77ZM727.408 1057.69C727.148 1056.6 726.425 1055.51 725.843 1054.65C725.182 1053.67 724.482 1052.69 723.822 1051.53C722.539 1049.27 721.527 1046.53 722.011 1042.98L718.047 1042.44C717.407 1047.14 718.792 1050.77 720.345 1053.5C721.104 1054.84 721.933 1056 722.527 1056.88C723.199 1057.88 723.456 1058.36 723.517 1058.62L727.408 1057.69ZM790.827 1042.59C790.567 1041.49 789.844 1040.4 789.261 1039.54C788.6 1038.56 787.901 1037.58 787.24 1036.42C785.957 1034.16 784.946 1031.42 785.429 1027.87L781.466 1027.33C780.826 1032.03 782.21 1035.67 783.764 1038.4C784.522 1039.73 785.352 1040.9 785.945 1041.78C786.617 1042.77 786.874 1043.26 786.935 1043.51L790.827 1042.59ZM740.69 1054.53C740.43 1053.44 739.707 1052.35 739.124 1051.48C738.463 1050.5 737.764 1049.52 737.103 1048.36C735.82 1046.11 734.809 1043.37 735.292 1039.82L731.329 1039.28C730.689 1043.98 732.073 1047.61 733.627 1050.34C734.385 1051.67 735.215 1052.84 735.808 1053.72C736.48 1054.72 736.737 1055.2 736.798 1055.46L740.69 1054.53ZM777.877 1045.67C777.617 1044.58 776.894 1043.49 776.312 1042.62C775.651 1041.64 774.951 1040.66 774.291 1039.5C773.008 1037.25 771.996 1034.51 772.48 1030.96L768.516 1030.42C767.876 1035.12 769.261 1038.75 770.814 1041.48C771.573 1042.81 772.402 1043.98 772.996 1044.86C773.668 1045.86 773.925 1046.34 773.986 1046.6L777.877 1045.67ZM935.068 992.522C936.749 994.283 937.529 995.804 937.86 997.086C938.19 998.365 938.111 999.555 937.836 1000.72C937.545 1001.96 937.09 1003.01 936.638 1004.26C936.253 1005.32 935.741 1006.84 936.099 1008.34L939.99 1007.41C939.945 1007.22 939.977 1006.79 940.399 1005.62C940.753 1004.64 941.368 1003.18 941.731 1001.64C942.109 1000.02 942.266 998.153 941.733 996.087C941.201 994.023 940.02 991.916 937.961 989.76L935.068 992.522ZM859.616 1010.14C861.297 1011.9 862.078 1013.42 862.408 1014.7C862.738 1015.98 862.659 1017.17 862.385 1018.34C862.094 1019.58 861.638 1020.62 861.186 1021.87C860.802 1022.94 860.29 1024.45 860.647 1025.95L864.538 1025.03C864.494 1024.84 864.525 1024.4 864.947 1023.24C865.302 1022.26 865.917 1020.8 866.279 1019.26C866.658 1017.64 866.814 1015.77 866.281 1013.7C865.749 1011.64 864.569 1009.53 862.509 1007.38L859.616 1010.14ZM921.455 995.765C923.136 997.526 923.916 999.047 924.247 1000.33C924.576 1001.61 924.497 1002.8 924.223 1003.97C923.932 1005.21 923.477 1006.25 923.024 1007.5C922.64 1008.56 922.128 1010.08 922.485 1011.58L926.376 1010.65C926.332 1010.47 926.363 1010.03 926.786 1008.86C927.14 1007.88 927.755 1006.42 928.117 1004.88C928.496 1003.27 928.653 1001.4 928.12 999.33C927.588 997.266 926.407 995.159 924.348 993.003L921.455 995.765ZM870.574 1007.53C872.254 1009.29 873.035 1010.81 873.365 1012.09C873.695 1013.37 873.616 1014.56 873.342 1015.73C873.051 1016.97 872.595 1018.01 872.143 1019.26C871.759 1020.33 871.247 1021.84 871.604 1023.34L875.495 1022.42C875.451 1022.23 875.482 1021.79 875.904 1020.63C876.259 1019.65 876.874 1018.19 877.236 1016.65C877.615 1015.03 877.771 1013.16 877.238 1011.09C876.706 1009.03 875.526 1006.92 873.467 1004.77L870.574 1007.53Z" fill="#7E6459"/>
<defs>
<linearGradient id="paint0_linear_0_1" x1="1195.75" y1="360.386" x2="1194.76" y2="310.575" gradientUnits="userSpaceOnUse">
<stop stop-color="#F0CCCC"/>
<stop offset="1" stop-color="#F3E9DD"/>
</linearGradient>
<linearGradient id="paint1_linear_0_1" x1="1059.44" y1="452.889" x2="1059.44" y2="1413.02" gradientUnits="userSpaceOnUse">
<stop stop-color="#060D1D"/>
<stop offset="1" stop-color="#59707C"/>
</linearGradient>
<clipPath id="clip0_0_1">
<rect width="1512" height="1199" fill="white"/>
</clipPath>
</defs>
</svg>
