<svg width="1559" height="1559" viewBox="0 0 1559 1559" fill="none" xmlns="http://www.w3.org/2000/svg">
<circle opacity="0.19" cx="778.5" cy="795.5" r="386.5" fill="#FFEB97"/>
<path d="M1008 1085L1012.27 1097.44H1026.07L1014.9 1105.12L1019.17 1117.56L1008 1109.88L996.832 1117.56L1001.1 1105.12L989.93 1097.44H1003.73L1008 1085Z" fill="#EED394"/>
<path d="M645 411L648.143 420.328H658.315L650.086 426.093L653.229 435.422L645 429.657L636.771 435.422L639.914 426.093L631.685 420.328H641.857L645 411Z" fill="#EED394"/>
<path d="M616 1121L622.511 1139.31H643.581L626.535 1150.63L633.046 1168.94L616 1157.62L598.954 1168.94L605.465 1150.63L588.419 1139.31H609.489L616 1121Z" fill="#EED394"/>
<path d="M1140.5 953L1147.12 972.348H1168.56L1151.22 984.305L1157.84 1003.65L1140.5 991.695L1123.16 1003.65L1129.78 984.305L1112.44 972.348H1133.88L1140.5 953Z" fill="#EED394"/>
<path d="M858.5 1138L865.123 1157.35H886.556L869.217 1169.3L875.84 1188.65L858.5 1176.7L841.16 1188.65L847.783 1169.3L830.444 1157.35H851.877L858.5 1138Z" fill="#EED394"/>
<path d="M967.5 435L973.45 451.929L992.703 451.929L977.127 462.392L983.076 479.321L967.5 468.858L951.924 479.321L957.873 462.392L942.297 451.929L961.55 451.929L967.5 435Z" fill="#EED394"/>
<path d="M1177 774L1183.06 791.275H1202.68L1186.81 801.951L1192.87 819.225L1177 808.549L1161.13 819.225L1167.19 801.951L1151.32 791.275H1170.94L1177 774Z" fill="#EED394"/>
<path d="M1109.5 583L1116.57 603.039L1139.46 603.039L1120.94 615.423L1128.02 635.461L1109.5 623.077L1090.98 635.461L1098.06 615.423L1079.54 603.039L1102.43 603.039L1109.5 583Z" fill="#EED394"/>
<path d="M782 390L789.858 411.766H815.287L794.714 425.218L802.572 446.984L782 433.532L761.428 446.984L769.286 425.218L748.713 411.766H774.142L782 390Z" fill="#EED394"/>
<path d="M537.5 470L544.123 486.929L565.556 486.929L548.217 497.392L554.84 514.321L537.5 503.858L520.16 514.321L526.783 497.392L509.444 486.929L530.877 486.929L537.5 470Z" fill="#EED394"/>
<path d="M700 1166L704.266 1178.09L718.07 1178.09L706.902 1185.57L711.168 1197.66L700 1190.18L688.832 1197.66L693.098 1185.57L681.93 1178.09L695.734 1178.09L700 1166Z" fill="#EED394"/>
<path d="M1059 484L1063.27 496.092L1077.07 496.092L1065.9 503.566L1070.17 515.658L1059 508.184L1047.83 515.658L1052.1 503.566L1040.93 496.092L1054.73 496.092L1059 484Z" fill="#EED394"/>
<path d="M474 1023L481.633 1045.11H506.336L486.351 1058.78L493.985 1080.89L474 1067.22L454.015 1080.89L461.649 1058.78L441.664 1045.11H466.367L474 1023Z" fill="#EED394"/>
<path d="M447 574L454.184 594.384H477.434L458.625 606.982L465.809 627.366L447 614.768L428.191 627.366L435.375 606.982L416.566 594.384H439.816L447 574Z" fill="#EED394"/>
<path d="M404 716L408.266 728.092L422.07 728.092L410.902 735.566L415.168 747.658L404 740.184L392.832 747.658L397.098 735.566L385.93 728.092L399.734 728.092L404 716Z" fill="#EED394"/>
<path d="M411 874L417.511 892.311H438.581L421.535 903.628L428.046 921.939L411 910.622L393.954 921.939L400.465 903.628L383.419 892.311H404.489L411 874Z" fill="#EED394"/>
<path d="M838.784 1211.84C838.905 1211.84 839.046 1212.11 839.207 1212.63C839.248 1212.72 839.288 1212.95 839.328 1213.18C839.349 1213.29 839.369 1213.43 839.389 1213.56C839.328 1213.66 839.187 1213.71 839.066 1213.81C838.482 1214.19 838.28 1214.34 837.736 1214.61C836.869 1215.11 834.893 1215.45 833.663 1213.92C833.018 1213.16 833.119 1211.81 833.986 1211.1C834.812 1210.41 835.719 1210.28 836.566 1210.2C837.433 1210.15 838.24 1210.24 839.026 1210.41C839.792 1210.59 840.8 1211.01 841.224 1211.98C841.647 1212.95 841.143 1213.92 840.619 1214.4C840.074 1214.92 839.369 1215.18 838.744 1215.22C837.514 1215.26 836.748 1214.82 836.264 1214.53C835.78 1214.23 835.558 1214 835.619 1213.9C835.679 1213.79 836.002 1213.81 836.526 1213.9C837.05 1213.98 837.836 1214.15 838.582 1214C839.248 1213.92 839.994 1213.01 839.671 1212.63C839.55 1212.19 837.937 1211.86 836.707 1211.96C836.082 1212 835.457 1212.17 835.215 1212.38C834.994 1212.55 834.933 1212.82 835.094 1213.05C835.478 1213.66 836.465 1213.77 837.272 1213.49C837.635 1213.39 838.219 1213.12 838.3 1213.14C838.421 1213.14 838.482 1213.08 838.461 1212.99C838.482 1212.91 838.502 1212.84 838.522 1212.68C838.603 1212.15 838.683 1211.86 838.824 1211.84H838.784Z" fill="#EED394"/>
<path d="M493.699 902.832C493.84 902.794 493.961 902.756 494.122 902.718C494.183 902.699 494.243 902.68 494.324 902.641C494.324 902.641 494.385 902.603 494.445 902.527C494.506 902.451 494.506 902.336 494.506 902.413C494.485 902.489 494.626 902.718 494.606 902.68L492.328 903.519C491.804 902.966 491.38 902.26 491.118 901.459L494.647 901.993C494.647 901.993 494.647 902.107 494.687 902.184C494.747 902.336 494.868 902.413 494.788 902.355C494.727 902.279 494.526 902.298 494.425 902.203C494.284 902.393 494.788 902.012 494.727 902.012C494.727 902.012 494.667 902.241 494.687 902.336C494.566 902.641 495.131 903.061 495.252 903.5C495.372 903.958 495.695 904.396 495.131 904.949C494.727 905.426 493.8 905.808 492.691 905.598C492.126 905.484 491.522 905.236 490.937 904.721C490.655 904.473 490.372 904.129 490.171 903.729C490.11 903.633 490.07 903.519 490.03 903.404L489.969 903.233L489.929 903.156V903.118L489.888 902.908L489.828 902.794C489.828 902.775 489.828 902.794 489.808 902.737L489.768 902.489C489.647 901.23 489.909 900.467 490.413 899.609C490.917 898.826 491.663 898.14 492.731 897.701C493.397 897.434 494.183 897.3 494.949 897.377L498.094 897.625L498.336 900.181C498.417 901.02 498.296 901.821 497.994 902.508L497.59 904.473C496.582 905.617 495.272 905.674 494.606 905.503C493.86 905.312 493.397 904.892 493.135 904.473C492.61 903.519 493.195 902.928 493.719 902.832H493.699Z" fill="#EED394"/>
<path d="M483.699 876.758C484.122 876.872 484.646 877.483 483.941 878.493C483.175 879.409 481.481 879.924 479.687 879.199C479.223 879.008 478.759 878.703 478.295 878.246C478.074 877.978 477.892 877.788 477.67 877.33C477.57 877.101 477.469 876.853 477.408 876.605C477.348 876.395 477.348 876.433 477.307 876.338C476.985 874.831 477.469 873.458 478.336 872.37C479.203 871.302 480.332 870.635 481.642 870.272C482.368 870.101 482.892 869.986 483.981 870.081L484.263 870.12H484.324L484.646 870.177L484.888 870.234C485.211 870.31 485.533 870.406 485.856 870.52C488.538 871.607 489.646 873.42 490.332 874.812L491.663 877.463L489.727 878.799C486.763 880.821 483.779 880 482.59 878.951L481.541 878.093C481.239 877.54 481.4 876.529 481.824 876.147C482.207 875.747 482.57 875.67 482.832 875.613C483.376 875.556 483.779 875.689 484.122 875.937C484.485 876.185 484.606 876.643 484.485 876.891C484.344 876.967 484.183 877.025 484.021 877.063C483.9 877.082 483.558 877.12 483.719 877.025C483.759 877.063 483.759 877.025 483.699 877.158C483.638 877.292 483.699 877.54 483.658 877.406C483.638 877.349 483.558 877.215 483.457 877.158C483.356 877.101 483.356 877.158 483.517 877.082L483.759 875.594C484.485 875.213 485.191 874.507 485.211 874.049L484.586 878.036C483.961 877.406 483.235 876.948 483.114 876.948H483.094L483.437 876.033L483.376 876.071C483.296 876.109 483.175 876.147 483.134 876.185C483.376 876.414 483.255 876.567 483.316 876.643C483.376 876.815 483.235 876.395 482.872 876.09C482.711 875.957 482.509 875.861 482.429 875.823H482.348H482.388C482.126 875.766 482.973 875.957 481.783 875.689V875.804C481.743 875.976 482.247 875.537 482.388 875.346C482.55 875.06 482.388 875.365 482.388 875.556C482.368 875.88 482.469 876.185 482.55 876.3C482.59 876.357 482.55 876.319 482.65 876.395C482.731 876.472 482.852 876.529 482.973 876.548C483.195 876.624 483.477 876.643 483.699 876.739V876.758Z" fill="#EED394"/>
<path d="M526.925 999.371C527.066 999.657 527.046 1000.06 526.643 1000.42C526.26 1000.78 525.453 1001.13 524.304 1000.86L521.38 1000.17L524.788 997.52C525.574 996.91 526.663 996.3 527.994 995.727L531.058 994.411L531.703 998.398C531.905 999.6 531.421 1001.05 530.594 1001.98C529.768 1002.94 528.74 1003.55 527.55 1003.91C526.381 1004.23 524.909 1004.35 523.276 1003.62C522.933 1003.49 522.368 1003.15 521.925 1002.73C521.622 1002.46 521.683 1002.5 521.602 1002.42L521.522 1002.35L521.481 1002.31H521.461L521.219 1002V1001.96C520.675 1001.24 520.292 1000.34 520.231 999.485C520.07 997.158 521.118 995.651 522.389 994.564C523.659 993.515 525.735 992.714 527.933 993.419C529.627 993.953 530.897 995.403 531.26 996.681C531.643 997.959 531.461 998.97 531.199 999.771C530.635 1001.35 529.606 1002.19 528.78 1002.56C527.913 1002.92 527.288 1002.77 526.985 1002.4C526.381 1001.66 526.602 1000.27 526.038 999.161C525.977 999.047 525.897 998.932 525.816 998.875C525.776 998.799 525.514 998.875 525.937 998.741C526.219 998.627 526.32 998.551 526.36 998.512C526.3 998.57 526.36 998.512 526.26 998.646C526.219 998.703 526.199 998.741 526.199 998.779V998.799C526.098 998.913 527.006 997.883 526.623 998.322L526.562 998.283L526.441 998.207L526.32 998.131C526.32 998.131 526.34 998.169 526.36 998.169C526.401 998.207 526.481 998.188 526.481 998.226C526.481 998.322 526.481 998.379 526.542 998.531C526.623 998.779 526.824 999.066 526.925 999.161C527.026 999.275 527.026 999.218 526.784 999.104C526.562 998.989 526.159 998.913 525.937 998.932C525.715 998.97 525.796 998.97 525.856 998.932C525.655 998.703 525.977 999.218 525.897 999.085C525.877 998.989 525.776 998.951 525.856 998.875C526.018 998.646 526.018 997.959 525.957 997.845C525.897 997.711 526.038 998.112 526.381 998.379C526.703 998.665 527.006 998.646 526.744 998.646L529.365 1001.35C527.893 1001.39 526.643 1001.28 525.655 1001.07L526.119 997.788C526.038 997.921 526.119 998.341 526.34 998.57C526.542 998.856 526.804 999.085 526.945 999.39L526.925 999.371Z" fill="#EED394"/>
<path d="M356.822 757.748C357.144 757.5 357.668 757.404 358.233 757.862C358.777 758.32 359.221 759.35 358.818 760.609C358.616 761.219 358.193 761.944 357.285 762.497C357.104 762.631 356.58 762.821 356.358 762.898L356.217 762.974H356.176V762.993L355.894 763.031L355.672 763.069C355.047 763.165 354.382 763.069 353.797 762.898C352.588 762.516 351.66 761.791 351.015 760.761C350.39 759.769 350.007 758.148 350.793 756.527L351.116 755.84L351.922 755.249C353.475 754.142 355.39 753.875 357.063 754.238C358.777 754.657 360.41 755.535 361.378 757.709C361.62 758.224 361.862 759.636 361.58 760.513C361.338 761.486 360.834 762.192 360.31 762.726C359.241 763.775 357.991 764.233 356.66 764.271C355.33 764.309 353.999 763.623 353.495 762.821L353.071 762.326C353.112 761.238 353.434 760.456 354.1 760.113C354.765 759.769 355.652 759.922 356.64 760.475L355.955 760.246C355.773 760.475 355.995 760.285 355.894 759.846C355.834 759.369 355.491 759.121 355.813 759.426C356.055 759.731 357.063 759.731 356.116 759.693C356.156 759.884 355.894 759.884 355.753 760.132C355.592 760.323 355.511 760.552 355.511 760.571C355.551 760.666 355.491 759.96 355.309 759.827L355.188 758.606C355.188 758.606 355.652 758.644 355.773 758.549C355.914 758.453 355.652 758.625 355.551 758.854C355.511 758.949 355.491 759.045 355.491 759.026C355.269 759.064 355.471 759.026 355.43 759.026L355.572 758.987C355.572 758.987 355.451 758.987 355.451 758.93C355.39 758.778 355.168 758.606 355.108 758.587C354.926 758.549 355.572 758.701 355.854 758.511C356.217 758.358 356.459 757.996 356.801 757.748H356.822Z" fill="#EED394"/>
<path d="M434.119 719.426C434.22 719.541 434.24 719.75 433.978 719.998C433.716 720.227 433.172 720.456 432.486 720.304C432.143 720.227 431.76 720.056 431.418 719.693C431.337 719.617 431.236 719.483 431.155 719.331C431.055 719.102 431.095 719.274 430.994 719.007C430.914 718.739 430.873 718.415 430.914 718.129C430.994 717.538 431.317 716.985 431.801 716.565C432.285 716.164 433.091 715.821 434.039 716.012L434.502 716.107L434.885 716.565C435.45 717.252 435.571 718.148 435.369 718.873C435.127 719.617 434.764 720.361 433.535 720.838C433.212 720.971 432.486 721.048 432.022 720.933C431.498 720.838 431.055 720.609 430.692 720.323C429.966 719.77 429.361 718.816 429.563 717.595L429.724 716.679L430.651 716.317C431.095 716.145 431.559 715.993 432.043 715.935C434.845 715.478 437.426 716.756 438.635 718.511L439.765 720.151L438.091 720.761C436.135 721.467 434.442 721.124 433.474 720.666C432.486 720.17 432.164 719.598 432.325 719.35C432.607 718.778 434.764 719.331 436.72 718.091L436.176 720.342C435.41 719.636 434.018 719.14 432.728 719.369C432.506 719.407 432.305 719.464 432.123 719.522L432.446 718.11C432.446 718.11 432.93 717.957 432.829 717.976C432.768 717.976 432.607 718.472 432.748 718.32C432.627 718.244 432.365 717.996 432.406 718.072C432.466 718.11 432.829 718.072 432.809 718.034L433.393 718.377C433.393 718.377 433.454 718.72 433.494 718.739C433.454 718.72 433.434 718.701 433.232 718.644C433.151 718.644 433.111 718.644 433.111 718.644C433.091 718.53 433.151 718.797 433.151 718.682C433.151 718.644 433.192 718.587 433.151 718.606C433.091 718.644 433.111 718.739 433.151 718.835C433.373 719.235 433.837 719.293 434.059 719.502L434.119 719.426Z" fill="#EED394"/>
<path d="M526.237 600.914C525.995 600.914 525.713 600.609 525.692 599.96C525.672 599.331 525.954 598.339 526.882 597.5C527.729 596.68 529.442 595.878 531.378 596.47C532.305 596.737 533.132 597.309 533.757 598.034C534.06 598.415 534.322 598.797 534.543 599.293C534.765 599.903 534.947 600.571 534.926 601.219C534.926 601.677 534.826 602.116 534.705 602.536L534.543 603.184L533.939 603.432L533.334 603.661L532.628 603.795C532.265 603.852 531.902 603.928 531.559 603.985C530.108 604.214 528.737 604.405 527.487 604.596C527.225 603.337 526.983 602.04 526.922 601.353C526.882 600.8 526.882 600.304 526.922 599.884C526.983 599.045 527.144 598.549 527.467 598.473C527.789 598.396 528.192 598.759 528.656 599.465C528.878 599.808 529.14 600.247 529.382 600.762C529.604 601.162 529.684 601.067 529.785 601.124C529.886 601.067 529.947 601.01 529.987 600.971V600.933C529.987 600.933 530.047 600.914 530.188 600.876L530.854 600.704L531.176 600.628V600.59C531.136 600.456 531.035 600.285 530.934 600.151C530.733 599.884 530.491 599.655 530.249 599.522C529.805 599.236 529.12 599.274 528.515 599.522C527.265 599.98 526.821 600.971 526.297 600.971L526.237 600.914Z" fill="#EED394"/>
<path d="M743.079 1134.1C743.079 1134.44 741.99 1134.86 740.296 1134.19C739.47 1133.85 738.542 1133.24 737.817 1132.25C737.675 1132.07 737.373 1131.6 737.212 1131.18C737.03 1130.76 736.869 1130.3 736.788 1129.84C736.627 1128.93 736.687 1128.03 736.708 1127C737.817 1126.94 738.865 1126.79 740.175 1126.92C741.688 1127.12 742.252 1127.32 743.059 1127.63C743.563 1127.84 744.188 1128.16 744.732 1128.45C744.934 1128.97 745.115 1129.46 745.236 1129.98C745.337 1130.53 745.337 1131.03 745.276 1131.39C745.176 1132.17 744.873 1132.88 744.49 1133.49C743.704 1134.69 742.373 1135.53 741.022 1135.7L739.429 1135.89L739.268 1134.65C738.845 1131.22 740.438 1129.39 740.921 1129.63C741.526 1129.82 741.244 1131.71 742.151 1134L740.397 1132.95C740.8 1132.78 741.204 1132.42 741.466 1131.88C741.587 1131.62 741.667 1131.33 741.667 1131.06C741.667 1130.72 741.647 1130.93 741.647 1130.87C741.627 1130.87 741.688 1130.89 741.587 1130.85C740.095 1130.36 740.74 1130.55 740.458 1130.43C740.397 1130.45 740.196 1130.42 740.337 1130.83C740.619 1131.5 741.042 1132.06 741.466 1132.48C742.292 1133.33 743.099 1133.7 743.059 1134.1H743.079Z" fill="#EED394"/>
<path d="M480.05 1069.95C480.09 1070.18 479.828 1070.48 479.163 1070.58C478.518 1070.67 477.51 1070.48 476.602 1069.68C476.159 1069.28 475.735 1068.75 475.514 1068.02C475.292 1067.3 475.292 1066.36 475.675 1065.54C476.058 1064.72 476.723 1064.02 477.57 1063.58C478.457 1063.14 479.324 1062.83 480.675 1063.04C480.998 1063.1 481.3 1063.2 481.602 1063.31L482.046 1063.48C482.167 1063.58 482.248 1063.71 482.348 1063.81C482.53 1064.03 482.772 1064.26 482.913 1064.49C483.034 1064.7 483.135 1064.84 483.235 1065.01C483.619 1065.67 483.84 1066.36 483.961 1067.03C484.223 1068.36 484.022 1069.57 483.659 1070.48C482.893 1072.35 481.623 1072.92 481.28 1072.64C480.856 1072.33 481.179 1071.36 481.098 1070C481.058 1069.34 480.957 1068.56 480.655 1067.79C480.514 1067.41 480.332 1067.03 480.09 1066.69C480.03 1066.61 479.949 1066.49 479.909 1066.46C479.909 1066.46 479.506 1066.46 479.324 1066.59C479.062 1066.69 478.881 1066.86 478.76 1066.99C478.518 1067.22 478.437 1067.68 478.659 1068.17C479.042 1069.18 479.989 1069.51 480.09 1069.99L480.05 1069.95Z" fill="#EED394"/>
<path d="M1028.95 1084.62C1028.99 1084.82 1028.79 1085.15 1028.25 1085.28C1027.72 1085.44 1026.82 1085.38 1025.97 1084.84C1025.14 1084.33 1024.28 1083.39 1024.09 1081.93C1024.01 1081.2 1024.17 1080.34 1024.66 1079.6C1025.14 1078.85 1025.93 1078.28 1026.76 1078.02C1029.11 1077.19 1031.78 1078.3 1032.5 1080.29L1032.94 1081.49L1032.08 1082C1030.44 1082.97 1028.97 1082.46 1028.33 1081.96C1027.62 1081.41 1027.62 1080.86 1027.86 1080.67C1028.11 1080.46 1028.53 1080.49 1028.99 1080.4C1029.44 1080.32 1030.02 1080.06 1030.12 1079.75L1029.7 1081.47C1029.52 1081.35 1029.36 1081.26 1029.03 1081.2C1028.73 1081.14 1028.31 1081.16 1028.05 1081.26C1027.68 1081.43 1027.62 1081.45 1027.5 1081.77C1027.4 1082.1 1027.54 1082.61 1027.74 1082.99C1028.11 1083.78 1028.85 1084.1 1028.97 1084.58L1028.95 1084.62Z" fill="#EED394"/>
<path d="M963.565 1168.28C963.887 1168.58 963.787 1169.38 962.779 1169.98C961.851 1170.55 959.916 1170.78 958.343 1169.42L957.617 1168.79L957.799 1167.93L957.879 1167.57C958.222 1166.27 959.311 1165.57 960.158 1165.34C961.024 1165.09 961.851 1165.21 962.476 1165.47C963.807 1166.12 963.686 1167.13 963.283 1167.32C962.859 1167.57 962.254 1167.57 961.932 1167.88C961.77 1168.01 961.569 1168.14 961.468 1168.3C961.408 1168.35 961.387 1168.43 961.387 1168.45C961.347 1168.41 961.145 1168.3 961.206 1168.34L960.903 1166.89C961.105 1167.11 961.609 1167.44 962.133 1167.61C962.637 1167.82 963.222 1167.9 963.565 1168.24V1168.28Z" fill="#EED394"/>
<path d="M1064.15 1152.81C1064.33 1152.94 1064.44 1153.27 1064.11 1153.67C1063.79 1154.07 1063 1154.35 1062.16 1154.18C1061.73 1154.11 1061.27 1153.93 1060.83 1153.55C1060.6 1153.36 1060.38 1153.09 1060.24 1152.81C1060.12 1152.56 1060.02 1152.27 1059.98 1151.97C1059.92 1151.38 1059.98 1150.84 1060.58 1150.23C1061.11 1149.64 1062.1 1149.11 1063.31 1148.99C1064.33 1148.96 1065.26 1149.22 1065.87 1149.6C1066.49 1149.99 1066.79 1150.44 1067.18 1150.84C1067.12 1151.66 1066.87 1152.66 1066.29 1153.19C1065.75 1153.78 1065.1 1154.03 1064.62 1154.09C1063.55 1154.22 1063.06 1153.69 1063.14 1153.34C1063.21 1152.96 1063.55 1152.66 1063.69 1152.26C1063.93 1151.82 1063.71 1151.53 1063.55 1151.53C1063.45 1151.53 1063.45 1151.53 1063.45 1151.55C1063.45 1151.55 1063.43 1151.51 1063.31 1151.55C1063.29 1151.55 1063.27 1151.59 1063.25 1151.61H1063.23C1062.74 1151.86 1063.08 1151.68 1062.98 1151.74H1063.02C1063.02 1151.74 1063.14 1151.65 1063.16 1151.63C1063.12 1151.66 1063.14 1151.78 1063.16 1151.87C1063.25 1152.06 1063.35 1152.27 1063.53 1152.41C1063.71 1152.56 1063.99 1152.6 1064.19 1152.77L1064.15 1152.81Z" fill="#EED394"/>
<path d="M1226.94 927.915C1227.16 928.335 1226.72 929.098 1225.51 929.709C1224.92 930.014 1224.14 930.262 1223.25 930.376C1221.9 930.548 1220.16 930.204 1218.71 929.899C1218.11 929.785 1217.85 929.67 1220.59 930.128C1221.23 930.128 1222.1 930.624 1222.81 929.651C1222.97 929.537 1223.21 929.232 1223.31 929.27H1223.65L1224.2 929.155C1224.56 929.117 1224.62 929.003 1224.92 929.155C1225.02 929.213 1225.24 929.365 1225.24 929.327L1225.29 929.27C1225 929.384 1225 929.67 1224.1 929.823C1223.37 929.842 1223.07 929.613 1222.83 929.441C1222.36 929.079 1222.14 928.698 1222.04 928.202C1221.88 927.667 1222.4 927.057 1222.72 927.095C1222.91 927.152 1223.03 927.267 1223.09 927.381C1223.17 927.515 1223.17 927.667 1223.13 927.839C1223.21 927.896 1223.05 927.668 1223.11 927.744C1223.07 927.744 1223.25 927.763 1223.45 927.687C1223.71 927.553 1223.69 927.553 1223.77 927.534C1223.83 927.534 1223.91 927.515 1223.95 927.477C1224.01 927.4 1223.91 927.572 1223.85 927.744C1223.81 927.896 1223.77 928.087 1223.79 928.182C1223.79 928.202 1223.79 928.24 1223.79 928.259V928.278C1223.03 926.466 1223.57 927.782 1223.41 927.362H1223.37C1223.37 927.362 1223.27 927.42 1223.29 927.381C1223.29 927.343 1223.29 927.305 1223.29 927.286C1222.97 927.038 1223.05 927.095 1223.07 927.076C1223.09 927.076 1222.95 927.133 1223.13 927.21C1223.77 927.267 1224.36 927.305 1224.86 927.362C1225.89 927.439 1226.7 927.515 1226.92 927.954L1226.94 927.915Z" fill="#EED394"/>
<path d="M521.622 849.269C521.804 849.422 521.925 849.67 521.784 850.013C521.643 850.356 521.179 850.738 520.513 850.833C519.868 850.948 519.102 850.833 518.396 850.318C518.054 850.07 517.691 849.727 517.449 849.174C517.207 848.64 517.146 847.934 517.388 847.305L517.53 846.923L517.792 846.675L518.013 846.484C519.606 845.187 521.501 845.55 522.348 846.198C523.276 846.885 523.235 847.705 522.852 847.972C522.449 848.277 521.884 848.315 521.441 848.525C520.997 848.678 520.574 848.964 520.473 849.098H520.453L520.251 848.277C520.11 848.239 520.171 848.277 520.332 848.22C520.433 848.22 520.796 847.915 520.695 848.029C520.655 848.125 520.695 848.296 520.755 848.449C520.755 848.83 521.239 849.04 521.663 849.307L521.622 849.269Z" fill="#EED394"/>
<path d="M729.308 498.559C729.187 498.75 728.824 498.883 728.28 498.616C727.756 498.349 727.131 497.644 726.97 496.614C726.808 495.66 727.03 494.096 728.703 493.142C729.53 492.703 730.518 492.551 731.506 492.818C732.534 493.085 733.462 493.733 734.026 494.573C734.45 495.164 734.671 495.832 734.692 496.461C734.732 497.071 734.51 497.701 734.409 498.216C733.159 498.979 731.728 499.418 730.397 499.284C729.449 499.17 728.703 498.845 728.159 498.464C727.07 497.682 726.929 496.862 727.232 496.614C727.554 496.347 728.199 496.499 729.026 496.518C729.449 496.518 729.913 496.518 730.397 496.404C730.518 496.308 730.538 496.194 730.498 496.137C730.458 496.079 730.397 496.079 730.397 496.079C730.599 496.137 729.994 495.564 729.55 496.594C729.167 497.377 729.49 498.082 729.288 498.521L729.308 498.559Z" fill="#EED394"/>
<path d="M705.839 565.816C705.718 565.625 705.759 565.32 706.101 565.072C706.424 564.824 707.029 564.709 707.614 564.9C708.198 565.091 708.601 565.53 708.682 565.93C708.783 566.331 708.622 566.598 708.4 566.674C707.896 566.789 707.412 566.674 707.009 566.56C706.626 566.407 706.162 566.216 705.839 565.835V565.816Z" fill="#EED394"/>
<path d="M886.308 1161.33C886.429 1161.33 886.591 1161.41 886.591 1161.7C886.671 1162.04 885.966 1162.46 885.522 1162.35C885.119 1162.35 884.433 1162 884.091 1161.45C883.728 1160.9 883.849 1160.06 884.534 1159.58C884.877 1159.35 885.24 1159.2 885.683 1159.16C886.006 1159.16 886.288 1159.18 886.55 1159.27C887.034 1159.43 887.377 1159.68 887.639 1159.9C888.123 1160.38 888.184 1160.84 888.002 1160.97C887.8 1161.12 887.438 1161.03 886.954 1160.93C886.712 1160.88 886.45 1160.84 886.208 1160.84C886.087 1160.84 885.986 1160.84 885.885 1160.86C885.905 1160.82 885.663 1160.86 885.865 1161.12C885.865 1161.12 885.905 1161.18 885.905 1161.2V1161.39C886.026 1161.51 885.885 1161.39 885.946 1161.43C886.067 1161.43 886.187 1161.32 886.329 1161.33H886.308Z" fill="#EED394"/>
<path d="M549.183 1148.08C549.304 1148.46 547.651 1149.24 545.292 1149.97L545.635 1148.52C545.897 1148.69 546.199 1148.82 546.582 1148.88C547.732 1149.05 548.921 1148.46 549.486 1147.92C550.111 1147.37 550.252 1146.76 550.534 1146.76C550.736 1146.72 551.159 1147.49 550.554 1148.63C549.99 1149.68 548.397 1150.88 546.28 1150.61C545.595 1150.52 544.949 1150.21 544.465 1149.79L543.195 1148.71L544.808 1148.36C547.207 1147.85 549.062 1147.71 549.163 1148.1L549.183 1148.08Z" fill="#EED394"/>
<path d="M617.39 501.858C617.632 501.419 618.721 501.515 619.93 501.534C621.14 501.591 622.229 501.572 622.43 502.011C622.652 502.43 621.543 503.327 619.87 503.269C618.197 503.212 617.148 502.258 617.39 501.858Z" fill="#EED394"/>
<path d="M971.633 1046.98C971.754 1046.98 971.915 1047.06 971.915 1047.34C971.996 1047.69 971.29 1048.11 970.846 1047.99C970.443 1047.99 969.758 1047.65 969.415 1047.1C969.052 1046.54 969.173 1045.7 969.858 1045.23C970.201 1045 970.564 1044.84 971.008 1044.81C971.33 1044.81 971.613 1044.83 971.875 1044.92C972.359 1045.07 972.721 1045.32 972.963 1045.55C973.447 1046.03 973.508 1046.49 973.326 1046.62C973.125 1046.77 972.762 1046.68 972.278 1046.58C972.036 1046.52 971.774 1046.49 971.532 1046.49C971.411 1046.49 971.31 1046.49 971.209 1046.5C971.23 1046.47 970.988 1046.5 971.189 1046.77L971.23 1046.83V1047.02C971.35 1047.13 971.209 1047.02 971.27 1047.06C971.391 1047.06 971.512 1046.94 971.653 1046.96L971.633 1046.98Z" fill="#EED394"/>
<path d="M909.271 1116.74C909.695 1116.66 910.098 1116.91 910.178 1117.29C910.259 1117.69 909.997 1118.07 909.594 1118.15C909.17 1118.23 908.767 1117.98 908.686 1117.6C908.606 1117.2 908.868 1116.81 909.271 1116.74Z" fill="#EED394"/>
<path d="M964.474 1158.02C964.898 1157.94 965.301 1158.19 965.382 1158.57C965.462 1158.97 965.2 1159.35 964.797 1159.43C964.373 1159.5 963.97 1159.26 963.89 1158.87C963.809 1158.47 964.071 1158.09 964.474 1158.02Z" fill="#EED394"/>
<path d="M961.611 1074.85C962.034 1074.77 962.438 1075.02 962.518 1075.4C962.599 1075.8 962.337 1076.18 961.934 1076.26C961.51 1076.34 961.107 1076.09 961.026 1075.71C960.946 1075.31 961.208 1074.93 961.611 1074.85Z" fill="#EED394"/>
<path d="M976.49 1049.67C976.913 1049.59 977.317 1049.84 977.397 1050.22C977.478 1050.62 977.216 1051.01 976.813 1051.08C976.409 1051.16 975.986 1050.91 975.905 1050.53C975.825 1050.13 976.087 1049.75 976.49 1049.67Z" fill="#EED394"/>
<path d="M708.056 1093.54C708.48 1093.47 708.883 1093.71 708.964 1094.1C709.044 1094.5 708.782 1094.88 708.379 1094.95C707.955 1095.03 707.552 1094.78 707.472 1094.4C707.391 1094 707.653 1093.62 708.056 1093.54Z" fill="#EED394"/>
<path d="M1045.42 1046.83C1045.85 1046.75 1046.25 1047 1046.33 1047.38C1046.41 1047.78 1046.15 1048.16 1045.75 1048.24C1045.32 1048.32 1044.92 1048.07 1044.84 1047.69C1044.76 1047.29 1045.02 1046.9 1045.42 1046.83Z" fill="#EED394"/>
<path d="M1105.02 1099.93C1105.44 1099.86 1105.85 1100.11 1105.93 1100.49C1106.01 1100.89 1105.75 1101.27 1105.34 1101.35C1104.92 1101.42 1104.52 1101.17 1104.44 1100.79C1104.36 1100.39 1104.62 1100.01 1105.02 1099.93Z" fill="#EED394"/>
<path d="M373.15 793.914C373.573 793.838 373.977 794.086 374.057 794.467C374.138 794.868 373.876 795.249 373.473 795.326C373.069 795.402 372.646 795.154 372.565 794.773C372.485 794.372 372.747 793.99 373.15 793.914Z" fill="#EED394"/>
<path d="M415.49 805.149C415.913 805.072 416.317 805.32 416.397 805.702C416.478 806.102 416.216 806.484 415.812 806.56C415.389 806.636 414.986 806.388 414.905 806.007C414.825 805.606 415.087 805.225 415.49 805.149Z" fill="#EED394"/>
<path d="M419.685 766.504C420.109 766.428 420.512 766.676 420.592 767.057C420.673 767.458 420.411 767.839 420.008 767.916C419.584 767.992 419.181 767.744 419.101 767.362C419.02 766.962 419.282 766.58 419.685 766.504Z" fill="#EED394"/>
<path d="M513.498 1084.25C513.074 1082.12 514.566 1079.98 516.784 1079.5C519.143 1079.01 521.441 1080.48 521.905 1082.79C522.349 1084.96 520.917 1087.06 518.659 1087.52C516.32 1088.01 513.941 1086.49 513.498 1084.25Z" fill="#EED394"/>
<path d="M859.209 409.48C861.427 408.945 863.725 410.243 864.33 412.36C864.996 414.668 863.665 416.862 861.286 417.415C859.048 417.949 856.749 416.69 856.124 414.573C855.459 412.379 856.891 410.033 859.209 409.48Z" fill="#EED394"/>
<path d="M438.656 548.076C436.277 548.477 434.059 546.913 433.676 544.586C433.334 542.411 434.886 540.351 437.124 539.989C439.362 539.626 441.66 541.095 442.124 543.174C442.608 545.349 440.955 547.695 438.656 548.076Z" fill="#EED394"/>
<path d="M782.836 1180.89C785.033 1180.41 787.352 1181.75 787.957 1183.83C788.582 1186.06 787.17 1188.33 784.791 1188.84C782.513 1189.34 780.316 1188.08 779.711 1185.92C779.086 1183.65 780.497 1181.4 782.836 1180.89Z" fill="#EED394"/>
<path d="M1034.37 563.109C1036.75 562.746 1038.95 564.311 1039.31 566.638C1039.66 568.812 1038.08 570.872 1035.83 571.216C1033.45 571.578 1031.15 569.957 1030.85 567.706C1030.54 565.55 1032.16 563.452 1034.37 563.109Z" fill="#EED394"/>
<path d="M1021.09 514.658C1023.39 514.143 1025.85 515.65 1026.31 517.843C1026.75 519.961 1025.3 522.116 1023.08 522.612C1020.81 523.127 1018.61 521.868 1018 519.713C1017.38 517.424 1018.73 515.173 1021.09 514.658Z" fill="#EED394"/>
<path d="M675.941 1159.68C676.365 1161.98 674.772 1164.01 672.292 1164.35C669.973 1164.65 667.917 1163.22 667.514 1161.01C667.131 1158.86 668.602 1156.79 670.881 1156.36C673.26 1155.9 675.538 1157.39 675.941 1159.68Z" fill="#EED394"/>
<path d="M986.976 1086.85C987.561 1089.1 986.069 1091.35 983.71 1091.83C981.492 1092.26 979.174 1090.89 978.609 1088.81C978.024 1086.64 979.557 1084.35 981.936 1083.87C984.234 1083.4 986.412 1084.69 986.976 1086.87V1086.85Z" fill="#EED394"/>
<path d="M643.965 477.481C646.344 477.042 648.602 478.53 649.005 480.838C649.388 483.051 647.957 484.996 645.618 485.435C643.179 485.893 640.981 484.443 640.578 482.116C640.215 479.961 641.707 477.901 643.985 477.481H643.965Z" fill="#EED394"/>
<path d="M644.387 1079.29C644.891 1081.45 643.5 1083.59 641.282 1084.14C639.024 1084.69 636.483 1083.22 635.979 1081.05C635.475 1078.86 637.088 1076.57 639.427 1076.15C641.705 1075.75 643.883 1077.12 644.387 1079.29Z" fill="#EED394"/>
<path d="M493.476 1022.85C492.891 1020.58 494.363 1018.35 496.722 1017.89C498.94 1017.45 501.238 1018.83 501.803 1020.91C502.387 1023.08 500.855 1025.37 498.476 1025.85C496.157 1026.32 494.02 1025.05 493.476 1022.85Z" fill="#EED394"/>
<path d="M594.587 560.286C595.112 562.479 593.801 564.539 591.523 565.092C589.164 565.665 586.745 564.291 586.22 562.079C585.696 559.904 587.309 557.577 589.648 557.157C591.906 556.757 594.104 558.13 594.608 560.286H594.587Z" fill="#EED394"/>
<path d="M563.659 485.417C564.203 487.668 562.711 489.899 560.352 490.357C558.114 490.777 555.876 489.403 555.352 487.267C554.787 484.978 556.239 482.842 558.679 482.384C561.017 481.945 563.114 483.242 563.659 485.417Z" fill="#EED394"/>
<path d="M472.889 887.134C473.393 889.309 472.022 891.369 469.744 891.903C467.304 892.475 465.066 891.159 464.542 888.832C464.038 886.543 465.55 884.368 467.929 883.968C470.167 883.586 472.405 885.017 472.869 887.134H472.889Z" fill="#EED394"/>
<path d="M1027.28 1118.44C1025.42 1118.8 1024.26 1118.3 1023.97 1117.14C1023.65 1115.86 1024.68 1114.81 1026.49 1114.6C1027 1114.54 1027.58 1114.41 1027.96 1114.6C1028.61 1114.93 1029.58 1115.46 1029.6 1115.96C1029.64 1116.62 1029.03 1117.42 1028.53 1118.02C1028.27 1118.32 1027.62 1118.34 1027.28 1118.44Z" fill="#EED394"/>
<path d="M638.34 448.01C639.731 447.743 640.9 448.373 641.122 449.479C641.364 450.681 640.396 452.207 639.287 452.378C638.158 452.569 636.706 451.539 636.424 450.357C636.122 449.155 636.827 448.296 638.34 448.01Z" fill="#EED394"/>
<path d="M896.81 555.727C898.504 555.384 900.218 556.28 900.52 557.272C900.803 558.264 899.976 559.447 898.887 559.599C897.657 559.771 895.863 558.798 895.923 557.768C895.964 556.986 896.589 556.223 896.831 555.727H896.81Z" fill="#EED394"/>
<path d="M667.714 469.852C668.017 471.015 667.452 472.045 666.364 472.293C665.214 472.56 663.722 471.683 663.359 470.519C663.017 469.451 663.642 468.383 664.771 468.116C666.041 467.811 667.412 468.612 667.735 469.871L667.714 469.852Z" fill="#EED394"/>
<path d="M916.629 496.937C918 496.67 919.472 497.452 919.673 498.578C919.875 499.684 919.351 500.39 918.202 500.676C916.891 501 915.298 500.275 914.976 499.245C914.693 498.273 915.48 497.147 916.609 496.937H916.629Z" fill="#EED394"/>
<path d="M405.772 612.913C406.901 612.703 407.99 613.542 408.293 614.82C408.595 616.137 407.909 617.224 406.659 617.357C405.53 617.491 404.442 616.556 404.24 615.316C404.059 614.172 404.744 613.104 405.772 612.894V612.913Z" fill="#EED394"/>
<path d="M959.413 588.707C959.836 589.108 960.703 589.584 961.046 590.309C961.51 591.282 960.3 592.942 959.211 593.209C958.163 593.457 956.953 592.636 956.832 591.587C956.691 590.481 957.82 588.955 959.393 588.707H959.413Z" fill="#EED394"/>
<path d="M385.328 737.166C387.123 736.937 388.796 738.177 388.836 739.341C388.877 740.447 388.252 741.134 387.082 741.248C385.893 741.382 384.24 740.218 384.34 739.15C384.401 738.368 385.066 737.643 385.328 737.147V737.166Z" fill="#EED394"/>
<path d="M702.231 1130.05C702.554 1131.25 702.03 1132.28 700.981 1132.53C699.832 1132.82 698.542 1131.87 698.259 1130.49C698.038 1129.46 698.3 1128.6 699.449 1128.22C700.699 1127.8 701.828 1128.57 702.231 1130.05Z" fill="#EED394"/>
<path d="M454.786 685.569C453.495 685.702 452.447 685.016 452.346 683.986C452.225 682.879 453.193 682.002 454.665 681.83C455.975 681.697 456.963 682.326 457.084 683.413C457.205 684.558 456.298 685.416 454.786 685.569Z" fill="#EED394"/>
<path d="M601.381 1100.56C603.297 1100.14 605.071 1100.89 604.97 1101.88C604.91 1102.47 604.305 1103.25 603.72 1103.48C602.49 1104 600.535 1103.2 600.555 1102.24C600.555 1101.57 601.18 1100.93 601.381 1100.54V1100.56Z" fill="#EED394"/>
<path d="M663.499 1088.24C664.951 1087.97 666.725 1089.23 666.685 1090.36C666.685 1090.95 666.08 1091.79 665.515 1092.02C664.628 1092.4 662.773 1090.97 662.773 1089.88C662.773 1089.25 663.298 1088.62 663.499 1088.24Z" fill="#EED394"/>
<path d="M846.368 382.697C846.711 382.334 847.114 381.571 847.759 381.228C848.908 380.637 850.44 381.247 850.743 382.258C851.045 383.25 850.602 383.899 849.573 384.204C848.283 384.585 846.791 384.07 846.348 382.697H846.368Z" fill="#EED394"/>
<path d="M515.009 1061.08C515.957 1060.87 517.328 1061.71 517.449 1062.66C517.57 1063.67 517.005 1064.22 515.997 1064.43C514.929 1064.66 513.981 1064.61 513.537 1063.5C513.175 1062.64 514.042 1061.29 515.009 1061.06V1061.08Z" fill="#EED394"/>
<path d="M747.413 1239.16C747.151 1237.56 747.594 1236.78 748.764 1236.55C749.893 1236.34 750.739 1236.82 750.981 1237.92C751.203 1239.01 750.699 1239.94 749.55 1239.98C748.764 1240.02 747.957 1239.37 747.413 1239.16Z" fill="#EED394"/>
<path d="M914.656 547.733C915.564 546.627 915.967 545.654 916.693 545.349C917.701 544.929 918.668 545.502 918.991 546.589C919.314 547.676 918.769 548.63 917.681 548.763C916.914 548.859 916.047 548.229 914.656 547.714V547.733Z" fill="#EED394"/>
<path d="M1117.28 514.334C1118.61 514.181 1119.38 514.62 1119.6 515.746C1119.82 516.852 1119.3 517.596 1118.15 517.806C1116.98 518.015 1116.23 517.481 1115.99 516.394C1115.73 515.269 1116.37 514.639 1117.3 514.334H1117.28Z" fill="#EED394"/>
<path d="M900.884 535.621C902.073 536.479 903.081 536.842 903.404 537.529C903.847 538.463 903.283 539.398 902.134 539.722C900.964 540.046 899.996 539.512 899.835 538.501C899.714 537.777 900.359 536.937 900.863 535.621H900.884Z" fill="#EED394"/>
<path d="M656.683 1060.91C657.691 1061.84 658.558 1062.32 658.921 1063.04C659.365 1063.9 658.82 1064.68 657.792 1064.95C656.865 1065.18 655.473 1064.17 655.554 1063.2C655.594 1062.57 656.119 1061.99 656.683 1060.93V1060.91Z" fill="#EED394"/>
<path d="M840.884 484.232C841.993 484.957 843.041 485.301 843.384 485.949C843.828 486.788 843.122 487.551 842.134 487.78C841.066 488.028 839.997 487.742 839.795 486.674C839.695 486.064 840.36 485.32 840.884 484.232Z" fill="#EED394"/>
<path d="M394.684 549.984C395.793 550.9 396.66 551.358 397.083 552.064C397.527 552.788 397.083 553.551 396.176 553.857C395.248 554.162 393.696 553.322 393.676 552.369C393.676 551.758 394.18 551.129 394.684 549.984Z" fill="#EED394"/>
<path d="M561.784 588.305C563.256 587.943 564.808 588.725 564.768 589.66C564.728 590.27 564.224 591.09 563.659 591.415C562.792 591.93 561.361 591.052 561.28 589.965C561.24 589.354 561.663 588.706 561.784 588.305Z" fill="#EED394"/>
<path d="M733.038 1107.26C731.829 1108.21 731.305 1108.9 730.599 1109.13C729.53 1109.47 728.421 1108.71 728.381 1107.79C728.341 1106.89 728.865 1106.23 729.772 1106.27C730.619 1106.3 731.466 1106.74 733.038 1107.26Z" fill="#EED394"/>
<path d="M438.657 1106.34C439.504 1105.25 439.907 1104.28 440.613 1104C441.621 1103.59 442.246 1104.45 442.407 1105.39C442.568 1106.28 442.367 1107.28 441.298 1107.39C440.633 1107.47 439.867 1106.86 438.637 1106.34H438.657Z" fill="#EED394"/>
<path d="M441.074 900.581C440.671 900.924 440.167 901.63 439.482 901.878C438.433 902.278 437.143 901.515 437.284 900.619C437.385 900.027 437.99 899.264 438.574 899.016C439.583 898.559 440.772 899.226 441.074 900.6V900.581Z" fill="#EED394"/>
<path d="M456.077 908.536C455.271 909.375 454.888 910.138 454.323 910.31C453.154 910.634 452.488 909.852 452.226 908.822C451.984 907.849 452.367 906.914 453.416 906.991C454.202 907.048 454.908 907.849 456.077 908.555V908.536Z" fill="#EED394"/>
<path d="M1153.83 815.66C1154.94 816.499 1155.85 816.919 1156.33 817.586C1156.84 818.311 1156.39 819.055 1155.49 819.36C1154.5 819.704 1152.99 818.998 1152.93 818.025C1152.91 817.396 1153.39 816.747 1153.83 815.641V815.66Z" fill="#EED394"/>
<path d="M399.504 942.469C399.786 942.164 400.169 941.458 400.754 941.21C401.722 940.79 403.153 941.706 403.133 942.717C403.133 943.232 402.669 943.976 402.185 944.224C401.258 944.7 399.867 943.88 399.504 942.469Z" fill="#EED394"/>
<path d="M499.787 985.045C500.815 986.056 501.541 986.514 501.843 987.162C502.247 987.982 502.025 988.879 500.976 989.28C500.049 989.623 498.92 988.955 498.88 987.849C498.859 987.143 499.323 986.399 499.787 985.045Z" fill="#EED394"/>
<path d="M435.129 510.613C436.843 510.384 437.468 510.976 437.73 512.044C437.972 513.017 437.65 513.799 436.581 513.99C435.533 514.18 434.787 513.551 434.706 512.597C434.645 511.891 435.008 511.167 435.129 510.594V510.613Z" fill="#EED394"/>
<path d="M787.353 523.566C786.466 524.615 786.043 525.493 785.317 525.855C784.531 526.237 783.785 525.665 783.563 524.787C783.301 523.814 783.946 522.555 784.873 522.574C785.539 522.574 786.184 523.07 787.353 523.566Z" fill="#EED394"/>
<path d="M537.59 612.875C538.658 611.922 539.162 611.216 539.848 610.949C540.735 610.605 541.642 610.93 542.005 611.922C542.328 612.799 541.562 613.886 540.433 613.886C539.687 613.886 538.961 613.39 537.59 612.875Z" fill="#EED394"/>
<path d="M429.079 841.468C429.401 841.201 429.845 840.514 430.43 840.381C431.538 840.114 432.486 840.762 432.647 841.754C432.728 842.288 432.123 843.166 431.579 843.471C430.752 843.929 429.321 842.918 429.059 841.468H429.079Z" fill="#EED394"/>
<path d="M489.867 1035.96C490.351 1035.61 490.895 1034.95 491.601 1034.75C492.69 1034.45 493.637 1035.19 493.678 1036.19C493.718 1037.12 493.133 1037.56 492.266 1037.67C491.178 1037.81 490.311 1037.52 489.867 1035.96Z" fill="#EED394"/>
<path d="M475.309 557.691C475.772 557.309 476.276 556.623 476.962 556.375C478.071 555.993 479.18 556.661 479.059 557.634C478.998 558.206 478.373 558.95 477.809 559.179C476.801 559.56 475.873 559.198 475.309 557.691Z" fill="#EED394"/>
<path d="M520.372 564.577C522.005 564.348 522.993 564.634 523.034 565.797C523.034 566.332 522.388 567.152 521.844 567.362C520.876 567.724 519.707 567.457 519.546 566.312C519.465 565.702 520.15 564.996 520.372 564.577Z" fill="#EED394"/>
<path d="M1152.06 655.602C1153.57 655.392 1154.84 656.327 1154.72 657.338C1154.66 657.872 1154.18 658.559 1153.67 658.788C1152.77 659.188 1151.4 658.253 1151.38 657.185C1151.38 656.575 1151.88 655.983 1152.04 655.583L1152.06 655.602Z" fill="#EED394"/>
<path d="M406.78 697.357C406.497 697.624 406.074 698.349 405.509 698.463C404.4 698.711 403.513 698.043 403.413 697.013C403.372 696.46 403.856 695.583 404.38 695.297C405.247 694.839 406.497 695.793 406.78 697.357Z" fill="#EED394"/>
<path d="M464.321 1035.54C465.088 1036.32 465.894 1036.87 466.257 1037.6C466.519 1038.13 466.197 1038.95 466.035 1039.6C466.015 1039.69 465.108 1039.77 465.007 1039.64C464.422 1038.7 463.898 1037.73 463.455 1036.72C463.374 1036.55 463.838 1036.17 464.301 1035.52L464.321 1035.54Z" fill="#EED394"/>
<path d="M723.863 408.963C724.266 409.287 725.052 409.611 725.334 410.165C725.778 411.08 725.254 411.862 724.246 412.167C723.338 412.435 722.633 412.015 722.35 411.176C722.048 410.222 722.431 409.516 723.863 408.982V408.963Z" fill="#EED394"/>
<path d="M521.319 964.998C521.642 965.303 522.287 965.628 522.489 966.123C522.912 967.173 522.146 968.908 521.501 968.699C520.916 968.508 520.412 967.783 520.15 967.192C519.827 966.391 519.807 965.494 521.299 965.017L521.319 964.998Z" fill="#EED394"/>
<path d="M836.667 547.39C835.78 546.475 834.934 545.998 834.934 545.502C834.934 544.968 835.579 544.128 836.143 543.938C836.95 543.651 837.776 544.224 837.756 545.101C837.736 545.692 837.232 546.284 836.688 547.39H836.667Z" fill="#EED394"/>
<path d="M523.879 707.943C523.073 707.829 522.065 707.81 521.178 707.524C520.351 707.257 520.17 706.36 520.916 705.998C521.601 705.654 522.65 705.635 523.436 705.826C524.303 706.036 524.625 706.799 523.879 707.943Z" fill="#EED394"/>
<path d="M502.79 624.854C503.838 625.617 504.746 625.979 504.846 626.456C504.947 626.99 504.282 627.638 503.939 628.249C503.334 627.925 502.427 627.734 502.185 627.238C501.963 626.799 502.447 626.036 502.79 624.854Z" fill="#EED394"/>
<path d="M383.875 895.336C384.843 896.08 385.588 896.595 386.234 897.205C386.294 897.262 385.649 898.235 385.548 898.197C384.681 897.911 383.834 897.51 383.048 897.034C382.988 896.995 383.472 896.175 383.895 895.336H383.875Z" fill="#EED394"/>
<path d="M477.808 635.173C476.962 636.05 476.599 636.718 476.014 636.985C475.167 637.348 474.32 636.852 474.32 636.012C474.32 635.44 474.824 634.524 475.328 634.372C475.832 634.2 476.619 634.753 477.808 635.192V635.173Z" fill="#EED394"/>
<path d="M609.771 1129.98C610.738 1130.8 611.625 1131.2 611.706 1131.69C611.787 1132.21 611.182 1133.07 610.638 1133.33C609.831 1133.72 608.984 1133.22 608.944 1132.34C608.904 1131.73 609.347 1131.1 609.771 1129.98Z" fill="#EED394"/>
<path d="M593.056 527.762C593.923 528.639 594.729 529.116 594.77 529.631C594.79 530.146 594.044 530.699 593.64 531.233C593.076 530.833 592.169 530.528 592.028 530.032C591.886 529.536 592.532 528.849 593.076 527.762H593.056Z" fill="#EED394"/>
<path d="M1076.41 560.19C1075.57 561.125 1075.14 561.964 1074.64 562.021C1074.08 562.078 1073.03 561.487 1072.91 561.029C1072.78 560.552 1073.41 559.58 1073.93 559.37C1074.4 559.179 1075.2 559.751 1076.41 560.19Z" fill="#EED394"/>
<path d="M773.422 1140.43C774.349 1139.57 774.833 1138.77 775.337 1138.77C775.922 1138.77 776.507 1139.44 777.091 1139.82C776.688 1140.37 776.365 1141.21 775.821 1141.4C775.337 1141.55 774.591 1140.94 773.422 1140.45V1140.43Z" fill="#EED394"/>
<path d="M558.94 1034.47C559.787 1035.4 560.452 1035.84 560.634 1036.41C560.896 1037.23 560.331 1038.02 559.424 1037.92C558.819 1037.86 557.952 1037.25 557.811 1036.74C557.69 1036.26 558.356 1035.58 558.94 1034.47Z" fill="#EED394"/>
<path d="M1012.04 591.148C1012.84 592.102 1013.63 592.598 1013.61 593.113C1013.61 593.647 1012.84 594.181 1012.42 594.696C1011.85 594.277 1010.95 593.914 1010.83 593.399C1010.71 592.922 1011.41 592.255 1012.06 591.148H1012.04Z" fill="#EED394"/>
<path d="M668.882 526.885C669.87 527.686 670.758 528.067 670.838 528.544C670.919 529.078 670.274 529.708 669.931 530.299C669.306 529.975 668.378 529.784 668.157 529.307C667.955 528.849 668.499 528.086 668.903 526.904L668.882 526.885Z" fill="#EED394"/>
<path d="M835.721 1125.57C836.447 1126.56 837.193 1127.13 837.133 1127.63C837.092 1128.16 836.286 1128.62 835.822 1129.12C835.278 1128.66 834.411 1128.24 834.33 1127.73C834.249 1127.23 835.016 1126.62 835.721 1125.57Z" fill="#EED394"/>
<path d="M488.135 855.106C487.348 856.098 487.006 856.957 486.502 857.052C485.957 857.147 484.909 856.651 484.727 856.194C484.566 855.774 485.131 854.763 485.635 854.534C486.098 854.324 486.905 854.801 488.155 855.125L488.135 855.106Z" fill="#EED394"/>
<path d="M730.638 531.024C729.711 531.825 729.207 532.608 728.703 532.608C728.118 532.608 727.553 531.921 726.969 531.52C727.392 530.967 727.715 530.128 728.279 529.975C728.743 529.842 729.489 530.471 730.638 531.024Z" fill="#EED394"/>
<path d="M606.844 1055.36C607.691 1054.46 608.134 1053.6 608.638 1053.56C609.223 1053.52 609.848 1054.19 610.453 1054.57C610.07 1055.15 609.787 1055.98 609.263 1056.18C608.799 1056.35 608.033 1055.79 606.864 1055.36H606.844Z" fill="#EED394"/>
<path d="M569.527 1080.19C570.374 1079.35 570.777 1078.68 571.362 1078.44C572.249 1078.07 573.056 1078.66 573.056 1079.47C573.056 1080.04 572.471 1080.91 571.947 1081.09C571.443 1081.24 570.677 1080.65 569.527 1080.19Z" fill="#EED394"/>
<path d="M395.773 683.451C396.459 684.386 397.023 684.844 397.084 685.34C397.124 685.816 396.62 686.331 396.338 686.847C395.874 686.446 395.168 686.103 395.027 685.626C394.906 685.149 395.37 684.538 395.773 683.451Z" fill="#EED394"/>
<path d="M507.629 515.459C507.186 516.088 506.924 516.794 506.581 516.832C506.158 516.87 505.412 516.432 505.291 516.069C505.17 515.726 505.593 514.963 505.976 514.81C506.299 514.677 506.904 515.154 507.629 515.459Z" fill="#EED394"/>
<path d="M534.445 812.246C535.15 812.856 535.695 813.2 536.017 813.677C536.118 813.848 535.594 814.363 535.372 814.726C534.848 814.402 534.243 814.173 533.86 813.734C533.719 813.581 534.142 812.99 534.445 812.246Z" fill="#EED394"/>
<path d="M455.147 805.969C455.792 806.617 456.317 806.999 456.599 807.495C456.679 807.647 456.095 808.143 455.812 808.468C455.349 808.105 454.764 807.819 454.441 807.361C454.321 807.19 454.784 806.655 455.147 805.969Z" fill="#EED394"/>
<path d="M374.18 973.371C374.724 973.962 375.228 974.287 375.309 974.706C375.369 974.973 374.805 975.679 374.603 975.66C374.119 975.584 373.454 975.279 373.333 974.935C373.232 974.611 373.756 974.096 374.16 973.39L374.18 973.371Z" fill="#EED394"/>
<path d="M1128.99 1081.2C1128.55 1081.83 1128.27 1082.54 1127.92 1082.56C1127.5 1082.59 1126.75 1082.18 1126.63 1081.79C1126.51 1081.47 1126.96 1080.67 1127.3 1080.55C1127.68 1080.44 1128.25 1080.88 1128.99 1081.18V1081.2Z" fill="#EED394"/>
<path d="M1048.89 1084.18C1049.5 1084.79 1050.1 1085.13 1050.14 1085.53C1050.18 1085.91 1049.62 1086.35 1049.34 1086.77C1048.91 1086.45 1048.25 1086.18 1048.13 1085.78C1048.03 1085.42 1048.51 1084.9 1048.89 1084.18Z" fill="#EED394"/>
<path d="M427.788 742.718C427.284 743.271 426.961 743.92 426.619 743.92C426.215 743.92 425.53 743.405 425.469 743.042C425.409 742.661 425.953 742.203 426.215 741.783C426.659 742.05 427.103 742.317 427.768 742.718H427.788Z" fill="#EED394"/>
<path d="M607.43 1145.85C607.893 1146.44 608.397 1146.8 608.357 1147.07C608.297 1147.39 607.792 1147.73 607.409 1147.89C607.268 1147.94 606.684 1147.45 606.684 1147.2C606.684 1146.84 607.046 1146.48 607.43 1145.85Z" fill="#EED394"/>
<path d="M1186.23 735.964C1186.55 735.716 1187.08 735.621 1187.64 736.079C1188.19 736.537 1188.63 737.567 1188.23 738.826C1188.03 739.436 1187.6 740.161 1186.7 740.714C1186.51 740.848 1185.99 741.038 1185.77 741.115L1185.63 741.191H1185.59V741.21L1185.3 741.248L1185.08 741.286C1184.46 741.382 1183.79 741.286 1183.21 741.115C1182 740.733 1181.07 740.008 1180.43 738.978C1179.8 737.986 1179.42 736.365 1180.2 734.744L1180.53 734.057L1181.33 733.466C1182.88 732.359 1184.8 732.092 1186.47 732.455C1188.19 732.874 1189.82 733.752 1190.79 735.926C1191.03 736.441 1191.27 737.853 1190.99 738.73C1190.75 739.703 1190.24 740.409 1189.72 740.943C1188.65 741.992 1187.38 742.45 1186.07 742.488C1184.74 742.526 1183.39 741.839 1182.91 741.038L1182.48 740.542C1182.52 739.455 1182.84 738.673 1183.51 738.33C1184.18 737.986 1185.06 738.139 1186.05 738.692L1185.36 738.463C1185.18 738.692 1185.41 738.501 1185.3 738.063C1185.24 737.586 1184.9 737.338 1185.22 737.643C1185.47 737.948 1186.47 737.948 1185.53 737.91C1185.57 738.101 1185.3 738.101 1185.16 738.349C1185 738.539 1184.92 738.768 1184.92 738.787C1184.96 738.883 1184.9 738.177 1184.72 738.043L1184.6 736.823C1184.6 736.823 1185.06 736.861 1185.18 736.765C1185.32 736.67 1185.06 736.842 1184.96 737.071C1184.92 737.166 1184.9 737.261 1184.9 737.242C1184.68 737.28 1184.88 737.242 1184.84 737.242L1184.98 737.204C1184.98 737.204 1184.86 737.204 1184.86 737.147C1184.8 736.994 1184.58 736.823 1184.52 736.785C1184.34 736.746 1184.98 736.899 1185.26 736.708C1185.63 736.556 1185.87 736.193 1186.21 735.945L1186.23 735.964Z" fill="#EED394"/>
<path d="M1137.93 775.049C1137.93 774.954 1138.03 774.782 1138.37 774.744C1138.71 774.687 1139.26 774.877 1139.62 775.316C1139.96 775.774 1140.26 776.346 1140.04 777.243C1139.9 777.739 1139.54 778.177 1139.04 778.406L1138.65 778.559L1138.23 778.483C1137.95 778.444 1137.66 778.311 1137.4 778.139C1136.39 777.357 1136.39 776.518 1136.43 775.831C1136.51 775.144 1136.84 774.572 1137.26 774.191C1137.68 773.809 1138.21 773.714 1138.51 773.752C1138.83 773.828 1138.95 773.943 1138.93 774.057C1138.89 774.305 1138.43 774.477 1138.25 774.954C1138.15 775.183 1138.09 775.526 1138.11 775.888C1138.11 776.232 1138.37 776.67 1138.37 776.632C1138.37 776.632 1138.37 776.689 1138.43 776.651C1138.51 776.556 1138.55 776.117 1138.47 775.907C1138.39 775.411 1137.99 775.259 1137.91 775.011L1137.93 775.049Z" fill="#EED394"/>
<path d="M1164.58 773.619C1165 773.543 1165.41 773.791 1165.49 774.172C1165.57 774.573 1165.31 774.955 1164.9 775.031C1164.48 775.107 1164.08 774.859 1164 774.478C1163.91 774.077 1164.18 773.696 1164.58 773.619Z" fill="#EED394"/>
<path d="M1202.54 772.131C1202.97 772.055 1203.37 772.303 1203.45 772.684C1203.53 773.085 1203.27 773.466 1202.87 773.543C1202.44 773.619 1202.04 773.371 1201.96 772.989C1201.88 772.589 1202.14 772.207 1202.54 772.131Z" fill="#EED394"/>
<path d="M1150 732.436C1150.75 733.16 1151.35 733.618 1151.69 734.209C1151.8 734.381 1151.09 734.953 1150.75 735.354C1150.2 734.877 1149.58 734.457 1149.17 733.885C1149.05 733.733 1149.56 733.179 1150 732.455V732.436Z" fill="#EED394"/>
<path d="M1141.92 660.714C1142.26 661.191 1142.74 661.63 1142.91 662.164C1142.97 662.374 1142.34 662.774 1142.04 663.08C1141.6 662.66 1141.03 662.317 1140.79 661.821C1140.61 661.458 1140.87 660.905 1140.95 660.447C1141.27 660.543 1141.6 660.619 1141.92 660.714Z" fill="#EED394"/>
<ellipse cx="779.493" cy="779.492" rx="591.424" ry="591.424" transform="rotate(23.7426 779.493 779.492)" fill="url(#paint0_radial_4009_4476)" fill-opacity="0.5" style="mix-blend-mode:color-dodge"/>
<defs>
<radialGradient id="paint0_radial_4009_4476" cx="0" cy="0" r="1" gradientUnits="userSpaceOnUse" gradientTransform="translate(783.272 789.309) rotate(-113.743) scale(394 394)">
<stop stop-color="#F3CD76"/>
<stop offset="1" stop-color="#F6E9C9" stop-opacity="0"/>
</radialGradient>
</defs>
</svg>
