<svg width="500" height="156" viewBox="0 0 500 156" fill="none" xmlns="http://www.w3.org/2000/svg">
<path d="M149.344 3.18867H164.208V25.5057H187.094V2.96094H201.958V57.8425H187.094V36.6642H164.208V57.8425H149.344V3.18867Z" fill="black"/>
<path d="M255.052 58.0691L251.041 48.2769H226.503L222.492 58.0691H207.156L231.694 3.1875H247.03L270.859 58.0691H255.052ZM230.986 37.5739H246.794L239.008 17.9896L230.986 37.5739Z" fill="black"/>
<path d="M309.083 16.3963C306.488 15.0299 304.128 14.3467 301.533 14.3467C298.702 14.3467 296.106 15.0299 293.747 16.3963C291.388 17.7626 289.5 19.5844 288.084 22.0894C286.669 24.5943 285.961 27.327 285.961 30.2874C285.961 33.2479 286.669 35.9806 288.084 38.4855C289.5 40.9905 291.388 42.8123 293.747 44.1786C296.106 45.545 298.702 46.2281 301.533 46.2281C303.892 46.2281 306.252 45.7727 308.847 44.4064C311.442 43.2677 313.566 41.6737 315.689 39.6241L324.419 48.7331C321.352 51.9213 317.577 54.4262 313.33 56.248C309.083 58.0698 304.836 58.9807 300.589 58.9807C294.927 58.9807 289.972 57.6144 285.253 55.1094C280.77 52.6044 277.231 49.1886 274.636 44.8618C272.041 40.535 270.625 35.7528 270.625 30.2874C270.625 25.0498 272.041 20.0398 274.636 15.9408C277.231 11.614 281.006 8.19818 285.489 5.92094C290.208 3.41597 295.398 2.27734 301.061 2.27734C305.308 2.27734 309.555 3.18825 313.566 4.78232C317.812 6.60411 321.116 8.88135 323.947 11.8418L315.217 21.8616C313.802 19.5844 311.442 17.7626 309.083 16.3963Z" fill="black"/>
<path d="M385.283 58.0691H367.588L352.723 36.663L345.645 44.4056V58.0691H330.781V3.1875H345.645V27.0986L367.116 3.1875H384.339L363.341 25.7322L385.283 58.0691Z" fill="black"/>
<path d="M149.109 99.9688H163.973V154.85H149.109V99.9688Z" fill="black"/>
<path d="M175.062 99.9688H189.927V142.781H213.992V155.078H175.062V99.9688Z" fill="black"/>
<path d="M225.312 99.9688H240.177V142.781H264.242V155.078H225.312V99.9688Z" fill="black"/>
<path d="M272.75 99.9688H287.614V154.85H272.75V99.9688Z" fill="black"/>
<path d="M339.039 99.9688H352.723V154.85H339.747L314.03 122.058V154.85H300.109V99.9688H313.086L339.039 132.989V99.9688Z" fill="black"/>
<path d="M408.403 102.928C413.122 105.433 416.661 108.849 419.492 112.948C422.088 117.275 423.503 122.057 423.503 127.295C423.503 132.76 422.088 137.543 419.492 141.869C416.897 146.196 413.122 149.612 408.403 152.117C403.684 154.622 398.494 155.988 392.595 155.988C386.697 155.988 381.506 154.85 376.787 152.345C372.069 149.84 368.53 146.424 365.698 142.097C363.103 137.77 361.688 132.76 361.688 127.523C361.688 122.285 363.103 117.275 365.698 113.176C368.294 108.849 372.069 105.433 376.787 103.156C381.506 100.879 386.697 99.5126 392.595 99.5126C398.494 99.0571 403.684 100.423 408.403 102.928ZM385.045 113.404C382.686 114.77 380.798 116.82 379.383 119.325C377.967 121.83 377.259 124.562 377.259 127.523C377.259 130.483 377.967 133.216 379.383 135.721C380.798 138.226 382.686 140.048 385.045 141.642C387.405 143.008 390 143.919 392.831 143.919C395.662 143.919 398.258 143.236 400.617 141.642C402.977 140.275 404.864 138.226 406.28 135.721C407.695 133.216 408.403 130.483 408.403 127.523C408.403 124.562 407.695 121.83 406.28 119.325C404.864 116.82 402.977 114.998 400.617 113.404C398.258 112.037 395.662 111.354 392.831 111.354C390 111.354 387.405 112.037 385.045 113.404Z" fill="black"/>
<path d="M430.109 99.9688H444.973V154.85H430.109V99.9688Z" fill="black"/>
<path d="M484.85 112.269C481.311 111.13 478.48 110.674 476.12 110.674C474.233 110.674 472.817 110.902 471.873 111.585C470.93 112.269 470.222 113.179 470.222 114.546C470.222 115.684 470.694 116.823 471.637 117.506C472.581 118.417 473.761 118.873 474.941 119.556C476.356 120.011 478.244 120.694 480.839 121.378C484.85 122.516 488.153 123.655 490.512 124.566C493.108 125.704 495.231 127.298 497.119 129.576C499.006 131.853 499.95 134.813 499.95 138.457C499.95 142.1 499.006 145.289 496.883 147.794C494.995 150.299 492.164 152.348 488.625 153.714C485.086 155.081 481.311 155.764 477.064 155.764C472.345 155.764 467.627 154.853 462.908 153.487C458.189 151.893 454.178 149.615 450.875 146.883L456.537 135.724C459.369 138.229 462.908 140.279 466.683 141.873C470.694 143.467 473.997 144.15 477.064 144.15C479.187 144.15 481.075 143.695 482.255 143.011C483.434 142.328 484.142 141.19 484.142 139.595C484.142 138.229 483.67 137.318 482.727 136.407C481.783 135.496 480.603 134.813 479.188 134.358C477.772 133.902 475.648 133.219 473.053 132.536C469.042 131.397 465.975 130.487 463.38 129.348C460.784 128.209 458.661 126.615 456.773 124.566C454.886 122.288 453.942 119.556 453.942 115.912C453.942 112.496 454.886 109.536 456.773 107.031C458.661 104.526 461.256 102.476 464.795 101.11C468.334 99.7437 472.109 99.0605 476.828 99.0605C480.839 99.0605 485.086 99.516 489.097 100.655C493.108 101.793 496.647 103.387 499.714 105.209L494.052 116.595C491.456 114.774 488.153 113.407 484.85 112.269Z" fill="black"/>
<path d="M108.059 0V34.1587H77.3875V62.3965H31.1438V34.3864H0L20.5266 0.22773H108.059V0Z" fill="black"/>
<path d="M108.059 120.919L88.2406 155.077H0V120.919H31.1438V92.4531H77.6234V120.691H108.059V120.919Z" fill="black"/>
</svg>
