<svg width="889" height="1957" viewBox="0 0 889 1957" fill="none" xmlns="http://www.w3.org/2000/svg">
<path d="M465.349 724.791C506.081 734.375 491.305 757.736 478.826 768.219L448.502 785.44L465.349 724.791Z" fill="#B1382A"/>
<path d="M176.973 916.901C51.5238 862.353 5.71612 732.298 0 678.368L108.943 687.353L190.182 783.567L178.577 917.588C231.772 940.352 303.999 971.261 178.577 917.593C178.041 917.364 177.506 917.133 176.973 916.901Z" fill="#ED9C6F"/>
<path d="M623.705 543.218C642.574 460.556 590.635 418.177 562.308 407.32L423.791 543.218C398.584 534.108 417.802 561.038 483.692 582.902C549.582 604.765 525.622 745.63 518.134 794.423L623.705 745.755C627.898 689.449 638.555 572.045 623.705 543.218Z" fill="#ED9C6F"/>
<mask id="mask0_2495_10" style="mask-type:alpha" maskUnits="userSpaceOnUse" x="413" y="407" width="219" height="388">
<path d="M623.705 543.218C642.573 460.556 590.635 418.177 562.307 407.32L423.791 543.218C398.583 534.109 417.801 561.039 483.691 582.902C549.581 604.766 525.621 745.63 518.134 794.424L623.705 745.755C627.898 689.449 638.555 572.045 623.705 543.218Z" fill="#ED9C6F"/>
</mask>
<g mask="url(#mask0_2495_10)">
<path d="M506.529 818.385V597.504L524.499 561.19C534.482 569.304 554.224 586.73 553.326 591.518L635.314 581.032L665.264 682.113L506.529 818.385Z" fill="#E28559"/>
</g>
<path d="M177.454 278.535C234.06 310.881 233.735 221.381 238.103 180.449L420.049 240.723C418.851 305.715 452.495 320.964 469.467 320.465C456.682 331.079 435.753 321.034 421.703 310.985C437.079 329.388 458.866 378.962 469.467 405.823L181.198 358.277C178.077 326.804 214.45 301.619 235.189 288.263C194.055 313.017 187.788 289.809 177.454 278.535Z" fill="#D9B587"/>
<path d="M288.27 323.834C296.506 323.834 288.27 212.645 288.27 212.645L401.705 256.447C401.705 256.447 393.843 321.962 403.952 328.701C414.06 335.44 435.399 342.553 435.399 342.553L572.795 412.187L522.254 535.356C536.63 559.915 495.798 613.476 473.585 637.186C475.981 764.174 458.735 799.291 451.497 783.567L224.626 542.095L134.776 367.262C134.776 367.262 280.033 323.834 288.27 323.834Z" fill="url(#paint0_linear_2495_10)"/>
<path fill-rule="evenodd" clip-rule="evenodd" d="M359.998 606.928C352.999 592.575 348.487 576.158 346.46 565.394L351.374 564.469C353.341 574.92 357.739 590.886 364.492 604.736C367.868 611.661 371.787 617.958 376.21 622.764C380.637 627.576 385.434 630.748 390.571 631.736C413.983 636.238 430.381 640.373 435.71 641.895L434.337 646.703C429.184 645.231 412.936 641.129 389.626 636.646C383.082 635.388 377.391 631.432 372.531 626.15C367.666 620.864 363.498 614.105 359.998 606.928Z" fill="#D96E51"/>
<path d="M377.739 9.41324C396.195 3.66495 436.609 1.01574 450.615 36.4052C470.971 74.6438 514.696 152.621 526.747 158.619C517.136 156.314 500.082 150.637 490.75 142.88C503.815 165.627 509.442 207.909 455.5 248.217C441.929 256.465 430.543 293.862 440.64 310.357C453.26 330.976 293.464 105.385 343.133 70.8949L377.739 9.41324Z" fill="#F7E3A6"/>
<path d="M235.517 160.755C220.509 -5.45302 324.082 -10.9875 377.744 7.02139V56.6556C372.857 85.8211 317.326 144.357 282.278 160.755L248.605 190.185C236.389 198.618 218.793 196.334 211.521 194.138C231.067 190.272 235.662 170.272 235.517 160.755Z" fill="#F7E3A6"/>
<mask id="mask1_2495_10" style="mask-type:alpha" maskUnits="userSpaceOnUse" x="134" y="212" width="441" height="576">
<path d="M288.269 323.835C296.505 323.835 288.269 212.646 288.269 212.646L401.705 256.448C401.705 256.448 393.843 321.963 403.951 328.702C414.059 335.441 435.398 342.554 435.398 342.554L574.666 414.06L522.254 535.357C536.629 559.916 495.798 613.477 473.585 637.187C475.981 764.175 458.735 799.292 451.497 783.568L224.625 542.096L134.775 367.263C134.775 367.263 280.033 323.835 288.269 323.835Z" fill="url(#paint1_linear_2495_10)"/>
</mask>
<g mask="url(#mask1_2495_10)">
<path opacity="0.5" d="M256.072 203.661L427.162 235.857L470.589 303.993C470.589 303.993 667.51 360.15 382.611 433.902C97.7122 507.653 237.728 316.722 237.728 316.722L256.072 203.661Z" fill="#DD7C4F"/>
</g>
<path d="M443.323 216.42L452.683 150.156C452.683 150.156 452.683 67.0449 409.629 53.5674C366.576 40.0899 259.131 102.611 259.131 102.611L266.993 150.156C263.621 144.773 255.761 140.391 249.023 150.156C242.284 159.921 250.895 202.537 266.993 206.687C280.345 210.128 281.077 207.861 280.938 206.987L286.46 224.657C315.24 273.319 365.079 295.008 371.818 295.008C378.556 295.008 434.089 248.591 443.323 216.42Z" fill="#EC9B6E"/>
<g opacity="0.5" filter="url(#filter0_f_2495_10)">
<path d="M417.427 205.158C417.427 220.458 399.66 232.862 377.743 232.862C355.827 232.862 338.06 220.458 338.06 205.158C338.06 189.857 355.827 177.454 377.743 177.454C399.66 177.454 417.427 189.857 417.427 205.158Z" fill="#E37952"/>
</g>
<path fill-rule="evenodd" clip-rule="evenodd" d="M347.024 250.278C347.743 249.44 349.005 249.343 349.844 250.061C351.089 251.128 353.066 252.031 355.65 252.731C358.201 253.422 361.176 253.871 364.269 254.136C370.455 254.667 376.905 254.447 380.932 254.081C382.032 253.981 383.005 254.791 383.105 255.891C383.205 256.991 382.394 257.964 381.294 258.064C377.085 258.447 370.395 258.676 363.927 258.121C360.692 257.844 357.463 257.366 354.604 256.592C351.778 255.827 349.141 254.727 347.241 253.098C346.402 252.38 346.305 251.117 347.024 250.278Z" fill="#D96E51"/>
<path fill-rule="evenodd" clip-rule="evenodd" d="M384.443 212.187C385.524 211.958 386.585 212.648 386.815 213.728C387.194 215.515 388.027 217.379 388.965 219.15C389.43 220.027 389.904 220.851 390.346 221.621L390.364 221.651C390.789 222.39 391.205 223.114 391.514 223.731C392.008 224.719 391.607 225.921 390.619 226.415C389.631 226.909 388.43 226.508 387.936 225.52C387.687 225.022 387.331 224.4 386.88 223.616L386.866 223.593C386.431 222.836 385.928 221.961 385.431 221.023C384.435 219.144 383.396 216.89 382.902 214.558C382.672 213.478 383.363 212.416 384.443 212.187ZM389.979 228.417C390.78 229.178 390.813 230.444 390.052 231.245L382.939 238.732C382.178 239.533 380.912 239.565 380.111 238.805C379.31 238.044 379.278 236.778 380.039 235.977L387.152 228.49C387.913 227.689 389.179 227.656 389.979 228.417Z" fill="#D96E51"/>
<path fill-rule="evenodd" clip-rule="evenodd" d="M187.448 371.301C187.904 369.998 189.33 369.312 190.634 369.768L265.203 395.867C296.737 398.433 316.471 416.905 322.554 426.162C323.312 427.316 322.991 428.866 321.838 429.624C320.684 430.382 319.134 430.062 318.375 428.908C312.999 420.726 294.462 403.154 264.489 400.826L264.164 400.801L188.982 374.487C187.679 374.031 186.992 372.605 187.448 371.301Z" fill="#D96E51"/>
<path fill-rule="evenodd" clip-rule="evenodd" d="M523.878 558.071L526.145 559.411C530.4 561.925 536.707 566.377 541.874 571.631C544.459 574.26 546.826 577.157 548.498 580.179C550.165 583.191 551.23 586.491 550.95 589.849L545.967 589.433C546.137 587.4 545.508 585.103 544.123 582.6C542.744 580.107 540.703 577.571 538.309 575.137C534.351 571.112 529.613 567.549 525.841 565.105L510.241 594.918L505.811 592.6L523.878 558.071Z" fill="#D96E51"/>
<path fill-rule="evenodd" clip-rule="evenodd" d="M504.891 391.755C504.633 390.399 503.324 389.508 501.968 389.766L424.356 404.538C392.79 402.406 370.539 417.753 363.152 426.008C362.231 427.037 362.319 428.617 363.348 429.538C364.377 430.458 365.957 430.371 366.878 429.342C373.407 422.046 394.341 407.413 424.328 409.548L424.653 409.571L502.903 394.678C504.259 394.42 505.15 393.111 504.891 391.755Z" fill="#D96E51"/>
<path fill-rule="evenodd" clip-rule="evenodd" d="M395.835 682.112H400.835V753.618H395.835V682.112Z" fill="#D96E51"/>
<path d="M226.398 357.154C276.315 489.558 407.694 759.981 467.594 759.981C475.182 763.999 480.485 766.292 485.082 762.337C490.12 753.199 492.979 748.411 490.333 754.366C488.628 758.202 486.911 760.764 485.082 762.337C478.716 773.882 468.872 792.368 462.255 804.906H260.092C215.791 702.452 134.302 480.698 162.755 413.31L226.398 357.154Z" fill="#C13E2D"/>
<path fill-rule="evenodd" clip-rule="evenodd" d="M244.678 507.923C247.424 507.626 249.89 509.611 250.186 512.357C257.644 581.388 293.992 649.436 336.064 702.875C357.068 729.554 379.401 752.467 400.075 769.918C420.844 787.448 439.616 799.193 453.483 803.917C456.097 804.808 457.494 807.649 456.603 810.263C455.713 812.876 452.872 814.273 450.258 813.383C434.654 808.066 414.757 795.396 393.625 777.559C372.399 759.643 349.6 736.235 328.207 709.061C285.484 654.795 247.976 585.005 240.244 513.431C239.948 510.685 241.933 508.219 244.678 507.923Z" fill="#B1382A"/>
<path fill-rule="evenodd" clip-rule="evenodd" d="M202.743 529.638C205.488 529.338 207.957 531.32 208.257 534.065C215.229 597.922 249.225 660.905 288.607 710.394C308.264 735.096 329.165 756.309 348.51 772.464C367.948 788.696 385.496 799.551 398.433 803.912C401.05 804.794 402.456 807.63 401.574 810.247C400.692 812.864 397.856 814.27 395.239 813.388C380.575 808.445 361.906 796.678 342.1 780.14C322.202 763.523 300.833 741.817 280.782 716.62C240.746 666.31 205.569 601.576 198.316 535.151C198.016 532.406 199.998 529.937 202.743 529.638Z" fill="#B1382A"/>
<path d="M372.504 1459.69C385.243 1426.79 302.941 1315.53 281.157 1245.17L453.149 1122.28C531.025 1186.23 514.419 1401.22 496.382 1500.73C481.418 1518.16 485.011 1683.66 488.678 1764.23C467.517 1747.48 443.019 1807.79 432.777 1828.45L385.828 1656.17C347.938 1605.29 349.63 1493.45 372.504 1459.69Z" fill="#E18356"/>
<mask id="mask2_2495_10" style="mask-type:alpha" maskUnits="userSpaceOnUse" x="280" y="1132" width="232" height="707">
<path d="M372.167 1470.17C384.906 1437.28 302.604 1326.01 280.819 1255.65L452.811 1132.76C530.688 1196.71 514.082 1411.71 496.045 1511.21C481.08 1528.64 484.673 1694.14 488.34 1774.72C467.18 1757.96 442.682 1818.27 432.44 1838.93L385.49 1666.66C347.6 1615.78 349.292 1503.93 372.167 1470.17Z" fill="#E18356"/>
</mask>
<g mask="url(#mask2_2495_10)">
<path d="M578.822 1313.31C550.07 1363.62 390.137 1344.76 313.765 1329.03L328.74 1165.8L518.173 1174.79L578.822 1313.31Z" fill="#DB774B"/>
</g>
<path d="M208.902 1941.88C193.628 1939.49 172.961 1902.95 186.439 1892.09L212.646 1840.8L302.869 1863.26C319.342 1879.44 312.603 1941.88 292.718 1956.48C278.617 1957.48 224.177 1944.28 208.902 1941.88Z" fill="#9D6F5A"/>
<path d="M282.634 1762.22C271.468 1711.79 338.001 1373.67 372.664 1210.91C362.199 1070.05 193.279 1109.46 142.628 1153.45L227.247 1452.07C137.642 1514.02 192.559 1702.56 227.247 1783.9C219.133 1822.13 195.009 1891.51 195.198 1904.66C195.387 1917.82 252.199 1935.12 282.643 1939.26C302.741 1935.67 300.418 1913.04 308.102 1896.59L282.634 1762.22Z" fill="#EC9B6E"/>
<mask id="mask3_2495_10" style="mask-type:alpha" maskUnits="userSpaceOnUse" x="143" y="1112" width="231" height="828">
<path d="M283.188 1762.06C272.022 1711.63 338.556 1373.51 373.218 1210.75C362.754 1069.89 193.833 1109.3 143.182 1153.29L227.801 1451.91C138.196 1513.86 201.339 1687.05 236.027 1768.39C227.913 1806.62 195.563 1891.35 195.752 1904.5C195.942 1917.66 252.744 1935.33 283.188 1939.48C303.286 1935.89 300.972 1912.88 308.656 1896.43L283.188 1762.06Z" fill="#EC9B6E"/>
</mask>
<g mask="url(#mask3_2495_10)">
<path d="M367.527 1317.07C286.65 1338.86 241.702 1344.74 164.171 1312.41L181.365 1127.9L375.013 1123.76L367.527 1317.07Z" fill="#E18356"/>
</g>
<path d="M435.024 1896.21C430.532 1896.21 430.157 1883.48 430.532 1877.12C506.655 1883.48 672.579 1888.62 669.008 1896.21C666.013 1902.57 661.646 1903.2 652.536 1906.69C638.684 1910.44 440.64 1896.21 435.024 1896.21Z" fill="#9D6F5A"/>
<path d="M477.328 803.41H302.495L200.665 1189.02C216.239 1236.94 425.29 1208.98 527.868 1189.02L477.328 803.41Z" fill="#F2DDC1"/>
<path d="M367.246 1214.67L434.649 803.409L461.977 803.409L543.491 1213.12C518.587 1237.22 415.618 1224.2 367.246 1214.67Z" fill="#FFEED8"/>
<path fill-rule="evenodd" clip-rule="evenodd" d="M327.844 1213.23L368.276 802.92L378.228 803.901L337.796 1214.22L327.844 1213.23Z" fill="#E8CDA8"/>
<path d="M561.937 1145.59L477.329 810.897C525.623 911.853 620.564 1113.77 613.975 1113.77C607.386 1113.77 576.538 1134.98 561.937 1145.59Z" fill="#FFEED8"/>
<path d="M118.946 722.168C118.946 698.508 37.9368 681.255 0.374512 679.258C1.53229 621.948 71.0831 475.172 109.206 402.078C109.573 401.374 110.39 401.241 111.405 401.367L171.733 381.861L187.083 661.894L118.946 722.168Z" fill="#ED9C6F"/>
<path d="M18.3448 604.616C69.2598 587.844 113.062 609.358 128.411 623.335L121.672 645.423C92.3213 618.168 36.3148 619.341 11.9805 623.335L18.3448 604.616Z" fill="url(#paint2_linear_2495_10)"/>
<path d="M534.607 1178.16L442.511 803.409H475.456L569.049 1157.57L534.607 1178.16Z" fill="#F2DDC1"/>
<mask id="mask4_2495_10" style="mask-type:alpha" maskUnits="userSpaceOnUse" x="0" y="381" width="188" height="342">
<path d="M118.945 722.169C118.945 698.508 37.9358 681.255 0.373535 679.259C1.53131 621.949 71.0821 475.173 109.205 402.078C109.572 401.374 110.389 401.241 111.404 401.367L171.732 381.862L187.082 661.894L118.945 722.169Z" fill="#ED9C6F"/>
</mask>
<g mask="url(#mask4_2495_10)">
<path d="M169.965 464.974C105.915 473.052 63.1862 496.662 7.11182 451.122L97.1288 411.69L153.492 400.207L169.965 464.974Z" fill="#DF8154"/>
</g>
<path d="M472.103 789.932C467.021 801.835 358.385 799.691 304.702 797.131C279.293 807.211 237.143 827.369 271.819 827.369H481.071L472.103 789.932Z" fill="#AD6A42"/>
<path fill-rule="evenodd" clip-rule="evenodd" d="M472.772 781.996L484.24 829.869H271.819C267.409 829.869 264.017 829.554 261.583 828.897C259.338 828.292 256.965 827.131 256.334 824.686C255.726 822.328 257.141 820.215 258.428 818.787C259.854 817.202 261.927 815.572 264.335 813.955C273.956 807.492 291.067 799.851 303.78 794.808L304.282 794.609L304.821 794.634C331.631 795.913 372.151 797.086 406.582 796.456C423.808 796.14 439.44 795.374 451.049 793.957C456.866 793.247 461.571 792.385 464.93 791.371C466.613 790.862 467.86 790.344 468.711 789.846C469.132 789.599 469.411 789.383 469.589 789.211C469.765 789.041 469.804 788.949 469.803 788.95L472.772 781.996ZM305.123 799.654C292.492 804.687 276.14 812.049 267.123 818.106C264.841 819.638 263.163 821 262.143 822.133C261.545 822.797 261.328 823.206 261.247 823.404C261.438 823.544 261.891 823.802 262.885 824.07C264.685 824.555 267.56 824.869 271.819 824.869H477.901L470.626 794.498C469.415 795.128 467.974 795.674 466.375 796.157C462.61 797.294 457.575 798.197 451.654 798.92C439.787 800.369 423.952 801.138 406.673 801.455C372.326 802.084 331.998 800.926 305.123 799.654Z" fill="#F3DE9D"/>
<path d="M116.431 405.821H150.873C156.614 730.155 169.367 1383.16 174.459 1400.54C179.55 1417.91 160.856 1433.48 150.873 1439.1C124.368 1439.1 117.038 1483.14 116.431 1510.95V1518.46C116.376 1516.14 116.372 1513.62 116.431 1510.95V405.821Z" fill="#B1382A"/>
<path d="M160.057 1376.2L137.395 374.272L219.448 342.179C239.375 476.683 286.731 765.182 316.739 843.144C354.249 940.598 314.004 1067.4 316.739 1099.89C318.927 1125.88 281.183 1158.73 262.037 1171.9C255.395 1211.04 237.578 1288.77 219.448 1286.58C201.318 1284.39 172.3 1345.41 160.057 1376.2Z" fill="url(#paint3_linear_2495_10)"/>
<path d="M95.4663 410.148L108.225 390.614C114.229 374.325 190.464 349.131 230.241 338.809L256.448 331.322C246.841 411.911 144.625 418.575 95.4663 410.148Z" fill="url(#paint4_linear_2495_10)"/>
<path d="M108.194 390.848C119.55 374.625 160.906 341.58 235.482 339.184C226.871 364.517 189.359 410.315 108.194 390.848Z" fill="#F09562"/>
<path d="M382.236 64.4255C358.265 94.3148 302.469 150.091 266.554 147.129C226.123 107.82 293.135 -6.73855 382.236 64.4255Z" fill="#F7E3A6"/>
<path d="M374.375 18.7191L381.957 42.3047C428.659 9.73412 443.014 54.1599 451.955 79.3679C470.823 129.983 455.708 159.11 447.846 167.72C456.831 154.842 444.102 128.661 436.615 117.18C421.041 112.987 406.914 73.0034 401.798 53.5359C376.939 57.7289 381.957 103.328 389.444 129.534C371.474 117.18 367.98 80.8653 371.474 65.5159L368.381 39.6841C343.523 56.7556 341.14 106.448 346.007 124.293C320.09 71.8804 348.917 30.3247 374.375 18.7191Z" fill="#FAEBC0"/>
<path d="M266.344 50.1651C253.759 64.9492 235.211 104.515 261.702 144.508C270.161 130.726 282.932 92.5629 266.344 50.1651Z" fill="url(#paint5_linear_2495_10)"/>
<path d="M290.946 87.4418C279.128 92.9332 256.728 111.87 261.681 143.686C270.702 137.65 289.185 117.95 290.946 87.4418Z" fill="url(#paint6_linear_2495_10)"/>
<path d="M305.082 20.6024C289.784 28.194 261.079 53.7551 268.638 95.2668C280.253 87.0558 303.802 60.6275 305.082 20.6024Z" fill="url(#paint7_linear_2495_10)"/>
<path d="M312.057 59.2652C300.599 59.6095 275.928 67.1577 268.907 94.5962C278.292 92.8421 300.061 83.3201 312.057 59.2652Z" fill="url(#paint8_linear_2495_10)"/>
<path d="M336.946 13.2532C324.263 14.9156 297.717 26.052 292.988 57.2988C303.211 54.3028 326.316 41.2994 336.946 13.2532Z" fill="url(#paint9_linear_2495_10)"/>
<path d="M332.495 42.3392C324.294 39.7996 304.981 39.1542 293.342 56.8885C300.417 57.9256 318.153 56.4676 332.495 42.3392Z" fill="url(#paint10_linear_2495_10)"/>
<path d="M493.762 74.7925C498.356 92.1652 498.018 132.608 459.916 155.399C458.365 140.513 462.963 103.551 493.762 74.7925Z" fill="url(#paint11_linear_2495_10)"/>
<path d="M458.32 96.0723C465.99 105.382 477.116 130.145 460.26 154.722C455.144 146.077 447.592 122.243 458.32 96.0723Z" fill="url(#paint12_linear_2495_10)"/>
<path d="M473.247 34.6274C482.981 47.0808 496.722 79.8947 473.814 111.523C467.402 100.026 458.312 68.5495 473.247 34.6274Z" fill="url(#paint13_linear_2495_10)"/>
<path d="M451.966 64.1121C461.393 68.9807 478.968 85.1457 473.858 110.856C466.725 105.64 452.361 88.9877 451.966 64.1121Z" fill="url(#paint14_linear_2495_10)"/>
<path d="M449.587 15.7526C459.508 22.211 477.215 42.1211 468.669 70.0944C461.333 63.506 447.246 43.4139 449.587 15.7526Z" fill="url(#paint15_linear_2495_10)"/>
<path d="M441.673 41.8108C449.535 42.9701 465.914 50.1532 468.539 69.6103C462.218 67.6471 447.996 59.3387 441.673 41.8108Z" fill="url(#paint16_linear_2495_10)"/>
<path fill-rule="evenodd" clip-rule="evenodd" d="M398.73 159.477C399.561 160.206 399.643 161.469 398.915 162.3C398.811 162.418 398.707 162.537 398.6 162.658C395.481 166.211 391.203 171.085 388.011 177.024C384.723 183.142 382.67 190.245 384.2 198.033C384.413 199.117 383.707 200.168 382.623 200.381C381.539 200.594 380.488 199.888 380.275 198.804C378.51 189.82 380.924 181.761 384.487 175.131C387.9 168.78 392.443 163.608 395.542 160.079C395.666 159.937 395.788 159.798 395.908 159.662C396.636 158.832 397.9 158.749 398.73 159.477Z" fill="#D96E51"/>
<path d="M263.186 1169.92C268.577 1142.67 234.234 798.917 216.389 630.448C228.069 688.251 288.144 967.261 316.721 1099.54C313.127 1137.88 279.533 1162.43 263.186 1169.92Z" fill="url(#paint17_linear_2495_10)"/>
<path d="M311.106 151.224L367.262 160.981C367.262 160.981 366.513 154.569 363.144 151.224C359.775 147.878 324.85 147.971 311.106 151.224Z" fill="#402020"/>
<path d="M474.023 587.531C475.095 589.467 471.439 593.54 465.857 596.63C460.275 599.72 454.881 600.655 453.81 598.72C452.739 596.784 456.395 592.711 461.977 589.621C467.559 586.531 472.952 585.596 474.023 587.531Z" fill="#402020"/>
<path fill-rule="evenodd" clip-rule="evenodd" d="M317.603 845.828L322.576 846.348L303.12 1032.3C302.775 1052.57 295.177 1079.98 286.852 1101.25C282.675 1111.92 278.257 1121.19 274.379 1127.35C272.466 1130.39 270.559 1132.88 268.747 1134.36C267.852 1135.08 266.743 1135.76 265.478 1135.94C264.605 1136.06 263.773 1135.92 263.036 1135.55C262.839 1135.86 262.6 1136.26 262.323 1136.79C261.023 1139.26 259.444 1143.34 257.616 1148.66C255.378 1155.17 252.856 1163.28 250.101 1172.14C248.365 1177.72 246.537 1183.6 244.629 1189.56C239.718 1204.91 234.301 1220.76 228.697 1233.05C225.898 1239.19 223.006 1244.55 220.046 1248.55C217.316 1252.23 214.207 1255.21 210.69 1256.11C202.92 1261.68 191.285 1271.67 181.264 1283.84C171.054 1296.25 162.784 1310.59 161.61 1324.62C161.856 1339.92 161.29 1362.92 158.78 1382.4C157.524 1392.14 155.765 1401.15 153.315 1407.89C152.093 1411.25 150.649 1414.19 148.909 1416.39C147.212 1418.54 145.063 1420.2 142.399 1420.59C138.688 1421.66 133.028 1424.17 128.135 1428.24C123.186 1432.35 119.211 1437.88 118.544 1444.95L113.566 1444.48C114.397 1435.68 119.344 1429.04 124.94 1424.39C130.52 1419.75 136.93 1416.93 141.21 1415.73L141.397 1415.67L141.589 1415.65C142.57 1415.53 143.713 1414.91 144.985 1413.29C146.26 1411.68 147.483 1409.29 148.616 1406.18C150.878 1399.96 152.581 1391.38 153.821 1381.76C156.296 1362.55 156.857 1339.74 156.609 1324.58L156.607 1324.46L156.617 1324.34C157.876 1308.75 166.934 1293.38 177.404 1280.66C187.917 1267.89 200.122 1257.47 208.204 1251.74L208.649 1251.43L209.184 1251.33C210.971 1250.99 213.289 1249.27 216.028 1245.57C218.685 1241.98 221.409 1236.98 224.147 1230.98C229.618 1218.98 234.959 1203.38 239.867 1188.04C241.742 1182.18 243.557 1176.34 245.289 1170.77C248.066 1161.85 250.63 1153.6 252.887 1147.03C254.715 1141.71 256.4 1137.31 257.896 1134.46C258.61 1133.1 259.439 1131.78 260.422 1130.96C260.931 1130.53 261.738 1130.02 262.79 1130C263.74 1129.98 264.509 1130.36 265.072 1130.85C265.199 1130.77 265.371 1130.66 265.589 1130.48C266.746 1129.54 268.301 1127.62 270.148 1124.69C273.788 1118.91 278.074 1109.95 282.196 1099.42C290.453 1078.33 297.817 1051.51 298.123 1032.11L298.124 1032L317.603 845.828Z" fill="url(#paint18_linear_2495_10)"/>
<path d="M358.433 186.207C353.066 179.469 336.419 168.013 312.759 176.099C316.877 185.334 331.777 200.284 358.433 186.207Z" fill="#FFE8E8"/>
<mask id="mask5_2495_10" style="mask-type:alpha" maskUnits="userSpaceOnUse" x="312" y="173" width="47" height="20">
<path d="M358.807 186.421C353.441 179.683 336.419 168.762 312.759 176.848C316.877 186.083 332.151 200.498 358.807 186.421Z" fill="white"/>
</mask>
<g mask="url(#mask5_2495_10)">
<path d="M351.695 186.438C351.695 192.641 346.163 197.669 339.34 197.669C332.517 197.669 326.986 192.641 326.986 186.438C326.986 180.235 332.517 175.207 339.34 175.207C346.163 175.207 351.695 180.235 351.695 186.438Z" fill="#88B5CC"/>
</g>
<path d="M314.631 171.088C342.335 166.221 361.053 179.325 358.432 186.047C350.571 178.201 324.998 176.306 312.278 177.655C309.08 176.575 313.298 172.587 314.631 171.088Z" fill="#402020"/>
<path fill-rule="evenodd" clip-rule="evenodd" d="M353.96 172.493C354.811 173.085 355.41 173.502 355.957 173.776C356.945 174.27 357.346 175.471 356.852 176.459C356.358 177.447 355.157 177.848 354.169 177.354C353.341 176.94 352.384 176.273 351.425 175.604C351.115 175.389 350.806 175.173 350.5 174.965C349.146 174.046 347.55 173.045 345.551 172.163C341.59 170.415 335.867 169.055 327.217 170.064C326.12 170.192 325.127 169.406 324.999 168.309C324.871 167.212 325.656 166.219 326.753 166.091C336.073 165.004 342.518 166.452 347.166 168.504C349.474 169.522 351.293 170.669 352.747 171.656C353.205 171.967 353.605 172.246 353.96 172.493Z" fill="#D96E51"/>
<path d="M402.776 189.955C407.408 183.216 421.78 171.76 442.207 179.846C438.652 189.081 425.788 204.031 402.776 189.955Z" fill="#FFE8E8"/>
<mask id="mask6_2495_10" style="mask-type:alpha" maskUnits="userSpaceOnUse" x="402" y="177" width="41" height="20">
<path d="M402.452 190.168C407.085 183.429 421.78 172.508 442.207 180.595C438.651 189.829 425.464 204.244 402.452 190.168Z" fill="white"/>
</mask>
<g mask="url(#mask6_2495_10)">
<path d="M408.593 190.184C408.593 196.387 413.368 201.415 419.259 201.415C425.15 201.415 429.925 196.387 429.925 190.184C429.925 183.981 425.15 178.953 419.259 178.953C413.368 178.953 408.593 183.981 408.593 190.184Z" fill="#88B5CC"/>
</g>
<path d="M440.593 174.834C416.675 169.967 400.515 183.07 402.778 189.793C409.565 181.947 431.642 180.051 442.624 181.4C445.385 180.321 441.743 176.333 440.593 174.834Z" fill="#402020"/>
<path d="M447.644 148.943C441.085 149.667 417.718 157.089 405.916 161.03C402.864 157.545 405.807 153.041 407.66 151.224C415.608 146.668 440.798 148.509 447.644 148.943C448.241 148.877 448.699 148.867 448.996 148.92C449.835 149.069 449.235 149.044 447.644 148.943Z" fill="#402020"/>
<path d="M664.173 1877.49C636.02 1877.49 545.372 1810.1 503.567 1776.41L456.396 1732.61C454.149 1751.33 445.913 1794.75 430.938 1818.71C415.963 1842.67 424.698 1871.13 430.938 1882.36C451.529 1877.49 559.349 1895.46 564.964 1895.46C570.58 1895.46 642.834 1896.58 656.686 1895.46C667.767 1894.56 666.295 1883.11 664.173 1877.49Z" fill="#E18356"/>
<path fill-rule="evenodd" clip-rule="evenodd" d="M259.264 161.291C259.044 161.792 258.885 162.446 258.808 163.092C258.676 164.189 257.68 164.971 256.584 164.84C255.487 164.708 254.705 163.713 254.836 162.616C254.946 161.702 255.18 160.64 255.603 159.68C256.004 158.769 256.714 157.632 257.962 157.059C259.367 156.414 260.846 156.739 262.137 157.582C263.372 158.388 264.631 159.77 265.963 161.73C266.584 162.643 266.347 163.887 265.434 164.508C264.521 165.129 263.277 164.892 262.656 163.979C261.442 162.195 260.539 161.315 259.951 160.932C259.78 160.82 259.663 160.766 259.591 160.74C259.526 160.812 259.405 160.971 259.264 161.291ZM259.498 160.721C259.497 160.719 259.508 160.718 259.532 160.723C259.51 160.725 259.498 160.723 259.498 160.721ZM256.78 174.706C257.885 174.683 258.799 175.56 258.822 176.664C258.938 182.267 262.278 194.092 274.236 197.625C275.295 197.938 275.9 199.05 275.587 200.11C275.274 201.169 274.161 201.774 273.102 201.461C258.704 197.207 254.955 183.125 254.822 176.748C254.799 175.643 255.676 174.729 256.78 174.706Z" fill="#D96E51"/>
<path d="M487.811 1741.97C458.161 1764.13 427.412 1767.92 415.931 1767.05L419.675 1780.15C436.447 1784.94 472.836 1767.55 488.56 1758.44L487.811 1741.97Z" fill="#9D6F5A"/>
<path d="M303.618 812.539L310.5 805.657L317.383 812.539L310.5 819.422L303.618 812.539Z" fill="#F3DE9D"/>
<path d="M326.081 812.539L332.963 805.657L339.846 812.539L332.963 819.422L326.081 812.539Z" fill="#F3DE9D"/>
<path d="M348.542 812.539L355.425 805.657L362.308 812.539L355.425 819.422L348.542 812.539Z" fill="#F3DE9D"/>
<path d="M371.006 812.539L377.889 805.657L384.771 812.539L377.889 819.422L371.006 812.539Z" fill="#F3DE9D"/>
<path d="M393.469 812.539L400.352 805.657L407.234 812.539L400.352 819.422L393.469 812.539Z" fill="#F3DE9D"/>
<path d="M415.931 812.539L422.814 805.657L429.697 812.539L422.814 819.422L415.931 812.539Z" fill="#F3DE9D"/>
<path d="M439.142 811.041L446.024 804.158L452.907 811.041L446.024 817.924L439.142 811.041Z" fill="#F3DE9D"/>
<path d="M461.604 808.795L468.487 801.912L475.37 808.795L468.487 815.678L461.604 808.795Z" fill="#F3DE9D"/>
<path d="M647.458 849.195C700.095 842.476 835.181 718.226 885.734 667.673H797.715L747.785 711.537C720.409 730.047 661.455 721.243 594.259 711.537C527.063 701.831 514.591 773.194 519.257 800.415C542.589 811.459 594.821 855.915 647.458 849.195Z" fill="#ED9C6F"/>
<path d="M366.513 1469.42C327.278 1535.61 382.86 1695.67 415.556 1767.43C426.937 1769.22 447.253 1762.93 455.988 1759.56L432.402 1532.32L366.513 1469.42Z" fill="#F3DF9E"/>
<path d="M430.902 1532.32L479.196 1478.78C482.909 1469.39 500.529 1464.68 504.077 1449.61C504.227 1440.07 504.345 1437.06 504.654 1442.47C504.804 1445.09 504.584 1447.46 504.077 1449.61C503.5 1486.31 502.443 1619.63 488.181 1742.34C479.196 1747.83 456.509 1761.51 449.621 1761.81L430.902 1532.32Z" fill="#E3B67E"/>
<path d="M255.32 1527.82L250.454 1767.8H220.506C153.418 1617.15 178.325 1507.98 202.535 1472.42L255.32 1527.82Z" fill="#E3B67E"/>
<path d="M551.454 1813.1C555.048 1831.07 486.562 1869.5 451.87 1886.48L473.958 1892.84C491.629 1887.75 543.966 1845.54 567.926 1825.08L551.454 1813.1Z" fill="#9D6F5A"/>
<g clip-path="url(#clip0_2495_10)">
<path d="M737.872 652.911C730.085 672.977 729.885 710.44 730.759 726.663L773.436 692.969C763.952 686.979 747.829 670.581 759.21 652.911C770.591 635.241 763.952 626.58 759.21 624.458C755.342 625.581 745.659 632.844 737.872 652.911Z" fill="#E18356"/>
<path fill-rule="evenodd" clip-rule="evenodd" d="M635.764 462.4L828.638 545.455C831.304 546.603 832.672 550.04 831.524 552.706C830.26 555.64 826.939 556.74 824.273 555.592L631.399 472.537C628.465 471.274 627.25 468.22 628.513 465.286C629.661 462.62 632.83 461.137 635.764 462.4Z" fill="url(#paint19_linear_2495_10)"/>
<path d="M636.224 461.333L829.097 544.387C830.696 545.076 831.955 546.566 832.562 548.093C833.17 549.619 833.013 551.447 832.323 553.05C831.633 554.653 830.409 556.021 828.886 556.631C827.359 557.238 825.416 557.349 823.813 556.659L630.939 473.604C629.34 472.916 628.082 471.426 627.474 469.899C626.866 468.373 626.755 466.429 627.446 464.826C628.136 463.224 629.624 461.969 631.151 461.361C632.678 460.754 634.621 460.643 636.224 461.333ZM828.292 546.258L635.418 463.203C634.351 462.744 633.053 462.82 631.909 463.275C630.766 463.73 629.77 464.567 629.311 465.634C628.851 466.701 628.923 467.998 629.382 469.143C629.838 470.287 630.674 471.282 631.742 471.742L824.615 554.796C825.682 555.256 826.978 555.184 828.124 554.725C829.268 554.269 829.995 553.318 830.455 552.25C830.914 551.183 831.106 550 830.651 548.857C830.196 547.713 829.359 546.718 828.292 546.258Z" fill="url(#paint20_linear_2495_10)"/>
<path fill-rule="evenodd" clip-rule="evenodd" d="M724.106 476.095L639.557 672.438C638.753 674.304 636.58 674.951 634.709 674.145C632.842 673.341 631.814 671.316 632.618 669.449L717.167 473.106C717.971 471.24 720.258 470.329 722.129 471.135C723.996 471.939 724.91 474.228 724.106 476.095Z" fill="url(#paint21_linear_2495_10)"/>
<path d="M725.174 476.554L640.625 672.897C640.165 673.965 639.174 674.803 638.026 675.257C636.883 675.712 635.585 675.788 634.25 675.213C633.182 674.753 632.344 673.762 631.891 672.614C631.435 671.471 631.359 670.173 631.819 669.105L716.368 472.762C716.943 471.427 717.938 470.591 719.082 470.136C720.225 469.68 721.408 469.872 722.475 470.332C723.81 470.907 724.762 471.634 725.217 472.778C725.673 473.921 725.749 475.219 725.174 476.554ZM638.492 671.974L723.039 475.635C723.383 474.836 723.346 474.185 723.307 473.538C722.891 473.041 722.469 472.547 721.67 472.202C721.138 471.973 720.219 471.895 719.842 472.045C719.077 472.347 718.583 472.768 718.238 473.568L633.69 669.911C633.461 670.443 633.498 671.094 633.801 671.854C633.838 672.505 634.524 673.113 635.055 673.342C635.855 673.687 636.506 673.649 637.266 673.347C637.763 672.93 638.261 672.51 638.49 671.978L638.492 671.974Z" fill="url(#paint22_linear_2495_10)"/>
<path fill-rule="evenodd" clip-rule="evenodd" d="M703.871 468.011L619.782 663.287C618.863 665.422 616.575 666.332 614.441 665.413C612.306 664.494 611.396 662.206 612.315 660.072L696.404 464.796C697.323 462.661 699.726 461.483 701.86 462.402C703.995 463.322 704.79 465.877 703.871 468.011Z" fill="url(#paint23_linear_2495_10)"/>
<path d="M704.938 468.471L620.849 663.746C620.274 665.081 619.279 665.918 618.021 666.637C616.61 666.977 615.312 667.053 613.977 666.478C612.642 665.903 611.804 664.912 611.082 663.649C610.742 662.238 610.666 660.94 611.24 659.608L695.329 464.333C695.904 462.998 697.012 461.897 698.156 461.442C699.568 461.102 700.866 461.026 702.201 461.601C703.536 462.176 704.374 463.167 705.095 464.43C705.551 465.574 705.511 467.14 704.938 468.471ZM618.982 662.943L703.071 467.667C703.416 466.867 703.492 465.953 703.191 465.188C702.884 464.426 702.2 463.814 701.401 463.469C700.601 463.125 699.686 463.049 698.922 463.35C698.157 463.651 697.547 464.34 697.203 465.14L613.114 660.416C612.77 661.215 612.693 662.13 612.994 662.894C613.299 663.661 613.985 664.269 614.785 664.613C615.584 664.957 616.499 665.034 617.263 664.733C618.024 664.43 618.638 663.742 618.982 662.943Z" fill="url(#paint24_linear_2495_10)"/>
<path fill-rule="evenodd" clip-rule="evenodd" d="M764.655 493.555L680.106 689.898C679.302 691.765 677.392 692.525 675.258 691.606C673.391 690.802 672.631 688.892 673.434 687.026L757.983 490.683C758.787 488.816 760.811 487.792 762.677 488.596C764.812 489.515 765.458 491.689 764.655 493.555Z" fill="url(#paint25_linear_2495_10)"/>
<path d="M765.722 494.015L681.173 690.358C680.713 691.425 679.718 692.262 678.574 692.717C677.431 693.172 676.133 693.248 674.798 692.674C673.73 692.214 672.892 691.223 672.438 690.075C671.983 688.931 671.907 687.633 672.367 686.566L756.916 490.223C757.49 488.888 758.486 488.051 759.629 487.596C760.773 487.141 761.956 487.333 763.023 487.792C764.358 488.367 765.31 489.095 765.765 490.238C766.22 491.382 766.296 492.68 765.722 494.015ZM679.308 689.55L763.855 493.211C764.199 492.412 764.162 491.761 763.859 491C763.443 490.503 763.021 490.009 762.221 489.665C761.69 489.436 761.039 489.473 760.393 489.508C759.629 489.809 759.134 490.231 758.79 491.03L674.241 687.373C674.012 687.905 674.05 688.556 674.352 689.317C674.653 690.081 675.075 690.576 675.607 690.805C676.406 691.149 677.057 691.112 677.818 690.809C678.583 690.508 679.077 690.086 679.306 689.554L679.308 689.55Z" fill="url(#paint26_linear_2495_10)"/>
<path fill-rule="evenodd" clip-rule="evenodd" d="M744.688 485.587L660.598 680.863C659.679 682.998 657.124 683.793 654.989 682.874C652.855 681.954 651.944 679.667 652.864 677.532L736.953 482.257C737.872 480.122 740.275 478.944 742.409 479.863C744.544 480.782 745.607 483.453 744.688 485.587Z" fill="url(#paint27_linear_2495_10)"/>
<path d="M745.486 485.932L661.397 681.208C660.822 682.543 659.831 683.381 658.57 684.098C657.426 684.554 655.86 684.514 654.525 683.939C653.19 683.365 652.352 682.373 651.898 681.226C651.558 679.814 651.219 678.403 651.792 677.071L735.881 481.796C736.456 480.461 737.829 479.474 738.972 479.018C740.116 478.563 741.414 478.487 742.749 479.062C744.084 479.637 745.186 480.742 745.644 481.891C746.099 483.035 746.06 484.601 745.486 485.932ZM659.53 680.404L743.62 485.128C743.964 484.329 744.04 483.414 743.739 482.649C743.433 481.887 742.749 481.275 741.949 480.931C741.15 480.586 740.499 480.623 739.738 480.926C738.973 481.227 738.364 481.917 738.019 482.716L653.93 677.992C653.586 678.792 653.509 679.707 653.811 680.471C654.112 681.236 654.534 681.73 655.333 682.074C656.133 682.419 657.047 682.495 657.812 682.194C658.572 681.891 659.186 681.203 659.53 680.404Z" fill="url(#paint28_linear_2495_10)"/>
<path fill-rule="evenodd" clip-rule="evenodd" d="M785.236 503.049L701.147 698.324C700.228 700.459 697.94 701.369 695.806 700.45C693.671 699.531 692.493 697.128 693.412 694.994L777.501 499.718C778.42 497.583 781.091 496.52 783.225 497.44C785.36 498.359 786.155 500.914 785.236 503.049Z" fill="url(#paint29_linear_2495_10)"/>
<path d="M786.035 503.393L701.946 698.669C701.371 700.004 700.376 700.84 699.119 701.559C697.975 702.015 696.677 702.091 695.342 701.516C694.007 700.941 692.905 699.836 692.447 698.687C692.108 697.275 692.032 695.977 692.605 694.646L776.694 499.37C777.269 498.035 778.374 496.933 779.521 496.479C780.665 496.024 782.231 496.063 783.566 496.638C784.901 497.213 785.739 498.205 786.193 499.352C786.648 500.496 786.609 502.062 786.035 503.393ZM700.08 697.865L784.169 502.589C784.513 501.789 784.589 500.875 784.288 500.11C783.986 499.349 783.565 498.851 782.766 498.507C781.966 498.163 781.052 498.086 780.287 498.387C779.526 498.69 778.913 499.378 778.568 500.177L694.479 695.453C694.135 696.253 694.059 697.167 694.36 697.932C694.665 698.698 695.35 699.306 696.15 699.651C696.949 699.995 697.6 699.958 698.361 699.655C699.125 699.354 699.735 698.664 700.08 697.865Z" fill="url(#paint30_linear_2495_10)"/>
<path fill-rule="evenodd" clip-rule="evenodd" d="M858.364 491.85C858.364 491.85 821.003 461.849 806.892 506.37C780.049 589.998 813.66 718.315 669.601 656.281C525.543 594.247 641.864 530.489 684.444 453.637C707.093 412.793 659.623 406.268 659.623 406.268L659.718 417.061C693.795 428.257 646.138 484.58 614.936 510.042C589.46 531.009 570.951 560.037 565.867 589.473C558.203 632.975 587.494 676.578 651.107 699.228C711.275 729.88 763.348 721.314 789.687 685.854C807.579 661.933 815.682 628.424 813.677 595.623C810.735 555.458 818.907 482.132 850.457 499.196L858.364 491.85Z" fill="url(#paint31_linear_2495_10)"/>
<path d="M856.684 492.075C850.969 487.718 820.152 467.487 807.688 506.709C801.054 527.256 798.345 550.436 795.333 572.86C792.351 598.14 789.181 622.391 781.256 640.795C767.357 673.073 738.768 687.326 669.139 657.343C599.51 627.36 590.221 596.795 604.12 564.517C612.047 546.109 627.756 527.258 643.803 507.609C658.287 490.129 673.001 472.114 683.637 453.29C703.575 417.287 667.703 408.796 660.609 407.641L660.709 416.223C663.111 417.258 665.395 418.558 667.032 419.894C672.097 424.287 673.499 430.582 671.844 438.091C670.192 445.601 665.98 453.908 660.092 462.442C648.352 480.155 630.168 498.889 615.502 510.916C602.823 521.269 591.705 533.872 583.251 547.627C575.029 560.846 569.476 575.215 566.666 589.817C562.965 611.627 568.651 633.679 583.679 653.119C597.874 671.566 620.766 687.433 651.45 698.433L651.717 698.548C680.793 713.281 707.783 718.895 731.207 716.648C755.391 714.097 775.585 703.185 788.62 685.394C797.565 673.434 803.921 659.411 807.875 644.354C812.059 628.76 813.844 612.138 812.385 595.698C811.313 576.893 812.157 550.692 816.962 529.993C819.384 519.967 822.523 511.202 826.846 504.838C831.168 498.477 836.433 495.054 843.373 495.829C845.47 496.097 847.718 496.752 850.385 497.901L856.688 492.076L856.684 492.075ZM805.71 506.175C820.511 460.051 858.71 491.047 858.71 491.047L859.662 491.774L850.529 500.493L849.993 500.262C847.442 498.847 845.308 497.927 843.097 497.923C837.072 497.224 832.3 500.23 828.475 506.174C824.382 512.002 821.356 520.503 819.05 530.262C814.248 550.963 813.248 576.779 814.588 595.699C815.664 612.292 814.147 629.029 809.849 644.886C805.78 660.212 799.309 674.503 790.365 686.459C776.718 704.934 756.296 716.377 731.312 718.584C707.892 720.833 680.251 715.256 650.645 700.29C619.698 689.176 596.651 672.931 582.189 654.369C566.624 634.702 560.904 612 564.682 589.276C567.224 574.558 573.16 560.036 581.496 546.553C590.063 532.535 601.451 520.043 614.244 509.427C628.909 497.399 646.714 478.82 658.718 461.22C664.223 452.839 668.32 444.799 669.742 437.821C671.165 430.842 670.067 425.314 665.689 421.528C664.167 419.925 662.032 419.006 659.251 418.125L658.451 417.781L658.514 405.156L659.696 405.348C659.964 405.463 708.731 411.916 685.392 454.364C674.758 473.183 659.928 491.466 645.445 508.946C629.392 528.597 613.802 547.183 605.991 565.323C592.551 596.533 601.921 626.185 669.947 655.478C737.973 684.771 765.953 671.204 779.393 639.993C787.205 621.853 790.259 597.869 793.505 572.703C796.252 550.17 799.077 526.717 805.71 506.175Z" fill="url(#paint32_linear_2495_10)"/>
<path fill-rule="evenodd" clip-rule="evenodd" d="M854.138 488.447C845.336 484.657 835.147 488.491 831.357 497.293C827.566 506.095 831.668 516.4 840.47 520.19C849.272 523.98 859.309 519.764 863.099 510.962C866.889 502.16 862.941 492.238 854.138 488.447Z" fill="url(#paint33_linear_2495_10)"/>
<path d="M853.793 489.246C849.524 487.408 845.102 487.399 841.167 489.187C837.353 490.706 834.14 493.753 832.417 497.754C830.579 502.023 830.57 506.445 832.091 510.265C833.609 514.079 836.656 517.292 840.925 519.13C844.926 520.853 849.348 520.862 853.168 519.342C857.25 517.939 860.463 514.892 862.301 510.622C864.024 506.621 864.033 502.199 862.245 498.264C860.842 494.182 857.795 490.97 853.793 489.246ZM840.407 487.278C844.987 485.454 849.792 485.311 854.593 487.378C859.126 489.33 862.591 493.035 864.147 497.5C866.085 501.813 866.114 506.886 864.162 511.419C862.094 516.22 858.504 519.417 853.924 521.24C849.726 522.911 844.653 522.939 840.12 520.987C835.32 518.92 832.122 515.33 830.184 511.018C828.629 506.552 828.485 501.747 830.552 496.946C832.504 492.413 836.209 488.948 840.407 487.278Z" fill="url(#paint34_linear_2495_10)"/>
<path fill-rule="evenodd" clip-rule="evenodd" d="M705.074 454.93C709.343 456.768 711.43 461.462 709.592 465.731C707.753 470 702.791 471.972 698.526 470.135C694.261 468.299 692.548 463.453 694.386 459.184C696.224 454.914 700.805 453.091 705.074 454.93Z" fill="url(#paint35_linear_2495_10)"/>
<path d="M705.533 453.862C707.935 454.897 709.606 456.882 710.634 458.907C711.545 461.195 711.429 463.675 710.394 466.077C709.36 468.48 707.643 470.266 705.35 471.179C703.062 472.089 700.582 471.973 698.179 470.939C695.777 469.904 693.987 468.186 693.078 465.894C692.432 463.72 692.283 461.126 693.318 458.724C694.352 456.322 696.337 454.651 698.247 453.89C700.535 452.98 703.129 452.832 705.531 453.866L705.533 453.862ZM708.728 459.669C707.853 458.027 706.598 456.539 704.731 455.735C702.864 454.931 700.917 455.04 699.127 455.534C697.484 456.41 695.996 457.664 695.192 459.531C694.389 461.398 694.5 463.341 694.992 465.136C695.867 466.778 697.122 468.266 698.989 469.07C700.856 469.874 702.803 469.764 704.593 469.27C706.236 468.395 707.724 467.14 708.528 465.273C709.331 463.407 709.222 461.46 708.728 459.669Z" fill="url(#paint36_linear_2495_10)"/>
<path fill-rule="evenodd" clip-rule="evenodd" d="M725.347 463.66C729.616 465.498 731.703 470.193 729.865 474.462C728.027 478.731 723.065 480.702 718.8 478.866C714.534 477.029 712.821 472.183 714.659 467.914C716.498 463.645 721.078 461.822 725.347 463.66Z" fill="url(#paint37_linear_2495_10)"/>
<path d="M725.808 462.593C728.21 463.627 729.881 465.612 730.909 467.637C731.82 469.925 731.704 472.405 730.669 474.808C729.635 477.21 727.918 478.996 725.625 479.909C723.337 480.819 720.857 480.704 718.454 479.669C716.052 478.635 714.262 476.916 713.621 474.74C712.71 472.452 712.562 469.858 713.597 467.456C714.631 465.054 716.616 463.382 718.79 462.736C720.813 461.712 723.408 461.564 725.806 462.597L725.808 462.593ZM729.003 468.399C728.128 466.757 726.873 465.269 725.006 464.465C723.139 463.661 721.192 463.77 719.401 464.265C717.759 465.14 716.271 466.395 715.467 468.261C714.664 470.128 714.774 472.071 715.267 473.866C716.142 475.508 717.397 476.996 719.264 477.8C721.131 478.604 723.078 478.495 724.868 478.001C726.511 477.125 727.999 475.87 728.802 474.004C729.606 472.137 729.497 470.19 729.003 468.399Z" fill="url(#paint38_linear_2495_10)"/>
<path fill-rule="evenodd" clip-rule="evenodd" d="M745.626 472.393C749.895 474.231 751.982 478.925 750.144 483.194C748.306 487.463 743.344 489.435 739.078 487.598C735.077 485.875 733.1 480.916 734.938 476.647C736.777 472.377 741.625 470.67 745.626 472.393Z" fill="url(#paint39_linear_2495_10)"/>
<path d="M746.086 471.325C748.488 472.36 750.163 474.346 751.187 476.37C752.097 478.658 751.982 481.138 750.947 483.54C749.913 485.943 748.196 487.729 745.903 488.642C743.615 489.552 741.135 489.436 738.732 488.402C736.598 487.483 734.54 485.649 733.899 483.473C732.988 481.185 732.84 478.591 733.875 476.189C734.909 473.786 736.894 472.115 739.068 471.469C741.091 470.445 743.949 470.41 746.084 471.329L746.086 471.325ZM749.277 477.13C748.669 475.603 747.147 474 745.28 473.196C743.413 472.392 741.466 472.502 739.939 473.109C738.029 473.869 736.541 475.124 735.737 476.991C734.934 478.858 735.045 480.801 735.805 482.711C736.412 484.238 737.667 485.726 739.538 486.531C741.408 487.337 743.615 487.339 745.142 486.732C747.052 485.972 748.273 484.602 749.076 482.735C749.88 480.868 750.039 479.036 749.277 477.13Z" fill="url(#paint40_linear_2495_10)"/>
<path fill-rule="evenodd" clip-rule="evenodd" d="M765.9 481.123C770.169 482.961 772.256 487.656 770.417 491.925C768.579 496.194 763.617 498.165 759.352 496.329C755.35 494.606 753.373 489.646 755.212 485.377C757.05 481.108 761.898 479.4 765.9 481.123Z" fill="url(#paint41_linear_2495_10)"/>
<path d="M766.36 480.056C768.762 481.09 770.437 483.077 771.461 485.1C772.372 487.388 772.52 489.982 771.485 492.384C770.451 494.786 768.466 496.458 766.177 497.372C763.889 498.282 761.409 498.166 759.007 497.132C756.872 496.213 755.082 494.494 754.173 492.203C753.263 489.915 753.115 487.321 754.149 484.919C755.183 482.516 757.168 480.845 759.342 480.199C761.63 479.288 764.224 479.14 766.358 480.06L766.36 480.056ZM769.551 485.86C768.944 484.333 767.421 482.73 765.554 481.926C763.955 481.238 761.741 481.232 760.218 481.841C758.308 482.601 756.82 483.856 756.016 485.723C755.212 487.589 755.323 489.533 756.083 491.443C756.691 492.969 758.213 494.573 759.812 495.261C761.679 496.065 763.89 496.07 765.417 495.462C767.327 494.702 768.815 493.447 769.619 491.58C770.422 489.714 770.313 487.766 769.551 485.86Z" fill="url(#paint42_linear_2495_10)"/>
<path fill-rule="evenodd" clip-rule="evenodd" d="M786.438 489.967C790.439 491.69 792.53 496.386 790.692 500.655C788.853 504.924 783.891 506.896 779.89 505.173C775.621 503.334 773.648 498.376 775.486 494.107C777.324 489.838 782.173 488.13 786.438 489.967Z" fill="url(#paint43_linear_2495_10)"/>
<path d="M786.898 488.9C789.033 489.819 790.975 491.921 791.732 493.829C792.642 496.117 792.79 498.711 791.756 501.113C790.721 503.515 788.736 505.187 786.447 506.101C784.424 507.125 781.679 506.895 779.545 505.976C777.142 504.942 775.352 503.223 774.443 500.932C773.533 498.644 773.649 496.164 774.683 493.761C775.718 491.359 777.435 489.573 779.612 488.928C781.9 488.017 784.494 487.869 786.896 488.904L786.898 488.9ZM789.826 494.591C789.218 493.064 787.963 491.576 786.093 490.771C784.222 489.965 782.015 489.962 780.488 490.57C778.578 491.33 777.358 492.7 776.554 494.567C775.75 496.434 775.593 498.262 776.353 500.172C776.961 501.698 778.483 503.302 780.35 504.106C782.217 504.91 784.164 504.8 785.691 504.193C787.601 503.432 789.089 502.178 789.893 500.311C790.697 498.444 790.587 496.497 789.826 494.591Z" fill="url(#paint44_linear_2495_10)"/>
<path fill-rule="evenodd" clip-rule="evenodd" d="M587.47 689.849L696.58 736.834C707.249 741.428 712.264 754.022 707.668 764.695L699.169 784.434L550.845 720.563L559.345 700.824C563.939 690.155 576.801 685.255 587.474 689.851L587.47 689.849Z" fill="url(#paint45_linear_2495_10)"/>
<path d="M587.93 688.782L697.04 735.767C702.64 738.179 706.674 742.764 708.804 748.107C710.93 753.448 711.149 759.551 708.736 765.155L699.89 785.697L549.696 721.021L558.542 700.479C560.953 694.878 565.538 690.844 570.881 688.715C575.959 686.475 582.326 686.369 587.93 688.782ZM696.236 737.634L587.126 690.649C582.057 688.467 576.337 688.534 571.643 690.621C566.679 692.596 562.597 696.212 560.414 701.28L552.372 719.956L698.829 783.022L706.871 764.347C709.054 759.279 708.871 753.826 706.899 748.864C705.192 744.016 701.308 739.818 696.24 737.636L696.236 737.634Z" fill="url(#paint46_linear_2495_10)"/>
<path fill-rule="evenodd" clip-rule="evenodd" d="M663.246 405.929C672.048 409.719 676.15 420.024 672.359 428.826C668.569 437.628 658.264 441.729 649.462 437.939C640.66 434.149 636.821 423.961 640.613 415.155C644.405 406.349 654.44 402.137 663.246 405.929Z" fill="url(#paint47_linear_2495_10)"/>
<path d="M663.591 405.129C668.392 407.196 671.857 410.901 673.527 415.099C675.083 419.564 675.379 424.752 673.427 429.285C671.475 433.818 667.502 437.168 663.189 439.106C658.992 440.777 653.919 440.805 649.118 438.738C644.585 436.786 641.12 433.081 639.449 428.884C637.626 424.303 637.598 419.23 639.55 414.697C641.502 410.164 645.207 406.699 649.787 404.876C653.981 403.203 659.054 403.175 663.591 405.129ZM671.617 415.859C670.099 412.044 667.052 408.832 662.783 406.994C658.782 405.271 654.36 405.262 650.54 406.782C646.61 408.568 643.132 411.496 641.409 415.498C639.57 419.767 639.829 424.304 641.35 428.124C642.868 431.938 645.915 435.15 649.916 436.874C654.185 438.712 658.607 438.721 662.427 437.2C666.242 435.682 669.718 432.749 671.556 428.48C673.279 424.478 673.02 419.941 671.617 415.859Z" fill="url(#paint48_linear_2495_10)"/>
<path d="M692.272 713.793L606.906 677.033L599.21 694.905L684.576 731.665L692.272 713.793Z" fill="url(#paint49_linear_2495_10)"/>
<path d="M607.366 675.966L693.799 713.186L685.298 732.928L598.065 695.364L606.566 675.622L607.366 675.966ZM691.125 714.247L607.625 678.291L600.733 694.296L684.233 730.252L691.125 714.247Z" fill="url(#paint50_linear_2495_10)"/>
<path d="M584.609 595.223C577.845 591.141 576.064 587.682 576.06 579.644C572.403 586.661 569.116 588.718 560.481 588.193C567.958 592.626 569.434 596.197 569.03 603.772C573.459 597.681 575.988 594.343 584.609 595.223Z" fill="#FFF2C3"/>
<path d="M771.631 521.182C764.867 517.1 763.086 513.641 763.082 505.603C759.425 512.62 756.138 514.676 747.503 514.152C754.98 518.584 756.456 522.156 756.052 529.731C760.481 523.64 763.01 520.301 771.631 521.182Z" fill="#FFF2C3"/>
</g>
<path d="M813.8 597.12C833.408 603.405 871.575 639.308 888.207 656.473C893.809 673.93 868.364 678.876 854.942 679.167C845.837 691.038 832.474 689.932 826.931 687.896C819.928 706.749 807.089 710.88 801.545 710.589C786.955 695.169 768.629 674.424 763.027 668.139C756.024 660.284 762.709 647.141 779.34 647.141C781.572 647.141 783.804 647.625 786.035 648.5C776.475 639.697 767.701 631.708 763.028 627.67C749.897 616.323 763.028 607.595 776.158 607.595C789.289 607.595 860.194 670.439 854.942 664.329C850.74 659.441 817.593 630.87 801.545 617.196C791.741 597.644 805.63 595.666 813.8 597.12Z" fill="#ED9C6F"/>
<path d="M282.652 1763.68C269.774 1768.47 234.233 1767.17 219.383 1765.18L224.998 1779.4C231.288 1784.5 268.551 1781.53 286.022 1779.4L282.652 1763.68Z" fill="#9D6F5A"/>
<path d="M302.121 1865.14C300.923 1851.66 250.706 1808.36 226.122 1788.02L223.127 1801.87C233.31 1804.26 281.53 1853.03 304.367 1877.12L302.121 1865.14Z" fill="#9D6F5A"/>
<path fill-rule="evenodd" clip-rule="evenodd" d="M254.281 175.766C255.933 175.982 257.374 176.694 258.255 177.311C259.386 178.103 259.661 179.662 258.869 180.793C258.078 181.924 256.519 182.199 255.388 181.407C255.021 181.151 254.328 180.815 253.634 180.724C253.013 180.643 252.585 180.766 252.225 181.127C251.248 182.103 249.666 182.103 248.689 181.127C247.713 180.151 247.713 178.568 248.689 177.591C250.425 175.856 252.556 175.542 254.281 175.766Z" fill="#F8F2AC"/>
<path fill-rule="evenodd" clip-rule="evenodd" d="M255.047 183.887C256.623 183.346 258.231 183.345 259.295 183.506C260.66 183.714 261.598 184.988 261.391 186.353C261.184 187.718 259.909 188.657 258.544 188.45C258.102 188.382 257.332 188.389 256.67 188.616C256.077 188.82 255.748 189.12 255.585 189.603C255.144 190.911 253.726 191.614 252.417 191.173C251.109 190.731 250.406 189.313 250.848 188.005C251.632 185.678 253.403 184.451 255.047 183.887Z" fill="#F8F2AC"/>
<path d="M254.575 1527.45L250.457 1767.05H266.93L283.402 1763.68L315.973 1497.5L254.575 1527.45Z" fill="#F3DF9E"/>
<path fill-rule="evenodd" clip-rule="evenodd" d="M413.348 171.931C414.729 171.942 415.84 173.07 415.829 174.45L415.789 179.745C415.779 181.125 414.651 182.236 413.271 182.226C411.89 182.215 410.779 181.087 410.79 179.707L410.83 174.412C410.84 173.032 411.968 171.921 413.348 171.931Z" fill="#402020"/>
<path fill-rule="evenodd" clip-rule="evenodd" d="M349.732 168.963C351.112 168.974 352.223 170.101 352.213 171.482L352.173 176.776C352.162 178.157 351.035 179.268 349.654 179.257C348.273 179.247 347.163 178.119 347.173 176.739L347.213 171.444C347.223 170.064 348.351 168.953 349.732 168.963Z" fill="#402020"/>
<path d="M111.017 382.075C102.68 380.266 99.7567 377.747 97.2968 370.864C95.607 377.787 92.7896 380.369 83.5767 382.075C92.7691 384.005 95.4068 386.696 97.2968 393.286C100.079 386.963 101.711 383.472 111.017 382.075Z" fill="#F7B18A"/>
<path d="M129.049 589.962C118.092 587.585 114.25 584.275 111.017 575.227C108.796 584.326 105.093 587.72 92.9849 589.962C105.066 592.499 108.533 596.036 111.017 604.696C114.674 596.386 116.819 591.798 129.049 589.962Z" fill="#F7B18A"/>
<path d="M305.452 1252.7C288.539 1249.03 282.609 1243.92 277.619 1229.96C274.191 1244 268.476 1249.24 249.787 1252.7C268.435 1256.61 273.785 1262.07 277.619 1275.44C283.264 1262.61 286.574 1255.53 305.452 1252.7Z" fill="#FFF2C3"/>
<path d="M496.632 1250.6C479.378 1248.22 472.898 1243.58 466.356 1230.05C464.525 1244.29 459.424 1249.94 441.204 1254.79C460.213 1257.29 466.157 1262.32 471.48 1275.34C475.656 1262.15 478.154 1254.85 496.632 1250.6Z" fill="#FFF2C3"/>
<path opacity="0.7" d="M243.516 272.847C232.558 270.47 228.716 267.16 225.483 258.113C223.262 267.211 219.56 270.605 207.451 272.847C219.533 275.385 222.999 278.921 225.483 287.582C229.14 279.271 231.285 274.684 243.516 272.847Z" fill="#C64977"/>
<path opacity="0.7" d="M201.178 943.593C190.221 941.216 186.379 937.906 183.146 928.858C180.925 937.957 177.222 941.351 165.114 943.593C177.195 946.13 180.662 949.667 183.146 958.328C186.803 950.017 188.948 945.429 201.178 943.593Z" fill="#C64977"/>
<defs>
<filter id="filter0_f_2495_10" x="318.06" y="157.454" width="119.368" height="95.4075" filterUnits="userSpaceOnUse" color-interpolation-filters="sRGB">
<feFlood flood-opacity="0" result="BackgroundImageFix"/>
<feBlend mode="normal" in="SourceGraphic" in2="BackgroundImageFix" result="shape"/>
<feGaussianBlur stdDeviation="10" result="effect1_foregroundBlur_2495_10"/>
</filter>
<linearGradient id="paint0_linear_2495_10" x1="412.188" y1="453.368" x2="202.163" y2="11.9799" gradientUnits="userSpaceOnUse">
<stop stop-color="#EC9B6E"/>
<stop offset="1" stop-color="#BE4113"/>
</linearGradient>
<linearGradient id="paint1_linear_2495_10" x1="412.187" y1="453.369" x2="202.163" y2="11.981" gradientUnits="userSpaceOnUse">
<stop stop-color="#EC9B6E"/>
<stop offset="1" stop-color="#BE4113"/>
</linearGradient>
<linearGradient id="paint2_linear_2495_10" x1="70.0086" y1="622.211" x2="215.64" y2="639.058" gradientUnits="userSpaceOnUse">
<stop stop-color="#F4C78A"/>
<stop offset="0.573674" stop-color="#F09562"/>
</linearGradient>
<linearGradient id="paint3_linear_2495_10" x1="235.107" y1="342.179" x2="235.107" y2="1376.2" gradientUnits="userSpaceOnUse">
<stop stop-color="#C13E2D"/>
<stop offset="1" stop-color="#5B1615"/>
</linearGradient>
<linearGradient id="paint4_linear_2495_10" x1="175.208" y1="334.691" x2="148.501" y2="433.241" gradientUnits="userSpaceOnUse">
<stop stop-color="#F7F1AB"/>
<stop offset="1" stop-color="#F09562"/>
</linearGradient>
<linearGradient id="paint5_linear_2495_10" x1="261.314" y1="50.1651" x2="207.16" y2="165.433" gradientUnits="userSpaceOnUse">
<stop stop-color="#F1DA9A"/>
<stop offset="1" stop-color="#CA7349"/>
</linearGradient>
<linearGradient id="paint6_linear_2495_10" x1="287.878" y1="86.0323" x2="222.549" y2="141.168" gradientUnits="userSpaceOnUse">
<stop stop-color="#F1DA9A"/>
<stop offset="1" stop-color="#CA7349"/>
</linearGradient>
<linearGradient id="paint7_linear_2495_10" x1="301.015" y1="18.8593" x2="217.292" y2="93.2854" gradientUnits="userSpaceOnUse">
<stop stop-color="#F1DA9A"/>
<stop offset="1" stop-color="#CA7349"/>
</linearGradient>
<linearGradient id="paint8_linear_2495_10" x1="310.064" y1="57.0625" x2="238.143" y2="79.0007" gradientUnits="userSpaceOnUse">
<stop stop-color="#F1DA9A"/>
<stop offset="1" stop-color="#CA7349"/>
</linearGradient>
<linearGradient id="paint9_linear_2495_10" x1="334.488" y1="11.0303" x2="257.092" y2="43.4216" gradientUnits="userSpaceOnUse">
<stop stop-color="#F1DA9A"/>
<stop offset="1" stop-color="#CA7349"/>
</linearGradient>
<linearGradient id="paint10_linear_2495_10" x1="331.619" y1="40.2946" x2="275.334" y2="38.366" gradientUnits="userSpaceOnUse">
<stop stop-color="#F1DA9A"/>
<stop offset="1" stop-color="#CA7349"/>
</linearGradient>
<linearGradient id="paint11_linear_2495_10" x1="497.961" y1="76.8038" x2="497.077" y2="194.674" gradientUnits="userSpaceOnUse">
<stop stop-color="#F1DA9A"/>
<stop offset="1" stop-color="#CA7349"/>
</linearGradient>
<linearGradient id="paint12_linear_2495_10" x1="461.445" y1="96.1226" x2="493.932" y2="168.266" gradientUnits="userSpaceOnUse">
<stop stop-color="#F1DA9A"/>
<stop offset="1" stop-color="#CA7349"/>
</linearGradient>
<linearGradient id="paint13_linear_2495_10" x1="477.339" y1="34.7985" x2="517.467" y2="130.399" gradientUnits="userSpaceOnUse">
<stop stop-color="#F1DA9A"/>
<stop offset="1" stop-color="#CA7349"/>
</linearGradient>
<linearGradient id="paint14_linear_2495_10" x1="454.51" y1="63.07" x2="505.773" y2="110.139" gradientUnits="userSpaceOnUse">
<stop stop-color="#F1DA9A"/>
<stop offset="1" stop-color="#CA7349"/>
</linearGradient>
<linearGradient id="paint15_linear_2495_10" x1="452.527" y1="14.8798" x2="504.181" y2="72.8633" gradientUnits="userSpaceOnUse">
<stop stop-color="#F1DA9A"/>
<stop offset="1" stop-color="#CA7349"/>
</linearGradient>
<linearGradient id="paint16_linear_2495_10" x1="443.222" y1="40.4545" x2="490.976" y2="61.3489" gradientUnits="userSpaceOnUse">
<stop stop-color="#F1DA9A"/>
<stop offset="1" stop-color="#CA7349"/>
</linearGradient>
<linearGradient id="paint17_linear_2495_10" x1="266.929" y1="818.759" x2="317.096" y2="1432.73" gradientUnits="userSpaceOnUse">
<stop stop-color="#76211C"/>
<stop offset="1" stop-color="#510D09"/>
</linearGradient>
<linearGradient id="paint18_linear_2495_10" x1="217.698" y1="850.58" x2="217.698" y2="1444.71" gradientUnits="userSpaceOnUse">
<stop stop-color="#F4E09F"/>
<stop offset="1" stop-color="#CA744A"/>
</linearGradient>
<linearGradient id="paint19_linear_2495_10" x1="732.201" y1="503.927" x2="727.836" y2="514.065" gradientUnits="userSpaceOnUse">
<stop stop-color="#C5673F"/>
<stop offset="1" stop-color="#F8EDA9"/>
</linearGradient>
<linearGradient id="paint20_linear_2495_10" x1="732.527" y1="502.802" x2="727.242" y2="515.074" gradientUnits="userSpaceOnUse">
<stop stop-color="#C5673F"/>
<stop offset="1" stop-color="#F8EDA9"/>
</linearGradient>
<linearGradient id="paint21_linear_2495_10" x1="722.129" y1="471.135" x2="634.709" y2="674.145" gradientUnits="userSpaceOnUse">
<stop stop-color="#C5673F"/>
<stop offset="1" stop-color="#F8EDA9"/>
</linearGradient>
<linearGradient id="paint22_linear_2495_10" x1="722.609" y1="470.389" x2="634.384" y2="675.271" gradientUnits="userSpaceOnUse">
<stop stop-color="#C5673F"/>
<stop offset="1" stop-color="#F8EDA9"/>
</linearGradient>
<linearGradient id="paint23_linear_2495_10" x1="701.86" y1="462.402" x2="614.441" y2="665.413" gradientUnits="userSpaceOnUse">
<stop stop-color="#C5673F"/>
<stop offset="1" stop-color="#F8EDA9"/>
</linearGradient>
<linearGradient id="paint24_linear_2495_10" x1="702.201" y1="461.601" x2="613.977" y2="666.478" gradientUnits="userSpaceOnUse">
<stop stop-color="#C5673F"/>
<stop offset="1" stop-color="#F8EDA9"/>
</linearGradient>
<linearGradient id="paint25_linear_2495_10" x1="762.811" y1="488.653" x2="675.391" y2="691.664" gradientUnits="userSpaceOnUse">
<stop stop-color="#C5673F"/>
<stop offset="1" stop-color="#F8EDA9"/>
</linearGradient>
<linearGradient id="paint26_linear_2495_10" x1="763.157" y1="487.85" x2="674.931" y2="692.731" gradientUnits="userSpaceOnUse">
<stop stop-color="#C5673F"/>
<stop offset="1" stop-color="#F8EDA9"/>
</linearGradient>
<linearGradient id="paint27_linear_2495_10" x1="742.543" y1="479.921" x2="655.123" y2="682.931" gradientUnits="userSpaceOnUse">
<stop stop-color="#C5673F"/>
<stop offset="1" stop-color="#F8EDA9"/>
</linearGradient>
<linearGradient id="paint28_linear_2495_10" x1="742.751" y1="479.063" x2="654.527" y2="683.94" gradientUnits="userSpaceOnUse">
<stop stop-color="#C5673F"/>
<stop offset="1" stop-color="#F8EDA9"/>
</linearGradient>
<linearGradient id="paint29_linear_2495_10" x1="783.092" y1="497.382" x2="695.672" y2="700.392" gradientUnits="userSpaceOnUse">
<stop stop-color="#C5673F"/>
<stop offset="1" stop-color="#F8EDA9"/>
</linearGradient>
<linearGradient id="paint30_linear_2495_10" x1="783.432" y1="496.581" x2="695.208" y2="701.458" gradientUnits="userSpaceOnUse">
<stop stop-color="#C5673F"/>
<stop offset="1" stop-color="#F8EDA9"/>
</linearGradient>
<linearGradient id="paint31_linear_2495_10" x1="759.606" y1="447.57" x2="651.044" y2="699.679" gradientUnits="userSpaceOnUse">
<stop stop-color="#C5673F"/>
<stop offset="1" stop-color="#F8EDA9"/>
</linearGradient>
<linearGradient id="paint32_linear_2495_10" x1="759.871" y1="446.635" x2="650.484" y2="700.658" gradientUnits="userSpaceOnUse">
<stop stop-color="#C5673F"/>
<stop offset="1" stop-color="#F8EDA9"/>
</linearGradient>
<linearGradient id="paint33_linear_2495_10" x1="854.005" y1="488.39" x2="840.336" y2="520.132" gradientUnits="userSpaceOnUse">
<stop stop-color="#C5673F"/>
<stop offset="1" stop-color="#F8EDA9"/>
</linearGradient>
<linearGradient id="paint34_linear_2495_10" x1="854.593" y1="487.378" x2="840.12" y2="520.987" gradientUnits="userSpaceOnUse">
<stop stop-color="#C5673F"/>
<stop offset="1" stop-color="#F8EDA9"/>
</linearGradient>
<linearGradient id="paint35_linear_2495_10" x1="705.206" y1="454.987" x2="698.658" y2="470.192" gradientUnits="userSpaceOnUse">
<stop stop-color="#C5673F"/>
<stop offset="1" stop-color="#F8EDA9"/>
</linearGradient>
<linearGradient id="paint36_linear_2495_10" x1="705.533" y1="453.862" x2="698.179" y2="470.939" gradientUnits="userSpaceOnUse">
<stop stop-color="#C5673F"/>
<stop offset="1" stop-color="#F8EDA9"/>
</linearGradient>
<linearGradient id="paint37_linear_2495_10" x1="725.479" y1="463.717" x2="718.931" y2="478.922" gradientUnits="userSpaceOnUse">
<stop stop-color="#C5673F"/>
<stop offset="1" stop-color="#F8EDA9"/>
</linearGradient>
<linearGradient id="paint38_linear_2495_10" x1="725.81" y1="462.594" x2="718.456" y2="479.67" gradientUnits="userSpaceOnUse">
<stop stop-color="#C5673F"/>
<stop offset="1" stop-color="#F8EDA9"/>
</linearGradient>
<linearGradient id="paint39_linear_2495_10" x1="745.758" y1="472.45" x2="739.21" y2="487.655" gradientUnits="userSpaceOnUse">
<stop stop-color="#C5673F"/>
<stop offset="1" stop-color="#F8EDA9"/>
</linearGradient>
<linearGradient id="paint40_linear_2495_10" x1="746.087" y1="471.326" x2="738.734" y2="488.403" gradientUnits="userSpaceOnUse">
<stop stop-color="#C5673F"/>
<stop offset="1" stop-color="#F8EDA9"/>
</linearGradient>
<linearGradient id="paint41_linear_2495_10" x1="766.032" y1="481.18" x2="759.484" y2="496.386" gradientUnits="userSpaceOnUse">
<stop stop-color="#C5673F"/>
<stop offset="1" stop-color="#F8EDA9"/>
</linearGradient>
<linearGradient id="paint42_linear_2495_10" x1="766.494" y1="480.113" x2="759.14" y2="497.19" gradientUnits="userSpaceOnUse">
<stop stop-color="#C5673F"/>
<stop offset="1" stop-color="#F8EDA9"/>
</linearGradient>
<linearGradient id="paint43_linear_2495_10" x1="786.306" y1="489.91" x2="779.758" y2="505.116" gradientUnits="userSpaceOnUse">
<stop stop-color="#C5673F"/>
<stop offset="1" stop-color="#F8EDA9"/>
</linearGradient>
<linearGradient id="paint44_linear_2495_10" x1="786.896" y1="488.899" x2="779.543" y2="505.975" gradientUnits="userSpaceOnUse">
<stop stop-color="#C5673F"/>
<stop offset="1" stop-color="#F8EDA9"/>
</linearGradient>
<linearGradient id="paint45_linear_2495_10" x1="641.893" y1="713.285" x2="625.007" y2="752.498" gradientUnits="userSpaceOnUse">
<stop stop-color="#C5673F"/>
<stop offset="1" stop-color="#F8EDA9"/>
</linearGradient>
<linearGradient id="paint46_linear_2495_10" x1="642.485" y1="712.275" x2="624.793" y2="753.359" gradientUnits="userSpaceOnUse">
<stop stop-color="#C5673F"/>
<stop offset="1" stop-color="#F8EDA9"/>
</linearGradient>
<linearGradient id="paint47_linear_2495_10" x1="663.378" y1="405.985" x2="649.594" y2="437.996" gradientUnits="userSpaceOnUse">
<stop stop-color="#C5673F"/>
<stop offset="1" stop-color="#F8EDA9"/>
</linearGradient>
<linearGradient id="paint48_linear_2495_10" x1="663.725" y1="405.186" x2="649.252" y2="438.796" gradientUnits="userSpaceOnUse">
<stop stop-color="#C5673F"/>
<stop offset="1" stop-color="#F8EDA9"/>
</linearGradient>
<linearGradient id="paint49_linear_2495_10" x1="649.589" y1="695.413" x2="641.893" y2="713.285" gradientUnits="userSpaceOnUse">
<stop stop-color="#C5673F"/>
<stop offset="1" stop-color="#F8EDA9"/>
</linearGradient>
<linearGradient id="paint50_linear_2495_10" x1="650.183" y1="694.404" x2="641.681" y2="714.146" gradientUnits="userSpaceOnUse">
<stop stop-color="#C5673F"/>
<stop offset="1" stop-color="#F8EDA9"/>
</linearGradient>
<clipPath id="clip0_2495_10">
<rect width="251.63" height="335.181" fill="white" transform="translate(644.337 396.838) rotate(23.2976)"/>
</clipPath>
</defs>
</svg>
