<svg width="1545" height="1921" viewBox="0 0 1545 1921" fill="none" xmlns="http://www.w3.org/2000/svg">
<path fill-rule="evenodd" clip-rule="evenodd" d="M467.318 1828.82C441.522 1861.12 391.778 1898.33 370.13 1912.89C410.247 1911.31 491.66 1905.2 496.383 1893.42C499.401 1885.89 497.792 1877.74 496.285 1870.12C494.844 1862.83 493.497 1856.01 496.383 1850.67C497.292 1848.99 498.448 1846.61 499.859 1843.7C507.62 1827.73 523.109 1795.86 547.702 1776.57C569.3 1759.62 621.743 1630.42 650.059 1555.21C578.988 1578.39 550.92 1530.35 545.77 1503.43C523.835 1627.62 488.96 1801.72 467.318 1828.82Z" fill="#F1C3A8"/>
<path d="M668.505 1503.43C673.955 1484.05 596.296 1452.29 556.785 1438.83C553.713 1457.6 549.98 1479.6 545.77 1503.43C550.92 1530.35 578.988 1578.39 650.059 1555.21C659.849 1529.21 666.755 1509.66 668.505 1503.43Z" fill="#CB7E73"/>
<path fill-rule="evenodd" clip-rule="evenodd" d="M1153.08 1864.92C1158.29 1887.72 1153.77 1893.42 1157.62 1893.42C1161.42 1893.42 1168.08 1895.58 1177.44 1898.62C1190.45 1902.84 1208.67 1908.75 1231.65 1912.89C1242.65 1914.88 1249.57 1916.34 1253.7 1917.41C1254.17 1917.91 1254.63 1918.39 1255.08 1918.87C1255.45 1919.26 1255.82 1919.64 1256.17 1920.02C1259.43 1920.02 1261.45 1919.41 1253.7 1917.41C1231.02 1893.38 1188.97 1847.08 1184.42 1834.99C1180.44 1824.43 1129.59 1630.3 1092.83 1489.18C1075.16 1554.92 1019.39 1546.98 993.716 1534.78C1036.84 1630.29 1107.52 1758.96 1127.65 1794.62C1144.54 1824.54 1147.88 1842.12 1153.08 1864.92Z" fill="#F1C3A8"/>
<path d="M1074.06 1416.98L979.597 1503.43C983.832 1512.87 988.582 1523.41 993.716 1534.78C1019.39 1546.98 1075.16 1554.92 1092.83 1489.18C1085.95 1462.73 1079.55 1438.15 1074.06 1416.98Z" fill="#CB7E73"/>
<path d="M879.684 304.976C846.622 292.816 778.409 299.909 748.435 304.976C735.341 309.993 715.424 317.978 694.846 326.871C726.534 395.445 817.371 491.45 927.216 326.871C911.047 318.391 894.073 310.268 879.684 304.976Z" fill="#CB7E73"/>
<path fill-rule="evenodd" clip-rule="evenodd" d="M694.846 326.871C726.534 395.445 817.371 491.45 927.216 326.871C948.201 337.875 967.83 349.481 978.688 356.277C938.875 538.841 848.075 909.287 803.387 930.568C747.527 957.168 656.243 906.342 653.973 868.341C653.619 862.424 652.606 855.812 651.135 848.848C649.883 842.924 648.3 836.745 646.509 830.522C645.258 826.178 643.906 821.812 642.495 817.497C636.091 797.919 628.466 779.38 623.545 768.588C619.76 766.213 609.83 758.803 600.383 748.163C594.167 741.161 590.09 724.679 586.961 712.026C584.146 700.646 584.368 689.988 582.217 694.486L557.693 591.409C550.7 658.616 534.536 795.437 523.938 824.583C523.53 825.559 523.126 826.528 522.725 827.49C517.511 840.01 512.932 851.339 509.554 860.266C492.296 905.867 442.34 884.016 435.528 860.266C430.363 842.261 432.246 797.503 434.053 754.551C434.629 740.845 435.198 727.323 435.528 714.912C436.483 678.944 434.982 675.899 426.957 659.612C423.536 652.668 418.929 643.318 412.82 627.985C395.189 583.726 398.515 549.366 402.093 512.4C402.663 506.518 403.239 500.57 403.737 494.506C407.37 450.33 503.65 420.879 539.073 412.329C564.648 406.156 580.044 394.536 599.104 380.15C606.444 374.61 614.327 368.66 623.545 362.453C638.71 352.24 667.367 338.745 694.846 326.871Z" fill="#F1C3A8"/>
<path d="M582.217 694.486L557.693 591.409C550.7 658.616 534.536 795.437 523.938 824.583C545.34 773.396 578.633 701.984 582.217 694.486Z" fill="#CB7E73"/>
<path fill-rule="evenodd" clip-rule="evenodd" d="M1040.45 404.254C1061.8 413.279 1107.67 435.7 1120.38 453.18C1121.36 454.528 1122.55 456.106 1123.92 457.91C1144.64 485.347 1204.89 565.122 1163.98 685.461C1156.28 689.8 1147.64 692.738 1138.55 694.591C1130.17 696.298 1121.42 697.085 1112.66 697.197C1108.71 697.248 1104.77 697.161 1100.85 696.961C1097.95 696.812 1095.07 696.601 1092.23 696.336C1071.31 694.388 1052.17 689.548 1040.45 685.461V404.254ZM1040.45 732.487V753.388C1040.45 762.914 1046.34 784.748 1052.3 806.879C1057.93 827.787 1063.64 848.959 1064.52 860.266C1066.34 883.542 1139.46 891.142 1153.08 860.266C1166.71 829.39 1158.08 768.588 1153.08 734.862C1142.92 741.946 1129.37 744.97 1114.93 745.507C1107.48 745.785 1099.8 745.4 1092.23 744.57C1088.55 744.168 1084.91 743.66 1081.33 743.073C1079.18 742.721 1077.06 742.34 1074.97 741.936C1061.3 739.293 1049.01 735.649 1040.45 732.487Z" fill="#F1C3A8"/>
<path d="M1114.93 745.507L1138.55 694.591C1130.17 696.298 1121.42 697.085 1112.66 697.197L1092.23 744.57C1099.8 745.4 1107.48 745.785 1114.93 745.507Z" fill="#F4DE85"/>
<path fill-rule="evenodd" clip-rule="evenodd" d="M1153.08 734.862C1149.78 712.608 1155.63 701.536 1160.84 691.675C1161.95 689.581 1163.03 687.542 1163.98 685.461C1156.28 689.8 1147.64 692.738 1138.55 694.591L1114.93 745.507C1129.37 744.97 1142.92 741.946 1153.08 734.862ZM1100.85 696.961C1104.77 697.161 1108.71 697.248 1112.66 697.197L1092.23 744.57C1088.55 744.168 1084.91 743.66 1081.33 743.073L1100.85 696.961ZM1092.23 696.336C1071.31 694.388 1052.17 689.548 1040.45 685.461V732.487C1049.01 735.649 1061.3 739.293 1074.97 741.936L1092.23 696.336Z" fill="#E19059"/>
<path d="M1081.33 743.073L1100.85 696.961C1097.95 696.812 1095.07 696.601 1092.23 696.336L1074.97 741.936C1077.06 742.34 1079.18 742.721 1081.33 743.073Z" fill="#F4DE85"/>
<path d="M651.135 848.848C649.883 842.924 648.3 836.745 646.509 830.522L642.495 817.497C635.724 821.297 619.73 828.517 609.92 826.997C600.111 825.477 619.76 840.931 630.811 848.848H651.135Z" fill="#686349"/>
<path d="M799.3 529.182C783.423 529.973 775.684 534.407 742.078 523.957C763.422 535.357 789.271 636.152 798.392 694.011C794.792 653.901 828.366 535.832 849.711 523.957C818.828 535.832 818.374 528.232 799.3 529.182Z" fill="#E9A196"/>
<path d="M558.724 586.641C558.452 585.571 557.364 584.923 556.293 585.195C555.222 585.467 554.575 586.555 554.847 587.626L558.724 586.641ZM587.667 716.812L585.681 717.049L587.667 716.812ZM707.227 780.56C708.33 780.494 709.17 779.547 709.105 778.444C709.039 777.341 708.091 776.501 706.989 776.567L707.227 780.56ZM702.113 416.604L703.139 418.321L702.113 416.604ZM475.461 633.616C474.636 632.882 473.372 632.954 472.637 633.779C471.902 634.604 471.975 635.868 472.8 636.603L475.461 633.616ZM455.811 789.134C455.091 789.97 455.185 791.233 456.022 791.954C456.859 792.675 458.121 792.581 458.842 791.744L455.811 789.134ZM526.337 664.489C526.823 663.497 526.412 662.299 525.42 661.814C524.427 661.328 523.229 661.739 522.744 662.732L526.337 664.489ZM496.66 778.715C496.744 779.817 497.705 780.641 498.806 780.558C499.908 780.474 500.732 779.513 500.649 778.412L496.66 778.715ZM742.078 523.957L742.671 522.047C741.686 521.741 740.63 522.234 740.232 523.185C739.834 524.137 740.225 525.235 741.135 525.721L742.078 523.957ZM799.3 529.182L799.201 527.184L799.3 529.182ZM849.711 523.957L850.683 525.704C851.6 525.194 851.967 524.061 851.522 523.109C851.077 522.158 849.973 521.713 848.993 522.09L849.711 523.957ZM799.3 701.611L797.352 702.062L801.278 701.313L799.3 701.611ZM554.847 587.626C559.69 606.701 567.045 636.073 573.371 662.193C579.718 688.404 584.973 711.121 585.681 717.049L589.653 716.574C588.908 710.342 583.566 687.3 577.258 661.251C570.928 635.112 563.569 605.725 558.724 586.641L554.847 587.626ZM585.681 717.049C586.64 725.072 591.581 736.888 598.365 747.351C601.775 752.611 605.7 757.606 609.908 761.67C614.1 765.718 618.667 768.933 623.372 770.487L624.626 766.689C620.703 765.393 616.641 762.611 612.687 758.792C608.748 754.988 605.009 750.246 601.721 745.174C595.107 734.974 590.511 723.752 589.653 716.574L585.681 717.049ZM623.372 770.487C632.22 773.41 649.213 776.158 665.838 778.057C682.474 779.957 699.09 781.046 707.227 780.56L706.989 776.567C699.231 777.031 682.921 775.982 666.292 774.083C649.65 772.181 633.036 769.467 624.626 766.689L623.372 770.487ZM499.757 425.873C505.184 422.288 522.028 414.804 544.523 414.804V410.804C521.241 410.804 503.63 418.52 497.552 422.535L499.757 425.873ZM544.523 414.804C558.652 414.804 570.989 416.796 583.109 418.64C595.193 420.48 607.076 422.176 620.024 421.451L619.8 417.457C607.315 418.157 595.809 416.528 583.711 414.686C571.647 412.849 559.006 410.804 544.523 410.804V414.804ZM620.024 421.451C632.67 420.742 651.53 420.979 668.172 420.919C676.462 420.89 684.2 420.786 690.274 420.449C693.308 420.28 695.967 420.052 698.091 419.737C700.112 419.438 701.964 419.022 703.139 418.321L701.086 414.887C700.671 415.135 699.557 415.477 697.505 415.78C695.556 416.069 693.035 416.289 690.052 416.455C684.091 416.786 676.444 416.89 668.158 416.92C651.647 416.979 632.586 416.741 619.8 417.457L620.024 421.451ZM703.139 418.321C703.806 417.921 705.241 417.696 707.612 417.962C709.871 418.215 712.587 418.866 715.467 419.751C721.217 421.518 727.343 424.135 731.217 426.005L732.956 422.403C728.958 420.473 722.639 417.77 716.642 415.927C713.649 415.007 710.666 414.28 708.058 413.987C705.562 413.707 702.962 413.766 701.086 414.887L703.139 418.321ZM472.8 636.603C478.743 641.899 482.365 646.846 484.554 653.325C486.773 659.89 487.571 668.168 487.571 680.236H491.571C491.571 668.078 490.781 659.256 488.344 652.045C485.878 644.749 481.779 639.246 475.461 633.616L472.8 636.603ZM487.571 680.236C487.571 714.43 483.65 736.942 477.756 753.224C471.877 769.466 463.993 779.634 455.811 789.134L458.842 791.744C467.161 782.085 475.399 771.487 481.517 754.585C487.621 737.724 491.571 714.713 491.571 680.236H487.571ZM522.744 662.732C517.693 673.058 510.359 691.181 504.694 712.121C499.033 733.046 495.001 756.926 496.66 778.715L500.649 778.412C499.038 757.26 502.953 733.876 508.555 713.166C514.153 692.471 521.397 674.588 526.337 664.489L522.744 662.732ZM897.26 430.799C903.647 428.127 914.125 424.111 924.757 420.768C935.466 417.4 946.06 414.804 952.802 414.804V410.804C945.375 410.804 934.245 413.591 923.557 416.952C912.79 420.338 902.196 424.398 895.716 427.109L897.26 430.799ZM952.802 414.804C966.608 414.804 978 419.139 981.822 421.212L983.729 417.696C979.377 415.336 967.335 410.804 952.802 410.804V414.804ZM741.484 525.866C758.405 531.128 768.941 532.683 777.313 532.784C781.49 532.835 785.086 532.524 788.595 532.158C792.119 531.79 795.501 531.374 799.4 531.179L799.201 527.184C795.161 527.385 791.621 527.82 788.179 528.179C784.721 528.54 781.306 528.833 777.362 528.785C769.494 528.689 759.357 527.235 742.671 522.047L741.484 525.866ZM799.4 531.179C804.021 530.949 807.506 531.236 810.637 531.62C813.723 531.998 816.705 532.511 819.984 532.664C826.727 532.979 834.854 531.812 850.428 525.823L848.993 522.09C833.685 527.976 826.144 528.947 820.171 528.668C817.091 528.525 814.453 528.058 811.124 527.649C807.841 527.247 804.116 526.939 799.201 527.184L799.4 531.179ZM741.135 525.721C743.39 526.925 745.909 529.442 748.612 533.309C751.289 537.14 754.03 542.126 756.786 548.045C762.297 559.881 767.783 575.257 772.905 592.142C783.147 625.906 791.87 665.479 796.416 694.323L800.367 693.7C795.794 664.684 787.031 624.93 776.733 590.981C771.585 574.011 766.036 558.434 760.412 546.356C757.601 540.319 754.749 535.108 751.891 531.018C749.059 526.965 746.101 523.838 743.02 522.193L741.135 525.721ZM800.384 693.832C799.508 684.079 800.891 669.393 803.86 652.535C806.82 635.723 811.328 616.907 816.615 598.961C821.904 581.009 827.959 563.979 834.001 550.727C837.023 544.098 840.021 538.458 842.895 534.135C845.807 529.755 848.448 526.948 850.683 525.704L848.738 522.209C845.637 523.934 842.56 527.414 839.564 531.921C836.53 536.484 833.432 542.331 830.361 549.067C824.216 562.546 818.101 579.767 812.778 597.83C807.454 615.9 802.91 634.863 799.92 651.842C796.939 668.774 795.475 683.888 796.4 694.19L800.384 693.832ZM801.278 701.313C801.148 700.455 801.003 699.094 800.846 697.64C800.693 696.228 800.53 694.728 800.367 693.7L796.416 694.323C796.56 695.233 796.713 696.622 796.869 698.07C797.021 699.476 797.177 700.946 797.322 701.91L801.278 701.313ZM796.4 694.19C796.573 696.119 796.91 700.155 797.352 702.062L801.249 701.16C800.887 699.599 800.574 695.951 800.384 693.832L796.4 694.19Z" fill="#E9A196"/>
<path fill-rule="evenodd" clip-rule="evenodd" d="M578.584 398.554C586.305 390.478 645.344 354.852 663.056 343.452C677.225 334.332 717.402 319.701 735.719 313.526L750.252 292.151L742.077 237.524L727.091 122.096C728.907 139.83 728.998 179.668 714.829 197.148C707.39 206.325 697.789 209.05 688.851 211.588C676.507 215.092 665.427 218.238 663.056 237.524C661.14 253.112 657.028 258.887 653.387 264C649.262 269.795 645.741 274.739 646.706 292.151C647.117 299.566 647.924 306.252 648.636 312.159C651.072 332.361 652.409 343.452 633.082 343.452C613.099 343.452 618.398 323.502 623.545 313.526C615.976 320.328 603.108 337.356 612.191 351.052C621.274 364.749 599.929 371.01 588.121 372.428C581.461 373.278 567.231 378.268 563.597 391.428C560.053 404.268 540.219 413.084 530.043 416.126C549.272 410.537 571.806 405.644 578.584 398.554ZM689.85 218.999C683.644 218.999 671.685 221.469 673.501 231.349C675.318 241.229 685.158 227.232 689.85 218.999Z" fill="#A47250"/>
<path fill-rule="evenodd" clip-rule="evenodd" d="M767.964 10.9432C778.137 15.8834 791.882 13.0016 797.483 10.9432C800.663 10.9432 808.201 9.99322 812.924 6.19314C818.828 1.44304 898.758 -10.4323 926.916 28.5187C940.114 46.7773 937.147 66.9145 934.292 86.2886C931.057 108.245 927.966 129.222 948.715 145.372C979.96 169.692 1005.33 155.505 1014.11 145.372C1013.75 174.253 992.767 182.423 982.322 182.898C1006.09 187.648 1055.98 201.518 1065.43 218.999C1077.14 240.662 1058.49 256.255 1053.74 260.224L1053.62 260.325C1049.08 264.125 1036.37 285.501 1065.43 285.501C1088.68 285.501 1099.95 266.183 1102.67 256.525C1101.91 259.375 1099.4 269.16 1095.4 285.501C1091.41 301.841 1065.88 306.559 1053.62 306.876C1065.58 312.893 1089.77 327.872 1090.86 339.652C1092.04 352.329 1078.4 367.471 1069.37 377.5C1067.91 379.12 1066.57 380.607 1065.43 381.928C1057.26 391.428 1069.52 405.679 1095.4 418.504C1116.11 428.764 1116.45 445.896 1114.02 453.18L1059.07 425.005C1057.3 416.188 1050.27 396.559 1036.37 388.578C1022.52 380.629 1026.13 367.251 1029.77 353.732C1030.7 350.285 1031.63 346.829 1032.28 343.452C1035.46 326.827 1007.75 312.159 993.675 320.176C979.597 328.194 955.527 292.151 975.055 273.06C990.678 257.788 993.978 243.006 993.675 237.524C989.891 245.091 976.963 259.484 955.527 256.525C935.577 253.77 936.523 249.325 939.995 232.999C941.186 227.398 942.675 220.398 943.719 211.588C946.427 188.738 936.775 185.449 922.952 180.739C915.911 178.34 907.789 175.573 899.667 169.664C880.411 155.657 873.478 129.266 872.418 117.821L851.073 305.082L742.077 237.524L727.091 122.096C728.907 139.83 728.998 179.668 714.829 197.148C707.39 206.325 697.789 209.05 688.851 211.588C676.507 215.092 665.427 218.238 663.056 237.524C661.14 253.112 657.028 258.887 653.387 264C649.262 269.795 645.741 274.739 646.706 292.151C647.117 299.566 647.924 306.252 648.636 312.159C651.072 332.361 652.409 343.452 633.082 343.452C613.099 343.452 618.398 323.502 623.545 313.526C615.976 320.328 603.108 337.356 612.191 351.052C621.274 364.749 599.929 371.01 588.121 372.428C581.461 373.278 567.231 378.268 563.597 391.428C560.053 404.268 540.219 413.084 530.043 416.126C529.789 416.202 529.54 416.275 529.299 416.343C526.887 417.05 524.531 417.768 522.27 418.504C501.833 425.154 492.75 422.779 486.392 411.854C481.306 403.114 459.446 388.262 449.152 381.928C477.248 393.088 514.255 383.565 540.329 376.856C547.551 374.998 553.934 373.355 559.056 372.428C582.672 368.153 597.658 339.652 591.755 324.927C589.318 318.849 578.372 324.908 566.133 331.684C548.716 341.325 528.678 352.417 526.811 332.052C524.222 303.807 533.685 291.95 539.493 284.673C540.816 283.016 541.949 281.597 542.707 280.275C544.014 277.996 550.716 275.57 557.648 273.06C572.382 267.727 588.159 262.016 555.423 256.525C516.911 250.065 509.705 224.382 510.916 212.349C511.211 223.124 519.135 225.718 530.116 229.313C536.078 231.265 542.941 233.512 549.973 237.524C562.544 244.696 574.216 235.513 586.233 226.058C593.318 220.484 600.524 214.815 608.104 212.349C628.54 205.698 623.091 199.523 608.104 182.898C602.051 176.183 596.22 172.878 590.552 169.664C582.186 164.922 574.173 160.379 566.322 145.372C553.152 120.196 583.58 98.8206 608.104 89.3203C624.067 83.1363 645.804 87.217 664.294 90.6884C674.21 92.55 683.192 94.2363 689.85 94.0705C707.226 93.6378 699.729 82.5626 692.077 71.2577L692.075 71.2556C691.327 70.151 690.578 69.0441 689.85 67.9448C683.455 58.2826 689.846 49.7834 702.717 32.6666C706.298 27.9044 710.38 22.4752 714.829 16.1684C732.505 -8.89447 749.843 0.870162 762.432 7.96055C764.397 9.06754 766.247 10.1093 767.964 10.9432ZM689.85 218.999C683.644 218.999 671.685 221.469 673.501 231.349C675.318 241.229 685.158 227.232 689.85 218.999Z" fill="#EBAA7F"/>
<path d="M851.073 305.082L975.055 381.928L1059.07 425.005C1057.3 416.188 1050.27 396.559 1036.37 388.578C1022.52 380.629 1026.13 367.251 1029.77 353.732C1030.7 350.285 1031.63 346.829 1032.28 343.452C1035.46 326.827 1007.75 312.159 993.675 320.176C979.597 328.194 955.527 292.151 975.055 273.06C990.678 257.788 993.978 243.006 993.675 237.524C989.891 245.091 976.963 259.484 955.527 256.525C935.577 253.77 936.523 249.325 939.995 232.999C941.186 227.398 942.675 220.398 943.719 211.588C946.427 188.738 936.775 185.449 922.952 180.739C915.911 178.34 907.789 175.573 899.667 169.664C880.411 155.657 873.478 129.266 872.418 117.821L851.073 305.082Z" fill="#A47250"/>
<path d="M934.182 88.3703C940.237 85.0452 953.075 74.7849 955.981 60.3445C959.614 42.294 1007.3 52.2693 978.689 72.2198C955.799 88.1803 939.48 89.637 934.182 88.3703C926.007 73.9615 913.2 44.3841 927.37 41.344C941.539 38.3039 937.815 71.4281 934.182 88.3703Z" fill="#597C62"/>
<path d="M949.731 51.5154C954.007 46.7113 962.195 33.4495 960.737 18.8352C958.915 0.567304 1002.47 -2.61354 983.426 24.1484C968.189 45.5579 954.614 51.3137 949.731 51.5154C938.794 39.8919 919.744 14.9702 931.046 8.27146C942.347 1.57269 948.212 34.3096 949.731 51.5154Z" fill="#597C62"/>
<path d="M682.182 88.4914C677.192 85.1495 666.614 74.8372 664.218 60.3237C661.225 42.1818 621.93 52.2076 645.507 72.2592C664.368 88.3004 677.816 89.7645 682.182 88.4914C688.918 74.0097 699.471 44.2824 687.795 41.227C676.119 38.1715 679.188 71.4635 682.182 88.4914Z" fill="#597C62"/>
<path d="M669.369 51.4499C665.845 46.6214 659.098 33.2925 660.299 18.6042C661.801 0.243753 625.909 -2.95321 641.603 23.9442C654.159 45.4622 665.345 51.2471 669.369 51.4499C678.381 39.7675 694.079 14.7196 684.766 7.98693C675.453 1.25423 670.621 34.1569 669.369 51.4499Z" fill="#597C62"/>
<path d="M648.069 1101.1C634.142 1186.12 608.376 1363.3 616.733 1391.81C627.178 1427.43 648.069 1462.11 666.689 1467.81C681.585 1472.37 660.482 1225.23 648.069 1101.1Z" fill="#325263"/>
<path d="M783.859 1134.82C780.529 1232.83 768.872 1436.65 748.89 1467.81C723.911 1506.76 795.213 1516.73 835.178 1510.56C867.15 1505.62 866.06 1398.93 861.518 1346.2C860.156 1330.53 862.427 1302.31 882.409 1314.85C905.38 1329.27 904.153 1413.99 903.808 1437.85L903.808 1437.86C903.777 1439.94 903.754 1441.56 903.754 1442.63C903.754 1455.93 970.514 1463.06 979.597 1427.43C988.68 1391.81 938.269 1212.25 917.378 1169.02C896.488 1125.8 841.082 1048.85 783.859 1134.82Z" fill="#325263"/>
<path fill-rule="evenodd" clip-rule="evenodd" d="M627.178 1040.77C599.172 1149.39 542.888 1376.03 541.798 1413.66C540.477 1459.25 632.219 1506.18 660.575 1520.69L660.642 1520.72L660.662 1520.73C661.52 1521.17 662.319 1521.58 663.056 1521.96C677.217 1529.23 706.561 1530.24 735.114 1531.23C756.921 1531.98 778.267 1532.71 792.034 1536.21C823.824 1544.28 907.841 1550.46 939.632 1536.21C961.182 1526.55 984.82 1509.47 1006.44 1493.84C1016.71 1486.42 1026.53 1479.32 1035.46 1473.51C1057.62 1459.07 1086.17 1436.77 1097.68 1427.43C1067.25 1305.99 1001.03 1058.63 979.597 1040.77C958.161 1022.91 735.719 1033.33 627.178 1040.77ZM616.733 1391.81C608.376 1363.3 634.142 1186.12 648.069 1101.1C660.482 1225.23 681.585 1472.37 666.689 1467.81C648.069 1462.11 627.178 1427.43 616.733 1391.81ZM783.859 1134.82C780.529 1232.83 768.872 1436.65 748.89 1467.81C723.911 1506.76 795.213 1516.73 835.178 1510.56C867.15 1505.62 866.06 1398.93 861.518 1346.2C860.156 1330.53 862.427 1302.31 882.409 1314.85C905.38 1329.27 904.153 1413.99 903.808 1437.85L903.808 1437.86C903.777 1439.94 903.754 1441.56 903.754 1442.63C903.754 1455.93 970.514 1463.06 979.597 1427.43C988.68 1391.81 938.269 1212.25 917.378 1169.02C896.488 1125.8 841.082 1048.85 783.859 1134.82ZM1012.3 1346.2C1015.2 1316.94 974.45 1199.11 953.71 1143.85C976.569 1168.23 1024.92 1229.26 1035.46 1278.28C1048.63 1339.55 1008.66 1382.78 1012.3 1346.2Z" fill="#536E7C"/>
<path d="M953.71 1143.85C974.45 1199.11 1015.2 1316.94 1012.3 1346.2C1008.66 1382.78 1048.63 1339.55 1035.46 1278.28C1024.92 1229.26 976.569 1168.23 953.71 1143.85Z" fill="#325263"/>
<path d="M934.182 902.067L623.545 929.143C653.367 962.393 730.996 1024.91 802.933 1008.94C874.87 992.984 920.406 931.043 934.182 902.067Z" fill="#B0AB93"/>
<path d="M676.68 1035.07C728.907 1070.38 849.075 1119.81 911.929 1035.07C990.496 929.143 871.964 1185.17 837.448 1209.4C802.933 1233.63 707.108 1164.75 704.837 1141.47C703.705 1129.86 724.379 1134.68 747.247 1140.01C770.227 1145.36 795.422 1151.23 802.933 1141.47C810.329 1131.86 780.568 1117.97 746.774 1102.2C712.083 1086.01 673.142 1067.84 665.781 1050.27C654.154 1022.53 668.203 1028.58 676.68 1035.07Z" fill="#B0AB93"/>
<path fill-rule="evenodd" clip-rule="evenodd" d="M595.842 978.069C638.683 1123.58 737.808 1419.83 791.579 1440.73C858.793 1466.86 1002.3 1096.35 1004.12 1086.85C1005.57 1079.25 958.1 960.493 934.182 902.067C920.406 931.043 874.87 992.984 802.933 1008.94C730.996 1024.91 653.367 962.393 623.545 929.143L595.842 978.069ZM676.68 1035.07C728.907 1070.38 849.075 1119.81 911.929 1035.07C990.496 929.143 871.964 1185.17 837.448 1209.4C802.933 1233.63 707.108 1164.75 704.837 1141.47C703.705 1129.86 724.379 1134.68 747.247 1140.01C770.227 1145.36 795.422 1151.23 802.933 1141.47C810.329 1131.86 780.568 1117.97 746.774 1102.2C712.083 1086.01 673.142 1067.84 665.781 1050.27C654.154 1022.53 668.203 1028.58 676.68 1035.07ZM802.933 1321.03C858.884 1322.17 902.24 1187.55 916.924 1120.1C920.255 1109.01 926.915 1089.92 926.915 1102.2C926.915 1117.55 911.929 1226.5 896.488 1275.9C881.743 1323.07 852.435 1355.23 802.933 1341.93C763.331 1331.29 786.432 1323.56 802.933 1321.03Z" fill="#EFE8DF"/>
<path d="M916.924 1120.1C902.24 1187.55 858.884 1322.17 802.933 1321.03C786.432 1323.56 763.331 1331.29 802.933 1341.93C852.435 1355.23 881.743 1323.07 896.488 1275.9C911.929 1226.5 926.915 1117.55 926.915 1102.2C926.915 1089.92 920.255 1109.01 916.924 1120.1Z" fill="#B0AB93"/>
<path d="M725.728 121.146C728.15 150.755 732.631 212.444 731.178 222.324C729.361 234.674 766.147 269.825 772.505 286.926C777.592 300.606 790.933 302.063 799.713 300.797C808.587 301.665 827.474 299.934 832.026 286.062C837.717 268.722 873.245 232.011 870.916 219.776C869.053 209.988 871.038 148.264 872.264 118.626L795.213 67.4697L725.728 121.146Z" fill="#F1C3A8"/>
<path d="M786.13 210.924C794.849 204.463 799.3 206.412 800.663 208.312V212.349C799.754 213.615 798.028 216.909 796.575 221.849C794.759 228.024 788.855 231.349 783.405 239.424C777.955 247.5 777.047 244.649 774.322 253.675C771.597 262.7 789.763 272.2 794.759 262.7C798.755 255.1 800.208 258.583 801.571 261.275V300.286V369.103C802.297 377.843 780.377 383.511 773.414 386.203C778.863 382.403 773.868 375.278 760.698 364.828C747.527 354.377 723.912 342.502 718.008 323.977C712.104 305.451 723.457 314.001 736.174 304.026C748.89 294.051 736.174 282.65 730.27 272.2C724.366 261.75 732.54 258.9 736.174 245.599C739.807 232.299 747.527 234.674 765.239 230.399C782.951 226.124 775.23 218.999 786.13 210.924Z" fill="#EBAA7F"/>
<path d="M815.165 210.709C806.169 204.647 801.949 206.353 800.663 208.312V212.349C801.624 213.573 803.494 217.22 805.151 222.089C807.222 228.176 813.271 231.232 819.058 239.054C824.846 246.875 825.639 243.988 828.737 252.88C831.835 261.773 814.03 272.076 808.639 262.811C804.326 255.399 802.825 258.525 801.571 261.275V300.286V369.103C801.2 377.865 827.978 382.835 835.062 385.211C829.449 381.66 834.161 374.319 846.923 363.291C859.686 352.263 882.851 339.343 888.006 320.575C893.162 301.807 882.141 310.856 868.999 301.462C855.856 292.069 868.125 280.112 873.611 269.409C879.096 258.707 870.793 256.226 866.611 243.105C862.429 229.983 854.794 232.701 836.882 229.225C818.97 225.749 826.41 218.286 815.165 210.709Z" fill="#EBAA7F"/>
<path d="M790.218 156.297C790.823 156.455 791.671 157.722 790.218 161.522C788.401 166.272 783.86 174.348 785.676 182.423C787.129 188.883 788.098 192.398 788.401 193.348C787.493 194.773 785.676 198.003 785.676 199.523C785.676 201.423 787.947 203.323 790.218 203.323C792.488 203.323 792.488 200.473 793.851 200.948C794.941 201.328 799.149 203.323 801.117 204.273C802.992 203.235 806.233 201.922 807.277 201.493C808.583 200.957 808.7 203.816 810.908 203.717C813.117 203.618 815.247 201.614 815.169 199.708C815.107 198.184 813.207 195.023 812.266 193.634C812.521 192.668 813.319 189.1 814.468 182.558C815.903 174.381 811.155 166.48 809.193 161.795C807.624 158.047 808.396 156.74 808.979 156.555C805.227 151.377 802.025 151.072 800.346 151.072C798.347 151.072 793.851 150.977 790.218 156.297Z" fill="url(#paint0_linear_2495_6)"/>
<path fill-rule="evenodd" clip-rule="evenodd" d="M732.539 138.247C736.627 136.98 746.164 134.922 751.614 136.822C754.538 137.841 757.629 140.436 760.851 143.141C765.137 146.738 769.655 150.53 774.321 151.072C782.496 152.022 790.67 151.547 789.762 144.897C789.53 143.197 788.724 141.409 787.587 139.672C788.028 141.952 787.101 144.105 786.583 144.897C787.31 142.997 785.372 137.93 784.312 135.635C781.129 132.344 777.349 129.776 775.229 129.222C771.596 128.272 755.701 125.421 743.439 129.222C733.629 132.262 732.085 136.505 732.539 138.247Z" fill="#EBAA7F"/>
<path fill-rule="evenodd" clip-rule="evenodd" d="M865.609 135.459C861.482 134.347 851.891 132.668 846.539 134.853C843.667 136.026 840.695 138.816 837.596 141.724C833.475 145.592 829.131 149.67 824.503 150.432C816.395 151.768 808.228 151.647 808.855 144.809C809.016 143.061 809.744 141.197 810.804 139.371C810.461 141.721 811.474 143.881 812.024 144.667C811.22 142.757 812.94 137.492 813.9 135.098C816.935 131.593 820.595 128.799 822.684 128.138C826.265 127.005 841.988 123.383 854.368 126.72C864.272 129.39 865.989 133.658 865.609 135.459Z" fill="#EBAA7F"/>
<path fill-rule="evenodd" clip-rule="evenodd" d="M764.33 155.822C759.607 155.442 747.526 161.681 742.077 164.848C744.923 167.304 747.828 169.156 750.705 170.524C756.155 163.515 768.417 154.167 773.867 172.848C775.884 172.33 777.583 171.676 778.863 171.023C776.138 164.848 770.234 156.297 764.33 155.822Z" fill="#D9D9D9"/>
<path d="M773.867 172.848C768.018 174.348 759.489 174.697 750.705 170.524C756.155 163.515 768.417 154.167 773.867 172.848Z" fill="#4D88A8"/>
<path fill-rule="evenodd" clip-rule="evenodd" d="M834.804 154.173C839.565 153.56 852.052 159.566 857.7 162.645C854.926 165.354 852.068 167.431 849.216 168.997C843.403 161.882 830.599 152.62 825.89 172.486C823.827 172.034 822.081 171.424 820.759 170.796C823.25 164.187 828.853 154.939 834.804 154.173Z" fill="#D9D9D9"/>
<path d="M825.89 172.486C831.87 173.797 840.512 173.778 849.216 168.997C843.403 161.882 830.599 152.62 825.89 172.486Z" fill="#4D88A8"/>
<path d="M740.261 165.322C745.711 162.947 755.883 156.202 763.876 155.822C771.869 155.442 776.138 166.272 778.863 171.497M859.527 162.85C853.918 160.654 843.351 154.175 835.256 154.146C827.16 154.116 823.3 165.451 820.766 170.949" stroke="#E89F94" stroke-width="3" stroke-linecap="round"/>
<path d="M794.304 239.899H802.479L808.142 240.146C809.528 240.754 812.397 241.33 815.026 241.757C812.816 239.576 807.654 234.544 804.75 234.674L802.479 234.674H797.483C794.577 234.674 789.612 239.516 787.492 241.936C790.101 241.359 792.945 240.611 794.304 239.899Z" fill="#E9A196"/>
<path d="M782.042 242.749C785.827 242.274 792.488 240.849 794.304 239.899C796.272 240.216 797.938 240.344 799.968 240.344C802.025 240.374 806.635 240.363 808.589 239.959C810.442 240.826 817.155 241.952 820.956 242.258" stroke="#AE5143" stroke-linecap="round"/>
<ellipse cx="12.2969" cy="23.6887" rx="12.2969" ry="23.6887" transform="matrix(0.966477 -0.256752 0.235974 0.971759 729.361 186.362)" fill="#E9A196"/>
<ellipse cx="12.325" cy="23.6543" rx="12.325" ry="23.6543" transform="matrix(-0.947511 -0.319723 -0.29474 0.955577 872.024 187.929)" fill="#E9A196"/>
<ellipse cx="19.1236" cy="6.63439" rx="19.1236" ry="6.63439" transform="matrix(0.969494 -0.245117 0.225172 0.974319 641.205 753.987)" fill="#E9A196"/>
<path d="M632.628 843.64C821.19 840.6 921.92 502.898 948.715 334.427C998.489 320.366 1009.12 354.536 1008.21 373.378C1016.69 377.019 1035.73 387.343 1044.09 399.503C1054.53 414.704 1094.04 541.057 1079.05 664.085C1064.07 787.114 939.632 908.717 901.483 939.593C863.335 970.469 647.16 970.469 611.737 922.492C604.783 913.074 601.369 904.149 600.455 895.892C597.643 870.497 618.463 851.407 632.628 843.64Z" fill="#EFE8DF"/>
<path d="M1051.81 651.26C1044.39 687.836 1007.48 778.754 919.195 849.816C875.038 885.357 821.089 902.339 771.597 909.127C822.462 898.137 861.518 855.991 965.518 701.137C1048.72 577.253 1057.71 616.268 1051.81 651.26Z" fill="#B0AB93"/>
<path d="M837.448 764.313C835.269 759.753 823.824 766.213 818.374 770.013C805.072 787.492 780.767 815.687 753.431 840.01C782.345 816.678 839.628 768.873 837.448 764.313Z" fill="#B0AB93"/>
<path d="M995.946 340.602C1000.18 343.452 1008.66 354.187 1008.66 374.328M1008.66 374.328C1008.66 380.019 1005.83 392.848 1001.05 409.954M1008.66 374.328C1022.14 396.337 1050.72 455.84 1057.26 517.782C1065.43 595.209 1068.61 608.984 1068.61 627.51M919.195 621.334C945.556 577.219 984.702 468.517 1001.05 409.954M1001.05 409.954C1000.71 482.156 983.866 644.135 919.195 714.437M650.794 907.292C677.126 912.516 722.135 915.912 771.597 909.127M771.597 909.127C821.089 902.339 875.038 885.357 919.195 849.816C1007.48 778.754 1044.39 687.836 1051.81 651.26C1057.71 616.268 1048.72 577.253 965.518 701.137C861.518 855.991 822.462 898.137 771.597 909.127ZM602.654 884.016C609.466 890.192 635.353 898.837 684.401 884.016C706.512 877.335 730.992 859.977 753.431 840.01M753.431 840.01C780.767 815.687 805.072 787.492 818.374 770.013C823.824 766.213 835.269 759.753 837.448 764.313C839.628 768.873 782.345 816.678 753.431 840.01Z" stroke="#B0AB93" stroke-width="6" stroke-linecap="round"/>
<path fill-rule="evenodd" clip-rule="evenodd" d="M580.854 823.69C592.814 821.631 620.002 822.74 633.081 843.64C604.409 854.984 570.863 885.916 601.291 952.418C610.235 971.965 563.272 968.251 534.985 955.743C530.898 954.318 522.814 949.188 523.178 940.068C523.214 939.143 523.209 937.657 523.203 935.705C523.128 913.595 522.851 831.546 580.854 823.69Z" fill="#EFE8DF"/>
<path d="M628.994 936.743C578.856 891.521 610.828 855.832 633.081 843.64C604.409 854.984 570.863 885.916 601.291 952.418C610.235 971.965 563.272 968.251 534.985 955.743C536.348 964.768 556.33 986.144 597.204 981.869C607.899 980.75 615.323 976.992 620.365 971.965C630.738 961.622 631.031 945.906 628.994 936.743Z" fill="#B0AB93"/>
<path d="M619.004 832.24C596.145 833.982 548.339 863.116 549.065 927.718M540.891 960.969C520.908 909.192 559.783 874.97 566.323 867.37M604.472 977.119C597.357 977.752 570.864 958.119 570.864 894.942" stroke="#B0AB93" stroke-width="6" stroke-linecap="round"/>
<path d="M983.23 854.566C904.662 1001.82 721.187 964.294 629.903 935.318C613.856 926.293 587.304 899.787 609.466 865.966" stroke="#686349" stroke-width="8" stroke-linecap="round"/>
<path fill-rule="evenodd" clip-rule="evenodd" d="M441.886 930.568C480.488 915.368 498.654 898.743 504.558 870.242C510.462 841.741 499.586 815.089 450.969 806.115C435.528 803.264 414.183 812.587 396.925 822.74C384.861 829.838 379.195 837.769 373.693 845.473C369.253 851.689 364.918 857.756 357.414 863.116C353.945 865.595 350.218 867.962 346.283 870.242C383.752 869.587 446.336 883.579 396.925 944.786C417.372 938.661 434.168 933.607 441.886 930.568Z" fill="#F1C3A8"/>
<path d="M247.51 913.943L273.397 987.095C299.474 973.977 354.049 957.63 394.981 945.369L396.925 944.786C446.336 883.579 383.752 869.587 346.283 870.242C317.913 886.677 278.753 898.508 247.51 913.943Z" fill="#CB7E73"/>
<path d="M279.755 717.287L0 480.256L184.384 689.736L27.703 717.287L475.947 1110.6L393.746 1135.77L708.47 1417.93L465.047 1169.02L579.038 1123.42L140.786 744.838L279.755 717.287Z" fill="#FDC986"/>
<path d="M184.644 897.291C195.919 874.597 222.742 828.763 239.833 826.977C242.265 826.723 244.645 826.835 246.954 827.238C255.064 822.687 273.658 814.923 283.153 820.281C295.022 826.977 299.176 845.951 312.825 845.393C326.474 844.835 325.286 864.925 300.065 864.925C301.803 867.923 302.995 871.437 303.33 875.527C311.44 875.341 328.491 878.541 331.814 892.827C339.529 893.199 354.721 897.291 353.771 910.685C352.822 924.078 312.231 969.838 292.055 991.044C288.494 994.764 279.949 1002.76 269.504 998.298C259.06 993.834 267.131 987.695 258.823 981.557C250.515 975.418 246.361 982.115 241.02 980.441C235.679 978.767 232.119 974.224 233.899 967.528C235.679 960.831 226.184 954.212 217.876 954.212C214.416 954.212 205.414 953.654 208.975 939.703C212.535 925.752 201.951 926.868 194.732 926.868C173.962 926.868 179.376 907.894 184.644 897.291Z" fill="#F1C3A8"/>
<path d="M246.954 827.238C244.645 826.835 242.265 826.723 239.833 826.977C222.742 828.763 195.919 874.597 184.644 897.291C179.376 907.894 173.962 926.868 194.732 926.868C201.952 926.868 212.535 925.752 208.975 939.703C205.414 953.654 214.416 954.212 217.876 954.212C226.184 954.212 235.679 960.831 233.899 967.528C232.119 974.224 235.679 978.767 241.02 980.441C246.361 982.115 250.515 975.418 258.823 981.557C267.131 987.695 259.06 993.834 269.504 998.298C279.949 1002.76 288.494 994.764 292.055 991.044C312.231 969.838 352.822 924.078 353.771 910.685C354.721 897.291 339.529 893.199 331.814 892.827C328.491 878.541 311.44 875.341 303.33 875.527C302.995 871.437 301.803 867.923 300.065 864.925M246.954 827.238C260.876 829.668 272.214 842.677 276.626 849.857C282.982 850.853 294.409 855.16 300.065 864.925M246.954 827.238C255.064 822.687 273.658 814.923 283.153 820.281C295.022 826.977 299.176 845.951 312.825 845.393C326.474 844.835 325.286 864.925 300.065 864.925" stroke="#E9A397" stroke-width="2"/>
<path d="M302.144 876.086C291.462 890.781 272.472 921.288 258.823 931.332M274.252 850.415C263.571 865.111 238.409 896.733 223.217 905.662M331.222 893.943C320.54 908.638 301.55 939.145 287.901 949.19" stroke="#CB7E73" stroke-width="4" stroke-linecap="round"/>
<path fill-rule="evenodd" clip-rule="evenodd" d="M1124.88 931.518C1088.25 916.318 1071.02 899.692 1065.42 871.191C1059.82 842.691 1070.14 816.039 1116.26 807.064C1130.91 804.214 1151.16 813.536 1167.53 823.69C1178.98 830.787 1184.35 838.719 1189.57 846.422C1193.79 852.638 1197.9 858.706 1205.02 864.066C1208.31 866.544 1211.84 868.912 1215.58 871.191C1180.03 870.537 1120.66 884.529 1167.53 945.736C1148.13 939.611 1132.2 934.557 1124.88 931.518Z" fill="#F1C3A8"/>
<path d="M1309.28 914.893L1284.73 988.044C1259.99 974.927 1208.21 958.579 1169.38 946.318L1167.53 945.736C1120.66 884.529 1180.03 870.537 1215.58 871.191C1242.49 887.627 1279.64 899.458 1309.28 914.893Z" fill="#CB7E73"/>
<path d="M1278.69 718.237L1544.1 481.206L1369.17 690.686L1517.82 718.237L1092.56 1111.55L1170.55 1136.72L871.964 1418.88L1102.9 1169.97L994.758 1124.37L1410.54 745.788L1278.69 718.237Z" fill="#FDC986"/>
<path d="M1368.93 898.241C1358.23 875.547 1332.78 829.713 1316.57 827.927C1314.26 827.673 1312 827.785 1309.81 828.188C1302.12 823.636 1284.48 815.873 1275.47 821.23C1264.21 827.927 1260.27 846.901 1247.32 846.343C1234.37 845.785 1235.5 865.874 1259.42 865.874C1257.78 868.873 1256.65 872.387 1256.33 876.477C1248.63 876.291 1232.46 879.491 1229.3 893.777C1221.98 894.149 1207.57 898.241 1208.47 911.634C1209.37 925.027 1247.88 970.788 1267.02 991.993C1270.4 995.714 1278.51 1003.71 1288.42 999.248C1298.33 994.784 1290.67 988.645 1298.55 982.507C1306.43 976.368 1310.38 983.065 1315.44 981.39C1320.51 979.716 1323.89 975.174 1322.2 968.477C1320.51 961.781 1329.52 955.162 1337.4 955.162C1340.68 955.162 1349.22 954.604 1345.84 940.653C1342.47 926.702 1352.51 927.818 1359.36 927.818C1379.06 927.818 1373.92 908.844 1368.93 898.241Z" fill="#F1C3A8"/>
<path d="M1309.81 828.188C1312 827.785 1314.26 827.673 1316.57 827.927C1332.78 829.713 1358.23 875.547 1368.93 898.241C1373.92 908.844 1379.06 927.818 1359.36 927.818C1352.51 927.818 1342.47 926.702 1345.84 940.653C1349.22 954.604 1340.68 955.162 1337.4 955.162C1329.52 955.162 1320.51 961.781 1322.2 968.477C1323.89 975.174 1320.51 979.716 1315.44 981.39C1310.38 983.065 1306.43 976.368 1298.55 982.507C1290.67 988.645 1298.33 994.784 1288.42 999.248C1278.51 1003.71 1270.4 995.714 1267.02 991.993C1247.88 970.788 1209.37 925.027 1208.47 911.634C1207.57 898.241 1221.98 894.149 1229.3 893.777C1232.46 879.491 1248.63 876.291 1256.33 876.477C1256.65 872.387 1257.78 868.873 1259.42 865.874M1309.81 828.188C1296.6 830.617 1285.85 843.627 1281.66 850.807C1275.63 851.803 1264.79 856.109 1259.42 865.874M1309.81 828.188C1302.12 823.636 1284.48 815.873 1275.47 821.23C1264.21 827.927 1260.27 846.901 1247.32 846.343C1234.37 845.785 1235.5 865.874 1259.42 865.874" stroke="#E9A397" stroke-width="2"/>
<path d="M1257.45 877.035C1267.59 891.731 1285.6 922.237 1298.55 932.282M1283.91 851.365C1294.05 866.06 1317.92 897.683 1332.33 906.612M1229.87 894.893C1240 909.588 1258.02 940.095 1270.97 950.14" stroke="#CB7E73" stroke-width="4" stroke-linecap="round"/>
<defs>
<linearGradient id="paint0_linear_2495_6" x1="800.213" y1="151.072" x2="800.213" y2="204.273" gradientUnits="userSpaceOnUse">
<stop stop-color="#F1C3A8"/>
<stop offset="1" stop-color="#E89F94"/>
</linearGradient>
</defs>
</svg>
