<svg width="594" height="613" viewBox="0 0 594 613" fill="none" xmlns="http://www.w3.org/2000/svg">
<path d="M533.886 496.812C460.08 416.676 357.316 399.706 323.992 437.87C290.669 476.033 294.472 524.474 308.234 529.874C357.84 549.339 531.296 609.21 541.224 598.044C556.359 581.021 545.812 517.486 533.886 496.812Z" fill="url(#paint0_linear_3002_5465)"/>
<path d="M405.521 442.132L388.242 461.741C388.242 461.741 395.738 450.651 392.473 448.123C380.927 439.185 368.011 424.122 363.624 418.293L405.521 442.132Z" fill="#999B9E"/>
<path d="M490.692 407.891C485.332 439.181 451.444 456.749 414.438 450.41C377.426 442.383 351.323 416.227 356.682 384.937C362.041 353.648 406.876 338.171 452.426 355.464C476.123 364.461 496.051 376.602 490.692 407.891Z" fill="#71C4E1"/>
<g style="mix-blend-mode:multiply" opacity="0.17">
<path d="M506.763 412.579C501.403 443.868 467.515 461.436 430.509 455.098C396.108 445.37 363.275 423.841 374.094 392.877C376.194 386.865 381.018 375.64 384.687 370.436C401.457 346.647 409.901 331.352 449.152 346.254C472.849 355.251 512.122 381.289 506.763 412.579Z" fill="#527D9E"/>
</g>
<path d="M386.194 385.036C392.243 371.392 390.864 357.767 401.387 350.517C420.756 337.172 436.128 337.017 459.941 341.143C490.071 346.363 519.425 368.204 523.397 389.344C527.37 410.483 523.128 434.012 514.061 443.849C497.576 461.734 483.767 461.861 469.038 461.658C447.642 461.364 406.753 450.002 398.566 445.793C380.732 436.623 372.933 423.052 374.302 415.059C377.18 398.256 380.805 397.189 386.194 385.036Z" fill="#31A383"/>
<path d="M470.175 429.162C474.181 440.256 463.395 445.506 453.697 445.322C449.079 445.235 438.37 441.221 433.821 441.918C420.401 443.975 408.114 442.999 409.589 434.393C411.449 423.532 424.968 419.325 440.351 418.57C453.752 417.912 466.65 419.402 470.175 429.162Z" fill="#BDBFC0"/>
<path d="M454.465 411.286C451.993 411.666 449.182 399.971 449.75 395.714L464.82 396.397L489.794 390.972C489.939 395.047 484.568 405.474 481.471 410.006C472.859 409.796 454.465 411.286 454.465 411.286Z" fill="#BDBFC0"/>
<path d="M404.778 363.966C399.084 365.69 395.772 373.039 395.495 376.296C393.635 387.157 407.887 397.824 406.394 395.459C405.199 393.567 414.276 387.739 418.527 384.671C410.709 377.625 407.773 373.063 404.778 363.966Z" fill="#BDBFC0"/>
<path d="M456.932 412.764C457.49 412.681 458.051 412.602 458.61 412.528C459.727 412.379 460.846 412.248 461.964 412.138C464.153 411.919 466.337 411.778 468.518 411.706C472.909 411.561 477.269 411.708 481.581 412.124C483.3 412.288 483.757 409.465 482.036 409.3C477.107 408.827 472.114 408.705 467.091 408.962C464.674 409.086 462.247 409.291 459.824 409.578C458.565 409.728 457.307 409.899 456.05 410.095C454.841 410.284 454.019 410.555 453.342 411.725C452.941 412.418 453.401 413.288 454.003 413.513C454.624 413.747 456.224 412.868 456.932 412.764Z" fill="black"/>
<path d="M393.996 375.398C394.401 379.795 394.96 384.288 396.941 388.101C398.848 391.77 401.73 394.595 405.329 396.49C406.789 397.259 407.907 394.635 406.46 393.874C403.309 392.212 400.698 389.509 399.147 386.231C397.496 382.746 397.035 378.772 396.671 374.833C396.512 373.096 393.835 373.653 393.996 375.398Z" fill="black"/>
<path d="M442.852 378.812C441.09 382.615 440.323 386.693 440.586 390.673C440.699 392.37 443.24 391.812 443.127 390.113C442.895 386.581 443.599 383.022 445.16 379.654C445.91 378.033 443.601 377.193 442.852 378.812Z" fill="black"/>
<path d="M457.233 417.306C464.049 418.647 472.021 421.924 472.636 430.097C473.263 438.424 465.523 444.499 458.497 447.041C456.817 447.647 455.415 445.714 457.11 445.101C460.586 443.843 464.144 442.042 466.625 439.009C469.076 436.014 470.223 432.19 468.932 428.791C467.546 425.14 465.519 423.281 461.97 422.029C461.956 422.079 461.94 422.129 461.921 422.18C459.627 428.41 457.244 434.612 454.773 440.784C454.116 442.426 451.274 441.487 451.893 439.847C454.233 433.633 456.744 427.478 459.041 421.243C459.041 421.241 459.042 421.239 459.043 421.237C457.058 420.722 455.736 420.519 453.848 420.262C449.129 419.619 444.893 419.548 440.039 419.974C439.35 425.508 438.444 432.293 437.754 437.425C437.521 439.159 434.402 438.971 434.633 437.248C435.393 431.575 436.156 425.9 436.919 420.228C436.92 420.219 436.922 420.21 436.923 420.201C435.989 420.319 435.055 420.456 434.122 420.614C430.819 421.174 428.33 421.852 425.088 422.895C424.151 423.196 423.207 423.523 422.274 423.892C422.617 428.722 423.234 433.489 424.126 438.183C424.444 439.857 421.019 440.517 420.706 438.865C419.85 434.367 419.248 429.797 418.897 425.171C417.62 425.826 416.472 426.153 415.349 427.089C412.903 429.13 410.784 432.278 410.875 435.457C410.981 439.147 418.541 442.464 418.541 442.464C418.541 442.464 416.926 444.508 414.225 443.283C410.75 441.706 407.869 439.906 407.502 436.193C407.095 432.072 409.519 427.861 412.657 425.052C415.613 422.407 419.262 420.893 422.843 419.707C426.645 418.447 430.523 417.523 434.407 416.932C442.109 415.76 449.861 415.856 457.233 417.306Z" fill="black"/>
<path d="M413.928 405.723C414.049 406.834 414.17 407.944 414.291 409.055C414.478 410.764 417.113 410.212 416.925 408.496C416.804 407.385 416.683 406.274 416.562 405.164C416.376 403.455 413.741 404.006 413.928 405.723Z" fill="black"/>
<path fill-rule="evenodd" clip-rule="evenodd" d="M401.636 362.848C400.892 361.306 403.453 360.065 404.193 361.593C406.577 366.52 409.316 371.227 412.394 375.674C413.771 377.662 415.574 380.437 417.739 381.612C419.302 382.46 421.78 382.645 423.271 381.039L423.267 381.038C424.531 379.676 426.618 381.226 425.34 382.603C423.396 384.699 420.769 385.398 418.263 384.859C416.728 384.529 415.442 383.73 414.322 382.711C413.21 384.481 410.092 386.22 408.097 386.896C405.099 387.909 402.163 387.036 400.2 384.906C398.191 382.727 397.404 379.463 398.015 376.305C398.626 373.154 401.772 369.893 404.069 367.598C403.224 366.036 402.412 364.452 401.636 362.848Z" fill="black"/>
<path fill-rule="evenodd" clip-rule="evenodd" d="M489.492 387.856C490.381 387.593 491.087 388.462 490.962 389.309C490.407 393.088 489.299 396.816 487.664 400.367C486.881 402.07 484.41 401.179 485.193 399.476C486.439 396.768 487.351 393.992 487.928 391.145C483.546 392.411 479.146 393.561 474.733 394.591C474.683 395.439 474.363 396.377 474.135 397.08C472.148 403.204 465.736 408.825 459.74 408.814C456.882 408.809 453.728 407.834 451.975 405.616C450.589 403.866 451.08 400.233 451.518 397.99C448.305 397.471 445.2 395.224 445.93 391.355L445.933 391.354C446.274 389.546 448.962 389.697 448.622 391.504C448.028 394.643 453.582 395.41 455.951 395.256C459.618 395.017 463.332 394.204 466.985 393.467C474.528 391.946 482.037 390.067 489.492 387.856Z" fill="black"/>
<path d="M411.736 382.452C411.406 384.376 408.325 386.508 404.816 385.907C401.308 385.306 399.246 382.715 399.576 380.791C399.905 378.867 402.01 381.208 405.518 381.809C409.026 382.41 412.065 380.528 411.736 382.452Z" fill="#24303F"/>
<path d="M469.023 401.388C469.374 403.308 466.599 406.479 462.284 407.267C457.969 408.055 454.579 406.432 454.229 404.512C453.878 402.591 457.223 403.965 461.537 403.177C465.852 402.389 468.673 399.468 469.023 401.388Z" fill="#24303F"/>
<path d="M406.98 374.045C406.767 375.289 405.423 376.52 404.065 376.287C402.707 376.055 401.849 374.447 402.062 373.202C402.276 371.957 403.69 370.317 405.048 370.55C406.406 370.782 407.193 372.8 406.98 374.045Z" fill="#BDBFC0"/>
<path d="M457.637 399.76C457.553 401.02 456.37 401.967 454.995 401.874C453.62 401.782 452.574 400.686 452.659 399.426C452.743 398.166 453.857 398.256 455.231 398.348C456.606 398.44 457.721 398.499 457.637 399.76Z" fill="#BDBFC0"/>
<path d="M419.891 353.526C421.858 342.043 425.874 342.034 429.737 339.307C446.64 344.211 487.792 357.448 481.141 360.431C474.489 363.414 467.759 377.568 467.654 384.99C458.328 379.096 455.501 377.131 451.906 371.032L449.765 383.531C437.333 375.186 434.055 365.654 434.055 365.654L432.44 375.08C424.536 369.668 418.277 362.952 419.891 353.526Z" fill="#186F56"/>
<path d="M496.929 385.022C465.003 352.998 414.083 349.458 387.98 352.44C398.903 340.391 427.208 314.822 456.489 318.194C501.581 323.386 535.896 336.968 555.91 371.923C568.898 394.607 544.134 475.155 496.626 475.454L465.039 461.608C499.223 460.292 537.248 425.464 496.929 385.022Z" fill="#CBCCCE"/>
<path d="M426.668 343.879C429.229 330.964 458.05 314.554 476.924 317.685C495.799 320.816 511.557 331.633 514.045 333.116C502.823 335.834 471.47 335.189 464.128 352.405C464.552 354.923 463.277 362.298 462.268 363.265C452.296 361.557 425.712 354.347 424.659 352.817C423.607 351.287 425.93 344.991 426.668 343.879Z" fill="#38509E"/>
<path d="M514.046 333.113C475.19 334.48 467.083 343.147 464.444 350.56L461.448 363.124C461.448 363.124 499.251 345.16 514.046 333.113Z" fill="#2B395E"/>
<g style="mix-blend-mode:hard-light">
<path d="M366.995 367.828C367.578 366.15 377.532 358.032 379.955 358.658C380.965 358.919 384.417 362.164 384.107 362.744C383.796 363.324 383.591 363.288 382.942 363.388C378.419 364.081 373.277 368.071 370.941 371.879C370.356 372.833 366.579 369.022 366.995 367.828Z" fill="#D9D9D9"/>
</g>
<g style="mix-blend-mode:hard-light">
<path d="M360.817 378.035C360.222 376.584 362.344 372.813 364.879 371.56C365.882 371.064 368.916 373.853 368.365 374.602C366.002 377.821 364.898 380.336 363.624 380.117C362.395 379.907 361.561 379.85 360.817 378.035Z" fill="#D9D9D9"/>
</g>
<path d="M519.541 395.853C519.541 395.853 554.182 399.947 563.219 414.868C568.435 423.48 561.2 455.387 548.252 457.824C535.925 460.144 514.751 455.568 507.793 450.894C524.715 434.599 525.993 407.437 519.541 395.853Z" fill="#38509E"/>
<ellipse cx="552.904" cy="434.595" rx="7.27623" ry="22.6603" transform="rotate(17.0618 552.904 434.595)" fill="#2B395E"/>
<path opacity="0.07" d="M328.192 537.723C323.212 512.614 357.778 441.338 357.778 441.338C357.778 441.338 311.36 488.226 288.035 522.197L328.192 537.723Z" fill="#999B9E"/>
<path d="M483.687 472.183C499.991 474.585 514.629 466.19 531.837 458.284C528.196 462.301 515.541 479.538 488.899 483.622C466.762 487.016 469.139 492.26 446.173 484.319L448.174 472.639C448.174 472.639 462.783 469.104 483.687 472.183Z" fill="#999B9E"/>
<path d="M436.064 574.127C439.877 556.825 435.018 545.72 416.398 523.934L467.215 532.638L488.879 594.563L436.064 574.127Z" fill="url(#paint1_linear_3002_5465)"/>
<path d="M398.396 445.551C402.32 447.547 404.792 448.376 408.905 449.461C394.952 467.919 383.21 493.031 375.621 514.433C389.696 519.708 406.07 526.278 421.094 533.054C409.436 531.53 393.21 525.675 391.565 529.858C390.719 532.012 400.093 542.005 403.849 548.643C394.359 541.754 382.497 533.955 371.58 526.752C368.54 536.888 366.725 545.461 366.411 551.016L356.856 547.693C355.397 542.141 357.419 532.016 361.424 520.018C348.716 511.518 339.286 504.775 340.021 502.904C340.283 502.237 350.408 505.315 364.862 510.488C373.758 487.389 387.883 460.427 398.396 445.551Z" fill="url(#paint2_linear_3002_5465)"/>
<path d="M484.158 496.521C486.864 520.397 469.743 528.304 449.997 530.955C440.341 532.252 426.702 527.809 426.702 527.809C426.702 527.809 434.63 536.052 440.843 542.421C460.531 562.607 457.678 582.114 478.312 595.918C492.888 605.669 532.075 610.57 537.846 604.217C547.145 593.98 553.713 579.456 553.331 565.529C552.879 548.998 550.421 545.679 540.23 529.959C533.046 518.877 515.127 511.358 502.716 506.15L502.585 506.094C494.28 502.61 484.158 496.521 484.158 496.521Z" fill="url(#paint3_linear_3002_5465)"/>
<path d="M531.472 608.597C522.887 609.102 516.134 610.289 505.938 608.4C495.851 606.12 494.562 605.146 483.411 600.993C481.245 600.087 479.122 599.02 477.132 597.681C469.125 592.44 464.378 584.852 462.027 581.394C459.057 576.99 459.926 575.907 456.565 569.425C453.22 562.948 451.447 559.02 448.317 553.557C446.972 551.219 444.097 546.994 440.271 542.979C435.171 537.581 429.51 531.721 426.486 528.977C426.323 528.832 426.134 528.656 425.975 528.508L427.014 526.85C433.619 528.519 441.096 530.596 445.802 530.778C447.308 530.854 448.498 530.859 449.414 530.847C449.803 530.841 449.988 530.893 449.999 530.969C449.999 530.969 449.999 530.969 449.999 530.97C450.011 531.064 449.75 531.198 449.246 531.262C446.813 531.583 443.14 531.678 438.795 531.38C432.969 530.909 430.981 530.128 426.405 528.72L427.393 527.145C428.656 528.485 430.223 530.095 432.399 532.214C435.966 535.686 438.952 538.445 441.972 541.32C445.581 544.788 449.016 548.732 452.476 554.824C458.811 566.007 459.966 569.088 468.538 584.004C472.316 589.688 475.987 592.375 479.331 594.394C484.433 597.175 489.23 598.365 499.455 600.772C511.184 603.312 528.803 606.25 535.988 602.529C538.904 599.463 541.101 596.423 542.586 593.983C546.857 586.964 551.01 576.792 550.801 565.598C550.734 562.629 550.622 559.677 550.291 556.748C549.764 548.135 543.809 540.029 538.126 531.323C534.511 525.905 528.598 521.787 522.886 518.265C516.927 514.596 509.351 511.042 501.903 507.718C494.883 504.505 488.579 500.718 483.536 497.556L485.359 496.385C485.599 499.182 485.555 501.694 485.349 503.743C483.527 514.799 481.475 517.919 472.994 524.441C467.817 528.021 459.405 530.341 452.32 530.897C448.743 531.172 449.521 530.743 453.021 530.026C458.13 528.947 462.29 527.891 464.641 526.569C469.228 523.803 471.123 522.806 476.147 518.873C480.96 514.487 480.74 510.82 481.696 507.416C482.164 504.835 483.111 504.17 482.485 496.711L482.059 493.345L485.026 495.078C487.576 496.592 491.124 498.588 496.181 501.017C498.721 502.229 501.124 503.3 503.385 504.187C517.661 509.667 526.026 514.026 531.669 517.918C534.573 519.952 538.932 523.266 542.342 528.59C546.002 534.609 550.699 541.169 553.275 548.216C554.976 552.672 555.681 559.023 555.836 565.46C556.366 578.056 550.495 590.776 546.974 596.634C543.737 602.118 541.781 603.936 539.7 605.901C537.325 607.967 535.011 608.191 531.472 608.597Z" fill="url(#paint4_linear_3002_5465)"/>
<path d="M355.767 456.096C355.677 454.534 357.051 451.141 359.634 450.069C361.953 449.105 384.559 459.44 384.663 460.819C384.767 462.198 382.817 466.965 381.363 467.51C380.394 467.873 373.221 464.074 373.221 464.074C371.805 468.384 370.611 470.739 367.863 474.835C367.863 474.835 375.661 477.078 375.986 478.38C376.312 479.682 373.215 485.955 371.342 485.634C368.809 485.2 346.924 474.716 346.357 473.305C345.721 471.723 349.445 467.188 350.849 466.932C352.254 466.676 358.236 470.805 358.236 470.805C358.243 470.111 364.478 460.722 364.327 460.396C364.034 459.761 355.813 456.897 355.767 456.096Z" fill="#A25831"/>
<path d="M363.356 467.299C367.366 481.531 366.594 489.697 357.043 500.774C350.392 508.489 344.024 513.618 337.415 517.354C330.038 521.525 319.594 535.862 310.884 538.219C302.174 540.577 268.824 519.835 275.469 505.855C279.211 497.984 277.985 467.435 283.083 461.401C286.657 457.172 291.735 455.031 291.735 455.031C291.735 455.031 294.676 445.318 299.942 440.244C310.864 429.724 320.972 428.977 334.752 436.504C344.784 441.984 359.859 454.889 363.356 467.299Z" fill="url(#paint5_linear_3002_5465)"/>
<path d="M277.457 485.603C276.99 492.169 275.961 497.886 273.821 504.797C273.787 504.878 273.754 504.954 273.722 505.025C271.821 509.546 273.09 512.483 274.087 514.882C275.239 517.307 276.755 519.704 279.888 523.284C286.379 530.565 295.057 534.88 298.79 536.949C302.673 538.869 303.135 538.766 309.52 539.594C310.054 539.604 310.673 539.553 311.209 539.422C316.631 537.81 319.137 535.112 322.568 531.801C325.408 529.188 331.81 521.507 337.75 517.947C339.931 516.753 341.783 515.614 343.083 514.853C348.223 511.906 352.563 506.653 355.072 503.598C355.869 502.647 356.452 501.859 356.875 501.241C357.054 500.978 357.091 500.815 357.033 500.765C357.033 500.765 357.033 500.765 357.033 500.765C357.032 500.765 357.032 500.765 357.032 500.765C357.032 500.765 357.032 500.765 357.032 500.765C356.96 500.702 356.74 500.814 356.466 501.11C355.132 502.55 353.045 504.631 350.324 506.766C345.174 510.589 345.184 511.77 337.694 516.089C337.438 516.228 337.182 516.364 336.929 516.495C329.535 520.973 326.169 525.129 318.995 531.764C315.767 534.687 313.136 536.167 310.485 536.745C307.524 537.026 303.19 535.51 296.011 532.113C289.639 528.909 286.645 526.142 283.963 523.34C281.501 520.461 278.331 517.394 276.756 511.395C276.447 509.788 276.553 508.178 277.235 506.695C281.189 492.753 279.725 478.449 281.299 471.002C281.786 468.179 282.276 464.552 283.992 462.168C286.033 459.74 288.974 457.577 292.172 456.07L292.668 455.854L292.813 455.358C293.936 451.8 295.497 448.067 297.601 444.695C298.445 443.358 299.419 442.047 300.579 440.904C304.523 437.023 309.579 433.378 315.498 432.524C321.406 431.608 327.476 433.597 332.708 436.142C333.297 436.427 333.863 436.713 334.465 437.03C346.356 443.177 359.309 456.425 362.245 464.505C362.672 465.509 363.004 466.454 363.257 467.327C364.902 473.616 365.897 476.212 365.444 483.719C365.114 488.685 361.943 494.971 358.243 499.338C356.389 501.56 356.834 501.067 358.666 498.819C361.337 495.493 363.009 492.398 363.845 490.368C365.407 486.297 365.928 484.354 365.705 478.818C365.217 473.295 364.501 470.739 363.709 467.622C363.672 467.486 363.635 467.356 363.6 467.23C362.418 464.724 363.761 463.013 353.568 450.951C346.316 443.125 340.006 438.798 335.062 435.936C332.337 434.4 329.995 433.326 327.902 432.544C324.981 431.457 320.028 430.041 314.565 431.018C309.084 431.915 303.951 435.351 300.16 438.782C299.882 439.03 299.594 439.293 299.296 439.573C295.755 442.896 292.723 448.618 290.669 454.709L291.302 454.005C287.7 455.622 284.528 457.88 282.147 460.61C279.403 464.549 279.32 468.118 278.72 470.548C277.314 478.852 277.867 478.903 277.457 485.603Z" fill="url(#paint6_linear_3002_5465)"/>
<path d="M316.047 517.501C306.45 520.024 277.278 504.955 277.278 504.955C277.278 504.955 273.731 510.886 275.733 513.971C285.519 534.419 307.918 539.099 310.002 539.245C312.087 539.392 317.747 534.666 319.187 533.647C320.627 532.629 332.248 521.327 334.219 519.77C336.415 518.037 343.539 514.617 348.239 510.571C367.235 496.951 367.484 479.488 364.04 470.039C364.716 487.028 328.194 514.309 316.047 517.501Z" fill="url(#paint7_linear_3002_5465)"/>
<path d="M298.264 451.391C299.001 447.088 313.618 434.405 323.453 436.09C329.354 437.1 342.564 446.429 336.153 446.913C329.743 447.397 314.88 457.822 309.991 458.04C306.081 458.214 297.411 456.371 298.264 451.391Z" fill="#557ACB"/>
<path d="M389.615 474.268C386.794 489.772 388.436 498.358 399.685 509.148C416.266 525.052 429.828 530.874 447.797 533.952C463.868 536.705 493.257 519.312 498.023 506.698C499.484 502.834 486.671 500.325 484.124 496.725C478.759 489.142 482.628 468.783 476.611 462.895C472.394 458.768 461.809 455.694 461.809 455.694C461.809 455.694 456.858 445.448 450.759 440.596C438.112 430.535 426.459 437.511 412.597 446.886L412.556 446.913C402.478 453.729 392.071 460.767 389.615 474.268Z" fill="#38509E"/>
<path d="M482.871 488.742C483.206 491.512 484.026 494.073 485.492 495.756C487.457 497.516 491.88 498.237 496.641 500.937C497.578 501.508 498.473 502.108 499.3 503.067C499.717 503.564 500.13 504.186 500.347 505.021C500.575 505.862 500.471 506.818 500.177 507.512C497.693 512.422 495.646 514.158 489.875 519.559C482.232 526.39 472.768 530.292 468.739 532.306C464.64 534.29 463.863 533.512 457.645 535.144C453.799 536.025 450.631 536.168 447.522 535.557C445.671 535.176 443.827 534.712 441.756 534.1C436.285 532.977 420.567 526.51 415.295 523.17C409.706 520.343 404.874 515.013 401.973 511.997C401.055 511.058 400.383 510.279 399.885 509.652C399.674 509.386 399.63 509.206 399.698 509.135C399.698 509.135 399.698 509.135 399.698 509.135C399.698 509.135 399.698 509.135 399.698 509.135C399.698 509.135 399.698 509.135 399.698 509.135C399.782 509.047 400.039 509.129 400.361 509.414C401.909 510.786 404.329 512.765 407.399 514.764C413.173 518.349 413.149 519.693 421.23 523.954C429.469 527.874 434.771 529.034 445.133 531.725C446.178 531.982 447.147 532.185 448.071 532.353C455.889 533.041 459.121 531.245 471.731 526.807C485.203 520.577 486.98 518.239 495.019 507.214C495.258 506.762 495.49 506.261 495.664 505.807C495.622 505.891 495.601 506.18 495.653 506.317C495.699 506.457 495.718 506.424 495.634 506.324C495.47 506.112 495.023 505.745 494.514 505.416C493.472 504.74 492.173 504.098 490.842 503.45C488.16 501.988 485.296 501.387 482.363 497.97C477.357 487.617 479.669 478.716 478.586 473.38C478.198 470.26 477.726 466.265 475.559 463.969C472.226 460.907 466.772 458.773 461.43 456.999L460.836 456.818L460.586 456.285C459.635 454.301 458.496 452.232 457.291 450.263C455.372 447.171 453.073 443.933 450.07 441.462C442.384 434.17 430.205 436.616 421.649 442.018C418.886 443.566 415.952 445.427 412.939 447.392C402.034 453.748 391.767 463.978 390.416 471.509C390.125 472.501 389.912 473.42 389.745 474.292C388.596 481.3 387.813 484.097 389.097 492.061C389.976 497.245 393.95 503.527 398.279 507.757C400.452 509.91 399.935 509.435 397.781 507.253C394.636 504.024 392.558 500.938 391.463 498.892C389.387 494.776 388.616 492.793 388.263 486.937C388.195 481.073 388.658 478.313 389.168 474.944C389.213 474.684 389.256 474.442 389.299 474.211C389.573 472.839 389.755 471.848 390.633 469.332C391.58 466.888 393.15 462.596 398.858 456.841C403.71 452.069 408.427 449.009 412.211 446.315C418.213 442.091 422.589 439.345 426.298 437.582C428.824 436.397 432.755 434.728 437.565 434.636C442.386 434.465 447.58 436.632 451.436 439.744C452.938 440.922 454.221 442.247 455.372 443.559C457.812 446.346 460.586 450.396 463.021 455.109L462.185 454.401C467.577 456.081 473.263 457.935 477.692 461.79C481.406 465.964 481.292 470.29 481.876 472.955C483.057 481.81 482.195 481.843 482.871 488.742Z" fill="#2B395E"/>
<path d="M399.671 511.999C377.902 491.321 387.02 475.03 393.634 463.508C391.002 486.258 396.946 494.658 404.47 501.22C415.06 510.456 423.931 513.201 429.587 517.123C434.124 518.955 451.37 524.834 463.602 522.949C479.416 520.513 496.864 506.078 496.864 506.078C496.864 506.078 490.595 516.816 487.745 519.913C480.544 527.737 453.081 542.976 439.56 541.4C432.019 531.249 410.804 522.574 399.671 511.999Z" fill="#2B395E"/>
<path d="M398.47 467.289C399.207 462.986 421.819 444.968 428.587 442.919C431.257 442.11 441.165 448.299 435.053 454.423C428.942 460.548 413.635 474.799 408.747 475.016C404.836 475.19 397.617 472.27 398.47 467.289Z" fill="#557ACB"/>
<g style="mix-blend-mode:multiply" opacity="0.3">
<path d="M433.698 392.072C434.677 396.561 435.04 402.091 425.08 404.265C422.514 404.824 417.791 406.086 418.387 403.118C418.982 400.15 422.681 398.337 426.677 394.938C429.44 392.589 432.718 387.583 433.698 392.072Z" fill="#2E7037"/>
</g>
<mask id="path-44-outside-1_3002_5465" maskUnits="userSpaceOnUse" x="-1.20048" y="-1.93079" width="455.434" height="439.347" fill="black">
<rect fill="white" x="-1.20048" y="-1.93079" width="455.434" height="439.347"/>
<path d="M158.033 160.743C164.549 131.113 186.373 105.927 211.472 90.4015C236.574 74.877 264.805 67.7508 292.623 62.5122C303.037 60.5509 313.883 58.8486 323.587 62.0307C333.291 65.215 341.488 74.707 340.273 85.9093C338.481 102.44 319.292 111.075 303.904 111.583C288.516 112.091 272.006 108.985 258.409 118.092C243.087 128.353 238.316 149.437 235.106 167.987C234.825 169.603 234.567 171.363 235.284 172.715C236.303 174.629 238.759 174.868 240.887 174.917C264.034 175.457 289.541 177.513 304.091 195.504C312.967 206.482 316.193 221.73 323.693 233.883C335.185 252.508 356.707 264.109 361.187 286.43C363.127 296.093 361.529 306.817 364.804 315.937C367.482 323.395 373.378 329.926 372.261 338.185C370.944 347.938 359.425 354.151 350.907 351.56C342.386 348.97 337.043 340.218 334.712 331.048C332.384 321.878 332.44 312.005 331.148 302.509C330.486 297.652 329.356 292.653 326.242 289.265C323.055 285.799 318.299 284.554 314.322 282.15C307.385 277.958 303.003 270.377 296.965 264.885C290.927 259.394 281.307 256.307 274.458 262.001C290.106 299.492 279.034 349.931 248.521 380.179C241.802 381.746 237.007 373.672 237.538 366.412C238.068 359.152 241.82 352.33 243.555 345.17C250.317 317.267 225.865 293.635 227.278 265.36C222.417 265.885 217.558 266.409 212.697 266.934C211.914 288.976 211.042 311.521 203.454 332.704C195.869 353.887 180.15 373.816 159.88 379.646C154.12 381.303 146.5 380.626 145.235 374.653C144.433 370.864 146.723 366.904 148.742 363.382C164.678 335.592 169.817 301.666 162.566 272.105C160.071 261.933 154.921 251.144 145.19 249.332C136.474 247.709 127.652 253.919 120.021 259.811C101.435 274.158 82.9053 288.592 64.4267 303.109C57.8964 296.521 47.8584 295.803 39.1426 292.885C30.4268 289.967 21.6586 282.077 23.9313 272.104C26.3204 261.615 38.2697 257.607 47.4217 252.682C55.9575 248.089 63.4709 240.986 68.835 232.436C74.3711 223.614 77.5501 213.509 82.4108 204.282C96.9358 176.71 127.502 158.938 155.468 161.803"/>
</mask>
<path d="M158.033 160.743C164.549 131.113 186.373 105.927 211.472 90.4015C236.574 74.877 264.805 67.7508 292.623 62.5122C303.037 60.5509 313.883 58.8486 323.587 62.0307C333.291 65.215 341.488 74.707 340.273 85.9093C338.481 102.44 319.292 111.075 303.904 111.583C288.516 112.091 272.006 108.985 258.409 118.092C243.087 128.353 238.316 149.437 235.106 167.987C234.825 169.603 234.567 171.363 235.284 172.715C236.303 174.629 238.759 174.868 240.887 174.917C264.034 175.457 289.541 177.513 304.091 195.504C312.967 206.482 316.193 221.73 323.693 233.883C335.185 252.508 356.707 264.109 361.187 286.43C363.127 296.093 361.529 306.817 364.804 315.937C367.482 323.395 373.378 329.926 372.261 338.185C370.944 347.938 359.425 354.151 350.907 351.56C342.386 348.97 337.043 340.218 334.712 331.048C332.384 321.878 332.44 312.005 331.148 302.509C330.486 297.652 329.356 292.653 326.242 289.265C323.055 285.799 318.299 284.554 314.322 282.15C307.385 277.958 303.003 270.377 296.965 264.885C290.927 259.394 281.307 256.307 274.458 262.001C290.106 299.492 279.034 349.931 248.521 380.179C241.802 381.746 237.007 373.672 237.538 366.412C238.068 359.152 241.82 352.33 243.555 345.17C250.317 317.267 225.865 293.635 227.278 265.36C222.417 265.885 217.558 266.409 212.697 266.934C211.914 288.976 211.042 311.521 203.454 332.704C195.869 353.887 180.15 373.816 159.88 379.646C154.12 381.303 146.5 380.626 145.235 374.653C144.433 370.864 146.723 366.904 148.742 363.382C164.678 335.592 169.817 301.666 162.566 272.105C160.071 261.933 154.921 251.144 145.19 249.332C136.474 247.709 127.652 253.919 120.021 259.811C101.435 274.158 82.9053 288.592 64.4267 303.109C57.8964 296.521 47.8584 295.803 39.1426 292.885C30.4268 289.967 21.6586 282.077 23.9313 272.104C26.3204 261.615 38.2697 257.607 47.4217 252.682C55.9575 248.089 63.4709 240.986 68.835 232.436C74.3711 223.614 77.5501 213.509 82.4108 204.282C96.9358 176.71 127.502 158.938 155.468 161.803" fill="url(#paint8_linear_3002_5465)"/>
<path d="M211.472 90.4015L210.31 88.5427L210.31 88.5427L211.472 90.4015ZM292.623 62.5122L292.982 64.6828L292.982 64.6828L292.623 62.5122ZM323.587 62.0307L324.364 59.9322L324.363 59.932L323.587 62.0307ZM340.273 85.9093L338.028 85.7434L338.028 85.7436L340.273 85.9093ZM258.409 118.092L259.644 119.904L259.644 119.904L258.409 118.092ZM235.106 167.987L237.332 168.292L237.332 168.29L235.106 167.987ZM235.284 172.715L233.274 173.782L233.276 173.785L235.284 172.715ZM240.887 174.917L241.011 172.707L241.011 172.707L240.887 174.917ZM304.091 195.504L305.877 194.099L305.877 194.099L304.091 195.504ZM323.693 233.883L325.635 232.697L325.635 232.697L323.693 233.883ZM361.187 286.43L358.971 286.92L358.971 286.921L361.187 286.43ZM364.804 315.937L366.936 315.147L366.936 315.147L364.804 315.937ZM372.261 338.185L370.024 337.962L370.024 337.962L372.261 338.185ZM350.907 351.56L351.637 349.447L351.636 349.447L350.907 351.56ZM334.712 331.048L332.521 331.643L332.521 331.644L334.712 331.048ZM331.148 302.509L333.386 302.15L333.386 302.15L331.148 302.509ZM326.242 289.265L327.94 287.758L327.94 287.758L326.242 289.265ZM314.322 282.15L315.55 280.259L315.55 280.259L314.322 282.15ZM274.458 262.001L273.029 260.335L271.744 261.403L272.365 262.892L274.458 262.001ZM248.521 380.179L248.979 382.329L249.629 382.177L250.103 381.708L248.521 380.179ZM243.555 345.17L241.359 344.723L241.359 344.723L243.555 345.17ZM227.278 265.36L229.533 265.399L229.659 262.886L227.1 263.162L227.278 265.36ZM212.697 266.934L212.518 264.737L210.51 264.954L210.44 266.926L212.697 266.934ZM203.454 332.704L201.327 332.03L201.327 332.03L203.454 332.704ZM159.88 379.646L159.306 377.526L159.306 377.526L159.88 379.646ZM145.235 374.653L147.446 374.14L147.446 374.14L145.235 374.653ZM148.742 363.382L150.703 364.419L150.703 364.419L148.742 363.382ZM162.566 272.105L164.762 271.526L164.762 271.526L162.566 272.105ZM145.19 249.332L144.702 251.505L144.702 251.505L145.19 249.332ZM120.021 259.811L121.384 261.53L121.384 261.53L120.021 259.811ZM64.4267 303.109L62.7834 304.674L64.1861 306.089L65.8057 304.816L64.4267 303.109ZM23.9313 272.104L26.134 272.521L26.134 272.521L23.9313 272.104ZM47.4217 252.682L46.3824 250.752L46.3821 250.752L47.4217 252.682ZM68.835 232.436L66.9216 231.321L66.9215 231.322L68.835 232.436ZM82.4108 204.282L84.4104 205.247L84.4104 205.247L82.4108 204.282ZM158.033 160.743L160.24 161.144C166.592 132.254 187.93 107.541 212.635 92.2602L211.472 90.4015L210.31 88.5427C184.816 104.312 162.505 129.971 155.827 160.342L158.033 160.743ZM211.472 90.4015L212.635 92.2603C237.352 76.9735 265.228 69.9094 292.982 64.6828L292.623 62.5122L292.263 60.3417C264.382 65.5922 235.796 72.7804 210.31 88.5427L211.472 90.4015ZM292.623 62.5122L292.982 64.6828C303.458 62.71 313.736 61.1534 322.811 64.1293L323.587 62.0307L324.363 59.932C314.03 56.5439 302.617 58.3918 292.263 60.3417L292.623 62.5122ZM323.587 62.0307L322.811 64.1291C331.777 67.0715 339.109 75.7782 338.028 85.7434L340.273 85.9093L342.518 86.0753C343.868 73.6357 334.805 63.3586 324.364 59.9322L323.587 62.0307ZM340.273 85.9093L338.028 85.7436C337.228 93.1255 332.554 98.8637 326.026 102.895C319.473 106.942 311.238 109.131 303.898 109.374L303.904 111.583L303.91 113.793C311.958 113.527 321.011 111.145 328.348 106.614C335.709 102.068 341.526 95.2237 342.518 86.0751L340.273 85.9093ZM303.904 111.583L303.898 109.374C300.126 109.498 296.28 109.401 292.331 109.323C288.41 109.246 284.4 109.188 280.429 109.405C272.475 109.842 264.469 111.393 257.175 116.279L258.409 118.092L259.644 119.904C265.947 115.683 272.995 114.234 280.542 113.82C284.321 113.613 288.173 113.666 292.1 113.744C296 113.821 299.988 113.922 303.91 113.793L303.904 111.583ZM258.409 118.092L257.175 116.279C248.973 121.772 243.716 130.081 240.114 139.189C236.514 148.292 234.488 158.395 232.881 167.683L235.106 167.987L237.332 168.29C238.934 159.029 240.9 149.316 244.318 140.674C247.734 132.037 252.524 124.673 259.644 119.904L258.409 118.092ZM235.106 167.987L232.881 167.682C232.742 168.486 232.576 169.487 232.564 170.492C232.551 171.504 232.688 172.678 233.274 173.782L235.284 172.715L237.294 171.648C237.163 171.401 237.071 171.018 237.078 170.409C237.086 169.791 237.19 169.104 237.332 168.292L235.106 167.987ZM235.284 172.715L233.276 173.785C234.134 175.397 235.577 176.215 236.942 176.629C238.263 177.029 239.675 177.102 240.764 177.127L240.887 174.917L241.011 172.707C239.972 172.683 239.091 172.611 238.397 172.401C237.748 172.205 237.454 171.947 237.293 171.646L235.284 172.715ZM240.887 174.917L240.764 177.127C264.056 177.671 288.47 179.803 302.304 196.909L304.091 195.504L305.877 194.099C290.613 175.224 264.013 173.244 241.011 172.707L240.887 174.917ZM304.091 195.504L302.304 196.909C306.539 202.147 309.469 208.458 312.32 215.157C315.136 221.77 317.894 228.819 321.751 235.069L323.693 233.883L325.635 232.697C321.991 226.793 319.387 220.142 316.496 213.349C313.641 206.641 310.519 199.839 305.877 194.099L304.091 195.504ZM323.693 233.883L321.751 235.069C327.639 244.611 336.164 252.444 343.371 260.278C350.688 268.231 356.85 276.354 358.971 286.92L361.187 286.43L363.402 285.939C361.043 274.185 354.205 265.347 346.768 257.263C339.221 249.06 331.239 241.78 325.635 232.697L323.693 233.883ZM361.187 286.43L358.971 286.921C359.901 291.552 359.982 296.426 360.24 301.564C360.493 306.603 360.919 311.845 362.672 316.728L364.804 315.937L366.936 315.147C365.415 310.91 365.002 306.229 364.75 301.21C364.503 296.29 364.413 290.97 363.402 285.939L361.187 286.43ZM364.804 315.937L362.672 316.727C363.388 318.722 364.308 320.625 365.229 322.434C366.17 324.28 367.082 325.974 367.895 327.726C369.504 331.195 370.499 334.443 370.024 337.962L372.261 338.185L374.499 338.408C375.14 333.668 373.745 329.521 372.016 325.795C371.159 323.95 370.165 322.097 369.282 320.363C368.38 318.591 367.559 316.881 366.936 315.147L364.804 315.937ZM372.261 338.185L370.024 337.962C369.475 342.024 366.785 345.459 363.155 347.622C359.504 349.798 355.172 350.522 351.637 349.447L350.907 351.56L350.176 353.673C355.159 355.189 360.846 354.102 365.413 351.381C370.002 348.646 373.73 344.099 374.499 338.408L372.261 338.185ZM350.907 351.56L351.636 349.447C344.208 347.189 339.168 339.358 336.904 330.451L334.712 331.048L332.521 331.644C334.919 341.077 340.563 350.751 350.177 353.673L350.907 351.56ZM334.712 331.048L336.904 330.452C335.783 326.036 335.226 321.412 334.79 316.636C334.359 311.914 334.04 306.96 333.386 302.15L331.148 302.509L328.91 302.867C329.548 307.553 329.847 312.284 330.293 317.165C330.734 321.993 331.313 326.89 332.521 331.643L334.712 331.048ZM331.148 302.509L333.386 302.15C332.722 297.28 331.541 291.674 327.94 287.758L326.242 289.265L324.544 290.773C327.172 293.631 328.25 298.025 328.91 302.867L331.148 302.509ZM326.242 289.265L327.94 287.758C326.08 285.735 323.812 284.416 321.656 283.335C319.381 282.195 317.448 281.406 315.55 280.259L314.322 282.15L313.094 284.042C315.173 285.298 317.606 286.334 319.501 287.284C321.513 288.293 323.217 289.33 324.544 290.773L326.242 289.265ZM314.322 282.15L315.55 280.259C312.384 278.346 309.735 275.618 307.04 272.537C304.411 269.532 301.667 266.098 298.529 263.244L296.965 264.885L295.402 266.527C298.301 269.164 300.767 272.266 303.573 275.473C306.312 278.604 309.323 281.763 313.094 284.042L314.322 282.15ZM296.965 264.885L298.529 263.244C295.266 260.277 290.993 257.911 286.503 257.076C281.968 256.233 277.101 256.949 273.029 260.335L274.458 262.001L275.888 263.668C278.665 261.359 282.032 260.771 285.529 261.421C289.07 262.079 292.626 264.002 295.402 266.527L296.965 264.885ZM274.458 262.001L272.365 262.892C287.661 299.54 276.82 349.029 246.94 378.65L248.521 380.179L250.103 381.708C281.248 350.833 292.551 299.444 276.552 261.111L274.458 262.001ZM248.521 380.179L248.063 378.029C245.89 378.536 243.823 377.585 242.167 375.292C240.5 372.985 239.559 369.651 239.789 366.502L237.538 366.412L235.286 366.322C234.985 370.433 236.176 374.767 238.454 377.92C240.742 381.087 244.433 383.389 248.979 382.329L248.521 380.179ZM237.538 366.412L239.789 366.502C240.033 363.175 241.019 359.885 242.229 356.408C243.411 353.013 244.849 349.336 245.751 345.616L243.555 345.17L241.359 344.723C240.526 348.163 239.221 351.478 237.96 355.099C236.728 358.638 235.574 362.389 235.286 366.322L237.538 366.412ZM243.555 345.17L245.75 345.617C249.311 330.924 244.612 317.455 239.532 304.554C234.374 291.452 228.855 278.968 229.533 265.399L227.278 265.36L225.024 265.32C224.289 280.027 230.289 293.496 235.313 306.255C240.415 319.214 244.561 331.512 241.359 344.723L243.555 345.17ZM227.278 265.36L227.1 263.162C224.669 263.425 222.239 263.687 219.809 263.95C217.379 264.212 214.949 264.474 212.518 264.737L212.697 266.934L212.875 269.131C215.306 268.869 217.736 268.607 220.166 268.344C222.596 268.082 225.026 267.82 227.457 267.557L227.278 265.36ZM212.697 266.934L210.44 266.926C209.656 289.023 208.779 311.225 201.327 332.03L203.454 332.704L205.582 333.377C213.305 311.818 214.172 288.929 214.953 266.942L212.697 266.934ZM203.454 332.704L201.327 332.03C193.868 352.859 178.559 371.989 159.306 377.526L159.88 379.646L160.454 381.765C181.741 375.643 197.87 354.914 205.582 333.377L203.454 332.704ZM159.88 379.646L159.306 377.526C156.717 378.271 153.801 378.455 151.503 377.87C149.277 377.303 147.864 376.112 147.446 374.14L145.235 374.653L143.024 375.165C143.871 379.167 146.9 381.301 150.241 382.152C153.508 382.984 157.282 382.678 160.454 381.765L159.88 379.646ZM145.235 374.653L147.446 374.14C147.164 372.806 147.399 371.323 148.043 369.632C148.693 367.925 149.673 366.213 150.703 364.419L148.742 363.382L146.782 362.345C145.792 364.072 144.618 366.101 143.818 368.202C143.012 370.319 142.504 372.711 143.024 375.166L145.235 374.653ZM148.742 363.382L150.703 364.419C166.914 336.147 172.15 301.645 164.762 271.526L162.566 272.105L160.37 272.684C167.484 301.687 162.442 335.036 146.782 362.346L148.742 363.382ZM162.566 272.105L164.762 271.526C163.483 266.309 161.495 260.807 158.49 256.33C155.48 251.845 151.32 248.21 145.677 247.16L145.19 249.332L144.702 251.505C148.79 252.266 152.072 254.931 154.693 258.837C157.32 262.75 159.155 267.729 160.37 272.684L162.566 272.105ZM145.19 249.332L145.678 247.16C140.648 246.223 135.731 247.577 131.238 249.783C126.755 251.984 122.477 255.142 118.657 258.091L120.021 259.811L121.384 261.53C125.196 258.587 129.145 255.695 133.16 253.723C137.165 251.757 141.016 250.818 144.702 251.505L145.19 249.332ZM120.021 259.811L118.658 258.091C100.067 272.442 81.5313 286.88 63.0476 301.401L64.4267 303.109L65.8057 304.816C84.2793 290.304 102.804 275.874 121.384 261.53L120.021 259.811ZM64.4267 303.109L66.0699 301.544C62.4404 297.883 57.8994 295.922 53.3452 294.511C51.0718 293.807 48.7324 293.222 46.4856 292.647C44.2145 292.066 42.0249 291.492 39.9317 290.791L39.1426 292.885L38.3534 294.979C40.6181 295.738 42.9517 296.347 45.2181 296.928C47.5089 297.514 49.7212 298.067 51.8632 298.731C56.1395 300.055 59.8826 301.748 62.7834 304.674L64.4267 303.109ZM39.1426 292.885L39.9317 290.791C35.8951 289.439 31.8846 286.941 29.1805 283.708C26.5017 280.505 25.182 276.699 26.134 272.521L23.9313 272.104L21.7287 271.687C20.4079 277.483 22.336 282.608 25.6521 286.573C28.9427 290.507 33.6743 293.413 38.3534 294.979L39.1426 292.885ZM23.9313 272.104L26.134 272.521C27.1446 268.084 30.1754 264.896 34.3633 262.127C36.4594 260.741 38.7855 259.501 41.2097 258.279C43.5878 257.08 46.1384 255.862 48.4613 254.612L47.4217 252.682L46.3821 250.752C44.129 251.965 41.754 253.095 39.2429 254.36C36.778 255.603 34.2514 256.943 31.9176 258.486C27.2456 261.575 23.1072 265.635 21.7287 271.687L23.9313 272.104ZM47.4217 252.682L48.4611 254.612C57.3737 249.817 65.1817 242.423 70.7484 233.55L68.835 232.436L66.9215 231.322C61.7601 239.548 54.5413 246.362 46.3824 250.752L47.4217 252.682ZM68.835 232.436L70.7483 233.551C73.6127 228.986 75.8477 224.121 77.9467 219.329C80.0652 214.491 82.0295 209.767 84.4104 205.247L82.4108 204.282L80.4113 203.317C77.9315 208.025 75.8759 212.966 73.8056 217.693C71.7159 222.465 69.5933 227.064 66.9216 231.321L68.835 232.436ZM82.4108 204.282L84.4104 205.247C98.5577 178.392 128.268 161.246 155.165 164.002L155.468 161.803L155.772 159.604C126.735 156.629 95.314 175.028 80.4113 203.317L82.4108 204.282Z" fill="url(#paint9_linear_3002_5465)" mask="url(#path-44-outside-1_3002_5465)"/>
<path d="M159.381 161.126C162.438 147.371 168.808 134.475 177.347 123.119C185.804 111.874 196.333 102.137 207.935 94.3438C220.003 86.2384 233.252 80.1453 246.817 75.4849C260.401 70.8174 274.339 67.5299 288.317 64.7875C301.669 62.1678 317.74 58.4511 329.403 66.5827C333.898 69.7156 337.444 74.4446 338.583 79.9903C339.725 85.5548 338.222 91.446 334.769 96.1502C331.291 100.89 326.134 104.191 320.868 106.427C315.325 108.781 309.344 109.994 303.457 110.157C291.364 110.493 278.888 108.62 266.961 112.455C261.012 114.368 255.558 117.753 251.212 122.416C246.866 127.076 243.703 132.664 241.289 138.503C238.746 144.657 237.039 151.1 235.666 157.554C234.98 160.777 234.379 164.012 233.814 167.252C233.274 170.343 232.979 173.888 236.113 175.46C238.886 176.851 242.596 176.39 245.662 176.496C249.067 176.616 252.466 176.787 255.855 177.054C262.601 177.583 269.314 178.49 275.814 180.198C282.089 181.848 288.144 184.259 293.512 187.846C298.962 191.488 303.422 196.313 306.802 201.973C313.432 213.07 316.596 226.077 323.853 236.809C330.347 246.41 339.066 254.035 346.624 262.702C350.284 266.9 353.67 271.374 356.188 276.406C358.947 281.923 360.289 287.863 360.71 294.127C361.158 300.814 360.962 307.702 362.733 314.146C364.329 319.958 367.908 324.762 369.899 330.386C370.834 333.029 371.322 335.97 370.736 338.833C370.15 341.695 368.466 344.359 366.237 346.354C361.825 350.297 355.51 351.799 350.215 349.782C344.486 347.597 340.596 342.29 338.187 336.797C335.366 330.368 334.526 323.16 333.894 316.11C333.265 309.098 333.202 301.626 331.008 294.968C329.982 291.857 328.413 289.043 325.921 286.953C323.327 284.779 320.157 283.558 317.161 282.038C305.788 276.272 301.117 262.114 288.415 258.334C283.363 256.831 277.895 257.426 273.524 260.971C272.995 261.4 272.96 262.163 273.188 262.714C279.397 277.678 281.219 294.456 279.473 310.944C277.708 327.601 272.272 344.143 263.502 358.733C261.314 362.371 258.92 365.889 256.325 369.255C255.018 370.949 253.658 372.602 252.243 374.207C251.612 374.923 250.973 375.628 250.322 376.326C249.587 377.113 248.826 378.125 247.966 378.768C247.811 378.883 247.664 378.904 247.213 378.928C246.799 378.949 246.382 378.931 245.979 378.86C245.142 378.71 244.383 378.367 243.684 377.905C242.154 376.893 241.056 375.324 240.279 373.662C238.37 369.571 238.796 365.062 240.005 360.662C241.422 355.51 243.699 350.593 244.94 345.396C245.809 341.746 246.219 338.022 246.151 334.319C246.018 326.96 244.193 319.889 241.834 313.091C237.045 299.292 229.707 285.946 228.74 270.906C228.622 269.067 228.612 267.215 228.697 265.363C228.729 264.647 228.131 263.839 227.356 263.922C222.494 264.447 217.636 264.971 212.774 265.496C212.019 265.577 211.307 266.09 211.277 266.937C210.322 293.85 209.335 322.618 195.302 347.096C189.743 356.796 182.303 365.785 172.957 371.969C168.52 374.907 163.527 377.417 158.394 378.558C154.499 379.422 148.36 379.412 146.811 374.981C145.84 372.199 147.201 369.096 148.549 366.569C150.018 363.812 151.624 361.131 153.036 358.339C155.94 352.599 158.426 346.658 160.451 340.58C164.454 328.57 166.727 316.018 167.14 303.537C167.54 291.403 166.415 278.798 162.735 267.419C160.992 262.027 158.516 256.619 154.452 252.699C150.543 248.926 145.369 247.064 139.801 247.823C134.297 248.575 129.191 251.501 124.6 254.698C118.884 258.677 113.451 263.128 107.94 267.398C96.0311 276.624 84.1458 285.884 72.2866 295.177C69.3528 297.475 66.4204 299.776 63.4895 302.08L65.4948 302.107C59.3246 296.011 50.5661 294.679 42.4744 292.383C36.265 290.621 30.026 287.48 26.7532 281.647C25.2719 279.008 24.6011 275.922 25.2077 272.807C25.8772 269.364 27.8643 266.425 30.4673 264.089C35.9755 259.151 43.1507 256.793 49.4276 253.171C56.6956 248.976 63.0353 243.096 67.9617 236.23C73.579 228.402 76.887 219.34 80.8383 210.669C87.3074 196.464 97.2442 184.229 110.246 175.555C122.227 167.563 136.302 162.735 150.345 162.952C152.034 162.977 153.716 163.079 155.391 163.247C157.194 163.427 157.343 160.544 155.546 160.366C141.268 158.944 126.509 162.789 113.716 170.12C100.472 177.711 89.1056 189.071 81.7429 202.592C77.0136 211.28 73.9796 220.735 69.07 229.336C64.6624 237.058 58.5642 243.854 51.1862 248.786C44.7245 253.104 37.2758 255.525 30.9745 260.127C25.1494 264.381 21.0262 270.995 22.4242 278.246C23.6948 284.84 29.0787 289.809 34.7596 292.638C42.1619 296.32 50.9083 296.582 58.2391 300.431C60.1182 301.418 61.8463 302.628 63.3552 304.12C63.9292 304.685 64.7088 304.657 65.3605 304.147C77.336 294.738 89.3376 285.362 101.362 276.02C107.374 271.351 113.391 266.689 119.414 262.037C124.196 258.343 129.081 254.484 134.656 252.18C139.815 250.047 145.389 249.828 149.976 252.846C154.621 255.902 157.414 261.204 159.33 266.371C161.411 271.985 162.549 278.06 163.352 284.048C164.181 290.214 164.49 296.469 164.322 302.743C163.986 315.387 161.719 328.057 157.624 340.212C155.576 346.293 153.082 352.245 150.115 357.968C148.681 360.736 147.011 363.388 145.634 366.18C144.256 368.971 143.201 372.011 143.84 375.035C144.885 379.978 149.786 381.886 154.398 381.879C159.454 381.872 164.583 379.812 169.129 377.474C179.078 372.361 187.34 364.103 193.704 354.869C209.472 331.995 212.534 303.997 213.704 277.539C213.86 274.008 213.986 270.476 214.112 266.947L212.616 268.387C217.477 267.862 222.336 267.338 227.197 266.813L225.856 265.372C225.116 281.316 232.176 295.567 237.567 309.785C240.2 316.737 242.543 323.948 243.173 331.509C243.48 335.192 243.331 338.973 242.662 342.664C241.721 347.845 239.548 352.726 237.951 357.746C236.451 362.46 235.39 367.489 236.689 372.228C237.709 375.957 239.928 379.6 243.53 381.151C245.017 381.792 247.562 382.322 249.149 381.443C250.007 380.97 250.775 379.891 251.45 379.183C252.188 378.407 252.916 377.618 253.63 376.82C256.577 373.522 259.327 370.041 261.852 366.408C271.984 351.832 278.548 334.923 281.393 317.668C284.2 300.642 283.303 282.983 277.876 267.024C277.219 265.093 276.503 263.185 275.722 261.304L275.386 263.046C279.876 259.403 285.839 260.001 290.5 262.284C296.19 265.069 300.022 270.203 304.103 274.879C306.318 277.419 308.643 279.876 311.332 281.911C314.021 283.945 317.257 285.248 320.298 286.825C323.359 288.411 325.853 290.439 327.37 293.624C328.887 296.81 329.397 300.136 329.835 303.52C331.641 317.425 330.818 332.667 339.101 344.358C342.549 349.223 347.786 353.181 353.971 353.572C359.762 353.938 365.986 351.201 369.872 346.597C373.99 341.716 374.639 335.473 372.717 329.785C370.775 324.033 367.043 319.143 365.458 313.237C363.689 306.642 363.973 299.615 363.443 292.794C362.959 286.562 361.525 280.644 358.798 275.142C353.606 264.669 344.991 256.639 337.144 248.309C333.201 244.122 329.325 239.805 326.116 234.99C322.483 229.538 319.855 223.475 317.302 217.413C314.72 211.282 312.188 205.074 308.662 199.461C305.137 193.847 300.672 189.145 295.246 185.487C284.123 177.989 270.358 175.389 256.986 174.265C253.531 173.975 250.064 173.787 246.593 173.659C244.908 173.596 243.224 173.547 241.54 173.505C240.124 173.471 238.317 173.566 237.144 172.684C235.866 171.72 236.223 169.817 236.458 168.379C236.718 166.774 237.017 165.17 237.315 163.568C237.935 160.248 238.623 156.934 239.426 153.645C242.43 141.336 247.281 127.942 258.004 120.083C268.61 112.31 281.828 112.785 293.918 113.025C300.002 113.146 306.089 113.271 312.159 112.047C318.021 110.869 323.885 108.682 328.965 105.283C333.861 102.008 338.035 97.5729 340.215 92.021C342.438 86.36 342.255 80.1405 339.934 74.7993C337.613 69.458 333.557 65.383 328.701 62.696C322.643 59.3434 315.424 58.5503 308.448 58.9164C300.909 59.3092 293.384 60.8869 285.938 62.3733C278.92 63.7741 271.922 65.3223 264.973 67.122C250.931 70.7592 237.047 75.4525 223.883 81.9466C211.076 88.2665 199.065 96.3454 188.625 106.328C178.262 116.239 169.471 127.907 163.374 140.888C160.434 147.144 158.175 153.678 156.684 160.374C156.282 162.184 158.972 162.97 159.379 161.141L159.381 161.126Z" fill="url(#paint10_linear_3002_5465)"/>
<path d="M330.484 95.4114C325.099 89.4484 319.717 83.486 314.332 77.5253C313.367 76.4567 312.369 75.3634 311.067 74.7933C306.817 72.9284 301.788 77.5003 299.809 82.3155C295.137 93.6749 301.538 107.63 312.369 109.704" fill="white"/>
<path d="M331.552 94.4048C326.893 89.245 322.235 84.0859 317.576 78.9261C315.686 76.8331 313.797 74.0677 310.972 73.1978C308.862 72.5492 306.518 73.1337 304.611 74.3408C295.486 80.1108 295.213 93.5057 299.738 101.657C302.328 106.323 306.596 110.011 311.915 111.088C313.675 111.445 314.596 108.67 312.819 108.311C304.404 106.606 299.365 97.8486 299.697 89.3934C299.867 85.0496 301.431 80.531 304.881 77.5886C306.274 76.4019 308.151 75.4495 309.93 75.9382C311.081 76.2532 311.938 77.1039 312.73 77.9488C313.756 79.0399 314.742 80.1703 315.746 81.283C320.301 86.327 324.858 91.374 329.413 96.418C330.615 97.7515 332.754 95.7382 331.554 94.4077L331.552 94.4048Z" fill="#39783A"/>
<path d="M317.974 83.3927C313.315 87.6874 308.602 93.0051 308.109 99.3143C307.617 105.624 320.657 109.672 330.598 95.5426" fill="#2D2020"/>
<path d="M317.041 82.3605C313.179 85.9374 309.382 90.0304 307.6 95.0685C306.592 97.9145 306.115 101.007 307.98 103.4C311.162 107.484 317.501 107.032 321.94 105.012C325.964 103.179 329.212 99.8792 331.773 96.2804C332.871 94.7361 330.511 93.2686 329.418 94.8043C326.091 99.476 320.999 103.895 315.122 103.642C313.455 103.572 311.729 103.01 310.693 102.028C310.553 101.894 310.425 101.754 310.295 101.609C310.235 101.538 309.985 101.2 310.079 101.34C309.99 101.206 309.914 101.065 309.841 100.921C309.809 100.859 309.611 100.363 309.678 100.569C309.339 99.5251 309.568 98.3246 309.92 97.0199C311.286 91.9494 315.141 87.9055 318.908 84.4177C320.296 83.133 318.426 81.0721 317.04 82.3552L317.041 82.3605Z" fill="#39783A"/>
<path d="M354.975 81.9485C364.322 82.3662 373.417 84.4313 381.916 88.0158C381.859 87.1449 381.801 86.2711 381.745 85.4002C373.334 89.9198 364.92 94.4387 356.509 98.9583C354.914 99.8165 352.752 100.593 352.387 102.647C352.206 103.663 352.496 104.711 352.676 105.688C352.871 106.753 353.077 107.817 353.293 108.877C354.17 113.175 355.213 117.429 356.427 121.621C357.766 126.247 359.313 130.799 361.044 135.264C361.608 134.57 362.174 133.875 362.738 133.181C355.431 132.02 348.124 130.859 340.819 129.698C339.912 129.554 339.089 130.069 338.98 131.078C337.965 140.732 337.241 150.397 336.813 160.061C337.627 159.727 338.442 159.393 339.254 159.059C334.403 154.392 329.551 149.726 324.7 145.059C323.436 143.844 321.327 145.836 322.597 147.056C327.448 151.722 332.3 156.389 337.151 161.055C337.977 161.85 339.534 161.367 339.593 160.053C340.023 150.389 340.747 140.725 341.761 131.07C341.148 131.529 340.535 131.988 339.922 132.45C347.229 133.611 354.536 134.772 361.841 135.933C363.052 136.126 363.995 135.031 363.535 133.85C360.681 126.485 358.38 118.877 356.646 111.095C356.208 109.127 355.805 107.147 355.438 105.16C355.346 104.665 355.238 104.168 355.168 103.664C355.098 103.16 355.041 103.034 355.447 102.678C356.176 102.044 357.309 101.663 358.153 101.21C362.046 99.1178 365.938 97.0279 369.831 94.9358C374.209 92.5838 378.591 90.23 382.97 87.878C384.168 87.235 383.82 85.6918 382.799 85.2624C374.078 81.5845 364.711 79.5218 355.124 79.0935C353.341 79.0131 353.182 81.8679 354.965 81.9483L354.975 81.9485Z" fill="#FEB963"/>
<defs>
<linearGradient id="paint0_linear_3002_5465" x1="427.148" y1="514.969" x2="408.466" y2="567.176" gradientUnits="userSpaceOnUse">
<stop stop-color="#CBCCCE"/>
<stop offset="1" stop-color="#666768" stop-opacity="0"/>
</linearGradient>
<linearGradient id="paint1_linear_3002_5465" x1="457.482" y1="530.971" x2="449.493" y2="576.584" gradientUnits="userSpaceOnUse">
<stop stop-color="#999B9E"/>
<stop offset="1" stop-color="#363738" stop-opacity="0"/>
</linearGradient>
<linearGradient id="paint2_linear_3002_5465" x1="393.112" y1="444.646" x2="374.651" y2="552.428" gradientUnits="userSpaceOnUse">
<stop stop-color="#999B9E"/>
<stop offset="1" stop-color="#363738" stop-opacity="0"/>
</linearGradient>
<linearGradient id="paint3_linear_3002_5465" x1="495.922" y1="515.278" x2="483.316" y2="588.871" gradientUnits="userSpaceOnUse">
<stop offset="0.533654" stop-color="#CBCCCE"/>
<stop offset="1" stop-color="#CBCCCE" stop-opacity="0"/>
</linearGradient>
<linearGradient id="paint4_linear_3002_5465" x1="498.616" y1="498.998" x2="481.143" y2="601.014" gradientUnits="userSpaceOnUse">
<stop stop-color="#999B9E"/>
<stop offset="1" stop-color="#363738" stop-opacity="0"/>
</linearGradient>
<linearGradient id="paint5_linear_3002_5465" x1="343.834" y1="441.871" x2="292.859" y2="530.708" gradientUnits="userSpaceOnUse">
<stop offset="0.778846" stop-color="#38509E"/>
<stop offset="1" stop-color="#38509E" stop-opacity="0"/>
</linearGradient>
<linearGradient id="paint6_linear_3002_5465" x1="317.726" y1="499.256" x2="297.736" y2="522.453" gradientUnits="userSpaceOnUse">
<stop stop-color="#2B395E"/>
<stop offset="1" stop-color="#2B395E" stop-opacity="0"/>
</linearGradient>
<linearGradient id="paint7_linear_3002_5465" x1="349.041" y1="492.065" x2="286.446" y2="552.984" gradientUnits="userSpaceOnUse">
<stop stop-color="#2B395E"/>
<stop offset="1" stop-color="#2B395E" stop-opacity="0"/>
</linearGradient>
<linearGradient id="paint8_linear_3002_5465" x1="281.25" y1="49.9546" x2="187.097" y2="367.171" gradientUnits="userSpaceOnUse">
<stop stop-color="#65A543"/>
<stop offset="1" stop-color="#65A543" stop-opacity="0"/>
</linearGradient>
<linearGradient id="paint9_linear_3002_5465" x1="281.252" y1="49.9547" x2="184.573" y2="389.608" gradientUnits="userSpaceOnUse">
<stop stop-color="#22522F"/>
<stop offset="1" stop-color="#13321B" stop-opacity="0"/>
</linearGradient>
<linearGradient id="paint10_linear_3002_5465" x1="281.689" y1="48.5686" x2="184.223" y2="390.988" gradientUnits="userSpaceOnUse">
<stop stop-color="#207139"/>
<stop offset="1" stop-color="#231F20" stop-opacity="0"/>
</linearGradient>
</defs>
</svg>
