<svg width="399" height="362" viewBox="0 0 399 362" fill="none" xmlns="http://www.w3.org/2000/svg">
<path d="M198.13 310.36C283.833 310.36 353.31 240.884 353.31 155.18C353.31 69.4764 283.833 0 198.13 0C112.426 0 42.95 69.4764 42.95 155.18C42.95 240.884 112.426 310.36 198.13 310.36Z" fill="#FBC95F"/>
<path d="M198.13 290.36C272.788 290.36 333.31 229.838 333.31 155.18C333.31 80.5221 272.788 20 198.13 20C123.472 20 62.95 80.5221 62.95 155.18C62.95 229.838 123.472 290.36 198.13 290.36Z" fill="#F5E3A3"/>
<path d="M70.95 155.18C70.95 225.36 127.79 282.26 197.95 282.36V28C127.79 28.1 70.95 85 70.95 155.18Z" fill="#FCCE60"/>
<path d="M198.13 28C198.07 28 198.01 28 197.95 28V282.36C198.01 282.36 198.07 282.36 198.13 282.36C268.37 282.36 325.31 225.42 325.31 155.18C325.31 84.94 268.37 28 198.13 28Z" fill="#F8BC2B"/>
<path d="M192.14 329.2C173.66 328.58 146.22 323.85 131.34 317.14C115.63 310.29 100.7 300.42 87.55 287.99C74.49 275.65 63.23 260.73 54.61 244.16C45.78 227.23 39.74 208.68 36.91 189.8C34.11 171.22 34.32 152.22 37.5 134.04C37.64 133.22 37.78 132.4 37.93 131.58C38.18 130.16 38.44 128.74 38.72 127.33C39.12 125.32 38.12 123.33 36.37 122.68C34.55 122 32.68 123.06 32.12 125.12C27.37 142.57 25.79 162.63 28.08 183.98C30.19 203.86 35.72 223.65 44.3 241.97C52.77 260.1 64.29 276.66 78 290.55C91.28 304.04 106.63 315.02 123 322.92C138.84 330.85 168.32 336.93 186.01 337.24C188.03 337.31 190.09 337.33 192.14 337.3C193.39 337.28 194.46 336.73 195.15 335.85C195.71 335.14 196.03 334.22 196.01 333.2C195.96 331.01 194.32 329.31 192.14 329.21V329.2Z" fill="#AD5526" stroke="#F7941D" stroke-miterlimit="10"/>
<path d="M5.19997 127.36C2.61997 127.91 4.04997 135.87 4.27997 138.42C5.92997 148.42 11.98 157.04 19.58 160.23C21.99 161.42 32.15 164.04 30.01 157.96C31.81 141.99 18.03 126.08 5.18997 127.35L5.19997 127.36Z" fill="#F9C126" stroke="#F7941D" stroke-miterlimit="10"/>
<path d="M30.05 157.22C27.74 162.85 37.97 162.27 40.38 161.62C48.02 160.03 54.22 153.38 56.8 144.94C57.23 142.7 59.59 136.09 57.18 134.86C44.95 129.58 28.8 140.47 30.05 157.22Z" fill="#F9C126" stroke="#F7941D" stroke-miterlimit="10"/>
<path d="M1.63998 166C-1.05002 167.1 1.75998 175.62 2.41998 178.39C5.79998 189.11 13.69 197.43 22.35 199.49C25.12 200.34 36.43 201.29 33.16 195.03C32.49 177.2 15.23 162.17 1.63998 166Z" fill="#F9C126" stroke="#F7941D" stroke-miterlimit="10"/>
<path d="M33.07 194.21C31.52 200.82 42.38 198.27 44.86 197.12C52.79 193.97 58.39 185.62 59.84 175.95C59.95 173.42 61.46 165.81 58.68 164.87C44.69 161.15 29 176.02 33.07 194.21Z" fill="#F9C126" stroke="#F7941D" stroke-miterlimit="10"/>
<path d="M5.58997 211.72C3.02997 213.64 7.77997 222.15 9.06997 224.98C14.91 235.72 24.92 242.59 34.37 242.54C37.43 242.71 49.41 240.83 44.65 234.93C40.15 215.91 18.93 203.91 5.58997 211.72Z" fill="#F9C126" stroke="#F7941D" stroke-miterlimit="10"/>
<path d="M44.38 234.06C44.18 241.58 54.96 236.06 57.31 234.22C64.92 228.86 69.04 218.59 68.58 207.89C68.17 205.16 68.2 196.64 65.08 196.27C49.56 195.46 36.21 215.46 44.38 234.06Z" fill="#F9C126" stroke="#F7941D" stroke-miterlimit="10"/>
<path d="M25.59 267.99C23.62 271.07 31.03 278.36 33.2 280.89C42.4 290.14 54.53 293.56 63.99 289.93C67.1 288.93 78.61 282.52 72.03 278.01C61.76 259.47 36.56 254.29 25.59 267.98V267.99Z" fill="#F9C126" stroke="#F7941D" stroke-miterlimit="10"/>
<path d="M71.5 277.2C73.56 285.24 82.8 275.45 84.66 272.7C90.81 264.32 92.06 252.14 88.5 241.01C87.29 238.27 84.88 229.25 81.55 229.9C65.23 234.15 57.57 260.43 71.5 277.2Z" fill="#F9C126" stroke="#F7941D" stroke-miterlimit="10"/>
<path d="M63.86 318.65C62.83 322.64 72.33 327.58 75.23 329.44C87.08 335.78 100.02 334.89 108.37 327.77C111.15 325.6 120.83 314.95 112.98 312.56C97.48 296.82 70.6 300.04 63.86 318.65Z" fill="#F9C126" stroke="#F7941D" stroke-miterlimit="10"/>
<path d="M112.22 311.89C116.54 319.51 123.04 306.2 124.18 302.76C128.06 292.05 126.09 279.17 119.47 268.82C117.5 266.38 112.61 257.83 109.37 259.54C93.75 269.08 93.49 299.29 112.22 311.89Z" fill="#F9C126" stroke="#F7941D" stroke-miterlimit="10"/>
<path d="M113.26 353.47C113.43 357.99 124.12 359.69 127.48 360.59C140.85 362.91 153.17 357.39 159.43 347.25C161.54 344.05 168.3 329.98 159.9 330.18C140.3 319.27 114.34 331.58 113.27 353.48L113.26 353.47Z" fill="#F9C126" stroke="#F7941D" stroke-miterlimit="10"/>
<path d="M158.96 329.74C165.26 336.03 168.22 320.36 168.5 316.54C169.64 304.46 164.46 292.17 155.1 283.74C152.48 281.89 145.33 274.72 142.47 277.45C128.99 291.96 137.02 323.22 158.95 329.73L158.96 329.74Z" fill="#F9C126" stroke="#F7941D" stroke-miterlimit="10"/>
<path d="M41.9 99.44C40.22 97.43 35.92 101.94 34.4 103.18C28.87 108.68 26.32 117.57 28.16 125.75C28.61 128.42 32.24 138.63 35.13 134.1C46.69 128.62 49.36 109.89 41.9 99.43V99.44Z" fill="#F9C126" stroke="#F7941D" stroke-miterlimit="10"/>
<path d="M204.68 328.17C223.17 327.73 250.65 323.28 265.59 316.71C281.37 310.02 296.4 300.3 309.66 287.99C322.84 275.78 334.24 260.97 343.03 244.49C352.02 227.64 358.25 209.16 361.27 190.3C364.26 171.75 364.23 152.75 361.23 134.54C361.09 133.72 360.96 132.89 360.83 132.07C360.59 130.65 360.35 129.22 360.09 127.81C359.71 125.79 360.73 123.81 362.48 123.18C364.31 122.52 366.17 123.6 366.71 125.66C371.28 143.16 372.67 163.23 370.17 184.56C367.86 204.41 362.14 224.15 353.38 242.39C344.73 260.43 333.04 276.88 319.21 290.64C305.79 304 290.34 314.83 273.89 322.57C257.97 330.35 228.44 336.13 210.74 336.27C208.72 336.32 206.66 336.32 204.61 336.27C203.36 336.24 202.3 335.68 201.61 334.79C201.06 334.08 200.75 333.16 200.78 332.14C200.85 329.95 202.51 328.27 204.68 328.19V328.17Z" fill="#AD5526" stroke="#F7941D" stroke-miterlimit="10"/>
<path d="M393.6 128.18C396.18 128.76 394.66 136.7 394.41 139.25C392.66 149.23 386.52 157.79 378.89 160.91C376.47 162.08 366.28 164.59 368.48 158.54C366.84 142.56 380.77 126.78 393.6 128.18Z" fill="#F8BE1D" stroke="#F7941D" stroke-miterlimit="10"/>
<path d="M368.46 157.8C370.71 163.46 360.49 162.77 358.09 162.1C350.47 160.43 344.33 153.73 341.83 145.26C341.42 143.01 339.13 136.39 341.55 135.17C353.83 130.01 369.87 141.06 368.46 157.8Z" fill="#F8BE1D" stroke="#F7941D" stroke-miterlimit="10"/>
<path d="M396.78 166.86C399.45 167.99 396.57 176.48 395.88 179.24C392.39 189.93 384.42 198.17 375.74 200.14C372.96 200.96 361.64 201.8 364.98 195.57C365.82 177.75 383.24 162.88 396.78 166.85V166.86Z" fill="#F8BE1D" stroke="#F7941D" stroke-miterlimit="10"/>
<path d="M365.07 194.75C366.56 201.38 355.72 198.72 353.25 197.55C345.35 194.33 339.83 185.92 338.48 176.24C338.4 173.71 336.96 166.09 339.75 165.17C353.78 161.58 369.32 176.61 365.07 194.76V194.75Z" fill="#F8BE1D" stroke="#F7941D" stroke-miterlimit="10"/>
<path d="M392.39 212.53C394.93 214.48 390.1 222.93 388.78 225.75C382.84 236.43 372.75 243.2 363.31 243.06C360.25 243.2 348.29 241.21 353.1 235.35C357.79 216.37 379.13 204.59 392.39 212.53Z" fill="#F8BE1D" stroke="#F7941D" stroke-miterlimit="10"/>
<path d="M353.38 234.5C353.51 242.02 342.78 236.4 340.45 234.54C332.89 229.11 328.87 218.79 329.44 208.1C329.88 205.37 329.93 196.85 333.05 196.51C348.58 195.85 361.73 215.98 353.37 234.5H353.38Z" fill="#F8BE1D" stroke="#F7941D" stroke-miterlimit="10"/>
<path d="M371.83 268.61C373.77 271.71 366.29 278.92 364.09 281.43C354.8 290.59 342.63 293.88 333.21 290.17C330.11 289.14 318.66 282.61 325.29 278.18C335.74 259.74 361 254.81 371.83 268.61Z" fill="#F8BE1D" stroke="#F7941D" stroke-miterlimit="10"/>
<path d="M325.83 277.36C323.69 285.38 314.55 275.5 312.72 272.73C306.66 264.29 305.53 252.1 309.19 241C310.43 238.27 312.93 229.28 316.25 229.96C332.53 234.37 339.92 260.73 325.83 277.36Z" fill="#F8BE1D" stroke="#F7941D" stroke-miterlimit="10"/>
<path d="M333.06 318.88C334.05 322.88 324.5 327.72 321.58 329.56C309.67 335.78 296.73 334.77 288.46 327.56C285.7 325.36 276.13 314.62 284 312.31C299.65 296.73 326.5 300.21 333.06 318.88Z" fill="#F8BE1D" stroke="#F7941D" stroke-miterlimit="10"/>
<path d="M284.77 311.65C280.37 319.23 274 305.85 272.9 302.4C269.12 291.66 271.22 278.79 277.95 268.51C279.95 266.09 284.92 257.59 288.14 259.33C303.66 269.02 303.62 299.24 284.78 311.65H284.77Z" fill="#F8BE1D" stroke="#F7941D" stroke-miterlimit="10"/>
<path d="M283.31 353.21C283.1 357.73 272.39 359.33 269.02 360.19C255.63 362.38 243.37 356.73 237.2 346.53C235.12 343.31 228.5 329.17 236.9 329.45C256.6 318.73 282.44 331.3 283.3 353.21H283.31Z" fill="#F8BE1D" stroke="#F7941D" stroke-miterlimit="10"/>
<path d="M237.85 329.04C231.49 335.27 228.68 319.57 228.44 315.75C227.42 303.66 232.72 291.42 242.16 283.09C244.79 281.27 252.02 274.17 254.85 276.93C268.18 291.58 259.85 322.75 237.85 329.05V329.04Z" fill="#F8BE1D" stroke="#F7941D" stroke-miterlimit="10"/>
<path d="M357.19 99.91C358.89 97.92 363.15 102.47 364.65 103.72C370.12 109.27 372.59 118.19 370.67 126.35C370.2 129.01 366.46 139.19 363.62 134.64C352.11 129.04 349.63 110.29 357.2 99.91H357.19Z" fill="#F8BE1D" stroke="#F7941D" stroke-miterlimit="10"/>
</svg>
