<svg width="1518" height="1357" viewBox="0 0 1518 1357" fill="none" xmlns="http://www.w3.org/2000/svg">
<path d="M1268 955.5C1138.8 899.1 1039.17 910.667 1005.5 923.5C1000.33 967.167 997 1049.1 1025 1027.5C1053 1005.9 1099 999.167 1118.5 998.5C1141.67 999.833 1206.1 1009.4 1278.5 1037C1369 1071.5 1453 1040.5 1475 1019C1497 997.5 1514.5 923.5 1516.5 883C1518.5 842.5 1506 806.5 1500 798C1495.2 791.2 1438.33 761.833 1410.5 748C1413.33 753.167 1427.8 769.9 1463 795.5C1498.2 821.1 1477.67 891.5 1463 923.5C1451.83 957.667 1397.2 1011.9 1268 955.5Z" fill="#242424"/>
<path d="M1096.5 982L1044 997.5L1038 1022C1047.33 1010.83 1090.22 997.566 1132 999.5C1155.5 1000.59 1187 1011 1214.5 1018.5C1262.16 1031.5 1308 1048.5 1323.5 1050.5C1331.03 1051.47 1368.17 1052.83 1386 1052.5C1401.5 1050.17 1437.2 1042.8 1456 1032C1479.5 1018.5 1479.5 1019.5 1493 992C1503.8 970 1511.5 926.5 1514 907.5V895.5L1512 902.5L1511 875L1507.5 898L1500.5 945.5V922C1497.67 930 1491 952.4 1487 978C1482 1010 1466 1003 1456 1019.5C1448 1032.7 1421 1035.33 1408.5 1035L1428 1019.5L1384 1029C1370.67 1030.33 1340.3 1033.4 1325.5 1035C1310.7 1036.6 1274.33 1025.33 1258 1019.5L1274 1012.5H1233.5C1212.83 1006.17 1166.9 992.5 1148.5 988.5C1130.1 984.5 1101.17 990.167 1089 993.5L1096.5 982Z" fill="#151515"/>
<path d="M1463.43 832.63L1408.9 747L1516.49 769.137L1458.04 779.758L1463.43 832.63Z" fill="#160E04"/>
<path d="M1409 747.5L1458 780L1463 832L1409 747.5Z" fill="black"/>
<path d="M1060.5 924.5H1093L1087.5 914C1109.1 911.2 1161.17 922.167 1184.5 928L1165.5 935.5L1222 945L1204 948L1296.5 980.5L1252.5 959C1273.33 964 1323.1 975.3 1355.5 980.5C1396 987 1429 962.5 1438 959C1445.2 956.2 1454.67 942.167 1458.5 935.5L1477 895L1494.5 825C1498.1 838.2 1487.67 884.833 1482 906.5C1491 898.5 1499 855 1500.5 859.5C1501.7 863.1 1492 904.333 1487 924.5C1471.5 939.833 1441.6 970.5 1446 970.5C1450.4 970.5 1471.83 958.833 1482 953L1429 999C1414.6 1019.4 1338.67 1007.5 1302.5 999C1275.83 984.5 1207.3 955 1146.5 953C1085.7 951 1044.83 959.5 1032 964L1093 942L1060.5 924.5Z" fill="#383838"/>
<path d="M605 1222C575.8 1236 536.833 1244.17 521 1246.5L508 1140.5L482.5 882.5L572 782.5L777.5 739.5L851.5 882.5L813 1203.5L768.5 1222L695.5 1203.5C677.5 1203.83 634.2 1208 605 1222Z" fill="black" stroke="black"/>
<path d="M798 1050L686.5 1115C697.3 1131 738.333 1130 757.5 1127.5L798 1086V1050Z" fill="#1E1E1E" stroke="#151515"/>
<path d="M527.5 1063L532 1013L553 1056L597.5 1104.5L639 1125C638.333 1130 629.1 1139.7 597.5 1138.5C565.9 1137.3 537.667 1087.67 527.5 1063Z" fill="#1E1E1E"/>
<path d="M910 568C898.4 540.4 926 512.333 928.5 497L692.5 480L474.5 515.5C470.5 524.167 459.9 546.5 449.5 566.5C439.1 586.5 427.833 625.5 423.5 642.5L518 666.5L769.5 672L935.5 690C933.167 677.833 927.4 648.7 923 629.5C918.6 610.3 904 577.333 910 568Z" fill="#323232"/>
<path d="M551 578L542 550.5L532.5 522.5H499.5L478.5 538L460 595L478.5 600L512.5 605.5H538.5L551 578Z" fill="#1B1B1B"/>
<path d="M745 985.5L782.5 971.5L796 995.5L773.5 1030L739 1025.5L745 985.5Z" fill="#252525"/>
<path d="M726.5 979.5L770.5 929L805.5 945L811.5 1001.5L798.5 1026L779.5 986.5C770.667 979.833 750.5 971.9 740.5 993.5C730.5 1015.1 730 1035.5 731 1043L721 1021L726.5 979.5Z" fill="#151515" stroke="#151515"/>
<path d="M960.569 804.807C930.307 810.25 914.148 796.005 880 864L813.893 1098.31L847.662 1230.84L956.997 1281.64L976.907 1281.92L1033.49 1282.72C1041.04 1282.83 1070.75 1291.63 1084.66 1296.02C1094.39 1300 1115.31 1307.98 1121.18 1308.06C1127.05 1308.15 1130.07 1297.01 1130.84 1291.43L1149.63 1296.93C1158.71 1297.41 1178.56 1297.13 1185.34 1292.2C1192.11 1287.26 1188.37 1275.47 1185.65 1270.19C1190.92 1267.47 1201.92 1260.99 1203.65 1256.82C1205.82 1251.61 1192.91 1201.12 1173.06 1196.65C1157.17 1193.07 1147.58 1194.89 1144.76 1196.25L1132.31 1187.69L1044.28 1186.45L994.146 1174.21C1017.87 1101.88 1063.76 949.641 1057.48 919.367C1051.2 889.093 1029.03 855.381 1018.73 842.31C1011.96 827.541 990.831 799.364 960.569 804.807Z" fill="#383838"/>
<path d="M1121.2 1306.22L1049.19 1284.24L984.372 1272.84L878.077 1229.42L831.35 975.124L898.74 878.6L950.352 860.461C944.857 878.55 936.889 923.367 948.98 957.915C961.07 992.463 980.387 985.259 988.534 977.338L1031.5 903.528C1028.02 927.236 1020.76 981.565 1019.53 1009.22C1018.3 1036.87 997.212 1080.52 986.822 1098.89C980.48 1127.45 969.633 1188.16 976.977 1202.52C984.321 1216.88 979.772 1227.36 976.579 1230.81C1007.31 1231.59 1072.92 1236.99 1089.47 1252.31C1106.02 1267.64 1117.61 1288.35 1121.34 1296.78L1121.2 1306.22Z" fill="#242424"/>
<path d="M820.446 1079.53L821.376 1013.52L838.792 967.644L844.43 1013.84C855.686 983.604 879.698 920.846 885.696 911.707C891.694 902.568 913.463 899.87 923.598 899.664L938.667 871.577L919.952 860.833L951.566 848.701L976.347 875.252L969.853 889.834C962.311 904.401 947.168 937.727 946.932 954.494C946.636 975.452 962.93 1009.22 963.078 998.742L963.639 958.922C963.58 963.113 966.861 978.182 968.509 985.193L975.018 969.563C982.801 962.685 1000.28 947.28 1007.92 940.679C1017.47 932.429 1031.74 886.514 1034.82 890.749C1037.91 894.985 1026.91 931.514 1025.73 940.93C1024.79 948.463 1001.94 968.195 990.633 977.12L974.457 1009.38C970.389 1025.4 959.5 1059.27 948.496 1066.66C934.74 1075.9 941.722 1101.16 935.183 1118.88C929.953 1133.06 950.026 1156.47 960.716 1166.41L947.094 1166.21C942.902 1166.15 935.75 1167.94 940.674 1175.56C945.597 1183.17 944.565 1196.92 943.433 1202.85L933.811 1216.34L991.445 1217.15L946.267 1224.9L971.092 1248.3C982.579 1251.26 1013.31 1257.28 1044.33 1257.72C1075.34 1258.16 1070.21 1280.44 1063.76 1291.53L1014.63 1282.46L990.53 1282.12L945.529 1277.29L914.388 1255.89L862.17 1242.58L823.693 1146.66L820.446 1079.53Z" fill="#151515"/>
<path d="M820.797 1054.63L846.551 1086.44L862.031 1023.71C862.664 1020.04 863.503 1016.83 864.336 1014.37L862.031 1023.71C859.895 1036.09 860.122 1053.62 870.963 1064.77C885.014 1079.22 907.408 1032.09 916.849 1006.72L921.557 1044.52L882.829 1115.25C877.732 1129.85 872.74 1161.85 893.544 1173.04C896.486 1187.41 908.439 1216.85 932.715 1219.71C956.991 1222.57 961.239 1253.3 960.329 1268.31L918.768 1242.57L881.043 1242.04L836.618 1196.35L820.192 1097.6L820.797 1054.63Z" fill="black"/>
<path d="M998.416 1056.8C1017.79 1044.54 1042.7 982.722 1052.81 953.089L1052.54 971.951L1031.53 1050.26L1007.25 1136.91L989.936 1175.45L986.704 1181.69L990.113 1162.87L972.195 1169.96C980.387 1158.89 998.269 1134.48 1004.27 1125.34C1011.76 1113.92 1028.65 1031.36 1027.54 1035.53C1026.67 1038.81 1008.1 1050.87 998.416 1056.8C998.241 1056.92 998.066 1057.02 997.891 1057.13C998.063 1057.02 998.238 1056.91 998.416 1056.8Z" fill="#636363"/>
<path d="M1150.93 1279.38C1172.52 1293.94 1181.05 1273.87 1182.62 1262.01L1170.44 1233.54L1154.91 1219.7L1177.91 1224.21L1192.12 1256.91C1199.65 1257.85 1201.66 1249.7 1201.71 1245.51C1202.74 1247.27 1204.77 1251.63 1204.73 1254.99C1204.68 1258.34 1197.63 1262.57 1194.11 1264.27L1186.69 1270.45L1188.67 1278.87C1188.63 1281.31 1188.13 1287.24 1186.39 1291.41C1184.22 1296.62 1168.51 1296.4 1160.11 1297.33C1153.39 1298.07 1140.59 1293.91 1135.03 1291.74L1133.16 1275.99L1131.33 1257.1L1116.89 1240.12L1140.86 1249.89L1150.93 1279.38Z" fill="#242424"/>
<path d="M1123.17 1241.26C1136.48 1248.16 1140.09 1279.93 1140.24 1293.91L1128.75 1291.65C1126.81 1280.09 1122.96 1255.72 1123.03 1250.69C1123.1 1245.66 1082.82 1228.46 1062.67 1220.49C1077.29 1224.54 1109.85 1234.36 1123.17 1241.26Z" fill="black"/>
<path d="M1163.13 1221.44C1177.47 1225.81 1186.76 1256.41 1189.44 1270.13L1184.6 1270.06C1180.61 1259.04 1169.36 1235.62 1164.7 1230.74C1161.23 1227.1 1063.21 1207.63 1041.95 1203.43C1057.05 1204.77 1148.78 1217.06 1163.13 1221.44Z" fill="black"/>
<path d="M915.934 848.447C945.015 807.771 960.6 802.61 964.757 805.114L990.778 818.058L1019.6 855.148L990.586 831.681C983.285 829.132 966.165 824.21 956.094 824.906C946.022 825.603 925.124 840.89 915.934 848.447Z" fill="#6A6A6A"/>
<path d="M878.475 977.884C879.668 952.746 898.208 941.129 907.329 938.463C910.124 938.502 916.333 939.218 918.812 941.769C921.292 944.319 917.533 958.171 915.344 964.778L897.293 981.293L877.678 1034.47C877.447 1026.08 877.283 1003.02 878.475 977.884Z" fill="#383838"/>
<path d="M945.511 832.094L948.522 841.569L929.527 850.734C924.243 853.804 913.44 861.827 912.495 869.36C911.551 876.893 902.567 904.507 898.194 917.372L885.397 932.913L869.428 950.506C861.542 964.719 845.492 997.962 844.382 1017.23C843.566 1031.39 844.986 1044.95 846.452 1053.78L847.954 1061.3C847.515 1059.54 846.981 1056.96 846.452 1053.78L836.205 1002.44L849.326 963.848L874.092 917.032L898.799 874.408L923.373 841.215L945.511 832.094Z" fill="#383838"/>
<path d="M1139.5 1204.5L1128.5 1197.5L1094 1200L1131.5 1211L1174.5 1219L1180.5 1215C1177.83 1212.33 1170.4 1206.1 1162 1202.5C1153.6 1198.9 1143.5 1202.33 1139.5 1204.5Z" fill="#535353"/>
<path d="M1193.34 1256.61C1186.45 1249.46 1190.11 1234.4 1192.8 1227.76C1219.06 1219.37 1230.79 1245.36 1234.85 1259.01C1235.66 1261.76 1234.9 1261.77 1234.9 1261.77C1234.9 1261.77 1204.05 1254.57 1193.34 1256.61Z" fill="#160E04"/>
<path d="M1157.05 1282.82C1148.92 1272.5 1156.69 1254.29 1161.59 1246.47C1199.1 1241.04 1210.41 1275.98 1213.48 1293.9C1214.1 1297.52 1213.05 1297.39 1213.05 1297.39C1213.05 1297.39 1172.1 1282.34 1157.05 1282.82Z" fill="#160E04"/>
<path d="M1116.16 1298.47C1106.81 1289.24 1112.27 1270.21 1116.16 1261.85C1152.71 1251.81 1168.26 1285.08 1173.53 1302.49C1174.59 1306 1173.53 1306 1173.53 1306C1173.53 1306 1131.03 1296.13 1116.16 1298.47Z" fill="#160E04"/>
<path d="M1117.5 1270L1121.5 1264L1141.5 1267C1145.1 1267 1156 1277.67 1161 1283C1162.83 1285.5 1164.7 1288.7 1157.5 1281.5C1150.3 1274.3 1127.83 1270.83 1117.5 1270Z" fill="#FFFFD2"/>
<path d="M1161.73 1252.9L1166.47 1247.46L1185.92 1253C1189.49 1253.46 1198.93 1265.43 1203.21 1271.36C1204.71 1274.07 1206.15 1277.49 1199.93 1269.42C1193.71 1261.36 1171.87 1255.05 1161.73 1252.9Z" fill="#FFFFD2"/>
<path d="M1192.51 1235.8L1195.05 1229.56L1210.53 1231.26C1213.28 1231.03 1222.48 1240.95 1226.74 1245.94C1228.35 1248.31 1230.04 1251.38 1223.95 1244.67C1217.85 1237.96 1200.45 1235.96 1192.51 1235.8Z" fill="#FFFFD2"/>
<path d="M1020.5 1179.5L1002 1182L1015.5 1193.5L1010.5 1199.5L1007.5 1202L1023 1218.5L1044.5 1225L1062.5 1216L1028 1212V1196.5H1062.5L1051 1193.5L1031 1185L1020.5 1179.5Z" fill="#535353"/>
<path d="M535 972L547 931.5L573 957.5L577 979L616 1016L650.5 1020.5L663 1034C660.167 1037 648.5 1041.8 624.5 1037C600.5 1032.2 575.167 1013 565.5 1004L535 972Z" fill="#252525"/>
<path d="M365.925 774.807C395.885 780.25 470.988 917.601 504.794 985.596L511.136 1068.31L477.705 1200.84L369.461 1251.64L349.75 1251.92L293.729 1252.72C286.26 1252.83 256.845 1261.63 243.071 1266.02C233.442 1270 212.731 1277.98 206.921 1278.06C201.112 1278.15 198.12 1267.01 197.351 1261.43L178.75 1266.93C169.764 1267.41 150.114 1267.13 143.404 1262.2C136.695 1257.26 140.404 1245.47 143.098 1240.19C137.872 1237.47 126.99 1230.99 125.271 1226.82C123.123 1221.61 135.909 1171.12 155.561 1166.65C171.283 1163.07 180.786 1164.89 183.572 1166.25L195.904 1157.69L283.048 1156.45L332.684 1144.21C309.193 1071.88 263.766 919.641 269.985 889.367C276.204 859.093 298.146 825.381 308.341 812.31C315.052 797.541 335.965 769.364 365.925 774.807Z" fill="#383838"/>
<path d="M206.896 1276.22L278.186 1254.24L342.36 1242.84L447.593 1199.42L493.854 945.124L427.137 848.6L376.04 830.461C381.48 848.551 389.369 893.367 377.399 927.915C365.429 962.463 346.305 955.259 338.24 947.338L295.705 873.528C299.148 897.236 306.339 951.565 307.555 979.218C308.771 1006.87 329.648 1050.52 339.935 1068.89C346.213 1097.45 356.951 1158.16 349.681 1172.52C342.41 1186.88 346.914 1197.36 350.075 1200.81C319.649 1201.59 254.699 1206.99 238.311 1222.31C221.922 1237.64 210.451 1258.35 206.764 1266.78L206.896 1276.22Z" fill="#242424"/>
<path d="M504.648 1049.53L503.728 983.515L486.486 937.644L480.904 983.84C469.76 953.604 445.988 890.846 440.05 881.707C434.112 872.568 412.561 869.87 402.527 869.664L387.609 841.577L406.136 830.833L374.838 818.701L350.305 845.252L356.734 859.834C364.201 874.401 379.192 907.727 379.426 924.494C379.719 945.452 363.587 979.221 363.441 968.742L362.886 928.922C362.944 933.113 359.696 948.182 358.064 955.193L351.62 939.563C343.915 932.685 326.614 917.28 319.051 910.679C309.597 902.429 295.468 856.514 292.414 860.749C289.36 864.985 300.246 901.514 301.415 910.93C302.35 918.463 324.969 938.195 336.161 947.12L352.176 979.383C356.204 995.397 366.983 1029.27 377.878 1036.66C391.496 1045.9 384.584 1071.16 391.057 1088.88C396.236 1103.06 376.363 1126.47 365.779 1136.41L379.266 1136.21C383.415 1136.15 390.496 1137.94 385.622 1145.56C380.747 1153.17 381.769 1166.92 382.889 1172.85L392.416 1186.34L335.358 1187.15L380.084 1194.9L355.507 1218.3C344.134 1221.26 313.712 1227.28 283.004 1227.72C252.296 1228.16 257.38 1250.44 263.761 1261.53L312.403 1252.46L336.264 1252.12L380.815 1247.29L411.645 1225.89L463.341 1212.58L501.434 1116.66L504.648 1049.53Z" fill="#151515"/>
<path d="M504.301 1024.63L478.804 1056.44L463.478 993.708C462.852 990.044 462.021 986.831 461.197 984.369L463.478 993.708C465.594 1006.09 465.369 1023.62 454.636 1034.77C440.726 1049.22 418.555 1002.09 409.208 976.723L404.547 1014.52L442.888 1085.25C447.934 1099.85 452.877 1131.85 432.28 1143.04C429.368 1157.41 417.534 1186.85 393.501 1189.71C369.468 1192.57 365.262 1223.3 366.163 1238.31L407.309 1212.57L444.656 1212.04L488.637 1166.35L504.9 1067.6L504.301 1024.63Z" fill="black"/>
<path d="M328.456 1026.8C309.275 1014.54 284.617 952.722 274.606 923.089L274.869 941.951L295.676 1020.26L319.712 1106.91L336.852 1145.45L340.052 1151.69L336.676 1132.87L354.415 1139.96C346.305 1128.89 328.602 1104.48 322.664 1095.34C315.241 1083.92 298.525 1001.36 299.621 1005.53C300.482 1008.81 318.873 1020.87 328.456 1026.8C328.63 1026.92 328.803 1027.02 328.976 1027.13C328.806 1027.02 328.632 1026.91 328.456 1026.8Z" fill="#636363"/>
<path d="M177.468 1249.38C156.088 1263.94 147.645 1243.87 146.096 1232.01L158.151 1203.54L173.522 1189.7L150.758 1194.21L136.687 1226.91C129.229 1227.85 127.247 1219.7 127.189 1215.51C126.176 1217.27 124.161 1221.63 124.208 1224.99C124.255 1228.34 131.232 1232.57 134.714 1234.27L142.064 1240.45L140.106 1248.87C140.14 1251.31 140.638 1257.24 142.356 1261.41C144.504 1266.62 160.065 1266.4 168.379 1267.33C175.03 1268.07 187.701 1263.91 193.204 1261.74L195.06 1245.99L196.872 1227.1L211.162 1210.12L187.433 1219.89L177.468 1249.38Z" fill="#242424"/>
<path d="M204.952 1211.26C191.767 1218.16 188.197 1249.93 188.047 1263.91L199.429 1261.65C201.343 1250.09 205.154 1225.72 205.084 1220.69C205.014 1215.66 244.896 1198.46 264.845 1190.49C250.375 1194.54 218.138 1204.36 204.952 1211.26Z" fill="black"/>
<path d="M165.39 1191.44C151.188 1195.81 141.992 1226.41 139.342 1240.13L144.133 1240.06C148.084 1229.04 159.218 1205.62 163.832 1200.74C167.27 1197.1 264.313 1177.63 285.36 1173.43C270.403 1174.77 179.593 1187.06 165.39 1191.44Z" fill="black"/>
<path d="M410.114 818.447C381.323 777.771 365.894 772.61 361.779 775.114L336.018 788.058L307.482 825.148L336.208 801.681C343.436 799.132 360.385 794.209 370.356 794.906C380.327 795.603 401.016 810.89 410.114 818.447Z" fill="#6A6A6A"/>
<path d="M447.199 947.884C446.018 922.746 427.663 911.129 418.633 908.463C415.866 908.502 409.72 909.218 407.265 911.769C404.81 914.319 408.531 928.171 410.699 934.778L428.569 951.293L447.988 1004.47C448.217 996.082 448.379 973.022 447.199 947.884Z" fill="#383838"/>
<path d="M380.832 802.094L377.852 811.569L396.657 820.734C401.888 823.804 412.583 831.827 413.519 839.36C414.454 846.893 423.347 874.507 427.677 887.372L440.346 902.913L456.155 920.506C463.963 934.719 479.853 967.962 480.952 987.232C481.759 1001.39 480.354 1014.95 478.902 1023.78L477.416 1031.3C477.849 1029.54 478.379 1026.96 478.902 1023.78L489.046 972.443L476.057 933.848L451.538 887.032L427.078 844.408L402.75 811.215L380.832 802.094Z" fill="#383838"/>
<path d="M188.782 1174.5L199.672 1167.5L233.827 1170L196.702 1181L154.131 1189L148.191 1185C150.831 1182.33 158.19 1176.1 166.506 1172.5C174.823 1168.9 184.822 1172.33 188.782 1174.5Z" fill="#535353"/>
<path d="M135.481 1226.61C142.302 1219.46 138.675 1204.4 136.009 1197.76C110.013 1189.37 98.406 1215.36 94.3883 1229.01C93.5778 1231.76 94.3377 1231.77 94.3377 1231.77C94.3377 1231.77 124.876 1224.57 135.481 1226.61Z" fill="#160E04"/>
<path d="M171.403 1252.82C179.455 1242.5 171.765 1224.29 166.913 1216.47C129.782 1211.04 118.578 1245.98 115.539 1263.9C114.926 1267.52 115.97 1267.39 115.97 1267.39C115.97 1267.39 156.505 1252.34 171.403 1252.82Z" fill="#160E04"/>
<path d="M211.887 1268.47C221.142 1259.24 215.743 1240.21 211.887 1231.85C175.707 1221.81 160.307 1255.08 155.094 1272.49C154.042 1276 155.094 1276 155.094 1276C155.094 1276 197.163 1266.13 211.887 1268.47Z" fill="#160E04"/>
<path d="M210.562 1240L206.602 1234L186.802 1237C183.238 1237 172.447 1247.67 167.496 1253C165.681 1255.5 163.833 1258.7 170.961 1251.5C178.09 1244.3 200.332 1240.83 210.562 1240Z" fill="#FFFFD2"/>
<path d="M166.774 1222.9L162.086 1217.46L142.829 1223C139.294 1223.46 129.943 1235.43 125.709 1241.36C124.226 1244.07 122.799 1247.49 128.956 1239.42C135.113 1231.36 156.733 1225.05 166.774 1222.9Z" fill="#FFFFD2"/>
<path d="M136.303 1205.8L133.79 1199.56L118.457 1201.26C115.743 1201.03 106.63 1210.95 102.412 1215.94C100.82 1218.31 99.1446 1221.38 105.177 1214.67C111.21 1207.96 128.442 1205.96 136.303 1205.8Z" fill="#FFFFD2"/>
<path d="M306.593 1149.5L324.908 1152L311.543 1163.5L316.493 1169.5L319.463 1172L304.118 1188.5L282.833 1195L265.012 1186L299.168 1182V1166.5H265.012L276.398 1163.5L296.198 1155L306.593 1149.5Z" fill="#535353"/>
<path d="M764.775 906.515C753.571 863.522 758.231 797.248 761.961 769.486L772.739 666.046L826.74 625.423L917.819 653.513C924.17 669.759 937.83 703.657 941.668 709.285C946.464 716.32 953.394 784.908 949.084 792.502C944.773 800.096 901.256 880.017 899.806 893.941C898.645 905.081 868.312 1025.72 853.291 1084.65L858.314 1157.06L847.58 1178.06L851.63 1197.08L894.667 1232.73L905.017 1268.5C903.262 1275.69 896.133 1292 881.653 1299.74C867.172 1307.49 853.876 1299.36 849.038 1294.34C847.4 1297.18 839.688 1303.01 821.934 1303.58C804.18 1304.14 799.645 1295.56 799.597 1291.2L803.275 1280.02C797.355 1291.8 779.059 1312.68 753.233 1301.95C727.406 1291.21 734.067 1268.78 740.625 1258.91L787.157 1183.83L781.719 1139.53L794.878 1109.73C794.377 1098.45 793.646 1063.65 794.725 1014.7C796.073 953.512 778.781 960.256 764.775 906.515Z" fill="#323232"/>
<path d="M810.396 1026.89C811.74 990.836 789.559 956.687 778.301 944.119L765.558 921.678L758.909 845.579C761.192 818.838 772.167 755.971 797.796 718.424C829.832 671.492 838.514 689.488 833.489 689.468C829.469 689.451 821.184 701.423 817.543 707.412C806.226 729.189 781.402 782.169 772.648 819.864C763.894 857.56 771.222 907.522 775.981 927.791L814.471 920.239L838.725 914.22C850.578 895.347 874.355 859.82 874.636 868.697C874.918 877.574 871.168 897.157 869.258 905.84L848.847 932.87C848.153 936.316 845.512 957.155 840.504 1012.94C834.244 1082.66 790.024 1140.39 800.136 1125.36C810.249 1110.33 808.716 1071.96 810.396 1026.89Z" fill="#242424"/>
<path d="M877.21 704.077L908.076 663.558L920.798 666.894L939.364 701.002C941.429 706.914 945.954 721.696 947.537 733.524C949.12 745.352 950.261 776.538 950.633 790.652L919.156 846.692C912.725 861.774 900.257 888.157 901.833 873.039L904.061 851.654L932.585 799.831C938.325 775.294 936.883 755.594 935.322 739.792C931.407 700.173 942.47 710.877 912.714 768.604C914.638 764.615 925.513 715.243 925.936 699.603C926.359 683.962 907.36 688.116 905.122 691.904C891.061 735.18 856.56 768.785 847.162 775.347C857.78 758.356 866.983 742.725 870.257 737.034L877.21 704.077Z" fill="#242424"/>
<path d="M764.719 920.082C754.16 894.048 753.767 833.816 754.89 806.955L762.516 791.663L778.221 843.57L793.162 791.84C787.177 823.557 779.034 880.151 794.352 852.791C809.67 825.431 822.259 769.903 826.639 745.56C819.981 824.897 806.339 869.624 800.35 882.07L809.923 901.165L837.389 888.443C870.758 876.336 872.858 845.555 873.259 828.84C875.518 836.113 885.006 862.073 866.989 889.014C844.361 922.851 833.251 926.553 822.904 926.145C830.622 948.566 817.088 1044.68 820.197 1014.84C822.685 990.971 814.266 965.629 809.745 955.942C799.136 954.836 775.278 946.117 764.719 920.082Z" fill="#151515"/>
<path d="M847.12 809.527C852.036 785.507 875.181 765.364 886.14 758.295L901.795 738.309L898.168 773.121C896.468 789.433 899.973 797.607 901.938 799.655C895.638 821.519 891.722 839.812 890.551 846.225C888.389 823.546 881.576 783.759 871.613 806.046C861.649 828.334 835.004 859.875 822.926 872.86C828.943 861.757 842.204 833.547 847.12 809.527Z" fill="#454545"/>
<path d="M826.473 675.148C827.505 674.659 844.328 658.454 849.073 650.875L881.429 634.64L856.78 663.743C856.739 673.793 855.665 697.609 851.702 712.479C847.74 727.348 842.115 736.95 839.797 739.893C840.585 732.334 837.784 717.396 836.286 710.873C849.142 691.702 848.854 675.485 847.103 669.772C837.823 671.88 827.193 674.94 826.473 675.148C826.455 675.156 826.442 675.16 826.434 675.159C826.434 675.159 826.447 675.155 826.473 675.148Z" fill="#454545"/>
<path d="M844.18 1098.28L861.193 1050.78L853.743 1083.69L858.32 1155.55L847.824 1179.09L851.585 1196.07L870.316 1214.11L845.493 1201.47L831.413 1177.38L844.883 1144.6L844.18 1098.28Z" fill="#242424"/>
<path d="M801.814 1128.55L793.9 1069.41L794.127 1110.66L781.569 1139.51L786.666 1182.27L754.277 1242.23L801.958 1189.89L797.928 1165.85L801.814 1128.55Z" fill="#151515"/>
<path d="M816.123 1121.49L838.337 1067.51L828.1 1112.69C830.855 1120.01 835.175 1136.45 830.409 1143.59C825.643 1150.74 818.836 1171.04 816.028 1180.3L811.77 1163.27L816.123 1121.49Z" fill="#454545"/>
<path d="M740.113 1262.38C741.494 1281.29 755.244 1311.11 799.199 1279.09L803.675 1279.56C807.805 1291.38 822.265 1307.63 847.065 1278.04C853.095 1287.72 872.245 1300.78 900.609 1275.58L899.78 1283.54C894.482 1289.35 883.488 1300.94 881.897 1300.78C879.908 1300.57 863.113 1307.36 854.545 1297.93C847.691 1290.38 845.632 1291.8 845.459 1293.46L839.159 1300.85C829.434 1302.52 808.359 1304.07 801.861 1296.96C798.625 1293.42 797.718 1290.82 797.902 1289L794.164 1293.65C784.628 1301.53 761.345 1313.35 744.495 1297.52C727.645 1281.69 734.553 1267.49 740.113 1262.38Z" fill="#242424"/>
<path d="M807.116 1241.71C805.872 1253.64 796.865 1282.2 791.024 1294.83C801.157 1298.9 799.914 1286.7 800.287 1292.78C800.585 1297.63 806.593 1299.8 809.559 1300.28C802.556 1285.47 808.67 1226.79 807.116 1241.71Z" fill="#151515"/>
<path d="M837.668 1300.69C848.505 1278.7 847.284 1237.35 847.709 1242.92C848.849 1257.88 848.695 1287.88 859.32 1300.34C856.711 1300.62 848.561 1298.97 847.614 1295.49C846.343 1298.05 843.377 1301.37 837.668 1300.69Z" fill="#151515"/>
<path d="M759.192 1248.14L817.042 1199.51L835.294 1207.68L876.851 1228.59L891.497 1252.07L877.551 1260.47C874.374 1258.79 867.238 1253.3 864.109 1244.73C860.98 1236.16 845.108 1227.67 837.564 1224.49L833.546 1263.05C824.157 1272.11 819.025 1265.72 817.632 1261.39L815.472 1214.58L809.206 1226.47L787.794 1258.28C775.267 1262.71 763.506 1253.36 759.192 1248.14Z" fill="#454545"/>
<path d="M821.633 1184.4L841.162 1189.96L844.861 1197.88L820.016 1190.27L806.568 1193.89L821.633 1184.4Z" fill="#242424"/>
<path d="M779.515 1275.02C774.327 1239.89 755.472 1258.1 746.692 1271.6C745.698 1281.15 751.796 1312.68 754.969 1327.26C762.553 1312.36 774.493 1286.23 779.515 1275.02Z" fill="#160E04"/>
<path d="M779.515 1275.02C774.327 1239.89 755.472 1258.1 746.692 1271.6C745.698 1281.15 751.796 1312.68 754.969 1327.26C762.553 1312.36 774.493 1286.23 779.515 1275.02Z" fill="#160E04"/>
<path d="M862.226 1272.45C874.52 1239.38 889.23 1260.95 895.049 1275.87C894.061 1285.36 881.614 1314.75 875.514 1328.26C871.152 1312.23 864.838 1284.37 862.226 1272.45Z" fill="#160E04"/>
<path d="M862.226 1272.45C874.52 1239.38 889.23 1260.95 895.049 1275.87C894.061 1285.36 881.614 1314.75 875.514 1328.26C871.152 1312.23 864.838 1284.37 862.226 1272.45Z" fill="#160E04"/>
<path d="M756.065 1278.37C756.994 1266.27 760.89 1259.9 762.722 1258.23C765.268 1256.05 766.684 1258.64 767.073 1260.2C767.599 1261.78 768.147 1265.81 766.13 1269.25C764.113 1272.7 758.136 1291.63 755.399 1300.67C755.234 1298.28 755.135 1290.47 756.065 1278.37Z" fill="#FFFFD2"/>
<path d="M882.455 1280.23C883.205 1268.11 880.905 1261.28 879.662 1259.37C877.914 1256.87 876.477 1259.24 875.977 1260.74C875.368 1262.24 874.441 1266.14 875.613 1269.83C876.785 1273.52 877.917 1294.03 878.974 1303.35C879.398 1301.01 881.706 1292.34 882.455 1280.23Z" fill="#FFFFD2"/>
<path d="M812.039 1281.3C823.007 1248.09 835.175 1269.39 839.889 1284.2C838.9 1293.68 827.86 1323.23 822.464 1336.81C819.006 1320.87 814.073 1293.16 812.039 1281.3Z" fill="#160E04"/>
<path d="M812.039 1281.3C823.007 1248.09 835.175 1269.39 839.889 1284.2C838.9 1293.68 827.86 1323.23 822.464 1336.81C819.006 1320.87 814.073 1293.16 812.039 1281.3Z" fill="#160E04"/>
<path d="M828.447 1268.56C826.666 1266.37 823.657 1267.9 822.376 1268.94L827.7 1304.68C828.692 1293.56 830.229 1270.76 828.447 1268.56Z" fill="#FFFFD2"/>
<path d="M913.298 627.907C909.751 619.494 903.885 583.21 909 569.499C928.715 478 929.304 517.499 926.5 565.999C923.89 611.159 927.672 625.048 932.714 624.903L928.715 629.513C930.079 632.504 932.977 640.715 933.656 649.634C934.336 658.552 933.739 661.707 933.356 662.17C930.753 656.269 922.374 654.993 918.509 655.093C924.045 663.714 928.012 682.895 929.304 691.408C934.533 706.833 921.874 735.374 914.891 747.717C917.467 742.288 922.173 724.145 920.383 695.003C918.594 665.86 908.283 669.612 903.351 675.13C897.659 679.9 886.349 693.568 886.638 710.087C886.928 726.606 863.156 753.721 851.234 765.214C858.777 753.935 872.781 728.248 868.455 715.733C864.129 703.217 875.025 675.195 881.014 662.749C893.253 654.64 916.846 636.32 913.298 627.907Z" fill="#151515"/>
<path d="M366.772 762.548C367.601 720.957 365.732 750.499 427.281 612.598L523.608 592.021L547.215 702.527L558.248 871.45C556.541 863.463 552.872 856.339 551.844 891.735C550.816 927.131 545.546 947.617 543.04 953.436L524.842 1069.29C531.489 1087.64 544.638 1131.33 544.062 1159.26C543.485 1187.2 536.623 1215.39 533.264 1225.99C509.033 1217.87 462.285 1199.13 469.136 1189.07C475.987 1179.02 482.46 1160.49 484.839 1152.49L454.473 1118.35C454.258 1118.16 454.061 1117.94 453.886 1117.68L454.473 1118.35C457.29 1120.74 463.417 1116.23 469.589 1081.1C477.895 1033.82 432.503 914.673 419.703 888.264C406.904 861.855 365.942 804.139 366.772 762.548Z" fill="#323232"/>
<path d="M441.247 888.378C436.705 870.796 401.707 805.692 384.776 775.338L374.477 760.969L369.731 784.207L386.051 827.562C394.284 841.508 411.982 871.266 416.913 878.728C421.844 886.191 445.546 954.507 456.781 987.732C453.495 961.94 445.79 905.96 441.247 888.378Z" fill="#242424"/>
<path d="M461.988 616.425C451.54 628.6 428.865 663.237 421.752 704.388C412.859 755.827 405.86 768.76 426.511 814.613C416.182 802.767 395.321 774.063 394.509 754.016C392.207 755.805 388.114 761.94 390.156 772.169C392.709 784.955 426.549 835.762 436.989 876.302C429.889 863.394 410.907 833.019 391.781 814.782C372.654 796.545 366.746 774.327 366.182 765.497L369.549 730.843L423.766 621.044C429.095 606.802 443.037 576.309 456.168 568.275C468.799 560.548 473.341 551.437 474.16 547.407L474.24 546.953C474.219 547.096 474.193 547.248 474.16 547.407L461.988 616.425Z" fill="#1B1B1B"/>
<path d="M464.886 623.951C448.373 637.347 423.269 704.362 412.781 736.194L417.06 670.623L472 582.5L497 539L515.199 612.294L500.687 660.516L480.5 710C479.151 673.195 481.399 610.555 464.886 623.951Z" fill="#242424"/>
<path d="M504.668 811.211C500.946 787.083 508.067 753.218 510.108 739.541L558.812 825.82C558.477 836.941 557.212 859.254 554.829 859.542C552.447 859.83 546.999 914.209 544.573 941.363L519.196 989.758L515.976 1079.79C509.432 1067.32 495.752 1035.8 493.378 1009.5C490.411 976.617 506.591 947.968 517.807 919.92C526.779 897.481 520.415 873.438 516.111 864.221C513.848 856.604 508.39 835.339 504.668 811.211Z" fill="#242424"/>
<path d="M494.295 633.673C494.295 628.5 497 626.5 489.824 609.5L481.522 594.926L510.76 584.845L543.739 613.595L527.749 686.037L515.696 739.873C511.842 731.609 505.331 710.806 510.117 693.708C514.903 676.611 513.83 676.304 512.008 667.794C508.636 671.392 508.856 678.55 502.874 704.657C496.893 730.763 488.404 746.361 489.824 758.109C487.473 749.159 482.292 727.29 480.372 711.405C477.972 691.55 494.295 662.936 494.295 633.673Z" fill="#1B1B1B"/>
<path d="M511.8 863.735C500.371 855.849 480.277 822.385 471.659 806.639L501.944 832.19L532.365 854.702L543.884 904.177L523.776 983.664L512.971 956.766C522.006 941.237 535.837 912.604 518.879 922.309C501.921 932.013 492.132 946.862 489.357 953.073C490.318 924.35 492.146 908.08 497.137 900.762C490.399 898.353 470.255 953.367 442.759 821.715L475.711 877.666L511.118 878.926L511.8 863.735Z" fill="#242424"/>
<path d="M392.814 1191.44C407.467 1198.08 439.391 1210.32 449.864 1206.23C460.082 1202.24 470.62 1150.95 474.929 1123.96L522.629 1156.09L534.537 1222.72C529.688 1231.03 517.634 1252.29 508.215 1270.77C496.442 1293.87 502.235 1288.64 445.942 1326.19C400.907 1356.24 397.43 1324.16 401.32 1304.36C387.626 1309.21 360.121 1311.56 359.654 1282.17C359.542 1275.15 360.084 1269.77 361.049 1265.7C356.89 1266.92 351.682 1268.01 345.185 1268.79C303.385 1273.85 330.557 1215.1 364.102 1194.91C371.714 1190.33 385.577 1189.46 392.814 1191.44Z" fill="#323232"/>
<path d="M537.407 870.713C550.716 893.252 546.897 934.631 543.323 952.503L532.451 1055.94C536.981 1075.18 546.923 1119.49 550.447 1142.81C553.971 1166.13 541.34 1215.86 534.584 1237.8L492.253 1296.24C474.13 1310.51 434.322 1339.47 420.064 1341.19C405.807 1342.91 402.313 1326.9 402.349 1318.68L413.785 1329.37L419.662 1305.02L456.071 1281.5C484.322 1270.04 476.946 1266.9 469.726 1266.77L465.711 1233.55L498.193 1214.03C498.888 1201.53 501.742 1168.22 507.595 1134.91C513.448 1101.61 502.523 1058.89 496.329 1041.69C504.853 1056.76 514.677 1090.12 518.523 1104.92L511.212 1044.42C509.944 1031.5 510.462 999.539 522.683 975.121C534.903 950.704 537.591 895.342 537.407 870.713Z" fill="#151515"/>
<path d="M518.361 897.189C534.525 887.58 530.056 934.22 525.801 958.741L533.35 962.865L553.943 916.56L552.553 846.722L530.467 818.166C530.34 824.057 527.726 836.326 518.292 838.272C508.857 840.218 473.741 803.03 457.363 784.192C463.384 804.013 496.858 837.337 512.842 851.522L511.091 870.368C494.207 874.02 477.331 891.068 441.483 815.322C472.628 918.833 495.213 880.681 507.25 884.43C501.385 899.241 499.58 925.145 499.411 936.245C500.703 923.599 512.583 904.939 518.361 897.189Z" fill="#151515"/>
<path d="M423.238 1268.59C400.934 1287.4 399.205 1301.71 401.129 1306.52L378.791 1309.22C382.19 1297.06 394.993 1269.08 419.016 1254.5C443.039 1239.91 452.83 1250.91 454.723 1258.24L451.248 1258.66C451.205 1254.13 445.542 1249.78 423.238 1268.59Z" fill="#151515"/>
<path d="M381.312 1234.36C362.323 1249.41 360.768 1260.77 362.363 1264.56L343.452 1266.85C346.406 1257.18 357.418 1234.93 377.833 1223.21C398.248 1211.49 406.458 1220.15 408.011 1225.94L405.069 1226.3C405.062 1222.71 400.3 1219.3 381.312 1234.36Z" fill="#151515"/>
<path d="M559.426 1268.44C556.438 1265.95 544.543 1261.98 520.86 1266.05C504.462 1268.87 498.535 1271.76 497.119 1273.8L530.189 1214.06L548.2 1238.07L559.426 1268.44Z" fill="#151515"/>
<path d="M396.989 1224.23C403.007 1220.24 408.25 1224.23 410.119 1226.72L397.84 1231.27C391.002 1237.19 375.606 1251.8 368.729 1262.84C361.852 1273.87 363.401 1291.87 365.035 1299.49C358.944 1291.56 359.605 1289.95 360.721 1263.8C361.837 1237.66 389.468 1229.22 396.989 1224.23Z" fill="#454545"/>
<path d="M361.139 1194.3C367.162 1190.35 372.397 1194.28 374.262 1196.74L361.978 1201.24C355.131 1207.1 339.714 1221.53 332.82 1232.42C325.927 1243.32 327.445 1261.07 329.066 1268.59C322.99 1260.77 323.653 1259.18 324.813 1233.39C325.972 1207.6 353.611 1199.23 361.139 1194.3Z" fill="#454545"/>
<path d="M437.167 1256.63C443.19 1252.68 448.425 1256.61 450.29 1259.06L438.006 1263.57C431.159 1269.42 415.742 1283.86 408.848 1294.75C401.954 1305.64 403.473 1323.4 405.094 1330.91C399.018 1323.1 399.681 1321.51 400.84 1295.72C402 1269.93 429.638 1261.56 437.167 1256.63Z" fill="#454545"/>
<path d="M454.233 1118.99C463.899 1108.95 468.748 1087.69 469.965 1078.3C477.502 1067.32 477.372 1031.24 476.365 1014.58L483.864 1076.62L472.026 1120.36L481.032 1132.37C479.855 1157.36 471.92 1210.32 449.594 1222.29C441.286 1226.74 436.356 1229.87 433.638 1232.03L433.164 1236.36C430.762 1236.55 429.052 1235.67 433.638 1232.03L434.839 1221.05C432.085 1214.94 404.283 1211.31 390.726 1210.27L412.071 1207.69C418.578 1208.75 433.646 1209.51 441.854 1204.09C450.063 1198.66 461.134 1155.25 465.644 1134.23L454.233 1118.99Z" fill="#454545"/>
<path d="M415.562 1332.67C424.662 1327.83 416.757 1309.17 411.668 1300.44C373.99 1293.79 363.691 1323.37 363.251 1338.99C366.084 1319.29 399.306 1326.57 415.562 1332.67Z" fill="#160E04"/>
<path d="M378.444 1296.92C387.473 1289.43 375.673 1268.76 368.644 1259.36C326.639 1258.66 320.592 1295.79 322.819 1314.45C322.48 1290.48 359.761 1292.78 378.444 1296.92Z" fill="#160E04"/>
<path d="M343.873 1256.53C349.806 1247.52 335.515 1233.08 327.627 1226.98C292.397 1238.3 295.317 1271.98 301.18 1287.41C295.754 1266.87 327.381 1258.27 343.873 1256.53Z" fill="#160E04"/>
<path d="M412.831 1307.5L408.38 1304.01C389.79 1300.21 376.443 1313.41 372.094 1320.48C372.967 1319.37 376.515 1316.22 383.724 1312.53C390.933 1308.83 406.132 1307.63 412.831 1307.5Z" fill="#FFFFD2"/>
<path d="M363.726 1262.89L367.818 1268.43C357.421 1270.35 335.828 1276.11 331.091 1284.02C331.001 1284.18 330.915 1284.34 330.834 1284.49C330.913 1284.33 330.999 1284.18 331.091 1284.02C334.758 1277.58 345.952 1265.03 363.726 1262.89Z" fill="#FFFFD2"/>
<path d="M330.856 1235.13L326.041 1230.67C310.33 1239.42 304.632 1250.55 303.747 1255.03C306.931 1244.57 323.147 1237.4 330.856 1235.13Z" fill="#FFFFD2"/>
<path d="M439.247 800.987C425.384 769.624 440.065 711.912 449.139 686.976C450.782 689.464 453.875 699.499 453.098 719.738C452.127 745.037 483.922 795.588 475.396 787.552C468.576 781.124 458.132 762.778 453.763 754.409C451.692 755.331 446.914 761.079 444.369 776.697C441.825 792.315 464 829.389 475.406 845.973C469.129 844.046 453.11 832.35 439.247 800.987Z" fill="#454545"/>
<path d="M588 211.5C546.4 183.9 454.333 172.667 413.5 170.5L436 205.5L464.5 407.5L477 425.5C479.167 437.667 482.2 470 477 502C471.8 534 447.5 566.667 436 579L464.5 552.5L490 531L932 575.5L917.5 531L932 479.5L851 263H730L675.5 278C663.667 278 629.6 239.1 588 211.5Z" fill="#323232"/>
<path d="M720 351.5C740 364.3 756.833 403.833 764 422L804 431.5L822 426.5L824.5 387.5L829 326L840 274L786 267.5C794.833 269.667 813.7 276.8 818.5 288C823.3 299.2 812.5 297.333 806.5 295C801.833 290.833 791.2 281.5 786 277.5C780.8 273.5 761 276.5 751.5 274C767 280 771.5 282.5 777 288C783.175 294.175 781 311.5 777 324C773.8 334 781.667 364.5 786 378.5C779.5 372 763.5 357.5 751.5 351.5C739.5 345.5 710.167 343.667 697 343.5L720 351.5Z" fill="#242424"/>
<path d="M777 417.5C779.333 400.666 772.8 362.5 728 344.5C746.167 349.166 784.2 361.7 791 374.5C797.8 387.3 808.833 408.5 813.5 417.5C811.667 400.666 806.3 364.2 799.5 353C792.7 341.8 796.667 316.666 799.5 305.5C797 297.166 789 279.8 777 277C762 273.5 802 273.5 813.5 300C822.7 321.2 829.333 308.833 831.5 300L829.5 280L795.5 270L738.5 266.5L685.5 275C696.5 268 718.6 257.7 733 258.5C747.4 259.3 828.333 261.5 851 262.5L860.5 328.5L855.5 428.5L876 471C866.167 465.333 850.6 459.7 867 482.5C876 495.011 886.715 504.582 896.041 511.277L914.5 522C910.439 520.345 903.71 516.783 896.041 511.277L846.5 482.5L826.5 487.5L810.5 476.5L781 441.5L777 417.5Z" fill="#1B1B1B"/>
<path d="M599.5 391L579.5 394.5L560 408.5L518.5 400L546.5 342.5L558 235L550 194.5L560 197.5L579.5 213L587.5 227.5L568.5 217L576 242C573.2 256.4 585.167 253.333 591.5 250L599.5 232.5C604.5 238.167 615 256 617 282C619.5 314.5 563 366.5 568.5 366.5C572.9 366.5 591 382.833 599.5 391Z" fill="#242424"/>
<path d="M459 574C470.634 557.201 487.35 496.673 494.254 468.509C494.254 458.51 491.022 435.678 489.407 425.513C493.666 415.18 508.003 386.716 531.271 355.519C560.355 316.522 555.948 261.027 555.948 273.026C555.948 282.625 539.497 314.022 531.271 328.521C537.587 307.356 550.22 258.227 550.22 231.029C550.22 204.39 542.046 193.482 537.708 191.167C520.791 191.775 530.137 191.345 537.44 191.033C537.528 191.074 537.617 191.118 537.708 191.167C538.823 191.127 540.054 191.082 541.406 191.033C563.264 190.233 580.479 204.365 586.355 211.531C590.615 231.362 596.579 278.625 586.355 309.022C576.191 339.242 540.214 378.225 523.196 394.235C529.546 388.312 544.498 376.804 555.948 376.017C567.582 375.217 581.067 388.016 586.355 394.515L550.22 438.511L541.406 537.003L502.186 532.004L459 574Z" fill="#1B1B1B"/>
<path d="M552.5 274C551.7 282 530.5 310 520 323C497.667 348.167 456.3 402.2 469.5 417C482.7 431.8 480 476.833 477 497.5C478.5 492.333 481.7 478 482.5 462C483.3 446 485.167 435.333 486 432L501 412.5L520 384C530.833 367.5 553.3 331 556.5 317C559.7 303 557.833 271.167 556.5 257C555.5 259.333 553.3 266 552.5 274Z" fill="#0A0A0A"/>
<path d="M575 417L735 406C730.6 397.2 717.833 385 712 380C677.5 373.5 673 347.5 664 336.5C656.8 327.7 641 313.5 634 307.5C630.5 315 621 335.6 611 358C601 380.4 582.833 406.667 575 417Z" fill="#454545"/>
<path d="M568 291C575.6 267.8 561.5 217.333 553.5 195L582.5 223L618 265L587 245L568 291Z" fill="#323232"/>
<path d="M643.5 258.5C644.508 259.346 645.573 260.247 646.685 261.196C654.281 267.424 666.901 276.503 674.5 277.5C683.3 278.654 689.833 272.647 692 269.5V282.5C694.834 293.052 699.088 308.726 701.559 317.391C702.271 318.736 702.762 319.947 703 321C704.158 326.13 703.303 323.506 701.559 317.391C694.336 303.745 664.423 276.33 646.685 261.196C645.485 260.212 644.41 259.299 643.5 258.5Z" fill="#1B1B1B"/>
<path d="M97.004 378.157C99.1936 358.746 115.652 346.013 94.1883 307.211L174.129 290.419L249.705 285.467L291.41 307.048L285.329 377.67L244.616 399.908L131.325 405.736C121.056 405.794 94.8145 397.569 97.004 378.157Z" fill="#7B3838"/>
<path d="M160.151 324.728C140.86 325.421 116.644 315.39 106.947 310.289L100.4 306.397L130.83 297.219L179.117 276.887L249.411 285.063L281.081 309.005L300.49 351.778L259.2 386.809L214.001 407.984L161.772 416.96L97.2234 376.76L111.778 372.962L131.083 379.93L150.093 386.495L172.412 392.505C180.427 393.883 199.831 395.666 213.326 391.773C226.822 387.88 234.941 376.438 237.314 371.204C238.332 357.883 237.86 328.987 227.824 319.967C215.279 308.692 184.266 323.863 160.151 324.728Z" fill="#522323"/>
<rect x="207.147" y="210.069" width="100" height="100" transform="rotate(-36.0748 207.147 210.069)" fill="#D9D9D9"/>
<path d="M346.292 128.492L310.302 170.797L336.437 168.46C350.616 170.09 378.713 170.446 377.675 158.831C376.636 147.215 393.126 128.809 401.501 121.058C410.063 116.676 419.732 108.89 389.914 112.796C360.097 116.703 348.409 124.888 346.292 128.492Z" fill="#131313"/>
<path d="M346.292 128.492L311.439 168.113L336.437 168.46C350.616 170.09 368.824 169.609 367.785 157.994C366.746 146.378 371.661 133.312 380.036 125.56C388.598 121.179 419.732 108.89 389.914 112.796C360.097 116.703 348.409 124.888 346.292 128.492Z" fill="#4D4D4D"/>
<path d="M185.583 180.881L207.523 175.771C228.3 184.761 202.429 172.392 205.768 186.948C209.107 201.505 212.222 207.228 218.229 208.855L209.022 213.701C210.07 214.678 208.166 217.581 199.907 212.869C191.649 208.158 187.563 188.872 185.583 180.881Z" fill="#656565"/>
<path d="M146.36 316.836C133.068 317.612 107.334 304.027 96.1283 297.137L92.5605 294.788L80.8184 276.123C82.0561 261.405 88.7724 230.489 105.736 224.564C122.7 218.638 129.889 225.732 131.363 230.02C146.881 218.714 167.715 209.722 176.192 206.64C184.574 207.956 200.126 210.112 195.272 208.205C190.418 206.297 202.102 184.464 208.551 173.785L244.177 179.38C293.82 154.967 363.375 158.732 378.038 154.235C389.769 150.638 428.08 166.031 445.768 174.177C452.134 181.5 466.909 204.554 475.083 238.19C483.257 271.827 469.042 327.548 460.913 351.204C445.077 375.32 411.013 421.459 401.449 413.085C391.884 404.712 381.333 404.439 377.254 405.349C359.948 424.39 301.92 421.672 275.069 417.932C221.291 430.387 142.287 430.124 109.508 428.436L116.407 414.13C105.618 419.021 91.817 418.022 86.2652 416.912L102.015 391.828C98.499 392.946 91.1879 395.138 90.0702 394.963C88.9525 394.787 86.8703 378.117 93.0612 366.801C98.1645 373.806 120.391 386.483 134.437 390.478C145.752 393.697 185.798 398.425 205.538 398.065C224.453 392.327 264.045 377.835 271.093 365.772C278.141 353.708 269.342 323.743 264.062 310.269L224.869 302.324C204.237 306.838 159.652 316.061 146.36 316.836Z" fill="#323232"/>
<path d="M468.559 218.198C468.852 218.948 469.146 219.78 469.432 220.678C472.678 230.045 478.343 247.814 480.578 260.169C483.643 277.113 424.068 309.756 415.924 314.077C400.307 322.361 391.735 313.141 374.698 337.307C358.842 359.796 439.062 368.548 448.844 367.7C449.328 367.297 449.652 367.165 449.788 367.352C449.91 367.52 449.573 367.636 448.844 367.7C443.045 372.518 414.207 416.045 408.14 413.778C378.391 402.664 366.637 413.702 360.609 415.619C354.582 417.535 338.816 422.217 320.325 421.46C305.532 420.855 301.93 418.571 301.978 417.505L329.983 410.093L357.764 397.278L351.286 388.387C346.443 384.286 335.54 372.887 330.677 360.098C325.814 347.309 339.847 321.455 347.472 310.126C347.906 301.892 374.056 287.46 387.076 281.273L420.266 275.033C429.588 271.129 451.259 261.362 463.369 253.529C474.411 246.387 472.388 229.971 469.432 220.678C469.116 219.768 468.824 218.937 468.559 218.198Z" fill="#242424"/>
<path d="M301.803 206.683C340.996 195.945 367.427 243.83 370.468 245.739L409.674 223.981L434.118 177.716L382.016 163.092L309.228 161.681C293.447 162.662 256.687 164.508 246.526 175.813C235.251 188.357 222.037 167.672 213.146 174.149L204.982 214.74L174.754 202.119C160.879 212.228 130.445 231.307 119.707 226.758C108.969 222.208 99.0105 226.37 95.3734 229.02L85.4428 267.186L96.3542 259.237L143.537 282.394L154.449 274.444L179.371 272.99L222.993 257.294C236.45 260.481 262.61 217.42 301.803 206.683Z" fill="#3F3F3F"/>
<path d="M101.009 342.728C94.3343 334.891 89.0067 308.372 87.1772 296.093L101.053 286.715L112.456 301.125C104.123 311.826 101.353 333.319 101.009 342.728Z" fill="#E3E3CA"/>
<path d="M177.361 345.048C169.15 340.262 156.333 321.992 150.951 313.455L160.084 305.1L174.427 314.005C170.508 322.637 174.75 338.297 177.361 345.048Z" fill="#FFFFED"/>
<path d="M196.471 342.579C188.766 337.954 176.918 319.996 171.957 311.594L180.756 303.132L194.206 311.751C190.347 320.402 194.108 335.907 196.471 342.579Z" fill="#DBDBB0"/>
<path d="M107.798 332.066C105.368 326.806 106.461 311.689 107.311 304.789L116.202 301.892L120.199 311.428C114.102 315.899 109.391 327.049 107.798 332.066Z" fill="#FFFFBD"/>
<path d="M123.355 342.746C119.976 336.401 119.248 319.206 119.307 311.402L128.826 309.223L134.5 320.673C128.29 325.016 124.483 337.198 123.355 342.746Z" fill="#E9E9C6"/>
<path d="M218.558 328.486C212.669 322.531 205.67 304.758 202.908 296.616L212.239 292.502L222.415 303.332C217.386 309.06 217.748 322.488 218.558 328.486Z" fill="#DBDBB0"/>
<path d="M160.594 357.521C153.421 363.55 144.625 386.428 141.123 397.114L152.146 407.468L164.555 396.258C158.704 385.521 159.477 365.96 160.594 357.521Z" fill="#FFFFD2"/>
<path d="M120.136 345.618C113.545 349.559 103.44 366.919 99.2111 375.107L106.776 384.924L118.28 377.476C114.949 368.024 118.129 352.299 120.136 345.618Z" fill="#FFFFBD"/>
<path d="M127.094 364.53C122.752 367.126 116.096 378.562 113.31 383.955L118.294 390.422L125.872 385.516C123.677 379.29 125.772 368.931 127.094 364.53Z" fill="#FFFFC9"/>
<path d="M136.062 364.977C131.418 369.957 127.085 387.232 125.499 395.248L134.36 401.747L142.325 392.57C137.16 385.34 135.998 371.162 136.062 364.977Z" fill="#FFFFD2"/>
<path d="M196.248 366.088C190.462 371.307 183.725 390.04 181.079 398.754L190.42 406.357L200.41 396.706C195.331 388.496 195.519 372.873 196.248 366.088Z" fill="#FFFFED"/>
<path d="M233.865 356.395C230.275 362.243 229.752 380.832 229.939 389.396L240.37 394.875L246.384 384.183C239.534 377.41 235.184 362.836 233.865 356.395Z" fill="#FFFFD2"/>
<path d="M253.634 359.314C251.328 363.07 250.993 375.009 251.113 380.509L257.812 384.028L261.675 377.161C257.276 372.811 254.481 363.45 253.634 359.314Z" fill="#FFFFC9"/>
<path d="M257.136 247.267L271.159 224.059L289.385 215.111L314.926 205.165L334.785 215.441C338.635 219.028 345.271 226.608 343.802 228.668C342.333 230.727 339.509 237.776 337.931 240.987L317.909 256.811L295.198 264.697L278.727 262.468L257.136 247.267Z" fill="#121212"/>
<path d="M278.67 237.765C279.843 233.941 292.09 226.75 298.068 223.632L311.005 221.012C318.676 220.785 333.966 221.11 333.763 224.228C333.559 227.345 332.358 229.376 331.782 230.001L319.589 243.833L300.7 250.172L284.304 249.744C281.937 247.344 277.496 241.589 278.67 237.765Z" fill="black"/>
<path d="M81.1304 275.33C79.7393 272.188 80.6458 260.877 95.4001 240.763C106.42 238.094 130.215 234.685 137.237 242.398C144.259 250.11 141.584 268.589 139.368 276.864L96.2237 285.756L81.1304 275.33Z" fill="#211C24"/>
<path d="M272.948 253.687L263.913 263.362C269.213 270.637 324.317 270.701 310.127 269.904C298.774 269.267 280.611 258.827 272.948 253.687Z" fill="#171717"/>
<path d="M349.141 283.547C357.071 271.336 396.065 260.496 414.332 255.849C395.375 255.019 355.492 255.412 347.617 263.624C334.426 270.141 306.243 285.972 299.047 297.153C290.053 311.13 292.223 313.26 289.619 320.725C287.016 328.189 300.38 352.477 305.35 361.847C311.324 373.108 309.64 348.205 314.213 321.366C318.786 294.527 339.228 298.811 349.141 283.547Z" fill="#454545"/>
<path d="M273.427 255.194L263.711 241.857L244.776 237.094C240.107 237.196 232.629 236.046 240.065 230.628C247.501 225.211 253.039 227.775 254.879 229.734C255.76 228.679 256.052 225.91 250.168 223.268C244.284 220.626 234.411 224.849 230.21 227.291C224.329 228.276 210.428 230.197 201.87 229.998C193.312 229.799 174.911 243.659 166.78 250.613L152.567 265.917C154.478 265.144 159.982 262 166.711 255.613C173.44 249.226 194.012 241.29 203.457 238.121L218.421 240.829C216.78 241.406 212.313 242.804 207.579 243.779C202.845 244.753 198.552 248.087 196.997 249.632L178.488 271.778C182.577 267.767 194.283 257.796 208.393 249.991C222.503 242.186 239.173 249.218 245.745 253.709L264.502 264.171L273.427 255.194Z" fill="#1B1B1B"/>
<path d="M359.777 208.987L356.89 229.649L350.107 206.753L339.658 195.807L319.21 184.722C313.977 184.616 302.543 185.111 298.663 187.937C294.783 190.764 290.481 191.424 288.814 191.401L270.507 191.747C276.327 190.394 290.545 186.304 300.863 180.767C311.181 175.23 317.878 174.969 319.937 175.531L341.523 183.932C346.742 182.604 358.473 179.006 363.646 175.238C368.818 171.469 375.673 168.537 378.454 167.543L397.719 170.21C395.342 170.911 388.868 172.328 381.987 172.392C375.105 172.457 369.836 178.357 368.062 181.3L346.528 190.802L358.663 195.571C363.857 193.643 376.611 187.939 386.074 180.55C395.537 173.16 402.933 178.783 405.449 182.519C404.271 180.902 395.574 185.382 391.374 187.824C389.917 189.504 385.924 194.269 381.605 199.889C377.287 205.51 365.254 208.297 359.777 208.987Z" fill="#252525"/>
<path d="M230.297 199.39C235.175 193.857 230.725 182.994 227.891 178.254C234.153 176.661 238.759 178.172 240.28 179.126L245.285 185.996L263.476 179.548C267.102 177.732 276.22 173.604 283.688 171.628C291.156 169.651 301.186 171.871 305.268 173.228C301.825 173.88 293.278 175.281 286.632 175.669C279.986 176.057 273.009 179.614 270.352 181.344C264.607 184.498 250.9 192.175 242.023 197.652C230.927 204.499 240.597 206.733 234.5 213.649C229.623 219.182 210.026 223.644 200.837 225.183C193.57 225.116 177.546 225.82 171.578 229.178C165.611 232.535 163.315 238.497 162.913 241.059C163.009 238.926 163.796 233.61 166.175 229.403C168.553 225.195 174.171 222.546 176.682 221.748L190.797 220.744L202.852 216.911L214.502 213.372C217.735 211.017 225.42 204.923 230.297 199.39Z" fill="#252525"/>
<path d="M95.3622 379.972C95.4939 380.287 95.6513 380.643 95.8333 381.032C97.8543 383.577 105.739 385.034 109.887 385.474L121.399 391.934C125.309 393.622 134.057 397.931 137.765 401.663C141.474 405.394 150.291 404.703 154.236 403.891C158.389 402.515 170.562 400.658 186.034 404.233C201.506 407.808 224.972 399.372 234.771 394.708C244.509 389.676 264.953 378.905 268.833 376.079C272.712 373.252 272.909 356.2 272.522 348.027L274.878 351.26L277.724 369.602L265.721 391.337C256.769 397.447 236.364 409.632 226.365 409.493C216.366 409.354 200.022 412.394 193.1 413.932L173.911 413.065L153.843 417.787L133.764 408.908C127.231 406.45 112.701 400.375 106.845 395.733C101.544 391.532 97.569 384.744 95.8333 381.032C95.5678 380.698 95.4035 380.344 95.3622 379.972Z" fill="#4D4D4D"/>
<ellipse cx="303.407" cy="235.208" rx="15.5" ry="14.5" transform="rotate(-36.0748 303.407 235.208)" fill="url(#paint0_radial_1815_817)"/>
<path d="M259.948 224.804C261.999 215.391 285.762 204.76 297.387 200.621C305.302 199.597 322.073 197.483 325.837 197.215C329.601 196.948 334.671 211.606 336.736 218.969C330.411 215.947 313.798 211.43 297.952 217.53C282.106 223.631 264.774 237.372 258.088 243.48C257.854 241.176 257.897 234.216 259.948 224.804Z" fill="#4D4D4D"/>
<path d="M326.061 245.923C316.598 253.312 299.333 257.353 291.884 258.45L279.35 260.776L306.524 270.054L338.45 246.795L343.802 228.668C341.832 231.341 335.524 238.534 326.061 245.923Z" fill="#4D4D4D"/>
<ellipse cx="303.962" cy="238.516" rx="4" ry="4.5" transform="rotate(-36.0748 303.962 238.516)" fill="black"/>
<path d="M142.142 371.693C134.293 361.817 128.818 329.277 127.061 314.241L144.377 303.533L157.746 321.647C147.149 334.246 142.928 360.26 142.142 371.693Z" fill="#FFFFD2"/>
<path d="M404.5 307.5C426.1 303.1 462.5 275.333 478 262L488.5 273.5L448.5 375.5L382.5 363.5L361.5 343.5C366.833 333.333 382.9 311.9 404.5 307.5Z" fill="#0A0A0A"/>
<path d="M254.595 286.235C268.737 281.871 280.328 272.024 284.356 267.646L291.266 266.942L310.715 270.712L303.695 272.115L288.183 272.9C283.97 276.175 275.289 283.902 274.264 288.608C273.238 293.315 280.579 294.73 284.378 294.849L274.707 335.919L268.04 319.125L254.392 308.035L236.669 302.388L215.239 304.391L201.418 305.799L190.247 310.845L182.598 307.138L174.919 312.732L161.503 313.846L148.929 311.871L130.218 312.512L121.945 310.497L113.522 304.879L107.928 297.201L91.348 295.671L81.7362 274.835L100.158 280.592L104.28 286.249L113.436 289.477L122.817 298.108C126.15 298.154 134.19 297.245 139.686 293.241C145.182 289.237 166.07 294.641 175.826 297.843L220.152 289.058C225.741 289.935 240.453 290.599 254.595 286.235Z" fill="#1B1B1B"/>
<path d="M86.2652 416.912L98.2332 397.676C98.8971 400.286 96.3279 405.25 100.594 407.71C108.059 412.013 121.793 407.937 127.832 405.188L124.316 420.74C136.324 420.24 163.855 419.649 177.913 421.284C191.972 422.919 207.372 422.093 213.314 421.475C238.285 418.955 285.955 414.703 276.87 417.857C265.515 421.8 200.417 428.397 180.09 430.215C163.828 431.67 125.255 429.954 108.001 428.915L116.701 414.534C116.525 414.648 116.34 414.758 116.146 414.864C109.679 418.41 93.6659 417.727 86.2652 416.912Z" fill="#141414"/>
<path d="M405.53 414.442C516.871 272.453 462.96 189.284 422.087 165.448L494.62 170.755C584.153 284.308 492.357 367.476 468.255 427.514L405.53 414.442Z" fill="#A0A0A0"/>
<path d="M431.452 376.998C499.289 259.528 464.385 237.942 457.187 201.738L514.092 201.728C560.922 286.386 530.843 320.672 490.24 385.515L431.452 376.998Z" fill="#BABABA"/>
<path d="M452.848 334.191C471.947 269.55 477.356 276.125 470.158 239.922L530.043 241.453C541.756 269.418 543.654 298.348 514.799 345.352L452.848 334.191Z" fill="#D5D5D5"/>
<path d="M463.373 303.634C464.75 296.692 470.148 271.892 472.675 260.359L537.934 270.966C542.266 281.667 534.323 305.352 529.81 315.857L463.373 303.634Z" fill="#EBEBEB"/>
<path d="M411.711 242.911C377.756 256.761 366.365 248.316 360.128 234.095L359.003 207.076C359.496 210.017 367.33 212.392 394.728 198.371C422.125 184.35 442.853 160.835 449.793 150.831C471.534 140.765 512.056 122.172 500.21 128.328C488.363 134.484 454.739 190.737 454.323 206.299C444.324 220.595 445.667 229.061 411.711 242.911Z" fill="#1B1B1B"/>
<path d="M405.748 233.028C373.793 249.333 358.748 237.115 355.708 227.309L359.287 206.87C359.22 209.032 365.653 209.524 391.916 194.194C418.179 178.865 440.227 157.412 447.968 148.602C468.631 137.247 506.732 125.162 495.36 131.861C483.988 138.561 438.764 168.887 435.775 180.839C424.64 193.442 437.702 216.722 405.748 233.028Z" fill="#4D4D4D"/>
<path d="M87.4449 256.968C89.7176 252.903 97.2054 247.164 100.665 244.803C101.525 244.383 103.432 243.798 105.228 243.247C107.079 242.679 112.381 241.547 114.883 241.221L125.433 242.117L126.34 246.052C122.769 247.459 112.188 241.321 100.205 248.389C97.5605 249.949 87.3909 258.675 85.4961 260.607L87.4449 256.968Z" fill="#C2B6C9"/>
<path d="M107.491 256.691L117.749 259.734L121.617 269.288L116 277.711C113.929 277.982 109.559 277.702 108.645 274.409C107.73 271.116 102.572 265.224 100.107 262.689L107.491 256.691Z" fill="black" stroke="black"/>
<path d="M116.294 278.115C112.031 279.736 109.345 276.785 108.535 275.107C112.096 277.957 117.027 275.725 119.048 274.253L116.294 278.115Z" fill="#C2B6C9"/>
<path d="M91.2065 260.149L96.9151 264.271L97.7478 271.211L93.0385 275.417C91.7474 275.152 89.1564 274.046 89.1218 271.743C89.0872 269.44 86.9012 264.573 85.8125 262.427L91.2065 260.149Z" fill="black" stroke="black"/>
<path d="M93.2863 276.39C90.7182 276.392 89.5452 273.802 89.2796 272.507C90.9538 275.247 93.9645 275.012 95.2606 274.551L93.2863 276.39Z" fill="#C2B6C9"/>
<path d="M809.5 583L812.5 561.5L816.5 545L799 484L828 471L858 476.5L902.5 513.5L918.5 560.5V609V647L882.5 671C889.167 663.333 901.7 639.3 898.5 604.5C895.3 569.7 890.5 540 888.5 529.5L878 592.5L865.35 615.427C864.42 617.979 863.313 620.067 862 621.5L865.35 615.427C872.214 596.606 869.5 552.574 869.5 560.5C869.5 567.7 861.833 580.833 858 586.5C858 578.1 855.667 569.667 854.5 566.5C850.317 558.449 844.601 547.394 840.592 539.514C845.316 554.721 835.5 566.5 835.5 566.5C835.5 566.5 813.833 581.833 809.5 583Z" fill="#242424"/>
<path d="M908 584C908.833 574.667 908.9 552.2 902.5 537C896.1 521.8 888.833 547 886 561.5C884.833 573.167 879.7 599.6 868.5 612C874 592 884.3 549 881.5 537C878.7 525 871.667 522.333 868.5 522.5L862.782 559.667C862.692 560.322 862.598 560.934 862.5 561.5L862.782 559.667C864.227 549.128 864.415 527.564 855 512.5C845 496.5 842.167 481.5 842 476L862.5 453.5L912.5 482L939 488C935.667 501 928.7 529.9 927.5 541.5C926.3 553.1 929.667 569 931.5 575.5C927.067 589.389 921.063 619.914 928.118 641.991L931.5 650C930.138 647.504 929.021 644.817 928.118 641.991L912.5 605L908 584Z" fill="#151515"/>
<path d="M1104.6 181.5C1104.6 220.252 1092.77 235.667 1082.1 239L1119.6 268.5L1139.6 252.5C1120.8 236.5 1111.43 207.5 1107.6 189.5C1106.64 185 1104.6 178.5 1104.6 181.5Z" fill="#1B1B1B"/>
<path d="M1124.6 237C1112.6 237.4 1108.93 250.167 1108.6 256.5L1091.1 244.5C1084.27 245.5 1073.6 245.4 1085.6 237C1097.6 228.6 1102.6 202.833 1103.6 191C1104.43 184.667 1106.1 173.8 1106.1 181C1106.1 188.2 1118.43 219.667 1124.6 234.5V237Z" fill="#4D4D4D"/>
<path d="M1002.6 199.5L1011.1 233.5C1007.5 237.1 962.267 237.333 940.1 237L927.1 225.5L928.6 206.5C943 201.3 939.6 178.667 936.1 168C946.5 168.4 984.767 189.167 1002.6 199.5Z" fill="#1B1B1B"/>
<path d="M1130.61 514.5C1131.18 520.021 1124.83 533.956 1121.59 540.233L1111.78 540.827L1111.15 530.914C1118.74 528.175 1127.29 518.83 1130.61 514.5Z" fill="#D7D7B1"/>
<path d="M1130.61 514.5C1131.18 520.021 1124.83 533.956 1121.59 540.233L1111.78 540.827L1111.15 530.914C1118.74 528.175 1127.29 518.83 1130.61 514.5Z" fill="#D7D7B1"/>
<path d="M1130.61 514.5C1131.18 520.021 1124.83 533.956 1121.59 540.233L1111.78 540.827L1111.15 530.914C1118.74 528.175 1127.29 518.83 1130.61 514.5Z" fill="#D7D7B1"/>
<path d="M1143.05 483.342C1149.99 479.002 1160.39 460.943 1164.72 452.456L1156.45 442.992L1144.35 451.143C1148.1 460.477 1145.05 476.499 1143.05 483.342Z" fill="#D7D7B1"/>
<path d="M1143.05 483.342C1149.99 479.002 1160.39 460.943 1164.72 452.456L1156.45 442.992L1144.35 451.143C1148.1 460.477 1145.05 476.499 1143.05 483.342Z" fill="#D7D7B1"/>
<path d="M1131.1 564C1082.3 475.2 1151.6 466 1181.1 443.5L1115.1 401.5L1028.6 420L1012.6 475L1035.6 524L1062.1 576.5H1092.1L1131.1 564Z" fill="#7B3838"/>
<path d="M1166.17 483.799C1177.17 476.366 1192.98 446.339 1199.52 432.255L1185.56 417.18L1166.41 431.092C1173.04 446.172 1169.01 472.513 1166.17 483.799Z" fill="#FFFFD2"/>
<path d="M1054.6 474.5C1050.6 506.5 1065.1 564 1070.6 574.5L1064.6 571L1030.1 524.5L1015.1 470.5L1027.6 433L1054.6 407L1099.1 409L1172.6 435L1153.6 433H1124.6L1099.1 425.5C1087.43 438 1058.6 442.5 1054.6 474.5Z" fill="#522323"/>
<path d="M1081.1 510.5C1072.54 519.458 1063.96 549.61 1060.74 563.567L1076.32 574.086L1091.04 557.623C1082.12 545.552 1080.7 521.178 1081.1 510.5Z" fill="#FFFFED"/>
<path d="M1102.77 528.5C1098.16 533.322 1093.54 549.551 1091.81 557.064L1100.2 562.726L1108.12 553.864C1103.32 547.367 1102.55 534.248 1102.77 528.5Z" fill="#FFFFD2"/>
<path d="M1059.45 514.563C1052.94 516.027 1040.11 526.985 1034.5 532.281L1038.36 541.641L1049.86 538.647C1049.45 530.577 1056.08 519.229 1059.45 514.563Z" fill="#FFFFD2"/>
<path d="M1052.45 501.563C1045.94 503.027 1033.11 513.985 1027.5 519.281L1031.36 528.641L1042.86 525.647C1042.45 517.577 1049.08 506.229 1052.45 501.563Z" fill="#FFFFD2"/>
<path d="M1116.53 531.572C1119.99 535.906 1122.2 551.059 1122.87 558.094L1114.95 563.9L1109.05 555.907C1113.95 549.495 1116.08 537.012 1116.53 531.572Z" fill="#FFFFED"/>
<path d="M1146.79 520.5C1150.5 530.051 1146.91 556.61 1144.64 568.695L1128.63 572.828L1122.63 555.556C1133.88 548.338 1143.43 529.178 1146.79 520.5Z" fill="#FFFFD2"/>
<path d="M1121.39 467.027C1116.82 460.608 1114.48 440.132 1113.88 430.696L1125.04 424.588L1132.78 436.327C1125.75 443.836 1122.26 459.922 1121.39 467.027Z" fill="#FFFFD2"/>
<path d="M1063.61 458.92C1057.78 453.622 1051.13 434.114 1048.53 425.022L1058.13 416.679L1068.19 426.5C1062.93 435.333 1062.94 451.793 1063.61 458.92Z" fill="#FFFFD2"/>
<path d="M1136.94 466.051C1132.67 460.052 1130.48 440.914 1129.92 432.095L1140.34 426.387L1147.58 437.358C1141.01 444.376 1137.75 459.411 1136.94 466.051Z" fill="#FFFFED"/>
<path d="M1148.95 465.342C1155.89 461.002 1166.28 442.943 1170.61 434.456L1162.34 424.992L1150.25 433.143C1154 442.477 1150.94 458.499 1148.95 465.342Z" fill="#FFFFED"/>
<ellipse cx="1158.93" cy="331.109" rx="15.5" ry="19.61" transform="rotate(-54.7566 1158.93 331.109)" fill="black"/>
<ellipse cx="1154.06" cy="329.475" rx="15.5" ry="19.61" transform="rotate(-54.7566 1154.06 329.475)" fill="url(#paint1_radial_1815_817)"/>
<path d="M1105.47 483.135C1096.16 474.081 1086.38 441.23 1082.65 425.936L1099.01 412.294L1115.03 429.052C1105.79 443.655 1104.81 471.192 1105.47 483.135Z" fill="#FFFFED"/>
<path d="M953.1 478C920.3 492.8 920.767 527.167 925.1 542.5L918.1 551.5L892.6 478L907.1 428C864.6 376.282 873.6 324 888.6 286.5C900.6 256.5 920.267 237.333 928.6 231.5H997.1C1003.6 230.167 1022.7 226.8 1047.1 224C1077.6 220.5 1120.1 266.5 1129.6 269C1137.2 271 1152.1 292.5 1158.6 303L1178.6 308L1182.1 321.5L1149.1 325.5L1147.6 338.5L1170.6 344.5L1225.1 363L1228.6 386C1214.93 409.167 1184.2 452.5 1170.6 440.5C1153.6 425.5 1155.1 434.5 1135.6 428C1120 422.8 1108.1 430.167 1104.1 434.5L1070.1 424C1059.43 427.5 1036.4 438.7 1029.6 455.5C1021.1 476.5 1034.6 486 1038.1 507.5C1040.9 524.7 1060.6 551.667 1070.1 563C1065.77 566.333 1060.1 571 1072.1 563C1087.1 553 1123.6 555 1127.6 555C1130.8 555 1139.15 560.333 1142.93 563C1136.84 579.58 1115.58 602.941 1104.1 614L1053.1 606.5C1046.1 602 1028.4 585.4 1013.6 555C998.8 524.6 992.1 491 990.6 478H953.1Z" fill="#323232"/>
<path d="M1023.6 277.5L1018.6 267C1010.6 258.6 978.933 249.5 964.1 246L978.1 267L958.6 290C971.8 287.2 981.1 295.167 984.1 299.5L986.6 290L994.6 280L1023.6 277.5Z" fill="#454545"/>
<path d="M1148 343.134C1141.87 341.958 1138.09 331.215 1136.97 325.991L1151.84 319.624L1183.97 319.134L1180.98 329.061C1180.5 327.918 1171.38 327.102 1157.96 331.51C1148.09 334.75 1147.69 338.399 1148 343.134Z" fill="black"/>
<path d="M1147.6 340C1141.2 338.8 1137.27 327.833 1136.1 322.5L1151.6 316L1185.1 315.5L1181.97 325.634C1181.47 324.467 1171.97 323.634 1157.97 328.134C1147.69 331.441 1147.27 335.167 1147.6 340Z" fill="#656565"/>
<path d="M1151.81 424.934L1142.1 374.051C1148.58 366.809 1166.44 353.583 1186.1 358.614C1205.76 363.645 1218.29 375.956 1222.1 381.483L1194.67 427.221C1177.3 432.252 1158.86 427.793 1151.81 424.934Z" fill="#211C24"/>
<path d="M1150.61 375.953C1155.17 368.255 1171.11 364.443 1178.51 363.5H1188.19L1212.1 380.481L1208.11 393.5C1208.49 390.858 1208.11 384.557 1203.56 380.481C1197.87 375.387 1181.36 375.953 1165.99 375.953C1153.69 375.953 1150.61 383.877 1150.61 387.84C1148.72 387.085 1146.06 383.651 1150.61 375.953Z" fill="#C2B6C9"/>
<path d="M1196.41 391.756L1186.92 397.7L1185.83 408.214L1194.02 414.888C1196.2 414.559 1200.54 413.027 1200.49 409.523C1200.44 406.02 1203.92 398.738 1205.67 395.535L1196.41 391.756Z" fill="black" stroke="black"/>
<path d="M1193.84 415.37C1198.64 415.74 1200.48 412.063 1200.81 410.179C1198.04 414.007 1192.39 413.229 1189.91 412.361L1193.84 415.37Z" fill="#C2B6C9"/>
<path d="M1167.1 388.134L1156.27 397.836L1157.21 411.524L1169.15 418.248C1171.86 417.346 1177.08 414.424 1176.24 409.954C1175.4 405.484 1178.24 395.401 1179.77 390.919L1167.1 388.134Z" fill="black" stroke="black"/>
<path d="M1169.03 418.904C1175.24 418.314 1176.79 413.204 1176.79 410.723C1174.1 416.23 1166.7 416.487 1163.33 415.926L1169.03 418.904Z" fill="#C2B6C9"/>
<path d="M1046.1 297.5L1073.1 324.5H1077.1C1071.5 324.5 1071.1 336.5 1071.6 342.5L1057.6 345H1041.6L1009.6 327.5L1007.1 314.5L1021.1 302L1046.1 297.5Z" fill="black"/>
<path d="M1084.6 330.5L1082.6 316C1073.77 308.333 1054.4 292.8 1047.6 292C1040.8 291.2 1022.77 294.667 1014.6 296.5L1005.6 316C1014.77 310.667 1036 301.1 1047.6 305.5C1059.2 309.9 1065.43 321.333 1067.1 326.5L1084.6 330.5Z" fill="#656565"/>
<path d="M1050.1 354.5L1081.1 339C1073.27 339.667 1056.1 341.2 1050.1 342C1044.1 342.8 1020.93 331.667 1010.1 326L1050.1 354.5Z" fill="#656565"/>
<path d="M1107.1 309.5V332.5L1095.6 315L1076.6 295.5L1095.6 328.5L1089.1 340.5L1056.1 358.5L1021.1 347.5L1061.1 366L1098.1 340.5L1089.1 349L1073.6 366C1069.6 373.5 1061.5 389.6 1061.1 394C1060.7 398.4 1063.93 411.5 1065.6 417.5C1067.77 428.167 1068.16 421.5 1067.6 417.5C1063.1 385.5 1092.6 362 1095.6 361.5C1098 361.1 1112.43 349.833 1114.6 351.5L1139.1 370.5C1133.1 360.9 1126.6 355 1124.6 352.5L1120.6 349V344L1127.6 349L1145.6 364.5L1142.1 358.5L1130.1 347.5C1133.93 349.333 1142.6 353 1146.6 353C1150.6 353 1163.93 358 1170.1 360.5L1157.1 353L1132.6 344H1148.1L1162.6 342.5L1149.6 340.5L1137.1 335.5L1141.1 323.5L1142.1 306L1126.6 287.5L1137.1 304V325L1130.1 335.5L1126.6 332.5C1128.43 330 1131.7 323 1130.1 315C1128.5 307 1127.1 304.333 1126.6 304L1112.6 290.5L1120.6 304C1121.6 306.833 1123.6 313 1123.6 315V328.5H1119.1L1112.6 325C1114.43 323.167 1117 316.8 1112.6 306C1108.2 295.2 1088.1 285.167 1078.6 281.5L1107.1 309.5Z" fill="#1B1B1B"/>
<path d="M1046.6 291L1064.1 299.5C1062.93 297.667 1060.2 291.9 1054.6 283.5C1049 275.1 1047.6 266 1047.6 262.5L1058.6 272.5L1049.6 256.5L1040.1 239.5L1029.1 236L1024.6 233L1028.6 238L1038.1 241.5L1042.1 252L1014.6 249L996.1 241.5L972.1 238.5L988.1 243.5L1010.6 254.5L1034.6 262.5L1042.1 282L1007.6 289.5C1003.77 296.333 996.1 311 996.1 315C996.1 319 1008.43 330.667 1014.6 336L1038.1 345L1030.6 340.5L1017.6 333.5L1005.6 316.5L1014.6 296.5L1046.6 291Z" fill="#1B1B1B"/>
<path d="M966.6 381L943.1 336.5C936.1 343 921 352.1 916.6 336.5C912.2 320.9 908.433 303 907.1 296C904.767 322.333 898.3 371.2 891.1 356C883.9 340.8 882.433 320.333 882.6 312C880.267 318.333 876.1 338.3 878.1 367.5C880.1 396.7 898.267 418.333 907.1 425.5C910.6 431 919.8 444.9 928.6 456.5C937.4 468.1 956.6 474.333 965.1 476L988.6 473.5L992.6 486.5L1002.1 528.5L1017.6 578C1020.27 583.333 1028.1 597.7 1038.1 612.5C1048.1 627.3 1035.93 632 1028.6 632.5C1038.2 633.3 1070.93 621.5 1086.1 615.5C1083.3 621.1 1073.27 626.5 1068.6 628.5C1078.6 628.5 1098.77 621.833 1107.6 618.5V631.5L1124.1 594C1121.1 596.667 1113.6 602.4 1107.6 604C1101.6 605.6 1079.1 601.333 1068.6 599C1059.1 591.667 1038.2 575.3 1030.6 568.5C1023 561.7 1011.1 523.667 1006.1 505.5L1010.6 461L1013.6 410.5C1018.93 405.167 1030.9 395.6 1036.1 400C1041.3 404.4 1046.6 412.5 1048.6 416L1038.1 387L966.6 381Z" fill="#1B1B1B"/>
<path d="M970.1 309C970.068 308.992 970.037 308.985 970.005 308.977C969.855 310.09 976.1 331.5 976.1 331.5C976.1 331.5 1001.6 357 1003.6 363C1005.2 367.8 1038.6 370 1055.1 370.5C1055.1 445.5 1053.3 374.6 1038.1 377C1022.9 379.4 988.1 372.333 972.6 368.5C964.1 352.333 947.3 318.4 948.1 312C948.896 305.629 962.972 307.318 970.005 308.977C970.014 308.912 970.044 308.917 970.1 309Z" fill="#454545"/>
<path d="M1115.66 354.301L1138.32 378.94C1139.23 392.979 1139.05 419.838 1131.14 414.965C1123.22 410.091 1105.11 415.399 1097.04 418.662L1076.72 412.784C1076.96 410.483 1077.78 402.884 1079.17 390.889C1080.57 378.894 1104.08 361.499 1115.66 354.301Z" fill="#454545"/>
<path d="M1114.14 364.272L1121.99 369.889L1132.07 384.181L1130.12 402.652C1130.13 404.264 1129.96 405.483 1129.74 406.261L1130.12 402.652C1130.09 398.292 1128.79 391.05 1123.95 381.833C1117.32 369.206 1104.12 371.634 1098.35 374.426L1107.1 367.587L1114.14 364.272Z" fill="#545454"/>
<path d="M1211.1 361.5C1199.5 357.1 1169.6 350 1156.1 347L1166.1 344.5L1224.1 361.5L1229.6 384L1224.1 393.5C1224.6 384.667 1222.7 365.9 1211.1 361.5Z" fill="#454545"/>
<path d="M1098.6 281C1091.4 272.6 1058.27 245.833 1042.6 233.5C1050.93 238.167 1066.4 246 1061.6 240C1056.8 234 1048.93 230.167 1045.6 229C1049.77 229.667 1059.6 232.8 1065.6 240C1073.1 249 1106.1 271 1100.1 265.5C1095.3 261.1 1087.1 250.667 1083.6 246C1088.6 250.833 1101.7 262 1114.1 268C1129.6 275.5 1147.1 296 1140.1 289.5C1135.17 284.919 1119.81 278.849 1113.79 276.538C1121.01 280.631 1129 299.317 1127.1 296C1125.5 293.2 1110.77 281.5 1103.6 276L1114.1 303C1111.93 299.167 1105.8 289.4 1098.6 281Z" fill="#454545"/>
<ellipse cx="1044.87" cy="324.803" rx="14.6445" ry="16.7866" transform="rotate(-54.7566 1044.87 324.803)" fill="url(#paint2_radial_1815_817)"/>
<ellipse cx="1044.44" cy="324.672" rx="4.83589" ry="4.45827" transform="rotate(-27.0949 1044.44 324.672)" fill="black"/>
<ellipse cx="1165.03" cy="336.162" rx="3.78499" ry="3.71161" transform="rotate(-27.0949 1165.03 336.162)" fill="black"/>
<path d="M1063.6 586L1029.6 552.5L1022.6 478L1031.6 493.5L1038.1 517.5L1045.1 541L1067.6 562C1067.1 563.5 1069.9 568.2 1085.1 575C1100.3 581.8 1107.77 577.833 1109.6 575L1143.1 566.5C1138.77 573 1126.9 587 1114.1 591C1101.3 595 1075.1 589.333 1063.6 586Z" fill="#454545"/>
<path d="M958.6 219.5C963 193.5 945.767 174.333 936.6 168C951 170 986.933 189.5 1003.1 199L1006.6 216.5L1012.6 233.5L1030.6 246C1027.6 245.167 1018.6 242.4 1006.6 238C994.6 233.6 979.267 233.167 973.1 233.5L958.6 219.5Z" fill="#4D4D4D"/>
<path d="M908 352L890 394L878.5 424.5L944 480L989.5 476.5L977 411.5H955.5L939.5 387C937.167 387.5 929.3 388.2 916.5 387C903.7 385.8 905.5 363.167 908 352Z" fill="black"/>
<path d="M910.872 251.76C856.069 415.403 931.314 473.06 975.787 481.433L908.727 499.908C791.642 426.293 847.692 321.92 850.16 260.093L910.872 251.76Z" fill="#A0A0A0"/>
<path d="M899.519 293.812C876.056 421.412 914.429 429.672 932.523 459.987L881.25 478.241C811.908 416.972 828.019 376.434 843.816 304.986L899.519 293.812Z" fill="#BABABA"/>
<path d="M893.964 339.245C897.48 403.615 890.498 399.424 908.592 429.739L854.14 447.56C834.619 426.116 823.633 400.657 834.563 349.051L893.964 339.245Z" fill="#D5D5D5"/>
<path d="M894.278 370.154C895.263 376.85 898.351 400.928 899.771 412.13L837.567 423.497C830.232 415.243 829.795 391.354 830.493 380.441L894.278 370.154Z" fill="#EBEBEB"/>
<path d="M499 536L511.5 483L517.5 512.5L511.5 539L529 585.5L503.5 626.5L503.5 599.5L499 536Z" fill="#151515"/>
<path d="M515.122 521.083L573.094 581.131L692.777 540.193L801.181 591.346C810.584 578.939 829.367 551.124 829.273 539.125C829.179 527.125 809.872 487.941 800.23 469.85C784.117 455.475 744.461 422.985 714.743 408.017C685.025 393.049 607.072 407.86 571.81 417.136C549.074 429.647 503.629 458.171 503.739 472.17C503.849 486.17 511.373 510.612 515.122 521.083Z" fill="#111111"/>
<path d="M508.429 688.14C511.07 718.92 538.384 767.408 554.625 776.781L578.06 704.596L640.424 559.103L611.81 480.825L533.778 540.937L545.095 581.35C531.773 604.122 505.788 657.36 508.429 688.14Z" fill="black"/>
<path d="M698.337 931.161C702.987 911.924 719.212 893.83 729.488 886.416L701.411 876.636L623.389 810.244L576.24 727.611L568.562 768.672L581.547 894.574L602.797 926.409L644.402 939.584L698.337 931.161Z" fill="#7B3838"/>
<path d="M590.504 889.004C589.835 854.608 615.018 848.144 627.694 849.212L627.518 826.712L578.186 720.595L572.015 762.645L572.868 871.641C579.025 891.76 591.173 923.4 590.504 889.004Z" fill="#522323"/>
<path d="M665.07 918.769C657.466 908.017 660.99 888.538 663.702 880.142L666.841 879.136L680.818 876.568L691.708 880.604C685.479 884.99 671.354 907.875 665.07 918.769Z" fill="#FFFFD2"/>
<path d="M602.069 852.236C597.638 839.834 606.274 822.021 611.145 814.665L614.439 814.541L628.591 815.828L637.994 822.646C630.815 825.194 611.053 843.434 602.069 852.236Z" fill="#FFFFED"/>
<path d="M592.614 827.432C588.787 815.071 596.568 797.201 600.937 789.811L603.854 789.662L616.374 790.84L624.646 797.583C618.27 800.184 600.635 818.566 592.614 827.432Z" fill="#FFFFD2"/>
<path d="M696.913 910.2C697.902 922.905 687.843 939.293 682.69 945.899L680.144 945.612L669.561 942.594L663.684 934.744C669.673 933.138 688.332 917.712 696.913 910.2Z" fill="#FFFFD2"/>
<path d="M657.096 902.976C648.731 912.181 643.675 930.311 642.192 938.226L643.657 939.41L650.876 942.936L658.706 940.156C656.672 935.617 656.785 913.478 657.096 902.976Z" fill="#FFFFED"/>
<path d="M608.902 878.353C600.537 887.558 595.48 905.688 593.998 913.602L595.462 914.787L602.682 918.312L610.512 915.532C608.478 910.993 608.591 888.855 608.902 878.353Z" fill="#FFFFED"/>
<path d="M680.14 915.798C691.77 910.776 702.1 894.677 705.811 887.255L704.508 885.227L697.481 877.636L688.125 876.268C689.175 882.093 683.239 905.048 680.14 915.798Z" fill="#FFFFED"/>
<path d="M769.36 742.1C782.05 728 803.351 655.664 812.415 621.259C812.234 598.093 808.607 543.486 795.547 510.388C779.223 469.014 725.787 477.433 692.202 466.695C665.334 458.105 614.4 470.971 592.291 478.477C600.347 485.581 607.127 559.664 588.047 575.014C568.966 590.363 561.691 572.22 558.157 589.248L542.451 626.872L578.189 657.093L559.214 724.244L552.976 757.794L560.243 855.74L560.548 894.739C563.892 896.046 572.496 900.845 580.165 909.585C587.833 918.326 579.472 927.591 574.333 931.132L590.935 944.002C593.902 939.812 601.453 933.52 607.918 941.869C614.384 950.219 610.672 953.015 608.008 953.369L633.508 953.169L645.656 972.075L661.573 961.45L701.829 930.134C693.349 932.7 680.142 906.303 599.664 909.433L584.742 855.548L578.881 745.591C585.301 777.875 619.662 857.975 627.378 872.715C635.093 887.455 697.724 895.332 728.074 897.428L770.103 837.097L759.306 799.18L773.469 756.068L769.36 742.1Z" fill="#323232"/>
<path d="M638.606 454.614L707.678 463.574L730.216 468.398L789.273 475.436L806.578 514.301L806.868 551.3C805.316 544.646 800.892 528.846 795.614 518.887C790.336 508.928 770.923 494.58 761.876 488.65L725.338 483.936L696.839 484.159L656.277 476.477L586.464 500.524L586.28 477.024L638.606 454.614Z" fill="#1E1E1E"/>
<path d="M628.702 919.739C623.586 901.963 632.518 875.507 637.624 864.501L641.197 864.117L656.591 865.119L666.967 874.463C659.237 878.613 638.236 906.376 628.702 919.739Z" fill="#FFFFD2"/>
<path d="M699.721 910.643C712.606 905.978 725.942 890.123 730.999 882.778L729.977 880.693L723.917 872.819L714.431 871.131C714.573 877.027 704.684 899.929 699.721 910.643Z" fill="#FFFFED"/>
<path d="M752.051 702.734L771.465 691.582L787.484 693.956L784.152 715.483L774.793 733.557L765.836 739.127L752.349 740.733L745.677 718.784L752.051 702.734Z" fill="black"/>
<path d="M653.074 706.009L658.925 686.962L661.823 673.939L643.167 654.085L627.097 645.21L615.231 662.304L604.977 693.885L609.075 706.353L641.164 717.602L653.074 706.009Z" fill="black"/>
<path d="M648.64 714.544C617.848 715.585 609.373 701.851 608.985 694.853L608.946 689.854C605.782 690.212 599.96 691.724 601.985 694.908C604.01 698.092 602.918 707.568 602.118 711.908C609.323 716.685 626.125 725.42 635.7 722.145C645.274 718.87 648.316 715.713 648.64 714.544Z" fill="#4D4D4D"/>
<path d="M749.876 714.522C747.672 698.266 753.528 688.461 756.731 685.591L775.727 679.964L797.85 676.875C797.942 679.212 792.145 691.023 788.92 694.6C785.694 698.177 780.139 698.592 777.765 698.352C761.112 696.978 752.234 708.559 749.876 714.522Z" fill="#4D4D4D"/>
<path d="M660.999 696.446C649.343 676.537 630.67 654.516 624.215 660.233L612.77 667.323C612.585 664.991 613.193 657.519 617.105 646.288C621.017 635.057 636.003 633.14 643.007 633.585C647.034 637.054 666.839 644.906 665.213 659.912C662.882 681.431 665.779 689.575 660.999 696.446Z" fill="#4D4D4D"/>
<path d="M671.756 665.361L642.483 630.589C650.65 630.525 666.566 628.301 664.9 619.913C663.235 611.526 649.029 593.87 642.135 586.091C648.503 590.541 662.972 603.528 669.9 619.874C676.828 636.221 682.602 645.609 684.623 648.26C687.942 646.401 695.029 636.278 696.829 610.663C698.628 585.048 695.651 566.671 693.938 560.684C698.96 563.479 708.463 576.671 706.301 607.089C704.139 637.507 699.297 649.145 697.146 651.162L712.755 665.04C716.242 663.346 725.101 658.144 732.645 650.884C740.188 643.625 738.16 610.173 736.202 594.355C750.346 612.645 739.859 656.995 732.848 676.883L738.254 664.841L777.577 642.032C774.211 637.892 771.159 626.982 785.877 616.467C804.275 603.322 773.376 552.562 785.435 559.968C795.081 565.893 808.715 595.621 814.325 609.744L804.576 641.821L814.752 664.242L804.956 690.32C802.055 681.675 794.245 663.403 786.214 659.465C778.182 655.528 757.957 669.353 748.848 676.758C745.407 684.285 740.655 703.223 749.176 718.757C757.698 734.291 765.451 732.463 768.262 729.608L768.336 739.108L768.418 749.607L749.419 749.756C746.721 745.777 740.532 738.625 737.357 741.85C734.182 745.075 723.019 783.964 717.835 803.005C718.62 796.832 720.953 779.78 724.006 760.955C727.059 742.131 735.043 723.034 738.653 715.839C732.304 713.889 719.121 711.792 717.177 719.007C715.234 726.223 718.196 742.667 719.92 749.987L710.154 716.062L692.08 706.703L710.338 739.562C711.539 765.22 713.291 810.141 710.69 784.56C708.09 758.98 689.25 728.393 680.155 716.297L672.21 723.359L685.339 739.757C686.348 740.916 689.784 745.523 695.456 754.679C701.128 763.834 703.489 801.45 703.96 819.114L688.507 761.233L672.339 739.859L652.34 740.015L652.618 775.514L672.879 808.857L698.508 825.157C700.4 832.642 707.448 843.087 720.507 824.985C733.566 806.882 750.069 790.252 756.689 784.2L734.007 824.879L720.906 875.983L739.78 859.835L757.115 838.699L756.939 816.199L769.115 838.605L757.233 853.698L734.492 886.877L689.564 896.229C684.207 893.271 669.494 887.386 653.494 887.511C637.495 887.636 630.771 880.355 629.409 876.699L623.284 860.747L599.51 761.93L587.267 731.025L586.962 692.026L609.719 660.847L598.915 685.932L599.064 704.931L610.212 723.845L643.211 723.586L662.062 704.438L671.913 685.361L671.756 665.361Z" fill="#1B1B1B"/>
<path d="M655.228 853.496L659.462 819.462L661.88 808.943L694.836 803.185L716.988 822.512L742.897 810.809L756.537 828.703L749.225 852.761L734.929 878.873L702.505 888.627L673.408 876.355L655.228 853.496Z" fill="#323232"/>
<path d="M711.785 835.571L694.62 815.819L665.345 818.43L659.094 857.017C667.245 866.069 687.515 884.816 703.391 887.387C719.266 889.959 727.306 884.096 729.342 880.843L746.513 841.197L738.719 822.963L711.785 835.571Z" fill="#211C24"/>
<path d="M690.504 824.719L672.458 818.86L693.437 816.196L706.058 831.598L716.581 834.516L738.491 822.844L745.112 838.292L741.092 835.824L732.081 834.394L716.671 846.015L706.172 846.097L690.504 824.719Z" fill="#C2B6C9"/>
<path d="M578.307 736.095C568.401 748.173 569.266 794.834 566.437 816.69C565.795 832.862 562.593 867.822 568.919 878.173C575.244 888.523 585.299 913.712 592.286 924.991C582.709 915.232 562.428 892.224 557.919 878.259C553.409 864.294 550.112 796.484 549.027 764.325L562.108 710.721L533.924 623.439C541.177 613.215 559.926 585.334 576.894 555.6C593.862 525.867 597.908 493.434 597.811 480.934L607.655 524.859L607.968 564.857L608.183 592.357C613.396 598.316 625.825 610.419 633.831 611.156C641.837 611.894 647.607 625.049 649.491 631.534L623.921 622.734L590.435 688.498L590.807 735.997C590.767 730.997 588.213 724.017 578.307 736.095Z" fill="#151515"/>
<path d="M644.474 565.572L661.188 528.94C664.229 534.083 671.825 546.357 677.887 554.31C683.95 562.263 683.096 602.271 681.912 621.28C680.714 617.29 676.791 605.92 670.685 592.367C664.579 578.815 650.667 568.857 644.474 565.572Z" fill="#454545"/>
<path d="M719.211 595.488C719.045 574.288 708.831 547.067 703.746 536.107L723.714 531.95L703.503 505.108L744.744 535.786L772.174 590.573L755.491 631.205L755.311 608.206C747.192 592.935 730.968 564.395 731.03 572.394C731.093 580.394 720.719 617.81 715.524 635.518C716.822 631.007 719.377 616.687 719.211 595.488Z" fill="#454545"/>
<path d="M688.66 847.069L676.155 844.603L671.056 841.681C669.547 840.78 667.436 841.025 671.064 849.213C674.692 857.402 674.558 862.109 674.037 863.438L693.629 867.946L697.207 866.361L688.66 847.069Z" fill="black"/>
<path d="M688.66 847.069L676.155 844.603L671.056 841.681C669.547 840.78 667.436 841.025 671.064 849.213C674.692 857.402 674.558 862.109 674.037 863.438L693.629 867.946L697.207 866.361L688.66 847.069Z" fill="black"/>
<path d="M688.66 847.069L676.155 844.603L671.056 841.681C669.547 840.78 667.436 841.025 671.064 849.213C674.692 857.402 674.558 862.109 674.037 863.438L693.629 867.946L697.207 866.361L688.66 847.069Z" fill="black"/>
<path d="M719.009 853.553L729.532 853.598L734.092 852.081C735.447 851.603 737.13 852.14 733.026 858.112C728.922 864.085 728.369 867.876 728.606 869.025L712.029 869.47L709.34 867.623L719.009 853.553Z" fill="black"/>
<path d="M719.009 853.553L729.532 853.598L734.092 852.081C735.447 851.603 737.13 852.14 733.026 858.112C728.922 864.085 728.369 867.876 728.606 869.025L712.029 869.47L709.34 867.623L719.009 853.553Z" fill="black"/>
<path d="M719.009 853.553L729.532 853.598L734.092 852.081C735.447 851.603 737.13 852.14 733.026 858.112C728.922 864.085 728.369 867.876 728.606 869.025L712.029 869.47L709.34 867.623L719.009 853.553Z" fill="black"/>
<path d="M674.314 864.347L670.716 851.875L674.239 854.848C673.88 860.05 677.282 860.324 679.294 861.808C682.31 863.785 689.835 867.059 694.344 868.191L674.314 864.347Z" fill="#C2B6C9"/>
<path d="M721.84 867.475C726.236 867.041 729.304 862.917 730.288 860.909C731.775 859.231 734.453 856.376 733.269 858.386C732.084 860.395 730.164 866.244 729.351 868.917L723.355 869.464L712.356 869.55C713.685 869.039 717.443 867.91 721.84 867.475Z" fill="#C2B6C9"/>
<path d="M680.963 677.084C682.928 670.011 681.673 660.274 680.801 656.29L694.774 667.524L687.368 689.007L695.045 702.18L681.126 697.878C680.253 693.894 678.999 684.157 680.963 677.084Z" fill="#323232"/>
<path d="M715.919 686.016L726.282 668.435L729.751 664.407C726.294 669.935 726.435 687.934 727.911 684.922C729.092 682.513 736.692 678.187 740.344 676.325L725.482 693.942L730.071 705.406L712.992 713.868C712.849 713.963 712.731 714.019 712.639 714.043L712.992 713.868C713.879 713.277 715.705 711.186 718.076 706C720.829 699.978 717.785 690.168 715.919 686.016Z" fill="#323232"/>
<path d="M701.931 687.626L706.369 679.591L711.329 674.552L708.431 687.575L706.545 702.09L701.931 687.626Z" fill="#323232"/>
<path d="M666.68 783.404L666.512 761.905L678.57 769.311L687.371 807.743L666.68 783.404Z" fill="#454545"/>
<path d="M720.886 809.481L741.513 761.818L754.501 760.216L754.579 770.216L720.886 809.481Z" fill="#454545"/>
<path d="M814.578 476.749C615.1 401.353 528.38 468.561 509.955 511.59L498.017 442.707C612.39 336.056 708.464 400.205 787 410.604L814.578 476.749Z" fill="#A0A0A0"/>
<path d="M762.843 460.082C603.95 420.402 586.73 457.396 544.867 471.442L530.465 418.244C620.772 357.355 669.747 378.546 758.254 403.401L762.843 460.082Z" fill="#BABABA"/>
<path d="M705.782 448.73C622.956 443.938 629.523 437.552 587.66 451.598L574.364 395.304C605.145 378.702 639.571 371.081 703.583 388.557L705.782 448.73Z" fill="#D5D5D5"/>
<path d="M666.25 445.065C657.526 445.181 626.237 445.147 611.683 445.115L607.978 381.962C619.795 375.75 650.382 378.389 664.199 380.485L666.25 445.065Z" fill="#EBEBEB"/>
<path d="M665.075 514.409C665.147 523.609 645.887 533.06 636.248 536.635L623.299 543.237C620.477 523.425 610.988 478.031 595.607 454.951C580.226 431.87 562.045 425.879 554.878 425.769C561.037 424.887 577.761 423.589 595.376 425.452C617.395 427.779 664.985 502.909 665.075 514.409Z" fill="black"/>
<path d="M791.246 542.908C775.181 543.034 760.093 520.685 754.544 510.107C763.197 503.3 782.539 485.869 790.68 470.609C798.822 455.35 824.295 445.224 836.014 442.069C821.961 447.081 804.1 504.53 796.262 537.883C793.79 541.402 793.301 542.892 791.246 542.908Z" fill="black"/>
<path d="M614.657 461.302C600.064 436.615 571.049 426.309 558.366 424.241C563.199 424.203 578.672 424.982 601.899 428.401C625.127 431.819 645.551 468.894 652.86 487.004C660.572 492.777 674.117 507.038 666.602 517.897C659.087 528.756 646.234 534.89 640.747 536.6C638.131 521.787 629.251 485.988 614.657 461.302Z" fill="#4D4D4D"/>
<path d="M787.997 503.946C791.44 483.919 819.445 454.699 833.018 442.592C818.724 447.704 788.962 461.238 784.266 474.475C779.569 487.712 759.463 499.836 749.998 504.244C751.181 506.401 753.663 512.615 754.123 520.212C754.582 527.809 772.098 538.239 780.798 542.504C781.763 537.996 784.553 523.974 787.997 503.946Z" fill="#4D4D4D"/>
<circle cx="635.449" cy="690.146" r="12.5" transform="rotate(-0.448425 635.449 690.146)" fill="url(#paint3_linear_1815_817)"/>
<circle cx="770.641" cy="714.089" r="9.5" transform="rotate(-0.448425 770.641 714.089)" fill="url(#paint4_linear_1815_817)"/>
<ellipse cx="635.961" cy="691.642" rx="3" ry="4" transform="rotate(-0.448425 635.961 691.642)" fill="black"/>
<ellipse cx="770.156" cy="716.093" rx="2" ry="2.5" transform="rotate(-0.448425 770.156 716.093)" fill="black"/>
<path d="M612 946C618.167 947.333 631.9 948.7 637.5 943.5C643.1 938.3 639.833 943 637.5 946C636.833 950.333 637.7 959.3 646.5 960.5C655.3 961.7 668.833 954.333 674.5 950.5L646.5 973.5L632.5 953.5H607.397C606.883 953.579 606.401 953.567 606 953.5H607.397C609.444 953.186 612 951.435 612 946Z" fill="#1B1B1B"/>
<path d="M599 908.5C600.667 909.5 605.1 910.9 609.5 908.5C621.833 908.5 649.1 909.5 659.5 913.5C672.5 918.5 688 927.5 695.5 928C696.989 928.099 698.078 928.057 698.858 927.922C699.31 926.999 699.699 926.168 700 925.5C700.752 926.252 701.221 927.512 698.858 927.922C697.053 931.603 694.239 936.761 692 939C688.5 942.5 696 931 674.5 932C671.833 925.833 662.7 914.7 647.5 919.5C632.3 924.3 614.167 917.5 607 913.5L599 908.5Z" fill="#454545"/>
<path d="M795 723.5C784.6 742.7 771.667 786.833 766.5 806.5V759L778 737.5C783.667 729.333 795.7 710.6 798.5 701C801.3 691.4 821.333 687.667 831 687C823.333 691.167 805.4 704.3 795 723.5Z" fill="black"/>
<path d="M908 500L895.5 492.5L890.5 503L916 558L926 553.5V524.5L935.5 492.5L908 500Z" fill="#151515"/>
<path d="M808.5 612L804 589.5L815 610L806 639.5L815 661L810 675.5L796 636.5L808.5 612Z" fill="black"/>
<path d="M905.5 891.5L947 792L891 885L856.5 1073.5L905.5 891.5Z" fill="black"/>
<path d="M969 1236.5L957 1229L982.5 1221C984.333 1218.17 989.5 1210.1 995.5 1200.5C1001.5 1190.9 993 1187.5 988 1187C990 1187 995.4 1188.1 1001 1192.5C1006.6 1196.9 1003.33 1213.33 1001 1221L969 1236.5Z" fill="#242424"/>
<path d="M1146 1242.5L1095 1222.5L1115 1224.5L1161.5 1238.5L1166.5 1252C1164.17 1253.5 1158.2 1255.6 1153 1252C1147.8 1248.4 1146.17 1244.17 1146 1242.5Z" fill="#535353"/>
<path d="M646.5 1110.5L580 1059L568 1026L589 1043.5C596.2 1061.9 628.333 1065.83 643.5 1065.5L700.5 1068.5L767.5 1048L682 1110.5H646.5Z" fill="#151515" stroke="#151515"/>
<defs>
<radialGradient id="paint0_radial_1815_817" cx="0" cy="0" r="1" gradientUnits="userSpaceOnUse" gradientTransform="translate(303.407 235.208) rotate(90) scale(14.5 15.5)">
<stop stop-color="white"/>
<stop offset="0.5" stop-color="#FFF153"/>
<stop offset="1" stop-color="#999032"/>
</radialGradient>
<radialGradient id="paint1_radial_1815_817" cx="0" cy="0" r="1" gradientUnits="userSpaceOnUse" gradientTransform="translate(1154.06 329.475) rotate(90) scale(19.61 15.5)">
<stop stop-color="white"/>
<stop offset="0.5" stop-color="#FFF153"/>
<stop offset="1" stop-color="#999032"/>
</radialGradient>
<radialGradient id="paint2_radial_1815_817" cx="0" cy="0" r="1" gradientUnits="userSpaceOnUse" gradientTransform="translate(1044.87 324.803) rotate(90) scale(16.7866 14.6445)">
<stop stop-color="white"/>
<stop offset="0.5" stop-color="#FFF153"/>
<stop offset="1" stop-color="#999032"/>
</radialGradient>
<linearGradient id="paint3_linear_1815_817" x1="635.449" y1="677.646" x2="635.449" y2="702.646" gradientUnits="userSpaceOnUse">
<stop stop-color="white"/>
<stop offset="0.46" stop-color="#F8EA50"/>
<stop offset="1" stop-color="#928A2F"/>
</linearGradient>
<linearGradient id="paint4_linear_1815_817" x1="770.641" y1="704.589" x2="770.641" y2="723.589" gradientUnits="userSpaceOnUse">
<stop stop-color="white"/>
<stop offset="0.46" stop-color="#F8EA50"/>
<stop offset="1" stop-color="#928A2F"/>
</linearGradient>
</defs>
</svg>
