<svg width="525" height="835" viewBox="0 0 525 835" fill="none" xmlns="http://www.w3.org/2000/svg">
<rect x="184.311" y="239.501" width="20" height="624.194" transform="rotate(-4.3042 184.311 239.501)" fill="#C9D2E5"/>
<g opacity="0.95">
<path d="M11.1097 57.8031C-27.5412 84.7756 -34.8141 103.273 -57.4348 144.968C-70.1718 168.446 -74.3475 200.669 -75.8049 224.672L36.1315 229.314C36.1315 229.314 29.7453 178.773 39.4633 148.988C63.8562 74.2236 169 10.5 169 10.5C138.444 13.0073 65.6424 19.7475 11.1097 57.8031Z" fill="#B73C94"/>
<path d="M11.1097 57.8031C-27.5412 84.7756 -34.8141 103.273 -57.4348 144.968C-70.1718 168.446 -74.3475 200.669 -75.8049 224.672L36.1315 229.314C36.1315 229.314 29.7453 178.773 39.4633 148.988C63.8562 74.2236 169 10.5 169 10.5C138.444 13.0073 65.6424 19.7475 11.1097 57.8031Z" fill="url(#paint0_linear_0_1)" fill-opacity="0.2"/>
<path fill-rule="evenodd" clip-rule="evenodd" d="M276.982 207.938C277.154 207.894 277.323 207.886 277.489 207.912L276.982 207.938ZM154.137 220.634C154.24 220.614 154.348 220.606 154.461 220.61L154.137 220.634ZM36.1315 229.314L-75.8049 224.672C-76.0543 228.779 -76.4637 232.971 -76.8646 237.076C-78.4439 253.248 -79.8914 268.07 -70.9067 271.037C-39.997 281.244 -1.17737 278.072 23.1217 274.937C31.5895 273.844 32.5834 256.582 33.33 243.612C33.7911 235.604 34.1579 229.232 36.1315 229.314Z" fill="#B73C94"/>
<path fill-rule="evenodd" clip-rule="evenodd" d="M276.982 207.938C277.154 207.894 277.323 207.886 277.489 207.912L276.982 207.938ZM154.137 220.634C154.24 220.614 154.348 220.606 154.461 220.61L154.137 220.634ZM36.1315 229.314L-75.8049 224.672C-76.0543 228.779 -76.4637 232.971 -76.8646 237.076C-78.4439 253.248 -79.8914 268.07 -70.9067 271.037C-39.997 281.244 -1.17737 278.072 23.1217 274.937C31.5895 273.844 32.5834 256.582 33.33 243.612C33.7911 235.604 34.1579 229.232 36.1315 229.314Z" fill="url(#paint1_linear_0_1)" fill-opacity="0.2"/>
<path d="M154.461 220.61L276.982 207.938C276.982 207.938 265.308 156.227 252.215 125.239C231.644 76.553 178.5 8.49999 178.5 8.49999C178.5 8.49999 144.01 83.1788 142.002 132.504C140.588 167.258 154.461 220.61 154.461 220.61Z" fill="#B73C94"/>
<path d="M154.461 220.61L276.982 207.938C276.982 207.938 265.308 156.227 252.215 125.239C231.644 76.553 178.5 8.49999 178.5 8.49999C178.5 8.49999 144.01 83.1788 142.002 132.504C140.588 167.258 154.461 220.61 154.461 220.61Z" fill="url(#paint2_linear_0_1)" fill-opacity="0.2"/>
<path d="M276.982 207.938L154.461 220.61C157.389 220.732 159.178 229.073 161.235 238.669C164.021 251.663 167.301 266.955 174.57 267.257C201.137 268.359 234.573 262.758 264.374 257.766C266.465 257.416 268.538 257.069 270.589 256.727C276.678 255.713 275.892 240.818 275.203 227.743C274.671 217.651 274.196 208.643 276.982 207.938Z" fill="#B73C94"/>
<path d="M276.982 207.938L154.461 220.61C157.389 220.732 159.178 229.073 161.235 238.669C164.021 251.663 167.301 266.955 174.57 267.257C201.137 268.359 234.573 262.758 264.374 257.766C266.465 257.416 268.538 257.069 270.589 256.727C276.678 255.713 275.892 240.818 275.203 227.743C274.671 217.651 274.196 208.643 276.982 207.938Z" fill="url(#paint3_linear_0_1)" fill-opacity="0.2"/>
<path d="M39.4633 148.988C29.7453 178.773 36.1315 229.314 36.1315 229.314L154.137 220.634C154.24 220.614 154.348 220.606 154.461 220.61C154.461 220.61 140.588 167.258 142.002 132.504C144.01 83.1788 178.5 8.49999 178.5 8.49999L169 10.5C169 10.5 63.8562 74.2236 39.4633 148.988Z" fill="#B73C94"/>
<path d="M39.4633 148.988C29.7453 178.773 36.1315 229.314 36.1315 229.314L154.137 220.634C154.24 220.614 154.348 220.606 154.461 220.61C154.461 220.61 140.588 167.258 142.002 132.504C144.01 83.1788 178.5 8.49999 178.5 8.49999L169 10.5C169 10.5 63.8562 74.2236 39.4633 148.988Z" fill="url(#paint4_linear_0_1)" fill-opacity="0.2"/>
<path d="M50.0985 276.056C92.381 275.442 125.31 274.953 143.889 270.989C152.979 269.049 152.508 251.294 152.14 237.403C151.903 228.458 151.708 221.115 154.137 220.634L36.1315 229.314C38.1689 229.399 38.8815 236.702 39.741 245.511C41.0625 259.057 42.7315 276.162 50.0985 276.056Z" fill="#B73C94"/>
<path d="M50.0985 276.056C92.381 275.442 125.31 274.953 143.889 270.989C152.979 269.049 152.508 251.294 152.14 237.403C151.903 228.458 151.708 221.115 154.137 220.634L36.1315 229.314C38.1689 229.399 38.8815 236.702 39.741 245.511C41.0625 259.057 42.7315 276.162 50.0985 276.056Z" fill="url(#paint5_linear_0_1)" fill-opacity="0.2"/>
<path d="M252.215 125.239C265.308 156.227 276.982 207.938 276.982 207.938C277.154 207.894 277.323 207.886 277.489 207.912L404.429 201.387C404.429 201.387 386.297 148.65 366.376 119.913C319.554 52.3701 190.5 8.49999 190.5 8.49999C188.853 8.66404 186.664 8.58199 184.48 8.5001C182.302 8.41842 180.127 8.33691 178.5 8.49999C178.5 8.49999 231.644 76.553 252.215 125.239Z" fill="#B73C94"/>
<path d="M252.215 125.239C265.308 156.227 276.982 207.938 276.982 207.938C277.154 207.894 277.323 207.886 277.489 207.912L404.429 201.387C404.429 201.387 386.297 148.65 366.376 119.913C319.554 52.3701 190.5 8.49999 190.5 8.49999C188.853 8.66404 186.664 8.58199 184.48 8.5001C182.302 8.41842 180.127 8.33691 178.5 8.49999C178.5 8.49999 231.644 76.553 252.215 125.239Z" fill="url(#paint6_linear_0_1)" fill-opacity="0.2"/>
<path d="M301.208 254.494C332.911 255.809 364.299 253.608 392.585 247.275C398.077 246.045 399.292 232.031 400.352 219.805C401.171 210.362 401.897 201.985 404.429 201.387L277.489 207.912C279.802 208.266 281.613 215.118 283.819 223.462C287.361 236.86 291.921 254.109 301.208 254.494Z" fill="#B73C94"/>
<path d="M301.208 254.494C332.911 255.809 364.299 253.608 392.585 247.275C398.077 246.045 399.292 232.031 400.352 219.805C401.171 210.362 401.897 201.985 404.429 201.387L277.489 207.912C279.802 208.266 281.613 215.118 283.819 223.462C287.361 236.86 291.921 254.109 301.208 254.494Z" fill="url(#paint7_linear_0_1)" fill-opacity="0.2"/>
<path d="M404.429 201.387L514.966 168.71C514.966 168.71 467.001 123.136 432.247 99.5644C348.164 42.5369 190.5 8.49999 190.5 8.49999C190.5 8.49999 319.554 52.3701 366.376 119.913C386.297 148.65 404.429 201.387 404.429 201.387Z" fill="#B73C94"/>
<path d="M404.429 201.387L514.966 168.71C514.966 168.71 467.001 123.136 432.247 99.5644C348.164 42.5369 190.5 8.49999 190.5 8.49999C190.5 8.49999 319.554 52.3701 366.376 119.913C386.297 148.65 404.429 201.387 404.429 201.387Z" fill="url(#paint8_linear_0_1)" fill-opacity="0.2"/>
<path d="M518.258 217.945C526.95 212.05 523.963 192.208 514.966 168.71L404.429 201.387C406.197 200.97 407.31 204.798 408.882 210.206C412.478 222.576 418.478 243.217 440.222 240.263C445.286 239.575 449.887 238.974 454.103 238.424L454.117 238.422L454.121 238.421L454.14 238.419L454.145 238.418C486.511 234.192 496.158 232.933 518.258 217.945Z" fill="#B73C94"/>
<path d="M518.258 217.945C526.95 212.05 523.963 192.208 514.966 168.71L404.429 201.387C406.197 200.97 407.31 204.798 408.882 210.206C412.478 222.576 418.478 243.217 440.222 240.263C445.286 239.575 449.887 238.974 454.103 238.424L454.117 238.422L454.121 238.421L454.14 238.419L454.145 238.418C486.511 234.192 496.158 232.933 518.258 217.945Z" fill="url(#paint9_linear_0_1)" fill-opacity="0.2"/>
<path d="M489.056 117.308C462.622 74.7842 413.042 30.9504 340.267 14.0782C287.682 1.88693 238.241 3.74425 190.5 8.49999C190.5 8.49999 348.164 42.5369 432.247 99.5644C467.001 123.136 514.966 168.71 514.966 168.71C508.642 152.191 499.349 133.866 489.056 117.308Z" fill="#B73C94"/>
<path d="M489.056 117.308C462.622 74.7842 413.042 30.9504 340.267 14.0782C287.682 1.88693 238.241 3.74425 190.5 8.49999C190.5 8.49999 348.164 42.5369 432.247 99.5644C467.001 123.136 514.966 168.71 514.966 168.71C508.642 152.191 499.349 133.866 489.056 117.308Z" fill="url(#paint10_linear_0_1)" fill-opacity="0.2"/>
</g>
<g opacity="0.95">
<path d="M154.275 219.975L276.022 207.557C276.022 207.557 264.4 156.675 251.377 126.183C230.915 78.2733 178.077 11.2963 178.077 11.2963C178.077 11.2963 143.834 84.7564 141.859 133.285C140.468 167.478 154.275 219.975 154.275 219.975Z" fill="#FCDC8F"/>
<path d="M154.275 219.975L276.022 207.557C276.022 207.557 264.4 156.675 251.377 126.183C230.915 78.2733 178.077 11.2963 178.077 11.2963C178.077 11.2963 143.834 84.7564 141.859 133.285C140.468 167.478 154.275 219.975 154.275 219.975Z" fill="url(#paint11_linear_0_1)" fill-opacity="0.2"/>
</g>
<g opacity="0.95">
<path d="M277.263 207.262L153.921 220.131C156.869 220.254 158.668 228.703 160.737 238.422C163.538 251.583 166.835 267.073 174.153 267.377C200.896 268.486 234.557 262.804 264.558 257.74C266.663 257.384 268.749 257.032 270.814 256.686C276.944 255.657 276.157 240.569 275.467 227.324C274.934 217.102 274.458 207.978 277.263 207.262Z" fill="#FCDC8F"/>
<path d="M277.263 207.262L153.921 220.131C156.869 220.254 158.668 228.703 160.737 238.422C163.538 251.583 166.835 267.073 174.153 267.377C200.896 268.486 234.557 262.804 264.558 257.74C266.663 257.384 268.749 257.032 270.814 256.686C276.944 255.657 276.157 240.569 275.467 227.324C274.934 217.102 274.458 207.978 277.263 207.262Z" fill="url(#paint12_linear_0_1)" fill-opacity="0.2"/>
</g>
<g opacity="0.95">
<path d="M39.4631 148.988C29.7452 178.773 36.1314 229.314 36.1314 229.314L154.137 220.634C154.24 220.614 154.348 220.606 154.46 220.61C154.46 220.61 140.588 167.258 142.002 132.504C144.01 83.1788 178.5 8.49999 178.5 8.49999L169 10.5C169 10.5 63.856 74.2236 39.4631 148.988Z" fill="#F99557"/>
<path d="M39.4631 148.988C29.7452 178.773 36.1314 229.314 36.1314 229.314L154.137 220.634C154.24 220.614 154.348 220.606 154.46 220.61C154.46 220.61 140.588 167.258 142.002 132.504C144.01 83.1788 178.5 8.49999 178.5 8.49999L169 10.5C169 10.5 63.856 74.2236 39.4631 148.988Z" fill="url(#paint13_linear_0_1)" fill-opacity="0.2"/>
</g>
<g opacity="0.95">
<path d="M50.0987 276.056C92.3813 275.442 125.31 274.953 143.889 270.989C152.979 269.049 152.508 251.294 152.14 237.403C151.903 228.458 151.708 221.115 154.138 220.634L36.1318 229.314C38.1691 229.399 38.8817 236.702 39.7412 245.511C41.0628 259.057 42.7317 276.162 50.0987 276.056Z" fill="#F99557"/>
<path d="M50.0987 276.056C92.3813 275.442 125.31 274.953 143.889 270.989C152.979 269.049 152.508 251.294 152.14 237.403C151.903 228.458 151.708 221.115 154.138 220.634L36.1318 229.314C38.1691 229.399 38.8817 236.702 39.7412 245.511C41.0628 259.057 42.7317 276.162 50.0987 276.056Z" fill="url(#paint14_linear_0_1)" fill-opacity="0.2"/>
</g>
<path opacity="0.95" d="M250.613 124.929C263.858 155.858 275.68 207.466 275.68 207.466C275.853 207.423 276.024 207.415 276.192 207.441L404.446 200.996C404.446 200.996 372 148 351 118.5C296.052 41.3118 188.196 8.40441 188.196 8.40441C186.532 8.56726 184.321 8.48425 182.114 8.4014C179.913 8.31876 177.716 8.2363 176.072 8.39819C176.072 8.39819 229.803 76.3352 250.613 124.929Z" fill="#37DECD"/>
<g opacity="0.95">
<path d="M299.893 254.44C332.01 255.772 363.808 253.514 392.466 247.037C398.03 245.78 399.265 231.47 400.343 218.985C401.176 209.342 401.914 200.788 404.48 200.177L275.881 206.882C278.223 207.243 280.056 214.238 282.288 222.758C285.872 236.438 290.485 254.049 299.893 254.44Z" fill="#37DECD"/>
<path d="M299.893 254.44C332.01 255.772 363.808 253.514 392.466 247.037C398.03 245.78 399.265 231.47 400.343 218.985C401.176 209.342 401.914 200.788 404.48 200.177L275.881 206.882C278.223 207.243 280.056 214.238 282.288 222.758C285.872 236.438 290.485 254.049 299.893 254.44Z" fill="url(#paint15_linear_0_1)" fill-opacity="0.2"/>
</g>
<g opacity="0.95">
<path d="M404.43 201.387L514.966 168.71C514.966 168.71 467.002 123.136 432.247 99.5644C348.164 42.5369 190.5 8.5 190.5 8.5C190.5 8.5 298.678 49.9568 345.5 117.5C365.421 146.236 404.43 201.387 404.43 201.387Z" fill="#088BC1"/>
<path d="M404.43 201.387L514.966 168.71C514.966 168.71 467.002 123.136 432.247 99.5644C348.164 42.5369 190.5 8.5 190.5 8.5C190.5 8.5 298.678 49.9568 345.5 117.5C365.421 146.236 404.43 201.387 404.43 201.387Z" fill="url(#paint16_linear_0_1)" fill-opacity="0.2"/>
</g>
<g opacity="0.95">
<path d="M518.258 217.945C526.95 212.05 523.963 192.208 514.966 168.71L404.429 201.387C406.197 200.97 407.31 204.798 408.882 210.206C412.478 222.576 418.478 243.217 440.221 240.263C445.286 239.575 449.887 238.974 454.103 238.424L454.117 238.422L454.121 238.421L454.14 238.419L454.145 238.418C486.511 234.192 496.157 232.933 518.258 217.945Z" fill="#088BC1"/>
<path d="M518.258 217.945C526.95 212.05 523.963 192.208 514.966 168.71L404.429 201.387C406.197 200.97 407.31 204.798 408.882 210.206C412.478 222.576 418.478 243.217 440.221 240.263C445.286 239.575 449.887 238.974 454.103 238.424L454.117 238.422L454.121 238.421L454.14 238.419L454.145 238.418C486.511 234.192 496.157 232.933 518.258 217.945Z" fill="url(#paint17_linear_0_1)" fill-opacity="0.2"/>
</g>
<g opacity="0.95">
<path d="M489.056 117.308C462.623 74.7842 413.043 30.9504 340.267 14.0782C287.682 1.88694 238.241 3.74426 190.5 8.5C190.5 8.5 348.164 42.5369 432.247 99.5644C467.002 123.136 514.966 168.71 514.966 168.71C508.642 152.191 499.349 133.866 489.056 117.308Z" fill="#B73C94"/>
<path d="M489.056 117.308C462.623 74.7842 413.043 30.9504 340.267 14.0782C287.682 1.88694 238.241 3.74426 190.5 8.5C190.5 8.5 348.164 42.5369 432.247 99.5644C467.002 123.136 514.966 168.71 514.966 168.71C508.642 152.191 499.349 133.866 489.056 117.308Z" fill="url(#paint18_linear_0_1)" fill-opacity="0.2"/>
</g>
<g opacity="0.95">
<path d="M11.1101 57.8031C-27.5409 84.7756 -34.8137 103.273 -57.4345 144.968C-70.1714 168.446 -74.3471 200.669 -75.8045 224.672L36.1319 229.314C36.1319 229.314 29.7457 178.773 39.4636 148.988C63.8565 74.2236 169 10.5 169 10.5C138.444 13.0073 65.6427 19.7475 11.1101 57.8031Z" fill="#FE7098"/>
<path d="M11.1101 57.8031C-27.5409 84.7756 -34.8137 103.273 -57.4345 144.968C-70.1714 168.446 -74.3471 200.669 -75.8045 224.672L36.1319 229.314C36.1319 229.314 29.7457 178.773 39.4636 148.988C63.8565 74.2236 169 10.5 169 10.5C138.444 13.0073 65.6427 19.7475 11.1101 57.8031Z" fill="url(#paint19_linear_0_1)" fill-opacity="0.2"/>
</g>
<g opacity="0.95">
<path fill-rule="evenodd" clip-rule="evenodd" d="M276.983 207.938C277.155 207.894 277.324 207.886 277.49 207.912L276.983 207.938ZM154.138 220.634C154.241 220.614 154.349 220.606 154.461 220.61L154.138 220.634ZM36.1322 229.314L-75.8042 224.672C-76.0536 228.779 -76.4631 232.971 -76.864 237.076C-78.4433 253.248 -79.8908 268.07 -70.9061 271.037C-39.9964 281.244 -1.17674 278.072 23.1223 274.937C31.5902 273.844 32.584 256.582 33.3307 243.612C33.7917 235.604 34.1585 229.232 36.1322 229.314Z" fill="#FE7098"/>
<path fill-rule="evenodd" clip-rule="evenodd" d="M276.983 207.938C277.155 207.894 277.324 207.886 277.49 207.912L276.983 207.938ZM154.138 220.634C154.241 220.614 154.349 220.606 154.461 220.61L154.138 220.634ZM36.1322 229.314L-75.8042 224.672C-76.0536 228.779 -76.4631 232.971 -76.864 237.076C-78.4433 253.248 -79.8908 268.07 -70.9061 271.037C-39.9964 281.244 -1.17674 278.072 23.1223 274.937C31.5902 273.844 32.584 256.582 33.3307 243.612C33.7917 235.604 34.1585 229.232 36.1322 229.314Z" fill="url(#paint20_linear_0_1)" fill-opacity="0.2"/>
</g>
<defs>
<linearGradient id="paint0_linear_0_1" x1="231.265" y1="255.754" x2="223.326" y2="198.117" gradientUnits="userSpaceOnUse">
<stop/>
<stop offset="1" stop-opacity="0"/>
</linearGradient>
<linearGradient id="paint1_linear_0_1" x1="231.265" y1="255.754" x2="223.326" y2="198.117" gradientUnits="userSpaceOnUse">
<stop/>
<stop offset="1" stop-opacity="0"/>
</linearGradient>
<linearGradient id="paint2_linear_0_1" x1="231.265" y1="255.754" x2="223.326" y2="198.117" gradientUnits="userSpaceOnUse">
<stop/>
<stop offset="1" stop-opacity="0"/>
</linearGradient>
<linearGradient id="paint3_linear_0_1" x1="231.265" y1="255.754" x2="223.326" y2="198.117" gradientUnits="userSpaceOnUse">
<stop/>
<stop offset="1" stop-opacity="0"/>
</linearGradient>
<linearGradient id="paint4_linear_0_1" x1="231.265" y1="255.754" x2="223.326" y2="198.117" gradientUnits="userSpaceOnUse">
<stop/>
<stop offset="1" stop-opacity="0"/>
</linearGradient>
<linearGradient id="paint5_linear_0_1" x1="231.265" y1="255.754" x2="223.326" y2="198.117" gradientUnits="userSpaceOnUse">
<stop/>
<stop offset="1" stop-opacity="0"/>
</linearGradient>
<linearGradient id="paint6_linear_0_1" x1="231.265" y1="255.754" x2="223.326" y2="198.117" gradientUnits="userSpaceOnUse">
<stop/>
<stop offset="1" stop-opacity="0"/>
</linearGradient>
<linearGradient id="paint7_linear_0_1" x1="231.265" y1="255.754" x2="223.326" y2="198.117" gradientUnits="userSpaceOnUse">
<stop/>
<stop offset="1" stop-opacity="0"/>
</linearGradient>
<linearGradient id="paint8_linear_0_1" x1="231.265" y1="255.754" x2="223.326" y2="198.117" gradientUnits="userSpaceOnUse">
<stop/>
<stop offset="1" stop-opacity="0"/>
</linearGradient>
<linearGradient id="paint9_linear_0_1" x1="231.265" y1="255.754" x2="223.326" y2="198.117" gradientUnits="userSpaceOnUse">
<stop/>
<stop offset="1" stop-opacity="0"/>
</linearGradient>
<linearGradient id="paint10_linear_0_1" x1="231.265" y1="255.754" x2="223.326" y2="198.117" gradientUnits="userSpaceOnUse">
<stop/>
<stop offset="1" stop-opacity="0"/>
</linearGradient>
<linearGradient id="paint11_linear_0_1" x1="230.611" y1="254.584" x2="222.896" y2="197.846" gradientUnits="userSpaceOnUse">
<stop/>
<stop offset="1" stop-opacity="0"/>
</linearGradient>
<linearGradient id="paint12_linear_0_1" x1="231.228" y1="255.71" x2="223.125" y2="197.346" gradientUnits="userSpaceOnUse">
<stop/>
<stop offset="1" stop-opacity="0"/>
</linearGradient>
<linearGradient id="paint13_linear_0_1" x1="231.265" y1="255.754" x2="223.326" y2="198.117" gradientUnits="userSpaceOnUse">
<stop/>
<stop offset="1" stop-opacity="0"/>
</linearGradient>
<linearGradient id="paint14_linear_0_1" x1="231.265" y1="255.754" x2="223.326" y2="198.117" gradientUnits="userSpaceOnUse">
<stop/>
<stop offset="1" stop-opacity="0"/>
</linearGradient>
<linearGradient id="paint15_linear_0_1" x1="229.037" y1="255.75" x2="220.851" y2="196.921" gradientUnits="userSpaceOnUse">
<stop/>
<stop offset="1" stop-opacity="0"/>
</linearGradient>
<linearGradient id="paint16_linear_0_1" x1="231.265" y1="255.754" x2="223.326" y2="198.117" gradientUnits="userSpaceOnUse">
<stop/>
<stop offset="1" stop-opacity="0"/>
</linearGradient>
<linearGradient id="paint17_linear_0_1" x1="231.265" y1="255.754" x2="223.326" y2="198.117" gradientUnits="userSpaceOnUse">
<stop/>
<stop offset="1" stop-opacity="0"/>
</linearGradient>
<linearGradient id="paint18_linear_0_1" x1="231.265" y1="255.754" x2="223.326" y2="198.117" gradientUnits="userSpaceOnUse">
<stop/>
<stop offset="1" stop-opacity="0"/>
</linearGradient>
<linearGradient id="paint19_linear_0_1" x1="231.265" y1="255.754" x2="223.327" y2="198.117" gradientUnits="userSpaceOnUse">
<stop/>
<stop offset="1" stop-opacity="0"/>
</linearGradient>
<linearGradient id="paint20_linear_0_1" x1="231.265" y1="255.754" x2="223.327" y2="198.117" gradientUnits="userSpaceOnUse">
<stop/>
<stop offset="1" stop-opacity="0"/>
</linearGradient>
</defs>
</svg>
