<svg width="525" height="835" viewBox="0 0 525 835" fill="none" xmlns="http://www.w3.org/2000/svg">
<rect x="184.311" y="239.501" width="20" height="624.194" transform="rotate(-4.3042 184.311 239.501)" fill="#C9D2E5"/>
<g opacity="0.95">
<path d="M11.1097 57.8031C-27.5412 84.7756 -34.8141 103.273 -57.4348 144.968C-70.1718 168.446 -74.3475 200.669 -75.8049 224.672L36.1315 229.314C36.1315 229.314 29.7453 178.773 39.4633 148.988C63.8562 74.2236 169 10.5 169 10.5C138.444 13.0073 65.6424 19.7475 11.1097 57.8031Z" fill="#B73C94"/>
<path d="M11.1097 57.8031C-27.5412 84.7756 -34.8141 103.273 -57.4348 144.968C-70.1718 168.446 -74.3475 200.669 -75.8049 224.672L36.1315 229.314C36.1315 229.314 29.7453 178.773 39.4633 148.988C63.8562 74.2236 169 10.5 169 10.5C138.444 13.0073 65.6424 19.7475 11.1097 57.8031Z" fill="url(#paint0_linear_0_1)" fill-opacity="0.2"/>
<path fill-rule="evenodd" clip-rule="evenodd" d="M276.982 207.938C277.154 207.894 277.323 207.886 277.489 207.912L276.982 207.938ZM154.137 220.634C154.24 220.614 154.348 220.606 154.461 220.61L154.137 220.634ZM36.1315 229.314L-75.8049 224.672C-76.0543 228.779 -76.4637 232.971 -76.8646 237.076C-78.4439 253.248 -79.8914 268.07 -70.9067 271.037C-39.997 281.244 -1.17737 278.072 23.1217 274.937C31.5895 273.844 32.5834 256.582 33.33 243.612C33.7911 235.604 34.1579 229.232 36.1315 229.314Z" fill="#B73C94"/>
<path fill-rule="evenodd" clip-rule="evenodd" d="M276.982 207.938C277.154 207.894 277.323 207.886 277.489 207.912L276.982 207.938ZM154.137 220.634C154.24 220.614 154.348 220.606 154.461 220.61L154.137 220.634ZM36.1315 229.314L-75.8049 224.672C-76.0543 228.779 -76.4637 232.971 -76.8646 237.076C-78.4439 253.248 -79.8914 268.07 -70.9067 271.037C-39.997 281.244 -1.17737 278.072 23.1217 274.937C31.5895 273.844 32.5834 256.582 33.33 243.612C33.7911 235.604 34.1579 229.232 36.1315 229.314Z" fill="url(#paint1_linear_0_1)" fill-opacity="0.2"/>
<path d="M154.461 220.61L276.982 207.938C276.982 207.938 265.308 156.227 252.215 125.239C231.644 76.553 178.5 8.49999 178.5 8.49999C178.5 8.49999 144.01 83.1788 142.002 132.504C140.588 167.258 154.461 220.61 154.461 220.61Z" fill="#B73C94"/>
<path d="M154.461 220.61L276.982 207.938C276.982 207.938 265.308 156.227 252.215 125.239C231.644 76.553 178.5 8.49999 178.5 8.49999C178.5 8.49999 144.01 83.1788 142.002 132.504C140.588 167.258 154.461 220.61 154.461 220.61Z" fill="url(#paint2_linear_0_1)" fill-opacity="0.2"/>
<path d="M276.982 207.938L154.461 220.61C157.389 220.732 159.178 229.073 161.235 238.669C164.021 251.663 167.301 266.955 174.57 267.257C201.137 268.359 234.573 262.758 264.374 257.766C266.465 257.416 268.538 257.069 270.589 256.727C276.678 255.713 275.892 240.818 275.203 227.743C274.671 217.651 274.196 208.643 276.982 207.938Z" fill="#B73C94"/>
<path d="M276.982 207.938L154.461 220.61C157.389 220.732 159.178 229.073 161.235 238.669C164.021 251.663 167.301 266.955 174.57 267.257C201.137 268.359 234.573 262.758 264.374 257.766C266.465 257.416 268.538 257.069 270.589 256.727C276.678 255.713 275.892 240.818 275.203 227.743C274.671 217.651 274.196 208.643 276.982 207.938Z" fill="url(#paint3_linear_0_1)" fill-opacity="0.2"/>
<path d="M39.4633 148.988C29.7453 178.773 36.1315 229.314 36.1315 229.314L154.137 220.634C154.24 220.614 154.348 220.606 154.461 220.61C154.461 220.61 140.588 167.258 142.002 132.504C144.01 83.1788 178.5 8.49999 178.5 8.49999L169 10.5C169 10.5 63.8562 74.2236 39.4633 148.988Z" fill="#B73C94"/>
<path d="M39.4633 148.988C29.7453 178.773 36.1315 229.314 36.1315 229.314L154.137 220.634C154.24 220.614 154.348 220.606 154.461 220.61C154.461 220.61 140.588 167.258 142.002 132.504C144.01 83.1788 178.5 8.49999 178.5 8.49999L169 10.5C169 10.5 63.8562 74.2236 39.4633 148.988Z" fill="url(#paint4_linear_0_1)" fill-opacity="0.2"/>
<path d="M50.0985 276.056C92.381 275.442 125.31 274.953 143.889 270.989C152.979 269.049 152.508 251.294 152.14 237.403C151.903 228.458 151.708 221.115 154.137 220.634L36.1315 229.314C38.1689 229.399 38.8815 236.702 39.741 245.511C41.0625 259.057 42.7315 276.162 50.0985 276.056Z" fill="#B73C94"/>
<path d="M50.0985 276.056C92.381 275.442 125.31 274.953 143.889 270.989C152.979 269.049 152.508 251.294 152.14 237.403C151.903 228.458 151.708 221.115 154.137 220.634L36.1315 229.314C38.1689 229.399 38.8815 236.702 39.741 245.511C41.0625 259.057 42.7315 276.162 50.0985 276.056Z" fill="url(#paint5_linear_0_1)" fill-opacity="0.2"/>
<path d="M252.215 125.239C265.308 156.227 276.982 207.938 276.982 207.938C277.154 207.894 277.323 207.886 277.489 207.912L404.429 201.387C404.429 201.387 386.297 148.65 366.376 119.913C319.554 52.3701 190.5 8.49999 190.5 8.49999C188.853 8.66404 186.664 8.58199 184.48 8.5001C182.302 8.41842 180.127 8.33691 178.5 8.49999C178.5 8.49999 231.644 76.553 252.215 125.239Z" fill="#B73C94"/>
<path d="M252.215 125.239C265.308 156.227 276.982 207.938 276.982 207.938C277.154 207.894 277.323 207.886 277.489 207.912L404.429 201.387C404.429 201.387 386.297 148.65 366.376 119.913C319.554 52.3701 190.5 8.49999 190.5 8.49999C188.853 8.66404 186.664 8.58199 184.48 8.5001C182.302 8.41842 180.127 8.33691 178.5 8.49999C178.5 8.49999 231.644 76.553 252.215 125.239Z" fill="url(#paint6_linear_0_1)" fill-opacity="0.2"/>
<path d="M301.208 254.494C332.911 255.809 364.299 253.608 392.585 247.275C398.077 246.045 399.292 232.031 400.352 219.805C401.171 210.362 401.897 201.985 404.429 201.387L277.489 207.912C279.802 208.266 281.613 215.118 283.819 223.462C287.361 236.86 291.921 254.109 301.208 254.494Z" fill="#B73C94"/>
<path d="M301.208 254.494C332.911 255.809 364.299 253.608 392.585 247.275C398.077 246.045 399.292 232.031 400.352 219.805C401.171 210.362 401.897 201.985 404.429 201.387L277.489 207.912C279.802 208.266 281.613 215.118 283.819 223.462C287.361 236.86 291.921 254.109 301.208 254.494Z" fill="url(#paint7_linear_0_1)" fill-opacity="0.2"/>
<path d="M404.429 201.387L514.966 168.71C514.966 168.71 467.001 123.136 432.247 99.5644C348.164 42.5369 190.5 8.49999 190.5 8.49999C190.5 8.49999 319.554 52.3701 366.376 119.913C386.297 148.65 404.429 201.387 404.429 201.387Z" fill="#B73C94"/>
<path d="M404.429 201.387L514.966 168.71C514.966 168.71 467.001 123.136 432.247 99.5644C348.164 42.5369 190.5 8.49999 190.5 8.49999C190.5 8.49999 319.554 52.3701 366.376 119.913C386.297 148.65 404.429 201.387 404.429 201.387Z" fill="url(#paint8_linear_0_1)" fill-opacity="0.2"/>
<path d="M518.258 217.945C526.95 212.05 523.963 192.208 514.966 168.71L404.429 201.387C406.197 200.97 407.31 204.798 408.882 210.206C412.478 222.576 418.478 243.217 440.222 240.263C445.286 239.575 449.887 238.974 454.103 238.424L454.117 238.422L454.121 238.421L454.14 238.419L454.145 238.418C486.511 234.192 496.158 232.933 518.258 217.945Z" fill="#B73C94"/>
<path d="M518.258 217.945C526.95 212.05 523.963 192.208 514.966 168.71L404.429 201.387C406.197 200.97 407.31 204.798 408.882 210.206C412.478 222.576 418.478 243.217 440.222 240.263C445.286 239.575 449.887 238.974 454.103 238.424L454.117 238.422L454.121 238.421L454.14 238.419L454.145 238.418C486.511 234.192 496.158 232.933 518.258 217.945Z" fill="url(#paint9_linear_0_1)" fill-opacity="0.2"/>
<path d="M489.056 117.308C462.622 74.7842 413.042 30.9504 340.267 14.0782C287.682 1.88693 238.241 3.74425 190.5 8.49999C190.5 8.49999 348.164 42.5369 432.247 99.5644C467.001 123.136 514.966 168.71 514.966 168.71C508.642 152.191 499.349 133.866 489.056 117.308Z" fill="#B73C94"/>
<path d="M489.056 117.308C462.622 74.7842 413.042 30.9504 340.267 14.0782C287.682 1.88693 238.241 3.74425 190.5 8.49999C190.5 8.49999 348.164 42.5369 432.247 99.5644C467.001 123.136 514.966 168.71 514.966 168.71C508.642 152.191 499.349 133.866 489.056 117.308Z" fill="url(#paint10_linear_0_1)" fill-opacity="0.2"/>
</g>
<g opacity="0.95">
<path d="M154.275 219.975L276.022 207.557C276.022 207.557 264.4 156.675 251.377 126.183C230.915 78.2733 178.077 11.2963 178.077 11.2963C178.077 11.2963 143.834 84.7564 141.859 133.285C140.468 167.478 154.275 219.975 154.275 219.975Z" fill="#FCDC8F"/>
<path d="M154.275 219.975L276.022 207.557C276.022 207.557 264.4 156.675 251.377 126.183C230.915 78.2733 178.077 11.2963 178.077 11.2963C178.077 11.2963 143.834 84.7564 141.859 133.285C140.468 167.478 154.275 219.975 154.275 219.975Z" fill="url(#paint11_linear_0_1)" fill-opacity="0.2"/>
</g>
<g opacity="0.95">
<path d="M277.263 207.262L153.921 220.131C156.869 220.254 158.668 228.703 160.737 238.422C163.538 251.583 166.835 267.073 174.153 267.377C200.896 268.486 234.557 262.804 264.558 257.74C266.663 257.384 268.749 257.032 270.814 256.686C276.944 255.657 276.157 240.569 275.467 227.324C274.934 217.102 274.458 207.978 277.263 207.262Z" fill="#FCDC8F"/>
<path d="M277.263 207.262L153.921 220.131C156.869 220.254 158.668 228.703 160.737 238.422C163.538 251.583 166.835 267.073 174.153 267.377C200.896 268.486 234.557 262.804 264.558 257.74C266.663 257.384 268.749 257.032 270.814 256.686C276.944 255.657 276.157 240.569 275.467 227.324C274.934 217.102 274.458 207.978 277.263 207.262Z" fill="url(#paint12_linear_0_1)" fill-opacity="0.2"/>
</g>
<g opacity="0.95">
<path d="M39.4631 148.988C29.7452 178.773 36.1314 229.314 36.1314 229.314L154.137 220.634C154.24 220.614 154.348 220.606 154.46 220.61C154.46 220.61 140.588 167.258 142.002 132.504C144.01 83.1788 178.5 8.49999 178.5 8.49999L169 10.5C169 10.5 63.856 74.2236 39.4631 148.988Z" fill="#F99557"/>
<path d="M39.4631 148.988C29.7452 178.773 36.1314 229.314 36.1314 229.314L154.137 220.634C154.24 220.614 154.348 220.606 154.46 220.61C154.46 220.61 140.588 167.258 142.002 132.504C144.01 83.1788 178.5 8.49999 178.5 8.49999L169 10.5C169 10.5 63.856 74.2236 39.4631 148.988Z" fill="url(#paint13_linear_0_1)" fill-opacity="0.2"/>
</g>
<g opacity="0.95">
<path d="M50.0987 276.056C92.3813 275.442 125.31 274.953 143.889 270.989C152.979 269.049 152.508 251.294 152.14 237.403C151.903 228.458 151.708 221.115 154.138 220.634L36.1318 229.314C38.1691 229.399 38.8817 236.702 39.7412 245.511C41.0628 259.057 42.7317 276.162 50.0987 276.056Z" fill="#F99557"/>
<path d="M50.0987 276.056C92.3813 275.442 125.31 274.953 143.889 270.989C152.979 269.049 152.508 251.294 152.14 237.403C151.903 228.458 151.708 221.115 154.138 220.634L36.1318 229.314C38.1691 229.399 38.8817 236.702 39.7412 245.511C41.0628 259.057 42.7317 276.162 50.0987 276.056Z" fill="url(#paint14_linear_0_1)" fill-opacity="0.2"/>
</g>
<path opacity="0.95" d="M250.613 124.929C263.858 155.858 275.68 207.466 275.68 207.466C275.853 207.423 276.024 207.415 276.192 207.441L404.446 200.996C404.446 200.996 372 148 351 118.5C296.052 41.3118 188.196 8.40441 188.196 8.40441C186.532 8.56726 184.321 8.48425 182.114 8.4014C179.913 8.31876 177.716 8.2363 176.072 8.39819C176.072 8.39819 229.803 76.3352 250.613 124.929Z" fill="#37DECD"/>
<g opacity="0.95">
<path d="M299.893 254.44C332.01 255.772 363.808 253.514 392.466 247.037C398.03 245.78 399.265 231.47 400.343 218.985C401.176 209.342 401.914 200.788 404.48 200.177L275.881 206.882C278.223 207.243 280.056 214.238 282.288 222.758C285.872 236.438 290.485 254.049 299.893 254.44Z" fill="#37DECD"/>
<path d="M299.893 254.44C332.01 255.772 363.808 253.514 392.466 247.037C398.03 245.78 399.265 231.47 400.343 218.985C401.176 209.342 401.914 200.788 404.48 200.177L275.881 206.882C278.223 207.243 280.056 214.238 282.288 222.758C285.872 236.438 290.485 254.049 299.893 254.44Z" fill="url(#paint15_linear_0_1)" fill-opacity="0.2"/>
</g>
<g opacity="0.95">
<path d="M404.43 201.387L514.966 168.71C514.966 168.71 467.002 123.136 432.247 99.5644C348.164 42.5369 190.5 8.5 190.5 8.5C190.5 8.5 298.678 49.9568 345.5 117.5C365.421 146.236 404.43 201.387 404.43 201.387Z" fill="#088BC1"/>
<path d="M404.43 201.387L514.966 168.71C514.966 168.71 467.002 123.136 432.247 99.5644C348.164 42.5369 190.5 8.5 190.5 8.5C190.5 8.5 298.678 49.9568 345.5 117.5C365.421 146.236 404.43 201.387 404.43 201.387Z" fill="url(#paint16_linear_0_1)" fill-opacity="0.2"/>
</g>
<g opacity="0.95">
<path d="M518.258 217.945C526.95 212.05 523.963 192.208 514.966 168.71L404.429 201.387C406.197 200.97 407.31 204.798 408.882 210.206C412.478 222.576 418.478 243.217 440.221 240.263C445.286 239.575 449.887 238.974 454.103 238.424L454.117 238.422L454.121 238.421L454.14 238.419L454.145 238.418C486.511 234.192 496.157 232.933 518.258 217.945Z" fill="#088BC1"/>
<path d="M518.258 217.945C526.95 212.05 523.963 192.208 514.966 168.71L404.429 201.387C406.197 200.97 407.31 204.798 408.882 210.206C412.478 222.576 418.478 243.217 440.221 240.263C445.286 239.575 449.887 238.974 454.103 238.424L454.117 238.422L454.121 238.421L454.14 238.419L454.145 238.418C486.511 234.192 496.157 232.933 518.258 217.945Z" fill="url(#paint17_linear_0_1)" fill-opacity="0.2"/>
</g>
<g opacity="0.95">
<path d="M489.056 117.308C462.623 74.7842 413.043 30.9504 340.267 14.0782C287.682 1.88694 238.241 3.74426 190.5 8.5C190.5 8.5 348.164 42.5369 432.247 99.5644C467.002 123.136 514.966 168.71 514.966 168.71C508.642 152.191 499.349 133.866 489.056 117.308Z" fill="#B73C94"/>
<path d="M489.056 117.308C462.623 74.7842 413.043 30.9504 340.267 14.0782C287.682 1.88694 238.241 3.74426 190.5 8.5C190.5 8.5 348.164 42.5369 432.247 99.5644C467.002 123.136 514.966 168.71 514.966 168.71C508.642 152.191 499.349 133.866 489.056 117.308Z" fill="url(#paint18_linear_0_1)" fill-opacity="0.2"/>
</g>
<g opacity="0.95">
<path d="M11.1101 57.8031C-27.5409 84.7756 -34.8137 103.273 -57.4345 144.968C-70.1714 168.446 -74.3471 200.669 -75.8045 224.672L36.1319 229.314C36.1319 229.314 29.7457 178.773 39.4636 148.988C63.8565 74.2236 169 10.5 169 10.5C138.444 13.0073 65.6427 19.7475 11.1101 57.8031Z" fill="#FE7098"/>
<path d="M11.1101 57.8031C-27.5409 84.7756 -34.8137 103.273 -57.4345 144.968C-70.1714 168.446 -74.3471 200.669 -75.8045 224.672L36.1319 229.314C36.1319 229.314 29.7457 178.773 39.4636 148.988C63.8565 74.2236 169 10.5 169 10.5C138.444 13.0073 65.6427 19.7475 11.1101 57.8031Z" fill="url(#paint19_linear_0_1)" fill-opacity="0.2"/>
</g>
<g opacity="0.95">
<path fill-rule="evenodd" clip-rule="evenodd" d="M276.983 207.938C277.155 207.894 277.324 207.886 277.49 207.912L276.983 207.938ZM154.138 220.634C154.241 220.614 154.349 220.606 154.461 220.61L154.138 220.634ZM36.1322 229.314L-75.8042 224.672C-76.0536 228.779 -76.4631 232.971 -76.864 237.076C-78.4433 253.248 -79.8908 268.07 -70.9061 271.037C-39.9964 281.244 -1.17674 278.072 23.1223 274.937C31.5902 273.844 32.584 256.582 33.3307 243.612C33.7917 235.604 34.1585 229.232 36.1322 229.314Z" fill="#FE7098"/>
<path fill-rule="evenodd" clip-rule="evenodd" d="M276.983 207.938C277.155 207.894 277.324 207.886 277.49 207.912L276.983 207.938ZM154.138 220.634C154.241 220.614 154.349 220.606 154.461 220.61L154.138 220.634ZM36.1322 229.314L-75.8042 224.672C-76.0536 228.779 -76.4631 232.971 -76.864 237.076C-78.4433 253.248 -79.8908 268.07 -70.9061 271.037C-39.9964 281.244 -1.17674 278.072 23.1223 274.937C31.5902 273.844 32.584 256.582 33.3307 243.612C33.7917 235.604 34.1585 229.232 36.1322 229.314Z" fill="url(#paint20_linear_0_1)" fill-opacity="0.2"/>
</g>
<rect x="92.4766" y="426.364" width="235.83" height="147.527" rx="20" transform="rotate(-3.51914 92.4766 426.364)" fill="#0D387C"/>
<path d="M139.028 484.592L137.52 456.632L142.713 456.352L144.22 484.312L139.028 484.592ZM162.243 461.709C163.947 461.617 165.483 461.868 166.85 462.462C168.244 463.054 169.364 464.022 170.211 465.365C171.057 466.681 171.538 468.418 171.654 470.575L172.313 482.797L167.32 483.066L166.696 471.483C166.594 469.592 166.065 468.206 165.109 467.322C164.18 466.438 162.917 466.039 161.319 466.125C160.148 466.188 159.122 466.484 158.243 467.012C157.363 467.54 156.696 468.297 156.242 469.283C155.813 470.241 155.637 471.438 155.715 472.876L156.296 483.661L151.303 483.93L150.153 462.601L154.906 462.345L155.217 468.096L154.283 466.384C154.955 464.986 155.978 463.889 157.35 463.094C158.748 462.271 160.379 461.809 162.243 461.709ZM187.727 482.246C185.677 482.357 183.802 482.004 182.102 481.188C180.428 480.343 179.081 479.134 178.061 477.56C177.042 475.986 176.472 474.094 176.353 471.884C176.234 469.673 176.596 467.731 177.441 466.057C178.285 464.382 179.495 463.048 181.071 462.055C182.673 461.061 184.499 460.509 186.549 460.398C188.333 460.302 189.953 460.615 191.407 461.338C192.86 462.034 194.042 463.159 194.954 464.712C195.865 466.265 196.389 468.293 196.524 470.796C196.657 473.272 196.368 475.344 195.657 477.012C194.944 478.652 193.904 479.91 192.536 480.785C191.168 481.66 189.565 482.147 187.727 482.246ZM188.096 477.94C189.294 477.876 190.345 477.552 191.248 476.969C192.178 476.385 192.896 475.572 193.4 474.53C193.931 473.486 194.16 472.285 194.087 470.927C194.013 469.543 193.656 468.374 193.017 467.42C192.403 466.438 191.603 465.707 190.615 465.226C189.655 464.744 188.575 464.535 187.377 464.599C186.179 464.664 185.114 464.989 184.185 465.573C183.281 466.156 182.564 466.969 182.033 468.012C181.527 469.028 181.311 470.228 181.386 471.612C181.459 472.97 181.802 474.14 182.416 475.122C183.057 476.102 183.857 476.833 184.818 477.316C185.805 477.797 186.898 478.005 188.096 477.94ZM194.782 481.585L194.511 476.553L194.405 470.87L193.699 465.22L192.984 451.959L197.937 451.692L199.535 481.329L194.782 481.585ZM206.107 480.975L204.957 459.646L209.949 459.377L211.099 480.706L206.107 480.975ZM207.283 455.995C206.351 456.045 205.563 455.794 204.919 455.241C204.302 454.687 203.971 453.997 203.926 453.172C203.881 452.32 204.135 451.598 204.691 451.008C205.272 450.389 206.028 450.054 206.96 450.004C207.892 449.954 208.666 450.192 209.282 450.72C209.923 451.219 210.266 451.882 210.311 452.707C210.358 453.586 210.105 454.348 209.553 454.992C208.998 455.609 208.242 455.944 207.283 455.995ZM230.793 479.644L230.561 475.33L230.232 474.426L229.824 466.877C229.745 465.413 229.245 464.305 228.323 463.553C227.4 462.775 226.046 462.434 224.262 462.53C223.064 462.595 221.889 462.845 220.738 463.281C219.613 463.716 218.669 464.288 217.906 464.996L215.753 461.467C216.85 460.527 218.173 459.801 219.721 459.29C221.295 458.751 222.933 458.436 224.637 458.344C227.726 458.178 230.15 458.795 231.908 460.195C233.691 461.568 234.666 463.799 234.832 466.888L235.506 479.39L230.793 479.644ZM224.098 480.285C222.5 480.371 221.088 480.18 219.861 479.712C218.633 479.218 217.66 478.509 216.942 477.586C216.25 476.636 215.871 475.548 215.805 474.323C215.74 473.125 215.962 472.031 216.469 471.042C217.003 470.052 217.908 469.242 219.182 468.613C220.457 467.983 222.173 467.61 224.33 467.494L230.521 467.16L230.699 470.475L224.868 470.79C223.164 470.882 222.034 471.223 221.478 471.814C220.921 472.378 220.664 473.059 220.707 473.858C220.756 474.764 221.154 475.463 221.902 475.957C222.65 476.451 223.662 476.663 224.941 476.594C226.165 476.528 227.242 476.19 228.171 475.579C229.126 474.967 229.787 474.103 230.154 472.988L231.154 475.939C230.742 477.216 229.929 478.235 228.715 478.995C227.528 479.753 225.989 480.183 224.098 480.285ZM252.853 456.823C254.558 456.731 256.093 456.982 257.461 457.576C258.855 458.168 259.975 459.136 260.822 460.479C261.667 461.795 262.148 463.532 262.264 465.689L262.923 477.911L257.931 478.18L257.306 466.597C257.204 464.707 256.675 463.32 255.72 462.437C254.791 461.552 253.527 461.153 251.93 461.239C250.758 461.302 249.733 461.598 248.853 462.126C247.974 462.654 247.307 463.411 246.852 464.397C246.423 465.355 246.248 466.553 246.325 467.99L246.907 478.775L241.914 479.044L240.764 457.715L245.517 457.459L245.827 463.21L244.894 461.498C245.566 460.1 246.588 459.003 247.961 458.208C249.359 457.385 250.989 456.923 252.853 456.823ZM282.398 476.861L282.165 472.547L281.836 471.644L281.429 464.095C281.35 462.63 280.85 461.522 279.928 460.771C279.005 459.993 277.651 459.652 275.867 459.748C274.669 459.813 273.494 460.063 272.342 460.499C271.217 460.933 270.274 461.505 269.511 462.214L267.357 458.685C268.455 457.744 269.778 457.018 271.326 456.508C272.899 455.969 274.538 455.654 276.242 455.562C279.331 455.395 281.754 456.012 283.512 457.413C285.296 458.786 286.27 461.016 286.437 464.105L287.111 476.607L282.398 476.861ZM275.703 477.503C274.105 477.589 272.693 477.398 271.466 476.93C270.237 476.435 269.264 475.727 268.547 474.804C267.855 473.853 267.476 472.765 267.41 471.54C267.345 470.342 267.567 469.249 268.074 468.26C268.608 467.27 269.513 466.46 270.787 465.83C272.062 465.201 273.778 464.828 275.934 464.711L282.125 464.378L282.304 467.693L276.473 468.007C274.768 468.099 273.639 468.441 273.083 469.031C272.526 469.595 272.269 470.277 272.312 471.076C272.361 471.981 272.759 472.681 273.507 473.174C274.254 473.668 275.267 473.881 276.545 473.812C277.77 473.746 278.847 473.407 279.775 472.796C280.73 472.184 281.392 471.321 281.759 470.206L282.759 473.156C282.347 474.434 281.534 475.452 280.32 476.212C279.132 476.97 277.593 477.401 275.703 477.503ZM147.806 533.47C145.463 533.596 143.62 533.095 142.277 531.965C140.933 530.81 140.197 529.047 140.069 526.677L139.038 507.544L144.031 507.275L145.056 526.288C145.11 527.3 145.406 528.071 145.942 528.603C146.504 529.134 147.252 529.374 148.184 529.324C149.302 529.263 150.218 528.92 150.932 528.294L152.522 531.774C151.962 532.285 151.262 532.683 150.423 532.968C149.584 533.254 148.712 533.421 147.806 533.47ZM136.001 516.601L135.786 512.607L150.005 511.84L150.22 515.834L136.001 516.601ZM165.591 532.511C163.407 532.629 161.438 532.268 159.684 531.428C157.928 530.561 156.513 529.329 155.439 527.731C154.364 526.133 153.77 524.282 153.657 522.179C153.542 520.048 153.934 518.145 154.831 516.467C155.727 514.763 157.002 513.399 158.656 512.375C160.31 511.351 162.229 510.781 164.413 510.663C166.623 510.544 168.605 510.904 170.359 511.744C172.14 512.583 173.554 513.788 174.6 515.361C175.673 516.932 176.268 518.796 176.384 520.953C176.497 523.057 176.106 524.961 175.21 526.665C174.34 528.367 173.066 529.745 171.387 530.796C169.733 531.82 167.801 532.392 165.591 532.511ZM165.36 528.237C166.585 528.171 167.662 527.846 168.592 527.262C169.522 526.678 170.226 525.865 170.704 524.825C171.209 523.783 171.425 522.583 171.351 521.224C171.277 519.84 170.933 518.67 170.321 517.715C169.734 516.732 168.947 516 167.959 515.519C166.972 515.038 165.879 514.83 164.681 514.894C163.456 514.961 162.379 515.286 161.449 515.87C160.545 516.453 159.841 517.265 159.337 518.307C158.831 519.323 158.615 520.523 158.69 521.907C158.763 523.265 159.106 524.435 159.72 525.417C160.334 526.399 161.121 527.131 162.082 527.613C163.069 528.094 164.162 528.302 165.36 528.237ZM205.295 530.49C201.461 530.697 198.394 529.781 196.094 527.742C193.821 525.701 192.574 522.644 192.355 518.57L191.504 502.793L196.697 502.513L197.536 518.09C197.692 520.966 198.417 523.023 199.712 524.262C201.034 525.499 202.826 526.057 205.09 525.935C207.353 525.813 209.062 525.066 210.217 523.695C211.371 522.325 211.871 520.201 211.716 517.325L210.876 501.748L215.988 501.472L216.839 517.25C217.059 521.324 216.135 524.498 214.068 526.773C212.027 529.046 209.103 530.285 205.295 530.49ZM224.768 529.04L223.26 501.08L228.453 500.8L229.96 528.76L224.768 529.04ZM249.567 528.103C245.733 528.31 242.665 527.394 240.366 525.355C238.093 523.314 236.846 520.257 236.626 516.183L235.776 500.406L240.968 500.126L241.808 515.703C241.963 518.579 242.688 520.636 243.984 521.875C245.305 523.112 247.098 523.67 249.361 523.548C251.625 523.426 253.334 522.679 254.488 521.308C255.643 519.937 256.143 517.814 255.987 514.938L255.148 499.361L260.26 499.085L261.111 514.862C261.331 518.936 260.407 522.111 258.34 524.385C256.299 526.659 253.375 527.898 249.567 528.103ZM282.002 526.354C279.872 526.469 277.87 526.23 275.995 525.637C274.146 525.015 272.507 524.102 271.08 522.897C269.679 521.664 268.558 520.189 267.717 518.472C266.877 516.755 266.401 514.858 266.289 512.781C266.177 510.704 266.446 508.766 267.097 506.969C267.748 505.171 268.718 503.596 270.007 502.245C271.295 500.867 272.825 499.783 274.598 498.993C276.37 498.177 278.335 497.71 280.492 497.594C282.782 497.47 284.893 497.757 286.827 498.454C288.759 499.124 290.42 500.196 291.808 501.67L288.623 505.007C287.552 503.97 286.376 503.218 285.096 502.753C283.814 502.262 282.441 502.055 280.977 502.134C279.512 502.213 278.18 502.525 276.981 503.071C275.809 503.615 274.794 504.35 273.936 505.278C273.105 506.204 272.468 507.28 272.027 508.505C271.612 509.73 271.444 511.061 271.521 512.498C271.599 513.936 271.909 515.241 272.453 516.414C273.024 517.585 273.772 518.586 274.698 519.417C275.651 520.247 276.739 520.87 277.964 521.284C279.214 521.698 280.572 521.865 282.036 521.786C283.501 521.707 284.845 521.367 286.067 520.767C287.289 520.141 288.375 519.241 289.327 518.068L292.854 521.082C291.631 522.67 290.096 523.915 288.249 524.816C286.401 525.716 284.319 526.229 282.002 526.354Z" fill="white"/>
<defs>
<linearGradient id="paint0_linear_0_1" x1="231.265" y1="255.754" x2="223.326" y2="198.117" gradientUnits="userSpaceOnUse">
<stop/>
<stop offset="1" stop-opacity="0"/>
</linearGradient>
<linearGradient id="paint1_linear_0_1" x1="231.265" y1="255.754" x2="223.326" y2="198.117" gradientUnits="userSpaceOnUse">
<stop/>
<stop offset="1" stop-opacity="0"/>
</linearGradient>
<linearGradient id="paint2_linear_0_1" x1="231.265" y1="255.754" x2="223.326" y2="198.117" gradientUnits="userSpaceOnUse">
<stop/>
<stop offset="1" stop-opacity="0"/>
</linearGradient>
<linearGradient id="paint3_linear_0_1" x1="231.265" y1="255.754" x2="223.326" y2="198.117" gradientUnits="userSpaceOnUse">
<stop/>
<stop offset="1" stop-opacity="0"/>
</linearGradient>
<linearGradient id="paint4_linear_0_1" x1="231.265" y1="255.754" x2="223.326" y2="198.117" gradientUnits="userSpaceOnUse">
<stop/>
<stop offset="1" stop-opacity="0"/>
</linearGradient>
<linearGradient id="paint5_linear_0_1" x1="231.265" y1="255.754" x2="223.326" y2="198.117" gradientUnits="userSpaceOnUse">
<stop/>
<stop offset="1" stop-opacity="0"/>
</linearGradient>
<linearGradient id="paint6_linear_0_1" x1="231.265" y1="255.754" x2="223.326" y2="198.117" gradientUnits="userSpaceOnUse">
<stop/>
<stop offset="1" stop-opacity="0"/>
</linearGradient>
<linearGradient id="paint7_linear_0_1" x1="231.265" y1="255.754" x2="223.326" y2="198.117" gradientUnits="userSpaceOnUse">
<stop/>
<stop offset="1" stop-opacity="0"/>
</linearGradient>
<linearGradient id="paint8_linear_0_1" x1="231.265" y1="255.754" x2="223.326" y2="198.117" gradientUnits="userSpaceOnUse">
<stop/>
<stop offset="1" stop-opacity="0"/>
</linearGradient>
<linearGradient id="paint9_linear_0_1" x1="231.265" y1="255.754" x2="223.326" y2="198.117" gradientUnits="userSpaceOnUse">
<stop/>
<stop offset="1" stop-opacity="0"/>
</linearGradient>
<linearGradient id="paint10_linear_0_1" x1="231.265" y1="255.754" x2="223.326" y2="198.117" gradientUnits="userSpaceOnUse">
<stop/>
<stop offset="1" stop-opacity="0"/>
</linearGradient>
<linearGradient id="paint11_linear_0_1" x1="230.611" y1="254.584" x2="222.896" y2="197.846" gradientUnits="userSpaceOnUse">
<stop/>
<stop offset="1" stop-opacity="0"/>
</linearGradient>
<linearGradient id="paint12_linear_0_1" x1="231.228" y1="255.71" x2="223.125" y2="197.346" gradientUnits="userSpaceOnUse">
<stop/>
<stop offset="1" stop-opacity="0"/>
</linearGradient>
<linearGradient id="paint13_linear_0_1" x1="231.265" y1="255.754" x2="223.326" y2="198.117" gradientUnits="userSpaceOnUse">
<stop/>
<stop offset="1" stop-opacity="0"/>
</linearGradient>
<linearGradient id="paint14_linear_0_1" x1="231.265" y1="255.754" x2="223.326" y2="198.117" gradientUnits="userSpaceOnUse">
<stop/>
<stop offset="1" stop-opacity="0"/>
</linearGradient>
<linearGradient id="paint15_linear_0_1" x1="229.037" y1="255.75" x2="220.851" y2="196.921" gradientUnits="userSpaceOnUse">
<stop/>
<stop offset="1" stop-opacity="0"/>
</linearGradient>
<linearGradient id="paint16_linear_0_1" x1="231.265" y1="255.754" x2="223.326" y2="198.117" gradientUnits="userSpaceOnUse">
<stop/>
<stop offset="1" stop-opacity="0"/>
</linearGradient>
<linearGradient id="paint17_linear_0_1" x1="231.265" y1="255.754" x2="223.326" y2="198.117" gradientUnits="userSpaceOnUse">
<stop/>
<stop offset="1" stop-opacity="0"/>
</linearGradient>
<linearGradient id="paint18_linear_0_1" x1="231.265" y1="255.754" x2="223.326" y2="198.117" gradientUnits="userSpaceOnUse">
<stop/>
<stop offset="1" stop-opacity="0"/>
</linearGradient>
<linearGradient id="paint19_linear_0_1" x1="231.265" y1="255.754" x2="223.327" y2="198.117" gradientUnits="userSpaceOnUse">
<stop/>
<stop offset="1" stop-opacity="0"/>
</linearGradient>
<linearGradient id="paint20_linear_0_1" x1="231.265" y1="255.754" x2="223.327" y2="198.117" gradientUnits="userSpaceOnUse">
<stop/>
<stop offset="1" stop-opacity="0"/>
</linearGradient>
</defs>
</svg>
