<svg width="1427" height="1268" viewBox="0 0 1427 1268" fill="none" xmlns="http://www.w3.org/2000/svg">
<path d="M1318.06 1248.86L1419.65 1150.06C1423.73 1146.1 1425.92 1140.58 1425.69 1134.89L1415.66 895.173C1415.57 892.99 1415.12 890.837 1414.33 888.799L1405.93 867.053C1403.81 861.557 1404.21 855.404 1407.04 850.236L1410.88 843.24C1412.47 840.331 1413.32 837.07 1413.34 833.752L1415.51 470.203C1415.52 468.291 1415.26 466.388 1414.73 464.55L1398.43 407.951C1396.2 400.217 1398.83 391.902 1405.09 386.849L1418.61 375.945C1423.32 372.148 1426.06 366.425 1426.06 360.377V74.9205C1426.06 68.6251 1423.09 62.697 1418.06 58.92L1373.57 25.5565C1371.48 23.9911 1369.11 22.8493 1366.58 22.1954L1283.31 0.638254C1281.67 0.214462 1279.99 0 1278.3 0H543.615C541.217 0 538.84 0.431061 536.595 1.27261L504.402 13.3407C499.875 15.0375 494.888 15.0375 490.361 13.3407L458.169 1.27261C455.924 0.431061 453.546 0 451.148 0H60.6002C52.3702 0 44.9805 5.04148 41.9783 12.7043L14.5898 82.6124C13.5701 85.2152 13.1073 88.0028 13.2313 90.7954L17.4558 185.914C17.9124 196.195 26.096 204.451 36.3724 204.999L66.8758 206.623C78.995 207.269 85.3703 221.29 77.8901 230.847L42.7455 275.75C40.9368 278.061 38.6418 279.945 36.0232 281.27L15.5852 291.608C8.71756 295.082 4.45246 302.188 4.61705 309.883L12.9837 701.034C13.0232 702.879 13.3178 704.709 13.8591 706.473L21.0815 730.011C22.6175 735.017 22.1292 740.425 19.7217 745.074L3.49166 776.418C1.24223 780.762 0.662985 785.78 1.86352 790.523L12.4316 832.269C12.8378 833.874 13.0432 835.522 13.0432 837.177V1130.11C13.0432 1133.5 14.8341 1136.65 17.7546 1138.38C22.9673 1141.46 24.0559 1148.55 20.011 1153.06L17.3835 1155.99C14.6549 1159.03 13.5381 1163.19 14.3759 1167.19L25.0774 1218.3C26.74 1226.23 33.0329 1232.38 41.0083 1233.86L221.994 1267.4C224.126 1267.8 226.308 1267.84 228.454 1267.54L395.407 1243.8C397.863 1243.45 400.362 1243.56 402.777 1244.12L463.249 1258.27C464.552 1258.57 465.882 1258.75 467.219 1258.78L602.828 1262.75C604.979 1262.82 607.125 1262.53 609.185 1261.91L652.716 1248.79C654.654 1248.2 656.669 1247.92 658.693 1247.94L1303.91 1254.52C1309.19 1254.57 1314.27 1252.54 1318.06 1248.86Z" fill="url(#paint0_linear_6_1016)"/>
<mask id="mask0_6_1016" style="mask-type:alpha" maskUnits="userSpaceOnUse" x="1" y="0" width="1426" height="1268">
<path d="M1318.06 1248.86L1419.65 1150.06C1423.73 1146.1 1425.92 1140.58 1425.69 1134.89L1415.66 895.173C1415.57 892.99 1415.12 890.837 1414.33 888.799L1405.93 867.053C1403.81 861.557 1404.21 855.404 1407.04 850.236L1410.88 843.24C1412.47 840.331 1413.32 837.07 1413.34 833.752L1415.51 470.203C1415.52 468.291 1415.26 466.388 1414.73 464.55L1398.43 407.951C1396.2 400.217 1398.83 391.902 1405.09 386.849L1418.61 375.945C1423.32 372.148 1426.06 366.425 1426.06 360.377V74.9205C1426.06 68.6251 1423.09 62.697 1418.06 58.92L1373.57 25.5565C1371.48 23.9911 1369.11 22.8493 1366.58 22.1954L1283.31 0.638254C1281.67 0.214462 1279.99 0 1278.3 0H543.615C541.217 0 538.84 0.431061 536.595 1.27261L504.402 13.3407C499.875 15.0375 494.888 15.0375 490.361 13.3407L458.169 1.27261C455.924 0.431061 453.546 0 451.148 0H60.6002C52.3702 0 44.9805 5.04148 41.9783 12.7043L14.5898 82.6124C13.5701 85.2152 13.1073 88.0028 13.2313 90.7954L17.4558 185.914C17.9124 196.195 26.096 204.451 36.3724 204.999L66.8758 206.623C78.995 207.269 85.3703 221.29 77.8901 230.847L42.7455 275.75C40.9368 278.061 38.6418 279.945 36.0232 281.27L15.5852 291.608C8.71756 295.082 4.45246 302.188 4.61705 309.883L12.9837 701.034C13.0232 702.879 13.3178 704.709 13.8591 706.473L21.0815 730.011C22.6175 735.017 22.1292 740.425 19.7217 745.074L3.49166 776.418C1.24223 780.762 0.662985 785.78 1.86352 790.523L12.4316 832.269C12.8378 833.874 13.0432 835.522 13.0432 837.177V1130.11C13.0432 1133.5 14.8341 1136.65 17.7546 1138.38C22.9673 1141.46 24.0559 1148.55 20.011 1153.06L17.3835 1155.99C14.6549 1159.03 13.5381 1163.19 14.3759 1167.19L25.0774 1218.3C26.74 1226.23 33.0329 1232.38 41.0083 1233.86L221.994 1267.4C224.126 1267.8 226.308 1267.84 228.454 1267.54L395.407 1243.8C397.863 1243.45 400.362 1243.56 402.777 1244.12L463.249 1258.27C464.552 1258.57 465.882 1258.75 467.219 1258.78L602.828 1262.75C604.979 1262.82 607.125 1262.53 609.185 1261.91L652.716 1248.79C654.654 1248.2 656.669 1247.92 658.693 1247.94L1303.91 1254.52C1309.19 1254.57 1314.27 1252.54 1318.06 1248.86Z" fill="url(#paint1_linear_6_1016)"/>
</mask>
<g mask="url(#mask0_6_1016)">
<g opacity="0.6">
<path d="M86.9554 151.027L20.0002 190.357C16.522 201.545 20.0002 221.612 61.7385 212.382C103.477 203.153 152.172 210.634 171.302 215.529L182.606 196.65L86.9554 151.027Z" fill="url(#paint2_linear_6_1016)" style="mix-blend-mode:multiply"/>
</g>
<path d="M16.521 39.3301L100.867 69.2209L95.6499 82.8553L2.60822 74.4649L16.521 39.3301Z" fill="#787878" fill-opacity="0.5" style="mix-blend-mode:multiply"/>
<path d="M483.469 58.2083L452.165 -5.76855H541.729L526.946 58.2083H483.469Z" fill="#787878" fill-opacity="0.5" style="mix-blend-mode:multiply"/>
<path d="M136.52 1127.99L-0.868927 1134.28V1158.4L128.694 1145.29L136.52 1127.99Z" fill="#787878" fill-opacity="0.5" style="mix-blend-mode:multiply"/>
<path d="M197.221 1314.55L259.831 1210.68L500.638 1189.07L480.169 1267.12L197.221 1314.55Z" fill="#787878" fill-opacity="0.5" style="mix-blend-mode:multiply"/>
<path d="M1233.02 51.3913L1286.06 -14.1587L1459.1 51.3913L1309.54 100.161L1233.02 51.3913Z" fill="#787878" fill-opacity="0.5" style="mix-blend-mode:multiply"/>
<path d="M1454.88 1023.1L1275.11 930.508L1253.11 1145.05H1454.88V1023.1Z" fill="#787878" fill-opacity="0.5" style="mix-blend-mode:multiply"/>
<path d="M1492.81 798.445L1297.87 658.287L1248.56 798.445L1454.13 910.268L1492.81 798.445Z" fill="#787878" fill-opacity="0.5" style="mix-blend-mode:multiply"/>
<path d="M1467.8 356.592L1283.45 285.798L1264.32 403.788L1356.93 441.807L1449.54 479.826L1467.8 356.592Z" fill="#787878" fill-opacity="0.5" style="mix-blend-mode:multiply"/>
<path d="M401.269 1199.69L367.893 1206.27V1258.89L384.581 1262.43L411.888 1258.89L423.266 1202.22L401.269 1199.69Z" fill="#787878" fill-opacity="0.5" style="mix-blend-mode:multiply"/>
<path d="M6.82687 1263.45L100.886 1159.72L259.421 1184.51L193.428 1289.76L6.82687 1263.45Z" fill="url(#paint3_linear_6_1016)" fill-opacity="0.5" style="mix-blend-mode:multiply"/>
<path d="M1261.46 750.883L1437.44 854.104L1423.78 872.825L1267.52 796.422L1261.46 750.883Z" fill="url(#paint4_linear_6_1016)" fill-opacity="0.5" style="mix-blend-mode:multiply"/>
<path d="M1249.54 316.738L1446.06 378.093L1414.76 403.788L1248.67 357.117L1249.54 316.738Z" fill="url(#paint5_linear_6_1016)" fill-opacity="0.5" style="mix-blend-mode:multiply"/>
<path d="M658.414 1277.11V1176.92L1102.16 1192.1L1357.03 1277.11H658.414Z" fill="#787878" fill-opacity="0.5" style="mix-blend-mode:multiply"/>
<path d="M-24.3474 706.367H133.041L145.214 768.246L-24.3474 786.6V706.367Z" fill="#787878" fill-opacity="0.5" style="mix-blend-mode:multiply"/>
<path d="M1433.02 64.5012L1399.1 97.5384L1309.54 102.782L1282.58 118.514H1211.28V149.454L1293.89 144.21L1471.28 177.772L1433.02 64.5012Z" fill="#787878" fill-opacity="0.5" style="mix-blend-mode:multiply"/>
<path d="M130.433 46.1471L98.2593 -7.3417L444.34 -13.1101L497.382 48.7691L130.433 46.1471Z" fill="url(#paint6_linear_6_1016)" fill-opacity="0.6" style="mix-blend-mode:multiply"/>
<path d="M33.9122 278.981L68.6941 224.443L180.866 216.577L119.128 286.323L33.9122 278.981Z" fill="url(#paint7_linear_6_1016)" fill-opacity="0.4" style="mix-blend-mode:screen"/>
<path d="M139.128 312.018L-19.9991 296.286V707.416L139.128 700.599V312.018Z" fill="url(#paint8_linear_6_1016)" fill-opacity="0.6" style="mix-blend-mode:multiply"/>
</g>
<path d="M431.654 84.8833C360.936 94.9135 304.203 74.5546 257.327 68.693C256.959 68.647 256.584 68.644 256.215 68.6817C214.815 72.9082 192.638 82.6053 173.253 102.19C111.479 164.6 156.723 143.097 201.965 200.262C237.754 245.484 195.107 301.953 160.502 345.127C159.745 346.072 159.357 347.174 159.412 348.384C164.384 459.397 201.965 752.381 201.965 786.599C201.965 829.604 104.521 905.125 159.333 997.953C214.145 1090.78 128.831 1114.65 159.333 1142.7C227.195 1205.11 404.683 1166.83 441.224 1158.43C477.766 1150.04 699.624 1142.7 770.097 1158.43C840.57 1174.17 871.994 1070.43 1010.23 1175.22C1067.65 1218.75 1185.97 1139.03 1216.43 1121.72C1246.88 1104.42 1234.7 975.401 1216.43 948.13C1198.15 920.858 1266.89 711.801 1266.89 650.766C1266.89 447.803 1217.74 421.808 1233.82 367.037C1248.63 316.64 1283.42 293.362 1283.42 254.806C1283.42 222.115 1297.82 185.41 1275.59 164.601C1264.46 154.19 1223.06 157.952 1208.38 147.769C1207.93 147.461 1207.55 147.05 1207.29 146.574C1197.99 129.486 1262.87 107.305 1275.59 101.665C1321.7 81.2112 1208.59 45.5502 1067.65 61.8076C1001.49 69.4382 890.162 96.9447 810.989 81.2112C731.816 65.4776 520.398 72.2964 431.654 84.8833Z" fill="#B7B6B6"/>
<path d="M214.077 95.5576C224.948 88.3363 269.767 90.2478 286.767 86C305.779 96.6195 300.505 119.345 252.127 133.788C203.749 148.23 192.56 134.142 193.013 125.292C195.504 118.39 203.205 102.779 214.077 95.5576Z" fill="#454545"/>
<path d="M218.236 98.6076C229.19 91.3944 262.736 94.3656 290.12 88C305.182 93.8342 305.319 122.369 256.574 136.795C207.83 151.221 196.557 137.148 197.013 128.309C199.523 121.414 207.282 105.821 218.236 98.6076Z" fill="#949494"/>
<path d="M202.689 169.839C205.472 165.541 221.937 162.975 229.822 162.228C240.953 160.66 238.17 167.601 236.083 169.839C233.996 172.077 224.952 177.897 217.299 179.688C209.646 181.479 199.211 175.211 202.689 169.839Z" fill="#454545"/>
<path d="M204.689 170.71C207.472 165.935 223.937 163.083 231.822 162.254C242.953 160.511 240.17 168.223 238.083 170.71C235.996 173.197 226.952 179.664 219.299 181.653C211.646 183.643 201.211 176.679 204.689 170.71Z" fill="#949494"/>
<path d="M1207.15 202.143C1205.92 193.796 1212.31 179.11 1217.12 170.538C1217.59 169.705 1218.83 169.975 1218.97 170.92C1223.56 202.315 1248.16 230.406 1248.98 244.162C1249.84 258.344 1217.25 283.03 1221.52 274.101C1224.89 267.046 1227.85 252.922 1227.65 246.501C1227.65 246.341 1227.6 246.197 1227.52 246.058C1221.22 235.108 1208.51 211.329 1207.15 202.143Z" fill="#454545"/>
<path d="M1207.1 203.176C1206.19 195.106 1211.5 180.311 1215.32 171.446C1215.73 170.503 1217.12 170.74 1217.24 171.759C1220.9 202.877 1238.36 231.548 1238.99 245.177C1239.64 259.352 1216.86 284.027 1220.12 275.102C1222.69 268.032 1222.93 253.857 1222.73 247.464C1222.72 247.337 1222.7 247.222 1222.64 247.106C1217.85 236.176 1208.14 212.368 1207.1 203.176Z" fill="#949494"/>
<path d="M1155.54 250.472C1161.39 246.038 1171.85 242.478 1178.27 240.714C1179.98 240.243 1181.84 240.762 1182.89 242.199C1189.92 251.867 1183.62 261.822 1177.93 267.139C1176.63 268.359 1174.72 268.582 1173.09 267.841C1163.33 263.386 1149.32 255.182 1155.54 250.472Z" fill="#949494"/>
<path d="M203.238 982.63C199.69 948.636 236.65 935.942 258.573 933.344C260.693 933.093 262.674 934.301 263.505 936.267C272.59 957.751 288.849 999.307 290.881 1016.95C293.558 1040.18 250.184 1068.47 238.028 1057.6C229.761 1050.21 207.921 1027.51 203.238 982.63Z" fill="#949494"/>
<path d="M320.325 1049.79C315.878 1044.04 326.147 1025.37 331.838 1016.75C350.109 1010.68 354.368 1042.18 351.236 1051.54C348.104 1060.89 325.884 1056.99 320.325 1049.79Z" fill="#949494"/>
<path d="M1155.83 72.1173C1159.38 66.3393 1197.85 67.5508 1206.26 75.1372C1226.84 84.2163 1192.72 102.57 1179.36 105.113C1166.01 107.657 1151.4 79.3398 1155.83 72.1173Z" fill="#949494"/>
<defs>
<linearGradient id="paint0_linear_6_1016" x1="713.03" y1="0" x2="969.023" y2="1287.99" gradientUnits="userSpaceOnUse">
<stop offset="0.120023" stop-color="#676767"/>
<stop offset="0.625023" stop-color="#454545"/>
</linearGradient>
<linearGradient id="paint1_linear_6_1016" x1="713.03" y1="0" x2="969.023" y2="1287.99" gradientUnits="userSpaceOnUse">
<stop offset="0.120023" stop-color="#676767"/>
<stop offset="0.625023" stop-color="#454545"/>
</linearGradient>
<linearGradient id="paint2_linear_6_1016" x1="100.793" y1="151.027" x2="117.781" y2="222.187" gradientUnits="userSpaceOnUse">
<stop offset="0.240035" stop-color="#787878"/>
<stop offset="0.575035" stop-color="#989898" stop-opacity="0.684196"/>
<stop offset="1" stop-color="#DEDEDE" stop-opacity="0"/>
</linearGradient>
<linearGradient id="paint3_linear_6_1016" x1="31.1002" y1="1196.66" x2="250.426" y2="1257.28" gradientUnits="userSpaceOnUse">
<stop stop-color="#787878"/>
<stop offset="1" stop-color="#DEDEDE" stop-opacity="0"/>
</linearGradient>
<linearGradient id="paint4_linear_6_1016" x1="1336.55" y1="845.502" x2="1348.82" y2="804.262" gradientUnits="userSpaceOnUse">
<stop stop-color="#787878"/>
<stop offset="0.855035" stop-color="#DEDEDE" stop-opacity="0"/>
</linearGradient>
<linearGradient id="paint5_linear_6_1016" x1="1366.06" y1="352.397" x2="1353.92" y2="390.223" gradientUnits="userSpaceOnUse">
<stop offset="0.265023" stop-color="#787878"/>
<stop offset="1" stop-color="#DEDEDE" stop-opacity="0"/>
</linearGradient>
<linearGradient id="paint6_linear_6_1016" x1="98.2593" y1="17.8295" x2="508.686" y2="17.8295" gradientUnits="userSpaceOnUse">
<stop offset="0.190023" stop-color="#787878"/>
<stop offset="1" stop-color="#DEDEDE" stop-opacity="0"/>
</linearGradient>
<linearGradient id="paint7_linear_6_1016" x1="107.389" y1="216.577" x2="107.389" y2="286.323" gradientUnits="userSpaceOnUse">
<stop stop-color="#737373" stop-opacity="0"/>
<stop offset="0.935023" stop-color="#D9D9D9"/>
</linearGradient>
<linearGradient id="paint8_linear_6_1016" x1="59.5645" y1="296.286" x2="59.4064" y2="707.94" gradientUnits="userSpaceOnUse">
<stop stop-color="#575757"/>
<stop offset="0.447535" stop-color="#787878"/>
<stop offset="1" stop-color="#DEDEDE" stop-opacity="0"/>
</linearGradient>
</defs>
</svg>
