<svg version="1.1" id="Layer_1" xmlns="http://www.w3.org/2000/svg" xmlns:xlink="http://www.w3.org/1999/xlink" x="0px" y="0px"
	 width="100%" viewBox="0 0 1600 900" enable-background="new 0 0 1600 900" xml:space="preserve">
<path fill="#000000" opacity="1.000000" stroke="none" 
	d="
M1.000000,541.000000 
	C1.000000,450.303955 1.000000,359.607941 1.342435,268.066040 
	C2.641450,267.423065 3.598200,267.803955 4.554587,267.803070 
	C35.375557,267.773621 66.196487,267.703644 97.017448,267.659760 
	C98.277405,267.657959 99.537636,267.849518 100.999168,267.967194 
	C100.999168,270.295166 100.999168,272.271118 100.999168,274.247070 
	C100.999168,299.742493 100.987953,325.237946 101.008080,350.733368 
	C101.012413,356.213654 102.512070,357.994263 107.030960,357.995178 
	C153.356003,358.004364 199.681152,357.962036 246.005936,358.071381 
	C249.880066,358.080536 251.273758,357.002991 251.228607,352.986145 
	C251.037598,335.992584 251.130386,318.995789 251.124115,302.000183 
	C251.119827,290.387085 251.123276,278.773987 251.123276,266.729919 
	C282.498291,266.729919 313.290710,266.603973 344.079926,266.860260 
	C348.920563,266.900543 349.938568,265.347321 349.909729,260.945465 
	C349.742981,235.454224 349.810608,209.961441 349.801239,184.469193 
	C349.797791,175.039322 349.800690,165.609436 349.800690,155.999191 
	C347.715759,155.999191 346.067383,155.999191 344.419037,155.999191 
	C294.094696,155.999191 243.770386,155.999176 193.446060,155.999161 
	C153.286575,155.999161 113.126801,156.067871 72.968040,155.897186 
	C68.766197,155.879318 66.822891,157.976990 65.183174,161.068665 
	C63.136959,164.926758 61.444672,168.993134 59.165012,172.702515 
	C54.659977,180.032944 49.655262,187.058945 45.222599,194.430588 
	C38.449032,205.695190 32.064327,217.192932 25.366339,228.503937 
	C19.288628,238.767441 13.110098,248.974930 6.750381,259.064911 
	C5.312946,261.345428 2.941498,263.037201 0.999998,265.000000 
	C1.000000,177.007858 1.000000,89.015724 1.000000,1.017691 
	C534.277832,1.011794 1067.555664,1.011794 1600.916748,1.011794 
	C1600.916748,300.917664 1600.916748,600.835327 1600.916748,900.876526 
	C1067.666626,900.876526 534.333374,900.876526 1.000005,900.883240 
	C1.000000,818.230591 1.000000,735.571228 1.365220,652.152100 
	C3.881530,651.928467 6.032219,652.931519 8.183771,652.933411 
	C99.005219,653.011658 189.826736,653.000732 280.648254,653.000549 
	C281.814758,653.000549 283.074951,653.274902 284.121643,652.920166 
	C285.184662,652.559875 286.417267,651.779968 286.919067,650.835083 
	C289.854279,645.308228 292.323578,639.520264 295.461639,634.117615 
	C301.877411,623.072021 308.681732,612.252991 315.203186,601.267639 
	C320.042328,593.116089 324.613678,584.805725 329.437897,576.645081 
	C335.675385,566.093750 342.075165,555.638367 348.316193,545.089050 
	C348.978424,543.969604 349.735809,541.956116 349.231354,541.313904 
	C348.423279,540.285156 346.597443,539.566772 345.199219,539.562561 
	C314.114197,539.468445 283.028870,539.490540 251.252670,539.490540 
	C251.252670,509.679596 251.252670,480.005402 251.252670,450.296753 
	C201.139359,450.296753 151.717361,450.296753 101.381111,450.296753 
	C101.381111,480.715302 101.381111,510.887085 101.381111,541.213013 
	C91.143417,541.213013 81.820129,541.232483 72.496948,541.209167 
	C48.664608,541.149597 24.832314,541.070984 1.000000,541.000000 
M956.997559,560.500000 
	C956.997559,582.157104 956.997498,603.814209 956.997498,625.471313 
	C956.997498,632.301636 957.015747,639.131958 956.989929,645.962219 
	C956.977051,649.367310 958.048828,651.283752 962.023804,651.077087 
	C967.672668,650.783447 973.348206,651.002502 979.012390,651.002502 
	C987.939087,651.002502 996.865784,651.002441 1005.995728,651.002441 
	C1005.995728,617.173950 1005.995728,583.929260 1005.995728,550.442322 
	C1006.981812,551.151978 1007.901245,551.548584 1008.439758,552.241272 
	C1016.310242,562.364624 1024.075195,572.570190 1031.973022,582.671997 
	C1049.137573,604.626526 1066.335205,626.555420 1083.637085,648.401489 
	C1084.658203,649.690735 1086.709473,650.862915 1088.301758,650.889832 
	C1100.459473,651.095276 1112.623535,650.914856 1124.783081,651.059021 
	C1128.174561,651.099182 1129.358887,650.195190 1129.348145,646.536987 
	C1129.266968,618.721191 1129.492798,590.904724 1129.492798,563.088440 
	C1129.492798,535.771912 1129.338989,508.455414 1129.254517,481.138916 
	C1129.247437,478.869507 1129.253540,476.600037 1129.253540,474.264191 
	C1113.526367,474.264191 1098.295166,474.264191 1082.165283,474.264191 
	C1082.165283,507.763397 1082.165283,541.006775 1082.165283,575.585388 
	C1073.535645,564.620178 1065.951904,554.895203 1058.269165,545.248962 
	C1051.822144,537.154480 1045.202515,529.197449 1038.765015,521.095520 
	C1032.543213,513.264893 1026.499390,505.292786 1020.296875,497.446503 
	C1015.157776,490.945465 1009.380981,484.873077 1004.911438,477.949310 
	C1002.600708,474.369690 1000.416138,473.686005 996.709351,473.757019 
	C986.051392,473.961304 975.386841,473.829071 964.724915,473.829071 
	C958.207886,473.829041 957.002136,475.014984 957.000427,481.534424 
	C956.993408,507.522949 956.997559,533.511475 956.997559,560.500000 
M1171.417725,510.805817 
	C1170.747314,511.940125 1170.173584,513.146484 1169.391602,514.197754 
	C1161.448608,524.875183 1156.790039,537.239197 1155.537720,550.064331 
	C1154.127563,564.504700 1154.179199,579.200195 1159.987549,593.335693 
	C1163.791748,602.593994 1168.075195,611.263062 1174.499756,618.989624 
	C1183.571655,629.900452 1194.139771,638.880249 1206.966187,644.913879 
	C1213.663208,648.064148 1220.581543,651.652954 1227.743652,652.706543 
	C1240.534302,654.588196 1253.432251,655.549622 1266.598755,654.341736 
	C1278.084106,653.288086 1288.602905,650.081055 1299.055786,645.939697 
	C1303.650269,644.119324 1308.711426,642.642517 1312.439697,639.624817 
	C1324.101074,630.185730 1335.994995,620.823181 1343.252197,607.128296 
	C1349.251831,595.806763 1354.343994,584.078918 1354.701782,571.128174 
	C1355.000366,560.322205 1356.128906,549.293579 1351.879395,538.819153 
	C1349.502441,532.960449 1347.633179,526.832520 1344.656250,521.298706 
	C1341.854736,516.090820 1338.316406,511.125793 1334.345215,506.739349 
	C1329.403442,501.280609 1324.030151,496.076935 1318.206543,491.588989 
	C1312.099976,486.882843 1305.357300,483.140747 1298.065796,480.120087 
	C1290.121704,476.829163 1282.158203,473.086060 1273.715698,473.114899 
	C1258.694214,473.166168 1243.422363,470.684601 1228.670532,475.866241 
	C1220.708984,478.662720 1212.462769,480.759613 1204.729248,484.069641 
	C1191.427734,489.762848 1180.744629,498.986816 1171.417725,510.805817 
M527.449890,308.500671 
	C527.449890,297.389923 527.449890,286.279175 527.449890,274.924500 
	C551.135254,274.924500 574.365479,274.924500 598.078369,274.924500 
	C598.078369,297.331177 598.078369,319.557190 598.078369,341.691010 
	C615.282410,341.691010 632.002441,341.691010 648.378601,341.691010 
	C648.378601,282.651154 648.378601,223.924805 648.378601,165.285645 
	C631.382324,165.285645 614.798401,165.285645 597.736328,165.285645 
	C597.736328,189.122650 597.736328,212.671478 597.736328,236.395508 
	C574.149536,236.395508 551.045105,236.395508 527.379944,236.395508 
	C527.379944,212.580978 527.379944,188.882263 527.379944,165.206268 
	C510.866882,165.206268 494.915344,165.206268 478.617920,165.206268 
	C478.617920,224.143921 478.617920,282.870392 478.617920,341.720734 
	C494.993469,341.720734 511.035553,341.720734 527.453613,341.720734 
	C527.453613,330.793427 527.453613,320.147034 527.449890,308.500671 
M1056.934814,248.499939 
	C1056.934814,279.896057 1056.934814,311.292175 1056.934814,342.729126 
	C1073.309082,342.729126 1089.380493,342.729126 1105.934937,342.729126 
	C1105.934937,329.169373 1105.916748,315.879120 1105.961182,302.589081 
	C1105.965942,301.141052 1105.809692,299.236298 1106.613403,298.318909 
	C1113.367310,290.609497 1120.328003,283.081116 1127.399658,275.307861 
	C1131.016235,280.796295 1134.183594,285.774689 1137.521362,290.636139 
	C1148.044678,305.964081 1158.474487,321.361633 1169.348999,336.437683 
	C1171.163818,338.953705 1171.997070,343.123474 1176.871338,343.071594 
	C1194.193359,342.887207 1211.519043,343.063812 1228.843384,343.065765 
	C1230.181519,343.065918 1231.519653,342.770905 1233.746216,342.508301 
	C1209.920776,307.489197 1186.676392,273.324280 1163.258911,238.904892 
	C1185.672974,214.711166 1208.150879,190.448502 1230.880737,165.913864 
	C1229.329346,165.589462 1227.913208,165.040405 1226.495117,165.035370 
	C1209.668823,164.975525 1192.841553,164.926727 1176.016968,165.107559 
	C1174.371460,165.125229 1172.348877,166.321503 1171.168945,167.591110 
	C1162.737549,176.663452 1154.442505,185.863693 1146.176270,195.087967 
	C1137.382690,204.900818 1128.686523,214.801025 1119.912231,224.631149 
	C1115.603027,229.458740 1111.213135,234.214310 1106.859863,239.002502 
	C1106.495361,238.801941 1106.130859,238.601379 1105.766357,238.400803 
	C1105.766357,214.016846 1105.766357,189.632904 1105.766357,165.309265 
	C1089.245361,165.309265 1073.182617,165.309265 1056.934814,165.309265 
	C1056.934814,192.914078 1056.934814,220.207001 1056.934814,248.499939 
M1596.004028,602.474609 
	C1596.004028,596.807861 1596.516357,591.078857 1595.838623,585.494385 
	C1595.317017,581.196289 1594.176758,576.472900 1591.776001,573.000305 
	C1585.426270,563.815491 1577.374878,555.979309 1566.650024,552.191589 
	C1552.754761,547.284058 1538.477173,543.467957 1524.510986,538.747681 
	C1518.895264,536.849609 1513.350708,534.304199 1508.343506,531.149170 
	C1501.670044,526.944214 1501.751343,518.060791 1508.010864,513.963684 
	C1514.426636,509.764404 1522.062012,509.177612 1528.620728,511.272369 
	C1535.725098,513.541382 1544.277466,511.417786 1550.040527,517.837524 
	C1559.577759,517.927490 1566.692383,523.793518 1574.202515,528.398254 
	C1578.137695,530.810974 1579.389648,529.680115 1580.996704,526.161499 
	C1584.229126,519.084473 1587.919556,512.217285 1591.184204,505.154053 
	C1593.372681,500.419373 1595.154053,495.496490 1597.265381,490.293152 
	C1588.749146,486.669220 1581.580322,483.405182 1574.244995,480.571960 
	C1569.330933,478.673950 1564.254272,477.061188 1559.119263,475.901703 
	C1550.769165,474.016235 1542.350098,471.565430 1533.890137,471.253448 
	C1522.764404,470.843231 1511.531982,471.901855 1500.422607,473.066193 
	C1494.683350,473.667786 1488.820435,475.200836 1483.543579,477.519836 
	C1478.042114,479.937469 1472.957275,483.506592 1468.079956,487.100922 
	C1456.198853,495.856720 1450.201904,508.180176 1448.543701,522.514954 
	C1447.973267,527.447266 1449.114258,532.567139 1449.854492,537.618896 
	C1451.218994,546.932739 1456.772705,552.942688 1462.539429,558.731079 
	C1473.102783,569.334167 1487.398804,573.099792 1501.178589,577.516602 
	C1512.583252,581.172058 1524.161377,584.328125 1535.412231,588.397888 
	C1539.294312,589.802185 1543.199463,592.573364 1544.174927,597.447693 
	C1545.028320,601.710999 1545.121094,606.267029 1541.494019,608.986328 
	C1538.302368,611.379211 1534.186523,613.507263 1530.318115,613.831055 
	C1521.902954,614.535339 1513.306152,614.681702 1505.145264,611.604675 
	C1498.693115,609.171875 1492.166138,606.873596 1485.913696,603.992310 
	C1479.468140,601.021973 1473.235474,597.556885 1467.064575,594.036865 
	C1463.745972,592.143799 1460.752197,589.681152 1457.769897,587.586426 
	C1450.911621,600.681213 1444.696777,612.547607 1438.321899,624.719482 
	C1441.742554,627.264465 1445.445801,630.407471 1449.520264,632.957153 
	C1455.129761,636.467346 1460.905396,639.759277 1466.828369,642.705505 
	C1471.118408,644.839417 1475.643433,646.740479 1480.275757,647.893372 
	C1488.609131,649.967285 1497.032227,652.081116 1505.543213,652.952881 
	C1520.303345,654.464661 1535.061157,655.570740 1549.790039,651.188049 
	C1559.922607,648.172974 1569.492798,644.692261 1577.924805,638.084167 
	C1589.269043,629.193787 1597.326660,618.846069 1596.004028,602.474609 
M785.346130,164.997452 
	C772.180298,164.997452 759.014160,165.046951 745.848877,164.960129 
	C742.825562,164.940201 740.986389,165.875168 739.730042,168.849716 
	C735.534607,178.782944 731.116821,188.624252 726.661926,198.445297 
	C721.624451,209.550690 716.387634,220.565796 711.364441,231.677521 
	C707.443054,240.351776 703.767334,249.136841 699.885681,257.829437 
	C696.683533,265.000305 693.329407,272.103180 690.062500,279.245239 
	C688.143005,283.441650 686.231201,287.642151 684.372559,291.865723 
	C682.474670,296.178375 680.747437,300.568665 678.759338,304.838257 
	C676.701233,309.258240 674.249146,313.498810 672.280457,317.955292 
	C670.058350,322.985474 668.186340,328.170197 666.155640,333.285126 
	C664.975952,336.256622 663.783752,339.223175 662.248291,343.064697 
	C679.669678,343.064697 695.630859,343.184448 711.583252,342.866791 
	C713.067078,342.837250 715.119873,340.284241 715.842957,338.476715 
	C719.148560,330.213684 721.978577,321.760864 725.252075,313.484070 
	C725.679443,312.403595 727.657288,311.362244 728.962402,311.303009 
	C734.450867,311.053772 739.956604,311.177917 745.455994,311.177032 
	C764.430725,311.174011 783.405518,311.175873 802.138855,311.175873 
	C806.669983,321.972931 811.021423,332.342041 815.369629,342.703339 
	C832.782837,342.703339 850.310974,342.703339 868.311707,342.703339 
	C843.111572,283.029785 816.155762,224.702209 792.088867,164.997452 
	C790.292480,164.997452 788.293396,164.997452 785.346130,164.997452 
M1027.776367,206.148132 
	C1031.046143,202.737579 1034.410034,199.408035 1037.487061,195.831635 
	C1037.963867,195.277359 1037.532227,193.152298 1036.829224,192.506805 
	C1033.551147,189.497055 1030.187744,186.529984 1026.564331,183.956879 
	C1018.382324,178.146484 1009.807739,173.238083 1000.208923,169.761185 
	C989.983643,166.057312 979.891113,162.816437 968.920654,162.984299 
	C964.076721,163.058426 959.201111,162.659103 954.393005,163.080231 
	C948.021301,163.638306 941.637695,164.476349 935.373962,165.755997 
	C924.822449,167.911621 915.221741,172.463379 906.175415,178.280365 
	C897.687866,183.737961 890.336182,190.318863 883.846191,198.107864 
	C878.159241,204.933121 873.677795,212.378586 870.467712,220.503418 
	C868.098816,226.499008 865.891541,232.845825 865.308350,239.192017 
	C864.439331,248.649948 864.721680,258.262512 865.200989,267.774658 
	C865.436890,272.457611 866.465393,277.412079 868.436157,281.636810 
	C873.953735,293.465088 879.486877,305.258484 888.771973,314.978638 
	C897.466980,324.080963 907.155884,331.879791 918.502319,336.767761 
	C929.237244,341.392365 940.470886,344.662109 952.635376,345.448517 
	C967.143372,346.386322 980.829834,344.719635 994.433899,340.139008 
	C1009.950684,334.914337 1023.701172,326.818024 1035.705811,315.692169 
	C1039.739502,311.953735 1039.588989,311.532410 1035.594604,307.367371 
	C1027.583984,299.014526 1019.885132,290.362457 1011.862793,282.021301 
	C1011.229187,281.362488 1008.753357,281.674866 1007.709534,282.383728 
	C1005.749756,283.714844 1004.434692,286.016510 1002.448853,287.283356 
	C998.818298,289.599304 994.874329,291.419189 991.098755,293.513855 
	C987.078430,295.744354 983.324036,299.342010 979.062622,300.077423 
	C967.985352,301.989258 956.815125,303.169861 945.775269,298.424438 
	C931.024475,292.083984 921.586243,281.308929 918.053223,265.941925 
	C915.683533,255.635086 915.933105,245.141388 919.741882,234.831619 
	C925.678589,218.761902 937.365112,209.038696 953.416748,205.268051 
	C958.440674,204.087891 964.186890,201.505020 970.240417,204.673553 
	C975.267395,207.304810 981.604919,207.406982 986.681702,209.974503 
	C993.795105,213.571976 1001.354309,217.358719 1005.178467,224.910934 
	C1007.522827,229.540588 1009.471680,227.276810 1011.276306,225.289719 
	C1016.770203,219.240219 1022.013245,212.962875 1027.776367,206.148132 
M668.498291,653.000610 
	C672.996643,653.000610 677.507751,652.791809 681.989563,653.063843 
	C685.879395,653.299866 687.321533,652.000610 687.220398,647.981750 
	C686.947815,637.160889 687.048645,626.330933 686.967346,615.504883 
	C686.918640,609.018616 686.890015,609.004272 680.377930,609.002075 
	C659.052246,608.994934 637.726501,608.991638 616.400818,609.014221 
	C614.685425,609.015991 612.970337,609.226074 611.000610,609.356201 
	C611.000610,608.328369 611.000549,607.177856 611.000549,606.027344 
	C611.000549,563.875732 610.941833,521.723999 611.089294,479.572876 
	C611.104492,475.246216 609.918152,473.561584 605.488647,473.761902 
	C599.336792,474.040100 593.162903,473.832245 586.998474,473.832306 
	C577.743774,473.832397 568.489075,473.832367 559.336914,473.832367 
	C559.191772,474.900208 559.111938,475.213715 559.111877,475.527222 
	C559.098145,533.173157 559.133423,590.819153 558.990234,648.464722 
	C558.980042,652.558411 560.627930,653.062378 564.036133,653.053772 
	C598.523621,652.966614 633.011353,653.000610 668.498291,653.000610 
M770.510254,592.495117 
	C770.674133,554.863525 770.765137,517.231262 771.098572,479.601196 
	C771.138184,475.134430 769.711670,473.779785 765.428284,473.928131 
	C758.105713,474.181732 750.767944,473.998138 743.436584,473.998138 
	C736.007751,473.998138 728.578918,473.998138 721.209106,473.998138 
	C721.209106,533.991333 721.209106,593.379761 721.209106,653.001465 
	C762.167786,653.001465 802.799622,652.972900 843.431274,653.049194 
	C847.157227,653.056152 847.428772,650.602539 847.454346,648.143494 
	C847.568848,637.147644 847.653564,626.147034 847.431946,615.154480 
	C847.350281,611.106445 845.470947,608.711182 840.555176,608.881714 
	C829.737732,609.256897 818.898376,608.998169 808.067932,608.998169 
	C795.545898,608.998169 783.023926,608.998169 770.510254,608.998169 
	C770.510254,604.099121 770.510254,598.795715 770.510254,592.495117 
M476.999237,630.499451 
	C476.999237,635.664185 477.242493,640.844177 476.920288,645.988708 
	C476.673645,649.926819 477.852722,651.163086 481.921509,651.098022 
	C497.126831,650.854858 512.338318,651.000732 527.318848,651.000732 
	C527.318848,592.175659 527.318848,533.248413 527.318848,473.999237 
	C512.797363,473.999237 498.654358,474.194122 484.520691,473.914154 
	C477.814667,473.781311 476.972107,474.896454 476.977509,481.557037 
	C477.017670,530.871277 476.999237,580.185486 476.999237,630.499451 
M1408.493164,651.003601 
	C1413.100220,651.003601 1417.707275,651.003601 1422.405029,651.003601 
	C1422.405029,591.723145 1422.405029,533.002197 1422.405029,474.297394 
	C1405.998169,474.297394 1389.926270,474.297394 1373.580933,474.297394 
	C1373.366211,476.192383 1373.022827,477.822479 1373.019531,479.453217 
	C1372.908081,535.259766 1372.854248,591.066406 1372.682007,646.872742 
	C1372.671631,650.227539 1373.794067,651.122437 1377.006836,651.067627 
	C1387.166992,650.894165 1397.332031,651.003601 1408.493164,651.003601 
M872.076050,590.500000 
	C872.076050,610.587341 872.076050,630.674622 872.076050,650.748108 
	C888.624634,650.748108 904.541931,650.748108 920.642578,650.748108 
	C920.642578,591.776367 920.642578,533.059814 920.642578,474.216492 
	C904.366455,474.216492 888.339172,474.216492 872.074829,474.216492 
	C872.074829,512.917358 872.074829,551.208679 872.076050,590.500000 
z"/>
<path fill="#FEFEFE" opacity="1.000000" stroke="none" 
	d="
M1.000000,541.468628 
	C24.832314,541.070984 48.664608,541.149597 72.496948,541.209167 
	C81.820129,541.232483 91.143417,541.213013 101.381111,541.213013 
	C101.381111,510.887085 101.381111,480.715302 101.381111,450.296753 
	C151.717361,450.296753 201.139359,450.296753 251.252670,450.296753 
	C251.252670,480.005402 251.252670,509.679596 251.252670,539.490540 
	C283.028870,539.490540 314.114197,539.468445 345.199219,539.562561 
	C346.597443,539.566772 348.423279,540.285156 349.231354,541.313904 
	C349.735809,541.956116 348.978424,543.969604 348.316193,545.089050 
	C342.075165,555.638367 335.675385,566.093750 329.437897,576.645081 
	C324.613678,584.805725 320.042328,593.116089 315.203186,601.267639 
	C308.681732,612.252991 301.877411,623.072021 295.461639,634.117615 
	C292.323578,639.520264 289.854279,645.308228 286.919067,650.835083 
	C286.417267,651.779968 285.184662,652.559875 284.121643,652.920166 
	C283.074951,653.274902 281.814758,653.000549 280.648254,653.000549 
	C189.826736,653.000732 99.005219,653.011658 8.183771,652.933411 
	C6.032219,652.931519 3.881530,651.928467 1.365220,651.696167 
	C1.000000,615.312439 1.000000,578.624878 1.000000,541.468628 
z"/>
<path fill="#FEFEFE" opacity="1.000000" stroke="none" 
	d="
M0.999998,265.375000 
	C2.941498,263.037201 5.312946,261.345428 6.750381,259.064911 
	C13.110098,248.974930 19.288628,238.767441 25.366339,228.503937 
	C32.064327,217.192932 38.449032,205.695190 45.222599,194.430588 
	C49.655262,187.058945 54.659977,180.032944 59.165012,172.702515 
	C61.444672,168.993134 63.136959,164.926758 65.183174,161.068665 
	C66.822891,157.976990 68.766197,155.879318 72.968040,155.897186 
	C113.126801,156.067871 153.286575,155.999161 193.446060,155.999161 
	C243.770386,155.999176 294.094696,155.999191 344.419037,155.999191 
	C346.067383,155.999191 347.715759,155.999191 349.800690,155.999191 
	C349.800690,165.609436 349.797791,175.039322 349.801239,184.469193 
	C349.810608,209.961441 349.742981,235.454224 349.909729,260.945465 
	C349.938568,265.347321 348.920563,266.900543 344.079926,266.860260 
	C313.290710,266.603973 282.498291,266.729919 251.123276,266.729919 
	C251.123276,278.773987 251.119827,290.387085 251.124115,302.000183 
	C251.130386,318.995789 251.037598,335.992584 251.228607,352.986145 
	C251.273758,357.002991 249.880066,358.080536 246.005936,358.071381 
	C199.681152,357.962036 153.356003,358.004364 107.030960,357.995178 
	C102.512070,357.994263 101.012413,356.213654 101.008080,350.733368 
	C100.987953,325.237946 100.999168,299.742493 100.999168,274.247070 
	C100.999168,272.271118 100.999168,270.295166 100.999168,267.967194 
	C99.537636,267.849518 98.277405,267.657959 97.017448,267.659760 
	C66.196487,267.703644 35.375557,267.773621 4.554587,267.803070 
	C3.598200,267.803955 2.641450,267.423065 1.342435,267.610077 
	C1.000000,267.250000 1.000000,266.500000 0.999998,265.375000 
z"/>
<path fill="#FEFEFE" opacity="1.000000" stroke="none" 
	d="
M956.997559,560.000000 
	C956.997559,533.511475 956.993408,507.522949 957.000427,481.534424 
	C957.002136,475.014984 958.207886,473.829041 964.724915,473.829071 
	C975.386841,473.829071 986.051392,473.961304 996.709351,473.757019 
	C1000.416138,473.686005 1002.600708,474.369690 1004.911438,477.949310 
	C1009.380981,484.873077 1015.157776,490.945465 1020.296875,497.446503 
	C1026.499390,505.292786 1032.543213,513.264893 1038.765015,521.095520 
	C1045.202515,529.197449 1051.822144,537.154480 1058.269165,545.248962 
	C1065.951904,554.895203 1073.535645,564.620178 1082.165283,575.585388 
	C1082.165283,541.006775 1082.165283,507.763397 1082.165283,474.264191 
	C1098.295166,474.264191 1113.526367,474.264191 1129.253540,474.264191 
	C1129.253540,476.600037 1129.247437,478.869507 1129.254517,481.138916 
	C1129.338989,508.455414 1129.492798,535.771912 1129.492798,563.088440 
	C1129.492798,590.904724 1129.266968,618.721191 1129.348145,646.536987 
	C1129.358887,650.195190 1128.174561,651.099182 1124.783081,651.059021 
	C1112.623535,650.914856 1100.459473,651.095276 1088.301758,650.889832 
	C1086.709473,650.862915 1084.658203,649.690735 1083.637085,648.401489 
	C1066.335205,626.555420 1049.137573,604.626526 1031.973022,582.671997 
	C1024.075195,572.570190 1016.310242,562.364624 1008.439758,552.241272 
	C1007.901245,551.548584 1006.981812,551.151978 1005.995728,550.442322 
	C1005.995728,583.929260 1005.995728,617.173950 1005.995728,651.002441 
	C996.865784,651.002441 987.939087,651.002502 979.012390,651.002502 
	C973.348206,651.002502 967.672668,650.783447 962.023804,651.077087 
	C958.048828,651.283752 956.977051,649.367310 956.989929,645.962219 
	C957.015747,639.131958 956.997498,632.301636 956.997498,625.471313 
	C956.997498,603.814209 956.997559,582.157104 956.997559,560.000000 
z"/>
<path fill="#FDFDFD" opacity="1.000000" stroke="none" 
	d="
M1171.781860,510.710083 
	C1180.744629,498.986816 1191.427734,489.762848 1204.729248,484.069641 
	C1212.462769,480.759613 1220.708984,478.662720 1228.670532,475.866241 
	C1243.422363,470.684601 1258.694214,473.166168 1273.715698,473.114899 
	C1282.158203,473.086060 1290.121704,476.829163 1298.065796,480.120087 
	C1305.357300,483.140747 1312.099976,486.882843 1318.206543,491.588989 
	C1324.030151,496.076935 1329.403442,501.280609 1334.345215,506.739349 
	C1338.316406,511.125793 1341.854736,516.090820 1344.656250,521.298706 
	C1347.633179,526.832520 1349.502441,532.960449 1351.879395,538.819153 
	C1356.128906,549.293579 1355.000366,560.322205 1354.701782,571.128174 
	C1354.343994,584.078918 1349.251831,595.806763 1343.252197,607.128296 
	C1335.994995,620.823181 1324.101074,630.185730 1312.439697,639.624817 
	C1308.711426,642.642517 1303.650269,644.119324 1299.055786,645.939697 
	C1288.602905,650.081055 1278.084106,653.288086 1266.598755,654.341736 
	C1253.432251,655.549622 1240.534302,654.588196 1227.743652,652.706543 
	C1220.581543,651.652954 1213.663208,648.064148 1206.966187,644.913879 
	C1194.139771,638.880249 1183.571655,629.900452 1174.499756,618.989624 
	C1168.075195,611.263062 1163.791748,602.593994 1159.987549,593.335693 
	C1154.179199,579.200195 1154.127563,564.504700 1155.537720,550.064331 
	C1156.790039,537.239197 1161.448608,524.875183 1169.391602,514.197754 
	C1170.173584,513.146484 1170.747314,511.940125 1171.781860,510.710083 
M1278.482300,518.539124 
	C1274.061035,516.906860 1269.754761,514.432251 1265.195679,513.810425 
	C1254.346680,512.330688 1243.762207,512.999817 1233.521973,518.225342 
	C1219.072998,525.598511 1211.162231,537.974854 1208.303833,552.802124 
	C1206.147461,563.986694 1206.983032,575.752625 1212.861816,586.669556 
	C1221.932251,603.513428 1236.204224,612.254333 1254.571899,613.733154 
	C1260.879272,614.241028 1267.485474,610.678955 1273.994629,609.143860 
	C1280.207764,607.678528 1284.527344,603.450989 1288.973877,599.350342 
	C1295.342407,593.476868 1298.824585,585.827942 1301.668457,577.926208 
	C1302.995483,574.238464 1303.876953,570.161316 1303.844727,566.269836 
	C1303.802124,561.114258 1303.266113,555.794983 1301.843994,550.862671 
	C1300.195923,545.147705 1298.248413,539.124084 1294.808716,534.420715 
	C1290.495850,528.523254 1284.534790,523.831116 1278.482300,518.539124 
z"/>
<path fill="#FCFCFC" opacity="1.000000" stroke="none" 
	d="
M527.451782,309.000671 
	C527.453613,320.147034 527.453613,330.793427 527.453613,341.720734 
	C511.035553,341.720734 494.993469,341.720734 478.617920,341.720734 
	C478.617920,282.870392 478.617920,224.143921 478.617920,165.206268 
	C494.915344,165.206268 510.866882,165.206268 527.379944,165.206268 
	C527.379944,188.882263 527.379944,212.580978 527.379944,236.395508 
	C551.045105,236.395508 574.149536,236.395508 597.736328,236.395508 
	C597.736328,212.671478 597.736328,189.122650 597.736328,165.285645 
	C614.798401,165.285645 631.382324,165.285645 648.378601,165.285645 
	C648.378601,223.924805 648.378601,282.651154 648.378601,341.691010 
	C632.002441,341.691010 615.282410,341.691010 598.078369,341.691010 
	C598.078369,319.557190 598.078369,297.331177 598.078369,274.924500 
	C574.365479,274.924500 551.135254,274.924500 527.449890,274.924500 
	C527.449890,286.279175 527.449890,297.389923 527.451782,309.000671 
z"/>
<path fill="#FDFDFD" opacity="1.000000" stroke="none" 
	d="
M1056.934814,247.999924 
	C1056.934814,220.207001 1056.934814,192.914078 1056.934814,165.309265 
	C1073.182617,165.309265 1089.245361,165.309265 1105.766357,165.309265 
	C1105.766357,189.632904 1105.766357,214.016846 1105.766357,238.400803 
	C1106.130859,238.601379 1106.495361,238.801941 1106.859863,239.002502 
	C1111.213135,234.214310 1115.603027,229.458740 1119.912231,224.631149 
	C1128.686523,214.801025 1137.382690,204.900818 1146.176270,195.087967 
	C1154.442505,185.863693 1162.737549,176.663452 1171.168945,167.591110 
	C1172.348877,166.321503 1174.371460,165.125229 1176.016968,165.107559 
	C1192.841553,164.926727 1209.668823,164.975525 1226.495117,165.035370 
	C1227.913208,165.040405 1229.329346,165.589462 1230.880737,165.913864 
	C1208.150879,190.448502 1185.672974,214.711166 1163.258911,238.904892 
	C1186.676392,273.324280 1209.920776,307.489197 1233.746216,342.508301 
	C1231.519653,342.770905 1230.181519,343.065918 1228.843384,343.065765 
	C1211.519043,343.063812 1194.193359,342.887207 1176.871338,343.071594 
	C1171.997070,343.123474 1171.163818,338.953705 1169.348999,336.437683 
	C1158.474487,321.361633 1148.044678,305.964081 1137.521362,290.636139 
	C1134.183594,285.774689 1131.016235,280.796295 1127.399658,275.307861 
	C1120.328003,283.081116 1113.367310,290.609497 1106.613403,298.318909 
	C1105.809692,299.236298 1105.965942,301.141052 1105.961182,302.589081 
	C1105.916748,315.879120 1105.934937,329.169373 1105.934937,342.729126 
	C1089.380493,342.729126 1073.309082,342.729126 1056.934814,342.729126 
	C1056.934814,311.292175 1056.934814,279.896057 1056.934814,247.999924 
z"/>
<path fill="#FDFDFD" opacity="1.000000" stroke="none" 
	d="
M1596.004028,602.968689 
	C1597.326660,618.846069 1589.269043,629.193787 1577.924805,638.084167 
	C1569.492798,644.692261 1559.922607,648.172974 1549.790039,651.188049 
	C1535.061157,655.570740 1520.303345,654.464661 1505.543213,652.952881 
	C1497.032227,652.081116 1488.609131,649.967285 1480.275757,647.893372 
	C1475.643433,646.740479 1471.118408,644.839417 1466.828369,642.705505 
	C1460.905396,639.759277 1455.129761,636.467346 1449.520264,632.957153 
	C1445.445801,630.407471 1441.742554,627.264465 1438.321899,624.719482 
	C1444.696777,612.547607 1450.911621,600.681213 1457.769897,587.586426 
	C1460.752197,589.681152 1463.745972,592.143799 1467.064575,594.036865 
	C1473.235474,597.556885 1479.468140,601.021973 1485.913696,603.992310 
	C1492.166138,606.873596 1498.693115,609.171875 1505.145264,611.604675 
	C1513.306152,614.681702 1521.902954,614.535339 1530.318115,613.831055 
	C1534.186523,613.507263 1538.302368,611.379211 1541.494019,608.986328 
	C1545.121094,606.267029 1545.028320,601.710999 1544.174927,597.447693 
	C1543.199463,592.573364 1539.294312,589.802185 1535.412231,588.397888 
	C1524.161377,584.328125 1512.583252,581.172058 1501.178589,577.516602 
	C1487.398804,573.099792 1473.102783,569.334167 1462.539429,558.731079 
	C1456.772705,552.942688 1451.218994,546.932739 1449.854492,537.618896 
	C1449.114258,532.567139 1447.973267,527.447266 1448.543701,522.514954 
	C1450.201904,508.180176 1456.198853,495.856720 1468.079956,487.100922 
	C1472.957275,483.506592 1478.042114,479.937469 1483.543579,477.519836 
	C1488.820435,475.200836 1494.683350,473.667786 1500.422607,473.066193 
	C1511.531982,471.901855 1522.764404,470.843231 1533.890137,471.253448 
	C1542.350098,471.565430 1550.769165,474.016235 1559.119263,475.901703 
	C1564.254272,477.061188 1569.330933,478.673950 1574.244995,480.571960 
	C1581.580322,483.405182 1588.749146,486.669220 1597.265381,490.293152 
	C1595.154053,495.496490 1593.372681,500.419373 1591.184204,505.154053 
	C1587.919556,512.217285 1584.229126,519.084473 1580.996704,526.161499 
	C1579.389648,529.680115 1578.137695,530.810974 1574.202515,528.398254 
	C1566.692383,523.793518 1559.577759,517.927490 1550.040527,517.837524 
	C1544.277466,511.417786 1535.725098,513.541382 1528.620728,511.272369 
	C1522.062012,509.177612 1514.426636,509.764404 1508.010864,513.963684 
	C1501.751343,518.060791 1501.670044,526.944214 1508.343506,531.149170 
	C1513.350708,534.304199 1518.895264,536.849609 1524.510986,538.747681 
	C1538.477173,543.467957 1552.754761,547.284058 1566.650024,552.191589 
	C1577.374878,555.979309 1585.426270,563.815491 1591.776001,573.000305 
	C1594.176758,576.472900 1595.317017,581.196289 1595.838623,585.494385 
	C1596.516357,591.078857 1596.004028,596.807861 1596.004028,602.968689 
z"/>
<path fill="#FEFEFE" opacity="1.000000" stroke="none" 
	d="
M785.820190,164.997452 
	C788.293396,164.997452 790.292480,164.997452 792.088867,164.997452 
	C816.155762,224.702209 843.111572,283.029785 868.311707,342.703339 
	C850.310974,342.703339 832.782837,342.703339 815.369629,342.703339 
	C811.021423,332.342041 806.669983,321.972931 802.138855,311.175873 
	C783.405518,311.175873 764.430725,311.174011 745.455994,311.177032 
	C739.956604,311.177917 734.450867,311.053772 728.962402,311.303009 
	C727.657288,311.362244 725.679443,312.403595 725.252075,313.484070 
	C721.978577,321.760864 719.148560,330.213684 715.842957,338.476715 
	C715.119873,340.284241 713.067078,342.837250 711.583252,342.866791 
	C695.630859,343.184448 679.669678,343.064697 662.248291,343.064697 
	C663.783752,339.223175 664.975952,336.256622 666.155640,333.285126 
	C668.186340,328.170197 670.058350,322.985474 672.280457,317.955292 
	C674.249146,313.498810 676.701233,309.258240 678.759338,304.838257 
	C680.747437,300.568665 682.474670,296.178375 684.372559,291.865723 
	C686.231201,287.642151 688.143005,283.441650 690.062500,279.245239 
	C693.329407,272.103180 696.683533,265.000305 699.885681,257.829437 
	C703.767334,249.136841 707.443054,240.351776 711.364441,231.677521 
	C716.387634,220.565796 721.624451,209.550690 726.661926,198.445297 
	C731.116821,188.624252 735.534607,178.782944 739.730042,168.849716 
	C740.986389,165.875168 742.825562,164.940201 745.848877,164.960129 
	C759.014160,165.046951 772.180298,164.997452 785.820190,164.997452 
M771.319641,231.969971 
	C769.661072,227.969116 768.002441,223.968262 766.343872,219.967407 
	C765.922913,219.759262 765.501953,219.551117 765.080994,219.342972 
	C757.452209,237.692383 749.823364,256.041809 742.179993,274.426300 
	C757.628906,274.426300 772.527222,274.426300 788.105103,274.426300 
	C782.464417,260.140411 777.047852,246.422180 771.319641,231.969971 
z"/>
<path fill="#FDFDFD" opacity="1.000000" stroke="none" 
	d="
M1027.565186,206.461182 
	C1022.013245,212.962875 1016.770203,219.240219 1011.276306,225.289719 
	C1009.471680,227.276810 1007.522827,229.540588 1005.178467,224.910934 
	C1001.354309,217.358719 993.795105,213.571976 986.681702,209.974503 
	C981.604919,207.406982 975.267395,207.304810 970.240417,204.673553 
	C964.186890,201.505020 958.440674,204.087891 953.416748,205.268051 
	C937.365112,209.038696 925.678589,218.761902 919.741882,234.831619 
	C915.933105,245.141388 915.683533,255.635086 918.053223,265.941925 
	C921.586243,281.308929 931.024475,292.083984 945.775269,298.424438 
	C956.815125,303.169861 967.985352,301.989258 979.062622,300.077423 
	C983.324036,299.342010 987.078430,295.744354 991.098755,293.513855 
	C994.874329,291.419189 998.818298,289.599304 1002.448853,287.283356 
	C1004.434692,286.016510 1005.749756,283.714844 1007.709534,282.383728 
	C1008.753357,281.674866 1011.229187,281.362488 1011.862793,282.021301 
	C1019.885132,290.362457 1027.583984,299.014526 1035.594604,307.367371 
	C1039.588989,311.532410 1039.739502,311.953735 1035.705811,315.692169 
	C1023.701172,326.818024 1009.950684,334.914337 994.433899,340.139008 
	C980.829834,344.719635 967.143372,346.386322 952.635376,345.448517 
	C940.470886,344.662109 929.237244,341.392365 918.502319,336.767761 
	C907.155884,331.879791 897.466980,324.080963 888.771973,314.978638 
	C879.486877,305.258484 873.953735,293.465088 868.436157,281.636810 
	C866.465393,277.412079 865.436890,272.457611 865.200989,267.774658 
	C864.721680,258.262512 864.439331,248.649948 865.308350,239.192017 
	C865.891541,232.845825 868.098816,226.499008 870.467712,220.503418 
	C873.677795,212.378586 878.159241,204.933121 883.846191,198.107864 
	C890.336182,190.318863 897.687866,183.737961 906.175415,178.280365 
	C915.221741,172.463379 924.822449,167.911621 935.373962,165.755997 
	C941.637695,164.476349 948.021301,163.638306 954.393005,163.080231 
	C959.201111,162.659103 964.076721,163.058426 968.920654,162.984299 
	C979.891113,162.816437 989.983643,166.057312 1000.208923,169.761185 
	C1009.807739,173.238083 1018.382324,178.146484 1026.564331,183.956879 
	C1030.187744,186.529984 1033.551147,189.497055 1036.829224,192.506805 
	C1037.532227,193.152298 1037.963867,195.277359 1037.487061,195.831635 
	C1034.410034,199.408035 1031.046143,202.737579 1027.565186,206.461182 
z"/>
<path fill="#FEFEFE" opacity="1.000000" stroke="none" 
	d="
M667.998657,653.000610 
	C633.011353,653.000610 598.523621,652.966614 564.036133,653.053772 
	C560.627930,653.062378 558.980042,652.558411 558.990234,648.464722 
	C559.133423,590.819153 559.098145,533.173157 559.111877,475.527222 
	C559.111938,475.213715 559.191772,474.900208 559.336914,473.832367 
	C568.489075,473.832367 577.743774,473.832397 586.998474,473.832306 
	C593.162903,473.832245 599.336792,474.040100 605.488647,473.761902 
	C609.918152,473.561584 611.104492,475.246216 611.089294,479.572876 
	C610.941833,521.723999 611.000549,563.875732 611.000549,606.027344 
	C611.000549,607.177856 611.000610,608.328369 611.000610,609.356201 
	C612.970337,609.226074 614.685425,609.015991 616.400818,609.014221 
	C637.726501,608.991638 659.052246,608.994934 680.377930,609.002075 
	C686.890015,609.004272 686.918640,609.018616 686.967346,615.504883 
	C687.048645,626.330933 686.947815,637.160889 687.220398,647.981750 
	C687.321533,652.000610 685.879395,653.299866 681.989563,653.063843 
	C677.507751,652.791809 672.996643,653.000610 667.998657,653.000610 
z"/>
<path fill="#FEFEFE" opacity="1.000000" stroke="none" 
	d="
M770.510254,592.993774 
	C770.510254,598.795715 770.510254,604.099121 770.510254,608.998169 
	C783.023926,608.998169 795.545898,608.998169 808.067932,608.998169 
	C818.898376,608.998169 829.737732,609.256897 840.555176,608.881714 
	C845.470947,608.711182 847.350281,611.106445 847.431946,615.154480 
	C847.653564,626.147034 847.568848,637.147644 847.454346,648.143494 
	C847.428772,650.602539 847.157227,653.056152 843.431274,653.049194 
	C802.799622,652.972900 762.167786,653.001465 721.209106,653.001465 
	C721.209106,593.379761 721.209106,533.991333 721.209106,473.998138 
	C728.578918,473.998138 736.007751,473.998138 743.436584,473.998138 
	C750.767944,473.998138 758.105713,474.181732 765.428284,473.928131 
	C769.711670,473.779785 771.138184,475.134430 771.098572,479.601196 
	C770.765137,517.231262 770.674133,554.863525 770.510254,592.993774 
z"/>
<path fill="#FEFEFE" opacity="1.000000" stroke="none" 
	d="
M476.999237,629.999634 
	C476.999237,580.185486 477.017670,530.871277 476.977509,481.557037 
	C476.972107,474.896454 477.814667,473.781311 484.520691,473.914154 
	C498.654358,474.194122 512.797363,473.999237 527.318848,473.999237 
	C527.318848,533.248413 527.318848,592.175659 527.318848,651.000732 
	C512.338318,651.000732 497.126831,650.854858 481.921509,651.098022 
	C477.852722,651.163086 476.673645,649.926819 476.920288,645.988708 
	C477.242493,640.844177 476.999237,635.664185 476.999237,629.999634 
z"/>
<path fill="#FDFDFD" opacity="1.000000" stroke="none" 
	d="
M1407.994141,651.003601 
	C1397.332031,651.003601 1387.166992,650.894165 1377.006836,651.067627 
	C1373.794067,651.122437 1372.671631,650.227539 1372.682007,646.872742 
	C1372.854248,591.066406 1372.908081,535.259766 1373.019531,479.453217 
	C1373.022827,477.822479 1373.366211,476.192383 1373.580933,474.297394 
	C1389.926270,474.297394 1405.998169,474.297394 1422.405029,474.297394 
	C1422.405029,533.002197 1422.405029,591.723145 1422.405029,651.003601 
	C1417.707275,651.003601 1413.100220,651.003601 1407.994141,651.003601 
z"/>
<path fill="#FDFDFD" opacity="1.000000" stroke="none" 
	d="
M872.075439,590.000000 
	C872.074829,551.208679 872.074829,512.917358 872.074829,474.216492 
	C888.339172,474.216492 904.366455,474.216492 920.642578,474.216492 
	C920.642578,533.059814 920.642578,591.776367 920.642578,650.748108 
	C904.541931,650.748108 888.624634,650.748108 872.076050,650.748108 
	C872.076050,630.674622 872.076050,610.587341 872.075439,590.000000 
z"/>
<path fill="#010101" opacity="1.000000" stroke="none" 
	d="
M1278.883789,518.578979 
	C1284.534790,523.831116 1290.495850,528.523254 1294.808716,534.420715 
	C1298.248413,539.124084 1300.195923,545.147705 1301.843994,550.862671 
	C1303.266113,555.794983 1303.802124,561.114258 1303.844727,566.269836 
	C1303.876953,570.161316 1302.995483,574.238464 1301.668457,577.926208 
	C1298.824585,585.827942 1295.342407,593.476868 1288.973877,599.350342 
	C1284.527344,603.450989 1280.207764,607.678528 1273.994629,609.143860 
	C1267.485474,610.678955 1260.879272,614.241028 1254.571899,613.733154 
	C1236.204224,612.254333 1221.932251,603.513428 1212.861816,586.669556 
	C1206.983032,575.752625 1206.147461,563.986694 1208.303833,552.802124 
	C1211.162231,537.974854 1219.072998,525.598511 1233.521973,518.225342 
	C1243.762207,512.999817 1254.346680,512.330688 1265.195679,513.810425 
	C1269.754761,514.432251 1274.061035,516.906860 1278.883789,518.578979 
z"/>
<path fill="#070707" opacity="1.000000" stroke="none" 
	d="
M771.475464,232.336975 
	C777.047852,246.422180 782.464417,260.140411 788.105103,274.426300 
	C772.527222,274.426300 757.628906,274.426300 742.179993,274.426300 
	C749.823364,256.041809 757.452209,237.692383 765.080994,219.342972 
	C765.501953,219.551117 765.922913,219.759262 766.343872,219.967407 
	C768.002441,223.968262 769.661072,227.969116 771.475464,232.336975 
z"/>
</svg>