<?xml version="1.0" encoding="UTF-8"?>
<svg version="1.1" xmlns="http://www.w3.org/2000/svg" width="299" height="60">
<path d="M0 0 C0.94786847 -0.00835666 1.89573694 -0.01671332 2.8723287 -0.02532321 C6.02719801 -0.04817868 9.18135122 -0.0427012 12.33628845 -0.0370636 C14.60720089 -0.0474026 16.87810631 -0.05939316 19.14900208 -0.07290649 C25.30436099 -0.10391294 31.45948559 -0.10923155 37.61491323 -0.10797477 C42.76347881 -0.1088066 47.91199393 -0.12105978 53.06054395 -0.13292438 C65.9109474 -0.16185078 78.76117726 -0.1648261 91.61159741 -0.15686695 C102.73899194 -0.1508936 113.86594475 -0.18123848 124.99322922 -0.22848966 C136.44745645 -0.2767454 147.90138586 -0.29799312 159.35573286 -0.29317886 C165.77485295 -0.29086351 172.19351721 -0.29904128 178.61255074 -0.3342495 C184.65639757 -0.36636218 190.69931509 -0.3642721 196.74317551 -0.33680534 C198.95051294 -0.33237479 201.15791302 -0.33968033 203.36515999 -0.36014938 C216.98378655 -0.47779807 227.19781429 0.90878417 239.17979431 7.52812195 C240.45186156 8.20077821 241.72497366 8.87146231 242.9991312 9.54015064 C251.50818869 14.08871713 260.31132721 19.65965485 267.17979431 26.52812195 C267.50169195 29.36839522 267.59692605 30.94104765 265.91416931 33.30937195 C260.46328662 38.03060892 254.62968224 42.05659422 248.61729431 46.02812195 C247.83386658 46.54954773 247.05043884 47.07097351 246.24327087 47.60820007 C243.59324174 49.31837481 240.89268064 50.91930477 238.17979431 52.52812195 C237.10995489 53.20192241 236.04011547 53.87572287 234.93785667 54.56994152 C223.25035785 61.48453875 212.53774557 61.65323951 199.22520447 61.51567078 C196.95337316 61.52161168 194.68154869 61.53100203 192.40974426 61.54354858 C186.2858283 61.56704598 180.1630699 61.54087311 174.03925753 61.50393128 C167.61112113 61.47233562 161.18303096 61.48250496 154.75483704 61.48678589 C143.97000205 61.48761298 133.18568436 61.45710186 122.40098572 61.40629578 C111.32599271 61.35414025 100.2514877 61.3329677 89.17637634 61.34477234 C75.78805434 61.35898581 62.40008142 61.34826889 49.01177597 61.31401634 C43.91231801 61.30122537 38.8129766 61.29760456 33.71350479 61.30129433 C27.70985881 61.30406291 21.70680898 61.28164678 15.70331192 61.2400074 C13.5047732 61.22863425 11.3061721 61.22565113 9.10761261 61.23181534 C-12.22116795 61.28125533 -12.22116795 61.28125533 -19.82020569 55.52812195 C-20.67356506 54.8939032 -21.52692444 54.25968445 -22.40614319 53.60624695 C-29.32957354 46.53164999 -32.17850926 40.59624701 -32.38270569 30.59062195 C-32.26668627 20.148874 -28.43511997 13.63466481 -21.27333069 6.31718445 C-14.57498752 1.43208704 -8.17136909 -0.06462695 0 0 Z " fill="#973300" transform="translate(31.820205688476563,-0.5281219482421875)"/>
</svg>
