<svg width="390" height="825" viewBox="0 0 390 825" fill="none" xmlns="http://www.w3.org/2000/svg">
<path d="M125.038 113.206L128.232 121.775L119.313 120.579L112.09 116.045L106.226 124.411L104.529 120.168L108.52 118.107L112.703 106.494L124.754 99.7361L133.995 100.287L125.038 113.206Z" fill="#222B2B"/>
<path d="M15.1 123.348H66.9759L91.0509 86L215.152 118.013H367.483L407.178 197.777L426.162 363.109L435 484.023L407.178 632.347L420.219 721.182L407.178 826.824L315.034 839.095L241.949 937L123.008 878.044L-29 839.095L-40.5 735L-56 632.347L-36.5 550.5L0.773506 484.023V405.859L-24.5 251.5L-17 218.585V197.777L15.1 123.348Z" fill="#335757"/>
<path d="M28.7185 558.931L69.989 634.759L88.8952 656L186.352 637.793H305.979L337.152 592.428L352.06 498.397L359 429.628L337.152 345.269L347.393 294.745L337.152 234.662L264.79 227.683L207.397 172L113.991 205.531L29.2507 227.683L29.2507 285.487L18 345.269L36.9178 390.226L18 429.628L18 474.083L29.2507 563.145L28.7185 558.931Z" fill="#294646"/>
<path d="M242.106 624.927L188.683 627.446L141 649.5L89.902 657L69.7426 634.498L28.5837 558.429L18.168 474.3V428.793L36.8155 390.003L18 345L153.908 421.741L204.338 535.592L233.538 548.692L282 627.446L242.106 624.927Z" fill="#162828"/>
<path d="M184.937 637.249H217.793L277.091 646.851H337.31L353.002 623.955L360.506 576.498L364 541.79L353.002 499.214L358.157 473.715L364 439.869L358.157 422L320.049 428.711L261.042 460.419L221.481 528.702L192.344 541.79L138 650L184.937 637.249Z" fill="#283E3E"/>
</svg>
