<svg width="314" height="831" viewBox="0 0 314 831" fill="none" xmlns="http://www.w3.org/2000/svg">
<path d="M192.418 48.3943L163.217 72.758L176.292 76.3912L196.994 100.755L192.418 173.018L167.139 204.622L152.321 261.043L148.834 287.544C148.253 289.183 152.931 292.417 176.292 292.246C199.653 292.075 200.99 277.072 198.738 269.592C188.133 263.964 173.59 253.307 200.263 255.7C226.937 258.094 229.247 234.613 227.068 222.574L216.172 212.957C264.986 211.461 263.46 158.065 251.257 159.955C242.976 161.237 222.927 150.979 240.143 143.926C257.359 136.873 253.225 121.574 250.614 119.177C246.41 115.317 241.693 110.457 238.182 98.8316C236.887 94.5443 231.208 63.1408 217.915 52.0275C207.28 43.1368 196.486 45.9009 192.418 48.3943Z" fill="url(#paint0_linear_5153_12125)"/>
<path d="M187.313 38.7186C191.31 39.912 195.206 44.8989 196.654 47.2432L177.754 68.5548L179.492 85.1778L190.789 157.424L164.936 205.162L123.876 249.277L137.345 315.769L115.403 339.638L77.3837 352.851C70.8662 351.785 59.9167 348.589 68.2592 344.326C78.6872 338.998 66.9557 332.392 62.1762 330.474C58.3525 328.939 54.6448 324.436 53.2689 322.375C50.517 316.834 49.0107 304.815 65.0004 301.064C80.9902 297.313 58.338 285.72 45.0132 280.392C38.5808 259.509 61.8165 253.861 78.627 253.446C76.2987 251.74 73.707 248.047 71.3004 240.965C66.0864 225.621 81.0043 220.932 89.115 220.506C102.295 219.583 123.441 215.604 102.585 207.08C81.7284 198.555 90.7081 179.659 97.805 171.276C106.061 168.009 118.792 155.634 103.671 132.276C84.77 103.079 128.122 46.9624 131.164 44.1919C137.909 38.0481 182.316 37.2268 187.313 38.7186Z" fill="url(#paint1_linear_5153_12125)"/>
<path d="M125.942 86.2617C130.816 69.3465 141.753 71.0758 146.612 74.0548V86.2617L132.035 122.228H122.026C121.301 117.287 121.069 103.177 125.942 86.2617Z" fill="#F1A39C"/>
<path d="M123.767 129.204C115.934 114.73 128.626 101.375 135.951 96.5068L145.089 99.1226L182.295 166.478L198.395 184.135H219.935L235.166 191.11L230.161 222.935C227.26 226.35 220.327 234.793 215.801 241.245C211.276 247.697 191.578 243.934 182.295 241.245L173.156 254.106C175.55 257.666 180.728 267.403 182.295 277.866C183.861 288.329 163.075 286.585 152.487 284.405L127.465 289.419L88.084 324.731C88.084 326.475 87.0832 326.998 83.0798 315.14C79.0763 303.282 86.7785 295.086 91.1301 292.47C93.8135 288.256 96.9611 278.215 88.084 271.762C79.2069 265.31 89.462 257.303 95.6992 254.106L112.235 237.104L132.034 213.562L123.767 191.11C121.083 190.456 115.02 187.23 112.235 179.557C109.45 171.884 121.228 162.264 127.465 158.413C129.496 154.707 131.599 143.678 123.767 129.204Z" fill="#F1A39C"/>
<path d="M79.5003 239.12L125.486 190.674L138.344 214.46L75.2471 274.814L79.5003 239.12Z" fill="#FFECDD"/>
<path d="M59.5377 136.379C56.8014 149.77 50.3333 159.751 46.7981 159.025C43.2629 158.299 43.9992 147.139 46.7355 133.749C49.4718 120.359 52.9988 109.773 56.534 110.499C60.0692 111.226 62.2739 122.989 59.5377 136.379Z" fill="#95ACB8"/>
<path d="M57.8092 136.025C55.0729 149.415 49.9888 159.681 46.4536 158.955C42.9184 158.228 42.2707 146.785 45.007 133.394C47.7432 120.004 52.8273 109.738 56.3625 110.465C59.8977 111.191 60.5454 122.635 57.8092 136.025Z" fill="#C2EBFF"/>
<path d="M70.024 166.333C59.0994 158.139 47.6473 154.972 45.488 157.862C43.3287 160.752 51.2798 168.606 62.2045 176.799C73.1291 184.993 82.7848 190.565 84.9441 187.674C87.1034 184.784 80.9487 174.526 70.024 166.333Z" fill="#95ACB8"/>
<path d="M68.9659 167.748C58.0413 159.554 47.4346 155.255 45.2753 158.146C43.116 161.036 50.2217 170.021 61.1464 178.214C72.071 186.408 82.6777 190.707 84.837 187.816C86.9964 184.926 79.8906 175.941 68.9659 167.748Z" fill="#C2EBFF"/>
<path d="M65.381 189.036C71.5503 208.263 79.3904 229.238 82.5393 237.322L75.3592 274.691L70.5863 277.088L68.2729 277.307C66.1522 276.433 62.1422 272.631 59.2118 264.415C56.2814 256.2 53.2353 207.68 52.0786 184.447L65.381 189.036Z" fill="#FFECDD"/>
<path d="M67.7441 180.088C68.7885 183.227 66.4386 187.645 65.1332 189.461L52.7312 185.32L40.3294 166.573L39.677 153.713C39.1548 139.064 40.5471 139.108 41.8525 139.98C44.3909 142.668 48.6408 148.481 48.8148 150.225C48.9889 151.969 51.2082 158.072 51.4257 162.432L58.3883 169.407C61.0718 171.66 66.6997 176.949 67.7441 180.088Z" fill="#FFECDD"/>
<path d="M92.6528 258.901L106.36 217.485V208.112L113.975 205.061L119.632 215.742L120.938 233.398L92.6528 258.901Z" fill="#FCD1BC"/>
<path d="M279.986 265.659L241.475 201.355L219.718 199.394L192.521 201.355L201.659 226.641L214.931 216.396L252.789 268.057L279.986 265.659Z" fill="#FFECDD"/>
<path d="M282.379 270.455C282.554 269.234 280.566 266.749 279.551 265.659H255.4L252.354 267.839C246.088 265.746 205.212 306.785 185.558 327.565L196.654 334.105C216.019 321.825 255.444 296.787 258.229 294.868C261.013 292.95 273.604 281.862 279.551 276.558C280.421 275.032 282.205 271.675 282.379 270.455Z" fill="#FFECDD"/>
<path d="M180.996 333.561C180.82 331.086 184.148 328.532 185.835 327.565H186.935L196.832 333.561L200.571 360.059C200.131 365.539 198.944 376.847 197.712 378.24C196.48 379.632 195.146 378.82 194.633 378.24L191.333 362.38C190.806 354.953 187.448 347.165 185.835 344.199C184.295 341.685 181.172 336.037 180.996 333.561Z" fill="#FFECDD"/>
<path d="M256.488 268.493L248.221 251.927L238.865 248.875L242.999 254.76L249.308 263.698L252.354 267.621C246.697 268.493 235.993 278.389 240.17 275.251C244.348 272.112 253.007 269.583 256.488 268.493Z" fill="#FCD1BC"/>
<path fill-rule="evenodd" clip-rule="evenodd" d="M214.712 216.23C215.298 216.767 215.891 217.31 216.497 217.845L215.977 218.435C215.348 217.878 214.742 217.324 214.151 216.782C212.982 215.712 211.866 214.689 210.716 213.791C208.995 212.447 207.249 211.423 205.251 211.005C201.273 210.171 196.122 211.704 187.984 218.443L187.484 217.837C195.665 211.061 201.066 209.324 205.411 210.235C207.574 210.688 209.431 211.79 211.199 213.17C212.372 214.087 213.528 215.146 214.712 216.23Z" fill="#E6B69C"/>
<path d="M169.458 174.326C172.417 174.326 174.752 165.461 175.55 161.029L197.09 139.667H205.793L198.83 176.288C212.103 169.748 224.287 174.544 227.55 176.288L241.475 201.137L202.094 226.859L169.458 260.646L113.105 242.553L122.244 194.598C134.428 174.195 145.742 170.547 149.876 171.274C155.17 172.291 166.499 174.326 169.458 174.326Z" fill="url(#paint2_linear_5153_12125)"/>
<path d="M197.09 156.451C183.339 171.448 177 169.966 174.244 166.696L177.073 156.451L194.261 145.334C200.933 142.791 210.84 141.454 197.09 156.451Z" fill="#FCD1BC"/>
<path fill-rule="evenodd" clip-rule="evenodd" d="M139.72 190.506L136.775 193.683H136.604C129.524 193.683 122.71 195.56 120.204 196.492L119.931 195.755C122.482 194.806 129.3 192.927 136.432 192.897L139.144 189.971L139.72 190.506Z" fill="#E6B69C"/>
<path fill-rule="evenodd" clip-rule="evenodd" d="M159.291 199.017L157.237 201.075L157.102 201.091C147.989 202.178 142.61 203.967 139.412 205.836C136.232 207.694 135.211 209.629 134.805 211.054L134.05 210.838C134.514 209.211 135.669 207.113 139.017 205.157C142.33 203.22 147.792 201.421 156.874 200.327L158.736 198.461L159.291 199.017Z" fill="#E6B69C"/>
<path d="M73.3975 770.324L76.6376 743.655L81.3897 730.32L102.558 735.55L105.582 762.219C105.006 763.7 101.997 767.919 94.5661 772.939C87.1355 777.959 77.3576 773.287 73.3975 770.324Z" fill="#EBBF72"/>
<path d="M74.1821 764.425L77.1456 737.755L81.4921 724.421L100.854 729.65L103.62 756.319C103.093 757.801 100.34 762.019 93.5437 767.039C86.7474 772.059 77.8042 767.388 74.1821 764.425Z" fill="#FFECDD"/>
<path d="M98.91 749.395L101.658 752.934L85.7613 771.222L83.6025 769.648L87.4666 764.536L76.145 751.558V746.642L89.6461 761.652L98.91 749.395Z" fill="#EBBF72"/>
<path d="M109.624 207.24C107.666 210.728 111.22 208.693 112.888 207.24L117.674 208.766C121.446 209.057 126.421 210.902 116.151 215.959C105.882 221.017 103.097 217.267 103.097 214.434L103.967 212.036L109.624 207.24Z" fill="white"/>
<path d="M113.456 225.545C109.633 215.696 110.704 206.621 113.021 203.201C114.215 201.012 116.932 197.957 119.974 195.905C121.059 195.905 127.794 202.061 133.876 210.725C139.887 209.433 146.498 206.115 157.273 205.932C168.048 205.75 191.213 230.346 198.613 230.346L198.395 232.744L187.317 245.153L181.452 249.941H179.497C164.725 250.671 140.756 233.981 130.619 225.545H113.456Z" fill="white"/>
<path d="M159.449 283.533L181.424 249.964L180.772 247.566L156.186 239.719L130.076 220.973L113.976 225.114C110.321 234.357 109.407 249.746 109.407 256.285L103.967 290.29L154.01 302.933L159.449 283.533Z" fill="white"/>
<path d="M192.303 227.512C238.951 239.719 249.743 223.443 249.308 213.779C256.488 225.114 264.321 234.487 264.321 237.975C259.969 254.977 244.086 253.452 232.99 251.054C229.291 250.618 203.327 236.885 190.345 230.564L192.303 227.512Z" fill="white"/>
<path d="M258.446 231.654C250.091 250.313 217.107 239.428 201.659 231.654C240.996 247 255.037 233.543 257.141 224.896L259.969 229.038L258.446 231.654Z" fill="#D5E4EE"/>
<path d="M181.642 334.759C181.642 333.015 163.365 312.38 154.227 302.28L151.398 299.228L129.206 294.869L103.532 290.291C97.7878 295.523 87.7938 314.414 83.5148 323.206C72.2008 336.982 71.1129 376.611 71.9832 394.703L129.206 405.166L162.712 346.966L178.813 360.916L195.784 405.166C195.857 404.367 196.219 398.016 197.089 379.009C198.177 355.249 181.642 336.939 181.642 334.759Z" fill="white"/>
<path d="M207.969 564.727C191.085 547.115 190.635 468.017 192.521 430.67H185.123L142.043 545.981L170.981 680.91C173.011 707.213 178.683 760.081 185.123 761.127C191.563 762.173 205.067 746.885 211.015 739.111C212.973 736.713 215.714 731.438 211.015 729.52C205.14 727.122 206.445 713.825 216.889 711.645C225.244 709.902 223.852 706.85 224.722 705.324C225.955 702.563 220.457 699.918 215.584 696.605C210.71 693.292 222.909 686.36 229.944 686.796L226.245 653.881C226.245 648.213 223.547 641.282 212.755 639.712C201.963 638.143 217.614 627.869 220.153 624.89C225.375 616.868 213.19 612.973 206.445 612.029C195.828 610.459 205.067 601.348 211.015 596.988C217.034 593.573 224.853 582.34 207.969 564.727Z" fill="url(#paint3_linear_5153_12125)"/>
<path d="M61.3243 546.719C61.3243 515.579 70.2038 436.573 70.4605 397.101L72.2011 388.382L129.864 389.703L148.09 419.798L129.864 515.316L144.496 598.621L168.37 700.245V736.01C165.888 745.387 158.358 765.276 148.09 769.812C137.822 774.348 123.104 767.922 117.029 764.142C118.997 761.379 120.572 756.073 111.125 756.945C99.3165 758.036 93.9258 747.568 96.7495 747.132C99.5733 746.696 95.9794 736.446 76.9834 739.935C61.7866 742.727 55.2492 735.428 53.8801 731.43L56.1903 717.255C41.6094 716.383 39.5046 707.587 40.2748 703.298L56.1903 664.699C46.6923 667.97 24.8725 641.364 33.8571 636.348C41.0448 632.336 55.1635 577.104 61.3243 549.99C63.2924 561.766 61.3243 551.08 61.3243 546.719Z" fill="url(#paint4_linear_5153_12125)"/>
<path d="M180.989 235.578C186.037 237.67 193.971 234.706 197.307 233.834C197.307 234.88 187.154 245.46 182.077 249.746L159.884 283.097L153.575 303.151C160.002 303.151 169.962 317.283 174.513 324.95C174.648 325.168 174.776 325.386 174.897 325.603C174.774 325.391 174.646 325.173 174.513 324.95C169.245 316.396 154.119 306.906 147.047 303.151V295.74L153.575 275.25L180.989 235.578Z" fill="#D5E4EE"/>
<path d="M81.1215 552.738L54.5772 668.703C47.4407 672.016 43.0457 662.672 41.7402 657.586L74.8118 556.226L83.5148 489.96L81.1215 552.738Z" fill="url(#paint5_linear_5153_12125)"/>
<path d="M134.982 101.955C134.219 94.7571 139.034 82.3277 141.538 77.0126L148.085 67.0591L173.274 63.414L196.272 74.7668L204.441 103.442L213.196 111.118C213.38 113.16 214.648 118.362 214.178 121.724C213.708 125.085 211.199 126.659 210.003 127.026C209.908 130.096 207.079 136.269 206.237 139.233C195.804 152.691 177.009 161.464 171.778 162.332C164.473 163.544 161.597 160.688 158.985 158.971C154.081 153.541 143.701 143.237 139.878 135.607C136.912 129.687 136.413 117.948 136.878 112.655L135.334 105.551C135.494 107.579 135.129 105.264 134.859 103.362L135.334 105.551C135.282 104.882 135.172 103.74 134.982 101.955Z" fill="#FFE8D9"/>
<path d="M163.975 124.641C164.092 128.005 160.946 130.843 156.949 130.981C152.951 131.119 149.617 128.503 149.5 125.14C149.384 121.776 152.529 118.937 156.527 118.799C160.524 118.662 163.859 121.277 163.975 124.641Z" fill="url(#paint6_radial_5153_12125)" fill-opacity="0.34"/>
<path d="M196.757 124.733C196.895 128.725 191.046 132.167 183.692 132.42C176.338 132.673 170.264 129.643 170.126 125.65C169.988 121.658 175.837 118.216 183.191 117.963C190.545 117.71 196.619 120.74 196.757 124.733Z" fill="url(#paint7_radial_5153_12125)" fill-opacity="0.34"/>
<path d="M150.408 125.733C150.51 128.668 147.707 131.147 144.147 131.27C140.588 131.393 137.62 129.112 137.519 126.177C137.417 123.241 140.22 120.762 143.779 120.639C147.339 120.517 150.307 122.797 150.408 125.733Z" fill="url(#paint8_radial_5153_12125)" fill-opacity="0.34"/>
<path d="M149.598 112.034C149.558 111.986 149.518 111.939 149.479 111.894C149.519 111.94 149.559 111.987 149.598 112.034C151.47 114.259 155.136 118.938 154.752 120.863C154.814 123.285 153.749 127.876 150.654 133.004C152.367 128.027 154.641 118.109 149.598 112.034Z" fill="#E6B69C"/>
<path d="M154.751 141.707C153.291 143.296 154.745 146.394 155.242 147.818C155.096 152.032 158.563 153.327 161.143 153.183C166.203 152.902 170.269 148.817 171.683 146.289C171.056 146.345 169.62 146.357 168.885 145.956C167.966 145.455 164.064 143.207 160.613 141.445C157.853 140.035 155.71 141.037 154.751 141.707Z" fill="#E69180"/>
<path d="M155.371 147.906C155.624 147.369 156.131 145.884 156.879 145.91C157.344 146.005 159.04 146.069 159.427 145.708C159.906 145.261 165.908 147.809 171.007 146.688C171.575 146.37 171.573 146.428 171.098 146.646L171.007 146.688C168.479 147.9 156.355 146.536 155.371 147.906Z" fill="#AC6055"/>
<path d="M164.111 116.903C164.631 116.949 166.546 116.536 167.439 116.323L167.655 116.342C175.382 117.901 181.865 116.216 184.14 115.179L184.931 116.123C174.944 122.891 163.461 116.846 164.111 116.903Z" fill="#5B1204"/>
<path fill-rule="evenodd" clip-rule="evenodd" d="M184.195 114.938L185.222 116.164L185.042 116.286C179.993 119.708 174.57 119.887 170.501 119.224C168.466 118.892 166.766 118.349 165.614 117.892C165.038 117.663 164.596 117.455 164.317 117.304C164.179 117.23 164.073 117.165 164.008 117.115C163.992 117.102 163.974 117.087 163.958 117.07C163.947 117.059 163.914 117.025 163.898 116.974C163.889 116.943 163.881 116.892 163.904 116.835C163.928 116.776 163.973 116.743 164.007 116.727C164.061 116.702 164.113 116.706 164.128 116.708L164.129 116.708C164.235 116.717 164.432 116.703 164.699 116.667C164.961 116.633 165.273 116.579 165.599 116.518C166.251 116.394 166.949 116.238 167.394 116.133L167.425 116.125L167.684 116.148L167.694 116.15C175.378 117.701 181.819 116.022 184.059 115L184.195 114.938ZM167.628 116.538L167.454 116.522C167.004 116.629 166.316 116.782 165.672 116.904C165.343 116.966 165.023 117.021 164.752 117.057C164.736 117.059 164.721 117.061 164.706 117.063C164.965 117.192 165.32 117.353 165.758 117.527C166.888 117.975 168.561 118.51 170.564 118.836C174.522 119.481 179.753 119.312 184.641 116.082L184.085 115.419C181.663 116.474 175.245 118.072 167.628 116.538Z" fill="#402020"/>
<path d="M167.439 116.322L169.585 109.294C177.222 106.909 181.684 112.48 184.142 115.177C179.185 117.887 170.941 117.069 167.439 116.322Z" fill="url(#paint9_linear_5153_12125)"/>
<path d="M148.182 119.221L147.806 118.532C141.794 121.323 139.181 119.736 138.626 118.594C138.06 119.068 135.858 119.442 134.827 119.569C139.928 123.169 145.856 120.837 148.182 119.221Z" fill="#5B1204"/>
<path fill-rule="evenodd" clip-rule="evenodd" d="M147.89 118.276L148.439 119.282L148.294 119.383C147.108 120.207 145.016 121.206 142.572 121.546C140.124 121.886 137.314 121.565 134.714 119.73L134.298 119.436L134.803 119.374C135.313 119.311 136.115 119.187 136.858 119.02C137.229 118.936 137.582 118.843 137.875 118.742C138.174 118.64 138.388 118.537 138.5 118.443L138.693 118.281L138.802 118.508C139.044 119.005 139.769 119.659 141.195 119.843C142.62 120.027 144.738 119.74 147.723 118.354L147.89 118.276ZM138.56 118.875C138.404 118.963 138.21 119.043 138.002 119.114C137.691 119.221 137.323 119.318 136.944 119.403C136.404 119.525 135.836 119.623 135.365 119.694C137.745 121.207 140.279 121.468 142.518 121.157C144.797 120.84 146.761 119.932 147.924 119.159L147.721 118.787C144.781 120.127 142.639 120.426 141.145 120.233C139.775 120.056 138.942 119.462 138.56 118.875Z" fill="#402020"/>
<path d="M139.651 111.9C144.047 111.59 146.921 116.19 147.808 118.529C141.463 121.117 139.043 119.649 138.626 118.591C137.912 116.778 139.011 113.375 139.651 111.9Z" fill="url(#paint10_linear_5153_12125)"/>
<path d="M169.338 94.7568C166.171 95.0016 161.532 100.547 160.867 102.311C167.33 95.884 181.278 98.722 186.665 99.5632C181.597 97.5837 176.419 94.2096 169.338 94.7568Z" fill="#F59F94"/>
<path d="M147.577 103.697C143.776 97.2362 138.52 99.877 135.032 104.774C135.862 103.608 141.927 102.068 147.577 103.697Z" fill="#F59F94"/>
<path fill-rule="evenodd" clip-rule="evenodd" d="M178.69 96.397C175.893 95.3805 172.857 94.6818 169.353 94.9526C168.61 95.0101 167.759 95.3823 166.879 95.9569C166.003 96.5292 165.116 97.2908 164.303 98.1034C163.49 98.9155 162.755 99.7747 162.183 100.539C161.947 100.854 161.741 101.151 161.569 101.419C164.859 98.7603 169.596 98.0045 174.17 98.0148C178.251 98.0241 182.242 98.644 185.029 99.0987C184.426 98.8381 183.82 98.5659 183.208 98.2913C183.051 98.2208 182.893 98.1501 182.735 98.0794C181.427 97.4933 180.089 96.9057 178.69 96.397ZM183.369 97.9327C184.513 98.4464 185.627 98.9467 186.737 99.3799L186.635 99.7572C186.262 99.699 185.849 99.6314 185.401 99.558C182.602 99.0997 178.436 98.4176 174.169 98.4079C169.212 98.3967 164.179 99.2948 161.006 102.451L160.684 102.242C160.86 101.774 161.289 101.078 161.869 100.303C162.452 99.5239 163.2 98.6505 164.026 97.8251C164.851 97.0001 165.759 96.2191 166.665 95.6276C167.567 95.0384 168.483 94.6256 169.323 94.5607C172.9 94.2842 175.994 94.999 178.823 96.0275C180.237 96.5414 181.587 97.1343 182.896 97.7205C183.054 97.7914 183.212 97.8622 183.369 97.9327ZM144.597 100.278C145.719 100.884 146.784 101.961 147.746 103.597L147.996 104.022L147.523 103.885C144.73 103.08 141.83 103.058 139.525 103.382C138.372 103.544 137.374 103.792 136.615 104.069C136.236 104.208 135.92 104.353 135.677 104.496C135.43 104.64 135.272 104.775 135.192 104.888L134.872 104.66C136.627 102.196 138.851 100.263 141.147 99.7837C142.302 99.5425 143.472 99.6698 144.597 100.278ZM135.924 103.927C136.094 103.849 136.28 103.773 136.481 103.7C137.27 103.412 138.296 103.158 139.47 102.993C141.686 102.681 144.445 102.683 147.151 103.377C146.286 102.022 145.358 101.135 144.411 100.624C143.373 100.063 142.298 99.9449 141.228 100.169C139.368 100.557 137.512 101.979 135.924 103.927Z" fill="#E9A196"/>
<path d="M159.014 75.5811L175.115 63.1563L145.307 50.7314L124.419 74.2732L137.039 88.8779C142.261 66.426 150.311 73.4013 159.014 75.5811Z" fill="#FCCECE"/>
<path d="M128.771 79.2869C133.47 69.1727 143.131 70.5678 146.83 72.5296L142.043 75.5813L136.821 88.6601C131.527 89.1687 124.071 89.4012 128.771 79.2869Z" fill="#F1A39C"/>
<path d="M175.332 74.0548C168.37 67.7334 162.713 73.4008 159.884 75.3627L165.759 59.8861L181.859 56.3984L203.835 69.4772L216.236 93.455L217.324 114.817C216.454 112.419 213.843 112.768 203.617 114.817C190.562 117.433 180.749 78.9731 175.332 74.0548Z" fill="#FCCECE"/>
<path d="M194.261 161.465C191.65 149.607 202.312 131.602 209.927 127.242L218.63 151.874L208.186 170.62L199.266 176.07C198.685 176.142 196.872 173.323 194.261 161.465Z" fill="#FCCECE"/>
<path fill-rule="evenodd" clip-rule="evenodd" d="M216.507 218.683C212.361 212.279 206.724 209.97 204.457 209.615L204.518 209.227C206.892 209.598 212.628 211.969 216.836 218.469L216.507 218.683Z" fill="#FCD1BC"/>
<path d="M196.002 46.8078L166.194 65.336L194.261 43.5381L196.002 46.8078Z" fill="#F1A39C"/>
<path fill-rule="evenodd" clip-rule="evenodd" d="M171.447 71.1505C171.447 70.8247 171.71 70.5605 172.036 70.5605C173.579 70.5605 174.491 71.8689 175.046 73.0789C175.474 74.012 175.78 75.0924 176.012 75.9126C176.089 76.1831 176.157 76.4253 176.22 76.6246C177.286 80.035 178.173 83.4859 179.055 86.9185C179.103 87.1064 179.151 87.2941 179.2 87.4818C180.132 91.1054 181.069 94.7068 182.223 98.2507C183.592 102.452 185.867 105.976 190.117 107.071C190.78 107.242 191.663 107.425 192.53 107.487C193.417 107.551 194.195 107.479 194.71 107.221C195.001 107.075 195.355 107.194 195.5 107.485C195.645 107.776 195.527 108.131 195.237 108.276C194.43 108.68 193.389 108.731 192.446 108.664C191.482 108.595 190.525 108.394 189.824 108.214C184.989 106.968 182.518 102.959 181.104 98.6168C179.937 95.0326 178.991 91.3972 178.059 87.7762C178.012 87.5911 177.964 87.4061 177.917 87.2211C177.033 83.7814 176.153 80.3577 175.096 76.9774C175.018 76.7271 174.939 76.4485 174.855 76.1525C174.627 75.3472 174.362 74.4132 173.976 73.5717C173.434 72.3901 172.806 71.7404 172.036 71.7404C171.71 71.7404 171.447 71.4763 171.447 71.1505Z" fill="#FCCECE"/>
<path fill-rule="evenodd" clip-rule="evenodd" d="M150.955 69.9006C151.316 69.911 151.687 69.9218 152.071 69.9218C152.396 69.9218 152.66 70.1859 152.66 70.5117C152.66 70.8375 152.396 71.1016 152.071 71.1016C151.632 71.1016 151.229 71.0913 150.853 71.0816C149.013 71.0343 147.798 71.003 146.085 72.2743C143.452 74.2284 142.066 77.9574 141.317 81.2123C140.796 83.4796 140.615 85.8005 140.528 88.1615C140.496 89.0195 140.477 89.8898 140.458 90.7648C140.424 92.2734 140.391 93.7957 140.293 95.292C140.04 99.1576 139.6 103.423 138.079 106.967C136.543 110.547 133.89 113.414 129.255 114.402C126.434 115.003 123.351 115.17 120.473 114.702C120.029 114.63 119.404 114.456 118.848 114.178C118.33 113.918 117.69 113.478 117.518 112.785C117.439 112.469 117.631 112.149 117.946 112.07C118.262 111.991 118.581 112.183 118.66 112.499C118.698 112.652 118.903 112.886 119.375 113.122C119.808 113.339 120.316 113.482 120.661 113.538C123.373 113.978 126.307 113.823 129.011 113.247C133.2 112.355 135.58 109.803 136.997 106.501C138.43 103.162 138.865 99.0818 139.118 95.2148C139.214 93.7385 139.247 92.268 139.279 90.7815C139.299 89.9008 139.318 89.0144 139.351 88.1179C139.439 85.7316 139.623 83.3233 140.17 80.9474C140.926 77.6609 142.385 73.5519 145.384 71.3262C147.443 69.7985 149.072 69.8458 150.955 69.9006Z" fill="#FCCECE"/>
<path d="M239.952 119.831C232.816 117.041 228.856 100.939 227.768 93.2373C227.115 96.725 227.681 106.926 235.165 119.831C244.521 135.961 232.337 143.373 222.328 151.22C214.322 157.498 217.252 162.119 219.717 163.645C225.665 165.025 238.56 168.44 242.563 171.056C246.566 173.672 237.414 180.865 232.337 184.135L235.165 189.584C239.082 187.041 247.132 179.775 248.002 171.056C249.09 160.157 206.663 168.222 227.768 151.22C244.652 137.618 242.926 124.626 239.952 119.831Z" fill="url(#paint11_linear_5153_12125)"/>
<path d="M212.102 171.274C202.893 164.744 207.091 148.768 213.196 141.288C200.505 153.157 206.358 174.005 209.709 173.018C212.668 172.146 219.79 173.381 222.329 174.108C222.503 173.41 214.206 172.509 212.102 171.274Z" fill="url(#paint12_linear_5153_12125)"/>
<path d="M120.72 131.601C109.754 117.476 116.151 98.9771 120.72 91.4932C105.751 102.479 106.795 116.706 109.189 122.446C114.411 126.515 124.028 137.923 120.72 151.002C116.586 167.35 108.971 161.029 99.6156 176.069C92.1309 188.102 106.651 197.359 114.846 200.483L117.457 197.867C115.368 197.867 110.204 193.362 107.883 191.11C97.6136 180.996 106.65 170.765 112.452 166.914C119.777 161.029 131.686 145.726 120.72 131.601Z" fill="url(#paint13_linear_5153_12125)"/>
<path d="M198.22 74.6011C199.051 76.8604 198.536 79.1305 197.071 79.6716C195.605 80.2126 193.743 78.8198 192.912 76.5605C192.081 74.3012 192.596 72.0311 194.062 71.49C195.528 70.949 197.389 72.3419 198.22 74.6011Z" fill="#FFE4E4"/>
<path d="M205.236 72.5324C205.664 73.9787 205.335 75.3519 204.501 75.5995C203.667 75.8472 202.644 74.8755 202.216 73.4292C201.788 71.983 202.117 70.6098 202.951 70.3622C203.785 70.1145 204.808 71.0862 205.236 72.5324Z" fill="#FFE4E4"/>
<path d="M224.714 64.1326C225.008 64.7922 221.909 66.8199 217.792 68.6618C213.676 70.5037 210.1 71.4621 209.806 70.8026C209.512 70.1431 212.611 68.1153 216.728 66.2734C220.844 64.4315 224.42 63.4731 224.714 64.1326Z" fill="#FFE4E4"/>
<path d="M124.762 65.0165C123.66 66.8914 121.891 67.8948 120.811 67.2577C119.731 66.6205 119.75 64.5841 120.852 62.7092C121.954 60.8344 123.723 59.831 124.803 60.4681C125.882 61.1052 125.864 63.1416 124.762 65.0165Z" fill="#FFE5E5"/>
<path d="M131.723 68.6382C130.381 70.9203 128.203 72.1264 126.856 71.3322C125.51 70.5379 125.507 68.0441 126.849 65.762C128.19 63.4799 130.369 62.2738 131.715 63.068C133.061 63.8623 133.065 66.3561 131.723 68.6382Z" fill="#FFE5E5"/>
<path fill-rule="evenodd" clip-rule="evenodd" d="M151.556 130.97C151.75 131.067 151.828 131.304 151.731 131.498C151.392 132.178 151.085 132.826 150.965 133.492C150.965 133.637 150.962 133.778 150.959 133.915C150.954 134.188 150.949 134.449 150.961 134.708C150.995 134.952 151.048 135.193 151.124 135.414C151.254 135.629 151.466 135.81 151.763 136.021C152.192 136.327 152.674 136.526 153.203 136.745C153.288 136.781 153.375 136.817 153.463 136.854C153.459 136.852 153.457 136.851 153.457 136.851C153.457 136.851 153.468 136.855 153.5 136.865C153.534 136.877 153.579 136.892 153.623 136.907C153.665 136.922 153.716 136.941 153.758 136.959C153.776 136.967 153.808 136.981 153.841 137.001C153.853 137.009 153.893 137.033 153.931 137.075L153.932 137.075C153.944 137.089 154.12 137.277 153.997 137.524C153.934 137.652 153.827 137.711 153.759 137.736C153.693 137.761 153.631 137.767 153.591 137.769C153.509 137.773 153.425 137.761 153.357 137.749C153.213 137.724 153.042 137.676 152.884 137.627C152.6 137.538 152.312 137.431 152.214 137.395C152.202 137.391 152.193 137.387 152.187 137.385C151.653 137.19 150.988 136.83 150.639 136.236C150.547 136.081 150.471 135.915 150.408 135.744C150.297 135.537 150.219 135.297 150.194 135.011C150.187 134.936 150.182 134.86 150.179 134.784C150.152 134.59 150.137 134.4 150.13 134.222C150.119 133.951 150.138 133.685 150.181 133.427C150.181 133.426 150.181 133.425 150.181 133.425C150.181 133.375 150.19 133.328 150.206 133.285C150.359 132.505 150.708 131.79 151.029 131.146C151.126 130.952 151.362 130.873 151.556 130.97ZM153.451 137.683C153.451 137.683 153.45 137.683 153.449 137.682C153.45 137.683 153.451 137.683 153.451 137.683Z" fill="#E6B69C"/>
<path fill-rule="evenodd" clip-rule="evenodd" d="M158.549 175.351C158.618 175.145 158.84 175.034 159.046 175.102C159.163 175.142 159.285 175.182 159.408 175.222C159.896 175.383 160.416 175.555 160.897 175.744C161.446 175.959 162.007 176.144 162.579 176.329C162.643 176.35 162.706 176.37 162.77 176.391C163.278 176.555 163.795 176.722 164.305 176.909C164.412 176.948 164.515 176.987 164.615 177.025C165.259 177.266 165.799 177.468 166.431 177.486C166.647 177.492 166.818 177.673 166.812 177.89C166.806 178.108 166.625 178.279 166.408 178.272C165.636 178.25 164.964 177.997 164.327 177.757C164.229 177.72 164.132 177.683 164.035 177.648C163.54 177.466 163.039 177.304 162.529 177.139C162.465 177.119 162.402 177.098 162.338 177.078C161.765 176.892 161.184 176.701 160.611 176.476C160.152 176.296 159.659 176.133 159.173 175.973C159.047 175.931 158.921 175.89 158.797 175.849C158.592 175.78 158.481 175.557 158.549 175.351Z" fill="#E6B69C"/>
<path fill-rule="evenodd" clip-rule="evenodd" d="M197.038 179.013C197.158 179.194 197.109 179.438 196.929 179.558C196.388 179.92 195.758 180.153 195.14 180.335C194.829 180.427 194.515 180.507 194.212 180.583C194.181 180.591 194.151 180.599 194.12 180.607C193.848 180.675 193.586 180.741 193.335 180.812C190.91 181.495 188.428 181.703 185.951 181.728C184.862 181.739 183.761 181.83 182.648 181.929C182.533 181.94 182.419 181.95 182.304 181.96C181.306 182.05 180.298 182.141 179.297 182.178C178.937 182.192 178.639 182.376 178.244 182.62C178.191 182.653 178.136 182.687 178.078 182.722C177.959 182.795 177.806 182.916 177.62 183.063C177.534 183.13 177.442 183.204 177.342 183.28C177.195 183.393 177.039 183.508 176.888 183.602C176.744 183.692 176.573 183.784 176.402 183.822C176.19 183.869 175.98 183.735 175.933 183.523C175.886 183.311 176.02 183.101 176.231 183.054C176.269 183.046 176.348 183.013 176.473 182.935C176.591 182.861 176.724 182.764 176.864 182.656C176.935 182.602 177.01 182.543 177.086 182.482C177.292 182.32 177.508 182.149 177.67 182.05C177.718 182.021 177.768 181.99 177.819 181.957C178.195 181.721 178.683 181.414 179.268 181.392C180.247 181.356 181.234 181.267 182.234 181.177C182.349 181.166 182.463 181.156 182.578 181.146C183.691 181.046 184.819 180.953 185.943 180.941C188.385 180.917 190.79 180.712 193.122 180.055C193.385 179.981 193.658 179.912 193.928 179.844C193.959 179.836 193.99 179.828 194.021 179.821C194.324 179.744 194.624 179.667 194.918 179.581C195.509 179.407 196.05 179.2 196.493 178.904C196.674 178.783 196.917 178.832 197.038 179.013Z" fill="#E6B69C"/>
<path d="M194.103 728.43C193.407 725.988 188.592 724.07 186.271 723.416L176.045 732.135C169.155 746.885 154.461 777.649 150.806 782.706C147.151 787.764 149.283 790.626 150.806 791.426C174.957 796.003 179.526 790.336 186.271 786.848C193.016 783.36 194.974 731.481 194.103 728.43Z" fill="#EBBF72"/>
<path d="M124.485 573.395L122.288 561.511L142.445 551.853L153.7 558.201C160.523 569.677 172.938 579.767 179.058 605.887C181.637 616.896 180.355 684.121 178.558 716.608L162.7 717.507L124.485 573.395Z" fill="#FFECDD"/>
<path d="M163.455 724.141L162.78 717.62L172.018 713.364C173.377 713.223 176.306 713.006 177.157 713.269C178.008 713.532 180.045 716.631 180.958 718.147C188.778 723.661 190.445 727.56 190.301 728.82C188.818 735.712 185.859 752.746 185.888 765.749C185.917 778.753 178.859 785.375 175.326 787.06C158.498 793.204 148.802 786.815 146.058 782.853L163.455 724.141Z" fill="#FFECDD"/>
<path d="M194.696 383.804C188.465 358.3 173.011 345.875 164.67 343.695C133.122 355.466 122.461 428.228 122.461 435.901C122.461 443.574 118.617 517.425 117.892 542.057V558.405L124.201 569.522L133.122 578.895L152.921 558.405C193.303 436.511 202.311 414.975 194.696 383.804Z" fill="url(#paint14_linear_5153_12125)"/>
<path d="M180.554 634.698C169.24 643.069 150.311 641.964 142.26 640.366L144.871 651.047C156.185 655.232 173.374 649.303 180.554 645.815V634.698Z" fill="#EBBF72"/>
<path d="M150.528 767.23L156.62 789.463H160.754L152.051 761.998L150.528 767.23Z" fill="#EBBF72"/>
<path d="M188.169 749.138L156.62 779.437V782.707L188.169 754.369V749.138Z" fill="#EBBF72"/>
<path d="M161.407 711.427L189.039 741.945L190.344 739.983L159.884 706.632L161.407 711.427Z" fill="#EBBF72"/>
<path d="M175.094 705.138L163.148 718.839L162.06 715.787L172.683 703.436L160.466 694.815L157.708 698.349L156.838 695.297L158.422 693.372L154.662 690.719V687.232L160.162 691.257L171.713 677.221L156.312 669.67L151.181 673.935L150.311 670.883L153.429 668.257L149.005 666.088L148.135 662.382L155.947 666.137L180.336 645.598H180.554V649.521L158.872 667.543L173.781 674.708L180.336 666.742V669.357L175.511 675.54L180.336 677.859L179.683 681.128L173.511 678.102L162.123 692.692L174.275 701.585L179.683 695.297V699.875L176.667 703.334L179.683 705.542V708.376L175.094 705.138Z" fill="#EBBF72"/>
<path d="M180.337 474.701C163.801 460.402 133.993 462.059 121.373 464.674L120.721 474.701C141.26 465.633 167.717 475.137 178.378 481.023L180.337 474.701Z" fill="#EFC06C"/>
<path d="M71.5484 669.793L56.7532 716.441H53.272L78.0756 612.465L71.5484 669.793Z" fill="url(#paint15_linear_5153_12125)"/>
<path d="M103.532 654.535L97.6576 745.214C94.5245 737.367 80.1064 738.457 73.2891 739.983L100.921 630.993L103.532 654.535Z" fill="url(#paint16_linear_5153_12125)"/>
<path d="M118.545 661.945V759.164C118.545 756.2 113.178 756.476 110.495 756.984L118.545 661.945Z" fill="url(#paint17_linear_5153_12125)"/>
<path d="M150.093 767.448C141.738 773.551 132.397 769.991 128.771 767.448C136.033 758.267 125.861 627.155 119.754 561.457L123.549 566.471L141.39 637.532L163.8 724.288L150.093 767.448Z" fill="url(#paint18_linear_5153_12125)"/>
<path d="M184.253 528.542C189.446 554.698 200.026 606.718 201.579 609.523C201.823 609.729 201.871 609.782 201.659 609.63C201.636 609.614 201.609 609.578 201.579 609.523C200.418 608.542 194.826 604.086 191.651 601.565L184.253 528.542Z" fill="url(#paint19_linear_5153_12125)"/>
<path d="M213.626 663.471V694.642V696.604L206.011 690.501C213.495 671.493 209.129 656.423 206.011 651.264C191.912 652.659 195.059 627.287 198.395 614.426V627.287C195.784 633.564 199.483 640.656 201.659 643.417C205.648 643.78 213.626 648.3 213.626 663.471Z" fill="url(#paint20_linear_5153_12125)"/>
<path d="M94.0627 326.12C80.4435 302.216 95.1402 290.549 104.191 287.703L104.837 285.264C75.3147 295.833 89.7528 324.9 92.5542 327.543C94.7954 329.657 94.4937 327.475 94.0627 326.12Z" fill="#FFE9A2"/>
<path fill-rule="evenodd" clip-rule="evenodd" d="M105.123 284.953L104.353 287.858L104.25 287.891C99.7597 289.303 93.8743 292.903 90.8013 299.102C87.7347 305.289 87.4468 314.112 94.2331 326.023L94.2434 326.041L94.2497 326.061C94.3597 326.406 94.4623 326.807 94.5181 327.182C94.5726 327.549 94.5877 327.923 94.4965 328.195C94.4495 328.336 94.3673 328.469 94.2277 328.55C94.0864 328.631 93.9205 328.638 93.7475 328.594C93.4149 328.509 92.9821 328.217 92.4197 327.686C92.0466 327.334 91.5027 326.569 90.8961 325.498C90.2861 324.422 89.6037 323.02 88.9574 321.381C87.6653 318.104 86.5136 313.87 86.3781 309.382C86.2425 304.894 87.1236 300.145 89.9046 295.851C92.6865 291.556 97.3579 287.733 104.771 285.079L105.123 284.953ZM91.2374 325.304C91.8414 326.37 92.3614 327.091 92.6887 327.4C93.2469 327.926 93.6168 328.154 93.8445 328.213C93.9516 328.24 94.0053 328.224 94.0323 328.209C94.061 328.192 94.096 328.155 94.1244 328.07C94.1841 327.892 94.183 327.598 94.1299 327.24C94.079 326.898 93.985 326.527 93.8819 326.2C87.0596 314.216 87.3118 305.258 90.4498 298.927C93.5595 292.654 99.4814 289.005 104.029 287.548L104.551 285.577C97.4084 288.201 92.9168 291.922 90.2339 296.065C87.5064 300.276 86.6366 304.941 86.7704 309.37C86.9042 313.801 88.0422 317.99 89.3225 321.236C89.9624 322.859 90.637 324.244 91.2374 325.304Z" fill="#DAA06A"/>
<path d="M156.62 293.765L157.273 292.021C175.767 319.487 113.323 331.694 110.712 331.04C108.623 330.517 109.842 329.805 110.712 329.514C162.408 320.795 161.987 301.976 156.62 293.765Z" fill="#FCE39B"/>
<path fill-rule="evenodd" clip-rule="evenodd" d="M157.223 291.596L157.436 291.912C159.764 295.369 160.827 298.6 160.886 301.607C160.944 304.614 159.996 307.38 158.331 309.906C155.006 314.948 148.812 319.048 141.99 322.254C135.162 325.462 127.677 327.789 121.737 329.272C118.766 330.014 116.18 330.546 114.253 330.872C113.29 331.035 112.49 331.146 111.888 331.207C111.587 331.237 111.333 331.255 111.132 331.26C110.938 331.265 110.774 331.258 110.664 331.231C110.136 331.099 109.782 330.947 109.579 330.77C109.475 330.679 109.399 330.571 109.373 330.445C109.345 330.317 109.375 330.197 109.43 330.096C109.534 329.905 109.744 329.75 109.954 329.631C110.172 329.507 110.424 329.403 110.65 329.328L110.664 329.323L110.679 329.32C136.516 324.963 149.275 318.088 154.914 311.323C160.534 304.582 159.102 297.921 156.456 293.873L156.402 293.79L157.223 291.596ZM157.322 292.451L156.839 293.742C159.525 297.912 160.929 304.721 155.215 311.575C149.484 318.451 136.609 325.344 110.76 329.706C110.554 329.775 110.333 329.867 110.148 329.973C109.95 330.085 109.823 330.195 109.775 330.284C109.754 330.323 109.753 330.346 109.757 330.363C109.76 330.382 109.776 330.42 109.837 330.474C109.966 330.586 110.243 330.72 110.759 330.849C110.813 330.863 110.929 330.872 111.123 330.867C111.31 330.862 111.553 330.846 111.849 330.816C112.439 330.756 113.23 330.646 114.188 330.484C116.104 330.16 118.68 329.631 121.642 328.891C127.567 327.411 135.026 325.092 141.823 321.898C148.627 318.7 154.74 314.639 158.003 309.689C159.633 307.218 160.55 304.529 160.493 301.615C160.438 298.79 159.469 295.738 157.322 292.451Z" fill="#DAA06A"/>
<path d="M117.892 322.974C122.592 321.753 124.927 324.5 125.507 326.026C120.286 328.99 116.224 326.098 114.846 324.282C113.903 324.355 113.192 324.195 117.892 322.974Z" fill="#E5B66C"/>
<path fill-rule="evenodd" clip-rule="evenodd" d="M123.343 323.3C124.629 324.05 125.386 325.155 125.691 325.956L125.751 326.114L125.604 326.197C122.945 327.707 120.568 327.73 118.677 327.135C116.849 326.559 115.484 325.409 114.755 324.486C114.555 324.498 114.358 324.498 114.227 324.474C114.187 324.466 114.14 324.454 114.097 324.431C114.058 324.41 113.982 324.36 113.963 324.258C113.945 324.157 113.996 324.082 114.028 324.046C114.062 324.006 114.106 323.974 114.149 323.947C114.319 323.84 114.664 323.701 115.241 323.517C115.826 323.33 116.666 323.09 117.843 322.784C120.239 322.162 122.051 322.548 123.343 323.3ZM123.146 323.64C121.95 322.944 120.245 322.566 117.941 323.165C116.768 323.47 115.935 323.707 115.361 323.891C115.123 323.967 114.933 324.033 114.783 324.09C114.799 324.089 114.815 324.088 114.831 324.086L114.938 324.078L115.002 324.163C115.67 325.043 116.997 326.194 118.794 326.76C120.548 327.312 122.759 327.31 125.26 325.939C124.948 325.229 124.263 324.292 123.146 323.64Z" fill="#DAA06A"/>
<path d="M83.9176 324.683C83.3873 319.848 86.4359 317.928 88.0265 317.572C90.2043 323.175 86.764 326.786 84.7717 327.891C84.7079 328.836 84.4479 329.518 83.9176 324.683Z" fill="#E5B66C"/>
<path fill-rule="evenodd" clip-rule="evenodd" d="M85.0228 319.325C85.9476 318.158 87.148 317.566 87.9835 317.379L88.148 317.342L88.2092 317.5C89.3181 320.353 88.9997 322.713 88.1395 324.503C87.3084 326.232 85.976 327.42 84.9592 328.01C84.9422 328.21 84.9147 328.405 84.8712 328.532C84.8582 328.57 84.8394 328.615 84.8108 328.655C84.7847 328.691 84.7235 328.758 84.6208 328.762C84.5184 328.766 84.4511 328.704 84.4201 328.668C84.3862 328.629 84.3605 328.581 84.3398 328.534C84.2587 328.35 84.1715 327.987 84.072 327.389C83.9712 326.783 83.855 325.915 83.7223 324.704C83.4519 322.239 84.0935 320.498 85.0228 319.325ZM85.3302 319.57C84.4701 320.655 83.8525 322.291 84.1124 324.661C84.2448 325.868 84.36 326.728 84.4591 327.324C84.5001 327.571 84.5378 327.769 84.5721 327.926C84.5734 327.91 84.5745 327.894 84.5756 327.877L84.5828 327.77L84.6764 327.719C85.6415 327.183 86.9687 326.033 87.7859 324.332C88.5835 322.673 88.8998 320.481 87.9049 317.804C87.1582 318.011 86.1341 318.555 85.3302 319.57Z" fill="#DAA06A"/>
<path d="M84.3813 294.182C88.0385 290.983 91.3539 292.392 92.5545 293.496C89.2096 298.489 84.2856 297.724 82.2418 296.718C81.4312 297.206 80.7242 297.382 84.3813 294.182Z" fill="#E5B66C"/>
<path fill-rule="evenodd" clip-rule="evenodd" d="M89.4012 292.029C90.8856 292.123 92.0563 292.771 92.687 293.351L92.8112 293.466L92.7172 293.606C91.014 296.148 88.8987 297.235 86.9412 297.551C85.0498 297.856 83.3151 297.439 82.2511 296.94C82.0774 297.041 81.9017 297.13 81.7733 297.166C81.7346 297.177 81.687 297.188 81.6382 297.187C81.5938 297.186 81.5036 297.174 81.4416 297.092C81.3796 297.01 81.392 296.919 81.4039 296.873C81.4168 296.823 81.4417 296.774 81.4682 296.73C81.5725 296.559 81.8195 296.28 82.2529 295.856C82.6919 295.427 83.3365 294.835 84.252 294.034C86.1165 292.403 87.9096 291.935 89.4012 292.029ZM89.3766 292.422C87.9961 292.335 86.3029 292.762 84.5102 294.33C83.5972 295.129 82.9587 295.715 82.527 296.137C82.3487 296.312 82.208 296.456 82.0987 296.574C82.1125 296.566 82.1264 296.558 82.1405 296.549L82.2322 296.494L82.3281 296.541C83.3182 297.029 85.0192 297.462 86.8788 297.163C88.694 296.87 90.6702 295.877 92.2939 293.53C91.6975 293.034 90.6669 292.503 89.3766 292.422Z" fill="#DAA06A"/>
<path d="M95.3914 283.227C100.168 282.356 102.295 285.267 102.762 286.831C97.3371 289.403 93.4987 286.22 92.2576 284.307C91.312 284.31 90.6149 284.098 95.3914 283.227Z" fill="#E5B66C"/>
<path fill-rule="evenodd" clip-rule="evenodd" d="M100.804 283.953C102.031 284.795 102.705 285.952 102.95 286.774L102.998 286.936L102.846 287.008C100.083 288.318 97.7109 288.166 95.8682 287.433C94.0877 286.725 92.8106 285.477 92.1518 284.503C91.9512 284.5 91.7549 284.486 91.6259 284.452C91.5871 284.441 91.5409 284.426 91.4995 284.4C91.4617 284.376 91.3903 284.32 91.3789 284.218C91.3676 284.116 91.4247 284.044 91.4584 284.01C91.4953 283.974 91.5415 283.945 91.5867 283.921C91.7641 283.827 92.1188 283.714 92.7077 283.572C93.3042 283.429 94.1603 283.251 95.356 283.033C97.7912 282.589 99.5704 283.107 100.804 283.953ZM100.582 284.277C99.4405 283.494 97.7677 282.993 95.4263 283.42C94.2339 283.638 93.3859 283.813 92.7993 283.955C92.557 284.013 92.3624 284.065 92.2082 284.11C92.2242 284.11 92.2404 284.11 92.2568 284.11L92.3637 284.11L92.422 284.199C93.0231 285.126 94.2625 286.371 96.0131 287.068C97.7218 287.748 99.9266 287.909 102.521 286.726C102.262 285.994 101.649 285.009 100.582 284.277Z" fill="#DAA06A"/>
<path d="M81.2966 310.313C81.9516 305.493 85.374 304.37 87.0033 304.411C87.7608 310.376 83.5496 313.044 81.3493 313.633C81.0588 314.534 80.6416 315.132 81.2966 310.313Z" fill="#E5B66C"/>
<path fill-rule="evenodd" clip-rule="evenodd" d="M83.6652 305.383C84.8448 304.476 86.1525 304.193 87.0084 304.214L87.1769 304.219L87.1981 304.386C87.5839 307.423 86.704 309.636 85.4366 311.164C84.2119 312.64 82.6319 313.469 81.5027 313.794C81.4378 313.984 81.3639 314.167 81.2912 314.279C81.2693 314.313 81.2402 314.352 81.2028 314.383C81.1688 314.412 81.0931 314.463 80.9925 314.442C80.8922 314.421 80.8418 314.344 80.8205 314.302C80.7972 314.255 80.7839 314.202 80.7752 314.152C80.741 313.954 80.744 313.581 80.7922 312.976C80.8411 312.363 80.9384 311.493 81.1024 310.286C81.4363 307.829 82.48 306.295 83.6652 305.383ZM83.9043 305.695C82.8073 306.539 81.8124 307.977 81.4913 310.339C81.3278 311.543 81.2316 312.405 81.1835 313.007C81.1637 313.256 81.1523 313.458 81.1476 313.619C81.1526 313.603 81.1577 313.588 81.1627 313.572L81.1956 313.47L81.2989 313.443C82.3647 313.158 83.9307 312.363 85.1348 310.912C86.31 309.496 87.1471 307.446 86.8293 304.608C86.0547 304.627 84.9296 304.906 83.9043 305.695Z" fill="#DAA06A"/>
<path d="M151.448 302.158C153.577 297.787 157.178 297.794 158.712 298.344C157.567 304.247 152.733 305.459 150.46 305.327C149.902 306.092 149.319 306.529 151.448 302.158Z" fill="#E5B66C"/>
<path fill-rule="evenodd" clip-rule="evenodd" d="M155.238 298.22C156.642 297.728 157.972 297.87 158.778 298.159L158.937 298.216L158.905 298.381C158.322 301.387 156.794 303.212 155.113 304.265C153.488 305.282 151.728 305.574 150.555 305.528C150.433 305.688 150.306 305.839 150.202 305.923C150.171 305.948 150.131 305.976 150.085 305.994C150.044 306.01 149.956 306.035 149.867 305.983C149.779 305.932 149.755 305.843 149.748 305.796C149.74 305.745 149.744 305.69 149.752 305.64C149.781 305.441 149.901 305.088 150.136 304.528C150.374 303.962 150.738 303.166 151.271 302.071C152.357 299.843 153.827 298.714 155.238 298.22ZM155.368 298.591C154.062 299.048 152.667 300.101 151.624 302.244C151.092 303.335 150.731 304.124 150.497 304.681C150.401 304.911 150.327 305.099 150.272 305.25C150.282 305.237 150.291 305.224 150.301 305.211L150.364 305.124L150.471 305.131C151.572 305.194 153.308 304.932 154.905 303.931C156.464 302.955 157.9 301.271 158.485 298.476C157.744 298.252 156.588 298.163 155.368 298.591Z" fill="#DAA06A"/>
<path d="M145.562 310.417C150.262 309.197 152.597 311.943 153.177 313.469C147.955 316.434 143.894 313.542 142.516 311.725C141.573 311.798 140.862 311.638 145.562 310.417Z" fill="#E5B66C"/>
<path fill-rule="evenodd" clip-rule="evenodd" d="M151.013 310.744C152.298 311.493 153.055 312.598 153.36 313.4L153.42 313.557L153.274 313.641C150.615 315.15 148.237 315.174 146.346 314.578C144.518 314.003 143.153 312.852 142.425 311.929C142.224 311.941 142.028 311.942 141.896 311.917C141.857 311.909 141.81 311.897 141.766 311.875C141.727 311.854 141.652 311.803 141.633 311.702C141.614 311.601 141.666 311.525 141.697 311.489C141.731 311.45 141.775 311.417 141.818 311.39C141.988 311.283 142.334 311.145 142.911 310.96C143.495 310.773 144.336 310.533 145.512 310.227C147.908 309.605 149.721 309.991 151.013 310.744ZM150.815 311.084C149.62 310.387 147.915 310.01 145.611 310.608C144.438 310.913 143.605 311.151 143.03 311.335C142.793 311.411 142.602 311.477 142.452 311.533C142.468 311.532 142.484 311.531 142.5 311.53L142.607 311.521L142.672 311.607C143.339 312.487 144.667 313.637 146.464 314.203C148.218 314.755 150.428 314.754 152.929 313.383C152.617 312.672 151.933 311.735 150.815 311.084Z" fill="#DAA06A"/>
<path d="M133.436 317.406C138.248 316.762 140.236 319.771 140.628 321.356C135.088 323.668 131.404 320.307 130.254 318.337C129.31 318.295 128.623 318.051 133.436 317.406Z" fill="#E5B66C"/>
<path fill-rule="evenodd" clip-rule="evenodd" d="M138.808 318.388C139.994 319.287 140.612 320.476 140.819 321.308L140.859 321.472L140.704 321.537C137.882 322.715 135.52 322.451 133.714 321.631C131.969 320.839 130.752 319.533 130.14 318.528C129.939 318.516 129.744 318.493 129.617 318.452C129.578 318.44 129.533 318.422 129.493 318.394C129.456 318.369 129.388 318.309 129.381 318.207C129.375 318.104 129.435 318.035 129.47 318.003C129.509 317.969 129.556 317.942 129.603 317.92C129.784 317.834 130.144 317.738 130.739 317.625C131.341 317.51 132.205 317.373 133.41 317.212C135.863 316.883 137.616 317.485 138.808 318.388ZM138.571 318.702C137.468 317.866 135.82 317.286 133.462 317.602C132.26 317.762 131.405 317.898 130.812 318.011C130.567 318.058 130.371 318.1 130.214 318.138C130.23 318.139 130.247 318.14 130.263 318.141L130.37 318.145L130.424 318.238C130.981 319.192 132.16 320.494 133.876 321.273C135.55 322.033 137.745 322.299 140.393 321.24C140.168 320.496 139.602 319.483 138.571 318.702Z" fill="#DAA06A"/>
<path d="M128.812 333.404C132.983 330.914 132.675 327.319 132 325.833C126.225 327.468 125.421 332.395 125.742 334.654C125.027 335.275 124.641 335.893 128.812 333.404Z" fill="#E5B66C"/>
<path fill-rule="evenodd" clip-rule="evenodd" d="M132.413 329.291C132.786 327.848 132.534 326.532 132.179 325.751L132.109 325.597L131.947 325.643C129.006 326.476 127.318 328.153 126.41 329.919C125.534 331.626 125.39 333.407 125.533 334.575C125.384 334.709 125.245 334.849 125.171 334.96C125.148 334.993 125.124 335.036 125.109 335.082C125.096 335.125 125.079 335.214 125.138 335.299C125.197 335.383 125.287 335.4 125.334 335.403C125.386 335.406 125.44 335.398 125.49 335.386C125.685 335.34 126.026 335.191 126.563 334.91C127.107 334.625 127.868 334.195 128.912 333.572C131.039 332.303 132.039 330.74 132.413 329.291ZM132.033 329.192C131.687 330.534 130.756 332.014 128.711 333.234C127.67 333.856 126.916 334.282 126.381 334.562C126.16 334.677 125.979 334.767 125.834 334.834C125.846 334.823 125.858 334.813 125.87 334.802L125.951 334.732L125.936 334.626C125.781 333.531 125.898 331.777 126.76 330.099C127.601 328.461 129.156 326.887 131.888 326.07C132.173 326.792 132.357 327.938 132.033 329.192Z" fill="#DAA06A"/>
<path d="M95.7693 315.055C93.4783 310.767 89.8799 310.91 88.367 311.517C89.7326 317.372 94.6081 318.402 96.8751 318.185C97.4611 318.929 98.0603 319.344 95.7693 315.055Z" fill="#E5B66C"/>
<path fill-rule="evenodd" clip-rule="evenodd" d="M91.8341 311.263C90.4127 310.824 89.0887 311.016 88.2939 311.335L88.1375 311.398L88.1758 311.562C88.8712 314.544 90.4658 316.31 92.1852 317.299C93.8467 318.255 95.6162 318.48 96.7876 318.391C96.9146 318.546 97.0475 318.692 97.1547 318.771C97.1869 318.795 97.2279 318.822 97.2738 318.838C97.3157 318.853 97.4042 318.874 97.4912 318.819C97.578 318.765 97.5985 318.675 97.6037 318.628C97.6094 318.576 97.6033 318.522 97.5939 318.472C97.5571 318.274 97.4246 317.926 97.1689 317.376C96.9099 316.818 96.5158 316.037 95.9423 314.963C94.7743 312.777 93.2624 311.704 91.8341 311.263ZM91.7185 311.639C93.0405 312.047 94.4732 313.047 95.5962 315.149C96.1682 316.219 96.5584 316.994 96.813 317.542C96.9183 317.768 96.999 317.953 97.0595 318.102C97.0494 318.09 97.0393 318.077 97.0291 318.064L96.9629 317.98L96.8564 317.99C95.7582 318.095 94.0142 317.898 92.3807 316.958C90.7862 316.041 89.2884 314.412 88.5986 311.641C89.3315 311.389 90.483 311.257 91.7185 311.639Z" fill="#DAA06A"/>
<path d="M95.2057 305.469C95.5727 300.619 92.4611 298.803 90.8594 298.501C88.8717 304.175 92.4317 307.667 94.4601 308.704C94.5557 309.647 94.8386 310.319 95.2057 305.469Z" fill="#E5B66C"/>
<path fill-rule="evenodd" clip-rule="evenodd" d="M93.9204 300.153C92.9568 299.017 91.7372 298.467 90.8958 298.308L90.7302 298.277L90.6744 298.436C89.6622 301.325 90.06 303.673 90.98 305.433C91.8689 307.133 93.2406 308.276 94.2767 308.83C94.3004 309.03 94.3345 309.224 94.3821 309.349C94.3965 309.387 94.4168 309.431 94.4467 309.47C94.474 309.505 94.5374 309.57 94.6401 309.571C94.7427 309.571 94.8079 309.507 94.8376 309.47C94.8701 309.429 94.8942 309.38 94.9133 309.333C94.9881 309.146 95.0631 308.781 95.1424 308.18C95.2227 307.57 95.3096 306.699 95.4015 305.485C95.5886 303.012 94.8887 301.293 93.9204 300.153ZM93.6215 300.407C94.5177 301.463 95.19 303.077 95.0101 305.455C94.9184 306.666 94.8323 307.529 94.7533 308.128C94.7207 308.376 94.6896 308.575 94.6606 308.733C94.6589 308.717 94.6572 308.701 94.6555 308.685L94.6447 308.578L94.5495 308.53C93.5668 308.027 92.2016 306.922 91.3277 305.25C90.4746 303.619 90.0846 301.439 90.9887 298.73C91.742 298.912 92.7839 299.421 93.6215 300.407Z" fill="#DAA06A"/>
<path d="M100.672 297.958C102.795 293.584 100.569 290.747 99.1911 289.876C95.2581 294.418 97.2847 298.978 98.7896 300.691C98.5321 301.602 98.548 302.332 100.672 297.958Z" fill="#E5B66C"/>
<path fill-rule="evenodd" clip-rule="evenodd" d="M101.431 292.54C100.952 291.129 100.02 290.167 99.2961 289.709L99.1536 289.619L99.0431 289.747C97.0405 292.06 96.5475 294.39 96.7563 296.365C96.958 298.274 97.8136 299.842 98.573 300.74C98.5217 300.934 98.4821 301.127 98.4804 301.261C98.48 301.301 98.4825 301.35 98.4962 301.397C98.5086 301.44 98.5436 301.524 98.6389 301.562C98.734 301.601 98.8182 301.565 98.8595 301.541C98.9046 301.516 98.9451 301.479 98.9803 301.442C99.1184 301.296 99.3224 300.984 99.6171 300.454C99.9157 299.917 100.317 299.139 100.848 298.044C101.931 295.814 101.912 293.957 101.431 292.54ZM101.059 292.667C101.504 293.979 101.536 295.728 100.495 297.872C99.9652 298.964 99.5678 299.735 99.2742 300.263C99.1529 300.481 99.0508 300.655 98.9656 300.791C98.9699 300.776 98.9742 300.76 98.9787 300.744L99.0078 300.641L98.9372 300.561C98.2082 299.731 97.3449 298.2 97.1466 296.324C96.953 294.492 97.3914 292.321 99.2273 290.136C99.861 290.583 100.643 291.44 101.059 292.667Z" fill="#DAA06A"/>
<path d="M166.986 305.269C165.924 300.522 162.419 299.695 160.799 299.875C160.551 305.883 164.973 308.182 167.216 308.581C167.582 309.454 168.048 310.015 166.986 305.269Z" fill="#E5B66C"/>
<path fill-rule="evenodd" clip-rule="evenodd" d="M164.208 300.56C162.955 299.756 161.628 299.586 160.778 299.68L160.61 299.699L160.603 299.867C160.477 302.927 161.541 305.056 162.934 306.47C164.28 307.836 165.924 308.528 167.077 308.755C167.158 308.939 167.247 309.115 167.329 309.221C167.354 309.252 167.386 309.289 167.426 309.317C167.462 309.343 167.542 309.387 167.64 309.357C167.739 309.328 167.782 309.247 167.8 309.203C167.819 309.155 167.828 309.101 167.832 309.05C167.85 308.849 167.815 308.478 167.715 307.88C167.615 307.273 167.444 306.415 167.178 305.226C166.636 302.807 165.466 301.367 164.208 300.56ZM163.996 300.891C165.161 301.638 166.274 302.986 166.795 305.312C167.06 306.497 167.229 307.348 167.328 307.944C167.369 308.191 167.398 308.39 167.416 308.55C167.41 308.536 167.403 308.521 167.397 308.505L167.356 308.407L167.25 308.388C166.164 308.195 164.536 307.537 163.213 306.194C161.922 304.883 160.914 302.912 160.989 300.057C161.763 300.01 162.907 300.192 163.996 300.891Z" fill="#DAA06A"/>
<path d="M160.201 318.303C161.754 313.695 159.187 311.164 157.71 310.474C154.384 315.479 156.971 319.746 158.68 321.253C158.54 322.19 158.649 322.912 160.201 318.303Z" fill="#E5B66C"/>
<path fill-rule="evenodd" clip-rule="evenodd" d="M160.268 312.833C159.615 311.495 158.569 310.659 157.793 310.297L157.64 310.225L157.547 310.366C155.853 312.915 155.659 315.288 156.116 317.221C156.557 319.089 157.605 320.536 158.472 321.33C158.445 321.529 158.43 321.726 158.446 321.859C158.45 321.899 158.459 321.947 158.479 321.992C158.496 322.032 158.542 322.111 158.641 322.137C158.74 322.163 158.819 322.117 158.857 322.089C158.899 322.057 158.934 322.016 158.964 321.974C159.083 321.812 159.246 321.477 159.471 320.914C159.699 320.343 159.999 319.52 160.387 318.367C161.179 316.017 160.925 314.178 160.268 312.833ZM159.916 313.006C160.523 314.251 160.776 315.982 160.015 318.241C159.628 319.391 159.331 320.207 159.107 320.767C159.014 320.999 158.935 321.185 158.868 321.331C158.87 321.315 158.872 321.299 158.875 321.283L158.89 321.177L158.81 321.106C157.982 320.376 156.932 318.967 156.498 317.131C156.074 315.338 156.234 313.129 157.779 310.729C158.464 311.092 159.348 311.843 159.916 313.006Z" fill="#DAA06A"/>
<path d="M146.157 327.597C149.663 324.232 148.557 320.799 147.566 319.502C142.305 322.397 142.628 327.378 143.446 329.507C142.89 330.273 142.652 330.963 146.157 327.597Z" fill="#E5B66C"/>
<path fill-rule="evenodd" clip-rule="evenodd" d="M148.744 322.779C148.783 321.289 148.242 320.063 147.721 319.383L147.619 319.249L147.471 319.33C144.792 320.804 143.524 322.818 143.036 324.743C142.565 326.604 142.825 328.372 143.226 329.478C143.111 329.642 143.007 329.809 142.959 329.934C142.945 329.972 142.93 330.019 142.927 330.067C142.924 330.112 142.927 330.203 143.003 330.272C143.079 330.341 143.171 330.337 143.218 330.329C143.269 330.321 143.319 330.3 143.365 330.278C143.545 330.189 143.845 329.967 144.304 329.572C144.77 329.172 145.416 328.582 146.293 327.739C148.08 326.023 148.705 324.276 148.744 322.779ZM148.352 322.769C148.315 324.154 147.74 325.806 146.022 327.455C145.147 328.295 144.507 328.88 144.049 329.274C143.86 329.436 143.704 329.564 143.577 329.662C143.586 329.649 143.596 329.636 143.605 329.623L143.668 329.536L143.63 329.436C143.233 328.405 142.953 326.669 143.416 324.84C143.869 323.055 145.031 321.171 147.509 319.759C147.949 320.398 148.386 321.474 148.352 322.769Z" fill="#DAA06A"/>
<defs>
<linearGradient id="paint0_linear_5153_12125" x1="238.212" y1="244.079" x2="203.533" y2="292.191" gradientUnits="userSpaceOnUse">
<stop stop-color="#FCCECE"/>
<stop offset="1" stop-color="#FDDBAD"/>
</linearGradient>
<linearGradient id="paint1_linear_5153_12125" x1="114.846" y1="170.184" x2="120.305" y2="352.85" gradientUnits="userSpaceOnUse">
<stop stop-color="#FCCECE"/>
<stop offset="1" stop-color="#FCDBAB"/>
</linearGradient>
<linearGradient id="paint2_linear_5153_12125" x1="181.859" y1="139.667" x2="181.859" y2="206.151" gradientUnits="userSpaceOnUse">
<stop stop-color="#FAC0A7"/>
<stop offset="0.655" stop-color="#FFECDD"/>
</linearGradient>
<linearGradient id="paint3_linear_5153_12125" x1="185.993" y1="430.67" x2="185.993" y2="761.178" gradientUnits="userSpaceOnUse">
<stop offset="0.54" stop-color="white"/>
<stop offset="1" stop-color="#D5E4EE"/>
</linearGradient>
<linearGradient id="paint4_linear_5153_12125" x1="100.051" y1="388.382" x2="100.051" y2="771.372" gradientUnits="userSpaceOnUse">
<stop offset="0.54" stop-color="white"/>
<stop offset="1" stop-color="#D5E4EE"/>
</linearGradient>
<linearGradient id="paint5_linear_5153_12125" x1="62.6275" y1="489.96" x2="62.6275" y2="669.398" gradientUnits="userSpaceOnUse">
<stop stop-color="white"/>
<stop offset="1" stop-color="#D5E4EE"/>
</linearGradient>
<radialGradient id="paint6_radial_5153_12125" cx="0" cy="0" r="1" gradientUnits="userSpaceOnUse" gradientTransform="translate(156.738 124.89) rotate(88.0165) scale(6.0944 7.24189)">
<stop offset="0.45" stop-color="#F9A19F"/>
<stop offset="1" stop-color="#FFE8D9"/>
</radialGradient>
<radialGradient id="paint7_radial_5153_12125" cx="0" cy="0" r="1" gradientUnits="userSpaceOnUse" gradientTransform="translate(183.441 125.192) rotate(88.0166) scale(7.23288 13.3234)">
<stop offset="0.45" stop-color="#F9A19F"/>
<stop offset="1" stop-color="#FFE8D9"/>
</radialGradient>
<radialGradient id="paint8_radial_5153_12125" cx="0" cy="0" r="1" gradientUnits="userSpaceOnUse" gradientTransform="translate(143.963 125.955) rotate(88.0165) scale(5.31865 6.44865)">
<stop offset="0.45" stop-color="#F9A19F"/>
<stop offset="1" stop-color="#FFE8D9"/>
</radialGradient>
<linearGradient id="paint9_linear_5153_12125" x1="176.36" y1="109.26" x2="175.651" y2="117.271" gradientUnits="userSpaceOnUse">
<stop stop-color="#FFECDD"/>
<stop offset="1" stop-color="#FBCEB8"/>
</linearGradient>
<linearGradient id="paint10_linear_5153_12125" x1="143.583" y1="112.173" x2="142.881" y2="120.098" gradientUnits="userSpaceOnUse">
<stop stop-color="#FFECDD"/>
<stop offset="1" stop-color="#EAB8A2"/>
</linearGradient>
<linearGradient id="paint11_linear_5153_12125" x1="232.772" y1="108.932" x2="232.558" y2="189.584" gradientUnits="userSpaceOnUse">
<stop stop-color="#FCCECE"/>
<stop offset="1" stop-color="#F1A39C"/>
</linearGradient>
<linearGradient id="paint12_linear_5153_12125" x1="213.217" y1="174.108" x2="213.217" y2="137.705" gradientUnits="userSpaceOnUse">
<stop stop-color="#F1A39C"/>
<stop offset="1" stop-color="#FCCECE"/>
</linearGradient>
<linearGradient id="paint13_linear_5153_12125" x1="111.348" y1="91.4932" x2="111.348" y2="200.483" gradientUnits="userSpaceOnUse">
<stop stop-color="#FCCECE"/>
<stop offset="1" stop-color="#F1A39C"/>
</linearGradient>
<linearGradient id="paint14_linear_5153_12125" x1="157.525" y1="343.695" x2="157.525" y2="578.895" gradientUnits="userSpaceOnUse">
<stop offset="0.185" stop-color="#FCD7C3"/>
<stop offset="0.79" stop-color="#FFECDD"/>
</linearGradient>
<linearGradient id="paint15_linear_5153_12125" x1="65.6738" y1="612.465" x2="65.6738" y2="716.441" gradientUnits="userSpaceOnUse">
<stop stop-color="white"/>
<stop offset="0.595" stop-color="#D5E4EE"/>
</linearGradient>
<linearGradient id="paint16_linear_5153_12125" x1="88.4106" y1="630.993" x2="88.4106" y2="745.214" gradientUnits="userSpaceOnUse">
<stop stop-color="white"/>
<stop offset="0.325" stop-color="#D5E4EE"/>
</linearGradient>
<linearGradient id="paint17_linear_5153_12125" x1="114.52" y1="661.945" x2="114.52" y2="759.164" gradientUnits="userSpaceOnUse">
<stop stop-color="white"/>
<stop offset="0.41" stop-color="#D5E4EE"/>
</linearGradient>
<linearGradient id="paint18_linear_5153_12125" x1="141.717" y1="560.149" x2="141.717" y2="770.818" gradientUnits="userSpaceOnUse">
<stop stop-color="#FFFAFA"/>
<stop offset="0.7" stop-color="#D5E4EE"/>
</linearGradient>
<linearGradient id="paint19_linear_5153_12125" x1="198.939" y1="528.542" x2="198.939" y2="696.604" gradientUnits="userSpaceOnUse">
<stop stop-color="white"/>
<stop offset="1" stop-color="#D5E4EE"/>
</linearGradient>
<linearGradient id="paint20_linear_5153_12125" x1="198.939" y1="528.542" x2="198.939" y2="696.604" gradientUnits="userSpaceOnUse">
<stop stop-color="white"/>
<stop offset="1" stop-color="#D5E4EE"/>
</linearGradient>
</defs>
</svg>
