<svg width="307" height="676" viewBox="0 0 307 676" fill="none" xmlns="http://www.w3.org/2000/svg">
<path d="M160.7 250.421C174.766 253.732 169.663 261.804 165.354 265.425L154.882 271.376L160.7 250.421Z" fill="#B1382A"/>
<path d="M61.1143 316.797C17.7928 297.95 1.97396 253.015 0 234.382L37.6215 237.486L65.6761 270.729L61.6684 317.034C80.0384 324.9 104.981 335.579 61.6683 317.036C61.4831 316.957 61.2984 316.877 61.1143 316.797Z" fill="#ED9C6F"/>
<path d="M215.386 187.686C221.902 159.126 203.966 144.484 194.183 140.732L146.349 187.686C137.644 184.539 144.281 193.843 167.035 201.397C189.788 208.951 181.514 257.621 178.929 274.48L215.386 257.664C216.834 238.21 220.514 197.646 215.386 187.686Z" fill="#ED9C6F"/>
<mask id="mask0_5153_12295" style="mask-type:alpha" maskUnits="userSpaceOnUse" x="142" y="140" width="77" height="135">
<path d="M215.385 187.686C221.901 159.126 203.965 144.484 194.182 140.732L146.348 187.686C137.643 184.539 144.28 193.843 167.034 201.397C189.788 208.951 181.513 257.621 178.928 274.48L215.385 257.664C216.833 238.21 220.513 197.646 215.385 187.686Z" fill="#ED9C6F"/>
</mask>
<g mask="url(#mask0_5153_12295)">
<path d="M174.92 282.759V206.442L181.126 193.896C184.573 196.699 191.391 202.72 191.08 204.374L219.393 200.751L229.736 235.675L174.92 282.759Z" fill="#E28559"/>
</g>
<path d="M61.2803 96.2363C80.828 107.412 80.7159 76.4889 82.2242 62.3467L145.056 83.172C144.642 105.627 156.261 110.896 162.121 110.723C157.706 114.391 150.479 110.92 145.627 107.448C150.937 113.806 158.461 130.934 162.121 140.215L62.5731 123.788C61.4952 112.914 74.056 104.212 81.2179 99.5972C67.0132 108.15 64.8489 100.131 61.2803 96.2363Z" fill="#D9B587"/>
<path d="M99.5483 111.888C102.393 111.888 99.5483 73.4707 99.5483 73.4707L138.721 88.6046C138.721 88.6046 136.006 111.241 139.497 113.569C142.988 115.897 150.357 118.355 150.357 118.355L197.804 142.414L180.351 184.97C185.315 193.455 171.214 211.961 163.544 220.153C164.371 264.029 158.415 276.162 155.916 270.729L77.5701 187.298L46.542 126.892C46.542 126.892 96.704 111.888 99.5483 111.888Z" fill="url(#paint0_linear_5153_12295)"/>
<path fill-rule="evenodd" clip-rule="evenodd" d="M124.318 209.698C121.902 204.739 120.343 199.067 119.644 195.348L121.34 195.028C122.02 198.639 123.538 204.156 125.87 208.941C127.036 211.333 128.39 213.509 129.917 215.17C131.446 216.832 133.103 217.928 134.876 218.27C142.961 219.825 148.624 221.254 150.464 221.78L149.99 223.441C148.211 222.932 142.6 221.515 134.55 219.966C132.29 219.531 130.325 218.164 128.646 216.34C126.966 214.513 125.527 212.178 124.318 209.698Z" fill="#D96E51"/>
<path d="M130.445 3.2521C136.819 1.26602 150.775 0.35069 155.612 12.578C162.641 25.7898 177.741 52.7314 181.903 54.8039C178.584 54.0076 172.694 52.046 169.472 49.3661C173.983 57.2252 175.927 71.8339 157.299 85.7608C152.612 88.6104 148.68 101.531 152.167 107.231C156.525 114.355 101.343 36.411 118.495 24.4945L130.445 3.2521Z" fill="#F7E3A6"/>
<path d="M81.3312 55.5423C76.1485 -1.88406 111.915 -3.79626 130.447 2.42595V19.575C128.759 29.6519 109.583 49.8766 97.4795 55.5423L85.8511 65.7103C81.6326 68.6242 75.5559 67.835 73.0449 67.0762C79.7946 65.7407 81.3815 58.8305 81.3312 55.5423Z" fill="#F7E3A6"/>
<mask id="mask1_5153_12295" style="mask-type:alpha" maskUnits="userSpaceOnUse" x="46" y="73" width="153" height="199">
<path d="M99.5483 111.888C102.393 111.888 99.5483 73.4707 99.5483 73.4707L138.721 88.6046C138.721 88.6046 136.006 111.241 139.497 113.569C142.988 115.897 150.357 118.355 150.357 118.355L198.45 143.061L180.351 184.97C185.315 193.455 171.214 211.961 163.544 220.153C164.371 264.029 158.415 276.162 155.916 270.729L77.5701 187.298L46.542 126.892C46.542 126.892 96.704 111.888 99.5483 111.888Z" fill="url(#paint1_linear_5153_12295)"/>
</mask>
<g mask="url(#mask1_5153_12295)">
<path opacity="0.5" d="M88.4294 70.3662L147.512 81.4903L162.509 105.032C162.509 105.032 230.512 124.434 132.127 149.916C33.7425 175.398 82.0945 109.43 82.0945 109.43L88.4294 70.3662Z" fill="#DD7C4F"/>
</g>
<path d="M153.094 74.7752L156.326 51.8804C156.326 51.8804 156.326 23.1647 141.459 18.5082C126.591 13.8516 89.4865 35.453 89.4865 35.453L92.2015 51.8804C91.0371 50.0204 88.323 48.5065 85.9959 51.8804C83.6688 55.2543 86.6423 69.9785 92.2015 71.4121C96.8124 72.6013 97.0653 71.8178 97.0174 71.5159L98.9243 77.6209C108.863 94.4342 126.074 101.928 128.401 101.928C130.728 101.928 149.905 85.8903 153.094 74.7752Z" fill="#EC9B6E"/>
<g opacity="0.5" filter="url(#filter0_f_5153_12295)">
<path d="M144.151 70.8834C144.151 76.1698 138.016 80.4553 130.447 80.4553C122.879 80.4553 116.743 76.1698 116.743 70.8834C116.743 65.597 122.879 61.3115 130.447 61.3115C138.016 61.3115 144.151 65.597 144.151 70.8834Z" fill="#E37952"/>
</g>
<path fill-rule="evenodd" clip-rule="evenodd" d="M119.838 86.4728C120.086 86.183 120.522 86.1494 120.812 86.3978C121.242 86.7665 121.925 87.0785 122.817 87.3202C123.698 87.5588 124.725 87.7139 125.793 87.8056C127.93 87.989 130.157 87.913 131.548 87.7865C131.928 87.7519 132.264 88.032 132.298 88.4121C132.333 88.7922 132.053 89.1283 131.673 89.1628C130.219 89.295 127.909 89.3743 125.675 89.1826C124.558 89.0867 123.443 88.9216 122.456 88.6542C121.48 88.3898 120.569 88.0098 119.913 87.4471C119.623 87.1988 119.59 86.7625 119.838 86.4728Z" fill="#D96E51"/>
<path fill-rule="evenodd" clip-rule="evenodd" d="M132.761 73.3121C133.134 73.2329 133.501 73.4713 133.58 73.8446C133.711 74.4618 133.998 75.1061 134.322 75.7179C134.483 76.0208 134.646 76.3057 134.799 76.5715L134.805 76.5821C134.952 76.8374 135.096 77.0876 135.202 77.3008C135.373 77.6421 135.235 78.0572 134.894 78.2279C134.552 78.3986 134.138 78.2602 133.967 77.9189C133.881 77.7468 133.758 77.5319 133.602 77.2611L133.598 77.253C133.447 76.9913 133.273 76.6891 133.102 76.365C132.758 75.7157 132.399 74.9371 132.228 74.1314C132.149 73.7581 132.388 73.3912 132.761 73.3121ZM134.673 78.9197C134.949 79.1826 134.96 79.62 134.698 79.8967L132.241 82.4836C131.978 82.7603 131.541 82.7716 131.265 82.5087C130.988 82.2458 130.977 81.8085 131.24 81.5318L133.696 78.9448C133.959 78.6681 134.396 78.6569 134.673 78.9197Z" fill="#D96E51"/>
<path fill-rule="evenodd" clip-rule="evenodd" d="M64.7313 128.288C64.8888 127.837 65.3813 127.6 65.8314 127.758L91.5827 136.775C102.472 137.662 109.287 144.044 111.388 147.242C111.649 147.641 111.539 148.177 111.14 148.439C110.742 148.701 110.207 148.59 109.945 148.191C108.088 145.364 101.687 139.293 91.336 138.489L91.2239 138.48L65.261 129.388C64.8109 129.231 64.5738 128.738 64.7313 128.288Z" fill="#D96E51"/>
<path fill-rule="evenodd" clip-rule="evenodd" d="M180.912 192.818L181.695 193.281C183.164 194.15 185.342 195.688 187.126 197.503C188.019 198.412 188.837 199.413 189.414 200.457C189.99 201.498 190.357 202.638 190.261 203.798L188.54 203.654C188.599 202.952 188.381 202.158 187.903 201.293C187.427 200.432 186.722 199.556 185.895 198.715C184.529 197.324 182.893 196.093 181.59 195.249L176.203 205.549L174.673 204.748L180.912 192.818Z" fill="#D96E51"/>
<path fill-rule="evenodd" clip-rule="evenodd" d="M174.355 135.354C174.266 134.885 173.814 134.578 173.346 134.667L146.544 139.771C135.643 139.034 127.959 144.337 125.408 147.189C125.09 147.544 125.121 148.09 125.476 148.408C125.831 148.727 126.377 148.696 126.695 148.341C128.95 145.82 136.179 140.764 146.534 141.502L146.647 141.51L173.669 136.364C174.137 136.275 174.445 135.823 174.355 135.354Z" fill="#D96E51"/>
<path fill-rule="evenodd" clip-rule="evenodd" d="M136.694 235.676H138.421V260.382H136.694V235.676Z" fill="#D96E51"/>
<path d="M78.1828 123.399C95.4206 169.146 140.79 262.58 161.475 262.58C164.096 263.968 165.927 264.76 167.514 263.394C169.254 260.236 170.242 258.582 169.328 260.639C168.739 261.965 168.146 262.85 167.514 263.394C165.316 267.382 161.917 273.77 159.631 278.102H89.8183C74.5197 242.703 46.379 166.085 56.2045 142.802L78.1828 123.399Z" fill="#C13E2D"/>
<path fill-rule="evenodd" clip-rule="evenodd" d="M84.4955 175.492C85.4435 175.389 86.2952 176.075 86.3976 177.024C88.9728 200.874 101.525 224.385 116.054 242.849C123.307 252.067 131.019 259.984 138.159 266.013C145.331 272.07 151.814 276.128 156.602 277.76C157.505 278.068 157.987 279.049 157.68 279.952C157.372 280.856 156.391 281.338 155.489 281.031C150.1 279.194 143.229 274.816 135.932 268.653C128.602 262.463 120.728 254.375 113.341 244.987C98.587 226.237 85.6344 202.124 82.9642 177.395C82.8618 176.446 83.5474 175.594 84.4955 175.492Z" fill="#B1382A"/>
<path fill-rule="evenodd" clip-rule="evenodd" d="M70.014 182.994C70.962 182.89 71.8144 183.575 71.9179 184.524C74.3258 206.587 86.0656 228.348 99.6653 245.446C106.454 253.981 113.671 261.311 120.352 266.892C127.064 272.501 133.124 276.251 137.592 277.758C138.496 278.063 138.981 279.043 138.677 279.947C138.372 280.851 137.393 281.337 136.489 281.032C131.425 279.324 124.978 275.259 118.138 269.544C111.267 263.803 103.887 256.304 96.9632 247.598C83.1376 230.215 70.9898 207.849 68.485 184.899C68.3814 183.95 69.066 183.097 70.014 182.994Z" fill="#B1382A"/>
<path d="M128.637 504.335C133.036 492.97 104.615 454.526 97.0918 430.217L156.486 387.757C183.379 409.851 177.645 484.135 171.416 518.515C166.248 524.537 167.489 581.719 168.755 609.558C161.448 603.769 152.988 624.606 149.451 631.744L133.238 572.222C120.153 554.642 120.738 516 128.637 504.335Z" fill="#E18356"/>
<mask id="mask2_5153_12295" style="mask-type:alpha" maskUnits="userSpaceOnUse" x="96" y="391" width="81" height="245">
<path d="M128.521 507.957C132.92 496.592 104.499 458.148 96.9756 433.839L156.37 391.379C183.263 413.473 177.529 487.757 171.3 522.137C166.132 528.159 167.373 585.341 168.639 613.18C161.332 607.392 152.872 628.228 149.335 635.366L133.122 575.844C120.037 558.264 120.621 519.622 128.521 507.957Z" fill="#E18356"/>
</mask>
<g mask="url(#mask2_5153_12295)">
<path d="M199.885 453.759C189.956 471.143 134.726 464.624 108.353 459.191L113.524 402.795L178.941 405.899L199.885 453.759Z" fill="#DB774B"/>
</g>
<path d="M72.1409 670.937C66.8661 670.109 59.7292 657.485 64.3835 653.734L73.4336 636.013L104.591 643.774C110.279 649.362 107.952 670.937 101.085 675.982C96.2155 676.327 77.4156 671.765 72.1409 670.937Z" fill="#9D6F5A"/>
<path d="M97.6027 608.86C93.7467 591.436 116.723 474.613 128.693 418.379C125.079 369.711 66.7456 383.326 49.2542 398.527L78.4758 501.702C47.5323 523.106 66.4969 588.247 78.4758 616.351C75.6737 629.56 67.343 653.531 67.4084 658.076C67.4737 662.622 87.0925 668.599 97.6058 670.031C104.546 668.791 103.744 660.97 106.398 655.286L97.6027 608.86Z" fill="#EC9B6E"/>
<mask id="mask3_5153_12295" style="mask-type:alpha" maskUnits="userSpaceOnUse" x="49" y="384" width="80" height="287">
<path d="M97.7941 608.805C93.9381 591.382 116.914 474.558 128.884 418.325C125.271 369.657 66.937 383.271 49.4456 398.472L78.6673 501.647C47.7237 523.051 69.529 582.89 81.5079 610.993C78.7058 624.202 67.5344 653.476 67.5998 658.022C67.6652 662.567 87.2808 668.674 97.7942 670.106C104.735 668.866 103.936 660.915 106.589 655.231L97.7941 608.805Z" fill="#EC9B6E"/>
</mask>
<g mask="url(#mask3_5153_12295)">
<path d="M126.919 455.06C98.9892 462.588 83.4674 464.618 56.6935 453.449L62.6311 389.697L129.504 388.267L126.919 455.06Z" fill="#E18356"/>
</g>
<path d="M150.228 655.155C148.677 655.155 148.547 650.758 148.677 648.559C174.964 650.758 232.263 652.534 231.03 655.155C229.996 657.354 228.488 657.57 225.342 658.777C220.558 660.071 152.167 655.155 150.228 655.155Z" fill="#9D6F5A"/>
<path d="M164.836 277.585H104.461L69.2959 410.815C74.6741 427.372 146.866 417.714 182.29 410.815L164.836 277.585Z" fill="#F2DDC1"/>
<path d="M126.821 419.68L150.098 277.585L159.535 277.584L187.684 419.143C179.084 427.469 143.526 422.97 126.821 419.68Z" fill="#FFEED8"/>
<path fill-rule="evenodd" clip-rule="evenodd" d="M113.215 419.182L127.177 277.415L130.614 277.754L116.652 419.521L113.215 419.182Z" fill="#E8CDA8"/>
<path d="M194.055 395.81L164.837 280.172C181.515 315.053 214.301 384.816 212.025 384.816C209.75 384.816 199.097 392.146 194.055 395.81Z" fill="#FFEED8"/>
<path d="M41.0755 249.515C41.0755 241.34 13.1004 235.379 0.128906 234.689C0.528723 214.888 24.5468 164.176 37.7119 138.921C37.8387 138.678 38.1207 138.632 38.4712 138.676L59.3045 131.937L64.6051 228.69L41.0755 249.515Z" fill="#ED9C6F"/>
<path d="M6.33454 208.9C23.9171 203.105 39.0433 210.538 44.3439 215.367L42.0168 222.999C31.881 213.582 12.5402 213.988 4.13672 215.367L6.33454 208.9Z" fill="url(#paint2_linear_5153_12295)"/>
<path d="M184.616 407.064L152.812 277.585H164.189L196.51 399.95L184.616 407.064Z" fill="#F2DDC1"/>
<mask id="mask4_5153_12295" style="mask-type:alpha" maskUnits="userSpaceOnUse" x="0" y="131" width="65" height="119">
<path d="M41.0755 249.515C41.0755 241.34 13.1004 235.379 0.128906 234.689C0.528723 214.888 24.5468 164.176 37.7119 138.921C37.8387 138.678 38.1207 138.632 38.4712 138.676L59.3045 131.937L64.6051 228.69L41.0755 249.515Z" fill="#ED9C6F"/>
</mask>
<g mask="url(#mask4_5153_12295)">
<path d="M58.6944 160.653C36.5759 163.444 21.8203 171.601 2.45605 155.867L33.5418 142.243L53.0059 138.275L58.6944 160.653Z" fill="#DF8154"/>
</g>
<path d="M163.033 272.928C161.278 277.04 123.762 276.3 105.224 275.415C96.4491 278.898 81.8936 285.863 93.8683 285.863H166.129L163.033 272.928Z" fill="#AD6A42"/>
<path fill-rule="evenodd" clip-rule="evenodd" d="M163.264 270.187L167.224 286.727H93.8684C92.3454 286.727 91.1739 286.618 90.3335 286.391C89.5583 286.182 88.7386 285.781 88.5209 284.936C88.311 284.122 88.7996 283.391 89.2438 282.898C89.7364 282.351 90.4523 281.787 91.2837 281.229C94.6062 278.996 100.515 276.355 104.905 274.613L105.079 274.544L105.265 274.553C114.523 274.995 128.516 275.4 140.406 275.182C146.355 275.073 151.753 274.809 155.762 274.319C157.771 274.074 159.396 273.776 160.556 273.425C161.137 273.25 161.567 273.071 161.861 272.899C162.007 272.813 162.103 272.739 162.164 272.679C162.225 272.62 162.239 272.589 162.239 272.589L163.264 270.187ZM105.369 276.288C101.007 278.026 95.3603 280.57 92.2464 282.663C91.4584 283.192 90.8791 283.663 90.5269 284.054C90.3202 284.284 90.2452 284.425 90.2173 284.493C90.2835 284.542 90.4399 284.631 90.7832 284.723C91.4046 284.891 92.3976 285 93.8684 285H165.035L162.523 274.506C162.105 274.724 161.607 274.912 161.055 275.079C159.755 275.472 158.016 275.784 155.971 276.034C151.873 276.534 146.405 276.8 140.438 276.91C128.576 277.127 114.65 276.727 105.369 276.288Z" fill="#F3DE9D"/>
<path d="M40.207 140.215H52.1011C54.0835 252.275 58.4877 477.895 60.246 483.897C62.0042 489.899 55.5487 495.28 52.1011 497.22C42.9481 497.22 40.4168 512.437 40.207 522.046V524.642C40.1881 523.841 40.1869 522.969 40.207 522.046V140.215Z" fill="#B1382A"/>
<path d="M55.2733 475.489L47.4473 129.314L75.7827 118.226C82.6642 164.698 99.0178 264.376 109.38 291.313C122.334 324.984 108.436 368.797 109.38 380.021C110.136 389 97.1018 400.349 90.4902 404.902C88.1964 418.424 82.0435 445.28 75.7827 444.523C69.5219 443.766 59.5011 464.852 55.2733 475.489Z" fill="url(#paint3_linear_5153_12295)"/>
<path d="M32.9678 141.71L37.3738 134.96C39.4472 129.333 65.7736 120.628 79.5099 117.062L88.5597 114.475C85.2423 142.319 49.9438 144.621 32.9678 141.71Z" fill="url(#paint4_linear_5153_12295)"/>
<path d="M37.3633 135.041C41.2849 129.436 55.5664 118.018 81.3197 117.19C78.3462 125.943 65.392 141.767 37.3633 135.041Z" fill="#F09562"/>
<path d="M131.998 22.2594C123.72 32.5864 104.452 51.8575 92.0496 50.8343C78.0873 37.2526 101.229 -2.32839 131.998 22.2594Z" fill="#F7E3A6"/>
<path d="M129.283 6.46777L131.901 14.6168C148.029 3.36338 152.986 18.7129 156.074 27.4224C162.59 44.9105 157.37 54.9739 154.655 57.9489C157.758 53.4993 153.362 44.4534 150.777 40.4867C145.398 39.038 140.52 25.2234 138.753 18.4973C130.169 19.946 131.901 35.7008 134.487 44.7552C128.281 40.4867 127.075 27.9398 128.281 22.6365L127.213 13.7114C118.629 19.6097 117.806 36.7787 119.487 42.9444C110.537 24.8354 120.492 10.4776 129.283 6.46777Z" fill="#FAEBC0"/>
<path d="M91.9769 17.332C87.6309 22.4401 81.2257 36.1105 90.3739 49.9281C93.295 45.1664 97.7053 31.9808 91.9769 17.332Z" fill="url(#paint5_linear_5153_12295)"/>
<path d="M100.473 30.2115C96.3915 32.1089 88.6562 38.6517 90.3666 49.6444C93.4819 47.5589 99.8646 40.7525 100.473 30.2115Z" fill="url(#paint6_linear_5153_12295)"/>
<path d="M105.355 7.11823C100.072 9.74119 90.1591 18.5728 92.7696 32.9154C96.7804 30.0784 104.913 20.9472 105.355 7.11823Z" fill="url(#paint7_linear_5153_12295)"/>
<path d="M107.763 20.4769C103.806 20.5958 95.2868 23.2038 92.8624 32.684C96.1033 32.0779 103.621 28.788 107.763 20.4769Z" fill="url(#paint8_linear_5153_12295)"/>
<path d="M116.358 4.57913C111.978 5.15349 102.811 9.00122 101.178 19.7972C104.708 18.7621 112.687 14.2693 116.358 4.57913Z" fill="url(#paint9_linear_5153_12295)"/>
<path d="M114.821 14.6285C111.989 13.7511 105.32 13.5281 101.3 19.6554C103.744 20.0137 109.869 19.51 114.821 14.6285Z" fill="url(#paint10_linear_5153_12295)"/>
<path d="M170.51 25.8409C172.098 31.8436 171.983 45.8174 158.824 53.6903C158.287 48.5468 159.874 35.776 170.51 25.8409Z" fill="url(#paint11_linear_5153_12295)"/>
<path d="M158.271 33.1937C160.921 36.4104 164.766 44.9665 158.944 53.4572C157.175 50.47 154.565 42.2352 158.271 33.1937Z" fill="url(#paint12_linear_5153_12295)"/>
<path d="M163.425 11.964C166.788 16.2671 171.537 27.6048 163.624 38.5314C161.409 34.5587 158.267 23.6834 163.425 11.964Z" fill="url(#paint13_linear_5153_12295)"/>
<path d="M156.077 22.1501C159.332 23.8326 165.401 29.4184 163.638 38.3013C161.175 36.4987 156.215 30.7447 156.077 22.1501Z" fill="url(#paint14_linear_5153_12295)"/>
<path d="M155.255 5.44203C158.681 7.67388 164.796 14.5537 161.846 24.2183C159.313 21.9417 154.449 14.9991 155.255 5.44203Z" fill="url(#paint15_linear_5153_12295)"/>
<path d="M152.523 14.4457C155.238 14.8466 160.894 17.3289 161.801 24.0512C159.619 23.3727 154.707 20.5017 152.523 14.4457Z" fill="url(#paint16_linear_5153_12295)"/>
<path fill-rule="evenodd" clip-rule="evenodd" d="M137.695 55.1003C137.981 55.3519 138.01 55.7885 137.758 56.0754C137.723 56.1162 137.686 56.1574 137.65 56.1992C136.573 57.4268 135.095 59.1107 133.993 61.1629C132.858 63.2765 132.149 65.7306 132.677 68.4215C132.75 68.796 132.507 69.1592 132.132 69.2328C131.758 69.3063 131.395 69.0624 131.321 68.6879C130.712 65.5839 131.546 62.7994 132.776 60.5086C133.955 58.3144 135.523 56.5274 136.594 55.3081C136.636 55.2592 136.679 55.2112 136.72 55.1641C136.971 54.8772 137.408 54.8486 137.695 55.1003Z" fill="#D96E51"/>
<path d="M90.886 404.218C92.7477 394.801 80.8881 276.033 74.7256 217.825C78.7592 237.797 99.5049 334.197 109.374 379.9C108.132 393.146 96.5314 401.631 90.886 404.218Z" fill="url(#paint17_linear_5153_12295)"/>
<path d="M107.435 52.2495L126.827 55.6207C126.827 55.6207 126.569 53.4054 125.405 52.2495C124.241 51.0935 112.181 51.1257 107.435 52.2495Z" fill="#402020"/>
<path d="M163.695 202.996C164.065 203.665 162.803 205.073 160.875 206.14C158.947 207.208 157.085 207.531 156.715 206.862C156.345 206.194 157.608 204.786 159.535 203.718C161.463 202.651 163.325 202.328 163.695 202.996Z" fill="#402020"/>
<path fill-rule="evenodd" clip-rule="evenodd" d="M109.678 292.24L111.396 292.42L104.677 356.669C104.558 363.673 101.934 373.142 99.0588 380.49C97.6165 384.176 96.0907 387.381 94.7515 389.509C94.091 390.559 93.4323 391.419 92.8066 391.929C92.4975 392.181 92.1145 392.416 91.6775 392.475C91.3761 392.516 91.0889 392.468 90.8345 392.343C90.7663 392.447 90.6838 392.587 90.5882 392.769C90.1394 393.625 89.5939 395.033 88.9626 396.871C88.1899 399.121 87.319 401.923 86.3674 404.984C85.7681 406.912 85.1367 408.943 84.4778 411.003C82.782 416.307 80.9113 421.781 78.9761 426.029C78.0096 428.15 77.0107 430.002 75.9886 431.383C75.0457 432.657 73.972 433.684 72.7576 433.996C70.0743 435.919 66.0566 439.372 62.596 443.578C59.0699 447.864 56.2141 452.821 55.8088 457.667C55.8937 462.952 55.6983 470.901 54.8315 477.63C54.3979 480.997 53.7903 484.108 52.9444 486.436C52.5222 487.598 52.0236 488.614 51.4228 489.375C50.8367 490.118 50.0945 490.689 49.1745 490.824C47.8932 491.194 45.9383 492.063 44.2489 493.467C42.5398 494.888 41.1672 496.798 40.9368 499.241L39.2178 499.079C39.5045 496.038 41.2131 493.744 43.1455 492.138C45.0723 490.537 47.2859 489.561 48.7641 489.145L48.8285 489.127L48.895 489.119C49.2337 489.078 49.6283 488.862 50.0676 488.305C50.5078 487.747 50.9304 486.923 51.3216 485.846C52.1025 483.697 52.6908 480.734 53.119 477.41C53.9737 470.774 54.1675 462.89 54.0817 457.653L54.081 457.611L54.0844 457.569C54.5193 452.184 57.6474 446.874 61.2629 442.48C64.8933 438.067 69.1082 434.466 71.899 432.487L72.0527 432.378L72.2377 432.343C72.8547 432.226 73.6553 431.633 74.601 430.355C75.5187 429.115 76.4592 427.388 77.4049 425.312C79.2941 421.166 81.1386 415.777 82.8333 410.477C83.4807 408.452 84.1075 406.436 84.7057 404.512C85.6647 401.428 86.5502 398.579 87.3297 396.31C87.9609 394.472 88.5429 392.951 89.0593 391.966C89.306 391.496 89.5923 391.038 89.9317 390.755C90.1075 390.608 90.386 390.433 90.7494 390.425C91.0774 390.418 91.3431 390.549 91.5374 390.717C91.5813 390.691 91.6407 390.651 91.7162 390.589C92.1154 390.264 92.6526 389.603 93.2902 388.589C94.5475 386.591 96.0275 383.498 97.451 379.86C100.302 372.572 102.846 363.307 102.951 356.603L102.951 356.565L109.678 292.24Z" fill="url(#paint18_linear_5153_12295)"/>
<path d="M123.777 64.3362C121.924 62.0079 116.176 58.0498 108.005 60.8438C109.427 64.0344 114.572 69.1997 123.777 64.3362Z" fill="#FFE8E8"/>
<mask id="mask5_5153_12295" style="mask-type:alpha" maskUnits="userSpaceOnUse" x="108" y="60" width="16" height="7">
<path d="M123.907 64.4101C122.054 62.0818 116.176 58.3087 108.005 61.1026C109.427 64.2932 114.702 69.2737 123.907 64.4101Z" fill="white"/>
</mask>
<g mask="url(#mask5_5153_12295)">
<path d="M121.451 64.4156C121.451 66.5588 119.541 68.2961 117.184 68.2961C114.828 68.2961 112.918 66.5588 112.918 64.4156C112.918 62.2725 114.828 60.5352 117.184 60.5352C119.541 60.5352 121.451 62.2725 121.451 64.4156Z" fill="#88B5CC"/>
</g>
<path d="M108.652 59.1131C118.219 57.4316 124.683 61.9588 123.778 64.2817C121.063 61.5708 112.232 60.9158 107.839 61.3818C106.735 61.009 108.191 59.6309 108.652 59.1131Z" fill="#402020"/>
<path fill-rule="evenodd" clip-rule="evenodd" d="M122.234 59.5982C122.527 59.8028 122.734 59.9469 122.923 60.0415C123.265 60.2121 123.403 60.6272 123.232 60.9686C123.062 61.3099 122.647 61.4483 122.306 61.2777C122.02 61.1347 121.689 60.9042 121.358 60.6731C121.251 60.5986 121.144 60.5241 121.039 60.4524C120.571 60.1346 120.02 59.7888 119.33 59.4841C117.962 58.8801 115.985 58.4102 112.998 58.7589C112.619 58.8031 112.276 58.5317 112.232 58.1526C112.188 57.7736 112.459 57.4304 112.838 57.3862C116.057 57.0105 118.282 57.5109 119.888 58.2198C120.684 58.5716 121.313 58.9679 121.815 59.3091C121.973 59.4166 122.111 59.5127 122.234 59.5982Z" fill="#D96E51"/>
<path d="M139.091 65.6311C140.691 63.3028 145.654 59.3447 152.708 62.1387C151.48 65.3293 147.038 70.4946 139.091 65.6311Z" fill="#FFE8E8"/>
<mask id="mask6_5153_12295" style="mask-type:alpha" maskUnits="userSpaceOnUse" x="138" y="61" width="15" height="7">
<path d="M138.979 65.7051C140.579 63.3768 145.654 59.6036 152.708 62.3975C151.48 65.5882 146.926 70.5686 138.979 65.7051Z" fill="white"/>
</mask>
<g mask="url(#mask6_5153_12295)">
<path d="M141.1 65.7106C141.1 67.8537 142.749 69.5911 144.784 69.5911C146.818 69.5911 148.467 67.8537 148.467 65.7106C148.467 63.5674 146.818 61.8301 144.784 61.8301C142.749 61.8301 141.1 63.5674 141.1 65.7106Z" fill="#88B5CC"/>
</g>
<path d="M152.15 60.407C143.891 58.7255 138.31 63.2528 139.092 65.5756C141.435 62.8647 149.06 62.2097 152.852 62.6758C153.805 62.3029 152.548 60.9249 152.15 60.407Z" fill="#402020"/>
<path d="M154.585 51.4613C152.32 51.7115 144.251 54.2757 140.175 55.6376C139.121 54.4332 140.138 52.877 140.778 52.2494C143.522 50.6754 152.221 51.3113 154.585 51.4613C154.791 51.4385 154.95 51.4349 155.052 51.4532C155.342 51.5048 155.135 51.4962 154.585 51.4613Z" fill="#402020"/>
<path d="M229.36 648.688C219.638 648.688 188.334 625.405 173.897 613.764L157.608 598.63C156.832 605.097 153.988 620.102 148.817 628.38C143.645 636.659 146.662 646.489 148.817 650.37C155.927 648.688 193.161 654.897 195.1 654.897C197.039 654.897 221.991 655.285 226.774 654.897C230.601 654.587 230.093 650.628 229.36 648.688Z" fill="#E18356"/>
<path fill-rule="evenodd" clip-rule="evenodd" d="M89.5323 55.7272C89.456 55.9005 89.4013 56.1266 89.3745 56.3498C89.3291 56.7287 88.9852 56.999 88.6065 56.9535C88.2278 56.9081 87.9576 56.564 88.003 56.1851C88.0409 55.8694 88.1219 55.5026 88.2679 55.1706C88.4062 54.856 88.6515 54.4632 89.0825 54.2652C89.5676 54.0422 90.0783 54.1546 90.5243 54.4458C90.9509 54.7243 91.3854 55.2018 91.8456 55.8789C92.0601 56.1945 91.9782 56.6243 91.6628 56.8389C91.3474 57.0535 90.9178 56.9716 90.7033 56.656C90.2844 56.0396 89.9723 55.7357 89.7694 55.6032C89.7102 55.5645 89.67 55.5459 89.6451 55.5371C89.6226 55.5618 89.5809 55.6166 89.5323 55.7272ZM89.6128 55.5305C89.6125 55.5298 89.6163 55.5295 89.6247 55.5312C89.6172 55.532 89.613 55.5311 89.6128 55.5305ZM88.6744 60.3625C89.0558 60.3546 89.3713 60.6574 89.3793 61.039C89.4196 62.9746 90.5729 67.0604 94.7022 68.281C95.0681 68.3891 95.277 68.7735 95.1689 69.1395C95.0608 69.5055 94.6767 69.7145 94.3108 69.6064C89.3386 68.1366 88.0441 63.2714 87.9983 61.0678C87.9903 60.6862 88.293 60.3705 88.6744 60.3625Z" fill="#D96E51"/>
<path d="M168.456 601.863C158.217 609.521 147.598 610.831 143.634 610.53L144.927 615.057C150.719 616.713 163.285 610.702 168.715 607.555L168.456 601.863Z" fill="#9D6F5A"/>
<path d="M104.849 280.739L107.225 278.361L109.602 280.739L107.225 283.117L104.849 280.739Z" fill="#F3DE9D"/>
<path d="M112.605 280.739L114.982 278.361L117.359 280.739L114.982 283.117L112.605 280.739Z" fill="#F3DE9D"/>
<path d="M120.363 280.739L122.74 278.361L125.117 280.739L122.74 283.117L120.363 280.739Z" fill="#F3DE9D"/>
<path d="M128.12 280.739L130.497 278.361L132.874 280.739L130.497 283.117L128.12 280.739Z" fill="#F3DE9D"/>
<path d="M135.877 280.739L138.254 278.361L140.631 280.739L138.254 283.117L135.877 280.739Z" fill="#F3DE9D"/>
<path d="M143.634 280.739L146.011 278.361L148.387 280.739L146.011 283.117L143.634 280.739Z" fill="#F3DE9D"/>
<path d="M151.649 280.222L154.026 277.844L156.403 280.222L154.026 282.6L151.649 280.222Z" fill="#F3DE9D"/>
<path d="M159.406 279.445L161.783 277.067L164.16 279.445L161.783 281.823L159.406 279.445Z" fill="#F3DE9D"/>
<path d="M223.588 293.404C241.766 291.082 288.415 248.153 305.873 230.687H275.477L258.234 245.842C248.781 252.237 228.422 249.195 205.217 245.842C182.012 242.488 177.705 267.145 179.317 276.55C187.374 280.366 205.411 295.726 223.588 293.404Z" fill="#ED9C6F"/>
<path d="M126.568 507.697C113.019 530.566 132.214 585.868 143.504 610.66C147.435 611.28 154.45 609.107 157.467 607.943L149.322 529.428L126.568 507.697Z" fill="#F3DF9E"/>
<path d="M148.804 529.428L165.482 510.931C166.764 507.687 172.849 506.06 174.074 500.852C174.126 497.555 174.167 496.516 174.273 498.384C174.325 499.29 174.249 500.108 174.074 500.852C173.875 513.532 173.51 559.596 168.585 601.994C165.482 603.891 157.647 608.616 155.269 608.72L148.804 529.428Z" fill="#E3B67E"/>
<path d="M88.1704 527.876L86.4899 610.789H76.148C52.9803 558.739 61.5815 521.021 69.9419 508.732L88.1704 527.876Z" fill="#E3B67E"/>
<path d="M190.434 626.44C191.675 632.649 168.025 645.929 156.045 651.793L163.673 653.992C169.775 652.233 187.849 637.651 196.123 630.58L190.434 626.44Z" fill="#9D6F5A"/>
<g clip-path="url(#clip0_5153_12295)">
<path d="M254.814 225.587C252.126 232.519 252.059 245.462 252.361 251.067L267.099 239.428C263.823 237.358 258.254 231.692 262.184 225.588C266.113 219.483 263.82 216.49 262.182 215.757C260.846 216.145 257.503 218.654 254.814 225.587Z" fill="#E18356"/>
<path fill-rule="evenodd" clip-rule="evenodd" d="M219.543 159.761L286.156 188.465C287.077 188.862 287.55 190.049 287.153 190.97C286.717 191.984 285.57 192.364 284.649 191.967L218.035 163.263C217.022 162.827 216.602 161.772 217.038 160.758C217.435 159.837 218.529 159.325 219.543 159.761Z" fill="url(#paint19_linear_5153_12295)"/>
<path d="M219.701 159.393L286.315 188.096C286.867 188.334 287.302 188.849 287.512 189.377C287.722 189.904 287.668 190.536 287.43 191.089C287.191 191.643 286.769 192.116 286.243 192.326C285.715 192.536 285.044 192.574 284.491 192.336L217.877 163.632C217.324 163.394 216.89 162.88 216.68 162.352C216.47 161.824 216.431 161.153 216.67 160.599C216.908 160.046 217.422 159.612 217.949 159.402C218.477 159.192 219.148 159.154 219.701 159.393ZM286.037 188.743L219.423 160.039C219.054 159.88 218.606 159.906 218.211 160.063C217.816 160.221 217.473 160.51 217.314 160.878C217.155 161.247 217.18 161.695 217.339 162.091C217.496 162.486 217.785 162.83 218.154 162.989L284.768 191.692C285.136 191.851 285.584 191.826 285.979 191.668C286.374 191.511 286.626 191.182 286.784 190.813C286.943 190.444 287.009 190.036 286.852 189.64C286.695 189.245 286.406 188.901 286.037 188.743Z" fill="url(#paint20_linear_5153_12295)"/>
<path fill-rule="evenodd" clip-rule="evenodd" d="M250.052 164.497L220.861 232.329C220.584 232.974 219.833 233.197 219.187 232.919C218.542 232.641 218.187 231.941 218.465 231.296L247.656 163.464C247.933 162.819 248.723 162.505 249.369 162.783C250.014 163.061 250.33 163.852 250.052 164.497Z" fill="url(#paint21_linear_5153_12295)"/>
<path d="M250.42 164.656L221.229 232.488C221.071 232.857 220.728 233.146 220.332 233.303C219.937 233.46 219.489 233.486 219.028 233.288C218.659 233.129 218.37 232.786 218.213 232.39C218.056 231.994 218.029 231.546 218.188 231.177L247.379 163.345C247.577 162.884 247.921 162.595 248.316 162.438C248.711 162.28 249.12 162.347 249.488 162.505C249.949 162.704 250.278 162.955 250.435 163.351C250.593 163.746 250.619 164.194 250.42 164.656ZM220.493 232.169L249.683 164.338C249.802 164.062 249.789 163.837 249.776 163.613C249.632 163.442 249.486 163.271 249.21 163.152C249.026 163.073 248.709 163.046 248.579 163.097C248.315 163.201 248.144 163.347 248.025 163.623L218.834 231.456C218.755 231.639 218.768 231.864 218.873 232.127C218.885 232.352 219.122 232.562 219.306 232.641C219.582 232.76 219.807 232.747 220.07 232.643C220.241 232.499 220.413 232.354 220.492 232.17L220.493 232.169Z" fill="url(#paint22_linear_5153_12295)"/>
<path fill-rule="evenodd" clip-rule="evenodd" d="M243.063 161.704L214.031 229.167C213.714 229.905 212.924 230.219 212.186 229.901C211.449 229.584 211.135 228.793 211.452 228.056L240.484 160.592C240.802 159.855 241.631 159.448 242.369 159.766C243.106 160.083 243.38 160.966 243.063 161.704Z" fill="url(#paint23_linear_5153_12295)"/>
<path d="M243.432 161.862L214.4 229.326C214.202 229.787 213.858 230.076 213.424 230.324C212.936 230.442 212.488 230.468 212.027 230.269C211.566 230.071 211.276 229.728 211.027 229.292C210.91 228.804 210.883 228.355 211.081 227.896L240.113 160.432C240.312 159.971 240.695 159.591 241.09 159.433C241.577 159.316 242.025 159.29 242.487 159.488C242.948 159.687 243.237 160.03 243.486 160.466C243.644 160.861 243.63 161.402 243.432 161.862ZM213.755 229.048L242.788 161.584C242.906 161.308 242.933 160.992 242.829 160.728C242.723 160.464 242.486 160.253 242.21 160.134C241.934 160.015 241.618 159.989 241.354 160.093C241.09 160.196 240.88 160.435 240.761 160.711L211.729 228.175C211.61 228.451 211.583 228.767 211.687 229.031C211.793 229.296 212.03 229.506 212.306 229.625C212.582 229.744 212.898 229.77 213.162 229.666C213.425 229.562 213.636 229.324 213.755 229.048Z" fill="url(#paint24_linear_5153_12295)"/>
<path fill-rule="evenodd" clip-rule="evenodd" d="M264.056 170.531L234.866 238.363C234.588 239.008 233.928 239.271 233.191 238.953C232.547 238.675 232.284 238.015 232.561 237.37L261.752 169.538C262.03 168.893 262.729 168.54 263.373 168.817C264.111 169.135 264.334 169.886 264.056 170.531Z" fill="url(#paint25_linear_5153_12295)"/>
<path d="M264.425 170.69L235.234 238.522C235.076 238.891 234.732 239.18 234.337 239.337C233.942 239.494 233.494 239.52 233.033 239.322C232.664 239.163 232.375 238.82 232.218 238.424C232.061 238.029 232.034 237.58 232.193 237.211L261.384 169.379C261.582 168.918 261.926 168.629 262.321 168.472C262.716 168.314 263.124 168.381 263.493 168.54C263.954 168.738 264.283 168.99 264.44 169.385C264.597 169.78 264.624 170.228 264.425 170.69ZM234.59 238.243L263.78 170.412C263.899 170.136 263.886 169.911 263.782 169.648C263.638 169.476 263.492 169.305 263.216 169.186C263.033 169.107 262.808 169.12 262.585 169.132C262.321 169.236 262.15 169.382 262.031 169.658L232.84 237.49C232.761 237.674 232.774 237.899 232.879 238.162C232.983 238.426 233.129 238.597 233.312 238.676C233.588 238.795 233.813 238.782 234.076 238.678C234.34 238.574 234.511 238.428 234.59 238.244L234.59 238.243Z" fill="url(#paint26_linear_5153_12295)"/>
<path fill-rule="evenodd" clip-rule="evenodd" d="M257.161 167.778L228.128 235.241C227.811 235.979 226.929 236.253 226.191 235.936C225.454 235.618 225.14 234.828 225.457 234.09L254.489 166.627C254.806 165.889 255.636 165.482 256.373 165.8C257.111 166.117 257.478 167.04 257.161 167.778Z" fill="url(#paint27_linear_5153_12295)"/>
<path d="M257.437 167.897L228.405 235.36C228.206 235.821 227.864 236.111 227.428 236.359C227.033 236.516 226.493 236.502 226.031 236.304C225.57 236.105 225.281 235.763 225.124 235.366C225.007 234.878 224.889 234.391 225.087 233.931L254.119 166.467C254.318 166.006 254.792 165.665 255.187 165.508C255.582 165.351 256.03 165.324 256.491 165.523C256.952 165.722 257.333 166.104 257.491 166.501C257.648 166.896 257.635 167.437 257.437 167.897ZM227.76 235.082L256.792 167.619C256.911 167.343 256.937 167.027 256.833 166.762C256.727 166.499 256.491 166.288 256.215 166.169C255.939 166.05 255.714 166.062 255.451 166.167C255.187 166.271 254.977 166.509 254.858 166.785L225.826 234.249C225.707 234.525 225.68 234.841 225.784 235.105C225.888 235.37 226.034 235.54 226.31 235.659C226.586 235.778 226.902 235.805 227.166 235.701C227.429 235.596 227.641 235.359 227.76 235.082Z" fill="url(#paint28_linear_5153_12295)"/>
<path fill-rule="evenodd" clip-rule="evenodd" d="M271.164 173.812L242.132 241.275C241.815 242.013 241.025 242.327 240.288 242.01C239.55 241.692 239.143 240.862 239.461 240.124L268.493 172.661C268.81 171.923 269.733 171.556 270.47 171.874C271.207 172.191 271.482 173.074 271.164 173.812Z" fill="url(#paint29_linear_5153_12295)"/>
<path d="M271.441 173.931L242.409 241.394C242.211 241.855 241.867 242.144 241.433 242.393C241.038 242.55 240.59 242.576 240.128 242.378C239.667 242.179 239.287 241.797 239.129 241.4C239.011 240.912 238.985 240.464 239.183 240.004L268.215 172.54C268.413 172.079 268.795 171.698 269.191 171.542C269.586 171.385 270.127 171.398 270.588 171.597C271.049 171.796 271.339 172.138 271.495 172.535C271.653 172.93 271.639 173.471 271.441 173.931ZM241.764 241.116L270.797 173.653C270.915 173.377 270.942 173.061 270.838 172.796C270.733 172.534 270.588 172.361 270.312 172.242C270.036 172.123 269.72 172.097 269.456 172.201C269.193 172.305 268.981 172.543 268.862 172.819L239.83 240.283C239.711 240.559 239.685 240.875 239.789 241.139C239.894 241.404 240.131 241.614 240.407 241.733C240.683 241.852 240.908 241.839 241.171 241.735C241.435 241.631 241.646 241.393 241.764 241.116Z" fill="url(#paint30_linear_5153_12295)"/>
<path fill-rule="evenodd" clip-rule="evenodd" d="M296.42 169.946C296.42 169.946 283.516 159.579 278.644 174.96C269.378 203.853 280.991 248.187 231.237 226.748C181.483 205.309 221.652 183.286 236.354 156.736C244.174 142.625 227.78 140.369 227.78 140.369L227.813 144.098C239.582 147.968 223.126 167.425 212.351 176.221C203.554 183.464 197.163 193.492 195.408 203.662C192.764 218.691 202.882 233.757 224.852 241.585C245.632 252.178 263.616 249.221 272.711 236.971C278.889 228.707 281.686 217.13 280.992 205.798C279.974 191.92 282.793 166.587 293.69 172.484L296.42 169.946Z" fill="url(#paint31_linear_5153_12295)"/>
<path d="M295.839 170.024C293.866 168.518 283.222 161.527 278.919 175.078C276.629 182.176 275.694 190.185 274.655 197.932C273.626 206.666 272.533 215.045 269.796 221.403C264.998 232.554 255.125 237.477 231.077 227.115C207.029 216.753 203.819 206.193 208.618 195.041C211.355 188.682 216.779 182.169 222.32 175.381C227.321 169.343 232.402 163.119 236.074 156.616C242.959 144.178 230.57 141.243 228.12 140.843L228.155 143.808C228.984 144.166 229.773 144.615 230.339 145.077C232.088 146.595 232.572 148.77 232.001 151.364C231.431 153.959 229.977 156.829 227.944 159.777C223.89 165.896 217.611 172.368 212.546 176.523C208.168 180.099 204.329 184.453 201.41 189.205C198.571 193.772 196.654 198.736 195.684 203.781C194.407 211.316 196.371 218.935 201.562 225.652C206.465 232.026 214.372 237.509 224.969 241.311L225.062 241.351C235.104 246.442 244.425 248.383 252.515 247.608C260.867 246.727 267.841 242.958 272.341 236.812C275.43 232.68 277.625 227.836 278.99 222.633C280.434 217.246 281.049 211.503 280.545 205.823C280.174 199.326 280.464 190.274 282.123 183.123C282.959 179.659 284.043 176.631 285.535 174.432C287.027 172.235 288.846 171.052 291.242 171.32C291.967 171.413 292.743 171.639 293.664 172.036L295.841 170.024L295.839 170.024ZM278.236 174.893C283.346 158.958 296.539 169.669 296.539 169.669L296.868 169.92L293.714 172.932L293.529 172.852C292.648 172.363 291.911 172.045 291.147 172.044C289.066 171.802 287.418 172.84 286.098 174.894C284.685 176.907 283.64 179.844 282.844 183.216C281.187 190.368 280.842 199.287 281.306 205.824C281.678 211.557 281.155 217.339 279.671 222.818C278.267 228.112 276.033 233.05 272.944 237.18C268.232 243.562 261.179 247.515 252.551 248.276C244.463 249.053 234.917 247.125 224.692 241.952C214.003 238.111 206.043 232.498 201.048 226.084C195.671 219.288 193.695 211.445 194.999 203.594C195.876 198.509 197.925 193.492 200.804 188.834C203.762 183.991 207.694 179.675 212.112 176.008C217.176 171.853 223.324 165.435 227.469 159.355C229.37 156.459 230.784 153.682 231.275 151.271C231.766 148.86 231.387 146.95 229.875 145.642C229.349 145.088 228.612 144.77 227.651 144.466L227.375 144.347L227.396 139.985L227.805 140.051C227.897 140.091 244.739 142.323 236.681 156.987C233.009 163.489 227.888 169.805 222.887 175.843C217.344 182.632 211.961 189.053 209.264 195.32C204.624 206.102 207.861 216.347 231.356 226.471C254.85 236.595 264.513 231.908 269.153 221.126C271.85 214.859 272.904 206.572 274.024 197.878C274.971 190.093 275.946 181.99 278.236 174.893Z" fill="url(#paint32_linear_5153_12295)"/>
<path fill-rule="evenodd" clip-rule="evenodd" d="M294.96 168.771C291.92 167.461 288.402 168.785 287.093 171.826C285.784 174.867 287.201 178.427 290.241 179.737C293.281 181.047 296.747 179.591 298.056 176.55C299.365 173.509 298 170.081 294.96 168.771Z" fill="url(#paint33_linear_5153_12295)"/>
<path d="M294.841 169.047C293.367 168.411 291.84 168.408 290.481 169.026C289.163 169.55 288.054 170.603 287.459 171.985C286.825 173.46 286.822 174.988 287.347 176.308C287.871 177.626 288.924 178.736 290.398 179.371C291.78 179.966 293.307 179.97 294.627 179.445C296.036 178.96 297.146 177.907 297.78 176.433C298.375 175.05 298.378 173.522 297.76 172.163C297.276 170.752 296.223 169.642 294.841 169.047ZM290.218 168.366C291.8 167.736 293.459 167.687 295.117 168.401C296.683 169.076 297.88 170.356 298.417 171.899C299.087 173.389 299.097 175.142 298.423 176.708C297.709 178.366 296.47 179.471 294.888 180.101C293.438 180.678 291.686 180.687 290.121 180.013C288.463 179.298 287.358 178.058 286.689 176.568C286.151 175.025 286.101 173.365 286.815 171.706C287.489 170.14 288.768 168.943 290.218 168.366Z" fill="url(#paint34_linear_5153_12295)"/>
<path fill-rule="evenodd" clip-rule="evenodd" d="M243.479 157.183C244.953 157.818 245.674 159.44 245.039 160.915C244.405 162.39 242.691 163.071 241.218 162.436C239.745 161.802 239.153 160.127 239.788 158.652C240.422 157.177 242.004 156.548 243.479 157.183Z" fill="url(#paint35_linear_5153_12295)"/>
<path d="M243.636 156.815C244.466 157.172 245.043 157.858 245.398 158.558C245.713 159.348 245.673 160.205 245.316 161.035C244.959 161.865 244.366 162.482 243.574 162.797C242.784 163.112 241.927 163.072 241.098 162.714C240.268 162.357 239.65 161.763 239.336 160.971C239.112 160.22 239.061 159.324 239.418 158.494C239.775 157.664 240.461 157.086 241.12 156.824C241.91 156.509 242.806 156.458 243.636 156.816L243.636 156.815ZM244.74 158.821C244.438 158.253 244.004 157.739 243.36 157.461C242.715 157.184 242.042 157.221 241.424 157.392C240.857 157.694 240.343 158.128 240.066 158.773C239.788 159.418 239.826 160.089 239.997 160.709C240.299 161.276 240.732 161.791 241.377 162.068C242.022 162.346 242.694 162.309 243.313 162.138C243.88 161.836 244.394 161.402 244.671 160.757C244.949 160.112 244.911 159.44 244.74 158.821Z" fill="url(#paint36_linear_5153_12295)"/>
<path fill-rule="evenodd" clip-rule="evenodd" d="M250.481 160.201C251.955 160.836 252.676 162.458 252.041 163.933C251.407 165.408 249.693 166.089 248.22 165.454C246.747 164.819 246.155 163.145 246.79 161.67C247.424 160.195 249.006 159.565 250.481 160.201Z" fill="url(#paint37_linear_5153_12295)"/>
<path d="M250.639 159.832C251.469 160.189 252.046 160.875 252.401 161.575C252.715 162.365 252.676 163.222 252.318 164.052C251.961 164.882 251.368 165.499 250.576 165.814C249.787 166.129 248.93 166.089 248.1 165.731C247.27 165.374 246.652 164.78 246.431 164.028C246.116 163.238 246.065 162.341 246.422 161.511C246.779 160.681 247.465 160.104 248.215 159.881C248.914 159.527 249.81 159.476 250.638 159.833L250.639 159.832ZM251.743 161.838C251.44 161.27 251.007 160.756 250.362 160.478C249.717 160.201 249.045 160.238 248.427 160.409C247.859 160.711 247.346 161.145 247.068 161.79C246.791 162.435 246.829 163.106 246.999 163.726C247.301 164.293 247.735 164.808 248.38 165.085C249.024 165.363 249.697 165.326 250.315 165.155C250.882 164.853 251.396 164.419 251.674 163.774C251.951 163.129 251.913 162.457 251.743 161.838Z" fill="url(#paint38_linear_5153_12295)"/>
<path fill-rule="evenodd" clip-rule="evenodd" d="M257.485 163.218C258.959 163.854 259.68 165.476 259.045 166.95C258.411 168.425 256.697 169.106 255.224 168.472C253.842 167.876 253.159 166.162 253.794 164.687C254.428 163.213 256.103 162.623 257.485 163.218Z" fill="url(#paint39_linear_5153_12295)"/>
<path d="M257.643 162.85C258.473 163.208 259.051 163.894 259.405 164.593C259.719 165.384 259.679 166.241 259.322 167.071C258.965 167.901 258.372 168.518 257.58 168.833C256.79 169.147 255.934 169.107 255.104 168.75C254.367 168.432 253.656 167.798 253.435 167.046C253.12 166.256 253.069 165.36 253.426 164.53C253.783 163.7 254.468 163.123 255.219 162.899C255.918 162.546 256.905 162.534 257.642 162.852L257.643 162.85ZM258.745 164.856C258.535 164.328 258.009 163.774 257.365 163.496C256.72 163.219 256.048 163.256 255.52 163.466C254.861 163.729 254.347 164.162 254.069 164.807C253.792 165.452 253.83 166.123 254.093 166.783C254.303 167.311 254.736 167.825 255.382 168.103C256.028 168.382 256.791 168.383 257.318 168.173C257.977 167.91 258.399 167.437 258.676 166.792C258.954 166.147 259.008 165.514 258.745 164.856Z" fill="url(#paint40_linear_5153_12295)"/>
<path fill-rule="evenodd" clip-rule="evenodd" d="M264.487 166.236C265.961 166.871 266.682 168.493 266.047 169.968C265.413 171.443 263.699 172.124 262.226 171.489C260.844 170.894 260.161 169.18 260.796 167.705C261.43 166.23 263.105 165.64 264.487 166.236Z" fill="url(#paint41_linear_5153_12295)"/>
<path d="M264.645 165.867C265.475 166.224 266.053 166.911 266.407 167.61C266.721 168.4 266.773 169.297 266.415 170.126C266.058 170.956 265.373 171.534 264.582 171.849C263.792 172.164 262.936 172.124 262.106 171.766C261.369 171.449 260.75 170.855 260.436 170.063C260.122 169.273 260.071 168.376 260.428 167.546C260.785 166.716 261.47 166.139 262.221 165.916C263.011 165.601 263.907 165.55 264.644 165.868L264.645 165.867ZM265.747 167.872C265.537 167.345 265.011 166.791 264.367 166.513C263.814 166.275 263.05 166.273 262.524 166.483C261.864 166.746 261.35 167.179 261.073 167.824C260.795 168.469 260.833 169.141 261.096 169.8C261.306 170.328 261.832 170.882 262.384 171.12C263.029 171.398 263.792 171.399 264.32 171.19C264.979 170.927 265.493 170.494 265.771 169.849C266.048 169.204 266.01 168.531 265.747 167.872Z" fill="url(#paint42_linear_5153_12295)"/>
<path fill-rule="evenodd" clip-rule="evenodd" d="M271.58 169.293C272.962 169.888 273.684 171.511 273.049 172.986C272.414 174.46 270.701 175.141 269.319 174.546C267.845 173.911 267.163 172.198 267.797 170.723C268.432 169.248 270.107 168.658 271.58 169.293Z" fill="url(#paint43_linear_5153_12295)"/>
<path d="M271.738 168.924C272.475 169.242 273.146 169.968 273.407 170.627C273.722 171.418 273.773 172.314 273.416 173.144C273.059 173.974 272.374 174.551 271.583 174.867C270.884 175.221 269.936 175.141 269.199 174.823C268.369 174.466 267.751 173.872 267.437 173.08C267.123 172.29 267.163 171.433 267.52 170.603C267.877 169.773 268.47 169.156 269.222 168.933C270.012 168.619 270.908 168.568 271.737 168.925L271.738 168.924ZM272.749 170.89C272.539 170.363 272.106 169.849 271.46 169.57C270.814 169.292 270.052 169.291 269.524 169.501C268.865 169.763 268.443 170.237 268.166 170.881C267.888 171.526 267.834 172.158 268.097 172.818C268.307 173.345 268.833 173.899 269.477 174.177C270.122 174.455 270.794 174.417 271.322 174.207C271.981 173.945 272.495 173.512 272.773 172.867C273.05 172.222 273.012 171.549 272.749 170.89Z" fill="url(#paint44_linear_5153_12295)"/>
<path fill-rule="evenodd" clip-rule="evenodd" d="M202.873 238.343L240.557 254.581C244.242 256.168 245.974 260.52 244.388 264.207L241.453 271.026L190.226 248.953L193.16 242.133C194.746 238.448 199.188 236.755 202.874 238.343L202.873 238.343Z" fill="url(#paint45_linear_5153_12295)"/>
<path d="M203.032 237.974L240.716 254.212C242.65 255.045 244.044 256.63 244.78 258.476C245.514 260.321 245.59 262.43 244.757 264.366L241.703 271.463L189.829 249.111L192.883 242.014C193.716 240.079 195.299 238.685 197.144 237.95C198.898 237.176 201.097 237.14 203.032 237.974ZM240.439 254.857L202.755 238.619C201.004 237.865 199.029 237.888 197.408 238.609C195.693 239.291 194.284 240.54 193.53 242.291L190.754 248.743L241.336 270.539L244.113 264.087C244.866 262.336 244.803 260.452 244.122 258.738C243.532 257.062 242.191 255.612 240.44 254.857L240.439 254.857Z" fill="url(#paint46_linear_5153_12295)"/>
<path fill-rule="evenodd" clip-rule="evenodd" d="M229.03 140.252C232.07 141.562 233.487 145.122 232.179 148.163C230.87 151.204 227.311 152.621 224.271 151.311C221.231 150.001 219.905 146.481 221.214 143.439C222.523 140.396 225.989 138.941 229.03 140.252Z" fill="url(#paint47_linear_5153_12295)"/>
<path d="M229.15 139.976C230.808 140.69 232.005 141.97 232.582 143.421C233.119 144.963 233.222 146.756 232.548 148.322C231.874 149.888 230.502 151.045 229.012 151.715C227.563 152.292 225.811 152.301 224.153 151.587C222.587 150.912 221.39 149.632 220.813 148.182C220.183 146.599 220.173 144.846 220.847 143.28C221.521 141.714 222.801 140.517 224.383 139.887C225.831 139.31 227.583 139.3 229.15 139.976ZM231.922 143.683C231.398 142.365 230.345 141.255 228.871 140.62C227.489 140.024 225.962 140.021 224.642 140.546C223.285 141.163 222.084 142.175 221.489 143.557C220.855 145.032 220.944 146.599 221.47 147.919C221.994 149.237 223.047 150.347 224.428 150.943C225.903 151.578 227.43 151.581 228.749 151.056C230.067 150.532 231.267 149.518 231.902 148.044C232.496 146.661 232.407 145.093 231.922 143.683Z" fill="url(#paint48_linear_5153_12295)"/>
<path d="M239.068 246.619L209.585 233.915L206.928 240.089L236.411 252.794L239.068 246.619Z" fill="url(#paint49_linear_5153_12295)"/>
<path d="M209.744 233.547L239.596 246.41L236.661 253.231L206.533 240.248L209.468 233.428L209.744 233.547ZM238.672 246.776L209.834 234.35L207.454 239.879L236.293 252.306L238.672 246.776Z" fill="url(#paint50_linear_5153_12295)"/>
<path d="M201.88 205.65C199.544 204.239 198.929 203.044 198.927 200.267C197.665 202.691 196.53 203.401 193.547 203.22C196.13 204.751 196.64 205.986 196.5 208.603C198.03 206.498 198.903 205.345 201.88 205.65Z" fill="#FFF2C3"/>
<path d="M266.467 180.076C264.131 178.666 263.516 177.471 263.514 174.693C262.252 177.118 261.117 177.828 258.134 177.646C260.717 179.178 261.227 180.412 261.087 183.029C262.617 180.925 263.49 179.772 266.467 180.076Z" fill="#FFF2C3"/>
</g>
<path d="M281.031 206.31C287.802 208.481 300.982 220.886 306.726 226.817C308.66 232.848 299.873 234.557 295.238 234.658C292.094 238.759 287.48 238.377 285.565 237.673C283.147 244.187 278.713 245.615 276.799 245.514C271.76 240.187 265.432 233.019 263.497 230.847C261.079 228.133 263.387 223.592 269.13 223.592C269.901 223.592 270.672 223.759 271.442 224.062C268.141 221.02 265.111 218.26 263.497 216.865C258.963 212.944 263.497 209.929 268.032 209.929C272.566 209.929 297.052 231.642 295.238 229.531C293.787 227.842 282.341 217.971 276.799 213.246C273.413 206.491 278.209 205.807 281.031 206.31Z" fill="#ED9C6F"/>
<path d="M97.6087 609.366C93.1613 611.022 80.888 610.573 75.7598 609.884L77.699 614.799C79.871 616.558 92.739 615.532 98.7722 614.799L97.6087 609.366Z" fill="#9D6F5A"/>
<path d="M104.332 644.42C103.918 639.764 86.5766 624.802 78.087 617.774L77.0527 622.56C80.5692 623.388 97.221 640.238 105.107 648.56L104.332 644.42Z" fill="#9D6F5A"/>
<path fill-rule="evenodd" clip-rule="evenodd" d="M87.8116 60.7291C88.3822 60.8035 88.8798 61.0497 89.1842 61.2628C89.5748 61.5364 89.6698 62.075 89.3963 62.4658C89.1229 62.8566 88.5846 62.9516 88.194 62.6781C88.0674 62.5894 87.8281 62.4734 87.5885 62.4421C87.3738 62.4142 87.2263 62.4566 87.1017 62.5812C86.7646 62.9185 86.2179 62.9185 85.8808 62.5812C85.5436 62.2439 85.5436 61.697 85.8808 61.3597C86.4803 60.7599 87.2162 60.6515 87.8116 60.7291Z" fill="#F8F2AC"/>
<path fill-rule="evenodd" clip-rule="evenodd" d="M88.0758 63.5341C88.6201 63.3473 89.1752 63.3469 89.5425 63.4026C90.0139 63.4743 90.338 63.9147 90.2665 64.3863C90.1949 64.8579 89.7547 65.1822 89.2833 65.1106C89.1305 65.0874 88.8647 65.0897 88.6361 65.1682C88.4313 65.2385 88.3179 65.3421 88.2616 65.509C88.1092 65.961 87.6194 66.2039 87.1676 66.0514C86.7158 65.8989 86.4731 65.4088 86.6256 64.9568C86.8965 64.1531 87.5078 63.7291 88.0758 63.5341Z" fill="#F8F2AC"/>
<path d="M87.9133 527.746L86.4912 610.53H92.1797L97.8682 609.366L109.116 517.398L87.9133 527.746Z" fill="#F3DF9E"/>
<path fill-rule="evenodd" clip-rule="evenodd" d="M142.742 59.4038C143.219 59.4074 143.603 59.797 143.599 60.274L143.585 62.1033C143.582 62.5803 143.192 62.9641 142.715 62.9605C142.239 62.9569 141.855 62.5673 141.859 62.0902L141.872 60.261C141.876 59.784 142.265 59.4002 142.742 59.4038Z" fill="#402020"/>
<path fill-rule="evenodd" clip-rule="evenodd" d="M120.773 58.3784C121.25 58.382 121.634 58.7716 121.63 59.2487L121.616 61.0779C121.613 61.5549 121.223 61.9387 120.747 61.9351C120.27 61.9315 119.886 61.5419 119.89 61.0648L119.904 59.2356C119.907 58.7586 120.297 58.3748 120.773 58.3784Z" fill="#402020"/>
<path d="M38.3374 132.01C35.4582 131.385 34.4488 130.515 33.5993 128.137C33.0158 130.529 32.0428 131.421 28.8613 132.01C32.0358 132.677 32.9467 133.607 33.5993 135.884C34.5602 133.699 35.1237 132.493 38.3374 132.01Z" fill="#F7B18A"/>
<path d="M44.5646 203.837C40.7805 203.016 39.4539 201.872 38.3375 198.746C37.5705 201.89 36.2918 203.062 32.1104 203.837C36.2825 204.714 37.4796 205.936 38.3375 208.928C39.6003 206.057 40.3409 204.472 44.5646 203.837Z" fill="#F7B18A"/>
<path d="M105.483 432.818C99.642 431.55 97.5944 429.785 95.8712 424.96C94.6874 429.812 92.7137 431.622 86.2598 432.818C92.6994 434.171 94.5471 436.057 95.8712 440.675C97.8203 436.244 98.9635 433.797 105.483 432.818Z" fill="#FFF2C3"/>
<path d="M171.503 432.094C165.544 431.272 163.306 429.668 161.047 424.993C160.415 429.914 158.653 431.865 152.361 433.541C158.926 434.404 160.978 436.143 162.817 440.642C164.259 436.082 165.121 433.56 171.503 432.094Z" fill="#FFF2C3"/>
<path opacity="0.7" d="M84.0938 94.2706C80.3098 93.4494 78.9832 92.3057 77.8667 89.1797C77.0998 92.3234 75.8211 93.496 71.6396 94.2706C75.8118 95.1473 77.0089 96.3693 77.8667 99.3616C79.1296 96.4903 79.8702 94.9051 84.0938 94.2706Z" fill="#C64977"/>
<path opacity="0.7" d="M69.4737 326.019C65.6897 325.197 64.3631 324.054 63.2466 320.928C62.4797 324.071 61.2009 325.244 57.0195 326.019C61.1917 326.895 62.3888 328.117 63.2466 331.11C64.5095 328.238 65.2501 326.653 69.4737 326.019Z" fill="#C64977"/>
<defs>
<filter id="filter0_f_5153_12295" x="96.7432" y="41.3115" width="67.4082" height="59.1436" filterUnits="userSpaceOnUse" color-interpolation-filters="sRGB">
<feFlood flood-opacity="0" result="BackgroundImageFix"/>
<feBlend mode="normal" in="SourceGraphic" in2="BackgroundImageFix" result="shape"/>
<feGaussianBlur stdDeviation="10" result="effect1_foregroundBlur_5153_12295"/>
</filter>
<linearGradient id="paint0_linear_5153_12295" x1="142.341" y1="156.643" x2="69.7526" y2="4.16806" gradientUnits="userSpaceOnUse">
<stop stop-color="#EC9B6E"/>
<stop offset="1" stop-color="#BE4113"/>
</linearGradient>
<linearGradient id="paint1_linear_5153_12295" x1="142.341" y1="156.643" x2="69.7526" y2="4.16806" gradientUnits="userSpaceOnUse">
<stop stop-color="#EC9B6E"/>
<stop offset="1" stop-color="#BE4113"/>
</linearGradient>
<linearGradient id="paint2_linear_5153_12295" x1="24.1757" y1="214.979" x2="74.4677" y2="220.794" gradientUnits="userSpaceOnUse">
<stop stop-color="#F4C78A"/>
<stop offset="0.573674" stop-color="#F09562"/>
</linearGradient>
<linearGradient id="paint3_linear_5153_12295" x1="81.1903" y1="118.226" x2="81.1903" y2="475.489" gradientUnits="userSpaceOnUse">
<stop stop-color="#C13E2D"/>
<stop offset="1" stop-color="#5B1615"/>
</linearGradient>
<linearGradient id="paint4_linear_5153_12295" x1="60.5052" y1="115.639" x2="51.2734" y2="149.686" gradientUnits="userSpaceOnUse">
<stop stop-color="#F7F1AB"/>
<stop offset="1" stop-color="#F09562"/>
</linearGradient>
<linearGradient id="paint5_linear_5153_12295" x1="90.2398" y1="17.332" x2="71.5232" y2="57.1508" gradientUnits="userSpaceOnUse">
<stop stop-color="#F1DA9A"/>
<stop offset="1" stop-color="#CA7349"/>
</linearGradient>
<linearGradient id="paint6_linear_5153_12295" x1="99.4133" y1="29.7246" x2="76.8437" y2="48.7629" gradientUnits="userSpaceOnUse">
<stop stop-color="#F1DA9A"/>
<stop offset="1" stop-color="#CA7349"/>
</linearGradient>
<linearGradient id="paint7_linear_5153_12295" x1="103.95" y1="6.51599" x2="75.0251" y2="32.2161" gradientUnits="userSpaceOnUse">
<stop stop-color="#F1DA9A"/>
<stop offset="1" stop-color="#CA7349"/>
</linearGradient>
<linearGradient id="paint8_linear_5153_12295" x1="107.075" y1="19.7158" x2="82.2365" y2="27.2886" gradientUnits="userSpaceOnUse">
<stop stop-color="#F1DA9A"/>
<stop offset="1" stop-color="#CA7349"/>
</linearGradient>
<linearGradient id="paint9_linear_5153_12295" x1="115.509" y1="3.8111" x2="88.7773" y2="14.9928" gradientUnits="userSpaceOnUse">
<stop stop-color="#F1DA9A"/>
<stop offset="1" stop-color="#CA7349"/>
</linearGradient>
<linearGradient id="paint10_linear_5153_12295" x1="114.519" y1="13.9221" x2="95.082" y2="13.2564" gradientUnits="userSpaceOnUse">
<stop stop-color="#F1DA9A"/>
<stop offset="1" stop-color="#CA7349"/>
</linearGradient>
<linearGradient id="paint11_linear_5153_12295" x1="171.96" y1="26.536" x2="171.65" y2="67.2619" gradientUnits="userSpaceOnUse">
<stop stop-color="#F1DA9A"/>
<stop offset="1" stop-color="#CA7349"/>
</linearGradient>
<linearGradient id="paint12_linear_5153_12295" x1="159.35" y1="33.2112" x2="170.574" y2="58.1394" gradientUnits="userSpaceOnUse">
<stop stop-color="#F1DA9A"/>
<stop offset="1" stop-color="#CA7349"/>
</linearGradient>
<linearGradient id="paint13_linear_5153_12295" x1="164.839" y1="12.0233" x2="178.702" y2="45.0564" gradientUnits="userSpaceOnUse">
<stop stop-color="#F1DA9A"/>
<stop offset="1" stop-color="#CA7349"/>
</linearGradient>
<linearGradient id="paint14_linear_5153_12295" x1="156.956" y1="21.7901" x2="174.668" y2="38.0428" gradientUnits="userSpaceOnUse">
<stop stop-color="#F1DA9A"/>
<stop offset="1" stop-color="#CA7349"/>
</linearGradient>
<linearGradient id="paint15_linear_5153_12295" x1="156.271" y1="5.14061" x2="174.121" y2="25.1645" gradientUnits="userSpaceOnUse">
<stop stop-color="#F1DA9A"/>
<stop offset="1" stop-color="#CA7349"/>
</linearGradient>
<linearGradient id="paint16_linear_5153_12295" x1="153.058" y1="13.9772" x2="169.552" y2="21.1888" gradientUnits="userSpaceOnUse">
<stop stop-color="#F1DA9A"/>
<stop offset="1" stop-color="#CA7349"/>
</linearGradient>
<linearGradient id="paint17_linear_5153_12295" x1="92.1789" y1="282.888" x2="109.52" y2="495.02" gradientUnits="userSpaceOnUse">
<stop stop-color="#76211C"/>
<stop offset="1" stop-color="#510D09"/>
</linearGradient>
<linearGradient id="paint18_linear_5153_12295" x1="75.1778" y1="293.882" x2="75.1778" y2="499.16" gradientUnits="userSpaceOnUse">
<stop stop-color="#F4E09F"/>
<stop offset="1" stop-color="#CA744A"/>
</linearGradient>
<linearGradient id="paint19_linear_5153_12295" x1="252.849" y1="174.113" x2="251.341" y2="177.614" gradientUnits="userSpaceOnUse">
<stop stop-color="#C5673F"/>
<stop offset="1" stop-color="#F8EDA9"/>
</linearGradient>
<linearGradient id="paint20_linear_5153_12295" x1="252.962" y1="173.725" x2="251.135" y2="177.963" gradientUnits="userSpaceOnUse">
<stop stop-color="#C5673F"/>
<stop offset="1" stop-color="#F8EDA9"/>
</linearGradient>
<linearGradient id="paint21_linear_5153_12295" x1="249.369" y1="162.783" x2="219.154" y2="232.905" gradientUnits="userSpaceOnUse">
<stop stop-color="#C5673F"/>
<stop offset="1" stop-color="#F8EDA9"/>
</linearGradient>
<linearGradient id="paint22_linear_5153_12295" x1="249.534" y1="162.525" x2="219.041" y2="233.293" gradientUnits="userSpaceOnUse">
<stop stop-color="#C5673F"/>
<stop offset="1" stop-color="#F8EDA9"/>
</linearGradient>
<linearGradient id="paint23_linear_5153_12295" x1="242.369" y1="159.766" x2="212.153" y2="229.887" gradientUnits="userSpaceOnUse">
<stop stop-color="#C5673F"/>
<stop offset="1" stop-color="#F8EDA9"/>
</linearGradient>
<linearGradient id="paint24_linear_5153_12295" x1="242.487" y1="159.488" x2="211.994" y2="230.255" gradientUnits="userSpaceOnUse">
<stop stop-color="#C5673F"/>
<stop offset="1" stop-color="#F8EDA9"/>
</linearGradient>
<linearGradient id="paint25_linear_5153_12295" x1="263.42" y1="168.837" x2="233.205" y2="238.959" gradientUnits="userSpaceOnUse">
<stop stop-color="#C5673F"/>
<stop offset="1" stop-color="#F8EDA9"/>
</linearGradient>
<linearGradient id="paint26_linear_5153_12295" x1="263.539" y1="168.56" x2="233.046" y2="239.327" gradientUnits="userSpaceOnUse">
<stop stop-color="#C5673F"/>
<stop offset="1" stop-color="#F8EDA9"/>
</linearGradient>
<linearGradient id="paint27_linear_5153_12295" x1="256.42" y1="165.82" x2="226.205" y2="235.941" gradientUnits="userSpaceOnUse">
<stop stop-color="#C5673F"/>
<stop offset="1" stop-color="#F8EDA9"/>
</linearGradient>
<linearGradient id="paint28_linear_5153_12295" x1="256.492" y1="165.523" x2="225.999" y2="236.29" gradientUnits="userSpaceOnUse">
<stop stop-color="#C5673F"/>
<stop offset="1" stop-color="#F8EDA9"/>
</linearGradient>
<linearGradient id="paint29_linear_5153_12295" x1="270.424" y1="171.854" x2="240.208" y2="241.975" gradientUnits="userSpaceOnUse">
<stop stop-color="#C5673F"/>
<stop offset="1" stop-color="#F8EDA9"/>
</linearGradient>
<linearGradient id="paint30_linear_5153_12295" x1="270.542" y1="171.577" x2="240.049" y2="242.343" gradientUnits="userSpaceOnUse">
<stop stop-color="#C5673F"/>
<stop offset="1" stop-color="#F8EDA9"/>
</linearGradient>
<linearGradient id="paint31_linear_5153_12295" x1="262.312" y1="154.643" x2="224.789" y2="241.724" gradientUnits="userSpaceOnUse">
<stop stop-color="#C5673F"/>
<stop offset="1" stop-color="#F8EDA9"/>
</linearGradient>
<linearGradient id="paint32_linear_5153_12295" x1="262.402" y1="154.32" x2="224.595" y2="242.062" gradientUnits="userSpaceOnUse">
<stop stop-color="#C5673F"/>
<stop offset="1" stop-color="#F8EDA9"/>
</linearGradient>
<linearGradient id="paint33_linear_5153_12295" x1="294.914" y1="168.751" x2="290.19" y2="179.715" gradientUnits="userSpaceOnUse">
<stop stop-color="#C5673F"/>
<stop offset="1" stop-color="#F8EDA9"/>
</linearGradient>
<linearGradient id="paint34_linear_5153_12295" x1="295.117" y1="168.401" x2="290.115" y2="180.01" gradientUnits="userSpaceOnUse">
<stop stop-color="#C5673F"/>
<stop offset="1" stop-color="#F8EDA9"/>
</linearGradient>
<linearGradient id="paint35_linear_5153_12295" x1="243.524" y1="157.203" x2="241.261" y2="162.455" gradientUnits="userSpaceOnUse">
<stop stop-color="#C5673F"/>
<stop offset="1" stop-color="#F8EDA9"/>
</linearGradient>
<linearGradient id="paint36_linear_5153_12295" x1="243.636" y1="156.815" x2="241.095" y2="162.713" gradientUnits="userSpaceOnUse">
<stop stop-color="#C5673F"/>
<stop offset="1" stop-color="#F8EDA9"/>
</linearGradient>
<linearGradient id="paint37_linear_5153_12295" x1="250.526" y1="160.22" x2="248.263" y2="165.473" gradientUnits="userSpaceOnUse">
<stop stop-color="#C5673F"/>
<stop offset="1" stop-color="#F8EDA9"/>
</linearGradient>
<linearGradient id="paint38_linear_5153_12295" x1="250.64" y1="159.832" x2="248.098" y2="165.73" gradientUnits="userSpaceOnUse">
<stop stop-color="#C5673F"/>
<stop offset="1" stop-color="#F8EDA9"/>
</linearGradient>
<linearGradient id="paint39_linear_5153_12295" x1="257.53" y1="163.238" x2="255.267" y2="168.49" gradientUnits="userSpaceOnUse">
<stop stop-color="#C5673F"/>
<stop offset="1" stop-color="#F8EDA9"/>
</linearGradient>
<linearGradient id="paint40_linear_5153_12295" x1="257.644" y1="162.85" x2="255.102" y2="168.749" gradientUnits="userSpaceOnUse">
<stop stop-color="#C5673F"/>
<stop offset="1" stop-color="#F8EDA9"/>
</linearGradient>
<linearGradient id="paint41_linear_5153_12295" x1="264.532" y1="166.255" x2="262.269" y2="171.508" gradientUnits="userSpaceOnUse">
<stop stop-color="#C5673F"/>
<stop offset="1" stop-color="#F8EDA9"/>
</linearGradient>
<linearGradient id="paint42_linear_5153_12295" x1="264.691" y1="165.887" x2="262.149" y2="171.785" gradientUnits="userSpaceOnUse">
<stop stop-color="#C5673F"/>
<stop offset="1" stop-color="#F8EDA9"/>
</linearGradient>
<linearGradient id="paint43_linear_5153_12295" x1="271.534" y1="169.273" x2="269.271" y2="174.525" gradientUnits="userSpaceOnUse">
<stop stop-color="#C5673F"/>
<stop offset="1" stop-color="#F8EDA9"/>
</linearGradient>
<linearGradient id="paint44_linear_5153_12295" x1="271.737" y1="168.924" x2="269.196" y2="174.822" gradientUnits="userSpaceOnUse">
<stop stop-color="#C5673F"/>
<stop offset="1" stop-color="#F8EDA9"/>
</linearGradient>
<linearGradient id="paint45_linear_5153_12295" x1="221.669" y1="246.442" x2="215.833" y2="259.987" gradientUnits="userSpaceOnUse">
<stop stop-color="#C5673F"/>
<stop offset="1" stop-color="#F8EDA9"/>
</linearGradient>
<linearGradient id="paint46_linear_5153_12295" x1="221.874" y1="246.093" x2="215.759" y2="260.284" gradientUnits="userSpaceOnUse">
<stop stop-color="#C5673F"/>
<stop offset="1" stop-color="#F8EDA9"/>
</linearGradient>
<linearGradient id="paint47_linear_5153_12295" x1="229.076" y1="140.271" x2="224.312" y2="151.328" gradientUnits="userSpaceOnUse">
<stop stop-color="#C5673F"/>
<stop offset="1" stop-color="#F8EDA9"/>
</linearGradient>
<linearGradient id="paint48_linear_5153_12295" x1="229.196" y1="139.995" x2="224.194" y2="151.604" gradientUnits="userSpaceOnUse">
<stop stop-color="#C5673F"/>
<stop offset="1" stop-color="#F8EDA9"/>
</linearGradient>
<linearGradient id="paint49_linear_5153_12295" x1="224.327" y1="240.267" x2="221.667" y2="246.44" gradientUnits="userSpaceOnUse">
<stop stop-color="#C5673F"/>
<stop offset="1" stop-color="#F8EDA9"/>
</linearGradient>
<linearGradient id="paint50_linear_5153_12295" x1="224.532" y1="239.919" x2="221.593" y2="246.738" gradientUnits="userSpaceOnUse">
<stop stop-color="#C5673F"/>
<stop offset="1" stop-color="#F8EDA9"/>
</linearGradient>
<clipPath id="clip0_5153_12295">
<rect width="86.9157" height="115.786" fill="white" transform="matrix(0.91837 0.395723 -0.39529 0.918556 222.5 137.11)"/>
</clipPath>
</defs>
</svg>
