<svg width="475" height="689" viewBox="0 0 475 689" fill="none" xmlns="http://www.w3.org/2000/svg">
<path d="M202.527 670.942L193.643 665.378L254.644 645.545C264.267 649.873 283.841 659.1 285.144 661.383C286.447 663.665 281.64 665.568 279.073 666.234C274.217 666.234 226.019 669.373 202.527 670.942Z" fill="#EAC79B"/>
<path d="M321.122 210.368C335.533 230.106 355.561 276.886 349.994 306.107C343.035 342.634 320.53 356.474 340.37 359.613C359.743 362.678 368.387 355.948 368.231 350.315C368.223 350.179 368.214 350.044 368.205 349.91C368.219 350.045 368.228 350.18 368.231 350.315C369.031 363.61 363.438 386.785 334.595 376.164C305.457 365.434 261.158 298.26 242.65 266.014L279.073 179.549L321.122 210.368Z" fill="#381D1A"/>
<path fill-rule="evenodd" clip-rule="evenodd" d="M379.794 127.798C344.249 156.301 346.222 185.326 350.024 194.512L350.405 195.434L350.51 196.42C356.944 256.996 330.914 302.131 316.313 317.752L315.666 318.445L314.854 318.95C302.315 326.753 291.78 338.983 283.655 351.505C275.559 363.983 270.186 376.241 267.765 383.507L267.553 384.143L267.22 384.729C252.453 410.777 229.882 428.869 207.962 440.89C186.195 452.828 164.664 459.007 151.072 461.053C114.174 468.742 95.8624 497.516 91.4732 510.498C90.2196 514.206 86.0815 516.216 82.2304 514.987C78.3792 513.758 76.2734 509.757 77.5269 506.049C83.0017 489.855 104.534 456.158 148.135 447.178L148.342 447.136L148.552 447.105C160.379 445.352 180.329 439.736 200.661 428.585C220.792 417.545 240.892 401.304 254.021 378.457C256.889 370.07 262.689 357.09 271.211 343.956C279.764 330.774 291.376 316.942 306 307.593C318.255 293.987 341.533 253.517 336.015 198.7C330.053 182.778 331.306 148.236 370.382 116.902C373.488 114.411 378.113 114.831 380.712 117.84C383.311 120.849 382.9 125.307 379.794 127.798Z" fill="#F09562"/>
<path fill-rule="evenodd" clip-rule="evenodd" d="M366.554 129.481C292.529 224.9 146.596 419.778 82.8799 505.293L81.7241 504.432C145.438 418.919 291.38 224.03 365.415 128.599L366.554 129.481Z" fill="#FFF2C3"/>
<path d="M297.877 314.098C304.628 312.957 307.303 320.376 307.797 324.229C290.385 332.333 272.46 369.459 265.008 387.437C249.254 418.484 211.805 439.278 195.716 445.365C195.716 441.142 190.978 437.042 188.609 435.52C216.681 426.389 242.897 394.285 253.311 379.161C251.653 363.295 282.874 329.032 297.877 314.098Z" fill="url(#paint0_linear_5153_12454)"/>
<path d="M328.377 620.291L292.547 496.586L293.583 487.74H320.53C351.8 504.177 352.166 582.956 348.81 620.291H328.377Z" fill="#FFEDDC"/>
<path d="M187.573 93.2245C187.573 39.1495 199.763 24.4997 210.966 24.8802C210.966 24.8802 264.712 50.2775 276.705 50.2775C288.698 50.2775 283.219 100.217 287.069 107.208C290.918 114.2 305.873 129.895 308.686 143.878C311.499 157.86 318.31 188.678 318.31 188.678L246.353 149.156L169.759 173.059C166.665 176.423 164.123 176.927 163.143 175.124L169.759 173.059C177.11 165.066 187.573 140.927 187.573 93.2245Z" fill="#381D1A"/>
<path d="M286.18 73.5371C292.053 96.1759 321.007 152.624 329.561 160.43C343.479 173.129 329.265 234.624 339.482 243.613C349.698 252.602 375.608 282.851 369.982 310.959C364.586 337.914 326.785 358.57 332.701 363.366C333.048 363.55 333.383 363.726 333.707 363.893C333.287 363.747 332.954 363.571 332.701 363.366C324.371 358.932 309.768 349.683 310.905 344.203C312.386 337.069 390.266 322.944 357.693 295.121C325.12 267.298 311.35 261.448 319.197 243.613C327.045 225.778 332.671 189.537 314.608 190.964C296.544 192.391 275.076 85.5223 286.18 73.5371Z" fill="#5A2F30"/>
<path d="M227.845 477.609C212.802 467.793 197.493 406.364 191.718 376.876L247.241 361.609L255.236 404.842C247.418 414.088 268.857 443.936 274.78 460.487C287.335 465.167 282.972 484.363 284.996 490.593L235.544 493.447C236.373 486.256 230.757 479.892 227.845 477.609Z" fill="#FFD8C8"/>
<path d="M275.668 21.6006C280.688 26.2805 279.798 43.9064 278.725 52.1344L275.668 82.6682L280.817 80.8133C317.247 49.6517 292.563 28.3542 275.668 21.6006Z" fill="#5A2F30"/>
<path d="M143.599 323.943C113.632 273.605 149.669 195.577 171.434 162.855L209.93 199.953L175.432 357.045C162.403 353.963 148.781 333.692 143.599 323.943Z" fill="#381D1A"/>
<path d="M139.007 337.925C113.186 308.247 115.962 287.13 120.501 266.014C135.273 190.429 182.049 109.963 189.941 58.127C210.794 173.586 169.212 188.68 143.598 231.627C123.106 265.985 157.515 340.779 173.209 361.895L139.007 337.925Z" fill="#5A2F30"/>
<path d="M169.065 190.821C164.446 149.843 185.055 143.974 194.827 141.453L185.499 190.821L196.595 261.163L172.313 312.385L169.065 190.821Z" fill="#FFEDDC"/>
<path d="M312.831 182.126C311.908 180.019 294.028 136.459 277.149 146.161L245.02 198.097L283.664 212.793C283.664 212.793 283.181 196.37 288.561 196.065C293.942 195.761 340.575 239.885 338.995 234.674C337.414 229.463 364.809 223.691 364.809 223.691C364.809 223.691 313.754 184.234 312.831 182.126Z" fill="#FFEDDC"/>
<path d="M251.238 125.33C246.056 119.766 251.238 99.5049 251.238 99.5049H250.201L221.182 106.924C221.182 106.924 224.291 127.328 217.332 130.895C210.373 134.462 193.05 142.595 193.05 142.595L217.332 171.702L289.881 142.595C289.881 142.595 256.42 130.895 251.238 125.33Z" fill="#FFD8C8"/>
<path d="M214.519 132.321L227.434 175.755L235.099 183.361L189.575 223.923C170.301 202.449 181.628 160.615 192.162 142.024L214.519 132.321Z" fill="url(#paint1_linear_5153_12454)"/>
<path d="M271.67 200.809C272.855 210.283 283.564 210.844 287.365 209.227L276.26 231.057L269.301 237.62L271.67 200.809Z" fill="#FCFCFC"/>
<path d="M202.675 82.8108L198.677 59.1377C198.677 59.1377 198.677 27.4625 215.704 22.3259C232.731 17.1894 275.224 41.0172 275.224 41.0172L272.115 59.1377C273.448 57.086 276.557 55.416 279.222 59.1377C281.887 62.8593 278.481 79.1011 272.115 80.6826C266.834 81.9942 266.545 81.13 266.599 80.797L264.416 87.5312C253.034 106.077 239.098 112.489 230.806 112.489C222.515 112.489 204.007 95.2241 202.675 82.8108Z" fill="#FFEFE2"/>
<path d="M184.759 218.786C229.87 136.238 277.593 135.745 277.593 135.745L284.551 141.452C264.297 153.894 274.681 223.827 277.593 256.453L193.495 260.02L184.759 218.786Z" fill="#FCFCFC"/>
<path d="M292.695 496.872C264.386 479.066 246.155 404.986 240.578 370.171L313.423 350.624L308.241 428.385C308.241 434.949 312.436 468.669 320.974 488.169L292.695 496.872Z" fill="#FFEDDC"/>
<path d="M240.874 28.7353L225.18 23.7415L223.255 11.1855L239.097 14.0392L240.874 28.7353Z" fill="#5A2F30"/>
<path d="M172.351 409.738C162.883 398.618 147.485 405.439 148.373 397.135C149.261 388.831 184.049 271.436 184.049 271.436L189.644 245.498L273.517 231.057L349.697 403.814C349.697 403.814 336.828 407.605 328.84 403.814C320.852 400.023 301.474 388.831 282.54 388.831C263.606 388.831 273.517 409.738 222.187 416.089C213.277 417.192 184.184 423.638 172.351 409.738Z" fill="white"/>
<path d="M253.459 623.716L235.988 491.45L282.627 488.882C291.036 505.661 284.058 566.738 279.517 595.179C275.727 600.544 277.938 616.439 279.517 623.716H253.459Z" fill="#FFD8C8"/>
<path d="M173.803 433.379L194.68 273.146L255.68 231.057L286.625 421.791C246.945 421.258 194.877 429.294 173.803 433.379Z" fill="url(#paint2_linear_5153_12454)"/>
<path fill-rule="evenodd" clip-rule="evenodd" d="M256.733 151.173C257.039 151.427 257.08 151.882 256.826 152.187C247.164 163.778 232.425 182.663 219.618 201.639C213.213 211.128 207.299 220.628 202.744 229.244C198.181 237.876 195.015 245.561 194.058 251.433C193.994 251.826 193.624 252.092 193.231 252.028C192.838 251.964 192.571 251.594 192.635 251.202C193.632 245.089 196.891 237.234 201.47 228.571C206.057 219.893 212.003 210.346 218.423 200.834C231.264 181.809 246.033 162.884 255.718 151.265C255.973 150.959 256.427 150.918 256.733 151.173ZM263.186 160.829C263.517 161.05 263.607 161.497 263.386 161.828C256.068 172.798 243.552 192.965 232.763 212.155C227.368 221.75 222.411 231.091 218.754 238.91C216.924 242.82 215.425 246.34 214.358 249.315C213.286 252.305 212.671 254.691 212.573 256.354C212.55 256.751 212.209 257.054 211.812 257.03C211.415 257.007 211.112 256.666 211.135 256.269C211.245 254.393 211.919 251.847 213.001 248.829C214.089 245.796 215.609 242.232 217.448 238.3C221.128 230.434 226.104 221.059 231.506 211.449C242.312 192.229 254.847 172.031 262.187 161.029C262.408 160.698 262.855 160.609 263.186 160.829Z" fill="#E1E7F2"/>
<path d="M289.289 272.291H183.427L187.276 230.058C193.436 234.281 249.363 231.817 276.556 230.058C276.556 234.623 285.045 260.116 289.289 272.291Z" fill="#F6E6A3"/>
<path fill-rule="evenodd" clip-rule="evenodd" d="M186.67 228.77L187.684 229.465C187.973 229.663 188.464 229.875 189.192 230.081C189.908 230.283 190.806 230.467 191.875 230.631C194.012 230.959 196.781 231.201 200.038 231.368C206.548 231.703 214.947 231.736 224.016 231.582C242.152 231.274 262.92 230.219 276.51 229.34L277.277 229.29V230.059C277.277 230.549 277.395 231.383 277.635 232.538C277.871 233.678 278.216 235.081 278.645 236.685C279.503 239.893 280.694 243.878 282.019 248.106C284.669 256.563 287.849 265.972 289.97 272.055L290.304 273.012H182.638L186.67 228.77ZM187.899 231.171L184.216 271.572H288.276C286.162 265.478 283.164 256.58 280.644 248.537C279.316 244.3 278.119 240.294 277.253 237.058C276.82 235.44 276.468 234.007 276.224 232.831C276.065 232.064 275.946 231.384 275.884 230.823C262.274 231.694 241.89 232.719 224.041 233.022C214.959 233.176 206.522 233.144 199.964 232.807C196.686 232.639 193.863 232.394 191.656 232.055C190.553 231.886 189.592 231.691 188.799 231.467C188.478 231.376 188.176 231.278 187.899 231.171Z" fill="#FFF2C3"/>
<path d="M299.653 155.087L295.981 147.642C294.254 141.434 270.926 132.015 259.479 128.081L253.755 126.329C256.52 157.043 285.506 158.299 299.653 155.087Z" fill="url(#paint3_linear_5153_12454)"/>
<path d="M296.693 147.661C293.443 141.5 281.61 128.951 260.27 128.041C262.734 137.662 273.468 155.054 296.693 147.661Z" fill="url(#paint4_linear_5153_12454)"/>
<path fill-rule="evenodd" clip-rule="evenodd" d="M259.331 127.28L259.572 128.22C260.833 133.143 264.202 140.05 270.251 144.798C276.34 149.577 285.08 152.114 296.911 148.348L297.731 148.087L297.33 147.326C293.974 140.962 281.922 128.244 260.301 127.322L259.331 127.28ZM295.627 147.235C284.671 150.478 276.699 148.027 271.141 143.665C265.778 139.455 262.606 133.418 261.232 128.812C280.813 129.997 292.007 141.148 295.627 147.235Z" fill="#FFF2C3"/>
<g filter="url(#filter0_f_5153_12454)">
<path d="M241.022 81.5268C241.022 85.6245 234.525 88.9463 226.512 88.9463C218.498 88.9463 212.002 85.6245 212.002 81.5268C212.002 77.4292 218.498 74.1074 226.512 74.1074C234.525 74.1074 241.022 77.4292 241.022 81.5268Z" fill="#FFDCCB"/>
</g>
<path fill-rule="evenodd" clip-rule="evenodd" d="M226.894 81.6801C226.505 81.5946 226.121 81.8402 226.035 82.2287C225.888 82.898 225.474 83.7433 225 84.5783C224.776 84.9718 224.549 85.346 224.345 85.6832C224.337 85.6963 224.329 85.7093 224.321 85.7223C224.117 86.0597 223.924 86.3776 223.8 86.6177C223.616 86.9708 223.754 87.4055 224.108 87.5886C224.461 87.7718 224.896 87.634 225.079 87.2808C225.176 87.0929 225.339 86.8222 225.554 86.4686C225.562 86.4542 225.571 86.4398 225.58 86.4253C225.783 86.0909 226.019 85.7011 226.253 85.2895C226.731 84.448 227.244 83.4384 227.443 82.5382C227.528 82.1497 227.282 81.7655 226.894 81.6801ZM224.627 88.6277C224.372 88.9329 224.412 89.3871 224.718 89.6422L226.938 91.497C227.244 91.7521 227.698 91.7114 227.953 91.4062C228.209 91.1009 228.168 90.6467 227.863 90.3917L225.642 88.5368C225.336 88.2818 224.882 88.3224 224.627 88.6277Z" fill="#E1B6A5"/>
<path fill-rule="evenodd" clip-rule="evenodd" d="M223.659 63.4443C223.364 63.712 223.343 64.1675 223.611 64.4618C224.83 65.8018 225.989 67.2266 226.702 69.0636C227.409 70.8865 227.697 73.1703 227.07 76.2466C226.99 76.6363 227.242 77.0167 227.632 77.0961C228.022 77.1755 228.402 76.9239 228.482 76.5341C229.158 73.2183 228.863 70.6509 228.045 68.5429C227.233 66.4491 225.924 64.8633 224.676 63.4924C224.409 63.1982 223.953 63.1767 223.659 63.4443Z" fill="#E1B6A5"/>
<path d="M192.607 659.1C203.741 659.1 239.591 633.418 256.124 620.577L274.78 603.883C275.668 611.017 278.926 627.568 284.848 636.7C290.77 645.831 287.316 656.675 284.848 660.955C276.705 659.1 234.064 665.949 231.843 665.949C229.622 665.949 201.046 666.377 195.568 665.949C191.186 665.607 191.768 661.241 192.607 659.1Z" fill="#FFD8C8"/>
<path d="M314.459 688.492C311.617 687.579 310.215 682.024 309.87 679.361L328.673 663.951L351.03 670.372C351.77 680.217 340.814 688.492 337.853 688.492C334.892 688.492 318.013 689.634 314.459 688.492Z" fill="#F6E6A3"/>
<path d="M310.018 678.791C307.501 668.518 323.936 639.553 327.637 619.863C331.337 600.173 348.513 619.863 348.513 619.863L350.882 666.52C353.369 675.994 342.048 682.358 336.076 684.355C329.709 682.405 312.535 689.064 310.018 678.791Z" fill="#FFEDDC"/>
<path d="M200.602 71.1108C202.403 60.1375 217.06 30.3641 225.772 23.3126L226.464 6.11637L214.403 10.3991C187.129 21.3132 191.636 56.9279 193.2 60.6949C196.456 68.5426 199.711 70.4744 200.602 71.1108Z" fill="#5A2F30"/>
<path d="M259.085 54.2015C243.805 52.6035 238.9 34.2262 238.357 25.2373L231.842 4.47901C238.002 -2.82627 264.81 10.4716 271.67 16.1789C289.082 30.7894 281.047 49.4713 276.112 56.9858C273.474 56.5318 271.191 59.8103 270.443 62.0799C270.411 62.5422 270.328 63.0314 270.19 63.5492C270.159 63.1797 270.25 62.6631 270.443 62.0799C270.848 56.223 263.156 54.6864 259.085 54.2015Z" fill="#5A2F30"/>
<path d="M266.42 251.205C260.347 249.756 258.189 247.636 256.302 241.777C255.18 247.718 253.175 249.96 246.519 251.527C253.215 253.071 255.168 255.341 256.637 260.955C258.561 255.514 259.692 252.509 266.42 251.205Z" fill="#FFF2C3"/>
<path d="M309.049 418.54L275.964 273.861H290.503L348.217 418.54H309.049Z" fill="url(#paint5_linear_5153_12454)"/>
<path d="M223.995 0.769531C209.071 7.96067 200.898 23.4559 198.677 30.3046C212.654 16.493 222.465 14.8474 225.624 15.7511C244.576 16.4359 260.862 37.2484 266.637 47.569C257.753 17.5488 234.508 3.86096 223.995 0.769531Z" fill="url(#paint6_linear_5153_12454)"/>
<path fill-rule="evenodd" clip-rule="evenodd" d="M223.932 0L224.199 0.078302C234.9 3.22535 258.362 17.0678 267.327 47.3644L266.008 47.9202C263.152 42.8165 257.682 35.0964 250.584 28.5766C243.475 22.0469 234.824 16.8039 225.598 16.4705L225.51 16.4674L225.426 16.4432C224.081 16.0586 221.027 16.1727 216.498 18.1683C212 20.1504 206.124 23.958 199.184 30.8164L197.992 30.0822C200.246 23.1312 208.514 7.42923 223.682 0.120466L223.932 0ZM224.058 1.53982C211.387 7.75715 203.683 20.0853 200.48 27.5831C206.529 21.9898 211.747 18.688 215.917 16.8503C220.504 14.8288 223.899 14.548 225.735 15.0342C235.428 15.4144 244.364 20.9074 251.559 27.516C256.624 32.1678 260.87 37.4132 263.962 41.9312C254.162 16.4724 233.789 4.50859 224.058 1.53982Z" fill="#FFF2C3"/>
<path d="M278.591 242.597L300.208 263.429C306.426 275.985 302.132 281.264 300.208 285.117C298.668 288.198 286.635 278.791 280.812 273.702L265.413 267.709C262.107 265.379 254.99 260.233 252.976 258.292C250.963 256.352 250.953 251.777 251.2 249.732C255.701 248.134 271.336 251.158 278.591 252.871L272.668 246.735C268.671 244.31 255.049 240.172 257.566 238.032C259.58 236.319 272.422 240.362 278.591 242.597Z" fill="#FFEDDC"/>
<path d="M326.304 622.289C336.491 614.298 346.391 628.519 349.549 633.133V642.692C342.206 636.3 327.291 636.367 321.862 637.698L326.304 622.289Z" fill="#F6E6A3"/>
<path opacity="0.9" d="M236.876 97.7927C234.181 96.0699 227.801 93.6581 223.847 97.7927C227.292 98.4387 234.72 99.3431 236.876 97.7927Z" fill="#FCD9CC"/>
<path d="M237.468 62.6925C243.702 61.742 256.989 59.9264 260.269 60.2686C255.075 59.6033 239.273 59.2705 237.468 62.6925Z" fill="#402020"/>
<path d="M222.116 62.5269C216.792 60.5327 205.4 56.4884 202.427 56.2656C207.16 56.4972 221.215 58.8615 222.116 62.5269Z" fill="#402020"/>
<path fill-rule="evenodd" clip-rule="evenodd" d="M222.612 97.468C222.791 97.1129 223.224 96.9704 223.58 97.1497C224.975 97.8539 226.976 98.1068 229.418 98.1067C231.489 98.1067 233.787 97.9273 236.176 97.7408C236.587 97.7088 236.999 97.6766 237.414 97.6451C237.811 97.6149 238.157 97.9119 238.187 98.3086C238.217 98.7052 237.92 99.0512 237.523 99.0814C237.115 99.1124 236.707 99.1443 236.299 99.1762C233.914 99.3625 231.55 99.5472 229.418 99.5472C226.936 99.5472 224.644 99.3008 222.93 98.4356C222.575 98.2563 222.432 97.8231 222.612 97.468Z" fill="#E1B6A5"/>
<path d="M221.774 666.805C220.708 659.386 212.841 654.202 209.337 652.68L221.774 644.689C228.052 644.804 231.596 659.481 232.583 666.805H221.774Z" fill="#EAC79B"/>
<path d="M234.952 635.986C245.73 635.644 249.906 654.202 250.646 663.524L267.229 661.526C269.361 652.851 256.371 633.751 249.61 625.285L234.952 635.986Z" fill="#EAC79B"/>
<path d="M225.618 45.9807C209.627 45.1817 213.23 29.8578 217.03 22.2957C220.738 20.8688 216.749 32.1407 226.809 32.7114C236.868 33.2821 236.587 26.4333 240.578 22.7236C246.211 25.7199 245.606 46.9795 225.618 45.9807Z" fill="url(#paint7_linear_5153_12454)"/>
<path d="M307.649 14.752C287.966 17.5454 280.461 24.1099 279.169 27.043C276.809 28.2069 272.63 29.0542 274.787 23.1322C276.944 17.2102 297.594 15.0779 307.649 14.752Z" fill="#5A2F30"/>
<path d="M307.444 44.3601C293.601 30.5884 283.69 28.5474 280.464 29.2484C278.106 28.0816 274.953 25.3059 281.202 23.5372C287.451 21.7686 301.3 36.6822 307.444 44.3601Z" fill="#381D1A"/>
<path fill-rule="evenodd" clip-rule="evenodd" d="M218.221 64.2391C219.72 64.8845 221.03 65.7722 221.791 66.4048C222.097 66.6591 222.139 67.1132 221.885 67.4191C221.63 67.725 221.176 67.7669 220.87 67.5126C220.2 66.9562 219.007 66.146 217.651 65.562C216.279 64.9711 214.85 64.6594 213.652 64.948C213.265 65.0412 212.876 64.8033 212.783 64.4166C212.69 64.0299 212.928 63.6408 213.315 63.5476C214.96 63.1513 216.738 63.6005 218.221 64.2391Z" fill="#EAC6B8"/>
<path d="M224.991 72.1147C221.545 68.7346 212.696 63.0414 204.871 67.3104C208.064 72.5888 216.558 80.9395 224.991 72.1147Z" fill="white"/>
<mask id="mask0_5153_12454" style="mask-type:alpha" maskUnits="userSpaceOnUse" x="204" y="65" width="21" height="11">
<path d="M224.991 72.1146C221.545 68.7342 212.696 63.0406 204.871 67.3094C208.064 72.5882 216.558 80.9394 224.991 72.1146Z" fill="white"/>
</mask>
<g mask="url(#mask0_5153_12454)">
<path d="M225.97 69.4657C226.407 72.7071 223.985 75.6693 220.562 76.0819C217.138 76.4945 214.009 74.2013 213.572 70.9599C213.135 67.7185 215.557 64.7563 218.98 64.3437C222.404 63.9311 225.533 66.2243 225.97 69.4657Z" fill="#565E63"/>
</g>
<path d="M203.267 66.5487C212.928 60.034 221.825 67.723 225.031 72.156C211.335 62.6018 206.681 67.9959 205.554 68.1318C204.653 68.2406 203.652 67.0445 203.267 66.5487Z" fill="#402020"/>
<path d="M201.934 64.8682L203.563 66.9704L207.594 65.6334L201.934 64.8682Z" fill="#402020"/>
<path d="M240.554 71.3382C243.969 68.2801 252.76 63.1806 260.605 67.2465C257.458 72.0584 249.041 79.6135 240.554 71.3382Z" fill="white"/>
<mask id="mask1_5153_12454" style="mask-type:alpha" maskUnits="userSpaceOnUse" x="240" y="65" width="21" height="11">
<path d="M240.554 71.3389C243.969 68.2807 252.76 63.1807 260.605 67.2465C257.457 72.0588 249.041 79.6144 240.554 71.3389Z" fill="white"/>
</mask>
<g mask="url(#mask1_5153_12454)">
<path d="M245.321 69.8011C244.91 72.7816 247.35 75.5525 250.771 75.9901C254.193 76.4277 257.299 74.3663 257.711 71.3859C258.122 68.4054 255.682 65.6345 252.26 65.1969C248.839 64.7592 245.732 66.8206 245.321 69.8011Z" fill="#565E63"/>
</g>
<path d="M262.2 66.5733C252.505 60.4067 243.681 67.345 240.514 71.3775C254.115 62.8002 258.802 67.8501 259.929 67.9943C260.83 68.1096 261.82 67.0239 262.2 66.5733Z" fill="#402020"/>
<path d="M263.52 65.0303L262.195 66.5449L257.856 65.7804L263.52 65.0303Z" fill="#402020"/>
<path fill-rule="evenodd" clip-rule="evenodd" d="M246.299 63.994C246.683 64.0962 246.912 64.4906 246.81 64.875C246.765 65.0442 246.761 65.2758 246.826 65.4335C246.853 65.4994 246.889 65.5452 246.938 65.5803C246.989 65.6163 247.093 65.6682 247.297 65.6843C247.694 65.7156 247.99 66.0625 247.959 66.459C247.927 66.8555 247.58 67.1516 247.184 67.1203C246.768 67.0875 246.404 66.9672 246.105 66.7558C245.805 66.5435 245.611 66.2667 245.494 65.9831C245.27 65.4416 245.321 64.8661 245.417 64.5052C245.52 64.1208 245.914 63.8919 246.299 63.994Z" fill="#402020"/>
<path fill-rule="evenodd" clip-rule="evenodd" d="M218.274 63.7099C217.889 63.812 217.66 64.2064 217.763 64.5908C217.808 64.76 217.812 64.9917 217.747 65.1493C217.72 65.2152 217.684 65.261 217.634 65.2961C217.584 65.3321 217.48 65.384 217.276 65.4001C216.879 65.4315 216.583 65.7783 216.614 66.1748C216.645 66.5714 216.992 66.8674 217.389 66.8361C217.804 66.8033 218.169 66.683 218.467 66.4716C218.767 66.2593 218.962 65.9826 219.079 65.6989C219.303 65.1574 219.251 64.5819 219.155 64.2211C219.053 63.8366 218.659 63.6077 218.274 63.7099Z" fill="#402020"/>
<path fill-rule="evenodd" clip-rule="evenodd" d="M273.775 62.6924C273.38 63.2952 273.033 63.9638 272.775 64.5524C272.615 64.9166 272.19 65.0823 271.825 64.9225C271.461 64.7626 271.295 64.3378 271.455 63.9736C271.739 63.3255 272.123 62.584 272.57 61.9027C273.01 61.2309 273.542 60.571 274.136 60.1314C274.731 59.6915 275.519 59.3854 276.347 59.737C277.117 60.064 277.683 60.8711 278.118 62.0083C278.26 62.3799 278.074 62.7962 277.702 62.9382C277.33 63.0802 276.914 62.8941 276.772 62.5225C276.377 61.491 275.999 61.1543 275.783 61.0627C275.626 60.9958 275.389 60.9964 274.994 61.289C274.598 61.5818 274.177 62.08 273.775 62.6924Z" fill="#EAC6B8"/>
<path fill-rule="evenodd" clip-rule="evenodd" d="M277.539 67.686C277.934 67.7382 278.211 68.1002 278.159 68.4945C278.005 69.659 277.614 71.4679 276.936 73.1465C276.275 74.7812 275.261 76.4927 273.748 77.1874C272.86 77.5948 272.104 77.69 271.442 77.629C270.904 77.5794 270.437 77.4229 270.099 77.3095C270.039 77.2894 269.984 77.2707 269.932 77.2542C269.545 77.1299 269.42 77.1327 269.326 77.1676C269.221 77.2067 268.977 77.361 268.595 78.0312C268.397 78.3767 267.957 78.497 267.612 78.2999C267.266 78.1028 267.146 77.6629 267.343 77.3174C267.775 76.5607 268.234 76.0373 268.823 75.8178C269.423 75.5941 269.983 75.7574 270.373 75.8828C270.448 75.9068 270.519 75.9305 270.589 75.9536C270.926 76.0652 271.217 76.1617 271.574 76.1946C271.977 76.2317 272.48 76.1842 273.146 75.8783C274.12 75.4315 274.957 74.1943 275.599 72.6067C276.224 71.0631 276.588 69.3763 276.73 68.3055C276.782 67.9111 277.145 67.6338 277.539 67.686Z" fill="#EAC6B8"/>
<path d="M274.187 80.9564C274.187 82.69 273.127 84.0954 271.818 84.0954C270.51 84.0954 269.449 82.69 269.449 80.9564C269.449 79.2228 270.51 77.8174 271.818 77.8174C273.127 77.8174 274.187 79.2228 274.187 80.9564Z" fill="#EAC78B"/>
<path d="M298.469 267.154C308.656 270.921 332.029 233.682 341.258 223.979C335.928 216.217 356.212 218.843 367.021 221.126C368.798 224.55 370.13 235.679 368.946 241.529C367.998 246.209 315.94 276.904 298.469 286.273V267.154Z" fill="#FFEDDC"/>
<path d="M269.512 103.071C265.485 101.702 266.748 85.2838 267.884 77.2461C256.157 96.6507 264.774 102.834 270.549 103.499C271.881 103.927 273.539 104.441 269.512 103.071Z" fill="#5A2F30"/>
<path d="M202.293 96.2228C198.266 94.853 199.529 78.4352 200.664 70.3975C188.938 89.8021 197.555 95.985 203.329 96.6508C204.662 97.0789 206.32 97.5925 202.293 96.2228Z" fill="#5A2F30"/>
<path d="M307.797 170.132C302.23 169.561 295.113 189.632 293.139 199.096L312.683 214.363L321.122 188.252C317.924 187.796 311.252 175.792 307.797 170.132Z" fill="url(#paint8_linear_5153_12454)"/>
<path d="M233.767 489.881L249.906 626.57L266.488 658.958C270.585 624.049 276.764 553.488 268.709 550.52C260.655 547.553 248.474 512.282 243.391 495.017L233.767 489.881Z" fill="#EAC79B"/>
<path d="M303.8 540.533L326.157 621.718L346.885 632.99C350.643 597.604 351.617 571.493 347.922 536.11H341.555C332.908 536.566 320.876 511.759 315.941 499.298L307.057 491.308L303.8 499.298C309.959 517.561 306.366 534.397 303.8 540.533Z" fill="#F6E6A3"/>
<path d="M229.13 8.69663C226.097 7.97313 225.02 6.91455 224.078 3.98881C223.517 6.9556 222.516 8.07501 219.192 8.85769C222.536 9.6283 223.511 10.7622 224.245 13.5655C225.205 10.8485 225.77 9.34802 229.13 8.69663Z" fill="#FFF2C3"/>
<path d="M209.861 251.774C203.788 250.325 201.63 248.205 199.744 242.347C198.622 248.288 196.617 250.529 189.961 252.097C196.656 253.64 198.609 255.911 200.078 261.524C202.002 256.083 203.133 253.079 209.861 251.774Z" fill="#FFF2C3"/>
<path d="M247.172 251.489C241.099 250.04 238.942 247.92 237.055 242.061C235.933 248.003 233.928 250.244 227.272 251.812C233.967 253.355 235.92 255.625 237.389 261.239C239.313 255.798 240.444 252.793 247.172 251.489Z" fill="#FFF2C3"/>
<path d="M228.813 251.774C222.74 250.325 220.582 248.205 218.695 242.347C217.573 248.288 215.568 250.529 208.912 252.097C215.608 253.64 217.561 255.911 219.03 261.524C220.954 256.083 222.085 253.079 228.813 251.774Z" fill="#FFF2C3"/>
<path fill-rule="evenodd" clip-rule="evenodd" d="M250.979 252.445C251.065 252.057 251.449 251.812 251.838 251.898L273.751 256.749C274.139 256.835 274.385 257.22 274.298 257.608C274.212 257.997 273.828 258.242 273.439 258.156L251.526 253.304C251.138 253.218 250.893 252.834 250.979 252.445Z" fill="#E1B6A5"/>
<path fill-rule="evenodd" clip-rule="evenodd" d="M252.163 258.296C252.249 257.908 252.634 257.663 253.023 257.749L274.935 262.6C275.324 262.686 275.569 263.07 275.483 263.459C275.397 263.847 275.012 264.092 274.624 264.006L252.711 259.155C252.322 259.069 252.077 258.684 252.163 258.296Z" fill="#E1B6A5"/>
<path d="M311.203 670.943C320.442 658.843 341.012 667.947 350.586 673.939V659.528C334.714 651.424 320.185 654.487 314.904 657.103C310.403 661.554 310.413 668.66 311.203 670.943Z" fill="#F6E6A3"/>
<path d="M283.959 634.559C278.392 632.733 268.907 638.935 264.86 642.264L263.971 637.27C264.09 633.275 275.865 629.518 281.738 628.139L283.959 634.559Z" fill="#EAC79B"/>
<defs>
<filter id="filter0_f_5153_12454" x="182.002" y="44.1074" width="89.0195" height="74.8389" filterUnits="userSpaceOnUse" color-interpolation-filters="sRGB">
<feFlood flood-opacity="0" result="BackgroundImageFix"/>
<feBlend mode="normal" in="SourceGraphic" in2="BackgroundImageFix" result="shape"/>
<feGaussianBlur stdDeviation="15" result="effect1_foregroundBlur_5153_12454"/>
</filter>
<linearGradient id="paint0_linear_5153_12454" x1="248.203" y1="313.98" x2="248.203" y2="445.365" gradientUnits="userSpaceOnUse">
<stop stop-color="#F4E3A1"/>
<stop offset="1" stop-color="#D48E5E"/>
</linearGradient>
<linearGradient id="paint1_linear_5153_12454" x1="207.112" y1="132.321" x2="216.899" y2="190.23" gradientUnits="userSpaceOnUse">
<stop stop-color="#FCFCFC"/>
<stop offset="1" stop-color="#ECF4FF"/>
</linearGradient>
<linearGradient id="paint2_linear_5153_12454" x1="230.214" y1="433.379" x2="230.214" y2="231.057" gradientUnits="userSpaceOnUse">
<stop stop-color="#EBF3FF"/>
<stop offset="1" stop-color="white"/>
</linearGradient>
<linearGradient id="paint3_linear_5153_12454" x1="276.704" y1="126.329" x2="289.523" y2="162.047" gradientUnits="userSpaceOnUse">
<stop stop-color="#F7F1AB"/>
<stop offset="1" stop-color="#DEA772"/>
</linearGradient>
<linearGradient id="paint4_linear_5153_12454" x1="278.482" y1="128.041" x2="278.482" y2="149.443" gradientUnits="userSpaceOnUse">
<stop stop-color="#F2F7FE"/>
<stop offset="1" stop-color="#CBDCF3"/>
</linearGradient>
<linearGradient id="paint5_linear_5153_12454" x1="312.09" y1="418.54" x2="312.09" y2="273.861" gradientUnits="userSpaceOnUse">
<stop offset="0.549561" stop-color="#F2F7FF"/>
<stop offset="1" stop-color="white"/>
</linearGradient>
<linearGradient id="paint6_linear_5153_12454" x1="232.657" y1="0.769531" x2="232.726" y2="42.2898" gradientUnits="userSpaceOnUse">
<stop stop-color="#F2DD9D"/>
<stop offset="1" stop-color="#DB9E6B"/>
</linearGradient>
<linearGradient id="paint7_linear_5153_12454" x1="228.585" y1="22.1709" x2="233.412" y2="46.2127" gradientUnits="userSpaceOnUse">
<stop stop-color="#DBEBFF"/>
<stop offset="1" stop-color="#FBFCFD"/>
</linearGradient>
<linearGradient id="paint8_linear_5153_12454" x1="307.057" y1="169.989" x2="326.447" y2="229.779" gradientUnits="userSpaceOnUse">
<stop stop-color="#F6E8A5"/>
<stop offset="1" stop-color="#DA9D6A"/>
</linearGradient>
</defs>
</svg>
