<svg width="1918" height="2091" viewBox="0 0 1918 2091" fill="none" xmlns="http://www.w3.org/2000/svg">
<g clip-path="url(#clip0_194_380)">
<path d="M392.402 450.491C392.481 450.323 392.663 450.129 392.841 450.077C394.607 449.55 395.923 448.255 397.715 447.698C399.691 447.082 403.735 444.614 403.735 444.614C403.735 444.614 404.445 442.724 404.729 441.562C405.059 440.218 405.519 438.967 406.82 438.154C407.129 437.961 407.436 437.892 407.78 437.908C408.916 437.97 409.941 438.278 410.612 439.221C411.602 440.602 412.897 441.72 414.075 442.947C414.202 443.078 414.467 443.496 414.467 443.496C414.467 443.496 414.548 443.005 414.599 442.826C415.187 440.743 416.486 439.216 418.469 438.135C419.496 437.574 420.592 437.055 421.355 436.133C421.415 436.062 421.494 435.997 421.575 435.952C423.399 434.952 423.505 433.074 424.124 431.463C424.144 431.408 424.1 431.273 424.089 431.273C423.915 431.276 423.671 431.233 423.576 431.324C422.418 432.423 420.777 433.073 420.199 434.729C419.918 435.526 418.022 436.007 416.999 435.656C415.193 435.036 414.21 433.073 415.416 431.151C416.119 430.032 416.657 428.812 417.509 427.784C418.765 426.269 419.14 424.378 419.935 422.671C420.339 421.804 420.549 420.865 421.222 420.111C421.286 420.039 421.392 419.948 421.392 419.948C421.392 419.948 421.116 419.693 421.034 419.601C420.577 419.083 420.119 418.569 419.656 418.057C419.529 417.916 419.321 417.753 419.454 417.582C419.604 417.39 419.871 417.372 420.124 417.478C421.168 417.911 422.278 418.105 423.389 418.304C423.802 418.376 424.137 418.317 424.38 417.957C424.596 417.629 424.851 417.438 425.339 417.437C425.918 417.435 426.513 417.369 427.086 417.168C427.453 417.038 427.856 417.084 428.228 417.312C428.592 417.534 429.001 417.615 429.453 417.638C430.429 417.69 431.204 417.917 431.822 418.871C432.245 419.526 433.143 420.009 433.776 420.621C434.271 421.099 434.901 421.383 435.429 421.806C435.755 422.071 436.024 422.348 435.868 422.815C435.761 423.136 436.135 423.274 436.286 423.372C437.086 423.889 437.086 424.772 437.63 425.633C437.375 425.451 437.296 425.396 437.169 425.305C437.13 425.687 437.384 425.923 437.531 426.196C437.719 426.554 437.771 426.848 437.204 426.947C436.79 427.021 437.015 427.259 437.146 427.418C437.685 428.064 438.157 428.742 438.402 429.542C438.473 429.774 438.535 430.024 438.322 430.203C437.928 430.536 438.13 430.767 438.341 431.118C438.696 431.707 438.743 432.437 439.258 432.973C439.347 433.064 439.253 433.271 439.112 433.26C438.822 433.238 438.567 433.112 438.567 433.112C438.567 433.112 438.859 433.698 438.915 433.756C439.437 434.295 439.065 434.917 439.146 435.488C439.159 435.575 439.071 435.701 438.991 435.766C438.146 436.426 438.017 437.121 438.573 438.105C438.622 438.189 438.679 438.267 438.709 438.355C438.779 438.565 439.052 438.819 438.803 438.988C438.538 439.165 438.484 438.748 438.079 438.618C438.58 439.234 438.413 439.938 438.91 440.43C439.07 440.59 439.201 440.775 439.112 440.974C439.022 441.18 438.824 440.983 438.675 440.985C438 440.999 437.55 441.587 437.912 442.128C437.937 442.165 437.953 442.192 437.968 442.223C438.132 442.138 438.293 442.048 438.448 441.944C440.61 440.481 441.336 437.463 442.413 435.059C443.287 433.107 444.101 431.129 445.141 429.255C446.203 427.344 447.655 426.139 449.904 426.01C452.97 425.836 455.999 426.089 459.035 426.437C464.752 427.089 470.467 427.751 476.226 427.939C478.372 428.008 480.523 427.919 482.674 427.844C484.946 427.767 487.189 427.4 489.451 427.328C489.858 427.315 490.263 427.258 490.666 427.198C494.067 426.702 497.465 426.178 500.827 425.448C503.026 424.969 505.124 424.146 507.177 423.194C507.497 423.047 507.82 422.902 508.156 422.806C508.533 422.702 508.923 422.698 509.203 423.041C509.486 423.391 509.517 423.766 509.337 424.207C508.309 426.74 507.084 427.873 504.065 429.51C503.399 429.869 501.671 430.399 501.671 430.399C501.671 430.399 502.502 430.498 502.936 430.603C503.384 430.711 503.668 430.785 504.011 430.888C504.627 431.069 505.118 431.452 505.265 432.121C505.408 432.78 504.948 433.168 504.499 433.52C503.684 434.161 502.704 434.355 501.735 434.535C500.337 434.795 497.341 435.235 497.341 435.235C497.341 435.235 497.869 435.288 498.084 435.3C498.922 435.354 499.595 435.404 500.319 435.647C500.621 435.746 500.931 435.84 501.21 435.989C501.995 436.415 502.101 437.044 501.482 437.716C501.041 438.192 500.528 438.57 499.924 438.852C498.648 439.452 497.309 439.655 495.936 439.702C495.269 439.724 494.601 439.706 493.932 439.701C493.527 439.698 492.628 439.694 492.628 439.694C492.628 439.694 493.526 440.167 493.796 440.347C494.451 440.782 494.908 440.986 494.874 441.576C494.846 442.042 494.478 442.572 494.332 442.725C493.847 443.233 493.201 443.571 492.509 443.793C491.453 444.133 490.347 444.163 489.22 444.06C487.688 443.924 486.173 443.962 484.667 443.607C484.589 443.586 484.323 443.52 484.323 443.52C484.323 443.52 485.018 443.918 485.319 444.137C485.815 444.502 486.135 444.798 486.368 445.285C486.655 445.889 486.506 446.312 485.891 446.582C484.926 447.006 483.896 446.983 482.885 446.965C481.077 446.934 479.302 446.652 477.577 446.09C477.439 446.046 476.815 445.787 476.815 445.787C476.815 445.787 477.242 446.416 477.335 446.574C477.484 446.828 477.678 447.061 477.788 447.327C478.141 448.179 477.813 448.853 476.944 449.124C475.948 449.43 474.929 449.417 473.913 449.381C472.401 449.327 470.901 449.139 469.411 448.875C469.136 448.827 468.295 448.645 468.295 448.645C468.295 448.645 468.945 449.621 469.163 449.997C469.601 450.752 469.385 451.513 468.542 451.708C467.78 451.884 467.014 451.813 466.232 451.61C464.884 451.261 463.542 450.89 462.304 450.224C462.261 450.202 462.024 450.041 462.024 450.041C462.024 450.041 462.204 451.02 462.235 451.418C462.35 452.789 461.782 453.475 460.436 453.632C458.847 453.821 457.31 453.49 455.773 453.179C455.321 453.086 454.883 452.924 454.438 452.797C454.301 452.76 453.976 452.634 453.976 452.634C453.976 452.634 454.075 452.985 454.086 453.121C454.093 453.18 454.108 453.237 454.125 453.295C454.524 454.483 453.599 455.032 452.666 455.025C450.583 455.016 448.649 454.517 446.964 453.216C446.827 453.109 446.464 452.804 446.464 452.804C446.464 452.804 446.481 453.122 446.399 453.506C447.418 454.233 448.44 454.95 449.487 455.641C450.769 456.489 452.149 457.41 452.833 458.646C453.515 459.88 453.944 460.187 454.063 462.722C454.085 463.241 454.088 464.375 454.088 464.375C454.088 464.375 455.158 465.095 456.822 467.713C457.068 468.1 457.57 468.692 457.753 469.195C458.1 470.136 458.51 470.681 458.634 471.997C458.652 472.205 458.638 472.541 458.638 472.541L458.606 472.939L458.158 472.508C458.158 472.508 458.234 472.805 458.231 472.884C458.229 473.323 458.221 473.768 458.212 474.195C458.157 476.579 457.501 478.934 456.448 481.197C454.833 484.667 453.969 486.646 452.45 489.239C451.996 490.015 452.336 490.804 452.449 491.585C452.489 491.862 452.567 492.14 452.635 492.415C452.671 492.554 452.627 492.873 452.627 492.873C452.627 492.873 452.473 492.754 452.424 492.717C451.925 492.362 451.583 492.872 451.583 492.872C451.226 493.409 451.369 493.997 451.389 494.562C451.422 495.468 451.729 496.377 451.349 497.281C451.296 497.41 450.97 497.914 450.97 497.914C450.97 497.914 450.897 497.574 450.868 497.46C450.454 495.798 449.143 494.532 448.675 492.872C448.2 491.201 447.909 489.505 447.525 487.825C447.089 485.917 447.291 484.073 447.777 482.305C448.359 480.184 448.648 477.936 449.804 475.994C450.581 474.686 451.194 473.293 452.081 472.041C452.481 471.479 453.063 471.094 453.489 470.56C453.973 469.952 454.239 469.331 454.079 468.564C453.993 468.151 453.978 467.724 453.907 467.305C453.871 467.095 453.907 466.745 453.694 466.727C453.452 466.708 453.343 467.045 453.237 467.256C452.272 469.207 450.899 470.85 448.996 472.029C447.08 473.219 445.045 474.216 442.769 474.671C442.404 474.745 442.434 474.903 442.498 475.11C443.167 477.284 443.183 478.282 443.586 480.481C444.083 483.198 442.106 486.174 440.521 487.969C439.952 488.614 439.653 489.346 439.478 490.122C439.261 491.083 438.733 491.929 438.501 492.882C438.435 493.148 438.235 493.377 437.836 493.318C437.521 493.273 437.611 493.794 437.275 493.749C435.681 493.536 434.523 494.458 433.275 495.129C433.055 495.249 432.802 495.27 432.615 495.2C431.572 494.81 430.468 494.563 429.492 494.008C429.21 493.845 429.107 493.614 429.335 493.396C430.126 492.638 430.918 491.876 431.767 491.181C432.27 490.767 433 490.699 433.612 490.705C435.312 490.72 436.056 489.556 436.753 488.469C437.498 487.312 438.049 486.028 438.567 484.76C438.949 483.827 439.152 482.829 439.418 481.858C439.546 481.4 439.245 481.005 439.077 480.629C438.785 479.984 438.342 479.397 438.051 478.924C437.625 479.945 436.98 481.19 436.814 482.591C436.721 483.375 436.069 483.815 435.443 484.158C434.707 484.558 434.045 485.044 433.365 485.506C432.018 486.424 430.456 487.012 429.15 487.994C428.679 488.349 428.268 488.738 427.91 489.197C427.106 490.235 426.153 491.016 424.622 490.79C424.001 490.698 423.42 490.95 422.895 491.284C422.295 491.671 421.677 492.033 421.067 492.404C420.506 492.205 419.473 491.958 418.932 491.714C418.237 491.399 417.801 491.244 417.233 490.753C416.649 490.245 416.802 490.03 417.546 489.708C417.716 489.635 417.885 489.554 418.282 489.375L421.717 488.332C422.8 488.056 423.932 487.614 424.417 487.295C425.357 486.674 426.481 486.366 427.388 485.666C429.221 484.251 431.134 482.921 432.45 481.009C433.035 480.162 432.916 479.18 432.981 478.244C433.141 475.848 432.378 473.672 432.723 471.25C433.041 469.033 433.169 468.528 433.523 467.665C434.028 466.426 434.779 465.79 436.25 464.953C436.446 464.839 436.248 464.596 436.062 464.475C435.044 463.806 433.885 463.471 432.683 463.315C430.735 463.059 429.041 462.242 427.375 461.334C426.194 460.689 424.966 460.106 423.939 459.244C422.483 458.026 421.508 456.445 420.38 454.982C419.406 453.711 418.375 452.478 417.779 450.973C417.687 450.742 417.484 450.28 417.484 450.28C417.484 450.28 416.713 450.334 416.443 450.338C414.837 450.361 413.393 449.909 412.039 449.112C411.398 448.734 410.604 448.932 409.896 448.73C408.94 448.46 407.955 448.289 406.993 448.038C406.591 447.932 406.358 448.049 406.186 448.372C405.968 448.776 405.754 449.181 405.524 449.579C405.478 449.663 405.439 449.686 405.516 449.793C406.195 450.754 405.932 453.152 405.09 453.963C404.806 454.236 404.543 454.161 404.319 453.943C403.62 453.257 402.923 452.565 402.144 451.953C401.751 451.643 401.5 451.145 401.339 450.745C401.174 450.344 401.028 449.834 401.028 449.834C401.028 449.834 400.12 450.257 399.816 450.378C399.195 450.623 398.63 450.996 398.045 451.32C397.672 451.525 397.322 451.75 396.856 451.737C396.489 451.727 396.256 452.017 396.17 452.277C395.99 452.825 395.556 453.2 395.259 453.666C394.961 454.138 394.415 454.17 393.934 454.266C392.792 454.496 391.659 454.858 390.463 454.623C390.153 454.562 389.949 454.397 390.154 454.093C390.948 452.915 391.798 451.773 392.393 450.485L392.402 450.491ZM407.71 444.038C408.003 443.967 408.29 443.975 408.59 444.046C408.88 444.115 409.803 444.586 409.803 444.586C409.803 444.586 409.361 443.596 409.184 443.308C409.157 443.267 409.138 443.226 409.12 443.181C408.958 442.76 408.746 442.413 408.172 442.477C407.653 442.536 407.455 442.865 407.344 443.335C407.327 443.38 407.293 443.468 407.257 443.554C407.172 443.751 406.854 444.195 406.854 444.195C406.854 444.195 407.296 444.135 407.714 444.035L407.71 444.038Z" fill="white"/>
</g>
<g clip-path="url(#clip1_194_380)">
<path d="M605.429 142.573C602.83 139.414 614 144.497 618.741 147.121C623.482 149.753 632.457 156.433 635.787 159.264C639.118 162.094 642.25 162.31 644.995 161.292C649.719 159.548 666.309 150.702 670.853 150.495C675.396 150.288 676.386 151.505 673.718 152.385C671.154 153.24 666.482 155.578 663.143 158.392C656.689 163.82 650.975 171.415 644.332 172.218C639.608 172.787 636.063 172.986 633.843 173.59C631.623 174.194 631.055 173.115 630.143 169.982C629.23 166.85 626.563 163.087 622.88 158.823C618.577 153.852 615.591 151.168 612.089 148.433C608.045 145.274 606.978 144.445 605.438 142.564L605.429 142.573Z" fill="white"/>
<path d="M703.619 208.102C706.605 207.429 714.926 207.032 718.015 207.032C721.105 207.032 724.418 210.881 727.085 208.534C729.753 206.178 736.792 200.516 742.333 197.202C747.875 193.888 756.196 194.95 760.782 195.493C765.369 196.029 762.486 197.099 758.33 198.057C754.174 199.023 750.749 201.604 745.853 206.169C741.696 210.053 738.711 212.814 739.029 215.058C739.347 217.302 735.509 219.546 731.887 216.879C728.264 214.204 724.745 214.42 719.728 213.03C714.72 211.641 710.83 211.321 707.999 210.786C704.643 210.148 700.306 208.862 703.628 208.111L703.619 208.102Z" fill="white"/>
<path d="M819.245 153.792C819.185 155.924 819.193 160.541 821.121 168.792C822.429 174.384 825.165 180.063 826.396 181.659C827.626 183.256 824.743 187.053 828.203 188.797C830.431 189.919 836.98 187.666 839.759 188.037C842.539 188.417 852.951 188.615 858.776 187.053C863.423 185.811 858.398 184.516 852.83 183.886C847.263 183.256 838.701 178.311 834.106 172.848C827.273 164.727 819.408 147.811 819.236 153.792H819.245Z" fill="white"/>
<path d="M878.097 11.9445C879.396 11.7373 883.483 10.2961 886.702 10.4083C889.997 10.5291 890.824 14.0761 893.061 14.0761C895.298 14.0761 900.487 13.8345 905.908 17.0277C911.329 20.2209 919.582 26.0119 923.23 26.4865C926.887 26.9612 918.523 29.9732 912.99 28.3248C907.448 26.6678 901.795 27.9278 898.955 26.2535C895.014 23.9319 893.414 20.5748 889.998 20.8164C886.581 21.0581 883.518 22.3526 881.281 25.192C879.043 28.0313 880.222 30.396 879.207 31.8718C878.604 32.7521 872.676 33.4684 871.256 31.0951C869.845 28.7304 873.846 24.1218 871.256 21.2824C870.077 19.9965 865.008 15.9662 859.587 14.4214C854.166 12.8852 836.19 -0.137971 840.613 0.000113592C844.27 0.120938 846.628 0.949447 854.519 1.65713C862.418 2.36482 866.428 2.48564 869.956 6.26571C873.493 10.0458 875.851 12.2983 878.088 11.9358L878.097 11.9445Z" fill="white"/>
<path d="M1144.64 64.1745C1149.86 64.5456 1159.68 67.9891 1164.69 71.6224C1169.69 75.2644 1175.92 78.38 1179.03 77.6895C1182.15 76.9991 1191.47 72.1402 1195.1 70.5868C1198.74 69.0247 1199.08 70.7594 1194.06 75.7822C1189.05 80.8051 1178.3 88.8226 1175.02 91.6016C1171.73 94.3719 1168.32 89.3059 1161.06 82.0219C1153.8 74.7466 1140.28 63.8638 1144.64 64.1745Z" fill="white"/>
<path d="M1204.53 155.864C1205.4 157.15 1209.71 161.758 1211.78 166.608C1213.85 171.459 1216.62 182.203 1217.14 185.845C1217.66 189.487 1221.63 191.049 1227.51 190.005C1233.39 188.961 1237.88 189.66 1242.72 192.43C1247.55 195.201 1254.64 197.462 1255.67 195.028C1255.67 195.028 1249.28 190.178 1242.2 186.881C1235.12 183.593 1227.96 176.835 1223.67 171.804C1219.39 166.781 1215.25 161.922 1212.65 158.807C1210.06 155.682 1201.82 151.902 1204.53 155.864Z" fill="white"/>
<path d="M1248.84 148.934C1251.49 150.392 1256.61 155.001 1259.73 157.944C1262.84 160.887 1267.16 165.046 1266.98 167.299C1266.81 169.551 1269.27 172.9 1272.56 172.382C1275.84 171.864 1278.21 169.724 1282.89 169.551C1287.55 169.379 1299.54 168.438 1301.89 166.781C1304.74 164.762 1295.33 165.909 1289.45 165.392C1283.57 164.874 1281.84 164.183 1281.16 162.103C1280.47 160.024 1276.15 160.429 1273.73 160.654C1271.31 160.887 1270.27 158.461 1266.29 155.165C1262.32 151.868 1258.46 150.297 1255.01 149.253C1251.55 148.217 1245.82 147.251 1248.84 148.925V148.934Z" fill="white"/>
<path d="M1263.71 91.671C1264.08 93.1899 1266.22 96.4176 1270.23 102.467C1272.99 106.636 1276.84 111.167 1279.95 115.646C1283.54 120.807 1282.85 122.706 1284.61 124.052C1286.16 125.251 1288.54 124.88 1292.16 122.593C1295.78 120.306 1299.3 119.892 1302.41 120.41C1305.52 120.928 1317.94 123.327 1320.63 123.836C1323.32 124.345 1325.61 123.698 1321.97 121.135C1316.38 117.191 1304.99 114.075 1299.41 114.282C1293.81 114.49 1289.16 108.673 1284.4 104.936C1279.64 101.199 1262.87 88.3397 1263.7 91.6537L1263.71 91.671Z" fill="white"/>
<path d="M1346.98 155.682C1349.07 157.054 1355.74 156.856 1358.53 156.502C1361.33 156.139 1365.39 158.219 1366.93 160.575C1368.47 162.931 1370.09 164.433 1372.98 163.622C1375.87 162.81 1377.13 161.395 1378.03 159.039C1378.93 156.683 1381.55 155.328 1385.61 156.502C1389.67 157.675 1392.07 156.942 1394.29 156.07C1396.63 155.147 1392.66 154.784 1388.69 153.334C1384.72 151.884 1381.56 149.261 1376.77 150.797C1371.99 152.333 1368.47 153.239 1363.69 151.427C1358.9 149.615 1356.55 151.427 1353.39 152.152C1350.24 152.877 1344.63 154.146 1346.98 155.682H1346.98Z" fill="white"/>
<path d="M1017.09 264.649C1019.96 263.717 1028.15 261.559 1030.54 260.765C1032.93 259.962 1039.32 259.626 1040.91 259.738C1042.51 259.85 1043.06 255.682 1046.37 254.543C1049.67 253.403 1050.37 254.249 1053.33 254.94C1056.29 255.621 1057.78 251.401 1062.56 249.563C1067.34 247.733 1079.55 245.869 1081.82 244.764C1085.36 243.047 1081.09 249.218 1076.98 251.047C1072.88 252.877 1066.67 254.137 1062.34 257.908C1059.05 260.774 1057.71 262.491 1057.89 265.451C1058.12 269.111 1053.06 271.631 1049.89 270.138C1046.72 268.653 1044.96 267.134 1038.06 267.16C1032.34 267.186 1025.87 266.245 1022.68 266.591C1019.48 266.927 1012.31 266.202 1017.09 264.649Z" fill="white"/>
<path d="M1052.73 301.534C1055.14 302.768 1060.66 305.055 1064.3 305.832C1067.94 306.609 1072.88 308.568 1073.65 311.83C1074.44 315.092 1072.74 315.998 1074.44 319.002C1075.71 321.254 1079.47 325.259 1082.59 325C1085.71 324.741 1090.29 320.564 1091.72 319.658C1093.14 318.743 1098.87 318.872 1102.37 318.872C1105.87 318.872 1110.96 319.787 1113.04 320.693C1115.12 321.599 1114.32 319.261 1110.29 316.266C1106.27 313.271 1100.29 312.883 1096.13 313.53C1091.97 314.177 1088.2 314.393 1084.95 313.53C1082.63 312.917 1078.97 307.273 1075.86 305.314C1072.74 303.355 1068.86 301.836 1063.77 300.749C1059.7 299.886 1049.56 299.894 1052.73 301.534Z" fill="white"/>
</g>
<g clip-path="url(#clip2_194_380)">
<path d="M998.847 86.3504V110.547H1016.92V52.2197C1016.92 52.2197 998.847 67.7595 998.847 86.3504Z" fill="#E5CEC1"/>
<path d="M1035.02 86.3504V110.547H1016.94V52.2197C1016.94 52.2197 1035.02 67.7595 1035.02 86.3504Z" fill="#E5CEC1"/>
<path d="M1477.77 684.004H556.073V707.775H1477.77V684.004Z" fill="#E5CEC1"/>
<path d="M1477.77 335.01H556.073V358.781H1477.77V335.01Z" fill="#E5CEC1"/>
<path d="M1477.77 278.007H556.073V301.778H1477.77V278.007Z" fill="#E5CEC1"/>
<path d="M1477.79 278.007L1468.97 300.052L1016.92 119.464L564.897 300.052L556.073 278.007L1016.92 93.8721L1477.79 278.007Z" fill="#E5CEC1"/>
<path d="M1460.24 301.778H573.604V335.034H1460.24V301.778Z" fill="#A7A8B0"/>
<path d="M556.072 731.357L1477.77 731.357V707.752L556.072 707.752V731.357Z" fill="#FEE6D3"/>
<path d="M1431.23 358.779H592.979V684.002H1431.23V358.779Z" fill="#A7A8B0"/>
<path d="M618.128 397.473H587.113V645.328H618.128V397.473Z" fill="#E5CEC1"/>
<path d="M573.605 358.779V372.332C581.058 372.332 587.114 378.364 587.114 385.814H618.129C618.129 378.364 624.161 372.332 631.637 372.332V358.779H573.605Z" fill="#FEE6D3"/>
<path d="M618.13 385.814H587.115C583.897 385.814 581.295 388.416 581.295 391.633C581.295 394.85 583.897 397.452 587.115 397.452H618.13C621.347 397.452 623.949 394.85 623.949 391.633C623.949 388.416 621.347 385.814 618.13 385.814Z" fill="#FEE6D3"/>
<path d="M573.605 684.002V670.449C581.058 670.449 587.114 664.417 587.114 656.967H618.129C618.129 664.417 624.161 670.449 631.637 670.449V684.002H573.605Z" fill="#FEE6D3"/>
<path d="M618.13 656.965H587.115C583.897 656.965 581.295 654.363 581.295 651.147C581.295 647.93 583.897 645.328 587.115 645.328H618.13C621.347 645.328 623.949 647.93 623.949 651.147C623.949 654.363 621.347 656.965 618.13 656.965Z" fill="#FEE6D3"/>
<path d="M736.509 397.473H705.494V645.328H736.509V397.473Z" fill="#E5CEC1"/>
<path d="M691.986 358.779V372.332C699.438 372.332 705.495 378.364 705.495 385.814H736.51C736.51 378.364 742.542 372.332 750.018 372.332V358.779H692.01H691.986Z" fill="#FEE6D3"/>
<path d="M736.486 385.814H705.471C702.254 385.814 699.651 388.416 699.651 391.633C699.651 394.85 702.254 397.452 705.471 397.452H736.486C739.703 397.452 742.306 394.85 742.306 391.633C742.306 388.416 739.703 385.814 736.486 385.814Z" fill="#FEE6D3"/>
<path d="M691.986 684.002V670.449C699.438 670.449 705.495 664.417 705.495 656.967H736.51C736.51 664.417 742.542 670.449 750.018 670.449V684.002H692.01H691.986Z" fill="#FEE6D3"/>
<path d="M736.486 656.965H705.471C702.254 656.965 699.651 654.363 699.651 651.147C699.651 647.93 702.254 645.328 705.471 645.328H736.486C739.703 645.328 742.306 647.93 742.306 651.147C742.306 654.363 739.703 656.965 736.486 656.965Z" fill="#FEE6D3"/>
<path d="M854.866 397.473H823.852V645.328H854.866V397.473Z" fill="#E5CEC1"/>
<path d="M810.367 358.779V372.332C817.819 372.332 823.876 378.364 823.876 385.814H854.89C854.89 378.364 860.923 372.332 868.399 372.332V358.779H810.391H810.367Z" fill="#FEE6D3"/>
<path d="M854.867 385.814H823.852C820.635 385.814 818.032 388.416 818.032 391.633C818.032 394.85 820.635 397.452 823.852 397.452H854.867C858.084 397.452 860.687 394.85 860.687 391.633C860.687 388.416 858.084 385.814 854.867 385.814Z" fill="#FEE6D3"/>
<path d="M810.367 684.002V670.449C817.819 670.449 823.876 664.417 823.876 656.967H854.89C854.89 664.417 860.923 670.449 868.399 670.449V684.002H810.391H810.367Z" fill="#FEE6D3"/>
<path d="M854.867 656.965H823.852C820.635 656.965 818.032 654.363 818.032 651.147C818.032 647.93 820.635 645.328 823.852 645.328H854.867C858.084 645.328 860.687 647.93 860.687 651.147C860.687 654.363 858.084 656.965 854.867 656.965Z" fill="#FEE6D3"/>
<path d="M973.249 397.473H942.234V645.328H973.249V397.473Z" fill="#E5CEC1"/>
<path d="M928.727 358.779V372.332C936.179 372.332 942.235 378.364 942.235 385.814H973.25C973.25 378.364 979.283 372.332 986.758 372.332V358.779H928.75H928.727Z" fill="#FEE6D3"/>
<path d="M973.251 385.814H942.236C939.018 385.814 936.416 388.416 936.416 391.633C936.416 394.85 939.018 397.452 942.236 397.452H973.251C976.468 397.452 979.07 394.85 979.07 391.633C979.07 388.416 976.468 385.814 973.251 385.814Z" fill="#FEE6D3"/>
<path d="M928.727 684.002V670.449C936.179 670.449 942.235 664.417 942.235 656.967H973.25C973.25 664.417 979.283 670.449 986.758 670.449V684.002H928.75H928.727Z" fill="#FEE6D3"/>
<path d="M973.251 656.965H942.236C939.018 656.965 936.416 654.363 936.416 651.147C936.416 647.93 939.018 645.328 942.236 645.328H973.251C976.468 645.328 979.07 647.93 979.07 651.147C979.07 654.363 976.468 656.965 973.251 656.965Z" fill="#FEE6D3"/>
<path d="M1091.63 397.473H1060.62V645.328H1091.63V397.473Z" fill="#E5CEC1"/>
<path d="M1047.11 358.779V372.332C1054.56 372.332 1060.62 378.364 1060.62 385.814H1091.63C1091.63 378.364 1097.66 372.332 1105.14 372.332V358.779H1047.13H1047.11Z" fill="#FEE6D3"/>
<path d="M1091.61 385.814H1060.59C1057.37 385.814 1054.77 388.416 1054.77 391.633C1054.77 394.85 1057.37 397.452 1060.59 397.452H1091.61C1094.82 397.452 1097.43 394.85 1097.43 391.633C1097.43 388.416 1094.82 385.814 1091.61 385.814Z" fill="#FEE6D3"/>
<path d="M1047.11 684.002V670.449C1054.56 670.449 1060.62 664.417 1060.62 656.967H1091.63C1091.63 664.417 1097.66 670.449 1105.14 670.449V684.002H1047.13H1047.11Z" fill="#FEE6D3"/>
<path d="M1091.61 656.965H1060.59C1057.37 656.965 1054.77 654.363 1054.77 651.147C1054.77 647.93 1057.37 645.328 1060.59 645.328H1091.61C1094.82 645.328 1097.43 647.93 1097.43 651.147C1097.43 654.363 1094.82 656.965 1091.61 656.965Z" fill="#FEE6D3"/>
<path d="M1209.99 397.473H1178.97V645.328H1209.99V397.473Z" fill="#E5CEC1"/>
<path d="M1165.49 358.779V372.332C1172.94 372.332 1179 378.364 1179 385.814H1210.01C1210.01 378.364 1216.04 372.332 1223.52 372.332V358.779H1165.51H1165.49Z" fill="#FEE6D3"/>
<path d="M1209.99 385.814H1178.97C1175.76 385.814 1173.15 388.416 1173.15 391.633C1173.15 394.85 1175.76 397.452 1178.97 397.452H1209.99C1213.21 397.452 1215.81 394.85 1215.81 391.633C1215.81 388.416 1213.21 385.814 1209.99 385.814Z" fill="#FEE6D3"/>
<path d="M1165.49 684.002V670.449C1172.94 670.449 1179 664.417 1179 656.967H1210.01C1210.01 664.417 1216.04 670.449 1223.52 670.449V684.002H1165.51H1165.49Z" fill="#FEE6D3"/>
<path d="M1209.99 656.965H1178.97C1175.76 656.965 1173.15 654.363 1173.15 651.147C1173.15 647.93 1175.76 645.328 1178.97 645.328H1209.99C1213.21 645.328 1215.81 647.93 1215.81 651.147C1215.81 654.363 1213.21 656.965 1209.99 656.965Z" fill="#FEE6D3"/>
<path d="M1328.37 397.473H1297.35V645.328H1328.37V397.473Z" fill="#E5CEC1"/>
<path d="M1283.87 358.779V372.332C1291.32 372.332 1297.38 378.364 1297.38 385.814H1328.39C1328.39 378.364 1334.43 372.332 1341.9 372.332V358.779H1283.89H1283.87Z" fill="#FEE6D3"/>
<path d="M1328.37 385.814H1297.35C1294.14 385.814 1291.54 388.416 1291.54 391.633C1291.54 394.85 1294.14 397.452 1297.35 397.452H1328.37C1331.59 397.452 1334.19 394.85 1334.19 391.633C1334.19 388.416 1331.59 385.814 1328.37 385.814Z" fill="#FEE6D3"/>
<path d="M1283.87 684.002V670.449C1291.32 670.449 1297.38 664.417 1297.38 656.967H1328.39C1328.39 664.417 1334.43 670.449 1341.9 670.449V684.002H1283.89H1283.87Z" fill="#FEE6D3"/>
<path d="M1328.37 656.965H1297.35C1294.14 656.965 1291.54 654.363 1291.54 651.147C1291.54 647.93 1294.14 645.328 1297.35 645.328H1328.37C1331.59 645.328 1334.19 647.93 1334.19 651.147C1334.19 654.363 1331.59 656.965 1328.37 656.965Z" fill="#FEE6D3"/>
<path d="M1446.76 397.473H1415.74V645.328H1446.76V397.473Z" fill="#E5CEC1"/>
<path d="M1402.23 358.779V372.332C1409.68 372.332 1415.74 378.364 1415.74 385.814H1446.76C1446.76 378.364 1452.79 372.332 1460.26 372.332V358.779H1402.26H1402.23Z" fill="#FEE6D3"/>
<path d="M1446.76 385.814H1415.74C1412.52 385.814 1409.92 388.416 1409.92 391.633C1409.92 394.85 1412.52 397.452 1415.74 397.452H1446.76C1449.97 397.452 1452.58 394.85 1452.58 391.633C1452.58 388.416 1449.97 385.814 1446.76 385.814Z" fill="#FEE6D3"/>
<path d="M1402.23 684.002V670.449C1409.68 670.449 1415.74 664.417 1415.74 656.967H1446.76C1446.76 664.417 1452.79 670.449 1460.26 670.449V684.002H1402.26H1402.23Z" fill="#FEE6D3"/>
<path d="M1446.76 656.965H1415.74C1412.52 656.965 1409.92 654.363 1409.92 651.147C1409.92 647.93 1412.52 645.328 1415.74 645.328H1446.76C1449.97 645.328 1452.58 647.93 1452.58 651.147C1452.58 654.363 1449.97 656.965 1446.76 656.965Z" fill="#FEE6D3"/>
<path d="M556.073 235.834V278.007H583.492V263.247C583.492 248.11 571.214 235.834 556.073 235.834Z" fill="#E5CEC1"/>
<path d="M1477.77 235.834V278.007H1450.35V263.247C1450.35 248.11 1462.63 235.834 1477.77 235.834Z" fill="#E5CEC1"/>
<path d="M1016.92 119.464L620.091 278.007H1413.75L1016.92 119.464Z" fill="#FEE6D3"/>
<path d="M590.707 335.01H614.482V301.754H590.707V335.01Z" fill="#FEE6D3"/>
<path d="M649.899 335.01H673.675V301.754H649.899V335.01Z" fill="#FEE6D3"/>
<path d="M709.091 335.01H732.867V301.754H709.091V335.01Z" fill="#FEE6D3"/>
<path d="M768.304 335.01H792.08V301.754H768.304V335.01Z" fill="#FEE6D3"/>
<path d="M827.473 335.01H851.249V301.754H827.473V335.01Z" fill="#FEE6D3"/>
<path d="M886.663 335.01H910.438V301.754H886.663V335.01Z" fill="#FEE6D3"/>
<path d="M945.855 335.01H969.631V301.754H945.855V335.01Z" fill="#FEE6D3"/>
<path d="M1005.02 335.01H1028.8V301.754H1005.02V335.01Z" fill="#FEE6D3"/>
<path d="M1064.21 335.01H1087.99V301.754H1064.21V335.01Z" fill="#FEE6D3"/>
<path d="M1123.4 335.01H1147.18V301.754H1123.4V335.01Z" fill="#FEE6D3"/>
<path d="M1182.62 335.01H1206.39V301.754H1182.62V335.01Z" fill="#FEE6D3"/>
<path d="M1241.78 335.01H1265.56V301.754H1241.78V335.01Z" fill="#FEE6D3"/>
<path d="M1300.98 335.01H1324.75V301.754H1300.98V335.01Z" fill="#FEE6D3"/>
<path d="M1360.17 335.01H1383.94V301.754H1360.17V335.01Z" fill="#FEE6D3"/>
<path d="M1419.33 335.01H1443.11V301.754H1419.33V335.01Z" fill="#FEE6D3"/>
</g>
<path d="M705.194 176.855C695.156 174.324 691.637 170.8 688.675 161.168C686.641 170.855 683.249 174.468 672.156 176.855C683.224 179.556 686.4 183.322 688.675 192.542C692.025 183.694 693.99 178.81 705.194 176.855Z" fill="#FEE6D3"/>
<g clip-path="url(#clip3_194_380)">
<path d="M1466.1 891.078C1466.22 891.055 1466.34 891.033 1466.46 891.006C1466.63 890.972 1466.8 890.935 1466.97 890.893C1467.09 890.863 1467.21 890.833 1467.33 890.803C1466.84 890.931 1466.32 891.04 1465.81 891.127C1465.91 891.112 1466 891.097 1466.1 891.078Z" fill="#B77E6D"/>
<path d="M1468.2 890.563C1468.34 890.517 1468.49 890.476 1468.63 890.431C1468.77 890.385 1468.91 890.34 1469.04 890.295C1468.65 890.431 1468.24 890.559 1467.82 890.679C1467.95 890.642 1468.08 890.604 1468.2 890.566L1468.2 890.563Z" fill="#B77E6D"/>
<path d="M1561.27 898.701C1561.28 898.939 1561.3 899.172 1561.31 899.402C1561.3 899.172 1561.29 898.939 1561.27 898.701Z" fill="#B77E6D"/>
<path d="M1470.15 889.886C1470.39 889.792 1470.62 889.702 1470.83 889.607C1470.59 889.713 1470.32 889.815 1470.05 889.92C1470.09 889.909 1470.12 889.898 1470.15 889.883V889.886Z" fill="#B77E6D"/>
<path d="M1469.86 889.996C1469.71 890.053 1469.56 890.105 1469.41 890.162C1469.56 890.109 1469.71 890.053 1469.86 889.996Z" fill="#B77E6D"/>
<path d="M1465.22 891.219C1465.34 891.204 1465.45 891.189 1465.56 891.17C1465.32 891.208 1465.07 891.234 1464.83 891.26C1464.96 891.245 1465.09 891.234 1465.22 891.215V891.219Z" fill="#B77E6D"/>
<path d="M1459.43 890.252C1459.25 890.139 1459.07 890.022 1458.9 889.887C1459.07 890.022 1459.25 890.139 1459.43 890.252Z" fill="#B77E6D"/>
<path d="M1461.02 890.983C1461.07 890.998 1461.11 891.016 1461.16 891.032C1461.2 891.043 1461.25 891.05 1461.29 891.062C1460.94 890.971 1460.6 890.858 1460.27 890.715C1460.51 890.82 1460.76 890.911 1461.01 890.986L1461.02 890.983Z" fill="#B77E6D"/>
<path d="M1462.01 891.212C1461.93 891.2 1461.86 891.181 1461.79 891.17C1461.86 891.185 1461.93 891.2 1462.01 891.212Z" fill="#B77E6D"/>
<path d="M1560.58 893.984C1560.64 894.29 1560.7 894.591 1560.76 894.889C1560.7 894.591 1560.64 894.286 1560.58 893.984Z" fill="#B77E6D"/>
<path d="M1561.15 897.43C1561.19 897.773 1561.22 898.104 1561.25 898.432C1561.22 898.104 1561.19 897.773 1561.15 897.43Z" fill="#B77E6D"/>
<path d="M1558.6 886.504C1558.69 886.802 1558.78 887.103 1558.87 887.405C1558.78 887.1 1558.69 886.802 1558.6 886.504Z" fill="#B77E6D"/>
<path d="M1558.18 885.192C1557.94 884.442 1557.7 883.729 1557.47 883.055C1557.47 883.055 1557.47 883.055 1557.47 883.051C1557.71 883.737 1557.95 884.468 1558.2 885.234C1558.19 885.218 1558.19 885.207 1558.19 885.192H1558.18Z" fill="#B77E6D"/>
<path d="M1559.61 889.948C1559.39 889.171 1559.17 888.402 1558.95 887.648C1559.19 888.455 1559.42 889.277 1559.65 890.106C1559.63 890.054 1559.62 890.001 1559.61 889.948Z" fill="#B77E6D"/>
<path d="M1558.52 886.267C1558.42 885.931 1558.31 885.604 1558.21 885.279C1558.33 885.641 1558.44 886.014 1558.56 886.391C1558.55 886.35 1558.54 886.308 1558.53 886.267H1558.52Z" fill="#B77E6D"/>
<path d="M1116.2 1121.99C1134.65 1100.4 1148.53 1086.44 1172.97 1077.27C1186.45 1072.2 1198.65 1078.99 1218.24 1056.63C1230.17 1043.03 1243.83 1023.39 1253.92 1007.77C1253.92 1007.77 1253.93 1007.76 1253.93 1007.75C1254.06 1007.56 1254.18 1007.37 1254.3 1007.17C1260.62 997.368 1259.94 999.679 1262.01 995.713C1267.02 986.141 1279.93 986.812 1287.43 989.161C1288.02 989.346 1288.61 989.481 1289.2 989.545C1292.25 989.87 1299.91 984.577 1309.23 976.705C1323.33 981.255 1365.11 933.932 1372.02 924.76C1378.93 915.588 1392.44 905.65 1397.85 911.765C1403.26 917.88 1391.24 931.64 1380.73 946.162C1370.22 960.687 1387.09 952.604 1390.1 947.251C1393.1 941.902 1413.17 923.229 1419.47 913.292C1425.78 903.355 1431.19 901.828 1429.69 905.266C1428.18 908.704 1426.08 913.673 1429.69 915.584C1433.29 917.495 1443.5 899.913 1445.6 896.855C1447.7 893.798 1454.61 883.861 1457.62 888.448C1457.82 888.765 1458.05 889.04 1458.29 889.297C1458.06 891.589 1457.37 893.738 1456.11 895.329C1451.61 901.062 1442 907.177 1441.7 911.761C1441.4 916.349 1452.21 913.673 1452.21 919.787C1452.21 925.902 1444.1 931.636 1438.99 934.694C1433.88 937.751 1419.17 940.808 1419.17 945.012C1419.17 949.215 1434.49 946.542 1440.79 948.45C1447.1 950.361 1446.8 964.121 1442.89 969.09C1438.99 974.059 1414.96 1011.9 1414.66 1020.69C1414.36 1029.48 1418.57 1030.63 1425.02 1030.63C1431.48 1030.63 1436.28 1034.45 1436.28 1039.03C1436.28 1043.62 1421.84 1058.52 1414.65 1064.26C1407.45 1069.99 1411.66 1080.31 1421.57 1080.69C1421.57 1080.69 1448.17 1078.25 1460.91 1091.22C1473.64 1104.19 1478.1 1113.11 1497.85 1108.24C1517.6 1103.38 1546.26 1096.09 1564.1 1121.21C1581.93 1146.34 1562.19 1161.74 1564.1 1169.04C1566.01 1176.33 1573.02 1186.06 1593.4 1183.63C1610.91 1181.54 1627.94 1197.99 1632.39 1213.98H1027C1027 1213.98 1083.1 1160.68 1116.2 1121.96V1121.99Z" fill="#64AED2"/>
<path d="M1561.01 896.373C1560.99 896.252 1560.97 896.136 1560.95 896.015C1560.91 895.762 1560.87 895.51 1560.82 895.253C1560.81 895.14 1560.78 895.027 1560.76 894.914C1560.91 895.702 1561.04 896.467 1561.13 897.206C1561.09 896.931 1561.05 896.652 1561.01 896.373H1561.01Z" fill="#B77E6D"/>
<path d="M1560.21 892.338C1560.14 892.047 1560.07 891.757 1560 891.467C1560.1 891.855 1560.19 892.243 1560.28 892.628C1560.26 892.53 1560.24 892.436 1560.21 892.338H1560.21Z" fill="#B77E6D"/>
<path d="M1559.69 890.254C1559.76 890.533 1559.84 890.816 1559.91 891.095C1559.84 890.816 1559.76 890.533 1559.69 890.254Z" fill="#B77E6D"/>
<path d="M1560.28 892.631C1560.37 893.012 1560.45 893.389 1560.53 893.766C1560.45 893.389 1560.37 893.012 1560.28 892.631Z" fill="#B77E6D"/>
<path d="M1561.23 901.457C1561.26 901.193 1561.28 900.914 1561.3 900.627C1561.3 900.537 1561.3 900.446 1561.31 900.356C1561.31 900.149 1561.31 899.938 1561.31 899.723C1561.32 900.341 1561.3 900.925 1561.23 901.457Z" fill="#B77E6D"/>
<path d="M1462.52 891.275C1462.55 891.275 1462.58 891.283 1462.61 891.287C1462.7 891.294 1462.78 891.306 1462.87 891.309C1463.07 891.321 1463.27 891.328 1463.47 891.328C1463.56 891.328 1463.66 891.328 1463.76 891.328C1463.95 891.328 1464.14 891.317 1464.34 891.302C1464.45 891.294 1464.55 891.287 1464.66 891.279C1463.94 891.343 1463.22 891.347 1462.52 891.275Z" fill="#B77E6D"/>
<path d="M1593.29 920.757C1600.05 923.336 1614.98 924.128 1622.41 926.706C1629.84 929.285 1678.29 967.421 1717.36 1004.51C1740.98 1026.93 1769.91 1073.83 1780.72 1087.59C1791.54 1101.35 1796.27 1098.76 1802.35 1104.78C1808.43 1110.8 1918 1214 1918 1214H1632.39C1627.94 1198.01 1610.91 1181.56 1593.4 1183.65C1573.01 1186.08 1566.01 1176.35 1564.1 1169.06C1562.19 1161.76 1581.93 1146.36 1564.1 1121.23C1546.27 1096.11 1517.6 1103.4 1497.85 1108.26C1478.11 1113.13 1473.65 1104.21 1460.91 1091.24C1448.17 1078.27 1421.57 1080.71 1421.57 1080.71C1411.66 1080.33 1407.45 1070.01 1414.65 1064.28C1421.84 1058.54 1436.29 1043.64 1436.29 1039.05C1436.29 1034.46 1431.48 1030.65 1425.02 1030.65C1418.57 1030.65 1414.36 1029.5 1414.66 1020.71C1414.96 1011.92 1438.99 974.079 1442.9 969.11C1446.8 964.141 1447.1 950.381 1440.79 948.47C1434.49 946.558 1419.17 949.235 1419.17 945.032C1419.17 940.828 1433.89 937.771 1438.99 934.713C1444.1 931.656 1452.21 925.922 1452.21 919.807C1452.21 913.693 1441.4 916.369 1441.7 911.781C1442 907.193 1451.61 901.078 1456.12 895.348C1457.37 893.757 1458.06 891.609 1458.29 889.316C1458.29 889.316 1458.29 889.316 1458.3 889.324C1458.49 889.531 1458.7 889.72 1458.91 889.893C1459.08 890.029 1459.26 890.146 1459.44 890.259C1459.48 890.289 1459.53 890.327 1459.57 890.357C1459.79 890.489 1460.02 890.602 1460.25 890.704C1460.26 890.708 1460.27 890.715 1460.28 890.719C1460.61 890.862 1460.95 890.975 1461.3 891.066C1461.46 891.107 1461.63 891.145 1461.79 891.179C1461.86 891.194 1461.94 891.209 1462.01 891.22C1462.18 891.247 1462.35 891.265 1462.52 891.284C1463.22 891.356 1463.94 891.356 1464.66 891.288C1464.72 891.284 1464.78 891.277 1464.83 891.269C1465.08 891.243 1465.32 891.216 1465.56 891.179C1465.65 891.167 1465.73 891.152 1465.81 891.137C1466.33 891.051 1466.84 890.941 1467.34 890.813C1467.5 890.772 1467.66 890.73 1467.82 890.685C1468.24 890.564 1468.64 890.436 1469.04 890.3C1469.16 890.255 1469.29 890.214 1469.41 890.172C1469.56 890.119 1469.7 890.063 1469.85 890.006L1469.87 889.999C1469.93 889.976 1469.99 889.954 1470.05 889.931C1470.32 889.825 1470.58 889.72 1470.83 889.618C1474.43 888.087 1478.63 893.821 1483.44 899.175C1488.25 904.524 1493.35 899.175 1491.55 894.206C1489.75 889.237 1486.44 882.357 1490.05 881.211C1493.65 880.065 1507.47 895.352 1517.68 907.009C1527.89 918.665 1546.51 939.305 1548.31 936.248C1550.11 933.19 1542.3 918.284 1532.69 907.201C1523.08 896.117 1516.17 878.919 1528.79 889.618C1541.4 900.321 1560.33 908.728 1561.23 901.467C1561.29 900.935 1561.31 900.351 1561.3 899.729C1561.3 899.627 1561.3 899.522 1561.3 899.416C1561.29 899.186 1561.28 898.952 1561.26 898.715C1561.25 898.628 1561.25 898.541 1561.24 898.451C1561.22 898.123 1561.18 897.791 1561.15 897.448C1561.14 897.376 1561.13 897.305 1561.12 897.233C1561.12 897.229 1561.12 897.226 1561.12 897.218C1561.03 896.479 1560.91 895.71 1560.76 894.926C1560.76 894.919 1560.76 894.911 1560.75 894.903C1560.7 894.606 1560.64 894.3 1560.57 893.999C1560.57 893.999 1560.57 893.995 1560.57 893.991C1560.56 893.923 1560.55 893.855 1560.53 893.784C1560.53 893.784 1560.53 893.784 1560.53 893.78C1560.45 893.403 1560.37 893.026 1560.28 892.645C1560.19 892.257 1560.1 891.872 1560 891.484C1559.97 891.364 1559.94 891.243 1559.91 891.122C1559.91 891.118 1559.91 891.115 1559.91 891.111C1559.84 890.828 1559.76 890.549 1559.69 890.27C1559.67 890.221 1559.66 890.172 1559.65 890.123C1559.43 889.294 1559.19 888.472 1558.95 887.665C1558.95 887.665 1558.95 887.661 1558.95 887.658C1558.93 887.582 1558.91 887.511 1558.88 887.439C1558.88 887.435 1558.88 887.432 1558.88 887.424C1558.79 887.119 1558.69 886.817 1558.6 886.523V886.512C1558.59 886.478 1558.58 886.44 1558.57 886.406C1558.45 886.029 1558.33 885.66 1558.21 885.294C1558.21 885.29 1558.21 885.283 1558.21 885.279C1558.21 885.271 1558.2 885.264 1558.2 885.253C1557.95 884.487 1557.71 883.756 1557.47 883.07C1557.47 883.07 1557.47 883.066 1557.47 883.062C1575.75 903.514 1590.79 919.815 1593.3 920.772L1593.29 920.757Z" fill="#6AB9D9"/>
<path d="M1558.52 886.265C1558.42 885.925 1558.31 885.59 1558.2 885.262C1558.31 885.59 1558.41 885.925 1558.52 886.265Z" fill="#B77E6D"/>
<path d="M1464.35 891.302C1464.45 891.294 1464.56 891.287 1464.66 891.279C1464.56 891.291 1464.45 891.294 1464.35 891.302Z" fill="#B77E6D"/>
<path d="M1466.1 891.079C1466.22 891.057 1466.34 891.034 1466.46 891.008C1466.34 891.034 1466.22 891.057 1466.1 891.079Z" fill="#B77E6D"/>
<path d="M1560.95 896.008C1560.91 895.755 1560.87 895.502 1560.83 895.246C1560.87 895.502 1560.92 895.755 1560.95 896.008Z" fill="#B77E6D"/>
<path d="M1461.79 891.17C1461.86 891.185 1461.93 891.2 1462.01 891.212C1461.93 891.2 1461.86 891.181 1461.79 891.17Z" fill="#B77E6D"/>
<path d="M1458.28 889.311C1458.28 889.311 1458.28 889.311 1458.29 889.317C1458.29 889.317 1458.29 889.317 1458.28 889.311Z" fill="#B77E6D"/>
<path d="M1458.29 889.313C1458.29 889.313 1458.29 889.313 1458.29 889.317C1458.29 889.317 1458.29 889.313 1458.28 889.309L1458.29 889.313Z" fill="#B77E6D"/>
<path d="M1462.61 891.287C1462.7 891.295 1462.79 891.306 1462.87 891.31C1462.79 891.302 1462.7 891.295 1462.61 891.287Z" fill="#B77E6D"/>
<path d="M1558.18 885.196C1557.94 884.446 1557.7 883.733 1557.47 883.059C1557.7 883.73 1557.94 884.45 1558.18 885.196Z" fill="#B77E6D"/>
<path d="M1561.3 899.406C1561.29 899.176 1561.28 898.939 1561.26 898.697C1561.28 898.939 1561.29 899.172 1561.3 899.406Z" fill="#B77E6D"/>
<path d="M1561.31 900.356C1561.31 900.149 1561.31 899.938 1561.31 899.723C1561.31 899.938 1561.31 900.149 1561.31 900.356Z" fill="#B77E6D"/>
<path d="M1466.97 890.893C1467.09 890.863 1467.21 890.833 1467.34 890.799C1467.21 890.829 1467.09 890.863 1466.97 890.893Z" fill="#B77E6D"/>
<path d="M1561.13 897.219C1561.09 896.94 1561.06 896.658 1561.01 896.371C1561.05 896.658 1561.09 896.94 1561.13 897.219Z" fill="#B77E6D"/>
<path d="M1561.25 898.436C1561.22 898.108 1561.19 897.773 1561.15 897.43C1561.19 897.773 1561.22 898.108 1561.25 898.436Z" fill="#B77E6D"/>
<path d="M1468.63 890.432C1468.77 890.387 1468.91 890.342 1469.04 890.293C1468.91 890.338 1468.77 890.387 1468.63 890.432Z" fill="#B77E6D"/>
<path d="M1467.82 890.678C1467.95 890.64 1468.07 890.602 1468.2 890.564C1468.07 890.602 1467.94 890.644 1467.82 890.678Z" fill="#B77E6D"/>
<path d="M1559.61 889.95C1559.39 889.173 1559.17 888.4 1558.95 887.643C1559.17 888.4 1559.39 889.169 1559.61 889.95Z" fill="#B77E6D"/>
<path d="M1470.15 889.886C1470.39 889.792 1470.62 889.702 1470.83 889.607C1470.62 889.698 1470.39 889.792 1470.15 889.886Z" fill="#B77E6D"/>
<path d="M1463.76 891.327C1463.95 891.327 1464.15 891.316 1464.35 891.301C1464.15 891.312 1463.96 891.323 1463.76 891.327Z" fill="#B77E6D"/>
<path d="M1560.58 893.98C1560.56 893.912 1560.55 893.844 1560.53 893.771C1560.55 893.84 1560.56 893.908 1560.58 893.98Z" fill="#B77E6D"/>
<path d="M1560.82 895.25C1560.8 895.129 1560.78 895.008 1560.76 894.887C1560.78 895.008 1560.8 895.129 1560.82 895.25Z" fill="#B77E6D"/>
<path d="M1560.28 892.635C1560.26 892.537 1560.24 892.438 1560.21 892.34C1560.23 892.438 1560.26 892.537 1560.28 892.635Z" fill="#B77E6D"/>
<path d="M1466.46 891.008C1466.63 890.974 1466.8 890.936 1466.97 890.895C1466.8 890.936 1466.63 890.97 1466.46 891.008Z" fill="#B77E6D"/>
<path d="M1469.87 889.993C1469.96 889.959 1470.06 889.925 1470.15 889.887C1470.06 889.921 1469.96 889.955 1469.87 889.993Z" fill="#B77E6D"/>
<path d="M1561.27 898.703C1561.26 898.615 1561.26 898.528 1561.25 898.438C1561.26 898.528 1561.27 898.612 1561.27 898.703Z" fill="#B77E6D"/>
<path d="M1561.3 900.628C1561.3 900.537 1561.3 900.446 1561.31 900.355C1561.31 900.446 1561.31 900.541 1561.3 900.628Z" fill="#B77E6D"/>
<path d="M1561.31 899.726C1561.31 899.62 1561.31 899.518 1561.3 899.412C1561.3 899.518 1561.31 899.624 1561.31 899.726Z" fill="#B77E6D"/>
<path d="M1557.47 883.058C1557.47 883.058 1557.47 883.049 1557.47 883.045C1557.47 883.045 1557.47 883.049 1557.47 883.054C1557.47 883.054 1557.47 883.054 1557.47 883.058H1557.47Z" fill="#B77E6D"/>
<path d="M1558.21 885.263C1558.2 885.24 1558.19 885.217 1558.18 885.197C1558.19 885.221 1558.2 885.244 1558.21 885.263Z" fill="#B77E6D"/>
<path d="M1468.2 890.564C1468.34 890.518 1468.49 890.477 1468.63 890.432C1468.49 890.477 1468.35 890.518 1468.2 890.564Z" fill="#B77E6D"/>
<path d="M1309.23 976.715C1324.64 963.693 1344.57 943.615 1355.68 930.217C1373.5 908.717 1427.07 837.67 1442.98 820.004C1453.56 808.257 1468.57 800.842 1472.66 799.391C1470.3 806.056 1468.19 808.71 1467.83 815.081C1466.93 830.752 1463.92 847.185 1460.32 854.831C1456.72 862.476 1451.91 863.237 1448.91 864.768C1445.91 866.299 1446.51 875.086 1452.21 875.851C1456.34 876.406 1458.89 883.342 1458.29 889.314C1458.05 889.057 1457.82 888.778 1457.62 888.465C1454.62 883.877 1447.71 893.815 1445.6 896.872C1443.5 899.93 1431.58 926.172 1427.98 924.26C1424.37 922.349 1422.44 919.869 1423.94 916.43C1425.44 912.992 1418.25 913.501 1411.94 923.439C1405.64 933.376 1393.95 944.12 1390.95 949.47C1387.94 954.819 1370.21 960.7 1380.73 946.179C1391.24 931.653 1395.31 926.462 1389.9 920.347C1384.49 914.233 1378.92 915.601 1372.02 924.773C1365.11 933.945 1323.32 981.269 1309.22 976.718L1309.23 976.715Z" fill="white"/>
<path d="M1458.9 889.887C1459.09 890.038 1459.29 890.173 1459.49 890.298C1459.47 890.283 1459.45 890.267 1459.43 890.252C1459.25 890.139 1459.07 890.022 1458.9 889.887Z" fill="#B77E6D"/>
<path d="M1459.57 890.346C1460.02 890.617 1460.51 890.824 1461.02 890.979C1460.77 890.904 1460.52 890.813 1460.28 890.708C1460.27 890.704 1460.26 890.696 1460.25 890.693C1460.02 890.591 1459.79 890.478 1459.57 890.346H1459.57Z" fill="#B77E6D"/>
<path d="M1458.29 889.318C1458.49 889.526 1458.69 889.714 1458.9 889.888C1458.69 889.718 1458.48 889.526 1458.29 889.318H1458.29Z" fill="#B77E6D"/>
<path d="M1460.28 890.709C1460.28 890.709 1460.26 890.697 1460.24 890.693C1460.26 890.697 1460.26 890.705 1460.28 890.709Z" fill="#B77E6D"/>
<path d="M1459.43 890.256C1459.45 890.271 1459.47 890.286 1459.49 890.301C1459.52 890.317 1459.54 890.336 1459.57 890.351C1459.52 890.32 1459.47 890.282 1459.43 890.252V890.256Z" fill="#B77E6D"/>
<path d="M1461.16 891.027C1461.36 891.084 1461.57 891.129 1461.79 891.167C1461.57 891.125 1461.36 891.084 1461.16 891.027Z" fill="#B77E6D"/>
<path d="M1558.95 887.639C1558.92 887.564 1558.9 887.492 1558.88 887.42C1558.9 887.496 1558.92 887.568 1558.95 887.639Z" fill="#B77E6D"/>
<path d="M1558.6 886.497C1558.57 886.421 1558.55 886.341 1558.52 886.266C1558.55 886.341 1558.57 886.417 1558.6 886.497Z" fill="#B77E6D"/>
<path d="M1462 891.211C1462.2 891.245 1462.41 891.264 1462.61 891.283C1462.41 891.264 1462.21 891.241 1462 891.211Z" fill="#B77E6D"/>
<path d="M1559.68 890.252C1559.66 890.15 1559.63 890.048 1559.6 889.945C1559.63 890.048 1559.65 890.15 1559.68 890.252Z" fill="#B77E6D"/>
<path d="M1558.52 886.264C1558.54 886.305 1558.55 886.347 1558.56 886.388C1558.57 886.426 1558.58 886.464 1558.6 886.505C1558.69 886.803 1558.78 887.105 1558.87 887.406C1558.9 887.485 1558.92 887.565 1558.95 887.647C1559.17 888.401 1559.39 889.171 1559.6 889.947C1559.62 890 1559.63 890.053 1559.64 890.105C1559.66 890.154 1559.67 890.203 1559.68 890.252C1559.76 890.531 1559.83 890.814 1559.9 891.093C1559.93 891.218 1559.97 891.342 1560 891.466C1560.07 891.757 1560.14 892.047 1560.21 892.337C1560.23 892.435 1560.25 892.529 1560.28 892.628C1560.36 893.008 1560.45 893.385 1560.53 893.762C1560.54 893.834 1560.56 893.906 1560.57 893.981C1560.64 894.286 1560.7 894.588 1560.75 894.886C1560.75 894.893 1560.75 894.901 1560.76 894.908C1560.78 895.021 1560.8 895.134 1560.82 895.248C1560.86 895.504 1560.91 895.757 1560.95 896.009C1560.97 896.13 1560.98 896.25 1561 896.367C1561.04 896.65 1561.08 896.929 1561.12 897.2C1561.13 897.276 1561.14 897.355 1561.15 897.427C1561.19 897.77 1561.22 898.101 1561.24 898.429C1561.25 898.52 1561.26 898.607 1561.26 898.697C1561.28 898.935 1561.29 899.168 1561.3 899.398C1561.3 899.504 1561.3 899.609 1561.31 899.711C1561.31 899.93 1561.31 900.141 1561.3 900.348C1561.3 900.439 1561.3 900.533 1561.3 900.62C1561.28 900.906 1561.26 901.185 1561.23 901.449C1560.33 908.71 1546.78 904.465 1534.17 893.762C1521.56 883.06 1523.09 896.1 1532.69 907.183C1542.31 918.266 1550.11 933.173 1548.31 936.23C1546.51 939.287 1526.84 925.633 1516.63 913.973C1506.42 902.316 1493.65 880.044 1490.05 881.193C1486.44 882.34 1489.74 889.22 1491.55 894.188C1493.35 899.157 1488.24 904.506 1483.44 899.157C1478.63 893.807 1474.43 888.073 1470.82 889.6C1470.61 889.691 1470.38 889.785 1470.14 889.879C1470.11 889.891 1470.08 889.902 1470.05 889.917C1469.98 889.943 1469.92 889.966 1469.85 889.992C1469.71 890.049 1469.56 890.102 1469.41 890.158C1469.29 890.203 1469.16 890.245 1469.04 890.286C1468.9 890.332 1468.77 890.381 1468.63 890.422C1468.49 890.467 1468.34 890.513 1468.2 890.554C1468.07 890.592 1467.94 890.629 1467.81 890.667C1467.65 890.712 1467.49 890.754 1467.33 890.795C1467.21 890.826 1467.08 890.859 1466.96 890.886C1466.79 890.927 1466.63 890.961 1466.45 890.999C1466.34 891.025 1466.21 891.048 1466.1 891.071C1466 891.089 1465.9 891.104 1465.8 891.12C1465.72 891.135 1465.64 891.15 1465.56 891.161C1465.44 891.176 1465.33 891.195 1465.22 891.21C1465.09 891.229 1464.96 891.24 1464.82 891.255C1464.77 891.263 1464.71 891.27 1464.66 891.274C1464.55 891.285 1464.44 891.289 1464.34 891.297C1464.14 891.308 1463.95 891.319 1463.76 891.323C1463.66 891.323 1463.56 891.323 1463.47 891.323C1463.27 891.323 1463.07 891.316 1462.87 891.304C1462.78 891.301 1462.7 891.289 1462.61 891.282C1462.58 891.282 1462.55 891.274 1462.52 891.27C1462.34 891.252 1462.17 891.236 1462 891.206C1461.93 891.195 1461.86 891.176 1461.79 891.165C1461.62 891.131 1461.45 891.097 1461.28 891.052C1461.24 891.04 1461.2 891.033 1461.16 891.022C1461.11 891.006 1461.06 890.988 1461.01 890.973C1460.51 890.818 1460.02 890.611 1459.56 890.339C1459.54 890.324 1459.51 890.305 1459.49 890.29C1459.28 890.166 1459.09 890.034 1458.9 889.879C1458.69 889.706 1458.48 889.517 1458.29 889.31C1458.29 889.31 1458.29 889.31 1458.28 889.306C1458.88 883.335 1454.02 877.084 1449.9 876.534C1444.19 875.769 1443.36 863.562 1448.75 859.158C1451.46 856.934 1453.6 850.65 1457.21 843.005C1460.81 835.359 1466.92 830.745 1467.82 815.077C1468.19 808.706 1470.29 806.052 1472.66 799.387C1475.82 798.264 1478.55 799.628 1481.79 802.625C1486.46 806.946 1526.59 848.497 1557.46 883.044C1557.46 883.048 1557.46 883.052 1557.47 883.056C1557.7 883.727 1557.94 884.447 1558.18 885.193C1558.18 885.208 1558.19 885.22 1558.19 885.235C1558.19 885.25 1558.2 885.261 1558.2 885.276C1558.31 885.6 1558.41 885.928 1558.52 886.264H1558.52Z" fill="#A1DCEA"/>
<path d="M1462 891.211C1462.17 891.237 1462.35 891.256 1462.52 891.275C1462.35 891.256 1462.17 891.241 1462 891.211Z" fill="#B77E6D"/>
<path d="M1469.42 890.162C1469.3 890.207 1469.17 890.249 1469.04 890.29C1469.17 890.249 1469.3 890.207 1469.42 890.162H1469.42Z" fill="#B77E6D"/>
<path d="M1467.82 890.678C1467.66 890.723 1467.5 890.764 1467.34 890.806C1467.5 890.764 1467.66 890.723 1467.82 890.678H1467.82Z" fill="#B77E6D"/>
<path d="M1558.21 885.278C1558.21 885.278 1558.2 885.25 1558.2 885.234C1558.2 885.242 1558.2 885.25 1558.2 885.262C1558.2 885.266 1558.2 885.274 1558.21 885.278H1558.21Z" fill="#B77E6D"/>
<path d="M1458.29 889.318C1458.49 889.526 1458.69 889.718 1458.91 889.888C1458.69 889.718 1458.49 889.529 1458.29 889.318H1458.29Z" fill="#B77E6D"/>
<path d="M1461.79 891.172C1461.62 891.138 1461.45 891.1 1461.29 891.059C1461.46 891.1 1461.62 891.138 1461.79 891.172H1461.79Z" fill="#B77E6D"/>
<path d="M1469.87 889.992L1469.85 890C1469.91 889.973 1469.98 889.95 1470.05 889.924C1469.99 889.947 1469.93 889.969 1469.86 889.992H1469.87Z" fill="#B77E6D"/>
<path d="M1560.76 894.891C1560.76 894.891 1560.76 894.907 1560.76 894.915C1560.76 894.907 1560.76 894.899 1560.76 894.891Z" fill="#B77E6D"/>
<path d="M1561.13 897.22C1561.13 897.292 1561.14 897.364 1561.15 897.436C1561.14 897.36 1561.13 897.285 1561.12 897.209C1561.12 897.213 1561.12 897.217 1561.12 897.224L1561.13 897.22Z" fill="#B77E6D"/>
<path d="M1560.53 893.769C1560.55 893.838 1560.56 893.906 1560.57 893.978C1560.57 893.978 1560.57 893.981 1560.57 893.985C1560.56 893.913 1560.54 893.841 1560.53 893.766C1560.53 893.766 1560.53 893.766 1560.53 893.769H1560.53Z" fill="#B77E6D"/>
<path d="M1558.59 886.495V886.506C1558.59 886.468 1558.57 886.43 1558.56 886.389C1558.57 886.423 1558.58 886.461 1558.59 886.495Z" fill="#B77E6D"/>
<path d="M1559.91 891.107C1559.94 891.228 1559.97 891.349 1560 891.47C1559.97 891.346 1559.94 891.221 1559.91 891.096C1559.91 891.099 1559.91 891.103 1559.91 891.107H1559.91Z" fill="#B77E6D"/>
<path d="M1561.3 899.406C1561.3 899.512 1561.31 899.614 1561.31 899.72C1561.31 899.614 1561.31 899.512 1561.3 899.406Z" fill="#B77E6D"/>
<path d="M1561.25 898.439C1561.26 898.53 1561.26 898.613 1561.26 898.704C1561.26 898.613 1561.25 898.526 1561.24 898.436L1561.25 898.439Z" fill="#B77E6D"/>
<path d="M1558.88 887.423C1558.9 887.495 1558.92 887.571 1558.95 887.643C1558.95 887.643 1558.95 887.647 1558.95 887.65C1558.92 887.571 1558.9 887.491 1558.87 887.408C1558.87 887.412 1558.87 887.416 1558.88 887.423Z" fill="#B77E6D"/>
<path d="M1414.65 1064.28C1414.65 1064.28 1370.29 1115.97 1347.31 1124.57C1324.34 1133.17 1212.16 1156.38 1197.96 1214H1786.26C1786.26 1214 1746.43 1170.49 1725.48 1163.61C1704.54 1156.73 1657.91 1122.4 1653.17 1107.78C1648.44 1093.16 1557.89 1007.24 1530.86 1002.09C1503.83 996.926 1447.38 1029.84 1414.65 1064.28H1414.65Z" fill="#5D9DC1"/>
<path opacity="0.47" d="M1593.29 920.76C1593.29 920.76 1633.61 987.837 1645.78 1017.65C1645.78 1017.65 1636.64 968.445 1608.36 923.851C1608.36 923.851 1599.38 921.906 1593.29 920.76Z" fill="#7BB5D8"/>
<path opacity="0.5" d="M1064.7 1214C1064.7 1214 1113.93 1173.39 1136.24 1149.9C1158.55 1126.41 1193.93 1114.59 1217.78 1107.77C1241.62 1100.95 1281.63 1061.8 1298.55 1043.2C1315.47 1024.6 1364.75 1009.91 1380.09 1047.57C1395.44 1085.23 1302 1135.22 1262.4 1155.77C1222.9 1176.27 1206.24 1214 1206.24 1214H1064.7Z" fill="#579FBD"/>
</g>
<path d="M670.672 1907.39V1871.43H656.531V1864.72H692.737V1871.43H678.596V1907.39H670.672ZM716.42 1874.48C724.222 1874.48 730.013 1878.93 730.013 1888.74V1907.39H722.394V1889.71C722.394 1883.92 719.529 1881.12 714.653 1881.12C709.228 1881.12 705.571 1884.41 705.571 1890.93V1907.39H697.952V1862.16H705.571V1878.62C708.07 1875.94 711.91 1874.48 716.42 1874.48ZM770.574 1891.3C770.574 1891.91 770.513 1892.82 770.452 1893.55H744.913C745.827 1898.31 749.789 1901.36 755.458 1901.36C759.115 1901.36 761.979 1900.2 764.296 1897.82L768.379 1902.51C765.454 1905.99 760.882 1907.82 755.275 1907.82C744.364 1907.82 737.294 1900.81 737.294 1891.12C737.294 1881.42 744.425 1874.48 754.117 1874.48C763.625 1874.48 770.574 1881.12 770.574 1891.3ZM754.117 1880.57C749.179 1880.57 745.583 1883.74 744.852 1888.5H763.32C762.711 1883.8 759.115 1880.57 754.117 1880.57ZM803.393 1900.75H827.469V1907.39H795.469V1864.72H826.616V1871.37H803.393V1882.46H823.995V1888.98H803.393V1900.75ZM858.316 1874.84H865.63L851.672 1907.39H843.809L829.851 1874.84H837.775L847.893 1898.98L858.316 1874.84ZM900.098 1891.3C900.098 1891.91 900.037 1892.82 899.976 1893.55H874.437C875.351 1898.31 879.313 1901.36 884.981 1901.36C888.639 1901.36 891.503 1900.2 893.82 1897.82L897.903 1902.51C894.978 1905.99 890.406 1907.82 884.799 1907.82C873.888 1907.82 866.818 1900.81 866.818 1891.12C866.818 1881.42 873.949 1874.48 883.64 1874.48C893.149 1874.48 900.098 1881.12 900.098 1891.3ZM883.64 1880.57C878.703 1880.57 875.107 1883.74 874.376 1888.5H892.844C892.235 1883.8 888.639 1880.57 883.64 1880.57ZM925.885 1874.48C933.687 1874.48 939.477 1878.93 939.477 1888.74V1907.39H931.858V1889.71C931.858 1883.92 928.993 1881.12 924.117 1881.12C918.692 1881.12 915.035 1884.41 915.035 1890.93V1907.39H907.416V1874.84H914.669V1879.05C917.169 1876.06 921.13 1874.48 925.885 1874.48ZM966.575 1900.2L968.708 1905.62C966.879 1907.09 964.137 1907.82 961.394 1907.82C954.262 1907.82 950.179 1904.04 950.179 1896.85V1881.18H944.815V1875.09H950.179V1867.65H957.798V1875.09H966.514V1881.18H957.798V1896.66C957.798 1899.83 959.382 1901.54 962.308 1901.54C963.893 1901.54 965.417 1901.11 966.575 1900.2Z" fill="black"/>
<path d="M581.428 1540.39C634.682 1540.39 670.951 1602.2 676.118 1619.4C733.822 1613.07 757.047 1661.33 761.446 1686.25C838.548 1658.69 890.87 1701.35 907.394 1726.12C1006.1 1727.76 1021.27 1743.03 1016.51 1750.46H931.488C954.201 1772.03 953.741 1820.43 950.672 1841.93C984.189 1844.63 989.601 1860.16 988.118 1867.58C1090.14 1838.27 1172.43 1887.03 1200.82 1915.08C1213.82 1913.96 1248.58 1914.67 1283.7 1926.52C1318.81 1938.36 1309.68 1947.28 1300.73 1950.26C1286 1944.87 1222.26 1944.4 1192.23 1944.84C1090.7 1940.5 1074.32 1951.14 1078.82 1957.01C1110.58 1957.01 1136.21 1971.23 1124.24 1975.92C1112.27 1980.61 980.444 1981.34 988.118 1975.92C995.791 1970.49 1034.93 1961.11 1030.63 1957.01C1026.33 1952.9 849.997 1945.43 849.997 1950.26C849.997 1955.1 859.205 1961.11 879.002 1961.11C894.84 1961.11 899.823 1967.86 900.334 1971.23C794.134 1980.76 732.287 1977.24 672.128 1971.23C611.968 1965.22 458.347 1966.1 458.347 1959.65C468.169 1948.39 489.45 1944.79 498.863 1944.4C491.496 1937.36 282.166 1936.78 263.136 1936.19C244.106 1935.6 226.304 1939.12 227.532 1944.4C228.759 1949.68 245.334 1947.92 263.136 1951.44C277.378 1954.25 272.549 1958.08 268.354 1959.65C268.354 1959.65 21.578 1952.02 8.0728 1951.73C-5.43236 1951.44 2.08756 1940.3 2.08756 1940.3C28.484 1940.3 50.123 1924.17 63.3212 1924.17C73.8798 1924.17 98.1072 1919.58 108.901 1917.28C126.212 1874.12 175.25 1858.06 197.606 1855.42C170.718 1837.01 198.373 1824.88 215.561 1821.11C210.65 1735.03 257.765 1704.08 290.607 1698.71H252.854C197.606 1701.49 193.616 1688.59 215.561 1683.61C237.507 1678.62 307.949 1680.24 307.949 1680.24C330.048 1602.37 396.346 1597.36 426.733 1604.59C443.062 1569.76 475.894 1569.46 490.269 1573.66C504.633 1546.22 543.215 1540.39 581.428 1540.39Z" fill="white"/>
<path d="M1050.3 1786.43C1037.03 1787.16 1034.62 1781.14 1035.07 1778.03C1036.11 1775.9 1040.6 1771.7 1050.23 1772.03C1059.86 1772.36 1065.83 1776.49 1067.62 1778.51C1067.37 1780.85 1063.57 1785.71 1050.3 1786.43Z" fill="white"/>
<path d="M137.139 1707.8C155.31 1706.16 160.262 1713.47 160.466 1717.33C156.63 1726.85 135.144 1721.28 133.149 1720.4C131.154 1719.52 122.56 1720.4 120.872 1713.66C119.521 1708.27 131.154 1707.5 137.139 1707.8Z" fill="white"/>
<path opacity="0.6" fill-rule="evenodd" clip-rule="evenodd" d="M676.424 1618.96C671.391 1607.82 661.538 1591.84 656.934 1585.24C654.12 1592.23 643.183 1608.76 624.399 1618.96C605.614 1629.16 580.456 1628.2 570.225 1626.44V1630.1C612.459 1629.05 625.371 1648.33 626.547 1658.1C636.492 1629.6 663.942 1620.13 676.424 1618.96ZM476.302 1626.44C463.043 1622.92 443.563 1602.69 435.48 1593.01C433.27 1590.45 429.034 1599.76 427.193 1604.74C430.999 1606.03 434.303 1612.32 435.48 1615.3C398.034 1612.36 378.237 1621.5 373.019 1626.44C327.961 1654.93 322.323 1690.99 325.137 1705.45C291.374 1702.52 268.916 1717.81 262.215 1727.88C228.452 1752.95 216.328 1791.06 216.328 1820.97C175.076 1830.82 186.044 1847.84 196.684 1855.12C143.769 1864.27 115.909 1899.98 108.594 1916.69C85.1742 1922.5 70.9788 1923.59 63.2601 1924.19C60.2557 1924.42 58.2326 1924.57 57.0286 1924.9C55.1153 1925.42 52.1065 1926.7 48.2327 1928.35L48.232 1928.35C43.406 1930.4 37.2375 1933.02 30.1718 1935.46C19.9815 1938.98 7.10046 1939.95 1.93371 1940C-3.2228 1949.5 4.08226 1951.88 8.37936 1951.88L162.001 1956.27L267.893 1959.94C283.24 1954.31 257.509 1949.97 242.724 1948.5C234.898 1948.26 221.208 1946.31 229.066 1940.44C236.923 1934.58 293.522 1935.56 320.84 1936.78L424.277 1938.83C473.141 1938.83 494.156 1942.64 498.555 1944.55C474.369 1946.54 461.672 1955.64 458.347 1959.94C469.377 1964.57 544.395 1965.98 591.554 1966.86C593.605 1966.9 595.604 1966.94 597.542 1966.98C623.731 1967.47 654.837 1969.97 685.404 1972.42L685.405 1972.42C709.111 1974.32 732.493 1976.19 753.005 1977.09C790.574 1978.73 866.571 1973.67 899.873 1970.93C898.646 1963.16 888.67 1961.99 878.541 1961.99C868.412 1961.99 859.665 1959.94 849.536 1953.49C839.407 1947.04 888.67 1948.5 893.888 1948.94C895.513 1949.08 903.372 1949.33 914.518 1949.69H914.519C939.171 1950.47 979.904 1951.77 1004.85 1953.49C1033.82 1955.48 1033.7 1958.62 1030.01 1959.94C1023.21 1963.07 1006.2 1970.23 992.568 1973.87C978.94 1977.5 995.075 1978.6 1004.85 1978.7C1033.75 1979 1093.95 1979.41 1103.53 1978.7C1113.1 1978 1123.17 1975.18 1127.01 1973.87C1123.57 1961.2 1093.14 1957.45 1078.36 1957.15C1077.74 1949.07 1090.65 1947.63 1105.64 1945.96C1109.42 1945.54 1113.32 1945.11 1117.18 1944.55C1129.61 1942.74 1166.08 1943.4 1199.74 1944.01H1199.74L1199.74 1944.01C1218.02 1944.33 1235.47 1944.65 1247.78 1944.55C1275.78 1944.31 1294.75 1948.26 1300.73 1950.26C1306.13 1948.97 1308.71 1944.25 1309.33 1942.05C1281.7 1938.54 1222.03 1931.41 1204.35 1931.06C1186.67 1930.71 1151.97 1914.89 1136.83 1907.02C1075.69 1875.71 1005.36 1879.8 977.835 1885.76C976.976 1869.81 966.939 1861.13 962.028 1858.79C946.804 1852.81 929.595 1856.3 922.893 1858.79V1863.19C954.968 1879.31 941.924 1915.37 938.701 1918.16C937.243 1919.42 934.654 1918.1 932.355 1916.93C929.573 1915.51 927.216 1914.31 927.805 1918.16C928.664 1923.79 923.149 1926.37 920.285 1926.95C906.163 1930.42 894.885 1917.9 890.421 1912.95C889.597 1912.03 889.005 1911.37 888.67 1911.12C886.951 1909.83 889.386 1901.11 890.819 1896.9C894.011 1904.41 900.845 1901.4 903.864 1898.96C910.125 1897.08 908.519 1887.42 906.933 1882.83C880.659 1836.27 833.064 1825.71 812.55 1826.24L808.407 1819.21L815.159 1814.22C823.508 1789.48 878.541 1802.79 882.071 1825.22C901.715 1822.87 915.732 1842.91 920.285 1853.22C926.914 1845.24 942.589 1841.88 949.597 1841.2C931.549 1841.2 922.535 1830.54 920.285 1825.22C924.827 1784.41 899.464 1762.77 886.215 1757.05C847.909 1694.08 772.239 1698.37 739.193 1708.38C701.255 1636.38 624.757 1668.61 591.25 1693.72C571.851 1658.89 536.513 1643.34 521.268 1639.92C526.486 1638.75 536.155 1630.4 537.843 1626.44C539.193 1623.27 534.518 1620.13 532.011 1618.96C517.278 1627.32 492.877 1630.83 476.302 1626.44ZM290.607 1698.56L306.26 1692.84C266.205 1690.06 212.798 1689.59 203.59 1690.06C202.925 1692.89 206.936 1698.56 228.299 1698.56H290.607ZM342.938 1870.52C347.439 1867.93 357.64 1862.45 362.428 1861.28C367.216 1860.11 382.941 1860.79 390.206 1861.28C399.567 1844.52 430.291 1813.73 478.296 1824.63C485.765 1798.1 522.219 1751.34 608.283 1776.55C612.785 1770.1 629.615 1761.07 660.923 1776.55C692.23 1792.03 690.951 1812.61 686.398 1820.97C702.717 1833.92 730.996 1867 713.562 1895.73C732.285 1892.36 770.959 1896.96 775.87 1942.35H768.35C761.137 1929.4 739.038 1905.08 708.344 1911.42C698.727 1914.25 680.873 1914.06 686.398 1890.6C690.44 1870.71 683.636 1831.67 624.09 1834.6C621.021 1820.72 603.925 1794.7 560.094 1801.62C516.264 1808.54 500.805 1830.3 498.554 1840.32C471.953 1835.58 414.852 1835.86 399.26 1874.92L342.938 1870.52Z" fill="#78D8F1"/>
<path d="M476 1927.5C463.543 1924.19 459.175 1919.59 455.5 1907C452.975 1919.66 448.765 1924.38 435 1927.5C448.735 1931.03 452.676 1935.95 455.5 1948C459.657 1936.44 462.096 1930.05 476 1927.5Z" fill="#9BE3E8" style="mix-blend-mode:soft-light"/>
<path d="M792 2063C774.985 2058.48 769.02 2052.19 764 2035C760.551 2052.29 754.802 2058.74 736 2063C754.76 2067.82 760.143 2074.54 764 2091C769.678 2075.21 773.009 2066.49 792 2063Z" fill="#9BE3E8" style="mix-blend-mode:soft-light"/>
<path d="M480 1825.5C467.543 1822.19 463.175 1817.59 459.5 1805C456.975 1817.66 452.765 1822.38 439 1825.5C452.735 1829.03 456.676 1833.95 459.5 1846C463.657 1834.44 466.096 1828.05 480 1825.5Z" fill="#9BE3E8" style="mix-blend-mode:soft-light"/>
<path d="M796 1961C778.985 1956.48 773.02 1950.19 768 1933C764.551 1950.29 758.802 1956.74 740 1961C758.76 1965.82 764.143 1972.54 768 1989C773.678 1973.21 777.009 1964.49 796 1961Z" fill="#9BE3E8" style="mix-blend-mode:soft-light"/>
<defs>
<clipPath id="clip0_194_380">
<rect width="105.477" height="90.2267" fill="white" transform="matrix(-0.965057 -0.26204 -0.289779 0.957093 509.702 423.02)"/>
</clipPath>
<clipPath id="clip1_194_380">
<rect width="938" height="325" fill="white" transform="translate(457)"/>
</clipPath>
<clipPath id="clip2_194_380">
<rect width="921.718" height="679.16" fill="white" transform="translate(556.074 52.2197)"/>
</clipPath>
<clipPath id="clip3_194_380">
<rect width="891" height="415" fill="white" transform="translate(1027 799)"/>
</clipPath>
</defs>
</svg>
