<svg width="1280" height="1980" viewBox="0 0 1280 1980" fill="none" xmlns="http://www.w3.org/2000/svg">
<g clip-path="url(#clip0_194_380)">
<path d="M21.4019 450.491C21.4812 450.323 21.6633 450.129 21.8413 450.077C23.6067 449.55 24.9235 448.255 26.7154 447.698C28.6913 447.082 32.7347 444.614 32.7347 444.614C32.7347 444.614 33.4446 442.724 33.7294 441.562C34.0586 440.218 34.5186 438.967 35.82 438.154C36.1289 437.961 36.4359 437.892 36.7802 437.908C37.9156 437.97 38.9409 438.278 39.6121 439.221C40.6019 440.602 41.8974 441.72 43.0754 442.947C43.2016 443.078 43.4667 443.496 43.4667 443.496C43.4667 443.496 43.5483 443.005 43.5991 442.826C44.1874 440.743 45.486 439.216 47.4686 438.135C48.496 437.574 49.5918 437.055 50.3546 436.133C50.4147 436.062 50.4944 435.997 50.575 435.952C52.3991 434.952 52.5052 433.074 53.1237 431.463C53.1437 431.408 53.1 431.273 53.0893 431.273C52.9155 431.276 52.6709 431.233 52.5763 431.324C51.4179 432.423 49.7774 433.073 49.1985 434.729C48.9184 435.526 47.0221 436.007 45.9991 435.656C44.193 435.036 43.2098 433.073 44.4163 431.151C45.1186 430.032 45.6573 428.812 46.5087 427.784C47.765 426.269 48.1398 424.378 48.9354 422.671C49.339 421.804 49.5493 420.865 50.2221 420.111C50.2864 420.039 50.3917 419.948 50.3917 419.948C50.3917 419.948 50.116 419.693 50.0345 419.601C49.577 419.083 49.1187 418.569 48.6562 418.057C48.5295 417.916 48.3212 417.753 48.454 417.582C48.6041 417.39 48.8706 417.372 49.1245 417.478C50.1685 417.911 51.2777 418.105 52.3893 418.304C52.8016 418.376 53.137 418.317 53.3803 417.957C53.596 417.629 53.8514 417.438 54.3387 417.437C54.9183 417.435 55.5132 417.369 56.0858 417.168C56.4534 417.038 56.856 417.084 57.2282 417.312C57.5915 417.534 58.001 417.615 58.4529 417.638C59.429 417.69 60.2037 417.917 60.8218 418.871C61.2447 419.526 62.1429 420.009 62.7764 420.621C63.2706 421.099 63.9009 421.383 64.4292 421.806C64.7548 422.071 65.024 422.348 64.8683 422.815C64.7606 423.136 65.1352 423.274 65.2857 423.372C66.0855 423.889 66.0863 424.772 66.6303 425.633C66.375 425.451 66.2963 425.396 66.1687 425.305C66.1304 425.687 66.3838 425.923 66.5305 426.196C66.7187 426.554 66.7708 426.848 66.2043 426.947C65.7901 427.021 66.0146 427.259 66.1464 427.418C66.6849 428.064 67.1572 428.742 67.4021 429.542C67.4729 429.774 67.5348 430.024 67.3219 430.203C66.9282 430.536 67.1298 430.767 67.3413 431.118C67.6958 431.707 67.7431 432.437 68.2583 432.973C68.3473 433.064 68.2527 433.271 68.1115 433.26C67.8218 433.238 67.5669 433.112 67.5669 433.112C67.5669 433.112 67.859 433.698 67.9153 433.756C68.437 434.295 68.0651 434.917 68.1461 435.488C68.1587 435.575 68.0711 435.701 67.9914 435.766C67.1457 436.426 67.0165 437.121 67.5726 438.105C67.6215 438.189 67.6788 438.267 67.7086 438.355C67.7794 438.565 68.0519 438.819 67.8031 438.988C67.5375 439.165 67.484 438.748 67.0787 438.618C67.5804 439.234 67.413 439.938 67.91 440.43C68.0698 440.59 68.2007 440.775 68.1121 440.974C68.0217 441.18 67.8237 440.983 67.6747 440.985C67.0001 440.999 66.5504 441.587 66.9123 442.128C66.9365 442.165 66.9528 442.192 66.9682 442.223C67.1317 442.138 67.2929 442.048 67.4481 441.944C69.6096 440.481 70.3364 437.463 71.4135 435.059C72.2869 433.107 73.1011 431.129 74.1413 429.255C75.2033 427.344 76.6552 426.139 78.9036 426.01C81.9702 425.836 84.9993 426.089 88.035 426.437C93.7523 427.089 99.4668 427.751 105.226 427.939C107.372 428.008 109.523 427.919 111.674 427.844C113.946 427.767 116.189 427.4 118.451 427.328C118.858 427.315 119.263 427.258 119.666 427.198C123.067 426.702 126.465 426.178 129.827 425.448C132.026 424.969 134.124 424.146 136.177 423.194C136.497 423.047 136.82 422.902 137.156 422.806C137.533 422.702 137.923 422.698 138.203 423.041C138.486 423.391 138.517 423.766 138.337 424.207C137.309 426.74 136.084 427.873 133.065 429.51C132.399 429.869 130.671 430.399 130.671 430.399C130.671 430.399 131.502 430.498 131.936 430.603C132.384 430.711 132.668 430.785 133.011 430.888C133.627 431.069 134.118 431.452 134.265 432.121C134.408 432.78 133.948 433.168 133.499 433.52C132.684 434.161 131.704 434.355 130.735 434.535C129.337 434.795 126.341 435.235 126.341 435.235C126.341 435.235 126.869 435.288 127.084 435.3C127.922 435.354 128.595 435.404 129.319 435.647C129.621 435.746 129.931 435.84 130.21 435.989C130.995 436.415 131.101 437.044 130.482 437.716C130.041 438.192 129.528 438.57 128.924 438.852C127.648 439.452 126.309 439.655 124.936 439.702C124.269 439.724 123.601 439.706 122.932 439.701C122.527 439.698 121.628 439.694 121.628 439.694C121.628 439.694 122.526 440.167 122.796 440.347C123.451 440.782 123.908 440.986 123.874 441.576C123.846 442.042 123.478 442.572 123.332 442.725C122.847 443.233 122.201 443.571 121.509 443.793C120.453 444.133 119.347 444.163 118.22 444.06C116.688 443.924 115.173 443.962 113.667 443.607C113.589 443.586 113.323 443.52 113.323 443.52C113.323 443.52 114.018 443.918 114.319 444.137C114.815 444.502 115.135 444.798 115.368 445.285C115.655 445.889 115.506 446.312 114.891 446.582C113.926 447.006 112.896 446.983 111.885 446.965C110.077 446.934 108.302 446.652 106.577 446.09C106.439 446.046 105.815 445.787 105.815 445.787C105.815 445.787 106.242 446.416 106.335 446.574C106.484 446.828 106.678 447.061 106.788 447.327C107.141 448.179 106.813 448.853 105.944 449.124C104.948 449.43 103.929 449.417 102.913 449.381C101.401 449.327 99.9012 449.139 98.4109 448.875C98.136 448.827 97.2947 448.645 97.2947 448.645C97.2947 448.645 97.9449 449.621 98.1629 449.997C98.6011 450.752 98.3848 451.513 97.5425 451.708C96.7798 451.884 96.0143 451.813 95.2321 451.61C93.8839 451.261 92.5422 450.89 91.304 450.224C91.2611 450.202 91.024 450.041 91.024 450.041C91.024 450.041 91.2042 451.02 91.2353 451.418C91.3497 452.789 90.7821 453.475 89.4357 453.632C87.847 453.821 86.3096 453.49 84.7731 453.179C84.3212 453.086 83.8833 452.924 83.4384 452.797C83.3015 452.76 82.9758 452.634 82.9758 452.634C82.9758 452.634 83.0745 452.985 83.0862 453.121C83.0931 453.18 83.1076 453.237 83.1253 453.295C83.5243 454.483 82.5995 455.032 81.6663 455.025C79.5833 455.016 77.6485 454.517 75.9636 453.216C75.8267 453.109 75.4638 452.804 75.4638 452.804C75.4638 452.804 75.4805 453.122 75.3994 453.506C76.4182 454.233 77.4398 454.95 78.487 455.641C79.7689 456.489 81.1488 457.41 81.8334 458.646C82.5148 459.88 82.9443 460.187 83.0627 462.722C83.0854 463.241 83.0881 464.375 83.0881 464.375C83.0881 464.375 84.1581 465.095 85.8218 467.713C86.0682 468.1 86.5699 468.692 86.7529 469.195C87.0998 470.136 87.5102 470.681 87.6339 471.997C87.652 472.205 87.6385 472.541 87.6385 472.541L87.6062 472.939L87.1581 472.508C87.1581 472.508 87.234 472.805 87.2312 472.884C87.2288 473.323 87.2213 473.768 87.2119 474.195C87.157 476.579 86.5006 478.934 85.4483 481.197C83.833 484.667 82.9693 486.646 81.4501 489.239C80.9962 490.015 81.3362 490.804 81.4493 491.585C81.4888 491.862 81.5671 492.14 81.6355 492.415C81.6709 492.554 81.6275 492.873 81.6275 492.873C81.6275 492.873 81.4728 492.754 81.4239 492.717C80.9246 492.362 80.583 492.872 80.583 492.872C80.2265 493.409 80.3694 493.997 80.3889 494.562C80.4218 495.468 80.7287 496.377 80.3493 497.281C80.2962 497.41 79.9704 497.914 79.9704 497.914C79.9704 497.914 79.8969 497.574 79.868 497.46C79.4536 495.798 78.1428 494.532 77.6749 492.872C77.2 491.201 76.9086 489.505 76.5245 487.825C76.0892 485.917 76.2912 484.073 76.777 482.305C77.3592 480.184 77.648 477.936 78.8042 475.994C79.5815 474.686 80.1939 473.293 81.0811 472.041C81.4805 471.479 82.0629 471.094 82.4893 470.56C82.9735 469.952 83.2391 469.331 83.0794 468.564C82.9929 468.151 82.9776 467.724 82.9068 467.305C82.8714 467.095 82.9069 466.745 82.6935 466.727C82.4522 466.708 82.3431 467.045 82.2369 467.256C81.2722 469.207 79.8994 470.85 77.9965 472.029C76.0801 473.219 74.0454 474.216 71.769 474.671C71.4042 474.745 71.434 474.903 71.4982 475.11C72.1669 477.284 72.1826 478.282 72.5861 480.481C73.0833 483.198 71.106 486.174 69.5212 487.969C68.9518 488.614 68.6526 489.346 68.4778 490.122C68.261 491.083 67.733 491.929 67.5008 492.882C67.4346 493.148 67.2347 493.377 66.8359 493.318C66.5214 493.273 66.6108 493.794 66.2749 493.749C64.6807 493.536 63.5228 494.458 62.275 495.129C62.0551 495.249 61.8017 495.27 61.6148 495.2C60.5718 494.81 59.4677 494.563 58.4922 494.008C58.2099 493.845 58.107 493.614 58.3353 493.396C59.126 492.638 59.9177 491.876 60.7671 491.181C61.2699 490.767 61.9999 490.699 62.6121 490.705C64.3121 490.72 65.0564 489.556 65.7526 488.469C66.4982 487.312 67.0491 486.028 67.5673 484.76C67.9486 483.827 68.1519 482.829 68.4176 481.858C68.5458 481.4 68.2454 481.005 68.0768 480.629C67.7852 479.984 67.3418 479.397 67.0507 478.924C66.6252 479.945 65.9802 481.19 65.8136 482.591C65.7208 483.375 65.0689 483.815 64.4427 484.158C63.7075 484.558 63.0449 485.044 62.3651 485.506C61.0181 486.424 59.4563 487.012 58.1498 487.994C57.6787 488.349 57.2682 488.738 56.9103 489.197C56.1056 490.235 55.1527 491.016 53.6223 490.79C53.0008 490.698 52.4198 490.95 51.8952 491.284C51.2946 491.671 50.6767 492.033 50.0668 492.404C49.5059 492.205 48.4726 491.958 47.9322 491.714C47.2372 491.399 46.8007 491.244 46.2328 490.753C45.6492 490.245 45.8025 490.03 46.5456 489.708C46.7161 489.635 46.8853 489.554 47.2818 489.375L50.7174 488.332C51.7997 488.056 52.9324 487.614 53.4169 487.295C54.3567 486.674 55.4805 486.366 56.3877 485.666C58.2208 484.251 60.1339 482.921 61.4504 481.009C62.0352 480.162 61.9161 479.18 61.9805 478.244C62.1412 475.848 61.378 473.672 61.7231 471.25C62.0412 469.033 62.1694 468.528 62.5227 467.665C63.0284 466.426 63.7786 465.79 65.2495 464.953C65.4461 464.839 65.2482 464.596 65.0623 464.475C64.044 463.806 62.8854 463.471 61.6834 463.315C59.7351 463.059 58.0413 462.242 56.3754 461.334C55.194 460.689 53.966 460.106 52.9389 459.244C51.4832 458.026 50.5079 456.445 49.3802 454.982C48.4062 453.711 47.3749 452.478 46.7788 450.973C46.6866 450.742 46.484 450.28 46.484 450.28C46.484 450.28 45.7125 450.334 45.4432 450.338C43.8373 450.361 42.3931 449.909 41.0394 449.112C40.3984 448.734 39.6045 448.932 38.8964 448.73C37.9404 448.46 36.9546 448.289 35.993 448.038C35.591 447.932 35.358 448.049 35.1861 448.372C34.9684 448.776 34.7541 449.181 34.5243 449.579C34.4777 449.663 34.439 449.686 34.5159 449.793C35.1955 450.754 34.9318 453.152 34.0899 453.963C33.8061 454.236 33.5429 454.161 33.3193 453.943C32.6201 453.257 31.9228 452.565 31.1444 451.953C30.7512 451.643 30.4997 451.145 30.3386 450.745C30.1742 450.344 30.0284 449.834 30.0284 449.834C30.0284 449.834 29.1204 450.257 28.8156 450.378C28.1946 450.623 27.6299 450.996 27.0446 451.32C26.6719 451.525 26.3215 451.75 25.8561 451.737C25.4885 451.727 25.256 452.017 25.1702 452.277C24.9903 452.825 24.5556 453.2 24.2592 453.666C23.9609 454.138 23.4149 454.17 22.9341 454.266C21.7917 454.496 20.6586 454.858 19.4627 454.623C19.1529 454.562 18.9488 454.397 19.1539 454.093C19.948 452.915 20.7984 451.773 21.3931 450.485L21.4019 450.491ZM36.7102 444.038C37.0033 443.967 37.2903 443.975 37.5898 444.046C37.8796 444.115 38.8029 444.586 38.8029 444.586C38.8029 444.586 38.3614 443.596 38.184 443.308C38.1574 443.267 38.1383 443.226 38.1202 443.181C37.9581 442.76 37.7457 442.413 37.1722 442.477C36.6532 442.536 36.4547 442.865 36.3442 443.335C36.3269 443.38 36.2934 443.468 36.2565 443.554C36.1722 443.751 35.8544 444.195 35.8544 444.195C35.8544 444.195 36.296 444.135 36.7144 444.035L36.7102 444.038Z" fill="white"/>
</g>
<g clip-path="url(#clip1_194_380)">
<path d="M234.429 142.573C231.83 139.414 243 144.497 247.741 147.121C252.482 149.753 261.457 156.433 264.787 159.264C268.118 162.094 271.25 162.31 273.995 161.292C278.719 159.548 295.309 150.702 299.853 150.495C304.396 150.288 305.386 151.505 302.718 152.385C300.154 153.24 295.482 155.578 292.143 158.392C285.689 163.82 279.975 171.415 273.332 172.218C268.608 172.787 265.063 172.986 262.843 173.59C260.623 174.194 260.055 173.115 259.143 169.982C258.23 166.85 255.563 163.087 251.88 158.823C247.577 153.852 244.591 151.168 241.089 148.433C237.045 145.274 235.978 144.445 234.438 142.564L234.429 142.573Z" fill="white"/>
<path d="M332.619 208.102C335.605 207.429 343.926 207.032 347.015 207.032C350.105 207.032 353.418 210.881 356.085 208.534C358.753 206.178 365.792 200.516 371.333 197.202C376.875 193.888 385.196 194.95 389.782 195.493C394.369 196.029 391.486 197.099 387.33 198.057C383.174 199.023 379.749 201.604 374.853 206.169C370.696 210.053 367.711 212.814 368.029 215.058C368.347 217.302 364.509 219.546 360.887 216.879C357.264 214.204 353.745 214.42 348.728 213.03C343.72 211.641 339.83 211.321 336.999 210.786C333.643 210.148 329.306 208.862 332.628 208.111L332.619 208.102Z" fill="white"/>
<path d="M448.245 153.792C448.185 155.924 448.193 160.541 450.121 168.792C451.429 174.384 454.165 180.063 455.396 181.659C456.626 183.256 453.743 187.053 457.203 188.797C459.431 189.919 465.98 187.666 468.759 188.037C471.539 188.417 481.951 188.615 487.776 187.053C492.423 185.811 487.398 184.516 481.83 183.886C476.263 183.256 467.701 178.311 463.106 172.848C456.273 164.727 448.408 147.811 448.236 153.792H448.245Z" fill="white"/>
<path d="M507.097 11.9445C508.396 11.7373 512.483 10.2961 515.702 10.4083C518.997 10.5291 519.824 14.0761 522.061 14.0761C524.298 14.0761 529.487 13.8345 534.908 17.0277C540.329 20.2209 548.582 26.0119 552.23 26.4865C555.887 26.9612 547.523 29.9732 541.99 28.3248C536.448 26.6678 530.795 27.9278 527.955 26.2535C524.014 23.9319 522.414 20.5748 518.998 20.8164C515.581 21.0581 512.518 22.3526 510.281 25.192C508.043 28.0313 509.222 30.396 508.207 31.8718C507.604 32.7521 501.676 33.4684 500.256 31.0951C498.845 28.7304 502.846 24.1218 500.256 21.2824C499.077 19.9965 494.008 15.9662 488.587 14.4214C483.166 12.8852 465.19 -0.137971 469.613 0.000113592C473.27 0.120938 475.628 0.949447 483.519 1.65713C491.418 2.36482 495.428 2.48564 498.956 6.26571C502.493 10.0458 504.851 12.2983 507.088 11.9358L507.097 11.9445Z" fill="white"/>
<path d="M773.645 64.1745C778.859 64.5456 788.678 67.9891 793.686 71.6224C798.694 75.2644 804.915 78.38 808.03 77.6895C811.145 76.9991 820.473 72.1402 824.104 70.5868C827.736 69.0247 828.08 70.7594 823.063 75.7822C818.047 80.8051 807.299 88.8226 804.02 91.6016C800.733 94.3719 797.317 89.3059 790.063 82.0219C782.8 74.7466 769.282 63.8638 773.645 64.1745Z" fill="white"/>
<path d="M833.527 155.864C834.404 157.15 838.707 161.758 840.781 166.608C842.854 171.459 845.617 182.203 846.142 185.845C846.658 189.487 850.633 191.049 856.511 190.005C862.388 188.961 866.88 189.66 871.716 192.43C876.552 195.201 883.642 197.462 884.675 195.028C884.675 195.028 878.281 190.178 871.199 186.881C864.117 183.593 856.958 176.835 852.673 171.804C848.387 166.781 844.248 161.922 841.65 158.807C839.06 155.682 830.825 151.902 833.527 155.864Z" fill="white"/>
<path d="M877.844 148.934C880.486 150.392 885.614 155.001 888.729 157.944C891.836 160.887 896.164 165.046 895.983 167.299C895.811 169.551 898.272 172.9 901.559 172.382C904.838 171.864 907.213 169.724 911.886 169.551C916.549 169.379 928.545 168.438 930.894 166.781C933.742 164.762 924.328 165.909 918.451 165.392C912.574 164.874 910.844 164.183 910.156 162.103C909.467 160.024 905.148 160.429 902.73 160.654C900.312 160.887 899.271 158.461 895.295 155.165C891.319 151.868 887.456 150.297 884.005 149.253C880.555 148.217 874.815 147.251 877.844 148.925V148.934Z" fill="white"/>
<path d="M892.705 91.671C893.084 93.1899 895.218 96.4176 899.228 102.467C901.99 106.636 905.836 111.167 908.951 115.646C912.54 120.807 911.851 122.706 913.607 124.052C915.164 125.251 917.539 124.88 921.162 122.593C924.785 120.306 928.296 119.892 931.411 120.41C934.517 120.928 946.943 123.327 949.627 123.836C952.321 124.345 954.61 123.698 950.97 121.135C945.376 117.191 933.992 114.075 928.407 114.282C922.814 114.49 918.159 108.673 913.4 104.936C908.642 101.199 891.87 88.3397 892.696 91.6537L892.705 91.671Z" fill="white"/>
<path d="M975.975 155.682C978.075 157.054 984.735 156.856 987.532 156.502C990.329 156.139 994.39 158.219 995.93 160.575C997.471 162.931 999.088 164.433 1001.98 163.622C1004.87 162.81 1006.13 161.395 1007.03 159.039C1007.93 156.683 1010.55 155.328 1014.61 156.502C1018.67 157.675 1021.07 156.942 1023.29 156.07C1025.63 155.147 1021.66 154.784 1017.69 153.334C1013.72 151.884 1010.56 149.261 1005.77 150.797C1000.99 152.333 997.471 153.239 992.686 151.427C987.902 149.615 985.553 151.427 982.395 152.152C979.237 152.877 973.635 154.146 975.984 155.682H975.975Z" fill="white"/>
<path d="M646.092 264.649C648.957 263.717 657.149 261.559 659.541 260.765C661.933 259.962 668.318 259.626 669.91 259.738C671.511 259.85 672.062 255.682 675.366 254.543C678.67 253.403 679.367 254.249 682.327 254.94C685.288 255.621 686.776 251.401 691.561 249.563C696.345 247.733 708.547 245.869 710.819 244.764C714.355 243.047 710.087 249.218 705.983 251.047C701.878 252.877 695.665 254.137 691.337 257.908C688.05 260.774 686.707 262.491 686.888 265.451C687.12 269.111 682.061 271.631 678.894 270.138C675.719 268.653 673.963 267.134 667.062 267.16C661.34 267.186 654.869 266.245 651.676 266.591C648.484 266.927 641.307 266.202 646.092 264.649Z" fill="white"/>
<path d="M681.735 301.534C684.135 302.768 689.66 305.055 693.3 305.832C696.94 306.609 701.879 308.568 702.653 311.83C703.437 315.092 701.741 315.998 703.437 319.002C704.71 321.254 708.47 325.259 711.585 325C714.709 324.741 719.287 320.564 720.715 319.658C722.144 318.743 727.866 318.872 731.368 318.872C734.871 318.872 739.965 319.787 742.039 320.693C744.121 321.599 743.321 319.261 739.294 316.266C735.267 313.271 729.286 312.883 725.13 313.53C720.974 314.177 717.205 314.393 713.952 313.53C711.629 312.917 707.971 307.273 704.856 305.314C701.741 303.355 697.86 301.836 692.775 300.749C688.705 299.886 678.559 299.894 681.735 301.534Z" fill="white"/>
</g>
<g clip-path="url(#clip2_194_380)">
<path d="M627.847 86.3504V110.547H645.921V52.2197C645.921 52.2197 627.847 67.7595 627.847 86.3504Z" fill="#E5CEC1"/>
<path d="M664.019 86.3504V110.547H645.944V52.2197C645.944 52.2197 664.019 67.7595 664.019 86.3504Z" fill="#E5CEC1"/>
<path d="M1106.77 684.004H185.073V707.775H1106.77V684.004Z" fill="#E5CEC1"/>
<path d="M1106.77 335.01H185.073V358.781H1106.77V335.01Z" fill="#E5CEC1"/>
<path d="M1106.77 278.007H185.073V301.778H1106.77V278.007Z" fill="#E5CEC1"/>
<path d="M1106.79 278.007L1097.97 300.052L645.92 119.464L193.897 300.052L185.073 278.007L645.92 93.8721L1106.79 278.007Z" fill="#E5CEC1"/>
<path d="M1089.24 301.778H202.604V335.034H1089.24V301.778Z" fill="#A7A8B0"/>
<path d="M185.072 731.357L1106.77 731.357V707.752L185.072 707.752V731.357Z" fill="#FEE6D3"/>
<path d="M1060.23 358.779H221.979V684.002H1060.23V358.779Z" fill="#A7A8B0"/>
<path d="M247.128 397.473H216.113V645.328H247.128V397.473Z" fill="#E5CEC1"/>
<path d="M202.605 358.779V372.332C210.058 372.332 216.114 378.364 216.114 385.814H247.129C247.129 378.364 253.161 372.332 260.637 372.332V358.779H202.605Z" fill="#FEE6D3"/>
<path d="M247.13 385.814H216.115C212.897 385.814 210.295 388.416 210.295 391.633C210.295 394.85 212.897 397.452 216.115 397.452H247.13C250.347 397.452 252.949 394.85 252.949 391.633C252.949 388.416 250.347 385.814 247.13 385.814Z" fill="#FEE6D3"/>
<path d="M202.605 684.002V670.449C210.058 670.449 216.114 664.417 216.114 656.967H247.129C247.129 664.417 253.161 670.449 260.637 670.449V684.002H202.605Z" fill="#FEE6D3"/>
<path d="M247.13 656.965H216.115C212.897 656.965 210.295 654.363 210.295 651.147C210.295 647.93 212.897 645.328 216.115 645.328H247.13C250.347 645.328 252.949 647.93 252.949 651.147C252.949 654.363 250.347 656.965 247.13 656.965Z" fill="#FEE6D3"/>
<path d="M365.509 397.473H334.494V645.328H365.509V397.473Z" fill="#E5CEC1"/>
<path d="M320.986 358.779V372.332C328.438 372.332 334.495 378.364 334.495 385.814H365.51C365.51 378.364 371.542 372.332 379.018 372.332V358.779H321.01H320.986Z" fill="#FEE6D3"/>
<path d="M365.486 385.814H334.471C331.254 385.814 328.651 388.416 328.651 391.633C328.651 394.85 331.254 397.452 334.471 397.452H365.486C368.703 397.452 371.306 394.85 371.306 391.633C371.306 388.416 368.703 385.814 365.486 385.814Z" fill="#FEE6D3"/>
<path d="M320.986 684.002V670.449C328.438 670.449 334.495 664.417 334.495 656.967H365.51C365.51 664.417 371.542 670.449 379.018 670.449V684.002H321.01H320.986Z" fill="#FEE6D3"/>
<path d="M365.486 656.965H334.471C331.254 656.965 328.651 654.363 328.651 651.147C328.651 647.93 331.254 645.328 334.471 645.328H365.486C368.703 645.328 371.306 647.93 371.306 651.147C371.306 654.363 368.703 656.965 365.486 656.965Z" fill="#FEE6D3"/>
<path d="M483.866 397.473H452.852V645.328H483.866V397.473Z" fill="#E5CEC1"/>
<path d="M439.367 358.779V372.332C446.819 372.332 452.876 378.364 452.876 385.814H483.89C483.89 378.364 489.923 372.332 497.399 372.332V358.779H439.391H439.367Z" fill="#FEE6D3"/>
<path d="M483.867 385.814H452.852C449.635 385.814 447.032 388.416 447.032 391.633C447.032 394.85 449.635 397.452 452.852 397.452H483.867C487.084 397.452 489.687 394.85 489.687 391.633C489.687 388.416 487.084 385.814 483.867 385.814Z" fill="#FEE6D3"/>
<path d="M439.367 684.002V670.449C446.819 670.449 452.876 664.417 452.876 656.967H483.89C483.89 664.417 489.923 670.449 497.399 670.449V684.002H439.391H439.367Z" fill="#FEE6D3"/>
<path d="M483.867 656.965H452.852C449.635 656.965 447.032 654.363 447.032 651.147C447.032 647.93 449.635 645.328 452.852 645.328H483.867C487.084 645.328 489.687 647.93 489.687 651.147C489.687 654.363 487.084 656.965 483.867 656.965Z" fill="#FEE6D3"/>
<path d="M602.249 397.473H571.234V645.328H602.249V397.473Z" fill="#E5CEC1"/>
<path d="M557.727 358.779V372.332C565.179 372.332 571.235 378.364 571.235 385.814H602.25C602.25 378.364 608.283 372.332 615.758 372.332V358.779H557.75H557.727Z" fill="#FEE6D3"/>
<path d="M602.251 385.814H571.236C568.018 385.814 565.416 388.416 565.416 391.633C565.416 394.85 568.018 397.452 571.236 397.452H602.251C605.468 397.452 608.07 394.85 608.07 391.633C608.07 388.416 605.468 385.814 602.251 385.814Z" fill="#FEE6D3"/>
<path d="M557.727 684.002V670.449C565.179 670.449 571.235 664.417 571.235 656.967H602.25C602.25 664.417 608.283 670.449 615.758 670.449V684.002H557.75H557.727Z" fill="#FEE6D3"/>
<path d="M602.251 656.965H571.236C568.018 656.965 565.416 654.363 565.416 651.147C565.416 647.93 568.018 645.328 571.236 645.328H602.251C605.468 645.328 608.07 647.93 608.07 651.147C608.07 654.363 605.468 656.965 602.251 656.965Z" fill="#FEE6D3"/>
<path d="M720.63 397.473H689.615V645.328H720.63V397.473Z" fill="#E5CEC1"/>
<path d="M676.107 358.779V372.332C683.56 372.332 689.616 378.364 689.616 385.814H720.631C720.631 378.364 726.663 372.332 734.139 372.332V358.779H676.131H676.107Z" fill="#FEE6D3"/>
<path d="M720.607 385.814H689.592C686.375 385.814 683.772 388.416 683.772 391.633C683.772 394.85 686.375 397.452 689.592 397.452H720.607C723.824 397.452 726.427 394.85 726.427 391.633C726.427 388.416 723.824 385.814 720.607 385.814Z" fill="#FEE6D3"/>
<path d="M676.107 684.002V670.449C683.56 670.449 689.616 664.417 689.616 656.967H720.631C720.631 664.417 726.663 670.449 734.139 670.449V684.002H676.131H676.107Z" fill="#FEE6D3"/>
<path d="M720.607 656.965H689.592C686.375 656.965 683.772 654.363 683.772 651.147C683.772 647.93 686.375 645.328 689.592 645.328H720.607C723.824 645.328 726.427 647.93 726.427 651.147C726.427 654.363 723.824 656.965 720.607 656.965Z" fill="#FEE6D3"/>
<path d="M838.988 397.473H807.973V645.328H838.988V397.473Z" fill="#E5CEC1"/>
<path d="M794.488 358.779V372.332C801.94 372.332 807.997 378.364 807.997 385.814H839.012C839.012 378.364 845.044 372.332 852.52 372.332V358.779H794.512H794.488Z" fill="#FEE6D3"/>
<path d="M838.988 385.814H807.973C804.756 385.814 802.153 388.416 802.153 391.633C802.153 394.85 804.756 397.452 807.973 397.452H838.988C842.205 397.452 844.808 394.85 844.808 391.633C844.808 388.416 842.205 385.814 838.988 385.814Z" fill="#FEE6D3"/>
<path d="M794.488 684.002V670.449C801.94 670.449 807.997 664.417 807.997 656.967H839.012C839.012 664.417 845.044 670.449 852.52 670.449V684.002H794.512H794.488Z" fill="#FEE6D3"/>
<path d="M838.988 656.965H807.973C804.756 656.965 802.153 654.363 802.153 651.147C802.153 647.93 804.756 645.328 807.973 645.328H838.988C842.205 645.328 844.808 647.93 844.808 651.147C844.808 654.363 842.205 656.965 838.988 656.965Z" fill="#FEE6D3"/>
<path d="M957.369 397.473H926.354V645.328H957.369V397.473Z" fill="#E5CEC1"/>
<path d="M912.87 358.779V372.332C920.322 372.332 926.378 378.364 926.378 385.814H957.393C957.393 378.364 963.426 372.332 970.902 372.332V358.779H912.894H912.87Z" fill="#FEE6D3"/>
<path d="M957.37 385.814H926.355C923.137 385.814 920.535 388.416 920.535 391.633C920.535 394.85 923.137 397.452 926.355 397.452H957.37C960.587 397.452 963.19 394.85 963.19 391.633C963.19 388.416 960.587 385.814 957.37 385.814Z" fill="#FEE6D3"/>
<path d="M912.87 684.002V670.449C920.322 670.449 926.378 664.417 926.378 656.967H957.393C957.393 664.417 963.426 670.449 970.902 670.449V684.002H912.894H912.87Z" fill="#FEE6D3"/>
<path d="M957.37 656.965H926.355C923.137 656.965 920.535 654.363 920.535 651.147C920.535 647.93 923.137 645.328 926.355 645.328H957.37C960.587 645.328 963.19 647.93 963.19 651.147C963.19 654.363 960.587 656.965 957.37 656.965Z" fill="#FEE6D3"/>
<path d="M1075.76 397.473H1044.74V645.328H1075.76V397.473Z" fill="#E5CEC1"/>
<path d="M1031.23 358.779V372.332C1038.68 372.332 1044.74 378.364 1044.74 385.814H1075.76C1075.76 378.364 1081.79 372.332 1089.26 372.332V358.779H1031.26H1031.23Z" fill="#FEE6D3"/>
<path d="M1075.76 385.814H1044.74C1041.52 385.814 1038.92 388.416 1038.92 391.633C1038.92 394.85 1041.52 397.452 1044.74 397.452H1075.76C1078.97 397.452 1081.58 394.85 1081.58 391.633C1081.58 388.416 1078.97 385.814 1075.76 385.814Z" fill="#FEE6D3"/>
<path d="M1031.23 684.002V670.449C1038.68 670.449 1044.74 664.417 1044.74 656.967H1075.76C1075.76 664.417 1081.79 670.449 1089.26 670.449V684.002H1031.26H1031.23Z" fill="#FEE6D3"/>
<path d="M1075.76 656.965H1044.74C1041.52 656.965 1038.92 654.363 1038.92 651.147C1038.92 647.93 1041.52 645.328 1044.74 645.328H1075.76C1078.97 645.328 1081.58 647.93 1081.58 651.147C1081.58 654.363 1078.97 656.965 1075.76 656.965Z" fill="#FEE6D3"/>
<path d="M185.073 235.834V278.007H212.492V263.247C212.492 248.11 200.214 235.834 185.073 235.834Z" fill="#E5CEC1"/>
<path d="M1106.77 235.834V278.007H1079.35V263.247C1079.35 248.11 1091.63 235.834 1106.77 235.834Z" fill="#E5CEC1"/>
<path d="M645.921 119.464L249.091 278.007H1042.75L645.921 119.464Z" fill="#FEE6D3"/>
<path d="M219.707 335.01H243.482V301.754H219.707V335.01Z" fill="#FEE6D3"/>
<path d="M278.899 335.01H302.675V301.754H278.899V335.01Z" fill="#FEE6D3"/>
<path d="M338.091 335.01H361.867V301.754H338.091V335.01Z" fill="#FEE6D3"/>
<path d="M397.304 335.01H421.08V301.754H397.304V335.01Z" fill="#FEE6D3"/>
<path d="M456.473 335.01H480.249V301.754H456.473V335.01Z" fill="#FEE6D3"/>
<path d="M515.663 335.01H539.438V301.754H515.663V335.01Z" fill="#FEE6D3"/>
<path d="M574.855 335.01H598.631V301.754H574.855V335.01Z" fill="#FEE6D3"/>
<path d="M634.02 335.01H657.796V301.754H634.02V335.01Z" fill="#FEE6D3"/>
<path d="M693.213 335.01H716.988V301.754H693.213V335.01Z" fill="#FEE6D3"/>
<path d="M752.402 335.01H776.178V301.754H752.402V335.01Z" fill="#FEE6D3"/>
<path d="M811.618 335.01H835.394V301.754H811.618V335.01Z" fill="#FEE6D3"/>
<path d="M870.783 335.01H894.559V301.754H870.783V335.01Z" fill="#FEE6D3"/>
<path d="M929.975 335.01H953.751V301.754H929.975V335.01Z" fill="#FEE6D3"/>
<path d="M989.168 335.01H1012.94V301.754H989.168V335.01Z" fill="#FEE6D3"/>
<path d="M1048.33 335.01H1072.11V301.754H1048.33V335.01Z" fill="#FEE6D3"/>
</g>
<path d="M334.194 176.855C324.156 174.324 320.637 170.8 317.675 161.168C315.641 170.855 312.249 174.468 301.156 176.855C312.224 179.556 315.4 183.322 317.675 192.542C321.025 183.694 322.99 178.81 334.194 176.855Z" fill="#FEE6D3"/>
<g clip-path="url(#clip3_194_380)">
<path d="M1095.1 891.078C1095.22 891.055 1095.34 891.033 1095.46 891.006C1095.63 890.972 1095.8 890.935 1095.97 890.893C1096.09 890.863 1096.21 890.833 1096.33 890.803C1095.84 890.931 1095.32 891.04 1094.81 891.127C1094.91 891.112 1095 891.097 1095.1 891.078Z" fill="#B77E6D"/>
<path d="M1097.2 890.563C1097.34 890.517 1097.49 890.476 1097.63 890.431C1097.77 890.385 1097.91 890.34 1098.04 890.295C1097.65 890.431 1097.24 890.559 1096.82 890.679C1096.95 890.642 1097.08 890.604 1097.2 890.566L1097.2 890.563Z" fill="#B77E6D"/>
<path d="M1190.27 898.701C1190.28 898.939 1190.3 899.172 1190.31 899.402C1190.3 899.172 1190.29 898.939 1190.27 898.701Z" fill="#B77E6D"/>
<path d="M1099.15 889.886C1099.39 889.792 1099.62 889.702 1099.83 889.607C1099.59 889.713 1099.32 889.815 1099.05 889.92C1099.09 889.909 1099.12 889.898 1099.15 889.883V889.886Z" fill="#B77E6D"/>
<path d="M1098.86 889.996C1098.71 890.053 1098.56 890.105 1098.41 890.162C1098.56 890.109 1098.71 890.053 1098.86 889.996Z" fill="#B77E6D"/>
<path d="M1094.22 891.219C1094.34 891.204 1094.45 891.189 1094.56 891.17C1094.32 891.208 1094.07 891.234 1093.83 891.26C1093.96 891.245 1094.09 891.234 1094.22 891.215V891.219Z" fill="#B77E6D"/>
<path d="M1088.43 890.252C1088.25 890.139 1088.07 890.022 1087.9 889.887C1088.07 890.022 1088.25 890.139 1088.43 890.252Z" fill="#B77E6D"/>
<path d="M1090.02 890.983C1090.07 890.998 1090.11 891.016 1090.16 891.032C1090.2 891.043 1090.25 891.05 1090.29 891.062C1089.94 890.971 1089.6 890.858 1089.27 890.715C1089.51 890.82 1089.76 890.911 1090.01 890.986L1090.02 890.983Z" fill="#B77E6D"/>
<path d="M1091.01 891.212C1090.93 891.2 1090.86 891.181 1090.79 891.17C1090.86 891.185 1090.93 891.2 1091.01 891.212Z" fill="#B77E6D"/>
<path d="M1189.58 893.984C1189.64 894.29 1189.7 894.591 1189.76 894.889C1189.7 894.591 1189.64 894.286 1189.58 893.984Z" fill="#B77E6D"/>
<path d="M1190.15 897.43C1190.19 897.773 1190.22 898.104 1190.25 898.432C1190.22 898.104 1190.19 897.773 1190.15 897.43Z" fill="#B77E6D"/>
<path d="M1187.6 886.504C1187.69 886.802 1187.78 887.103 1187.87 887.405C1187.78 887.1 1187.69 886.802 1187.6 886.504Z" fill="#B77E6D"/>
<path d="M1187.18 885.192C1186.94 884.442 1186.7 883.729 1186.47 883.055C1186.47 883.055 1186.47 883.055 1186.47 883.051C1186.71 883.737 1186.95 884.468 1187.2 885.234C1187.19 885.218 1187.19 885.207 1187.19 885.192H1187.18Z" fill="#B77E6D"/>
<path d="M1188.61 889.948C1188.39 889.171 1188.17 888.402 1187.95 887.648C1188.19 888.455 1188.42 889.277 1188.65 890.106C1188.63 890.054 1188.62 890.001 1188.61 889.948Z" fill="#B77E6D"/>
<path d="M1187.52 886.267C1187.42 885.931 1187.31 885.604 1187.21 885.279C1187.33 885.641 1187.44 886.014 1187.56 886.391C1187.55 886.35 1187.54 886.308 1187.53 886.267H1187.52Z" fill="#B77E6D"/>
<path d="M745.201 1121.99C763.654 1100.4 777.533 1086.44 801.967 1077.27C815.455 1072.2 827.647 1078.99 847.244 1056.63C859.165 1043.03 872.826 1023.39 882.924 1007.77C882.924 1007.77 882.928 1007.76 882.932 1007.75C883.056 1007.56 883.18 1007.37 883.305 1007.17C889.625 997.368 888.936 999.679 891.011 995.713C896.024 986.141 908.928 986.812 916.435 989.161C917.023 989.346 917.61 989.481 918.198 989.545C921.252 989.87 928.913 984.577 938.228 976.705C952.326 981.255 994.112 933.932 1001.02 924.76C1007.93 915.588 1021.44 905.65 1026.85 911.765C1032.26 917.88 1020.24 931.64 1009.73 946.162C999.219 960.687 1016.09 952.604 1019.1 947.251C1022.1 941.902 1042.17 923.229 1048.47 913.292C1054.78 903.355 1060.19 901.828 1058.69 905.266C1057.18 908.704 1055.08 913.673 1058.69 915.584C1062.29 917.495 1072.5 899.913 1074.6 896.855C1076.7 893.798 1083.61 883.861 1086.62 888.448C1086.82 888.765 1087.05 889.04 1087.29 889.297C1087.06 891.589 1086.37 893.738 1085.11 895.329C1080.61 901.062 1071 907.177 1070.7 911.761C1070.4 916.349 1081.21 913.673 1081.21 919.787C1081.21 925.902 1073.1 931.636 1067.99 934.694C1062.88 937.751 1048.17 940.808 1048.17 945.012C1048.17 949.215 1063.49 946.542 1069.79 948.45C1076.1 950.361 1075.8 964.121 1071.89 969.09C1067.99 974.059 1043.96 1011.9 1043.66 1020.69C1043.36 1029.48 1047.57 1030.63 1054.02 1030.63C1060.48 1030.63 1065.28 1034.45 1065.28 1039.03C1065.28 1043.62 1050.84 1058.52 1043.65 1064.26C1036.45 1069.99 1040.66 1080.31 1050.57 1080.69C1050.57 1080.69 1077.17 1078.25 1089.91 1091.22C1102.64 1104.19 1107.1 1113.11 1126.85 1108.24C1146.6 1103.38 1175.26 1096.09 1193.1 1121.21C1210.93 1146.34 1191.19 1161.74 1193.1 1169.04C1195.01 1176.33 1202.02 1186.06 1222.4 1183.63C1239.91 1181.54 1256.94 1197.99 1261.39 1213.98H655.999C655.999 1213.98 712.101 1160.68 745.201 1121.96V1121.99Z" fill="#64AED2"/>
<path d="M1190.01 896.373C1189.99 896.252 1189.97 896.136 1189.95 896.015C1189.91 895.762 1189.87 895.51 1189.82 895.253C1189.81 895.14 1189.78 895.027 1189.76 894.914C1189.91 895.702 1190.04 896.467 1190.13 897.206C1190.09 896.931 1190.05 896.652 1190.01 896.373H1190.01Z" fill="#B77E6D"/>
<path d="M1189.21 892.338C1189.14 892.047 1189.07 891.757 1189 891.467C1189.1 891.855 1189.19 892.243 1189.28 892.628C1189.26 892.53 1189.24 892.436 1189.21 892.338H1189.21Z" fill="#B77E6D"/>
<path d="M1188.69 890.254C1188.76 890.533 1188.84 890.816 1188.91 891.095C1188.84 890.816 1188.76 890.533 1188.69 890.254Z" fill="#B77E6D"/>
<path d="M1189.28 892.631C1189.37 893.012 1189.45 893.389 1189.53 893.766C1189.45 893.389 1189.37 893.012 1189.28 892.631Z" fill="#B77E6D"/>
<path d="M1190.23 901.457C1190.26 901.193 1190.28 900.914 1190.3 900.627C1190.3 900.537 1190.3 900.446 1190.31 900.356C1190.31 900.149 1190.31 899.938 1190.31 899.723C1190.32 900.341 1190.3 900.925 1190.23 901.457Z" fill="#B77E6D"/>
<path d="M1091.52 891.275C1091.55 891.275 1091.58 891.283 1091.61 891.287C1091.7 891.294 1091.78 891.306 1091.87 891.309C1092.07 891.321 1092.27 891.328 1092.47 891.328C1092.56 891.328 1092.66 891.328 1092.76 891.328C1092.95 891.328 1093.14 891.317 1093.34 891.302C1093.45 891.294 1093.55 891.287 1093.66 891.279C1092.94 891.343 1092.22 891.347 1091.52 891.275Z" fill="#B77E6D"/>
<path d="M1222.29 920.757C1229.05 923.336 1243.98 924.128 1251.41 926.706C1258.84 929.285 1307.29 967.421 1346.36 1004.51C1369.98 1026.93 1398.91 1073.83 1409.72 1087.59C1420.54 1101.35 1425.27 1098.76 1431.35 1104.78C1437.43 1110.8 1547 1214 1547 1214H1261.39C1256.94 1198.01 1239.91 1181.56 1222.4 1183.65C1202.01 1186.08 1195.01 1176.35 1193.1 1169.06C1191.19 1161.76 1210.93 1146.36 1193.1 1121.23C1175.27 1096.11 1146.6 1103.4 1126.85 1108.26C1107.11 1113.13 1102.65 1104.21 1089.91 1091.24C1077.17 1078.27 1050.57 1080.71 1050.57 1080.71C1040.66 1080.33 1036.45 1070.01 1043.65 1064.28C1050.84 1058.54 1065.29 1043.64 1065.29 1039.05C1065.29 1034.46 1060.48 1030.65 1054.02 1030.65C1047.57 1030.65 1043.36 1029.5 1043.66 1020.71C1043.96 1011.92 1067.99 974.079 1071.9 969.11C1075.8 964.141 1076.1 950.381 1069.79 948.47C1063.49 946.558 1048.17 949.235 1048.17 945.032C1048.17 940.828 1062.89 937.771 1067.99 934.713C1073.1 931.656 1081.21 925.922 1081.21 919.807C1081.21 913.693 1070.4 916.369 1070.7 911.781C1071 907.193 1080.61 901.078 1085.12 895.348C1086.37 893.757 1087.06 891.609 1087.29 889.316C1087.29 889.316 1087.29 889.316 1087.3 889.324C1087.49 889.531 1087.7 889.72 1087.91 889.893C1088.08 890.029 1088.26 890.146 1088.44 890.259C1088.48 890.289 1088.53 890.327 1088.57 890.357C1088.79 890.489 1089.02 890.602 1089.25 890.704C1089.26 890.708 1089.27 890.715 1089.28 890.719C1089.61 890.862 1089.95 890.975 1090.3 891.066C1090.46 891.107 1090.63 891.145 1090.79 891.179C1090.86 891.194 1090.94 891.209 1091.01 891.22C1091.18 891.247 1091.35 891.265 1091.52 891.284C1092.22 891.356 1092.94 891.356 1093.66 891.288C1093.72 891.284 1093.78 891.277 1093.83 891.269C1094.08 891.243 1094.32 891.216 1094.56 891.179C1094.65 891.167 1094.73 891.152 1094.81 891.137C1095.33 891.051 1095.84 890.941 1096.34 890.813C1096.5 890.772 1096.66 890.73 1096.82 890.685C1097.24 890.564 1097.64 890.436 1098.04 890.3C1098.16 890.255 1098.29 890.214 1098.41 890.172C1098.56 890.119 1098.7 890.063 1098.85 890.006L1098.87 889.999C1098.93 889.976 1098.99 889.954 1099.05 889.931C1099.32 889.825 1099.58 889.72 1099.83 889.618C1103.43 888.087 1107.63 893.821 1112.44 899.175C1117.25 904.524 1122.35 899.175 1120.55 894.206C1118.75 889.237 1115.44 882.357 1119.05 881.211C1122.65 880.065 1136.47 895.352 1146.68 907.009C1156.89 918.665 1175.51 939.305 1177.31 936.248C1179.11 933.19 1171.3 918.284 1161.69 907.201C1152.08 896.117 1145.17 878.919 1157.79 889.618C1170.4 900.321 1189.33 908.728 1190.23 901.467C1190.29 900.935 1190.31 900.351 1190.3 899.729C1190.3 899.627 1190.3 899.522 1190.3 899.416C1190.29 899.186 1190.28 898.952 1190.26 898.715C1190.25 898.628 1190.25 898.541 1190.24 898.451C1190.22 898.123 1190.18 897.791 1190.15 897.448C1190.14 897.376 1190.13 897.305 1190.12 897.233C1190.12 897.229 1190.12 897.226 1190.12 897.218C1190.03 896.479 1189.91 895.71 1189.76 894.926C1189.76 894.919 1189.76 894.911 1189.75 894.903C1189.7 894.606 1189.64 894.3 1189.57 893.999C1189.57 893.999 1189.57 893.995 1189.57 893.991C1189.56 893.923 1189.55 893.855 1189.53 893.784C1189.53 893.784 1189.53 893.784 1189.53 893.78C1189.45 893.403 1189.37 893.026 1189.28 892.645C1189.19 892.257 1189.1 891.872 1189 891.484C1188.97 891.364 1188.94 891.243 1188.91 891.122C1188.91 891.118 1188.91 891.115 1188.91 891.111C1188.84 890.828 1188.76 890.549 1188.69 890.27C1188.67 890.221 1188.66 890.172 1188.65 890.123C1188.43 889.294 1188.19 888.472 1187.95 887.665C1187.95 887.665 1187.95 887.661 1187.95 887.658C1187.93 887.582 1187.91 887.511 1187.88 887.439C1187.88 887.435 1187.88 887.432 1187.88 887.424C1187.79 887.119 1187.69 886.817 1187.6 886.523V886.512C1187.59 886.478 1187.58 886.44 1187.57 886.406C1187.45 886.029 1187.33 885.66 1187.21 885.294C1187.21 885.29 1187.21 885.283 1187.21 885.279C1187.21 885.271 1187.2 885.264 1187.2 885.253C1186.95 884.487 1186.71 883.756 1186.47 883.07C1186.47 883.07 1186.47 883.066 1186.47 883.062C1204.75 903.514 1219.79 919.815 1222.3 920.772L1222.29 920.757Z" fill="#6AB9D9"/>
<path d="M1187.52 886.265C1187.42 885.925 1187.31 885.59 1187.2 885.262C1187.31 885.59 1187.41 885.925 1187.52 886.265Z" fill="#B77E6D"/>
<path d="M1093.35 891.302C1093.45 891.294 1093.56 891.287 1093.66 891.279C1093.56 891.291 1093.45 891.294 1093.35 891.302Z" fill="#B77E6D"/>
<path d="M1095.1 891.079C1095.22 891.057 1095.34 891.034 1095.46 891.008C1095.34 891.034 1095.22 891.057 1095.1 891.079Z" fill="#B77E6D"/>
<path d="M1189.95 896.008C1189.91 895.755 1189.87 895.502 1189.83 895.246C1189.87 895.502 1189.92 895.755 1189.95 896.008Z" fill="#B77E6D"/>
<path d="M1090.79 891.17C1090.86 891.185 1090.93 891.2 1091.01 891.212C1090.93 891.2 1090.86 891.181 1090.79 891.17Z" fill="#B77E6D"/>
<path d="M1087.28 889.311C1087.28 889.311 1087.28 889.311 1087.29 889.317C1087.29 889.317 1087.29 889.317 1087.28 889.311Z" fill="#B77E6D"/>
<path d="M1087.29 889.313C1087.29 889.313 1087.29 889.313 1087.29 889.317C1087.29 889.317 1087.29 889.313 1087.28 889.309L1087.29 889.313Z" fill="#B77E6D"/>
<path d="M1091.61 891.287C1091.7 891.295 1091.79 891.306 1091.87 891.31C1091.79 891.302 1091.7 891.295 1091.61 891.287Z" fill="#B77E6D"/>
<path d="M1187.18 885.196C1186.94 884.446 1186.7 883.733 1186.47 883.059C1186.7 883.73 1186.94 884.45 1187.18 885.196Z" fill="#B77E6D"/>
<path d="M1190.3 899.406C1190.29 899.176 1190.28 898.939 1190.26 898.697C1190.28 898.939 1190.29 899.172 1190.3 899.406Z" fill="#B77E6D"/>
<path d="M1190.31 900.356C1190.31 900.149 1190.31 899.938 1190.31 899.723C1190.31 899.938 1190.31 900.149 1190.31 900.356Z" fill="#B77E6D"/>
<path d="M1095.97 890.893C1096.09 890.863 1096.21 890.833 1096.34 890.799C1096.21 890.829 1096.09 890.863 1095.97 890.893Z" fill="#B77E6D"/>
<path d="M1190.13 897.219C1190.09 896.94 1190.06 896.658 1190.01 896.371C1190.05 896.658 1190.09 896.94 1190.13 897.219Z" fill="#B77E6D"/>
<path d="M1190.25 898.436C1190.22 898.108 1190.19 897.773 1190.15 897.43C1190.19 897.773 1190.22 898.108 1190.25 898.436Z" fill="#B77E6D"/>
<path d="M1097.63 890.432C1097.77 890.387 1097.91 890.342 1098.04 890.293C1097.91 890.338 1097.77 890.387 1097.63 890.432Z" fill="#B77E6D"/>
<path d="M1096.82 890.678C1096.95 890.64 1097.07 890.602 1097.2 890.564C1097.07 890.602 1096.94 890.644 1096.82 890.678Z" fill="#B77E6D"/>
<path d="M1188.61 889.95C1188.39 889.173 1188.17 888.4 1187.95 887.643C1188.17 888.4 1188.39 889.169 1188.61 889.95Z" fill="#B77E6D"/>
<path d="M1099.15 889.886C1099.39 889.792 1099.62 889.702 1099.83 889.607C1099.62 889.698 1099.39 889.792 1099.15 889.886Z" fill="#B77E6D"/>
<path d="M1092.76 891.327C1092.95 891.327 1093.15 891.316 1093.35 891.301C1093.15 891.312 1092.96 891.323 1092.76 891.327Z" fill="#B77E6D"/>
<path d="M1189.58 893.98C1189.56 893.912 1189.55 893.844 1189.53 893.771C1189.55 893.84 1189.56 893.908 1189.58 893.98Z" fill="#B77E6D"/>
<path d="M1189.82 895.25C1189.8 895.129 1189.78 895.008 1189.76 894.887C1189.78 895.008 1189.8 895.129 1189.82 895.25Z" fill="#B77E6D"/>
<path d="M1189.28 892.635C1189.26 892.537 1189.24 892.438 1189.21 892.34C1189.23 892.438 1189.26 892.537 1189.28 892.635Z" fill="#B77E6D"/>
<path d="M1095.46 891.008C1095.63 890.974 1095.8 890.936 1095.97 890.895C1095.8 890.936 1095.63 890.97 1095.46 891.008Z" fill="#B77E6D"/>
<path d="M1098.87 889.993C1098.96 889.959 1099.06 889.925 1099.15 889.887C1099.06 889.921 1098.96 889.955 1098.87 889.993Z" fill="#B77E6D"/>
<path d="M1190.27 898.703C1190.26 898.615 1190.26 898.528 1190.25 898.438C1190.26 898.528 1190.27 898.612 1190.27 898.703Z" fill="#B77E6D"/>
<path d="M1190.3 900.628C1190.3 900.537 1190.3 900.446 1190.31 900.355C1190.31 900.446 1190.31 900.541 1190.3 900.628Z" fill="#B77E6D"/>
<path d="M1190.31 899.726C1190.31 899.62 1190.31 899.518 1190.3 899.412C1190.3 899.518 1190.31 899.624 1190.31 899.726Z" fill="#B77E6D"/>
<path d="M1186.47 883.058C1186.47 883.058 1186.47 883.049 1186.47 883.045C1186.47 883.045 1186.47 883.049 1186.47 883.054C1186.47 883.054 1186.47 883.054 1186.47 883.058H1186.47Z" fill="#B77E6D"/>
<path d="M1187.21 885.263C1187.2 885.24 1187.19 885.217 1187.18 885.197C1187.19 885.221 1187.2 885.244 1187.21 885.263Z" fill="#B77E6D"/>
<path d="M1097.2 890.564C1097.34 890.518 1097.49 890.477 1097.63 890.432C1097.49 890.477 1097.35 890.518 1097.2 890.564Z" fill="#B77E6D"/>
<path d="M938.227 976.715C953.636 963.693 973.569 943.615 984.68 930.217C1002.5 908.717 1056.07 837.67 1071.98 820.004C1082.56 808.257 1097.57 800.842 1101.66 799.391C1099.3 806.056 1097.19 808.71 1096.83 815.081C1095.93 830.752 1092.92 847.185 1089.32 854.831C1085.72 862.476 1080.91 863.237 1077.91 864.768C1074.91 866.299 1075.51 875.086 1081.21 875.851C1085.34 876.406 1087.89 883.342 1087.29 889.314C1087.05 889.057 1086.82 888.778 1086.62 888.465C1083.62 883.877 1076.71 893.815 1074.6 896.872C1072.5 899.93 1060.58 926.172 1056.98 924.26C1053.37 922.349 1051.44 919.869 1052.94 916.43C1054.44 912.992 1047.25 913.501 1040.94 923.439C1034.64 933.376 1022.95 944.12 1019.95 949.47C1016.94 954.819 999.215 960.7 1009.73 946.179C1020.24 931.653 1024.31 926.462 1018.9 920.347C1013.49 914.233 1007.92 915.601 1001.02 924.773C994.107 933.945 952.322 981.269 938.224 976.718L938.227 976.715Z" fill="white"/>
<path d="M1087.9 889.887C1088.09 890.038 1088.29 890.173 1088.49 890.298C1088.47 890.283 1088.45 890.267 1088.43 890.252C1088.25 890.139 1088.07 890.022 1087.9 889.887Z" fill="#B77E6D"/>
<path d="M1088.57 890.346C1089.02 890.617 1089.51 890.824 1090.02 890.979C1089.77 890.904 1089.52 890.813 1089.28 890.708C1089.27 890.704 1089.26 890.696 1089.25 890.693C1089.02 890.591 1088.79 890.478 1088.57 890.346H1088.57Z" fill="#B77E6D"/>
<path d="M1087.29 889.318C1087.49 889.526 1087.69 889.714 1087.9 889.888C1087.69 889.718 1087.48 889.526 1087.29 889.318H1087.29Z" fill="#B77E6D"/>
<path d="M1089.28 890.709C1089.28 890.709 1089.26 890.697 1089.24 890.693C1089.26 890.697 1089.26 890.705 1089.28 890.709Z" fill="#B77E6D"/>
<path d="M1088.43 890.256C1088.45 890.271 1088.47 890.286 1088.49 890.301C1088.52 890.317 1088.54 890.336 1088.57 890.351C1088.52 890.32 1088.47 890.282 1088.43 890.252V890.256Z" fill="#B77E6D"/>
<path d="M1090.16 891.027C1090.36 891.084 1090.57 891.129 1090.79 891.167C1090.57 891.125 1090.36 891.084 1090.16 891.027Z" fill="#B77E6D"/>
<path d="M1187.95 887.639C1187.92 887.564 1187.9 887.492 1187.88 887.42C1187.9 887.496 1187.92 887.568 1187.95 887.639Z" fill="#B77E6D"/>
<path d="M1187.6 886.497C1187.57 886.421 1187.55 886.341 1187.52 886.266C1187.55 886.341 1187.57 886.417 1187.6 886.497Z" fill="#B77E6D"/>
<path d="M1091 891.211C1091.2 891.245 1091.41 891.264 1091.61 891.283C1091.41 891.264 1091.21 891.241 1091 891.211Z" fill="#B77E6D"/>
<path d="M1188.68 890.252C1188.66 890.15 1188.63 890.048 1188.6 889.945C1188.63 890.048 1188.65 890.15 1188.68 890.252Z" fill="#B77E6D"/>
<path d="M1187.52 886.264C1187.54 886.305 1187.55 886.347 1187.56 886.388C1187.57 886.426 1187.58 886.464 1187.6 886.505C1187.69 886.803 1187.78 887.105 1187.87 887.406C1187.9 887.485 1187.92 887.565 1187.95 887.647C1188.17 888.401 1188.39 889.171 1188.6 889.947C1188.62 890 1188.63 890.053 1188.64 890.105C1188.66 890.154 1188.67 890.203 1188.68 890.252C1188.76 890.531 1188.83 890.814 1188.9 891.093C1188.93 891.218 1188.97 891.342 1189 891.466C1189.07 891.757 1189.14 892.047 1189.21 892.337C1189.23 892.435 1189.25 892.529 1189.28 892.628C1189.36 893.008 1189.45 893.385 1189.53 893.762C1189.54 893.834 1189.56 893.906 1189.57 893.981C1189.64 894.286 1189.7 894.588 1189.75 894.886C1189.75 894.893 1189.75 894.901 1189.76 894.908C1189.78 895.021 1189.8 895.134 1189.82 895.248C1189.86 895.504 1189.91 895.757 1189.95 896.009C1189.97 896.13 1189.98 896.25 1190 896.367C1190.04 896.65 1190.08 896.929 1190.12 897.2C1190.13 897.276 1190.14 897.355 1190.15 897.427C1190.19 897.77 1190.22 898.101 1190.24 898.429C1190.25 898.52 1190.26 898.607 1190.26 898.697C1190.28 898.935 1190.29 899.168 1190.3 899.398C1190.3 899.504 1190.3 899.609 1190.31 899.711C1190.31 899.93 1190.31 900.141 1190.3 900.348C1190.3 900.439 1190.3 900.533 1190.3 900.62C1190.28 900.906 1190.26 901.185 1190.23 901.449C1189.33 908.71 1175.78 904.465 1163.17 893.762C1150.56 883.06 1152.09 896.1 1161.69 907.183C1171.31 918.266 1179.11 933.173 1177.31 936.23C1175.51 939.287 1155.84 925.633 1145.63 913.973C1135.42 902.316 1122.65 880.044 1119.05 881.193C1115.44 882.34 1118.74 889.22 1120.55 894.188C1122.35 899.157 1117.24 904.506 1112.44 899.157C1107.63 893.807 1103.43 888.073 1099.82 889.6C1099.61 889.691 1099.38 889.785 1099.14 889.879C1099.11 889.891 1099.08 889.902 1099.05 889.917C1098.98 889.943 1098.92 889.966 1098.85 889.992C1098.71 890.049 1098.56 890.102 1098.41 890.158C1098.29 890.203 1098.16 890.245 1098.04 890.286C1097.9 890.332 1097.77 890.381 1097.63 890.422C1097.49 890.467 1097.34 890.513 1097.2 890.554C1097.07 890.592 1096.94 890.629 1096.81 890.667C1096.65 890.712 1096.49 890.754 1096.33 890.795C1096.21 890.826 1096.08 890.859 1095.96 890.886C1095.79 890.927 1095.63 890.961 1095.45 890.999C1095.34 891.025 1095.21 891.048 1095.1 891.071C1095 891.089 1094.9 891.104 1094.8 891.12C1094.72 891.135 1094.64 891.15 1094.56 891.161C1094.44 891.176 1094.33 891.195 1094.22 891.21C1094.09 891.229 1093.96 891.24 1093.82 891.255C1093.77 891.263 1093.71 891.27 1093.66 891.274C1093.55 891.285 1093.44 891.289 1093.34 891.297C1093.14 891.308 1092.95 891.319 1092.76 891.323C1092.66 891.323 1092.56 891.323 1092.47 891.323C1092.27 891.323 1092.07 891.316 1091.87 891.304C1091.78 891.301 1091.7 891.289 1091.61 891.282C1091.58 891.282 1091.55 891.274 1091.52 891.27C1091.34 891.252 1091.17 891.236 1091 891.206C1090.93 891.195 1090.86 891.176 1090.79 891.165C1090.62 891.131 1090.45 891.097 1090.28 891.052C1090.24 891.04 1090.2 891.033 1090.16 891.022C1090.11 891.006 1090.06 890.988 1090.01 890.973C1089.51 890.818 1089.02 890.611 1088.56 890.339C1088.54 890.324 1088.51 890.305 1088.49 890.29C1088.28 890.166 1088.09 890.034 1087.9 889.879C1087.69 889.706 1087.48 889.517 1087.29 889.31C1087.29 889.31 1087.29 889.31 1087.28 889.306C1087.88 883.335 1083.02 877.084 1078.9 876.534C1073.19 875.769 1072.36 863.562 1077.75 859.158C1080.46 856.934 1082.6 850.65 1086.21 843.005C1089.81 835.359 1095.92 830.745 1096.82 815.077C1097.19 808.706 1099.29 806.052 1101.66 799.387C1104.82 798.264 1107.55 799.628 1110.79 802.625C1115.46 806.946 1155.59 848.497 1186.46 883.044C1186.46 883.048 1186.46 883.052 1186.47 883.056C1186.7 883.727 1186.94 884.447 1187.18 885.193C1187.18 885.208 1187.19 885.22 1187.19 885.235C1187.19 885.25 1187.2 885.261 1187.2 885.276C1187.31 885.6 1187.41 885.928 1187.52 886.264H1187.52Z" fill="#A1DCEA"/>
<path d="M1091 891.211C1091.17 891.237 1091.35 891.256 1091.52 891.275C1091.35 891.256 1091.17 891.241 1091 891.211Z" fill="#B77E6D"/>
<path d="M1098.42 890.162C1098.3 890.207 1098.17 890.249 1098.04 890.29C1098.17 890.249 1098.3 890.207 1098.42 890.162H1098.42Z" fill="#B77E6D"/>
<path d="M1096.82 890.678C1096.66 890.723 1096.5 890.764 1096.34 890.806C1096.5 890.764 1096.66 890.723 1096.82 890.678H1096.82Z" fill="#B77E6D"/>
<path d="M1187.21 885.278C1187.21 885.278 1187.2 885.25 1187.2 885.234C1187.2 885.242 1187.2 885.25 1187.2 885.262C1187.2 885.266 1187.2 885.274 1187.21 885.278H1187.21Z" fill="#B77E6D"/>
<path d="M1087.29 889.318C1087.49 889.526 1087.69 889.718 1087.91 889.888C1087.69 889.718 1087.49 889.529 1087.29 889.318H1087.29Z" fill="#B77E6D"/>
<path d="M1090.79 891.172C1090.62 891.138 1090.45 891.1 1090.29 891.059C1090.46 891.1 1090.62 891.138 1090.79 891.172H1090.79Z" fill="#B77E6D"/>
<path d="M1098.87 889.992L1098.85 890C1098.91 889.973 1098.98 889.95 1099.05 889.924C1098.99 889.947 1098.93 889.969 1098.86 889.992H1098.87Z" fill="#B77E6D"/>
<path d="M1189.76 894.891C1189.76 894.891 1189.76 894.907 1189.76 894.915C1189.76 894.907 1189.76 894.899 1189.76 894.891Z" fill="#B77E6D"/>
<path d="M1190.13 897.22C1190.13 897.292 1190.14 897.364 1190.15 897.436C1190.14 897.36 1190.13 897.285 1190.12 897.209C1190.12 897.213 1190.12 897.217 1190.12 897.224L1190.13 897.22Z" fill="#B77E6D"/>
<path d="M1189.53 893.769C1189.55 893.838 1189.56 893.906 1189.57 893.978C1189.57 893.978 1189.57 893.981 1189.57 893.985C1189.56 893.913 1189.54 893.841 1189.53 893.766C1189.53 893.766 1189.53 893.766 1189.53 893.769H1189.53Z" fill="#B77E6D"/>
<path d="M1187.59 886.495V886.506C1187.59 886.468 1187.57 886.43 1187.56 886.389C1187.57 886.423 1187.58 886.461 1187.59 886.495Z" fill="#B77E6D"/>
<path d="M1188.91 891.107C1188.94 891.228 1188.97 891.349 1189 891.47C1188.97 891.346 1188.94 891.221 1188.91 891.096C1188.91 891.099 1188.91 891.103 1188.91 891.107H1188.91Z" fill="#B77E6D"/>
<path d="M1190.3 899.406C1190.3 899.512 1190.31 899.614 1190.31 899.72C1190.31 899.614 1190.31 899.512 1190.3 899.406Z" fill="#B77E6D"/>
<path d="M1190.25 898.439C1190.26 898.53 1190.26 898.613 1190.26 898.704C1190.26 898.613 1190.25 898.526 1190.24 898.436L1190.25 898.439Z" fill="#B77E6D"/>
<path d="M1187.88 887.423C1187.9 887.495 1187.92 887.571 1187.95 887.643C1187.95 887.643 1187.95 887.647 1187.95 887.65C1187.92 887.571 1187.9 887.491 1187.87 887.408C1187.87 887.412 1187.87 887.416 1187.88 887.423Z" fill="#B77E6D"/>
<path d="M1043.65 1064.28C1043.65 1064.28 999.287 1115.97 976.311 1124.57C953.335 1133.17 841.157 1156.38 826.965 1214H1415.26C1415.26 1214 1375.43 1170.49 1354.48 1163.61C1333.54 1156.73 1286.91 1122.4 1282.17 1107.78C1277.44 1093.16 1186.89 1007.24 1159.86 1002.09C1132.83 996.926 1076.38 1029.84 1043.65 1064.28H1043.65Z" fill="#5D9DC1"/>
<path opacity="0.47" d="M1222.29 920.76C1222.29 920.76 1262.61 987.837 1274.78 1017.65C1274.78 1017.65 1265.64 968.445 1237.36 923.851C1237.36 923.851 1228.38 921.906 1222.29 920.76Z" fill="#7BB5D8"/>
<path opacity="0.5" d="M693.695 1214C693.695 1214 742.927 1173.39 765.237 1149.9C787.546 1126.41 822.932 1114.59 846.778 1107.77C870.624 1100.95 910.628 1061.8 927.551 1043.2C944.474 1024.6 993.747 1009.91 1009.09 1047.57C1024.44 1085.23 931.005 1135.22 891.396 1155.77C851.904 1176.27 835.241 1214 835.241 1214H693.695Z" fill="#579FBD"/>
</g>
<path d="M210.428 1540.39C263.682 1540.39 299.951 1602.2 305.118 1619.4C362.822 1613.07 386.047 1661.33 390.446 1686.25C467.548 1658.69 519.87 1701.35 536.394 1726.12C635.104 1727.76 650.267 1743.03 645.509 1750.46H560.488C583.201 1772.03 582.741 1820.43 579.672 1841.93C613.189 1844.63 618.601 1860.16 617.118 1867.58C719.143 1838.27 801.432 1887.03 829.824 1915.08C842.818 1913.96 877.583 1914.67 912.697 1926.52C947.81 1938.36 938.684 1947.28 929.731 1950.26C914.999 1944.87 851.258 1944.4 821.23 1944.84C719.695 1940.5 703.315 1951.14 707.817 1957.01C739.585 1957.01 765.214 1971.23 753.244 1975.92C741.273 1980.61 609.444 1981.34 617.118 1975.92C624.791 1970.49 663.925 1961.11 659.628 1957.01C655.331 1952.9 478.997 1945.43 478.997 1950.26C478.997 1955.1 488.205 1961.11 508.002 1961.11C523.84 1961.11 528.823 1967.86 529.334 1971.23C423.134 1980.76 361.287 1977.24 301.128 1971.23C240.968 1965.22 87.3471 1966.1 87.3471 1959.65C97.1691 1948.39 118.45 1944.79 127.863 1944.4C120.496 1937.36 -88.8338 1936.78 -107.864 1936.19C-126.894 1935.6 -144.696 1939.12 -143.468 1944.4C-142.241 1949.68 -125.666 1947.92 -107.864 1951.44C-93.622 1954.25 -98.4511 1958.08 -102.646 1959.65C-102.646 1959.65 -349.422 1952.02 -362.927 1951.73C-376.432 1951.44 -368.912 1940.3 -368.912 1940.3C-342.516 1940.3 -320.877 1924.17 -307.679 1924.17C-297.12 1924.17 -272.893 1919.58 -262.099 1917.28C-244.788 1874.12 -195.75 1858.06 -173.394 1855.42C-200.282 1837.01 -172.627 1824.88 -155.439 1821.11C-160.35 1735.03 -113.235 1704.08 -80.3931 1698.71H-118.146C-173.394 1701.49 -177.384 1688.59 -155.439 1683.61C-133.493 1678.62 -63.051 1680.24 -63.051 1680.24C-40.9517 1602.37 25.3464 1597.36 55.733 1604.59C72.062 1569.76 104.894 1569.46 119.269 1573.66C133.633 1546.22 172.215 1540.39 210.428 1540.39Z" fill="white"/>
<path d="M679.297 1786.43C666.028 1787.16 663.619 1781.14 664.073 1778.03C665.115 1775.9 669.605 1771.7 679.23 1772.03C688.855 1772.36 694.832 1776.49 696.617 1778.51C696.373 1780.85 692.567 1785.71 679.297 1786.43Z" fill="white"/>
<path opacity="0.6" fill-rule="evenodd" clip-rule="evenodd" d="M305.424 1618.96C300.391 1607.82 290.538 1591.84 285.934 1585.24C283.12 1592.23 272.183 1608.76 253.399 1618.96C234.614 1629.16 209.456 1628.2 199.225 1626.44V1630.1C241.459 1629.05 254.371 1648.33 255.547 1658.1C265.492 1629.6 292.942 1620.13 305.424 1618.96ZM105.302 1626.44C92.0428 1622.92 72.5626 1602.69 64.48 1593.01C62.27 1590.45 58.0344 1599.76 56.1928 1604.74C59.9988 1606.03 63.3034 1612.32 64.48 1615.3C27.0338 1612.36 7.23657 1621.5 2.01874 1626.44C-43.0394 1654.93 -48.6768 1690.99 -45.8632 1705.45C-79.6261 1702.52 -102.084 1717.81 -108.785 1727.88C-142.548 1752.95 -154.672 1791.06 -154.672 1820.97C-195.924 1830.82 -184.956 1847.84 -174.316 1855.12C-227.231 1864.27 -255.091 1899.98 -262.406 1916.69C-285.826 1922.5 -300.021 1923.59 -307.74 1924.19C-310.744 1924.42 -312.767 1924.57 -313.971 1924.9C-315.885 1925.42 -318.893 1926.7 -322.767 1928.35L-322.768 1928.35C-327.594 1930.4 -333.763 1933.02 -340.828 1935.46C-351.018 1938.98 -363.9 1939.95 -369.066 1940C-374.223 1949.5 -366.918 1951.88 -362.621 1951.88L-208.999 1956.27L-103.107 1959.94C-87.7599 1954.31 -113.491 1949.97 -128.276 1948.5C-136.102 1948.26 -149.792 1946.31 -141.934 1940.44C-134.077 1934.58 -77.4777 1935.56 -50.1604 1936.78L53.2769 1938.83C102.141 1938.83 123.156 1942.64 127.555 1944.55C103.369 1946.54 90.6718 1955.64 87.3467 1959.94C98.377 1964.57 173.395 1965.98 220.554 1966.86C222.605 1966.9 224.604 1966.94 226.542 1966.98C252.731 1967.47 283.837 1969.97 314.404 1972.42L314.405 1972.42C338.111 1974.32 361.493 1976.19 382.005 1977.09C419.574 1978.73 495.571 1973.67 528.873 1970.93C527.646 1963.16 517.67 1961.99 507.541 1961.99C497.412 1961.99 488.665 1959.94 478.536 1953.49C468.407 1947.04 517.67 1948.5 522.888 1948.94C524.513 1949.08 532.372 1949.33 543.518 1949.69H543.519C568.171 1950.47 608.904 1951.77 633.845 1953.49C662.82 1955.48 662.697 1958.62 659.014 1959.94C652.21 1963.07 635.196 1970.23 621.568 1973.87C607.94 1977.5 624.075 1978.6 633.845 1978.7C662.748 1979 722.949 1979.41 732.525 1978.7C742.101 1978 752.169 1975.18 756.006 1973.87C752.568 1961.2 722.14 1957.45 707.356 1957.15C706.743 1949.07 719.646 1947.63 734.641 1945.96C738.416 1945.54 742.325 1945.11 746.184 1944.55C758.615 1942.74 795.082 1943.4 828.736 1944.01H828.738L828.742 1944.01C847.021 1944.33 864.469 1944.65 876.785 1944.55C904.777 1944.31 923.746 1948.26 929.731 1950.26C935.133 1948.97 937.711 1944.25 938.325 1942.05C910.701 1938.54 851.033 1931.41 833.353 1931.06C815.674 1930.71 780.97 1914.89 765.828 1907.02C704.686 1875.71 634.357 1879.8 606.835 1885.76C605.976 1869.81 595.939 1861.13 591.028 1858.79C575.804 1852.81 558.595 1856.3 551.893 1858.79V1863.19C583.968 1879.31 570.924 1915.37 567.701 1918.16C566.243 1919.42 563.654 1918.1 561.355 1916.93C558.573 1915.51 556.216 1914.31 556.805 1918.16C557.664 1923.79 552.149 1926.37 549.285 1926.95C535.163 1930.42 523.885 1917.9 519.421 1912.95C518.597 1912.03 518.005 1911.37 517.67 1911.12C515.951 1909.83 518.386 1901.11 519.819 1896.9C523.011 1904.41 529.845 1901.4 532.864 1898.96C539.125 1897.08 537.519 1887.42 535.933 1882.83C509.659 1836.27 462.064 1825.71 441.55 1826.24L437.407 1819.21L444.159 1814.22C452.508 1789.48 507.541 1802.79 511.071 1825.22C530.715 1822.87 544.732 1842.91 549.285 1853.22C555.914 1845.24 571.589 1841.88 578.597 1841.2C560.549 1841.2 551.535 1830.54 549.285 1825.22C553.827 1784.41 528.464 1762.77 515.215 1757.05C476.909 1694.08 401.239 1698.37 368.193 1708.38C330.255 1636.38 253.757 1668.61 220.25 1693.72C200.851 1658.89 165.513 1643.34 150.268 1639.92C155.486 1638.75 165.155 1630.4 166.843 1626.44C168.193 1623.27 163.518 1620.13 161.011 1618.96C146.278 1627.32 121.877 1630.83 105.302 1626.44ZM-80.3934 1698.56L-64.7397 1692.84C-104.795 1690.06 -158.202 1689.59 -167.41 1690.06C-168.075 1692.89 -164.064 1698.56 -142.701 1698.56H-80.3934ZM-28.0625 1870.52C-23.5608 1867.93 -13.3603 1862.45 -8.57208 1861.28C-3.78391 1860.11 11.9414 1860.79 19.2056 1861.28C28.5671 1844.52 59.2913 1813.73 107.296 1824.63C114.765 1798.1 151.219 1751.34 237.283 1776.55C241.785 1770.1 258.615 1761.07 289.923 1776.55C321.23 1792.03 319.951 1812.61 315.398 1820.97C331.717 1833.92 359.996 1867 342.562 1895.73C361.285 1892.36 399.959 1896.96 404.87 1942.35H397.35C390.137 1929.4 368.038 1905.08 337.344 1911.42C327.727 1914.25 309.873 1914.06 315.398 1890.6C319.44 1870.71 312.636 1831.67 253.09 1834.6C250.021 1820.72 232.925 1794.7 189.094 1801.62C145.264 1808.54 129.805 1830.3 127.554 1840.32C100.953 1835.58 43.8525 1835.86 28.2602 1874.92L-28.0625 1870.52Z" fill="#78D8F1"/>
<defs>
<clipPath id="clip0_194_380">
<rect width="105.477" height="90.2267" fill="white" transform="matrix(-0.965057 -0.26204 -0.289779 0.957093 138.702 423.02)"/>
</clipPath>
<clipPath id="clip1_194_380">
<rect width="938" height="325" fill="white" transform="translate(86)"/>
</clipPath>
<clipPath id="clip2_194_380">
<rect width="921.718" height="679.16" fill="white" transform="translate(185.074 52.2197)"/>
</clipPath>
<clipPath id="clip3_194_380">
<rect width="891" height="415" fill="white" transform="translate(656 799)"/>
</clipPath>
</defs>
</svg>
