<svg width="756" height="287" viewBox="0 0 756 287" fill="none" xmlns="http://www.w3.org/2000/svg">
<g opacity="0.64">
<path d="M612.484 34.5904C617.309 24.2952 625.997 25.0772 635.99 22.458C654.036 -2.99466 691.067 15.7006 690.045 37.1281C702.245 37.7099 708.951 49.0903 710.57 55.0363C711.604 53.6539 717.103 52.9455 719.724 52.7641C730.834 42.9235 746.015 54.9208 752.216 62.1495C765.429 64.2113 765.917 77.1042 764.509 83.2929C773.51 86.8565 776.203 96.0558 776.424 100.21C788.495 101.057 798.337 105.592 801.749 107.754C810.989 101.423 819.847 109.955 823.121 115.013C840.492 116.693 841.887 130.935 840.412 137.846C844.148 137.405 847.791 140.003 849.145 141.358C852.329 142.748 850.937 153.826 849.842 159.191C862.998 162.45 864.332 171.813 863.354 176.088C872.23 181.464 875.741 190.867 876.388 194.896C895.589 194.729 895.345 205.797 892.823 211.352C902 210.397 901.739 212.358 900.461 213.458C896.794 213.283 876.662 213.484 875.559 212.27C874.677 211.299 876.534 210.769 877.572 210.625C876.028 210.551 873.252 209.258 872.057 208.62C861.035 209.294 844.733 206.818 837.96 205.495L816.05 204.45L775.463 202.515C738.37 198.927 696.395 200.824 680.044 202.221C690.236 202.707 692.542 205.203 692.421 206.391C669.399 207.695 621.51 210.062 614.127 209.09C606.743 208.119 603.533 204.038 602.85 202.119C595.839 199.85 566.939 201.213 553.365 202.178C543.289 201.698 532.417 199.567 528.24 198.561L468.784 195.726C464.614 195.527 456.513 196.753 452.984 197.391C450.98 197.167 446.329 196.764 443.767 196.952C441.204 197.139 438.207 195.203 437.029 194.212C437.275 189.038 441.814 189.893 444.052 190.967L462.304 188.597C468.2 180.172 475.696 174.87 478.706 173.272C496.222 163.814 511.743 170.559 517.314 175.113C527.595 154.272 549.783 154.557 547.541 152.902C545.746 151.578 544.097 149.384 543.496 148.452C526.539 146.999 492.493 143.621 491.964 141.738C491.435 139.856 497.982 139.962 501.322 140.25C500.896 136.205 526.454 137.966 539.287 139.352C538.905 127.879 547.181 122.573 551.367 121.354C558.105 96.9095 575.257 91.0202 582.991 91.131C582.771 79.5118 590.75 74.4749 596.413 69.3275C600.943 65.2096 611.391 63.5924 616.049 63.2986C606.059 48.2939 606.442 47.4771 612.27 35.0475L612.484 34.5904Z" fill="white"/>
<path d="M690.1 38.0016C690.291 33.9863 688.185 28.1073 687.003 25.8582C683.369 37.1389 671.451 39.563 666.052 39.1766C668.744 41.1623 670.14 42.7251 670.501 43.2583C680.057 43.714 686.159 39.4905 690.1 38.0016Z" fill="#B5EDF8"/>
<path d="M649.461 23.9712C645.38 21.9191 638.949 21.9221 636.245 22.18L635.447 22.6741C642.376 23.4302 649.517 25.8441 651.835 26.9382C651.783 25.5814 650.231 24.3948 649.461 23.9712Z" fill="#B5EDF8"/>
<path opacity="0.6" fill-rule="evenodd" clip-rule="evenodd" d="M710.57 55.0359C710.319 54.2178 709.708 52.4216 709.274 51.7817L706.962 53.6063C702.728 50.083 691.058 44.8765 678.247 52.237C677.68 52.9797 676.291 54.7154 675.276 55.7168C675.207 55.7852 675.114 55.8722 675.001 55.9784C673.048 57.8176 664.969 65.4238 664.594 81.9138C661.703 82.0339 654.976 82.5677 651.206 83.7422C650.737 83.091 649.033 81.6361 645.966 81.0255C643.125 77.0365 633.454 70.9484 617.5 78.5071C601.545 86.0659 594.54 95.0673 593.033 98.6231C589.913 99.1354 583.168 102.216 581.151 110.439C573.063 113.697 558.175 123.216 563.329 135.225C562.246 139.011 562.792 148.927 573.644 158.306C573.194 159.3 572.287 161.811 572.265 163.899C569.581 161.692 562.294 158.152 554.62 161.655C551.364 163.661 545.247 168.735 546.824 172.989C540.37 173.439 527.09 176.624 525.61 185.763C525.119 185.562 523.709 185.247 521.99 185.59C518.682 182.272 508.702 175.979 495.248 177.35C492.378 175.987 483.366 175.98 470.271 186.848C469.032 187.821 468.478 189.549 476.182 188.678L481.587 188.936C482.398 188.974 452.44 192.576 437.359 194.372C437.739 195.197 439.599 196.898 444.001 197.108L453.122 197.543C456.506 196.898 464.153 195.65 467.667 195.818L505.068 197.601L528.137 198.701C534.059 199.951 547.356 202.404 553.17 202.217C556.108 202.122 559.915 201.887 563.893 201.642L563.895 201.641L563.895 201.641C569.756 201.28 575.989 200.895 580.368 200.902L580.97 200.903L580.97 200.903L580.971 200.903L580.971 200.903C588.356 200.914 599.741 200.931 602.423 201.954C603.663 204.689 608.733 210.003 619.095 209.375L649.32 208.495L692.66 206.45C692.526 205.202 689.884 202.593 680.386 202.14L715.235 200.658C722.126 200.519 737.529 200.338 744.011 200.724L745.736 200.827L745.738 200.827C754.796 201.366 773.65 202.489 776.079 202.786C778.157 203.039 818.255 204.861 838.045 205.741C843.296 206.862 857.44 209.016 872.006 208.666C873.023 209.311 875.56 210.625 877.568 210.721C875.776 211.103 873.247 212.063 877.466 212.844C881.686 213.626 894.635 213.905 900.583 213.947C901.999 212.644 902.444 210.224 892.889 210.968C895.418 205.607 895.66 194.857 876.394 194.751C875.416 190.255 871.418 180.235 863.255 176.131C864.361 171.879 863.244 162.568 849.932 159.34C851.092 154.268 852.581 143.543 849.248 141.217C847.811 139.907 844.033 137.38 840.417 137.749C842.362 132.795 840.425 122.348 817.117 120.192C814.286 119.041 806.935 117.269 800.178 119.384C797.579 114.714 787.98 105.782 770.372 107.418C748.363 109.465 727.712 82.0215 745.705 72.9153C748.256 72.1502 755.201 72.9908 762.565 82.4742C763.071 81.9986 763.549 80.2962 761.409 77.2919C758.735 73.5366 749.12 63.1623 739.861 68.6703C735.806 65.4458 725.276 61.0966 715.588 69.496C713.818 71.7817 710.6 77.7325 711.885 83.2499L711.662 87.9311C707.178 89.9907 698.14 95.9929 697.858 103.525C689.966 103.697 672.855 107.092 667.552 119.3C662.447 118.492 650.998 121.364 646.04 139.315C650.688 138.553 661.297 137.682 666.551 140.293C673.119 143.556 679.686 147.836 682.407 159.768C682.254 160.938 679.752 159.641 676.482 155.181C675.16 153.376 666.665 152.507 662.528 155.676C662.32 155.836 662.108 155.999 661.893 156.164L661.89 156.167C656.767 160.116 649.65 165.601 636.66 162.569C635.016 165.263 629.987 171.044 623.025 172.608C614.593 174.502 614.509 174.615 613.338 176.192C613.3 176.243 613.261 176.295 613.221 176.349C613.098 176.343 612.929 176.314 612.715 176.279L612.713 176.278L612.713 176.278C610.142 175.847 601.207 174.35 591.201 197.887C589.669 195.202 588.617 187.771 596.672 179.526C604.727 171.281 611.253 169.951 613.509 170.316C614.038 164.956 618.281 154.62 631.017 156.156C631.158 152.503 632.672 144.772 637.59 143.071C635.861 139.442 635.317 129.681 646.977 119.673C645.732 117.05 644.98 110.223 651.937 103.899C658.895 97.575 665.85 98.8548 668.459 100.285C673.608 92.0498 688.193 77.9893 705.34 87.6296C706.623 88.0939 708.186 87.7944 704.163 82.8817C702.524 77.6924 701.511 64.8584 710.57 55.0359ZM609.24 51.8906C611.437 56.5421 616.09 63.4453 616.09 63.4453C619.362 62.4404 627.914 60.3461 636.738 63.5531C636.738 63.5531 641.633 68.4362 646.556 68.6647C651.478 68.8932 660.12 63.3524 658.047 54.8952C657.95 55.1196 657.854 55.3457 657.758 55.5725L657.758 55.5736L657.757 55.5746C656.124 59.4248 654.402 63.4826 646.82 63.121C644.528 62.4958 640.309 60.0859 641.942 51.8055C641.109 50.3469 637.857 48.2054 631.518 51.3084C629.514 52.7607 609.24 51.8906 609.24 51.8906ZM686.528 187.971C689.907 186.068 697.68 183.743 701.732 189.663C704.303 187.141 711.051 182.484 717.479 184.029C716.174 178.936 716.825 166.894 729.872 159.468C729.557 152.552 733.581 138.478 752.202 137.509C752.276 137.452 752.381 137.364 752.517 137.25C754.566 135.527 763.555 127.972 778.722 137.225C781.841 135.375 791.154 133.755 803.449 142.081C804.273 142.378 805.949 142.393 806.06 140.077C803.002 136.577 794.289 129.687 783.898 130.12C783.267 125.769 779.765 118.585 770.808 124.659C766.892 120.216 755.661 112.831 742.064 118.838C728.058 125.026 726.778 134.316 726.149 138.881C726.015 139.856 725.911 140.615 725.718 141.083C724.929 141.556 724.116 141.973 723.294 142.394C719.758 144.206 716.068 146.097 713.546 152.885C713.301 153.97 713.081 156.965 714.162 160.267C706.743 161.654 698.955 169.989 702.109 181.748L700.684 183.228C698.631 181.647 693.494 179.016 689.368 181.141C687.659 181.833 684.697 184.169 686.528 187.971Z" fill="url(#paint0_linear_194_380)"/>
<mask id="mask0_194_380" style="mask-type:alpha" maskUnits="userSpaceOnUse" x="506" y="211" width="91" height="10">
<path d="M509.017 213.327C514.606 212.974 544.132 212.679 558.196 212.576C568.382 209.966 575.21 214.73 585.222 213.865C595.325 212.992 598.105 217.575 595.113 217.432C588.936 217.138 566.396 219.158 560.218 218.864C555.276 218.628 553.14 221.235 541.558 220.683C535.15 221.151 517.327 217.592 513.116 216.618C508.906 215.643 502.031 213.767 509.017 213.327Z" fill="white"/>
</mask>
<g mask="url(#mask0_194_380)">
<path d="M509.017 213.327C514.606 212.974 544.132 212.679 558.196 212.576C568.382 209.966 575.21 214.73 585.222 213.865C595.325 212.992 598.105 217.575 595.113 217.432C588.936 217.138 566.396 219.158 560.218 218.864C555.276 218.628 553.14 221.235 541.558 220.683C535.15 221.151 517.327 217.592 513.116 216.618C508.906 215.643 502.031 213.767 509.017 213.327Z" fill="white"/>
<path d="M506.271 214.976C504.454 214.115 507.101 213.79 508.651 213.735C519.204 213.155 535.527 215.468 542.369 216.697C551.828 217.148 558.41 213.012 565.167 213.334C571.923 213.657 578.256 214.733 588.524 214.448C596.739 214.221 597.125 216.664 596.292 217.914C592.585 217.738 569.297 218.691 558.116 219.19C554.497 220.41 546.619 220.899 543.132 220.99C528.847 220.309 508.541 216.052 506.271 214.976Z" fill="#D8E4CA"/>
</g>
<path d="M549.342 147.57C545.481 147.386 509.052 144.488 507.894 144.433C508.923 145.565 531.922 147.707 543.293 148.636C544.742 150.717 546.869 152.096 547.751 152.525C553.127 150.15 560.029 152.014 562.809 153.243C561.908 147.782 553.203 147.754 549.342 147.57Z" fill="#F5ECA1"/>
<path d="M773.898 209.986C788.795 208.375 798.701 210.202 801.792 211.317C800.084 212.241 790.745 212.725 786.289 212.851C788.052 213.418 794.225 215.009 804.819 216.83C815.412 218.651 818.048 220.041 818.042 220.508C816.316 220.845 808.044 221.618 788.754 222.013C769.465 222.409 761.755 220.178 760.311 219.012C754.774 218.474 742.479 217.253 737.592 216.671C731.484 215.945 732.844 212.769 739.456 212.068C744.745 211.508 764.621 210.447 773.898 209.986Z" fill="white"/>
<path d="M776.106 212.365C779.747 210.681 794.427 210.917 801.312 211.245C799.091 212.377 790.403 212.789 786.337 212.853L792.248 214.682L780.086 214.102C778.233 214.014 776.661 212.907 776.106 212.365Z" fill="#AFD0D0"/>
<path d="M759.238 213.108C753.215 212.821 739.912 213.993 734.014 214.614C730.204 216.599 750.205 218.611 760.681 219.368C774.708 223.842 804.662 222.148 817.885 220.742C818.112 220.043 817.369 218.589 812.581 218.361C806.597 218.075 796.265 219.711 794.913 219.647C787.589 217.44 777.963 218.064 774.065 218.652C756.577 218.592 756.894 214.931 759.238 213.108Z" fill="#AFD0D0"/>
</g>
<g opacity="0.87">
<path d="M110.296 96C132.122 96 146.987 122.752 149.104 130.196C172.754 127.455 182.272 148.341 184.075 159.126C215.675 147.199 237.119 165.661 243.892 176.383C284.348 177.093 290.562 183.7 288.612 186.914H253.767C263.075 196.253 262.887 217.198 261.629 226.503C275.366 227.67 277.584 234.391 276.976 237.605C318.791 224.917 352.517 246.022 364.153 258.161C369.478 257.675 383.727 257.983 398.118 263.11C412.509 268.236 408.768 272.097 405.099 273.387C399.061 271.053 372.937 270.85 360.63 271.04C319.017 269.162 312.304 273.768 314.149 276.306C327.169 276.306 337.673 282.46 332.767 284.49C327.861 286.52 273.831 286.837 276.976 284.49C280.121 282.143 296.16 278.082 294.399 276.306C292.638 274.529 220.368 271.294 220.368 273.387C220.368 275.481 224.142 278.082 232.255 278.082C238.746 278.082 240.789 281.001 240.998 282.46C197.473 286.584 172.125 285.061 147.469 282.46C122.813 279.859 59.8517 280.239 59.8517 277.448C63.8772 272.575 72.599 271.019 76.4568 270.85C73.4377 267.804 -12.3554 267.551 -20.1547 267.297C-27.9541 267.043 -35.2503 268.566 -34.7471 270.85C-34.2439 273.134 -27.4509 272.372 -20.1547 273.895C-14.3178 275.113 -16.297 276.771 -18.0162 277.448C-18.0162 277.448 -119.156 274.149 -124.691 274.022C-130.226 273.895 -127.144 269.073 -127.144 269.073C-116.326 269.073 -107.457 262.095 -102.048 262.095C-97.7207 262.095 -87.7912 260.107 -83.3673 259.113C-76.2724 240.435 -56.1743 233.482 -47.0122 232.34C-58.0319 224.371 -46.6976 219.122 -39.653 217.494C-41.6658 180.24 -22.3561 166.845 -8.89597 164.519H-24.3688C-47.0122 165.724 -48.6474 160.141 -39.653 157.984C-30.6587 155.827 -1.78838 156.525 -1.78838 156.525C7.26895 122.824 34.4409 120.658 46.8948 123.788C53.5871 108.714 67.0431 108.583 72.9346 110.402C78.8219 98.525 94.6343 96 110.296 96Z" fill="white"/>
<path d="M302.46 202.484C297.021 202.798 296.034 200.192 296.22 198.85C296.647 197.925 298.487 196.109 302.432 196.252C306.377 196.394 308.826 198.18 309.558 199.055C309.458 200.067 307.898 202.17 302.46 202.484Z" fill="white"/>
<path opacity="0.6" fill-rule="evenodd" clip-rule="evenodd" d="M149.231 130.006C147.167 125.184 143.129 118.269 141.242 115.414C140.089 118.438 135.607 125.59 127.908 130.006C120.209 134.421 109.898 134.002 105.705 133.241V134.827C123.015 134.37 128.306 142.715 128.789 146.945C132.864 134.612 144.115 130.513 149.231 130.006ZM67.2113 133.241C61.7769 131.719 53.7931 122.963 50.4804 118.776C49.5747 117.666 47.8387 121.697 47.084 123.852C48.6439 124.41 49.9982 127.129 50.4804 128.419C35.1333 127.151 27.0195 131.105 24.881 133.241C6.41406 145.575 4.10361 161.177 5.25674 167.437C-8.58085 166.168 -17.7849 172.787 -20.5315 177.144C-34.3691 187.993 -39.338 204.488 -39.338 217.43C-56.245 221.694 -51.7499 229.062 -47.389 232.213C-69.0763 236.172 -80.4944 251.626 -83.4925 258.859C-93.0909 261.371 -98.9089 261.844 -102.072 262.102C-103.304 262.202 -104.133 262.27 -104.626 262.412C-105.411 262.638 -106.644 263.191 -108.232 263.903L-108.232 263.903L-108.232 263.903L-108.233 263.904C-110.211 264.79 -112.738 265.924 -115.633 266.98C-119.81 268.502 -125.089 268.925 -127.207 268.946C-129.32 273.057 -126.326 274.085 -124.565 274.085L-61.604 275.989L-18.2043 277.575C-11.9145 275.138 -22.4604 273.261 -28.5196 272.626C-31.7274 272.52 -37.3379 271.674 -34.1175 269.137C-30.8972 266.599 -7.70032 267.022 3.49554 267.551L45.8889 268.439C65.9156 268.439 74.5285 270.088 76.3316 270.913C66.4188 271.776 61.2151 275.714 59.8523 277.575C64.3728 279.581 95.1161 280.189 114.444 280.571L114.446 280.571H114.447L114.453 280.571L114.483 280.572C115.311 280.588 116.118 280.604 116.901 280.62C127.635 280.834 140.383 281.914 152.911 282.975C162.627 283.798 172.21 284.61 180.617 284.998C196.014 285.708 227.161 283.517 240.81 282.333C240.307 278.97 236.219 278.463 232.067 278.463C227.916 278.463 224.331 277.575 220.18 274.783C216.028 271.992 236.219 272.626 238.357 272.816C239.023 272.876 242.244 272.984 246.813 273.138C256.917 273.478 273.611 274.04 283.832 274.783C295.708 275.646 295.657 277.004 294.148 277.575C291.359 278.928 284.386 282.028 278.801 283.602C273.215 285.175 279.828 285.653 283.832 285.695C295.678 285.822 320.351 286 324.276 285.695C328.201 285.391 332.327 284.173 333.899 283.602C332.49 278.12 320.02 276.496 313.961 276.369C313.709 272.872 318.997 272.25 325.143 271.526C326.691 271.344 328.292 271.156 329.874 270.913C334.969 270.132 349.914 270.416 363.707 270.679H363.707H363.708H363.708H363.709L363.71 270.679C371.202 270.822 378.353 270.958 383.4 270.913C394.873 270.812 402.647 272.52 405.1 273.387C407.314 272.829 408.371 270.786 408.622 269.835C397.301 268.312 372.846 265.229 365.6 265.076C358.354 264.924 344.131 258.076 337.925 254.672C312.866 241.12 284.042 242.892 272.762 245.472C272.41 238.57 268.297 234.814 266.284 233.799C260.044 231.21 252.991 232.72 250.245 233.799V235.702C263.391 242.681 258.044 258.288 256.723 259.493C256.126 260.039 255.065 259.467 254.123 258.96C252.982 258.346 252.017 257.826 252.258 259.493C252.61 261.93 250.35 263.046 249.176 263.3C243.388 264.8 238.766 259.382 236.936 257.237L236.936 257.237C236.598 256.841 236.356 256.557 236.219 256.448C235.514 255.89 236.512 252.113 237.099 250.294C238.407 253.542 241.208 252.24 242.445 251.182C245.012 250.37 244.353 246.191 243.703 244.203C232.935 224.054 213.428 219.482 205.021 219.714L203.323 216.669L206.09 214.512C209.512 203.803 232.067 209.563 233.514 219.27C241.565 218.255 247.31 226.926 249.176 231.388C251.893 227.937 258.317 226.482 261.189 226.186C253.792 226.186 250.098 221.575 249.176 219.27C251.037 201.608 240.642 192.243 235.212 189.769C219.513 162.514 188.5 164.371 174.956 168.706C159.407 137.543 128.055 151.492 114.322 162.362C106.372 147.287 91.8884 140.558 85.6405 139.078C87.779 138.57 91.7416 134.954 92.4335 133.241C92.987 131.871 91.0707 130.513 90.0434 130.006C84.0051 133.622 74.0043 135.144 67.2113 133.241ZM-8.89533 164.455L-2.47973 161.981C-18.8961 160.776 -40.7847 160.573 -44.5586 160.776C-44.8311 162.002 -43.1874 164.455 -34.432 164.455H-8.89533ZM12.5531 238.875C14.3981 237.754 18.5787 235.385 20.5412 234.878C22.5036 234.37 28.9485 234.666 31.9257 234.878C35.7625 227.624 48.3547 214.297 68.0292 219.017C71.0903 207.534 86.0307 187.295 121.304 198.207C123.149 195.416 130.047 191.508 142.878 198.207C155.709 204.907 155.185 213.814 153.319 217.431C160.007 223.035 171.597 237.352 164.452 249.787C172.126 248.328 187.976 250.32 189.989 269.962H186.907C183.95 264.358 174.893 253.834 162.313 256.575C158.372 257.802 151.055 257.717 153.319 247.566C154.975 238.959 152.187 222.062 127.782 223.331C126.524 217.325 119.518 206.062 101.554 209.056C83.5902 212.051 77.2543 221.47 76.3318 225.805C65.4294 223.754 42.0271 223.877 35.6367 240.778L12.5531 238.875Z" fill="#78D8F1"/>
</g>
<defs>
<linearGradient id="paint0_linear_194_380" x1="672.855" y1="61.102" x2="784.95" y2="174.419" gradientUnits="userSpaceOnUse">
<stop stop-color="#89E4F5"/>
<stop offset="1" stop-color="#61C8EE"/>
</linearGradient>
</defs>
</svg>
