<svg width="1519" height="576" viewBox="0 0 1519 576" fill="none" xmlns="http://www.w3.org/2000/svg">
<g opacity="0.64">
<path d="M1230.64 69.9278C1240.33 49.2421 1257.79 50.8133 1277.87 45.5507C1314.13 -5.59029 1388.53 31.9734 1386.48 75.0268C1410.99 76.1957 1424.47 99.0618 1427.72 111.009C1429.8 108.231 1440.85 106.808 1446.11 106.444C1468.44 86.6711 1498.94 110.777 1511.4 125.301C1537.95 129.444 1538.93 155.349 1536.1 167.784C1554.18 174.944 1559.59 193.428 1560.04 201.775C1584.29 203.476 1604.07 212.589 1610.92 216.933C1629.49 204.212 1647.29 221.356 1653.86 231.518C1688.77 234.893 1691.57 263.509 1688.61 277.395C1696.11 276.509 1703.43 281.73 1706.15 284.451C1712.55 287.245 1709.75 309.503 1707.55 320.283C1733.99 326.831 1736.67 345.645 1734.7 354.233C1752.54 365.035 1759.59 383.928 1760.89 392.024C1799.47 391.687 1798.98 413.926 1793.91 425.088C1812.35 423.168 1811.83 427.108 1809.26 429.318C1801.89 428.967 1761.44 429.371 1759.23 426.932C1757.45 424.982 1761.18 423.916 1763.27 423.627C1760.17 423.479 1754.59 420.88 1752.19 419.599C1730.04 420.954 1697.29 415.977 1683.68 413.32L1639.66 411.22L1558.11 407.331C1483.58 400.123 1399.24 403.935 1366.39 406.741C1386.87 407.718 1391.5 412.733 1391.25 415.119C1345 417.74 1248.78 422.495 1233.94 420.543C1219.11 418.592 1212.66 410.393 1211.28 406.537C1197.2 401.978 1139.13 404.716 1111.86 406.655C1091.61 405.69 1069.76 401.408 1061.37 399.388L941.91 393.691C933.532 393.292 917.255 395.755 910.164 397.037C906.136 396.586 896.793 395.777 891.644 396.154C886.494 396.53 880.473 392.641 878.106 390.649C878.601 380.254 887.72 381.972 892.217 384.13L928.889 379.367C940.737 362.438 955.797 351.786 961.847 348.575C997.041 329.572 1028.23 343.123 1039.42 352.275C1060.08 310.4 1104.66 310.971 1100.15 307.646C1096.55 304.986 1093.23 300.578 1092.03 298.706C1057.96 295.785 989.548 288.999 988.484 285.216C987.421 281.433 1000.58 281.646 1007.29 282.225C1006.43 274.098 1057.78 277.636 1083.57 280.42C1082.8 257.37 1099.43 246.707 1107.84 244.258C1121.38 195.143 1155.84 183.31 1171.38 183.533C1170.94 160.187 1186.97 150.066 1198.35 139.724C1207.45 131.45 1228.44 128.2 1237.8 127.61C1217.73 97.4616 1218.5 95.8205 1230.21 70.8462L1230.64 69.9278Z" fill="white"/>
<path d="M1386.59 76.7818C1386.98 68.7141 1382.74 56.9017 1380.37 52.3825C1373.07 75.0484 1349.12 79.9191 1338.27 79.1427C1343.68 83.1325 1346.49 86.2726 1347.21 87.3439C1366.41 88.2595 1378.67 79.7734 1386.59 76.7818Z" fill="#B5EDF8"/>
<path d="M1304.93 48.5913C1296.73 44.4683 1283.81 44.4742 1278.38 44.9925L1276.78 45.9852C1290.7 47.5043 1305.05 52.3546 1309.7 54.5528C1309.6 51.8267 1306.48 49.4426 1304.93 48.5913Z" fill="#B5EDF8"/>
<path opacity="0.6" fill-rule="evenodd" clip-rule="evenodd" d="M1427.72 111.008C1427.22 109.364 1425.99 105.755 1425.12 104.47L1420.47 108.136C1411.96 101.056 1388.52 90.5953 1362.78 105.384C1361.64 106.877 1358.84 110.364 1356.81 112.376C1356.67 112.514 1356.48 112.688 1356.25 112.902C1352.33 116.597 1336.1 131.88 1335.34 165.013C1329.53 165.254 1316.02 166.327 1308.44 168.686C1307.5 167.378 1304.08 164.455 1297.91 163.228C1292.21 155.213 1272.78 142.98 1240.72 158.168C1208.66 173.355 1194.59 191.442 1191.56 198.586C1185.29 199.615 1171.74 205.805 1167.68 222.328C1151.43 228.874 1121.52 248 1131.88 272.13C1129.7 279.736 1130.8 299.66 1152.6 318.504C1151.7 320.502 1149.87 325.547 1149.83 329.743C1144.44 325.307 1129.8 318.194 1114.38 325.234C1107.83 329.263 1095.54 339.458 1098.71 348.007C1085.74 348.911 1059.06 355.31 1056.09 373.672C1055.1 373.269 1052.27 372.635 1048.81 373.326C1042.17 366.659 1022.11 354.014 995.082 356.768C989.316 354.031 971.208 354.016 944.897 375.854C942.407 377.808 941.295 381.28 956.773 379.53L967.634 380.048C969.263 380.125 909.07 387.363 878.769 390.971C879.533 392.628 883.27 396.045 892.114 396.467L910.44 397.341C917.24 396.046 932.605 393.539 939.665 393.875L1014.81 397.459L1061.16 399.669C1073.06 402.18 1099.78 407.109 1111.46 406.733C1117.37 406.543 1125.02 406.07 1133.01 405.577L1133.01 405.577C1144.79 404.849 1157.31 404.076 1166.11 404.09L1167.32 404.092C1182.16 404.115 1205.04 404.15 1210.42 406.204C1212.92 411.7 1223.1 422.378 1243.92 421.116L1304.65 419.347L1391.73 415.238C1391.46 412.731 1386.16 407.489 1367.07 406.579L1437.09 403.601C1450.94 403.322 1481.89 402.957 1494.91 403.734L1498.38 403.94C1516.57 405.024 1554.46 407.279 1559.34 407.876C1563.52 408.386 1644.09 412.046 1683.85 413.813C1694.4 416.065 1722.82 420.394 1752.09 419.691C1754.13 420.987 1759.23 423.627 1763.26 423.82C1759.66 424.587 1754.58 426.516 1763.06 428.086C1771.54 429.657 1797.56 430.217 1809.51 430.301C1812.35 427.683 1813.24 422.821 1794.05 424.316C1799.13 413.544 1799.61 391.946 1760.9 391.733C1758.94 382.698 1750.9 362.566 1734.5 354.32C1736.73 345.776 1734.48 327.067 1707.73 320.583C1710.07 310.392 1713.06 288.842 1706.36 284.169C1703.47 281.537 1695.88 276.458 1688.62 277.2C1692.52 267.247 1688.63 246.256 1641.8 241.924C1636.11 239.612 1621.34 236.05 1607.77 240.301C1602.54 230.916 1583.26 212.969 1547.88 216.258C1503.66 220.369 1462.16 165.229 1498.31 146.932C1503.44 145.395 1517.39 147.084 1532.19 166.139C1533.21 165.183 1534.17 161.763 1529.87 155.726C1524.5 148.181 1505.18 127.336 1486.57 138.403C1478.43 131.924 1457.27 123.186 1437.8 140.062C1434.25 144.655 1427.78 156.611 1430.36 167.697L1429.91 177.103C1420.9 181.241 1402.75 193.301 1402.18 208.436C1386.32 208.781 1351.94 215.603 1341.29 240.131C1331.03 238.508 1308.02 244.279 1298.06 280.346C1307.4 278.815 1328.72 277.065 1339.27 282.311C1352.47 288.869 1365.67 297.468 1371.13 321.442C1370.83 323.792 1365.8 321.188 1359.23 312.225C1356.57 308.599 1339.5 306.852 1331.19 313.22C1330.77 313.542 1330.34 313.872 1329.91 314.206C1319.62 322.141 1305.32 333.163 1279.22 327.069C1275.91 332.484 1265.81 344.098 1251.82 347.241C1234.88 351.047 1234.71 351.274 1232.36 354.442C1232.28 354.544 1232.2 354.649 1232.12 354.757C1231.87 354.745 1231.53 354.688 1231.1 354.615C1225.93 353.75 1207.98 350.74 1187.88 398.034C1184.8 392.639 1182.69 377.707 1198.87 361.141C1215.05 344.574 1228.17 341.902 1232.7 342.636C1233.76 331.867 1242.29 311.099 1267.88 314.186C1268.16 306.845 1271.2 291.311 1281.08 287.894C1277.61 280.602 1276.52 260.989 1299.95 240.88C1297.44 235.61 1295.93 221.893 1309.91 209.187C1323.89 196.48 1337.87 199.052 1343.11 201.926C1353.45 185.379 1382.76 157.127 1417.21 176.497C1419.79 177.43 1422.93 176.828 1414.85 166.957C1411.55 156.531 1409.52 130.744 1427.72 111.008ZM1224.12 104.688C1228.54 114.035 1237.88 127.905 1237.88 127.905C1244.46 125.886 1261.64 121.678 1279.37 128.121C1279.37 128.121 1289.21 137.933 1299.1 138.392C1308.99 138.851 1326.35 127.718 1322.19 110.725C1321.99 111.177 1321.8 111.633 1321.61 112.089L1321.61 112.09L1321.61 112.09C1318.32 119.827 1314.86 127.98 1299.63 127.253C1295.02 125.997 1286.55 121.155 1289.83 104.517C1288.15 101.587 1281.62 97.284 1268.88 103.519C1264.86 106.437 1224.12 104.688 1224.12 104.688ZM1379.41 378.109C1386.2 374.286 1401.82 369.614 1409.96 381.509C1415.13 376.443 1428.69 367.086 1441.6 370.189C1438.98 359.957 1440.29 335.761 1466.5 320.839C1465.87 306.944 1473.96 278.666 1511.37 276.718C1511.52 276.604 1511.73 276.427 1512 276.198C1516.12 272.737 1534.18 257.556 1564.65 276.149C1570.92 272.43 1589.63 269.176 1614.34 285.904C1615.99 286.501 1619.36 286.532 1619.58 281.878C1613.44 274.847 1595.93 261.002 1575.05 261.872C1573.79 253.13 1566.75 238.695 1548.75 250.899C1540.89 241.971 1518.32 227.134 1491 239.204C1462.86 251.636 1460.29 270.303 1459.02 279.475C1458.75 281.434 1458.54 282.96 1458.16 283.899C1456.57 284.849 1454.94 285.687 1453.29 286.533C1446.18 290.175 1438.77 293.974 1433.7 307.613C1433.21 309.792 1432.76 315.81 1434.94 322.444C1420.03 325.232 1404.38 341.98 1410.72 365.607L1407.86 368.58C1403.73 365.403 1393.41 360.116 1385.12 364.386C1381.68 365.777 1375.73 370.469 1379.41 378.109Z" fill="url(#paint0_linear_194_380)"/>
<mask id="mask0_194_380" style="mask-type:alpha" maskUnits="userSpaceOnUse" x="1016" y="425" width="183" height="19">
<path d="M1022.75 429.054C1033.98 428.346 1093.3 427.754 1121.56 427.546C1142.03 422.302 1155.75 431.873 1175.86 430.136C1196.16 428.382 1201.75 437.59 1195.74 437.303C1183.33 436.712 1138.04 440.772 1125.63 440.18C1115.7 439.707 1111.4 444.944 1088.13 443.835C1075.26 444.776 1039.44 437.625 1030.99 435.667C1022.53 433.709 1008.71 429.94 1022.75 429.054Z" fill="white"/>
</mask>
<g mask="url(#mask0_194_380)">
<path d="M1022.75 429.054C1033.98 428.346 1093.3 427.754 1121.56 427.546C1142.03 422.302 1155.75 431.873 1175.86 430.136C1196.16 428.382 1201.75 437.59 1195.74 437.303C1183.33 436.712 1138.04 440.772 1125.63 440.18C1115.7 439.707 1111.4 444.944 1088.13 443.835C1075.26 444.776 1039.44 437.625 1030.99 435.667C1022.53 433.709 1008.71 429.94 1022.75 429.054Z" fill="white"/>
<path d="M1017.23 432.368C1013.58 430.639 1018.9 429.985 1022.02 429.875C1043.22 428.709 1076.02 433.357 1089.76 435.827C1108.77 436.733 1121.99 428.422 1135.57 429.07C1149.15 429.717 1161.87 431.879 1182.5 431.308C1199.01 430.851 1199.78 435.76 1198.11 438.272C1190.66 437.917 1143.87 439.832 1121.4 440.834C1114.13 443.286 1098.3 444.268 1091.3 444.452C1062.59 443.083 1021.79 434.529 1017.23 432.368Z" fill="#D8E4CA"/>
</g>
<path d="M1103.77 296.933C1096.01 296.563 1022.82 290.74 1020.49 290.629C1022.56 292.905 1068.77 297.207 1091.62 299.074C1094.53 303.256 1098.8 306.026 1100.58 306.888C1111.38 302.116 1125.25 305.861 1130.83 308.331C1129.02 297.359 1111.53 297.303 1103.77 296.933Z" fill="#F5ECA1"/>
<path d="M1554.96 422.345C1584.9 419.107 1604.8 422.777 1611.01 425.017C1607.58 426.875 1588.81 427.846 1579.86 428.1C1583.4 429.24 1595.81 432.436 1617.09 436.095C1638.37 439.753 1643.67 442.546 1643.66 443.485C1640.19 444.162 1623.57 445.715 1584.81 446.51C1546.06 447.305 1530.56 442.821 1527.66 440.48C1516.54 439.399 1491.83 436.944 1482.01 435.777C1469.74 434.317 1472.48 427.935 1485.76 426.528C1496.39 425.402 1536.32 423.27 1554.96 422.345Z" fill="white"/>
<path d="M1559.4 427.122C1566.72 423.739 1596.21 424.213 1610.05 424.872C1605.58 427.148 1588.13 427.974 1579.96 428.103L1591.83 431.779L1567.4 430.614C1563.68 430.436 1560.52 428.212 1559.4 427.122Z" fill="#AFD0D0"/>
<path d="M1525.51 428.616C1513.41 428.039 1486.68 430.393 1474.83 431.642C1467.17 435.631 1507.36 439.672 1528.41 441.194C1556.59 450.182 1616.78 446.779 1643.35 443.954C1643.8 442.55 1642.31 439.628 1632.69 439.17C1620.67 438.596 1599.9 441.883 1597.19 441.753C1582.47 437.319 1563.13 438.574 1555.3 439.756C1520.16 439.635 1520.8 432.279 1525.51 428.616Z" fill="#AFD0D0"/>
</g>
<g opacity="0.87">
<path d="M221.614 193.315C265.467 193.315 295.335 247.067 299.59 262.024C347.108 256.517 366.233 298.482 369.856 320.152C433.349 296.187 476.435 333.282 490.042 354.825C571.329 356.253 583.815 369.527 579.897 375.986H509.883C528.587 394.75 528.208 436.833 525.681 455.53C553.282 457.875 557.739 471.379 556.517 477.837C640.534 452.343 708.298 494.749 731.678 519.139C742.378 518.162 771.007 518.782 799.922 529.082C828.838 539.382 821.323 547.141 813.95 549.733C801.818 545.042 749.329 544.634 724.601 545.016C640.989 541.243 627.5 550.498 631.207 555.597C657.367 555.597 678.472 567.962 668.615 572.041C658.757 576.12 550.198 576.757 556.517 572.041C562.836 567.324 595.063 559.166 591.524 555.597C587.985 552.027 442.776 545.526 442.776 549.733C442.776 553.939 450.359 559.166 466.662 559.166C479.704 559.166 483.807 565.03 484.229 567.962C396.775 576.247 345.844 573.188 296.304 567.962C246.763 562.735 120.258 563.5 120.258 557.891C128.346 548.101 145.871 544.974 153.622 544.634C147.556 538.515 -24.8245 538.005 -40.4954 537.495C-56.1664 536.985 -70.8263 540.045 -69.8153 544.634C-68.8043 549.223 -55.1554 547.693 -40.4954 550.753C-28.7675 553.2 -32.7442 556.531 -36.1986 557.891C-36.1986 557.891 -239.415 551.263 -250.537 551.008C-261.658 550.753 -255.465 541.065 -255.465 541.065C-233.728 541.065 -215.909 527.042 -205.04 527.042C-196.346 527.042 -176.395 523.048 -167.506 521.051C-153.25 483.523 -112.868 469.552 -94.459 467.257C-116.601 451.246 -93.8271 440.7 -79.6726 437.428C-83.7167 362.575 -44.9187 335.661 -17.8737 330.987H-48.9626C-94.459 333.409 -97.7446 322.192 -79.6726 317.858C-61.6007 313.523 -3.5927 314.926 -3.5927 314.926C14.6058 247.211 69.2014 242.86 94.2244 249.149C107.671 218.861 134.708 218.598 146.545 222.252C158.374 198.389 190.146 193.315 221.614 193.315Z" fill="white"/>
<path d="M607.72 407.27C596.793 407.901 594.809 402.665 595.183 399.969C596.041 398.109 599.738 394.462 607.665 394.748C615.591 395.034 620.513 398.622 621.983 400.38C621.782 402.414 618.648 406.639 607.72 407.27Z" fill="white"/>
<path opacity="0.6" fill-rule="evenodd" clip-rule="evenodd" d="M299.842 261.641C295.697 251.953 287.583 238.059 283.792 232.322C281.475 238.399 272.468 252.769 257 261.641C241.531 270.513 220.813 269.672 212.388 268.142V271.329C247.167 270.412 257.8 287.179 258.769 295.677C266.958 270.896 289.563 262.661 299.842 261.641ZM135.044 268.142C124.125 265.083 108.083 247.492 101.427 239.078C99.6074 236.847 96.1194 244.947 94.6029 249.276C97.7372 250.398 100.458 255.862 101.427 258.454C70.5909 255.905 54.2881 263.851 49.9913 268.142C12.8865 292.923 8.24423 324.274 10.5612 336.851C-17.2421 334.302 -35.7355 347.601 -41.2541 356.355C-69.0575 378.153 -79.0413 411.296 -79.0413 437.301C-113.012 445.867 -103.98 460.671 -95.2177 467.002C-138.793 474.956 -161.735 506.009 -167.759 520.541C-187.045 525.588 -198.735 526.539 -205.091 527.057H-205.091C-207.565 527.258 -209.231 527.394 -210.222 527.68C-211.798 528.134 -214.276 529.245 -217.466 530.676L-217.466 530.676C-221.44 532.458 -226.52 534.737 -232.339 536.858C-240.73 539.917 -251.337 540.767 -255.592 540.809C-259.839 549.07 -253.823 551.135 -250.284 551.135L-123.779 554.959L-36.5781 558.146C-23.9402 553.251 -45.1298 549.478 -57.3043 548.203C-63.7496 547.991 -75.0226 546.291 -68.552 541.192C-62.0814 536.093 -15.4729 536.943 7.02246 538.005L92.2017 539.79C132.441 539.79 149.746 543.104 153.369 544.761C133.452 546.495 122.996 554.407 120.258 558.146C129.341 562.177 191.116 563.399 229.952 564.167C231.641 564.2 233.287 564.233 234.883 564.265C256.45 564.695 282.065 566.865 307.236 568.997L307.237 568.997L307.238 568.997C326.759 570.65 346.013 572.281 362.905 573.06C393.842 574.488 456.425 570.086 483.849 567.707C482.838 560.95 474.623 559.931 466.282 559.931C457.941 559.931 450.738 558.146 442.397 552.537C434.056 546.928 474.623 548.203 478.92 548.585C480.258 548.704 486.73 548.922 495.91 549.232C516.21 549.915 549.754 551.045 570.292 552.537C594.152 554.271 594.051 556.999 591.018 558.146C585.415 560.865 571.404 567.095 560.182 570.256C548.959 573.417 562.246 574.378 570.292 574.463C594.093 574.718 643.667 575.074 651.553 574.463C659.439 573.851 667.73 571.403 670.889 570.256C668.058 559.242 643.002 555.979 630.827 555.724C630.323 548.698 640.947 547.447 653.296 545.993L653.297 545.993C656.406 545.627 659.624 545.248 662.801 544.761C673.038 543.192 703.068 543.763 730.782 544.291C745.836 544.577 760.207 544.851 770.349 544.761C793.401 544.557 809.021 547.991 813.95 549.733C818.398 548.611 820.522 544.506 821.027 542.594C798.279 539.535 749.143 533.34 734.584 533.034C720.025 532.728 691.447 518.969 678.978 512.128C628.628 484.899 570.713 488.46 548.049 493.644C547.342 479.775 539.076 472.228 535.032 470.189C522.496 464.988 508.324 468.022 502.806 470.189V474.013C529.219 488.035 518.477 519.394 515.823 521.816C514.622 522.912 512.49 521.764 510.597 520.744C508.306 519.51 506.365 518.465 506.85 521.816C507.558 526.711 503.016 528.954 500.657 529.464C489.028 532.477 479.741 521.591 476.065 517.282L476.065 517.282C475.386 516.487 474.899 515.916 474.623 515.697C473.208 514.575 475.213 506.986 476.393 503.332C479.021 509.859 484.649 507.241 487.135 505.117C492.291 503.485 490.968 495.089 489.662 491.095C468.026 450.609 428.832 441.422 411.94 441.89L408.527 435.771L414.088 431.437C420.963 409.919 466.282 421.494 469.189 440.997C485.366 438.958 496.908 456.379 500.657 465.345C506.117 458.41 519.024 455.487 524.796 454.892C509.934 454.892 502.511 445.629 500.657 440.997C504.398 405.509 483.512 386.693 472.601 381.722C441.057 326.959 378.744 330.69 351.531 339.4C320.29 276.785 257.294 304.813 229.702 326.653C213.727 296.365 184.627 282.844 172.073 279.87C176.37 278.85 184.332 271.584 185.722 268.142C186.834 265.389 182.984 262.661 180.919 261.641C168.787 268.907 148.693 271.967 135.044 268.142ZM-17.874 330.86L-4.98341 325.888C-37.9682 323.466 -81.948 323.058 -89.5307 323.466C-90.0784 325.931 -86.7757 330.86 -69.1837 330.86H-17.874ZM25.2207 480.388C28.9278 478.136 37.3278 473.377 41.2708 472.357C45.2138 471.337 58.1634 471.932 64.1453 472.357C71.8544 457.782 97.1554 431.004 136.687 440.488C142.837 417.415 172.856 376.751 243.729 398.677C247.436 393.068 261.296 385.216 287.077 398.677C312.858 412.138 311.805 430.035 308.056 437.301C321.494 448.562 344.782 477.328 330.425 502.313C345.843 499.381 377.691 503.384 381.735 542.85H375.542C369.602 531.59 351.404 510.446 326.128 515.953C318.208 518.417 303.506 518.247 308.056 497.852C311.384 480.558 305.781 446.607 256.746 449.157C254.219 437.089 240.14 414.458 204.046 420.475C167.953 426.492 155.222 445.417 153.369 454.128C131.463 450.006 84.4417 450.253 71.6017 484.212L25.2207 480.388Z" fill="#78D8F1"/>
</g>
<defs>
<linearGradient id="paint0_linear_194_380" x1="1351.94" y1="123.196" x2="1577.17" y2="350.88" gradientUnits="userSpaceOnUse">
<stop stop-color="#89E4F5"/>
<stop offset="1" stop-color="#61C8EE"/>
</linearGradient>
</defs>
</svg>
