<svg width="462" height="469" viewBox="0 0 462 469" fill="none" xmlns="http://www.w3.org/2000/svg">
<path d="M103.19 285.499V438.202C104.229 441.898 104.193 445.745 117.852 445.466C131.511 445.187 268.471 460.618 335.257 468.168C336.603 468.168 339.418 467.779 342.574 466.472V297.542C339.661 297.765 337.06 297.816 335.257 297.777L115.889 286.196L103.19 285.499Z" fill="url(#paint0_linear_194_380)"/>
<path d="M347.104 463.987C351.843 460.642 413.426 420.779 443.624 401.266C444.437 400.918 446.064 399.524 446.064 396.736C446.064 393.949 446.528 307.069 446.76 263.977C446.795 263.385 446.715 262.609 446.435 261.804C422.392 270.167 366.338 289.972 359.648 293.595C355.215 295.997 348.294 297.102 342.574 297.542V466.472C344.048 465.862 345.596 465.051 347.104 463.987Z" fill="url(#paint1_linear_194_380)"/>
<path d="M231.768 238.541L167.653 149.686C155.341 176.858 146.537 233.541 209.815 242.892L231.768 238.541Z" fill="url(#paint2_linear_194_380)"/>
<path d="M34.8941 155.261L113.992 261.887L209.815 242.892C146.537 233.541 155.341 176.858 167.653 149.686L34.8941 155.261Z" fill="url(#paint3_linear_194_380)"/>
<path fill-rule="evenodd" clip-rule="evenodd" d="M446.435 261.804C445.783 259.928 444.043 257.9 440.14 257.705C434.565 257.426 311.214 252.478 250.236 250.039L103.19 285.499L115.889 286.196L335.257 297.777C337.06 297.816 339.661 297.765 342.574 297.542C348.294 297.102 355.215 295.997 359.648 293.595C366.338 289.972 422.392 270.167 446.435 261.804ZM139.584 281.318L255.811 253.175L261.037 253.397L419.93 260.144L327.242 289.066L261.037 285.89L139.584 281.318Z" fill="#FFF4E2"/>
<path fill-rule="evenodd" clip-rule="evenodd" d="M139.584 281.318L255.811 253.175L261.037 253.397L419.93 260.144L327.242 289.066L261.037 285.89L139.584 281.318Z" fill="#F1DCBC"/>
<path fill-rule="evenodd" clip-rule="evenodd" d="M250.236 250.039L169.395 138.884C169.047 137.607 166.19 135.191 157.548 135.748C148.907 136.306 58.4726 137.607 14.3358 138.187C13.0582 138.071 10.2938 138.536 9.45755 141.323C9.40538 141.497 9.3402 141.725 9.26335 142.001L49.6548 203.71L52.7608 208.455L55.002 211.879L55.883 213.225L103.19 285.499L250.236 250.039ZM113.992 261.887L34.8941 155.261L167.653 149.686L231.768 238.541L209.815 242.892L113.992 261.887Z" fill="url(#paint4_linear_194_380)"/>
<path d="M97.9053 286.355C100.053 286.135 101.835 285.828 103.19 285.499L55.883 213.225L48.0034 211.117L97.9053 286.355Z" fill="#BE825C"/>
<path d="M9.26335 142.001C8.85635 143.464 8.12199 146.287 7.25961 149.686L41.5669 201.412L49.6548 203.71L9.26335 142.001Z" fill="#BE825C"/>
<path d="M52.7608 208.455L44.7379 206.193L47.0112 209.621L55.002 211.879L52.7608 208.455Z" fill="#BE825C"/>
<path d="M49.6548 203.71L41.5669 201.412L44.7379 206.193L52.7608 208.455L49.6548 203.71Z" fill="#F0D98D"/>
<path fill-rule="evenodd" clip-rule="evenodd" d="M6.32145 228.087C-2.73827 207.529 0.746188 178.259 1.44309 174.078C1.92104 171.21 5.02147 158.508 7.25961 149.686L41.5669 201.412L44.7379 206.193L47.0112 209.621L48.0034 211.117L97.9053 286.355C87.1683 287.457 67.3123 286.39 46.1993 275.045C22.8532 262.501 14.7816 247.285 6.32145 228.087Z" fill="#C08A78"/>
<path d="M55.002 211.879L47.0112 209.621L48.0034 211.117L55.883 213.225L55.002 211.879Z" fill="#F0D98D"/>
<path d="M103.228 390.735L147.132 394.191M147.132 394.191V441.855M147.132 394.191L194.521 397.921M194.521 397.921V446.835M194.521 397.921L245.743 401.953M245.743 401.953V451.968M245.743 401.953L294.003 405.752M294.003 405.752L342.263 409.551M294.003 405.752V457.985M106.015 394.568V433.942L143.299 437.644V397.921L106.015 394.568ZM150.268 398.168V438.022L190.34 442.305V401.537L150.268 398.168ZM198.006 401.953V443.002L241.91 447.88V405.718L198.006 401.953ZM249.228 406.415V448.577L290.693 453.455V409.899L249.228 406.415ZM297.313 410.596V454.152L335.643 457.985V413.732L297.313 410.596ZM110.197 399.446L138.769 402.102V434.508L110.197 431.155V399.446ZM154.101 402.829V435.583L186.507 439.169V405.718L154.101 402.829ZM201.838 406.415V440.563L238.426 444.744V409.899L201.838 406.415ZM253.06 410.596V446.138L287.208 449.971V413.384L253.06 410.596ZM300.798 414.778V451.968L332.507 454.849V417.565L300.798 414.778ZM114.378 404.324V427.322L134.588 429.563V406.284L114.378 404.324ZM157.934 407.359V431.402L183.022 434.639V409.551L157.934 407.359ZM206.02 411.642V436.381L234.244 439.169V414.429L206.02 411.642ZM256.893 415.474V442.305L283.724 444.744V417.565L256.893 415.474ZM303.934 419.307L329.022 421.398V450.668L303.934 448.577V419.307Z" stroke="#8F5E3D" stroke-width="2"/>
<path d="M342.264 409.551L368.136 397.355M368.136 397.355V444.047M368.136 397.355L391.046 386.556M391.046 386.556V429.064M391.046 386.556L409.166 378.015M409.166 378.015V417.217M409.166 378.015L424.846 370.623M424.846 370.623V407.112M424.846 370.623L437.042 364.874M437.042 364.874L445.753 360.768M437.042 364.874V399.097M346.097 411.99V454.849L365.958 442.305V402.582L346.097 411.99ZM370.488 400.491V439.517L388.956 428.019V391.78L370.488 400.491ZM393.137 389.341V424.883L407.424 415.474V382.372L393.137 389.341ZM411.256 380.63V413.384L423.104 405.718V375.054L411.256 380.63ZM426.937 372.964V403.279L435.299 397.871V368.95L426.937 372.964ZM438.784 367.04V395.613L444.359 392.128V364.253L438.784 367.04ZM348.884 414.429V449.274L363.867 440.563V407.112L348.884 414.429ZM372.927 403.279V434.988L386.865 426.276V396.658L372.927 403.279ZM395.228 391.78V420.701L405.681 414.429V386.553L395.228 391.78ZM412.999 383.069V409.899L421.167 404.672V379.236L412.999 383.069ZM428.679 375.403V399.794L433.494 396.85V373.156L428.679 375.403ZM440.526 369.828V392.477L443.314 390.735V368.434L440.526 369.828Z" stroke="#AD7551" stroke-width="2"/>
<path d="M103.345 285.499V293.513L334.715 304.315C336.397 304.411 339.205 304.404 342.631 304.125L334.715 297.784L103.345 285.499Z" fill="#CD9D6A"/>
<path d="M446.752 265.984L446.68 263.827C446.67 263.703 446.659 263.544 446.647 263.371L446.647 263.369C446.604 262.751 446.548 261.946 446.45 261.84C446.375 261.758 425.551 269.386 402.653 277.774L402.65 277.775L402.644 277.777C387.387 283.366 371.211 289.291 359.638 293.498C355.157 295.127 344.784 298.233 334.715 297.784L342.631 304.125C347.482 303.73 353.572 302.791 359.454 300.83C367.669 298.092 404.195 283.26 430.875 272.425L430.889 272.419C436.798 270.02 442.224 267.816 446.752 265.984Z" fill="#F0D98D"/>
<path d="M342.625 304.109C335.18 304.54 325.422 303.743 311.456 303.208C312.004 303.494 312.606 303.827 313.249 304.202C313.765 304.502 314.307 304.83 314.868 305.182C315.102 305.329 315.34 305.481 315.58 305.636C319.234 308.001 323.555 311.344 326.759 315.155C328.764 317.539 330.331 320.107 331.025 322.734C331.092 322.988 331.151 323.242 331.201 323.496C332.751 325.34 337.91 326.535 342.597 325.738C341.262 321.384 341.811 308 342.625 304.109Z" fill="#B38554"/>
<path d="M361.573 300.111C358.251 301.012 352.451 303.377 342.625 304.109C341.811 308 341.262 321.384 342.597 325.738C344.613 325.395 346.542 324.683 348.059 323.496C348.059 323.173 348.072 322.833 348.097 322.476C348.267 320.107 349.008 317.024 350.389 313.806C352.515 308.855 356.157 303.586 361.573 300.111Z" fill="#FCE8A7"/>
<path fill-rule="evenodd" clip-rule="evenodd" d="M331.025 322.734L331.201 323.496C331.07 323.453 330.787 323.433 330.707 323.694C330.607 324.02 333.761 327.487 341.728 326.505C341.588 326.85 341.746 327.247 342.597 327.609C339.466 327.907 336.034 327.62 333.59 327.021C331.869 326.599 330.638 326.023 330.345 325.386C329.492 323.533 330.443 322.846 331.025 322.734Z" fill="#8D6D4A"/>
<path d="M342.597 325.738C337.91 326.535 332.751 325.34 331.201 323.496C331.07 323.453 330.787 323.433 330.707 323.694C330.607 324.02 333.761 327.487 341.728 326.505C341.732 326.495 341.737 326.484 341.741 326.474C341.886 326.161 342.272 325.893 342.597 325.738Z" fill="#D7A269"/>
<path fill-rule="evenodd" clip-rule="evenodd" d="M348.675 322.708C349.364 323.522 349.696 325.155 343.094 326.048C342.709 326.1 341.862 326.294 341.741 326.474C341.737 326.484 341.732 326.495 341.728 326.505C341.588 326.85 341.746 327.247 342.597 327.609C343.918 327.484 345.185 327.254 346.301 326.9C347.452 326.535 348.443 326.038 349.168 325.386C349.569 324.93 349.979 324.076 349.47 323.348C349.308 323.116 349.053 322.897 348.675 322.708Z" fill="#FCE8A7"/>
<path d="M348.097 322.476C348.072 322.833 348.059 323.173 348.059 323.496C346.542 324.683 344.613 325.395 342.597 325.738C342.272 325.893 341.886 326.161 341.741 326.474C341.862 326.294 342.709 326.1 343.094 326.048C349.696 325.155 349.364 323.522 348.675 322.708C348.507 322.625 348.315 322.547 348.097 322.476Z" fill="#D7A269"/>
<path d="M345.103 444.503C342.68 445.475 338.466 446.08 333.59 443.713C330.968 448.993 323.123 459.786 313.481 458.847C313.471 458.846 313.461 458.845 313.451 458.844L313.481 458.847L335.666 461.034C337.389 461.198 342.328 460.927 346.591 457.889C349.238 456.002 354 452.847 357.802 450.364C352.424 452.269 346.853 447.205 345.103 444.503Z" fill="#B38554"/>
<path d="M346.301 443.713C345.933 443.971 345.736 444.25 345.103 444.503C346.853 447.205 352.424 452.269 357.802 450.364C360.123 448.849 362.343 447.537 363.774 446.622C361.37 448.096 353.855 449.421 346.301 443.713Z" fill="#FCE8A7"/>
<path d="M342.597 327.609C339.466 327.907 336.034 327.62 333.59 327.021V442.58C335.459 443.554 339.399 444.827 343.082 443.992C342.707 443.473 342.59 442.747 342.597 442.236V327.609Z" fill="#B38554"/>
<path d="M346.301 326.9C345.185 327.254 343.918 327.484 342.597 327.609V442.236C342.59 442.747 342.707 443.473 343.082 443.992C344.201 443.738 345.295 443.29 346.301 442.58V326.9Z" fill="#FCE8A7"/>
<path d="M346.591 442.738C346.534 442.569 346.427 442.58 346.301 442.58C345.295 443.29 344.201 443.738 343.082 443.992C343.119 444.072 343.384 444.194 344.148 444.046C344.888 443.783 345.611 443.423 346.301 442.946C346.399 442.879 346.495 442.809 346.591 442.738Z" fill="#B38554"/>
<path d="M346.634 443.13C346.634 442.943 346.619 442.819 346.591 442.738C346.495 442.809 346.399 442.879 346.301 442.946C345.611 443.423 344.888 443.783 344.148 444.046C344.534 444.157 345.45 444.202 346.301 443.616C346.399 443.549 346.496 443.473 346.591 443.389C346.618 443.317 346.634 443.232 346.634 443.13Z" fill="#FCE8A7"/>
<path d="M333.59 442.58V442.964C335.868 444.12 340.236 445.438 344.148 444.046C343.384 444.194 343.119 444.072 343.082 443.992C339.399 444.827 335.459 443.554 333.59 442.58Z" fill="#8D6D4A"/>
<path d="M345.103 444.503C345.736 444.25 345.933 443.971 346.301 443.713V443.616C345.45 444.202 344.534 444.157 344.148 444.046C340.236 445.438 335.868 444.12 333.59 442.964V443.713C338.466 446.08 342.68 445.475 345.103 444.503Z" fill="#744D31"/>
<path d="M311.456 303.208L307.464 303.025L298.596 313.806L304.998 314.112L313.249 304.202C312.606 303.827 312.004 303.494 311.456 303.208Z" fill="#F0D98D"/>
<path fill-rule="evenodd" clip-rule="evenodd" d="M326.759 315.155C323.555 311.344 319.234 308.001 315.58 305.636L308.197 314.266L326.759 315.155ZM307.177 314.217L314.868 305.182C314.307 304.83 313.765 304.502 313.249 304.202L304.998 314.112L307.177 314.217ZM295.021 302.457L307.464 303.025L298.596 313.806L295.021 313.635V302.457Z" fill="#A87640"/>
<path d="M314.868 305.182L307.177 314.217L308.197 314.266L315.58 305.636C315.34 305.481 315.102 305.329 314.868 305.182Z" fill="#F0D98D"/>
<path fill-rule="evenodd" clip-rule="evenodd" d="M350.389 313.806C352.515 308.855 356.157 303.586 361.573 300.111L366.464 298.204L358.728 310.818L350.389 313.806ZM364.557 308.729L370.387 306.64V296.674L369.138 297.161L364.403 306.336L367.784 302.311L364.557 308.729Z" fill="#BB7A36"/>
<path d="M366.464 298.204L358.728 310.818L364.557 308.729L367.784 302.311L364.403 306.336L369.138 297.161L366.464 298.204Z" fill="#FCE8A7"/>
<path d="M333.59 327.021C331.869 326.599 330.638 326.023 330.345 325.386C329.822 325.904 328.969 327.49 329.742 329.687C330.707 332.434 310.135 457.889 304.48 457.889L313.451 458.844C313.461 458.845 313.471 458.846 313.481 458.847C323.123 459.786 330.968 448.993 333.59 443.713C333.289 443.688 333.115 443.438 333.115 442.991C333.115 442.88 333.134 442.798 333.167 442.738C333.253 442.576 333.433 442.573 333.59 442.58V327.021Z" fill="url(#paint5_linear_194_380)"/>
<path d="M55.2227 50.3384L149.283 282.282L327.194 289.405L415.43 260.905L461.391 50.3384C359.635 -40.3014 148.214 12.5718 55.2227 50.3384Z" fill="url(#paint6_linear_194_380)"/>
<path fill-rule="evenodd" clip-rule="evenodd" d="M103.181 314.148C103.485 314.197 103.788 314.217 104.09 314.211C105.197 314.189 106.272 313.824 107.208 313.336C103.282 303.56 113.501 296.557 119.102 294.278L103.181 293.575V314.148Z" fill="#B38554"/>
<path d="M109.877 311.344C109.901 311.189 109.927 311.036 109.956 310.883C110.376 308.683 111.351 306.685 112.662 304.899C116.67 299.433 123.817 295.942 127.811 294.663L119.102 294.278C113.501 296.557 103.282 303.56 107.208 313.336C108.392 312.719 109.353 311.906 109.877 311.344Z" fill="#DEB686"/>
<path d="M103.181 314.148C102.671 314.462 101.958 315.263 103.181 315.948C103.979 316.395 105.834 315.943 107.512 315.194C108.6 314.708 109.615 314.097 110.219 313.526C110.467 313.291 110.646 313.064 110.732 312.854C110.897 312.456 110.979 312.154 110.996 311.919C108.365 314.942 105.296 314.706 104.09 314.211C103.788 314.217 103.485 314.197 103.181 314.148Z" fill="#95623C"/>
<path d="M109.877 311.344C109.353 311.906 108.392 312.719 107.208 313.336C106.272 313.824 105.197 314.189 104.09 314.211C105.296 314.706 108.365 314.942 110.996 311.919C111.041 311.262 110.573 311.129 109.956 310.883C109.927 311.036 109.901 311.189 109.877 311.344Z" fill="#F5C890"/>
<path d="M110.219 423.461V313.526C109.615 314.097 108.6 314.708 107.512 315.194L107.088 424.017C108.217 423.982 109.369 423.822 110.219 423.461Z" fill="#DEB686"/>
<path d="M103.181 315.948L103.189 423.536C103.274 423.604 103.446 423.671 103.684 423.733C104.403 423.92 105.728 424.059 107.088 424.017L107.512 315.194C105.834 315.943 103.979 316.395 103.181 315.948Z" fill="#B38554"/>
<path d="M103.189 424.711C104.104 425.119 106.032 425.286 107.726 425.191C108.769 425.133 109.722 424.975 110.296 424.711C110.633 424.557 110.688 424.299 110.625 424.055C108.463 425.122 105.097 424.285 103.684 423.733C103.446 423.671 103.274 423.604 103.189 423.536C102.786 423.649 102.271 424.303 103.189 424.711Z" fill="#95623C"/>
<path d="M110.625 424.055C110.558 423.799 110.361 423.556 110.219 423.461C109.369 423.822 108.217 423.982 107.088 424.017C105.728 424.059 104.403 423.92 103.684 423.733C105.097 424.285 108.463 425.122 110.625 424.055Z" fill="#FFC987"/>
<path d="M103.189 424.711V437.298L120.411 439.053C112.077 437.887 108.483 428.839 107.726 425.191C106.032 425.286 104.104 425.119 103.189 424.711Z" fill="#B38554"/>
<path d="M129.793 439.853C129.693 439.846 129.594 439.838 129.495 439.828C120.77 438.976 111.924 428.751 110.296 424.711C109.722 424.975 108.769 425.133 107.726 425.191C108.483 428.839 112.077 437.887 120.411 439.053L129.495 439.828L129.793 439.853Z" fill="#DEB686"/>
<path d="M133.414 294.914L121.338 305.486L122.581 305.571L134.583 294.967L133.414 294.914Z" fill="#F0D98D"/>
<path fill-rule="evenodd" clip-rule="evenodd" d="M127.811 294.663C123.817 295.942 116.67 299.433 112.662 304.899L121.338 305.486L133.414 294.914L127.811 294.663ZM124.395 305.694L122.581 305.571L134.583 294.967L136.654 295.06L124.395 305.694ZM125.963 305.8L146.13 307.166V295.485L140.056 295.212L125.963 305.8Z" fill="#A87640"/>
<path d="M136.654 295.06L124.395 305.694L125.963 305.8L140.056 295.212L136.654 295.06Z" fill="#F0D98D"/>
<path d="M110.996 311.919C110.979 312.154 110.897 312.456 110.732 312.854C110.646 313.064 110.467 313.291 110.219 313.526V423.461C110.361 423.556 110.558 423.799 110.625 424.055C110.688 424.299 110.633 424.557 110.296 424.711C111.924 428.751 120.77 438.976 129.495 439.828L129.793 439.853L136.42 440.69C118.821 437.039 111.003 317.319 111.626 314.819C112.13 312.795 111.416 312.042 110.996 311.919Z" fill="url(#paint7_linear_194_380)"/>
<path d="M103.21 437.112C102.792 438.072 102.415 440.462 104.257 442.346C106.56 444.701 109.491 445.538 119.591 445.957C127.672 446.292 266.947 460.971 335.575 468.268C337.674 468.283 343.168 467.282 348.342 463.159C338.25 465.611 335.625 462.726 335.575 460.978C331.125 460.757 178.811 444.975 103.21 437.112Z" fill="#CD9D6A"/>
<path d="M348.342 456.187C345.941 457.876 340.025 461.199 335.575 460.978C335.625 462.726 338.25 465.611 348.342 463.159L375.569 445.5L363.42 446.783L348.342 456.187Z" fill="#B38859"/>
<path d="M444.495 400.794C445.12 400.211 446.314 398.281 446.087 395.224L363.42 446.783L375.569 445.5L444.495 400.794Z" fill="#F0D98D"/>
<path d="M431.519 272.216C432.044 272.393 432.642 272.633 433.283 272.936C434.291 273.413 435.402 274.046 436.497 274.837C436.72 274.998 436.941 275.165 437.162 275.339C437.406 275.532 437.649 275.733 437.888 275.942C439.521 277.372 440.989 279.179 441.844 281.365C442.269 282.452 442.543 283.633 442.61 284.908C442.622 285.143 442.628 285.382 442.626 285.624C443.12 285.875 444.062 286.254 445.025 286.417C445.574 274.763 440.634 270.299 438.095 269.523L431.519 272.216Z" fill="#B38554"/>
<path d="M442.626 289.038C442.482 288.948 442.349 288.859 442.225 288.771V384.515V385.071C443.591 385.75 445.146 385.553 446.091 385.269L446.251 289.763C444.762 289.843 443.279 289.351 442.626 289.038Z" fill="#B38554"/>
<path d="M445.542 387.626C444.719 387.77 443.715 387.725 442.498 387.237C442.051 390.918 440.151 398.786 436.091 401.5L445.542 395.57V387.626Z" fill="#B38554"/>
<path d="M446.632 286.417V285.624V266.027L438.095 269.523C440.634 270.299 445.574 274.763 445.025 286.417C445.581 286.511 446.144 286.533 446.632 286.417Z" fill="#FCE8A7"/>
<path d="M446.632 384.515V289.73C446.506 289.745 446.378 289.756 446.251 289.763L446.091 385.269C446.306 385.204 446.49 385.135 446.632 385.071V384.515Z" fill="#FCE8A7"/>
<path d="M446.091 395.226V387.497C445.918 387.548 445.735 387.592 445.542 387.626V395.57L446.091 395.226Z" fill="#FCE8A7"/>
<path d="M441.844 285.316C441.305 285.684 440.851 286.203 440.852 286.833C440.853 287.399 441.221 288.054 442.225 288.771C442.349 288.859 442.482 288.948 442.626 289.038C443.279 289.351 444.762 289.843 446.251 289.763V286.833C443.136 286.876 442.013 285.874 441.844 285.316Z" fill="#956749"/>
<path d="M442.626 285.624C442.628 285.382 442.622 285.143 442.61 284.908C442.361 285.009 442.093 285.146 441.844 285.316C442.013 285.874 443.136 286.876 446.251 286.833C445.706 286.727 445.207 286.512 445.025 286.417C444.062 286.254 443.12 285.875 442.626 285.624Z" fill="#B37D51"/>
<path d="M446.632 285.624V286.417C446.144 286.533 445.581 286.511 445.025 286.417C445.207 286.512 445.706 286.727 446.251 286.833C446.563 286.828 446.895 286.813 447.248 286.786V285.921C447.248 285.552 446.838 285.569 446.632 285.624Z" fill="#B67E51"/>
<path d="M447.248 289.614V286.786C446.895 286.813 446.563 286.828 446.251 286.833V289.763C446.378 289.756 446.506 289.745 446.632 289.73C446.84 289.704 447.046 289.666 447.248 289.614Z" fill="#FFECAF"/>
<path d="M447.041 387.121C447.757 386.77 447.958 385.832 447.554 385.167C447.145 385.439 446.745 385.648 446.358 385.804C446.064 386.243 445.788 387.121 447.041 387.121Z" fill="#B38554"/>
<path d="M446.632 384.515V385.071C446.49 385.135 446.306 385.204 446.091 385.269C445.945 385.728 446.208 385.817 446.358 385.804C446.745 385.648 447.145 385.439 447.554 385.167C447.372 384.868 447.067 384.624 446.632 384.515Z" fill="#FFF0C1"/>
<path d="M442.225 385.071V384.515C442.001 384.677 441.75 384.905 441.557 385.167C442.27 385.829 444.1 386.717 446.358 385.804C446.208 385.817 445.945 385.728 446.091 385.269C445.146 385.553 443.591 385.75 442.225 385.071Z" fill="#906A41"/>
<path fill-rule="evenodd" clip-rule="evenodd" d="M435.778 401.697L436.091 401.5C435.988 401.569 435.884 401.635 435.778 401.697Z" fill="#D9D9D9"/>
<path d="M442.225 387.121C442.317 387.162 442.408 387.2 442.498 387.237C443.715 387.725 444.719 387.77 445.542 387.626C445.735 387.592 445.918 387.548 446.091 387.497C446.447 387.392 446.762 387.257 447.041 387.121C445.788 387.121 446.064 386.243 446.358 385.804C444.1 386.717 442.27 385.829 441.557 385.167C441.11 385.775 440.976 386.565 442.225 387.121Z" fill="#9C6D50"/>
<path d="M427.335 273.933V285.624L430.389 284.727L433.283 272.936C432.642 272.633 432.044 272.393 431.519 272.216L427.335 273.933Z" fill="#BB7A36"/>
<path d="M436.497 274.837L433.734 283.746L434.495 283.522L437.162 275.339C436.941 275.165 436.72 274.998 436.497 274.837Z" fill="#BB7A36"/>
<path d="M441.844 281.365C440.989 279.179 439.521 277.372 437.888 275.942L435.375 283.264L441.844 281.365Z" fill="#BB7A36"/>
<path d="M433.283 272.936L430.389 284.727L433.734 283.746L436.497 274.837C435.402 274.046 434.291 273.413 433.283 272.936Z" fill="#FCE8A7"/>
<path d="M437.162 275.339L434.495 283.522L435.375 283.264L437.888 275.942C437.649 275.733 437.406 275.532 437.162 275.339Z" fill="#FCE8A7"/>
<path d="M442.225 384.515V288.771C441.221 288.054 440.853 287.399 440.852 286.833C440.521 287.319 440.058 288.709 440.852 290.377C441.842 292.459 438.604 399.779 434.848 402.253L435.778 401.697L436.091 401.5C440.151 398.786 442.051 390.918 442.498 387.237C442.408 387.2 442.317 387.162 442.225 387.121C440.976 386.565 441.11 385.775 441.557 385.167C441.75 384.905 442.001 384.677 442.225 384.515Z" fill="url(#paint8_linear_194_380)" fill-opacity="0.41"/>
<path d="M410.445 297.896C410.533 302.162 408.877 305.656 406.746 305.7C404.876 305.739 403.263 303.11 402.835 299.585L402.072 300.857C402.179 301.493 402.309 302.059 402.455 302.564C403.475 306.085 405.309 306.592 406.078 306.592C406.759 306.592 408.581 306.249 409.726 303.991C409.933 303.581 410.119 303.109 410.271 302.564C410.531 301.634 410.694 300.494 410.708 299.096C410.771 292.362 408.621 289.199 405.763 289.756C404.259 289.995 401.476 291.939 401.781 298.055L402.761 296.673C403.011 293.059 404.531 290.29 406.427 290.251C408.558 290.207 410.357 293.63 410.445 297.896Z" fill="#BB7A36"/>
<path d="M402.728 298.055L401.882 299.419C401.92 299.802 401.965 300.165 402.017 300.509L402.8 299.271C402.761 298.875 402.736 298.469 402.728 298.055Z" fill="#BB7A36"/>
<path d="M402.728 298.055C402.718 297.584 402.73 297.122 402.761 296.673L401.781 298.055C401.805 298.536 401.839 298.99 401.882 299.419L402.728 298.055Z" fill="#FCE8A7"/>
<path d="M402.8 299.271L402.017 300.509C402.035 300.627 402.053 300.743 402.072 300.857L402.835 299.585C402.822 299.481 402.811 299.376 402.8 299.271Z" fill="#FCE8A7"/>
<path fill-rule="evenodd" clip-rule="evenodd" d="M406.746 305.7C408.877 305.656 410.533 302.162 410.445 297.896C410.357 293.63 408.558 290.207 406.427 290.251C404.531 290.29 403.011 293.059 402.761 296.673C402.73 297.122 402.718 297.584 402.728 298.055C402.736 298.469 402.761 298.875 402.8 299.271C402.811 299.376 402.822 299.481 402.835 299.585C403.263 303.11 404.876 305.739 406.746 305.7ZM406.415 297.481C406.103 297.359 405.755 297.071 405.755 296.488C405.755 295.68 406.418 295.409 406.746 295.375C407.04 295.44 407.601 295.66 407.601 296.394C407.601 297.025 407.304 297.356 407.086 297.463C407.402 298.666 408.248 300.416 408.325 300.503C408.402 300.59 408.337 300.643 408.294 300.658C407.474 300.951 405.333 301.372 405.289 301.335C405.246 301.298 405.271 301.216 405.289 301.18L406.415 297.481Z" fill="#DA9449"/>
<path d="M406.746 297.557C406.654 297.552 406.537 297.529 406.415 297.481L405.289 301.18C405.271 301.216 405.246 301.298 405.289 301.335C405.333 301.372 407.474 300.951 408.294 300.658C408.337 300.643 408.402 300.59 408.325 300.503C408.248 300.416 407.402 298.666 407.086 297.463C406.991 297.51 406.878 297.533 406.746 297.557Z" fill="#734A1F"/>
<path d="M406.746 295.375C406.418 295.409 405.755 295.68 405.755 296.488C405.755 297.071 406.103 297.359 406.415 297.481C406.537 297.529 406.654 297.552 406.746 297.557C406.878 297.533 406.991 297.51 407.086 297.463C407.304 297.356 407.601 297.025 407.601 296.394C407.601 295.66 407.04 295.44 406.746 295.375Z" fill="#734A1F"/>
<path d="M406.078 306.592C405.309 306.592 403.475 306.085 402.455 302.564C402.965 308.005 405.121 315.541 409.726 303.991C408.581 306.249 406.759 306.592 406.078 306.592Z" fill="#B7886D"/>
<path d="M413.741 235.414C404.61 232.902 401.408 229.403 398.714 219.839C396.864 229.457 393.778 233.044 383.688 235.414C393.755 238.097 396.644 241.835 398.714 250.99C401.762 242.205 403.549 237.356 413.741 235.414Z" fill="#FFF2C3"/>
<path d="M427.335 213.099C422.58 211.791 420.913 209.969 419.51 204.989C418.547 209.997 416.94 211.865 411.686 213.099C416.928 214.496 418.432 216.442 419.51 221.209C421.097 216.635 422.028 214.11 427.335 213.099Z" fill="#FFF2C3"/>
<path d="M161.779 122.179C157.024 120.871 155.357 119.049 153.955 114.069C152.991 119.077 151.384 120.945 146.13 122.179C151.372 123.576 152.877 125.523 153.955 130.29C155.541 125.715 156.472 123.19 161.779 122.179Z" fill="#FFF2C3"/>
<defs>
<linearGradient id="paint0_linear_194_380" x1="232.968" y1="316.859" x2="174.428" y2="463.905" gradientUnits="userSpaceOnUse">
<stop stop-color="#CDA785"/>
<stop offset="1" stop-color="#A26F5E"/>
</linearGradient>
<linearGradient id="paint1_linear_194_380" x1="352.137" y1="272.606" x2="446.915" y2="420" gradientUnits="userSpaceOnUse">
<stop stop-color="#F1DCBC"/>
<stop offset="1" stop-color="#B27C58"/>
</linearGradient>
<linearGradient id="paint2_linear_194_380" x1="223.486" y1="135.666" x2="228.786" y2="268.076" gradientUnits="userSpaceOnUse">
<stop stop-color="#9B6452"/>
<stop offset="1" stop-color="#CE9973"/>
</linearGradient>
<linearGradient id="paint3_linear_194_380" x1="223.486" y1="135.666" x2="223.211" y2="359.37" gradientUnits="userSpaceOnUse">
<stop stop-color="#C08778"/>
<stop offset="1" stop-color="#F1DCBC"/>
</linearGradient>
<linearGradient id="paint4_linear_194_380" x1="231.574" y1="255.184" x2="0.204083" y2="120.683" gradientUnits="userSpaceOnUse">
<stop stop-color="#FFF4E2"/>
<stop offset="1" stop-color="#D8A980"/>
</linearGradient>
<linearGradient id="paint5_linear_194_380" x1="332.704" y1="296.674" x2="332.704" y2="461.071" gradientUnits="userSpaceOnUse">
<stop stop-color="#B58D69"/>
<stop offset="1" stop-color="#593623" stop-opacity="0.48"/>
</linearGradient>
<linearGradient id="paint6_linear_194_380" x1="258.307" y1="0.291504" x2="258.307" y2="289.405" gradientUnits="userSpaceOnUse">
<stop stop-color="#FCEA85" stop-opacity="0"/>
<stop offset="1" stop-color="#E5D674" stop-opacity="0.59"/>
</linearGradient>
<linearGradient id="paint7_linear_194_380" x1="124.318" y1="293.575" x2="124.318" y2="440.771" gradientUnits="userSpaceOnUse">
<stop stop-color="#956E53"/>
<stop offset="1" stop-color="#653E28" stop-opacity="0.27"/>
</linearGradient>
<linearGradient id="paint8_linear_194_380" x1="442.357" y1="390.221" x2="453.842" y2="287.513" gradientUnits="userSpaceOnUse">
<stop stop-color="#562020"/>
<stop offset="1" stop-color="#A38161"/>
</linearGradient>
</defs>
</svg>
