<svg width="928" height="941" viewBox="0 0 928 941" fill="none" xmlns="http://www.w3.org/2000/svg">
<path d="M207.439 573.235V880.054C209.526 887.481 209.453 895.21 236.898 894.65C264.343 894.09 539.531 925.095 673.722 940.265C676.426 940.265 682.081 939.484 688.424 936.857V597.432C682.571 597.881 677.344 597.983 673.722 597.904L232.955 574.635L207.439 573.235Z" fill="url(#paint0_linear_194_380)"/>
<path d="M697.526 931.863C707.048 925.142 830.783 845.048 891.46 805.841C893.094 805.141 896.361 802.34 896.361 796.739C896.361 791.138 897.294 616.574 897.761 529.992C897.831 528.802 897.67 527.242 897.108 525.626C848.799 542.429 736.172 582.221 722.73 589.503C713.823 594.327 699.917 596.549 688.424 597.432V936.857C691.385 935.631 694.496 934.002 697.526 931.863Z" fill="url(#paint1_linear_194_380)"/>
<path d="M465.785 478.883L336.962 300.352C312.224 354.948 294.535 468.837 421.677 487.626L465.785 478.883Z" fill="url(#paint2_linear_194_380)"/>
<path d="M70.215 311.554L229.143 525.791L421.677 487.626C294.535 468.837 312.224 354.948 336.962 300.352L70.215 311.554Z" fill="url(#paint3_linear_194_380)"/>
<path fill-rule="evenodd" clip-rule="evenodd" d="M897.108 525.626C895.796 521.856 892.3 517.782 884.459 517.39C873.257 516.83 625.413 506.888 502.892 501.987L207.439 573.235L232.955 574.635L673.722 597.904C677.344 597.983 682.571 597.881 688.424 597.432C699.917 596.549 713.823 594.327 722.73 589.503C736.172 582.221 848.799 542.429 897.108 525.626ZM280.563 564.833L514.093 508.288L524.595 508.734L843.851 522.291L657.619 580.401L524.595 574.02L280.563 564.833Z" fill="#FFF4E2"/>
<path fill-rule="evenodd" clip-rule="evenodd" d="M280.563 564.833L514.093 508.288L524.595 508.734L843.851 522.291L657.619 580.401L524.595 574.02L280.563 564.833Z" fill="#F1DCBC"/>
<path fill-rule="evenodd" clip-rule="evenodd" d="M502.892 501.987L340.463 278.648C339.763 276.081 334.022 271.227 316.659 272.347C299.296 273.467 117.59 276.081 28.908 277.248C26.3409 277.014 20.7865 277.948 19.1062 283.549C19.0014 283.898 18.8705 284.356 18.716 284.911L99.8729 408.899L106.114 418.433L110.617 425.313L112.387 428.017L207.439 573.235L502.892 501.987ZM229.143 525.791L70.215 311.554L336.962 300.352L465.785 478.883L421.677 487.626L229.143 525.791Z" fill="url(#paint4_linear_194_380)"/>
<path d="M196.821 574.956C201.135 574.513 204.717 573.896 207.439 573.235L112.387 428.017L96.5549 423.782L196.821 574.956Z" fill="#BE825C"/>
<path d="M18.716 284.911C17.8983 287.849 16.4228 293.522 14.69 300.352L83.6222 404.283L99.8729 408.899L18.716 284.911Z" fill="#BE825C"/>
<path d="M106.114 418.433L89.9937 413.889L94.5612 420.776L110.617 425.313L106.114 418.433Z" fill="#BE825C"/>
<path d="M99.8729 408.899L83.6222 404.283L89.9937 413.889L106.114 418.433L99.8729 408.899Z" fill="#F0D98D"/>
<path fill-rule="evenodd" clip-rule="evenodd" d="M12.805 457.88C-5.39831 416.572 1.60286 357.762 3.00311 349.36C3.96345 343.598 10.193 318.077 14.69 300.352L83.6222 404.283L89.9937 413.889L94.5612 420.776L96.5549 423.782L196.821 574.956C175.247 577.17 135.352 575.025 92.93 552.231C46.0215 527.027 29.8036 496.453 12.805 457.88Z" fill="#C08A78"/>
<path d="M110.617 425.313L94.5612 420.776L96.5549 423.782L112.387 428.017L110.617 425.313Z" fill="#F0D98D"/>
<path d="M207.515 784.68L295.73 791.624M295.73 791.624V887.394M295.73 791.624L390.947 799.119M390.947 799.119V897.4M390.947 799.119L493.865 807.22M493.865 807.22V907.714M493.865 807.22L590.832 814.853M590.832 814.853L687.799 822.486M590.832 814.853V919.804M213.116 792.381V871.495L288.029 878.933V799.119L213.116 792.381ZM302.031 799.615V879.692L382.546 888.298V806.384L302.031 799.615ZM397.948 807.22V889.698L486.164 899.5V814.785L397.948 807.22ZM500.866 816.185V900.9L584.181 910.702V823.186L500.866 816.185ZM597.483 824.587V912.102L674.497 919.804V830.888L597.483 824.587ZM221.517 802.183L278.927 807.52V872.632L221.517 865.894V802.183ZM309.733 808.98V874.792L374.844 881.997V814.785L309.733 808.98ZM405.65 816.185V884.797L479.163 893.199V823.186L405.65 816.185ZM508.568 824.587V895.999L577.18 903.701V830.188L508.568 824.587ZM604.485 832.988V907.714L668.196 913.502V838.589L604.485 832.988ZM229.919 811.985V858.193L270.526 862.696V815.922L229.919 811.985ZM317.434 818.081V866.39L367.843 872.895V822.486L317.434 818.081ZM414.051 826.687V876.396L470.761 881.997V832.288L414.051 826.687ZM516.269 834.388V888.298L570.179 893.199V838.589L516.269 834.388ZM610.786 842.09L661.195 846.291V905.101L610.786 900.9V842.09Z" stroke="#8F5E3D" stroke-width="4.01852"/>
<path d="M687.798 822.486L739.782 797.982M739.782 797.982V891.798M739.782 797.982L785.815 776.283M785.815 776.283V861.693M785.815 776.283L822.222 759.121M822.222 759.121V837.889M822.222 759.121L853.727 744.27M853.727 744.27V817.585M853.727 744.27L878.231 732.719M878.231 732.719L895.735 724.469M878.231 732.719V801.482M695.499 827.387V913.502L735.406 888.298V808.484L695.499 827.387ZM744.508 804.283V882.697L781.614 859.593V786.78L744.508 804.283ZM790.016 781.879V853.291L818.721 834.388V767.876L790.016 781.879ZM826.422 764.376V830.187L850.227 814.785V753.174L826.422 764.376ZM857.928 748.973V809.884L874.731 799.018V740.908L857.928 748.973ZM881.732 737.071V794.481L892.934 787.48V731.47L881.732 737.071ZM701.1 832.288V902.3L731.206 884.797V817.585L701.1 832.288ZM749.409 809.884V873.595L777.414 856.092V796.581L749.409 809.884ZM794.217 786.78V844.89L815.22 832.288V776.278L794.217 786.78ZM829.923 769.277V823.186L846.335 812.683V761.575L829.923 769.277ZM861.428 753.874V802.883L871.104 796.967V749.359L861.428 753.874ZM885.233 742.672V788.18L890.834 784.679V739.871L885.233 742.672Z" stroke="#AD7551" stroke-width="4.01852"/>
<path d="M207.75 573.232V589.335L672.632 611.039C676.012 611.232 681.655 611.218 688.538 610.658L672.632 597.917L207.75 573.232Z" fill="#CD9D6A"/>
<path d="M897.745 534.022L897.601 529.688C897.579 529.439 897.557 529.121 897.533 528.773L897.533 528.769C897.447 527.527 897.334 525.909 897.138 525.696C896.987 525.532 855.146 540.858 809.137 557.711L809.132 557.713L809.12 557.718C778.465 568.947 745.963 580.852 722.71 589.305C713.706 592.578 692.864 598.819 672.632 597.917L688.538 610.658C698.286 609.864 710.522 607.977 722.341 604.038C738.846 598.536 812.236 568.733 865.844 546.964L865.872 546.952C877.745 542.131 888.647 537.704 897.745 534.022Z" fill="#F0D98D"/>
<path d="M688.525 610.626C673.567 611.493 653.96 609.891 625.9 608.816C626.999 609.391 628.209 610.059 629.502 610.813C630.538 611.416 631.627 612.074 632.755 612.782C633.225 613.078 633.703 613.382 634.186 613.695C641.527 618.447 650.209 625.162 656.647 632.82C660.675 637.611 663.825 642.771 665.218 648.049C665.353 648.558 665.471 649.068 665.572 649.579C668.687 653.284 679.052 655.685 688.469 654.084C685.788 645.335 686.891 618.445 688.525 610.626Z" fill="#B38554"/>
<path d="M726.598 602.593C719.923 604.403 708.269 609.155 688.525 610.626C686.891 618.445 685.788 645.335 688.469 654.084C692.52 653.395 696.396 651.965 699.444 649.579C699.444 648.932 699.469 648.247 699.521 647.531C699.863 642.771 701.351 636.575 704.126 630.11C708.397 620.162 715.715 609.575 726.598 602.593Z" fill="#FCE8A7"/>
<path fill-rule="evenodd" clip-rule="evenodd" d="M665.218 648.049L665.572 649.579C665.308 649.494 664.741 649.454 664.58 649.977C664.378 650.632 670.716 657.598 686.724 655.625C686.441 656.319 686.759 657.117 688.469 657.844C682.179 658.442 675.283 657.866 670.371 656.662C666.915 655.815 664.441 654.656 663.852 653.377C662.139 649.654 664.049 648.274 665.218 648.049Z" fill="#8D6D4A"/>
<path d="M688.469 654.084C679.052 655.685 668.687 653.284 665.572 649.579C665.308 649.494 664.741 649.454 664.58 649.977C664.378 650.632 670.716 657.598 686.724 655.625C686.732 655.605 686.741 655.584 686.751 655.564C687.041 654.934 687.816 654.396 688.469 654.084Z" fill="#D7A269"/>
<path fill-rule="evenodd" clip-rule="evenodd" d="M700.681 647.997C702.066 649.632 702.732 652.913 689.469 654.708C688.694 654.812 686.992 655.202 686.751 655.564C686.741 655.584 686.732 655.605 686.724 655.625C686.441 656.319 686.759 657.117 688.469 657.844C691.123 657.592 693.669 657.13 695.913 656.419C698.225 655.685 700.215 654.687 701.672 653.377C702.478 652.461 703.302 650.745 702.28 649.282C701.954 648.817 701.441 648.377 700.681 647.997Z" fill="#FCE8A7"/>
<path d="M699.521 647.531C699.469 648.247 699.444 648.932 699.444 649.579C696.396 651.965 692.52 653.395 688.469 654.084C687.816 654.396 687.041 654.934 686.751 655.564C686.992 655.202 688.694 654.812 689.469 654.708C702.732 652.913 702.066 649.632 700.681 647.997C700.344 647.829 699.959 647.672 699.521 647.531Z" fill="#D7A269"/>
<path d="M693.505 892.715C688.637 894.668 680.17 895.883 670.371 891.127C665.103 901.736 649.342 923.421 629.969 921.536C629.948 921.534 629.928 921.532 629.907 921.53L629.969 921.536L674.544 925.929C678.005 926.259 687.93 925.715 696.495 919.61C701.813 915.819 711.38 909.48 719.02 904.491C708.214 908.317 697.022 898.143 693.505 892.715Z" fill="#B38554"/>
<path d="M695.913 891.127C695.173 891.645 694.776 892.205 693.505 892.715C697.022 898.143 708.214 908.317 719.02 904.491C723.683 901.446 728.144 898.811 731.019 896.972C726.19 899.934 711.09 902.596 695.913 891.127Z" fill="#FCE8A7"/>
<path d="M688.469 657.844C682.179 658.442 675.283 657.866 670.371 656.662V888.851C674.128 890.808 682.044 893.365 689.445 891.687C688.691 890.645 688.455 889.185 688.469 888.159V657.844Z" fill="#B38554"/>
<path d="M695.913 656.419C693.669 657.13 691.123 657.592 688.469 657.844V888.159C688.455 889.185 688.691 890.645 689.445 891.687C691.692 891.177 693.891 890.277 695.913 888.851V656.419Z" fill="#FCE8A7"/>
<path d="M696.495 889.167C696.38 888.829 696.165 888.851 695.913 888.851C693.891 890.277 691.692 891.177 689.445 891.687C689.519 891.847 690.051 892.094 691.586 891.796C693.072 891.267 694.526 890.543 695.913 889.586C696.108 889.451 696.302 889.311 696.495 889.167Z" fill="#B38554"/>
<path d="M696.581 889.955C696.581 889.579 696.55 889.331 696.495 889.167C696.302 889.311 696.108 889.451 695.913 889.586C694.526 890.543 693.072 891.267 691.586 891.796C692.36 892.019 694.203 892.109 695.913 890.932C696.109 890.797 696.304 890.646 696.495 890.475C696.549 890.331 696.581 890.161 696.581 889.955Z" fill="#FCE8A7"/>
<path d="M670.371 888.851V889.621C674.95 891.945 683.725 894.594 691.586 891.796C690.051 892.094 689.519 891.847 689.445 891.687C682.044 893.365 674.128 890.808 670.371 888.851Z" fill="#8D6D4A"/>
<path d="M693.505 892.715C694.776 892.205 695.173 891.645 695.913 891.127V890.932C694.203 892.109 692.36 892.019 691.586 891.796C683.725 894.594 674.95 891.945 670.371 889.621V891.127C680.17 895.883 688.637 894.668 693.505 892.715Z" fill="#744D31"/>
<path d="M625.9 608.816L617.878 608.449L600.06 630.11L612.923 630.726L629.502 610.813C628.209 610.059 626.999 609.391 625.9 608.816Z" fill="#F0D98D"/>
<path fill-rule="evenodd" clip-rule="evenodd" d="M656.647 632.82C650.209 625.162 641.527 618.447 634.186 613.695L619.351 631.034L656.647 632.82ZM617.301 630.935L632.755 612.782C631.627 612.074 630.538 611.416 629.502 610.813L612.923 630.726L617.301 630.935ZM592.876 607.306L617.878 608.449L600.06 630.11L592.876 629.766V607.306Z" fill="#A87640"/>
<path d="M632.755 612.782L617.301 630.935L619.351 631.034L634.186 613.695C633.703 613.382 633.225 613.078 632.755 612.782Z" fill="#F0D98D"/>
<path fill-rule="evenodd" clip-rule="evenodd" d="M704.126 630.11C708.397 620.162 715.715 609.575 726.598 602.593L736.424 598.761L720.88 624.106L704.126 630.11ZM732.593 619.908L744.306 615.711V595.688L741.798 596.666L732.283 615.1L739.076 607.013L732.593 619.908Z" fill="#BB7A36"/>
<path d="M736.424 598.761L720.88 624.106L732.593 619.908L739.076 607.013L732.283 615.1L741.798 596.666L736.424 598.761Z" fill="#FCE8A7"/>
<path d="M670.371 656.662C666.915 655.815 664.441 654.656 663.852 653.377C662.802 654.418 661.088 657.604 662.64 662.019C664.58 667.539 623.245 919.61 611.882 919.61L629.907 921.53C629.928 921.532 629.948 921.534 629.969 921.536C649.342 923.421 665.103 901.736 670.371 891.127C669.768 891.076 669.418 890.575 669.418 889.677C669.418 889.453 669.457 889.288 669.521 889.167C669.695 888.843 670.057 888.836 670.371 888.851V656.662Z" fill="url(#paint5_linear_194_380)"/>
<path d="M111.058 100.735L300.05 566.77L657.518 581.081L834.808 523.817L927.156 100.735C722.702 -81.3839 297.901 24.8521 111.058 100.735Z" fill="url(#paint6_linear_194_380)"/>
<path fill-rule="evenodd" clip-rule="evenodd" d="M207.419 630.797C208.029 630.896 208.639 630.936 209.245 630.924C211.47 630.881 213.63 630.147 215.511 629.166C207.622 609.524 228.155 595.454 239.408 590.875L207.419 589.462V630.797Z" fill="#B38554"/>
<path d="M220.873 625.164C220.921 624.853 220.974 624.545 221.033 624.239C221.876 619.817 223.836 615.804 226.468 612.214C234.523 601.232 248.882 594.218 256.906 591.647L239.408 590.875C228.155 595.454 207.622 609.524 215.511 629.166C217.889 627.926 219.821 626.292 220.873 625.164Z" fill="#DEB686"/>
<path d="M207.419 630.797C206.395 631.43 204.962 633.039 207.419 634.415C209.023 635.313 212.749 634.405 216.121 632.899C218.308 631.923 220.346 630.696 221.56 629.547C222.058 629.077 222.417 628.62 222.592 628.198C222.923 627.398 223.088 626.791 223.121 626.319C217.836 632.393 211.668 631.92 209.245 630.924C208.639 630.936 208.029 630.896 207.419 630.797Z" fill="#95623C"/>
<path d="M220.873 625.164C219.821 626.292 217.889 627.926 215.511 629.166C213.63 630.147 211.47 630.881 209.245 630.924C211.668 631.92 217.836 632.393 223.121 626.319C223.212 625 222.271 624.732 221.033 624.239C220.974 624.545 220.921 624.853 220.873 625.164Z" fill="#F5C890"/>
<path d="M221.56 850.435V629.547C220.346 630.696 218.308 631.923 216.121 632.899L215.269 851.553C217.537 851.483 219.853 851.162 221.56 850.435Z" fill="#DEB686"/>
<path d="M207.419 634.415L207.435 850.587C207.605 850.723 207.951 850.858 208.429 850.982C209.875 851.358 212.538 851.638 215.269 851.553L216.121 632.899C212.749 634.405 209.023 635.313 207.419 634.415Z" fill="#B38554"/>
<path d="M207.435 852.949C209.273 853.767 213.148 854.104 216.552 853.913C218.647 853.795 220.562 853.478 221.715 852.949C222.391 852.638 222.503 852.121 222.375 851.629C218.032 853.773 211.268 852.091 208.429 850.982C207.951 850.858 207.605 850.723 207.435 850.587C206.625 850.814 205.59 852.127 207.435 852.949Z" fill="#95623C"/>
<path d="M222.375 851.629C222.242 851.114 221.846 850.628 221.56 850.435C219.853 851.162 217.537 851.483 215.269 851.553C212.538 851.638 209.875 851.358 208.429 850.982C211.268 852.091 218.032 853.773 222.375 851.629Z" fill="#FFC987"/>
<path d="M207.435 852.949V878.239L242.039 881.764C225.294 879.421 218.072 861.241 216.552 853.913C213.148 854.104 209.273 853.767 207.435 852.949Z" fill="#B38554"/>
<path d="M260.889 883.373C260.689 883.358 260.49 883.341 260.29 883.322C242.76 881.61 224.986 861.066 221.715 852.949C220.562 853.478 218.647 853.795 216.552 853.913C218.072 861.241 225.294 879.421 242.039 881.764L260.29 883.322L260.889 883.373Z" fill="#DEB686"/>
<path d="M268.165 592.152L243.901 613.395L246.398 613.564L270.514 592.258L268.165 592.152Z" fill="#F0D98D"/>
<path fill-rule="evenodd" clip-rule="evenodd" d="M256.906 591.647C248.882 594.218 234.523 601.232 226.468 612.214L243.901 613.395L268.165 592.152L256.906 591.647ZM250.044 613.811L246.398 613.564L270.514 592.258L274.675 592.445L250.044 613.811ZM253.193 614.024L293.714 616.769V593.299L281.51 592.751L253.193 614.024Z" fill="#A87640"/>
<path d="M274.675 592.445L250.044 613.811L253.193 614.024L281.51 592.751L274.675 592.445Z" fill="#F0D98D"/>
<path d="M223.121 626.319C223.088 626.791 222.923 627.398 222.592 628.198C222.417 628.62 222.058 629.077 221.56 629.547V850.435C221.846 850.628 222.242 851.114 222.375 851.629C222.503 852.121 222.391 852.638 221.715 852.949C224.986 861.066 242.76 881.61 260.29 883.322L260.889 883.373L274.205 885.054C238.843 877.718 223.136 637.169 224.387 632.147C225.401 628.08 223.965 626.567 223.121 626.319Z" fill="url(#paint7_linear_194_380)"/>
<path d="M207.48 877.864C206.638 879.792 205.881 884.594 209.583 888.38C214.21 893.112 220.098 894.794 240.393 895.635C256.628 896.308 536.469 925.802 674.36 940.465C678.579 940.495 689.616 938.483 700.013 930.199C679.735 935.126 674.462 929.33 674.36 925.816C665.419 925.372 359.381 893.663 207.48 877.864Z" fill="#CD9D6A"/>
<path d="M700.013 916.189C695.188 919.583 683.301 926.26 674.36 925.816C674.462 929.33 679.735 935.126 700.013 930.199L754.718 894.718L730.308 897.295L700.013 916.189Z" fill="#B38859"/>
<path d="M893.208 804.892C894.464 803.72 896.863 799.842 896.408 793.7L730.308 897.295L754.718 894.718L893.208 804.892Z" fill="#F0D98D"/>
<path d="M867.137 546.545C868.192 546.901 869.394 547.383 870.682 547.993C872.706 548.951 874.94 550.223 877.14 551.812C877.587 552.135 878.032 552.471 878.475 552.82C878.966 553.208 879.453 553.613 879.934 554.033C883.215 556.906 886.164 560.536 887.882 564.929C888.737 567.113 889.287 569.485 889.422 572.047C889.447 572.52 889.458 573 889.454 573.486C890.447 573.991 892.34 574.752 894.275 575.08C895.378 551.664 885.451 542.693 880.35 541.135L867.137 546.545Z" fill="#B38554"/>
<path d="M889.454 580.346C889.165 580.165 888.897 579.986 888.648 579.808V772.183V773.3C891.394 774.665 894.517 774.269 896.417 773.698L896.738 581.803C893.745 581.964 890.766 580.975 889.454 580.346Z" fill="#B38554"/>
<path d="M895.313 778.435C893.659 778.724 891.641 778.634 889.197 777.652C888.299 785.049 884.481 800.857 876.324 806.311L895.313 794.397V778.435Z" fill="#B38554"/>
<path d="M897.504 575.08V573.486V534.111L880.35 541.135C885.451 542.693 895.378 551.664 894.275 575.08C895.392 575.269 896.524 575.313 897.504 575.08Z" fill="#FCE8A7"/>
<path d="M897.504 772.183V581.736C897.249 581.767 896.994 581.789 896.738 581.803L896.417 773.698C896.849 773.568 897.217 773.429 897.504 773.3V772.183Z" fill="#FCE8A7"/>
<path d="M896.417 793.705V778.175C896.068 778.278 895.701 778.367 895.313 778.435V794.397L896.417 793.705Z" fill="#FCE8A7"/>
<path d="M887.882 572.868C886.8 573.606 885.888 574.649 885.889 575.914C885.891 577.052 886.631 578.37 888.648 579.808C888.897 579.986 889.165 580.165 889.454 580.346C890.766 580.975 893.745 581.964 896.738 581.803V575.914C890.479 576.002 888.222 573.988 887.882 572.868Z" fill="#956749"/>
<path d="M889.454 573.486C889.458 573 889.447 572.52 889.422 572.047C888.921 572.25 888.384 572.526 887.882 572.868C888.222 573.988 890.479 576.002 896.738 575.914C895.643 575.702 894.639 575.269 894.275 575.08C892.34 574.752 890.447 573.991 889.454 573.486Z" fill="#B37D51"/>
<path d="M897.504 573.486V575.08C896.524 575.313 895.392 575.269 894.275 575.08C894.639 575.269 895.643 575.702 896.738 575.914C897.365 575.905 898.032 575.876 898.741 575.822V574.083C898.741 573.341 897.916 573.376 897.504 573.486Z" fill="#B67E51"/>
<path d="M898.741 581.502V575.822C898.032 575.876 897.365 575.905 896.738 575.914V581.803C896.994 581.789 897.249 581.767 897.504 581.736C897.92 581.684 898.334 581.608 898.741 581.502Z" fill="#FFECAF"/>
<path d="M898.325 777.419C899.763 776.715 900.168 774.829 899.355 773.493C898.534 774.04 897.731 774.46 896.954 774.774C896.362 775.656 895.807 777.419 898.325 777.419Z" fill="#B38554"/>
<path d="M897.504 772.183V773.3C897.217 773.429 896.849 773.568 896.417 773.698C896.122 774.621 896.652 774.8 896.954 774.774C897.731 774.46 898.534 774.04 899.355 773.493C898.99 772.893 898.378 772.404 897.504 772.183Z" fill="#FFF0C1"/>
<path d="M888.648 773.3V772.183C888.198 772.508 887.694 772.967 887.307 773.493C888.739 774.823 892.415 776.607 896.954 774.774C896.652 774.8 896.122 774.621 896.417 773.698C894.517 774.269 891.394 774.665 888.648 773.3Z" fill="#906A41"/>
<path fill-rule="evenodd" clip-rule="evenodd" d="M875.694 806.706L876.324 806.311C876.117 806.45 875.907 806.581 875.694 806.706Z" fill="#D9D9D9"/>
<path d="M888.648 777.419C888.834 777.502 889.017 777.58 889.197 777.652C891.641 778.634 893.659 778.724 895.313 778.435C895.701 778.367 896.068 778.278 896.417 778.175C897.131 777.964 897.765 777.694 898.325 777.419C895.807 777.419 896.362 775.656 896.954 774.774C892.415 776.607 888.739 774.823 887.307 773.493C886.408 774.716 886.14 776.303 888.648 777.419Z" fill="#9C6D50"/>
<path d="M858.73 549.996V573.486L864.867 571.685L870.682 547.993C869.394 547.383 868.192 546.901 867.137 546.545L858.73 549.996Z" fill="#BB7A36"/>
<path d="M877.14 551.812L871.587 569.712L873.117 569.263L878.475 552.82C878.032 552.471 877.587 552.135 877.14 551.812Z" fill="#BB7A36"/>
<path d="M887.882 564.929C886.164 560.536 883.215 556.906 879.934 554.033L874.884 568.744L887.882 564.929Z" fill="#BB7A36"/>
<path d="M870.682 547.993L864.867 571.685L871.587 569.712L877.14 551.812C874.94 550.223 872.706 548.951 870.682 547.993Z" fill="#FCE8A7"/>
<path d="M878.475 552.82L873.117 569.263L874.884 568.744L879.934 554.033C879.453 553.613 878.966 553.208 878.475 552.82Z" fill="#FCE8A7"/>
<path d="M888.648 772.183V579.808C886.631 578.37 885.891 577.052 885.889 575.914C885.225 576.891 884.295 579.684 885.889 583.037C887.878 587.219 881.373 802.853 873.826 807.824L875.694 806.706L876.324 806.311C884.481 800.857 888.299 785.049 889.197 777.652C889.017 777.58 888.834 777.502 888.648 777.419C886.14 776.303 886.408 774.716 887.307 773.493C887.694 772.967 888.198 772.508 888.648 772.183Z" fill="url(#paint8_linear_194_380)" fill-opacity="0.41"/>
<path d="M824.793 598.142C824.97 606.714 821.643 613.734 817.361 613.823C813.605 613.9 810.363 608.618 809.504 601.535L807.971 604.091C808.187 605.368 808.447 606.507 808.741 607.521C810.79 614.596 814.474 615.614 816.019 615.614C817.389 615.614 821.049 614.925 823.349 610.388C823.766 609.566 824.139 608.616 824.445 607.521C824.967 605.653 825.295 603.362 825.322 600.553C825.449 587.023 821.129 580.668 815.386 581.787C812.365 582.267 806.774 586.174 807.386 598.462L809.354 595.686C809.858 588.424 812.912 582.86 816.72 582.782C821.002 582.693 824.617 589.571 824.793 598.142Z" fill="#BB7A36"/>
<path d="M809.288 598.462L807.589 601.202C807.665 601.972 807.756 602.701 807.86 603.392L809.434 600.905C809.355 600.11 809.305 599.294 809.288 598.462Z" fill="#BB7A36"/>
<path d="M809.288 598.462C809.269 597.515 809.292 596.587 809.354 595.686L807.386 598.462C807.434 599.428 807.503 600.34 807.589 601.202L809.288 598.462Z" fill="#FCE8A7"/>
<path d="M809.434 600.905L807.86 603.392C807.895 603.629 807.933 603.862 807.971 604.091L809.504 601.535C809.479 601.326 809.455 601.116 809.434 600.905Z" fill="#FCE8A7"/>
<path fill-rule="evenodd" clip-rule="evenodd" d="M817.361 613.823C821.643 613.734 824.97 606.714 824.793 598.142C824.617 589.571 821.002 582.693 816.72 582.782C812.912 582.86 809.858 588.424 809.354 595.686C809.292 596.587 809.269 597.515 809.288 598.462C809.305 599.294 809.355 600.11 809.434 600.905C809.455 601.116 809.479 601.326 809.504 601.535C810.363 608.618 813.605 613.9 817.361 613.823ZM816.698 597.309C816.069 597.062 815.371 596.484 815.371 595.313C815.371 593.689 816.703 593.145 817.361 593.076C817.953 593.208 819.081 593.65 819.081 595.123C819.081 596.392 818.483 597.056 818.044 597.272C818.68 599.689 820.38 603.206 820.535 603.381C820.69 603.556 820.558 603.66 820.473 603.691C818.825 604.28 814.522 605.126 814.435 605.051C814.348 604.977 814.399 604.813 814.435 604.741L816.698 597.309Z" fill="#DA9449"/>
<path d="M817.361 597.461C817.177 597.45 816.941 597.405 816.698 597.309L814.435 604.741C814.399 604.813 814.348 604.977 814.435 605.051C814.522 605.126 818.825 604.28 820.473 603.691C820.558 603.66 820.69 603.556 820.535 603.381C820.38 603.206 818.68 599.689 818.044 597.272C817.853 597.366 817.628 597.413 817.361 597.461Z" fill="#734A1F"/>
<path d="M817.361 593.076C816.703 593.145 815.371 593.689 815.371 595.313C815.371 596.484 816.069 597.062 816.698 597.309C816.941 597.405 817.177 597.45 817.361 597.461C817.628 597.413 817.853 597.366 818.044 597.272C818.483 597.056 819.081 596.392 819.081 595.123C819.081 593.65 817.953 593.208 817.361 593.076Z" fill="#734A1F"/>
<path d="M816.019 615.614C814.474 615.614 810.79 614.596 808.741 607.521C809.766 618.454 814.097 633.596 823.349 610.388C821.049 614.925 817.389 615.614 816.019 615.614Z" fill="#B7886D"/>
<path d="M831.415 472.601C813.068 467.553 806.635 460.523 801.222 441.307C797.503 460.632 791.303 467.84 771.029 472.601C791.258 477.99 797.063 485.502 801.222 503.896C807.345 486.246 810.936 476.502 831.415 472.601Z" fill="#FFF2C3"/>
<path d="M858.729 427.762C849.175 425.134 845.826 421.473 843.007 411.467C841.071 421.53 837.842 425.283 827.285 427.762C837.819 430.569 840.841 434.48 843.007 444.058C846.195 434.867 848.065 429.793 858.729 427.762Z" fill="#FFF2C3"/>
<path d="M325.157 245.083C315.603 242.454 312.253 238.793 309.435 228.787C307.498 238.85 304.27 242.603 293.713 245.083C304.247 247.889 307.269 251.801 309.435 261.378C312.623 252.188 314.493 247.114 325.157 245.083Z" fill="#FFF2C3"/>
<defs>
<linearGradient id="paint0_linear_194_380" x1="468.196" y1="636.246" x2="350.575" y2="931.698" gradientUnits="userSpaceOnUse">
<stop stop-color="#CDA785"/>
<stop offset="1" stop-color="#A26F5E"/>
</linearGradient>
<linearGradient id="paint1_linear_194_380" x1="707.638" y1="547.33" x2="898.072" y2="843.482" gradientUnits="userSpaceOnUse">
<stop stop-color="#F1DCBC"/>
<stop offset="1" stop-color="#B27C58"/>
</linearGradient>
<linearGradient id="paint2_linear_194_380" x1="449.145" y1="272.182" x2="459.795" y2="538.229" gradientUnits="userSpaceOnUse">
<stop stop-color="#9B6452"/>
<stop offset="1" stop-color="#CE9973"/>
</linearGradient>
<linearGradient id="paint3_linear_194_380" x1="449.145" y1="272.182" x2="448.593" y2="721.661" gradientUnits="userSpaceOnUse">
<stop stop-color="#C08778"/>
<stop offset="1" stop-color="#F1DCBC"/>
</linearGradient>
<linearGradient id="paint4_linear_194_380" x1="465.396" y1="512.324" x2="0.513624" y2="242.076" gradientUnits="userSpaceOnUse">
<stop stop-color="#FFF4E2"/>
<stop offset="1" stop-color="#D8A980"/>
</linearGradient>
<linearGradient id="paint5_linear_194_380" x1="668.591" y1="595.688" x2="668.591" y2="926.004" gradientUnits="userSpaceOnUse">
<stop stop-color="#B58D69"/>
<stop offset="1" stop-color="#593623" stop-opacity="0.48"/>
</linearGradient>
<linearGradient id="paint6_linear_194_380" x1="519.107" y1="0.177734" x2="519.107" y2="581.081" gradientUnits="userSpaceOnUse">
<stop stop-color="#FCEA85" stop-opacity="0"/>
<stop offset="1" stop-color="#E5D674" stop-opacity="0.59"/>
</linearGradient>
<linearGradient id="paint7_linear_194_380" x1="249.888" y1="589.462" x2="249.888" y2="885.217" gradientUnits="userSpaceOnUse">
<stop stop-color="#956E53"/>
<stop offset="1" stop-color="#653E28" stop-opacity="0.27"/>
</linearGradient>
<linearGradient id="paint8_linear_194_380" x1="888.914" y1="783.648" x2="911.99" y2="577.282" gradientUnits="userSpaceOnUse">
<stop stop-color="#562020"/>
<stop offset="1" stop-color="#A38161"/>
</linearGradient>
</defs>
</svg>
