<svg width="756" height="315" viewBox="0 0 756 315" fill="none" xmlns="http://www.w3.org/2000/svg">
<path d="M594.123 34.6697C598.948 24.3745 607.637 25.1565 617.629 22.5373C635.676 -2.91532 672.706 15.78 671.684 37.2075C683.885 37.7892 690.591 49.1696 692.21 55.1157C693.243 53.7332 698.743 53.0248 701.363 52.8435C712.474 43.0028 727.654 55.0001 733.856 62.2288C747.069 64.2907 747.557 77.1835 746.149 83.3722C755.15 86.9358 757.843 96.1352 758.064 100.289C770.135 101.136 779.977 105.672 783.388 107.833C792.629 101.502 801.487 110.035 804.76 115.092C822.132 116.772 823.526 131.014 822.052 137.925C825.788 137.484 829.43 140.083 830.785 141.437C833.969 142.827 832.576 153.905 831.482 159.271C844.638 162.529 845.971 171.893 844.994 176.167C853.87 181.544 857.381 190.946 858.027 194.976C877.228 194.808 876.984 205.876 874.462 211.431C883.64 210.476 883.379 212.437 882.101 213.537C878.433 213.362 858.302 213.563 857.199 212.349C856.316 211.379 858.173 210.848 859.212 210.704C857.668 210.63 854.892 209.337 853.697 208.7C842.675 209.374 826.373 206.897 819.6 205.574L797.69 204.53L757.103 202.594C720.01 199.007 678.035 200.904 661.683 202.3C671.876 202.786 674.182 205.283 674.061 206.47C651.039 207.775 603.15 210.141 595.766 209.17C588.383 208.198 585.172 204.118 584.49 202.199C577.478 199.93 548.578 201.292 535.005 202.257C524.928 201.777 514.056 199.646 509.88 198.641L450.424 195.806C446.254 195.607 438.153 196.833 434.624 197.471C432.619 197.246 427.969 196.844 425.406 197.031C422.843 197.218 419.847 195.283 418.668 194.291C418.915 189.118 423.453 189.973 425.692 191.047L443.943 188.676C449.84 180.251 457.335 174.949 460.346 173.351C477.862 163.894 493.383 170.638 498.954 175.193C509.235 154.352 531.423 154.636 529.18 152.981C527.386 151.657 525.736 149.463 525.136 148.532C508.179 147.078 474.133 143.7 473.604 141.818C473.074 139.935 479.622 140.041 482.961 140.329C482.535 136.284 508.094 138.045 520.926 139.431C520.545 127.959 528.821 122.652 533.006 121.433C539.744 96.9889 556.896 91.0995 564.63 91.2104C564.41 79.5911 572.39 74.5542 578.053 69.4068C582.583 65.2889 593.031 63.6718 597.688 63.3779C587.699 48.3732 588.082 47.5564 593.909 35.1268L594.123 34.6697Z" fill="white"/>
<path d="M671.739 38.0809C671.931 34.0657 669.825 28.1867 668.642 25.9375C665.009 37.2182 653.091 39.6424 647.692 39.2559C650.383 41.2417 651.779 42.8045 652.141 43.3377C661.696 43.7933 667.799 39.5698 671.739 38.0809Z" fill="#B5EDF8"/>
<path d="M631.1 24.0505C627.019 21.9985 620.589 22.0014 617.884 22.2594L617.087 22.7534C624.016 23.5095 631.156 25.9235 633.474 27.0175C633.423 25.6607 631.87 24.4742 631.1 24.0505Z" fill="#B5EDF8"/>
<path opacity="0.6" fill-rule="evenodd" clip-rule="evenodd" d="M692.21 55.1153C691.958 54.2971 691.347 52.5009 690.914 51.8611L688.602 53.6856C684.368 50.1623 672.698 44.9559 659.887 52.3163C659.319 53.059 657.931 54.7948 656.915 55.7961C656.846 55.8645 656.754 55.9515 656.641 56.0578C654.687 57.897 646.609 65.5031 646.234 81.9931C643.342 82.1132 636.616 82.647 632.845 83.8215C632.376 83.1704 630.672 81.7154 627.606 81.1048C624.765 77.1159 615.094 71.0277 599.139 78.5865C583.184 86.1453 576.18 95.1466 574.672 98.7025C571.552 99.2147 564.808 102.295 562.79 110.519C554.702 113.777 539.815 123.295 544.969 135.305C543.886 139.09 544.432 149.006 555.284 158.385C554.833 159.38 553.927 161.89 553.905 163.979C551.221 161.771 543.934 158.231 536.26 161.735C533.004 163.74 526.887 168.814 528.464 173.068C522.009 173.518 508.73 176.703 507.249 185.842C506.759 185.641 505.349 185.326 503.63 185.67C500.321 182.352 490.341 176.058 476.887 177.429C474.018 176.067 465.005 176.059 451.911 186.928C450.671 187.901 450.118 189.628 457.821 188.757L463.226 189.015C464.037 189.054 434.079 192.656 418.999 194.452C419.379 195.276 421.239 196.977 425.64 197.187L434.762 197.622C438.146 196.977 445.793 195.729 449.306 195.897L486.708 197.681L509.776 198.781C515.698 200.03 528.996 202.483 534.809 202.296C537.747 202.202 541.554 201.967 545.533 201.721L545.534 201.721L545.534 201.721C551.395 201.359 557.629 200.974 562.007 200.981L562.61 200.982L562.61 200.982L562.61 200.982L562.611 200.982C569.995 200.993 581.381 201.011 584.062 202.033C585.302 204.768 590.373 210.083 600.735 209.455L630.959 208.574L674.299 206.529C674.166 205.282 671.523 202.673 662.026 202.22L696.874 200.737C703.765 200.598 719.169 200.417 725.651 200.804L727.376 200.906L727.378 200.907C736.435 201.446 755.29 202.568 757.719 202.865C759.796 203.119 799.895 204.941 819.685 205.82C824.936 206.941 839.08 209.096 853.646 208.745C854.663 209.39 857.2 210.705 859.207 210.8C857.415 211.182 854.887 212.142 859.106 212.924C863.325 213.705 876.275 213.984 882.222 214.026C883.639 212.723 884.083 210.303 874.529 211.047C877.058 205.686 877.299 194.937 858.034 194.831C857.055 190.334 853.057 180.315 844.895 176.21C846 171.958 844.883 162.647 831.571 159.42C832.732 154.348 834.221 143.623 830.888 141.297C829.451 139.987 825.673 137.459 822.056 137.828C824.002 132.874 822.065 122.428 798.757 120.271C795.926 119.121 788.574 117.348 781.818 119.464C779.219 114.793 769.619 105.861 752.012 107.498C730.003 109.544 709.352 82.1008 727.344 72.9946C729.896 72.2295 736.84 73.0702 744.205 82.5536C744.711 82.0779 745.189 80.3755 743.049 77.3713C740.374 73.616 730.76 63.2417 721.5 68.7496C717.446 65.5251 706.915 61.1759 697.228 69.5753C695.458 71.861 692.24 77.8119 693.525 83.3292L693.301 88.0105C688.818 90.07 679.78 96.0722 679.498 103.604C671.605 103.776 654.495 107.172 649.192 119.379C644.087 118.571 632.638 121.443 627.68 139.394C632.328 138.632 642.936 137.761 648.191 140.372C654.758 143.636 661.326 147.915 664.046 159.847C663.894 161.017 661.392 159.721 658.122 155.26C656.799 153.455 648.305 152.586 644.168 155.755C643.96 155.915 643.748 156.078 643.533 156.244L643.53 156.246C638.407 160.195 631.29 165.681 618.3 162.648C616.656 165.343 611.627 171.123 604.665 172.687C596.233 174.582 596.149 174.695 594.977 176.271C594.94 176.322 594.901 176.374 594.861 176.428C594.738 176.422 594.568 176.394 594.354 176.358L594.352 176.358L594.352 176.358C591.781 175.927 582.846 174.429 572.841 197.967C571.308 195.282 570.257 187.85 578.312 179.605C586.367 171.36 592.892 170.03 595.148 170.396C595.678 165.036 599.921 154.7 612.656 156.236C612.798 152.583 614.312 144.851 619.23 143.151C617.5 139.521 616.956 129.76 628.617 119.752C627.371 117.129 626.62 110.302 633.577 103.978C640.534 97.6544 647.49 98.9341 650.098 100.364C655.247 92.1292 669.832 78.0686 686.979 87.709C688.263 88.1733 689.825 87.8737 685.803 82.961C684.164 77.7718 683.151 64.9377 692.21 55.1153ZM590.88 51.97C593.076 56.6215 597.729 63.5246 597.729 63.5246C601.002 62.5198 609.553 60.4255 618.378 63.6324C618.378 63.6324 623.272 68.5155 628.195 68.744C633.118 68.9726 641.76 63.4317 639.687 54.9746C639.59 55.199 639.494 55.4251 639.398 55.6519L639.397 55.653L639.397 55.6539C637.763 59.5042 636.042 63.5619 628.46 63.2003C626.168 62.5751 621.949 60.1653 623.582 51.8848C622.748 50.4262 619.497 48.2848 613.158 51.3877C611.153 52.84 590.88 51.97 590.88 51.97ZM668.167 188.05C671.547 186.147 679.32 183.822 683.371 189.742C685.942 187.221 692.691 182.564 699.118 184.109C697.813 179.016 698.465 166.974 711.511 159.547C711.196 152.631 715.221 138.557 733.841 137.588C733.916 137.532 734.021 137.443 734.156 137.33C736.206 135.607 745.194 128.051 760.361 137.305C763.481 135.454 772.793 133.835 785.089 142.16C785.913 142.457 787.589 142.473 787.7 140.156C784.642 136.657 775.928 129.766 765.537 130.199C764.906 125.848 761.405 118.664 752.448 124.738C748.532 120.295 737.301 112.91 723.703 118.917C709.697 125.105 708.418 134.395 707.789 138.96C707.655 139.935 707.55 140.695 707.358 141.162C706.569 141.635 705.756 142.052 704.934 142.473C701.397 144.286 697.708 146.177 695.186 152.964C694.941 154.049 694.721 157.044 695.801 160.346C688.383 161.733 680.595 170.069 683.749 181.828L682.324 183.308C680.271 181.726 675.134 179.095 671.008 181.22C669.298 181.913 666.336 184.248 668.167 188.05Z" fill="url(#paint0_linear_194_380)"/>
<mask id="mask0_194_380" style="mask-type:alpha" maskUnits="userSpaceOnUse" x="487" y="211" width="91" height="10">
<path d="M490.657 213.406C496.246 213.053 525.772 212.759 539.836 212.655C550.021 210.045 556.849 214.809 566.862 213.944C576.964 213.072 579.745 217.654 576.753 217.512C570.575 217.217 548.035 219.238 541.858 218.943C536.916 218.708 534.78 221.314 523.197 220.762C516.79 221.23 498.966 217.672 494.756 216.697C490.546 215.722 483.67 213.847 490.657 213.406Z" fill="white"/>
</mask>
<g mask="url(#mask0_194_380)">
<path d="M490.657 213.406C496.246 213.053 525.772 212.759 539.836 212.655C550.021 210.045 556.849 214.809 566.862 213.944C576.964 213.072 579.745 217.654 576.753 217.512C570.575 217.217 548.035 219.238 541.858 218.943C536.916 218.708 534.78 221.314 523.197 220.762C516.79 221.23 498.966 217.672 494.756 216.697C490.546 215.722 483.67 213.847 490.657 213.406Z" fill="white"/>
<path d="M487.91 215.055C486.094 214.195 488.741 213.87 490.291 213.814C500.844 213.234 517.167 215.548 524.009 216.777C533.468 217.228 540.05 213.092 546.806 213.414C553.563 213.736 559.896 214.812 570.164 214.528C578.378 214.3 578.765 216.744 577.931 217.994C574.225 217.817 550.936 218.77 539.755 219.269C536.137 220.489 528.258 220.978 524.771 221.07C510.486 220.388 490.181 216.131 487.91 215.055Z" fill="#D8E4CA"/>
</g>
<path d="M530.982 147.649C527.121 147.465 490.691 144.567 489.533 144.512C490.563 145.645 513.562 147.786 524.933 148.715C526.382 150.797 528.509 152.175 529.391 152.604C534.767 150.229 541.669 152.093 544.448 153.322C543.548 147.862 534.842 147.833 530.982 147.649Z" fill="#F5ECA1"/>
<path d="M755.538 210.066C770.435 208.454 780.341 210.281 783.432 211.396C781.724 212.321 772.385 212.804 767.929 212.93C769.691 213.498 775.865 215.088 786.458 216.909C797.051 218.73 799.687 220.12 799.681 220.587C797.956 220.924 789.684 221.697 770.394 222.093C751.105 222.489 743.395 220.257 741.951 219.092C736.414 218.554 724.118 217.332 719.232 216.751C713.123 216.024 714.484 212.848 721.096 212.148C726.385 211.587 746.261 210.526 755.538 210.066Z" fill="white"/>
<path d="M757.746 212.444C761.386 210.76 776.066 210.996 782.952 211.324C780.731 212.457 772.043 212.868 767.977 212.932L773.888 214.762L761.726 214.182C759.873 214.093 758.3 212.987 757.746 212.444Z" fill="#AFD0D0"/>
<path d="M740.878 213.188C734.855 212.9 721.552 214.072 715.654 214.694C711.844 216.679 731.844 218.69 742.321 219.448C756.347 223.921 786.301 222.227 799.525 220.821C799.752 220.123 799.008 218.668 794.221 218.44C788.237 218.155 777.904 219.79 776.553 219.726C769.229 217.519 759.602 218.144 755.705 218.732C738.217 218.672 738.534 215.011 740.878 213.188Z" fill="#AFD0D0"/>
<path d="M0.383201 111.032C5.20807 100.737 13.8968 101.519 23.8891 98.8999C41.9355 73.4472 78.966 92.1425 77.9442 113.57C90.1443 114.152 96.8507 125.532 98.4697 131.478C99.503 130.096 105.003 129.387 107.623 129.206C118.734 119.365 133.914 131.363 140.115 138.591C153.329 140.653 153.817 153.546 152.409 159.735C161.41 163.298 164.102 172.498 164.323 176.652C176.395 177.498 186.236 182.034 189.648 184.196C198.889 177.865 207.746 186.397 211.02 191.455C228.392 193.135 229.786 207.377 228.312 214.288C232.048 213.847 235.69 216.445 237.044 217.8C240.228 219.19 238.836 230.268 237.742 235.633C250.898 238.892 252.231 248.255 251.253 252.53C260.129 257.906 263.641 267.309 264.287 271.338C283.488 271.17 283.244 282.239 280.722 287.794C289.9 286.838 289.639 288.8 288.361 289.899C284.693 289.725 264.562 289.925 263.459 288.712C262.576 287.741 264.433 287.211 265.472 287.067C263.927 286.993 261.151 285.7 259.956 285.062C248.935 285.736 232.633 283.26 225.86 281.937L203.95 280.892L163.363 278.957C126.27 275.369 84.2943 277.266 67.9432 278.663C78.1357 279.149 80.4416 281.645 80.3205 282.833C57.2988 284.137 9.40945 286.503 2.02616 285.532C-5.35713 284.561 -8.56777 280.48 -9.25018 278.561C-16.262 276.292 -45.1619 277.655 -58.7353 278.62C-68.812 278.139 -79.6839 276.009 -83.8603 275.003L-143.317 272.168C-147.486 271.969 -155.587 273.195 -159.116 273.833C-161.121 273.609 -165.771 273.206 -168.334 273.394C-170.897 273.581 -173.894 271.645 -175.072 270.654C-174.825 265.48 -170.287 266.335 -168.049 267.409L-149.797 265.039C-143.9 256.614 -136.405 251.312 -133.394 249.714C-115.878 240.256 -100.357 247.001 -94.7862 251.555C-84.5054 230.714 -62.3172 230.998 -64.56 229.344C-66.3542 228.02 -68.0038 225.826 -68.6044 224.894C-85.5612 223.441 -119.607 220.063 -120.137 218.18C-120.666 216.298 -114.119 216.403 -110.779 216.692C-111.205 212.647 -85.6465 214.408 -72.814 215.793C-73.1956 204.321 -64.9196 199.015 -60.7339 197.795C-53.996 173.351 -36.8438 167.462 -29.1099 167.573C-29.3298 155.954 -21.3504 150.917 -15.6875 145.769C-11.1572 141.651 -0.709602 140.034 3.94793 139.74C-6.04165 124.736 -5.6587 123.919 0.168923 111.489L0.383201 111.032Z" fill="white"/>
<path d="M77.9991 114.443C78.1906 110.428 76.0847 104.549 74.902 102.3C71.2684 113.581 59.3506 116.005 53.9516 115.618C56.643 117.604 58.0389 119.167 58.4005 119.7C67.956 120.156 74.0585 115.932 77.9991 114.443Z" fill="#B5EDF8"/>
<path d="M37.3602 100.413C33.2789 98.361 26.8488 98.364 24.1439 98.6219L23.3465 99.116C30.2757 99.872 37.416 102.286 39.734 103.38C39.6826 102.023 38.1301 100.837 37.3602 100.413Z" fill="#B5EDF8"/>
<path opacity="0.6" fill-rule="evenodd" clip-rule="evenodd" d="M98.4693 131.478C98.2181 130.66 97.6072 128.863 97.1734 128.224L94.8614 130.048C90.6277 126.525 78.9577 121.318 66.1466 128.679C65.5791 129.422 64.1904 131.157 63.1753 132.159C63.106 132.227 63.0136 132.314 62.9007 132.42C60.9473 134.26 52.8687 141.866 52.4939 158.356C49.6021 158.476 42.8758 159.01 39.105 160.184C38.6362 159.533 36.9321 158.078 33.8655 157.467C31.0246 153.478 21.3539 147.39 5.39904 154.949C-10.5558 162.508 -17.5602 171.509 -19.068 175.065C-22.1881 175.577 -28.9326 178.658 -30.95 186.881C-39.038 190.139 -53.9254 199.658 -48.7711 211.667C-49.8546 215.453 -49.3084 225.369 -38.4565 234.748C-38.907 235.742 -39.8135 238.253 -39.8357 240.341C-42.5197 238.133 -49.8063 234.594 -57.4804 238.097C-60.7362 240.102 -66.8535 245.177 -65.2763 249.431C-71.731 249.881 -85.0104 253.066 -86.491 262.205C-86.9812 262.004 -88.3915 261.688 -90.1105 262.032C-93.4188 258.714 -103.399 252.421 -116.853 253.792C-119.722 252.429 -128.735 252.422 -141.829 263.29C-143.069 264.263 -143.622 265.991 -135.919 265.12L-130.514 265.378C-129.703 265.416 -159.661 269.018 -174.741 270.814C-174.361 271.639 -172.501 273.34 -168.1 273.55L-158.979 273.984C-155.594 273.34 -147.947 272.092 -144.434 272.26L-107.032 274.043L-83.964 275.143C-78.0418 276.393 -64.7442 278.846 -58.9309 278.659C-55.9927 278.564 -52.1859 278.329 -48.2072 278.083L-48.2061 278.083L-48.2058 278.083C-42.345 277.721 -36.1115 277.337 -31.7327 277.344L-31.1304 277.345L-31.1303 277.345L-31.13 277.345L-31.1297 277.345C-23.7449 277.356 -12.3591 277.373 -9.67789 278.395C-8.43786 281.131 -3.36737 286.445 6.99437 285.817L37.2191 284.937L80.5592 282.892C80.4253 281.644 77.783 279.035 68.2854 278.582L103.134 277.1C110.025 276.961 125.428 276.78 131.911 277.166L133.636 277.269L133.638 277.269C142.695 277.808 161.549 278.931 163.978 279.228C166.056 279.481 206.155 281.303 225.944 282.182C231.195 283.304 245.339 285.458 259.906 285.108C260.923 285.753 263.459 287.067 265.467 287.163C263.675 287.545 261.146 288.505 265.366 289.286C269.585 290.068 282.535 290.347 288.482 290.389C289.899 289.086 290.343 286.666 280.788 287.41C283.317 282.048 283.559 271.299 264.294 271.193C263.315 266.696 259.317 256.677 251.154 252.573C252.26 248.321 251.143 239.01 237.831 235.782C238.992 230.71 240.48 219.985 237.147 217.659C235.71 216.349 231.932 213.822 228.316 214.191C230.261 209.237 228.325 198.79 205.017 196.634C202.186 195.483 194.834 193.711 188.077 195.826C185.479 191.156 175.879 182.223 158.272 183.86C136.263 185.906 115.611 158.463 133.604 149.357C136.156 148.592 143.1 149.433 150.464 158.916C150.971 158.44 151.449 156.738 149.309 153.734C146.634 149.979 137.02 139.604 127.76 145.112C123.706 141.888 113.175 137.538 103.487 145.938C101.718 148.224 98.4996 154.174 99.7843 159.692L99.5611 164.373C95.0774 166.433 86.0394 172.435 85.7576 179.967C77.8651 180.139 60.7544 183.534 55.4514 195.741C50.3466 194.934 38.8976 197.806 33.9398 215.757C38.5874 214.995 49.1961 214.124 54.4503 216.735C61.0181 219.998 67.5858 224.278 70.306 236.21C70.1534 237.38 67.6516 236.083 64.3817 231.622C63.0591 229.818 54.5644 228.949 50.4276 232.118C50.2193 232.277 50.0077 232.441 49.7927 232.606L49.7895 232.609C44.6665 236.558 37.5495 242.043 24.5596 239.01C22.9156 241.705 17.8868 247.486 10.9243 249.05C2.49274 250.944 2.40875 251.057 1.23721 252.634C1.19948 252.684 1.16063 252.737 1.12034 252.791C0.997818 252.785 0.827974 252.756 0.613924 252.721L0.612197 252.72L0.612016 252.72C-1.95892 252.289 -10.894 250.791 -20.8993 274.329C-22.4319 271.644 -23.4835 264.213 -15.4285 255.968C-7.37358 247.723 -0.847948 246.393 1.40801 246.758C1.93769 241.398 6.18085 231.062 18.9159 232.598C19.0579 228.945 20.5713 221.214 25.4894 219.513C23.7599 215.884 23.2161 206.123 34.8764 196.115C33.631 193.492 32.8795 186.665 39.8368 180.341C46.7941 174.017 53.7499 175.297 56.3581 176.727C61.5072 168.492 76.092 154.431 93.2389 164.072C94.5228 164.536 96.085 164.236 92.0627 159.324C90.4237 154.134 89.4104 141.3 98.4693 131.478ZM-2.86056 128.333C-0.663892 132.984 3.98902 139.887 3.98902 139.887C7.26159 138.882 15.8133 136.788 24.6378 139.995C24.6378 139.995 29.5321 144.878 34.455 145.107C39.3778 145.335 48.0196 139.794 45.9464 131.337C45.8496 131.562 45.7537 131.788 45.6575 132.014L45.657 132.016L45.6566 132.016C44.0232 135.867 42.3018 139.924 34.7193 139.563C32.4274 138.938 28.2084 136.528 29.8415 128.247C29.0081 126.789 25.7566 124.647 19.4173 127.75C17.4133 129.203 -2.86056 128.333 -2.86056 128.333ZM74.4269 264.413C77.8068 262.51 85.5795 260.185 89.6311 266.105C92.2021 263.583 98.9509 258.926 105.378 260.471C104.073 255.378 104.725 243.336 117.771 235.91C117.456 228.994 121.481 214.92 140.101 213.951C140.176 213.894 140.281 213.806 140.416 213.692C142.465 211.969 151.454 204.414 166.621 213.667C169.741 211.817 179.053 210.197 191.348 218.523C192.173 218.82 193.849 218.835 193.959 216.519C190.901 213.019 182.188 206.129 171.797 206.562C171.166 202.211 167.665 195.027 158.707 201.101C154.792 196.658 143.561 189.273 129.963 195.28C115.957 201.468 114.678 210.758 114.049 215.323C113.915 216.298 113.81 217.057 113.617 217.525C112.829 217.998 112.015 218.415 111.194 218.836C107.657 220.648 103.968 222.539 101.446 229.327C101.201 230.412 100.98 233.406 102.061 236.708C94.6429 238.096 86.8545 246.431 90.0085 258.19L88.5836 259.67C86.5307 258.089 81.3935 255.458 77.2679 257.583C75.558 258.275 72.5961 260.61 74.4269 264.413Z" fill="url(#paint1_linear_194_380)"/>
<path d="M161.797 286.428C176.695 284.817 186.601 286.644 189.692 287.758C187.984 288.683 178.645 289.166 174.189 289.293C175.951 289.86 182.125 291.451 192.718 293.272C203.311 295.093 205.947 296.482 205.941 296.95C204.216 297.287 195.943 298.059 176.654 298.455C157.364 298.851 149.654 296.62 148.21 295.454C142.674 294.916 130.378 293.695 125.491 293.113C119.383 292.387 120.744 289.211 127.356 288.51C132.645 287.95 152.521 286.889 161.797 286.428Z" fill="white"/>
<path d="M164.006 288.807C167.646 287.123 182.326 287.359 189.211 287.687C186.99 288.819 178.303 289.231 174.237 289.295L180.147 291.124L167.986 290.544C166.133 290.456 164.56 289.349 164.006 288.807Z" fill="#AFD0D0"/>
<path d="M147.137 289.55C141.115 289.263 127.812 290.434 121.913 291.056C118.104 293.041 138.104 295.053 148.58 295.81C162.607 300.284 192.561 298.59 205.785 297.184C206.011 296.485 205.268 295.031 200.481 294.803C194.497 294.517 184.164 296.153 182.813 296.088C175.488 293.882 165.862 294.506 161.964 295.094C144.477 295.034 144.793 291.373 147.137 289.55Z" fill="#AFD0D0"/>
<defs>
<linearGradient id="paint0_linear_194_380" x1="654.494" y1="61.1813" x2="766.589" y2="174.498" gradientUnits="userSpaceOnUse">
<stop stop-color="#89E4F5"/>
<stop offset="1" stop-color="#61C8EE"/>
</linearGradient>
<linearGradient id="paint1_linear_194_380" x1="60.754" y1="137.544" x2="172.849" y2="250.861" gradientUnits="userSpaceOnUse">
<stop stop-color="#89E4F5"/>
<stop offset="1" stop-color="#61C8EE"/>
</linearGradient>
</defs>
</svg>
