<svg width="1519" height="633" viewBox="0 0 1519 633" fill="none" xmlns="http://www.w3.org/2000/svg">
<path d="M1193.75 70.0587C1203.44 49.373 1220.9 50.9441 1240.98 45.6815C1277.24 -5.45943 1351.64 32.1042 1349.59 75.1576C1374.1 76.3266 1387.58 99.1927 1390.83 111.14C1392.9 108.362 1403.96 106.939 1409.22 106.574C1431.54 86.802 1462.05 110.908 1474.51 125.432C1501.05 129.575 1502.03 155.48 1499.21 167.915C1517.29 175.075 1522.7 193.559 1523.15 201.906C1547.4 203.606 1567.17 212.72 1574.03 217.064C1592.6 204.343 1610.39 221.487 1616.97 231.649C1651.88 235.024 1654.68 263.639 1651.72 277.526C1659.22 276.64 1666.54 281.861 1669.26 284.582C1675.66 287.375 1672.86 309.634 1670.66 320.414C1697.1 326.962 1699.78 345.775 1697.81 354.364C1715.64 365.166 1722.7 384.059 1724 392.155C1762.58 391.818 1762.09 414.057 1757.02 425.219C1775.46 423.299 1774.94 427.239 1772.37 429.449C1765 429.098 1724.55 429.501 1722.33 427.063C1720.56 425.113 1724.29 424.047 1726.38 423.757C1723.28 423.609 1717.7 421.011 1715.3 419.73C1693.15 421.084 1660.4 416.108 1646.79 413.45L1602.77 411.351L1521.22 407.462C1446.69 400.254 1362.35 404.065 1329.49 406.872C1349.97 407.849 1354.61 412.864 1354.36 415.25C1308.11 417.871 1211.88 422.626 1197.05 420.674C1182.21 418.723 1175.76 410.524 1174.39 406.668C1160.3 402.109 1102.24 404.847 1074.96 406.786C1054.72 405.82 1032.87 401.539 1024.48 399.519L905.017 393.822C896.639 393.423 880.363 395.886 873.272 397.168C869.244 396.717 859.901 395.908 854.751 396.285C849.602 396.661 843.58 392.772 841.213 390.78C841.709 380.385 850.827 382.103 855.324 384.261L891.997 379.498C903.845 362.569 918.905 351.916 924.954 348.706C960.148 329.703 991.334 343.254 1002.53 352.405C1023.18 310.531 1067.77 311.102 1063.26 307.777C1059.65 305.117 1056.34 300.709 1055.13 298.837C1021.06 295.916 952.656 289.129 951.592 285.347C950.528 281.564 963.684 281.777 970.394 282.356C969.538 274.229 1020.89 277.766 1046.68 280.551C1045.91 257.5 1062.54 246.838 1070.95 244.388C1084.49 195.274 1118.95 183.441 1134.49 183.663C1134.05 160.317 1150.08 150.197 1161.46 139.854C1170.56 131.581 1191.55 128.331 1200.91 127.741C1180.84 97.5925 1181.61 95.9514 1193.32 70.9771L1193.75 70.0587Z" fill="white"/>
<path d="M1349.7 76.9126C1350.08 68.845 1345.85 57.0325 1343.48 52.5134C1336.17 75.1792 1312.23 80.05 1301.38 79.2735C1306.79 83.2634 1309.59 86.4035 1310.32 87.4748C1329.52 88.3903 1341.78 79.9042 1349.7 76.9126Z" fill="#B5EDF8"/>
<path d="M1268.04 48.7222C1259.84 44.5991 1246.92 44.605 1241.49 45.1234L1239.88 46.116C1253.81 47.6352 1268.15 52.4854 1272.81 54.6837C1272.71 51.9575 1269.59 49.5735 1268.04 48.7222Z" fill="#B5EDF8"/>
<path opacity="0.6" fill-rule="evenodd" clip-rule="evenodd" d="M1390.83 111.139C1390.32 109.495 1389.1 105.886 1388.22 104.601L1383.58 108.266C1375.07 101.187 1351.62 90.7262 1325.88 105.515C1324.74 107.007 1321.95 110.495 1319.91 112.507C1319.77 112.644 1319.59 112.819 1319.36 113.033C1315.44 116.728 1299.2 132.011 1298.45 165.144C1292.64 165.385 1279.13 166.457 1271.55 168.817C1270.61 167.509 1267.18 164.586 1261.02 163.359C1255.31 155.344 1235.88 143.111 1203.83 158.299C1171.77 173.486 1157.69 191.572 1154.66 198.717C1148.4 199.746 1134.84 205.936 1130.79 222.459C1114.54 229.005 1084.63 248.131 1094.98 272.26C1092.81 279.867 1093.9 299.791 1115.71 318.635C1114.8 320.633 1112.98 325.678 1112.94 329.874C1107.54 325.438 1092.9 318.325 1077.48 325.365C1070.94 329.394 1058.65 339.589 1061.82 348.137C1048.85 349.042 1022.17 355.441 1019.19 373.803C1018.21 373.4 1015.38 372.766 1011.92 373.456C1005.27 366.79 985.222 354.145 958.189 356.899C952.424 354.162 934.315 354.147 908.005 375.984C905.514 377.939 904.403 381.411 919.881 379.661L930.741 380.179C932.37 380.256 872.177 387.493 841.877 391.102C842.64 392.758 846.378 396.176 855.221 396.598L873.548 397.472C880.348 396.176 895.713 393.669 902.772 394.006L977.921 397.59L1024.27 399.8C1036.17 402.311 1062.89 407.24 1074.57 406.864C1080.47 406.673 1088.12 406.201 1096.12 405.707L1096.12 405.707C1107.9 404.98 1120.42 404.207 1129.22 404.221L1130.43 404.223C1145.27 404.246 1168.14 404.281 1173.53 406.335C1176.02 411.831 1186.21 422.509 1207.03 421.247L1267.76 419.478L1354.84 415.369C1354.57 412.862 1349.26 407.62 1330.18 406.71L1400.2 403.732C1414.05 403.452 1445 403.088 1458.02 403.865L1461.48 404.071C1479.68 405.154 1517.57 407.41 1522.45 408.006C1526.63 408.517 1607.2 412.177 1646.96 413.944C1657.51 416.196 1685.93 420.525 1715.19 419.822C1717.24 421.118 1722.34 423.758 1726.37 423.951C1722.77 424.718 1717.69 426.647 1726.17 428.217C1734.64 429.788 1760.66 430.348 1772.61 430.432C1775.46 427.814 1776.35 422.952 1757.15 424.447C1762.24 413.674 1762.72 392.077 1724.01 391.863C1722.05 382.828 1714.01 362.697 1697.61 354.451C1699.83 345.907 1697.59 327.198 1670.84 320.713C1673.17 310.523 1676.16 288.973 1669.47 284.3C1666.58 281.668 1658.99 276.589 1651.72 277.331C1655.63 267.377 1651.74 246.387 1604.91 242.055C1599.22 239.743 1584.45 236.181 1570.87 240.432C1565.65 231.047 1546.36 213.1 1510.99 216.389C1466.76 220.5 1425.27 165.36 1461.42 147.063C1466.55 145.526 1480.5 147.215 1495.3 166.27C1496.32 165.314 1497.28 161.893 1492.98 155.857C1487.6 148.312 1468.28 127.467 1449.68 138.534C1441.53 132.055 1420.38 123.316 1400.91 140.193C1397.35 144.786 1390.89 156.742 1393.47 167.828L1393.02 177.234C1384.01 181.372 1365.85 193.432 1365.29 208.566C1349.43 208.912 1315.05 215.734 1304.39 240.261C1294.14 238.638 1271.13 244.409 1261.17 280.477C1270.51 278.946 1291.82 277.196 1302.38 282.442C1315.58 289 1328.77 297.598 1334.24 321.573C1333.93 323.923 1328.91 321.319 1322.34 312.356C1319.68 308.73 1302.61 306.983 1294.3 313.351C1293.88 313.673 1293.45 314.003 1293.02 314.337C1282.72 322.271 1268.42 333.294 1242.32 327.2C1239.02 332.615 1228.92 344.229 1214.93 347.372C1197.99 351.178 1197.82 351.405 1195.46 354.573L1195.46 354.576C1195.39 354.677 1195.31 354.781 1195.23 354.888C1194.98 354.876 1194.64 354.819 1194.21 354.746C1189.04 353.88 1171.09 350.871 1150.99 398.165C1147.91 392.77 1145.79 377.838 1161.98 361.272C1178.16 344.705 1191.27 342.033 1195.81 342.767C1196.87 331.998 1205.4 311.23 1230.98 314.316C1231.27 306.976 1234.31 291.442 1244.19 288.025C1240.72 280.733 1239.62 261.12 1263.05 241.011C1260.55 235.741 1259.04 222.024 1273.02 209.317C1287 196.611 1300.97 199.182 1306.22 202.056C1316.56 185.51 1345.87 157.258 1380.32 176.628C1382.9 177.561 1386.04 176.959 1377.95 167.088C1374.66 156.662 1372.63 130.875 1390.83 111.139ZM1187.23 104.819C1191.64 114.165 1200.99 128.036 1200.99 128.036C1207.57 126.017 1224.75 121.809 1242.48 128.252C1242.48 128.252 1252.31 138.064 1262.21 138.523C1272.1 138.982 1289.46 127.849 1285.3 110.856C1285.1 111.308 1284.91 111.764 1284.71 112.22L1284.71 112.221L1284.71 112.221C1281.43 119.957 1277.97 128.111 1262.74 127.384C1258.13 126.128 1249.65 121.286 1252.94 104.648C1251.26 101.718 1244.73 97.4148 1231.99 103.649C1227.96 106.567 1187.23 104.819 1187.23 104.819ZM1342.52 378.24C1349.31 374.417 1364.93 369.745 1373.07 381.64C1378.23 376.574 1391.79 367.216 1404.71 370.32C1402.09 360.088 1403.4 335.892 1429.61 320.97C1428.98 307.075 1437.06 278.796 1474.48 276.849C1474.63 276.735 1474.84 276.558 1475.11 276.329C1479.23 272.868 1497.29 257.687 1527.76 276.28C1534.03 272.561 1552.74 269.307 1577.44 286.035C1579.1 286.632 1582.47 286.663 1582.69 282.009C1576.55 274.978 1559.04 261.133 1538.16 262.003C1536.89 253.26 1529.86 238.826 1511.86 251.03C1503.99 242.102 1481.43 227.264 1454.11 239.335C1425.96 251.767 1423.39 270.434 1422.13 279.606C1421.86 281.565 1421.65 283.09 1421.26 284.03C1419.68 284.98 1418.04 285.818 1416.39 286.664C1409.29 290.306 1401.87 294.105 1396.81 307.744C1396.31 309.923 1395.87 315.94 1398.04 322.575C1383.14 325.363 1367.49 342.11 1373.83 365.738L1370.96 368.711C1366.84 365.534 1356.52 360.247 1348.23 364.517C1344.79 365.908 1338.84 370.6 1342.52 378.24Z" fill="url(#paint0_linear_194_380)"/>
<mask id="mask0_194_380" style="mask-type:alpha" maskUnits="userSpaceOnUse" x="979" y="426" width="183" height="19">
<path d="M985.856 429.185C997.086 428.477 1056.41 427.885 1084.67 427.677C1105.14 422.433 1118.85 432.004 1138.97 430.267C1159.27 428.513 1164.86 437.721 1158.85 437.434C1146.43 436.842 1101.14 440.903 1088.73 440.311C1078.8 439.837 1074.51 445.075 1051.24 443.965C1038.37 444.907 1002.55 437.756 994.093 435.798C985.634 433.839 971.819 430.071 985.856 429.185Z" fill="white"/>
</mask>
<g mask="url(#mask0_194_380)">
<path d="M985.856 429.185C997.086 428.477 1056.41 427.885 1084.67 427.677C1105.14 422.433 1118.85 432.004 1138.97 430.267C1159.27 428.513 1164.86 437.721 1158.85 437.434C1146.43 436.842 1101.14 440.903 1088.73 440.311C1078.8 439.837 1074.51 445.075 1051.24 443.965C1038.37 444.907 1002.55 437.756 994.093 435.798C985.634 433.839 971.819 430.071 985.856 429.185Z" fill="white"/>
<path d="M980.34 432.5C976.69 430.771 982.009 430.117 985.124 430.006C1006.33 428.841 1039.12 433.489 1052.87 435.958C1071.88 436.865 1085.1 428.554 1098.68 429.201C1112.25 429.849 1124.98 432.011 1145.61 431.439C1162.11 430.983 1162.89 435.892 1161.22 438.404C1153.77 438.049 1106.98 439.964 1084.51 440.966C1077.24 443.418 1061.41 444.4 1054.4 444.584C1025.7 443.215 984.902 434.661 980.34 432.5Z" fill="#D8E4CA"/>
</g>
<path d="M1066.88 297.064C1059.12 296.694 985.926 290.871 983.599 290.76C985.667 293.035 1031.88 297.338 1054.73 299.205C1057.64 303.387 1061.91 306.157 1063.68 307.019C1074.48 302.247 1088.35 305.992 1093.94 308.461C1092.13 297.49 1074.64 297.434 1066.88 297.064Z" fill="#F5ECA1"/>
<path d="M1518.07 422.475C1548 419.238 1567.91 422.908 1574.12 425.148C1570.68 427.006 1551.92 427.977 1542.97 428.23C1546.51 429.371 1558.91 432.567 1580.2 436.226C1601.48 439.884 1606.78 442.677 1606.77 443.616C1603.3 444.293 1586.68 445.845 1547.92 446.641C1509.16 447.436 1493.67 442.952 1490.77 440.611C1479.64 439.53 1454.94 437.075 1445.12 435.907C1432.85 434.447 1435.58 428.066 1448.87 426.659C1459.49 425.533 1499.43 423.401 1518.07 422.475Z" fill="white"/>
<path d="M1522.51 427.253C1529.82 423.87 1559.32 424.344 1573.15 425.003C1568.69 427.279 1551.23 428.105 1543.06 428.234L1554.94 431.91L1530.51 430.745C1526.78 430.567 1523.62 428.343 1522.51 427.253Z" fill="#AFD0D0"/>
<path d="M1488.62 428.747C1476.51 428.17 1449.79 430.524 1437.93 431.773C1430.28 435.762 1470.46 439.803 1491.51 441.325C1519.7 450.313 1579.88 446.91 1606.45 444.085C1606.91 442.681 1605.41 439.759 1595.8 439.301C1583.77 438.727 1563.01 442.013 1560.3 441.884C1545.58 437.45 1526.24 438.705 1518.41 439.886C1483.27 439.766 1483.91 432.41 1488.62 428.747Z" fill="#AFD0D0"/>
<path d="M0.770074 223.49C10.4645 202.805 27.9223 204.376 47.9995 199.113C84.2595 147.972 158.663 185.536 156.61 228.589C181.123 229.758 194.598 252.624 197.851 264.572C199.927 261.794 210.978 260.37 216.243 260.006C238.567 240.234 269.068 264.339 281.528 278.864C308.077 283.006 309.057 308.912 306.229 321.346C324.314 328.506 329.724 346.99 330.169 355.337C354.423 357.038 374.197 366.151 381.052 370.495C399.619 357.774 417.416 374.918 423.994 385.08C458.898 388.455 461.7 417.071 458.738 430.957C466.244 430.071 473.563 435.293 476.284 438.014C482.681 440.807 479.884 463.066 477.685 473.846C504.119 480.393 506.798 499.207 504.833 507.795C522.667 518.598 529.723 537.491 531.021 545.587C569.601 545.249 569.111 567.489 564.043 578.65C582.484 576.731 581.959 580.671 579.392 582.881C572.022 582.529 531.573 582.933 529.357 580.495C527.584 578.544 531.315 577.478 533.402 577.189C530.299 577.041 524.721 574.443 522.32 573.162C500.175 574.516 467.42 569.54 453.811 566.882L409.788 564.783L328.238 560.894C253.709 553.686 169.369 557.497 136.516 560.304C156.995 561.28 161.628 566.296 161.385 568.682C115.128 571.303 18.9062 576.057 4.07121 574.106C-10.7637 572.154 -17.2148 563.955 -18.5859 560.099C-32.6745 555.54 -90.7418 558.278 -118.014 560.218C-138.261 559.252 -160.105 554.971 -168.497 552.951L-287.96 547.254C-296.338 546.854 -312.615 549.318 -319.706 550.6C-323.734 550.148 -333.077 549.34 -338.226 549.716C-343.376 550.093 -349.397 546.203 -351.765 544.211C-351.269 533.817 -342.15 535.534 -337.653 537.692L-300.981 532.93C-289.133 516.001 -274.073 505.348 -268.024 502.138C-232.83 483.135 -201.644 496.686 -190.45 505.837C-169.793 463.962 -125.211 464.533 -129.718 461.208C-133.323 458.549 -136.637 454.14 -137.844 452.268C-171.915 449.348 -240.322 442.561 -241.386 438.778C-242.449 434.996 -229.294 435.208 -222.583 435.788C-223.44 427.661 -172.086 431.198 -146.302 433.983C-147.069 410.932 -130.44 400.27 -122.03 397.82C-108.492 348.706 -74.0287 336.872 -58.4893 337.095C-58.931 313.749 -42.8984 303.629 -31.5202 293.286C-22.4176 285.012 -1.42565 281.763 7.93255 281.172C-12.1391 251.024 -11.3697 249.383 0.339547 224.409L0.770074 223.49Z" fill="white"/>
<path d="M156.72 230.344C157.105 222.277 152.874 210.464 150.498 205.945C143.197 228.611 119.251 233.482 108.403 232.705C113.811 236.695 116.615 239.835 117.342 240.906C136.541 241.822 148.803 233.336 156.72 230.344Z" fill="#B5EDF8"/>
<path d="M75.0647 202.154C66.8643 198.031 53.9446 198.037 48.5097 198.555L46.9074 199.548C60.83 201.067 75.1768 205.917 79.8342 208.115C79.7309 205.389 76.6115 203.005 75.0647 202.154Z" fill="#B5EDF8"/>
<path opacity="0.6" fill-rule="evenodd" clip-rule="evenodd" d="M197.85 264.571C197.345 262.927 196.118 259.318 195.246 258.032L190.601 261.698C182.094 254.619 158.646 244.158 132.905 258.947C131.765 260.439 128.975 263.927 126.935 265.939C126.796 266.076 126.61 266.251 126.383 266.464C122.458 270.16 106.226 285.443 105.473 318.575C99.663 318.817 86.1481 319.889 78.5716 322.249C77.6297 320.941 74.2057 318.017 68.0441 316.79C62.3359 308.776 42.9051 296.543 10.8476 311.73C-21.2099 326.918 -35.2834 345.004 -38.313 352.149C-44.5821 353.178 -58.1336 359.367 -62.187 375.89C-78.4379 382.437 -108.351 401.562 -97.9944 425.692C-100.171 433.298 -99.0738 453.222 -77.2695 472.067C-78.1747 474.065 -79.9961 479.109 -80.0407 483.306C-85.4336 478.869 -100.074 471.757 -115.494 478.797C-122.035 482.826 -134.326 493.021 -131.158 501.569C-144.127 502.473 -170.808 508.872 -173.783 527.235C-174.768 526.831 -177.602 526.197 -181.056 526.888C-187.703 520.221 -207.756 507.577 -234.788 510.331C-240.554 507.594 -258.663 507.579 -284.973 529.416C-287.463 531.371 -288.575 534.842 -273.097 533.092L-262.236 533.61C-260.607 533.688 -320.801 540.925 -351.101 544.534C-350.337 546.19 -346.6 549.608 -337.757 550.03L-319.43 550.904C-312.63 549.608 -297.265 547.101 -290.205 547.438L-215.056 551.021L-168.706 553.232C-156.807 555.743 -130.088 560.671 -118.408 560.295C-112.504 560.105 -104.854 559.633 -96.8588 559.139L-96.8568 559.139C-85.0813 558.412 -72.5574 557.639 -63.7598 557.653L-62.5504 557.655C-47.7125 557.677 -24.8334 557.712 -19.4459 559.766C-16.9543 565.263 -6.76639 575.94 14.053 574.678L74.7824 572.909L161.864 568.801C161.595 566.294 156.286 561.052 137.203 560.142L207.222 557.163C221.069 556.884 252.018 556.52 265.043 557.297L268.507 557.503C286.703 558.586 324.593 560.842 329.475 561.438C333.649 561.948 414.218 565.609 453.98 567.375C464.531 569.628 492.95 573.957 522.217 573.253C524.261 574.549 529.358 577.19 533.391 577.382C529.791 578.15 524.71 580.078 533.188 581.649C541.666 583.219 567.685 583.78 579.635 583.864C582.481 581.246 583.374 576.383 564.176 577.878C569.258 567.106 569.743 545.508 531.034 545.295C529.068 536.26 521.034 516.128 504.634 507.882C506.855 499.339 504.611 480.63 477.864 474.145C480.196 463.954 483.187 442.405 476.49 437.732C473.603 435.099 466.012 430.021 458.746 430.763C462.654 420.809 458.763 399.819 411.931 395.486C406.243 393.174 391.471 389.612 377.896 393.863C372.674 384.479 353.386 366.532 318.009 369.821C273.787 373.932 232.293 318.792 268.444 300.495C273.572 298.958 287.525 300.647 302.322 319.701C303.339 318.746 304.299 315.325 300 309.289C294.626 301.743 275.307 280.899 256.703 291.966C248.556 285.487 227.397 276.748 207.933 293.625C204.377 298.217 197.911 310.174 200.492 321.26L200.044 330.666C191.035 334.804 172.875 346.864 172.309 361.998C156.451 362.343 122.071 369.166 111.416 393.693C101.159 392.07 78.1548 397.841 68.1933 433.908C77.5316 432.378 98.8472 430.628 109.404 435.874C122.601 442.431 135.797 451.03 141.262 475.004C140.956 477.355 135.929 474.75 129.359 465.787C126.702 462.162 109.634 460.415 101.322 466.783C100.901 467.105 100.474 467.434 100.04 467.769C89.746 475.703 75.4462 486.725 49.3462 480.632C46.0428 486.046 35.9387 497.661 21.9493 500.804C5.00809 504.609 4.83931 504.836 2.48541 508.004C2.4096 508.106 2.33154 508.211 2.25057 508.32C2.00366 508.308 1.66113 508.25 1.22921 508.178C-3.93646 507.312 -21.8893 504.303 -41.9925 551.596C-45.072 546.201 -47.1849 531.27 -31.0004 514.703C-14.8159 498.137 -1.70421 495.464 2.82858 496.199C3.89287 485.429 12.4184 464.662 38.0065 467.748C38.2918 460.408 41.3327 444.873 51.2143 441.457C47.7394 434.164 46.6467 414.551 70.0753 394.443C67.573 389.173 66.0631 375.456 80.042 362.749C94.0209 350.043 107.997 352.614 113.238 355.488C123.583 338.941 152.888 310.69 187.341 330.06C189.92 330.993 193.059 330.391 184.977 320.52C181.684 310.093 179.648 284.306 197.85 264.571ZM-5.74807 258.251C-1.33439 267.597 8.01449 281.467 8.01449 281.467C14.5899 279.448 31.7725 275.24 49.5032 281.684C49.5032 281.684 59.3372 291.495 69.2285 291.954C79.1197 292.414 96.4834 281.281 92.3177 264.288C92.1228 264.74 91.9297 265.195 91.7359 265.652L91.7357 265.652L91.7354 265.653C88.4536 273.389 84.9948 281.542 69.7597 280.816C65.1546 279.559 56.6774 274.717 59.9588 258.08C58.2844 255.149 51.7512 250.846 39.0139 257.081C34.9873 259.999 -5.74807 258.251 -5.74807 258.251ZM149.542 531.671C156.333 527.848 171.95 523.177 180.091 535.072C185.257 530.005 198.817 520.648 211.731 523.752C209.109 513.519 210.418 489.324 236.632 474.402C235.998 460.506 244.085 432.228 281.498 430.28C281.648 430.167 281.859 429.989 282.131 429.761C286.249 426.299 304.309 411.118 334.784 429.711C341.052 425.993 359.763 422.738 384.468 439.467C386.124 440.064 389.491 440.095 389.713 435.44C383.569 428.409 366.062 414.564 345.183 415.434C343.916 406.692 336.881 392.258 318.883 404.462C311.015 395.534 288.45 380.696 261.128 392.766C232.987 405.199 230.416 423.865 229.152 433.037C228.883 434.996 228.672 436.522 228.286 437.461C226.701 438.412 225.067 439.25 223.416 440.096C216.31 443.737 208.897 447.537 203.83 461.175C203.337 463.354 202.895 469.372 205.066 476.007C190.161 478.795 174.512 495.542 180.849 519.169L177.986 522.143C173.861 518.966 163.54 513.679 155.25 517.948C151.814 519.34 145.863 524.032 149.542 531.671Z" fill="url(#paint1_linear_194_380)"/>
<path d="M325.091 575.907C355.023 572.669 374.927 576.34 381.138 578.58C377.706 580.438 358.941 581.409 349.988 581.662C353.529 582.803 365.934 585.999 387.218 589.657C408.503 593.316 413.799 596.108 413.787 597.047C410.32 597.724 393.699 599.277 354.941 600.072C316.184 600.868 300.692 596.384 297.791 594.043C286.666 592.961 261.961 590.507 252.143 589.339C239.869 587.879 242.603 581.498 255.888 580.09C266.516 578.964 306.451 576.832 325.091 575.907Z" fill="white"/>
<path d="M329.529 580.685C336.844 577.302 366.34 577.775 380.174 578.435C375.712 580.71 358.256 581.536 350.086 581.665L361.962 585.342L337.527 584.176C333.803 583.999 330.644 581.775 329.529 580.685Z" fill="#AFD0D0"/>
<path d="M295.637 582.179C283.535 581.602 256.807 583.955 244.955 585.204C237.301 589.193 277.486 593.235 298.536 594.757C326.719 603.745 386.904 600.342 413.474 597.517C413.93 596.113 412.436 593.191 402.817 592.732C390.793 592.159 370.033 595.445 367.318 595.316C352.601 590.882 333.259 592.137 325.428 593.318C290.291 593.198 290.927 585.842 295.637 582.179Z" fill="#AFD0D0"/>
<defs>
<linearGradient id="paint0_linear_194_380" x1="1315.05" y1="123.327" x2="1540.28" y2="351.011" gradientUnits="userSpaceOnUse">
<stop stop-color="#89E4F5"/>
<stop offset="1" stop-color="#61C8EE"/>
</linearGradient>
<linearGradient id="paint1_linear_194_380" x1="122.07" y1="276.759" x2="347.298" y2="504.442" gradientUnits="userSpaceOnUse">
<stop stop-color="#89E4F5"/>
<stop offset="1" stop-color="#61C8EE"/>
</linearGradient>
</defs>
</svg>
