<svg width="385" height="868" viewBox="0 0 385 868" fill="none" xmlns="http://www.w3.org/2000/svg">
<path fill-rule="evenodd" clip-rule="evenodd" d="M152.343 245.738L235.812 181.1L216.023 133.175C210.949 136.698 201.207 146.693 202.83 158.49C204.672 171.871 196.486 174.526 193.059 175.638C192.71 175.751 192.41 175.848 192.175 175.939C191.085 176.361 190.651 175.47 190.088 174.314C189.34 172.779 188.365 170.778 185.325 170.778C179.997 170.778 177.713 174.465 178.221 175.939C178.221 175.202 178.779 173.875 181.012 174.465C182.957 174.979 183.176 176.925 183.389 178.807C183.481 179.625 183.572 180.43 183.802 181.1C183.828 181.174 183.854 181.251 183.881 181.33C184.668 183.634 186.238 188.228 190.653 188.228C195.219 188.228 195.727 198.55 185.832 197.075C175.938 195.601 170.61 197.567 166.804 201.008C162.998 204.449 159.7 208.627 159.7 210.101C159.7 210.177 159.701 210.272 159.702 210.382C159.716 212.421 159.771 220.046 156.402 222.144C154.942 223.053 152.24 223.671 149.316 224.341C145.126 225.3 140.481 226.363 138.389 228.534C135.547 231.483 134.837 238.447 134.837 241.56L152.343 245.738ZM213.74 140.057C210.442 141.941 204.15 147.086 205.368 152.591C206.585 158.096 211.456 146.529 213.74 140.057ZM174.923 201.008C170.863 202.155 162.593 205.186 161.984 208.135L174.923 201.008Z" fill="#160903"/>
<path fill-rule="evenodd" clip-rule="evenodd" d="M226.933 79.8435C233.225 74.7315 239.195 75.9112 241.394 77.14L249.005 78.6147L254.333 77.14C267.932 71.4382 277.42 91.8043 280.465 102.7C286.574 148.947 296.526 155.36 301.838 158.784C302.483 159.2 303.059 159.571 303.552 159.964C306.298 162.155 306.536 163.918 306.753 165.523C306.896 166.581 307.029 167.57 307.865 168.566C307.998 168.724 308.131 168.883 308.266 169.043C311.146 172.465 314.461 176.405 314.461 181.1C314.461 182.201 314.354 183.392 314.24 184.653C313.829 189.194 313.336 194.638 317.506 200.025C321.197 204.792 329.393 210.031 335.514 213.944C338.229 215.68 340.537 217.154 341.862 218.212C345.312 220.964 345.837 233.941 345.667 240.085L340.34 237.706C338.731 235.468 335.109 229.959 333.49 225.831C332.204 222.555 329.996 222.15 326.997 221.601C325.271 221.284 323.282 220.92 321.058 219.932C317.672 218.429 317.895 216.745 318.236 214.168C318.509 212.111 318.857 209.484 317.506 205.923C315.158 199.738 308.133 198.415 303.645 197.57C302.313 197.32 301.204 197.111 300.508 196.83C297.463 195.601 297.971 191.177 303.552 186.753C308.017 183.214 307.442 181.51 306.597 181.1C306.597 183.394 295.687 190.44 291.882 181.1C290.128 176.798 287.567 174.79 284.868 172.675C281.709 170.199 278.361 167.574 275.898 160.947C272.245 151.117 274.376 137.681 275.898 132.192L250.781 110.319H242.662L216.023 133.175C210.949 136.698 201.207 146.693 202.83 158.49C204.672 171.871 196.486 174.526 193.059 175.638C192.71 175.751 192.41 175.848 192.175 175.939C191.085 176.361 190.651 175.47 190.088 174.314C189.34 172.779 188.365 170.778 185.325 170.778C179.997 170.778 177.713 174.465 178.221 175.939C178.221 175.202 178.779 173.875 181.012 174.465C182.957 174.979 183.176 176.925 183.389 178.807C183.481 179.625 183.572 180.43 183.802 181.1C183.828 181.174 183.854 181.251 183.881 181.33C184.668 183.634 186.238 188.228 190.653 188.228C195.219 188.228 195.727 198.55 185.832 197.075C175.938 195.601 170.61 197.567 166.804 201.008C162.998 204.449 159.7 208.627 159.7 210.101C159.7 210.177 159.701 210.272 159.702 210.382C159.716 212.421 159.771 220.046 156.402 222.144C154.942 223.053 152.24 223.671 149.316 224.341C145.126 225.3 140.481 226.363 138.389 228.534C135.547 231.483 134.837 238.447 134.837 241.56L152.343 245.738C143.801 248.114 124.689 251.194 116.57 244.509C108.452 237.824 114.54 230.254 118.6 227.305C116.908 228.534 114.794 232.024 119.868 236.153C126.211 241.314 133.061 232.712 130.27 220.178C128.495 212.203 139.043 205.422 148.129 199.582C153.323 196.243 158.039 193.211 159.7 190.44C161.365 187.662 163.704 186.616 165.661 185.741C169.071 184.215 171.318 183.21 166.804 174.465C162.149 165.446 173.399 156.006 184.492 146.696C190.328 141.799 196.121 136.937 199.532 132.192C204.148 125.772 208.709 115.34 213.06 105.388C218.035 94.0064 222.737 83.2525 226.933 79.8435ZM213.74 140.057C210.442 141.941 204.15 147.086 205.368 152.591C206.585 158.096 211.456 146.529 213.74 140.057ZM174.923 201.008C170.863 202.155 162.593 205.186 161.984 208.135L174.923 201.008ZM309.895 201.499C310.896 204.88 313.413 212.103 315.476 213.944C318.055 216.245 316.999 204.203 309.895 201.499Z" fill="#2F1216"/>
<path fill-rule="evenodd" clip-rule="evenodd" d="M275.898 132.192L264.228 163.405L262.959 190.44L306.597 222.635L340.34 237.706C338.731 235.468 335.109 229.959 333.49 225.831C332.204 222.555 329.996 222.15 326.997 221.601C325.271 221.284 323.282 220.92 321.058 219.932C317.672 218.429 317.895 216.745 318.236 214.168C318.509 212.111 318.857 209.484 317.506 205.923C315.158 199.738 308.133 198.415 303.645 197.57C302.313 197.32 301.204 197.111 300.508 196.83C297.463 195.601 297.971 191.177 303.552 186.753C308.017 183.214 307.442 181.51 306.597 181.1C306.597 183.394 295.687 190.44 291.882 181.1C290.128 176.798 287.567 174.79 284.868 172.675C281.709 170.199 278.361 167.574 275.898 160.947C272.245 151.117 274.376 137.681 275.898 132.192ZM309.895 201.499C310.896 204.88 313.413 212.103 315.476 213.944C318.055 216.245 316.999 204.203 309.895 201.499Z" fill="#160903"/>
<path fill-rule="evenodd" clip-rule="evenodd" d="M228.708 160.209L227.693 179.871C219.067 187.899 200.75 204.497 196.487 206.659C191.16 209.363 270.062 249.669 305.328 217.227C295.856 208.052 271.686 185.622 266.003 183.066V160.209C264.058 175.692 257.123 205.332 244.945 200.024C232.768 194.715 229.046 171.269 228.708 160.209Z" fill="#FFF1DC"/>
<path d="M266.003 160.209H228.708C229.046 171.269 232.768 194.715 244.945 200.024C257.123 205.332 264.058 175.692 266.003 160.209Z" fill="#E5BCB9"/>
<path d="M221.608 155.539C220.797 153.77 218.395 142.35 217.549 137.107C216.875 132.928 220.157 130.471 225.738 130.471C236.818 130.471 241.807 118.018 242.99 112.775H247.811H252.034C253.071 118.01 257.441 130.442 267.148 130.442C272.038 130.442 275.74 132.16 275.149 136.331C274.408 141.566 272.749 152.477 272.038 154.244C271.149 156.452 263.147 162.341 261.369 167.003C259.591 171.665 259.591 177.309 258.035 178.781C256.479 180.253 250.348 180.854 247.811 181.099C244.766 181.099 237.916 180.362 236.14 178.887C234.364 177.413 234.364 171.76 232.335 167.09C230.305 162.421 222.623 157.751 221.608 155.539Z" fill="#FFF1DC"/>
<path d="M266.849 130.886C253.272 131.525 249.563 116.595 249.406 109.05H243.513C244.063 116.24 239.618 128.997 222.619 134.881C218.814 140.303 220.776 146.38 221.605 152.583C220.928 154.385 220.021 155.49 218.306 152.583C216.277 149.142 214.247 141.816 214.247 134.881C214.247 125.065 221.351 117.938 226.425 112.285C230.484 107.763 239.509 108.244 243.513 109.05H249.406L272.506 106.387L277.927 145.266C275.177 151.48 269.583 161.99 269.206 154.321C268.735 144.734 273.92 142.071 272.506 136.212C271.375 131.525 268.263 130.709 266.849 130.886Z" fill="#381B0E"/>
<path d="M231.755 89.9173V96.7989C230.906 97.147 229.623 97.4388 228.204 97.5413L238.352 114.258C242.236 114.609 246.396 114.703 250.784 114.443L234.293 90.3751C233.069 90.272 232.18 90.1231 231.755 89.9173Z" fill="#F4DE85"/>
<path fill-rule="evenodd" clip-rule="evenodd" d="M212.727 107.121L208.922 84.2646C209.937 85.8376 217.802 87.7054 221.607 88.4427V96.0616C221.993 96.3548 222.419 96.5987 222.875 96.7989L229.98 113.053C222.654 111.592 216.748 109.301 212.727 107.121ZM235.561 113.957C236.475 114.072 237.405 114.172 238.352 114.258L228.204 97.5413C227.514 97.5911 226.793 97.5962 226.073 97.5413L235.561 113.957ZM250.784 114.443L234.293 90.3751C240.084 90.863 253.373 90.3232 260.424 89.9173V96.7989C263.266 97.9786 268.543 97.0447 270.826 96.0616V88.4427L286.81 85.2477L281.228 107.121C270.366 111.759 260.066 113.893 250.784 114.443Z" fill="#E19059"/>
<path d="M222.875 96.7989L229.98 113.053C231.759 113.408 233.621 113.714 235.561 113.957L226.073 97.5413C224.96 97.4564 223.851 97.2278 222.875 96.7989Z" fill="#F4DE85"/>
<path d="M239.483 137.353C241.231 136.566 240.373 134.076 239.725 132.929L227.342 129.979L225.156 131.7L227.584 130.963C230.11 130.963 236.569 135.223 239.483 137.353Z" fill="#2C224D"/>
<path d="M241.182 137.107C241.425 136.206 241.717 134.207 240.94 133.42C241.992 133.912 243.513 135.337 241.182 137.107Z" fill="#2C224D"/>
<path d="M253.585 137.353C251.758 136.566 252.655 134.076 253.331 132.929L266.27 129.979L268.554 131.7L266.017 130.963C263.378 130.963 256.63 135.223 253.585 137.353Z" fill="#2C224D"/>
<path d="M251.809 137.107C251.555 136.206 251.251 134.207 252.063 133.42C250.963 133.912 249.374 135.337 251.809 137.107Z" fill="#2C224D"/>
<path fill-rule="evenodd" clip-rule="evenodd" d="M261.952 140.575C262.967 140.083 267.027 135.168 266.265 135.168C265.757 135.168 262.098 135.924 259.41 136.653C259.918 136.786 260.731 138.969 258.701 139.952C257.077 140.739 256.223 139.695 255.998 139.075C255.562 140.118 254.986 141.443 254.595 142.551C256.709 142.056 261.141 140.968 261.952 140.575Z" fill="#243050"/>
<path d="M257.888 137.145C257.748 137.281 256.285 138.39 255.998 139.075C256.223 139.695 257.077 140.739 258.701 139.952C260.731 138.969 259.918 136.786 259.41 136.653C258.076 137.015 258.057 136.982 257.888 137.145Z" fill="#FFF4C7"/>
<path fill-rule="evenodd" clip-rule="evenodd" d="M231.503 141.06C230.475 140.553 226.362 135.489 227.133 135.489C227.648 135.489 231.607 136.393 234.331 137.145C233.817 137.281 232.788 139.287 234.845 140.3C236.49 141.11 237.356 140.035 237.583 139.396C238.025 140.471 238.561 141.954 238.958 143.096C236.816 142.586 232.326 141.465 231.503 141.06Z" fill="#243050"/>
<path d="M236.323 137.842C236.466 137.983 237.293 138.691 237.583 139.396C237.356 140.035 236.49 141.11 234.845 140.3C232.788 139.287 233.817 137.281 234.331 137.145C235.683 137.518 236.153 137.674 236.323 137.842Z" fill="#FFF4C7"/>
<path d="M257.888 146.198C257.963 145.982 254.844 145.461 254.595 142.551M254.595 142.551C256.709 142.056 261.141 140.968 261.952 140.575C262.967 140.083 267.027 135.168 266.265 135.168C265.757 135.168 262.098 135.924 259.41 136.653M254.595 142.551C254.986 141.443 255.562 140.118 255.998 139.075M255.998 139.075C256.285 138.39 257.748 137.281 257.888 137.145C258.057 136.982 258.076 137.015 259.41 136.653M255.998 139.075C256.223 139.695 257.077 140.739 258.701 139.952C260.731 138.969 259.918 136.786 259.41 136.653M234.331 146.198C234.255 145.975 239.438 144.478 238.958 143.096M238.958 143.096C236.816 142.586 232.326 141.465 231.503 141.06C230.475 140.553 226.362 135.489 227.133 135.489C227.648 135.489 231.607 136.393 234.331 137.145M238.958 143.096C238.561 141.954 238.025 140.471 237.583 139.396M237.583 139.396C237.293 138.691 236.466 137.983 236.323 137.842C236.153 137.674 235.683 137.518 234.331 137.145M237.583 139.396C237.356 140.035 236.49 141.11 234.845 140.3C232.788 139.287 233.817 137.281 234.331 137.145" stroke="#222E4E" stroke-width="2.00926"/>
<path d="M250.781 147.918C249.969 146.738 249.766 143.986 249.766 142.757C247.427 138.036 245.056 140.495 244.048 142.511C243.84 143.904 243.262 146.914 242.916 147.918C242.409 149.393 243.677 153.571 243.17 155.045C242.608 156.679 241.901 156.274 241.14 157.503C240.887 158.24 241.14 159.224 241.394 159.715C244.048 159.961 244.777 161.19 244.946 161.927H247.736C247.99 161.681 247.736 161.435 248.244 160.452C248.773 159.427 250.358 159.551 251.035 159.715C251.373 159.551 251.999 158.978 251.796 157.995C251.542 156.766 250.274 156.274 250.274 154.8C250.274 153.325 251.796 149.393 250.781 147.918Z" fill="url(#paint0_linear_1677_6233)"/>
<ellipse cx="4.30069" cy="7.64198" rx="4.30069" ry="7.64198" transform="matrix(0.95528 0.295703 -0.31326 0.949667 262.929 145.216)" fill="#F1D0CE"/>
<ellipse cx="4.29102" cy="7.66107" rx="4.29102" ry="7.66107" transform="matrix(-0.916209 0.4007 0.422428 0.906397 229.47 145.706)" fill="#F1D0CE"/>
<path fill-rule="evenodd" clip-rule="evenodd" d="M364.959 330.769C369.52 321.319 377.11 305.596 372.561 297.839C367.674 289.507 359.1 227.614 354.998 194.371C352.55 196.91 346.923 202.284 343.997 203.464C343.525 214.741 342.378 232.835 341.178 251.77C339.019 285.827 336.688 322.605 337.803 327.332C339.639 335.114 349.989 339.878 354.575 341.99C355.058 342.212 355.478 342.405 355.816 342.569C359.368 344.29 362.159 341.341 361.905 338.146C361.833 337.242 363.161 334.493 364.959 330.769Z" fill="#FFF1DC"/>
<path d="M354.548 190.684C350.742 187.571 343.334 183.606 344.146 192.65C344.293 194.29 344.221 198.108 343.997 203.464C346.923 202.284 352.55 196.91 354.998 194.371C354.841 193.098 354.691 191.868 354.548 190.684Z" fill="#E5BCB9"/>
<path d="M333.491 81.0707C335.671 81.8129 339.667 83.2395 342.37 84.5019L337.804 72.0871C333.259 70.6272 328.33 68.0718 326.461 64.1651L333.491 81.0707Z" fill="#F4DE85"/>
<path fill-rule="evenodd" clip-rule="evenodd" d="M384.739 0.949871C381.138 2.09679 374.265 14.6638 375.58 55.7564C376.676 63.4572 374.359 79.3503 356.321 81.3165V86.2318L346.927 93.1134L338.565 867.533H334.505L343.639 92.8676L333.491 85.9861V81.0707C335.671 81.8129 339.667 83.2395 342.37 84.5019L337.804 72.0871C339.957 72.7791 342.025 73.2249 343.639 73.4518L347.567 84.5019C348.519 84.0948 349.623 83.6754 350.743 83.2705L346.927 72.8397C352.702 71.5854 361.44 68.7734 363.132 63.6211C365.716 55.7564 367.829 34.1287 366.89 25.281C365.951 16.4333 378.163 2.91603 384.739 0.949871ZM326.461 64.1651L333.491 81.0707C314.006 79.1045 311.503 63.2114 312.687 55.5107C314.107 14.418 306.682 1.85103 302.792 0.704102C309.896 2.67026 323.089 16.1876 322.074 25.0353C321.059 33.883 323.342 55.5107 326.133 63.3753L326.461 64.1651Z" fill="#E19059"/>
<path d="M343.639 73.4518L347.567 84.5019C348.519 84.0948 349.623 83.6754 350.743 83.2705L346.927 72.8397C345.65 73.1171 344.518 73.3183 343.639 73.4518Z" fill="#F4DE85"/>
<path d="M356.833 174.954C357.594 176.92 359.37 178.149 359.37 180.606C359.37 183.064 357.594 182.818 356.833 185.03C356.072 187.242 357.341 187.734 357.594 189.208C357.848 190.683 357.848 191.912 356.326 192.403C354.804 192.895 336.283 194.124 334.507 192.895C332.731 191.666 333.492 187.242 334.507 186.75C333.978 185.931 333.318 184.388 333.392 182.818C332.785 183.31 328.672 184.047 330.194 180.606C331.401 177.878 331.981 173.313 332.073 171.319C332.074 171.302 332.075 171.284 332.076 171.267C332.089 171.033 332.135 170.786 332.224 170.53C332.985 168.318 340.557 165.931 342.879 165.368C345.924 164.631 349.331 163.346 350.744 163.894C351.367 164.135 353.281 165.368 354.804 165.86C356.833 166.597 358.265 166.816 358.609 168.318C358.44 172.004 356.249 173.444 356.833 174.954Z" fill="#FFF1DC"/>
<path d="M334.507 186.75C333.492 187.242 332.731 191.666 334.507 192.895C336.283 194.124 354.804 192.895 356.326 192.403C357.848 191.912 357.848 190.683 357.594 189.208C357.341 187.734 356.072 187.242 356.833 185.03C357.594 182.818 359.37 183.064 359.37 180.606C359.37 178.149 357.594 176.92 356.833 174.954C356.249 173.444 358.44 172.004 358.609 168.318C358.265 166.816 356.833 166.597 354.804 165.86C353.281 165.368 351.367 164.135 350.744 163.894C349.331 163.346 345.924 164.631 342.879 165.368C340.557 165.931 332.985 168.318 332.224 170.53C331.615 172.299 332.985 173.561 333.746 173.97M334.507 186.75C335.522 186.259 346.685 186.996 349.73 186.259C352.165 185.669 352.267 184.866 352.013 184.539M334.507 186.75C333.978 185.931 333.318 184.388 333.392 182.818M334.507 180.115C338.736 179.951 347.446 179.574 348.461 179.377C349.476 179.181 350.406 178.476 350.744 178.149M334.507 180.115C333.661 179.213 332.325 176.723 333.746 173.97M334.507 180.115C333.746 180.925 333.437 181.877 333.392 182.818M333.746 173.97C338.144 173.397 347.091 172.201 347.7 172.004C348.309 171.808 348.968 170.939 349.222 170.53M332.076 171.267C331.991 173.233 331.412 177.854 330.194 180.606C328.672 184.047 332.785 183.31 333.392 182.818" stroke="#E5BCB9" stroke-width="2.00926"/>
<path d="M246.725 169.795C245.71 169.795 244.949 169.303 243.935 168.812C243.45 168.577 242.52 168.564 241.651 168.627C242.243 168.279 243.681 167.583 244.696 167.583C245.964 167.583 248.434 167.673 248.755 167.829C249.262 168.075 250.277 168.857 250.785 169.449C250.326 169.367 249.811 169.303 249.262 169.303C247.74 169.303 247.74 169.795 246.725 169.795Z" fill="#C29DAD"/>
<path d="M240.129 168.812C240.504 168.746 241.064 168.669 241.651 168.627C242.52 168.564 243.45 168.577 243.935 168.812C244.949 169.303 245.71 169.795 246.725 169.795C247.74 169.795 247.74 169.303 249.262 169.303C249.811 169.303 250.326 169.367 250.785 169.449C251.6 169.594 252.236 169.795 252.561 169.795" stroke="#9E5F71" stroke-width="2.00926" stroke-linecap="round"/>
<path d="M112.005 646.34C137.376 620.19 143.211 399.014 142.957 291.695C130.357 395.673 101.502 611.756 68.6214 633.069C83.0897 638.905 94.6135 642.309 112.005 646.34Z" fill="#060D1D"/>
<path d="M0.997643 619.797C1.37688 622.556 5.82586 625.45 8.74653 625.45L14.3281 614.882C5.40793 614.882 1.83368 616.569 1.11346 618.595C1.0724 619.005 1.0338 619.405 0.997643 619.797Z" fill="#060D1D"/>
<path d="M303.047 215.015C262.656 236.249 215.179 217.637 196.49 205.676C185.749 210.755 161.63 222.486 151.076 228.778C139.977 235.394 139.473 236.271 135.362 243.406C134.587 244.752 133.683 246.321 132.555 248.194C129.595 253.11 127.208 272.919 124.2 297.877C119.989 332.814 114.563 377.839 104.648 406.224C87.6494 454.886 55.4286 503.794 31.0727 530.829C11.9576 552.046 3.23735 597.39 1.11346 618.595C1.83368 616.569 5.40793 614.882 14.3281 614.882C27.7238 615.668 54.2446 629.136 65.8306 635.772L68.6214 633.069C101.502 611.756 130.357 395.673 142.957 291.695C143.211 399.014 137.376 620.19 112.005 646.34C111.16 647.241 109.265 649.24 108.453 650.027C107.439 651.01 143.085 656.99 160.717 646.832C162.719 645.86 166.677 644.044 169.089 643.145C182.282 638.23 206.131 631.84 235.561 631.84C264.991 631.84 312.941 653.959 308.882 660.349C306.88 663.5 302.164 661.99 298.628 660.857C294.992 659.693 292.603 658.928 295.689 664.036C301.778 674.112 358.862 671.654 360.892 653.959C362.921 636.264 353.281 477.005 342.371 428.834C333.644 390.298 335.859 348.877 338.058 332.984L342.371 239.592C342.033 236.643 340.697 230.351 338.058 228.778C337.296 228.324 336.533 227.935 335.727 227.524C333.045 226.156 329.878 224.541 324.612 219.439C319.132 214.13 307.952 214.278 303.047 215.015Z" fill="url(#paint1_linear_1677_6233)"/>
<ellipse cx="35.7969" cy="18.1923" rx="35.7969" ry="18.1923" transform="matrix(0.765468 -0.643474 0.667236 0.744846 118.094 251.744)" fill="#E19059"/>
<ellipse cx="21.6288" cy="8.4248" rx="21.6288" ry="8.4248" transform="matrix(0.786686 -0.617353 0.641508 0.767116 131.287 243.194)" fill="#EED394"/>
<path d="M137.63 263.922C130.123 264.961 127.566 260.399 127.735 257.286C128.933 262.201 132.556 261.889 136.361 260.973C173.098 252.125 183.297 228.613 183.805 217.963C185.58 221.649 184.723 228.039 183.043 231.972C173.91 253.354 148.285 262.447 137.63 263.922Z" fill="#AE442D"/>
<path d="M245.203 415.808C181.877 394.77 167.399 307.915 168.076 267.117C179.239 274.244 292.138 292.923 276.916 298.576C261.694 304.228 217.295 276.702 239.875 298.576C262.455 320.449 306.346 338.882 245.203 327.085C200.421 318.445 177.456 288.82 169.807 271.555C221.979 403.276 291.015 398.885 319.285 379.925C320.977 400.652 308.528 436.846 245.203 415.808Z" fill="black"/>
<path d="M173.404 507.971C151.077 448.987 157.42 332.082 161.733 296.364C167.213 402.143 226.682 529.271 257.381 564.252C238.691 570.069 195.73 566.956 173.404 507.971Z" fill="black"/>
<path d="M168.076 267.117C167.399 307.915 181.877 394.77 245.203 415.808C308.528 436.846 320.977 400.652 319.285 379.925C290.701 399.095 220.441 403.372 168.076 267.117ZM168.076 267.117C173.404 283.174 196.288 317.647 245.203 327.085C306.346 338.882 262.455 320.449 239.875 298.576C217.295 276.702 261.694 304.228 276.916 298.576C292.138 292.923 179.239 274.244 168.076 267.117ZM161.733 296.364C157.42 332.082 151.077 448.987 173.404 507.971C195.73 566.956 238.691 570.069 257.381 564.252C226.682 529.271 167.213 402.143 161.733 296.364Z" stroke="black" stroke-width="2.00926"/>
<path d="M252.147 861.386C241.707 854.208 225.389 841.6 219.015 831.498C221.841 835.885 229.845 837.601 233.531 837.91C235.626 840.91 244.814 854.917 252.147 861.386Z" fill="#2F1216"/>
<path d="M232.372 833.472C232.731 835.806 233.132 837.338 233.531 837.91L224.489 829.576L227.154 828.726L232.372 833.472Z" fill="#2F1216"/>
<path d="M227.154 828.726L224.489 829.576L223.479 828.645L226.129 827.794L227.154 828.726Z" fill="#2F1216"/>
<path d="M218.873 824.4L218.85 821.172L226.129 827.794L223.479 828.645L221.176 826.523L218.873 824.4Z" fill="#2F1216"/>
<path d="M218.924 831.352L218.914 830.111L223.479 828.645L224.489 829.576L218.924 831.352Z" fill="#2F1216"/>
<path d="M231.582 826.043C231.613 826.466 231.645 826.879 231.678 827.282L227.154 828.726L226.129 827.794L231.582 826.043Z" fill="#2F1216"/>
<path d="M218.85 821.172L218.829 818.193C219.877 817.896 221.497 817.254 223.291 816.231C223.949 816.875 224.634 817.512 225.321 818.129C222.973 819.538 220.47 820.609 218.85 821.172Z" fill="#2F1216"/>
<path d="M225.321 818.129C224.634 817.512 223.949 816.875 223.291 816.231C224.019 815.816 224.775 815.338 225.533 814.796C226.236 815.431 226.937 816.034 227.61 816.59C226.891 817.137 226.115 817.652 225.321 818.129Z" fill="#2F1216"/>
<path d="M231.217 819.348C231.266 820.643 231.324 821.885 231.39 823.068C229.89 821.974 227.589 820.164 225.321 818.129C226.115 817.652 226.891 817.137 227.61 816.59C229.005 817.743 230.281 818.699 231.217 819.348Z" fill="#2F1216"/>
<path d="M218.776 810.744L218.749 806.772C220.145 809.48 222.86 812.38 225.533 814.796C224.775 815.338 224.019 815.816 223.291 816.231C221.37 814.349 219.672 812.407 218.776 810.744Z" fill="#2F1216"/>
<path d="M231.04 809.171C231.038 810.357 231.044 811.516 231.057 812.648C230.449 814.069 229.165 815.405 227.61 816.59C226.937 816.034 226.236 815.431 225.533 814.796C227.513 813.379 229.507 811.518 231.04 809.171Z" fill="#2F1216"/>
<path d="M218.732 804.289L218.708 800.813C219.725 801.029 221.555 800.937 223.774 799.972C224.592 800.812 225.441 801.631 226.277 802.4C223.506 804.027 220.489 804.402 218.732 804.289Z" fill="#2F1216"/>
<path d="M226.277 802.4C225.441 801.631 224.592 800.812 223.774 799.972C224.655 799.588 225.598 799.067 226.575 798.373C227.364 799.095 228.138 799.772 228.859 800.381C228.06 801.205 227.181 801.869 226.277 802.4Z" fill="#2F1216"/>
<path d="M231.458 793.515C231.404 794.576 231.355 795.627 231.312 796.666C230.669 798.166 229.821 799.389 228.859 800.381C228.138 799.772 227.364 799.095 226.575 798.373C228.15 797.253 229.815 795.683 231.458 793.515Z" fill="#2F1216"/>
<path d="M231.129 802.216C231.095 803.652 231.07 805.061 231.056 806.439C229.827 805.5 228.084 804.065 226.277 802.4C227.181 801.869 228.06 801.205 228.859 800.381C229.71 801.099 230.487 801.723 231.129 802.216Z" fill="#2F1216"/>
<path d="M218.656 793.116C218.646 791.632 218.637 790.141 218.627 788.647C219.771 791.61 223.306 795.381 226.575 798.373C225.598 799.067 224.655 799.588 223.774 799.972C221.537 797.675 219.53 795.21 218.656 793.116Z" fill="#2F1216"/>
<path d="M218.594 783.681C218.584 782.024 218.573 780.367 218.563 778.716C219.877 777.738 221.543 776.443 223.3 774.996C223.961 776.202 224.655 777.446 225.359 778.691C222.821 780.914 220.298 782.667 218.594 783.681Z" fill="#2F1216"/>
<path d="M225.359 778.691C224.655 777.446 223.961 776.202 223.3 774.996C224.149 774.297 225.019 773.562 225.881 772.81C226.599 773.937 227.323 775.065 228.03 776.16C227.162 777.055 226.259 777.902 225.359 778.691Z" fill="#2F1216"/>
<path d="M232.209 782.547C232.006 784.912 231.833 787.245 231.687 789.536C229.998 786.73 227.627 782.703 225.359 778.691C226.259 777.902 227.162 777.055 228.03 776.16C229.583 778.563 231.056 780.809 232.209 782.547Z" fill="#2F1216"/>
<path d="M218.478 764.811C218.468 763.218 218.459 761.644 218.45 760.094C218.855 761.538 222.288 767.166 225.881 772.81C225.019 773.562 224.149 774.297 223.3 774.996C220.713 770.277 218.637 766.145 218.478 764.811Z" fill="#2F1216"/>
<path d="M234.584 762.638C234.339 764.22 234.109 765.8 233.893 767.375C232.829 770.508 230.575 773.537 228.03 776.16C227.323 775.065 226.599 773.937 225.881 772.81C230.134 769.102 234.2 764.974 234.584 762.638Z" fill="#2F1216"/>
<path fill-rule="evenodd" clip-rule="evenodd" d="M215.997 641.955C232.445 651.642 247.867 647.633 253.523 644.417C249.698 672.908 242.625 721.933 236.732 750.66C235.915 754.645 235.202 758.65 234.584 762.638C234.2 764.974 230.134 769.102 225.881 772.81C222.288 767.166 218.855 761.538 218.45 760.094C218.359 744.093 218.298 730.661 218.312 725.083C218.342 713.141 216.976 670.355 215.997 641.955ZM233.893 767.375C232.829 770.508 230.575 773.537 228.03 776.16C229.583 778.563 231.056 780.809 232.209 782.547C232.633 777.602 233.187 772.517 233.893 767.375ZM223.3 774.996C221.543 776.443 219.877 777.738 218.563 778.716C218.533 773.999 218.504 769.328 218.478 764.811C218.637 766.145 220.713 770.277 223.3 774.996ZM231.687 789.536C229.998 786.73 227.627 782.703 225.359 778.691C222.821 780.914 220.298 782.667 218.594 783.681C218.605 785.337 218.616 786.994 218.627 788.647C219.771 791.61 223.306 795.381 226.575 798.373C228.15 797.253 229.815 795.683 231.458 793.515C231.526 792.204 231.602 790.877 231.687 789.536ZM223.774 799.972C221.555 800.937 219.725 801.029 218.708 800.813C218.691 798.28 218.673 795.708 218.656 793.116C219.53 795.21 221.537 797.675 223.774 799.972ZM231.312 796.666C231.233 798.556 231.173 800.408 231.129 802.216C230.487 801.723 229.71 801.099 228.859 800.381C229.821 799.389 230.669 798.166 231.312 796.666ZM231.04 809.171C231.041 808.275 231.046 807.364 231.056 806.439C229.827 805.5 228.084 804.065 226.277 802.4C223.506 804.027 220.489 804.402 218.732 804.289L218.749 806.772C220.145 809.48 222.86 812.38 225.533 814.796C227.513 813.379 229.507 811.518 231.04 809.171ZM231.057 812.648C230.449 814.069 229.165 815.405 227.61 816.59C229.005 817.743 230.281 818.699 231.217 819.348C231.138 817.248 231.083 815.009 231.057 812.648ZM223.291 816.231C221.497 817.254 219.877 817.896 218.829 818.193C218.812 815.797 218.794 813.307 218.776 810.744C219.672 812.407 221.37 814.349 223.291 816.231ZM231.39 823.068C229.89 821.974 227.589 820.164 225.321 818.129C222.973 819.538 220.47 820.609 218.85 821.172L226.129 827.794L231.582 826.043C231.512 825.098 231.448 824.105 231.39 823.068ZM231.678 827.282C231.878 829.718 232.114 831.8 232.372 833.472L227.154 828.726L231.678 827.282ZM218.914 830.111L223.479 828.645L221.176 826.523L218.873 824.4C218.887 826.403 218.901 828.312 218.914 830.111ZM224.489 829.576L233.531 837.91C229.845 837.601 221.841 835.885 219.015 831.498C218.984 831.449 218.953 831.401 218.924 831.352L224.489 829.576Z" fill="#FFF1DC"/>
<path d="M215.554 629.302L254.871 634.199C254.486 637.174 254.033 640.613 253.523 644.417C247.867 647.633 232.445 651.642 215.997 641.955C215.836 637.28 215.686 632.995 215.554 629.302Z" fill="#ECCECB"/>
<path d="M188.386 862.017C197.929 854.635 212.808 841.72 218.481 831.551C215.963 835.969 208.545 837.881 205.116 838.286C203.242 841.311 195.051 855.419 188.386 862.017Z" fill="#2F1216"/>
<path d="M206.078 833.863C205.805 836.182 205.473 837.71 205.116 838.286L213.325 829.796L210.816 829.026L206.078 833.863Z" fill="#2F1216"/>
<path d="M210.816 829.026L213.325 829.796L214.242 828.848L211.747 828.076L210.816 829.026Z" fill="#2F1216"/>
<path d="M218.423 824.523L218.358 821.328L211.747 828.076L214.242 828.848L216.332 826.686L218.423 824.523Z" fill="#2F1216"/>
<path d="M218.562 831.405L218.537 830.176L214.242 828.848L213.325 829.796L218.562 831.405Z" fill="#2F1216"/>
<path d="M206.615 826.49C206.598 826.908 206.579 827.318 206.559 827.718L210.816 829.026L211.747 828.076L206.615 826.49Z" fill="#2F1216"/>
<path d="M218.358 821.328L218.298 818.379C217.312 818.113 215.784 817.521 214.083 816.556C213.487 817.212 212.866 817.861 212.241 818.489C214.469 819.821 216.832 820.814 218.358 821.328Z" fill="#2F1216"/>
<path d="M212.241 818.489C212.866 817.861 213.487 817.212 214.083 816.556C213.393 816.165 212.676 815.713 211.954 815.196C211.315 815.844 210.678 816.459 210.066 817.027C210.75 817.55 211.488 818.039 212.241 818.489Z" fill="#2F1216"/>
<path d="M206.776 819.854C206.765 821.136 206.744 822.367 206.714 823.54C208.083 822.417 210.181 820.564 212.241 818.489C211.488 818.039 210.75 817.55 210.066 817.027C208.796 818.206 207.631 819.186 206.776 819.854Z" fill="#2F1216"/>
<path d="M218.146 811.006L218.065 807.074C216.836 809.791 214.382 812.734 211.954 815.196C212.676 815.713 213.393 816.165 214.083 816.556C215.824 814.643 217.355 812.676 218.146 811.006Z" fill="#2F1216"/>
<path d="M206.667 809.777C206.701 810.95 206.726 812.098 206.745 813.218C207.35 814.608 208.583 815.896 210.066 817.027C210.678 816.459 211.315 815.844 211.954 815.196C210.069 813.847 208.16 812.059 206.667 809.777Z" fill="#2F1216"/>
<path d="M218.015 804.616L217.943 801.175C217.001 801.416 215.291 801.374 213.197 800.478C212.456 801.332 211.686 802.165 210.927 802.948C213.555 804.484 216.379 804.775 218.015 804.616Z" fill="#2F1216"/>
<path d="M210.927 802.948C211.686 802.165 212.456 801.332 213.197 800.478C212.364 800.122 211.471 799.631 210.542 798.97C209.825 799.706 209.121 800.397 208.465 801.019C209.233 801.813 210.07 802.447 210.927 802.948Z" fill="#2F1216"/>
<path d="M205.857 794.294C205.936 795.342 206.01 796.381 206.078 797.408C206.718 798.876 207.541 800.063 208.465 801.019C209.121 800.397 209.825 799.706 210.542 798.97C209.042 797.904 207.447 796.395 205.857 794.294Z" fill="#2F1216"/>
<path d="M206.397 802.896C206.468 804.316 206.529 805.71 206.579 807.074C207.7 806.112 209.287 804.644 210.927 802.948C210.07 802.447 209.233 801.813 208.465 801.019C207.691 801.753 206.983 802.391 206.397 802.896Z" fill="#2F1216"/>
<path d="M217.785 793.556C217.754 792.087 217.723 790.611 217.692 789.133C216.705 792.095 213.51 795.922 210.542 798.97C211.471 799.631 212.364 800.122 213.197 800.478C215.22 798.145 217.026 795.652 217.785 793.556Z" fill="#2F1216"/>
<path d="M217.589 784.217C217.555 782.576 217.52 780.936 217.485 779.302C216.233 778.369 214.645 777.133 212.968 775.747C212.384 776.958 211.77 778.208 211.147 779.459C213.574 781.592 215.973 783.259 217.589 784.217Z" fill="#2F1216"/>
<path d="M211.147 779.459C211.77 778.208 212.384 776.958 212.968 775.747C212.158 775.078 211.326 774.374 210.502 773.653C209.863 774.787 209.218 775.923 208.588 777.025C209.422 777.888 210.286 778.703 211.147 779.459Z" fill="#2F1216"/>
<path d="M204.862 783.459C205.115 785.794 205.339 788.098 205.537 790.361C207.036 787.539 209.139 783.491 211.147 779.459C210.286 778.703 209.422 777.888 208.588 777.025C207.204 779.445 205.891 781.708 204.862 783.459Z" fill="#2F1216"/>
<path d="M217.191 765.539C217.157 763.961 217.124 762.403 217.09 760.869C216.751 762.31 213.701 767.971 210.502 773.653C211.326 774.374 212.158 775.078 212.968 775.747C215.253 771.008 217.078 766.863 217.191 765.539Z" fill="#2F1216"/>
<path d="M202.113 763.818C202.384 765.378 202.641 766.935 202.885 768.488C203.96 771.561 206.144 774.498 208.588 777.025C209.218 775.923 209.863 774.787 210.502 773.653C206.436 770.097 202.533 766.121 202.113 763.818Z" fill="#2F1216"/>
<path fill-rule="evenodd" clip-rule="evenodd" d="M216.205 643.883C201.127 653.91 186.637 650.355 181.277 647.324C185.609 675.418 193.521 723.749 199.788 752.021C200.657 755.943 201.429 759.888 202.113 763.818C202.533 766.121 206.436 770.097 210.502 773.653C213.701 767.971 216.751 762.31 217.09 760.869C216.746 745.031 216.442 731.736 216.279 726.216C215.93 714.398 216.056 672.016 216.205 643.883ZM202.885 768.488C203.96 771.561 206.144 774.498 208.588 777.025C207.204 779.445 205.891 781.708 204.862 783.459C204.334 778.576 203.681 773.558 202.885 768.488ZM212.968 775.747C214.645 777.133 216.233 778.369 217.485 779.302C217.386 774.633 217.288 770.009 217.191 765.539C217.078 766.863 215.253 771.008 212.968 775.747ZM205.537 790.361C207.036 787.539 209.139 783.491 211.147 779.459C213.574 781.592 215.973 783.259 217.589 784.217C217.624 785.856 217.658 787.496 217.692 789.133C216.705 792.095 213.51 795.922 210.542 798.97C209.042 797.904 207.447 796.395 205.857 794.294C205.759 792.998 205.652 791.687 205.537 790.361ZM213.197 800.478C215.291 801.374 217.001 801.416 217.943 801.175C217.891 798.668 217.838 796.122 217.785 793.556C217.026 795.652 215.22 798.145 213.197 800.478ZM206.078 797.408C206.202 799.276 206.308 801.107 206.397 802.896C206.983 802.391 207.691 801.753 208.465 801.019C207.541 800.063 206.718 798.876 206.078 797.408ZM206.667 809.777C206.642 808.89 206.613 807.989 206.579 807.074C207.7 806.112 209.287 804.644 210.927 802.948C213.555 804.484 216.379 804.775 218.015 804.616L218.065 807.074C216.836 809.791 214.382 812.734 211.954 815.196C210.069 813.847 208.16 812.059 206.667 809.777ZM206.745 813.218C207.35 814.608 208.583 815.896 210.066 817.027C208.796 818.206 207.631 819.186 206.776 819.854C206.793 817.773 206.784 815.555 206.745 813.218ZM214.083 816.556C215.784 817.521 217.312 818.113 218.298 818.379C218.249 816.007 218.199 813.542 218.146 811.006C217.355 812.676 215.824 814.643 214.083 816.556ZM206.714 823.54C208.083 822.417 210.181 820.564 212.241 818.489C214.469 819.821 216.832 820.814 218.358 821.328L211.747 828.076L206.615 826.49C206.655 825.552 206.688 824.568 206.714 823.54ZM206.559 827.718C206.438 830.134 206.273 832.201 206.078 833.863L210.816 829.026L206.559 827.718ZM218.537 830.176L214.242 828.848L216.332 826.686L218.423 824.523C218.463 826.506 218.501 828.396 218.537 830.176ZM213.325 829.796L205.116 838.286C208.545 837.881 215.963 835.969 218.481 831.551C218.509 831.503 218.536 831.454 218.562 831.405L213.325 829.796Z" fill="#FFF1DC"/>
<path d="M216.279 631.349L179.745 637.247C180.183 640.181 180.698 643.572 181.277 647.324C186.637 650.355 201.127 653.91 216.205 643.883C216.23 639.252 216.255 635.007 216.279 631.349Z" fill="#ECCECB"/>
<path d="M335.266 81.3164L345.668 86.9691L355.055 81.3164" stroke="#7B4E2C" stroke-width="8.03704" stroke-linecap="round"/>
<path d="M209.365 85.1641C211.733 86.2291 217.027 88.6048 220.275 88.6048M257.823 90.3252C254.271 91.0625 247.421 91.5541 231.691 90.3252V97.2068M284.97 85.9014C280.911 86.8844 279.642 87.1302 271.27 88.6048V95.9779" stroke="#FFF8ED" stroke-width="8.03704" stroke-linecap="round"/>
<defs>
<linearGradient id="paint0_linear_1677_6233" x1="246.975" y1="160.944" x2="246.499" y2="136.858" gradientUnits="userSpaceOnUse">
<stop stop-color="#F0CCCC"/>
<stop offset="1" stop-color="#F3E9DD"/>
</linearGradient>
<linearGradient id="paint1_linear_1677_6233" x1="181.068" y1="205.676" x2="181.068" y2="669.946" gradientUnits="userSpaceOnUse">
<stop stop-color="#060D1D"/>
<stop offset="1" stop-color="#59707C"/>
</linearGradient>
</defs>
</svg>
