<svg width="1066" height="148" viewBox="0 0 1066 148" fill="none" xmlns="http://www.w3.org/2000/svg">
<path d="M41.9211 148.006H0.667969V43.467L7.23097 19.5589L116.927 27.5283L128.646 36.4352L138.96 27.5283H191.464L211.153 36.4352L224.279 27.5283H385.072L395.854 36.4352L411.324 27.5283H466.172L489.611 36.4352V27.5283H768.07L777.446 36.4352L839.794 45.3421L851.514 40.6543L866.984 27.5283L880.579 36.4352H907.768L914.331 27.5283H960.741V54.249L1061.53 36.4352L1065.75 50.4988L1015.12 71.1253L1057.78 84.7201V114.254L960.741 148.006L949.49 138.63L938.239 148.006H861.827L851.514 125.504H782.134L783.071 148.006H750.256L746.506 138.63L743.693 148.006H719.316H711.816H681.814H673.375H640.092V99.2525L616.652 132.067V148.006H489.611L483.986 138.63L474.61 148.006H411.324L402.417 138.63L395.854 148.006H294.128L291.315 138.63L281.471 148.006H236.936L228.029 138.63L224.279 148.006H111.77L108.957 142.85L106.614 148.006H70.0482V102.534L41.9211 114.722V148.006Z" fill="#34274A"/>
<path d="M41.4518 130.192H7.69922V18.6213L18.0125 5.02648H46.1396H115.051L128.646 18.6213L150.21 5.02648H188.182L211.152 18.6213L224.278 5.02648H395.385L405.229 18.6213L416.012 5.02648H466.64L489.611 18.6213V5.02648H767.132L846.826 36.9039V5.02648H875.422L888.079 18.6213H920.425L929.332 5.02648H966.366V24.7155L1047.93 0.338623L1061.53 36.4351L1015.12 53.3114L1061.53 66.9062V96.9085L960.74 130.192L949.49 120.817L938.239 130.192H861.827L851.513 107.691H782.133V130.192H750.256L746.505 120.817L743.693 130.192H719.316V56.5929H710.409V130.192H681.813V56.5929H671.969V130.192H640.091V50.4987L616.652 86.1264V130.192H489.611L483.985 120.817L474.61 130.192H411.324L402.417 120.817L395.854 130.192H294.127L291.315 120.817L281.47 130.192H236.935L219.122 120.817L224.278 130.192H111.77L108.957 125.036L106.613 130.192H82.2361V80.501L41.4518 97.3773V130.192Z" fill="#83404A"/>
<path fill-rule="evenodd" clip-rule="evenodd" d="M593.683 75.982V110.972H610.559V75.982L648.999 19.0902L555.242 19.0901L593.683 75.982ZM602.335 56.593H601.906L587.931 35.9096L616.311 35.9096L602.335 56.593Z" fill="#EED394"/>
<path fill-rule="evenodd" clip-rule="evenodd" d="M750.257 35.9664V110.972H733.381V35.9664L710.879 35.9664V110.972H694.003V35.9664L672.439 35.9664V110.972H655.562V35.9664V19.0901L672.439 19.0902H694.003H710.879H733.381H750.257V35.9664Z" fill="#EED394"/>
<path fill-rule="evenodd" clip-rule="evenodd" d="M517.74 19.0901H500.863V94.0958V110.972H517.74H584.307V94.0959L517.74 94.0958V19.0901Z" fill="#EED394"/>
<path fill-rule="evenodd" clip-rule="evenodd" d="M19.8867 19.0901H36.763V66.3546L96.7676 45.6747V19.0901H113.644V110.972H96.7676V63.5251L36.763 84.2051V110.972H19.8867V19.0901Z" fill="#EED394"/>
<path fill-rule="evenodd" clip-rule="evenodd" d="M168.963 19.0901L121.869 109.8H216.057L168.963 19.0901ZM168.963 55.7163L149.646 92.9239H188.28L168.963 55.7163Z" fill="#EED394"/>
<path fill-rule="evenodd" clip-rule="evenodd" d="M777.445 25.791L856.201 57.0618L777.445 88.3326V109.097H760.568V95.0334V25.6532L760.568 19.0901L777.097 25.6532H777.445V25.791ZM782.852 47.0782L807.995 57.0618L782.852 67.0453L782.852 47.0782Z" fill="#EED394"/>
<path fill-rule="evenodd" clip-rule="evenodd" d="M473.674 65.0311C473.674 81.0831 460.661 94.0959 444.609 94.0959C428.557 94.0959 415.544 81.0831 415.544 65.0311C415.544 48.9791 428.557 35.9664 444.609 35.9664C460.661 35.9664 473.674 48.9791 473.674 65.0311ZM490.55 65.0311C490.55 90.4036 469.981 110.972 444.609 110.972C419.236 110.972 398.668 90.4036 398.668 65.0311C398.668 39.6586 419.236 19.0901 444.609 19.0901C469.981 19.0901 490.55 39.6586 490.55 65.0311ZM444.609 73.4693C449.269 73.4693 453.047 69.6914 453.047 65.0311C453.047 60.3709 449.269 56.593 444.609 56.593C439.949 56.593 436.171 60.3709 436.171 65.0311C436.171 69.6914 439.949 73.4693 444.609 73.4693Z" fill="#EED394"/>
<path fill-rule="evenodd" clip-rule="evenodd" d="M283.834 77.6308C282.876 79.5229 281.695 81.3389 280.287 83.0421C270.059 95.414 251.739 97.1522 239.367 86.9246C226.995 76.697 225.257 58.3765 235.484 46.0047C245.712 33.6328 264.032 31.8946 276.404 42.1222C278.026 43.463 279.465 44.943 280.719 46.5305L291.228 32.9119C289.964 31.582 288.606 30.3134 287.157 29.115C267.601 12.9488 238.643 15.6964 222.477 35.2519C206.311 54.8074 209.058 83.7656 228.614 99.9318C248.169 116.098 277.128 113.35 293.294 93.7949C294.811 91.9596 296.162 90.0414 297.347 88.0588L283.834 77.6308Z" fill="#EED394"/>
<path fill-rule="evenodd" clip-rule="evenodd" d="M861.828 20.9651H878.704V72.5316H879.119C882.558 84.6697 894.143 94.0957 908.707 94.0957C923.27 94.0957 934.855 84.6697 938.294 72.5316H938.709V20.9651H955.585V72.5316C951.882 94.3363 932.304 110.972 908.707 110.972C885.11 110.972 865.531 94.3363 861.828 72.5316V20.9651Z" fill="#EED394"/>
<path fill-rule="evenodd" clip-rule="evenodd" d="M963.716 41.1645L1040.71 13.9473L1046.33 29.8587L994.514 48.1773L1049.42 63.5165L1050.07 79.5588L973.167 107.97L967.319 92.1392L1019.78 72.7586L964.258 57.2472L963.716 41.1645Z" fill="#EED394"/>
<path fill-rule="evenodd" clip-rule="evenodd" d="M320.847 51.3363L388.546 19.876L395.658 35.1805L332.328 64.6104L395.695 94.4302L388.509 109.7L320.847 77.859V108.159H303.971V20.9652H320.847V51.3363Z" fill="#EED394"/>
</svg>
