<svg width="1519" height="739" viewBox="0 0 1519 739" fill="none" xmlns="http://www.w3.org/2000/svg">
<path d="M200.09 356.234V333.398L200.091 202.6L577.889 190.232L856.404 206.992L979.973 202.6L1334.88 272.434V297.574L1258.06 356.234H1107.63L1093.72 336.911H1064.26V356.234H850.674V337.79H829.397V356.234H254.101L254.102 302.729L238.553 310.633L238.552 356.234H200.09Z" fill="#34274A"/>
<path d="M216.851 329.696V197.711V185.839H321.449L335.567 194.917L351.334 185.839H393.671L414.479 194.917L440.174 185.839H481.667H491.942H499.93H597.887L617.81 194.917L633.756 185.839H689.203L707.78 194.917L719.918 185.839H781.803L786.691 194.917H863.508L870.492 185.839H1071.07L1081.86 194.917H1114.91L1123.37 185.839H1149.83L1162.4 194.917H1195.22L1210.58 185.839H1244.57L1244.57 222.152L1297.7 185.839L1326.75 214.471L1290.23 238.912L1338.38 271.734L1252.04 329.696L1231.29 309.444L1222.99 329.696H1151.59L1123.37 303.857H1081.86V329.696H1044.5L1031.22 309.444V329.696H995.526L995.526 239.611H982.244L982.244 329.696H949.868L949.868 239.611H934.095L934.095 329.696H882.626V261.259L851.081 303.857V329.696H806.253V309.444L792.971 317.824V329.696H712.447V324.109L704.145 329.696H633.583L613.66 324.109L617.81 329.696H504.911L489.968 324.109V329.696H461.743L450.951 324.109V329.696H317.298L309.827 324.109V329.696H279.942V275.226L251.717 283.606V329.696H216.851Z" fill="#83404A"/>
<path d="M1228.04 202.6V282.153C1228.04 294.714 1221.3 318.162 1183.37 319.836C1144.49 321.553 1130.27 296.389 1130.27 280.478V202.6H1144.99V280.478C1148.36 298.901 1167.36 302.251 1179.16 302.251C1200.23 302.251 1211.69 296.446 1213.38 282.21L1214.07 202.6H1228.04Z" fill="#EED394"/>
<path d="M1228.04 202.6C1228.04 224.93 1228.04 272.104 1228.04 282.153M1228.04 202.6V282.153M1228.04 202.6H1214.07L1213.38 282.21C1211.69 296.446 1200.23 302.251 1179.16 302.251C1167.36 302.251 1148.36 298.901 1144.99 280.478V202.6H1130.27V280.478C1130.27 296.389 1144.49 321.553 1183.37 319.836C1221.3 318.162 1228.04 294.714 1228.04 282.153" stroke="#EED394" stroke-width="2.00926"/>
<path d="M658.201 311.54C687.513 311.54 711.275 287.153 711.275 257.07C711.275 226.987 687.513 202.6 658.201 202.6C628.89 202.6 605.128 226.987 605.128 257.07C605.128 287.153 628.89 311.54 658.201 311.54Z" stroke="#EED394" stroke-width="26.1204"/>
<path d="M512.822 249.388C509.7 222.942 490.696 202.6 467.718 202.6C442.559 202.6 422.164 226.987 422.164 257.07C422.164 287.153 442.559 311.54 467.718 311.54C485.758 311.54 501.349 299 508.727 280.813" stroke="#EED394" stroke-width="26.1204"/>
<path d="M668.367 257.769C668.367 262.098 664.267 265.842 658.897 265.842C653.527 265.842 649.427 262.098 649.427 257.769C649.427 253.44 653.527 249.695 658.897 249.695C664.267 249.695 668.367 253.44 668.367 257.769Z" fill="#EED394" stroke="#EED394" stroke-width="2.00926"/>
<path d="M223.836 313.635V198.41H245.376V248.69L285.972 238.215V198.41H306.684V313.635H285.972V262.657L245.376 273.132V313.635H223.836Z" fill="#EED394"/>
<path d="M730.036 315.73V198.41H749.92L751.577 294.78H783.887V315.73H730.036Z" fill="#EED394"/>
<path d="M907.331 315.73V198.41H1022.49V315.73H999.292V217.964H975.266V315.73H952.897V217.964H928.043V315.73H907.331Z" fill="#EED394"/>
<path d="M1243.69 241.009L1298.37 198.41L1312.46 212.377L1274.35 239.612L1317.43 268.244L1248.66 315.73L1234.58 300.367L1283.46 268.244L1243.69 241.009Z" fill="#EED394"/>
<path fill-rule="evenodd" clip-rule="evenodd" d="M367.991 198.41L313.312 313.635H428.448L367.991 198.41ZM340.651 297.574L369.648 238.215L398.42 297.574H340.651Z" fill="#EED394"/>
<path fill-rule="evenodd" clip-rule="evenodd" d="M1045.69 198.41V315.73H1068.06V275.227L1121.91 243.802L1062.26 198.41H1045.69ZM1067.23 254.277V225.645L1090.42 241.009L1067.23 254.277Z" fill="#EED394"/>
<path d="M814.541 315.73H835.253V287.797L899.046 198.41H876.417L823.583 278.02L775.626 198.41H755.719L814.541 287.797V315.73Z" fill="#EED394"/>
<path d="M522.723 198.41V315.73H543.435V263.355L602.611 315.73H620.484L555.034 259.165L607.228 198.41H590.419L543.435 253.579V198.41H522.723Z" fill="#EED394"/>
<path d="M223.836 313.635V198.41H245.376V248.69L285.972 238.215V198.41H306.684V313.635H285.972V262.657L245.376 273.132V313.635H223.836Z" stroke="#EED394" stroke-width="2.00926"/>
<path d="M730.036 315.73V198.41H749.92L751.577 294.78H783.887V315.73H730.036Z" stroke="#EED394" stroke-width="2.00926"/>
<path d="M907.331 315.73V198.41H1022.49V315.73H999.292V217.964H975.266V315.73H952.897V217.964H928.043V315.73H907.331Z" stroke="#EED394" stroke-width="2.00926"/>
<path d="M1243.69 241.009L1298.37 198.41L1312.46 212.377L1274.35 239.612L1317.43 268.244L1248.66 315.73L1234.58 300.367L1283.46 268.244L1243.69 241.009Z" stroke="#EED394" stroke-width="2.00926"/>
<path fill-rule="evenodd" clip-rule="evenodd" d="M367.991 198.41L313.312 313.635H428.448L367.991 198.41ZM340.651 297.574L369.648 238.215L398.42 297.574H340.651Z" stroke="#EED394" stroke-width="2.00926"/>
<path fill-rule="evenodd" clip-rule="evenodd" d="M1045.69 198.41V315.73H1068.06V275.227L1121.91 243.802L1062.26 198.41H1045.69ZM1067.23 254.277V225.645L1090.42 241.009L1067.23 254.277Z" stroke="#EED394" stroke-width="2.00926"/>
<path d="M814.541 315.73H835.253V287.797L899.046 198.41H876.417L823.583 278.02L775.626 198.41H755.719L814.541 287.797V315.73Z" stroke="#EED394" stroke-width="2.00926"/>
<path d="M522.723 198.41V315.73H543.435V263.355L602.611 315.73H620.484L555.034 259.165L607.228 198.41H590.419L543.435 253.579V198.41H522.723Z" stroke="#EED394" stroke-width="2.00926"/>
<path opacity="0.9" d="M1010.08 544.396C1030 548.787 1049.43 552.225 1067.62 554.704C1063.51 534.007 1100.78 497.251 1135.5 489.705C1122.73 519.979 1102.47 548.428 1082.97 556.615C1106.8 559.203 1127.89 559.997 1144.68 559.053C1126.9 539.351 1156.31 493.409 1187.5 474.429C1190.3 515.162 1171.69 547.511 1154.05 558.28C1154.05 558.28 1154.12 558.317 1154.22 558.288C1154.52 558.204 1154.79 558.183 1155.16 558.135C1156.9 557.755 1158.64 557.54 1160.47 557.463C1180.27 554.806 1199.82 550.309 1218.94 543.864C1202.77 530.088 1212.74 477.385 1237.67 451.224C1244.69 486.415 1243.19 524.813 1228.37 540.569C1247.52 533.462 1266.16 524.535 1283.96 513.774C1259.72 503.127 1267.43 449.151 1287.93 419.054C1306.99 454.199 1303.99 490.564 1292.94 508.099C1310.88 496.48 1328.01 482.963 1343.8 467.752C1323.26 461.901 1311.88 409.024 1324.73 374.966C1344.79 404.546 1358.36 440.355 1350.92 460.69C1364.7 446.643 1377.44 431.251 1388.95 414.569C1362.34 413.905 1349.55 360.659 1357.56 325.07C1387.88 350.466 1398.56 384.905 1395.04 405.397C1400.07 397.669 1404.84 389.629 1409.27 381.306C1415.37 370.009 1420.75 358.477 1425.51 346.683C1404.25 349.369 1374.14 303.752 1373.97 266.967C1403.08 287.254 1428.38 315.694 1429.09 337.289C1435.89 318.983 1441.18 300.337 1444.83 281.446C1419.79 292.054 1387.3 247.052 1381.2 210.676C1419.4 222.967 1442.47 251.431 1446.53 271.761C1449.8 251.722 1451.34 231.565 1450.99 211.449C1432.18 221.895 1387.43 189.751 1374.12 155.45C1408.45 164.031 1442.09 181.415 1450.63 201.199C1449.88 186.479 1448.34 171.819 1445.59 157.334C1423.88 152.789 1399.55 93.7325 1407.85 52.7759C1470.37 93.1267 1458.91 140.906 1447.96 157.649C1447.96 157.649 1447.9 157.612 1447.83 157.576C1449.92 168.541 1451.57 179.684 1452.56 190.795C1456.86 170.739 1473.09 145.052 1502.22 128.231C1503.98 165.658 1481.06 217.63 1453.79 210.555C1454.3 226.759 1453.61 242.971 1451.86 259.098C1462.07 241.256 1486.25 222.766 1512.19 209.943C1506.46 246.473 1469.28 287.619 1448.71 280.904C1446.19 295.066 1442.65 309.08 1438.32 322.988C1450.67 307.377 1473.44 292.174 1503.35 287.284C1491.83 322.437 1452.76 362.095 1429.62 347.547C1424.81 359.572 1419.28 371.528 1413.07 383.186C1410.88 387.232 1408.59 391.14 1406.37 395.085C1422.87 383.164 1451.3 375.744 1479.07 373.741C1459.95 405.467 1409.91 429.509 1393.49 415.421C1384.54 428.606 1374.73 441.052 1364.34 452.573C1382.2 443.21 1410.13 438.656 1440.23 447.496C1414.57 474.353 1361.99 493.387 1347.62 469.898C1334.93 482.17 1321.39 493.371 1307.25 503.38C1327.29 499.074 1356.61 504.155 1383.14 514.051C1352.39 534.978 1296.84 535.829 1287.97 516.029C1274.06 524.555 1259.68 531.961 1244.89 538.284C1264.91 537.199 1291.9 544.293 1315.58 564.249C1281.17 578.52 1225.18 574.699 1221.77 547.158C1206.7 552.305 1191.36 556.276 1175.81 559.107C1194.93 564.157 1217.59 578.349 1236.62 595.521C1200.57 603.766 1148.73 584.399 1147.38 562.873C1133.35 563.917 1116.4 564.088 1097.37 563.096C1115.12 571.202 1134.76 588.204 1147.15 614.155C1110.29 613.092 1061.3 586.987 1068.39 560.755C1048.85 558.708 1027.91 555.529 1006.27 551.021L1010.16 544.101L1010.08 544.396Z" fill="url(#paint0_linear_194_380)"/>
<path opacity="0.9" d="M530.494 571.847C510.575 576.238 491.142 579.676 472.957 582.156C477.066 561.458 439.796 524.702 405.078 517.156C417.847 547.431 438.102 575.879 457.602 584.066C433.776 586.654 412.685 587.448 395.896 586.504C413.674 566.803 384.262 520.86 353.074 501.88C350.272 542.614 368.89 574.962 386.523 585.732C386.523 585.732 386.458 585.768 386.357 585.74C386.054 585.655 385.787 585.634 385.42 585.586C383.674 585.206 381.936 584.991 380.105 584.914C360.308 582.257 340.754 577.76 321.637 571.316C337.81 557.539 327.836 504.836 302.909 478.675C295.885 513.866 297.388 552.264 312.208 568.02C293.059 560.913 274.419 551.987 256.62 541.225C280.852 530.578 273.141 476.603 252.641 446.505C233.588 481.651 236.587 518.015 247.639 535.55C229.699 523.932 212.563 510.414 196.773 495.203C217.319 489.353 228.698 436.475 215.845 402.417C195.79 431.997 182.218 467.806 189.653 488.141C175.88 474.094 163.137 458.702 151.628 442.02C178.239 441.356 191.029 388.11 183.018 352.521C152.694 377.917 142.012 412.356 145.534 432.848C140.507 425.12 135.73 417.08 131.305 408.758C125.207 397.46 119.829 385.928 115.069 374.134C136.329 376.82 166.433 331.203 166.603 294.419C137.491 314.705 112.199 343.145 111.489 364.74C104.684 346.434 99.3918 327.789 95.748 308.897C120.782 319.505 153.275 274.503 159.378 238.127C121.173 250.419 98.1076 278.883 94.0474 299.212C90.7798 279.173 89.2339 259.016 89.5836 238.9C108.397 249.346 153.143 217.202 166.457 182.901C132.125 191.482 98.4869 208.866 89.9485 228.65C90.6938 213.93 92.2393 199.27 94.9893 184.785C116.694 180.24 141.028 121.184 132.723 80.227C70.2037 120.578 81.6652 168.357 92.6127 185.1C92.6127 185.1 92.6773 185.063 92.742 185.027C90.6512 195.992 89.001 207.135 88.0136 218.246C83.7152 198.19 67.482 172.503 38.3585 155.682C36.5923 193.109 59.52 245.081 86.7828 238.006C86.2758 254.21 86.9652 270.422 88.7136 286.549C78.5099 268.707 54.3217 250.217 28.3827 237.394C34.1141 273.924 71.2984 315.07 91.8679 308.355C94.3845 322.518 97.9236 336.531 102.255 350.439C89.9008 334.828 67.1349 319.625 37.23 314.735C48.7414 349.888 87.8134 389.546 110.958 374.998C115.763 387.023 121.295 398.979 127.51 410.637C129.7 414.683 131.983 418.591 134.202 422.537C117.708 410.615 89.2751 403.196 61.504 401.192C80.6224 432.918 130.662 456.96 147.085 442.872C156.032 456.058 165.84 468.503 176.235 480.024C158.371 470.661 130.442 466.107 100.342 474.947C126.001 501.804 178.587 520.838 192.958 497.349C205.648 509.621 219.183 520.822 233.324 530.831C213.281 526.525 183.961 531.606 157.434 541.502C188.186 562.429 243.74 563.28 252.61 543.48C266.513 552.006 280.893 559.412 295.685 565.735C275.666 564.65 248.67 571.744 224.991 591.7C259.406 605.971 315.397 602.15 318.808 574.609C333.875 579.756 349.217 583.727 364.77 586.558C345.647 591.608 322.983 605.8 303.953 622.972C340.001 631.217 391.847 611.85 393.191 590.324C407.229 591.368 424.18 591.54 443.201 590.547C425.456 598.653 405.819 615.655 393.428 641.606C430.286 640.543 479.279 614.438 472.189 588.206C491.723 586.159 512.664 582.98 534.305 578.472L530.413 571.552L530.494 571.847Z" fill="url(#paint1_linear_194_380)"/>
<defs>
<linearGradient id="paint0_linear_194_380" x1="1458.36" y1="81.1804" x2="1149" y2="631.288" gradientUnits="userSpaceOnUse">
<stop stop-color="#FFE5AD"/>
<stop offset="1" stop-color="#FFB23E"/>
</linearGradient>
<linearGradient id="paint1_linear_194_380" x1="82.2132" y1="108.632" x2="391.571" y2="658.739" gradientUnits="userSpaceOnUse">
<stop stop-color="#FFE5AD"/>
<stop offset="1" stop-color="#FFB23E"/>
</linearGradient>
</defs>
</svg>
