<svg width="756" height="368" viewBox="0 0 756 368" fill="none" xmlns="http://www.w3.org/2000/svg">
<path d="M99.584 176.955V165.59L99.5847 100.492L287.613 94.3369L426.229 102.678L487.729 100.492L664.363 135.248V147.76L626.131 176.955H551.265L544.341 167.338H529.679V176.955H423.377V167.776H412.787V176.955H126.465L126.466 150.326L118.727 154.26L118.726 176.955H99.584Z" fill="#34274A"/>
<path d="M107.926 163.748V98.0594V92.1509H159.984L167.011 96.6691L174.858 92.1509H195.929L206.285 96.6691L219.073 92.1509H239.724H244.837H248.813H297.566L307.482 96.6691L315.418 92.1509H343.013L352.259 96.6691L358.3 92.1509H389.1L391.533 96.6691H429.765L433.24 92.1509H533.067L538.438 96.6691H554.885L559.096 92.1509H572.263L578.519 96.6691H594.855L602.501 92.1509H619.417L619.417 110.224L645.859 92.1509L660.32 106.401L642.141 118.565L666.104 134.901L623.136 163.748L612.807 153.669L608.675 163.748H573.143L559.096 150.888H538.438V163.748H519.846L513.235 153.669V163.748H495.469L495.469 118.913H488.859L488.859 163.748H472.746L472.746 118.913H464.896L464.895 163.748H439.28V129.687L423.58 150.888V163.748H401.269V153.669L394.658 157.839V163.748H354.582V160.967L350.45 163.748H315.332L305.416 160.967L307.482 163.748H251.292L243.855 160.967V163.748H229.808L224.437 160.967V163.748H157.918L154.2 160.967V163.748H139.326V136.638L125.278 140.809V163.748H107.926Z" fill="#83404A"/>
<path d="M611.189 100.492V140.086C611.189 146.337 607.834 158.007 588.958 158.841C569.608 159.695 562.531 147.171 562.531 139.252V100.492H569.853V139.252C571.531 148.421 580.988 150.088 586.86 150.088C597.347 150.088 603.052 147.199 603.891 140.114L604.238 100.492H611.189Z" fill="#EED394"/>
<path d="M611.189 100.492C611.189 111.606 611.189 135.085 611.189 140.086M611.189 100.492V140.086M611.189 100.492H604.238L603.891 140.114C603.052 147.199 597.347 150.088 586.86 150.088C580.988 150.088 571.531 148.421 569.853 139.252V100.492H562.531V139.252C562.531 147.171 569.608 159.695 588.958 158.841C607.834 158.007 611.189 146.337 611.189 140.086" stroke="#EED394"/>
<path d="M327.582 154.711C342.171 154.711 353.997 142.574 353.997 127.602C353.997 112.63 342.171 100.492 327.582 100.492C312.994 100.492 301.168 112.63 301.168 127.602C301.168 142.574 312.994 154.711 327.582 154.711Z" stroke="#EED394" stroke-width="13"/>
<path d="M255.227 123.779C253.674 110.617 244.215 100.492 232.779 100.492C220.258 100.492 210.107 112.63 210.107 127.602C210.107 142.574 220.258 154.711 232.779 154.711C241.758 154.711 249.517 148.471 253.19 139.419" stroke="#EED394" stroke-width="13"/>
<path d="M332.644 127.95C332.644 130.105 330.603 131.968 327.93 131.968C325.257 131.968 323.217 130.105 323.217 127.95C323.217 125.796 325.257 123.932 327.93 123.932C330.603 123.932 332.644 125.796 332.644 127.95Z" fill="#EED394" stroke="#EED394"/>
<path d="M111.401 155.755V98.4077H122.122V123.432L142.326 118.219V98.4077H152.634V155.755H142.326V130.383L122.122 135.596V155.755H111.401Z" fill="#EED394"/>
<path d="M363.335 156.797V98.4077H373.231L374.056 146.371H390.137V156.797H363.335Z" fill="#EED394"/>
<path d="M451.574 156.797V98.4077H508.888V156.797H497.343V108.139H485.385V156.797H474.252V108.139H461.882V156.797H451.574Z" fill="#EED394"/>
<path d="M618.98 119.609L646.194 98.4077L653.203 105.359L634.236 118.914L655.677 133.164L621.454 156.797L614.444 149.151L638.772 133.164L618.98 119.609Z" fill="#EED394"/>
<path fill-rule="evenodd" clip-rule="evenodd" d="M183.147 98.4077L155.933 155.755H213.236L183.147 98.4077ZM169.54 147.761L183.972 118.219L198.291 147.761H169.54Z" fill="#EED394"/>
<path fill-rule="evenodd" clip-rule="evenodd" d="M520.433 98.4077V156.797H531.566V136.639L558.367 120.999L528.68 98.4077H520.433ZM531.154 126.212V111.962L542.699 119.609L531.154 126.212Z" fill="#EED394"/>
<path d="M405.393 156.797H415.701V142.895L447.451 98.4077H436.188L409.893 138.029L386.025 98.4077H376.117L405.393 142.895V156.797Z" fill="#EED394"/>
<path d="M260.156 98.4077V156.797H270.464V130.731L299.916 156.797H308.811L276.237 128.645L302.214 98.4077H293.848L270.464 125.865V98.4077H260.156Z" fill="#EED394"/>
<path d="M111.401 155.755V98.4077H122.122V123.432L142.326 118.219V98.4077H152.634V155.755H142.326V130.383L122.122 135.596V155.755H111.401Z" stroke="#EED394"/>
<path d="M363.335 156.797V98.4077H373.231L374.056 146.371H390.137V156.797H363.335Z" stroke="#EED394"/>
<path d="M451.574 156.797V98.4077H508.888V156.797H497.343V108.139H485.385V156.797H474.252V108.139H461.882V156.797H451.574Z" stroke="#EED394"/>
<path d="M618.98 119.609L646.194 98.4077L653.203 105.359L634.236 118.914L655.677 133.164L621.454 156.797L614.444 149.151L638.772 133.164L618.98 119.609Z" stroke="#EED394"/>
<path fill-rule="evenodd" clip-rule="evenodd" d="M183.147 98.4077L155.933 155.755H213.236L183.147 98.4077ZM169.54 147.761L183.972 118.219L198.291 147.761H169.54Z" stroke="#EED394"/>
<path fill-rule="evenodd" clip-rule="evenodd" d="M520.433 98.4077V156.797H531.566V136.639L558.367 120.999L528.68 98.4077H520.433ZM531.154 126.212V111.962L542.699 119.609L531.154 126.212Z" stroke="#EED394"/>
<path d="M405.393 156.797H415.701V142.895L447.451 98.4077H436.188L409.893 138.029L386.025 98.4077H376.117L405.393 142.895V156.797Z" stroke="#EED394"/>
<path d="M260.156 98.4077V156.797H270.464V130.731L299.916 156.797H308.811L276.237 128.645L302.214 98.4077H293.848L270.464 125.865V98.4077H260.156Z" stroke="#EED394"/>
<path opacity="0.9" d="M502.712 270.603C512.626 272.788 522.298 274.499 531.348 275.733C529.303 265.432 547.852 247.139 565.131 243.383C558.776 258.451 548.696 272.609 538.99 276.684C550.849 277.972 561.345 278.367 569.701 277.898C560.853 268.092 575.491 245.227 591.014 235.781C592.408 256.053 583.142 272.153 574.366 277.513C574.366 277.513 574.398 277.531 574.449 277.517C574.6 277.475 574.732 277.465 574.915 277.44C575.784 277.251 576.649 277.145 577.561 277.106C587.413 275.784 597.145 273.546 606.66 270.338C598.61 263.481 603.574 237.252 615.98 224.231C619.476 241.746 618.728 260.856 611.352 268.698C620.883 265.161 630.16 260.718 639.018 255.362C626.958 250.063 630.796 223.2 640.999 208.22C650.481 225.712 648.989 243.811 643.488 252.538C652.417 246.755 660.945 240.028 668.804 232.457C658.578 229.545 652.915 203.228 659.312 186.278C669.293 201 676.048 218.822 672.348 228.943C679.203 221.952 685.544 214.291 691.272 205.988C678.028 205.658 671.663 179.158 675.65 161.445C690.742 174.084 696.058 191.225 694.305 201.424C696.807 197.577 699.185 193.576 701.387 189.434C704.422 183.811 707.099 178.072 709.468 172.202C698.887 173.538 683.904 150.835 683.82 132.528C698.308 142.624 710.896 156.779 711.249 167.526C714.636 158.416 717.27 149.136 719.084 139.733C706.624 145.013 690.453 122.616 687.415 104.512C706.43 110.629 717.909 124.795 719.93 134.914C721.556 124.94 722.326 114.908 722.152 104.896C712.788 110.095 690.518 94.0974 683.892 77.0257C700.979 81.2965 717.721 89.9486 721.97 99.7949C721.599 92.4687 720.83 85.1728 719.461 77.9634C708.659 75.7015 696.548 46.3093 700.682 25.9254C731.797 46.0079 726.093 69.7875 720.644 78.1201C720.644 78.1201 720.612 78.102 720.58 78.0839C721.62 83.5413 722.442 89.0872 722.933 94.617C725.072 84.6352 733.152 71.8507 747.646 63.4789C748.525 82.1061 737.114 107.972 723.546 104.452C723.798 112.516 723.455 120.585 722.585 128.611C727.663 119.731 739.701 110.529 752.611 104.147C749.759 122.328 731.252 142.806 721.015 139.464C719.762 146.512 718.001 153.487 715.845 160.409C721.994 152.639 733.324 145.073 748.208 142.639C742.479 160.135 723.033 179.872 711.514 172.632C709.122 178.617 706.369 184.567 703.276 190.369C702.186 192.383 701.05 194.328 699.945 196.291C708.154 190.358 722.305 186.666 736.127 185.668C726.612 201.458 701.707 213.424 693.533 206.412C689.081 212.975 684.199 219.169 679.026 224.903C687.917 220.243 701.816 217.976 716.797 222.376C704.027 235.742 677.855 245.216 670.703 233.525C664.387 239.633 657.651 245.208 650.613 250.189C660.588 248.046 675.18 250.575 688.383 255.5C673.078 265.916 645.429 266.339 641.014 256.485C634.095 260.728 626.938 264.414 619.576 267.561C629.539 267.021 642.975 270.551 654.76 280.483C637.632 287.586 609.765 285.684 608.068 271.977C600.569 274.539 592.933 276.515 585.193 277.924C594.71 280.438 605.99 287.501 615.461 296.047C597.52 300.151 571.716 290.512 571.047 279.798C564.061 280.318 555.624 280.404 546.158 279.91C554.989 283.944 564.762 292.406 570.929 305.322C552.586 304.792 528.202 291.8 531.731 278.745C522.008 277.726 511.586 276.144 500.816 273.9L502.753 270.456L502.712 270.603Z" fill="url(#paint0_linear_194_380)"/>
<path opacity="0.9" d="M264.025 284.265C254.111 286.45 244.44 288.161 235.389 289.395C237.434 279.094 218.885 260.801 201.606 257.045C207.961 272.113 218.042 286.271 227.747 290.346C215.889 291.634 205.392 292.029 197.036 291.559C205.884 281.754 191.246 258.889 175.724 249.442C174.329 269.715 183.595 285.815 192.371 291.175C192.371 291.175 192.339 291.193 192.289 291.179C192.138 291.137 192.005 291.126 191.822 291.102C190.953 290.913 190.088 290.806 189.177 290.768C179.324 289.445 169.592 287.207 160.078 284C168.127 277.143 163.163 250.914 150.757 237.893C147.261 255.408 148.009 274.518 155.385 282.36C145.854 278.823 136.577 274.38 127.719 269.024C139.779 263.725 135.942 236.862 125.738 221.882C116.256 239.374 117.749 257.473 123.249 266.199C114.321 260.417 105.792 253.69 97.9336 246.119C108.159 243.207 113.822 216.89 107.425 199.94C97.4441 214.662 90.6893 232.484 94.3895 242.604C87.5347 235.613 81.193 227.953 75.4649 219.65C88.7093 219.32 95.0748 192.82 91.0877 175.107C75.9953 187.746 70.6789 204.886 72.4319 215.085C69.9299 211.239 67.5526 207.238 65.3503 203.096C62.3154 197.473 59.6386 191.734 57.2696 185.863C67.8505 187.2 82.8332 164.497 82.9176 146.189C68.4291 156.286 55.841 170.44 55.4878 181.188C52.1013 172.077 49.4671 162.798 47.6536 153.395C60.1129 158.675 76.2845 136.278 79.3219 118.174C60.3076 124.291 48.828 138.457 46.8073 148.575C45.1809 138.602 44.4116 128.57 44.5856 118.558C53.9491 123.757 76.2191 107.759 82.8451 90.6876C65.7582 94.9584 49.0168 103.61 44.7672 113.457C45.1381 106.131 45.9073 98.8346 47.276 91.6252C58.0785 89.3633 70.1894 59.9712 66.0558 39.5873C34.9403 59.6697 40.6447 83.4494 46.0932 91.782C46.0932 91.782 46.1254 91.7639 46.1575 91.7458C45.117 97.2031 44.2956 102.749 43.8042 108.279C41.665 98.2971 33.5858 85.5125 19.0911 77.1407C18.2121 95.768 29.6231 121.634 43.1917 118.113C42.9394 126.178 43.2825 134.246 44.1526 142.273C39.0743 133.393 27.0359 124.191 14.1262 117.809C16.9787 135.99 35.4852 156.468 45.7225 153.126C46.975 160.174 48.7364 167.149 50.8921 174.071C44.7435 166.301 33.413 158.735 18.5295 156.301C24.2586 173.796 43.7046 193.534 55.2238 186.294C57.6149 192.278 60.3681 198.229 63.4614 204.031C64.5514 206.045 65.6878 207.99 66.7919 209.953C58.5832 204.02 44.4321 200.327 30.6105 199.33C40.1257 215.12 65.03 227.086 73.2038 220.074C77.6568 226.637 82.5382 232.831 87.7114 238.564C78.8207 233.905 64.9208 231.638 49.94 236.038C62.7102 249.404 88.882 258.878 96.0345 247.187C102.35 253.295 109.087 258.87 116.125 263.851C106.149 261.708 91.5569 264.237 78.3543 269.162C93.6594 279.577 121.309 280.001 125.723 270.146C132.643 274.39 139.799 278.076 147.162 281.223C137.198 280.682 123.762 284.213 111.977 294.145C129.105 301.248 156.972 299.346 158.669 285.639C166.168 288.201 173.804 290.177 181.545 291.586C172.028 294.099 160.748 301.163 151.276 309.709C169.217 313.813 195.021 304.174 195.69 293.46C202.676 293.98 211.113 294.065 220.579 293.572C211.748 297.606 201.975 306.068 195.808 318.983C214.152 318.454 238.536 305.462 235.007 292.406C244.729 291.388 255.151 289.806 265.921 287.562L263.985 284.118L264.025 284.265Z" fill="url(#paint1_linear_194_380)"/>
<defs>
<linearGradient id="paint0_linear_194_380" x1="725.82" y1="40.0622" x2="571.854" y2="313.849" gradientUnits="userSpaceOnUse">
<stop stop-color="#FFE5AD"/>
<stop offset="1" stop-color="#FFB23E"/>
</linearGradient>
<linearGradient id="paint1_linear_194_380" x1="40.9174" y1="53.7241" x2="194.884" y2="327.51" gradientUnits="userSpaceOnUse">
<stop stop-color="#FFE5AD"/>
<stop offset="1" stop-color="#FFB23E"/>
</linearGradient>
</defs>
</svg>
