<svg width="636" height="629" viewBox="0 0 636 629" fill="none" xmlns="http://www.w3.org/2000/svg">
<path d="M337.454 125.041C337.454 139.495 325.58 156.664 312.727 156.664C299.874 156.664 287.272 139.495 287.272 125.041C287.272 110.587 299.874 96.6885 312.727 96.6885C325.58 96.6885 337.454 110.587 337.454 125.041Z" fill="#F6F2F2"/>
<path d="M312.728 93.4176L312.728 77.4241L312.728 63.6113L321.091 65.4288L329.819 71.2447L335.637 77.4241L351.637 100.324L369.455 133.765L380.364 152.303L393.818 169.387L413.091 191.56L426.546 208.644L438.728 218.276L450.909 225.728L459.637 240.267L443.637 240.267L417.819 240.267L404.364 238.086L393.819 232.634L375.637 213.732L364 202.101L353.091 193.013L341.455 182.836L330.546 174.839L324.364 167.569L324 152.303L328.364 147.941L333.455 133.401L333.455 122.86L332.364 116.317L326.546 105.049L318.546 98.5061L313.455 96.689L312.728 93.4176Z" fill="#D1BD9F"/>
<path d="M312.728 93.4176L312.728 77.4241L312.728 63.6113L321.091 65.4288L329.819 71.2447L335.637 77.4241L351.637 100.324L369.455 133.765L380.364 152.303L393.818 169.387L413.091 191.56L426.546 208.644L438.728 218.276L450.909 225.728L459.637 240.267L443.637 240.267L417.819 240.267L404.364 238.086L393.819 232.634L375.637 213.732L366.909 203.555L351.637 186.471L339.273 172.658L332.364 162.844L329.819 146.123L332.364 116.317L325.819 107.23L318.546 98.5061L313.455 96.689L312.728 93.4176Z" fill="#F1DCBC"/>
<path d="M277.455 96.689L282.546 83.9668L291.637 72.6986L301.818 66.1558L312.728 63.6113V93.054L313.455 96.689L309.091 97.4159L304.364 99.5969L299.273 102.505L294.909 108.684L292 117.771L290.182 127.949V135.219L291.273 139.944L293.818 144.306L294.909 145.76L294.546 157.392L290.182 164.298L284.364 170.841L274.546 180.655L262.546 186.471L249.455 191.196L238.546 195.558L231.637 203.919L229.818 218.822L228.364 233.725L225.091 250.445L218.182 267.893L207.273 291.883L197.455 322.78L189.818 349.315L178.909 373.305L176 382.029L148.364 399.476L129.818 414.38L116.727 427.465L109.091 439.824L105.091 447.094L102.182 454L99.2729 465.632V475.446V484.533L102.182 491.439L99.2729 493.257L110.909 506.343L1.81836 458.725V429.283L7.27291 396.569L16.7275 373.305L35.2729 355.131L48.3638 344.953L56.3638 337.683L63.2729 330.413L66.5456 322.053L68.3638 312.602L78.5456 291.883L89.8184 277.344L106.546 264.985L130.546 253.353L152 240.268L169.455 228.999L187.637 214.46L214.182 174.476L255.637 127.586L267.637 111.592L277.455 96.689Z" fill="#D1BD9F"/>
<path d="M293.818 144.306L299.636 149.926L308.363 154.651L313.454 156.469L325.454 150.653L324.363 167.374L330.545 174.643L341.454 182.836L357.818 196.816L348.363 240.435L300 192.818L284.363 170.645L290.181 164.102L294.545 157.196L293.818 144.306Z" fill="#EBD1D1"/>
<path d="M292 161.39L298.909 167.569L313.454 179.564L330.545 174.643L341.091 182.836L357.818 196.816L348.363 240.435L300 192.818L284.363 170.645L290.181 164.102L292 161.39Z" fill="#EEE1E1"/>
<path d="M274.545 180.655L284.363 170.841L304.727 193.741L345.818 232.271V209.371L339.999 181.382L358.545 197.376L359.636 231.544L354.909 262.804L303.636 215.187L274.545 180.655Z" fill="#E19059"/>
<path d="M274.909 180.291L304.363 215.913L314.909 248.264L321.818 281.341L328 379.484L324 413.652L316.363 445.639L307.636 466.358L295.272 487.44L268.521 527.964L269.454 526.697L245.09 559.775L228.181 581.584L211.272 603.394L185.818 632.11L171.272 647.74L151.636 656.1L109.09 660.098L49.4541 668.095L138.181 596.851L200 515.793L214.181 499.436L248 435.461L258.909 395.477L274.545 288.611V239.176V180.655L274.909 180.291Z" fill="url(#paint0_linear_5153_12548)"/>
<path d="M274.909 180.291L296.363 206.462L310.545 250.808L316.363 280.978L324 382.028L319.272 413.652L311.272 444.549L301.818 466.358L284.727 492.166L262.181 527.061L237.09 558.321L216.363 580.13L197.454 601.94L171.272 630.292L149.454 652.102L109.09 660.098L49.4541 668.095L138.181 596.851L200 515.793L214.181 499.436L248 435.461L258.909 395.477L274.545 288.611V239.176V180.655L274.909 180.291Z" fill="url(#paint1_linear_5153_12548)"/>
<path d="M324.364 410.018L328 379.484L331.505 421.462L333.455 462.36L335.273 527.788V577.587L330.652 624.235L318.909 656.101L236 649.558L151.637 656.101L164.364 645.559L262.182 536.512L307.637 466.359L316.364 445.64L324.364 410.018Z" fill="url(#paint2_linear_5153_12548)"/>
<path d="M324.364 410.017L326.182 394.387L329.091 464.177L330.909 527.424L328.728 577.949L324.364 621.932L313.819 651.011L272 652.465L236 649.557L151.637 656.1L164.364 645.559L262.182 536.511L307.637 466.358L316.364 445.639L324.364 410.017Z" fill="url(#paint3_linear_5153_12548)"/>
<path d="M358.909 215.913L358.545 197.375L363.636 201.737L376.727 214.096L393.818 232.633L403.636 288.611L418.545 352.222L435.999 424.193L452.727 489.985L470.909 532.15L488.363 553.959L564.727 610.664L635.999 679L573.818 661.916L511.272 656.463L483.61 635.46L459.272 612.118L430.909 577.586L415.636 539.056L397.818 481.261L386.545 403.111L379.636 328.959L376.727 288.611V269.71L373.454 250.081L367.999 232.633L358.909 215.913Z" fill="url(#paint4_linear_5153_12548)"/>
<path d="M358.545 207.916V197.375L363.636 201.737L376.727 214.096L393.818 232.633L403.636 288.611L418.545 352.222L435.999 424.193L452.727 489.985L470.909 532.15L488.363 553.959L564.727 610.664L635.999 679L573.818 661.916L513.454 651.011L465.454 609.573L435.999 575.042L422.909 537.966L402.545 480.171L391.636 402.747L383.999 327.505L381.454 289.338V269.71L378.181 249.354L371.272 229.726L358.545 207.916Z" fill="url(#paint5_linear_5153_12548)"/>
<path d="M393.455 232.271L404.364 238.086L418.182 239.904L466.546 240.267L462.182 242.812L458.91 254.443V267.166L460.001 286.431L462.182 301.334L468.364 327.868L481.091 357.675L501.455 381.302L436.728 426.738L411.637 325.688L402.182 282.432L393.455 232.271Z" fill="url(#paint6_linear_5153_12548)"/>
<path d="M277.455 96.689L282.545 83.9668L291.636 72.6986L301.818 66.1558L312.727 63.6113V93.054L313.455 96.689L309.091 97.4159L300.727 107.957L293.455 115.954L292.727 133.401L294.182 145.397L285.455 157.028L265.818 176.657L249.455 189.742L232.364 199.92L225.091 218.095L218.182 240.268L210.182 256.625L197.091 277.344L175.273 301.334L152 330.413L126.182 362.764L98.5454 403.111L92.7273 415.47L89.8182 429.283L88.3636 445.64L89.8182 460.906L94.9091 477.99L102.909 491.803L119.273 501.254L140.727 519.065L146.182 528.152L148 538.33L143.273 528.152L131.273 521.246L112 517.247L78.5455 511.431L38.9091 504.889L26.9091 499.073L16.7273 490.713L6.54545 473.628L1.81818 458.725L0 443.459L1.81818 429.283L7.27273 396.569L16.7273 373.305L34.1818 352.586L56.3636 337.683L63.2727 330.413L66.5455 322.053L68.3636 312.602L78.5455 291.883L89.8182 277.344L106.545 264.985L130.545 253.353L152 240.268L169.455 228.999L187.636 214.46L214.182 174.476L255.636 127.586L267.636 111.592L277.455 96.689Z" fill="#F1DCBC"/>
<path d="M358.545 197.375L358.94 215.913L368.363 232.634L373.454 248.991L376.727 268.983L377.091 288.248L379.636 330.049L383.636 372.577L386.909 403.838L397.818 480.17L430.909 577.586L460 612.844L501.818 648.467L411.272 644.832L321.818 647.74L329.818 622.659L333.818 589.218L334.909 522.699L331.636 432.553L328 381.301L321.454 280.978L314.909 248.991L304.363 215.913L354.909 262.44L359.272 231.543L358.545 197.375Z" fill="url(#paint7_linear_5153_12548)"/>
<path d="M307.273 125.259C305.818 126.349 305.031 126.349 301.818 126.349C296.364 126.349 297.455 125.986 296 125.259C296 123.653 298.605 121.624 301.818 121.624C305.031 121.624 307.273 123.653 307.273 125.259Z" fill="white"/>
<path d="M318.909 125.259C320.363 126.349 321.15 126.349 324.363 126.349C329.818 126.349 328.727 125.986 330.182 125.259C330.182 123.653 327.577 121.624 324.363 121.624C321.15 121.624 318.909 123.653 318.909 125.259Z" fill="white"/>
<path d="M306.182 125.041C306.182 126.225 305.506 126.475 302.883 126.475C299.347 126.475 298.909 126.744 298.909 125.291C298.909 124.304 300.936 122.133 302.883 122.133C304.831 122.133 305.829 123.744 306.182 125.041Z" fill="#B2BFDF"/>
<path d="M320 125.041C320 126.225 320.608 126.475 322.969 126.475C326.152 126.475 326.546 126.744 326.546 125.291C326.546 124.304 324.722 122.133 322.969 122.133C321.216 122.133 320.318 123.744 320 125.041Z" fill="#B2BFDF"/>
<path d="M330.182 125.259L328.364 123.805L326.546 122.714L325.455 122.351L323.868 122.194H322.998L322.182 122.351L321.091 122.859L320.364 123.441L318.909 125.259L318.546 125.622L318.909 124.532L319.637 123.441L320.727 122.351L322.182 121.624L322.909 121.405H323.868H324.727L325.937 121.624L327.273 122.132L330.546 124.168L333.818 125.259H330.182Z" fill="#2F2E2E"/>
<path d="M296 125.259L297.818 123.805L299.636 122.714L300.727 122.351L302.313 122.194H303.184L304 122.351L305.091 122.859L305.818 123.441L307.272 125.259L307.636 125.622L307.272 124.532L306.545 123.441L305.454 122.351L304 121.624L303.272 121.405H302.313H301.454L300.245 121.624L298.909 122.132L295.636 124.168L292.363 125.259H296Z" fill="#2F2E2E"/>
<ellipse cx="301.818" cy="117.771" rx="5.81818" ry="0.726982" fill="#D1BD9F"/>
<ellipse cx="324.363" cy="117.771" rx="5.81818" ry="0.726982" fill="#D1BD9F"/>
<g opacity="0.45" filter="url(#filter0_f_5153_12548)">
<ellipse cx="299.999" cy="133.401" rx="5.45454" ry="5.45236" fill="#D65757" fill-opacity="0.15"/>
</g>
<g opacity="0.45" filter="url(#filter1_f_5153_12548)">
<ellipse cx="326.182" cy="133.401" rx="5.45454" ry="5.45236" fill="#D65757" fill-opacity="0.15"/>
</g>
<path d="M206.182 443.822C208.364 479.08 186.243 524.88 176 524.88C163.273 512.158 161.091 486.714 163.273 451.818C161.818 417.287 166.909 387.844 177.455 380.938C188 374.032 206.182 409.494 206.182 443.822Z" fill="#081525"/>
<path d="M312.364 138.258L314.545 138.49L316.364 137.763L316.727 138.49L314.545 139.217L312.364 138.985L312 138.622L312.364 138.258Z" fill="#D9D9D9"/>
<path d="M315.062 128.103L315.636 126.131L315.436 133.23L316.727 138.49L316 138.49L314.725 133.385L315.062 128.103Z" fill="#D9D9D9"/>
<path d="M309.091 144.669L311.272 145.032H313.454H316L317.818 144.669H318.909L317.818 145.396L316 145.759H313.454H311.272L309.091 145.396L308.363 144.669H309.091Z" fill="#D9D9D9"/>
<path opacity="0.5" d="M318.909 144.669C318.909 146.123 315.508 147.577 313.225 147.577C310.941 147.577 308.363 146.123 308.363 144.669C308.363 143.754 311.636 142.125 313.454 143.215C314.909 142.125 318.909 143.754 318.909 144.669Z" fill="#E4ACAC"/>
<path d="M297.431 119.531L299.374 122.182L298.832 122.504L297.431 119.531Z" fill="#2F2E2E"/>
<path d="M329.815 120.138L327.872 122.789L328.414 123.11L329.815 120.138Z" fill="#2F2E2E"/>
<path d="M345.953 232.319L304.727 193.741L284.364 170.841L326.909 191.196L340 181.382L345.818 209.371L345.953 232.319Z" fill="url(#paint8_linear_5153_12548)"/>
<path d="M483.273 315.539C489.095 356.925 498.182 372.942 498.182 383.846C488.238 385.244 463.635 356.925 457.814 315.539C451.992 274.153 457.814 238.214 466.91 240.267C474.91 255.171 477.451 274.153 483.273 315.539Z" fill="#081525"/>
<path d="M241.091 194.467L251.636 190.469L262.545 186.47L274.545 180.654V288.247L266.182 346.042L258.909 395.841L248.727 434.007L214.182 499.435L200 515.792L176 525.243L188.364 511.431L195.636 497.254L200 482.351L202.545 466.721L204.364 455.453L205.091 443.821L204.727 432.19L202.545 420.558L198.545 405.291L191.636 392.206L188 387.48L182.909 383.482L176 382.028L207.273 291.519L225.091 250.444L228.364 233.724L229.455 219.184L231.636 203.918L234.182 198.829L238.545 195.557L241.091 194.467Z" fill="url(#paint9_linear_5153_12548)"/>
<path d="M287.272 13.4496L286.909 9.45117L288 6.17976L289.091 5.08929L291.272 4.3623L293.454 5.08929L294.909 6.17976L296 9.81466L295.636 13.4496L298.182 13.0861L301.091 13.4496L302.545 14.9035L303.272 17.0845L302.545 19.6289L301.091 21.4464L298.545 21.8098L295.636 21.4464V23.9908L294.909 26.5352L293.818 27.9892L291.636 28.7162L289.091 27.9892L288 26.5352L287.272 23.9908V21.0829L284 21.8098L281.091 20.7194L279.636 19.6289L279.272 17.448L279.636 15.6305L281.091 13.8131L284 13.0861L287.272 13.4496Z" fill="#B8A1A1"/>
<ellipse cx="291.636" cy="16.7213" rx="4.36365" ry="4.36188" fill="#D4B8B8"/>
<path d="M349.091 54.8871L348.727 50.8887L349.818 47.6173L350.909 46.5268L353.091 45.7998L355.273 46.5268L356.727 47.6173L357.818 51.2522L357.454 54.8871L360 54.5236L362.909 54.8871L364.364 56.341L365.091 58.522L364.364 61.0664L362.909 62.8839L360.364 63.2473L357.454 62.8839V65.4283L356.727 67.9727L355.636 69.4267L353.454 70.1537L350.909 69.4267L349.818 67.9727L349.091 65.4283V62.5204L345.818 63.2473L342.909 62.1569L341.454 61.0664L341.091 58.8855L341.454 57.068L342.909 55.2506L345.818 54.5236L349.091 54.8871Z" fill="#B8A1A1"/>
<ellipse cx="353.454" cy="58.1588" rx="4.36363" ry="4.36189" fill="#D4B8B8"/>
<path d="M340.363 14.1761L340 10.1777L341.091 6.90632L342.181 5.81585L344.363 5.08887L346.545 5.81585L348 6.90632L349.091 10.5412L348.727 14.1761L351.272 13.8126L354.181 14.1761L355.636 15.6301L356.363 17.811L355.636 20.3555L354.181 22.1729L351.636 22.5364L348.727 22.1729V24.7173L348 27.2618L346.909 28.7157L344.727 29.4427L342.181 28.7157L341.091 27.2618L340.363 24.7173V21.8094L337.091 22.5364L334.181 21.4459L332.727 20.3555L332.363 18.1745L332.727 16.3571L334.181 14.5396L337.091 13.8126L340.363 14.1761Z" fill="#B8A1A1"/>
<ellipse cx="344.727" cy="17.4478" rx="4.36363" ry="4.36188" fill="#D4B8B8"/>
<path d="M354.909 27.9886L354.546 23.9902L355.636 20.7188L356.727 19.6283L358.909 18.9014L361.091 19.6283L362.546 20.7188L363.636 24.3537L363.273 27.9886L365.818 27.6251L368.727 27.9886L370.182 29.4426L370.909 31.6235L370.182 34.168L368.727 35.9854L366.182 36.3489L363.273 35.9854V38.5298L362.546 41.0743L361.455 42.5282L359.273 43.2552L356.727 42.5282L355.636 41.0743L354.909 38.5298V35.6219L351.636 36.3489L348.727 35.2584L347.273 34.168L346.909 31.987L347.273 30.1696L348.727 28.3521L351.636 27.6251L354.909 27.9886Z" fill="#CAB1B1"/>
<ellipse cx="359.273" cy="31.2603" rx="4.36363" ry="4.36188" fill="#D4B8B8"/>
<path d="M312.728 9.08726L312.364 5.08886L313.455 1.81745L314.546 0.726981L316.728 0L318.909 0.726981L320.364 1.81745L321.455 5.45236L321.091 9.08726L323.637 8.72377L326.546 9.08726L328 10.5412L328.728 12.7222L328 15.2666L326.546 17.084L324 17.4475L321.091 17.084V19.6285L320.364 22.1729L319.273 23.6269L317.091 24.3539L314.546 23.6269L313.455 22.1729L312.728 19.6285V16.7206L309.455 17.4475L306.546 16.3571L305.091 15.2666L304.728 13.0857L305.091 11.2682L306.546 9.45075L309.455 8.72377L312.728 9.08726Z" fill="#CAB1B1"/>
<ellipse cx="317.091" cy="12.359" rx="4.36363" ry="4.36188" fill="#D4B8B8"/>
<path d="M248 52.7064L247.636 48.708L248.727 45.4366L249.818 44.3461L252 43.6191L254.182 44.3461L255.636 45.4366L256.727 49.0715L256.364 52.7064L258.909 52.3429L261.818 52.7064L263.273 54.1604L264 56.3413L263.273 58.8857L261.818 60.7032L259.273 61.0667L256.364 60.7032V63.2476L255.636 65.792L254.545 67.246L252.364 67.973L249.818 67.246L248.727 65.792L248 63.2476V60.3397L244.727 61.0667L241.818 59.9762L240.364 58.8857L240 56.7048L240.364 54.8873L241.818 53.0699L244.727 52.3429L248 52.7064Z" fill="#CAB1B1"/>
<ellipse cx="252.364" cy="55.9781" rx="4.36363" ry="4.36188" fill="#D4B8B8"/>
<path d="M294.135 24.6005L295.389 20.7862L297.69 18.2164L299.125 17.6484L301.416 17.847L303.129 19.3801L304.031 20.9582L303.588 24.7275L301.81 27.9195L304.29 28.596L306.816 30.084L307.573 31.9958L307.374 34.2862L305.695 36.333L303.638 37.424L301.158 36.7475L298.633 35.2594L297.622 37.5949L295.944 39.6417L294.365 40.5433L292.074 40.3448L290.026 38.6674L289.603 36.8999L289.946 34.2759L291.102 31.6068L287.81 30.9754L285.573 28.82L284.672 27.2419L285.204 25.0958L286.26 23.5719L288.317 22.481L291.276 22.9681L294.135 24.6005Z" fill="#A6A5B2"/>
<ellipse cx="4.36292" cy="4.3626" rx="4.36292" ry="4.3626" transform="matrix(0.917861 0.396901 -0.397242 0.917714 294.567 23.5996)" fill="#D4B8B8"/>
<path d="M268.68 47.1376L269.935 43.3233L272.236 40.7535L273.671 40.1855L275.962 40.3841L277.675 41.9172L278.577 43.4953L278.134 47.2646L276.356 50.4566L278.836 51.1331L281.362 52.6212L282.119 54.5329L281.92 56.8233L280.241 58.8702L278.184 59.9611L275.704 59.2846L273.179 57.7966L272.168 60.132L270.489 62.1788L268.911 63.0805L266.62 62.8819L264.572 61.2045L264.149 59.4371L264.492 56.813L265.648 54.1439L262.355 53.5125L260.119 51.3571L259.217 49.779L259.75 47.6329L260.806 46.109L262.863 45.0181L265.821 45.5052L268.68 47.1376Z" fill="#A6A5B2"/>
<ellipse cx="4.36292" cy="4.3626" rx="4.36292" ry="4.3626" transform="matrix(0.917862 0.396901 -0.397242 0.917714 269.113 46.1367)" fill="#D4B8B8"/>
<path d="M369.044 50.7724L370.299 46.9581L372.6 44.3883L374.034 43.8203L376.325 44.0189L378.038 45.552L378.94 47.1301L378.497 50.8993L376.719 54.0914L379.2 54.7679L381.725 56.2559L382.482 58.1677L382.283 60.4581L380.605 62.5049L378.548 63.5959L376.067 62.9194L373.542 61.4313L372.531 63.7668L370.853 65.8136L369.274 66.7152L366.983 66.5167L364.936 64.8393L364.512 63.0718L364.856 60.4478L366.011 57.7787L362.719 57.1472L360.482 54.9919L359.581 53.4138L360.113 51.2677L361.169 49.7438L363.226 48.6529L366.185 49.14L369.044 50.7724Z" fill="#A6A5B2"/>
<ellipse cx="4.36292" cy="4.3626" rx="4.36292" ry="4.3626" transform="matrix(0.917862 0.396901 -0.397242 0.917714 369.477 49.7715)" fill="#D4B8B8"/>
<path d="M336.345 30.6963L339.383 28.0701L342.678 27.0491L344.2 27.2995L346.063 28.6477L346.744 30.8436L346.706 32.6607L344.387 35.6657L341.221 37.4893L343.001 39.3448L344.401 41.9194L344.068 43.9484L342.719 45.8104L340.227 46.703L337.902 46.5811L336.122 44.7256L334.722 42.1509L332.654 43.6342L330.162 44.5268L328.344 44.4883L326.481 43.1401L325.588 40.6489L326.133 38.9152L327.777 36.8413L330.141 35.1461L327.642 32.9118L326.832 29.9134L326.87 28.0963L328.431 26.5296L330.12 25.7655L332.445 25.8874L334.732 27.8263L336.345 30.6963Z" fill="#D5D4DF"/>
<ellipse cx="4.36275" cy="4.36278" rx="4.36275" ry="4.36278" transform="matrix(0.583152 0.812363 -0.812597 0.582826 337.231 30.0605)" fill="#D4B8B8"/>
<path d="M270.163 24.1534L273.201 21.5272L276.496 20.5061L278.018 20.7565L279.881 22.1048L280.562 24.3006L280.524 26.1177L278.206 29.1227L275.04 30.9463L276.819 32.8018L278.22 35.3765L277.886 37.4054L276.537 39.2675L274.045 40.1601L271.72 40.0381L269.941 38.1826L268.54 35.608L266.472 37.0912L263.98 37.9838L262.162 37.9454L260.299 36.5971L259.406 34.1059L259.952 32.3723L261.596 30.2983L263.959 28.6032L261.46 26.3688L260.65 23.3704L260.689 21.5533L262.249 19.9866L263.938 19.2225L266.264 19.3444L268.551 21.2834L270.163 24.1534Z" fill="#D5D4DF"/>
<ellipse cx="4.36275" cy="4.36278" rx="4.36275" ry="4.36278" transform="matrix(0.583152 0.812363 -0.812597 0.582826 271.05 23.5176)" fill="#D4B8B8"/>
<path d="M133.454 396.568L134.909 395.478L116.727 398.022L114.909 396.932L117.454 395.114L128 392.207L139.272 390.389L157.454 395.114L173.454 398.022L184.363 384.573L188.363 387.845L191.272 391.843L196.363 401.657L171.636 409.654L153.09 411.108L142.181 410.381L138.181 411.835L133.454 415.47L129.454 419.105H128.363L128 418.014L130.545 414.379L134.909 410.381L138.181 407.11L136.727 406.019L134.545 406.746L128.363 411.835L121.454 417.651L119.636 418.014L119.272 416.197L125.09 409.654L133.454 402.384L136 400.567H134.545L125.09 403.838L116 407.11L113.454 406.746L114.545 404.202L124.727 399.476L133.454 396.568Z" fill="#F6F2F2"/>
<path d="M133.454 396.568L134.909 395.478L116.727 398.022L114.909 396.931L117.454 395.114L128 392.206L139.272 390.389L154.181 395.478L163.636 399.476L171.636 404.201L182.181 403.838L194.181 402.384L171.636 409.654L153.09 411.108L142.181 410.381L138.181 411.835L133.454 415.469L129.454 419.104H128.363L128 418.014L130.545 414.379L134.909 410.381L138.181 407.109L136.727 406.019L134.545 406.746L128.363 411.835L121.454 417.65L119.636 418.014L119.272 416.196L125.09 409.654L133.454 402.384L136 400.566H134.545L125.09 403.838L116 407.109L113.454 406.746L114.545 404.201L124.727 399.476L133.454 396.568Z" fill="#E8E1E1"/>
<path d="M510.814 244.91L509.856 246.455L525.862 237.466L527.953 237.819L526.244 240.439L517.483 246.987L507.647 252.784L488.992 255.003L473.032 258.12L455.636 278.07L455.636 269.71L457.455 256.261L470.486 246.626L487.228 238.519L497.653 235.224L500.848 232.414L503.926 227.307L506.327 222.466L507.343 222.068L508.079 222.952L507.033 227.264L504.426 232.576L502.57 236.814L504.322 237.3L506.089 235.829L509.992 228.839L514.307 220.907L515.868 219.906L516.869 221.467L513.834 229.678L508.694 239.494L506.986 242.113L508.341 241.584L515.954 235.095L523.228 228.738L525.731 228.15L525.642 230.917L517.882 239.025L510.814 244.91Z" fill="#F6F2F2"/>
<path d="M510.814 244.91L509.856 246.455L525.862 237.465L527.953 237.819L526.244 240.438L517.483 246.986L507.647 252.783L491.908 253.472L481.646 253.191L472.473 251.703L457.091 258.805L457.455 256.26L470.486 246.625L487.228 238.519L497.653 235.224L500.848 232.413L503.926 227.307L506.327 222.465L507.343 222.068L508.079 222.951L507.033 227.263L504.426 232.576L502.57 236.814L504.322 237.3L506.089 235.829L509.992 228.839L514.307 220.907L515.868 219.906L516.869 221.466L513.834 229.678L508.694 239.494L506.986 242.113L508.341 241.583L515.954 235.094L523.228 228.738L525.731 228.149L525.642 230.916L517.882 239.024L510.814 244.91Z" fill="#E8E1E1"/>
<path d="M300.179 71.9455V77.2244C299.537 77.4914 298.566 77.7153 297.493 77.7939L305.168 90.6171C308.106 90.8862 311.252 90.9583 314.57 90.759L302.098 72.2967C301.172 72.2176 300.5 72.1034 300.179 71.9455Z" fill="#F4DE85"/>
<path fill-rule="evenodd" clip-rule="evenodd" d="M285.787 85.1426L282.909 67.6094C283.677 68.816 289.625 70.2488 292.503 70.8144V76.6588C292.795 76.8837 293.118 77.0708 293.462 77.2244L298.836 89.6928C293.295 88.5721 288.828 86.8147 285.787 85.1426ZM303.057 90.3863C303.748 90.4742 304.452 90.5515 305.168 90.6171L297.493 77.7939C296.971 77.8321 296.425 77.836 295.881 77.7939L303.057 90.3863ZM314.57 90.759L302.098 72.2967C306.478 72.6709 316.529 72.2568 321.862 71.9455V77.2244C324.011 78.1293 328.002 77.4129 329.729 76.6588V70.8144L341.818 68.3635L337.597 85.1426C329.381 88.7005 321.591 90.3373 314.57 90.759Z" fill="#E19059"/>
<path d="M293.462 77.2244L298.836 89.6928C300.181 89.965 301.59 90.1996 303.057 90.3863L295.881 77.7939C295.039 77.7287 294.201 77.5534 293.462 77.2244Z" fill="#F4DE85"/>
<path d="M282.909 68.3359C284.709 69.1074 288.732 70.8284 291.2 70.8284M319.734 72.0747C317.035 72.6088 311.829 72.9649 299.876 72.0747V77.0597M340.364 68.87C337.279 69.5822 336.315 69.7602 329.953 70.8284V76.1695" stroke="#FFF8ED" stroke-width="2" stroke-linecap="round"/>
<path d="M318.182 206.099L327.636 215.186L328 237.722L318.182 228.635V206.099Z" fill="#F4DE85"/>
<path d="M329.455 216.641L334.182 221.003L336.728 246.083L330.182 239.904L329.455 216.641Z" fill="#F4DE85"/>
<defs>
<filter id="filter0_f_5153_12548" x="290.545" y="123.948" width="18.9092" height="18.9043" filterUnits="userSpaceOnUse" color-interpolation-filters="sRGB">
<feFlood flood-opacity="0" result="BackgroundImageFix"/>
<feBlend mode="normal" in="SourceGraphic" in2="BackgroundImageFix" result="shape"/>
<feGaussianBlur stdDeviation="2" result="effect1_foregroundBlur_5153_12548"/>
</filter>
<filter id="filter1_f_5153_12548" x="316.728" y="123.948" width="18.9092" height="18.9043" filterUnits="userSpaceOnUse" color-interpolation-filters="sRGB">
<feFlood flood-opacity="0" result="BackgroundImageFix"/>
<feBlend mode="normal" in="SourceGraphic" in2="BackgroundImageFix" result="shape"/>
<feGaussianBlur stdDeviation="2" result="effect1_foregroundBlur_5153_12548"/>
</filter>
<linearGradient id="paint0_linear_5153_12548" x1="188.727" y1="180.291" x2="188.727" y2="668.095" gradientUnits="userSpaceOnUse">
<stop stop-color="#212D3C"/>
<stop offset="1" stop-color="#080F1F"/>
</linearGradient>
<linearGradient id="paint1_linear_5153_12548" x1="202" y1="180.291" x2="202" y2="656.1" gradientUnits="userSpaceOnUse">
<stop stop-color="#526773"/>
<stop offset="1" stop-color="#070E1E"/>
</linearGradient>
<linearGradient id="paint2_linear_5153_12548" x1="243.455" y1="379.484" x2="243.455" y2="656.101" gradientUnits="userSpaceOnUse">
<stop stop-color="#2F3E4C"/>
<stop offset="1" stop-color="#091020"/>
</linearGradient>
<linearGradient id="paint3_linear_5153_12548" x1="243.455" y1="379.484" x2="243.455" y2="656.1" gradientUnits="userSpaceOnUse">
<stop stop-color="#536975"/>
<stop offset="1" stop-color="#081020"/>
</linearGradient>
<linearGradient id="paint4_linear_5153_12548" x1="497.272" y1="197.375" x2="497.272" y2="679" gradientUnits="userSpaceOnUse">
<stop stop-color="#2E3D4B"/>
<stop offset="1" stop-color="#080F1F"/>
</linearGradient>
<linearGradient id="paint5_linear_5153_12548" x1="487.09" y1="197.375" x2="487.09" y2="656.463" gradientUnits="userSpaceOnUse">
<stop stop-color="#516773"/>
<stop offset="1" stop-color="#091121"/>
</linearGradient>
<linearGradient id="paint6_linear_5153_12548" x1="447.455" y1="232.271" x2="447.455" y2="426.738" gradientUnits="userSpaceOnUse">
<stop stop-color="#536975"/>
<stop offset="1" stop-color="#091121"/>
</linearGradient>
<linearGradient id="paint7_linear_5153_12548" x1="407.818" y1="197.375" x2="407.818" y2="656.463" gradientUnits="userSpaceOnUse">
<stop stop-color="#556B77"/>
<stop offset="1" stop-color="#0A1221"/>
</linearGradient>
<linearGradient id="paint8_linear_5153_12548" x1="316.364" y1="186.471" x2="345.802" y2="230.464" gradientUnits="userSpaceOnUse">
<stop stop-color="#4E6370"/>
<stop offset="1" stop-color="#091121"/>
</linearGradient>
<linearGradient id="paint9_linear_5153_12548" x1="225.273" y1="180.654" x2="225.454" y2="499.799" gradientUnits="userSpaceOnUse">
<stop stop-color="#506571"/>
<stop offset="1" stop-color="#091120"/>
</linearGradient>
</defs>
</svg>
