<svg width="666" height="802" viewBox="0 0 666 802" fill="none" xmlns="http://www.w3.org/2000/svg">
<path d="M387.484 69.9764L388.526 84.368L202.923 303.298L194.71 325.259L192.019 325.676L189.484 330.762L174.136 342.168L102.811 415.567L88.8868 400.811C78.3305 389.631 61.1418 389.631 50.5855 400.811L49.9778 401.453L50.2556 401.748L50.0472 402.373C45.9844 415.116 33.744 448.482 26.1914 449.854L12.0758 450.826L0.807617 493.289L67.2186 419.699L82.428 435.809L53.3634 473.707L34.3169 478.429L20.8611 516.552L58.086 501.865L62.1314 481.536L61.7147 481.12L98.0367 452.336L112.048 467.179L44.4218 535.718L83.8343 523.357L84.9455 508.879C86.213 501.657 112.222 489.852 127.796 483.862L128.16 484.244L128.768 483.602C128.768 483.602 128.855 483.515 128.924 483.428L130.227 482.769L129.845 482.369C139.429 470.998 139.012 453.899 128.785 443.048L114.67 428.101L209.173 336.283L218.167 321.596L215.302 322.047L405.611 96.6765H413.493L420.317 61.8691L387.484 69.9937V69.9764Z" fill="url(#paint0_linear_1677_6063)"/>
<mask id="mask0_1677_6063" style="mask-type:luminance" maskUnits="userSpaceOnUse" x="0" y="61" width="421" height="475">
<path d="M387.486 69.9774L388.528 84.369L202.925 303.299L194.712 325.26L192.021 325.677L189.486 330.763L174.138 342.169L102.813 415.568L88.8887 400.812C78.3324 389.632 61.1437 389.632 50.5874 400.812L49.9797 401.454L50.2575 401.749L50.0492 402.374C45.9864 415.117 33.7459 448.483 26.1933 449.855L12.0777 450.827L0.80957 493.29L67.2205 419.7L82.4299 435.81L53.3654 473.708L34.3189 478.43L20.8631 516.553L58.0879 501.866L62.1334 481.537L61.7167 481.12L98.0387 452.337L112.05 467.18L44.4238 535.719L83.8363 523.358L84.9475 508.88C86.2149 501.658 112.224 489.853 127.798 483.863L128.162 484.245L128.77 483.603C128.77 483.603 128.857 483.516 128.926 483.429L130.228 482.77L129.846 482.37C139.431 470.999 139.014 453.9 128.787 443.049L114.672 428.102L209.175 336.284L218.169 321.597L215.304 322.048L405.613 96.6774H413.495L420.318 61.8701L387.486 69.9947V69.9774Z" fill="white"/>
</mask>
<g mask="url(#mask0_1677_6063)">
<path d="M112.379 436.936C129.724 447.838 134.811 469.868 125.627 487.888C122.085 494.85 132.572 500.995 136.113 494.017C148.371 469.955 141.704 441.016 118.508 426.433C111.858 422.267 105.764 432.77 112.379 436.919V436.936Z" fill="#4E7D83"/>
<path d="M119.967 431.834C153.32 398.694 186.673 365.553 220.026 332.412C225.582 326.892 216.988 318.298 211.432 323.819C178.079 356.959 144.725 390.1 111.372 423.241C105.816 428.762 114.411 437.355 119.967 431.834Z" fill="#4E7D83"/>
<path d="M245.617 294.46C295.586 228.908 349.913 166.758 408.146 108.411C413.685 102.873 405.09 94.2792 399.552 99.8172C340.589 158.911 285.742 221.947 235.13 288.332C230.39 294.547 240.947 300.606 245.617 294.46Z" fill="#4E7D83"/>
<path d="M406.776 105.373C413.773 105.825 420.77 106.276 427.785 106.728C435.598 107.231 435.563 95.0788 427.785 94.5754C420.788 94.124 413.791 93.6726 406.776 93.2213C398.963 92.7178 398.998 104.87 406.776 105.373Z" fill="#4E7D83"/>
<path d="M391.637 64.6114C394.866 75.0102 402.419 81.2946 413.201 82.5793L407.957 73.4304C396.273 88.7943 397.783 109.279 410.319 123.584C415.475 129.469 424.052 120.859 418.913 114.991C409.711 104.488 410.214 90.4088 418.462 79.576C421.587 75.4616 417.177 70.8958 413.218 70.4271C408.009 69.8021 404.85 66.1218 403.374 61.3824C401.065 53.9349 389.328 57.1118 391.654 64.6114H391.637Z" fill="#4E7D83"/>
</g>
<path d="M433.012 10.4482C433.012 10.4482 450.479 -7.36344 460.254 3.62561C470.029 14.6147 484.127 12.2363 484.127 12.2363C484.127 12.2363 508.139 19.4408 507.861 44.6306C507.583 69.8203 530.293 83.4655 530.293 83.4655C530.293 83.4655 542.812 120.2 500.673 138.636C458.535 157.073 379.484 185.631 379.484 185.631C379.484 185.631 352.295 197.748 342.763 187.054C342.763 187.054 369.119 189.728 361.271 174.589C361.271 174.589 352.017 165.979 346.409 173.409C340.801 180.839 348.371 157.837 354.257 157.767C360.142 157.698 360.698 141.657 360.698 141.657C360.698 141.657 371.063 126.224 380.317 126.814C389.572 127.404 406.951 120.582 405.545 108.707C404.139 96.8329 405.771 79.9587 412.282 77.5456C418.792 75.1325 391.256 81.6079 391.811 55.2377C391.811 55.2377 408.913 56.8695 405.267 47.3214C401.621 37.7733 406.031 9.87531 413.914 10.1704C421.796 10.4656 430.217 10.4656 433.012 10.4656V10.4482Z" fill="url(#paint1_linear_1677_6063)"/>
<mask id="mask1_1677_6063" style="mask-type:luminance" maskUnits="userSpaceOnUse" x="342" y="0" width="191" height="192">
<path d="M433.013 10.4472C433.013 10.4472 450.48 -7.36442 460.255 3.62463C470.03 14.6137 484.128 12.2353 484.128 12.2353C484.128 12.2353 508.14 19.4398 507.862 44.6296C507.584 69.8193 530.294 83.4645 530.294 83.4645C530.294 83.4645 542.813 120.199 500.674 138.635C458.536 157.072 379.485 185.63 379.485 185.63C379.485 185.63 352.296 197.747 342.764 187.053C342.764 187.053 369.12 189.727 361.272 174.589C361.272 174.589 352.018 165.978 346.41 173.408C340.802 180.838 348.372 157.836 354.258 157.766C360.143 157.697 360.699 141.656 360.699 141.656C360.699 141.656 371.064 126.223 380.318 126.813C389.573 127.403 406.952 120.581 405.546 108.706C404.14 96.8319 405.772 79.9577 412.282 77.5446C418.793 75.1316 391.257 81.6069 391.812 55.2367C391.812 55.2367 408.914 56.8686 405.268 47.3204C401.622 37.7723 406.032 9.87433 413.915 10.1695C421.797 10.4646 430.218 10.4646 433.013 10.4646V10.4472Z" fill="white"/>
</mask>
<g mask="url(#mask1_1677_6063)">
<path d="M417.368 107.351C414.174 129.416 390.856 135.51 375.161 146.863C369.223 151.151 363.788 156.412 360.177 162.852C358.25 166.272 356.895 169.935 356.166 173.789C355.802 175.664 353.822 191.514 350.055 187.816L347.763 196.514C363.458 191.531 375.82 180.629 382.974 165.821C385.908 159.727 377.887 155.127 373.98 160.561C370.872 164.883 367.782 169.206 364.674 173.529L373.667 178.789C375.473 174.848 376.879 170.057 379.588 166.654C382.297 163.251 387.002 161.012 390.665 158.773C398.391 154.068 406.413 149.919 414.643 146.169L408.323 137.992C403.444 143.009 398.322 147.627 392.714 151.811C387.436 155.735 392.419 164.71 397.975 160.804L412.75 150.422L405.632 143.305C398.878 152.089 391.256 160.022 382.922 167.296C378.442 171.202 384.241 178.546 389.241 175.473L398.27 169.918C403.062 166.967 399.937 158.078 394.259 160.404C389.623 162.297 385.109 163.686 380.126 164.345L382.748 174.05C388.512 169.64 394.485 165.821 400.892 162.436C406.864 159.293 401.603 150.526 395.631 153.443L391.446 155.491L397.766 163.668C403.895 157.418 410.719 153.061 419.087 150.422L412.49 145.405C411.986 149.745 410.944 153.078 408.982 156.984C405.927 163.061 414.052 167.609 417.976 162.245C422.16 156.516 426.987 151.724 432.561 147.367L423.671 143.686C424.105 153.86 419.174 162.088 413.323 169.987L422.838 173.997C425.442 163.859 430.338 155.439 438.047 148.339L429.157 144.659C428.585 149.52 426.397 153.669 422.49 156.655L430.147 162.54C431.38 156.516 433.828 151.933 438.412 147.749L429.713 142.68C427.387 149.016 423.445 153.617 417.577 156.967L425.234 162.852C428.307 155.266 433.168 149.276 439.592 144.294L431.415 137.975C426.206 145.631 419.869 152.019 412.16 157.175L419.278 159.05C417.629 156.898 421.831 149.936 422.664 147.801C425.112 141.551 415.077 138.878 412.611 145.023C410.146 151.169 406.812 156.186 402.298 160.908L410.996 165.977C412.611 157.835 415.476 150.544 419.903 143.513L410.91 138.253C407.472 145.457 403.461 152.28 398.565 158.599L407.264 163.668C410.545 153.686 414.764 144.225 420.008 135.11L411.014 129.85L406.882 137.662C403.704 143.686 412.004 148.287 415.875 142.923L423.966 131.691L414.261 129.069C414.209 135.406 413.132 141.065 410.51 146.846C407.889 152.627 416.431 158.165 419.504 152.106C422.056 147.054 424.626 142.003 427.178 136.951L417.664 132.94L410.892 156.29C409.173 162.245 417.143 164.953 420.407 160.3C424.418 154.589 428.428 148.895 432.439 143.183L422.924 139.173L420.303 150.127C418.931 155.908 426.623 159.154 429.817 154.137L436.519 143.669L427.005 139.659L423.931 147.558C421.952 152.662 429.157 155.96 432.63 152.627C440.443 145.11 447.683 134.295 440.356 123.861L435.859 131.691L438.273 131.829L433.255 125.233C430.946 133.843 428.81 142.506 426.64 151.169C425.129 157.141 432.804 159.849 436.155 155.179C437.96 152.662 439.783 150.127 441.589 147.61L431.883 144.988C431.571 147.888 431.276 150.804 430.963 153.703H441.381C442.197 143.825 439.071 135.041 432.37 127.767C430.026 125.215 425.911 126.101 424.192 128.826C420.077 135.354 415.962 141.898 411.847 148.426C409.139 152.731 404.972 157.471 404.104 162.592C402.975 169.414 409.903 175.942 416.24 171.515C421.692 167.696 416.5 158.668 410.979 162.522C413.757 163.477 415.563 162.852 416.431 160.682L419.07 156.481C420.546 154.155 422.004 151.811 423.48 149.485C426.709 144.346 429.956 139.225 433.186 134.086L425.008 135.145C429.887 140.457 431.571 146.603 430.963 153.721C430.408 160.439 440.686 160.3 441.381 153.721C441.693 150.822 441.988 147.905 442.301 145.006C442.891 139.329 435.252 138.669 432.595 142.384C430.79 144.902 428.967 147.436 427.161 149.954L436.675 153.964C438.863 145.318 440.981 136.656 443.29 128.027C444.211 124.608 441.624 121.639 438.273 121.431L435.859 121.292C432.092 121.066 429.14 125.962 431.362 129.121C435.703 135.301 429.574 141.117 425.268 145.266L433.967 150.335L437.04 142.437C439.262 136.725 430.564 133.67 427.525 138.426L420.824 148.895L430.338 152.905L432.96 141.95C434.366 136.013 426.796 133.166 423.445 137.94L411.413 155.057L420.928 159.068L427.699 135.718C429.314 130.163 420.893 126.361 418.184 131.708L410.51 146.863L419.504 152.124C422.872 144.676 424.609 137.246 424.678 129.086C424.713 123.549 417.837 122.49 414.972 126.465L406.882 137.697L415.875 142.957L420.008 135.145C423.133 129.225 414.365 124.052 411.014 129.885C405.336 139.78 400.77 150.11 397.228 160.943C395.683 165.647 402.697 170.196 405.927 166.012C411.378 158.963 416.049 151.62 419.886 143.565C422.751 137.576 414.521 132.576 410.892 138.305C405.996 146.047 402.715 154.276 400.926 163.251C399.954 168.095 405.805 172.296 409.625 168.321C415.407 162.297 419.539 155.596 422.612 147.853L412.559 145.075C409.798 152.089 405.18 157.8 410.215 164.363C411.847 166.48 414.764 167.956 417.334 166.237C426.553 160.057 434.088 152.488 440.321 143.305C443.95 137.975 436.398 133.704 432.144 136.985C424.192 143.131 418.862 150.874 415.094 160.144C413.306 164.571 419.122 168.078 422.751 166.029C431.033 161.307 436.398 154.415 439.679 145.527C441.589 140.336 434.522 137.228 430.981 140.457C425.216 145.718 421.605 152.193 420.042 159.849C419.244 163.772 423.74 168.72 427.699 165.734C434.852 160.3 438.481 153.669 439.523 144.745C440.078 139.954 433.62 138.305 430.633 141.065C421.674 149.311 415.771 159.536 412.75 171.324C411.205 177.365 418.879 179.9 422.265 175.334C429.244 165.908 434.557 155.769 434.036 143.773C433.828 138.912 428.637 137.367 425.147 140.093C418.862 145.006 413.636 150.665 408.93 157.089L417.924 162.349C420.685 156.846 422.16 151.62 422.855 145.527C423.237 142.176 419.226 139.572 416.257 140.51C406.239 143.669 397.714 148.929 390.353 156.429C386.064 160.804 391.464 167.14 396.673 164.606L400.857 162.557L395.596 153.564C389.172 156.95 383.217 160.769 377.452 165.178C373.963 167.835 374.275 175.647 380.074 174.883C385.873 174.119 391.412 172.834 396.968 170.56L392.957 161.047L383.929 166.602L390.248 174.779C399.294 166.88 407.264 158.182 414.591 148.669C417.768 144.554 411.569 138.652 407.472 141.551C402.541 145.006 397.627 148.478 392.697 151.933L397.957 160.925C404.277 156.203 410.18 151.151 415.684 145.492C420.025 141.03 414.573 134.954 409.364 137.315C399.746 141.69 390.457 146.638 381.55 152.332C378.234 154.45 373.806 156.533 371.306 159.606C368.389 163.199 366.584 169.519 364.674 173.685C361.861 179.796 369.744 184.414 373.667 178.945C376.775 174.622 379.866 170.3 382.974 165.977L373.98 160.717C367.99 173.129 358.267 182.417 345.002 186.618C341.339 187.782 339.811 192.486 342.71 195.316C349.169 201.635 358.475 199.187 362.712 191.566C365.507 186.549 365.229 180.872 366.462 175.438C367.921 168.98 371.688 163.72 376.498 159.293C394.259 142.975 423.393 138.183 427.421 110.268C428.376 103.706 418.341 100.876 417.368 107.49V107.351Z" fill="#EFC06C"/>
<path d="M488.313 74.0888C488.226 87.4041 497.862 97.1259 501.143 109.434C504.043 120.302 499.911 132.367 491.091 139.277L498.348 143.495C502.202 126.239 505.97 103.931 490.726 90.772C486.889 87.4562 481.871 91.5358 483.902 96.0322C488.417 106.032 491.594 116.604 493.573 127.402L501.942 125.093C499.685 114.104 497.41 103.098 495.153 92.1087L488.781 97.0043C496.733 102.976 496.646 115.198 496.837 124.069C496.942 129.069 503.8 129.833 505.362 125.215L507.932 117.611C509.72 112.316 501.352 110.025 499.563 115.302L496.994 122.906L505.519 124.052C505.241 111.396 504.095 97.6987 493.174 89.4873C489.875 87.0048 486.125 91.0845 486.802 94.3829C489.059 105.372 491.334 116.378 493.591 127.367C494.059 129.659 496.785 130.996 498.938 130.405C501.369 129.746 502.393 127.385 501.977 125.059C499.858 113.497 496.265 102.334 491.42 91.6227L484.597 96.8828C497.289 107.854 493.174 126.968 489.997 141.169C488.99 145.683 493.921 147.991 497.254 145.387C507.672 137.228 512.29 123.062 510.206 110.215C509.147 103.653 505.918 97.6814 502.88 91.8483C499.841 86.0153 496.976 80.5294 497.028 74.0714C497.063 68.4814 488.382 68.4814 488.347 74.0714L488.313 74.0888Z" fill="#EFC06C"/>
<path d="M390.559 61.2615C392.573 67.7022 400.786 69.0389 406.55 68.0147C412.922 66.8689 418.6 62.7198 421.725 57.0603L420.145 56.3833C419.034 60.4109 418.929 64.6468 417.714 68.657C416.724 71.9034 414.762 75.4275 411.273 76.4344C407.783 77.4413 403.72 75.8789 400.82 73.8304C397.921 71.7818 395.681 68.7959 394.622 65.3933L393.164 66.2439C396.688 69.9937 401.81 72.0422 406.949 71.4867C407.818 71.3826 408.234 69.9243 407.175 69.7854C405.908 69.5944 404.623 69.4208 403.355 69.2299C402.262 69.0736 401.793 70.7402 402.887 70.8965C404.154 71.0874 405.439 71.261 406.706 71.452L406.932 69.7507C402.21 70.2715 397.608 68.4834 394.379 65.0287C393.789 64.4037 392.678 65.0461 392.921 65.8793C394.726 71.6603 399.553 76.3476 405.404 77.9795C408.512 78.8475 411.915 78.6912 414.554 76.7295C416.967 74.9414 418.426 72.1464 419.311 69.3167C420.579 65.2717 420.666 60.9664 421.794 56.8867C422.055 55.9493 420.683 55.3417 420.214 56.2097C417.436 61.2442 412.575 64.9072 406.967 66.1918C402.019 67.3203 394.014 66.6085 392.209 60.8449C391.879 59.7859 390.195 60.2373 390.542 61.3136L390.559 61.2615Z" fill="#EFC06C"/>
<path d="M401.135 67.1812L398.322 67.32C396.065 67.4242 394.885 70.0977 396.482 71.7643C399.538 74.9586 403.93 77.5279 408.497 77.1807C413.063 76.8335 416.917 74.0905 418.619 69.8199C419.001 68.8825 418.428 67.6325 417.681 67.077C416.848 66.452 415.719 66.3479 414.782 66.8687C411.414 68.7783 407.663 69.9067 403.774 70.0803L405.094 74.9412C405.962 74.4725 406.813 73.9864 407.681 73.5177C408.549 73.0489 409.07 71.9205 408.931 70.931C408.792 70.0282 408.08 68.8998 407.073 68.7609C406.24 68.6568 405.406 68.5353 404.573 68.4311V73.4482C410.719 72.5455 416.414 69.4554 420.772 65.0632C423.133 62.6675 419.452 58.9871 417.091 61.3828C413.306 65.2195 408.514 67.6325 403.201 68.4311C400.736 68.7957 400.701 73.1184 403.201 73.4482C404.035 73.5524 404.868 73.6739 405.701 73.7781L405.076 69.0214C404.208 69.4901 403.357 69.9762 402.489 70.4449C400.267 71.6775 401.204 75.4099 403.809 75.3058C408.618 75.0801 413.254 73.7607 417.438 71.3823L413.619 68.4485C412.785 70.5491 410.181 71.99 407.941 72.0073C405.007 72.042 402.281 70.306 400.18 68.1013L398.34 72.5455L401.152 72.4066C402.559 72.3372 403.757 71.2608 403.757 69.8026C403.757 68.4485 402.559 67.1291 401.152 67.1985L401.135 67.1812Z" fill="#EFC06C"/>
<path d="M433.726 11.1067L435.445 8.52003C435.688 8.1381 435.531 7.54787 435.132 7.33954C434.698 7.11386 434.212 7.25273 433.951 7.65202L432.233 10.2387C431.989 10.6206 432.146 11.2109 432.545 11.4192C432.979 11.6449 433.465 11.506 433.726 11.1067Z" fill="#EFC06C"/>
<path d="M428.776 25.1848C426.258 22.6155 422.629 19.4732 418.81 21.4523C415.233 23.3099 415.476 28.6568 415.372 32.0594C415.112 41.052 416.205 50.6175 412.004 58.9331C410.129 62.6135 407.264 65.9293 403.27 67.3008C402.42 67.5959 402.472 69.1236 403.496 69.0021C409.729 68.2382 415.112 64.5926 419.001 59.7664C423.428 54.2632 425.824 47.5274 427.213 40.6701C428.064 36.4516 428.567 32.181 428.984 27.9103L427.682 28.6568C428.151 28.8999 428.637 29.1429 429.106 29.386C429.956 29.82 430.877 28.7436 430.165 28.0145C427.89 25.775 425.078 24.1952 421.935 23.5703C420.841 23.3446 420.372 25.0285 421.466 25.2368C424.331 25.8097 426.866 27.1812 428.932 29.2297L429.991 27.8583C429.522 27.6152 429.036 27.3722 428.567 27.1291C427.942 26.8166 427.335 27.2159 427.265 27.8756C425.998 40.6007 423.741 55.4611 412.577 63.5162C409.886 65.4432 406.812 66.832 403.514 67.2313L403.739 68.9326C410.476 66.589 414.313 59.8185 415.893 53.2216C416.917 48.8989 417.039 44.4026 417.056 39.9757C417.056 37.6668 417.056 35.3752 417.091 33.0663C417.126 30.7574 417.126 28.5874 417.56 26.4347C417.994 24.282 419.296 22.3203 421.813 22.5807C424.192 22.8238 425.98 24.7508 427.578 26.3653C428.359 27.1638 429.592 25.9313 428.81 25.1327L428.776 25.1848Z" fill="#EFC06C"/>
<path d="M419.488 24.6668V27.4619C420.634 27.3056 421.78 27.1494 422.908 26.9931L422.682 25.5001C422.578 24.7884 421.71 24.1981 421.016 24.2328C420.703 24.2328 420.408 24.3196 420.147 24.4759C419.818 24.6495 419.418 25.1356 419.349 25.5175C419.262 26.0904 419.175 26.6633 419.071 27.2362L421.623 26.1945C421.345 25.9862 421.901 26.4723 421.658 26.2119C421.606 26.1425 421.536 26.0904 421.484 26.0383C421.293 25.83 421.484 26.0036 421.536 26.1078C421.502 26.021 421.415 25.9341 421.363 25.8473C421.328 25.7779 421.293 25.6911 421.241 25.6217C421.137 25.4307 421.363 26.0036 421.276 25.7085C421.241 25.6043 421.207 25.5175 421.189 25.4133C421.154 25.2918 421.12 24.9446 421.189 25.4654C421.102 24.7536 420.807 24.1634 420.13 23.8856C419.488 23.6252 418.724 23.7468 418.238 24.2502C418.029 24.4585 417.821 24.6669 417.613 24.8752L420.512 26.5591C420.512 26.455 420.668 26.0557 420.547 26.3334C420.425 26.6459 420.582 26.3508 420.582 26.3161C420.582 26.3682 420.304 26.6112 420.477 26.455C420.529 26.4029 420.599 26.3508 420.634 26.2987C420.738 26.1772 420.338 26.4723 420.495 26.4029C420.564 26.3855 420.634 26.3334 420.686 26.2987C420.894 26.1772 420.529 26.3508 420.512 26.3682C420.564 26.3161 421.068 26.2466 420.703 26.2987C420.338 26.3508 420.859 26.3334 420.929 26.2987C420.668 26.264 420.616 26.2466 420.738 26.2814C420.772 26.2814 420.807 26.2814 420.842 26.2987C420.929 26.3161 421.016 26.3508 421.102 26.3682C421.172 26.3855 421.241 26.4376 421.311 26.4376C421.172 26.4376 420.998 26.2987 421.259 26.4376C421.884 26.7501 422.422 27.1841 422.978 27.6007C423.637 28.1042 424.314 28.4861 425.113 28.7812C425.808 29.0243 426.728 28.625 427.075 27.9827C427.457 27.2535 427.318 26.4897 426.797 25.8821C426.398 25.4133 425.999 24.9446 425.617 24.4759C425.026 23.7815 423.759 23.8336 423.169 24.4759C422.491 25.2224 422.543 26.1946 423.169 26.9237C423.568 27.3924 423.967 27.8611 424.349 28.3299L426.033 25.4307C425.669 25.2918 426.381 25.6217 426.033 25.4307C425.947 25.3786 425.86 25.3439 425.79 25.3092C425.599 25.205 425.426 25.1009 425.252 24.9793C424.939 24.771 424.627 24.528 424.332 24.3023C423.585 23.7468 422.787 23.2259 421.884 23.0003C420.859 22.7399 419.818 22.844 418.88 23.3475C418.029 23.7988 417.3 24.6842 417.144 25.6564C417.022 26.4029 417.213 27.2362 417.942 27.6181C418.62 27.9827 419.488 27.9132 420.043 27.3403C420.252 27.132 420.46 26.9237 420.668 26.7154L417.699 25.4828C417.786 26.2466 417.942 26.941 418.342 27.6181C418.741 28.2951 419.227 28.7639 419.835 29.1979C420.686 29.8055 422.214 29.2152 422.387 28.1563C422.474 27.5834 422.561 27.0105 422.665 26.4376H419.314L419.54 27.9306C419.592 28.3125 420.009 28.7986 420.338 28.9722C420.686 29.1632 421.05 29.2326 421.45 29.1805C422.283 29.059 422.96 28.3472 422.96 27.4792V24.6842C422.96 23.7815 422.144 22.9135 421.207 22.9482C420.269 22.9829 419.47 23.712 419.47 24.6842L419.488 24.6668Z" fill="#EFC06C"/>
<path d="M428.202 27.3563L429.174 28.398C429.174 28.398 429.348 28.5368 429.452 28.5716C429.556 28.6236 429.66 28.6584 429.782 28.641C429.903 28.641 430.008 28.6236 430.112 28.5716C430.216 28.5368 430.32 28.4848 430.389 28.398C430.546 28.2243 430.65 28.016 430.65 27.7903L430.615 27.5647C430.58 27.4258 430.494 27.2869 430.389 27.1827L429.417 26.1411C429.417 26.1411 429.244 26.0022 429.139 25.9675C429.035 25.9154 428.931 25.8807 428.81 25.8981C428.688 25.8981 428.584 25.9154 428.48 25.9675C428.375 26.0022 428.271 26.0543 428.202 26.1411C428.046 26.3147 427.941 26.523 427.941 26.7487L427.976 26.9744C428.011 27.1133 428.098 27.2522 428.202 27.3563Z" fill="#EFC06C"/>
<path d="M425.286 23.9539L422.89 22.3567L421.553 25.5337C423.497 26.2454 423.115 29.3703 422.647 30.8633C421.813 33.4499 420.337 35.7241 419.938 38.4497C419.625 40.6024 422.751 41.6093 423.289 39.3698C423.827 37.1303 424.313 35.1339 424.834 32.9986H421.483C421.744 34.1791 422.021 35.3596 422.282 36.5401C422.699 38.3629 425.06 38.0157 425.633 36.5401C426.206 35.0644 426.779 33.5367 427.352 32.0264H424.001C424.07 32.4778 424.14 32.9291 424.227 33.3979C424.556 35.4464 427.491 34.752 427.63 32.9291C427.699 32.0438 427.786 31.1584 427.855 30.273C428.011 28.3113 424.904 27.9294 424.452 29.8043L423.48 33.8839L426.883 34.3527C426.935 32.6514 426.57 31.1584 425.876 29.6133C425.494 28.78 424.226 28.537 423.497 28.9883C421.709 30.1168 420.303 31.5403 419.191 33.3458L422.421 34.2138L422.265 29.3182C422.212 27.7384 419.764 26.7662 419.035 28.4502C418.237 30.2556 417.802 32.0611 417.75 34.0402H421.223V30.4466C421.223 28.5196 418.271 28.0509 417.802 29.9779L417.299 32.1132H420.65C420.164 30.6376 419.695 29.1619 419.209 27.6863L416.309 29.3703C417.195 30.4119 418.063 31.4535 418.948 32.5125C419.521 33.2069 420.823 33.1722 421.396 32.5125C422.855 30.8459 424.661 30.1168 426.866 30.3425L425.129 28.6064C424.99 42.2863 419.278 55.6364 409.087 64.8547L411.535 67.3024C419.539 58.0147 420.025 45.4459 420.216 33.7971H416.743C417.038 37.8768 417.316 41.9565 417.611 46.0188C417.716 47.5291 420.112 48.6228 420.841 46.8868C421.379 45.6195 421.917 44.3695 422.438 43.1022L419.261 42.6856C419.66 44.5605 419.625 46.3139 419.191 48.1714L422.594 48.6402C422.751 47.1472 422.924 45.6542 423.081 44.1786C423.289 42.3731 420.685 41.9565 419.851 43.3106L418.705 45.1508L421.883 46.4875L423.549 41.4183L420.146 40.9496L419.764 45.9667C419.608 48.0326 422.542 48.1541 423.167 46.4354L424.539 42.6162C425.199 40.776 422.212 39.4913 421.362 41.2794L418.41 47.4944L421.587 48.8311L423.463 41.9912C424.053 39.8385 420.719 38.9184 420.112 41.0711L417.976 48.6054L421.327 49.5255C421.813 47.5117 422.23 45.4459 422.785 43.4494C423.341 41.453 424.574 39.5607 425.581 37.6858L422.403 36.3491C421.153 42.6162 419.018 48.6055 415.962 54.2128C414.886 56.1919 417.733 57.8237 418.966 55.9662C419.33 55.4107 419.695 54.8725 420.06 54.317L416.882 53.9003L416.934 54.1781L417.108 52.8414L416.952 53.1017L417.993 52.3032L417.733 52.3726L419.417 52.824L419.209 52.633L419.712 53.8656L419.608 54.2128C420.91 52.39 417.907 50.6713 416.604 52.4594C415.736 53.6746 416.431 55.5322 417.941 55.7579C419.643 56.0183 420.459 54.4038 420.216 52.9802C419.955 51.3831 417.785 51.4525 417.038 52.5636C416.674 53.1191 416.309 53.6573 415.945 54.2128L418.948 55.9662C422.143 50.0984 424.435 43.8314 425.737 37.2692C426.102 35.429 423.549 34.1096 422.56 35.9324C421.57 37.7553 420.198 39.6996 419.608 41.7134C418.948 43.9703 418.514 46.3139 417.959 48.6054C417.403 50.897 420.702 51.6782 421.31 49.5255L423.445 41.9912L420.094 41.0711L418.219 47.911C417.716 49.7512 420.528 51.0706 421.396 49.2478L424.348 43.0328L421.171 41.6961L419.799 45.5153L423.202 45.984L423.584 40.9669C423.74 38.9358 420.754 38.7275 420.181 40.4982L418.514 45.5674C417.889 47.477 420.667 48.536 421.692 46.9041L422.838 45.064L419.608 44.1959C419.452 45.6889 419.278 47.1819 419.122 48.6575C418.914 50.6192 422.091 51.0012 422.525 49.1263C423.115 46.6611 423.133 44.2654 422.594 41.8002C422.299 40.4461 420.007 39.9948 419.417 41.3836C418.879 42.6509 418.341 43.9008 417.82 45.1681L421.049 46.0361C420.754 41.9565 420.476 37.8768 420.181 33.8145C420.025 31.6098 416.743 31.5577 416.709 33.8145C416.535 44.4216 416.361 56.3655 409.034 64.872C407.576 66.556 409.816 68.8302 411.483 67.3198C422.334 57.5286 428.393 43.1717 428.55 28.6238C428.55 27.6169 427.734 26.9919 426.813 26.8878C423.758 26.5579 420.91 27.7731 418.896 30.0647H421.344C420.459 29.0231 419.591 27.9815 418.705 26.9225C417.577 25.5857 415.285 27.0093 415.806 28.6064C416.292 30.0821 416.761 31.5577 417.247 33.0333C417.75 34.5957 420.181 34.7867 420.598 33.0333L421.101 30.898L417.698 30.4292V34.0228C417.698 36.2623 421.136 36.2623 421.171 34.0228C421.205 32.6687 421.431 31.4188 421.969 30.1862L418.74 29.3182L418.896 34.2138C418.948 35.9325 421.223 36.5748 422.126 35.0818C422.924 33.7798 423.897 32.7902 425.199 31.9743L422.82 31.3493C423.254 32.3389 423.376 33.2763 423.341 34.3353C423.289 36.2797 426.293 36.7137 426.744 34.804L427.716 30.7244L424.313 30.2556C424.244 31.141 424.157 32.0264 424.088 32.9118L427.491 32.443C427.421 31.9917 427.352 31.5403 427.265 31.0716C426.97 29.1967 424.452 29.6654 423.914 31.0716C423.341 32.5819 422.768 34.0749 422.195 35.5852H425.546C425.286 34.4048 425.008 33.2243 424.747 32.0438C424.365 30.3772 421.796 30.4119 421.396 32.0438C420.876 34.1617 420.372 36.2797 419.851 38.415L423.202 39.3351C423.74 35.62 426.397 32.5125 426.397 28.6759C426.397 25.8114 425.181 23.1553 422.386 22.1484C420.459 21.454 419.487 24.2837 421.049 25.3253L423.445 26.9225C425.32 28.1551 427.057 25.1517 425.199 23.9192L425.286 23.9539Z" fill="#EFC06C"/>
<path d="M437.128 24.4901C437.371 21.2438 440.462 18.9869 443.604 19.23C447.042 19.4904 449.907 22.0076 451.903 24.629C455.723 29.6461 458.293 35.6354 461.783 40.8956C465.272 46.1558 468.988 50.8604 473.693 54.7665C475.829 56.5546 478.155 58.0128 480.499 59.4884C482.843 60.9641 485.569 62.7001 485.916 65.6166L488.885 64.384C480.881 56.4504 469.3 56.19 459.352 52.2145C453.518 49.8882 449.125 45.7738 445.375 40.8261C443.5 38.361 441.677 35.809 440.028 33.1703C438.257 30.3406 436.885 26.8511 439.055 23.8652H436.052C436.59 25.0804 436.746 26.3303 436.555 27.6497L439.958 28.1184C440.132 27.3372 439.715 26.9379 438.691 26.9379C438.968 28.8476 442.337 28.4136 442.094 26.4692C441.92 25.0978 442.163 24.0735 443.188 23.1013L440.462 22.7541L440.496 22.9798L443.674 24.3165L444.021 22.5111C444.455 20.3237 441.104 19.3862 440.67 21.591L440.323 23.3965C439.975 25.1846 442.667 26.6602 443.5 24.7332C444.073 23.3964 444.09 22.3375 443.465 21.0181C442.979 19.9765 441.486 19.9417 440.739 20.6709C439.142 22.2159 438.361 24.2818 438.639 26.5039L442.042 26.0352C441.833 24.5075 440.166 23.57 438.691 23.9867C436.868 24.5075 436.486 26.5039 436.486 28.1358C436.486 30.0107 439.611 30.5836 439.889 28.6045C440.219 26.2783 439.958 24.2992 439.021 22.1465C438.448 20.8271 436.694 21.2264 436.017 22.1465C431.798 27.9796 436.642 34.5765 440.01 39.4026C443.726 44.6975 447.806 49.9577 453.483 53.2561C463.779 59.2628 477.6 58.1517 486.385 66.8492C487.357 67.8214 489.528 67.179 489.354 65.6166C488.764 60.478 484.527 57.926 480.482 55.4088C475.29 52.1971 471.019 47.805 467.391 42.9268C463.762 38.0485 460.793 32.7189 457.772 27.424C454.977 22.5458 451.244 17.2856 445.393 16.001C439.541 14.7163 434.038 18.5529 433.621 24.4728C433.465 26.6949 436.937 26.6949 437.093 24.4728L437.128 24.4901Z" fill="#EFC06C"/>
<path d="M439.158 19.631L438.238 21.2803C436.797 23.8496 440.2 26.5578 442.336 24.4398C447.406 19.4054 457.649 40.7758 459.472 43.8486C463.952 51.4003 469.977 59.0041 478.918 61.1741L479.613 56.0529C461.417 56.2612 446.468 43.1021 442.075 25.8286L437.318 27.8424C442.961 36.3316 448.604 44.8208 454.246 53.2926C456.087 56.0702 460.566 53.5183 458.743 50.6712C453.639 42.6855 449.402 34.2137 446.121 25.3252L441.363 27.339C447.024 34.8907 452.111 42.8417 456.608 51.1399L461.104 48.5185C456.382 40.7238 451.659 32.929 446.919 25.1342L442.822 28.2938C447.909 33.8491 452.145 40.0641 455.548 46.7999C457.059 49.8032 461.521 47.1644 460.045 44.1784C457.406 38.7968 454.437 33.6061 451.121 28.6063L447.024 31.7659C452.267 38.1371 456.816 45.0117 460.722 52.2857L464.82 49.1261C462.945 47.1818 461.209 44.6993 458.656 43.7097C455.861 42.616 452.961 41.7827 450.027 41.2098C444.298 40.0814 438.464 39.8557 432.665 40.6022C429.696 40.9842 429.192 44.5604 431.97 45.7235L435.773 47.3033L434.627 42.9459C433.759 43.6924 432.856 44.0222 431.745 44.2132C428.863 44.734 429.522 49.456 432.439 49.3344L435.634 49.1956L434.939 44.0743L431.658 45.0291C428.446 45.9666 429.783 50.8274 433.047 50.0462L436.762 49.1608C438.829 48.6748 439.436 45.359 437.387 44.4041C436.207 43.8486 435.426 43.1368 434.991 41.8695L434.314 44.4041C434.54 44.2305 434.783 44.1784 435.044 44.3L434.419 39.5433C432.457 40.9321 430.321 41.5571 427.942 41.0362V46.0534C429.679 45.3937 431.206 45.2027 433.047 45.4284L430.79 41.505C430.095 42.7723 429.227 43.2063 427.803 43.0674L429.644 47.5116C430.338 46.8693 430.946 46.7478 431.866 46.7999L430.547 41.939C429.974 42.3556 429.453 42.6855 428.741 42.3556L429.262 46.4527C430.165 45.5326 431.015 45.4978 432.179 45.9666L431.554 41.2098L430.165 42.1126L433.325 42.5119C432.561 41.7133 433.134 41.1404 434.106 41.2619C437.006 41.6439 437.665 36.6962 434.8 36.1407C434.019 36.0018 433.95 35.8108 433.811 35.047L433.134 37.5816L434.401 36.349L432.561 37.1128C432.873 37.1649 433.134 37.3038 433.325 37.5468L434.887 33.7276C434.245 33.8491 433.707 33.7276 433.134 33.4151L434.419 35.6719L434.523 34.2831L433.238 36.5399C433.377 36.5226 433.516 36.5747 433.62 36.6962L432.943 34.1616L432.63 35.7761L434.453 33.9533L428.932 35.2032L431.467 39.5606C431.467 39.5606 431.085 39.4044 431.05 39.3176L433.568 36.0191C432.717 35.915 432.075 35.4115 431.502 34.8386L430.981 38.9357C431.849 38.3801 432.977 38.3281 433.655 39.2655L435.912 35.3421L434.21 35.3074V40.5154C434.089 40.0814 434.054 40.0988 434.106 40.5849C434.228 41.4702 435.148 42.1473 435.929 42.4077C438.065 43.1021 440.165 43.5535 441.676 41.4182C442.718 39.9252 442.805 37.842 441.676 36.3837C438.638 32.4603 433.134 37.4079 435.408 41.3314C437.092 44.2305 441.589 41.6091 439.905 38.71L439.87 39.7342C437.249 39.2829 436.624 38.7447 437.978 38.1197C438.655 37.894 438.742 37.7378 438.238 37.6684L437.335 37.3732L439.158 39.1961C438.846 36.8698 436.589 35.0296 434.228 35.3074C430.981 35.6893 430.79 40.4286 434.228 40.5154L435.929 40.5502C437.787 40.6022 439.349 38.2586 438.186 36.6267C435.912 33.4672 431.814 32.252 428.394 34.422C426.987 35.3074 426.64 37.2864 427.873 38.519C429.522 40.1509 431.345 40.9321 433.62 41.2272C435.269 41.4355 436.624 39.387 436.137 37.9288C434.957 34.4393 430.512 32.9984 427.838 35.8629C426.05 37.8072 427.821 40.7932 430.373 40.2203L435.894 38.9704C436.71 38.7794 437.561 37.9982 437.717 37.1476C438.169 34.8213 438.256 33.1547 435.929 31.9395C434.193 31.0367 432.387 31.2624 430.668 32.0263C429.817 32.4082 429.436 33.4325 429.383 34.2831L429.279 35.6719C429.21 36.5399 429.817 37.5295 430.564 37.9288C432.457 38.9183 434.245 39.144 436.328 38.7621C437.856 38.4843 438.863 36.2101 437.891 34.9428C435.686 32.0783 432.092 30.6895 429.522 33.9185C427.248 36.7656 430.547 40.637 433.481 41.1925L434.175 36.0712C428.446 35.3247 426.067 42.4598 429.713 46.2096C430.477 47.0082 431.918 47.2339 432.873 46.6089L434.262 45.7062C436.276 44.3868 435.686 41.7827 433.637 40.9494C430.825 39.8037 427.734 40.6543 425.651 42.7723C424.557 43.8833 424.644 46.1228 426.171 46.8693C428.515 47.9977 431.068 48.0324 433.238 46.4527C435.408 44.8729 434.609 41.748 431.918 41.5918C429.626 41.4529 427.682 42.3035 425.998 43.8312C424.192 45.4978 425.755 48.0671 427.838 48.2755C430.963 48.588 433.828 46.8519 435.321 44.1264C436.346 42.2515 435.009 40.446 433.064 40.2029C430.842 39.9425 428.654 40.2029 426.571 41.0189C424.383 41.8522 423.827 45.4457 426.571 46.036C430.269 46.8346 433.95 46.2096 437.058 44.0222C438.742 42.8244 438.794 39.7863 436.433 39.2655C434.071 38.7447 432.404 39.3002 430.651 40.7238C429.974 41.2619 429.713 42.4598 429.974 43.2584C430.807 45.7235 432.352 47.772 434.766 48.9004L435.391 44.1437L431.675 45.0291L433.064 50.0462L436.346 49.0914C439.089 48.2928 438.672 43.8486 435.651 43.9701L432.457 44.109L433.151 49.2303C435.148 48.8657 436.815 47.9283 438.342 46.6089C439.992 45.1853 438.829 42.9459 437.196 42.2515L433.394 40.6717L432.7 45.793C437.891 45.1333 443.152 45.168 448.291 46.1402C450.722 46.6089 453.118 47.2339 455.462 48.0498C456.746 48.5012 457.302 48.7789 458.222 49.7337L461.174 52.8065C463.275 54.9765 466.643 52.2163 465.271 49.6469C461.157 41.9911 456.278 34.7866 450.756 28.0855C448.881 25.8113 445.027 28.7799 446.659 31.2451C449.975 36.2448 452.944 41.4355 455.583 46.8172L460.08 44.1958C456.486 37.0781 451.92 30.5159 446.537 24.6482C444.541 22.4608 440.912 25.2905 442.44 27.8077L456.625 51.192C458.361 54.0564 462.719 51.5219 461.122 48.5706C456.625 40.2724 451.538 32.3214 445.878 24.7697C444.28 22.6344 439.992 23.7454 441.12 26.7835C444.558 36.0886 448.933 45.0117 454.281 53.3794L458.778 50.758C453.135 42.2688 447.492 33.7797 441.85 25.3078C440.235 22.8948 436.346 24.3704 437.092 27.3216C442.041 46.7999 459.195 61.5908 479.647 61.3651C482.53 61.3304 483.259 56.9556 480.342 56.2438C470.168 53.7613 465.046 43.1889 460.34 34.856C457.771 30.3076 455.01 25.4641 451.156 21.8705C447.683 18.6415 442.44 17.1659 438.707 20.881L442.805 24.0405L443.725 22.3913C445.374 19.4748 440.877 16.836 439.228 19.7699L439.158 19.631Z" fill="#EFC06C"/>
<path d="M432.509 38.0153C430.409 37.4251 428.117 38.2931 426.728 39.9423C425.46 41.4526 424.887 43.2928 424.453 45.1851L429.575 45.8795C429.575 45.324 429.61 44.7511 429.627 44.1956C429.645 43.5706 429.332 42.7894 428.863 42.3554C428.325 41.8519 427.752 41.6783 427.023 41.5915C425.86 41.4526 424.54 41.8172 423.603 42.5116L427.422 45.4455C427.474 45.3066 427.544 45.1504 427.579 45.0115C427.37 45.6712 427.474 45.2545 427.579 45.0636C427.7 44.8032 427.839 44.5601 427.995 44.3171C428.065 44.2129 428.134 44.1088 428.204 43.9872C428.499 43.5359 427.804 44.4386 428.169 44.022C428.377 43.7963 428.586 43.5706 428.794 43.3449L424.436 40.8103L421.884 49.3863C421.502 50.6883 422.352 52.2854 423.707 52.5979C425.061 52.9104 426.485 52.1813 426.919 50.7751L429.471 42.1991C429.784 41.1402 429.263 39.7861 428.273 39.2653C427.283 38.7444 425.981 38.8486 425.113 39.6645C423.846 40.8971 422.96 42.4074 422.387 44.0567C422.04 45.0288 422.543 46.192 423.325 46.7996C424.106 47.4072 425.391 47.6155 426.224 47.0079C426.346 46.9211 426.485 46.8517 426.606 46.7649C426.016 46.9385 427.006 46.4871 426.606 46.7649C426.676 46.7475 426.745 46.7302 426.832 46.7128C426.415 46.7649 426.294 46.7822 426.502 46.7649C426.676 46.7649 426.849 46.7649 427.023 46.7822L424.419 44.1782C424.419 44.7337 424.384 45.3066 424.366 45.8621C424.332 47.1642 425.391 48.2579 426.624 48.4141C427.856 48.5703 429.193 47.8239 429.488 46.5566C429.627 45.9316 429.784 45.3066 429.975 44.6816C430.027 44.5254 430.079 44.3865 430.131 44.2303C430.304 43.6921 429.87 44.7685 430.113 44.265C430.252 43.9872 430.409 43.7095 430.565 43.4491C430.825 43.0324 430.166 43.8484 430.513 43.5011C430.617 43.397 430.721 43.2928 430.825 43.1887C431.138 42.8415 430.322 43.4838 430.756 43.2407C430.877 43.1713 430.999 43.1019 431.12 43.0151C431.502 42.772 430.548 43.1713 431.016 43.0671C431.12 43.0498 431.537 42.963 431.068 43.0151C430.565 43.0671 431.086 43.0324 431.207 43.0151C431.416 43.0151 431.294 43.0151 430.86 42.963C430.947 42.963 431.051 42.9977 431.138 43.0324C432.457 43.397 434.037 42.5811 434.35 41.2096C434.662 39.8381 433.933 38.3972 432.527 37.9979L432.509 38.0153Z" fill="#EFC06C"/>
<path d="M504.545 70.0633C505.76 79.3858 512.983 85.757 518.504 92.7706C524.563 100.461 527.654 110.027 527.498 119.818C527.411 125.321 526.3 130.79 524.077 135.841C523.626 136.848 525.136 137.734 525.57 136.709C529.494 127.751 530.223 117.596 527.897 108.134C526.751 103.447 524.824 98.8987 522.15 94.8712C519.476 90.8436 516.316 87.5625 513.347 83.9515C510.031 79.9066 506.975 75.3929 506.281 70.0807C506.142 68.987 504.406 68.9696 504.545 70.0807V70.0633Z" fill="#EFC06C"/>
</g>
<path d="M258.052 741.662L249.839 751.696L246.106 766.366C246.106 766.366 261.021 806.971 301.51 801.347C301.51 801.347 316.962 797.111 314.827 785.983C312.691 774.855 303.107 754.422 303.107 754.422L274.338 748.242L258.034 741.662H258.052Z" fill="#5D4E34"/>
<path d="M515.517 762.445L512.149 765.848V771.282C512.149 771.282 593.353 788.538 609.656 785.673C625.959 782.809 633.026 780.743 633.026 780.743C633.026 780.743 631.966 772.74 625.594 773.365C619.222 773.99 572.587 771.455 572.587 771.455L515.517 762.445Z" fill="#5D4E34"/>
<path d="M419.315 56.2976L415.322 72.7031C415.322 72.7031 415.947 82.3727 413.638 85.6885C411.328 89.0043 421.607 129.87 421.607 129.87C421.607 129.87 434.611 132.093 440.705 132.093C446.8 132.093 437.563 155.199 437.563 155.199C437.563 155.199 413.638 168.775 408.186 168.775C402.734 168.775 380.441 156.189 355.665 200.249C355.665 200.249 320.002 214.415 313.057 229.622L302.154 240.108H285.312L219.926 296.755L193.674 308.299L175.739 329.097L167.092 336.544L164.853 351.561L176.398 340.52L178.187 338.871L199.838 334.27C201.418 334.027 202.633 335.763 201.921 337.291L197.98 345.919L191.365 353.175L185.653 358.922L204.282 354.269C209.404 352.985 213.919 349.825 217.044 345.346L234.111 320.816C234.111 320.816 299.793 302.223 303.838 297.64C307.884 293.057 324.656 272.45 324.656 272.45C324.656 272.45 384.66 258.145 389.521 249.552C394.383 240.959 401.953 276.738 401.953 276.738L412.231 296.477C412.231 296.477 417.232 314.809 420.478 322.205C423.725 329.6 402.335 358.575 402.335 358.575C402.335 358.575 388.896 378.504 385.997 387.115C383.097 395.726 356.689 443.727 356.689 450.185C356.689 456.643 347.209 521.848 347.209 521.848L312.693 558.391C312.693 558.391 289.688 592.07 288.334 601.393C286.979 610.715 274.791 670.903 274.791 670.903L270.554 711.595L261.439 734.511C261.439 734.511 249.268 758.659 251.039 764.822C256.474 783.762 272.43 790.672 296.911 795.862C304.307 797.425 311.043 799.317 307.415 774.006C307.415 774.006 301.39 721.543 302.102 715.12C302.814 708.696 319.551 664.723 326.496 660.122C333.441 655.522 356.845 611.027 356.845 611.027L366.395 565.544L380.267 550.857C380.267 550.857 397.612 540.753 402.821 532.49C408.03 524.226 454.474 459.941 454.474 459.941L477.409 540.753L493.018 579.328L488.678 629.846L517.308 718.922C517.308 718.922 512.151 763.017 517.308 767.999C522.465 772.981 602.245 782.582 610.961 780.967C619.676 779.353 629.069 773.676 629.069 771.558C629.069 769.44 554.654 716.89 554.654 716.89C554.654 716.89 543.265 689.201 544.602 675C545.939 660.799 550.644 615.368 550.644 615.368L539.254 566.394L537.917 520.251L542.605 440.741C542.605 440.741 533.212 384.667 530.538 378.278C527.864 371.89 530.226 349.894 530.226 349.894L527.639 330.833L552.606 271.218L554.707 265.402C554.707 265.402 566.947 291.321 570.871 294.428C574.795 297.536 577.729 318.281 577.729 318.281C577.729 318.281 604.172 375.831 620.336 391.385C620.336 391.385 624.26 401.749 619.364 412.131C614.468 422.495 608.599 447.39 608.599 447.39C608.599 447.39 615.457 452.06 616.916 447.91C618.374 443.761 629.104 431.835 629.104 431.835C629.104 431.835 645.807 452.58 645.807 457.233C645.807 461.885 635.528 467.076 635.528 467.076L633.08 479.003L645.807 471.225V487.822C645.807 493.012 650.703 493.012 650.703 493.012L662.457 469.68L665.878 454.646V432.356C665.878 432.356 647.265 400.725 646.293 396.073C645.321 391.42 627.68 315.191 626.222 310.521C624.764 305.851 606.637 286.668 606.637 286.668C606.637 286.668 603.217 251.41 601.255 245.195C599.293 238.98 587.539 217.193 587.539 217.193C587.539 217.193 587.053 191.274 584.118 183.496C581.184 175.719 564.534 162.751 564.534 162.751L506.752 147.196C506.752 147.196 493.036 129.575 493.539 123.343C493.539 123.343 486.195 102.719 486.195 94.8895C486.195 94.8895 489.494 95.6186 492.515 91.2265C495.536 86.8343 495.536 66.7311 494.876 66.2971C494.216 65.8631 489.928 62.5299 487.549 64.075C485.17 65.6201 482.601 71.3316 482.601 71.3316L473.347 56.3671C473.347 56.3671 456.766 47.3918 453.536 47.3918C450.307 47.3918 428.343 46.7495 420.374 52.3047L419.35 56.3671L419.315 56.2976Z" fill="url(#paint2_linear_1677_6063)"/>
<mask id="mask2_1677_6063" style="mask-type:luminance" maskUnits="userSpaceOnUse" x="164" y="47" width="502" height="750">
<path d="M419.317 56.2976L415.324 72.7031C415.324 72.7031 415.949 82.3727 413.639 85.6885C411.33 89.0043 421.609 129.87 421.609 129.87C421.609 129.87 434.613 132.093 440.707 132.093C446.802 132.093 437.565 155.199 437.565 155.199C437.565 155.199 413.64 168.775 408.188 168.775C402.736 168.775 380.443 156.189 355.667 200.249C355.667 200.249 320.004 214.415 313.059 229.622L302.156 240.108H285.314L219.928 296.755L193.676 308.299L175.741 329.097L167.094 336.544L164.854 351.561L176.4 340.52L178.189 338.871L199.84 334.27C201.42 334.027 202.635 335.763 201.923 337.291L197.982 345.919L191.367 353.175L185.655 358.922L204.284 354.269C209.406 352.985 213.92 349.825 217.046 345.346L234.113 320.816C234.113 320.816 299.795 302.223 303.84 297.64C307.885 293.057 324.657 272.45 324.657 272.45C324.657 272.45 384.662 258.145 389.523 249.552C394.385 240.959 401.955 276.738 401.955 276.738L412.233 296.477C412.233 296.477 417.234 314.809 420.48 322.205C423.727 329.6 402.337 358.575 402.337 358.575C402.337 358.575 388.898 378.504 385.999 387.115C383.099 395.726 356.691 443.727 356.691 450.185C356.691 456.643 347.211 521.848 347.211 521.848L312.695 558.391C312.695 558.391 289.69 592.07 288.335 601.393C286.981 610.715 274.793 670.903 274.793 670.903L270.556 711.595L261.441 734.511C261.441 734.511 249.27 758.659 251.041 764.822C256.476 783.762 272.432 790.672 296.912 795.862C304.309 797.425 311.045 799.317 307.417 774.006C307.417 774.006 301.392 721.543 302.104 715.12C302.816 708.696 319.553 664.723 326.498 660.122C333.443 655.522 356.847 611.027 356.847 611.027L366.397 565.544L380.269 550.857C380.269 550.857 397.614 540.753 402.823 532.49C408.031 524.226 454.476 459.941 454.476 459.941L477.411 540.753L493.02 579.328L488.68 629.846L517.31 718.922C517.31 718.922 512.153 763.017 517.31 767.999C522.467 772.981 602.247 782.582 610.963 780.967C619.678 779.353 629.071 773.676 629.071 771.558C629.071 769.44 554.656 716.89 554.656 716.89C554.656 716.89 543.267 689.201 544.604 675C545.941 660.799 550.646 615.368 550.646 615.368L539.256 566.394L537.919 520.251L542.607 440.741C542.607 440.741 533.214 384.667 530.54 378.278C527.866 371.89 530.228 349.894 530.228 349.894L527.641 330.833L552.608 271.218L554.709 265.402C554.709 265.402 566.949 291.321 570.873 294.428C574.797 297.536 577.731 318.281 577.731 318.281C577.731 318.281 604.174 375.831 620.338 391.385C620.338 391.385 624.262 401.749 619.366 412.131C614.47 422.495 608.601 447.39 608.601 447.39C608.601 447.39 615.459 452.06 616.918 447.91C618.376 443.761 629.106 431.835 629.106 431.835C629.106 431.835 645.809 452.58 645.809 457.233C645.809 461.885 635.53 467.076 635.53 467.076L633.082 479.003L645.809 471.225V487.822C645.809 493.012 650.705 493.012 650.705 493.012L662.459 469.68L665.88 454.646V432.356C665.88 432.356 647.267 400.725 646.295 396.073C645.323 391.42 627.682 315.191 626.224 310.521C624.766 305.851 606.639 286.668 606.639 286.668C606.639 286.668 603.219 251.41 601.257 245.195C599.295 238.98 587.541 217.193 587.541 217.193C587.541 217.193 587.055 191.274 584.12 183.496C581.186 175.719 564.536 162.751 564.536 162.751L506.754 147.196C506.754 147.196 493.038 129.575 493.541 123.343C493.541 123.343 486.197 102.719 486.197 94.8895C486.197 94.8895 489.496 95.6186 492.517 91.2265C495.538 86.8343 495.538 66.7311 494.878 66.2971C494.218 65.8631 489.93 62.5299 487.551 64.075C485.172 65.6201 482.603 71.3316 482.603 71.3316L473.349 56.3671C473.349 56.3671 456.768 47.3918 453.538 47.3918C450.309 47.3918 428.345 46.7495 420.376 52.3047L419.352 56.3671L419.317 56.2976Z" fill="white"/>
</mask>
<g mask="url(#mask2_1677_6063)">
<path d="M421.627 129.851C421.627 129.851 461.283 122.907 467.099 118.15C472.915 113.394 481.649 96.8146 481.649 96.8146L486.163 94.8008L495.868 130.615L510.73 144.451C510.73 144.451 482.169 180.578 469.998 182.54C457.827 184.501 400.983 177.783 397.007 174.693C393.031 171.603 380.878 172.731 376.502 174.276C372.127 175.821 391.451 153.704 391.451 153.704L428.277 152.02L421.61 129.851" fill="#A06647"/>
<path d="M341.137 551.896C341.137 551.896 336.692 564.534 341.137 573.718C345.581 582.902 366.416 565.489 366.416 565.489L430.136 508.912L454.495 459.887L389.404 529.744L361.312 557.26L345.859 565.437L341.102 551.914L341.137 551.896Z" fill="#A06647"/>
<path d="M540.332 479.176L539.255 566.324L532.657 577.313C532.657 577.313 529.845 590.698 526.338 593.667C522.83 596.635 502.464 581.028 502.464 581.028L525.643 602.59C525.643 602.59 538.977 594.413 538.977 589.952C538.977 585.49 549.881 622.867 549.881 622.867L547.12 649.897L562.156 606.305V568.39L560.055 518.584L540.349 479.176" fill="#A06647"/>
<path d="M341.135 491.867C341.135 491.867 359.851 599.9 542.607 440.672L533.978 392.723C533.978 392.723 362.595 422.982 356.448 415.187C350.302 407.392 341.135 491.867 341.135 491.867Z" fill="#A06647"/>
<path d="M395.218 228.787C395.218 228.787 389.871 239.047 398.448 262.744C407.025 286.441 378.238 262.744 378.238 262.744L324.675 272.413L303.857 297.603L275.418 315.467L336.308 258.386L395.201 228.787H395.218Z" fill="#A06647"/>
<path d="M555.957 194.64C559.899 196.532 560.506 233.44 554.725 265.313C547.971 302.568 571.514 309.2 566.166 305.207L570.16 333.747L587.852 343.434L583.147 293.593L555.975 194.64H555.957Z" fill="#A06647"/>
</g>
<path d="M419.191 63.0863C419.191 63.0863 423.515 59.7011 424.591 59.9441C425.668 60.1872 427.456 63.2599 427.317 63.9023C427.178 64.5446 421.049 62.1315 419.191 63.1037V63.0863Z" fill="#FFD074"/>
<path d="M441.121 61.3846C441.121 61.3846 442.666 58.0341 443.256 58.0341C443.846 58.0341 457.545 57.166 461.452 59.7006C461.452 59.7006 442.388 60.0131 441.121 61.3672V61.3846Z" fill="#FFD074"/>
<path d="M423.952 104.125C423.952 104.125 437.06 96.6944 440.567 96.8159C444.075 96.9374 447.703 100.462 447.703 100.462L423.952 104.125Z" fill="white"/>
<path d="M427.855 70.7074C427.491 76.7662 425.511 82.6513 422.056 87.6337C421.744 88.1024 422.49 88.5364 422.803 88.0677C426.345 82.9464 428.359 76.9051 428.723 70.6901C428.758 70.1346 427.89 70.1346 427.855 70.6901V70.7074Z" fill="#A06647"/>
<path d="M421.761 89.614C421.987 91.0896 422.751 92.5131 423.879 93.4853L424.4 92.8083C423.289 92.0097 422.49 90.8118 422.108 89.5098C421.952 88.9717 421.119 89.1973 421.275 89.7355C421.726 91.2632 422.664 92.6173 423.966 93.5548C424.365 93.8325 424.869 93.1902 424.487 92.8777C423.445 91.975 422.803 90.7424 422.594 89.3883C422.56 89.1626 422.264 89.0237 422.056 89.0932C421.813 89.1626 421.709 89.3883 421.761 89.6313V89.614Z" fill="#A06647"/>
<path d="M424.525 105.062C431.956 103.049 439.543 101.642 447.217 100.913C447.773 100.861 447.773 99.9931 447.217 100.045C439.473 100.792 431.799 102.198 424.299 104.229C423.761 104.368 423.986 105.219 424.525 105.062Z" fill="#A06647"/>
<path d="M427.317 73.3968C427.317 73.3968 425.146 65.4806 422.438 66.852C419.729 68.2235 419.521 73.1885 419.521 73.1885L427.317 73.3968Z" fill="url(#paint3_linear_1677_6063)"/>
<path d="M443.762 67.9115C443.762 67.9115 445.203 62.634 449.96 63.3978C454.717 64.1617 460.256 69.6823 460.256 69.6823H445.793L443.762 67.9289" fill="url(#paint4_linear_1677_6063)"/>
<path d="M443.792 68.969L443.236 73.8472C443.236 73.8472 455.182 71.3647 458.064 71.4168C460.946 71.4689 461.432 70.2884 461.432 70.2884C461.432 70.2884 446.796 65.115 443.792 68.969Z" fill="#F1F2F2"/>
<mask id="mask3_1677_6063" style="mask-type:luminance" maskUnits="userSpaceOnUse" x="443" y="67" width="19" height="7">
<path d="M443.793 68.969L443.237 73.8472C443.237 73.8472 455.183 71.3647 458.065 71.4168C460.947 71.4689 461.433 70.2884 461.433 70.2884C461.433 70.2884 446.797 65.115 443.793 68.969Z" fill="white"/>
</mask>
<g mask="url(#mask3_1677_6063)">
<path d="M446.067 75.3205C448.042 75.3205 449.644 73.3385 449.644 70.8937C449.644 68.4488 448.042 66.4668 446.067 66.4668C444.092 66.4668 442.49 68.4488 442.49 70.8937C442.49 73.3385 444.092 75.3205 446.067 75.3205Z" fill="#00B3D3"/>
</g>
<path d="M419.524 73.1712C419.524 73.1712 418.795 78.4313 419.524 78.3445C420.253 78.2577 426.365 75.7578 426.365 75.7578C426.365 75.7578 427.389 74.994 427.319 74.4211C427.25 73.8482 425.948 71.8691 423.604 71.8691C421.26 71.8691 419.524 73.1538 419.524 73.1538V73.1712Z" fill="#F1F2F2"/>
<mask id="mask4_1677_6063" style="mask-type:luminance" maskUnits="userSpaceOnUse" x="419" y="71" width="9" height="8">
<path d="M419.522 73.1741C419.522 73.1741 418.793 78.4342 419.522 78.3474C420.252 78.2606 426.363 75.7608 426.363 75.7608C426.363 75.7608 427.387 74.9969 427.318 74.424C427.249 73.8511 425.946 71.8721 423.603 71.8721C421.259 71.8721 419.522 73.1567 419.522 73.1567V73.1741Z" fill="white"/>
</mask>
<g mask="url(#mask4_1677_6063)">
<path d="M421.24 78.9584C422.602 78.9584 423.705 77.2407 423.705 75.1218C423.705 73.0029 422.602 71.2852 421.24 71.2852C419.878 71.2852 418.774 73.0029 418.774 75.1218C418.774 77.2407 419.878 78.9584 421.24 78.9584Z" fill="#00B3D3"/>
</g>
<path d="M417.406 74.4388L420.479 71.6786C420.479 71.6786 421.555 69.2308 426.625 73.0674C426.625 73.0674 422.649 70.6196 417.406 74.4562V74.4388Z" fill="#231F20"/>
<path d="M441.121 70.8982C441.121 70.8982 443.933 66.3672 447.44 66.3672C450.948 66.3672 459.802 69.1275 461.452 70.2906C461.452 70.2906 444.975 65.3256 441.121 70.8982Z" fill="#231F20"/>
<path d="M493.433 166.468C497.947 162.423 498.156 154.438 504.562 152.511C511.698 150.375 518.938 154.872 526.161 154.49C528.384 154.368 528.401 150.896 526.161 151.018C518.418 151.434 510.9 146.66 503.156 149.316C499.996 150.393 497.687 152.597 496.09 155.479C494.492 158.361 493.503 161.746 490.968 164.003C489.301 165.496 491.766 167.944 493.416 166.451L493.433 166.468Z" fill="#A06647"/>
<path d="M372.262 226.895C379.884 227.538 387.194 230.142 393.6 234.274C395.475 235.489 397.229 232.485 395.354 231.27C388.409 226.791 380.492 224.1 372.262 223.406C370.04 223.215 370.04 226.687 372.262 226.878V226.895Z" fill="#A06647"/>
<path d="M392.02 231.271C401.43 240.524 400.649 256.235 411.917 264.169C413.74 265.454 415.476 262.45 413.671 261.166C408.445 257.485 405.944 251.131 403.722 245.385C401.5 239.639 399.104 233.354 394.468 228.806C392.87 227.244 390.422 229.691 392.02 231.254V231.271Z" fill="#A06647"/>
<path d="M420.787 267.624C438.722 267.988 456.588 262.884 471.797 253.406C476.086 250.732 480.166 247.694 483.986 244.378C484.836 243.649 483.604 242.416 482.753 243.146C469.453 254.673 452.942 262.363 435.527 264.95C430.649 265.679 425.7 265.974 420.769 265.87C419.658 265.853 419.658 267.589 420.769 267.606L420.787 267.624Z" fill="#A06647"/>
<path d="M475.288 183.74C475.531 183.74 475.757 183.74 476 183.74C476.069 183.74 476.121 183.74 476.191 183.757C476.087 183.757 476.104 183.757 476.191 183.757C476.312 183.775 476.434 183.809 476.555 183.827C476.781 183.879 477.007 183.948 477.232 184.035C477.285 184.052 477.354 184.087 477.406 184.104C477.337 184.07 477.337 184.07 477.406 184.104C477.528 184.156 477.632 184.209 477.736 184.278C477.944 184.382 478.135 184.504 478.309 184.643C478.361 184.677 478.413 184.712 478.465 184.747C478.552 184.799 478.378 184.677 478.5 184.781C478.587 184.851 478.674 184.938 478.76 185.007C478.934 185.181 479.108 185.354 479.264 185.528C479.264 185.528 479.403 185.702 479.333 185.615C479.264 185.528 479.403 185.719 479.403 185.719C479.472 185.823 479.542 185.927 479.611 186.049C479.854 186.431 480.392 186.622 480.792 186.361C481.191 186.101 481.365 185.58 481.104 185.181C479.889 183.202 477.614 181.882 475.27 182.004C474.819 182.021 474.385 182.386 474.402 182.872C474.42 183.323 474.784 183.757 475.27 183.74H475.288Z" fill="#A06647"/>
<path d="M483.294 194.868C485.378 206.864 487.461 218.877 489.544 230.873C489.735 231.966 491.402 231.498 491.211 230.404C489.128 218.408 487.044 206.395 484.961 194.399C484.77 193.305 483.103 193.774 483.294 194.868Z" fill="#A06647"/>
<path d="M505.118 246.271C515.431 254.968 527.88 265.02 542.36 261.826C543.454 261.582 542.985 259.916 541.891 260.159C528.123 263.197 516.125 253.284 506.35 245.038C505.5 244.326 504.267 245.542 505.118 246.271Z" fill="#A06647"/>
<path d="M548.383 258.595L551.352 253.63C551.578 253.248 551.457 252.658 551.04 252.45C550.623 252.242 550.102 252.346 549.859 252.762L546.89 257.727C546.665 258.109 546.786 258.7 547.203 258.908C547.619 259.116 548.14 259.012 548.383 258.595Z" fill="#A06647"/>
<path d="M533.593 237.763L536.405 238.544C537.082 238.735 537.812 238.475 538.228 237.919C538.419 237.676 538.524 237.416 538.576 237.104C538.628 236.756 538.576 236.288 538.367 235.992C538.02 235.558 537.69 235.107 537.291 234.725C536.892 234.343 536.457 233.979 536.006 233.631C535.207 233.024 534.357 232.59 533.419 232.225L532.499 235.576C532.794 235.645 533.072 235.732 533.35 235.854L532.933 235.68C533.35 235.854 533.749 236.097 534.114 236.374L533.766 236.097C534.114 236.374 534.426 236.687 534.704 237.034L534.426 236.687C534.496 236.791 534.565 236.878 534.634 236.982C534.895 237.364 535.225 237.659 535.676 237.781C536.093 237.902 536.648 237.85 537.013 237.607C537.378 237.364 537.708 237.017 537.812 236.565C537.916 236.114 537.899 235.611 537.638 235.229C536.648 233.753 535.155 232.607 533.402 232.225C532.95 232.121 532.464 232.156 532.065 232.399C531.7 232.607 531.353 233.024 531.266 233.44C531.162 233.892 531.179 234.378 531.44 234.777L531.718 235.124C531.926 235.333 532.186 235.489 532.482 235.576C532.534 235.593 532.603 235.628 532.655 235.645L532.238 235.472C532.95 235.784 533.627 236.183 534.252 236.652L533.905 236.374C534.53 236.86 535.086 237.416 535.572 238.041L535.294 237.694L535.329 237.746L537.291 235.194L534.478 234.413C534.044 234.291 533.523 234.361 533.141 234.586C532.777 234.795 532.429 235.211 532.343 235.628C532.238 236.079 532.256 236.565 532.516 236.965C532.777 237.364 533.107 237.642 533.558 237.763H533.593Z" fill="#A06647"/>
<path d="M436.798 241.947C436.902 241.773 437.024 241.6 437.128 241.426C437.18 241.357 437.215 241.287 437.267 241.218C437.267 241.218 437.51 240.888 437.354 241.096C437.197 241.305 437.406 241.027 437.44 240.992C437.51 240.905 437.579 240.836 437.631 240.766C437.753 240.627 437.874 240.489 437.996 240.367C438.274 240.072 438.569 239.794 438.881 239.551C438.934 239.499 439.038 239.447 439.072 239.395C438.899 239.534 438.864 239.551 438.968 239.482C439.003 239.464 439.038 239.43 439.072 239.412C439.229 239.291 439.402 239.187 439.559 239.065C439.871 238.857 440.201 238.666 440.548 238.492C440.704 238.405 440.861 238.336 441.034 238.249C441.277 238.145 441.139 238.145 441 238.249C441.069 238.197 441.191 238.162 441.277 238.145C441.625 238.006 441.989 237.902 442.354 237.798C442.545 237.746 442.736 237.711 442.927 237.676C443.066 237.642 443.691 237.555 443.17 237.624L441.503 235.419C441.451 235.558 441.364 235.715 441.347 235.853C441.399 235.524 441.434 235.662 441.347 235.819C441.312 235.888 441.277 235.958 441.243 236.027C441.086 236.322 440.913 236.583 440.722 236.86C440.583 237.051 440.722 236.843 440.791 236.791C440.739 236.826 440.687 236.912 440.652 236.964C440.548 237.086 440.427 237.225 440.305 237.346C440.201 237.451 440.079 237.555 439.975 237.659C439.923 237.711 439.854 237.763 439.802 237.798C439.645 237.954 440.149 237.555 439.836 237.763C439.593 237.937 439.333 238.093 439.072 238.249C438.986 238.301 438.899 238.336 438.829 238.371C438.777 238.388 438.534 238.492 438.777 238.405C439.02 238.319 438.777 238.405 438.725 238.423C438.656 238.457 438.586 238.475 438.517 238.492C438.222 238.596 437.909 238.666 437.597 238.718C437.336 238.77 437.683 238.683 437.736 238.718C437.683 238.683 437.51 238.735 437.458 238.735C437.284 238.735 437.128 238.735 436.954 238.735C436.051 238.718 435.183 239.551 435.218 240.471C435.253 241.391 435.982 242.19 436.954 242.207C440.566 242.294 443.743 239.707 444.837 236.34C445.149 235.367 444.264 233.996 443.17 234.135C441.26 234.378 439.437 234.968 437.805 236.027C436.173 237.086 434.801 238.492 433.777 240.159C433.291 240.94 433.586 242.103 434.402 242.537C435.218 242.971 436.26 242.745 436.781 241.912L436.798 241.947Z" fill="#A06647"/>
<path d="M423.461 328.491C423.009 325.019 421.95 321.686 420.231 318.613C419.693 317.641 418.182 318.509 418.738 319.481C420.283 322.258 421.308 325.331 421.724 328.473C421.776 328.942 422.072 329.341 422.592 329.341C423.009 329.341 423.53 328.942 423.461 328.473V328.491Z" fill="#A06647"/>
<path d="M421.762 313.751C425.704 302.623 432.319 292.519 441.087 284.603C441.92 283.856 440.687 282.624 439.854 283.37C430.86 291.495 424.124 301.876 420.078 313.282C419.714 314.341 421.38 314.792 421.745 313.751H421.762Z" fill="#A06647"/>
<path d="M489.283 266.305C489.283 273.214 489.283 280.124 489.283 287.05C489.283 288.162 491.019 288.162 491.019 287.05C491.019 280.141 491.019 273.232 491.019 266.305C491.019 265.194 489.283 265.194 489.283 266.305Z" fill="#A06647"/>
<path d="M441.901 319.982L452.961 317.256C454.037 316.996 453.586 315.312 452.492 315.589L441.432 318.315C440.356 318.575 440.807 320.259 441.901 319.982Z" fill="#A06647"/>
<path d="M457.215 311.877C459.403 307.173 461.642 302.26 465.358 298.527C468.726 295.125 473.709 292.85 478.484 294.309C479.56 294.638 480.012 292.955 478.953 292.642C473.917 291.097 468.657 293.198 464.872 296.6C460.601 300.454 458.1 305.888 455.722 311.009C455.253 312.016 456.746 312.901 457.215 311.877Z" fill="#A06647"/>
<path d="M498.052 293.717C504.303 294.811 510.084 297.745 514.685 302.102C515.501 302.866 516.734 301.651 515.918 300.869C511.109 296.321 505.049 293.179 498.521 292.05C497.427 291.859 496.958 293.526 498.052 293.717Z" fill="#A06647"/>
<path d="M517.446 306.649L518.731 314.305C518.8 314.774 519.373 315.034 519.807 314.912C520.293 314.774 520.484 314.305 520.415 313.836L519.13 306.18C519.061 305.712 518.488 305.451 518.054 305.573C517.567 305.712 517.376 306.18 517.446 306.649Z" fill="#A06647"/>
<path d="M488.919 300.559C489.283 307.33 488.589 314.083 486.818 320.628C486.523 321.704 488.207 322.173 488.485 321.096C490.273 314.413 491.002 307.486 490.638 300.576C490.585 299.465 488.849 299.465 488.901 300.576L488.919 300.559Z" fill="#A06647"/>
<path d="M481.679 322.308L468.05 321.857C466.939 321.822 466.939 323.558 468.05 323.593L481.679 324.044C482.79 324.079 482.79 322.343 481.679 322.308Z" fill="#A06647"/>
<path d="M494.456 323.906C498.536 324.357 502.651 324.114 506.644 323.194C507.738 322.951 507.269 321.267 506.176 321.527C502.321 322.395 498.38 322.604 494.456 322.17C493.987 322.118 493.588 322.604 493.588 323.038C493.588 323.541 493.987 323.854 494.456 323.906Z" fill="#A06647"/>
<path d="M484.647 331.216C485.133 336.476 484.56 341.737 482.98 346.771C482.633 347.83 484.317 348.299 484.647 347.24C486.279 342.084 486.87 336.615 486.383 331.234C486.279 330.123 484.543 330.123 484.647 331.234V331.216Z" fill="#A06647"/>
<path d="M466.123 349.667C466.453 349.736 466.783 349.823 467.113 349.945C467.46 350.066 467.616 350.136 467.946 350.292C468.537 350.587 469.144 350.986 469.596 351.351C470.69 352.271 471.454 353.313 472.044 354.632C472.235 355.066 472.86 355.153 473.224 354.945C473.659 354.684 473.728 354.181 473.537 353.764C472.27 350.917 469.648 348.66 466.592 348C466.141 347.896 465.654 348.139 465.516 348.608C465.394 349.042 465.654 349.58 466.123 349.684V349.667Z" fill="#A06647"/>
<path d="M495.238 353.56C499.162 350.383 503.103 347.223 507.027 344.046C507.391 343.751 507.322 343.126 507.027 342.813C506.662 342.449 506.159 342.518 505.794 342.813C501.87 345.99 497.929 349.15 494.005 352.327C493.64 352.622 493.71 353.247 494.005 353.56C494.37 353.924 494.873 353.855 495.238 353.56Z" fill="#A06647"/>
<path d="M511.508 336.633V328.977C511.508 327.866 509.772 327.866 509.772 328.977V336.633C509.772 337.744 511.508 337.744 511.508 336.633Z" fill="#A06647"/>
<path d="M431.846 338.87V346.526C431.846 347.637 433.582 347.637 433.582 346.526V338.87C433.582 337.759 431.846 337.759 431.846 338.87Z" fill="#A06647"/>
<path d="M435.529 348.49C442.942 357.725 447.665 368.94 449.401 380.641C449.557 381.735 451.242 381.266 451.068 380.172C449.28 368.159 444.349 356.736 436.761 347.257C436.067 346.389 434.834 347.622 435.529 348.49Z" fill="#A06647"/>
<path d="M495.067 391.247C500.884 381.178 507.985 371.925 516.267 363.783C517.066 363.002 515.833 361.769 515.034 362.55C506.648 370.796 499.443 380.188 493.557 390.379C493.001 391.351 494.494 392.219 495.05 391.247H495.067Z" fill="#A06647"/>
<path d="M466.885 297.606L482.077 292.519C482.945 292.224 482.875 290.714 481.851 290.818C478.083 291.2 474.385 291.946 470.774 293.057C469.871 293.335 469.992 294.793 470.999 294.759C475.132 294.654 479.229 293.821 483.066 292.293C484.091 291.877 483.639 290.21 482.598 290.627C478.882 292.102 474.975 292.936 470.982 293.04L471.208 294.741C474.663 293.665 478.222 292.918 481.816 292.554L481.591 290.853L466.398 295.939C465.339 296.286 465.791 297.97 466.867 297.606H466.885Z" fill="#A06647"/>
<path d="M431.676 341.299C431.641 344.58 433.794 347.184 436.051 349.32C438.308 351.455 440.93 353.555 441.155 356.75C441.242 357.861 442.978 357.861 442.892 356.75C442.649 353.555 440.548 351.16 438.308 349.059C436.068 346.959 433.36 344.632 433.394 341.299C433.394 340.188 431.676 340.188 431.658 341.299H431.676Z" fill="#A06647"/>
<path d="M285.171 618.717C285.171 618.717 271.993 649.931 270.587 711.56C270.587 711.56 289.286 721.594 302.117 715.066L344.655 633.161L310.677 641.32L285.171 618.717Z" fill="url(#paint5_linear_1677_6063)"/>
<path d="M493.363 644.289L517.323 718.869C517.323 718.869 542.204 723.799 554.67 716.82C554.67 716.82 546.909 686.7 548.176 639.445L537.307 652.309L493.363 644.289Z" fill="url(#paint6_linear_1677_6063)"/>
<path d="M296.926 795.811C296.926 795.811 269.459 716.024 270.032 712.916L268.695 716.267C268.695 716.267 293.037 794.214 294.201 795.221C295.364 796.228 296.909 795.811 296.909 795.811H296.926Z" fill="#5D4E34"/>
<path d="M532.932 772.288C532.932 772.288 594.985 752.411 598.649 748.244C598.649 748.244 604.118 749.893 602.816 751.265C601.513 752.636 544.478 774.354 538.714 773.312L532.95 772.288H532.932Z" fill="#5D4E34"/>
<path d="M527.41 388C527.41 388 404.641 419.735 399.432 395.448C399.432 395.448 393.703 372.81 397.349 369.512C400.995 366.196 383.789 377.237 383.789 377.237L355.645 437.39L346.772 481.208C346.772 481.208 364.829 515.425 398.738 509.748C432.647 504.071 537.289 418.155 537.289 418.155V403.069C537.289 403.069 536.873 385.257 527.393 387.983L527.41 388Z" fill="url(#paint7_linear_1677_6063)"/>
<mask id="mask5_1677_6063" style="mask-type:luminance" maskUnits="userSpaceOnUse" x="346" y="368" width="192" height="143">
<path d="M527.409 387.999C527.409 387.999 404.64 419.734 399.431 395.447C399.431 395.447 393.702 372.809 397.348 369.511C400.994 366.195 383.788 377.236 383.788 377.236L355.644 437.389L346.771 481.207C346.771 481.207 364.828 515.424 398.737 509.747C432.646 504.07 537.288 418.154 537.288 418.154V403.068C537.288 403.068 536.872 385.257 527.392 387.982L527.409 387.999Z" fill="white"/>
</mask>
<g mask="url(#mask5_1677_6063)">
<path d="M386.812 400.465C386.812 400.465 389.225 462.494 518.54 390.171C518.54 390.171 384.798 448.588 386.812 390.674C388.826 332.76 386.812 400.465 386.812 400.465Z" fill="#95ACB8"/>
<path d="M372.086 402.271C372.086 402.271 362.276 441.366 391.236 434.543C391.236 434.543 368.717 439.647 364.689 437.529C360.661 435.394 360.661 415.812 360.661 415.812L372.086 402.271Z" fill="#95ACB8"/>
<path d="M409.727 432.844C409.727 432.844 452.595 437.6 506.175 396.891C506.175 396.891 448.74 432.844 409.727 432.844Z" fill="#95ACB8"/>
<path d="M534.303 390.882C534.303 390.882 531.195 393.66 525.57 397.913C519.944 402.166 531.195 401.749 531.195 401.749C531.195 401.749 512.687 416.662 504.648 419.214C496.609 421.766 541.248 410.69 541.647 405.586C542.047 400.482 534.286 390.882 534.286 390.882" fill="#95ACB8"/>
<path d="M362.679 448.59C362.679 448.59 381.586 496.296 504.668 419.199C504.668 419.199 375.562 523.968 362.679 448.59Z" fill="#95ACB8"/>
<path d="M351.739 456.678L356.635 472.024L346.773 489.055L336.911 475.861L351.739 456.678Z" fill="#95ACB8"/>
<path d="M365.889 485.652C365.889 485.652 449.28 523.602 537.29 418.173L439.088 512.491C439.088 512.491 372.729 506.953 365.889 485.669V485.652Z" fill="#95ACB8"/>
</g>
<path d="M477.32 417.689C484.421 411.127 499.683 410.467 499.527 397.36C499.336 382.795 511.281 386.909 511.281 386.909C511.281 386.909 518.122 400.763 525.188 397.933C532.237 395.103 545.311 386.788 545.363 394.843C545.415 402.898 532.446 415.484 532.446 415.484C532.446 415.484 554.982 439.702 548.002 445.396C541.04 451.09 517.861 435.761 517.861 435.761C517.861 435.761 506.541 463.451 497.53 462.288C491.922 461.558 497.339 428.4 497.339 428.4C497.339 428.4 475.775 436.976 472.251 427.775C471.174 424.963 473.292 418.765 477.355 417.672L477.32 417.689Z" fill="#7CAEA5"/>
<mask id="mask6_1677_6063" style="mask-type:luminance" maskUnits="userSpaceOnUse" x="471" y="386" width="79" height="77">
<path d="M477.321 417.686C484.422 411.124 499.683 410.464 499.527 397.357C499.336 382.792 511.282 386.906 511.282 386.906C511.282 386.906 518.122 400.76 525.189 397.93C532.238 395.1 545.312 386.785 545.364 394.84C545.416 402.895 532.446 415.481 532.446 415.481C532.446 415.481 554.983 439.699 548.003 445.393C541.041 451.087 517.862 435.758 517.862 435.758C517.862 435.758 506.542 463.448 497.531 462.285C491.923 461.555 497.34 428.397 497.34 428.397C497.34 428.397 475.776 436.973 472.251 427.772C471.175 424.96 473.293 418.762 477.356 417.669L477.321 417.686Z" fill="white"/>
</mask>
<g mask="url(#mask6_1677_6063)">
<path d="M518.92 441.328C528.279 446.119 538.696 448.55 549.218 448.15C551.093 448.081 552.69 446.605 552.69 444.678C552.69 442.855 551.093 441.137 549.218 441.206C539.929 441.571 530.709 439.574 522.427 435.338C520.761 434.488 518.66 434.904 517.67 436.588C516.767 438.133 517.236 440.477 518.92 441.345V441.328Z" fill="#4B939A"/>
<path d="M466.209 421.384C465.272 424.3 465.897 427.616 467.65 430.098C469.664 432.946 472.599 434.56 476.054 434.942C479.509 435.324 482.582 434.404 485.586 433.136C487.183 432.459 488.711 431.696 490.274 430.949C490.916 430.637 491.558 430.324 492.236 430.064C492.565 429.925 492.965 429.855 493.277 429.682C493.902 429.317 493.416 429.96 492.722 429.456L491.472 428.206C491.472 427.008 491.402 426.678 491.228 427.251C491.142 427.512 491.038 427.755 490.933 428.015C490.708 428.571 490.482 429.126 490.274 429.682C489.874 430.706 489.458 431.73 489.058 432.755C488.207 434.89 487.357 437.025 486.506 439.16C484.804 443.431 483.103 447.702 481.419 451.972C480.724 453.708 482.183 455.792 483.849 456.243C485.829 456.781 487.426 455.566 488.121 453.813C490.256 448.431 492.409 443.032 494.545 437.65C495.656 434.873 496.889 432.112 497.861 429.282C498.92 426.21 497.323 422.877 493.885 422.668C491.315 422.512 488.798 423.988 486.558 425.064C484.197 426.192 481.888 427.408 479.301 427.928C477.634 428.258 475.568 428.171 474.3 427.165C472.929 426.071 472.494 424.63 472.946 423.224C473.519 421.436 472.269 419.439 470.515 418.953C468.64 418.432 466.817 419.595 466.244 421.384H466.209Z" fill="#4B939A"/>
<path d="M480.618 422.369C481.729 422.369 481.729 420.633 480.618 420.633C479.507 420.633 479.507 422.369 480.618 422.369Z" fill="#4B939A"/>
<path d="M481.383 415.67C482.494 415.67 482.494 413.934 481.383 413.934C480.272 413.934 480.272 415.67 481.383 415.67Z" fill="#4B939A"/>
<path d="M515.329 440.805C516.44 440.805 516.44 439.069 515.329 439.069C514.218 439.069 514.218 440.805 515.329 440.805Z" fill="#4B939A"/>
<path d="M495.519 445.201C496.63 445.201 496.63 443.465 495.519 443.465C494.408 443.465 494.408 445.201 495.519 445.201Z" fill="#4B939A"/>
<path d="M499.459 463.445C500.57 463.445 500.57 461.709 499.459 461.709C498.348 461.709 498.348 463.445 499.459 463.445Z" fill="#4B939A"/>
<path d="M499.961 462.943C501.073 462.943 501.073 461.207 499.961 461.207C498.85 461.207 498.85 462.943 499.961 462.943Z" fill="#4B939A"/>
<path d="M510.207 387.893C511.319 387.893 511.319 386.157 510.207 386.157C509.096 386.157 509.096 387.893 510.207 387.893Z" fill="#4B939A"/>
<path d="M499.824 392.806C500.935 392.806 500.935 391.07 499.824 391.07C498.712 391.07 498.712 392.806 499.824 392.806Z" fill="#4B939A"/>
<path d="M533.141 414.525C534.253 414.525 534.253 412.789 533.141 412.789C532.03 412.789 532.03 414.525 533.141 414.525Z" fill="#4B939A"/>
<path d="M522.463 398.724C523.574 398.724 523.574 396.988 522.463 396.988C521.352 396.988 521.352 398.724 522.463 398.724Z" fill="#4B939A"/>
<path d="M541.179 394.054C542.29 394.054 542.29 392.318 541.179 392.318C540.067 392.318 540.067 394.054 541.179 394.054Z" fill="#4B939A"/>
<path d="M533.871 426.607C534.983 426.607 534.983 424.871 533.871 424.871C532.76 424.871 532.76 426.607 533.871 426.607Z" fill="#4B939A"/>
<path d="M522.949 407.546C523.505 407.546 523.505 406.678 522.949 406.678C522.394 406.678 522.394 407.546 522.949 407.546Z" fill="#4B939A"/>
<path d="M508.92 405.168C509.475 405.168 509.475 404.3 508.92 404.3C508.364 404.3 508.364 405.168 508.92 405.168Z" fill="#4B939A"/>
<path d="M506.267 394.631C506.822 394.631 506.822 393.763 506.267 393.763C505.711 393.763 505.711 394.631 506.267 394.631Z" fill="#4B939A"/>
<path d="M498.21 416.866C498.766 416.866 498.766 415.998 498.21 415.998C497.655 415.998 497.655 416.866 498.21 416.866Z" fill="#4B939A"/>
<path d="M492.689 414.504C493.244 414.504 493.244 413.636 492.689 413.636C492.133 413.636 492.133 414.504 492.689 414.504Z" fill="#4B939A"/>
<path d="M516.698 409.056C517.254 409.056 517.254 408.188 516.698 408.188C516.142 408.188 516.142 409.056 516.698 409.056Z" fill="#4B939A"/>
<path d="M504.929 438.36C505.484 438.36 505.484 437.492 504.929 437.492C504.373 437.492 504.373 438.36 504.929 438.36Z" fill="#4B939A"/>
<path d="M499.599 431.033C500.155 431.033 500.155 430.165 499.599 430.165C499.044 430.165 499.044 431.033 499.599 431.033Z" fill="#4B939A"/>
<path d="M535.974 435.616C536.53 435.616 536.53 434.748 535.974 434.748C535.419 434.748 535.419 435.616 535.974 435.616Z" fill="#4B939A"/>
<path d="M536.873 441.589C537.428 441.589 537.428 440.721 536.873 440.721C536.317 440.721 536.317 441.589 536.873 441.589Z" fill="#4B939A"/>
<path d="M519.841 427.788C520.397 427.788 520.397 426.92 519.841 426.92C519.285 426.92 519.285 427.788 519.841 427.788Z" fill="#4B939A"/>
<path d="M508.311 420.634C508.867 420.634 508.867 419.766 508.311 419.766C507.756 419.766 507.756 420.634 508.311 420.634Z" fill="#4B939A"/>
<path d="M535.311 397.927C535.866 397.927 535.866 397.059 535.311 397.059C534.755 397.059 534.755 397.927 535.311 397.927Z" fill="#4B939A"/>
<path d="M540.746 405.184C541.302 405.184 541.302 404.316 540.746 404.316C540.191 404.316 540.191 405.184 540.746 405.184Z" fill="#4B939A"/>
<path d="M523.471 401.989C524.027 401.989 524.027 401.121 523.471 401.121C522.916 401.121 522.916 401.989 523.471 401.989Z" fill="#4B939A"/>
<path d="M520.328 415.618C520.883 415.618 520.883 414.75 520.328 414.75C519.772 414.75 519.772 415.618 520.328 415.618Z" fill="#4B939A"/>
</g>
<path d="M486.954 62.8092C486.954 62.8092 483.881 73.2253 481.693 75.7426C481.693 75.7426 480.408 77.0099 479.401 77.5307C479.401 77.5307 475.825 55.7262 472.057 55.2228C468.289 54.7193 486.954 62.8092 486.954 62.8092Z" fill="url(#paint8_linear_1677_6063)"/>
<path d="M431.187 47.3041C431.187 47.3041 424.121 55.394 419.312 56.2967L415.735 57.9112L419.19 50.8283C419.19 50.8283 428.809 46.384 431.187 47.3041Z" fill="url(#paint9_linear_1677_6063)"/>
<path d="M435.804 46.7146C435.804 46.7146 459.139 57.6516 468.272 54.7004C477.404 51.7491 471.553 53.0164 471.553 53.0164L448.809 44.5967L435.804 46.6973V46.7146Z" fill="url(#paint10_linear_1677_6063)"/>
<path d="M486.956 62.8084C487.841 57.3572 485.133 51.9756 480.375 49.7014L457.283 38.6776C457.283 38.6776 446.606 21.5604 443.741 23.2964C440.876 25.0324 439.713 30.4835 439.713 30.4835C439.713 30.4835 433.15 13.6094 430.111 16.8384C427.073 20.0674 426.639 32.9661 426.639 32.9661C426.639 32.9661 421.118 25.0324 419.52 28.7475C417.923 32.4626 415.735 44.6148 415.735 44.6148V54.0588C415.735 54.0588 428.948 36.4902 486.956 62.8084Z" fill="#7BAFA5"/>
<mask id="mask7_1677_6063" style="mask-type:luminance" maskUnits="userSpaceOnUse" x="415" y="16" width="73" height="47">
<path d="M486.957 62.8084C487.843 57.3572 485.134 51.9756 480.377 49.7014L457.285 38.6776C457.285 38.6776 446.607 21.5604 443.742 23.2964C440.877 25.0324 439.714 30.4835 439.714 30.4835C439.714 30.4835 433.151 13.6094 430.113 16.8384C427.074 20.0674 426.64 32.9661 426.64 32.9661C426.64 32.9661 421.119 25.0324 419.522 28.7475C417.925 32.4626 415.737 44.6148 415.737 44.6148V54.0588C415.737 54.0588 428.95 36.4902 486.957 62.8084Z" fill="white"/>
</mask>
<g mask="url(#mask7_1677_6063)">
<path d="M417.768 59.2126C418.428 58.5703 419.157 58.0147 419.834 57.3898C419.747 57.4766 419.418 57.7023 419.695 57.4939C419.782 57.4245 419.869 57.3724 419.956 57.303C420.147 57.1641 420.355 57.0252 420.546 56.8863C420.928 56.6259 421.31 56.3829 421.692 56.1398C422.439 55.6885 423.22 55.2718 424.019 54.9073C424.14 54.8552 424.262 54.8031 424.383 54.751C424.696 54.6121 424.314 54.7857 424.209 54.8205C424.418 54.751 424.609 54.6642 424.8 54.5948C425.251 54.4212 425.703 54.2649 426.154 54.1261C427.456 53.7268 428.411 52.2859 427.977 50.9144C427.543 49.5429 426.171 48.6576 424.765 49.0916C420.754 50.3415 417.091 52.5463 414.087 55.5149C413.115 56.4697 413.063 58.2578 414.087 59.1952C415.112 60.1327 416.726 60.2195 417.768 59.1952V59.2126Z" fill="#4B939A"/>
<path d="M417.491 59.1617C425.929 50.9503 438.204 49.7177 449.316 51.8704C461.661 54.2661 473.658 59.318 484.805 65.0295C487.774 66.5572 490.413 62.0609 487.426 60.5332C475.255 54.2661 461.886 48.5199 448.274 46.4193C435.999 44.527 422.995 46.5235 413.81 55.4814C411.397 57.825 415.095 61.5054 417.491 59.1617Z" fill="#4B939A"/>
<path d="M417.976 58.5553C421.9 50.9168 431.64 51.9064 438.776 52.7744C440.183 52.948 441.381 51.455 441.381 50.1703C441.381 48.6253 440.183 47.7399 438.776 47.5663C433.724 46.9587 428.463 46.3858 423.515 47.9308C419.313 49.2502 415.511 51.9411 413.462 55.9166C411.934 58.8852 416.431 61.5239 417.959 58.538L417.976 58.5553Z" fill="#4B939A"/>
<path d="M420.096 28.7651C420.235 28.8172 420.374 28.8692 420.513 28.9213L420.096 28.7477C420.669 28.9908 421.208 29.3032 421.711 29.6852L421.364 29.4074C421.885 29.8067 422.353 30.2754 422.753 30.7962L422.475 30.449C422.892 31.0045 423.239 31.5948 423.517 32.2371L423.343 31.8205C423.465 32.1156 423.569 32.3934 423.656 32.7058C423.899 33.5739 424.888 34.2162 425.791 33.9211C426.694 33.6259 427.267 32.7232 427.007 31.7858C426.156 28.8345 423.933 26.4214 421.017 25.4145C420.166 25.1194 419.072 25.7617 418.881 26.6298C418.655 27.6019 419.176 28.4526 420.096 28.7651Z" fill="#4B939A"/>
<path d="M429.886 17.5155C433.064 21.4216 435.217 26.0741 436.31 30.9697C436.519 31.8898 437.578 32.428 438.446 32.185C439.384 31.9246 439.87 30.9697 439.661 30.0496C438.429 24.5464 435.911 19.4252 432.334 15.0677C431.744 14.3386 430.494 14.4601 429.886 15.0677C429.174 15.7795 429.296 16.7864 429.886 17.5155Z" fill="#4B939A"/>
<path d="M443.708 25.1696C446.416 25.8293 448.153 28.225 449.542 30.4992C451.017 32.9296 452.337 35.5337 454.421 37.5301C456.504 39.5265 459.074 40.4813 461.817 41.1237C464.56 41.766 467.373 42.1306 469.769 43.693C471.644 44.9256 473.38 41.9222 471.522 40.6897C466.73 37.5475 459.959 38.7627 456.053 34.1796C452.389 29.8916 450.826 23.3294 444.663 21.819C442.493 21.2809 441.572 24.6314 443.743 25.1696H443.708Z" fill="#4B939A"/>
</g>
<defs>
<linearGradient id="paint0_linear_1677_6063" x1="0.807617" y1="298.785" x2="420.317" y2="298.785" gradientUnits="userSpaceOnUse">
<stop stop-color="#4B939A"/>
<stop offset="0.03" stop-color="#4F959A"/>
<stop offset="0.25" stop-color="#67A2A0"/>
<stop offset="0.45" stop-color="#76ABA3"/>
<stop offset="0.61" stop-color="#7CAEA5"/>
<stop offset="1" stop-color="#DAAA5C"/>
</linearGradient>
<linearGradient id="paint1_linear_1677_6063" x1="431.519" y1="9.99682" x2="440.493" y2="210.473" gradientUnits="userSpaceOnUse">
<stop stop-color="#FFE5BA"/>
<stop offset="0.23" stop-color="#FFE1AF"/>
<stop offset="0.62" stop-color="#FFD994"/>
<stop offset="1" stop-color="#FFD074"/>
</linearGradient>
<linearGradient id="paint2_linear_1677_6063" x1="574.691" y1="684.757" x2="185.035" y2="166.109" gradientUnits="userSpaceOnUse">
<stop stop-color="#A06647"/>
<stop offset="0.09" stop-color="#A86E4D"/>
<stop offset="0.36" stop-color="#B87E5B"/>
<stop offset="0.64" stop-color="#C28864"/>
<stop offset="1" stop-color="#C68C67"/>
</linearGradient>
<linearGradient id="paint3_linear_1677_6063" x1="423.41" y1="72.1643" x2="418.845" y2="66.0876" gradientUnits="userSpaceOnUse">
<stop stop-color="#C68C67"/>
<stop offset="0.61" stop-color="#A06647"/>
</linearGradient>
<linearGradient id="paint4_linear_1677_6063" x1="452.287" y1="69.1788" x2="445.204" y2="59.734" gradientUnits="userSpaceOnUse">
<stop stop-color="#C68C67"/>
<stop offset="0.61" stop-color="#A06647"/>
</linearGradient>
<linearGradient id="paint5_linear_1677_6063" x1="266.003" y1="663.176" x2="338.021" y2="680.089" gradientUnits="userSpaceOnUse">
<stop offset="0.48" stop-color="#F2E0A5"/>
<stop offset="0.49" stop-color="#ECD59D"/>
<stop offset="0.51" stop-color="#E3C490"/>
<stop offset="0.53" stop-color="#DEBA88"/>
<stop offset="0.56" stop-color="#DDB786"/>
</linearGradient>
<linearGradient id="paint6_linear_1677_6063" x1="507.861" y1="682.863" x2="568.594" y2="677.949" gradientUnits="userSpaceOnUse">
<stop offset="0.48" stop-color="#ECD59D"/>
<stop offset="0.49" stop-color="#E3C490"/>
<stop offset="0.5" stop-color="#DEBA88"/>
<stop offset="0.51" stop-color="#DDB786"/>
</linearGradient>
<linearGradient id="paint7_linear_1677_6063" x1="346.772" y1="439.647" x2="537.307" y2="439.647" gradientUnits="userSpaceOnUse">
<stop stop-color="#F1F2F2"/>
<stop offset="0.31" stop-color="#DEE9EE"/>
<stop offset="0.94" stop-color="#AFD4E5"/>
<stop offset="1" stop-color="#ABD2E5"/>
</linearGradient>
<linearGradient id="paint8_linear_1677_6063" x1="471.553" y1="66.368" x2="486.954" y2="66.368" gradientUnits="userSpaceOnUse">
<stop stop-color="#FFE5BA"/>
<stop offset="0.23" stop-color="#FFE1AF"/>
<stop offset="0.62" stop-color="#FFD994"/>
<stop offset="1" stop-color="#FFD074"/>
</linearGradient>
<linearGradient id="paint9_linear_1677_6063" x1="415.735" y1="52.5296" x2="431.187" y2="52.5296" gradientUnits="userSpaceOnUse">
<stop stop-color="#FFE5BA"/>
<stop offset="0.23" stop-color="#FFE1AF"/>
<stop offset="0.62" stop-color="#FFD994"/>
<stop offset="1" stop-color="#FFD074"/>
</linearGradient>
<linearGradient id="paint10_linear_1677_6063" x1="435.804" y1="49.9089" x2="473.411" y2="49.9089" gradientUnits="userSpaceOnUse">
<stop stop-color="#FFE5BA"/>
<stop offset="0.23" stop-color="#FFE1AF"/>
<stop offset="0.62" stop-color="#FFD994"/>
<stop offset="1" stop-color="#FFD074"/>
</linearGradient>
</defs>
</svg>
