<svg width="1519" height="1692" viewBox="0 0 1519 1692" fill="none" xmlns="http://www.w3.org/2000/svg">
<rect y="447.917" width="1521.01" height="1243.73" fill="url(#paint0_linear_194_380)"/>
<g clip-path="url(#clip0_194_380)">
<path d="M1308.4 106.17C1308.54 106.144 1308.68 106.118 1308.81 106.087C1309.01 106.048 1309.2 106.005 1309.4 105.957C1309.54 105.922 1309.68 105.887 1309.82 105.853C1309.25 106 1308.66 106.126 1308.06 106.226C1308.18 106.209 1308.29 106.191 1308.4 106.17Z" fill="#B77E6D"/>
<path d="M1310.82 105.574C1310.99 105.522 1311.16 105.474 1311.32 105.422C1311.48 105.37 1311.63 105.318 1311.79 105.266C1311.34 105.422 1310.87 105.57 1310.38 105.709C1310.53 105.665 1310.68 105.622 1310.83 105.578L1310.82 105.574Z" fill="#B77E6D"/>
<path d="M1418.07 114.952C1418.08 115.226 1418.1 115.495 1418.11 115.76C1418.1 115.495 1418.09 115.226 1418.07 114.952Z" fill="#B77E6D"/>
<path d="M1313.07 104.796C1313.34 104.687 1313.6 104.583 1313.85 104.475C1313.57 104.596 1313.27 104.714 1312.96 104.835C1313 104.822 1313.03 104.809 1313.07 104.792V104.796Z" fill="#B77E6D"/>
<path d="M1312.73 104.922C1312.56 104.987 1312.39 105.048 1312.22 105.113C1312.39 105.052 1312.56 104.987 1312.73 104.922Z" fill="#B77E6D"/>
<path d="M1307.39 106.329C1307.52 106.312 1307.64 106.294 1307.77 106.272C1307.5 106.316 1307.21 106.346 1306.93 106.377C1307.08 106.359 1307.24 106.346 1307.39 106.325V106.329Z" fill="#B77E6D"/>
<path d="M1300.71 105.218C1300.51 105.088 1300.3 104.953 1300.11 104.797C1300.3 104.953 1300.51 105.088 1300.71 105.218Z" fill="#B77E6D"/>
<path d="M1302.54 106.056C1302.6 106.074 1302.65 106.096 1302.71 106.113C1302.75 106.126 1302.81 106.135 1302.85 106.148C1302.45 106.043 1302.06 105.913 1301.68 105.748C1301.96 105.87 1302.25 105.974 1302.54 106.061L1302.54 106.056Z" fill="#B77E6D"/>
<path d="M1303.68 106.321C1303.6 106.307 1303.52 106.286 1303.43 106.272C1303.52 106.29 1303.6 106.307 1303.68 106.321Z" fill="#B77E6D"/>
<path d="M1417.27 109.514C1417.34 109.866 1417.41 110.213 1417.48 110.556C1417.41 110.213 1417.34 109.861 1417.27 109.514Z" fill="#B77E6D"/>
<path d="M1417.93 113.489C1417.98 113.885 1418.02 114.267 1418.05 114.645C1418.02 114.267 1417.98 113.885 1417.93 113.489Z" fill="#B77E6D"/>
<path d="M1414.99 100.9C1415.1 101.244 1415.2 101.591 1415.31 101.939C1415.2 101.587 1415.09 101.244 1414.99 100.9Z" fill="#B77E6D"/>
<path d="M1414.51 99.3873C1414.23 98.5229 1413.96 97.7018 1413.69 96.9243C1413.69 96.9243 1413.69 96.9243 1413.69 96.9199C1413.96 97.7105 1414.25 98.5533 1414.53 99.4351C1414.52 99.4177 1414.52 99.4047 1414.52 99.3873H1414.51Z" fill="#B77E6D"/>
<path d="M1416.15 104.867C1415.91 103.972 1415.65 103.086 1415.39 102.217C1415.67 103.146 1415.94 104.093 1416.2 105.049C1416.18 104.988 1416.17 104.927 1416.15 104.867Z" fill="#B77E6D"/>
<path d="M1414.9 100.622C1414.78 100.235 1414.66 99.857 1414.54 99.4834C1414.68 99.9004 1414.81 100.33 1414.95 100.765C1414.94 100.717 1414.92 100.669 1414.91 100.622H1414.9Z" fill="#B77E6D"/>
<path d="M905.199 372.241C926.463 347.371 942.456 331.281 970.612 320.712C986.155 314.878 1000.2 322.693 1022.79 296.928C1036.52 281.259 1052.27 258.631 1063.9 240.625C1063.9 240.625 1063.91 240.616 1063.91 240.612C1064.05 240.391 1064.2 240.165 1064.34 239.943C1071.62 228.644 1070.83 231.307 1073.22 226.737C1079 215.708 1093.87 216.481 1102.52 219.187C1103.19 219.4 1103.87 219.557 1104.55 219.63C1108.07 220.004 1116.9 213.905 1127.63 204.835C1143.88 210.078 1192.03 155.547 1199.99 144.978C1207.95 134.409 1223.52 122.958 1229.75 130.004C1235.98 137.05 1222.14 152.906 1210.03 169.639C1197.91 186.377 1217.36 177.063 1220.82 170.895C1224.28 164.731 1247.41 143.215 1254.67 131.764C1261.94 120.313 1268.17 118.554 1266.44 122.515C1264.71 126.477 1262.28 132.203 1266.44 134.405C1270.59 136.607 1282.36 116.347 1284.78 112.824C1287.2 109.301 1295.16 97.85 1298.63 103.137C1298.86 103.502 1299.12 103.819 1299.4 104.114C1299.13 106.755 1298.33 109.231 1296.89 111.064C1291.7 117.672 1280.63 124.718 1280.28 130C1279.93 135.287 1292.39 132.203 1292.39 139.249C1292.39 146.295 1283.05 152.902 1277.16 156.425C1271.28 159.948 1254.32 163.471 1254.32 168.314C1254.32 173.158 1271.97 170.078 1279.24 172.276C1286.51 174.479 1286.16 190.334 1281.66 196.06C1277.16 201.785 1249.47 245.386 1249.12 255.516C1248.78 265.647 1253.63 266.967 1261.06 266.967C1268.5 266.967 1274.04 271.372 1274.04 276.655C1274.04 281.941 1257.39 299.113 1249.11 305.72C1240.82 312.328 1245.67 324.217 1257.08 324.656C1257.08 324.656 1287.74 321.85 1302.41 336.793C1317.09 351.737 1322.23 362.01 1344.99 356.407C1367.74 350.803 1400.77 342.397 1421.33 371.35C1441.88 400.303 1419.13 418.053 1421.33 426.458C1423.53 434.864 1431.6 446.072 1455.09 443.27C1475.27 440.863 1494.89 459.825 1500.02 478.244H802.408C802.408 478.244 867.057 416.828 905.199 372.214V372.241Z" fill="#64AED2"/>
<path d="M1417.77 112.267C1417.74 112.128 1417.72 111.993 1417.7 111.854C1417.65 111.563 1417.61 111.272 1417.55 110.977C1417.53 110.847 1417.51 110.716 1417.48 110.586C1417.65 111.494 1417.8 112.376 1417.9 113.227C1417.86 112.91 1417.82 112.589 1417.77 112.267H1417.77Z" fill="#B77E6D"/>
<path d="M1416.85 107.619C1416.77 107.284 1416.69 106.95 1416.6 106.615C1416.72 107.063 1416.82 107.51 1416.93 107.953C1416.9 107.84 1416.88 107.732 1416.85 107.619H1416.85Z" fill="#B77E6D"/>
<path d="M1416.25 105.217C1416.33 105.538 1416.41 105.864 1416.5 106.186C1416.42 105.864 1416.33 105.538 1416.25 105.217Z" fill="#B77E6D"/>
<path d="M1416.93 107.957C1417.03 108.396 1417.13 108.83 1417.22 109.265C1417.13 108.83 1417.03 108.396 1416.93 107.957Z" fill="#B77E6D"/>
<path d="M1418.02 118.128C1418.06 117.824 1418.08 117.503 1418.1 117.172C1418.11 117.068 1418.11 116.964 1418.11 116.86C1418.11 116.621 1418.12 116.377 1418.11 116.13C1418.12 116.842 1418.1 117.516 1418.02 118.128Z" fill="#B77E6D"/>
<path d="M1304.27 106.395C1304.31 106.395 1304.34 106.403 1304.38 106.408C1304.48 106.416 1304.58 106.429 1304.68 106.434C1304.91 106.447 1305.14 106.455 1305.37 106.455C1305.48 106.455 1305.59 106.455 1305.7 106.455C1305.92 106.455 1306.15 106.442 1306.37 106.425C1306.49 106.416 1306.62 106.408 1306.74 106.399C1305.91 106.473 1305.08 106.477 1304.27 106.395Z" fill="#B77E6D"/>
<path d="M1454.97 140.369C1462.76 143.341 1479.96 144.253 1488.52 147.224C1497.09 150.196 1552.92 194.14 1597.94 236.881C1625.15 262.715 1658.49 316.75 1670.95 332.606C1683.41 348.461 1688.86 345.486 1695.87 352.423C1702.88 359.361 1829.14 478.27 1829.14 478.27H1500.03C1494.89 459.851 1475.27 440.889 1455.09 443.296C1431.6 446.098 1423.53 434.89 1421.33 426.485C1419.13 418.079 1441.88 400.333 1421.33 371.376C1400.78 342.423 1367.75 350.829 1344.99 356.433C1322.24 362.037 1317.1 351.763 1302.42 336.819C1287.74 321.876 1257.09 324.682 1257.09 324.682C1245.67 324.243 1240.82 312.35 1249.11 305.747C1257.4 299.139 1274.05 281.963 1274.05 276.681C1274.05 271.394 1268.51 266.993 1261.07 266.993C1253.63 266.993 1248.78 265.673 1249.13 255.543C1249.48 245.412 1277.16 201.811 1281.66 196.086C1286.16 190.36 1286.51 174.505 1279.24 172.302C1271.97 170.1 1254.32 173.184 1254.32 168.341C1254.32 163.497 1271.28 159.974 1277.17 156.451C1283.05 152.928 1292.4 146.321 1292.4 139.275C1292.4 132.229 1279.94 135.313 1280.28 130.026C1280.63 124.74 1291.7 117.694 1296.9 111.091C1298.34 109.257 1299.14 106.781 1299.4 104.14C1299.4 104.14 1299.41 104.14 1299.41 104.149C1299.64 104.388 1299.87 104.605 1300.12 104.805C1300.31 104.961 1300.52 105.096 1300.72 105.226C1300.78 105.261 1300.83 105.304 1300.88 105.339C1301.13 105.491 1301.39 105.622 1301.66 105.739C1301.67 105.743 1301.68 105.752 1301.69 105.756C1302.07 105.921 1302.46 106.052 1302.87 106.156C1303.06 106.204 1303.25 106.247 1303.44 106.286C1303.52 106.304 1303.6 106.321 1303.69 106.334C1303.88 106.364 1304.08 106.386 1304.28 106.408C1305.09 106.49 1305.91 106.49 1306.75 106.412C1306.81 106.408 1306.88 106.399 1306.94 106.39C1307.22 106.36 1307.5 106.33 1307.78 106.286C1307.88 106.273 1307.97 106.256 1308.07 106.238C1308.66 106.138 1309.25 106.012 1309.83 105.865C1310.01 105.817 1310.2 105.769 1310.38 105.717C1310.86 105.578 1311.33 105.43 1311.78 105.274C1311.93 105.222 1312.08 105.174 1312.21 105.126C1312.39 105.065 1312.55 105 1312.72 104.935L1312.74 104.926C1312.81 104.9 1312.88 104.874 1312.95 104.848C1313.26 104.727 1313.56 104.605 1313.85 104.488C1318 102.724 1322.84 109.331 1328.38 115.5C1333.92 121.664 1339.8 115.5 1337.73 109.774C1335.65 104.049 1331.84 96.1211 1335.99 94.8006C1340.15 93.48 1356.07 111.095 1367.84 124.527C1379.6 137.958 1401.06 161.742 1403.13 158.219C1405.21 154.696 1396.21 137.52 1385.14 124.748C1374.06 111.977 1366.1 92.1594 1380.64 104.488C1395.17 116.82 1416.98 126.508 1418.02 118.141C1418.1 117.529 1418.12 116.855 1418.11 116.138C1418.11 116.021 1418.11 115.9 1418.1 115.778C1418.09 115.513 1418.08 115.244 1418.06 114.97C1418.05 114.87 1418.04 114.77 1418.04 114.666C1418.01 114.288 1417.97 113.906 1417.93 113.51C1417.92 113.428 1417.9 113.345 1417.9 113.263C1417.9 113.258 1417.9 113.254 1417.9 113.245C1417.79 112.394 1417.65 111.508 1417.48 110.604C1417.48 110.595 1417.48 110.587 1417.48 110.578C1417.41 110.235 1417.34 109.883 1417.27 109.536C1417.27 109.536 1417.27 109.531 1417.27 109.527C1417.25 109.449 1417.24 109.37 1417.22 109.288C1417.22 109.288 1417.22 109.288 1417.22 109.284C1417.13 108.849 1417.03 108.415 1416.93 107.976C1416.82 107.529 1416.72 107.085 1416.6 106.638C1416.57 106.499 1416.53 106.36 1416.5 106.221C1416.5 106.217 1416.5 106.212 1416.5 106.208C1416.42 105.882 1416.33 105.561 1416.24 105.239C1416.23 105.183 1416.21 105.126 1416.2 105.07C1415.94 104.114 1415.67 103.167 1415.4 102.238C1415.4 102.238 1415.4 102.233 1415.4 102.229C1415.37 102.142 1415.34 102.059 1415.32 101.977C1415.32 101.973 1415.32 101.968 1415.31 101.96C1415.21 101.608 1415.1 101.26 1415 100.921V100.908C1414.98 100.869 1414.97 100.826 1414.95 100.787C1414.82 100.352 1414.68 99.9265 1414.55 99.5051C1414.55 99.5008 1414.55 99.4921 1414.54 99.4878C1414.54 99.4791 1414.54 99.4704 1414.53 99.4574C1414.25 98.5755 1413.96 97.7328 1413.69 96.9422C1413.69 96.9422 1413.69 96.9378 1413.69 96.9335C1434.76 120.5 1452.08 139.283 1454.98 140.387L1454.97 140.369Z" fill="#6AB9D9"/>
<path d="M1414.9 100.62C1414.78 100.229 1414.66 99.8428 1414.53 99.4648C1414.66 99.8428 1414.78 100.229 1414.9 100.62Z" fill="#B77E6D"/>
<path d="M1306.38 106.426C1306.5 106.418 1306.62 106.409 1306.74 106.4C1306.62 106.413 1306.5 106.418 1306.38 106.426Z" fill="#B77E6D"/>
<path d="M1308.4 106.168C1308.54 106.142 1308.67 106.116 1308.81 106.086C1308.67 106.116 1308.53 106.142 1308.4 106.168Z" fill="#B77E6D"/>
<path d="M1417.7 111.851C1417.66 111.56 1417.61 111.269 1417.56 110.974C1417.61 111.269 1417.66 111.56 1417.7 111.851Z" fill="#B77E6D"/>
<path d="M1303.43 106.272C1303.52 106.29 1303.6 106.307 1303.68 106.321C1303.6 106.307 1303.52 106.286 1303.43 106.272Z" fill="#B77E6D"/>
<path d="M1299.39 104.131C1299.39 104.131 1299.39 104.131 1299.4 104.137C1299.4 104.137 1299.4 104.137 1299.39 104.131Z" fill="#B77E6D"/>
<path d="M1299.4 104.132C1299.4 104.132 1299.4 104.132 1299.4 104.137C1299.4 104.137 1299.4 104.132 1299.39 104.127L1299.4 104.132Z" fill="#B77E6D"/>
<path d="M1304.38 106.408C1304.48 106.417 1304.58 106.43 1304.68 106.434C1304.58 106.426 1304.48 106.417 1304.38 106.408Z" fill="#B77E6D"/>
<path d="M1414.51 99.3869C1414.23 98.5224 1413.96 97.7014 1413.69 96.9238C1413.96 97.6971 1414.23 98.5268 1414.51 99.3869Z" fill="#B77E6D"/>
<path d="M1418.11 115.766C1418.1 115.501 1418.08 115.227 1418.06 114.949C1418.08 115.227 1418.1 115.497 1418.11 115.766Z" fill="#B77E6D"/>
<path d="M1418.11 116.861C1418.11 116.622 1418.12 116.378 1418.11 116.131C1418.11 116.378 1418.11 116.622 1418.11 116.861Z" fill="#B77E6D"/>
<path d="M1309.4 105.957C1309.54 105.922 1309.68 105.888 1309.82 105.849C1309.68 105.883 1309.54 105.922 1309.4 105.957Z" fill="#B77E6D"/>
<path d="M1417.9 113.246C1417.86 112.925 1417.82 112.599 1417.77 112.269C1417.82 112.599 1417.86 112.925 1417.9 113.246Z" fill="#B77E6D"/>
<path d="M1418.05 114.649C1418.02 114.271 1417.98 113.885 1417.93 113.489C1417.98 113.885 1418.02 114.271 1418.05 114.649Z" fill="#B77E6D"/>
<path d="M1311.32 105.422C1311.48 105.37 1311.63 105.318 1311.79 105.262C1311.63 105.314 1311.48 105.37 1311.32 105.422Z" fill="#B77E6D"/>
<path d="M1310.38 105.705C1310.53 105.661 1310.67 105.618 1310.82 105.574C1310.67 105.618 1310.53 105.665 1310.38 105.705Z" fill="#B77E6D"/>
<path d="M1416.15 104.866C1415.91 103.971 1415.65 103.08 1415.39 102.207C1415.65 103.08 1415.91 103.966 1416.15 104.866Z" fill="#B77E6D"/>
<path d="M1313.07 104.796C1313.34 104.687 1313.6 104.583 1313.85 104.475C1313.6 104.579 1313.34 104.687 1313.07 104.796Z" fill="#B77E6D"/>
<path d="M1305.71 106.456C1305.93 106.456 1306.15 106.443 1306.38 106.426C1306.15 106.439 1305.93 106.452 1305.71 106.456Z" fill="#B77E6D"/>
<path d="M1417.27 109.511C1417.25 109.432 1417.24 109.354 1417.22 109.271C1417.24 109.349 1417.25 109.428 1417.27 109.511Z" fill="#B77E6D"/>
<path d="M1417.55 110.974C1417.53 110.835 1417.5 110.695 1417.48 110.556C1417.5 110.695 1417.53 110.835 1417.55 110.974Z" fill="#B77E6D"/>
<path d="M1416.93 107.96C1416.9 107.847 1416.88 107.734 1416.85 107.62C1416.87 107.734 1416.9 107.847 1416.93 107.96Z" fill="#B77E6D"/>
<path d="M1308.81 106.086C1309.01 106.047 1309.21 106.004 1309.4 105.956C1309.21 106.004 1309.01 106.043 1308.81 106.086Z" fill="#B77E6D"/>
<path d="M1312.75 104.919C1312.85 104.88 1312.96 104.84 1313.06 104.797C1312.96 104.836 1312.85 104.875 1312.75 104.919Z" fill="#B77E6D"/>
<path d="M1418.07 114.954C1418.06 114.853 1418.06 114.753 1418.05 114.648C1418.06 114.753 1418.06 114.849 1418.07 114.954Z" fill="#B77E6D"/>
<path d="M1418.1 117.173C1418.11 117.069 1418.11 116.964 1418.11 116.859C1418.11 116.964 1418.11 117.073 1418.1 117.173Z" fill="#B77E6D"/>
<path d="M1418.11 116.132C1418.11 116.009 1418.11 115.892 1418.11 115.77C1418.11 115.892 1418.11 116.014 1418.11 116.132Z" fill="#B77E6D"/>
<path d="M1413.69 96.9269C1413.69 96.9269 1413.69 96.917 1413.69 96.9121C1413.69 96.9121 1413.69 96.917 1413.69 96.9219C1413.69 96.9219 1413.69 96.9219 1413.69 96.9269H1413.69Z" fill="#B77E6D"/>
<path d="M1414.54 99.4679C1414.53 99.4413 1414.52 99.4147 1414.51 99.3926C1414.52 99.4191 1414.53 99.4457 1414.54 99.4679Z" fill="#B77E6D"/>
<path d="M1310.82 105.575C1310.99 105.523 1311.16 105.475 1311.32 105.423C1311.16 105.475 1310.99 105.523 1310.82 105.575Z" fill="#B77E6D"/>
<path d="M1127.63 204.848C1145.39 189.843 1168.36 166.707 1181.16 151.268C1201.7 126.494 1263.43 44.6268 1281.76 24.2707C1293.95 10.7347 1311.25 2.19003 1315.96 0.517578C1313.24 8.19782 1310.81 11.256 1310.39 18.5974C1309.35 36.6556 1305.89 55.5912 1301.74 64.4009C1297.59 73.2106 1292.05 74.0881 1288.59 75.8517C1285.13 77.6154 1285.82 87.7413 1292.4 88.6232C1297.15 89.2617 1300.09 97.2548 1299.4 104.136C1299.12 103.84 1298.86 103.519 1298.62 103.158C1295.17 97.8716 1287.21 109.322 1284.78 112.845C1282.36 116.368 1268.62 146.607 1264.47 144.405C1260.32 142.202 1258.09 139.344 1259.82 135.382C1261.55 131.421 1253.26 132.007 1245.99 143.458C1238.72 154.909 1225.26 167.289 1221.8 173.453C1218.34 179.618 1197.91 186.394 1210.02 169.661C1222.14 152.923 1226.82 146.942 1220.59 139.896C1214.36 132.85 1207.94 134.427 1199.98 144.996C1192.02 155.565 1143.87 210.095 1127.63 204.852L1127.63 204.848Z" fill="white"/>
<path d="M1300.11 104.797C1300.33 104.971 1300.56 105.127 1300.79 105.27C1300.76 105.253 1300.74 105.236 1300.71 105.218C1300.51 105.088 1300.3 104.953 1300.11 104.797Z" fill="#B77E6D"/>
<path d="M1300.87 105.326C1301.4 105.639 1301.96 105.878 1302.55 106.056C1302.25 105.969 1301.97 105.865 1301.69 105.743C1301.68 105.739 1301.67 105.73 1301.66 105.726C1301.39 105.609 1301.13 105.478 1300.88 105.326H1300.87Z" fill="#B77E6D"/>
<path d="M1299.4 104.139C1299.63 104.378 1299.86 104.595 1300.11 104.795C1299.86 104.599 1299.62 104.378 1299.4 104.139H1299.4Z" fill="#B77E6D"/>
<path d="M1301.69 105.745C1301.69 105.745 1301.66 105.731 1301.65 105.727C1301.66 105.731 1301.67 105.74 1301.69 105.745Z" fill="#B77E6D"/>
<path d="M1300.71 105.217C1300.74 105.235 1300.76 105.252 1300.79 105.27C1300.82 105.287 1300.84 105.309 1300.87 105.327C1300.82 105.292 1300.77 105.248 1300.71 105.213V105.217Z" fill="#B77E6D"/>
<path d="M1302.71 106.107C1302.94 106.173 1303.18 106.225 1303.43 106.268C1303.18 106.22 1302.94 106.173 1302.71 106.107Z" fill="#B77E6D"/>
<path d="M1415.39 102.208C1415.36 102.121 1415.34 102.038 1415.31 101.955C1415.34 102.042 1415.36 102.125 1415.39 102.208Z" fill="#B77E6D"/>
<path d="M1414.99 100.887C1414.96 100.8 1414.93 100.708 1414.9 100.621C1414.93 100.708 1414.96 100.796 1414.99 100.887Z" fill="#B77E6D"/>
<path d="M1303.68 106.321C1303.91 106.36 1304.14 106.382 1304.38 106.404C1304.15 106.382 1303.91 106.356 1303.68 106.321Z" fill="#B77E6D"/>
<path d="M1416.24 105.215C1416.21 105.097 1416.18 104.979 1416.14 104.861C1416.17 104.979 1416.2 105.097 1416.24 105.215Z" fill="#B77E6D"/>
<path d="M1414.9 100.621C1414.92 100.669 1414.93 100.717 1414.95 100.764C1414.96 100.808 1414.97 100.851 1414.99 100.899C1415.1 101.242 1415.2 101.59 1415.31 101.937C1415.33 102.029 1415.36 102.12 1415.39 102.215C1415.65 103.084 1415.9 103.97 1416.15 104.865C1416.16 104.926 1416.18 104.987 1416.19 105.048C1416.21 105.104 1416.22 105.161 1416.24 105.217C1416.32 105.539 1416.41 105.864 1416.49 106.186C1416.53 106.329 1416.57 106.472 1416.6 106.616C1416.68 106.95 1416.77 107.285 1416.84 107.619C1416.87 107.732 1416.9 107.841 1416.92 107.954C1417.02 108.393 1417.12 108.827 1417.21 109.261C1417.23 109.344 1417.25 109.426 1417.27 109.513C1417.34 109.865 1417.41 110.213 1417.47 110.556C1417.47 110.565 1417.47 110.573 1417.48 110.582C1417.5 110.712 1417.53 110.843 1417.55 110.973C1417.6 111.268 1417.65 111.559 1417.69 111.85C1417.72 111.989 1417.74 112.128 1417.76 112.263C1417.81 112.589 1417.85 112.91 1417.89 113.223C1417.9 113.31 1417.92 113.401 1417.92 113.484C1417.97 113.879 1418.01 114.261 1418.04 114.639C1418.05 114.744 1418.05 114.843 1418.06 114.948C1418.08 115.221 1418.09 115.491 1418.1 115.756C1418.1 115.877 1418.11 115.999 1418.11 116.116C1418.11 116.368 1418.11 116.611 1418.11 116.85C1418.11 116.955 1418.11 117.063 1418.1 117.163C1418.08 117.493 1418.06 117.815 1418.02 118.119C1416.98 126.485 1401.38 121.594 1386.84 109.261C1372.3 96.9287 1374.07 111.955 1385.14 124.726C1396.21 137.498 1405.21 154.674 1403.13 158.197C1401.06 161.72 1378.39 145.986 1366.63 132.55C1354.86 119.118 1340.15 93.4534 1335.99 94.7784C1331.84 96.0989 1335.65 104.027 1337.72 109.752C1339.8 115.478 1333.92 121.642 1328.38 115.478C1322.84 109.313 1318 102.706 1313.84 104.466C1313.6 104.57 1313.33 104.678 1313.06 104.787C1313.02 104.8 1312.99 104.813 1312.95 104.83C1312.88 104.861 1312.8 104.887 1312.72 104.917C1312.56 104.982 1312.39 105.043 1312.22 105.108C1312.08 105.161 1311.93 105.208 1311.78 105.256C1311.63 105.308 1311.47 105.365 1311.31 105.413C1311.15 105.465 1310.98 105.517 1310.82 105.565C1310.67 105.608 1310.52 105.651 1310.37 105.695C1310.19 105.747 1310 105.795 1309.82 105.843C1309.68 105.877 1309.53 105.916 1309.4 105.947C1309.2 105.995 1309.01 106.034 1308.81 106.077C1308.67 106.108 1308.53 106.134 1308.4 106.16C1308.28 106.181 1308.17 106.199 1308.06 106.216C1307.96 106.234 1307.87 106.251 1307.77 106.264C1307.64 106.281 1307.52 106.303 1307.39 106.32C1307.23 106.342 1307.08 106.355 1306.93 106.373C1306.87 106.381 1306.8 106.39 1306.74 106.394C1306.61 106.407 1306.49 106.412 1306.37 106.42C1306.14 106.433 1305.92 106.446 1305.7 106.451C1305.59 106.451 1305.47 106.451 1305.36 106.451C1305.13 106.451 1304.9 106.442 1304.68 106.429C1304.58 106.425 1304.48 106.412 1304.38 106.403C1304.34 106.403 1304.31 106.394 1304.27 106.39C1304.07 106.368 1303.87 106.351 1303.68 106.316C1303.59 106.303 1303.51 106.281 1303.43 106.268C1303.23 106.229 1303.04 106.19 1302.85 106.138C1302.8 106.125 1302.75 106.116 1302.7 106.103C1302.65 106.086 1302.59 106.064 1302.54 106.047C1301.96 105.869 1301.39 105.63 1300.87 105.317C1300.84 105.3 1300.81 105.278 1300.78 105.261C1300.55 105.117 1300.32 104.965 1300.1 104.787C1299.86 104.587 1299.62 104.37 1299.4 104.131C1299.4 104.131 1299.4 104.131 1299.39 104.127C1300.08 97.2458 1294.48 90.0434 1289.73 89.4091C1283.15 88.5273 1282.2 74.4613 1288.4 69.3875C1291.54 66.8245 1294 59.583 1298.15 50.7733C1302.31 41.9637 1309.35 36.6466 1310.39 18.5928C1310.81 11.2514 1313.23 8.19318 1315.96 0.512935C1319.6 -0.781586 1322.75 0.790953 1326.48 4.24446C1331.86 9.22271 1378.1 57.1026 1413.68 96.9113C1413.68 96.9156 1413.68 96.92 1413.68 96.9243C1413.95 97.6975 1414.23 98.5273 1414.5 99.3874C1414.51 99.4048 1414.51 99.4178 1414.52 99.4352C1414.52 99.4525 1414.53 99.4656 1414.54 99.4829C1414.66 99.8565 1414.77 100.234 1414.9 100.621H1414.9Z" fill="#A1DCEA"/>
<path d="M1303.68 106.321C1303.88 106.352 1304.07 106.373 1304.27 106.395C1304.07 106.373 1303.88 106.356 1303.68 106.321Z" fill="#B77E6D"/>
<path d="M1312.22 105.113C1312.08 105.165 1311.93 105.213 1311.79 105.261C1311.93 105.213 1312.08 105.165 1312.23 105.113H1312.22Z" fill="#B77E6D"/>
<path d="M1310.38 105.703C1310.2 105.755 1310.02 105.803 1309.83 105.851C1310.02 105.803 1310.2 105.755 1310.38 105.703H1310.38Z" fill="#B77E6D"/>
<path d="M1414.54 99.4853C1414.54 99.4853 1414.54 99.4536 1414.53 99.4355C1414.53 99.4446 1414.53 99.4536 1414.54 99.4672C1414.54 99.4717 1414.54 99.4808 1414.54 99.4853H1414.54Z" fill="#B77E6D"/>
<path d="M1299.4 104.139C1299.63 104.378 1299.86 104.599 1300.11 104.795C1299.86 104.599 1299.63 104.382 1299.41 104.139H1299.4Z" fill="#B77E6D"/>
<path d="M1303.43 106.273C1303.24 106.234 1303.05 106.19 1302.86 106.143C1303.05 106.19 1303.24 106.234 1303.44 106.273H1303.43Z" fill="#B77E6D"/>
<path d="M1312.74 104.919L1312.72 104.927C1312.8 104.897 1312.87 104.87 1312.95 104.84C1312.88 104.866 1312.81 104.892 1312.74 104.919H1312.74Z" fill="#B77E6D"/>
<path d="M1417.48 110.562C1417.48 110.562 1417.48 110.58 1417.48 110.589C1417.48 110.58 1417.48 110.571 1417.48 110.562Z" fill="#B77E6D"/>
<path d="M1417.9 113.246C1417.91 113.328 1417.92 113.411 1417.93 113.494C1417.92 113.407 1417.91 113.32 1417.9 113.232C1417.9 113.237 1417.9 113.241 1417.9 113.25L1417.9 113.246Z" fill="#B77E6D"/>
<path d="M1417.22 109.271C1417.24 109.349 1417.25 109.428 1417.27 109.511C1417.27 109.511 1417.27 109.515 1417.27 109.52C1417.25 109.437 1417.23 109.354 1417.21 109.267C1417.21 109.267 1417.21 109.267 1417.21 109.271H1417.22Z" fill="#B77E6D"/>
<path d="M1414.99 100.887V100.9C1414.98 100.857 1414.96 100.813 1414.95 100.765C1414.96 100.804 1414.97 100.848 1414.99 100.887Z" fill="#B77E6D"/>
<path d="M1416.5 106.199C1416.54 106.338 1416.57 106.478 1416.61 106.617C1416.57 106.473 1416.53 106.33 1416.5 106.186C1416.5 106.19 1416.5 106.194 1416.5 106.199H1416.5Z" fill="#B77E6D"/>
<path d="M1418.11 115.765C1418.11 115.887 1418.11 116.005 1418.11 116.127C1418.11 116.005 1418.11 115.887 1418.11 115.765Z" fill="#B77E6D"/>
<path d="M1418.04 114.649C1418.05 114.754 1418.06 114.85 1418.06 114.954C1418.05 114.85 1418.05 114.749 1418.04 114.645L1418.04 114.649Z" fill="#B77E6D"/>
<path d="M1415.31 101.955C1415.34 102.038 1415.36 102.125 1415.39 102.208C1415.39 102.208 1415.39 102.212 1415.39 102.217C1415.36 102.125 1415.33 102.033 1415.31 101.938C1415.31 101.942 1415.31 101.946 1415.31 101.955Z" fill="#B77E6D"/>
<path d="M1249.11 305.743C1249.11 305.743 1197.99 365.309 1171.51 375.217C1145.04 385.126 1015.77 411.881 999.418 478.271H1677.33C1677.33 478.271 1631.44 428.132 1607.3 420.204C1583.16 412.276 1529.42 372.715 1523.97 355.869C1518.52 339.023 1414.18 240.027 1383.03 234.084C1351.88 228.137 1286.83 266.065 1249.11 305.743H1249.11Z" fill="#5D9DC1"/>
<path opacity="0.47" d="M1454.97 140.369C1454.97 140.369 1501.43 217.662 1515.45 252.011C1515.45 252.011 1504.91 195.317 1472.34 143.931C1472.34 143.931 1461.98 141.69 1454.97 140.369Z" fill="#7BB5D8"/>
<path opacity="0.5" d="M845.847 478.269C845.847 478.269 902.579 431.48 928.286 404.408C953.994 377.336 994.771 363.722 1022.25 355.863C1049.73 348.005 1095.83 302.888 1115.33 281.454C1134.83 260.021 1191.61 243.092 1209.29 286.489C1226.98 329.89 1119.31 387.488 1073.66 411.176C1028.16 434.794 1008.95 478.269 1008.95 478.269H845.847Z" fill="#579FBD"/>
</g>
<g clip-path="url(#clip1_194_380)">
<path d="M269.42 161.191L229.974 181.041L245.287 194.686L271.275 176.327L269.42 161.191Z" fill="#BCE4EB"/>
<path d="M347.845 207.803L371.977 195.734L375.227 219.348L354.808 228.27L347.845 207.803Z" fill="#BCE4EB"/>
<path d="M101.77 59L244.358 186.812L269.42 161.192L329.281 183.649L358.518 213.054L371.976 195.734L711.202 448.776H9.54785L68.9476 122.975L101.77 59Z" fill="#6AB9D9"/>
<path d="M113.433 122.975L171.564 187.667L121.383 199.409L90.291 133.286L113.433 122.975Z" fill="#A1DCEA"/>
<path d="M214.914 183.648L301.902 283.894H168.719C168.719 283.894 187.747 206.754 188.207 205.179C188.672 203.603 214.914 183.648 214.914 183.648Z" fill="#A1DCEA"/>
<path d="M42.2812 113.738L61.9842 122.974L42.2812 128.04V113.738Z" fill="#226B9F"/>
<path d="M101.771 59L108.185 102.528L90.1071 122.975H113.435C113.435 122.975 102.939 157.271 109.353 165.185C115.767 173.1 132.1 171.121 132.1 171.121L143.764 190.246L214.917 183.649L217.248 252.899L263.905 244.324L260.987 272.684L304.729 281.259L318.144 293.792L392.796 323.47L424.289 326.96L564.844 448.78H-480.287L-287.239 319.513L-153.098 217.289L-132.101 223.224L-45.2024 165.846L-35.2882 177.718L42.2826 113.743L50.4467 121.657L101.771 59Z" fill="#5D9DC1"/>
<g opacity="0.5">
<path opacity="0.5" d="M42.2841 113.739L50.4482 121.653L-160.529 448.777L-275.044 448.797L-27.349 186.813L42.2841 113.739Z" fill="#E4C2DB"/>
<path opacity="0.5" d="M132.1 171.117L143.764 190.246L-37.9797 448.776H-196.436L132.1 171.117Z" fill="#6AB9D9"/>
<path opacity="0.5" d="M217.252 252.899L263.908 244.324L260.99 272.685C260.99 272.685 142.619 450.876 142.619 448.777C142.619 446.677 -24.793 448.797 -24.793 448.797L217.252 252.899Z" fill="#64AED2"/>
<path opacity="0.5" d="M304.733 281.26L318.147 293.792L321.033 448.797L231.847 448.776L304.733 281.26Z" fill="#6AB9D9"/>
</g>
</g>
<g clip-path="url(#clip2_194_380)">
<path d="M1314.05 1137.88H204.941V1187.32H1314.05V1137.88Z" fill="#FDF9DF"/>
<path d="M1293.54 1124H225.45L204.941 1137.88H1314.05L1293.54 1124Z" fill="#CDBD9A"/>
<path d="M1293.55 1075.75H225.451V1123.99H1293.55V1075.75Z" fill="#FDF9DF"/>
<path d="M1273.04 1062.21H245.959L225.451 1075.75H1293.55L1273.04 1062.21Z" fill="#CDBD9A"/>
<path d="M1273.04 1015.18H245.96V1062.21H1273.04V1015.18Z" fill="#FDF9DF"/>
<path d="M1252.53 1001.97H266.468L245.96 1015.18H1273.04L1252.53 1001.97Z" fill="#CDBD9A"/>
<path d="M1252.54 956.144H266.468V1001.97H1252.54V956.144Z" fill="#FDF9DF"/>
<path d="M1232.02 943.287H286.976L266.468 956.143H1252.53L1232.02 943.287Z" fill="#CDBD9A"/>
<path d="M1232.03 898.663H286.977V943.288H1232.03V898.663Z" fill="#FDF9DF"/>
<path d="M1211.52 886.137H307.473L286.977 898.662H1232.02L1211.52 886.137Z" fill="#CDBD9A"/>
<path d="M1211.51 842.718H307.475V886.138H1211.51V842.718Z" fill="#FDF9DF"/>
<path d="M1145.72 830.533H373.281L307.475 842.718H1211.53L1145.72 830.533Z" fill="#CDBD9A"/>
<path d="M1145.73 792.751H373.28V830.533H1145.73V792.751Z" fill="#FDF9DF"/>
<path d="M1127.36 782.146H391.636L373.28 792.75H1145.72L1127.36 782.146Z" fill="#CDBD9A"/>
<path d="M1127.38 745.455H391.639V782.157H1127.38V745.455Z" fill="#FDF9DF"/>
<path d="M1109.02 735.146H409.983L391.639 745.456H1127.36L1109.02 735.146Z" fill="#CDBD9A"/>
<path d="M1109.01 699.535H409.981V735.158H1109.01V699.535Z" fill="#FDF9DF"/>
<path d="M1090.66 689.531H428.338L409.981 699.534H1109.02L1090.66 689.531Z" fill="#CDBD9A"/>
<path d="M1090.65 654.99H428.339V689.533H1090.65V654.99Z" fill="#FDF9DF"/>
<path d="M1072.31 645.295H446.695L428.339 654.99H1090.66L1072.31 645.295Z" fill="#CDBD9A"/>
<path d="M1072.3 611.844H446.693V645.306H1072.3V611.844Z" fill="#FDF9DF"/>
<path d="M1053.95 602.442H465.049L446.693 611.842H1072.3L1053.95 602.442Z" fill="#CDBD9A"/>
<path d="M1053.95 570.072H465.052V602.455H1053.95V570.072Z" fill="#FDF9DF"/>
<path d="M1004.09 560.979H514.916L465.052 570.072H1053.95L1004.09 560.979Z" fill="#CDBD9A"/>
<path d="M1004.1 533.256H514.915V560.979H1004.1V533.256Z" fill="#FDF9DF"/>
<path d="M987.825 525.471H531.176L514.915 533.257H1004.09L987.825 525.471Z" fill="#CDBD9A"/>
<path d="M987.838 498.702H531.178V525.47H987.838V498.702Z" fill="#FDF9DF"/>
<path d="M971.565 491.178H547.439L531.178 498.702H987.826L971.565 491.178Z" fill="#CDBD9A"/>
<path d="M971.574 465.365H547.436V491.178H971.574V465.365Z" fill="#FDF9DF"/>
<path d="M955.313 458.125H563.685L547.436 465.365H971.562L955.313 458.125Z" fill="#CDBD9A"/>
<path d="M955.302 433.266H563.686V458.124H955.302V433.266Z" fill="#FDF9DF"/>
<path d="M939.052 426.287H579.946L563.686 433.266H955.313L939.052 426.287Z" fill="#CDBD9A"/>
<path d="M939.045 402.385H579.95V426.288H939.045V402.385Z" fill="#FDF9DF"/>
<path d="M934.581 395.678H584.425L579.95 402.384H939.056L934.581 395.678Z" fill="#CDBD9A"/>
</g>
<path d="M57.5603 1038.52L22.1417 1059.39L60.6973 1053.16L81.2583 1074.81L90.8972 1054.61L128.312 1064.03V1048.3H157.2C157.2 1048.3 127.228 1041.33 127.228 1010.53C127.228 979.734 126.287 875.136 139.605 863.39C152.923 851.645 207.648 809.072 207.648 809.072L202.971 794.995C202.971 794.995 141.715 842.402 133.388 833.16C125.061 823.917 208.56 733.197 208.56 733.197L326.195 650.752L309.027 656.44L248.142 684.537L259.606 664.545L242.724 684.537C242.724 684.537 201.859 712.18 193.218 713.403C184.577 714.626 161.677 754.668 147.048 753.673C132.419 752.677 133.417 650.752 133.417 650.752L100.622 654.079C100.622 654.079 118.645 758.849 106.981 753.673C-10.5393 701.544 -38.0301 696.937 81.8857 757.654C81.8857 757.654 94.0911 778.898 90.8972 785.411C87.7032 791.923 57.5603 1038.55 57.5603 1038.55V1038.52Z" fill="#733C36"/>
<path d="M366.349 660.932C404.652 660.932 435.703 629.966 435.703 591.768C435.703 553.57 404.652 522.604 366.349 522.604C328.045 522.604 296.994 553.57 296.994 591.768C296.994 629.966 328.045 660.932 366.349 660.932Z" fill="#5E8C43"/>
<path d="M400.282 716.303C438.585 716.303 469.636 685.337 469.636 647.139C469.636 608.941 438.585 577.976 400.282 577.976C361.979 577.976 330.928 608.941 330.928 647.139C330.928 685.337 361.979 716.303 400.282 716.303Z" fill="#5E8C43"/>
<path d="M409.579 665.963C447.882 665.963 478.933 634.997 478.933 596.799C478.933 558.601 447.882 527.636 409.579 527.636C371.276 527.636 340.225 558.601 340.225 596.799C340.225 634.997 371.276 665.963 409.579 665.963Z" fill="#5E8C43"/>
<path d="M276.373 938.134C324.079 938.134 362.752 899.567 362.752 851.992C362.752 804.417 324.079 765.851 276.373 765.851C228.667 765.851 189.993 804.417 189.993 851.992C189.993 899.567 228.667 938.134 276.373 938.134Z" fill="#5E8C43"/>
<path d="M-50.2623 546.75C-2.55635 546.75 36.1171 508.183 36.1171 460.609C36.1171 413.034 -2.55635 374.467 -50.2623 374.467C-97.9683 374.467 -136.642 413.034 -136.642 460.609C-136.642 508.183 -97.9683 546.75 -50.2623 546.75Z" fill="#5E8C43"/>
<path d="M343.363 650.781C368.563 650.781 388.991 630.409 388.991 605.279C388.991 580.148 368.563 559.776 343.363 559.776C318.164 559.776 297.735 580.148 297.735 605.279C297.735 630.409 318.164 650.781 343.363 650.781Z" fill="#15313A"/>
<path d="M365.688 687.213C390.888 687.213 411.316 666.841 411.316 641.71C411.316 616.58 390.888 596.208 365.688 596.208C340.489 596.208 320.061 616.58 320.061 641.71C320.061 666.841 340.489 687.213 365.688 687.213Z" fill="#15313A"/>
<path d="M371.826 654.081C397.026 654.081 417.454 633.709 417.454 608.579C417.454 583.448 397.026 563.076 371.826 563.076C346.627 563.076 326.198 583.448 326.198 608.579C326.198 633.709 346.627 654.081 371.826 654.081Z" fill="#15313A"/>
<path d="M334.663 857.078C372.966 857.078 404.017 826.112 404.017 787.914C404.017 749.716 372.966 718.751 334.663 718.751C296.36 718.751 265.309 749.716 265.309 787.914C265.309 826.112 296.36 857.078 334.663 857.078Z" fill="#5E8C43"/>
<path d="M259.893 843.883C298.196 843.883 329.247 812.917 329.247 774.719C329.247 736.521 298.196 705.556 259.893 705.556C221.589 705.556 190.538 736.521 190.538 774.719C190.538 812.917 221.589 843.883 259.893 843.883Z" fill="#5E8C43"/>
<path d="M64.2913 617.395C64.2913 628.315 63.008 638.952 60.5555 649.133C60.1277 651.038 59.6144 652.887 59.1011 654.764C56.1068 665.258 51.8861 675.24 46.5819 684.539C23.112 725.833 -21.3467 753.675 -72.3359 753.675C-79.2656 753.675 -86.0812 753.163 -92.7543 752.167C-158.516 742.327 -208.963 685.762 -208.963 617.395C-208.963 542.145 -147.793 481.144 -72.3359 481.144C-62.5259 481.144 -52.9725 482.167 -43.7328 484.13H-43.7044C-36.5751 485.665 -29.6453 487.742 -22.9722 490.329H-22.9437C-16.6128 492.775 -10.5101 495.676 -4.66405 499.003C11.4768 508.189 25.5359 520.56 36.7148 535.263C54.0249 558.128 64.2913 586.567 64.2913 617.395Z" fill="#5E8C43"/>
<path d="M357.592 473.35C357.592 554.003 309.797 623.508 240.927 655.246C215.347 667.048 186.858 673.618 156.8 673.618C120.84 673.618 87.0751 664.204 57.9018 647.681C39.1088 637.074 22.2265 623.508 7.85371 607.639C-2.41257 596.349 -11.3955 583.864 -18.8671 570.441C-18.9242 570.356 -18.9526 570.27 -19.0097 570.185C-31.8996 547.007 -40.2837 520.986 -43.0499 493.315C-43.6772 486.745 -44.0195 480.09 -44.0195 473.35C-44.0195 362.751 45.8961 273.111 156.8 273.111C267.705 273.111 357.592 362.751 357.592 473.35Z" fill="#5E8C43"/>
<path d="M-23.769 616.12C11.0694 616.12 39.3115 587.955 39.3115 553.213C39.3115 518.47 11.0694 490.306 -23.769 490.306C-58.6075 490.306 -86.8496 518.47 -86.8496 553.213C-86.8496 587.955 -58.6075 616.12 -23.769 616.12Z" fill="#15313A"/>
<path d="M59.1008 654.762C56.1065 665.256 51.8859 675.238 46.5816 684.537C23.1118 725.831 -21.347 753.672 -72.3362 753.672C-79.2659 753.672 -86.0815 753.161 -92.7546 752.165C-120.93 734.59 -139.694 703.336 -139.694 667.73C-139.694 627.745 -116.053 593.305 -81.9751 577.493C-69.1707 571.549 -54.912 568.222 -39.8833 568.222C-32.7254 568.222 -25.7101 568.99 -18.98 570.412C-18.9229 570.412 -18.8945 570.44 -18.866 570.44C-2.15472 574.023 13.0165 581.759 25.4786 592.509C41.7336 606.586 53.4257 625.811 57.903 647.68C58.3878 650.012 58.7871 652.373 59.1008 654.762Z" fill="#15313A"/>
<path d="M274.153 562.54C274.153 597.719 261.691 630.026 240.93 655.252C215.35 667.054 186.861 673.623 156.804 673.623C149.389 673.623 142.06 673.225 134.845 672.429C133.334 672.286 131.822 672.087 130.339 671.888C130.197 671.888 130.083 671.86 129.969 671.831C127.887 671.576 125.834 671.263 123.809 670.921C121.841 670.609 119.874 670.267 117.906 669.869C117.079 669.699 116.252 669.528 115.425 669.357C114.142 669.101 112.83 668.817 111.546 668.532C110.719 668.333 109.921 668.134 109.122 667.935C107.896 667.651 106.698 667.338 105.501 667.025C104.759 666.826 104.046 666.656 103.334 666.428C101.908 666.058 100.482 665.66 99.0843 665.234C97.3732 664.722 95.6908 664.181 94.0368 663.641C92.1832 663.044 90.3581 662.418 88.5329 661.736C87.1356 661.252 85.7667 660.74 84.4264 660.2C83.2572 659.773 82.1164 659.318 80.9757 658.835C80.548 658.664 80.1488 658.522 79.7495 658.323C78.5518 657.84 77.354 657.327 76.1563 656.787C74.7589 656.19 73.3615 655.564 71.9927 654.91C71.736 654.796 71.4509 654.683 71.1943 654.541C69.4262 653.716 67.6866 652.863 65.9755 651.981C64.236 651.099 62.5249 650.218 60.8139 649.279C60.7283 649.222 60.6429 649.194 60.5573 649.137C59.6733 648.682 58.7891 648.199 57.9051 647.687C58.3899 650.019 58.7892 652.379 59.1029 654.768C56.1086 665.262 51.888 675.244 46.5837 684.544C21.1747 667.793 1.32644 643.336 -9.65278 614.527C-14.9285 600.705 -18.1794 585.86 -18.9779 570.418C-19.0064 570.333 -19.0064 570.247 -19.0064 570.19C-19.149 567.659 -19.2061 565.1 -19.2061 562.54C-19.2061 539.761 -13.9874 518.204 -4.66223 499.008C-3.86374 497.33 -3.0082 495.709 -2.15268 494.088C22.4579 447.789 71.2798 416.25 127.488 416.25C208.477 416.25 274.153 481.745 274.153 562.54Z" fill="#15313A"/>
<path d="M309.085 903.695C338.001 903.695 361.443 880.318 361.443 851.481C361.443 822.644 338.001 799.267 309.085 799.267C280.168 799.267 256.727 822.644 256.727 851.481C256.727 880.318 280.168 903.695 309.085 903.695Z" fill="#15313A"/>
<path d="M350.004 851.56C372.605 851.56 390.926 833.289 390.926 810.75C390.926 788.212 372.605 769.94 350.004 769.94C327.403 769.94 309.081 788.212 309.081 810.75C309.081 833.289 327.403 851.56 350.004 851.56Z" fill="#15313A"/>
<path d="M241.04 873.684L243.463 878.177L248.568 878.689L245.032 882.414L246.116 887.391L241.496 885.201L237.076 887.761L237.731 882.699L233.91 879.286L238.958 878.348L241.04 873.684Z" fill="#B5BC4D"/>
<path d="M276.771 851.475C308.05 851.475 333.407 826.189 333.407 794.996C333.407 763.803 308.05 738.516 276.771 738.516C245.492 738.516 220.136 763.803 220.136 794.996C220.136 826.189 245.492 851.475 276.771 851.475Z" fill="#15313A"/>
<path d="M254.815 764.713L265.993 774.411L280.338 770.685L274.577 784.307L282.533 796.735L267.761 795.484L258.351 806.888L255.014 792.498L241.24 787.094L253.902 779.473L254.815 764.713Z" fill="#B5BC4D"/>
<path d="M98.4273 484.15L105.528 497.119L120.243 498.654L110.063 509.376L113.171 523.823L99.7961 517.481L86.9633 524.875L88.8741 510.229L77.8662 500.361L92.4388 497.659L98.4273 484.15Z" fill="#B5BC4D"/>
<g clip-path="url(#clip3_194_380)">
<path d="M125.527 1047.51C125.755 1047.46 125.975 1047.42 126.196 1047.37C126.524 1047.3 126.845 1047.22 127.166 1047.14C127.401 1047.08 127.629 1047.02 127.857 1046.96C126.916 1047.21 125.947 1047.43 124.971 1047.61C125.156 1047.58 125.341 1047.55 125.527 1047.51Z" fill="#B77E6D"/>
<path d="M129.505 1046.48C129.776 1046.39 130.054 1046.31 130.324 1046.22C130.588 1046.12 130.838 1046.03 131.094 1045.94C130.353 1046.22 129.583 1046.47 128.785 1046.71C129.027 1046.64 129.27 1046.56 129.512 1046.49L129.505 1046.48Z" fill="#B77E6D"/>
<path d="M305.584 1062.71C305.612 1063.19 305.641 1063.65 305.655 1064.11C305.641 1063.65 305.62 1063.19 305.584 1062.71Z" fill="#B77E6D"/>
<path d="M133.186 1045.13C133.635 1044.94 134.07 1044.76 134.476 1044.57C134.013 1044.78 133.514 1044.99 133.008 1045.2C133.072 1045.18 133.129 1045.15 133.186 1045.12V1045.13Z" fill="#B77E6D"/>
<path d="M132.633 1045.35C132.362 1045.46 132.084 1045.57 131.799 1045.68C132.084 1045.58 132.355 1045.46 132.633 1045.35Z" fill="#B77E6D"/>
<path d="M123.866 1047.79C124.08 1047.76 124.287 1047.73 124.501 1047.69C124.045 1047.76 123.581 1047.82 123.118 1047.87C123.368 1047.84 123.617 1047.82 123.866 1047.78V1047.79Z" fill="#B77E6D"/>
<path d="M112.905 1045.86C112.57 1045.64 112.228 1045.4 111.914 1045.13C112.235 1045.4 112.57 1045.64 112.905 1045.86Z" fill="#B77E6D"/>
<path d="M115.907 1047.31C116 1047.34 116.085 1047.38 116.178 1047.41C116.256 1047.43 116.342 1047.45 116.42 1047.47C115.765 1047.29 115.123 1047.06 114.496 1046.78C114.952 1046.99 115.423 1047.17 115.9 1047.32L115.907 1047.31Z" fill="#B77E6D"/>
<path d="M117.779 1047.77C117.642 1047.75 117.506 1047.71 117.369 1047.69C117.506 1047.72 117.642 1047.75 117.779 1047.77Z" fill="#B77E6D"/>
<path d="M304.273 1053.3C304.395 1053.91 304.509 1054.51 304.615 1055.1C304.509 1054.51 304.395 1053.9 304.273 1053.3Z" fill="#B77E6D"/>
<path d="M305.364 1060.18C305.443 1060.86 305.5 1061.52 305.55 1062.18C305.5 1061.52 305.436 1060.86 305.364 1060.18Z" fill="#B77E6D"/>
<path d="M300.533 1038.39C300.711 1038.98 300.882 1039.58 301.053 1040.18C300.882 1039.57 300.704 1038.98 300.533 1038.39Z" fill="#B77E6D"/>
<path d="M299.749 1035.77C299.293 1034.27 298.837 1032.85 298.402 1031.5C298.402 1031.5 298.402 1031.5 298.402 1031.5C298.851 1032.87 299.314 1034.32 299.778 1035.85C299.771 1035.82 299.763 1035.8 299.756 1035.77H299.749Z" fill="#B77E6D"/>
<path d="M302.436 1045.25C302.037 1043.7 301.617 1042.17 301.196 1040.66C301.652 1042.27 302.094 1043.91 302.515 1045.57C302.486 1045.46 302.465 1045.36 302.436 1045.25Z" fill="#B77E6D"/>
<path d="M300.391 1037.91C300.192 1037.24 299.992 1036.58 299.8 1035.94C300.021 1036.66 300.242 1037.4 300.47 1038.15C300.448 1038.07 300.42 1037.99 300.398 1037.91H300.391Z" fill="#B77E6D"/>
<path d="M-536.479 1508.1C-501.568 1465.05 -475.308 1437.2 -429.08 1418.9C-403.561 1408.8 -380.493 1422.33 -343.415 1377.73C-320.861 1350.61 -295.014 1311.43 -275.908 1280.26C-275.908 1280.26 -275.901 1280.25 -275.894 1280.24C-275.659 1279.86 -275.424 1279.47 -275.189 1279.08C-263.231 1259.52 -264.535 1264.13 -260.608 1256.22C-251.123 1237.13 -226.709 1238.47 -212.506 1243.15C-211.395 1243.52 -210.283 1243.79 -209.171 1243.92C-203.392 1244.57 -188.897 1234.01 -171.274 1218.31C-144.6 1227.38 -65.5419 1132.99 -52.4724 1114.69C-39.4029 1096.39 -13.834 1076.57 -3.60071 1088.77C6.62543 1100.97 -16.1001 1128.41 -35.9894 1157.38C-55.8787 1186.36 -23.9532 1170.23 -18.2736 1159.55C-12.594 1148.88 25.3817 1111.64 37.311 1091.82C49.2475 1071.99 59.4736 1068.95 56.6302 1075.81C53.7869 1082.66 49.8104 1092.57 56.6302 1096.39C63.4501 1100.2 82.7693 1065.13 86.7457 1059.03C90.7222 1052.93 103.792 1033.11 109.478 1042.26C109.87 1042.89 110.298 1043.44 110.747 1043.95C110.312 1048.52 109.001 1052.81 106.635 1055.98C98.1121 1067.42 79.926 1079.62 79.3558 1088.76C78.7858 1097.91 99.2452 1092.57 99.2452 1104.77C99.2452 1116.97 83.9023 1128.41 74.2392 1134.51C64.576 1140.6 36.7338 1146.7 36.7338 1155.09C36.7338 1163.47 65.7162 1158.14 77.6455 1161.95C89.582 1165.76 89.0118 1193.21 81.6219 1203.12C74.2321 1213.03 28.7738 1288.51 28.2037 1306.04C27.6336 1323.58 35.5936 1325.86 47.808 1325.86C60.0223 1325.86 69.1154 1333.49 69.1154 1342.63C69.1154 1351.79 41.7792 1381.51 28.1752 1392.95C14.564 1404.39 22.524 1424.97 41.2732 1425.73C41.2732 1425.73 91.5987 1420.87 115.7 1446.74C139.801 1472.61 148.238 1490.39 185.601 1480.69C222.964 1470.99 277.194 1456.44 310.937 1506.56C344.68 1556.68 307.324 1587.41 310.937 1601.96C314.55 1616.51 327.812 1635.91 366.372 1631.06C399.502 1626.89 431.72 1659.72 440.15 1691.6H-705.25C-705.25 1691.6 -599.105 1585.29 -536.479 1508.06V1508.1Z" fill="#64AED2"/>
<path d="M305.094 1058.06C305.058 1057.82 305.023 1057.59 304.987 1057.35C304.909 1056.85 304.83 1056.34 304.745 1055.83C304.709 1055.61 304.666 1055.38 304.631 1055.15C304.909 1056.73 305.144 1058.25 305.315 1059.73C305.251 1059.18 305.18 1058.62 305.101 1058.06H305.094Z" fill="#B77E6D"/>
<path d="M303.582 1050.02C303.453 1049.44 303.318 1048.86 303.183 1048.28C303.368 1049.06 303.546 1049.83 303.717 1050.6C303.674 1050.4 303.632 1050.21 303.589 1050.02H303.582Z" fill="#B77E6D"/>
<path d="M302.594 1045.86C302.736 1046.42 302.872 1046.98 303.014 1047.54C302.879 1046.98 302.736 1046.42 302.594 1045.86Z" fill="#B77E6D"/>
<path d="M303.72 1050.61C303.884 1051.37 304.048 1052.12 304.197 1052.87C304.048 1052.12 303.891 1051.37 303.72 1050.61Z" fill="#B77E6D"/>
<path d="M305.514 1068.21C305.578 1067.68 305.613 1067.13 305.642 1066.56C305.649 1066.38 305.649 1066.2 305.656 1066.02C305.663 1065.6 305.67 1065.18 305.663 1064.75C305.678 1065.99 305.642 1067.15 305.514 1068.21Z" fill="#B77E6D"/>
<path d="M118.75 1047.9C118.807 1047.9 118.864 1047.91 118.928 1047.92C119.092 1047.94 119.256 1047.96 119.42 1047.97C119.79 1047.99 120.168 1048 120.546 1048C120.731 1048 120.909 1048 121.094 1048C121.458 1048 121.829 1047.98 122.199 1047.95C122.399 1047.94 122.598 1047.92 122.798 1047.91C121.437 1048.03 120.075 1048.04 118.75 1047.9Z" fill="#B77E6D"/>
<path d="M366.182 1106.71C378.966 1111.85 407.207 1113.43 421.267 1118.58C435.335 1123.72 526.999 1199.79 600.92 1273.78C645.601 1318.5 700.338 1412.04 720.797 1439.49C741.257 1466.94 750.208 1461.79 761.709 1473.8C773.218 1485.81 980.52 1691.65 980.52 1691.65H440.159C431.729 1659.76 399.511 1626.94 366.381 1631.11C327.814 1635.96 314.559 1616.55 310.946 1602C307.333 1587.45 344.689 1556.73 310.946 1506.61C277.203 1456.49 222.973 1471.04 185.61 1480.74C148.247 1490.44 139.817 1472.65 115.709 1446.78C91.6077 1420.92 41.2822 1425.77 41.2822 1425.77C22.5331 1425.01 14.5731 1404.42 28.1842 1392.99C41.7953 1381.56 69.1245 1351.82 69.1245 1342.68C69.1245 1333.53 60.0314 1325.91 47.817 1325.91C35.6026 1325.91 27.6426 1323.62 28.2127 1306.09C28.7828 1288.55 74.2411 1213.07 81.631 1203.16C89.0209 1193.25 89.5839 1165.8 77.6546 1161.99C65.7181 1158.18 36.7428 1163.52 36.7428 1155.13C36.7428 1146.75 64.585 1140.65 74.2482 1134.55C83.9114 1128.45 99.2542 1117.01 99.2542 1104.82C99.2542 1092.62 78.7948 1097.96 79.3649 1088.81C79.935 1079.65 98.114 1067.46 106.644 1056.03C109.01 1052.85 110.321 1048.57 110.756 1044C110.756 1044 110.763 1044 110.77 1044.01C111.141 1044.42 111.526 1044.8 111.932 1045.15C112.252 1045.42 112.587 1045.65 112.922 1045.88C113.015 1045.94 113.093 1046.01 113.186 1046.07C113.599 1046.33 114.027 1046.56 114.462 1046.76C114.483 1046.77 114.497 1046.79 114.519 1046.79C115.139 1047.08 115.78 1047.3 116.443 1047.48C116.756 1047.57 117.07 1047.64 117.383 1047.71C117.519 1047.74 117.654 1047.77 117.789 1047.79C118.11 1047.85 118.438 1047.88 118.766 1047.92C120.091 1048.06 121.445 1048.06 122.814 1047.93C122.92 1047.92 123.027 1047.91 123.134 1047.89C123.597 1047.84 124.053 1047.79 124.517 1047.71C124.673 1047.69 124.83 1047.66 124.987 1047.63C125.963 1047.45 126.932 1047.24 127.873 1046.98C128.18 1046.9 128.479 1046.82 128.778 1046.72C129.576 1046.48 130.346 1046.23 131.087 1045.96C131.322 1045.87 131.565 1045.78 131.793 1045.7C132.078 1045.6 132.348 1045.48 132.626 1045.37L132.662 1045.36C132.776 1045.31 132.89 1045.27 133.004 1045.22C133.517 1045.01 134.009 1044.8 134.472 1044.6C141.292 1041.54 149.245 1052.98 158.338 1063.66C167.431 1074.33 177.087 1063.66 173.681 1053.75C170.274 1043.84 164.017 1030.11 170.837 1027.83C177.657 1025.54 203.796 1056.03 223.115 1079.29C242.435 1102.54 277.667 1143.71 281.073 1137.61C284.479 1131.51 269.707 1101.78 251.528 1079.67C233.341 1057.56 220.272 1023.26 244.138 1044.6C268.003 1065.95 303.806 1082.72 305.509 1068.23C305.637 1067.17 305.673 1066.01 305.658 1064.77C305.658 1064.56 305.659 1064.35 305.644 1064.14C305.63 1063.68 305.609 1063.22 305.573 1062.74C305.559 1062.57 305.552 1062.4 305.545 1062.22C305.495 1061.56 305.431 1060.9 305.359 1060.22C305.345 1060.07 305.324 1059.93 305.309 1059.79C305.309 1059.78 305.309 1059.77 305.309 1059.76C305.131 1058.28 304.903 1056.75 304.625 1055.18C304.625 1055.17 304.625 1055.15 304.618 1055.14C304.511 1054.55 304.397 1053.94 304.276 1053.33C304.276 1053.33 304.276 1053.33 304.276 1053.32C304.248 1053.18 304.226 1053.05 304.198 1052.91C304.198 1052.91 304.198 1052.91 304.198 1052.9C304.048 1052.15 303.891 1051.39 303.72 1050.64C303.549 1049.86 303.371 1049.09 303.186 1048.32C303.129 1048.08 303.072 1047.84 303.015 1047.6C303.015 1047.59 303.015 1047.58 303.015 1047.57C302.879 1047.01 302.737 1046.45 302.594 1045.9C302.573 1045.8 302.544 1045.7 302.523 1045.6C302.103 1043.95 301.654 1042.31 301.205 1040.7C301.205 1040.7 301.205 1040.69 301.205 1040.69C301.162 1040.54 301.119 1040.39 301.076 1040.25C301.076 1040.24 301.076 1040.24 301.069 1040.22C300.898 1039.61 300.72 1039.01 300.549 1038.42V1038.4C300.521 1038.33 300.499 1038.26 300.478 1038.19C300.257 1037.44 300.036 1036.7 299.808 1035.97C299.808 1035.96 299.808 1035.95 299.801 1035.94C299.801 1035.93 299.794 1035.91 299.786 1035.89C299.316 1034.36 298.853 1032.9 298.411 1031.53C298.411 1031.53 298.411 1031.53 298.411 1031.52C332.995 1072.32 361.443 1104.83 366.196 1106.74L366.182 1106.71Z" fill="#6AB9D9"/>
<path d="M300.39 1037.9C300.19 1037.23 299.984 1036.56 299.784 1035.9C299.984 1036.56 300.183 1037.23 300.39 1037.9Z" fill="#B77E6D"/>
<path d="M122.208 1047.95C122.408 1047.94 122.607 1047.92 122.807 1047.91C122.607 1047.93 122.408 1047.94 122.208 1047.95Z" fill="#B77E6D"/>
<path d="M125.527 1047.51C125.755 1047.46 125.976 1047.42 126.197 1047.37C125.976 1047.42 125.748 1047.46 125.527 1047.51Z" fill="#B77E6D"/>
<path d="M304.986 1057.34C304.908 1056.84 304.83 1056.34 304.744 1055.82C304.83 1056.34 304.915 1056.84 304.986 1057.34Z" fill="#B77E6D"/>
<path d="M117.369 1047.69C117.506 1047.72 117.642 1047.75 117.779 1047.77C117.642 1047.75 117.506 1047.71 117.369 1047.69Z" fill="#B77E6D"/>
<path d="M110.741 1043.98C110.741 1043.98 110.741 1043.98 110.749 1043.99C110.749 1043.99 110.749 1043.99 110.741 1043.98Z" fill="#B77E6D"/>
<path d="M110.741 1043.98C110.741 1043.98 110.741 1043.98 110.748 1043.99C110.748 1043.99 110.741 1043.98 110.733 1043.97L110.741 1043.98Z" fill="#B77E6D"/>
<path d="M118.927 1047.92C119.092 1047.94 119.256 1047.96 119.421 1047.97C119.256 1047.95 119.092 1047.94 118.927 1047.92Z" fill="#B77E6D"/>
<path d="M299.749 1035.77C299.293 1034.27 298.837 1032.85 298.402 1031.5C298.837 1032.84 299.293 1034.28 299.749 1035.77Z" fill="#B77E6D"/>
<path d="M305.651 1064.12C305.637 1063.66 305.616 1063.19 305.58 1062.71C305.609 1063.19 305.637 1063.65 305.651 1064.12Z" fill="#B77E6D"/>
<path d="M305.658 1066.02C305.666 1065.6 305.673 1065.18 305.666 1064.75C305.666 1065.18 305.666 1065.6 305.658 1066.02Z" fill="#B77E6D"/>
<path d="M127.164 1047.14C127.399 1047.08 127.634 1047.02 127.862 1046.95C127.627 1047.01 127.399 1047.08 127.164 1047.14Z" fill="#B77E6D"/>
<path d="M305.315 1059.76C305.25 1059.2 305.179 1058.64 305.094 1058.06C305.172 1058.64 305.25 1059.2 305.315 1059.76Z" fill="#B77E6D"/>
<path d="M305.55 1062.19C305.5 1061.53 305.436 1060.86 305.364 1060.18C305.443 1060.86 305.5 1061.53 305.55 1062.19Z" fill="#B77E6D"/>
<path d="M130.315 1046.21C130.579 1046.12 130.836 1046.03 131.092 1045.94C130.836 1046.03 130.579 1046.12 130.315 1046.21Z" fill="#B77E6D"/>
<path d="M128.777 1046.7C129.027 1046.63 129.262 1046.55 129.504 1046.48C129.262 1046.55 129.02 1046.64 128.777 1046.7Z" fill="#B77E6D"/>
<path d="M302.436 1045.25C302.036 1043.7 301.616 1042.16 301.188 1040.65C301.616 1042.16 302.036 1043.69 302.436 1045.25Z" fill="#B77E6D"/>
<path d="M133.188 1045.13C133.636 1044.94 134.071 1044.76 134.477 1044.57C134.071 1044.75 133.636 1044.94 133.188 1045.13Z" fill="#B77E6D"/>
<path d="M121.102 1048C121.465 1048 121.836 1047.98 122.206 1047.95C121.836 1047.97 121.472 1048 121.102 1048Z" fill="#B77E6D"/>
<path d="M304.273 1053.29C304.245 1053.16 304.223 1053.02 304.194 1052.88C304.223 1053.01 304.245 1053.15 304.273 1053.29Z" fill="#B77E6D"/>
<path d="M304.736 1055.83C304.693 1055.58 304.657 1055.34 304.614 1055.1C304.657 1055.34 304.7 1055.58 304.736 1055.83Z" fill="#B77E6D"/>
<path d="M303.719 1050.61C303.676 1050.41 303.633 1050.22 303.583 1050.02C303.626 1050.22 303.676 1050.41 303.719 1050.61Z" fill="#B77E6D"/>
<path d="M126.203 1047.36C126.524 1047.3 126.852 1047.22 127.172 1047.14C126.852 1047.22 126.531 1047.29 126.203 1047.36Z" fill="#B77E6D"/>
<path d="M132.662 1045.34C132.834 1045.28 133.02 1045.21 133.185 1045.13C133.013 1045.2 132.834 1045.27 132.662 1045.34Z" fill="#B77E6D"/>
<path d="M305.587 1062.72C305.572 1062.54 305.564 1062.37 305.557 1062.19C305.572 1062.37 305.579 1062.53 305.587 1062.72Z" fill="#B77E6D"/>
<path d="M305.643 1066.56C305.65 1066.38 305.65 1066.19 305.658 1066.01C305.658 1066.19 305.658 1066.38 305.643 1066.56Z" fill="#B77E6D"/>
<path d="M305.665 1064.75C305.665 1064.54 305.666 1064.34 305.65 1064.13C305.65 1064.34 305.658 1064.55 305.665 1064.75Z" fill="#B77E6D"/>
<path d="M298.402 1031.51C298.402 1031.51 298.402 1031.49 298.395 1031.48C298.395 1031.48 298.395 1031.49 298.395 1031.5C298.395 1031.5 298.395 1031.5 298.395 1031.51H298.402Z" fill="#B77E6D"/>
<path d="M299.791 1035.9C299.777 1035.86 299.762 1035.81 299.748 1035.78C299.762 1035.82 299.777 1035.87 299.791 1035.9Z" fill="#B77E6D"/>
<path d="M129.503 1046.48C129.774 1046.39 130.052 1046.3 130.322 1046.21C130.052 1046.3 129.781 1046.39 129.503 1046.48Z" fill="#B77E6D"/>
<path d="M-171.274 1218.33C-142.121 1192.36 -104.409 1152.31 -83.3862 1125.58C-49.6649 1082.69 51.6917 940.974 81.7858 905.736C101.796 882.304 130.201 867.512 137.948 864.617C133.472 877.912 129.489 883.206 128.798 895.915C127.094 927.175 121.408 959.955 114.595 975.205C107.775 990.455 98.682 991.974 93.0024 995.028C87.3228 998.081 88.4559 1015.61 99.2522 1017.14C107.055 1018.24 111.887 1032.08 110.747 1043.99C110.298 1043.48 109.87 1042.92 109.478 1042.3C103.799 1033.15 90.7292 1052.97 86.7456 1059.07C82.7691 1065.17 60.2217 1117.51 53.4019 1113.7C46.5821 1109.89 42.9192 1104.94 45.7626 1098.08C48.6059 1091.22 34.9949 1092.24 23.0655 1112.06C11.1291 1131.88 -10.9836 1153.31 -16.6633 1163.99C-22.3429 1174.66 -55.8861 1186.39 -35.9967 1157.42C-16.1074 1128.45 -8.41109 1118.09 -18.6444 1105.89C-28.8705 1093.7 -39.4102 1096.43 -52.4797 1114.72C-65.5492 1133.02 -144.608 1227.42 -171.281 1218.34L-171.274 1218.33Z" fill="white"/>
<path d="M111.914 1045.13C112.27 1045.43 112.648 1045.7 113.026 1045.95C112.983 1045.92 112.947 1045.89 112.905 1045.86C112.57 1045.64 112.228 1045.4 111.914 1045.13Z" fill="#B77E6D"/>
<path d="M113.17 1046.05C114.032 1046.59 114.952 1047 115.914 1047.31C115.436 1047.16 114.966 1046.98 114.51 1046.77C114.488 1046.76 114.474 1046.75 114.453 1046.74C114.018 1046.54 113.59 1046.31 113.177 1046.05H113.17Z" fill="#B77E6D"/>
<path d="M110.756 1044C111.127 1044.41 111.511 1044.79 111.911 1045.13C111.504 1044.79 111.12 1044.41 110.749 1044H110.756Z" fill="#B77E6D"/>
<path d="M114.503 1046.77C114.503 1046.77 114.467 1046.75 114.445 1046.74C114.467 1046.75 114.482 1046.76 114.503 1046.77Z" fill="#B77E6D"/>
<path d="M112.907 1045.86C112.95 1045.89 112.986 1045.92 113.028 1045.95C113.078 1045.98 113.121 1046.02 113.171 1046.05C113.078 1045.99 112.993 1045.91 112.907 1045.85V1045.86Z" fill="#B77E6D"/>
<path d="M116.176 1047.4C116.561 1047.52 116.96 1047.61 117.359 1047.68C116.96 1047.6 116.561 1047.52 116.176 1047.4Z" fill="#B77E6D"/>
<path d="M301.189 1040.65C301.146 1040.5 301.103 1040.36 301.06 1040.21C301.103 1040.36 301.146 1040.51 301.189 1040.65Z" fill="#B77E6D"/>
<path d="M300.529 1038.37C300.486 1038.21 300.436 1038.06 300.393 1037.91C300.436 1038.06 300.486 1038.21 300.529 1038.37Z" fill="#B77E6D"/>
<path d="M117.773 1047.77C118.151 1047.84 118.536 1047.88 118.928 1047.91C118.543 1047.88 118.158 1047.83 117.773 1047.77Z" fill="#B77E6D"/>
<path d="M302.586 1045.86C302.536 1045.65 302.486 1045.45 302.429 1045.24C302.479 1045.45 302.529 1045.65 302.586 1045.86Z" fill="#B77E6D"/>
<path d="M300.389 1037.9C300.41 1037.99 300.438 1038.07 300.46 1038.15C300.481 1038.23 300.503 1038.3 300.531 1038.39C300.709 1038.98 300.88 1039.58 301.051 1040.18C301.094 1040.34 301.144 1040.5 301.187 1040.66C301.614 1042.17 302.028 1043.7 302.427 1045.25C302.455 1045.36 302.484 1045.46 302.505 1045.57C302.534 1045.66 302.555 1045.76 302.576 1045.86C302.719 1046.42 302.854 1046.98 302.997 1047.54C303.054 1047.79 303.118 1048.03 303.175 1048.28C303.31 1048.86 303.446 1049.44 303.574 1050.02C303.617 1050.21 303.659 1050.4 303.702 1050.6C303.866 1051.36 304.03 1052.11 304.18 1052.86C304.208 1053 304.237 1053.15 304.265 1053.3C304.386 1053.91 304.5 1054.51 304.607 1055.1C304.607 1055.12 304.607 1055.13 304.614 1055.15C304.657 1055.37 304.693 1055.6 304.728 1055.82C304.814 1056.34 304.899 1056.84 304.971 1057.34C305.006 1057.58 305.042 1057.82 305.078 1058.06C305.156 1058.62 305.227 1059.18 305.291 1059.72C305.313 1059.87 305.334 1060.03 305.348 1060.17C305.427 1060.86 305.484 1061.52 305.534 1062.17C305.548 1062.35 305.555 1062.52 305.569 1062.71C305.598 1063.18 305.626 1063.65 305.641 1064.1C305.641 1064.31 305.648 1064.52 305.655 1064.73C305.655 1065.16 305.655 1065.59 305.648 1066C305.648 1066.18 305.648 1066.37 305.633 1066.54C305.605 1067.11 305.569 1067.67 305.505 1068.19C303.802 1082.68 278.176 1074.21 254.31 1052.86C230.445 1031.51 233.338 1057.52 251.517 1079.63C269.703 1101.74 284.476 1131.47 281.062 1137.57C277.656 1143.67 240.443 1116.43 221.123 1093.18C201.804 1069.92 177.646 1025.5 170.826 1027.79C164.007 1030.08 170.256 1043.8 173.67 1053.71C177.076 1063.62 167.42 1074.29 158.327 1063.62C149.234 1052.95 141.281 1041.51 134.461 1044.56C134.055 1044.74 133.62 1044.93 133.171 1045.12C133.114 1045.14 133.05 1045.16 132.993 1045.19C132.872 1045.24 132.744 1045.29 132.623 1045.34C132.352 1045.45 132.074 1045.56 131.789 1045.67C131.561 1045.76 131.311 1045.85 131.076 1045.93C130.82 1046.02 130.57 1046.12 130.307 1046.2C130.043 1046.29 129.765 1046.38 129.487 1046.46C129.245 1046.54 129.01 1046.61 128.76 1046.69C128.461 1046.78 128.155 1046.86 127.848 1046.94C127.62 1047 127.385 1047.07 127.157 1047.12C126.836 1047.21 126.515 1047.27 126.188 1047.35C125.967 1047.4 125.739 1047.45 125.518 1047.49C125.333 1047.53 125.147 1047.56 124.962 1047.59C124.805 1047.62 124.648 1047.65 124.492 1047.67C124.278 1047.7 124.071 1047.74 123.857 1047.77C123.608 1047.81 123.359 1047.83 123.109 1047.86C123.002 1047.88 122.895 1047.89 122.788 1047.9C122.589 1047.92 122.389 1047.93 122.19 1047.94C121.819 1047.97 121.456 1047.99 121.085 1048C120.9 1048 120.715 1048 120.537 1048C120.159 1048 119.781 1047.98 119.411 1047.96C119.247 1047.95 119.083 1047.93 118.919 1047.91C118.862 1047.91 118.805 1047.9 118.741 1047.89C118.413 1047.85 118.085 1047.82 117.764 1047.76C117.629 1047.74 117.494 1047.7 117.358 1047.68C117.038 1047.61 116.724 1047.54 116.41 1047.45C116.332 1047.43 116.247 1047.42 116.168 1047.39C116.076 1047.36 115.99 1047.33 115.897 1047.3C114.942 1046.99 114.016 1046.57 113.154 1046.03C113.104 1046 113.061 1045.97 113.011 1045.94C112.626 1045.69 112.256 1045.42 111.9 1045.12C111.493 1044.77 111.109 1044.39 110.738 1043.98C110.738 1043.98 110.738 1043.98 110.731 1043.97C111.864 1032.06 102.671 1019.59 94.8679 1018.5C84.0716 1016.97 82.4967 992.619 92.6872 983.836C97.8324 979.399 101.88 966.864 108.7 951.613C115.52 936.363 127.078 927.159 128.782 895.906C129.473 883.197 133.456 877.903 137.932 864.608C143.918 862.367 149.077 865.089 155.206 871.067C164.042 879.685 239.965 962.57 298.379 1031.48C298.379 1031.49 298.379 1031.5 298.386 1031.5C298.821 1032.84 299.277 1034.28 299.733 1035.77C299.74 1035.8 299.747 1035.82 299.754 1035.85C299.761 1035.88 299.769 1035.9 299.783 1035.93C299.982 1036.58 300.175 1037.24 300.374 1037.9H300.389Z" fill="#A1DCEA"/>
<path d="M117.773 1047.77C118.094 1047.82 118.422 1047.86 118.75 1047.9C118.422 1047.86 118.094 1047.83 117.773 1047.77Z" fill="#B77E6D"/>
<path d="M131.798 1045.68C131.57 1045.77 131.328 1045.85 131.093 1045.94C131.328 1045.85 131.57 1045.77 131.805 1045.68H131.798Z" fill="#B77E6D"/>
<path d="M128.775 1046.7C128.476 1046.79 128.177 1046.88 127.87 1046.96C128.177 1046.88 128.483 1046.79 128.782 1046.7H128.775Z" fill="#B77E6D"/>
<path d="M299.804 1035.94C299.804 1035.94 299.788 1035.88 299.772 1035.85C299.772 1035.87 299.78 1035.88 299.788 1035.91C299.788 1035.91 299.788 1035.93 299.796 1035.94H299.804Z" fill="#B77E6D"/>
<path d="M110.753 1044C111.123 1044.41 111.508 1044.79 111.915 1045.13C111.508 1044.79 111.124 1044.42 110.76 1044H110.753Z" fill="#B77E6D"/>
<path d="M117.367 1047.69C117.047 1047.62 116.733 1047.55 116.427 1047.46C116.74 1047.55 117.054 1047.62 117.375 1047.69H117.367Z" fill="#B77E6D"/>
<path d="M132.659 1045.34L132.623 1045.36C132.745 1045.31 132.875 1045.26 132.997 1045.21C132.882 1045.25 132.767 1045.3 132.652 1045.34H132.659Z" fill="#B77E6D"/>
<path d="M304.614 1055.11C304.614 1055.11 304.614 1055.14 304.622 1055.16C304.622 1055.14 304.622 1055.13 304.614 1055.11Z" fill="#B77E6D"/>
<path d="M305.317 1059.76C305.331 1059.9 305.353 1060.04 305.367 1060.19C305.353 1060.04 305.331 1059.89 305.31 1059.73C305.31 1059.74 305.31 1059.75 305.31 1059.76L305.317 1059.76Z" fill="#B77E6D"/>
<path d="M304.194 1052.88C304.222 1053.01 304.244 1053.15 304.273 1053.29C304.273 1053.29 304.273 1053.3 304.273 1053.31C304.244 1053.16 304.215 1053.02 304.187 1052.87C304.187 1052.87 304.187 1052.87 304.187 1052.88H304.194Z" fill="#B77E6D"/>
<path d="M300.528 1038.36V1038.39C300.513 1038.31 300.484 1038.24 300.463 1038.15C300.484 1038.22 300.506 1038.3 300.528 1038.36Z" fill="#B77E6D"/>
<path d="M303.013 1047.56C303.07 1047.8 303.128 1048.04 303.185 1048.28C303.128 1048.04 303.063 1047.79 303.006 1047.54C303.006 1047.54 303.006 1047.55 303.006 1047.56H303.013Z" fill="#B77E6D"/>
<path d="M305.65 1064.12C305.65 1064.33 305.658 1064.54 305.665 1064.75C305.665 1064.54 305.666 1064.33 305.65 1064.12Z" fill="#B77E6D"/>
<path d="M305.549 1062.19C305.564 1062.37 305.571 1062.53 305.579 1062.72C305.564 1062.53 305.556 1062.36 305.541 1062.18L305.549 1062.19Z" fill="#B77E6D"/>
<path d="M301.059 1040.21C301.102 1040.36 301.145 1040.51 301.188 1040.65C301.188 1040.65 301.188 1040.66 301.188 1040.67C301.145 1040.51 301.095 1040.35 301.052 1040.18C301.052 1040.19 301.052 1040.2 301.059 1040.21Z" fill="#B77E6D"/>
<path d="M28.182 1392.99C28.182 1392.99 -55.7507 1496.1 -99.2208 1513.25C-142.691 1530.41 -354.932 1576.72 -381.783 1691.65H731.264C731.264 1691.65 655.918 1604.85 616.282 1591.13C576.646 1577.41 488.423 1508.92 479.472 1479.76C470.522 1450.6 299.2 1279.23 248.055 1268.94C196.91 1258.64 90.1161 1324.3 28.1749 1392.99H28.182Z" fill="#5D9DC1"/>
<path opacity="0.47" d="M366.18 1106.71C366.18 1106.71 442.466 1240.51 465.484 1299.97C465.484 1299.97 448.181 1201.83 394.692 1112.88C394.692 1112.88 377.689 1109 366.18 1106.71Z" fill="#7BB5D8"/>
</g>
<path d="M1595.03 1544.87L1634.36 1568.04L1591.55 1561.13L1568.72 1585.16L1558.02 1562.74L1516.48 1573.19V1555.73H1484.41C1484.41 1555.73 1517.68 1547.99 1517.68 1513.8C1517.68 1479.6 1518.73 1363.47 1503.94 1350.43C1489.16 1337.39 1428.4 1290.12 1428.4 1290.12L1433.59 1274.49C1433.59 1274.49 1501.6 1327.12 1510.84 1316.86C1520.09 1306.6 1427.38 1205.88 1427.38 1205.88L1296.78 1114.34L1315.84 1120.65L1383.43 1151.85L1370.71 1129.65L1389.45 1151.85C1389.45 1151.85 1434.82 1182.54 1444.42 1183.9C1454.01 1185.26 1479.43 1229.72 1495.68 1228.61C1511.92 1227.51 1510.81 1114.34 1510.81 1114.34L1547.22 1118.03C1547.22 1118.03 1527.21 1234.36 1540.16 1228.61C1670.64 1170.73 1701.17 1165.62 1568.03 1233.03C1568.03 1233.03 1554.47 1256.62 1558.02 1263.85C1561.57 1271.08 1595.03 1544.9 1595.03 1544.9V1544.87Z" fill="#733C36"/>
<path d="M1252.19 1125.64C1209.66 1125.64 1175.19 1091.26 1175.19 1048.85C1175.19 1006.44 1209.66 972.062 1252.19 972.062C1294.72 972.062 1329.19 1006.44 1329.19 1048.85C1329.19 1091.26 1294.72 1125.64 1252.19 1125.64Z" fill="#5E8C43"/>
<path d="M1214.52 1187.12C1171.99 1187.12 1137.52 1152.74 1137.52 1110.33C1137.52 1067.92 1171.99 1033.54 1214.52 1033.54C1257.05 1033.54 1291.52 1067.92 1291.52 1110.33C1291.52 1152.74 1257.05 1187.12 1214.52 1187.12Z" fill="#5E8C43"/>
<path d="M1204.2 1131.23C1161.67 1131.23 1127.2 1096.85 1127.2 1054.44C1127.2 1012.03 1161.67 977.647 1204.2 977.647C1246.72 977.647 1281.2 1012.03 1281.2 1054.44C1281.2 1096.85 1246.72 1131.23 1204.2 1131.23Z" fill="#5E8C43"/>
<path d="M1352.09 1433.41C1299.12 1433.41 1256.19 1390.59 1256.19 1337.77C1256.19 1284.95 1299.12 1242.13 1352.09 1242.13C1405.06 1242.13 1448 1284.95 1448 1337.77C1448 1390.59 1405.06 1433.41 1352.09 1433.41Z" fill="#5E8C43"/>
<path d="M1277.71 1114.37C1249.73 1114.37 1227.05 1091.75 1227.05 1063.85C1227.05 1035.95 1249.73 1013.33 1277.71 1013.33C1305.69 1013.33 1328.37 1035.95 1328.37 1063.85C1328.37 1091.75 1305.69 1114.37 1277.71 1114.37Z" fill="#15313A"/>
<path d="M1252.93 1154.82C1224.95 1154.82 1202.27 1132.2 1202.27 1104.3C1202.27 1076.4 1224.95 1053.78 1252.93 1053.78C1280.9 1053.78 1303.58 1076.4 1303.58 1104.3C1303.58 1132.2 1280.9 1154.82 1252.93 1154.82Z" fill="#15313A"/>
<path d="M1246.11 1118.04C1218.13 1118.04 1195.45 1095.42 1195.45 1067.52C1195.45 1039.61 1218.13 1017 1246.11 1017C1274.09 1017 1296.77 1039.61 1296.77 1067.52C1296.77 1095.42 1274.09 1118.04 1246.11 1118.04Z" fill="#15313A"/>
<path d="M1287.37 1343.42C1244.85 1343.42 1210.37 1309.04 1210.37 1266.63C1210.37 1224.22 1244.85 1189.84 1287.37 1189.84C1329.9 1189.84 1364.38 1224.22 1364.38 1266.63C1364.38 1309.04 1329.9 1343.42 1287.37 1343.42Z" fill="#5E8C43"/>
<path d="M1370.39 1328.77C1327.86 1328.77 1293.39 1294.39 1293.39 1251.98C1293.39 1209.57 1327.86 1175.19 1370.39 1175.19C1412.92 1175.19 1447.39 1209.57 1447.39 1251.98C1447.39 1294.39 1412.92 1328.77 1370.39 1328.77Z" fill="#5E8C43"/>
<path d="M1261.92 917.376C1261.92 1006.92 1314.98 1084.09 1391.45 1119.33C1419.85 1132.43 1451.48 1139.73 1484.85 1139.73C1524.77 1139.73 1562.26 1129.28 1594.65 1110.93C1615.52 1099.15 1634.26 1084.09 1650.22 1066.47C1661.62 1053.94 1671.59 1040.08 1679.89 1025.17C1679.95 1025.08 1679.98 1024.98 1680.05 1024.89C1694.36 999.156 1703.67 970.265 1706.74 939.542C1707.43 932.248 1707.81 924.859 1707.81 917.376C1707.81 794.58 1607.98 695.056 1484.85 695.056C1361.71 695.056 1261.92 794.58 1261.92 917.376Z" fill="#5E8C43"/>
<path d="M1354.56 1016.4C1354.56 1055.46 1368.39 1091.33 1391.44 1119.34C1419.84 1132.44 1451.47 1139.73 1484.85 1139.73C1493.08 1139.73 1501.22 1139.29 1509.23 1138.41C1510.9 1138.25 1512.58 1138.03 1514.23 1137.81C1514.39 1137.81 1514.51 1137.78 1514.64 1137.75C1516.95 1137.46 1519.23 1137.11 1521.48 1136.73C1523.66 1136.39 1525.85 1136.01 1528.03 1135.57C1528.95 1135.38 1529.87 1135.19 1530.79 1135C1532.21 1134.71 1533.67 1134.4 1535.09 1134.08C1536.01 1133.86 1536.9 1133.64 1537.79 1133.42C1539.15 1133.1 1540.48 1132.76 1541.81 1132.41C1542.63 1132.19 1543.42 1132 1544.21 1131.75C1545.8 1131.34 1547.38 1130.89 1548.93 1130.42C1550.83 1129.85 1552.7 1129.25 1554.53 1128.65C1556.59 1127.99 1558.62 1127.29 1560.65 1126.54C1562.2 1126 1563.72 1125.43 1565.21 1124.83C1566.5 1124.36 1567.77 1123.85 1569.04 1123.32C1569.51 1123.13 1569.95 1122.97 1570.4 1122.75C1571.73 1122.21 1573.06 1121.64 1574.39 1121.04C1575.94 1120.38 1577.49 1119.68 1579.01 1118.96C1579.29 1118.83 1579.61 1118.71 1579.9 1118.55C1581.86 1117.63 1583.79 1116.68 1585.69 1115.71C1587.62 1114.73 1589.52 1113.75 1591.42 1112.71C1591.52 1112.64 1591.61 1112.61 1591.71 1112.55C1592.69 1112.04 1593.67 1111.51 1594.65 1110.94C1594.11 1113.53 1593.67 1116.15 1593.32 1118.8C1596.65 1130.45 1601.33 1141.53 1607.22 1151.86C1635.43 1133.26 1657.47 1106.11 1669.66 1074.12C1675.52 1058.78 1679.13 1042.29 1680.01 1025.15C1680.04 1025.05 1680.04 1024.96 1680.04 1024.9C1680.2 1022.09 1680.27 1019.24 1680.27 1016.4C1680.27 991.11 1674.47 967.176 1664.12 945.863C1663.23 944 1662.28 942.201 1661.33 940.401C1634.01 888.996 1579.8 853.979 1517.4 853.979C1427.47 853.979 1354.56 926.697 1354.56 1016.4Z" fill="#15313A"/>
<path d="M1315.77 1395.18C1283.67 1395.18 1257.64 1369.22 1257.64 1337.21C1257.64 1305.19 1283.67 1279.23 1315.77 1279.23C1347.88 1279.23 1373.9 1305.19 1373.9 1337.21C1373.9 1369.22 1347.88 1395.18 1315.77 1395.18Z" fill="#15313A"/>
<path d="M1270.34 1337.29C1245.24 1337.29 1224.9 1317.01 1224.9 1291.98C1224.9 1266.96 1245.24 1246.67 1270.34 1246.67C1295.43 1246.67 1315.77 1266.96 1315.77 1291.98C1315.77 1317.01 1295.43 1337.29 1270.34 1337.29Z" fill="#15313A"/>
<path d="M1391.32 1361.86L1388.63 1366.85L1382.96 1367.41L1386.89 1371.55L1385.68 1377.08L1390.81 1374.65L1395.72 1377.49L1394.99 1371.87L1399.24 1368.08L1393.63 1367.04L1391.32 1361.86Z" fill="#B5BC4D"/>
<path d="M1351.65 1337.2C1316.92 1337.2 1288.77 1309.13 1288.77 1274.49C1288.77 1239.86 1316.92 1211.79 1351.65 1211.79C1386.38 1211.79 1414.53 1239.86 1414.53 1274.49C1414.53 1309.13 1386.38 1337.2 1351.65 1337.2Z" fill="#15313A"/>
<path d="M1376.03 1240.87L1363.61 1251.64L1347.69 1247.5L1354.08 1262.62L1345.25 1276.42L1361.65 1275.03L1372.1 1287.69L1375.8 1271.72L1391.1 1265.72L1377.04 1257.26L1376.03 1240.87Z" fill="#B5BC4D"/>
<mask id="mask0_194_380" style="mask-type:alpha" maskUnits="userSpaceOnUse" x="204" y="395" width="1111" height="793">
<g clip-path="url(#clip4_194_380)">
<path d="M1314.05 1137.88H204.94V1187.32H1314.05V1137.88Z" fill="#FDF9DF"/>
<path d="M1293.54 1124H225.449L204.94 1137.88H1314.05L1293.54 1124Z" fill="#CDBD9A"/>
<path d="M1293.54 1075.75H225.449V1123.99H1293.54V1075.75Z" fill="#FDF9DF"/>
<path d="M1273.04 1062.21H245.958L225.449 1075.75H1293.54L1273.04 1062.21Z" fill="#CDBD9A"/>
<path d="M1273.04 1015.18H245.959V1062.21H1273.04V1015.18Z" fill="#FDF9DF"/>
<path d="M1252.53 1001.97H266.467L245.959 1015.18H1273.04L1252.53 1001.97Z" fill="#CDBD9A"/>
<path d="M1252.54 956.144H266.467V1001.97H1252.54V956.144Z" fill="#FDF9DF"/>
<path d="M1232.02 943.287H286.975L266.467 956.143H1252.53L1232.02 943.287Z" fill="#CDBD9A"/>
<path d="M1232.03 898.663H286.976V943.288H1232.03V898.663Z" fill="#FDF9DF"/>
<path d="M1211.52 886.137H307.473L286.976 898.662H1232.02L1211.52 886.137Z" fill="#CDBD9A"/>
<path d="M1211.51 842.718H307.474V886.138H1211.51V842.718Z" fill="#FDF9DF"/>
<path d="M1145.72 830.533H373.28L307.474 842.718H1211.52L1145.72 830.533Z" fill="#CDBD9A"/>
<path d="M1145.73 792.751H373.279V830.533H1145.73V792.751Z" fill="#FDF9DF"/>
<path d="M1127.36 782.146H391.635L373.279 792.75H1145.72L1127.36 782.146Z" fill="#CDBD9A"/>
<path d="M1127.37 745.455H391.638V782.157H1127.37V745.455Z" fill="#FDF9DF"/>
<path d="M1109.02 735.146H409.982L391.638 745.456H1127.36L1109.02 735.146Z" fill="#CDBD9A"/>
<path d="M1109.01 699.535H409.98V735.158H1109.01V699.535Z" fill="#FDF9DF"/>
<path d="M1090.66 689.531H428.337L409.98 699.534H1109.02L1090.66 689.531Z" fill="#CDBD9A"/>
<path d="M1090.65 654.99H428.338V689.533H1090.65V654.99Z" fill="#FDF9DF"/>
<path d="M1072.31 645.295H446.694L428.338 654.99H1090.66L1072.31 645.295Z" fill="#CDBD9A"/>
<path d="M1072.3 611.844H446.692V645.306H1072.3V611.844Z" fill="#FDF9DF"/>
<path d="M1053.95 602.442H465.049L446.692 611.842H1072.3L1053.95 602.442Z" fill="#CDBD9A"/>
<path d="M1053.95 570.072H465.051V602.455H1053.95V570.072Z" fill="#FDF9DF"/>
<path d="M1004.09 560.979H514.915L465.051 570.072H1053.95L1004.09 560.979Z" fill="#CDBD9A"/>
<path d="M1004.1 533.256H514.914V560.979H1004.1V533.256Z" fill="#FDF9DF"/>
<path d="M987.824 525.471H531.175L514.914 533.257H1004.08L987.824 525.471Z" fill="#CDBD9A"/>
<path d="M987.837 498.702H531.177V525.47H987.837V498.702Z" fill="#FDF9DF"/>
<path d="M971.564 491.178H547.438L531.177 498.702H987.825L971.564 491.178Z" fill="#CDBD9A"/>
<path d="M971.573 465.365H547.435V491.178H971.573V465.365Z" fill="#FDF9DF"/>
<path d="M955.312 458.125H563.684L547.435 465.365H971.561L955.312 458.125Z" fill="#CDBD9A"/>
<path d="M955.301 433.266H563.685V458.124H955.301V433.266Z" fill="#FDF9DF"/>
<path d="M939.051 426.287H579.945L563.685 433.266H955.312L939.051 426.287Z" fill="#CDBD9A"/>
<path d="M939.044 402.385H579.949V426.288H939.044V402.385Z" fill="#FDF9DF"/>
<path d="M934.58 395.678H584.424L579.949 402.384H939.055L934.58 395.678Z" fill="#CDBD9A"/>
</g>
</mask>
<g mask="url(#mask0_194_380)">
<g opacity="0.6" filter="url(#filter0_f_194_380)">
<circle cx="754.476" cy="483.079" r="274.264" fill="#FFF0A5"/>
</g>
</g>
<defs>
<filter id="filter0_f_194_380" x="279.286" y="7.88951" width="950.379" height="950.379" filterUnits="userSpaceOnUse" color-interpolation-filters="sRGB">
<feFlood flood-opacity="0" result="BackgroundImageFix"/>
<feBlend mode="normal" in="SourceGraphic" in2="BackgroundImageFix" result="shape"/>
<feGaussianBlur stdDeviation="100.463" result="effect1_foregroundBlur_194_380"/>
</filter>
<linearGradient id="paint0_linear_194_380" x1="760.505" y1="447.917" x2="760.505" y2="1691.65" gradientUnits="userSpaceOnUse">
<stop stop-color="#F0CBB8"/>
<stop offset="1" stop-color="#6AB9D9"/>
</linearGradient>
<clipPath id="clip0_194_380">
<rect width="1026.73" height="478.204" fill="white" transform="translate(802.408 0.0654297)"/>
</clipPath>
<clipPath id="clip1_194_380">
<rect width="1191.49" height="389.796" fill="white" transform="translate(-480.287 59)"/>
</clipPath>
<clipPath id="clip2_194_380">
<rect width="1109.11" height="791.648" fill="white" transform="translate(204.944 395.676)"/>
</clipPath>
<clipPath id="clip3_194_380">
<rect width="1685.77" height="827.815" fill="white" transform="translate(-705.25 863.833)"/>
</clipPath>
<clipPath id="clip4_194_380">
<rect width="1109.11" height="791.648" fill="white" transform="translate(204.943 395.677)"/>
</clipPath>
</defs>
</svg>
