<svg width="676" height="840" viewBox="0 0 676 840" fill="none" xmlns="http://www.w3.org/2000/svg">
<path fill-rule="evenodd" clip-rule="evenodd" d="M204.589 800.099C193.296 814.231 171.518 830.51 162.041 836.883C179.604 836.19 215.246 833.516 217.314 828.362C218.635 825.07 217.93 821.505 217.271 818.169C216.64 814.978 216.05 811.996 217.314 809.659C217.712 808.923 218.218 807.883 218.836 806.612C222.233 799.625 229.014 785.68 239.781 777.24C249.237 769.827 272.196 713.302 284.592 680.397C253.478 690.539 241.19 669.522 238.935 657.745C229.332 712.076 214.064 788.244 204.589 800.099Z" fill="#F1C3A8"/>
<path d="M292.668 657.745C295.054 649.267 261.055 635.371 243.757 629.482C242.413 637.693 240.778 647.317 238.935 657.745C241.19 669.522 253.478 690.539 284.592 680.397C288.878 669.021 291.902 660.468 292.668 657.745Z" fill="#CB7E73"/>
<path fill-rule="evenodd" clip-rule="evenodd" d="M504.813 815.893C507.091 825.869 505.115 828.362 506.801 828.362C508.465 828.362 511.381 829.308 515.478 830.637C521.173 832.483 529.149 835.07 539.209 836.883C544.026 837.751 547.055 838.392 548.865 838.86C549.07 839.077 549.272 839.289 549.469 839.498C549.631 839.668 549.79 839.836 549.946 840C551.372 840 552.257 839.735 548.865 838.86C538.932 828.346 520.525 808.089 518.532 802.801C516.79 798.181 494.526 713.251 478.437 651.511C470.698 680.273 446.283 676.795 435.043 671.461C453.923 713.243 484.866 769.537 493.679 785.137C501.075 798.229 502.534 805.918 504.813 815.893Z" fill="#F1C3A8"/>
<path d="M470.217 619.923L428.862 657.745C430.716 661.872 432.796 666.487 435.043 671.461C446.283 676.795 470.698 680.273 478.437 651.511C475.422 639.94 472.623 629.184 470.217 619.923Z" fill="#CB7E73"/>
<path d="M385.121 133.426C370.647 128.106 340.783 131.209 327.661 133.426C321.928 135.621 313.209 139.114 304.2 143.005C318.073 173.006 357.841 215.007 405.93 143.005C398.852 139.295 391.42 135.741 385.121 133.426Z" fill="#CB7E73"/>
<path fill-rule="evenodd" clip-rule="evenodd" d="M304.2 143.005C318.073 173.006 357.841 215.007 405.93 143.005C415.117 147.819 423.711 152.896 428.465 155.87C411.034 235.741 371.283 397.809 351.719 407.119C327.263 418.757 287.3 396.521 286.306 379.896C286.151 377.307 285.707 374.414 285.063 371.367C284.515 368.776 283.822 366.072 283.038 363.35C282.49 361.449 281.899 359.539 281.281 357.651C278.477 349.086 275.139 340.976 272.985 336.254C271.328 335.215 266.98 331.973 262.845 327.318C260.123 324.255 258.338 317.044 256.968 311.508C255.736 306.53 255.833 301.867 254.892 303.835L244.155 258.739C241.094 288.142 234.017 348 229.377 360.752C229.199 361.178 229.022 361.602 228.846 362.023C226.563 367.501 224.559 372.457 223.08 376.363C215.525 396.313 193.654 386.753 190.672 376.363C188.411 368.486 189.235 348.904 190.026 330.113C190.278 324.117 190.527 318.201 190.672 312.771C191.09 297.035 190.433 295.703 186.919 288.577C185.422 285.54 183.405 281.449 180.73 274.741C173.012 255.377 174.468 240.345 176.034 224.173C176.284 221.6 176.536 218.997 176.754 216.344C178.345 197.017 220.495 184.133 236.003 180.392C247.2 177.692 253.94 172.608 262.285 166.314C265.498 163.89 268.949 161.287 272.985 158.572C279.624 154.104 292.17 148.2 304.2 143.005Z" fill="#F1C3A8"/>
<path d="M254.892 303.835L244.155 258.739C241.094 288.142 234.017 348 229.377 360.752C238.747 338.357 253.322 307.115 254.892 303.835Z" fill="#CB7E73"/>
<path fill-rule="evenodd" clip-rule="evenodd" d="M455.505 176.859C464.849 180.808 484.93 190.617 490.497 198.264C490.927 198.854 491.449 199.545 492.045 200.334C501.117 212.337 527.494 247.238 509.585 299.886C506.212 301.784 502.43 303.07 498.45 303.881C494.784 304.628 490.951 304.972 487.117 305.021C485.389 305.043 483.661 305.005 481.948 304.917C480.678 304.852 479.417 304.76 478.17 304.644C469.012 303.792 460.636 301.674 455.505 299.886V176.859ZM455.505 320.46V329.604C455.505 333.772 458.081 343.324 460.691 353.006C463.158 362.153 465.656 371.416 466.042 376.363C466.837 386.546 498.848 389.871 504.813 376.363C510.777 362.855 507 336.254 504.813 321.499C500.365 324.598 494.431 325.921 488.112 326.156C484.85 326.278 481.486 326.109 478.17 325.746C476.563 325.57 474.966 325.348 473.399 325.091C472.459 324.937 471.53 324.771 470.615 324.594C464.633 323.438 459.25 321.843 455.505 320.46Z" fill="#F1C3A8"/>
<path d="M488.112 326.156L498.45 303.881C494.784 304.628 490.951 304.972 487.117 305.021L478.17 325.746C481.486 326.109 484.85 326.278 488.112 326.156Z" fill="#F4DE85"/>
<path fill-rule="evenodd" clip-rule="evenodd" d="M504.813 321.499C503.37 311.763 505.93 306.919 508.211 302.605C508.695 301.689 509.167 300.797 509.585 299.886C506.212 301.784 502.43 303.07 498.45 303.881L488.112 326.156C494.431 325.921 500.365 324.598 504.813 321.499ZM481.948 304.917C483.661 305.005 485.389 305.043 487.117 305.021L478.17 325.746C476.563 325.57 474.966 325.348 473.399 325.091L481.948 304.917ZM478.17 304.644C469.012 303.792 460.636 301.674 455.505 299.886V320.46C459.25 321.843 464.633 323.438 470.615 324.594L478.17 304.644Z" fill="#E19059"/>
<path d="M473.399 325.091L481.948 304.917C480.678 304.852 479.417 304.76 478.17 304.644L470.615 324.594C471.53 324.771 472.459 324.937 473.399 325.091Z" fill="#F4DE85"/>
<path d="M285.063 371.367C284.515 368.776 283.822 366.072 283.038 363.35L281.281 357.651C278.316 359.314 271.314 362.473 267.02 361.808C262.725 361.143 271.328 367.904 276.166 371.367H285.063Z" fill="#686349"/>
<path d="M349.929 231.515C342.978 231.86 339.59 233.8 324.877 229.229C334.222 234.216 345.538 278.313 349.531 303.627C347.955 286.078 362.654 234.424 371.998 229.229C358.478 234.424 358.28 231.099 349.929 231.515Z" fill="#E9A196"/>
<path d="M245.696 256.376C245.424 255.305 244.335 254.658 243.265 254.93C242.194 255.202 241.547 256.29 241.819 257.361L245.696 256.376ZM257.277 313.602L255.291 313.839L257.277 313.602ZM309.687 342.614C310.79 342.548 311.63 341.601 311.564 340.499C311.498 339.396 310.551 338.556 309.449 338.621L309.687 342.614ZM307.381 182.262L308.406 183.979L307.381 182.262ZM208.901 276.364C208.076 275.629 206.812 275.703 206.078 276.527C205.343 277.352 205.416 278.617 206.241 279.351L208.901 276.364ZM198.7 344.508C197.979 345.344 198.072 346.607 198.909 347.328C199.746 348.049 201.009 347.956 201.73 347.119L198.7 344.508ZM231.437 291.206C231.923 290.214 231.512 289.016 230.52 288.53C229.528 288.044 228.33 288.455 227.844 289.447L231.437 291.206ZM216.314 340.77C216.397 341.871 217.358 342.696 218.46 342.612C219.561 342.528 220.386 341.567 220.302 340.466L216.314 340.77ZM324.877 229.229L325.471 227.319C324.486 227.013 323.429 227.506 323.032 228.457C322.634 229.409 323.026 230.507 323.935 230.993L324.877 229.229ZM349.929 231.515L349.83 229.517L349.929 231.515ZM371.998 229.229L372.97 230.977C373.888 230.466 374.255 229.333 373.81 228.382C373.366 227.43 372.261 226.985 371.281 227.362L371.998 229.229ZM349.929 306.952L347.981 307.403L351.907 306.653L349.929 306.952ZM241.819 257.361C243.938 265.703 247.157 278.549 249.925 289.971C252.715 301.484 254.991 311.332 255.291 313.839L259.263 313.364C258.927 310.552 256.564 300.38 253.813 289.029C251.04 277.588 247.818 264.727 245.696 256.376L241.819 257.361ZM255.291 313.839C255.74 317.588 258 322.924 261.017 327.575C262.545 329.93 264.316 332.186 266.233 334.037C268.136 335.873 270.277 337.401 272.556 338.153L273.81 334.355C272.312 333.86 270.675 332.764 269.011 331.158C267.362 329.567 265.778 327.563 264.373 325.398C261.525 321.009 259.61 316.266 259.263 313.364L255.291 313.839ZM272.556 338.153C276.553 339.472 284.099 340.684 291.372 341.514C298.658 342.346 306.018 342.833 309.687 342.614L309.449 338.621C306.159 338.818 299.104 338.371 291.826 337.54C284.536 336.708 277.369 335.529 273.81 334.355L272.556 338.153ZM219.41 187.256C221.602 185.809 228.762 182.6 238.389 182.6V178.6C227.975 178.6 220.05 182.041 217.206 183.918L219.41 187.256ZM238.389 182.6C244.475 182.6 249.791 183.456 255.112 184.265C260.399 185.07 265.707 185.831 271.505 185.506L271.282 181.512C265.946 181.811 261.015 181.117 255.714 180.311C250.448 179.51 244.829 178.6 238.389 178.6V182.6ZM271.505 185.506C277.003 185.198 285.203 185.301 292.526 185.275C296.156 185.262 299.569 185.217 302.26 185.068C303.603 184.993 304.806 184.891 305.785 184.746C306.661 184.616 307.679 184.414 308.406 183.979L306.355 180.545C306.387 180.526 306.106 180.655 305.199 180.789C304.395 180.908 303.33 181.002 302.038 181.074C299.46 181.217 296.138 181.262 292.512 181.275C285.32 181.301 276.919 181.197 271.282 181.512L271.505 185.506ZM308.406 183.979C308.359 184.007 308.66 183.862 309.663 183.974C310.554 184.074 311.669 184.337 312.897 184.714C315.346 185.466 317.973 186.587 319.634 187.389L321.372 183.786C319.587 182.925 316.767 181.718 314.072 180.891C312.729 180.478 311.349 180.138 310.109 179.999C308.981 179.873 307.516 179.852 306.355 180.545L308.406 183.979ZM206.241 279.351C208.738 281.574 210.189 283.583 211.07 286.187C211.979 288.877 212.331 292.346 212.331 297.6H216.331C216.331 292.256 215.987 288.243 214.859 284.906C213.702 281.484 211.773 278.92 208.901 276.364L206.241 279.351ZM212.331 297.6C212.331 312.48 210.623 322.188 208.102 329.149C205.595 336.069 202.243 340.396 198.7 344.508L201.73 347.119C205.41 342.848 209.117 338.091 211.862 330.511C214.594 322.971 216.331 312.763 216.331 297.6H212.331ZM227.844 289.447C225.601 294.029 222.365 302.025 219.867 311.256C217.372 320.471 215.573 331.057 216.314 340.77L220.302 340.466C219.611 331.392 221.291 321.301 223.728 312.301C226.16 303.316 229.306 295.56 231.437 291.206L227.844 289.447ZM393.249 189.511C396.019 188.352 400.574 186.608 405.19 185.157C409.885 183.682 414.372 182.6 417.131 182.6V178.6C413.687 178.6 408.664 179.873 403.991 181.341C399.239 182.835 394.569 184.623 391.706 185.82L393.249 189.511ZM417.131 182.6C422.971 182.6 427.776 184.441 429.301 185.267L431.207 181.751C429.153 180.637 423.698 178.6 417.131 178.6V182.6ZM324.284 231.138C331.758 233.461 336.482 234.169 340.29 234.216C342.183 234.239 343.809 234.097 345.359 233.935C346.925 233.772 348.361 233.595 350.028 233.512L349.83 229.517C348.021 229.607 346.427 229.802 344.944 229.957C343.444 230.113 341.999 230.236 340.338 230.216C337.035 230.176 332.709 229.568 325.471 227.319L324.284 231.138ZM350.028 233.512C351.969 233.415 353.427 233.535 354.756 233.698C356.038 233.855 357.44 234.092 358.932 234.162C362.1 234.31 365.823 233.744 372.716 231.095L371.281 227.362C364.654 229.908 361.517 230.278 359.118 230.166C357.826 230.106 356.768 229.914 355.242 229.727C353.762 229.546 352.064 229.406 349.83 229.517L350.028 233.512ZM323.935 230.993C324.69 231.396 325.67 232.325 326.817 233.965C327.938 235.568 329.106 237.686 330.297 240.242C332.678 245.352 335.062 252.023 337.297 259.386C341.766 274.105 345.573 291.368 347.556 303.938L351.507 303.315C349.497 290.572 345.65 273.129 341.125 258.225C338.864 250.776 336.417 243.905 333.923 238.553C332.677 235.879 331.397 233.535 330.095 231.673C328.819 229.848 327.401 228.308 325.819 227.464L323.935 230.993ZM351.523 303.448C351.154 299.335 351.737 293.031 353.032 285.676C354.32 278.368 356.283 270.177 358.588 262.361C360.894 254.539 363.528 247.142 366.144 241.407C367.453 238.537 368.738 236.129 369.951 234.305C371.202 232.424 372.236 231.385 372.97 230.977L371.027 227.481C369.425 228.371 367.955 230.082 366.62 232.089C365.247 234.154 363.863 236.77 362.504 239.747C359.785 245.708 357.091 253.295 354.751 261.23C352.41 269.17 350.41 277.508 349.093 284.982C347.784 292.411 347.121 299.144 347.539 303.806L351.523 303.448ZM351.907 306.653C351.854 306.307 351.794 305.742 351.724 305.093C351.658 304.485 351.583 303.798 351.507 303.315L347.556 303.938C347.613 304.303 347.677 304.88 347.747 305.523C347.812 306.125 347.883 306.799 347.951 307.25L351.907 306.653ZM347.539 303.806C347.61 304.596 347.765 306.471 347.981 307.403L351.877 306.5C351.742 305.915 351.611 304.428 351.523 303.448L347.539 303.806Z" fill="#E9A196"/>
<path fill-rule="evenodd" clip-rule="evenodd" d="M253.301 174.365C256.681 170.833 282.528 155.246 290.283 150.259C296.486 146.269 314.075 139.868 322.094 137.166L328.457 127.815L324.878 103.916L318.317 53.4166C319.112 61.175 319.152 78.6039 312.948 86.2515C309.692 90.2661 305.489 91.4586 301.576 92.5686C296.171 94.1018 291.321 95.478 290.283 103.916C289.444 110.735 287.644 113.262 286.05 115.499C284.244 118.034 282.702 120.197 283.125 127.815C283.305 131.059 283.658 133.984 283.97 136.568C285.036 145.406 285.622 150.259 277.16 150.259C268.412 150.259 270.732 141.531 272.985 137.166C269.671 140.142 264.038 147.592 268.014 153.584C271.991 159.576 262.646 162.315 257.477 162.936C254.561 163.307 248.331 165.49 246.74 171.248C245.188 176.866 236.505 180.722 232.05 182.053C240.469 179.608 250.334 177.467 253.301 174.365ZM302.013 95.811C299.296 95.811 294.06 96.8917 294.856 101.214C295.651 105.537 299.959 99.4132 302.013 95.811Z" fill="#A47250"/>
<path fill-rule="evenodd" clip-rule="evenodd" d="M336.211 4.78762C340.664 6.9489 346.682 5.68815 349.134 4.78762C350.526 4.78762 353.827 4.37199 355.894 2.70947C358.479 0.631324 393.472 -4.56409 405.799 12.4768C411.577 20.4648 410.278 29.2748 409.029 37.7509C407.612 47.3568 406.259 56.5339 415.343 63.5995C429.022 74.2397 440.129 68.033 443.973 63.5995C443.814 76.2347 434.628 79.8092 430.056 80.017C440.461 82.0952 462.305 88.1634 466.44 95.811C471.565 105.288 463.402 112.11 461.323 113.847L461.271 113.891C459.283 115.554 453.716 124.905 466.44 124.905C476.62 124.905 481.551 116.454 482.744 112.228C482.412 113.475 481.312 117.756 479.563 124.905C477.813 132.054 466.639 134.118 461.271 134.257C466.507 136.889 477.097 143.442 477.574 148.596C478.088 154.142 472.117 160.767 468.163 165.154C467.524 165.863 466.938 166.514 466.44 167.092C462.861 171.248 468.23 177.483 479.563 183.094C488.629 187.583 488.775 195.078 487.714 198.264L463.657 185.938C462.879 182.08 459.802 173.493 453.716 170.001C447.653 166.524 449.232 160.671 450.829 154.756C451.235 153.248 451.643 151.736 451.926 150.259C453.318 142.985 441.19 136.568 435.026 140.076C428.863 143.584 418.325 127.815 426.874 119.463C433.714 112.781 435.159 106.314 435.026 103.916C433.369 107.226 427.709 113.523 418.325 112.228C409.591 111.023 410.005 109.078 411.525 101.936C412.047 99.4856 412.698 96.4231 413.156 92.5686C414.341 82.5721 410.115 81.1332 404.064 79.0725C400.981 78.023 397.426 76.8122 393.87 74.2274C385.44 68.0994 382.404 56.5533 381.94 51.5462L372.596 133.472L324.878 103.916L318.317 53.4166C319.112 61.175 319.152 78.6039 312.948 86.2515C309.692 90.2661 305.489 91.4586 301.576 92.5686C296.171 94.1018 291.321 95.478 290.283 103.916C289.444 110.735 287.644 113.262 286.05 115.499C284.244 118.034 282.702 120.197 283.125 127.815C283.305 131.059 283.658 133.984 283.97 136.568C285.036 145.406 285.622 150.259 277.16 150.259C268.412 150.259 270.732 141.531 272.985 137.166C269.671 140.142 264.038 147.592 268.014 153.584C271.991 159.576 262.646 162.315 257.477 162.936C254.561 163.307 248.331 165.49 246.74 171.248C245.188 176.866 236.505 180.722 232.05 182.053C231.939 182.087 231.83 182.118 231.724 182.148C230.668 182.458 229.637 182.772 228.647 183.094C219.7 186.003 215.724 184.964 212.94 180.184C210.713 176.36 201.143 169.863 196.637 167.092C208.937 171.974 225.139 167.808 236.553 164.873C239.715 164.06 242.509 163.341 244.752 162.936C255.091 161.065 261.652 148.596 259.067 142.154C258.001 139.495 253.209 142.146 247.85 145.11C240.225 149.328 231.453 154.181 230.636 145.271C229.502 132.914 233.645 127.727 236.188 124.543C236.767 123.818 237.263 123.197 237.594 122.619C238.167 121.622 241.101 120.561 244.136 119.463C250.586 117.129 257.493 114.631 243.161 112.228C226.301 109.402 223.147 98.1663 223.677 92.9016C223.806 97.6156 227.275 98.7507 232.082 100.324C234.692 101.178 237.697 102.161 240.776 103.916C246.279 107.053 251.389 103.036 256.65 98.8996C259.752 96.4608 262.906 93.9807 266.225 92.9016C275.172 89.9922 272.786 87.2906 266.225 80.017C263.575 77.0793 261.022 75.6332 258.541 74.2274C254.878 72.1525 251.37 70.1653 247.933 63.5995C242.167 52.5853 255.488 43.2336 266.225 39.0773C273.214 36.3718 282.73 38.1571 290.825 39.6758C295.166 40.4902 299.098 41.228 302.013 41.1554C309.62 40.9661 306.338 36.1208 302.988 31.1749L302.987 31.174C302.66 30.6907 302.332 30.2065 302.013 29.7255C299.213 25.4984 302.011 21.78 307.646 14.2915C309.214 12.2081 311.001 9.83282 312.948 7.07359C320.687 -3.89129 328.277 0.380692 333.789 3.48271C334.649 3.96701 335.459 4.42279 336.211 4.78762ZM302.013 95.811C299.296 95.811 294.06 96.8917 294.856 101.214C295.651 105.537 299.959 99.4132 302.013 95.811Z" fill="#EBAA7F"/>
<path d="M372.596 133.472L426.874 167.092L463.657 185.938C462.879 182.08 459.802 173.493 453.716 170.001C447.653 166.524 449.232 160.671 450.829 154.756C451.235 153.248 451.643 151.736 451.926 150.259C453.318 142.985 441.19 136.568 435.026 140.076C428.863 143.584 418.325 127.815 426.874 119.463C433.714 112.781 435.159 106.314 435.026 103.916C433.369 107.226 427.709 113.523 418.325 112.228C409.591 111.023 410.005 109.078 411.525 101.936C412.047 99.4856 412.698 96.4231 413.156 92.5686C414.341 82.5721 410.115 81.1332 404.064 79.0725C400.981 78.023 397.426 76.8122 393.87 74.2274C385.44 68.0994 382.404 56.5533 381.94 51.5462L372.596 133.472Z" fill="#A47250"/>
<path d="M408.98 38.6614C411.631 37.2067 417.251 32.7178 418.524 26.4002C420.114 18.5032 440.991 22.8674 428.465 31.5956C418.444 38.5783 411.3 39.2156 408.98 38.6614C405.401 32.3576 399.795 19.4176 405.998 18.0876C412.201 16.7576 410.571 31.2493 408.98 38.6614Z" fill="#597C62"/>
<path d="M415.788 22.5375C417.66 20.4358 421.244 14.6338 420.606 8.24009C419.808 0.247967 438.877 -1.14364 430.539 10.5646C423.868 19.9312 417.925 22.4493 415.788 22.5375C410.999 17.4523 402.659 6.54919 407.607 3.6185C412.555 0.687818 415.122 15.0101 415.788 22.5375Z" fill="#597C62"/>
<path d="M298.656 38.7144C296.471 37.2523 291.84 32.7407 290.792 26.3911C289.481 18.4541 272.278 22.8404 282.6 31.6129C290.857 38.6308 296.744 39.2714 298.656 38.7144C301.605 32.3787 306.225 19.3731 301.113 18.0364C296.002 16.6996 297.345 31.2647 298.656 38.7144Z" fill="#597C62"/>
<path d="M293.046 22.5089C291.504 20.3965 288.55 14.5651 289.076 8.13902C289.733 0.106415 274.02 -1.29224 280.891 10.4753C286.387 19.8893 291.285 22.4202 293.046 22.5089C296.992 17.3979 303.864 6.43955 299.787 3.49402C295.71 0.548494 293.594 14.9433 293.046 22.5089Z" fill="#597C62"/>
<path d="M283.721 481.726C277.624 518.925 266.344 596.44 270.002 608.909C274.575 624.495 283.721 639.666 291.873 642.16C298.394 644.155 289.156 536.035 283.721 481.726Z" fill="#325263"/>
<path d="M343.17 496.481C341.712 539.36 336.608 628.527 327.86 642.16C316.925 659.2 348.14 663.565 365.637 660.863C379.634 658.702 379.157 612.026 377.168 588.959C376.572 582.101 377.566 569.756 386.314 575.243C396.371 581.549 395.834 618.613 395.682 629.056L395.682 629.059C395.669 629.97 395.659 630.678 395.659 631.145C395.659 636.964 424.886 640.081 428.862 624.495C432.839 608.909 410.77 530.355 401.624 511.443C392.478 492.532 368.221 458.866 343.17 496.481Z" fill="#325263"/>
<path fill-rule="evenodd" clip-rule="evenodd" d="M274.575 455.333C262.315 502.854 237.674 602.01 237.197 618.469C236.618 638.415 276.782 658.948 289.196 665.295L289.226 665.31L289.235 665.314C289.61 665.506 289.96 665.685 290.282 665.851C296.482 669.032 309.329 669.474 321.829 669.905C331.376 670.233 340.722 670.555 346.748 672.085C360.666 675.618 397.448 678.32 411.366 672.085C420.801 667.859 431.149 660.385 440.615 653.549C445.113 650.301 449.411 647.197 453.318 644.653C463.02 638.336 475.52 628.582 480.557 624.495C467.235 571.364 438.247 463.147 428.862 455.333C419.478 447.519 322.094 452.077 274.575 455.333ZM270.002 608.909C266.344 596.44 277.624 518.925 283.721 481.726C289.156 536.035 298.394 644.155 291.873 642.16C283.721 639.666 274.575 624.495 270.002 608.909ZM343.17 496.481C341.712 539.36 336.608 628.527 327.86 642.16C316.925 659.2 348.14 663.565 365.637 660.863C379.634 658.702 379.157 612.026 377.168 588.959C376.572 582.101 377.566 569.756 386.314 575.243C396.371 581.549 395.834 618.613 395.682 629.056L395.682 629.059C395.669 629.97 395.659 630.678 395.659 631.145C395.659 636.964 424.886 640.081 428.862 624.495C432.839 608.909 410.77 530.355 401.624 511.443C392.478 492.532 368.221 458.866 343.17 496.481ZM443.178 588.959C444.45 576.157 426.609 524.605 417.53 500.429C427.537 511.097 448.705 537.794 453.318 559.241C459.084 586.049 441.587 604.96 443.178 588.959Z" fill="#536E7C"/>
<path d="M417.53 500.429C426.609 524.605 444.45 576.157 443.178 588.959C441.587 604.96 459.084 586.049 453.318 559.241C448.705 537.794 427.537 511.097 417.53 500.429Z" fill="#325263"/>
<path d="M408.98 394.65L272.985 406.496C286.041 421.043 320.026 448.392 351.52 441.409C383.014 434.426 402.949 407.327 408.98 394.65Z" fill="#B0AB93"/>
<path d="M296.247 452.839C319.112 468.287 371.72 489.913 399.238 452.839C433.634 406.496 381.741 518.509 366.631 529.107C351.52 539.706 309.568 509.573 308.574 499.39C308.078 494.31 317.129 496.418 327.141 498.749C337.201 501.092 348.231 503.66 351.52 499.39C354.758 495.185 341.729 489.108 326.934 482.208C311.746 475.125 294.698 467.174 291.475 459.489C286.385 447.353 292.536 449.999 296.247 452.839Z" fill="#B0AB93"/>
<path fill-rule="evenodd" clip-rule="evenodd" d="M260.856 427.901C279.612 491.562 323.009 621.17 346.549 630.314C375.975 641.744 438.804 479.647 439.599 475.491C440.235 472.166 419.451 420.212 408.98 394.65C402.949 407.327 383.014 434.426 351.52 441.409C320.026 448.392 286.041 421.043 272.985 406.496L260.856 427.901ZM296.247 452.839C319.112 468.287 371.72 489.913 399.238 452.839C433.634 406.496 381.741 518.509 366.631 529.107C351.52 539.706 309.568 509.573 308.574 499.39C308.078 494.31 317.129 496.418 327.141 498.749C337.201 501.092 348.231 503.66 351.52 499.39C354.758 495.185 341.729 489.108 326.934 482.208C311.746 475.125 294.698 467.174 291.475 459.489C286.385 447.353 292.536 449.999 296.247 452.839ZM351.52 577.944C376.015 578.443 394.996 519.548 401.425 490.038C402.883 485.189 405.799 476.834 405.799 482.208C405.799 488.925 399.238 536.589 392.478 558.202C386.023 578.839 373.192 592.907 351.52 587.088C334.183 582.433 344.296 579.052 351.52 577.944Z" fill="#EFE8DF"/>
<path d="M401.425 490.038C394.996 519.548 376.015 578.443 351.52 577.944C344.296 579.052 334.183 582.433 351.52 587.088C373.192 592.907 386.023 578.839 392.478 558.202C399.238 536.589 405.799 488.925 405.799 482.208C405.799 476.834 402.883 485.189 401.425 490.038Z" fill="#B0AB93"/>
<path d="M317.72 53.0008C318.78 65.9546 320.742 92.943 320.106 97.2656C319.31 102.669 335.415 118.047 338.199 125.529C340.425 131.514 346.266 132.151 350.11 131.597C353.995 131.977 362.263 131.22 364.256 125.151C366.748 117.564 382.302 101.504 381.282 96.1509C380.467 91.8685 381.336 64.8649 381.872 51.8983L348.14 29.5176L317.72 53.0008Z" fill="#F1C3A8"/>
<path d="M344.163 92.2781C347.981 89.4518 349.929 90.3042 350.526 91.1354V92.9015C350.128 93.4557 349.372 94.8966 348.736 97.0579C347.941 99.7595 345.356 101.214 342.97 104.747C340.584 108.28 340.187 107.033 338.994 110.982C337.801 114.93 345.754 119.086 347.941 114.93C349.69 111.605 350.327 113.129 350.923 114.307V131.374V161.481C351.241 165.305 341.645 167.785 338.596 168.962C340.982 167.3 338.795 164.182 333.029 159.61C327.263 155.039 316.924 149.843 314.34 141.738C311.755 133.633 316.726 137.374 322.293 133.01C327.86 128.646 322.293 123.658 319.708 119.086C317.123 114.514 320.702 113.268 322.293 107.449C323.883 101.63 327.263 102.669 335.017 100.799C342.771 98.9282 339.391 95.811 344.163 92.2781Z" fill="#EBAA7F"/>
<path d="M356.875 92.1841C352.936 89.5321 351.089 90.2784 350.526 91.1354V92.9015C350.946 93.4372 351.765 95.0328 352.49 97.163C353.397 99.8258 356.045 101.163 358.579 104.585C361.113 108.007 361.46 106.743 362.816 110.634C364.172 114.524 356.378 119.032 354.018 114.978C352.13 111.736 351.472 113.104 350.923 114.307V131.374V161.481C350.761 165.314 362.484 167.489 365.585 168.528C363.128 166.975 365.191 163.763 370.778 158.938C376.366 154.113 386.507 148.461 388.764 140.25C391.021 132.039 386.196 135.998 380.443 131.888C374.689 127.779 380.06 122.548 382.462 117.865C384.863 113.183 381.228 112.098 379.397 106.357C377.567 100.616 374.224 101.806 366.382 100.285C358.54 98.764 361.798 95.4991 356.875 92.1841Z" fill="#EBAA7F"/>
<path d="M345.953 68.3798C346.218 68.4491 346.589 69.0032 345.953 70.6658C345.157 72.7439 343.169 76.2768 343.965 79.8097C344.601 82.636 345.025 84.1738 345.157 84.5894C344.76 85.2129 343.965 86.626 343.965 87.291C343.965 88.1223 344.959 88.9536 345.953 88.9536C346.947 88.9536 346.947 87.7067 347.543 87.9145C348.021 88.0807 349.863 88.9536 350.725 89.3692C351.545 88.9149 352.964 88.3404 353.421 88.1529C353.993 87.9185 354.044 89.169 355.011 89.1258C355.978 89.0825 356.911 88.2056 356.876 87.372C356.849 86.705 356.018 85.3224 355.605 84.7144C355.717 84.2918 356.067 82.7311 356.569 79.869C357.198 76.2913 355.119 72.8347 354.26 70.7851C353.573 69.1454 353.911 68.5735 354.166 68.4925C352.524 66.2274 351.122 66.0938 350.387 66.0938C349.512 66.0938 347.543 66.0522 345.953 68.3798Z" fill="url(#paint0_linear_5153_12743)"/>
<path fill-rule="evenodd" clip-rule="evenodd" d="M320.702 60.4825C322.491 59.9283 326.666 59.0278 329.052 59.859C330.332 60.305 331.686 61.4401 333.096 62.6235C334.973 64.1972 336.951 65.8562 338.993 66.0935C342.572 66.5091 346.151 66.3013 345.753 63.3919C345.652 62.6481 345.299 61.8659 344.801 61.1059C344.994 62.1035 344.588 63.0455 344.362 63.3919C344.68 62.5606 343.831 60.344 343.367 59.3397C341.974 57.9001 340.319 56.7764 339.391 56.534C337.8 56.1184 330.842 54.8714 325.473 56.534C321.179 57.864 320.503 59.7205 320.702 60.4825Z" fill="#EBAA7F"/>
<path fill-rule="evenodd" clip-rule="evenodd" d="M378.959 59.2628C377.152 58.7761 372.953 58.0418 370.61 58.9978C369.353 59.5107 368.051 60.7313 366.695 62.0038C364.891 63.696 362.989 65.48 360.963 65.8135C357.413 66.3979 353.838 66.345 354.112 63.3534C354.183 62.5886 354.501 61.7733 354.966 60.9743C354.815 62.0026 355.259 62.9474 355.499 63.2913C355.148 62.4558 355.9 60.1523 356.321 59.105C357.649 57.5715 359.252 56.3491 360.166 56.0599C361.734 55.5642 368.618 53.9795 374.038 55.4395C378.374 56.6076 379.125 58.4751 378.959 59.2628Z" fill="#EBAA7F"/>
<path fill-rule="evenodd" clip-rule="evenodd" d="M334.619 68.1717C332.551 68.0054 327.263 70.7348 324.877 72.1202C326.123 73.1948 327.395 74.0053 328.655 74.6034C331.04 71.5371 336.409 67.4475 338.795 75.6202C339.678 75.3938 340.421 75.1075 340.982 74.8218C339.789 72.1202 337.204 68.3795 334.619 68.1717Z" fill="#D9D9D9"/>
<path d="M338.795 75.6202C336.234 76.2765 332.5 76.4292 328.655 74.6034C331.04 71.5371 336.409 67.4475 338.795 75.6202Z" fill="#4D88A8"/>
<path fill-rule="evenodd" clip-rule="evenodd" d="M365.473 67.4502C367.557 67.182 373.023 69.8094 375.496 71.1565C374.282 72.3416 373.03 73.2503 371.782 73.9355C369.237 70.8229 363.632 66.7705 361.57 75.4621C360.667 75.2643 359.903 74.9972 359.324 74.7225C360.414 71.8311 362.867 67.7854 365.473 67.4502Z" fill="#D9D9D9"/>
<path d="M361.57 75.4621C364.188 76.0356 367.971 76.027 371.782 73.9355C369.237 70.8229 363.632 66.7705 361.57 75.4621Z" fill="#4D88A8"/>
<path d="M324.082 72.3283C326.468 71.2892 330.922 68.3382 334.421 68.1719C337.92 68.0057 339.789 72.7439 340.982 75.0299M376.296 71.2467C373.841 70.2857 369.214 67.4513 365.67 67.4385C362.126 67.4257 360.436 72.3844 359.327 74.7899" stroke="#E89F94" stroke-width="3" stroke-linecap="round"/>
<path d="M347.742 104.955H351.321L353.8 105.063C354.407 105.329 355.663 105.581 356.814 105.768C355.847 104.813 353.587 102.612 352.315 102.669L351.321 102.669H349.134C347.862 102.669 345.688 104.787 344.76 105.846C345.902 105.593 347.147 105.266 347.742 104.955Z" fill="#E9A196"/>
<path d="M342.374 106.202C344.031 105.994 346.947 105.371 347.742 104.955C348.604 105.094 349.333 105.15 350.222 105.15C351.122 105.163 353.141 105.158 353.996 104.981C354.807 105.361 357.746 105.853 359.41 105.987" stroke="#AE5143" stroke-linecap="round"/>
<ellipse cx="5.38326" cy="10.3641" rx="5.38326" ry="10.3641" transform="matrix(0.966521 -0.256588 0.236127 0.971722 319.311 81.5322)" fill="#E9A196"/>
<ellipse cx="5.39546" cy="10.3492" rx="5.39546" ry="10.3492" transform="matrix(-0.947577 -0.319527 -0.294924 0.955521 381.768 82.2178)" fill="#E9A196"/>
<ellipse cx="8.37188" cy="2.90261" rx="8.37188" ry="2.90261" transform="matrix(0.969533 -0.244959 0.225318 0.974285 280.717 329.866)" fill="#E9A196"/>
<path d="M276.962 369.089C359.513 367.759 403.612 220.015 415.343 146.31C437.134 140.159 441.786 155.107 441.389 163.351C445.1 164.944 453.437 169.461 457.096 174.781C461.669 181.431 478.966 236.71 472.405 290.534C465.844 344.358 411.366 397.559 394.665 411.067C377.964 424.575 283.324 424.575 267.816 403.586C264.771 399.466 263.277 395.561 262.877 391.948C261.645 380.839 270.76 372.486 276.962 369.089Z" fill="#EFE8DF"/>
<path d="M460.475 284.923C457.228 300.925 441.07 340.701 402.419 371.79C383.087 387.34 359.468 394.769 337.801 397.739C360.069 392.931 377.168 374.492 422.699 306.744C459.123 252.546 463.06 269.614 460.475 284.923Z" fill="#B0AB93"/>
<path d="M366.631 334.384C365.676 332.389 360.666 335.215 358.28 336.877C352.456 344.524 341.816 356.859 329.848 367.501C342.507 357.293 367.585 336.379 366.631 334.384Z" fill="#B0AB93"/>
<path d="M436.02 149.012C437.876 150.259 441.587 154.955 441.587 163.767M441.587 163.767C441.587 166.257 440.347 171.869 438.256 179.353M441.587 163.767C447.486 173.395 459.998 199.428 462.861 226.527C466.44 260.401 467.832 266.428 467.832 274.533M402.419 271.831C413.96 252.531 431.098 204.974 438.256 179.353M438.256 179.353C438.107 210.941 430.731 281.806 402.419 312.563M284.914 396.936C296.442 399.221 316.147 400.707 337.801 397.739M337.801 397.739C359.468 394.769 383.087 387.34 402.419 371.79C441.07 340.701 457.228 300.925 460.475 284.923C463.06 269.614 459.123 252.546 422.699 306.744C377.168 374.492 360.069 392.931 337.801 397.739ZM263.839 386.753C266.821 389.455 278.154 393.237 299.627 386.753C309.307 383.83 320.025 376.236 329.848 367.501M329.848 367.501C341.816 356.859 352.456 344.524 358.28 336.877C360.666 335.215 365.676 332.389 366.631 334.384C367.585 336.379 342.507 357.293 329.848 367.501Z" stroke="#B0AB93" stroke-width="6" stroke-linecap="round"/>
<path fill-rule="evenodd" clip-rule="evenodd" d="M254.295 360.361C259.531 359.46 271.433 359.945 277.16 369.089C264.607 374.052 249.921 387.585 263.242 416.679C267.157 425.23 246.597 423.606 234.214 418.133C232.424 417.51 228.885 415.266 229.044 411.276C229.06 410.871 229.058 410.221 229.055 409.367C229.023 399.694 228.901 363.798 254.295 360.361Z" fill="#EFE8DF"/>
<path d="M275.37 409.821C253.42 390.037 267.417 374.423 277.16 369.089C264.607 374.052 249.921 387.585 263.242 416.679C267.157 425.23 246.597 423.606 234.214 418.133C234.81 422.082 243.558 431.434 261.452 429.563C266.135 429.074 269.385 427.43 271.592 425.23C276.134 420.705 276.262 413.83 275.37 409.821Z" fill="#B0AB93"/>
<path d="M270.997 364.102C260.99 364.864 240.06 377.61 240.378 405.873M236.8 420.42C228.051 397.768 245.071 382.796 247.934 379.471M264.635 427.485C261.52 427.763 249.922 419.173 249.922 391.533" stroke="#B0AB93" stroke-width="6" stroke-linecap="round"/>
<path d="M430.452 373.869C396.056 438.292 315.731 421.875 275.768 409.198C268.743 405.249 257.118 393.653 266.821 378.857" stroke="#686349" stroke-width="8" stroke-linecap="round"/>
<path fill-rule="evenodd" clip-rule="evenodd" d="M193.455 407.119C210.355 400.469 218.308 393.195 220.893 380.726C223.477 368.257 218.716 356.597 197.431 352.671C190.671 351.424 181.327 355.502 173.771 359.945C168.49 363.05 166.009 366.52 163.6 369.89C161.656 372.609 159.759 375.264 156.474 377.609C154.955 378.693 153.323 379.729 151.601 380.726C168.004 380.44 195.403 386.561 173.771 413.339C182.723 410.659 190.076 408.449 193.455 407.119Z" fill="#F1C3A8"/>
<path d="M108.358 399.845L119.691 431.849C131.108 426.11 155 418.958 172.92 413.594L173.771 413.339C195.403 386.561 168.004 380.44 151.601 380.726C139.18 387.917 122.036 393.093 108.358 399.845Z" fill="#CB7E73"/>
<path d="M122.475 313.81L0 210.109L80.7224 301.756L12.1282 313.81L208.367 485.881L172.38 496.895L310.165 620.338L203.595 511.443L253.5 491.492L61.6353 325.863L122.475 313.81Z" fill="#FDC986"/>
<path d="M80.8364 392.561C85.7726 382.632 97.5155 362.58 104.998 361.798C106.062 361.687 107.104 361.736 108.115 361.912C111.666 359.921 119.806 356.525 123.963 358.869C129.159 361.798 130.978 370.099 136.953 369.855C142.929 369.611 142.409 378.4 131.367 378.4C132.128 379.712 132.65 381.249 132.796 383.039C136.347 382.958 143.812 384.357 145.267 390.607C148.644 390.77 155.295 392.561 154.879 398.42C154.464 404.279 136.693 424.299 127.86 433.577C126.301 435.204 122.56 438.704 117.988 436.751C113.415 434.797 116.949 432.112 113.311 429.426C109.674 426.741 107.856 429.67 105.517 428.938C103.179 428.206 101.62 426.218 102.4 423.289C103.179 420.359 99.0223 417.463 95.3852 417.463C93.8703 417.463 89.9293 417.219 91.4881 411.115C93.0469 405.012 88.4135 405.5 85.2529 405.5C76.1599 405.5 78.5301 397.199 80.8364 392.561Z" fill="#F1C3A8"/>
<path d="M108.115 361.912C107.104 361.736 106.062 361.687 104.998 361.798C97.5155 362.58 85.7726 382.632 80.8364 392.561C78.5301 397.199 76.1599 405.5 85.2529 405.5C88.4135 405.5 93.0469 405.012 91.4881 411.115C89.9293 417.219 93.8703 417.463 95.3852 417.463C99.0223 417.463 103.179 420.359 102.4 423.289C101.62 426.218 103.179 428.206 105.517 428.938C107.856 429.67 109.674 426.741 113.311 429.426C116.949 432.112 113.415 434.797 117.988 436.751C122.56 438.704 126.301 435.204 127.86 433.577C136.693 424.299 154.464 404.279 154.879 398.42C155.295 392.561 148.644 390.77 145.267 390.607C143.812 384.357 136.347 382.958 132.796 383.039C132.65 381.249 132.128 379.712 131.367 378.4M108.115 361.912C114.21 362.975 119.174 368.667 121.105 371.808C123.888 372.244 128.891 374.128 131.367 378.4M108.115 361.912C111.666 359.921 119.806 356.525 123.963 358.869C129.159 361.798 130.978 370.099 136.953 369.855C142.929 369.611 142.409 378.4 131.367 378.4" stroke="#E9A397" stroke-width="2"/>
<path d="M132.277 383.283C127.601 389.713 119.287 403.059 113.312 407.454M120.066 372.053C115.39 378.482 104.375 392.317 97.7236 396.223M145.007 391.096C140.331 397.525 132.017 410.872 126.042 415.266" stroke="#CB7E73" stroke-width="4" stroke-linecap="round"/>
<path fill-rule="evenodd" clip-rule="evenodd" d="M492.466 407.535C476.432 400.885 468.887 393.611 466.435 381.142C463.983 368.673 468.5 357.013 488.693 353.087C495.106 351.84 503.972 355.918 511.14 360.361C516.15 363.466 518.504 366.936 520.789 370.306C522.633 373.025 524.434 375.68 527.55 378.025C528.991 379.109 530.539 380.145 532.174 381.142C516.611 380.856 490.617 386.977 511.14 413.755C502.647 411.075 495.671 408.865 492.466 407.535Z" fill="#F1C3A8"/>
<path d="M573.198 400.261L562.446 432.265C551.615 426.526 528.948 419.374 511.947 414.01L511.14 413.755C490.617 386.977 516.611 380.856 532.174 381.142C543.957 388.333 560.222 393.509 573.198 400.261Z" fill="#CB7E73"/>
<path d="M559.805 314.226L676 210.525L599.417 302.172L664.494 314.226L478.318 486.297L512.46 497.311L381.741 620.754L482.845 511.859L435.5 491.908L617.525 326.279L559.805 314.226Z" fill="#FDC986"/>
<path d="M599.309 392.977C594.626 383.048 583.485 362.996 576.387 362.214C575.377 362.103 574.388 362.152 573.429 362.329C570.06 360.337 562.337 356.941 558.394 359.285C553.464 362.214 551.739 370.515 546.07 370.271C540.401 370.027 540.894 378.816 551.369 378.816C550.648 380.128 550.153 381.665 550.014 383.455C546.645 383.374 539.563 384.773 538.183 391.023C534.979 391.186 528.669 392.977 529.063 398.836C529.457 404.695 546.316 424.715 554.697 433.993C556.176 435.62 559.725 439.12 564.063 437.167C568.401 435.213 565.049 432.528 568.499 429.842C571.95 427.157 573.675 430.086 575.894 429.354C578.112 428.622 579.591 426.634 578.851 423.705C578.112 420.775 582.056 417.879 585.506 417.879C586.944 417.879 590.682 417.635 589.204 411.531C587.725 405.428 592.121 405.916 595.119 405.916C603.746 405.916 601.497 397.615 599.309 392.977Z" fill="#F1C3A8"/>
<path d="M573.429 362.329C574.388 362.152 575.377 362.103 576.387 362.214C583.485 362.996 594.626 383.048 599.309 392.977C601.497 397.615 603.746 405.916 595.119 405.916C592.121 405.916 587.725 405.428 589.204 411.531C590.682 417.635 586.944 417.879 585.506 417.879C582.056 417.879 578.112 420.775 578.851 423.705C579.591 426.634 578.112 428.622 575.894 429.354C573.675 430.086 571.95 427.157 568.499 429.842C565.049 432.528 568.401 435.213 564.063 437.167C559.725 439.12 556.176 435.62 554.697 433.993C546.316 424.715 529.457 404.695 529.063 398.836C528.669 392.977 534.979 391.186 538.183 391.023C539.563 384.773 546.645 383.374 550.014 383.455C550.153 381.665 550.648 380.128 551.369 378.816M573.429 362.329C567.647 363.391 562.937 369.083 561.105 372.224C558.465 372.66 553.719 374.544 551.369 378.816M573.429 362.329C570.06 360.337 562.337 356.941 558.394 359.285C553.464 362.214 551.739 370.515 546.07 370.271C540.401 370.027 540.894 378.816 551.369 378.816" stroke="#E9A397" stroke-width="2"/>
<path d="M550.507 383.699C554.943 390.129 562.83 403.475 568.499 407.87M562.091 372.469C566.528 378.898 576.978 392.733 583.288 396.639M538.429 391.512C542.866 397.941 550.753 411.288 556.422 415.682" stroke="#CB7E73" stroke-width="4" stroke-linecap="round"/>
<defs>
<linearGradient id="paint0_linear_5153_12743" x1="350.329" y1="66.0938" x2="350.329" y2="89.3692" gradientUnits="userSpaceOnUse">
<stop stop-color="#F1C3A8"/>
<stop offset="1" stop-color="#E89F94"/>
</linearGradient>
</defs>
</svg>
