<svg width="497" height="477" viewBox="0 0 497 477" fill="none" xmlns="http://www.w3.org/2000/svg">
<path d="M130.454 148.849C361.413 123.259 473.818 234.829 377.966 259.979" stroke="#073E99" stroke-width="31.2706" stroke-miterlimit="3.99393" stroke-linecap="round"/>
<path d="M369.734 332.038C138.775 360.081 26.3692 237.813 122.221 210.251" stroke="#073E99" stroke-width="31.2706" stroke-miterlimit="3.99393" stroke-linecap="round"/>
<ellipse cx="421.857" cy="212.101" rx="17.3369" ry="46.0174" transform="rotate(-35.6296 421.857 212.101)" fill="#073E99"/>
<path d="M242.847 326.587C314.046 314.852 457.79 277.013 481.243 191.361" stroke="#073E99" stroke-width="31.2706" stroke-miterlimit="3.99393" stroke-linecap="round"/>
<path d="M266.552 178.767C187.092 183.429 58.6658 206.401 22.8025 289.344" stroke="#073E99" stroke-width="31.2706" stroke-miterlimit="3.99393" stroke-linecap="round"/>
<ellipse cx="249.512" cy="244.884" rx="180.247" ry="81.8589" fill="#127BF3"/>
<ellipse cx="249.512" cy="239.374" rx="162.931" ry="59.0329" fill="#51BBFF"/>
<ellipse cx="249.512" cy="236.226" rx="126.724" ry="46.4392" fill="#EFEDFF"/>
<circle cx="69.2652" cy="255.903" r="7.87105" fill="#073E99"/>
<circle cx="103.898" cy="295.258" r="7.87105" fill="#073E99"/>
<circle cx="224.398" cy="346.04" r="7.87105" transform="rotate(146.771 224.398 346.04)" fill="#073E99"/>
<circle cx="113.343" cy="306.278" r="11.0195" fill="#073E99"/>
<circle cx="210.458" cy="341.999" r="11.0195" transform="rotate(146.771 210.458 341.999)" fill="#073E99"/>
<circle cx="408.808" cy="321.534" r="11.0195" transform="rotate(146.771 408.808 321.534)" fill="#073E99"/>
<circle cx="372.602" cy="247.546" r="5.99209" transform="rotate(146.771 372.602 247.546)" fill="#EFEDFF"/>
<circle cx="346.751" cy="264.199" r="5.99209" transform="rotate(146.771 346.751 264.199)" fill="#EFEDFF"/>
<circle cx="257.021" cy="283.09" r="5.99209" transform="rotate(146.771 257.021 283.09)" fill="#EFEDFF"/>
<circle cx="164.143" cy="268.922" r="5.99209" transform="rotate(146.771 164.143 268.922)" fill="#EFEDFF"/>
<circle cx="164.143" cy="201.231" r="5.99209" transform="rotate(146.771 164.143 201.231)" fill="#51BBFF"/>
<circle cx="246.002" cy="190.211" r="5.99209" transform="rotate(146.771 246.002 190.211)" fill="#51BBFF"/>
<circle cx="260.17" cy="188.637" r="5.99209" transform="rotate(146.771 260.17 188.637)" fill="#51BBFF"/>
<circle cx="312.119" cy="276.793" r="5.99209" transform="rotate(146.771 312.119 276.793)" fill="#51BBFF"/>
<circle cx="217.666" cy="281.515" r="5.99209" transform="rotate(146.771 217.666 281.515)" fill="#51BBFF"/>
<circle cx="234.982" cy="190.211" r="5.99209" transform="rotate(146.771 234.982 190.211)" fill="#51BBFF"/>
<circle cx="321.564" cy="196.508" r="5.99209" transform="rotate(146.771 321.564 196.508)" fill="#51BBFF"/>
<circle cx="371.939" cy="239.012" r="5.99209" transform="rotate(146.771 371.939 239.012)" fill="#EFEDFF"/>
<circle cx="370.364" cy="224.844" r="5.99209" transform="rotate(146.771 370.364 224.844)" fill="#EFEDFF"/>
<circle cx="340.454" cy="204.379" r="5.99209" transform="rotate(146.771 340.454 204.379)" fill="#EFEDFF"/>
<circle cx="379.81" cy="205.953" r="5.99209" transform="rotate(146.771 379.81 205.953)" fill="#51BBFF"/>
<circle cx="90.1548" cy="229.566" r="5.99209" transform="rotate(146.771 90.1548 229.566)" fill="#51BBFF"/>
<circle cx="183.033" cy="290.961" r="5.99209" transform="rotate(146.771 183.033 290.961)" fill="#51BBFF"/>
<circle cx="102.749" cy="267.348" r="5.99209" transform="rotate(146.771 102.749 267.348)" fill="#073E99"/>
<circle cx="181.459" cy="183.914" r="5.99209" transform="rotate(146.771 181.459 183.914)" fill="#073E99"/>
<circle cx="384.532" cy="272.07" r="5.99209" transform="rotate(146.771 384.532 272.07)" fill="#073E99"/>
<circle cx="412.867" cy="245.308" r="5.99209" transform="rotate(146.771 412.867 245.308)" fill="#073E99"/>
<circle cx="211.369" cy="183.914" r="5.99209" transform="rotate(146.771 211.369 183.914)" fill="#51BBFF"/>
<circle cx="389.918" cy="175.133" r="11.0195" transform="rotate(146.771 389.918 175.133)" fill="#073E99"/>
<circle cx="300.188" cy="142.074" r="11.0195" transform="rotate(146.771 300.188 142.074)" fill="#073E99"/>
<circle cx="111.284" cy="149.945" r="11.0195" transform="rotate(146.771 111.284 149.945)" fill="#073E99"/>
<circle cx="15.5354" cy="328.11" r="11.0195" transform="rotate(-139.522 15.5354 328.11)" fill="#073E99"/>
<circle cx="436.744" cy="313.263" r="5.0454" transform="rotate(146.771 436.744 313.263)" fill="#073E99"/>
<circle cx="96.7161" cy="152.694" r="5.0454" transform="rotate(146.771 96.7161 152.694)" fill="#073E99"/>
<circle cx="485.545" cy="174.733" r="5.0454" transform="rotate(146.771 485.545 174.733)" fill="#073E99"/>
<circle cx="31.3113" cy="352.603" r="5.0454" transform="rotate(-139.522 31.3113 352.603)" fill="#073E99"/>
<ellipse cx="91.4057" cy="281.048" rx="7.87105" ry="15.7421" transform="rotate(-37.6195 91.4057 281.048)" fill="#073E99"/>
<ellipse cx="156.558" cy="322.904" rx="12.473" ry="33.107" transform="rotate(-66.8208 156.558 322.904)" fill="#073E99"/>
<ellipse cx="275.398" cy="347.319" rx="17.3369" ry="46.0174" transform="rotate(-85.9072 275.398 347.319)" fill="#073E99"/>
<ellipse cx="221.419" cy="141.28" rx="17.3369" ry="46.0174" transform="rotate(-87.6814 221.419 141.28)" fill="#073E99"/>
<path d="M342.152 87.2971L271.72 233.981L406.058 325.797L259.374 255.364L167.558 389.703L237.991 243.019L103.652 151.203L250.336 221.635L342.152 87.2971Z" fill="url(#paint0_radial_2122_1202)"/>
<path d="M189.668 246.232C187.738 246.232 186.154 245.815 184.922 244.982C183.687 244.149 182.941 242.959 182.683 241.409L186.145 240.516C186.284 241.211 186.519 241.757 186.847 242.153C187.175 242.551 187.583 242.832 188.07 243.002C188.557 243.17 189.091 243.256 189.668 243.256C190.542 243.256 191.189 243.101 191.607 242.795C192.024 242.487 192.234 242.107 192.234 241.649C192.234 241.191 192.036 240.841 191.637 240.592C191.237 240.344 190.602 240.141 189.725 239.982L188.89 239.833C187.856 239.635 186.909 239.361 186.055 239.013C185.199 238.666 184.513 238.185 183.996 237.57C183.479 236.955 183.221 236.161 183.221 235.19C183.221 233.721 183.758 232.596 184.832 231.811C185.907 231.028 187.318 230.635 189.07 230.635C190.72 230.635 192.094 231.003 193.188 231.735C194.282 232.469 194.997 233.431 195.337 234.621L191.844 235.692C191.685 234.939 191.362 234.403 190.875 234.085C190.388 233.767 189.785 233.609 189.07 233.609C188.354 233.609 187.805 233.733 187.429 233.982C187.05 234.23 186.861 234.573 186.861 235.008C186.861 235.485 187.059 235.837 187.459 236.065C187.856 236.293 188.393 236.467 189.07 236.585L189.905 236.734C191.02 236.932 192.029 237.195 192.934 237.524C193.839 237.851 194.554 238.318 195.083 238.924C195.609 239.529 195.875 240.348 195.875 241.379C195.875 242.926 195.311 244.123 194.187 244.966C193.063 245.811 191.556 246.232 189.665 246.232H189.668Z" fill="#241F21"/>
<path d="M202.43 246.172C201.276 246.172 200.267 245.91 199.402 245.382C198.536 244.858 197.864 244.128 197.387 243.196C196.909 242.263 196.671 241.191 196.671 239.982V231.173H200.431V239.685C200.431 240.797 200.704 241.63 201.253 242.185C201.8 242.74 202.58 243.018 203.596 243.018C204.75 243.018 205.646 242.636 206.283 241.872C206.92 241.108 207.238 240.042 207.238 238.673V231.173H210.998V245.935H207.298V244.001H206.761C206.523 244.499 206.075 244.984 205.417 245.461C204.761 245.937 203.764 246.174 202.432 246.174L202.43 246.172Z" fill="#241F21"/>
<path d="M213.683 251.887V231.173H217.383V232.959H217.921C218.258 232.384 218.786 231.873 219.502 231.426C220.218 230.98 221.243 230.756 222.576 230.756C223.77 230.756 224.876 231.049 225.889 231.633C226.905 232.218 227.72 233.077 228.336 234.207C228.952 235.337 229.261 236.707 229.261 238.313V238.79C229.261 240.396 228.952 241.766 228.336 242.896C227.72 244.026 226.903 244.885 225.889 245.47C224.874 246.054 223.77 246.347 222.576 246.347C221.681 246.347 220.931 246.243 220.324 246.034C219.717 245.826 219.23 245.557 218.86 245.23C218.491 244.903 218.198 244.572 217.981 244.234H217.443V251.883H213.683V251.887ZM221.443 243.078C222.618 243.078 223.588 242.705 224.354 241.962C225.121 241.218 225.504 240.132 225.504 238.702V238.405C225.504 236.976 225.116 235.89 224.34 235.146C223.565 234.403 222.6 234.03 221.446 234.03C220.291 234.03 219.327 234.403 218.551 235.146C217.775 235.89 217.388 236.976 217.388 238.405V238.702C217.388 240.132 217.775 241.218 218.551 241.962C219.327 242.705 220.291 243.078 221.446 243.078H221.443Z" fill="#241F21"/>
<path d="M237.978 246.351C236.505 246.351 235.208 246.038 234.083 245.414C232.96 244.788 232.085 243.907 231.457 242.765C230.831 241.623 230.517 240.279 230.517 238.732V238.376C230.517 236.829 230.824 235.484 231.443 234.343C232.059 233.201 232.925 232.319 234.039 231.693C235.155 231.07 236.447 230.756 237.92 230.756C239.393 230.756 240.637 231.079 241.71 231.723C242.783 232.368 243.622 233.261 244.217 234.403C244.815 235.544 245.112 236.868 245.112 238.376V239.655H234.337C234.377 240.668 234.755 241.49 235.471 242.125C236.186 242.76 237.064 243.078 238.098 243.078C239.131 243.078 239.928 242.85 240.425 242.394C240.921 241.939 241.299 241.432 241.558 240.878L244.632 242.484C244.353 243 243.951 243.561 243.423 244.167C242.894 244.772 242.195 245.288 241.318 245.714C240.443 246.139 239.328 246.354 237.975 246.354L237.978 246.351ZM234.365 236.856H241.29C241.209 236.002 240.867 235.319 240.261 234.803C239.653 234.287 238.862 234.03 237.888 234.03C236.913 234.03 236.066 234.287 235.471 234.803C234.873 235.319 234.506 236.005 234.368 236.856H234.365Z" fill="#241F21"/>
<path d="M246.961 245.935V231.173H250.661V232.84H251.199C251.418 232.244 251.781 231.809 252.288 231.53C252.796 231.252 253.387 231.113 254.064 231.113H255.855V234.446H254.004C253.048 234.446 252.263 234.7 251.647 235.206C251.03 235.712 250.721 236.49 250.721 237.542V245.935H246.961Z" fill="#241F21"/>
<path d="M257.286 245.935V231.173H260.986V232.78H261.524C261.783 232.285 262.21 231.852 262.808 231.486C263.405 231.12 264.19 230.936 265.164 230.936C266.219 230.936 267.064 231.139 267.701 231.546C268.338 231.953 268.825 232.483 269.164 233.139H269.703C270.039 232.504 270.517 231.979 271.136 231.562C271.752 231.146 272.627 230.938 273.763 230.938C274.677 230.938 275.508 231.132 276.256 231.518C277.001 231.905 277.599 232.49 278.046 233.275C278.495 234.06 278.719 235.045 278.719 236.237V245.939H274.958V236.504C274.958 235.692 274.748 235.082 274.333 234.674C273.915 234.267 273.326 234.064 272.571 234.064C271.715 234.064 271.055 234.338 270.586 234.884C270.118 235.429 269.885 236.207 269.885 237.22V245.942H266.124V236.506C266.124 235.694 265.915 235.084 265.499 234.676C265.081 234.269 264.493 234.066 263.738 234.066C262.881 234.066 262.221 234.34 261.753 234.886C261.284 235.431 261.051 236.209 261.051 237.222V245.944H257.291L257.286 245.935Z" fill="#241F21"/>
<path d="M288.028 246.351C286.555 246.351 285.258 246.038 284.134 245.414C283.01 244.788 282.135 243.907 281.507 242.765C280.881 241.623 280.568 240.279 280.568 238.732V238.376C280.568 236.829 280.874 235.484 281.493 234.343C282.109 233.201 282.975 232.319 284.09 231.693C285.205 231.07 286.497 230.756 287.97 230.756C289.443 230.756 290.687 231.079 291.76 231.723C292.834 232.368 293.671 233.261 294.267 234.403C294.865 235.544 295.163 236.868 295.163 238.376V239.655H284.388C284.427 240.668 284.805 241.49 285.521 242.125C286.237 242.76 287.113 243.078 288.148 243.078C289.182 243.078 289.978 242.85 290.477 242.394C290.973 241.939 291.352 241.432 291.61 240.878L294.685 242.484C294.406 243 294.004 243.561 293.475 244.167C292.947 244.772 292.247 245.288 291.37 245.714C290.495 246.139 289.38 246.354 288.028 246.354V246.351ZM284.417 236.856H291.342C291.262 236.002 290.92 235.319 290.313 234.803C289.706 234.287 288.914 234.03 287.94 234.03C286.966 234.03 286.119 234.287 285.523 234.803C284.925 235.319 284.558 236.005 284.42 236.856H284.417Z" fill="#241F21"/>
<path d="M297.011 245.935V231.173H300.712V232.78H301.249C301.508 232.285 301.935 231.852 302.533 231.486C303.131 231.12 303.916 230.936 304.889 230.936C305.945 230.936 306.789 231.139 307.426 231.546C308.063 231.953 308.551 232.483 308.89 233.139H309.427C309.764 232.504 310.242 231.979 310.861 231.562C311.477 231.146 312.352 230.938 313.488 230.938C314.402 230.938 315.233 231.132 315.98 231.518C316.726 231.905 317.324 232.49 317.772 233.275C318.219 234.06 318.443 235.045 318.443 236.237V245.939H314.683V236.504C314.683 235.692 314.473 235.082 314.058 234.674C313.64 234.267 313.052 234.064 312.297 234.064C311.44 234.064 310.78 234.338 310.312 234.884C309.843 235.429 309.61 236.207 309.61 237.22V245.942H305.85V236.506C305.85 235.694 305.64 235.084 305.224 234.676C304.806 234.269 304.217 234.066 303.463 234.066C302.607 234.066 301.947 234.34 301.477 234.886C301.009 235.431 300.776 236.209 300.776 237.222V245.944H297.016L297.011 245.935Z" fill="#241F21"/>
<path d="M328.053 246.351C326.58 246.351 325.258 246.054 324.083 245.458C322.908 244.862 321.982 243.999 321.306 242.869C320.63 241.738 320.29 240.378 320.29 238.792V238.316C320.29 236.727 320.628 235.369 321.306 234.239C321.982 233.109 322.908 232.246 324.083 231.65C325.255 231.053 326.58 230.756 328.053 230.756C329.526 230.756 330.848 231.053 332.024 231.65C333.196 232.246 334.122 233.109 334.8 234.239C335.476 235.369 335.814 236.73 335.814 238.316V238.792C335.814 240.38 335.474 241.738 334.8 242.869C334.124 243.999 333.198 244.862 332.024 245.458C330.848 246.054 329.526 246.351 328.053 246.351ZM328.053 243.018C329.207 243.018 330.16 242.645 330.918 241.902C331.675 241.158 332.051 240.09 332.051 238.702V238.405C332.051 237.017 331.677 235.949 330.931 235.206C330.186 234.462 329.225 234.089 328.051 234.089C326.876 234.089 325.941 234.462 325.186 235.206C324.429 235.949 324.053 237.017 324.053 238.405V238.702C324.053 240.09 324.429 241.158 325.186 241.902C325.943 242.645 326.896 243.018 328.051 243.018H328.053Z" fill="#241F21"/>
<path d="M337.782 245.935V231.173H341.482V232.84H342.021C342.239 232.244 342.602 231.809 343.11 231.53C343.618 231.252 344.209 231.113 344.885 231.113H346.676V234.446H344.825C343.869 234.446 343.084 234.7 342.468 235.206C341.852 235.712 341.543 236.49 341.543 237.542V245.935H337.782Z" fill="#241F21"/>
<path d="M349.721 251.887V248.614H357.779C358.335 248.614 358.614 248.317 358.614 247.721V244.001H358.076C357.917 244.34 357.668 244.676 357.331 245.014C356.992 245.353 356.535 245.629 355.958 245.847C355.38 246.066 354.644 246.174 353.749 246.174C352.594 246.174 351.583 245.912 350.72 245.385C349.854 244.86 349.183 244.13 348.705 243.198C348.227 242.266 347.99 241.193 347.99 239.985V231.173H351.749V239.685C351.749 240.797 352.022 241.63 352.571 242.185C353.118 242.74 353.899 243.018 354.914 243.018C356.068 243.018 356.964 242.636 357.601 241.872C358.238 241.108 358.557 240.042 358.557 238.673V231.173H362.316V248.554C362.316 249.567 362.019 250.375 361.421 250.98C360.824 251.586 360.027 251.887 359.034 251.887H349.723H349.721Z" fill="#241F21"/>
<path d="M169.634 235.71H157.317V225.124H153.338V236.61C153.338 237.83 153.825 239.002 154.69 239.865L164.748 249.894L167.561 247.088L160.133 239.681H169.636V235.713L169.634 235.71Z" fill="#241F21"/>
<path d="M138.521 230L145.949 237.407H136.446V241.375H148.763V251.961H152.742V240.475C152.742 239.255 152.255 238.083 151.39 237.22L141.335 227.194L138.521 230Z" fill="#241F21"/>
<defs>
<radialGradient id="paint0_radial_2122_1202" cx="0" cy="0" r="1" gradientUnits="userSpaceOnUse" gradientTransform="translate(254.334 239.403) rotate(120) scale(173.552)">
<stop offset="0.461538" stop-color="#EFEDFF"/>
<stop offset="1" stop-color="#FFE57E"/>
</radialGradient>
</defs>
</svg>
