<svg width="497" height="477" viewBox="0 0 497 477" fill="none" xmlns="http://www.w3.org/2000/svg">
<path d="M130.454 148.849C361.413 123.259 473.818 234.829 377.966 259.979" stroke="#F6821F" stroke-width="31.2706" stroke-miterlimit="3.99393" stroke-linecap="round"/>
<path d="M369.734 332.038C138.775 360.081 26.3693 237.813 122.221 210.251" stroke="#F6821F" stroke-width="31.2706" stroke-miterlimit="3.99393" stroke-linecap="round"/>
<ellipse cx="421.857" cy="212.101" rx="17.3369" ry="46.0174" transform="rotate(-35.6296 421.857 212.101)" fill="#F6821F"/>
<path d="M242.847 326.587C314.046 314.852 457.79 277.013 481.243 191.361" stroke="#F6821F" stroke-width="31.2706" stroke-miterlimit="3.99393" stroke-linecap="round"/>
<path d="M266.552 178.767C187.092 183.429 58.6657 206.401 22.8024 289.344" stroke="#F6821F" stroke-width="31.2706" stroke-miterlimit="3.99393" stroke-linecap="round"/>
<ellipse cx="249.512" cy="244.884" rx="180.247" ry="81.8589" fill="#FF9D35"/>
<ellipse cx="249.512" cy="239.374" rx="162.931" ry="59.0329" fill="#FFC342"/>
<ellipse cx="249.512" cy="236.226" rx="126.724" ry="46.4392" fill="#EFEDFF"/>
<circle cx="69.2652" cy="255.903" r="7.87105" fill="#F6821F"/>
<circle cx="103.898" cy="295.258" r="7.87105" fill="#F6821F"/>
<circle cx="224.398" cy="346.04" r="7.87105" transform="rotate(146.771 224.398 346.04)" fill="#F6821F"/>
<circle cx="113.343" cy="306.278" r="11.0195" fill="#F6821F"/>
<circle cx="210.458" cy="341.999" r="11.0195" transform="rotate(146.771 210.458 341.999)" fill="#F6821F"/>
<circle cx="408.808" cy="321.534" r="11.0195" transform="rotate(146.771 408.808 321.534)" fill="#F6821F"/>
<circle cx="372.602" cy="247.546" r="5.99209" transform="rotate(146.771 372.602 247.546)" fill="#EFEDFF"/>
<circle cx="346.751" cy="264.199" r="5.99209" transform="rotate(146.771 346.751 264.199)" fill="#EFEDFF"/>
<circle cx="257.021" cy="283.09" r="5.99209" transform="rotate(146.771 257.021 283.09)" fill="#EFEDFF"/>
<circle cx="164.143" cy="268.922" r="5.99209" transform="rotate(146.771 164.143 268.922)" fill="#EFEDFF"/>
<circle cx="164.143" cy="201.231" r="5.99209" transform="rotate(146.771 164.143 201.231)" fill="#FFC342"/>
<circle cx="246.002" cy="190.211" r="5.99209" transform="rotate(146.771 246.002 190.211)" fill="#FFC342"/>
<circle cx="260.17" cy="188.637" r="5.99209" transform="rotate(146.771 260.17 188.637)" fill="#FFC342"/>
<circle cx="312.119" cy="276.793" r="5.99209" transform="rotate(146.771 312.119 276.793)" fill="#FFC342"/>
<circle cx="217.666" cy="281.515" r="5.99209" transform="rotate(146.771 217.666 281.515)" fill="#FFC342"/>
<circle cx="234.982" cy="190.211" r="5.99209" transform="rotate(146.771 234.982 190.211)" fill="#FFC342"/>
<circle cx="321.564" cy="196.508" r="5.99209" transform="rotate(146.771 321.564 196.508)" fill="#FFC342"/>
<circle cx="371.939" cy="239.012" r="5.99209" transform="rotate(146.771 371.939 239.012)" fill="#EFEDFF"/>
<circle cx="370.364" cy="224.844" r="5.99209" transform="rotate(146.771 370.364 224.844)" fill="#EFEDFF"/>
<circle cx="340.454" cy="204.379" r="5.99209" transform="rotate(146.771 340.454 204.379)" fill="#EFEDFF"/>
<circle cx="379.81" cy="205.953" r="5.99209" transform="rotate(146.771 379.81 205.953)" fill="#FFC342"/>
<circle cx="90.1548" cy="229.566" r="5.99209" transform="rotate(146.771 90.1548 229.566)" fill="#FFC342"/>
<circle cx="183.033" cy="290.961" r="5.99209" transform="rotate(146.771 183.033 290.961)" fill="#FFC342"/>
<circle cx="102.749" cy="267.348" r="5.99209" transform="rotate(146.771 102.749 267.348)" fill="#F6821F"/>
<circle cx="181.459" cy="183.914" r="5.99209" transform="rotate(146.771 181.459 183.914)" fill="#F6821F"/>
<circle cx="384.532" cy="272.07" r="5.99209" transform="rotate(146.771 384.532 272.07)" fill="#F6821F"/>
<circle cx="412.867" cy="245.308" r="5.99209" transform="rotate(146.771 412.867 245.308)" fill="#F6821F"/>
<circle cx="211.369" cy="183.914" r="5.99209" transform="rotate(146.771 211.369 183.914)" fill="#FFC342"/>
<circle cx="389.917" cy="175.133" r="11.0195" transform="rotate(146.771 389.917 175.133)" fill="#F6821F"/>
<circle cx="300.188" cy="142.074" r="11.0195" transform="rotate(146.771 300.188 142.074)" fill="#F6821F"/>
<circle cx="111.284" cy="149.945" r="11.0195" transform="rotate(146.771 111.284 149.945)" fill="#F6821F"/>
<circle cx="15.5354" cy="328.11" r="11.0195" transform="rotate(-139.522 15.5354 328.11)" fill="#F6821F"/>
<circle cx="436.744" cy="313.263" r="5.0454" transform="rotate(146.771 436.744 313.263)" fill="#F6821F"/>
<circle cx="96.7161" cy="152.694" r="5.0454" transform="rotate(146.771 96.7161 152.694)" fill="#F6821F"/>
<circle cx="485.545" cy="174.733" r="5.0454" transform="rotate(146.771 485.545 174.733)" fill="#F6821F"/>
<circle cx="31.3113" cy="352.603" r="5.0454" transform="rotate(-139.522 31.3113 352.603)" fill="#F6821F"/>
<ellipse cx="91.4057" cy="281.048" rx="7.87105" ry="15.7421" transform="rotate(-37.6195 91.4057 281.048)" fill="#F6821F"/>
<ellipse cx="156.558" cy="322.904" rx="12.473" ry="33.107" transform="rotate(-66.8208 156.558 322.904)" fill="#F6821F"/>
<ellipse cx="275.398" cy="347.319" rx="17.3369" ry="46.0174" transform="rotate(-85.9072 275.398 347.319)" fill="#F6821F"/>
<ellipse cx="221.419" cy="141.28" rx="17.3369" ry="46.0174" transform="rotate(-87.6814 221.419 141.28)" fill="#F6821F"/>
<path d="M342.152 87.2971L271.72 233.981L406.058 325.797L259.374 255.364L167.558 389.703L237.991 243.019L103.652 151.203L250.336 221.635L342.152 87.2971Z" fill="url(#paint0_radial_2115_1051)"/>
<path d="M355.422 240.292V244.482H346.397V246.738H354.455V250.605H346.397V252.861H355.422V257.051H341.563V240.292H355.422Z" fill="#241F21"/>
<path d="M167.2 247.06H161.721C161.573 247.06 161.625 245.523 159.916 244.837C152.375 241.804 152.117 255.102 159.7 252.614C160.928 252.211 161.731 250.606 161.882 250.606H166.878C165.853 259.781 150.386 259.575 149.181 250.738C147.453 238.078 164.28 235.78 167.2 247.06Z" fill="#241F21"/>
<path d="M218.123 240.292V251.089C218.123 252.439 220.663 253.081 221.82 252.855C222.61 252.704 223.924 251.128 223.924 250.444V240.292H228.759V252.056C228.759 252.246 227.886 254.17 227.676 254.518C225.136 258.727 216.015 258.498 213.766 253.832C213.637 253.561 212.966 251.537 212.966 251.408V240.289H218.123V240.292Z" fill="#241F21"/>
<path d="M271.947 240.292V244.482H263.245V247.06H270.98V251.25H263.245V257.051H258.088V240.292H271.947Z" fill="#241F21"/>
<path d="M176.869 240.292V252.861H184.927V257.051H172.035V240.292H176.869Z" fill="#241F21"/>
<path d="M282.905 240.292V252.861H290.962V257.051H278.07V240.292H282.905Z" fill="#241F21"/>
<path fill-rule="evenodd" clip-rule="evenodd" d="M207.262 251.508C209.627 244.037 203.388 238.822 196.123 240.047C192.862 240.595 189.871 243.998 189.474 247.257C188.056 258.963 204.268 260.961 207.262 251.508ZM195.672 251.785C193.542 249.655 194.383 245.014 197.677 244.504C204.445 243.454 204.058 254.299 197.403 252.794C197.019 252.707 195.959 252.072 195.672 251.785Z" fill="#241F21"/>
<path fill-rule="evenodd" clip-rule="evenodd" d="M309.011 257.051H314.49L314.493 257.048L307.573 240.279C307.143 239.837 305.919 239.9 304.792 239.959C304.104 239.994 303.452 240.028 303.039 239.944L295.478 257.048H300.957C301.019 257.048 301.135 256.622 301.277 256.103C301.459 255.436 301.683 254.615 301.888 254.347C302.091 254.083 307.254 253.993 307.841 254.193C308.442 254.4 308.696 255.695 308.848 256.469C308.915 256.811 308.962 257.051 309.011 257.051ZM306.432 250.28H303.532L304.824 246.419L306.278 249.31L306.432 250.28Z" fill="#241F21"/>
<path fill-rule="evenodd" clip-rule="evenodd" d="M235.527 240.292V257.051H244.713C244.903 257.051 246.998 256.31 247.349 256.142C252.828 253.496 253.334 244.872 248.206 241.633C247.836 241.401 245.238 240.292 245.035 240.292H235.527ZM240.684 252.861V244.482C248.693 243.863 248.706 253.474 240.684 252.861Z" fill="#241F21"/>
<path fill-rule="evenodd" clip-rule="evenodd" d="M335.758 257.051H335.761L335.758 257.055C335.758 257.053 335.758 257.052 335.758 257.051ZM335.758 257.051C335.725 256.403 334.645 254.977 333.69 253.716C332.896 252.668 332.189 251.734 332.239 251.453C332.287 251.181 332.763 250.866 333.225 250.561C333.534 250.357 333.837 250.158 334.002 249.977C336.003 247.798 335.726 243.441 333.341 241.584C332.974 241.294 331.056 240.292 330.766 240.292H320.291V257.051H325.126V252.217C325.34 252.249 325.611 252.227 325.888 252.204C326.305 252.17 326.733 252.135 326.995 252.285C327.15 252.373 327.695 253.299 328.291 254.311C329.056 255.61 329.904 257.051 330.121 257.051H335.758ZM325.122 248.03V244.482C332.071 243.47 332.155 249.097 325.122 248.03Z" fill="#241F21"/>
<path d="M257.282 232.557C256.228 232.238 256.425 228.857 256.515 227.922C257.221 220.699 263.622 214.46 270.98 214.505C268.682 204.61 279.385 197.787 287.736 203.228C293.035 186.526 315.454 182.272 327.227 195.167C329.171 197.298 333.051 203.724 332.793 206.541C332.632 208.298 329.515 214.731 328.197 216.129C324.139 220.435 321.197 219.713 315.931 219.978C306.732 220.438 297.437 220.152 288.239 220.648C287.469 220.69 283.711 220.467 283.549 220.635C282.702 221.528 284.616 221.889 285.309 221.937C292.825 222.472 301.211 222.072 308.837 222.256C312.298 222.34 317.829 221.721 320.955 222.385C324.536 223.149 325.235 226.527 324.726 229.74C324.639 230.281 323.853 232.557 323.353 232.557H257.282Z" fill="#241F21"/>
<path d="M326.576 232.557C325.351 232.193 327.324 228.615 327.756 227.935C331.923 221.389 337.734 222.524 344.306 221.921C345.002 221.856 346.507 221.379 345.756 220.632C345.347 220.226 337.105 220.483 334.949 219.349C330.521 217.022 333.167 210.953 334.115 207.279C345.869 205.545 356.002 215.9 355.418 227.555C355.376 228.389 354.812 232.553 353.974 232.553H326.579L326.576 232.557Z" fill="#241F21"/>
<defs>
<radialGradient id="paint0_radial_2115_1051" cx="0" cy="0" r="1" gradientUnits="userSpaceOnUse" gradientTransform="translate(254.334 239.403) rotate(120) scale(173.552)">
<stop offset="0.461538" stop-color="#EFEDFF"/>
<stop offset="1" stop-color="#FFE57E"/>
</radialGradient>
</defs>
</svg>
