<svg width="497" height="477" viewBox="0 0 497 477" fill="none" xmlns="http://www.w3.org/2000/svg">
<path d="M130.454 148.848C361.413 123.259 473.818 234.828 377.966 259.979" stroke="#F6821F" stroke-width="31.2706" stroke-miterlimit="3.99393" stroke-linecap="round"/>
<path d="M369.734 332.038C138.775 360.081 26.3692 237.813 122.221 210.251" stroke="#F6821F" stroke-width="31.2706" stroke-miterlimit="3.99393" stroke-linecap="round"/>
<ellipse cx="421.857" cy="212.101" rx="17.3369" ry="46.0174" transform="rotate(-35.6296 421.857 212.101)" fill="#F6821F"/>
<path d="M242.847 326.587C314.046 314.852 457.79 277.013 481.243 191.36" stroke="#F6821F" stroke-width="31.2706" stroke-miterlimit="3.99393" stroke-linecap="round"/>
<path d="M266.552 178.767C187.092 183.429 58.6656 206.401 22.8024 289.344" stroke="#F6821F" stroke-width="31.2706" stroke-miterlimit="3.99393" stroke-linecap="round"/>
<ellipse cx="249.512" cy="244.883" rx="180.247" ry="81.8589" fill="#FF9D35"/>
<ellipse cx="249.512" cy="239.374" rx="162.931" ry="59.0329" fill="#FFC342"/>
<ellipse cx="249.512" cy="236.225" rx="126.724" ry="46.4392" fill="#EFEDFF"/>
<circle cx="69.2651" cy="255.903" r="7.87105" fill="#F6821F"/>
<circle cx="103.898" cy="295.258" r="7.87105" fill="#F6821F"/>
<circle cx="224.398" cy="346.04" r="7.87105" transform="rotate(146.771 224.398 346.04)" fill="#F6821F"/>
<circle cx="113.343" cy="306.278" r="11.0195" fill="#F6821F"/>
<circle cx="210.458" cy="341.999" r="11.0195" transform="rotate(146.771 210.458 341.999)" fill="#F6821F"/>
<circle cx="408.808" cy="321.534" r="11.0195" transform="rotate(146.771 408.808 321.534)" fill="#F6821F"/>
<circle cx="372.602" cy="247.546" r="5.99209" transform="rotate(146.771 372.602 247.546)" fill="#EFEDFF"/>
<circle cx="346.751" cy="264.199" r="5.99209" transform="rotate(146.771 346.751 264.199)" fill="#EFEDFF"/>
<circle cx="257.021" cy="283.09" r="5.99209" transform="rotate(146.771 257.021 283.09)" fill="#EFEDFF"/>
<circle cx="164.143" cy="268.922" r="5.99209" transform="rotate(146.771 164.143 268.922)" fill="#EFEDFF"/>
<circle cx="164.143" cy="201.231" r="5.99209" transform="rotate(146.771 164.143 201.231)" fill="#FFC342"/>
<circle cx="246.002" cy="190.211" r="5.99209" transform="rotate(146.771 246.002 190.211)" fill="#FFC342"/>
<circle cx="260.17" cy="188.637" r="5.99209" transform="rotate(146.771 260.17 188.637)" fill="#FFC342"/>
<circle cx="312.119" cy="276.793" r="5.99209" transform="rotate(146.771 312.119 276.793)" fill="#FFC342"/>
<circle cx="217.666" cy="281.515" r="5.99209" transform="rotate(146.771 217.666 281.515)" fill="#FFC342"/>
<circle cx="234.982" cy="190.211" r="5.99209" transform="rotate(146.771 234.982 190.211)" fill="#FFC342"/>
<circle cx="321.564" cy="196.508" r="5.99209" transform="rotate(146.771 321.564 196.508)" fill="#FFC342"/>
<circle cx="371.938" cy="239.012" r="5.99209" transform="rotate(146.771 371.938 239.012)" fill="#EFEDFF"/>
<circle cx="370.364" cy="224.844" r="5.99209" transform="rotate(146.771 370.364 224.844)" fill="#EFEDFF"/>
<circle cx="340.454" cy="204.379" r="5.99209" transform="rotate(146.771 340.454 204.379)" fill="#EFEDFF"/>
<circle cx="379.81" cy="205.953" r="5.99209" transform="rotate(146.771 379.81 205.953)" fill="#FFC342"/>
<circle cx="90.1547" cy="229.566" r="5.99209" transform="rotate(146.771 90.1547 229.566)" fill="#FFC342"/>
<circle cx="183.033" cy="290.961" r="5.99209" transform="rotate(146.771 183.033 290.961)" fill="#FFC342"/>
<circle cx="102.749" cy="267.347" r="5.99209" transform="rotate(146.771 102.749 267.347)" fill="#F6821F"/>
<circle cx="181.459" cy="183.914" r="5.99209" transform="rotate(146.771 181.459 183.914)" fill="#F6821F"/>
<circle cx="384.532" cy="272.07" r="5.99209" transform="rotate(146.771 384.532 272.07)" fill="#F6821F"/>
<circle cx="412.867" cy="245.308" r="5.99209" transform="rotate(146.771 412.867 245.308)" fill="#F6821F"/>
<circle cx="211.369" cy="183.914" r="5.99209" transform="rotate(146.771 211.369 183.914)" fill="#FFC342"/>
<circle cx="389.917" cy="175.133" r="11.0195" transform="rotate(146.771 389.917 175.133)" fill="#F6821F"/>
<circle cx="300.188" cy="142.074" r="11.0195" transform="rotate(146.771 300.188 142.074)" fill="#F6821F"/>
<circle cx="111.284" cy="149.945" r="11.0195" transform="rotate(146.771 111.284 149.945)" fill="#F6821F"/>
<circle cx="15.5354" cy="328.11" r="11.0195" transform="rotate(-139.522 15.5354 328.11)" fill="#F6821F"/>
<circle cx="436.744" cy="313.263" r="5.0454" transform="rotate(146.771 436.744 313.263)" fill="#F6821F"/>
<circle cx="96.716" cy="152.694" r="5.0454" transform="rotate(146.771 96.716 152.694)" fill="#F6821F"/>
<circle cx="485.545" cy="174.733" r="5.0454" transform="rotate(146.771 485.545 174.733)" fill="#F6821F"/>
<circle cx="31.3112" cy="352.603" r="5.0454" transform="rotate(-139.522 31.3112 352.603)" fill="#F6821F"/>
<ellipse cx="91.4057" cy="281.048" rx="7.87105" ry="15.7421" transform="rotate(-37.6195 91.4057 281.048)" fill="#F6821F"/>
<ellipse cx="156.558" cy="322.904" rx="12.473" ry="33.107" transform="rotate(-66.8208 156.558 322.904)" fill="#F6821F"/>
<ellipse cx="275.398" cy="347.319" rx="17.3369" ry="46.0174" transform="rotate(-85.9072 275.398 347.319)" fill="#F6821F"/>
<ellipse cx="221.419" cy="141.28" rx="17.3369" ry="46.0174" transform="rotate(-87.6814 221.419 141.28)" fill="#F6821F"/>
<path d="M342.152 87.2971L271.72 233.981L406.058 325.797L259.374 255.364L167.558 389.703L237.991 243.019L103.652 151.203L250.336 221.635L342.152 87.2971Z" fill="url(#paint0_radial_2_71)"/>
<g clip-path="url(#clip0_2_71)">
<path d="M242.236 249.192V241.334C242.236 237.615 240.89 235.445 238.031 234.935C241.37 234.06 242.273 231.288 242.273 227.751C242.273 222.756 240.447 219.638 234.564 219.638H223.996V252H231.023V237.925H232.757C234.453 237.925 235.246 239.073 235.246 240.623V249.229C235.246 250.669 235.542 251.708 235.744 252H242.845C242.605 251.727 242.236 250.614 242.236 249.192ZM232.886 232.473L231.023 232.51V225.199H233.144C234.748 225.199 235.283 226.366 235.283 228.918C235.283 231.471 234.693 232.473 232.886 232.473Z" fill="black"/>
<path d="M163.392 246.494C164.646 245.455 164.867 244.178 164.867 243.03V238.198H158.043V244.762C158.043 245.692 157.269 246.457 156.328 246.457C155.388 246.457 154.668 245.692 154.668 244.762V226.165C154.668 225.235 155.369 224.47 156.328 224.47C157.269 224.47 158.043 225.235 158.043 226.165V232.765H164.867V225.91C164.849 222.118 162.341 219 156.254 219C149.984 219 147.623 222.136 147.623 225.91V245.327C147.623 249.083 150.629 251.927 154.484 251.927H156.605L163.392 246.494Z" fill="black"/>
<path d="M351.143 249.174V241.316C351.143 237.597 349.797 235.427 346.938 234.917C350.276 234.041 351.18 231.27 351.18 227.733C351.18 222.738 349.354 219.62 343.471 219.62H332.903V251.982H339.948V237.907H341.663C343.36 237.907 344.153 239.055 344.153 240.605V249.21C344.153 250.651 344.448 251.708 344.651 251.982H351.752C351.53 251.708 351.143 250.596 351.143 249.174ZM341.793 232.455H339.93V225.162H342.069C343.674 225.162 344.209 226.329 344.209 228.882C344.209 231.452 343.618 232.455 341.793 232.455Z" fill="black"/>
<path d="M324.806 219.565H315.345L309.738 251.982H316.857L317.558 246.257H322.649L323.349 251.982H330.468L324.806 219.565ZM318.277 240.35L320.103 225.254L321.929 240.35H318.277Z" fill="black"/>
<path d="M277.684 251.982V219.638H284.895V245.838H292.402V251.982H277.684Z" fill="black"/>
<path d="M273.866 219.638H266.655V251.982H273.866V219.638Z" fill="black"/>
<path d="M294.135 251.982V219.638H301.347V245.838H308.853V251.982H294.135Z" fill="black"/>
<path d="M256.677 219.638H245.685V252H252.731V239.165H256.677C263.151 239.165 264.239 235.081 264.239 229.41C264.239 223.704 263.151 219.638 256.677 219.638ZM254.851 233.422L252.712 233.403V225.199H254.851C256.677 225.199 256.991 226.439 256.991 229.392C256.991 232.455 256.677 233.422 254.851 233.422Z" fill="black"/>
<path d="M211.824 225.801V232.218H219.293V238.545H211.824V245.728H220.695V251.964L204.612 251.982V219.62H220.4V225.801H211.824Z" fill="black"/>
<path d="M190.319 247.26V225.928H185.616V219.638H202.676V225.928H197.936V251.891H195.907L190.319 247.26Z" fill="black"/>
<path d="M193.38 251.927L176.763 238.162L159.537 251.927H193.38Z" fill="#FCB912"/>
<path d="M181.503 219.675H171.986L166.435 244.27L176.763 236.029L187.534 244.944L181.503 219.675ZM174.919 234.461L176.763 225.162L178.589 234.461H174.919Z" fill="black"/>
<path d="M360.623 221.899C360.623 223.412 359.406 224.634 357.875 224.634C356.344 224.634 355.108 223.412 355.108 221.899C355.108 220.386 356.344 219.182 357.875 219.182C359.406 219.182 360.623 220.386 360.623 221.899ZM360.107 221.899C360.107 220.677 359.092 219.693 357.875 219.693C356.621 219.693 355.625 220.677 355.625 221.899C355.625 223.12 356.621 224.123 357.875 224.123C359.111 224.123 360.107 223.12 360.107 221.899ZM357.525 223.485H356.805V220.313H358.152C358.65 220.313 358.963 220.604 358.963 221.151C358.963 221.552 358.797 221.862 358.318 221.935V221.954C358.484 221.954 358.945 221.99 358.945 222.573C358.945 222.774 358.963 223.376 359.018 223.503H358.299C358.207 223.303 358.207 223.102 358.207 222.883C358.207 222.519 358.262 222.191 357.709 222.191H357.525V223.485ZM357.525 221.717H357.856C358.152 221.717 358.244 221.461 358.244 221.243C358.244 220.951 358.096 220.823 357.856 220.823H357.525V221.717Z" fill="black"/>
</g>
<defs>
<radialGradient id="paint0_radial_2_71" cx="0" cy="0" r="1" gradientUnits="userSpaceOnUse" gradientTransform="translate(254.334 239.403) rotate(120) scale(173.552)">
<stop offset="0.461538" stop-color="#EFEDFF"/>
<stop offset="1" stop-color="#FFE57E"/>
</radialGradient>
<clipPath id="clip0_2_71">
<rect width="213" height="33" fill="white" transform="translate(147.623 219)"/>
</clipPath>
</defs>
</svg>
