<svg width="1728" height="3703" viewBox="0 0 1728 3703" fill="none" xmlns="http://www.w3.org/2000/svg">
<g clip-path="url(#clip0_5014_1367)">
<rect width="1728" height="3703" fill="url(#paint0_linear_5014_1367)"/>
<circle cx="86.6029" cy="86.6029" r="85.3529" transform="matrix(-1 0 0 1 1723.21 154)" fill="url(#paint1_linear_5014_1367)" stroke="#FFE6B4" stroke-width="2.5"/>
<g opacity="0.8" filter="url(#filter0_f_5014_1367)">
<ellipse cx="79.3476" cy="81.766" rx="79.3476" ry="81.766" transform="matrix(-1 0 0 1 1718.14 174.5)" fill="#FFFEE9"/>
</g>
<g opacity="0.5">
<ellipse cx="441.633" cy="810.355" rx="279.35" ry="188.355" fill="#022838"/>
<ellipse cx="441.633" cy="810.355" rx="279.35" ry="188.355" fill="#022838"/>
<ellipse cx="441.633" cy="810.355" rx="279.35" ry="188.355" fill="#022838"/>
<ellipse cx="441.633" cy="810.355" rx="279.35" ry="188.355" fill="#F0F2E4"/>
<ellipse cx="803.729" cy="894.367" rx="162.585" ry="139.573" fill="#022838"/>
<ellipse cx="803.729" cy="894.367" rx="162.585" ry="139.573" fill="#022838"/>
<ellipse cx="803.729" cy="894.367" rx="162.585" ry="139.573" fill="#022838"/>
<ellipse cx="803.729" cy="894.367" rx="162.585" ry="139.573" fill="#F0F2E4"/>
<path d="M224.317 949.113C224.317 1026.49 151.525 1020.28 61.7322 1020.28C-28.0609 1020.28 -100.853 1026.49 -100.853 949.113C-100.853 871.734 -28.0609 809.006 61.7322 809.006C151.525 809.006 224.317 871.734 224.317 949.113Z" fill="#022838"/>
<path d="M224.317 949.113C224.317 1026.49 151.525 1020.28 61.7322 1020.28C-28.0609 1020.28 -100.853 1026.49 -100.853 949.113C-100.853 871.734 -28.0609 809.006 61.7322 809.006C151.525 809.006 224.317 871.734 224.317 949.113Z" fill="#022838"/>
<path d="M224.317 949.113C224.317 1026.49 151.525 1020.28 61.7322 1020.28C-28.0609 1020.28 -100.853 1026.49 -100.853 949.113C-100.853 871.734 -28.0609 809.006 61.7322 809.006C151.525 809.006 224.317 871.734 224.317 949.113Z" fill="#022838"/>
<path d="M224.317 949.113C224.317 1026.49 151.525 1020.28 61.7322 1020.28C-28.0609 1020.28 -100.853 1026.49 -100.853 949.113C-100.853 871.734 -28.0609 809.006 61.7322 809.006C151.525 809.006 224.317 871.734 224.317 949.113Z" fill="#F0F2E4"/>
<path d="M1078.64 1002.37C1078.64 1040.28 806.687 1032.33 475.346 1032.33C144.005 1032.33 -157 1043.75 -157 1005.84C-157 967.926 136.184 922.83 467.525 922.83C798.867 922.83 1078.64 964.459 1078.64 1002.37Z" fill="#022838"/>
<path d="M1078.64 1002.37C1078.64 1040.28 806.687 1032.33 475.346 1032.33C144.005 1032.33 -157 1043.75 -157 1005.84C-157 967.926 136.184 922.83 467.525 922.83C798.867 922.83 1078.64 964.459 1078.64 1002.37Z" fill="#022838"/>
<path d="M1078.64 1002.37C1078.64 1040.28 806.687 1032.33 475.346 1032.33C144.005 1032.33 -157 1043.75 -157 1005.84C-157 967.926 136.184 922.83 467.525 922.83C798.867 922.83 1078.64 964.459 1078.64 1002.37Z" fill="#022838"/>
<path d="M1078.64 1002.37C1078.64 1040.28 806.687 1032.33 475.346 1032.33C144.005 1032.33 -157 1043.75 -157 1005.84C-157 967.926 136.184 922.83 467.525 922.83C798.867 922.83 1078.64 964.459 1078.64 1002.37Z" fill="#F0F2E4"/>
</g>
<path opacity="0.45" d="M-11.5918 3614.33V3861H1742V3587.42L1634.63 3553L1525.05 3574.55L1138.62 3650.56L1009.01 3611.62L917.01 3583.98L785.539 3628.48L781.786 3629.75L722.738 3649.74L697.312 3658.34L685.321 3656.53L669.028 3654.07L546.775 3635.61L430.585 3618.07L387.46 3608.15L316.763 3591.89L205.236 3566.23L166.074 3574.91L85.9296 3592.69L73.6673 3595.41L48.1513 3601.08L10.2341 3609.48L9.26709 3609.7L-11.5918 3614.33Z" fill="#529FAF"/>
<rect x="600.392" y="3542.65" width="1125.81" height="30.7098" fill="#FFDCAA"/>
<rect x="601.698" y="3558.33" width="1125.81" height="30.7098" fill="#C08A5F"/>
<rect x="601.698" y="3565.52" width="1125.81" height="30.7098" fill="#FFDCAA"/>
<rect x="601.698" y="3591.65" width="1125.81" height="30.7098" fill="#C08A5F"/>
<rect x="601.698" y="3598.84" width="1125.81" height="30.7098" fill="#FFDCAA"/>
<rect x="600.392" y="3614.52" width="1125.81" height="30.7098" fill="#FFDCAA"/>
<rect x="601.698" y="3630.2" width="1125.81" height="30.7098" fill="#C08A5F"/>
<rect x="601.698" y="3637.39" width="1125.81" height="30.7098" fill="#FFDCAA"/>
<rect x="601.698" y="3663.53" width="1125.81" height="30.7098" fill="#C08A5F"/>
<rect x="601.698" y="3670.71" width="1125.81" height="30.7098" fill="#FFDCAA"/>
<path d="M1194.66 3562.9V3593.94" stroke="#C08A5F" stroke-width="6.534"/>
<path d="M1702.02 3562.9V3593.94" stroke="#C08A5F" stroke-width="6.534"/>
<path d="M1404.07 3634.78V3665.81" stroke="#C08A5F" stroke-width="6.534"/>
<path d="M1099.59 3668.1V3701.42" stroke="#C08A5F" stroke-width="6.534"/>
<path d="M857.831 3598.84V3629.87" stroke="#C08A5F" stroke-width="6.534"/>
<g clip-path="url(#clip1_5014_1367)">
<path d="M1204.35 2954.04V2976.05H1220.78V2923C1220.78 2923 1204.35 2937.13 1204.35 2954.04Z" fill="#FFDCAA"/>
<path d="M1237.24 2954.04V2976.05H1220.81V2923C1220.81 2923 1237.24 2937.13 1237.24 2954.04Z" fill="#FFDCAA"/>
<path d="M1639.93 3497.62H801.639V3519.24H1639.93V3497.62Z" fill="#FFDCAA"/>
<path d="M1639.93 3180.2H801.639V3201.82H1639.93V3180.2Z" fill="#FFDCAA"/>
<path d="M1639.93 3128.36H801.639V3149.98H1639.93V3128.36Z" fill="#FFDCAA"/>
<path d="M1639.95 3128.36L1631.93 3148.41L1220.78 2984.16L809.664 3148.41L801.639 3128.36L1220.78 2960.88L1639.95 3128.36Z" fill="#FFDCAA"/>
<path d="M1623.99 3149.98H817.583V3180.22H1623.99V3149.98Z" fill="#C08A5F"/>
<path d="M801.639 3540.68H1639.93V3519.21H801.639V3540.68Z" fill="#E3B383"/>
<path d="M1597.61 3201.82H835.205V3497.61H1597.61V3201.82Z" fill="#C08A5F"/>
<path d="M858.077 3237.01H829.868V3462.44H858.077V3237.01Z" fill="#FFDCAA"/>
<path d="M817.583 3201.82V3214.15C824.361 3214.15 829.869 3219.63 829.869 3226.41H858.077C858.077 3219.63 863.564 3214.15 870.363 3214.15V3201.82H817.583Z" fill="#E3B383"/>
<path d="M858.077 3226.41H829.868C826.942 3226.41 824.575 3228.77 824.575 3231.7C824.575 3234.63 826.942 3236.99 829.868 3236.99H858.077C861.003 3236.99 863.37 3234.63 863.37 3231.7C863.37 3228.77 861.003 3226.41 858.077 3226.41Z" fill="#E3B383"/>
<path d="M817.583 3497.61V3485.29C824.361 3485.29 829.869 3479.8 829.869 3473.03H858.077C858.077 3479.8 863.564 3485.29 870.363 3485.29V3497.61H817.583Z" fill="#E3B383"/>
<path d="M858.077 3473.03H829.868C826.942 3473.03 824.575 3470.66 824.575 3467.73C824.575 3464.81 826.942 3462.44 829.868 3462.44H858.077C861.003 3462.44 863.37 3464.81 863.37 3467.73C863.37 3470.66 861.003 3473.03 858.077 3473.03Z" fill="#E3B383"/>
<path d="M965.746 3237.01H937.538V3462.44H965.746V3237.01Z" fill="#FFDCAA"/>
<path d="M925.252 3201.82V3214.15C932.03 3214.15 937.538 3219.63 937.538 3226.41H965.746C965.746 3219.63 971.233 3214.15 978.032 3214.15V3201.82H925.273H925.252Z" fill="#E3B383"/>
<path d="M965.725 3226.41H937.517C934.59 3226.41 932.224 3228.77 932.224 3231.7C932.224 3234.63 934.59 3236.99 937.517 3236.99H965.725C968.651 3236.99 971.018 3234.63 971.018 3231.7C971.018 3228.77 968.651 3226.41 965.725 3226.41Z" fill="#E3B383"/>
<path d="M925.252 3497.61V3485.29C932.03 3485.29 937.538 3479.8 937.538 3473.03H965.746C965.746 3479.8 971.233 3485.29 978.032 3485.29V3497.61H925.273H925.252Z" fill="#E3B383"/>
<path d="M965.725 3473.03H937.517C934.59 3473.03 932.224 3470.66 932.224 3467.73C932.224 3464.81 934.59 3462.44 937.517 3462.44H965.725C968.651 3462.44 971.018 3464.81 971.018 3467.73C971.018 3470.66 968.651 3473.03 965.725 3473.03Z" fill="#E3B383"/>
<path d="M1073.39 3237.01H1045.19V3462.44H1073.39V3237.01Z" fill="#FFDCAA"/>
<path d="M1032.92 3201.82V3214.15C1039.7 3214.15 1045.21 3219.63 1045.21 3226.41H1073.42C1073.42 3219.63 1078.9 3214.15 1085.7 3214.15V3201.82H1032.94H1032.92Z" fill="#E3B383"/>
<path d="M1073.4 3226.41H1045.19C1042.26 3226.41 1039.89 3228.77 1039.89 3231.7C1039.89 3234.63 1042.26 3236.99 1045.19 3236.99H1073.4C1076.32 3236.99 1078.69 3234.63 1078.69 3231.7C1078.69 3228.77 1076.32 3226.41 1073.4 3226.41Z" fill="#E3B383"/>
<path d="M1032.92 3497.61V3485.29C1039.7 3485.29 1045.21 3479.8 1045.21 3473.03H1073.42C1073.42 3479.8 1078.9 3485.29 1085.7 3485.29V3497.61H1032.94H1032.92Z" fill="#E3B383"/>
<path d="M1073.4 3473.03H1045.19C1042.26 3473.03 1039.89 3470.66 1039.89 3467.73C1039.89 3464.81 1042.26 3462.44 1045.19 3462.44H1073.4C1076.32 3462.44 1078.69 3464.81 1078.69 3467.73C1078.69 3470.66 1076.32 3473.03 1073.4 3473.03Z" fill="#E3B383"/>
<path d="M1181.06 3237.01H1152.86V3462.44H1181.06V3237.01Z" fill="#FFDCAA"/>
<path d="M1140.57 3201.82V3214.15C1147.35 3214.15 1152.86 3219.63 1152.86 3226.41H1181.06C1181.06 3219.63 1186.55 3214.15 1193.35 3214.15V3201.82H1140.59H1140.57Z" fill="#E3B383"/>
<path d="M1181.06 3226.41H1152.86C1149.93 3226.41 1147.56 3228.77 1147.56 3231.7C1147.56 3234.63 1149.93 3236.99 1152.86 3236.99H1181.06C1183.99 3236.99 1186.36 3234.63 1186.36 3231.7C1186.36 3228.77 1183.99 3226.41 1181.06 3226.41Z" fill="#E3B383"/>
<path d="M1140.57 3497.61V3485.29C1147.35 3485.29 1152.86 3479.8 1152.86 3473.03H1181.06C1181.06 3479.8 1186.55 3485.29 1193.35 3485.29V3497.61H1140.59H1140.57Z" fill="#E3B383"/>
<path d="M1181.06 3473.03H1152.86C1149.93 3473.03 1147.56 3470.66 1147.56 3467.73C1147.56 3464.81 1149.93 3462.44 1152.86 3462.44H1181.06C1183.99 3462.44 1186.36 3464.81 1186.36 3467.73C1186.36 3470.66 1183.99 3473.03 1181.06 3473.03Z" fill="#E3B383"/>
<path d="M1288.73 3237.01H1260.53V3462.44H1288.73V3237.01Z" fill="#FFDCAA"/>
<path d="M1248.24 3201.82V3214.15C1255.02 3214.15 1260.53 3219.63 1260.53 3226.41H1288.73C1288.73 3219.63 1294.22 3214.15 1301.02 3214.15V3201.82H1248.26H1248.24Z" fill="#E3B383"/>
<path d="M1288.71 3226.41H1260.5C1257.58 3226.41 1255.21 3228.77 1255.21 3231.7C1255.21 3234.63 1257.58 3236.99 1260.5 3236.99H1288.71C1291.64 3236.99 1294.01 3234.63 1294.01 3231.7C1294.01 3228.77 1291.64 3226.41 1288.71 3226.41Z" fill="#E3B383"/>
<path d="M1248.24 3497.61V3485.29C1255.02 3485.29 1260.53 3479.8 1260.53 3473.03H1288.73C1288.73 3479.8 1294.22 3485.29 1301.02 3485.29V3497.61H1248.26H1248.24Z" fill="#E3B383"/>
<path d="M1288.71 3473.03H1260.5C1257.58 3473.03 1255.21 3470.66 1255.21 3467.73C1255.21 3464.81 1257.58 3462.44 1260.5 3462.44H1288.71C1291.64 3462.44 1294.01 3464.81 1294.01 3467.73C1294.01 3470.66 1291.64 3473.03 1288.71 3473.03Z" fill="#E3B383"/>
<path d="M1396.38 3237.01H1368.17V3462.44H1396.38V3237.01Z" fill="#FFDCAA"/>
<path d="M1355.91 3201.82V3214.15C1362.69 3214.15 1368.19 3219.63 1368.19 3226.41H1396.4C1396.4 3219.63 1401.89 3214.15 1408.69 3214.15V3201.82H1355.93H1355.91Z" fill="#E3B383"/>
<path d="M1396.38 3226.41H1368.17C1365.25 3226.41 1362.88 3228.77 1362.88 3231.7C1362.88 3234.63 1365.25 3236.99 1368.17 3236.99H1396.38C1399.31 3236.99 1401.67 3234.63 1401.67 3231.7C1401.67 3228.77 1399.31 3226.41 1396.38 3226.41Z" fill="#E3B383"/>
<path d="M1355.91 3497.61V3485.29C1362.69 3485.29 1368.19 3479.8 1368.19 3473.03H1396.4C1396.4 3479.8 1401.89 3485.29 1408.69 3485.29V3497.61H1355.93H1355.91Z" fill="#E3B383"/>
<path d="M1396.38 3473.03H1368.17C1365.25 3473.03 1362.88 3470.66 1362.88 3467.73C1362.88 3464.81 1365.25 3462.44 1368.17 3462.44H1396.38C1399.31 3462.44 1401.67 3464.81 1401.67 3467.73C1401.67 3470.66 1399.31 3473.03 1396.38 3473.03Z" fill="#E3B383"/>
<path d="M1504.05 3237.01H1475.84V3462.44H1504.05V3237.01Z" fill="#FFDCAA"/>
<path d="M1463.58 3201.82V3214.15C1470.36 3214.15 1475.86 3219.63 1475.86 3226.41H1504.07C1504.07 3219.63 1509.56 3214.15 1516.36 3214.15V3201.82H1463.6H1463.58Z" fill="#E3B383"/>
<path d="M1504.05 3226.41H1475.84C1472.92 3226.41 1470.55 3228.77 1470.55 3231.7C1470.55 3234.63 1472.92 3236.99 1475.84 3236.99H1504.05C1506.98 3236.99 1509.34 3234.63 1509.34 3231.7C1509.34 3228.77 1506.98 3226.41 1504.05 3226.41Z" fill="#E3B383"/>
<path d="M1463.58 3497.61V3485.29C1470.36 3485.29 1475.86 3479.8 1475.86 3473.03H1504.07C1504.07 3479.8 1509.56 3485.29 1516.36 3485.29V3497.61H1463.6H1463.58Z" fill="#E3B383"/>
<path d="M1504.05 3473.03H1475.84C1472.92 3473.03 1470.55 3470.66 1470.55 3467.73C1470.55 3464.81 1472.92 3462.44 1475.84 3462.44H1504.05C1506.98 3462.44 1509.34 3464.81 1509.34 3467.73C1509.34 3470.66 1506.98 3473.03 1504.05 3473.03Z" fill="#E3B383"/>
<path d="M1611.72 3237.01H1583.51V3462.44H1611.72V3237.01Z" fill="#FFDCAA"/>
<path d="M1571.23 3201.82V3214.15C1578 3214.15 1583.51 3219.63 1583.51 3226.41H1611.72C1611.72 3219.63 1617.21 3214.15 1624.01 3214.15V3201.82H1571.25H1571.23Z" fill="#E3B383"/>
<path d="M1611.72 3226.41H1583.51C1580.59 3226.41 1578.22 3228.77 1578.22 3231.7C1578.22 3234.63 1580.59 3236.99 1583.51 3236.99H1611.72C1614.65 3236.99 1617.01 3234.63 1617.01 3231.7C1617.01 3228.77 1614.65 3226.41 1611.72 3226.41Z" fill="#E3B383"/>
<path d="M1571.23 3497.61V3485.29C1578 3485.29 1583.51 3479.8 1583.51 3473.03H1611.72C1611.72 3479.8 1617.21 3485.29 1624.01 3485.29V3497.61H1571.25H1571.23Z" fill="#E3B383"/>
<path d="M1611.72 3473.03H1583.51C1580.59 3473.03 1578.22 3470.66 1578.22 3467.73C1578.22 3464.81 1580.59 3462.44 1583.51 3462.44H1611.72C1614.65 3462.44 1617.01 3464.81 1617.01 3467.73C1617.01 3470.66 1614.65 3473.03 1611.72 3473.03Z" fill="#E3B383"/>
<path d="M801.639 3090V3128.36H826.577V3114.93C826.577 3101.16 815.409 3090 801.639 3090Z" fill="#FFDCAA"/>
<path d="M1639.93 3090V3128.36H1614.99V3114.93C1614.99 3101.16 1626.16 3090 1639.93 3090Z" fill="#FFDCAA"/>
<path d="M1220.78 2984.16L859.862 3128.36H1581.7L1220.78 2984.16Z" fill="#E3B383"/>
<path d="M833.139 3180.2H854.764V3149.95H833.139V3180.2Z" fill="#E3B383"/>
<path d="M886.974 3180.2H908.599V3149.95H886.974V3180.2Z" fill="#E3B383"/>
<path d="M940.809 3180.2H962.434V3149.95H940.809V3180.2Z" fill="#E3B383"/>
<path d="M994.665 3180.2H1016.29V3149.95H994.665V3180.2Z" fill="#E3B383"/>
<path d="M1048.48 3180.2H1070.1V3149.95H1048.48V3180.2Z" fill="#E3B383"/>
<path d="M1102.31 3180.2H1123.94V3149.95H1102.31V3180.2Z" fill="#E3B383"/>
<path d="M1156.15 3180.2H1177.77V3149.95H1156.15V3180.2Z" fill="#E3B383"/>
<path d="M1209.96 3180.2H1231.59V3149.95H1209.96V3180.2Z" fill="#E3B383"/>
<path d="M1263.8 3180.2H1285.42V3149.95H1263.8V3180.2Z" fill="#E3B383"/>
<path d="M1317.63 3180.2H1339.25V3149.95H1317.63V3180.2Z" fill="#E3B383"/>
<path d="M1371.49 3180.2H1393.11V3149.95H1371.49V3180.2Z" fill="#E3B383"/>
<path d="M1425.3 3180.2H1446.92V3149.95H1425.3V3180.2Z" fill="#E3B383"/>
<path d="M1479.14 3180.2H1500.76V3149.95H1479.14V3180.2Z" fill="#E3B383"/>
<path d="M1532.97 3180.2H1554.59V3149.95H1532.97V3180.2Z" fill="#E3B383"/>
<path d="M1586.78 3180.2H1608.41V3149.95H1586.78V3180.2Z" fill="#E3B383"/>
</g>
<path d="M547.323 3167.1C521.095 3161.58 511.9 3153.89 504.162 3132.88C498.845 3154.01 489.982 3161.89 461 3167.1C489.918 3173 498.216 3181.21 504.162 3201.33C512.915 3182.02 518.048 3171.37 547.323 3167.1Z" fill="#E28B79" fill-opacity="0.5"/>
<g opacity="0.5">
<ellipse cx="1557.51" cy="284.718" rx="94.5" ry="63.7178" fill="#022838"/>
<ellipse cx="1557.51" cy="284.718" rx="94.5" ry="63.7178" fill="#022838"/>
<ellipse cx="1557.51" cy="284.718" rx="94.5" ry="63.7178" fill="#022838"/>
<ellipse cx="1557.51" cy="284.718" rx="94.5" ry="63.7178" fill="#F0F2E4"/>
<ellipse cx="1680" cy="313.137" rx="55" ry="47.2153" fill="#022838"/>
<ellipse cx="1680" cy="313.137" rx="55" ry="47.2153" fill="#022838"/>
<ellipse cx="1680" cy="313.137" rx="55" ry="47.2153" fill="#022838"/>
<ellipse cx="1680" cy="313.137" rx="55" ry="47.2153" fill="#F0F2E4"/>
<path d="M1483.99 331.658C1483.99 357.834 1459.37 355.732 1428.99 355.732C1398.62 355.732 1373.99 357.834 1373.99 331.658C1373.99 305.482 1398.62 284.262 1428.99 284.262C1459.37 284.262 1483.99 305.482 1483.99 331.658Z" fill="#022838"/>
<path d="M1483.99 331.658C1483.99 357.834 1459.37 355.732 1428.99 355.732C1398.62 355.732 1373.99 357.834 1373.99 331.658C1373.99 305.482 1398.62 284.262 1428.99 284.262C1459.37 284.262 1483.99 305.482 1483.99 331.658Z" fill="#022838"/>
<path d="M1483.99 331.658C1483.99 357.834 1459.37 355.732 1428.99 355.732C1398.62 355.732 1373.99 357.834 1373.99 331.658C1373.99 305.482 1398.62 284.262 1428.99 284.262C1459.37 284.262 1483.99 305.482 1483.99 331.658Z" fill="#022838"/>
<path d="M1483.99 331.658C1483.99 357.834 1459.37 355.732 1428.99 355.732C1398.62 355.732 1373.99 357.834 1373.99 331.658C1373.99 305.482 1398.62 284.262 1428.99 284.262C1459.37 284.262 1483.99 305.482 1483.99 331.658Z" fill="#F0F2E4"/>
<path d="M1773 349.673C1773 362.498 1681 359.809 1568.91 359.809C1456.83 359.809 1355 363.671 1355 350.846C1355 338.021 1454.18 322.766 1566.27 322.766C1678.36 322.766 1773 336.848 1773 349.673Z" fill="#022838"/>
<path d="M1773 349.673C1773 362.498 1681 359.809 1568.91 359.809C1456.83 359.809 1355 363.671 1355 350.846C1355 338.021 1454.18 322.766 1566.27 322.766C1678.36 322.766 1773 336.848 1773 349.673Z" fill="#022838"/>
<path d="M1773 349.673C1773 362.498 1681 359.809 1568.91 359.809C1456.83 359.809 1355 363.671 1355 350.846C1355 338.021 1454.18 322.766 1566.27 322.766C1678.36 322.766 1773 336.848 1773 349.673Z" fill="#022838"/>
<path d="M1773 349.673C1773 362.498 1681 359.809 1568.91 359.809C1456.83 359.809 1355 363.671 1355 350.846C1355 338.021 1454.18 322.766 1566.27 322.766C1678.36 322.766 1773 336.848 1773 349.673Z" fill="#F0F2E4"/>
</g>
<path d="M1057.68 274.662C1049.3 263.183 1028.1 247.111 1010.29 274.662C992.03 253.891 981.61 253.667 961.86 274.662" stroke="white" stroke-opacity="0.5" stroke-width="15" stroke-linecap="round" stroke-linejoin="round"/>
<path d="M825.459 319.475C821.836 314.748 812.663 308.13 804.954 319.475C797.054 310.922 792.546 310.83 784 319.475" stroke="white" stroke-opacity="0.5" stroke-width="15" stroke-linecap="round" stroke-linejoin="round"/>
<path d="M213.017 2908.37C185.142 2902.51 175.369 2894.33 167.144 2872C161.494 2894.46 152.074 2902.84 121.271 2908.37C152.006 2914.64 160.825 2923.37 167.144 2944.75C176.447 2924.23 181.903 2912.91 213.017 2908.37Z" fill="#A8CBB7" fill-opacity="0.5"/>
<path d="M1621 2906.34C1582.72 2899.51 1569.3 2890 1558 2864C1550.24 2890.15 1537.3 2899.9 1495 2906.34C1537.21 2913.63 1549.32 2923.8 1558 2948.69C1570.78 2924.8 1578.27 2911.62 1621 2906.34Z" fill="#FFF9E5"/>
<path d="M139.882 3451.61C141.493 3476.86 117.696 3499.14 103.054 3510.38C96.2882 3515.58 91.426 3524.07 89.4533 3533.98C87.3278 3544.7 83.6048 3559.29 77.395 3572.83C69.157 3590.81 33.1765 3599.86 12.7413 3603.62C19.7012 3600.18 27.3279 3595.93 33.0376 3591.37C46.8046 3580.4 83.3408 3493.69 83.3408 3493.69L-10.6113 3487.21L-1.48423 3544.85L-5.5685 3611.64C-5.5685 3611.64 -4.05427 3611.08 -1.58148 3610.07V3703C4.7672 3668.1 44.9014 3640.75 44.9014 3640.75C44.9014 3640.75 98.4832 3602.06 107.902 3558.68C117.307 3515.29 156.385 3453.74 156.385 3453.74L161.47 3436.04C161.47 3436.04 137.575 3415.29 139.895 3451.61H139.882Z" fill="url(#paint2_linear_5014_1367)"/>
<mask id="mask0_5014_1367" style="mask-type:luminance" maskUnits="userSpaceOnUse" x="-11" y="3430" width="173" height="273">
<path d="M139.882 3451.61C141.493 3476.86 117.696 3499.14 103.054 3510.38C96.2882 3515.58 91.426 3524.07 89.4533 3533.99C87.3278 3544.7 83.6048 3559.29 77.395 3572.83C69.157 3590.81 33.1765 3599.86 12.7413 3603.62C19.7012 3600.18 27.3279 3595.93 33.0376 3591.37C46.8046 3580.4 83.3408 3493.69 83.3408 3493.69L-10.6113 3487.21L-1.48423 3544.85L-5.5685 3611.64C-5.5685 3611.64 -4.05427 3611.08 -1.58148 3610.07V3703C4.7672 3668.1 44.9014 3640.75 44.9014 3640.75C44.9014 3640.75 98.4832 3602.07 107.902 3558.68C117.307 3515.29 156.385 3453.74 156.385 3453.74L161.47 3436.04C161.47 3436.04 137.575 3415.3 139.895 3451.61H139.882Z" fill="white"/>
</mask>
<g mask="url(#mask0_5014_1367)">
<path d="M140.048 3462.09C146.591 3462.88 152.717 3461.11 158.552 3457.24L153.648 3446.3C147.869 3450.18 141.437 3449.9 135.797 3445.78C131.615 3442.72 126.6 3448.91 129.143 3454.45C133.935 3464.89 142.812 3471.12 152.19 3469.65L150.898 3457.22C146.48 3458.16 142.229 3456.39 138.923 3452.55L133.032 3462.5C138.881 3467.26 145.299 3469.56 152.203 3469.44V3456.77C144.785 3457.62 137.367 3458.47 129.948 3459.32C123.766 3460.02 123.711 3472.71 129.948 3471.99C137.367 3471.14 144.785 3470.29 152.203 3469.44C158.33 3468.73 158.566 3456.66 152.203 3456.77C146.938 3456.86 142.41 3455.19 137.95 3451.55C133.491 3447.91 127.892 3456.67 132.06 3461.51C138.172 3468.59 145.452 3471.16 153.495 3469.44C158.844 3468.28 157.649 3456.13 152.203 3457C146.133 3457.94 140.743 3455.05 137.547 3448.08L130.893 3456.75C139.659 3463.16 149.647 3463.25 158.566 3457.27C164.137 3453.53 159.219 3442.63 153.662 3446.34C149.3 3449.24 144.91 3450.07 140.076 3449.47C133.852 3448.71 133.894 3461.38 140.076 3462.14L140.048 3462.09Z" fill="url(#paint3_linear_5014_1367)"/>
<g opacity="0.59">
<path d="M148.02 3448.31C143.491 3447.28 139.115 3451.62 140.115 3458.07C140.532 3460.8 141.796 3462.97 143.658 3464.37C145.255 3465.58 147.381 3465.6 148.839 3466.9L152.59 3455.32C146.756 3452.42 140.379 3452.26 134.419 3454.57C129.793 3456.38 129.807 3464.96 134.419 3466.79C136.42 3467.59 138.406 3468.37 140.407 3469.16V3456.95L138.115 3458.2C135.878 3459.43 134.239 3461.76 134.628 3465.15C134.961 3468.04 136.962 3470.88 139.407 3470.63L150.548 3469.53C156.744 3468.91 156.8 3456.24 150.548 3456.86L139.407 3457.96L140.699 3470.4L142.991 3469.15C147.2 3466.83 147.978 3458.9 142.991 3456.93L137.003 3454.56V3466.78C141.463 3465.04 145.672 3465.36 150.006 3467.52C155.452 3470.21 157.994 3459.77 153.757 3455.93C152.771 3455.05 151.687 3454.47 150.548 3454.03C150.09 3453.87 149.645 3453.74 149.173 3453.62C148.228 3453.16 148.2 3453.29 149.103 3454L149.77 3457.2L149.728 3457.02L148.478 3459.81L148.548 3459.7L144.797 3460.33L145.45 3460.48C151.576 3461.87 154.202 3449.65 148.034 3448.26L148.02 3448.31Z" fill="url(#paint4_linear_5014_1367)"/>
</g>
<g opacity="0.73">
<path d="M135.712 3462.99L153.883 3464.49C159.342 3464.95 160.509 3453.63 155.175 3452.06C147.659 3449.81 140.13 3447.57 132.614 3445.32L131.322 3457.76C133.614 3457.78 135.642 3458.14 137.768 3459.35V3448.42C134.003 3450.63 130.252 3452.85 126.487 3455.06C122.389 3457.47 124.056 3465.09 127.654 3466.65C138.337 3471.26 149.396 3471.59 160.273 3467.82C166.316 3465.72 163.746 3453.51 157.689 3455.61C148.409 3458.83 139.352 3458.36 130.252 3454.43L131.419 3466.01C135.184 3463.81 138.935 3461.58 142.7 3459.37C145.839 3457.52 145.923 3450.25 142.7 3448.44C138.921 3446.3 135.49 3445.16 131.336 3445.13C125.946 3445.07 124.612 3455.95 130.044 3457.56C137.559 3459.81 145.089 3462.05 152.605 3464.29L153.897 3451.86L135.726 3450.36C129.474 3449.83 129.502 3462.5 135.726 3463.03L135.712 3462.99Z" fill="#2B2306"/>
</g>
<g opacity="0.73">
<path d="M-0.3177 3533.7C13.6299 3545.03 28.9529 3556.49 46.0402 3552.97C61.8077 3549.73 71.0181 3533.08 77.214 3515.32C79.2283 3509.53 75.1163 3503.76 70.5597 3506.65C51.2358 3518.98 30.1754 3531.83 8.39263 3522.87L5.80871 3535.09C23.3405 3541.61 41.1779 3547.38 59.3488 3541.75L55.5979 3530.17C51.5136 3532.77 47.4849 3533.91 42.9422 3533.99L45.4011 3545.79C51.3747 3541.34 57.3622 3536.88 63.3358 3532.43C67.3506 3529.44 65.8086 3520.16 60.8769 3520.63C37.8299 3522.78 14.8802 3520.66 -7.6805 3514.11C-13.7791 3512.34 -16.3769 3524.56 -10.2644 3526.33C13.1159 3533.12 36.9825 3535.54 60.8769 3533.3L58.418 3521.5C52.4444 3525.95 46.4569 3530.4 40.4833 3534.85C36.3157 3537.95 38.1078 3546.75 42.9422 3546.66C49.2215 3546.55 54.8755 3544.68 60.5018 3541.1C65.6002 3537.84 61.9466 3527.92 56.751 3529.51C40.3861 3534.58 24.1324 3528.72 8.39263 3522.85C2.34958 3520.61 -0.137103 3532.63 5.80871 3535.07C30.231 3545.14 53.7781 3531.42 75.4775 3517.59L68.8232 3508.92C63.4608 3524.28 56.1953 3539.53 41.942 3540.88C27.6887 3542.24 15.7971 3531.87 4.5862 3522.75C-0.734463 3518.42 -5.62447 3529.37 -0.3177 3533.68V3533.7Z" fill="#2B2306"/>
</g>
<g opacity="0.73">
<path d="M3.47611 3610.36C26.6759 3615.3 50.737 3606.79 68.7967 3587.17C70.9777 3584.8 68.63 3580.16 66.0877 3581.12C48.6671 3587.71 31.2325 3594.28 13.8118 3600.87C10.8528 3601.99 11.3529 3608.09 14.5481 3607.99C26.5648 3607.59 38.9982 3606.88 49.7645 3599.13C52.8902 3596.87 50.0979 3590.63 46.9583 3592.89C37.0949 3599.98 25.5367 3600.38 14.5481 3600.74L15.2844 3607.86C32.7051 3601.27 50.1396 3594.7 67.5603 3588.11L64.8513 3582.06C48.4587 3599.86 25.9952 3607.88 4.93478 3603.39C3.46222 3603.08 1.94798 3603.89 1.51733 3605.92C1.15613 3607.66 1.96187 3610.05 3.46222 3610.37L3.47611 3610.36Z" fill="#2B2306"/>
</g>
<g opacity="0.73">
<path d="M70.5587 3584.98C86.354 3569.01 90.7856 3542.22 102.969 3522.6C106.331 3517.19 110.207 3512.47 114.888 3509.04C117.667 3507 115.777 3501.44 112.749 3502.42C98.6485 3507 87.132 3522.26 83.909 3540.72C83.2422 3544.51 87.6321 3547.42 88.9935 3543.51C95.5645 3524.59 109.693 3513.39 122.849 3503.14C125.946 3500.74 123.224 3494.85 120.042 3496.9C117.069 3498.8 114.097 3500.7 111.138 3502.6L113.944 3508.85C122.571 3503.31 129.156 3493.77 132.865 3482.25C133.448 3480.44 132.24 3478.27 130.92 3477.8C129.322 3477.22 128.086 3478.53 127.502 3480.34C124.349 3490.09 118.375 3497.95 111.138 3502.6C107.928 3504.66 110.749 3510.89 113.944 3508.85C116.917 3506.94 119.89 3505.04 122.849 3503.14L120.042 3496.9C106.136 3507.72 91.1468 3519.87 84.2008 3539.87L89.2853 3542.66C92.1054 3526.55 101.927 3513.41 114.249 3509.41L112.11 3502.78C94.2864 3515.81 88.549 3542.88 77.866 3563.76C74.7541 3569.85 71.1005 3575.37 66.6551 3579.84C65.4742 3581.03 65.6826 3583.69 66.6551 3584.96C67.822 3586.48 69.3918 3586.16 70.5865 3584.96L70.5587 3584.98Z" fill="#2B2306"/>
</g>
</g>
<path d="M188.824 3258.19C193.547 3244.13 196.186 3228.58 196.186 3212.25C196.186 3148.88 156.761 3097.49 108.111 3097.49C78.0481 3097.49 51.5142 3117.13 35.6216 3147.09C23.9801 3136.71 10.088 3129.36 -5.09605 3126.09C-5.20718 3157.13 -5.49892 3188.18 -5.97125 3219.22C-7.02705 3287.84 -8.93026 3356.45 -11.4031 3425.02C-12.445 3454.03 -13.7786 3483.03 -14.9316 3512.05C0.516356 3521.35 17.937 3526.6 36.4135 3526.6C92.8987 3526.6 139.812 3477.58 149.217 3413.12C153.552 3414.14 158.011 3414.66 162.595 3414.66C200.646 3414.66 231.5 3378.26 231.5 3333.37C231.5 3299.45 213.871 3270.38 188.837 3258.19H188.824Z" fill="#2A431D"/>
<path d="M168.735 3283.48C172.75 3272.13 174.972 3259.71 174.972 3246.68C174.972 3193.39 137.978 3150.2 92.3563 3150.2C66.2531 3150.2 42.9838 3164.36 27.8415 3186.44C19.4506 3174.04 8.03136 3164.08 -5.27726 3157.79C-5.43007 3178.28 -5.66624 3198.75 -5.98575 3219.24C-7.04155 3287.86 -8.94477 3356.47 -11.4176 3425.04C-12.2233 3447.48 -13.2096 3469.91 -14.1543 3492.35C3.00242 3505.66 23.9378 3513.5 46.568 3513.5C87.0912 3513.5 122.238 3488.41 139.881 3451.63C145.188 3453 150.703 3453.74 156.371 3453.74C197.589 3453.74 230.999 3415.37 230.999 3368.02C230.999 3325.51 204.063 3290.25 168.735 3283.48Z" fill="url(#paint5_linear_5014_1367)"/>
<path d="M-252 3179.02C-252 3127.1 -211.338 3085 -161.174 3085C-111.009 3085 -70.3471 3127.09 -70.3471 3179.02C-70.3471 3200.47 -77.3071 3220.24 -88.9903 3236.06C-87.3649 3235.97 -85.7257 3235.91 -84.0864 3235.91C-78.1128 3235.91 -72.292 3236.53 -66.638 3237.67C-59.4141 3193.23 -22.0861 3159.34 22.8965 3159.34C70.1435 3159.34 108.944 3196.69 113.292 3244.4C158.997 3249.31 194.63 3289.29 194.63 3337.9C194.63 3386.5 160.539 3424.71 116.279 3431.01C116.279 3431.32 116.307 3431.61 116.307 3431.91C116.307 3483.83 75.6447 3525.93 25.4804 3525.93C-12.5144 3525.93 -45.0358 3501.79 -58.5944 3467.5C-73.7785 3497.48 -104.105 3517.95 -139.071 3517.95C-189.236 3517.95 -229.898 3475.86 -229.898 3423.93C-229.898 3385.07 -207.115 3351.71 -174.607 3337.39C-174.802 3334.93 -174.913 3332.43 -174.913 3329.91C-174.913 3308.46 -167.953 3288.7 -156.27 3272.87C-157.895 3272.97 -159.534 3273.02 -161.174 3273.02C-211.338 3273.02 -252 3230.93 -252 3179V3179.02Z" fill="url(#paint6_linear_5014_1367)"/>
<mask id="mask1_5014_1367" style="mask-type:luminance" maskUnits="userSpaceOnUse" x="-252" y="3085" width="447" height="441">
<path d="M-252 3179.02C-252 3127.1 -211.338 3085 -161.174 3085C-111.009 3085 -70.3471 3127.09 -70.3471 3179.02C-70.3471 3200.47 -77.3071 3220.24 -88.9903 3236.06C-87.3649 3235.97 -85.7257 3235.91 -84.0864 3235.91C-78.1128 3235.91 -72.292 3236.53 -66.638 3237.67C-59.4141 3193.23 -22.0861 3159.34 22.8965 3159.34C70.1435 3159.34 108.944 3196.69 113.292 3244.4C158.997 3249.31 194.63 3289.29 194.63 3337.9C194.63 3386.5 160.539 3424.71 116.279 3431.01C116.279 3431.32 116.307 3431.61 116.307 3431.91C116.307 3483.83 75.6447 3525.93 25.4804 3525.93C-12.5144 3525.93 -45.0358 3501.79 -58.5944 3467.5C-73.7785 3497.48 -104.105 3517.95 -139.071 3517.95C-189.236 3517.95 -229.898 3475.86 -229.898 3423.93C-229.898 3385.07 -207.115 3351.71 -174.607 3337.39C-174.802 3334.93 -174.913 3332.43 -174.913 3329.91C-174.913 3308.46 -167.953 3288.7 -156.27 3272.87C-157.895 3272.97 -159.534 3273.02 -161.174 3273.02C-211.338 3273.02 -252 3230.93 -252 3179V3179.02Z" fill="white"/>
</mask>
<g mask="url(#mask1_5014_1367)">
<path d="M-5.06695 3109.93C-5.10863 3134.49 -5.24755 3159.07 -5.52539 3183.63C9.11686 3174.57 28.7464 3167.72 55.0858 3165.44C132.52 3158.71 50.807 3127.83 -5.06695 3109.93Z" fill="url(#paint7_linear_5014_1367)"/>
<path d="M96.4698 3387.37C109.125 3404.58 109.306 3425 104.902 3443.39C94.9694 3484.88 65.9072 3514.27 32.6079 3516.66C15.215 3517.91 -0.788687 3512.23 -14.5974 3503.78C-14.903 3511.41 -15.2087 3519.05 -15.5004 3526.71C-15.8477 3535.96 -16.195 3545.19 -16.584 3554.42L57.2663 3561.32L131.269 3513.46L182.323 3435.97L188.435 3372.16C165.097 3417.07 96.4837 3387.37 96.4837 3387.37H96.4698Z" fill="url(#paint8_linear_5014_1367)"/>
</g>
<path d="M164.152 3482.96C169.192 3482.96 173.279 3476.05 173.279 3467.54C173.279 3459.02 169.192 3452.11 164.152 3452.11C159.111 3452.11 155.024 3459.02 155.024 3467.54C155.024 3476.05 159.111 3482.96 164.152 3482.96Z" fill="url(#paint9_linear_5014_1367)"/>
<path d="M163.86 3480.59C168.418 3480.59 172.112 3474.35 172.112 3466.65C172.112 3458.95 168.418 3452.71 163.86 3452.71C159.303 3452.71 155.608 3458.95 155.608 3466.65C155.608 3474.35 159.303 3480.59 163.86 3480.59Z" fill="url(#paint10_linear_5014_1367)"/>
<path d="M163.86 3457.09C164.896 3457.09 165.735 3456.25 165.735 3455.21C165.735 3454.17 164.896 3453.33 163.86 3453.33C162.824 3453.33 161.984 3454.17 161.984 3455.21C161.984 3456.25 162.824 3457.09 163.86 3457.09Z" fill="url(#paint11_linear_5014_1367)"/>
<path d="M58.0431 3551.06C63.0839 3551.06 67.1702 3544.15 67.1702 3535.63C67.1702 3527.12 63.0839 3520.21 58.0431 3520.21C53.0024 3520.21 48.916 3527.12 48.916 3535.63C48.916 3544.15 53.0024 3551.06 58.0431 3551.06Z" fill="url(#paint12_linear_5014_1367)"/>
<path d="M57.7519 3548.68C62.3093 3548.68 66.0038 3542.44 66.0038 3534.75C66.0038 3527.05 62.3093 3520.81 57.7519 3520.81C53.1945 3520.81 49.5 3527.05 49.5 3534.75C49.5 3542.44 53.1945 3548.68 57.7519 3548.68Z" fill="url(#paint13_linear_5014_1367)"/>
<path d="M57.7504 3525.19C58.7862 3525.19 59.6259 3524.35 59.6259 3523.31C59.6259 3522.27 58.7862 3521.42 57.7504 3521.42C56.7147 3521.42 55.875 3522.27 55.875 3523.31C55.875 3524.35 56.7147 3525.19 57.7504 3525.19Z" fill="url(#paint14_linear_5014_1367)"/>
</g>
<defs>
<filter id="filter0_f_5014_1367" x="1459.44" y="74.5" width="358.695" height="363.531" filterUnits="userSpaceOnUse" color-interpolation-filters="sRGB">
<feFlood flood-opacity="0" result="BackgroundImageFix"/>
<feBlend mode="normal" in="SourceGraphic" in2="BackgroundImageFix" result="shape"/>
<feGaussianBlur stdDeviation="50" result="effect1_foregroundBlur_5014_1367"/>
</filter>
<linearGradient id="paint0_linear_5014_1367" x1="864" y1="0" x2="864" y2="3703" gradientUnits="userSpaceOnUse">
<stop stop-color="#6BAEC5"/>
<stop offset="1" stop-color="#FFF3DB"/>
</linearGradient>
<linearGradient id="paint1_linear_5014_1367" x1="81.6793" y1="-14.6829" x2="86.6908" y2="251.28" gradientUnits="userSpaceOnUse">
<stop stop-color="#FFFFC6"/>
<stop offset="1" stop-color="#FFB84E"/>
</linearGradient>
<linearGradient id="paint2_linear_5014_1367" x1="-10.6113" y1="3566.55" x2="161.47" y2="3566.55" gradientUnits="userSpaceOnUse">
<stop stop-color="#3B3C0A"/>
<stop offset="1" stop-color="#553610"/>
</linearGradient>
<linearGradient id="paint3_linear_5014_1367" x1="129.879" y1="3458.47" x2="156.427" y2="3458.47" gradientUnits="userSpaceOnUse">
<stop stop-color="#3B3C0A"/>
<stop offset="1" stop-color="#553610"/>
</linearGradient>
<linearGradient id="paint4_linear_5014_1367" x1="133.364" y1="3459.43" x2="154.549" y2="3459.43" gradientUnits="userSpaceOnUse">
<stop stop-color="#3B3C0A"/>
<stop offset="1" stop-color="#553610"/>
</linearGradient>
<linearGradient id="paint5_linear_5014_1367" x1="108.429" y1="3513.46" x2="108.429" y2="3037.97" gradientUnits="userSpaceOnUse">
<stop stop-color="#244113"/>
<stop offset="1" stop-color="#70704A"/>
</linearGradient>
<linearGradient id="paint6_linear_5014_1367" x1="-28.6987" y1="3085" x2="-28.6987" y2="3525.91" gradientUnits="userSpaceOnUse">
<stop stop-color="#909960"/>
<stop offset="1" stop-color="#597326"/>
</linearGradient>
<linearGradient id="paint7_linear_5014_1367" x1="40.6519" y1="3097" x2="40.6519" y2="3275.72" gradientUnits="userSpaceOnUse">
<stop stop-color="#909960"/>
<stop offset="1" stop-color="#597326"/>
</linearGradient>
<linearGradient id="paint8_linear_5014_1367" x1="85.9118" y1="3324.68" x2="85.9118" y2="3561.32" gradientUnits="userSpaceOnUse">
<stop stop-color="#909960"/>
<stop offset="0.05" stop-color="#808C51"/>
<stop offset="0.13" stop-color="#6A7A3C"/>
<stop offset="0.23" stop-color="#596D2D"/>
<stop offset="0.35" stop-color="#4D6322"/>
<stop offset="0.52" stop-color="#465E1B"/>
<stop offset="1" stop-color="#455D1A"/>
</linearGradient>
<linearGradient id="paint9_linear_5014_1367" x1="164.152" y1="3482.96" x2="164.152" y2="3452.1" gradientUnits="userSpaceOnUse">
<stop stop-color="#AEB643"/>
<stop offset="1" stop-color="#948D40"/>
</linearGradient>
<linearGradient id="paint10_linear_5014_1367" x1="163.86" y1="3480.61" x2="163.86" y2="3452.71" gradientUnits="userSpaceOnUse">
<stop stop-color="#DBE252"/>
<stop offset="1" stop-color="#E2D361"/>
</linearGradient>
<linearGradient id="paint11_linear_5014_1367" x1="161.984" y1="3455.21" x2="165.735" y2="3455.21" gradientUnits="userSpaceOnUse">
<stop stop-color="#AEB643"/>
<stop offset="1" stop-color="#948D40"/>
</linearGradient>
<linearGradient id="paint12_linear_5014_1367" x1="58.0431" y1="3551.06" x2="58.0431" y2="3520.19" gradientUnits="userSpaceOnUse">
<stop stop-color="#AEB643"/>
<stop offset="1" stop-color="#948D40"/>
</linearGradient>
<linearGradient id="paint13_linear_5014_1367" x1="57.7519" y1="3548.7" x2="57.7519" y2="3520.81" gradientUnits="userSpaceOnUse">
<stop stop-color="#DBE252"/>
<stop offset="1" stop-color="#E2D361"/>
</linearGradient>
<linearGradient id="paint14_linear_5014_1367" x1="55.875" y1="3523.31" x2="59.6259" y2="3523.31" gradientUnits="userSpaceOnUse">
<stop stop-color="#AEB643"/>
<stop offset="1" stop-color="#948D40"/>
</linearGradient>
<clipPath id="clip0_5014_1367">
<rect width="1728" height="3703" fill="white"/>
</clipPath>
<clipPath id="clip1_5014_1367">
<rect width="838.312" height="617.704" fill="white" transform="translate(801.639 2923)"/>
</clipPath>
</defs>
</svg>
