<svg width="1586" height="870" viewBox="0 0 1586 870" fill="none" xmlns="http://www.w3.org/2000/svg">
<mask id="path-1-outside-1_3002_860" maskUnits="userSpaceOnUse" x="3.74384" y="-2.00615" width="901.755" height="873.707" fill="black">
<rect fill="white" x="3.74384" y="-2.00615" width="901.755" height="873.707"/>
<path d="M283.203 336.398C286.145 268.089 324.279 203.264 373.266 158.472C422.258 113.68 481.303 86.1849 540.165 63.0406C562.202 54.3753 585.281 46.1051 607.728 49.1231C630.174 52.1465 651.733 69.7612 653.35 95.0697C655.74 132.415 617.054 159.499 583.581 167.01C550.109 174.521 512.801 174.495 486.53 200.302C456.924 229.383 454.536 278.047 454.595 320.451C454.597 324.147 454.703 328.15 456.789 330.847C459.748 334.66 465.214 334.17 469.888 333.396C520.738 324.985 577.328 318.952 616.029 352.749C639.641 373.371 652.519 405.794 673.569 429.591C705.823 466.06 757.338 482.814 775.662 530.378C783.595 550.968 784.195 575.377 794.841 594.211C803.546 609.613 818.94 621.626 819.651 640.377C820.491 662.517 797.661 681.056 778.035 678.854C758.404 676.656 743.374 659.493 734.773 640.157C726.178 620.821 722.532 598.936 716.079 578.446C712.778 567.968 708.397 557.367 700.29 551.159C691.994 544.807 681.112 544.025 671.494 540.352C654.716 533.949 642.235 518.981 626.928 509.328C611.621 499.675 589.395 496.832 576.585 512.283C625.132 588.8 620.166 705.075 564.956 784.715C550.853 790.973 537.279 775.087 535.669 758.79C534.059 742.494 539.662 725.833 540.724 709.259C544.867 644.67 482.347 602.494 474.643 539.301C464.207 542.482 453.777 545.657 443.341 548.838C450.045 597.968 456.743 648.249 448.23 698.299C439.722 748.35 412.939 799.002 370.816 820.322C358.847 826.383 341.916 828.047 336.87 815.345C333.667 807.289 337.165 797.569 340.24 788.934C364.494 720.787 362.786 643.537 335.637 581.094C326.294 559.606 310.907 537.854 288.925 537.882C269.237 537.904 252.306 555.316 237.859 571.529C202.674 611.01 167.643 650.66 132.756 690.472C115.954 678.596 93.718 681.173 73.5348 678.328C53.3517 675.484 31.156 661.655 32.3208 638.628C33.5433 614.412 58.1567 600.579 76.2997 585.875C93.2216 572.164 106.948 553.317 115.42 532.16C124.164 510.329 127.261 486.635 134.373 464.189C155.626 397.11 215.714 345.073 277.995 339.81"/>
</mask>
<path d="M283.203 336.398C286.145 268.089 324.279 203.264 373.266 158.472C422.258 113.68 481.303 86.1849 540.165 63.0406C562.202 54.3753 585.281 46.1051 607.728 49.1231C630.174 52.1465 651.733 69.7612 653.35 95.0697C655.74 132.415 617.054 159.499 583.581 167.01C550.109 174.521 512.801 174.495 486.53 200.302C456.924 229.383 454.536 278.047 454.595 320.451C454.597 324.147 454.703 328.15 456.789 330.847C459.748 334.66 465.214 334.17 469.888 333.396C520.738 324.985 577.328 318.952 616.029 352.749C639.641 373.371 652.519 405.794 673.569 429.591C705.823 466.06 757.338 482.814 775.662 530.378C783.595 550.968 784.195 575.377 794.841 594.211C803.546 609.613 818.94 621.626 819.651 640.377C820.491 662.517 797.661 681.056 778.035 678.854C758.404 676.656 743.374 659.493 734.773 640.157C726.178 620.821 722.532 598.936 716.079 578.446C712.778 567.968 708.397 557.367 700.29 551.159C691.994 544.807 681.112 544.025 671.494 540.352C654.716 533.949 642.235 518.981 626.928 509.328C611.621 499.675 589.395 496.832 576.585 512.283C625.132 588.8 620.166 705.075 564.956 784.715C550.853 790.973 537.279 775.087 535.669 758.79C534.059 742.494 539.662 725.833 540.724 709.259C544.867 644.67 482.347 602.494 474.643 539.301C464.207 542.482 453.777 545.657 443.341 548.838C450.045 597.968 456.743 648.249 448.23 698.299C439.722 748.35 412.939 799.002 370.816 820.322C358.847 826.383 341.916 828.047 336.87 815.345C333.667 807.289 337.165 797.569 340.24 788.934C364.494 720.787 362.786 643.537 335.637 581.094C326.294 559.606 310.907 537.854 288.925 537.882C269.237 537.904 252.306 555.316 237.859 571.529C202.674 611.01 167.643 650.66 132.756 690.472C115.954 678.596 93.718 681.173 73.5348 678.328C53.3517 675.484 31.156 661.655 32.3208 638.628C33.5433 614.412 58.1567 600.579 76.2997 585.875C93.2216 572.164 106.948 553.317 115.42 532.16C124.164 510.329 127.261 486.635 134.373 464.189C155.626 397.11 215.714 345.073 277.995 339.81" fill="url(#paint0_linear_3002_860)"/>
<path d="M373.266 158.472L369.946 154.892L369.946 154.892L373.266 158.472ZM540.165 63.0406L541.837 67.649L541.837 67.649L540.165 63.0406ZM607.728 49.1231L608.624 44.1971L608.623 44.1969L607.728 49.1231ZM653.35 95.0697L648.335 95.6051L648.335 95.6055L653.35 95.0697ZM486.53 200.302L489.989 203.751L489.989 203.751L486.53 200.302ZM454.595 320.451L459.62 320.224L459.62 320.22L454.595 320.451ZM456.789 330.847L452.749 333.979L452.752 333.983L456.789 330.847ZM469.888 333.396L469.278 328.494L469.278 328.495L469.888 333.396ZM616.029 352.749L619.449 348.958L619.449 348.958L616.029 352.749ZM673.569 429.591L677.415 426.223L677.414 426.223L673.569 429.591ZM775.662 530.378L770.956 532.328L770.956 532.328L775.662 530.378ZM794.841 594.211L799.254 591.639L799.254 591.638L794.841 594.211ZM819.651 640.377L814.63 640.787L814.63 640.787L819.651 640.377ZM778.035 678.854L778.823 673.914L778.821 673.914L778.035 678.854ZM734.773 640.157L730.158 642.327L730.159 642.328L734.773 640.157ZM716.079 578.446L720.882 576.775L720.882 576.775L716.079 578.446ZM700.29 551.159L703.475 547.177L703.475 547.177L700.29 551.159ZM671.494 540.352L673.484 535.704L673.484 535.704L671.494 540.352ZM576.585 512.283L572.757 509.236L570.402 512.077L572.295 515.06L576.585 512.283ZM564.956 784.715L566.838 789.235L568.207 788.628L569.059 787.398L564.956 784.715ZM540.724 709.259L535.709 709.167L535.709 709.167L540.724 709.259ZM474.643 539.301L479.632 538.488L478.946 532.854L473.363 534.556L474.643 539.301ZM443.341 548.838L442.061 544.093L437.771 545.401L438.361 549.72L443.341 548.838ZM448.23 698.299L443.276 697.691L443.276 697.691L448.23 698.299ZM370.816 820.322L368.69 815.917L368.689 815.918L370.816 820.322ZM336.87 815.345L341.558 813.349L341.557 813.348L336.87 815.345ZM340.24 788.934L344.971 790.395L344.971 790.395L340.24 788.934ZM335.637 581.094L340.267 578.959L340.267 578.959L335.637 581.094ZM288.925 537.882L288.704 542.853L288.705 542.853L288.925 537.882ZM237.859 571.529L241.562 574.72L241.562 574.72L237.859 571.529ZM132.756 690.472L129.715 694.56L133.395 697.161L136.489 693.63L132.756 690.472ZM32.3208 638.628L37.3394 638.653L37.3394 638.653L32.3208 638.628ZM76.2997 585.875L73.2219 582.087L73.2215 582.087L76.2997 585.875ZM115.42 532.16L110.759 530.511L110.759 530.512L115.42 532.16ZM134.373 464.189L139.163 465.478L139.163 465.478L134.373 464.189ZM283.203 336.398L288.224 336.387C291.094 269.738 328.368 206.141 376.586 162.052L373.266 158.472L369.946 154.892C320.19 200.388 281.197 266.439 278.183 336.41L283.203 336.398ZM373.266 158.472L376.585 162.052C424.827 117.946 483.115 90.7383 541.837 67.649L540.165 63.0406L538.493 58.4322C479.491 81.6314 419.689 109.414 369.946 154.892L373.266 158.472ZM540.165 63.0406L541.837 67.649C564.01 58.9304 585.876 51.2317 606.832 54.0493L607.728 49.1231L608.623 44.1969C584.686 40.9786 560.394 49.8203 538.493 58.4322L540.165 63.0406ZM607.728 49.1231L606.831 54.0491C627.498 56.8329 646.892 73.0289 648.335 95.6051L653.35 95.0697L658.365 94.5343C656.573 66.4935 632.849 47.4601 608.624 44.1971L607.728 49.1231ZM653.35 95.0697L648.335 95.6055C649.406 112.336 641.341 127.01 628.597 138.645C615.804 150.326 598.63 158.586 582.681 162.165L583.581 167.01L584.481 171.856C602.005 167.923 620.911 158.885 635.231 145.81C649.601 132.69 659.684 115.149 658.365 94.5339L653.35 95.0697ZM583.581 167.01L582.681 162.165C574.48 164.005 566.031 165.387 557.362 166.853C548.753 168.309 539.954 169.844 531.344 171.976C514.094 176.247 497.164 183.01 483.071 196.854L486.53 200.302L489.989 203.751C502.167 191.787 517.027 185.66 533.367 181.614C541.551 179.588 549.997 178.108 558.619 176.65C567.18 175.202 575.946 173.771 584.481 171.856L583.581 167.01ZM486.53 200.302L483.071 196.854C467.234 212.41 458.914 232.97 454.513 254.613C450.114 276.248 449.54 299.448 449.57 320.681L454.595 320.451L459.62 320.22C459.59 299.05 460.181 276.715 464.363 256.148C468.543 235.587 476.22 217.275 489.989 203.751L486.53 200.302ZM454.595 320.451L449.57 320.678C449.571 322.516 449.592 324.793 449.946 327.014C450.303 329.248 451.047 331.78 452.749 333.979L456.789 330.847L460.83 327.715C460.445 327.217 460.093 326.399 459.875 325.034C459.655 323.655 459.621 322.081 459.62 320.224L454.595 320.451ZM456.789 330.847L452.752 333.983C455.25 337.203 458.74 338.43 461.915 338.782C464.975 339.122 468.106 338.694 470.499 338.298L469.888 333.396L469.278 328.495C466.996 328.872 465.057 329.077 463.476 328.902C462.009 328.739 461.287 328.304 460.827 327.71L456.789 330.847ZM469.888 333.396L470.498 338.298C521.673 329.834 575.844 324.433 612.61 356.54L616.029 352.749L619.449 348.958C578.812 313.471 519.802 320.137 469.278 328.494L469.888 333.396ZM616.029 352.749L612.61 356.539C623.872 366.375 632.69 379.132 641.488 392.783C650.172 406.259 658.899 420.721 669.723 432.958L673.569 429.591L677.414 426.223C667.189 414.663 658.952 401.016 650.032 387.175C641.226 373.51 631.799 359.744 619.449 348.958L616.029 352.749ZM673.569 429.591L669.723 432.958C686.25 451.645 707.898 465.454 726.655 479.807C745.691 494.373 762.277 509.8 770.956 532.328L775.662 530.378L780.368 528.427C770.723 503.391 752.39 486.66 733.024 471.841C713.378 456.808 693.142 444.006 677.415 426.223L673.569 429.591ZM775.662 530.378L770.956 532.328C774.761 542.203 776.801 552.97 779.326 564.235C781.803 575.285 784.733 586.707 790.429 596.783L794.841 594.211L799.254 591.638C794.303 582.881 791.61 572.681 789.142 561.67C786.723 550.875 784.496 539.142 780.368 528.427L775.662 530.378ZM794.841 594.211L790.429 596.783C792.756 600.901 795.496 604.732 798.202 608.354C800.964 612.052 803.607 615.425 806.055 618.967C810.898 625.975 814.325 632.767 814.63 640.787L819.651 640.377L824.672 639.968C824.265 629.236 819.641 620.646 814.433 613.109C811.855 609.379 808.973 605.689 806.379 602.216C803.728 598.668 801.279 595.222 799.254 591.639L794.841 594.211ZM819.651 640.377L814.63 640.787C814.982 650.058 810.381 658.809 803.263 665.106C796.101 671.442 786.921 674.823 778.823 673.914L778.035 678.854L777.248 683.793C788.776 685.087 800.823 680.3 809.773 672.382C818.766 664.426 825.161 652.836 824.672 639.968L819.651 640.377ZM778.035 678.854L778.821 673.914C761.768 672.005 747.754 656.795 739.388 637.986L734.773 640.157L730.159 642.328C738.994 662.192 755.04 681.307 777.25 683.793L778.035 678.854ZM734.773 640.157L739.388 637.987C735.246 628.67 732.262 618.658 729.485 608.264C726.738 597.984 724.151 587.152 720.882 576.775L716.079 578.446L711.275 580.117C714.46 590.23 716.923 600.586 719.761 611.205C722.568 621.71 725.705 632.309 730.158 642.327L734.773 640.157ZM716.079 578.446L720.882 576.775C717.575 566.278 712.854 554.358 703.475 547.177L700.29 551.159L697.104 555.141C703.94 560.375 707.98 569.659 711.275 580.117L716.079 578.446ZM700.29 551.159L703.475 547.177C698.623 543.462 693.145 541.479 688.008 539.978C682.585 538.394 678.069 537.454 673.484 535.704L671.494 540.352L669.503 545.001C674.537 546.923 680.271 548.21 684.767 549.524C689.55 550.921 693.66 552.505 697.104 555.141L700.29 551.159ZM671.494 540.352L673.484 535.704C665.841 532.787 659.012 527.853 651.938 522.15C645.043 516.59 637.724 510.122 629.762 505.101L626.928 509.328L624.093 513.554C631.44 518.187 638.015 524.029 645.381 529.968C652.568 535.763 660.368 541.514 669.504 545.001L671.494 540.352ZM626.928 509.328L629.762 505.101C621.482 499.88 611.209 496.405 601.038 496.421C590.754 496.437 580.366 500.059 572.757 509.236L576.585 512.283L580.412 515.331C585.614 509.056 592.743 506.374 600.601 506.362C608.573 506.35 617.066 509.123 624.093 513.554L626.928 509.328ZM576.585 512.283L572.295 515.06C619.764 589.877 614.945 704.004 560.852 782.031L564.956 784.715L569.059 787.398C625.387 706.146 630.501 587.724 580.875 509.507L576.585 512.283ZM564.956 784.715L563.073 780.194C558.568 782.193 553.731 780.979 549.236 776.594C544.713 772.182 541.371 765.183 540.67 758.087L535.669 758.79L530.668 759.494C531.577 768.694 535.827 777.786 542.019 783.826C548.239 789.894 557.241 793.494 566.838 789.235L564.956 784.715ZM535.669 758.79L540.67 758.087C539.931 750.605 540.835 742.897 542.156 734.694C543.446 726.679 545.187 717.953 545.739 709.35L540.724 709.259L535.709 709.167C535.198 717.139 533.607 725.031 532.233 733.564C530.889 741.91 529.797 750.68 530.668 759.494L535.669 758.79ZM540.724 709.259L545.739 709.351C547.918 675.38 532.511 647.527 516.466 621.061C500.183 594.2 483.332 568.835 479.632 538.488L474.643 539.301L469.654 540.114C473.658 572.959 491.919 600.278 507.785 626.452C523.891 653.019 537.673 678.548 535.709 709.167L540.724 709.259ZM474.643 539.301L473.363 534.556C468.146 536.146 462.93 537.735 457.713 539.324C452.497 540.913 447.28 542.503 442.061 544.093L443.341 548.838L444.621 553.583C449.838 551.993 455.055 550.404 460.271 548.815C465.488 547.226 470.705 545.636 475.923 544.046L474.643 539.301ZM443.341 548.838L438.361 549.72C445.081 598.969 451.641 648.509 443.276 697.691L448.23 698.299L453.184 698.908C461.845 647.989 455.009 596.968 448.321 547.957L443.341 548.838ZM448.23 698.299L443.276 697.691C434.904 746.943 408.693 795.671 368.69 815.917L370.816 820.322L372.943 824.726C417.185 802.334 444.541 749.758 453.185 698.908L448.23 698.299ZM370.816 820.322L368.689 815.918C363.315 818.639 357.024 820.25 351.801 819.909C346.766 819.581 343.23 817.558 341.558 813.349L336.87 815.345L332.181 817.341C335.556 825.834 343.009 829.329 350.693 829.83C358.189 830.318 366.348 828.066 372.944 824.726L370.816 820.322ZM336.87 815.345L341.557 813.348C340.422 810.492 340.372 807.087 341.138 803.061C341.91 799 343.405 794.794 344.971 790.395L340.24 788.934L335.508 787.473C334 791.71 332.209 796.681 331.264 801.652C330.312 806.659 330.115 812.142 332.182 817.342L336.87 815.345ZM340.24 788.934L344.971 790.395C369.635 721.1 367.921 642.563 340.267 578.959L335.637 581.094L331.007 583.229C357.65 644.51 359.354 720.475 335.508 787.473L340.24 788.934ZM335.637 581.094L340.267 578.959C335.478 567.944 329.03 556.588 320.744 547.919C312.448 539.24 301.939 532.895 289.144 532.911L288.925 537.882L288.705 542.853C297.893 542.841 306.068 547.358 313.297 554.92C320.535 562.492 326.453 572.756 331.007 583.229L335.637 581.094ZM288.925 537.882L289.145 532.911C277.746 532.924 267.488 537.978 258.505 544.724C249.537 551.458 241.385 560.225 234.155 568.337L237.859 571.529L241.562 574.72C248.78 566.62 256.317 558.575 264.349 552.544C272.364 546.525 280.416 542.862 288.704 542.853L288.925 537.882ZM237.859 571.529L234.155 568.337C198.96 607.83 163.92 647.491 129.023 687.314L132.756 690.472L136.489 693.63C171.366 653.829 206.387 614.19 241.562 574.72L237.859 571.529ZM132.756 690.472L135.797 686.383C126.443 679.772 115.739 677.312 105.226 676.077C99.9797 675.461 94.6343 675.137 89.5003 674.796C84.3095 674.452 79.3039 674.089 74.4616 673.407L73.5348 678.328L72.6081 683.25C77.8573 683.99 83.2 684.372 88.38 684.716C93.6169 685.063 98.665 685.37 103.601 685.95C113.452 687.107 122.268 689.296 129.715 694.56L132.756 690.472ZM73.5348 678.328L74.4616 673.407C65.135 672.092 55.4237 668.233 48.2823 662.205C41.2123 656.236 36.8491 648.345 37.3394 638.653L32.3208 638.628L27.3022 638.603C26.6276 651.938 32.7799 662.475 41.5623 669.889C50.2733 677.242 61.7514 681.72 72.6081 683.25L73.5348 678.328ZM32.3208 638.628L37.3394 638.653C37.8589 628.362 43.2983 620.021 51.4013 612.155C55.4592 608.216 60.0752 604.503 64.9123 600.792C69.6574 597.151 74.773 593.395 79.3779 589.663L76.2997 585.875L73.2215 582.087C68.7549 585.707 63.9902 589.195 58.9794 593.04C54.0604 596.814 49.0449 600.83 44.5288 605.214C35.4836 613.995 28.0051 624.679 27.3021 638.604L32.3208 638.628ZM76.2997 585.875L79.3774 589.664C97.0452 575.348 111.296 555.746 120.08 533.808L115.42 532.16L110.759 530.512C102.599 550.889 89.3981 568.98 73.2219 582.087L76.2997 585.875ZM115.42 532.16L120.08 533.809C124.601 522.522 127.632 510.831 130.394 499.348C133.182 487.761 135.677 476.479 139.163 465.478L134.373 464.189L129.584 462.899C125.958 474.345 123.348 486.133 120.623 497.462C117.872 508.896 114.982 519.967 110.759 530.511L115.42 532.16ZM134.373 464.189L139.163 465.478C159.881 400.085 218.361 349.82 278.199 344.763L277.995 339.81L277.792 334.858C213.068 340.327 151.37 394.135 129.584 462.899L134.373 464.189Z" fill="url(#paint1_linear_3002_860)" mask="url(#path-1-outside-1_3002_860)"/>
<path d="M286.298 336.689C287.736 304.964 296.747 273.766 311.095 245.079C325.304 216.671 344.623 190.741 367.031 168.67C390.341 145.715 417.001 126.725 444.9 110.776C472.839 94.8038 502.077 81.7403 531.612 69.8669C559.824 58.525 593.568 43.6253 622.188 56.7898C633.219 61.8611 642.783 70.8602 647.391 82.6668C652.014 94.5134 650.975 108.181 645.218 120.03C639.417 131.968 629.394 141.418 618.726 148.554C607.498 156.067 594.876 161.236 582.059 164.039C555.728 169.801 527.718 170.834 503.087 184.274C490.802 190.978 480.162 200.738 472.433 212.865C464.704 224.986 459.916 238.672 456.865 252.603C453.651 267.285 452.375 282.258 451.837 297.119C451.566 304.541 451.484 311.953 451.487 319.362C451.486 326.429 452.193 334.4 459.649 336.58C466.248 338.51 474.188 335.949 480.937 334.912C488.433 333.764 495.934 332.732 503.451 331.916C518.412 330.288 533.447 329.51 548.319 330.595C562.679 331.644 576.846 334.47 589.96 340.182C603.274 345.986 614.873 354.817 624.43 365.947C643.172 387.765 655.061 415.253 675.035 436.002C692.907 454.566 714.895 467.83 734.74 483.885C744.35 491.66 753.467 500.16 760.896 510.259C769.04 521.329 774.243 533.923 777.556 547.619C781.09 562.239 783.29 577.571 789.625 591.104C795.337 603.312 804.999 612.463 811.503 624.089C814.559 629.553 816.748 635.862 816.559 642.443C816.37 649.025 813.702 655.621 809.587 660.964C801.44 671.526 788.196 677.474 775.842 675.203C762.475 672.744 751.937 662.607 744.569 651.445C735.943 638.381 731.352 622.77 727.279 607.422C723.225 592.158 720.235 575.639 712.892 561.808C709.46 555.345 704.953 549.767 698.703 546.173C692.198 542.435 684.797 541.047 677.662 538.924C650.578 530.878 634.952 501.47 605.72 498.372C594.092 497.139 582.355 500.727 574.147 510.391C573.152 511.559 573.367 513.265 574.076 514.389C593.375 544.945 603.767 581.338 606.241 618.569C608.739 656.183 603.16 695.067 589.542 731.011C586.145 739.974 582.25 748.759 577.858 757.287C575.646 761.58 573.301 765.806 570.817 769.947C569.711 771.793 568.582 773.621 567.423 775.434C566.116 777.482 564.837 780.039 563.202 781.82C562.906 782.139 562.593 782.247 561.614 782.486C560.716 782.705 559.799 782.839 558.889 782.848C557 782.863 555.208 782.42 553.504 781.687C549.77 780.082 546.767 777.063 544.434 773.704C538.696 765.438 537.905 755.278 538.87 745.035C540.004 733.039 543.11 721.207 543.84 709.184C544.348 700.743 543.824 692.327 542.262 684.155C539.16 667.918 532.468 653.018 524.71 638.945C508.965 610.379 487.816 583.874 479.958 550.974C478.999 546.951 478.269 542.856 477.748 538.72C477.545 537.12 475.928 535.58 474.263 536.086C463.827 539.266 453.397 542.442 442.961 545.623C441.341 546.116 439.979 547.547 440.237 549.433C448.422 609.42 457.245 673.527 435.889 733.55C427.429 757.336 414.583 780.325 396.496 797.898C387.909 806.243 377.944 813.874 367.149 818.531C358.958 822.06 345.522 824.585 340.443 815.416C337.256 809.659 339.049 802.226 341.033 796.071C343.194 789.355 345.685 782.753 347.708 775.985C351.87 762.07 355.04 747.886 357.151 733.586C361.324 705.333 361.505 676.596 357.642 648.792C353.886 621.757 346.613 594.316 334.218 570.647C328.345 559.433 320.863 548.486 310.474 541.492C300.482 534.761 288.451 532.785 276.559 536.777C264.803 540.726 254.749 549.325 245.926 558.308C234.939 569.491 224.752 581.602 214.324 593.343C191.792 618.713 169.324 644.149 146.925 669.647C141.384 675.953 135.846 682.264 130.314 688.582L134.711 687.809C118.884 676.874 99.2134 677.559 80.6335 675.834C66.3753 674.509 51.526 670.143 42.1389 658.588C37.8906 653.359 35.2445 646.804 35.3827 639.656C35.5329 631.755 38.7584 624.422 43.5613 618.169C53.7271 604.948 68.5256 596.751 80.8758 586.126C95.1756 573.821 106.801 558.171 114.958 540.923C124.259 521.26 128.037 499.822 133.372 478.983C142.102 444.845 159.171 413.631 184.307 389.029C207.467 366.362 236.419 349.829 267.226 344.481C270.932 343.837 274.65 343.365 278.378 343.042C282.393 342.691 281.617 336.245 277.618 336.597C245.836 339.375 215.013 354.014 189.822 375.555C163.746 397.86 143.214 427.73 132.267 460.724C125.237 481.922 122.209 504.118 114.751 525.199C108.056 544.127 97.3083 561.705 83.0493 575.687C70.5604 587.93 55.188 596.382 43.1583 609.185C32.0378 621.022 25.5421 637.379 31.369 652.852C36.6665 666.927 50.3429 675.695 63.8518 679.599C81.4528 684.68 100.689 681.63 118.197 687.11C122.685 688.517 126.928 690.479 130.799 693.155C132.27 694.169 133.965 693.782 135.196 692.383C157.805 666.58 180.483 640.838 203.225 615.163C214.596 602.331 225.98 589.511 237.382 576.71C246.434 566.547 255.647 555.975 266.966 548.558C277.439 541.696 289.551 538.898 300.737 543.675C312.067 548.516 320.202 559.094 326.368 569.741C333.063 581.308 337.872 594.285 341.915 607.212C346.083 620.519 349.147 634.241 351.174 648.202C355.267 676.337 355.144 705.332 350.826 733.946C348.667 748.258 345.481 762.474 341.175 776.376C339.096 783.099 336.454 789.666 334.506 796.418C332.558 803.171 331.409 810.339 333.963 816.77C338.137 827.28 349.588 829.472 359.676 827.542C370.735 825.427 381.168 818.737 390.222 811.676C410.037 796.225 424.961 774.511 435.36 751.425C461.124 694.233 457.135 630.97 449.593 571.902C448.586 564.019 447.515 556.147 446.443 548.279L443.718 552.089C454.154 548.908 464.584 545.732 475.02 542.552L471.535 539.917C476.003 575.529 496.891 604.152 514.112 633.396C522.528 647.697 530.408 662.691 534.672 679.169C536.751 687.197 537.868 695.63 537.813 704.081C537.733 715.943 534.842 727.653 533.264 739.431C531.782 750.491 531.381 762.065 536.031 772.019C539.688 779.853 545.934 786.999 554.406 788.938C557.904 789.74 563.675 789.857 566.81 787.253C568.507 785.848 569.776 783.141 570.982 781.293C572.301 779.268 573.592 777.219 574.849 775.155C580.039 766.63 584.726 757.782 588.863 748.69C605.466 712.211 613.372 672.046 613.009 632.661C612.65 593.799 603.946 555.069 585.979 521.987C583.804 517.983 581.51 514.055 579.083 510.214L579.011 514.212C587.445 504.283 600.719 503.131 611.789 506.251C625.302 510.056 635.644 519.833 646.358 528.494C652.174 533.198 658.2 537.673 664.859 541.063C671.519 544.452 679.096 545.994 686.353 548.222C693.654 550.465 699.886 553.919 704.421 560.342C708.956 566.766 711.34 573.919 713.593 581.23C722.851 611.27 726.869 645.358 749.456 667.806C758.857 677.148 771.826 683.739 785.507 682.036C798.316 680.443 810.889 671.8 817.632 659.994C824.779 647.477 823.815 633.384 817.439 621.588C810.994 609.659 800.963 600.38 795.239 587.962C788.852 574.093 786.789 558.416 783.026 543.532C779.589 529.935 774.192 517.427 766.123 506.375C750.766 485.343 728.853 471.138 708.505 455.95C698.279 448.316 688.15 440.366 679.291 431.036C669.263 420.473 661.197 408.139 653.297 395.776C645.308 383.272 637.398 370.578 627.541 359.612C617.684 348.647 606.12 340.088 592.854 334.24C565.655 322.255 534.547 322.21 504.861 325.273C497.191 326.063 489.534 327.086 481.891 328.243C478.181 328.804 474.478 329.393 470.778 330C467.665 330.512 463.748 331.472 460.846 330.005C457.681 328.403 457.735 324.04 457.701 320.759C457.657 317.098 457.698 313.422 457.739 309.752C457.827 302.142 458.069 294.519 458.571 286.904C460.443 258.403 465.942 226.733 486.402 204.882C506.639 183.268 535.74 178.835 562.282 174.348C575.639 172.091 589.006 169.84 601.819 164.613C614.194 159.57 626.188 152.294 636.006 142.66C645.466 133.378 652.906 121.825 655.556 108.627C658.259 95.1702 655.483 81.4752 648.365 70.6122C641.247 59.7492 630.818 52.4096 619.168 48.4756C604.635 43.5663 588.538 44.8064 573.415 48.512C557.071 52.5107 541.21 59.1271 525.486 65.5086C510.666 71.5229 495.947 77.8553 481.429 84.7243C452.097 98.6053 423.511 114.759 397.191 134.602C371.583 153.91 348.389 176.783 329.358 203.219C310.47 229.465 295.692 258.949 287.307 290.222C283.264 305.294 280.816 320.697 280.111 336.143C279.921 340.317 286.108 340.94 286.299 336.722L286.298 336.689Z" fill="url(#paint2_linear_3002_860)"/>
<path d="M634.442 123.017C620.384 112.049 606.332 101.081 592.274 90.1175C589.755 88.1517 587.154 86.1451 584.089 85.4228C574.077 83.0578 564.821 95.268 562.328 106.751C556.443 133.842 575.777 162.085 600.266 162.182" fill="white"/>
<path d="M636.395 120.345C624.231 110.854 612.071 101.364 599.907 91.8732C594.974 88.0232 589.785 82.6839 583.272 81.9304C578.408 81.37 573.503 83.6369 569.792 87.1011C552.03 103.664 556.546 133.436 569.557 149.606C577.006 158.864 587.751 165.258 599.8 165.434C603.788 165.494 604.742 158.968 600.717 158.91C581.657 158.628 567.289 141.329 564.786 122.47C563.5 112.781 565.197 102.127 571.623 94.1802C574.215 90.9749 577.96 88.0868 582.039 88.4305C584.677 88.6502 586.876 90.1783 588.932 91.7205C591.593 93.7106 594.182 95.8041 596.804 97.8511C608.696 107.129 620.591 116.413 632.483 125.691C635.622 128.144 639.535 122.799 636.4 120.351L636.395 120.345Z" fill="#39783A"/>
<path d="M602.616 101.662C594.065 113.101 585.786 126.827 587.117 140.998C588.447 155.168 618.514 158.718 634.862 123.319" fill="#2D2020"/>
<path d="M600.182 99.7637C593.1 109.284 586.356 119.919 584.382 131.811C583.265 138.529 583.401 145.573 588.394 150.096C596.912 157.815 610.604 154.186 619.541 147.871C627.644 142.144 633.487 133.493 637.715 124.464C639.527 120.59 633.806 118.321 632.001 122.174C626.509 133.895 617.058 145.79 604.108 147.668C600.433 148.204 596.444 147.676 593.804 145.932C593.447 145.695 593.112 145.438 592.774 145.169C592.615 145.039 591.939 144.392 592.199 144.664C591.953 144.405 591.732 144.125 591.517 143.836C591.425 143.712 590.801 142.696 591.028 143.124C589.888 140.954 589.931 138.202 590.201 135.168C591.254 123.377 598.141 112.826 605.049 103.543C607.596 100.123 602.719 96.3372 600.178 99.7523L600.182 99.7637Z" fill="#39783A"/>
<path d="M683.929 83.5166C704.437 80.5787 725.02 81.3818 744.885 85.7851C744.431 83.8859 743.972 81.9808 743.518 80.0816C726.928 93.532 710.333 106.982 693.743 120.432C690.598 122.985 686.188 125.592 686.174 130.277C686.167 132.595 687.197 134.789 687.962 136.87C688.792 139.142 689.644 141.406 690.518 143.655C694.063 152.782 697.952 161.741 702.19 170.493C706.868 180.153 711.967 189.564 717.435 198.705C718.398 196.941 719.367 195.171 720.33 193.407C703.981 193.861 687.633 194.315 671.29 194.77C669.26 194.827 667.665 196.303 667.812 198.576C669.276 220.307 671.379 241.94 674.126 263.45C675.772 262.377 677.418 261.303 679.059 260.229C666.722 251.932 654.385 243.634 642.048 235.336C638.834 233.175 635.001 238.444 638.229 240.612C650.566 248.91 662.903 257.207 675.241 265.505C677.341 266.919 680.547 265.209 680.174 262.284C677.433 240.774 675.33 219.14 673.861 197.409C672.702 198.676 671.544 199.943 670.384 201.215C686.733 200.761 703.081 200.307 719.424 199.852C722.134 199.778 723.771 196.973 722.319 194.554C713.302 179.475 705.399 163.63 698.662 147.167C696.959 143.005 695.327 138.8 693.772 134.565C693.384 133.51 692.959 132.457 692.616 131.374C692.272 130.291 692.099 130.035 692.847 129.083C694.194 127.382 696.514 126.073 698.179 124.724C705.857 118.498 713.534 112.277 721.212 106.051C729.849 99.0512 738.491 92.046 747.127 85.0457C749.491 83.1314 748.146 79.8685 745.76 79.3422C725.376 74.8243 704.2 74.1391 683.168 77.1523C679.256 77.7111 679.996 84.0789 683.908 83.5201L683.929 83.5166Z" fill="#FEB963"/>
<path d="M1505.39 595.82C1303.18 439.898 1059.07 441.36 997.186 542.708C935.304 644.057 963.257 754.458 997.186 761.488C1119.49 786.826 1543.89 856.502 1562.4 826.779C1590.63 781.464 1541.13 638.861 1505.39 595.82Z" fill="url(#paint3_linear_3002_860)"/>
<path d="M1187.22 520.296L1155.06 572.432C1155.06 572.432 1167.99 543.847 1159.44 539.299C1129.23 523.22 1093.43 493.533 1080.99 481.803L1187.22 520.296Z" fill="#999B9E"/>
<path d="M1370.42 407.49C1370.42 481.895 1299.09 535.888 1211.09 535.888C1122.41 531.99 1051.76 481.895 1051.76 407.49C1051.76 333.086 1149.21 279.592 1261.28 301.518C1319.58 312.925 1370.42 333.086 1370.42 407.49Z" fill="#71C4E1"/>
<g style="mix-blend-mode:multiply" opacity="0.17">
<path d="M1409.4 411.964C1409.4 486.368 1338.07 540.362 1250.07 540.362C1166.75 531.502 1082.38 494.758 1095.12 418.946C1097.6 404.228 1104.3 376.387 1110.72 362.912C1140.04 301.319 1153.5 262.646 1250.07 281.541C1308.38 292.948 1409.4 337.56 1409.4 411.964Z" fill="#527D9E"/>
</g>
<path d="M1119.97 396.041C1128.55 362.128 1119.97 331.198 1141.41 310.286C1180.88 271.791 1216.33 265.352 1272.97 265.46C1344.64 265.598 1421.1 304.438 1438.64 351.702C1456.18 398.965 1455.69 455 1438.64 481.312C1407.63 529.151 1375.78 534.91 1341.68 540.27C1292.13 548.055 1193.18 537.988 1172.6 531.502C1127.77 517.375 1104.38 489.111 1104.38 470.105C1104.38 430.149 1112.34 426.25 1119.97 396.041Z" fill="#31A383"/>
<path d="M1331.44 464.749C1345.09 488.791 1322.25 505.189 1299.77 508.601C1289.07 510.226 1262.74 505.19 1252.51 508.601C1222.32 518.664 1193.55 521.27 1193.55 500.805C1193.55 474.98 1223.12 459.911 1258.35 452.079C1289.05 445.258 1319.44 443.596 1331.44 464.749Z" fill="#BDBFC0"/>
<path d="M1288.08 429.666C1282.52 431.522 1271.4 405.618 1271.02 395.558L1306.11 391.173L1361.65 368.759C1363.6 378.115 1355.32 404.329 1349.96 416.023C1329.98 418.947 1288.08 429.666 1288.08 429.666Z" fill="#BDBFC0"/>
<path d="M1154.57 340.011C1142.1 346.247 1137.35 364.536 1138 372.169C1138 397.994 1175.15 416.997 1170.76 412.124C1167.25 408.226 1185.92 391.172 1194.52 382.402C1173.67 369.218 1165.09 359.842 1154.57 340.011Z" fill="#BDBFC0"/>
<path d="M1294.36 432.105C1295.62 431.693 1296.88 431.289 1298.14 430.896C1300.67 430.109 1303.2 429.365 1305.74 428.668C1310.71 427.296 1315.7 426.106 1320.71 425.076C1330.79 423.005 1340.93 421.619 1351.05 420.873C1355.09 420.571 1355.03 413.869 1350.98 414.17C1339.41 415.028 1327.83 416.721 1316.33 419.303C1310.79 420.545 1305.27 421.98 1299.78 423.602C1296.93 424.446 1294.09 425.338 1291.27 426.29C1288.55 427.203 1286.76 428.155 1285.66 431.127C1285.01 432.884 1286.41 434.714 1287.89 434.996C1289.42 435.289 1292.77 432.625 1294.36 432.105Z" fill="black"/>
<path d="M1134.18 370.689C1136.86 380.687 1139.93 390.845 1146.01 398.868C1151.87 406.592 1159.65 411.975 1168.71 414.929C1172.39 416.128 1173.93 409.625 1170.29 408.438C1162.35 405.847 1155.25 400.634 1150.37 393.676C1145.18 386.279 1142.54 377.281 1140.14 368.325C1139.09 364.375 1133.12 366.721 1134.18 370.689Z" fill="black"/>
<path d="M1248.4 359.243C1245.84 368.725 1245.68 378.449 1247.86 387.539C1248.79 391.415 1254.44 389.121 1253.51 385.24C1251.57 377.173 1251.79 368.674 1254.07 360.274C1255.16 356.234 1249.49 355.207 1248.4 359.243Z" fill="black"/>
<path d="M1296.85 442.48C1313.13 442.882 1332.84 447.298 1337.5 465.934C1342.24 484.922 1326.77 502.021 1311.54 510.672C1307.9 512.737 1303.89 508.827 1307.57 506.739C1315.1 502.459 1322.61 496.889 1327.14 488.901C1331.62 481.012 1332.75 471.724 1328.42 464.383C1323.78 456.498 1318.36 453.005 1309.67 451.518C1309.65 451.637 1309.64 451.759 1309.61 451.884C1306.78 467.186 1303.73 482.457 1300.46 497.692C1299.59 501.746 1292.66 500.699 1293.44 496.666C1296.39 481.385 1299.75 466.173 1302.59 450.86C1302.59 450.855 1302.59 450.85 1302.59 450.845C1297.8 450.441 1294.67 450.496 1290.2 450.649C1279.05 451.031 1269.23 452.543 1258.19 455.449C1258.79 468.505 1259.38 484.538 1259.82 496.666C1259.96 500.764 1252.68 501.563 1252.53 497.493C1252.05 484.086 1251.57 470.675 1251.08 457.269C1251.08 457.248 1251.08 457.226 1251.08 457.205C1248.97 457.847 1246.87 458.534 1244.77 459.268C1237.36 461.869 1231.88 464.418 1224.81 468.111C1222.76 469.179 1220.71 470.308 1218.7 471.528C1221.4 482.55 1224.72 493.319 1228.63 503.809C1230.03 507.55 1222.38 510.432 1221 506.739C1217.25 496.686 1214.05 486.367 1211.41 475.819C1208.71 477.837 1206.19 479.048 1203.97 481.654C1199.12 487.337 1195.47 495.448 1196.94 502.755C1198.65 511.239 1217.43 515.911 1217.43 515.911C1217.43 515.911 1214.5 521.27 1207.78 519.509C1199.13 517.242 1191.76 514.224 1189.44 505.791C1186.87 496.432 1190.81 485.745 1196.94 478.014C1202.72 470.733 1210.56 465.792 1218.36 461.634C1226.64 457.219 1235.24 453.55 1243.98 450.649C1261.3 444.895 1279.25 442.047 1296.85 442.48Z" fill="black"/>
<path d="M1192.23 432.856C1192.95 435.374 1193.67 437.892 1194.39 440.41C1195.49 444.284 1201.36 441.967 1200.25 438.075C1199.53 435.557 1198.81 433.04 1198.09 430.522C1196.99 426.648 1191.12 428.964 1192.23 432.856Z" fill="black"/>
<path fill-rule="evenodd" clip-rule="evenodd" d="M1146.87 338.672C1144.54 335.404 1149.96 331.524 1152.28 334.761C1159.74 345.201 1167.92 354.99 1176.8 364.045C1180.76 368.093 1186.03 373.79 1191.49 375.648C1195.44 376.989 1201.24 376.436 1204.05 372.136L1204.04 372.135C1206.42 368.488 1211.85 371.242 1209.45 374.93C1205.78 380.542 1199.99 383.196 1193.99 382.942C1190.31 382.788 1187.03 381.449 1184.03 379.54C1182.17 384.067 1175.65 389.32 1171.31 391.669C1164.79 395.197 1157.66 394.342 1152.28 390.198C1146.78 385.959 1143.67 378.73 1143.83 371.192C1143.99 363.671 1149.97 354.894 1154.37 348.683C1151.8 345.409 1149.3 342.072 1146.87 338.672Z" fill="black"/>
<path fill-rule="evenodd" clip-rule="evenodd" d="M1359.72 361.681C1361.67 360.721 1363.65 362.449 1363.69 364.456C1363.91 373.405 1362.82 382.457 1360.45 391.307C1359.32 395.551 1353.25 394.469 1354.39 390.226C1356.2 383.478 1357.21 376.702 1357.41 369.897C1347.79 374.557 1338.08 378.953 1328.29 383.08C1328.51 385.058 1328.15 387.351 1327.9 389.067C1325.73 404 1313.14 419.521 1299.28 421.869C1292.68 422.988 1285.01 421.984 1280.08 417.555C1276.19 414.059 1275.88 405.472 1276.01 400.117C1268.38 400.191 1260.32 396.229 1260.47 387.002L1260.48 386.998C1260.55 382.685 1266.82 381.972 1266.75 386.279C1266.62 393.766 1279.76 393.341 1285.17 392.047C1293.54 390.045 1301.8 386.697 1309.95 383.548C1326.77 377.051 1343.38 369.737 1359.72 361.681Z" fill="black"/>
<path d="M1177.96 379.966C1177.96 384.54 1171.68 390.685 1163.34 390.685C1155 390.685 1149.21 385.515 1149.21 380.94C1149.21 376.365 1155 380.94 1163.34 380.94C1171.68 380.94 1177.96 375.391 1177.96 379.966Z" fill="#24303F"/>
<path d="M1317.79 401.041C1319.36 405.338 1314.21 413.763 1304.55 417.29C1294.89 420.818 1286.42 418.409 1284.85 414.112C1283.28 409.815 1291.55 411.664 1301.21 408.137C1310.86 404.61 1316.22 396.744 1317.79 401.041Z" fill="#24303F"/>
<path d="M1163.64 362.424C1163.64 365.385 1161.03 368.759 1157.8 368.759C1154.57 368.759 1151.95 365.385 1151.95 362.424C1151.95 359.464 1154.57 355.116 1157.8 355.116C1161.03 355.116 1163.64 359.464 1163.64 362.424Z" fill="#BDBFC0"/>
<path d="M1290.84 401.786C1291.15 404.731 1288.79 407.386 1285.58 407.717C1282.37 408.048 1279.52 405.93 1279.21 402.985C1278.91 400.041 1281.52 399.809 1284.73 399.477C1287.94 399.146 1290.54 398.842 1290.84 401.786Z" fill="#BDBFC0"/>
<path d="M1185.35 309.917C1185.35 282.613 1194.62 281.001 1202.47 273.174C1243.46 277.815 1343.77 292.111 1329.58 301.634C1315.39 311.156 1305.45 346.518 1308.14 363.705C1284.26 353.778 1276.96 350.359 1266.24 337.691L1266.24 367.413C1234.21 353.053 1222.87 332.331 1222.87 332.331L1222.87 354.745C1202.47 345.371 1185.35 332.331 1185.35 309.917Z" fill="#186F56"/>
<path d="M1375.78 352.192C1289.36 290.845 1170.32 302.816 1111.2 320.033C1131.67 287.875 1186.94 217.608 1255.92 213.811C1362.14 207.964 1446.79 225.761 1506.86 298.593C1545.84 345.858 1520.5 541.733 1410.87 561.224L1332.42 541.735C1410.87 525.168 1484.93 429.665 1375.78 352.192Z" fill="#CBCCCE"/>
<path d="M1197.19 284.949C1198 254.099 1258.08 204.787 1302.93 204.55C1347.77 204.314 1388.45 223.069 1394.79 225.51C1369.94 236.23 1297.25 247.145 1287.1 289.821C1289.08 295.472 1289.05 313.013 1287.1 315.646C1263.39 315.646 1199.12 309.51 1196.09 306.392C1193.05 303.274 1195.93 287.81 1197.19 284.949Z" fill="#38509E"/>
<path d="M1394.79 225.506C1305.57 244.04 1290.27 267.269 1287.1 285.438L1285.15 315.648C1285.15 315.648 1365.38 259.192 1394.79 225.506Z" fill="#2B395E"/>
<g style="mix-blend-mode:hard-light">
<path d="M1068.81 363.885C1069.5 359.779 1089.28 337.086 1095.12 337.573C1097.56 337.776 1106.82 343.908 1106.33 345.37C1105.84 346.832 1105.36 346.832 1103.89 347.319C1093.72 350.71 1083.42 361.962 1079.53 371.682C1078.56 374.117 1068.32 366.809 1068.81 363.885Z" fill="#D9D9D9"/>
</g>
<g style="mix-blend-mode:hard-light">
<path d="M1058.58 389.909C1056.63 386.791 1060.04 377.241 1065.4 373.343C1067.52 371.8 1075.63 377.042 1074.66 378.991C1070.47 387.363 1068.92 393.608 1065.89 393.608C1062.97 393.609 1061.02 393.807 1058.58 389.909Z" fill="#D9D9D9"/>
</g>
<path d="M1432.31 368.272C1432.31 368.272 1513.95 364.021 1540.73 394.915C1556.19 412.746 1552.1 489.32 1523.15 500.072C1495.59 510.309 1444.87 508.117 1426.95 500.072C1459.59 455.732 1451.8 392.479 1432.31 368.272Z" fill="#38509E"/>
<ellipse cx="1524.71" cy="444.565" rx="17.054" ry="53.1109" transform="rotate(7.34223 1524.71 444.565)" fill="#2B395E"/>
<path opacity="0.07" d="M1046.4 771.72C1024.96 715.686 1076.61 537.35 1076.61 537.35C1076.61 537.35 987.928 664.037 947.485 751.743L1046.4 771.72Z" fill="#999B9E"/>
<path d="M1379.68 558.789C1418.3 557.886 1448.79 532.701 1485.42 507.627C1478.59 518.347 1456.18 563.175 1396.25 583.152C1346.45 599.751 1354.02 610.926 1297.82 601.668V573.894C1297.82 573.894 1330.17 559.947 1379.68 558.789Z" fill="#999B9E"/>
<path d="M1310 813.137C1311.97 771.659 1296.35 747.928 1244.71 704.966H1365.55L1440.1 839.449L1310 813.137Z" fill="url(#paint4_linear_3002_860)"/>
<path d="M1172.11 531.015C1181.96 534.073 1188 535.011 1197.93 535.888C1173 584.051 1155.82 646.71 1146.75 699.154C1181.35 705.771 1221.78 714.469 1259.17 724.178C1231.64 725.271 1191.83 718.166 1189.69 728.48C1188.59 733.791 1214.2 753.166 1225.5 767.016C1200.85 754.855 1170.36 741.533 1142.29 729.212C1139.28 753.831 1138.48 774.354 1139.95 787.312L1116.56 783.414C1111 771.167 1111.66 746.977 1116.17 717.675C1083.44 703.067 1058.99 691.22 1059.95 686.609C1060.29 684.962 1084.9 688.067 1120.34 694.299C1131.75 637.416 1153.71 569.541 1172.11 531.015Z" fill="url(#paint5_linear_3002_860)"/>
<path d="M1390.4 614.824C1406.1 668.909 1369.68 693.95 1325.11 707.889C1303.32 714.706 1270.05 709.838 1270.05 709.838C1270.05 709.838 1291.63 725.743 1308.5 738C1361.97 776.841 1363.1 823.034 1416.23 846.757C1453.76 863.516 1546.22 859.334 1557.04 842.372C1574.47 815.045 1583.9 778.893 1577.51 746.87C1569.92 708.86 1562.93 702.165 1533.17 669.883C1512.19 647.126 1467.81 636.844 1437.08 629.724L1436.76 629.648C1416.19 624.884 1390.4 614.824 1390.4 614.824Z" fill="url(#paint6_linear_3002_860)"/>
<path d="M1544.05 855.014C1524.42 859.577 1509.29 864.992 1484.99 864.661C1460.78 863.386 1457.42 861.646 1430.01 856.464C1424.65 855.228 1419.32 853.605 1414.2 851.299C1393.63 842.359 1379.66 826.708 1372.86 819.649C1364.26 810.651 1365.83 807.805 1355.5 794.161C1345.21 780.521 1339.57 772.149 1330.17 760.768C1326.14 755.899 1317.83 747.277 1307.4 739.513C1293.48 729.062 1278.08 717.765 1270.01 712.623C1269.58 712.35 1269.07 712.019 1268.65 711.742L1270.39 707.499C1286.31 708.741 1304.41 710.582 1315.35 709.14C1318.86 708.72 1321.61 708.26 1323.72 707.869C1324.62 707.702 1325.06 707.748 1325.12 707.921C1325.12 707.921 1325.12 707.921 1325.12 707.921C1325.19 708.134 1324.64 708.547 1323.5 708.895C1318 710.598 1309.56 712.272 1299.4 713.302C1285.75 714.519 1280.85 713.503 1269.72 712.061L1271.38 708.03C1274.83 710.626 1279.09 713.727 1284.95 717.76C1294.57 724.369 1302.56 729.561 1310.67 735.009C1320.38 741.592 1329.88 749.343 1340.28 762.049C1359.34 785.377 1363.23 792.036 1388.93 823.104C1399.91 834.739 1409.45 839.493 1417.98 842.834C1430.87 847.24 1442.42 848.09 1466.99 849.605C1495.09 850.831 1536.96 850.647 1552.08 839.208C1557.61 830.972 1561.48 823.08 1563.94 816.855C1571.03 798.952 1576.6 773.808 1571.69 748.031C1570.36 741.2 1568.93 734.423 1567.01 727.789C1562.38 708.1 1545.42 691.73 1528.85 673.867C1518.35 662.781 1503.06 655.607 1488.47 649.732C1473.25 643.613 1454.35 638.401 1435.83 633.669C1418.34 629.023 1402.27 622.771 1389.37 617.461L1393.12 614.034C1394.78 620.401 1395.68 626.221 1396.01 631.037C1396.18 657.298 1392.67 665.319 1375.66 683.741C1365.12 694.059 1346.6 702.747 1330.45 706.835C1322.3 708.885 1323.93 707.586 1331.73 704.546C1343.1 700.031 1352.3 695.946 1357.2 691.962C1366.71 683.757 1370.69 680.703 1380.74 669.63C1390.12 657.594 1388.16 649.21 1389.02 640.967C1389.08 634.819 1391.01 632.909 1386.61 615.924L1384.3 608.317L1391.84 611.146C1398.33 613.635 1407.31 616.843 1419.95 620.453C1426.3 622.247 1432.28 623.77 1437.85 624.924C1473 631.935 1494.05 638.697 1508.62 645.454C1516.14 649.005 1527.52 654.934 1537.5 665.885C1548.34 678.341 1561.79 691.637 1570.53 706.897C1576.22 716.518 1580.36 730.911 1583.27 745.72C1589.47 774.608 1580.94 806.317 1575.13 821.243C1569.82 835.193 1566.02 840.166 1561.99 845.529C1557.32 851.243 1552.07 852.675 1544.05 855.014Z" fill="url(#paint7_linear_3002_860)"/>
<path d="M1077.8 572.238C1076.98 568.665 1078.81 560.285 1084.35 556.785C1089.33 553.642 1145.64 568.571 1146.42 571.716C1147.21 574.86 1144.59 586.645 1141.45 588.478C1139.35 589.701 1121.28 583.763 1121.28 583.763C1119.71 594.28 1117.89 600.194 1113.16 610.742C1113.16 610.742 1132.06 612.837 1133.33 615.717C1134.6 618.597 1129.92 634.314 1125.47 634.314C1119.45 634.314 1064.74 618.752 1062.87 615.717C1060.78 612.314 1067.59 600.364 1070.73 599.218C1073.87 598.071 1089.33 605.242 1089.33 605.242C1089.07 603.636 1099.75 579.479 1099.28 578.786C1098.35 577.434 1078.22 574.072 1077.8 572.238Z" fill="#A25831"/>
<path d="M1099.77 595.12C1114.66 626.411 1116.11 645.581 1098.43 674.951C1086.12 695.405 1073.44 709.774 1059.65 721.021C1044.25 733.575 1025.8 770.827 1006.61 779.72C987.423 788.612 902.172 753.892 911.991 718.968C917.52 699.304 902.601 629.216 911.991 613.259C918.573 602.075 929.457 595.12 929.457 595.12C929.457 595.12 932.407 571.516 942.567 557.711C963.634 529.086 986.689 523.362 1021.5 535.298C1046.85 543.987 1086.78 567.835 1099.77 595.12Z" fill="url(#paint8_linear_3002_860)"/>
<path d="M908.57 671.395C910.09 686.749 909.974 700.362 907.766 717.176C907.72 717.376 907.674 717.564 907.627 717.741C905.024 728.938 909.119 735.219 912.371 740.367C915.992 745.513 920.441 750.452 929.096 757.481C946.972 771.734 968.727 778.269 978.169 781.571C987.899 784.469 988.925 784.05 1004 783.435C1005.24 783.246 1006.65 782.885 1007.84 782.369C1019.73 776.5 1024.45 769.276 1031.06 760.27C1036.59 753.11 1048.34 732.832 1060.65 722.256C1065.22 718.635 1069.05 715.271 1071.75 712.998C1082.46 704.156 1090.41 690.306 1094.99 682.253C1096.46 679.742 1097.49 677.691 1098.22 676.096C1098.54 675.418 1098.56 675.027 1098.4 674.934C1098.4 674.934 1098.4 674.934 1098.4 674.934C1098.4 674.934 1098.4 674.934 1098.4 674.934C1098.4 674.934 1098.4 674.934 1098.4 674.934C1098.21 674.818 1097.74 675.162 1097.23 675.955C1094.72 679.81 1090.72 685.443 1085.28 691.453C1074.89 702.322 1075.38 705.045 1059.79 717.987C1059.25 718.41 1058.71 718.824 1058.18 719.227C1042.87 732.497 1036.74 743.431 1022.79 761.597C1016.49 769.627 1011 774.088 1005.11 776.472C998.376 778.292 987.765 776.506 969.836 771.498C953.849 766.617 945.836 761.41 938.533 755.999C931.706 750.322 923.17 744.492 917.156 731.257C915.806 727.667 915.414 723.903 916.404 720.208C920.02 686.435 910.979 653.971 911.668 636.144C911.675 629.43 911.372 620.856 914.393 614.672C918.149 608.255 924.086 602.094 930.879 597.346L931.939 596.652L932.077 595.448C933.264 586.785 935.393 577.543 938.918 568.921C940.339 565.498 942.071 562.083 944.298 558.986C951.875 548.459 962.111 538.037 975.447 533.722C988.733 529.267 1003.54 531.461 1016.64 535.269C1018.11 535.697 1019.53 536.133 1021.05 536.626C1050.95 546.121 1086.11 571.602 1096.09 589.105C1097.48 591.256 1098.62 593.307 1099.55 595.223C1105.84 609.102 1109.16 614.705 1111.09 632.226C1112.29 643.829 1107.45 659.606 1100.63 671.159C1097.23 677.025 1098.06 675.71 1101.4 669.791C1106.26 661.052 1108.9 653.24 1110.03 648.219C1112.02 638.196 1112.46 633.502 1109.75 620.802C1106.44 608.236 1103.77 602.614 1100.71 595.727C1100.57 595.428 1100.43 595.142 1100.3 594.865C1096.58 589.542 1099.01 585.059 1070.69 561.228C1050.84 546.018 1034.55 538.517 1021.99 533.862C1015.09 531.394 1009.26 529.839 1004.11 528.861C996.933 527.505 984.929 526.193 972.695 530.612C960.39 534.853 949.892 544.823 942.491 554.248C941.947 554.93 941.385 555.653 940.807 556.416C933.943 565.496 929.202 579.914 926.867 594.796L928.051 592.921C920.369 598.082 913.935 604.554 909.515 611.801C904.736 621.987 905.954 630.265 905.53 636.117C905.569 655.856 906.866 655.756 908.57 671.395Z" fill="url(#paint9_linear_3002_860)"/>
<path d="M1010.34 729.817C989.168 739.441 915.813 716.174 915.813 716.174C915.813 716.174 909.967 731.279 915.813 737.613C946.511 780.979 1000.11 782.928 1004.98 782.441C1009.85 781.953 1021.06 768.797 1023.98 765.874C1026.91 762.95 1049.28 732.244 1053.22 727.868C1057.61 722.995 1072.71 712.276 1081.97 701.069C1120.46 662.088 1114.13 621.646 1102.43 601.181C1110.72 640.162 1037.14 717.635 1010.34 729.817Z" fill="url(#paint10_linear_3002_860)"/>
<path d="M943.1 584.127C943.1 573.896 971.848 538.813 995.237 538.813C1009.27 538.812 1043.47 555.136 1028.86 558.79C1014.24 562.445 984.03 592.411 972.823 594.847C963.857 596.796 943.1 595.971 943.1 584.127Z" fill="#557ACB"/>
<path d="M1163.18 600.83C1162.8 637.761 1169.99 656.947 1200.25 677.423C1244.85 707.603 1278.48 715.686 1321.21 715.686C1359.43 715.686 1420.44 663.876 1426.46 632.852C1428.3 623.346 1397.71 622.62 1390.4 615.311C1375.01 599.918 1375.89 551.354 1359.66 540.132C1348.28 532.267 1322.62 529.355 1322.62 529.355C1322.62 529.355 1307.12 507.643 1291.11 498.847C1257.91 480.609 1233.76 501.336 1205.44 528.478L1205.36 528.557C1184.77 548.292 1163.52 568.669 1163.18 600.83Z" fill="#38509E"/>
<path d="M1384.35 597.366C1386.22 603.633 1389.13 609.225 1393.18 612.533C1398.41 615.821 1408.92 615.735 1420.98 620.09C1423.37 621.038 1425.68 622.07 1427.97 623.957C1429.13 624.94 1430.33 626.214 1431.16 628.056C1432.02 629.911 1432.16 632.16 1431.76 633.88C1427.96 646.204 1423.92 651.025 1412.72 665.787C1397.77 684.592 1377.45 697.351 1368.94 703.596C1360.26 709.803 1358.15 708.313 1344.43 714.542C1335.9 718.101 1328.64 719.683 1321.21 719.502C1316.79 719.354 1312.34 719.014 1307.31 718.417C1294.23 717.99 1255.36 709.269 1241.86 703.64C1227.83 699.32 1214.56 688.918 1206.66 683.099C1204.17 681.292 1202.31 679.759 1200.91 678.507C1200.32 677.976 1200.15 677.578 1200.27 677.388C1200.27 677.388 1200.27 677.388 1200.27 677.388C1200.27 677.388 1200.27 677.388 1200.27 677.388C1200.43 677.152 1201.06 677.239 1201.92 677.771C1206.04 680.326 1212.41 683.941 1220.29 687.344C1235.05 693.342 1235.53 696.455 1255.88 703.101C1276.47 708.898 1289.17 709.48 1314.17 711.595C1316.69 711.776 1319.01 711.862 1321.21 711.884C1339.54 710.379 1346.3 704.951 1373.68 689.71C1402.33 669.987 1405.51 663.883 1419.72 635.232C1420.09 634.094 1420.43 632.843 1420.65 631.726C1420.59 631.938 1420.66 632.612 1420.83 632.908C1420.99 633.214 1421.02 633.131 1420.79 632.933C1420.33 632.508 1419.15 631.836 1417.84 631.279C1415.17 630.13 1411.91 629.16 1408.58 628.189C1401.81 625.873 1394.95 625.618 1386.83 618.885C1371.16 596.949 1372.98 575.471 1368.37 563.573C1366.24 556.519 1363.57 547.475 1357.65 543.031C1348.74 537.276 1335.3 534.503 1322.26 532.518L1320.81 532.336L1320.02 531.204C1317.04 526.995 1313.59 522.668 1310.03 518.595C1304.37 512.212 1297.78 505.642 1289.86 501.121C1269.22 487.316 1242.06 497.786 1224.43 513.651C1218.66 518.321 1212.62 523.782 1206.43 529.513C1183.76 548.511 1164.09 576.207 1163.94 594.139C1163.67 596.546 1163.54 598.752 1163.49 600.833C1163.61 617.479 1162.91 624.249 1169.03 642.14C1173.11 653.768 1184.78 666.706 1196.45 674.765C1202.32 678.879 1200.94 677.987 1195.1 673.799C1186.56 667.585 1180.54 661.276 1177.2 656.984C1170.77 648.297 1168.21 644.019 1165.07 630.633C1162.6 617.113 1162.57 610.552 1162.42 602.568C1162.42 601.949 1162.43 601.374 1162.43 600.822C1162.52 597.545 1162.55 595.183 1163.58 589.024C1164.8 583.003 1166.73 572.467 1177.64 556.914C1186.96 543.97 1196.65 535.034 1204.32 527.312C1216.52 515.179 1225.54 507.106 1233.41 501.564C1238.78 497.827 1247.2 492.416 1258.27 490.301C1269.35 487.998 1282.2 490.948 1292.34 496.612C1296.28 498.74 1299.76 501.291 1302.94 503.867C1309.68 509.342 1317.69 517.598 1325.18 527.522L1322.97 526.219C1336.09 527.967 1349.96 530 1361.72 537.153C1371.95 545.325 1373.4 555.365 1375.8 561.29C1382.04 581.278 1380.06 581.695 1384.35 597.366Z" fill="#2B395E"/>
<path d="M1201.35 684.014C1142.87 644.859 1157.49 603.617 1168.21 574.381C1171.14 627.979 1188.19 645.033 1208.17 657.215C1236.29 674.361 1257.87 677.192 1272.48 684.014C1283.69 686.45 1325.86 693.208 1353.37 684.014C1388.94 672.128 1423.53 631.878 1423.53 631.878C1423.53 631.878 1413.3 659.164 1407.94 667.447C1394.4 688.371 1336.99 734.442 1305.13 736.15C1283.69 715.686 1231.25 704.04 1201.35 684.014Z" fill="#2B395E"/>
<path d="M1180.88 581.203C1180.88 570.971 1225.99 520.4 1240.81 512.987C1246.66 510.064 1272 520.439 1260.3 537.005C1248.61 553.572 1218.89 592.552 1207.68 594.988C1198.71 596.937 1180.88 593.047 1180.88 581.203Z" fill="#557ACB"/>
<g style="mix-blend-mode:multiply" opacity="0.3">
<path d="M1232.5 393.5C1236.54 403.483 1239.56 416.116 1217.42 425.077C1211.71 427.386 1201.3 432.17 1201.5 425.077C1201.7 417.984 1209.53 412.332 1217.42 402.9C1222.87 396.379 1228.46 383.517 1232.5 393.5Z" fill="#2E7037"/>
</g>
<defs>
<linearGradient id="paint0_linear_3002_860" x1="510.489" y1="39.9556" x2="432.388" y2="782.119" gradientUnits="userSpaceOnUse">
<stop stop-color="#65A543"/>
<stop offset="1" stop-color="#65A543" stop-opacity="0"/>
</linearGradient>
<linearGradient id="paint1_linear_3002_860" x1="510.493" y1="39.955" x2="436.19" y2="832.84" gradientUnits="userSpaceOnUse">
<stop stop-color="#22522F"/>
<stop offset="1" stop-color="#13321B" stop-opacity="0"/>
</linearGradient>
<linearGradient id="paint2_linear_3002_860" x1="510.919" y1="36.7063" x2="436.011" y2="836.045" gradientUnits="userSpaceOnUse">
<stop stop-color="#207139"/>
<stop offset="1" stop-color="#231F20" stop-opacity="0"/>
</linearGradient>
<linearGradient id="paint3_linear_3002_860" x1="1266" y1="680" x2="1243.5" y2="808" gradientUnits="userSpaceOnUse">
<stop stop-color="#CBCCCE"/>
<stop offset="1" stop-color="#666768" stop-opacity="0"/>
</linearGradient>
<linearGradient id="paint4_linear_3002_860" x1="1342.41" y1="704.966" x2="1342" y2="813.5" gradientUnits="userSpaceOnUse">
<stop stop-color="#999B9E"/>
<stop offset="1" stop-color="#363738" stop-opacity="0"/>
</linearGradient>
<linearGradient id="paint5_linear_3002_860" x1="1159.55" y1="531.015" x2="1159.55" y2="787.312" gradientUnits="userSpaceOnUse">
<stop stop-color="#999B9E"/>
<stop offset="1" stop-color="#363738" stop-opacity="0"/>
</linearGradient>
<linearGradient id="paint6_linear_3002_860" x1="1425" y1="653.5" x2="1425" y2="828.5" gradientUnits="userSpaceOnUse">
<stop offset="0.533654" stop-color="#CBCCCE"/>
<stop offset="1" stop-color="#CBCCCE" stop-opacity="0"/>
</linearGradient>
<linearGradient id="paint7_linear_3002_860" x1="1424.78" y1="614.824" x2="1424.78" y2="857.412" gradientUnits="userSpaceOnUse">
<stop stop-color="#999B9E"/>
<stop offset="1" stop-color="#363738" stop-opacity="0"/>
</linearGradient>
<linearGradient id="paint8_linear_3002_860" x1="1044.61" y1="544.103" x2="961.999" y2="769.5" gradientUnits="userSpaceOnUse">
<stop offset="0.778846" stop-color="#38509E"/>
<stop offset="1" stop-color="#38509E" stop-opacity="0"/>
</linearGradient>
<linearGradient id="paint9_linear_3002_860" x1="1007" y1="687" x2="969.999" y2="748.5" gradientUnits="userSpaceOnUse">
<stop stop-color="#2B395E"/>
<stop offset="1" stop-color="#2B395E" stop-opacity="0"/>
</linearGradient>
<linearGradient id="paint10_linear_3002_860" x1="1076.5" y1="658" x2="955.998" y2="823.5" gradientUnits="userSpaceOnUse">
<stop stop-color="#2B395E"/>
<stop offset="1" stop-color="#2B395E" stop-opacity="0"/>
</linearGradient>
</defs>
</svg>
