<svg width="2376" height="5612" viewBox="0 0 2376 5612" fill="none" xmlns="http://www.w3.org/2000/svg">
<g clip-path="url(#clip0_1432_1630)">
<rect width="2375.84" height="5611.92" fill="white"/>
<path d="M-39.3296 3223.5H2460.81V7997.01H-39.3296V3223.5Z" fill="url(#paint0_linear_1432_1630)"/>
<g opacity="0.6">
<path d="M-16.6118 5233.59C29.573 5232.23 77.3586 5231.43 126.905 5231.43C819.757 5231.43 1171.71 5372.16 1512.13 5508.17C1679.66 5575.1 1852.95 5644.42 2064.91 5695.22C2217.71 5731.88 2381.32 5756.32 2559.65 5769.18C2559.65 5792.1 2559.65 5815.02 2559.65 5838.02C2064.91 5802.96 1771.63 5685.8 1486.52 5571.83C1318.99 5504.82 1145.69 5435.57 933.739 5384.78C695.931 5327.75 431.949 5300.04 126.905 5300.04C77.9189 5300.04 30.2131 5300.84 -16.6919 5302.27C-16.6919 5279.35 -16.6118 5256.51 -16.6118 5233.59Z" fill="#FFDA6C"/>
<path d="M-57.6958 4000.39C-11.511 3999.03 36.2747 3998.23 85.8213 3998.23C778.673 3998.23 1130.7 4138.96 1471.05 4274.97C1638.58 4341.98 1811.87 4411.22 2023.82 4462.02C2176.62 4498.68 2340.23 4523.12 2518.57 4535.98C2518.57 4558.9 2518.57 4581.82 2518.57 4604.82C2023.82 4569.76 1730.54 4452.59 1445.43 4338.62C1277.9 4271.62 1104.61 4202.37 892.655 4151.58C654.847 4094.55 390.865 4066.84 85.8213 4066.84C36.835 4066.84 -10.9509 4067.63 -57.7759 4069.07C-57.7759 4046.15 -57.6958 4023.31 -57.6958 4000.39Z" fill="#FFDA6C"/>
<path d="M-58.9773 4338.39C-12.3923 4336.95 35.7936 4336.23 85.8204 4336.23C778.673 4336.23 1130.7 4476.95 1471.04 4612.97C1616.72 4671.19 1766.8 4731.17 1942.9 4779.25C1920.57 4779.89 1898.23 4780.93 1875.9 4782.53C1836.68 4785.4 1797.78 4792.35 1758.56 4794.59C1647.54 4757.37 1545.97 4716.8 1445.51 4676.62C1277.98 4609.61 1104.69 4540.37 892.734 4489.57C654.926 4432.55 390.944 4404.83 85.9006 4404.83C36.354 4404.83 -11.9921 4405.63 -59.4575 4407.15C-59.2975 4384.23 -59.0573 4361.39 -58.8972 4338.47L-58.9773 4338.39Z" fill="#FFDA6C"/>
<path d="M-62.6576 4676.38C-14.952 4674.86 34.5145 4674.07 85.822 4674.07C559.517 4674.07 873.846 4739.88 1134.15 4824.94C1091.8 4831.48 1049.94 4843.46 1008.88 4858.08C971.418 4847.3 932.757 4837.07 892.736 4827.41C654.928 4770.39 390.946 4742.67 85.9022 4742.67C34.8347 4742.67 -14.9521 4743.55 -63.7783 4745.07C-63.3782 4722.15 -62.9778 4699.3 -62.5775 4676.38H-62.6576Z" fill="#FFDA6C"/>
<path d="M-70.1023 5014.54C-20.0754 5012.87 31.7923 5012.07 85.8214 5012.07C284.248 5012.07 454.58 5023.65 604.82 5043.29C565.279 5059.83 526.938 5078.99 489.078 5099.12C362.61 5086.74 228.778 5080.59 85.8214 5080.59C31.8724 5080.59 -20.6357 5081.47 -72.1034 5083.23C-71.383 5060.31 -70.7426 5037.38 -70.1023 5014.46V5014.54Z" fill="#FFDA6C"/>
</g>
<g opacity="0.6">
<path d="M-89.9543 5504.36C267.037 5554.68 508.688 5651.24 744.734 5745.64C912.264 5812.65 1085.56 5881.9 1297.59 5932.69C1535.4 5989.72 1799.38 6017.43 2104.43 6017.43C2250.98 6017.43 2387.86 6010.96 2517.05 5998.02C2517.05 6021.02 2516.89 6044.03 2516.81 6067.03C2393.54 6079.17 2257.31 6086.04 2104.35 6086.04C1411.49 6086.04 1059.46 5945.31 719.121 5809.3C551.591 5742.29 378.297 5673.04 166.343 5622.25C83.0986 5602.28 -3.42798 5585.99 -93.7163 5573.13C-92.3557 5550.21 -91.2351 5527.29 -90.0344 5504.36H-89.9543Z" fill="#FFDA6C"/>
<path d="M-89.9541 5504.36C267.038 5554.68 508.688 5651.24 744.734 5745.64C912.265 5812.57 1085.56 5881.9 1297.51 5932.69C1535.32 5989.72 1799.3 6017.43 2104.35 6017.43C2250.82 6017.43 2387.78 6010.96 2516.97 5998.02C2516.97 6021.02 2516.81 6044.03 2516.73 6067.03C2393.46 6079.17 2257.23 6086.04 2104.35 6086.04C1411.49 6086.04 1059.46 5945.31 719.121 5809.3C551.591 5742.29 378.297 5673.04 166.344 5622.25C83.0989 5602.28 -3.42749 5585.99 -93.7161 5573.13C-92.3552 5550.21 -91.2349 5527.29 -90.0342 5504.36H-89.9541Z" fill="#FFDA6C"/>
</g>
<path d="M-11.0854 -821.143H2518.75V3296.41H-11.0854V-821.143Z" fill="url(#paint1_linear_1432_1630)"/>
<path d="M1299.78 1311.39C1299.78 1311.39 1271.2 1315.94 1242.95 1332.32C1199.72 1357.31 1179.63 1505.63 1170.27 1885.24C1155.54 2481.84 1140.81 2772.56 1140.81 2772.56H1260.24C1260.24 2772.56 1255.43 1323.61 1299.86 1311.47L1299.78 1311.39Z" fill="url(#paint2_linear_1432_1630)"/>
<path d="M-10.8455 875.635C-10.8455 875.635 553.698 1132.01 596.841 1132.01C639.984 1132.01 881.154 995.596 983.689 1106.85C1086.22 1218.03 1243.83 1325.05 1260.4 1325.05C1276.97 1325.05 1602.26 1431.43 1897.94 1166.75C1931.24 1136.96 2045.7 897.04 2151.92 897.04C2258.13 897.04 2518.75 750.084 2518.75 750.084L2398.53 3182.36L-11.0854 3296.41L-10.8455 875.555V875.635Z" fill="#99D3B4"/>
<path d="M-10.8455 909.579C186.14 956.701 450.522 1143.27 596.841 1132.01C639.904 1128.65 903.086 1020.83 1005.62 1132.01C1108.16 1243.18 1243.83 1325.05 1260.4 1325.05C1276.97 1325.05 1303.94 1297.97 1352.45 1310.19C1438.17 1331.84 1582.49 1276.01 1612.11 1276.01C1633.16 1276.01 1844.39 1159.08 1887.53 1159.08C1930.68 1159.08 2064.19 894.484 2170.41 894.484C2276.62 894.484 2518.75 765.818 2518.75 765.818V3217.58L-11.0854 3296.49L-10.8455 909.579Z" fill="url(#paint3_linear_1432_1630)"/>
<path d="M1703.25 1311.39C1703.25 1311.39 1676.43 1307.8 1646.42 1332.32C1607.28 1364.26 1583.1 1505.63 1573.74 1885.24C1559.01 2481.84 1544.28 2772.56 1544.28 2772.56L2026.94 2733.27C2026.94 2733.27 2016.06 1928.13 2032.38 1573.36C2035.83 1497.88 1896.71 1238.87 1906.4 1237.67C1840.84 1241.99 1699.97 1321.37 1703.33 1311.39H1703.25Z" fill="url(#paint4_linear_1432_1630)"/>
<path d="M331.898 303.622C332.538 303.622 333.178 303.063 333.578 302.105C333.658 301.865 333.979 301.146 333.979 300.108L333.258 200.993C333.258 199.316 332.378 197.559 331.177 197.559C325.574 197.718 229.923 197.798 143.396 197.798C56.8696 197.798 -38.7817 197.718 -44.3847 197.559C-45.5053 197.559 -46.4659 199.156 -46.4659 200.913L-47.1862 300.108C-47.1862 300.827 -47.026 301.546 -46.7859 302.185C-46.3857 303.143 -45.8254 303.702 -45.1051 303.702H331.898V303.622Z" fill="#FFECDD" stroke="#C49A6C" stroke-width="1.17306" stroke-miterlimit="10"/>
<path d="M344.703 1040.8C345.344 1040.8 345.984 1040.24 346.384 1039.28C346.464 1039.04 346.784 1038.32 346.784 1037.28L346.064 938.167C346.064 936.489 345.183 934.732 343.983 934.732C338.38 934.892 242.728 934.972 156.202 934.972C69.6753 934.972 -25.976 934.892 -31.579 934.732C-32.6996 934.732 -33.6602 936.33 -33.6602 938.087L-34.3806 1037.28C-34.3806 1038 -34.2206 1038.72 -33.9805 1039.36C-33.5803 1040.32 -33.0198 1040.88 -32.2994 1040.88H344.703V1040.8Z" fill="#FFECDD" stroke="#C49A6C" stroke-width="1.17306" stroke-miterlimit="10"/>
<path d="M309.645 928.821C309.645 928.821 310.285 928.661 310.445 928.342C310.445 928.262 310.605 928.023 310.605 927.703L310.285 894.159C310.285 893.6 309.805 892.961 309.245 892.961C306.443 892.961 258.417 893.041 215.034 893.041C171.571 893.041 123.625 893.041 120.824 892.961C120.263 892.961 119.783 893.52 119.783 894.079L119.463 927.623C119.463 927.623 119.463 928.102 119.623 928.342C119.783 928.661 120.103 928.821 120.423 928.821H309.645Z" fill="#C39B7A" stroke="#A97C50" stroke-width="1.17306" stroke-miterlimit="10"/>
<path d="M215.034 888.488C252.174 888.488 292.355 888.488 293.076 888.488C295.637 888.408 297.958 886.811 299.639 884.175C301 881.939 301.8 879.064 301.72 876.109C301.72 869.48 297.638 864.049 292.755 864.049H137.392C132.509 864.049 128.507 869.48 128.427 876.109C128.427 879.064 129.147 881.939 130.508 884.175C132.109 886.811 134.51 888.408 137.072 888.488C137.712 888.488 177.974 888.488 215.114 888.488H215.034Z" fill="#C39B7A" stroke="#A97C50" stroke-width="1.17306" stroke-miterlimit="10"/>
<path d="M215.034 859.179C250.653 859.179 289.714 859.179 291.395 859.179C292.276 859.179 293.156 858.62 293.716 857.661C294.036 857.102 294.437 856.224 294.437 855.026V851.272C294.356 847.278 291.875 844.004 288.914 844.004C287.393 844.004 249.613 844.004 215.034 844.004C180.455 844.004 142.675 844.004 141.234 844.004C138.193 844.004 135.791 847.278 135.711 851.272V855.026C135.711 856.224 136.031 857.102 136.352 857.661C136.912 858.62 137.792 859.099 138.673 859.179C140.354 859.179 179.415 859.179 215.034 859.179Z" fill="#C39B7A" stroke="#A97C50" stroke-width="1.17306" stroke-miterlimit="10"/>
<path d="M284.671 376.701C286.753 376.701 288.753 375.423 290.194 373.107C291.635 370.791 292.515 367.756 292.435 364.482C292.435 357.773 288.914 352.262 284.591 352.262H145.396C141.074 352.262 137.552 357.773 137.552 364.482C137.552 367.756 138.353 370.791 139.794 373.107C141.234 375.423 143.235 376.701 145.317 376.701H284.591H284.671Z" fill="#C39B7A" stroke="#A97C50" stroke-width="1.17306" stroke-miterlimit="10"/>
<path d="M281.469 396.749C282.75 396.749 283.95 395.95 284.831 394.592C285.711 393.235 286.191 391.398 286.191 389.401V385.647C286.191 383.411 284.991 381.574 283.55 381.574H146.516C145.076 381.574 143.875 383.411 143.875 385.647V389.401C143.875 391.318 144.355 393.235 145.236 394.592C146.116 395.95 147.317 396.749 148.598 396.749H281.549H281.469Z" fill="#C39B7A" stroke="#A97C50" stroke-width="1.17306" stroke-miterlimit="10"/>
<path d="M215.033 839.451C238.966 839.451 269.942 839.451 278.267 839.291H278.667L278.347 803.751C277.386 710.466 275.225 492.109 274.424 402.258V401.699H155.721V402.258C155 490.671 152.759 707.031 151.879 799.438L151.479 839.371H151.879C160.203 839.451 191.1 839.531 215.113 839.531L215.033 839.451Z" fill="#C39B7A" stroke="#A97C50" stroke-width="1.17306" stroke-miterlimit="10"/>
<path d="M179.255 810.537C182.617 810.537 185.338 807.183 185.338 803.03L187.979 440.273C187.979 438.436 187.499 436.679 186.619 435.321C185.578 433.724 184.137 432.766 182.537 432.766H182.216C179.255 432.766 176.774 436.12 176.774 440.273L172.851 802.95C172.851 804.627 173.251 806.225 174.132 807.582C175.253 809.419 177.014 810.458 178.855 810.458H179.255V810.537Z" fill="#FFE2C3" stroke="#9B8579" stroke-width="1.56408" stroke-miterlimit="10"/>
<path d="M215.195 810.617C217.036 810.617 218.797 809.579 219.918 807.742C220.798 806.384 221.198 804.787 221.198 803.11L220.558 440.273C220.558 438.276 219.998 436.44 219.037 435.002C217.997 433.564 216.636 432.766 215.195 432.766H214.875C211.913 432.766 209.432 436.12 209.432 440.273L208.792 803.11C208.792 804.867 209.272 806.464 210.072 807.742C211.193 809.579 212.954 810.617 214.795 810.617H215.195Z" fill="#FFE2C3" stroke="#9B8579" stroke-width="1.56408" stroke-miterlimit="10"/>
<path d="M251.133 810.537C252.974 810.537 254.735 809.499 255.856 807.662C256.736 806.304 257.137 804.707 257.137 803.03L253.214 440.273C253.214 436.12 250.733 432.766 247.772 432.766H247.451C246.011 432.766 244.65 433.564 243.609 435.002C242.649 436.44 242.089 438.276 242.089 440.273L244.73 803.03C244.73 807.183 247.451 810.537 250.813 810.537H251.213H251.133Z" fill="#FFE2C3" stroke="#9B8579" stroke-width="1.56408" stroke-miterlimit="10"/>
<path d="M299.159 347.47C299.559 347.47 299.879 346.91 299.879 346.271C299.879 335.09 299.879 323.909 299.879 312.727C299.879 312.408 299.799 312.088 299.639 311.849C299.479 311.689 299.319 311.529 299.159 311.529H130.908C130.508 311.529 130.188 312.088 130.188 312.727C130.188 323.909 130.188 335.09 130.188 346.271C130.188 346.591 130.188 346.91 130.428 347.07C130.588 347.31 130.748 347.39 130.988 347.39H299.319L299.159 347.47Z" fill="#C39B7A" stroke="#A97C50" stroke-width="1.17306" stroke-miterlimit="10"/>
<path d="M179.254 813.576H178.854C176.452 813.576 174.291 812.219 172.77 809.823C171.57 807.906 170.929 805.51 170.929 803.034L174.852 440.357C174.852 434.607 178.133 429.895 182.215 429.895H182.536C183.576 429.895 184.537 430.214 185.497 430.773C186.458 431.332 187.258 432.211 187.978 433.249C189.259 435.166 189.899 437.722 189.899 440.357L187.258 803.114C187.258 808.864 183.656 813.576 179.254 813.576ZM186.298 435.805C185.337 434.287 183.976 433.489 182.536 433.489H182.215C179.414 433.489 177.173 436.603 177.173 440.437L173.251 803.114C173.251 804.631 173.651 806.149 174.451 807.347C175.492 809.024 177.173 810.062 178.934 810.062H179.334C182.456 810.062 185.017 807.027 185.017 803.194L187.658 440.437C187.658 438.76 187.258 437.162 186.378 435.885L186.298 435.805Z" fill="#C49A6C" stroke="#9B8579" stroke-width="1.56408" stroke-miterlimit="10"/>
<path d="M211.432 812.7C210.391 812.061 209.431 811.102 208.71 809.984C207.51 808.067 206.869 805.671 206.869 803.195L207.51 440.359C207.51 434.529 210.792 429.816 214.874 429.816H215.194C217.115 429.816 218.956 430.855 220.317 432.851C221.757 434.848 222.478 437.484 222.478 440.359L223.118 803.195C223.118 805.671 222.478 808.067 221.277 809.984C219.756 812.38 217.515 813.738 215.194 813.738H214.794C213.593 813.738 212.472 813.418 211.432 812.779V812.7ZM219.676 807.349C220.477 806.151 220.877 804.633 220.877 803.116L220.236 440.279C220.236 438.442 219.756 436.765 218.796 435.487C217.835 434.129 216.554 433.41 215.194 433.41H214.874C212.072 433.41 209.831 436.525 209.831 440.279L209.191 803.116C209.191 804.633 209.591 806.151 210.391 807.349C211.512 809.026 213.113 809.984 214.874 809.984H215.274C217.035 809.984 218.636 809.026 219.756 807.349H219.676Z" fill="#C49A6C" stroke="#9B8579" stroke-width="1.56408" stroke-miterlimit="10"/>
<path d="M242.328 432.765C243.688 430.849 245.529 429.73 247.45 429.73H247.771C249.772 429.73 251.613 430.928 252.973 432.845C254.334 434.762 255.135 437.318 255.135 440.273L259.057 802.95C259.057 805.426 258.416 807.822 257.216 809.738C255.695 812.134 253.454 813.492 251.132 813.492H250.732C246.33 813.492 242.728 808.78 242.728 803.029L240.086 440.193C240.086 437.318 240.887 434.682 242.248 432.686L242.328 432.765ZM245.049 803.029C245.049 806.863 247.61 809.898 250.732 809.898H251.132C252.893 809.898 254.494 808.94 255.615 807.183C256.415 805.985 256.815 804.467 256.815 802.95L252.893 440.193C252.893 436.439 250.652 433.324 247.851 433.324H247.53C246.17 433.324 244.889 434.043 243.928 435.401C243.048 436.679 242.488 438.436 242.488 440.193L245.129 802.95L245.049 803.029Z" fill="#C49A6C" stroke="#9B8579" stroke-width="1.56408" stroke-miterlimit="10"/>
<path d="M337.099 927.304C337.099 927.304 337.739 927.144 337.9 926.824C337.9 926.745 338.06 926.505 338.06 926.186L337.739 892.641C337.739 892.082 337.259 891.443 336.699 891.443C333.897 891.443 285.872 891.523 242.488 891.523C199.025 891.523 151.079 891.523 148.278 891.443C147.717 891.443 147.237 892.002 147.237 892.561L146.917 926.106C146.917 926.106 146.917 926.585 147.077 926.824C147.237 927.144 147.557 927.304 147.877 927.304H337.099Z" fill="#FFECD5"/>
<path d="M242.488 886.974C279.628 886.974 319.81 886.974 320.53 886.974C323.092 886.895 325.413 885.297 327.094 882.662C328.455 880.425 329.255 877.55 329.175 874.595C329.175 867.966 325.093 862.535 320.21 862.535H164.847C159.964 862.535 155.962 867.966 155.882 874.595C155.882 877.55 156.602 880.425 157.963 882.662C159.564 885.297 161.965 886.895 164.527 886.974C165.167 886.974 205.429 886.974 242.569 886.974H242.488Z" fill="#FFECD5"/>
<path d="M242.489 857.661C278.108 857.661 317.169 857.661 318.85 857.661C319.73 857.661 320.611 857.102 321.171 856.144C321.491 855.585 321.892 854.706 321.892 853.508V849.754C321.812 845.761 319.33 842.486 316.369 842.486C314.848 842.486 277.067 842.486 242.489 842.486C207.91 842.486 170.13 842.486 168.689 842.486C165.648 842.486 163.246 845.761 163.166 849.754V853.508C163.166 854.706 163.486 855.585 163.807 856.144C164.367 857.102 165.247 857.581 166.128 857.661C167.809 857.661 206.87 857.661 242.489 857.661Z" fill="#FFECD5"/>
<path d="M312.126 375.185C314.207 375.185 316.209 373.908 317.649 371.591C319.09 369.275 319.971 366.24 319.89 362.966C319.89 356.257 316.368 350.746 312.046 350.746H172.852C168.529 350.746 165.007 356.257 165.007 362.966C165.007 366.24 165.808 369.275 167.248 371.591C168.689 373.908 170.69 375.185 172.771 375.185H312.046H312.126Z" fill="#FFECD5"/>
<path d="M308.924 395.233C310.205 395.233 311.405 394.435 312.286 393.077C313.166 391.719 313.646 389.882 313.646 387.886V384.132C313.646 381.895 312.446 380.059 311.005 380.059H173.971C172.531 380.059 171.33 381.895 171.33 384.132V387.886C171.33 389.802 171.81 391.719 172.691 393.077C173.571 394.435 174.772 395.233 176.053 395.233H309.004H308.924Z" fill="#FFECD5"/>
<path d="M242.489 837.932C266.422 837.932 297.398 837.932 305.723 837.772H306.123L305.803 802.231C304.842 708.946 302.681 490.589 301.881 400.739V400.18H183.177V400.739C182.456 489.152 180.215 705.512 179.335 797.918L178.935 837.852H179.335C187.659 837.932 218.556 838.012 242.569 838.012L242.489 837.932Z" fill="#FFECD5"/>
<path d="M206.71 809.02C210.072 809.02 212.793 805.665 212.793 801.512L215.435 438.755C215.435 436.919 214.954 435.161 214.074 433.804C213.033 432.206 211.593 431.248 209.992 431.248H209.671C206.71 431.248 204.229 434.602 204.229 438.755L200.307 801.432C200.307 803.109 200.707 804.707 201.587 806.065C202.708 807.902 204.469 808.94 206.31 808.94H206.71V809.02Z" fill="#FFE2C3"/>
<path d="M242.648 809.1C244.489 809.1 246.25 808.061 247.371 806.224C248.251 804.867 248.651 803.269 248.651 801.592L248.011 438.755C248.011 436.759 247.451 434.922 246.49 433.484C245.449 432.047 244.089 431.248 242.648 431.248H242.328C239.366 431.248 236.885 434.602 236.885 438.755L236.245 801.592C236.245 803.349 236.725 804.946 237.525 806.224C238.646 808.061 240.407 809.1 242.248 809.1H242.648Z" fill="#FFE2C3"/>
<path d="M278.589 809.02C280.43 809.02 282.19 807.981 283.311 806.144C284.192 804.787 284.592 803.189 284.592 801.512L280.67 438.755C280.67 434.602 278.188 431.248 275.227 431.248H274.907C273.466 431.248 272.105 432.047 271.065 433.484C270.104 434.922 269.544 436.759 269.544 438.755L272.185 801.512C272.185 805.665 274.907 809.02 278.268 809.02H278.669H278.589Z" fill="#FFE2C3"/>
<path d="M326.614 345.954C327.014 345.954 327.334 345.395 327.334 344.756C327.334 333.575 327.334 322.393 327.334 311.212C327.334 310.892 327.254 310.573 327.094 310.333C326.934 310.173 326.774 310.014 326.614 310.014H158.363C157.963 310.014 157.643 310.573 157.643 311.212C157.643 322.393 157.643 333.575 157.643 344.756C157.643 345.075 157.643 345.395 157.883 345.555C158.043 345.794 158.203 345.874 158.443 345.874H326.774L326.614 345.954Z" fill="#FFECD5"/>
<path d="M148.277 886.014C150.598 886.014 152.919 886.094 155.241 886.173C153.32 882.899 152.199 878.746 152.279 874.513C152.279 867.005 155.721 860.696 160.363 858.22C159.803 856.782 159.563 855.185 159.563 853.508V849.754C159.643 842.726 163.645 837.135 168.528 837.135H168.608C170.849 837.135 173.09 837.135 175.332 837.215C175.732 798.08 178.693 507.124 179.574 400.741H175.892C173.731 400.741 171.649 399.383 170.129 396.987C168.608 394.591 167.727 391.396 167.727 387.962V384.208C167.727 382.531 168.048 380.854 168.528 379.496C167.087 378.618 165.806 377.26 164.686 375.583C162.525 372.228 161.404 367.835 161.404 363.123C161.404 358.651 162.525 354.657 164.205 351.543H158.122C157.002 351.543 155.961 350.824 155.161 349.626C154.36 348.428 153.96 346.75 153.96 344.914C153.96 333.732 153.96 322.551 153.96 311.449C153.96 307.775 155.881 304.82 158.202 304.82H326.453C327.573 304.82 328.614 305.539 329.414 306.737C330.215 308.015 330.615 309.612 330.615 311.449C330.615 322.631 330.615 333.812 330.615 344.914C330.615 348.587 328.694 351.543 326.373 351.543H320.289C322.05 354.657 323.091 358.731 323.091 363.123C323.091 367.835 321.97 372.308 319.809 375.583C318.689 377.34 317.408 378.618 315.967 379.496C316.447 380.854 316.767 382.531 316.767 384.208V387.962C316.767 391.396 315.967 394.591 314.366 396.987C312.765 399.383 310.764 400.741 308.603 400.741H305.001C305.882 507.284 308.843 798.24 309.243 837.215C311.485 837.215 313.726 837.215 315.967 837.135H316.047C320.93 837.135 324.932 842.806 325.012 849.754V853.508C325.012 855.185 324.772 856.782 324.211 858.22C328.854 860.696 332.216 867.005 332.296 874.513C332.296 878.826 331.255 882.979 329.334 886.173C331.655 886.173 333.977 886.094 336.298 886.014C338.779 886.014 340.78 888.889 340.78 892.563C340.86 903.744 341.021 914.926 341.101 926.027C341.101 927.704 340.7 929.302 339.9 930.58C339.02 931.937 337.899 932.736 336.618 932.736H147.316C146.036 932.736 144.915 931.937 144.035 930.58C143.234 929.302 142.834 927.704 142.834 926.027C142.914 914.846 143.074 903.664 143.154 892.563C143.154 888.969 145.235 886.014 147.717 886.014H148.277ZM326.613 345.313C326.613 345.313 327.013 345.073 327.013 344.754C327.013 333.572 327.013 322.391 327.013 311.21C327.013 311.05 327.013 310.89 326.933 310.81C326.933 310.81 326.773 310.651 326.693 310.651H158.442C158.442 310.651 158.042 310.89 158.042 311.21C158.042 322.391 158.042 333.572 158.042 344.754C158.042 344.914 158.042 345.073 158.122 345.153C158.202 345.233 158.282 345.313 158.362 345.313H326.693H326.613ZM317.328 371.19C318.689 368.954 319.489 366.078 319.489 362.964C319.489 356.574 316.127 351.383 312.045 351.383H172.85C168.768 351.383 165.406 356.574 165.406 362.964C165.406 366.078 166.127 368.954 167.567 371.19C169.008 373.426 170.849 374.624 172.85 374.624H173.971H311.004H312.125C314.126 374.624 315.967 373.426 317.408 371.19H317.328ZM308.923 394.591C310.044 394.591 311.164 393.872 311.965 392.594C312.765 391.316 313.246 389.639 313.246 387.882V384.128C313.246 382.212 312.205 380.614 311.004 380.614H173.971C172.77 380.614 171.73 382.212 171.73 384.128V387.882C171.73 389.639 172.13 391.396 172.93 392.594C173.731 393.872 174.851 394.591 175.972 394.591H308.923ZM301.399 400.661H183.416C182.535 507.044 179.574 798.08 179.173 837.135C194.222 837.295 290.593 837.295 305.642 837.135C305.241 798.16 302.28 507.204 301.399 400.661ZM321.41 849.754C321.41 846.08 319.089 843.045 316.367 843.045C313.566 843.045 171.489 843.045 168.768 843.045C165.966 843.045 163.725 846.08 163.725 849.754V853.508C163.725 854.546 163.965 855.265 164.286 855.744C164.766 856.543 165.566 857.022 166.367 857.022C169.568 857.022 315.807 857.022 319.009 857.022C319.809 857.022 320.53 856.543 321.09 855.744C321.33 855.265 321.73 854.546 321.65 853.508V849.754H321.41ZM320.129 863.092H320.049C319.649 863.092 164.766 863.092 164.766 863.092C160.123 863.092 156.281 868.203 156.201 874.593C156.201 877.388 156.842 880.104 158.202 882.18C159.803 884.736 162.044 886.173 164.526 886.333C165.806 886.333 319.249 886.333 320.529 886.333C322.931 886.253 325.252 884.736 326.773 882.18C328.054 880.024 328.774 877.308 328.774 874.513C328.774 868.124 324.852 863.012 320.209 863.012L320.129 863.092ZM147.316 926.347C147.316 926.347 147.636 926.666 147.877 926.666H337.098C337.339 926.666 337.499 926.506 337.659 926.347C337.659 926.347 337.739 926.187 337.739 926.107C337.659 914.926 337.499 903.744 337.419 892.643C337.419 892.403 337.178 892.084 336.778 892.084C331.335 892.243 153.72 892.243 148.357 892.084C147.957 892.084 147.717 892.483 147.717 892.643C147.637 903.824 147.476 915.005 147.396 926.107C147.396 926.187 147.396 926.267 147.477 926.347H147.316Z" fill="#C49A6C"/>
<path d="M206.709 812.055H206.309C203.907 812.055 201.746 810.697 200.225 808.301C199.025 806.384 198.384 803.988 198.384 801.512L202.306 438.836C202.306 433.085 205.588 428.373 209.67 428.373H209.99C211.031 428.373 211.991 428.693 212.952 429.252C213.912 429.811 214.713 430.689 215.433 431.727C216.714 433.644 217.354 436.2 217.354 438.836L214.713 801.592C214.713 807.343 211.111 812.055 206.709 812.055ZM213.752 434.203C212.792 432.686 211.431 431.887 209.99 431.887H209.67C206.869 431.887 204.628 435.002 204.628 438.836L200.705 801.512C200.705 803.03 201.106 804.547 201.906 805.745C202.947 807.423 204.627 808.461 206.388 808.461H206.789C209.91 808.461 212.472 805.426 212.472 801.592L215.113 438.836C215.113 437.158 214.713 435.561 213.833 434.283L213.752 434.203Z" fill="#C49A6C"/>
<path d="M238.886 811.178C237.845 810.539 236.885 809.581 236.164 808.463C234.964 806.546 234.324 804.15 234.324 801.674L234.964 438.837C234.964 433.007 238.246 428.295 242.328 428.295H242.648C244.569 428.295 246.41 429.333 247.771 431.33C249.211 433.327 249.932 435.962 249.932 438.837L250.572 801.674C250.572 804.15 249.932 806.546 248.731 808.463C247.21 810.859 244.969 812.216 242.648 812.216H242.248C241.047 812.216 239.927 811.897 238.886 811.258V811.178ZM247.13 805.827C247.931 804.629 248.331 803.112 248.331 801.594L247.691 438.758C247.691 436.921 247.21 435.243 246.25 433.966C245.289 432.608 244.009 431.889 242.648 431.889H242.328C239.526 431.889 237.285 435.004 237.285 438.758L236.645 801.594C236.645 803.112 237.045 804.629 237.845 805.827C238.966 807.504 240.567 808.463 242.328 808.463H242.728C244.489 808.463 246.09 807.504 247.21 805.827H247.13Z" fill="#C49A6C"/>
<path d="M269.782 431.25C271.143 429.333 272.984 428.215 274.905 428.215H275.225C277.226 428.215 279.067 429.413 280.427 431.33C281.788 433.246 282.589 435.802 282.589 438.757L286.511 801.434C286.511 803.91 285.871 806.306 284.67 808.223C283.149 810.619 280.908 811.977 278.587 811.977H278.186C273.784 811.977 270.182 807.264 270.182 801.514L267.541 438.677C267.541 435.802 268.341 433.167 269.702 431.17L269.782 431.25ZM272.503 801.514C272.503 805.348 275.065 808.382 278.186 808.382H278.587C280.348 808.382 281.948 807.424 283.069 805.667C283.869 804.469 284.27 802.952 284.27 801.434L280.348 438.677C280.348 434.924 278.106 431.809 275.305 431.809H274.985C273.624 431.809 272.343 432.528 271.383 433.885C270.502 435.163 269.942 436.92 269.942 438.677L272.583 801.434L272.503 801.514Z" fill="#C49A6C"/>
<path d="M113.38 927.304C113.38 927.304 114.021 927.144 114.181 926.824C114.181 926.745 114.341 926.505 114.341 926.186L114.021 892.641C114.021 892.082 113.541 891.443 112.98 891.443C110.179 891.443 62.153 891.523 18.7697 891.523C-24.6937 891.523 -72.6396 891.523 -75.4411 891.443C-76.0014 891.443 -76.4817 892.002 -76.4817 892.561L-76.8017 926.106C-76.8017 926.106 -76.8018 926.585 -76.6417 926.824C-76.4816 927.144 -76.1614 927.304 -75.8412 927.304H113.38Z" fill="#FFECD5"/>
<path d="M18.768 886.974C55.908 886.974 96.0896 886.974 96.8099 886.974C99.3713 886.895 101.692 885.297 103.373 882.662C104.734 880.425 105.535 877.55 105.454 874.595C105.454 867.966 101.372 862.535 96.4897 862.535H-58.8738C-63.7564 862.535 -67.7585 867.966 -67.8386 874.595C-67.8386 877.55 -67.1183 880.425 -65.7576 882.662C-64.1568 885.297 -61.7554 886.895 -59.194 886.974C-58.5537 886.974 -18.2921 886.974 18.8479 886.974H18.768Z" fill="#FFECD5"/>
<path d="M18.7693 857.661C54.3885 857.661 93.4493 857.661 95.1302 857.661C96.0107 857.661 96.8912 857.102 97.4515 856.144C97.7717 855.585 98.1719 854.706 98.1719 853.508V849.754C98.0918 845.761 95.6105 842.486 92.6489 842.486C91.1281 842.486 53.3479 842.486 18.7693 842.486C-15.8092 842.486 -53.5896 842.486 -55.0303 842.486C-58.072 842.486 -60.4733 845.761 -60.5533 849.754V853.508C-60.5533 854.706 -60.2332 855.585 -59.9131 856.144C-59.3528 857.102 -58.4722 857.581 -57.5918 857.661C-55.9109 857.661 -16.8498 857.661 18.7693 857.661Z" fill="#FFECD5"/>
<path d="M88.4056 375.183C90.4867 375.183 92.4878 373.906 93.9286 371.589C95.3694 369.273 96.2498 366.238 96.1698 362.964C96.1698 356.255 92.6478 350.744 88.3255 350.744H-50.8692C-55.1915 350.744 -58.7135 356.255 -58.7135 362.964C-58.7135 366.238 -57.9131 369.273 -56.4723 371.589C-55.0315 373.906 -53.0304 375.183 -50.9493 375.183H88.3255H88.4056Z" fill="#FFECD5"/>
<path d="M85.2042 395.229C86.4849 395.229 87.6857 394.431 88.5662 393.073C89.4466 391.715 89.9268 389.878 89.9268 387.882V384.128C89.9268 381.892 88.7262 380.055 87.2854 380.055H-49.7484C-51.1892 380.055 -52.3897 381.892 -52.3897 384.128V387.882C-52.3897 389.798 -51.9093 391.715 -51.0289 393.073C-50.1484 394.431 -48.9479 395.229 -47.6672 395.229H85.2844H85.2042Z" fill="#FFECD5"/>
<path d="M18.7683 837.932C42.7012 837.932 73.6778 837.932 82.0022 837.772H82.4023L82.0821 802.231C81.1216 708.946 78.9605 490.589 78.1601 400.739V400.18H-40.5436V400.739C-41.264 489.152 -43.5053 705.512 -44.3857 797.918L-44.7859 837.852H-44.3857C-36.0613 837.932 -5.16472 838.012 18.8482 838.012L18.7683 837.932Z" fill="#FFECD5"/>
<path d="M54.9479 809.02C56.7889 809.02 58.5499 807.981 59.6705 806.144C60.5509 804.787 60.9512 803.189 60.9512 801.512L57.0291 438.755C57.0291 434.602 54.5476 431.248 51.586 431.248H51.266C49.8253 431.248 48.4644 432.047 47.4239 433.484C46.4634 434.922 45.903 436.759 45.903 438.755L48.5446 801.512C48.5446 805.665 51.2659 809.02 54.6277 809.02H55.0281H54.9479Z" fill="#FFE2C3"/>
<path d="M102.893 345.954C103.293 345.954 103.613 345.395 103.613 344.756C103.613 333.575 103.613 322.393 103.613 311.212C103.613 310.892 103.533 310.573 103.373 310.333C103.213 310.173 103.053 310.014 102.893 310.014H-65.3574C-65.7576 310.014 -66.0778 310.573 -66.0778 311.212C-66.0778 322.393 -66.0778 333.575 -66.0778 344.756C-66.0778 345.075 -66.0778 345.395 -65.8376 345.555C-65.6776 345.794 -65.5174 345.874 -65.2773 345.874H103.053L102.893 345.954Z" fill="#FFECD5"/>
<path d="M-75.4418 886.014C-73.1205 886.014 -70.7993 886.094 -68.4781 886.173C-70.3991 882.899 -71.5197 878.746 -71.4396 874.513C-71.4396 867.005 -67.9977 860.696 -63.3552 858.22C-63.9155 856.782 -64.1557 855.185 -64.1557 853.508V849.754C-64.0756 842.726 -60.0735 837.135 -55.1909 837.135H-55.1108C-52.8696 837.135 -50.6284 837.135 -48.3872 837.215C-47.987 798.08 -45.0254 507.124 -44.1449 400.741H-47.8268C-49.988 400.741 -52.0691 399.383 -53.5899 396.987C-55.1107 394.591 -55.9914 391.396 -55.9914 387.962V384.208C-55.9914 382.531 -55.6712 380.854 -55.1909 379.496C-56.6317 378.618 -57.9122 377.26 -59.0328 375.583C-61.194 372.228 -62.3146 367.835 -62.3146 363.123C-62.3146 358.651 -61.1939 354.657 -59.513 351.543H-65.5964C-66.717 351.543 -67.7575 350.824 -68.5579 349.626C-69.3584 348.428 -69.7588 346.75 -69.7588 344.914C-69.7588 333.732 -69.7588 322.551 -69.7588 311.449C-69.7588 307.775 -67.8375 304.82 -65.5163 304.82H102.734C103.855 304.82 104.895 305.539 105.696 306.737C106.496 308.015 106.896 309.612 106.896 311.449C106.896 322.631 106.896 333.812 106.896 344.914C106.896 348.587 104.975 351.543 102.654 351.543H96.5708C98.3318 354.657 99.3722 358.731 99.3722 363.123C99.3722 367.835 98.2515 372.308 96.0904 375.583C94.9698 377.34 93.6892 378.618 92.2485 379.496C92.7287 380.854 93.0489 382.531 93.0489 384.208V387.962C93.0489 391.396 92.2484 394.591 90.6475 396.987C89.0466 399.383 87.0456 400.741 84.8844 400.741H81.2826C82.1631 507.284 85.1247 798.24 85.5249 837.215C87.7661 837.215 90.0072 837.215 92.2485 837.135H92.3283C97.211 837.135 101.213 842.806 101.293 849.754V853.508C101.293 855.185 101.053 856.782 100.493 858.22C105.135 860.696 108.497 867.005 108.577 874.513C108.577 878.826 107.537 882.979 105.616 886.173C107.937 886.173 110.258 886.094 112.579 886.014C115.061 886.014 117.062 888.889 117.062 892.563C117.142 903.744 117.302 914.926 117.382 926.027C117.382 927.704 116.982 929.302 116.181 930.58C115.301 931.937 114.18 932.736 112.899 932.736H-76.4023C-77.6829 932.736 -78.8036 931.937 -79.684 930.58C-80.4845 929.302 -80.8846 927.704 -80.8846 926.027C-80.8046 914.846 -80.6444 903.664 -80.5644 892.563C-80.5644 888.969 -78.4835 886.014 -76.0021 886.014H-75.4418ZM102.894 345.313C102.894 345.313 103.294 345.073 103.294 344.754C103.294 333.572 103.294 322.391 103.294 311.21C103.294 311.05 103.294 310.89 103.214 310.81C103.214 310.81 103.054 310.651 102.974 310.651H-65.2762C-65.2762 310.651 -65.6765 310.89 -65.6765 311.21C-65.6765 322.391 -65.6765 333.572 -65.6765 344.754C-65.6765 344.914 -65.6764 345.073 -65.5964 345.153C-65.5163 345.233 -65.4363 345.313 -65.3563 345.313H102.974H102.894ZM93.6892 371.19C95.0499 368.954 95.8502 366.078 95.8502 362.964C95.8502 356.574 92.4885 351.383 88.4063 351.383H-50.7884C-54.8706 351.383 -58.2326 356.574 -58.2326 362.964C-58.2326 366.078 -57.512 368.954 -56.0713 371.19C-54.6305 373.426 -52.7895 374.624 -50.7884 374.624H-49.6679H87.3657H88.4864C90.4875 374.624 92.3285 373.426 93.7693 371.19H93.6892ZM85.2046 394.591C86.3252 394.591 87.4459 393.872 88.2463 392.594C89.0467 391.316 89.527 389.639 89.527 387.882V384.128C89.527 382.212 88.4865 380.614 87.2858 380.614H-49.748C-50.9487 380.614 -51.9892 382.212 -51.9892 384.128V387.882C-51.9892 389.639 -51.5888 391.396 -50.7884 392.594C-49.988 393.872 -48.8676 394.591 -47.7469 394.591H85.2046ZM77.7607 400.661H-40.2229C-41.1034 507.044 -44.0649 798.08 -44.4652 837.135C-29.4171 837.295 66.9549 837.295 82.003 837.135C81.6027 798.16 78.6412 507.204 77.7607 400.661ZM97.6913 849.754C97.6913 846.08 95.37 843.045 92.6486 843.045C89.8471 843.045 -52.2293 843.045 -54.9508 843.045C-57.7523 843.045 -59.9935 846.08 -59.9935 849.754V853.508C-59.9935 854.546 -59.7533 855.265 -59.4332 855.744C-58.9529 856.543 -58.1524 857.022 -57.352 857.022C-54.1503 857.022 92.0884 857.022 95.2901 857.022C96.0906 857.022 96.8108 856.543 97.3711 855.744C97.6112 855.265 98.0115 854.546 97.9314 853.508V849.754H97.6913ZM96.4907 863.092H96.4106C96.0104 863.092 -58.8728 863.092 -58.8728 863.092C-63.5153 863.092 -67.3574 868.203 -67.4375 874.593C-67.4375 877.388 -66.7971 880.104 -65.4364 882.18C-63.8355 884.736 -61.5943 886.173 -59.1129 886.333C-57.8322 886.333 95.6102 886.333 96.8908 886.333C99.2921 886.253 101.613 884.736 103.134 882.18C104.415 880.024 105.135 877.308 105.135 874.513C105.135 868.124 101.213 863.012 96.5708 863.012L96.4907 863.092ZM-76.4023 926.347C-76.4023 926.347 -76.082 926.666 -75.8419 926.666H113.38C113.62 926.666 113.78 926.506 113.94 926.347C113.94 926.347 114.02 926.187 114.02 926.107C113.94 914.926 113.78 903.744 113.7 892.643C113.7 892.403 113.46 892.084 113.06 892.084C107.617 892.243 -69.9988 892.243 -75.3616 892.084C-75.7619 892.084 -76.0021 892.483 -76.0021 892.643C-76.0822 903.824 -76.2421 915.005 -76.3221 926.107C-76.3221 926.187 -76.3223 926.267 -76.2422 926.347H-76.4023Z" fill="#C49A6C"/>
<path d="M46.0628 431.25C47.4235 429.333 49.2646 428.215 51.1857 428.215H51.5059C53.507 428.215 55.3479 429.413 56.7086 431.33C58.0694 433.246 58.8697 435.802 58.8697 438.757L62.792 801.434C62.792 803.91 62.1516 806.306 60.9509 808.223C59.4301 810.619 57.1888 811.977 54.8676 811.977H54.4675C50.0651 811.977 46.4632 807.264 46.4632 801.514L43.8216 438.677C43.8216 435.802 44.6222 433.167 45.9829 431.17L46.0628 431.25ZM48.8643 801.514C48.8643 805.348 51.4259 808.382 54.5476 808.382H54.9477C56.7086 808.382 58.3095 807.424 59.4301 805.667C60.2305 804.469 60.6307 802.952 60.6307 801.434L56.7086 438.677C56.7086 434.924 54.4674 431.809 51.6659 431.809H51.3457C49.9849 431.809 48.7044 432.528 47.7439 433.885C46.8634 435.163 46.3029 436.92 46.3029 438.677L48.9445 801.434L48.8643 801.514Z" fill="#C49A6C"/>
<path style="mix-blend-mode:screen" d="M658.073 2730.23C671.52 2715.61 2253.89 2757.3 2253.89 2757.3C2253.89 2757.3 1887.29 2187.93 1625.31 2218.6C1363.33 2249.27 1284.81 2049.28 1130.09 2076.68C975.364 2104.15 631.979 2533.28 631.979 2533.28L658.073 2730.15V2730.23Z" fill="url(#paint5_linear_1432_1630)"/>
<g style="mix-blend-mode:screen">
<path d="M2074.91 2699.64C2074.91 2699.64 1893.69 2474.34 1757.7 2415.79C1517.49 2312.36 1428.48 2466.27 1349.56 2466.27C1270.64 2466.27 1191.64 2494.94 1101.27 2587.99C1067.97 2622.33 1037.31 2702.04 1037.31 2702.04L2074.91 2699.56V2699.64Z" fill="#333333"/>
</g>
<path d="M1784.84 2790.69C1768.75 2795.08 1505.57 2855.22 1053.64 2940.04C1008.74 2948.43 961.914 2957.13 913.247 2966C899.8 2968.47 886.193 2970.95 872.505 2973.42C825.52 2981.89 777.014 2990.67 726.987 2999.54C697.611 3004.73 667.755 3010 637.339 3015.27C610.365 3019.99 582.91 3024.7 555.135 3029.49C381.201 3059.28 191.74 3090.27 -11.0895 3121.58C-11.0895 3012.16 -11.0895 2687.82 -11.0895 2687.82H1942.12C1942.12 2687.82 1958.29 2743.09 1784.84 2790.69Z" fill="#A0DDF7"/>
<path d="M-10.6074 943.043C-10.6074 943.043 417.623 1189.11 433.231 1209.72C448.84 1230.33 600.201 1688.76 613.888 1738.28C627.576 1787.8 759.887 2328.58 770.853 2710.02C182.376 2702.84 -10.6074 2701.16 -10.6074 2701.16V943.043Z" fill="url(#paint6_linear_1432_1630)"/>
<path d="M-10.8466 1409.31L285.312 2629.44L-10.8466 2654.91V1409.31Z" fill="url(#paint7_linear_1432_1630)"/>
<path d="M324.293 1176.89C324.293 1176.89 459.805 1633.73 497.746 1674.86C535.686 1715.99 682.085 2182.34 682.085 2182.34L795.266 2687.98L235.845 2698.2V1824.05C235.845 1824.05 259.218 2083.14 396.571 2083.14C371.278 1855.2 298.999 1506.26 298.999 1506.26C298.999 1506.26 360.472 1270.97 324.293 1176.89Z" fill="url(#paint8_linear_1432_1630)"/>
<path d="M-11.0854 732.032C-11.0854 732.032 1186.2 745.21 1604.18 608.398C2022.09 471.585 2518.75 399.625 2518.75 399.625V534.361C1703.04 654.481 1597.54 716.698 1299.06 745.13C782.301 794.328 986.731 818.368 1225.5 818.368C1464.27 818.368 1653.17 710.947 1963.42 693.616C2233.72 678.521 2518.75 644.258 2518.75 644.258V693.616C2518.75 693.616 1299.78 846.961 815.198 885.537C492.145 911.254 777.498 781.15 463.169 781.15C344.546 781.15 -11.0054 763.899 -11.0054 763.899V732.032H-11.0854Z" fill="#BAE6F9"/>
<path d="M2518.75 1466.02C2451.68 1506.27 2543.33 1956.16 2366.67 2023.33C2213.95 2251.11 2221.63 2944.12 2221.63 2944.12L2518.75 2949.71V1465.94V1466.02Z" fill="url(#paint9_linear_1432_1630)"/>
<path d="M2134.23 2951.94C2134.23 2951.94 2206.91 2710.34 2326.49 2646.61C2440.95 2585.59 2518.75 2630.47 2518.75 2630.47V2953.78L2134.23 2951.86V2951.94Z" fill="#004D77"/>
<path d="M1995.03 2954.42C1995.03 2954.42 2002.72 2853.54 2070.83 2816.88C2110.29 2795.72 2151.03 2810.89 2176.33 2838.29C2216.75 2882.14 2221.63 2955.45 2221.63 2955.45L1995.03 2954.34V2954.42Z" fill="#004D77"/>
<path d="M1078.78 2884.13C862.021 2915.44 609.325 3050.89 609.325 3050.89L484.458 3067.43C484.458 3067.43 695.851 2918.08 1023.79 2877.9C1041.96 2879.9 1060.21 2881.98 1078.7 2884.21L1078.78 2884.13Z" fill="#C9D7C9"/>
<path d="M435.312 3060.89C324.373 3143.23 615.169 3308.56 615.169 3308.56H1041.08C1041.08 3308.56 548.333 3156.17 576.108 3079.34C580.511 3067.2 594.918 3052.1 614.609 3042.68L435.312 3060.89Z" fill="#84A3C1"/>
<path d="M891.477 2752.99C891.477 2776.31 884.433 2797.8 872.586 2815.21C825.601 2818.96 777.095 2822.87 727.068 2826.87C709.699 2807.94 698.893 2781.9 698.893 2753.07C698.893 2728.39 706.737 2705.79 719.864 2687.9H870.425C883.552 2705.79 891.397 2728.39 891.397 2753.07L891.477 2752.99Z" fill="#FFF1E7"/>
<path d="M-11.0871 2182.66C49.9057 2162.54 242.249 2169.48 292.196 2311.57C303.962 2287.29 460.126 2266.84 550.174 2446.14C620.292 2386.48 655.911 2477.45 655.911 2477.45C655.911 2477.45 711.541 2382.89 795.827 2439.75C873.548 2492.23 842.251 2535.28 842.251 2535.28C842.251 2535.28 903.484 2540.47 939.424 2606.2C972.161 2666.02 942.225 2717.69 942.225 2717.69L-11.1672 2708.75V2182.66H-11.0871Z" fill="#70C493"/>
<path d="M-11.088 2199.19C52.3061 2188.25 218.555 2204.79 292.195 2332.33C303.961 2309.97 460.125 2281.38 550.174 2446.94C592.917 2411.8 655.91 2477.53 655.91 2477.53C655.91 2477.53 712.741 2399.82 778.696 2445.03C854.257 2496.86 842.331 2538.87 842.331 2538.87C842.331 2538.87 903.563 2553.33 939.503 2614.02C972.24 2669.29 942.304 2707.31 942.304 2707.31L-11.088 2699V2199.19Z" fill="url(#paint10_linear_1432_1630)"/>
<path d="M-11.0874 2784.54C-11.0874 2784.54 1003.94 2744.76 1107.67 2718.73H-11.0874V2784.54Z" fill="#76CEDE"/>
<path d="M-11.0874 2654.91C-11.0874 2654.91 1003.94 2694.69 1107.67 2720.72H-11.0874V2654.91Z" fill="url(#paint11_linear_1432_1630)"/>
<path opacity="0.2" d="M875.55 2657.07C874.429 2655.87 873.309 2654.68 872.268 2653.48L875.55 2657.07Z" fill="white"/>
<path opacity="0.56" d="M-11.0883 507.209C-11.0883 507.209 282.669 540.993 431.069 540.993C839.849 540.993 578.268 581.885 211.431 587.555C117.621 588.993 220.476 640.028 -11.0883 627.649V507.209Z" fill="#BAE6F9"/>
<path d="M115.701 933.777C115.701 933.777 336.7 1001.11 410.579 1150.38C468.69 1267.62 473.333 1388.86 506.951 1453.31C563.301 1561.29 611.567 1756.33 657.992 1926.45C588.275 1608.97 524.801 1458.82 465.088 1246.54C418.503 1080.89 370.878 1044.47 324.853 1025.78C311.886 1020.51 115.621 933.777 115.621 933.777H115.701Z" fill="#99D3B4"/>
<path d="M1448.34 3266.78C1448.34 3266.78 1595.86 3088.68 1505.41 3124.06C1451.14 3145.3 1439.13 3266.78 1439.13 3266.78C1439.13 3266.78 1448.34 3190.11 1448.34 3153.85C1448.34 3117.59 1418.8 3184.76 1439.13 3266.78C1402.23 3198.73 1393.03 3172.46 1343.24 3183.56C1293.45 3194.66 1420.72 3232.84 1420.72 3254.8C1420.72 3276.76 1448.42 3266.78 1448.42 3266.78H1448.34Z" fill="#1E4280"/>
<path d="M1948.53 3139.31C1948.53 3139.31 1858.72 2983.81 1907.55 3036.84C1915.87 3045.87 1981.67 3138.19 1981.67 3138.19C1981.67 3138.19 1948.53 3084.2 1948.53 3058.17C1948.53 3032.13 2008.88 3074.54 1994.31 3133.48C2020.81 3084.6 2032.41 3073.9 2068.11 3081.89C2103.89 3089.87 2017.28 3125.1 2017.28 3140.91C2017.28 3156.72 1948.45 3139.31 1948.45 3139.31H1948.53Z" fill="#1E4280"/>
<path d="M439.555 2921.67C439.555 2921.67 296.358 2839.25 235.845 2806.98C177.894 2776.07 -10.8473 2784.62 -10.8473 2784.62V2922.71L439.555 2921.75V2921.67Z" fill="#59BB5A"/>
<path d="M1576.24 3329.71C1621.23 3345.21 1666.21 3360.78 1711.2 3376.28C1667.25 3445.36 1595.29 3449.43 1531.18 3451.43C1467.07 3453.43 1394.15 3464.61 1355.65 3540.56C1451.06 3530.34 1547.83 3547.43 1638.92 3590.64C1613.62 3609.73 1588.33 3628.9 1563.12 3647.98C1680.7 3699.5 1800.36 3740.15 1921.39 3769.78C1904.58 3809.95 1879.05 3841.9 1849.43 3859.71C1890.41 3909.47 1946.92 3923.69 1999.67 3915.14C2052.34 3906.59 2102.45 3877.68 2151.75 3849.01C2165.12 3841.18 2179.37 3832.56 2187.61 3815.15C2194.42 3800.85 2196.1 3782.8 2197.62 3765.47C2204.26 3690.71 2210.91 3616.04 2217.55 3541.28C2126.14 3517.08 2034.81 3492.8 1943.4 3468.6C1925.15 3425.79 1991.43 3396.48 1933.16 3352.24C1904.98 3330.83 1853.03 3336.18 1820.3 3322.45C1786.84 3308.39 1759.06 3296.97 1723.52 3297.21C1682.3 3297.45 1613.3 3342.41 1576.24 3329.63V3329.71Z" fill="#7ECAD0"/>
<path d="M-49.7482 4016.97V3810.67C-32.2188 3804.92 -14.7692 3799.09 2.76025 3793.34C4.28107 3792.78 5.88184 3792.3 7.40265 3791.83C63.5128 3773.3 119.623 3754.77 175.733 3736.24C175.973 3736.24 176.133 3736.08 176.373 3736C198.705 3728.65 221.038 3721.22 243.37 3713.64C283.311 3700.06 323.253 3685.76 362.874 3669.71C392.009 3657.89 421.065 3645.03 449.88 3630.65C451.802 3629.69 453.642 3628.74 455.564 3627.86C472.373 3619.63 489.022 3612.2 505.35 3605.66C506.871 3605.02 508.392 3604.46 509.833 3603.9C512.394 3602.86 514.875 3601.9 517.437 3600.94C539.609 3592.48 561.46 3585.53 583.152 3580.1C597.64 3576.5 612.048 3573.55 626.375 3571.23C669.759 3564.36 712.582 3563.72 756.205 3569.55C757.966 3569.79 759.727 3570.03 761.488 3570.27C814.637 3577.94 868.906 3595.03 926.377 3621.79C947.108 3631.45 972.882 3668.35 958.314 3695.82C857.14 3697.82 756.365 3742.71 667.117 3825.21C659.593 3832.16 652.229 3839.35 644.865 3846.77C653.75 3851.49 662.555 3856.36 671.44 3861.39C703.457 3879.36 735.074 3898.93 766.451 3919.93C778.777 3928.16 791.984 3938.06 798.548 3958.03C803.03 3971.69 803.191 3986.54 800.469 4000.68C795.346 4027.03 780.138 4050.75 763.809 4058.9C738.836 4071.44 711.781 4062.81 686.248 4071.12C660.634 4079.51 633.98 4117.68 639.983 4161.61C552.656 4172.63 465.329 4183.65 378.002 4194.6C341.102 4199.23 304.282 4203.86 267.383 4208.57C209.431 4215.84 142.836 4231.73 111.779 4316.87C128.028 4317.27 144.276 4318.71 160.445 4321.26C201.827 4327.81 242.809 4341.47 282.591 4362C299.72 4370.86 318.21 4383.16 326.534 4410.64C336.94 4445.06 325.654 4489.54 307.564 4512.23C289.394 4534.91 266.262 4541.14 244.09 4546.49C193.503 4558.71 142.835 4569.41 92.0881 4578.68C52.7069 4585.86 13.2457 4592.17 -26.2155 4597.6C-34.0598 4598.64 -41.9838 4599.76 -49.8281 4600.72V4436.19C-50.7086 4426.69 -50.7086 4416.95 -49.8281 4407.36V4017.05L-49.7482 4016.97Z" fill="#7ECAD0"/>
<path d="M-50.3892 5084.4V5526.86H615.809C670.238 5505.14 730.03 5507.69 775.175 5451.39C782.699 5442.04 789.983 5430.14 791.984 5414.49C796.386 5380.79 775.495 5354.51 757.165 5340.69C624.854 5241.18 475.173 5252.36 331.016 5245.33C206.469 5239.18 82.0021 5217.7 -29.0176 5110.91C-36.6216 5103.57 -44.4659 5095.34 -50.309 5084.4H-50.3892Z" fill="#57B6B2"/>
<path d="M-46.4659 4458C-48.467 4450.89 -49.7477 4443.54 -50.4681 4436.11V4999.98C-44.705 4986.72 -36.8608 4975.7 -28.2162 4969.31C-6.12428 4953.01 18.9293 4957.73 42.9422 4959.8C85.8452 4963.56 129.068 4958.12 171.171 4943.59C197.345 4934.56 229.362 4907.49 226.16 4861.49C223.199 4818.68 192.622 4803.34 168.129 4795.52C107.217 4776.11 47.9048 4742.56 -7.88516 4696.08C-25.4146 4681.47 -45.6654 4653.27 -38.8618 4621.64C-36.7006 4611.58 -32.2982 4603.83 -26.8553 4597.45C-5.9641 4573.17 31.0157 4568.45 22.8513 4530.2C-4.20322 4518.14 -34.4593 4501.68 -46.5458 4458H-46.4659Z" fill="#57B6B2"/>
<path d="M-50.388 4018.73V4407.28C-47.2663 4372.46 -33.499 4338.83 -15.7294 4319.75C10.7648 4291.15 43.2623 4286.68 74.3991 4282.93C51.1066 4279.81 43.2625 4220.39 57.0299 4187.57C70.7973 4154.74 95.6105 4143.32 118.423 4134.85C176.534 4113.29 235.126 4096.36 294.117 4084.06C345.185 4073.35 396.572 4066.17 447.96 4062.57C446.599 4061.14 445.158 4059.7 443.718 4058.34C403.536 4019.21 355.91 4010.02 309.806 4004.59C193.343 3990.85 76.24 3994.93 -39.7423 4016.81C-43.2643 4017.45 -46.7859 4018.17 -50.3078 4018.81L-50.388 4018.73Z" fill="#57B6B2"/>
<path d="M-175.015 687.468V3433.54L-170.372 3432.5L-108.179 3418.21L21.2508 3388.5L30.7759 3389.69L49.8259 3392.09L187.42 3409.58L380.083 3434.1L517.838 3451.59L646.146 3467.88L639.503 3421.32L636.301 3398.72L633.26 3377.55L572.987 2953.46L547.533 2774.32L499.668 2668.81L465.409 2593.34L459.806 2581.04L446.519 2551.65L437.314 2531.36L431.791 2519.14L377.522 2399.58L352.309 2343.99L351.668 2342.56L308.365 2247.19L273.306 2091.29L194.464 1741.08L117.943 1377.76L117.382 1375.12L103.695 1310.19L81.603 1267.22L69.6767 1244.06L7.72345 1123.54L-20.5317 1068.67L-108.979 796.407L-130.351 730.596L-130.591 730.357C-132.752 728.36 -149.721 711.907 -175.015 687.148V687.468Z" fill="#3D5C4C"/>
<path d="M-175.015 1529.19V3047.78C-161.808 3061.44 -148.201 3074.86 -134.113 3088.03C-121.066 3100.25 -107.619 3112.23 -93.8516 3123.9C-75.6818 3139.31 -56.8718 3154.24 -37.3412 3168.78C-33.8193 3171.42 -30.2975 3174.05 -26.6956 3176.61C8.76343 3202.4 -6.04443 3309.03 21.1702 3356.07C29.7348 3370.92 39.34 3382.82 49.7456 3392.25C85.5248 3424.91 130.349 3429.23 171.811 3426.91C179.896 3426.43 187.98 3425.87 196.144 3425.31C242.249 3422.2 289.154 3420.68 329.896 3456.22C329.976 3456.3 330.136 3456.38 330.296 3456.54C384.485 3503.98 412.42 3585.61 470.772 3570.51C473.653 3569.79 477.095 3566.84 481.097 3562.76C494.224 3549.11 525.521 3515.96 525.521 3515.96L561.381 3518.52C561.381 3518.52 658.233 3516.12 659.913 3482.18C660.074 3479.62 652.63 3457.5 639.582 3421.56C636.941 3414.29 634.14 3406.54 631.018 3398.16C628.857 3392.33 626.616 3386.34 624.294 3380.03C577.709 3254.72 492.543 3035.8 411.54 2845.56C398.733 2815.61 386.086 2786.3 373.68 2758.26C331.177 2661.94 291.795 2579.68 262.42 2530.8C245.531 2502.69 232.003 2485.68 222.959 2483.28C24.0516 2430.09 -71.4396 1943.38 -146.44 1638.77C-156.285 1598.67 -165.81 1561.69 -175.175 1529.35L-175.015 1529.19Z" fill="#3D6E64"/>
<path d="M-175.017 2327.86V3047.78C-161.809 3061.44 -148.202 3074.86 -134.114 3088.04C-121.067 3100.25 -107.62 3112.23 -93.8528 3123.9C-75.683 3139.31 -56.8729 3154.24 -37.3425 3168.78C-33.8206 3171.42 -30.2988 3174.05 -26.6968 3176.61C8.76221 3202.4 -6.04565 3309.03 21.169 3356.07C29.7336 3370.92 39.3388 3382.82 49.7444 3392.25C85.5236 3424.91 130.348 3429.23 171.81 3426.91C179.894 3426.43 187.979 3425.87 196.143 3425.31C242.248 3422.2 289.153 3420.68 329.895 3456.22C329.975 3456.3 330.135 3456.38 330.295 3456.54C384.484 3503.98 412.419 3585.61 470.771 3570.51C473.652 3569.79 477.094 3566.84 481.096 3562.77L517.836 3451.83C517.516 3450.87 511.352 3431.7 501.187 3399.92C496.464 3385.3 490.941 3368.05 484.698 3348.64C459.725 3271.33 423.785 3160.31 388.006 3051.06C383.123 3036.12 378.241 3021.27 373.358 3006.49C317.408 2836.05 265.54 2681.67 261.218 2681.27C257.776 2680.95 207.109 2663.22 143.955 2640.86C33.4956 2601.56 -115.144 2547.89 -115.144 2547.89L-175.177 2328.02L-175.017 2327.86Z" fill="#38675C"/>
<path d="M2271.76 4025.61C2233.58 4032.72 2195.32 4039.82 2157.14 4046.93C2154.82 4080.96 2181.56 4094.45 2201.25 4095.49C2297.22 4100.68 2393.11 4114.34 2488.28 4136.3C2557.44 4152.28 2640.04 4193.17 2657.49 4310.41C2587.61 4305.62 2517.1 4330.46 2453.86 4382.22C2501.89 4417.04 2549.59 4453.54 2596.74 4491.79C2607.86 4500.82 2619.63 4510.96 2625.79 4529.33C2643.64 4582.44 2603.22 4636.27 2570.16 4658.32C2578.89 4662.47 2587.61 4666.7 2596.34 4670.86H2727.37V3572.76C2673.98 3552.48 2620.51 3533.07 2566.96 3514.46C2424.97 3465.18 2282.25 3421.97 2138.89 3386.67C2057.81 3366.7 1960.96 3320.94 1879.31 3332.6C1860.42 3335.32 1847.38 3342.11 1838.97 3351.61C1838.81 3351.77 1838.57 3352.01 1838.41 3352.25C1805.27 3391.38 1849.3 3475.24 1891.56 3516.06C1912.69 3536.42 1932.86 3574.84 1926.54 3615.25C1915.17 3687.85 1840.81 3667.48 1822.96 3736.01C1850.34 3756.22 1877.71 3776.42 1905.09 3796.63C1802.71 3798.31 1700.34 3799.98 1597.96 3801.66C1580.43 3801.98 1555.54 3823.46 1565.22 3848.86C1781.74 3961.32 2018.19 3869.87 2238.39 3958.52C2257.92 3966.43 2282.57 3996.06 2271.84 4025.45L2271.76 4025.61Z" fill="#57B6B2"/>
<path d="M-175.017 2539.67V3845.49C-171.655 3845.33 -168.053 3845.25 -164.451 3845.25C-46.468 3844.06 206.708 3901.72 319.089 3886.79C321.25 3886.55 323.331 3886.23 325.412 3885.83C326.853 3885.59 328.213 3885.35 329.494 3885.11C292.914 3829.84 256.335 3774.57 219.675 3719.3L403.454 3709.08C481.336 3704.77 547.611 3701.09 547.611 3701.09L546.251 3689.75L541.928 3653.57L525.519 3515.72L517.915 3451.59L458.043 3408.54L437.952 3394.08L393.609 3304.55L310.204 3055.61L228.88 2812.97C228.88 2812.97 135.71 2758.9 87.444 2742.29C59.0287 2732.47 18.9272 2718.57 -18.3729 2705.71C-71.2813 2687.42 -118.587 2671.05 -118.587 2671.05L-175.017 2539.59V2539.67Z" fill="#779A97"/>
<path d="M-175.017 3845.49V2642.29L-150.524 2746.92L-135.075 2812.81L122.823 2832.38L150.758 3053.69L161.084 3135.32L328.213 3307.35L392.328 3429.47L395.77 3435.94L517.915 3451.67L525.519 3515.8L541.928 3653.65L546.251 3689.83L547.611 3701.17C547.611 3701.17 481.336 3704.85 403.454 3709.16L219.675 3719.38C256.335 3774.65 292.914 3829.92 329.494 3885.19C328.133 3885.43 326.853 3885.67 325.412 3885.91C323.411 3886.31 321.33 3886.63 319.169 3886.86C204.787 3903.72 -125.31 3884.47 -175.017 3881.43V3845.49Z" fill="#648480"/>
<path d="M-50.3883 3251.68V3219.25V3198.57V3158.32V3064.39V2928.06V2813.77L-25.9753 2918.4L-10.5268 2984.29L189.101 3089.71L195.744 3221.49L199.026 3287.46L200.226 3310.94L204.229 3390.57L80.242 3268.85L30.7755 3295.37L9.56386 3306.71L-50.3883 3252.88V3251.68Z" fill="#546F6D"/>
<path d="M247.371 3003.86L285.552 3306.79L452.762 3478.75L220.157 3317.97L189.1 3089.71L-10.5273 2984.29L247.371 3003.86Z" fill="#8EB9B2"/>
<path d="M42.1394 3209.19L-50.3903 3064.39V3158.32L-33.261 3200.73L-9.5683 3259.51L9.56186 3306.71L87.3637 3340.17L204.227 3390.57L283.869 3531.3L509.27 3603.9L520.316 3607.41L516.874 3600.94L452.76 3478.74L220.155 3317.97L200.224 3310.94L80.24 3268.85L42.1394 3209.19Z" fill="#8EB9B2"/>
<path d="M-10.5275 2984.29L220.156 3317.97L189.1 3089.71L-10.5275 2984.29Z" fill="#415A58"/>
<path d="M291.955 3669.31L458.044 3880.64L274.265 3890.78L-60.4747 3306.71L134.19 3390.57L291.955 3669.31Z" fill="#415A58"/>
<path d="M-175.014 3080.29L-115.062 3135.24L30.7764 3389.77H30.8563L118.183 3542.24L219.678 3719.3L51.1873 3564.52H51.1072L-108.098 3418.28H-108.178L-175.014 3356.79V3081.49V3080.29Z" fill="#46605E"/>
<path d="M1253.75 3587.37V3732.4C1277.29 3760.04 1296.34 3782 1306.26 3793.34C1311.06 3798.85 1313.71 3801.89 1313.71 3801.89L1310.9 3791.83L1258.4 3603.98L1253.75 3587.29V3587.37Z" fill="#46605E"/>
<path d="M1253.75 3158.32V3251.68L1313.71 3306.71L1294.65 3259.51L1270.88 3200.73L1253.75 3158.32Z" fill="#334A48"/>
<path d="M2216.99 3178.21L2247.17 3389.61L2460.08 3663L2531.24 3401.99L2524.28 3294.41C2524.28 3294.41 2712.14 2939.32 2712.14 2922.79C2712.14 2906.26 2685 2704.35 2685 2704.35L2809.23 2171.56V1910.55L2692.21 1998.33L2777.21 1648.59L2599.12 2060.86L2603.92 2225.95C2661.23 2176.27 2730.95 2168.29 2730.95 2168.29L2579.18 2424.58L2497.3 2225.95L2462.08 2482L2497.3 2806.82L2481.77 3058.25L2462.08 2806.82C2427.26 2726.8 2355.62 2969.99 2355.62 2969.99V3087.4L2274.46 3207.36L2307.92 2865.61C2284.07 2851.07 2217.15 3178.21 2217.15 3178.21H2216.99Z" fill="#9B854D"/>
<path d="M2150.07 3223.97C2150.07 3236.43 2247.08 3389.69 2247.08 3389.69L2216.91 3178.28C2216.91 3178.28 2283.74 2851.15 2307.68 2865.68L2274.22 3207.43L2355.38 3087.47V2970.07C2355.38 2970.07 2427.02 2726.87 2461.84 2806.9L2481.53 3058.32L2497.06 2806.9L2461.84 2482.08L2497.06 2226.03L2578.94 2424.66L2730.7 2168.36C2730.7 2168.36 2660.99 2176.35 2603.68 2226.03L2598.87 2060.94L2776.97 1648.67L2786.49 1609.45L2792.34 1585.49L2707.17 1716.31L2551.17 1956.16L2436.55 2378.25L2346.1 2583.75L2324.49 2632.95L2281.34 2730.87C2281.34 2730.87 2149.99 3211.43 2149.99 3223.89L2150.07 3223.97Z" fill="#E6B969"/>
<path opacity="0.89" d="M244.475 3669.78C248.951 3699.68 259.902 3722.93 274.051 3741.64C292.675 3766.38 316.975 3783.29 339.517 3796.98C400.666 3834.32 461.816 3871.58 523.045 3908.85C531.438 3914.01 540.391 3919.8 545.507 3932.25C574.443 4003.09 764.986 4160.92 947.176 4246.46C1070.58 4352.42 1102.01 4479.19 1186.58 4561.38C1196.33 4570.85 1206.32 4581.42 1212.08 4597.78C1220.95 4623.14 1217.35 4648.58 1207.36 4671.05H2372.8C2271.2 4624.79 2169.61 4578.6 2068.01 4532.42C2032.12 4516.06 1986.72 4470.97 1999.99 4411.87C2018.45 4329.75 2121.33 4377.97 2125.24 4290.22C2127 4251 2062.28 4228.24 2032.98 4206.55C1996.27 4133.71 2081.92 4057.42 1918.08 4015.86C1702.95 4028.9 1640.76 4023.52 1468.43 3911.43C1445.72 3896.71 1420.31 3870.41 1420.23 3829.08C1420.23 3798.86 1434.29 3774.13 1449 3757.22C1495.84 3703.28 1552.76 3694.28 1610.63 3688.8C1610.63 3688.8 1735.65 3699.37 1776.81 3648.02C1780.81 3643.01 1784.97 3637.53 1788.64 3631.58C1790.08 3630.25 1791.6 3628.84 1793.04 3627.35C1792.64 3626.88 1792.24 3626.49 1791.92 3626.02C1797.04 3616.71 1800.95 3605.98 1802.31 3593.54C1807.11 3550.17 1779.45 3518.15 1755.55 3501.25C1675.06 3444.49 1588.33 3413.42 1501.2 3410.21C1465.87 3408.88 1417.67 3392.28 1418.07 3332.08C1421.82 3329.66 1425.58 3327.23 1429.34 3324.8C1468.19 3299.83 1506.95 3274.86 1545.8 3249.89C1546.84 3249.27 1547.88 3248.56 1548.92 3247.93C1552.92 3245.35 1556.83 3242.85 1560.83 3240.26C1574.74 3231.34 1590.73 3217.17 1597.44 3196.82C1598.8 3192.67 1599.84 3188.21 1600.32 3183.51C1600.72 3180.46 1600.8 3177.25 1600.72 3173.96C1600.72 3173.1 1600.72 3172.24 1600.64 3171.3C1598.48 3139.13 1576.18 3125.04 1557.71 3117.68C1553.96 3116.19 1550.28 3114.7 1546.52 3113.22C1514.87 3100.69 1483.21 3088.09 1451.56 3075.49C1413.11 3060.22 1374.66 3044.96 1336.14 3029.61C1386.49 3015.45 1426.26 2921.93 1462.31 2860.32C1325.62 2873.19 1188.11 2927.77 1076.99 2927.77C1092.5 2971.77 1114.08 3009.5 1139.58 3036.82C1095.77 3110.48 1041.02 3150.01 981.547 3175.06C840.943 3234.16 589.471 3400.42 605.457 3416.63C579.798 3488.25 523.445 3507.59 474.205 3502.81C430.242 3498.43 385.798 3480.58 342.474 3489.27C337.358 3490.29 332.163 3491.7 327.047 3493.57C278.767 3510.95 232.325 3588.37 244.635 3669.7L244.475 3669.78Z" fill="#B1DEDC"/>
<path d="M1113.44 3293.21C1073.34 3288.9 1032.59 3306.95 998.575 3344.01C1026.67 3383.14 1064.45 3392.33 1100.31 3398.24C1188.04 3412.62 1276.4 3415.65 1364.37 3407.18C1369.57 3393.61 1358.61 3378.67 1349.56 3374.28C1292.49 3346.49 1227.1 3364.77 1177.23 3309.27C1192.92 3306.55 1207.33 3287.86 1213.25 3262.55C1186.2 3262.62 1159.14 3252.64 1134.41 3233.47C1172.27 3231.64 1210.05 3229.88 1247.91 3228.04C1294.41 3225.81 1345.4 3220.61 1379.58 3165.83C1343.64 3136.67 1301.7 3150.81 1262.08 3146.02C1195.32 3137.95 1130.81 3073.9 1063.01 3099.3C1070.85 3104.41 1074.7 3110.72 1080.38 3116.15C1056.05 3162.07 1008.5 3152.33 984.088 3198.01C1001.14 3226.44 1026.19 3222.45 1048.44 3232.83C1064.69 3240.42 1104.71 3292.26 1113.28 3293.13L1113.44 3293.21Z" fill="#C5E5E3"/>
<path d="M782.403 3427.48C688.593 3420.05 583.176 3419.81 515.94 3533.54C521.623 3523.88 561.484 3533.54 570.209 3533.54C585.898 3533.54 599.985 3536.9 615.273 3539.61C651.933 3546.32 689.313 3542.81 726.133 3550.24C735.818 3552.15 745.984 3554.79 753.668 3565.09C756.389 3568.69 758.791 3573.72 758.951 3579.55C759.271 3588.57 754.388 3595.68 749.586 3599.19C740.461 3605.9 730.215 3605.98 720.29 3605.98C701.4 3605.98 682.51 3605.82 663.619 3605.74C662.259 3605.74 660.818 3605.74 659.777 3607.26C657.936 3609.82 658.577 3615.33 660.418 3617.88C662.259 3620.44 664.74 3620.92 667.141 3621.24L715.007 3627.95C700.599 3660.53 677.067 3661.65 655.455 3664.61C627.92 3668.44 600.386 3672.19 572.931 3676.03C516.581 3683.85 460.23 3691.68 403.88 3699.43C378.186 3703.02 343.047 3732.01 354.013 3772.51C443.501 3820.35 538.272 3809.56 630.321 3798.54C677.147 3792.95 723.972 3786.88 770.877 3787.68C810.338 3788.4 858.044 3792.15 895.824 3812.52C908.391 3819.31 922.879 3838.56 917.676 3859.48C858.284 3887.59 794.65 3856.29 733.817 3872.26C721.25 3875.53 707.483 3882.48 701 3901.41C699.319 3906.2 750.066 3912.35 754.228 3912.03C772.718 3910.68 793.689 3903.97 811.859 3912.91C861.246 3937.35 770.477 3964.27 769.276 3983.28C768.636 3993.42 775.84 3998.85 781.683 4000.77C825.546 4015.22 870.371 4015.38 914.874 4014.98C930.643 4014.82 1043.42 4001.64 1048.07 4026.24C1049.03 4031.28 1046.95 4036.79 1044.22 4039.26C1041.5 4041.74 1038.38 4041.9 1035.34 4042.22C1021.17 4043.73 1007.16 4048.93 993.877 4057.55C986.593 4062.34 978.269 4071.85 979.389 4085.19C980.51 4097.88 989.234 4103.16 996.518 4105.63C1061.27 4127.68 1121.79 4136.62 1187.66 4136.62C1255.86 4136.62 1324.13 4136.46 1392.33 4136.46C1397.37 4136.46 1402.74 4136.38 1407.14 4132.15C1411.62 4127.92 1414.74 4118.09 1412.58 4110.1C1350.07 4069.77 1287.79 4081.59 1223.6 4066.98C1208.95 4063.62 1193.02 4059.23 1182.94 4040.38C1181.58 4037.75 1180.22 4034.55 1180.46 4031.04C1180.7 4027.52 1182.38 4024.89 1183.98 4022.73C1203.51 3996.29 1229.68 3990.62 1254.42 3989.11C1279.15 3987.59 1304.68 3989.11 1327.9 3974.01C1329.5 3972.97 1331.26 3971.69 1332.22 3969.3C1333.66 3965.94 1333.42 3961.39 1332.7 3957.4C1325.5 3916.75 1269.63 3928.57 1250.98 3928.25C1220.56 3927.85 1190.14 3930.88 1159.73 3932.56C1082.64 3936.87 968.983 3936.63 921.838 3808.85C934.805 3803.41 948.412 3808.85 961.78 3808.29C975.147 3807.81 990.275 3798.22 994.437 3776.18C995.238 3771.87 995.558 3767.08 994.517 3762.84C992.916 3756.37 988.674 3753.34 984.832 3751.26C952.495 3733.53 917.836 3735.93 883.898 3733.61C849.96 3731.29 814.42 3723.07 787.126 3688.17C781.763 3681.38 776.48 3672.19 776.32 3660.69C776.16 3639.29 792.249 3631.46 804.575 3630.26C853.802 3625.31 903.668 3624.27 951.614 3600.87C962.42 3595.6 975.627 3580.51 971.225 3562.62C953.215 3561.74 814.501 3552.79 820.264 3513.82C821.945 3502.64 829.629 3498.16 836.272 3496.56C878.855 3486.18 923.999 3493.29 966.902 3494.33C1014.05 3495.53 1061.11 3497.12 1108.18 3499.2C1111.78 3484.03 1106.42 3465.9 1098.49 3456.87C1090.57 3447.85 1080.72 3445.85 1071.28 3444.25C974.747 3428.04 878.615 3434.59 781.923 3426.92L782.403 3427.48Z" fill="#C5E5E3"/>
<path d="M117.86 1377.92L275.065 2416.99L547.611 2774.48L308.363 2247.43L117.86 1377.92Z" fill="#446554"/>
<path d="M2216.99 3757.32L2403.25 3820.57L2663.87 3949.96L2824.28 4029.67V3836.39L2798.9 3790.23L2622.89 3470.28L2549.73 3556.93L2460 3663.08L2216.99 3757.32Z" fill="#948149"/>
<path d="M-50.3904 4124.55V4205.3C-44.8674 4202.42 -39.1843 4200.19 -33.5813 4198.35C-8.12759 4190.12 18.0465 4190.2 43.5002 4182.3C50.624 4180.06 59.6689 4172.63 58.2281 4160.25C58.2281 4131.18 -1.32397 4125.99 -50.3904 4124.55Z" fill="#6AA1A1"/>
<path d="M914.112 3215.62C914.112 3215.62 1142.96 3152.07 1200.6 3148.99C1249.88 3146.35 1400.88 3020.12 1570.71 3046.48C1669.75 3061.93 2470.59 3143.72 2470.59 3143.72V3215.62H914.112Z" fill="#1E4280"/>
<path d="M2220.26 3392.94C2220.26 3392.94 1724.7 3479.63 1642.8 3414.91C1560.91 3350.18 1707.66 3304.87 1707.66 3304.87C1707.66 3304.87 1768.22 3261.96 1333.5 3271.88C898.78 3281.81 919.151 3215.62 919.151 3215.62H2446.14L2300.63 3294.29L2220.26 3392.94Z" fill="#1E4280"/>
<path d="M1985.03 3635.29L1986.39 3638.24L2006.48 3682.97L2107.65 3728.57L2404.21 3862.19L2623.45 3946.69C2623.45 3946.69 2752.08 3956.99 2874.78 3972.89V1450.12C2863.74 1442.77 2856.37 1437.74 2855.17 1436.86C2855.01 1436.78 2854.85 1436.7 2854.85 1436.7L2827.56 1499.88L2742.63 1849.62L2859.66 1761.92V2022.93L2651.94 2462.04C2651.94 2462.04 2577.9 2283.85 2577.9 2300.47C2577.9 2317.08 2654.34 2772.72 2654.34 2772.72L2496.74 3253.28L2448.95 2909.45L2346.9 3133L2297.59 3240.9H2195.78L2102.85 3336.1L2065.23 3374.68C2065.23 3374.68 2065.23 3374.68 2065.15 3374.76C2046.98 3414.37 2028.97 3456.38 2014.24 3495.92C2005.28 3520.04 1997.51 3543.2 1991.67 3564.36C1985.67 3586.57 1985.03 3635.29 1985.03 3635.29Z" fill="#A58E53"/>
<path opacity="0.86" d="M616.551 6557.57C616.551 6557.57 136.705 6290.77 352.54 6039.78C568.375 5788.78 1188.11 5563.23 1170.1 5426.62C1152.1 5290.01 754.599 5198.74 700.821 5128C681.534 5102.69 628.636 5061.28 791.092 4934.22C953.548 4807.16 1229.08 4730.18 1208.28 4670.98H2375.08C2375.08 4670.98 2445.59 4686.44 2463.67 4759.5C2481.76 4832.56 1986.79 4721.72 2086.42 4873.42C2186.06 5025.11 1625.86 4915.59 1676.12 5002.59C1726.38 5089.59 2293.61 5165.4 2329.62 5351.19C2365.64 5536.99 2020.88 5628 1819.77 5737.95C1618.66 5847.9 2257.84 6098.17 2257.84 6098.17C2257.84 6098.17 2680.87 6234.7 2368.76 6367.42C2056.73 6500.14 2531.21 6508.55 2531.21 6508.55L616.551 6557.57Z" fill="url(#paint12_linear_1432_1630)"/>
<path opacity="0.69" d="M1703.64 2665.09L1701.19 2348.75C1701.19 2348.75 1771.95 2471.59 1858.86 2576C1917.92 2646.97 1984.71 2709.53 2041.68 2719.16C2146.55 2736.74 2230.81 2659.49 2230.81 2659.49L1908.37 2272.51L1840.82 2379.99L1722.11 2033.72L1824.26 2144.83C1830.54 2151.65 1841 2152.22 1847.64 2146.15C1854.31 2140.06 1854.59 2129.62 1848.32 2122.74L1746.17 2011.63L2081.5 2159.23L1968.55 2217.31L2327.11 2571.2C2327.11 2571.2 2411.35 2493.91 2402.75 2388.06C2397.98 2330.5 2341.32 2258.71 2275.5 2193.87C2178.74 2098.49 2062.23 2017.6 2062.23 2017.6L2377.58 2046.94L2305.37 2113.18C2305.37 2113.18 2463.01 2240.32 2498.31 2323.09C2575.05 2503.06 2406.54 2657.59 2406.54 2657.59L2508.69 2768.7L2412.39 2857L2310.24 2745.89C2310.24 2745.89 2141.77 2900.41 1968.8 2808.76C1889.23 2766.61 1775.86 2598.85 1775.86 2598.85L1703.64 2665.09ZM1893.01 2195.51C1899.68 2189.42 1899.94 2178.94 1893.7 2172.1C1887.46 2165.26 1876.95 2164.71 1870.32 2170.78C1863.65 2176.87 1863.4 2187.35 1869.63 2194.19C1875.87 2201.03 1886.38 2201.58 1893.01 2195.51Z" fill="#FAF3D0"/>
<path d="M1700.35 2690.92L1697.9 2374.58C1697.9 2374.58 1768.66 2497.41 1855.56 2601.82C1914.63 2672.8 1981.41 2735.36 2038.39 2744.99C2143.25 2762.57 2227.52 2685.32 2227.52 2685.32L1905.07 2298.34L1837.52 2405.82L1718.81 2059.55L1820.97 2170.66C1827.25 2177.48 1837.71 2178.05 1844.34 2171.98C1850.98 2165.91 1851.29 2155.44 1845.03 2148.56L1742.88 2037.46L2078.2 2185.06L1965.26 2243.14L2323.82 2597.03C2323.82 2597.03 2408.06 2519.74 2399.45 2413.89C2394.69 2356.32 2338.03 2284.54 2272.21 2219.7C2175.45 2124.32 2058.94 2043.43 2058.94 2043.43L2374.29 2072.77L2302.07 2139.01C2302.07 2139.01 2459.72 2266.15 2495.02 2348.92C2571.75 2528.88 2403.24 2683.42 2403.24 2683.42L2505.4 2794.53L2409.1 2882.82L2306.94 2771.72C2306.94 2771.72 2138.48 2926.23 1965.51 2834.58C1885.94 2792.43 1772.56 2624.68 1772.56 2624.68L1700.35 2690.92ZM1889.74 2221.38C1896.41 2215.29 1896.67 2204.8 1890.43 2197.97C1884.19 2191.13 1873.68 2190.58 1867.05 2196.65C1860.38 2202.74 1860.13 2213.22 1866.36 2220.06C1872.6 2226.9 1883.11 2227.45 1889.74 2221.38Z" fill="url(#paint13_linear_1432_1630)"/>
<path d="M2295.81 3222.37C2277.99 3222.37 2263.55 3207.96 2263.55 3190.19C2263.55 3172.41 2277.99 3158 2295.81 3158C2313.62 3158 2328.06 3172.41 2328.06 3190.19C2328.06 3207.96 2313.62 3222.37 2295.81 3222.37Z" fill="white"/>
<path d="M278.749 4909.65C270.747 4909.65 264.261 4903.17 264.261 4895.19C264.261 4887.21 270.747 4880.73 278.749 4880.73C286.75 4880.73 293.236 4887.21 293.236 4895.19C293.236 4903.17 286.75 4909.65 278.749 4909.65Z" fill="white"/>
<path d="M1235.33 2946.19C1208.41 2946.19 1186.59 2924.41 1186.59 2897.55C1186.59 2870.69 1208.41 2848.91 1235.33 2848.91C1262.26 2848.91 1284.08 2870.69 1284.08 2897.55C1284.08 2924.41 1262.26 2946.19 1235.33 2946.19Z" fill="white"/>
<path d="M2406.77 3996.52C2387.59 3996.52 2372.03 3981.01 2372.03 3961.86C2372.03 3942.72 2387.59 3927.2 2406.77 3927.2C2425.96 3927.2 2441.51 3942.72 2441.51 3961.86C2441.51 3981.01 2425.96 3996.52 2406.77 3996.52Z" fill="white"/>
<path d="M1743.65 42.2818C1743.65 42.2818 1793.04 -96.9267 1912.94 -33.8316C2027.64 26.5479 2164.44 43.7993 2355.58 366.542C2355.58 366.542 2483.01 626.271 2459.47 772.987C2435.94 919.702 2329.56 828.414 2335.01 889.592C2340.45 950.771 2573.62 917.386 2603.95 1031.6C2634.29 1145.81 2775.32 1166.65 2711.85 1275.67C2648.38 1384.69 975.477 1171.84 975.477 1171.84C975.477 1171.84 976.357 866.112 1128.2 845.506C1280.04 824.98 1127.56 651.109 1127.56 651.109C1127.56 651.109 1087.86 192.672 1558.67 12.3316C1772.54 -69.6121 1743.73 42.3616 1743.73 42.3616L1743.65 42.2818Z" fill="url(#paint14_linear_1432_1630)"/>
<path d="M1915.5 137.082L1789.11 237.395C1789.11 237.395 1832.42 227.412 1874.28 225.096C1874.28 225.096 1838.9 238.114 1832.34 251.212C1832.34 251.212 1875.88 235.718 1886.05 243.465C1886.05 243.465 1919.66 234.28 1956.24 263.592C1992.82 292.903 2045.81 315.346 2059.18 366.061C2072.55 416.777 2053.66 608.219 2165.8 695.513C2165.8 695.513 2158.99 804.532 2146.99 825.777C2134.98 847.021 2155.79 917.784 2155.79 917.784L2347.01 490.335L1915.42 137.082H1915.5Z" fill="url(#paint15_linear_1432_1630)"/>
<path d="M1280.84 697.433L1287.88 734.971C1285.16 722.672 1282.68 710.212 1280.84 697.433C1272.2 637.773 1274.52 579.15 1286.2 523.802C1291.89 496.807 1299.89 470.531 1309.9 445.293C1369.61 294.823 1502.4 180.693 1669.61 156.493C1922.39 119.914 2158.19 302.89 2196.29 565.173C2203.02 611.736 2203.1 657.66 2197.25 701.826C2195.57 714.365 2193.41 726.825 2190.85 739.044C2181.81 781.773 2167.08 822.505 2147.55 860.362C2147.55 860.362 2079.99 1191.17 1918.06 1251.95L1664.81 1345.95C1664.81 1345.95 1532.34 1377.58 1475.19 1298.51C1418.03 1219.45 1311.66 1132.63 1295.49 1037.67C1279.32 942.705 1278.12 787.603 1280.76 697.433H1280.84Z" fill="url(#paint16_linear_1432_1630)"/>
<path opacity="0.33" d="M1687.86 683.934C1687.86 683.934 1638.71 805.412 1590.61 921.618C1590.61 921.618 1632.95 986.87 1705.15 944.221C1705.15 944.221 1713.95 777.618 1687.86 683.934Z" fill="url(#paint17_linear_1432_1630)"/>
<path d="M1697.87 949.414C1697.87 949.414 1687.46 932.961 1681.14 935.197C1674.81 937.433 1661.53 951.33 1656 950.132C1650.48 948.934 1658.56 958.359 1679.78 948.695L1697.87 949.414Z" fill="#594A42"/>
<path d="M1634.87 948.612C1634.87 948.612 1622.62 919.221 1616.7 919.46C1610.78 919.7 1601.49 920.339 1588.77 933.437C1588.77 933.437 1610.7 924.252 1610.3 930.322C1609.9 936.392 1629.91 955.241 1634.87 948.612Z" fill="#594A42"/>
<path d="M1707.71 1126.87C1707.71 1126.87 1715.95 1183.5 1677.45 1179.51C1638.95 1175.51 1545.54 1156.98 1531.14 1134.22C1516.73 1111.46 1538.42 1084.86 1538.42 1084.86C1538.42 1084.86 1607.42 1057.23 1707.79 1126.79L1707.71 1126.87Z" fill="url(#paint18_linear_1432_1630)"/>
<path d="M1710.91 1123.68C1710.91 1123.68 1682.82 1031.83 1659.44 1029.6C1636.07 1027.36 1619.58 1025.92 1615.34 1024.09C1611.1 1022.25 1585.97 1011.95 1543.86 1077.68C1543.86 1077.68 1584.92 1047.33 1599.89 1055.08C1618.94 1064.98 1659.52 1066.18 1665.93 1071.85C1672.33 1077.52 1699.23 1100.2 1710.91 1123.6V1123.68Z" fill="url(#paint19_linear_1432_1630)"/>
<path d="M1736.69 1122.56C1727.64 1122.25 1710.91 1126.4 1700.19 1113.54C1681.38 1091.02 1663.29 1064.98 1650.32 1064.02C1637.35 1063.06 1609.5 1057.15 1609.5 1057.15C1609.5 1057.15 1594.85 1051.24 1587.65 1053.24C1570.92 1057.87 1550.11 1088.46 1522.49 1083.91C1522.49 1083.91 1516.17 1084.39 1515.85 1084.47C1515.53 1084.55 1530.66 1095.97 1541.14 1091.1C1588.93 1068.81 1684.34 1112.26 1694.82 1116.73C1702.75 1120.09 1707.95 1131.91 1736.77 1122.64L1736.69 1122.56Z" fill="#594A42"/>
<path d="M2022.6 817.709C2022.6 817.709 2001.31 685.209 1871.64 671.152C1871.64 671.152 1822.49 673.149 1796.08 760.124C1796.08 760.124 1847.22 843.106 1948.08 842.867C2048.93 842.707 2022.68 817.709 2022.68 817.709H2022.6Z" fill="url(#paint20_linear_1432_1630)"/>
<path d="M2026.28 828.17C2026.28 828.17 2044.05 849.974 2049.17 850.693C2054.29 851.411 1956.64 881.282 1913.5 860.996C1870.36 840.709 1814.57 805.248 1799.68 765.395C1799.68 765.395 1880.76 878.646 2026.28 828.17Z" fill="url(#paint21_linear_1432_1630)"/>
<path d="M1578.84 736.566C1578.84 736.566 1582.6 635.374 1531.22 625.71C1479.83 616.046 1382.66 699.667 1375.85 728.979C1369.05 758.29 1405.55 775.621 1447.97 779.694C1490.39 783.767 1578.84 736.566 1578.84 736.566Z" fill="url(#paint22_linear_1432_1630)"/>
<path d="M1578.84 736.566C1578.84 736.566 1486.79 805.891 1424.2 793.671C1361.6 781.451 1344.31 751.82 1344.31 751.82L1375.85 728.979C1375.85 728.979 1444.77 802.217 1578.84 736.566Z" fill="url(#paint23_linear_1432_1630)"/>
<path d="M1844.58 545.843C1844.58 545.843 1875.32 511.101 1893.33 510.861C1911.34 510.622 2023.88 532.186 2076.87 634.735C2076.87 634.735 2008.91 509.184 1844.58 545.763V545.843Z" fill="url(#paint24_linear_1432_1630)"/>
<path d="M1611.18 521.887C1611.18 521.887 1586.85 478.838 1550.35 482.991C1513.85 487.144 1475.99 496.888 1435.89 528.116C1435.89 528.116 1525.85 489.7 1611.18 521.807V521.887Z" fill="url(#paint25_linear_1432_1630)"/>
<path d="M1672.41 924.495C1672.41 924.495 1683.3 914.671 1686.74 922.418C1690.18 930.165 1654.48 944.781 1654.48 944.781C1654.48 944.781 1637.67 947.896 1632.15 930.085C1626.63 912.275 1664.49 925.613 1668.41 925.054L1672.41 924.495Z" fill="url(#paint26_linear_1432_1630)"/>
<path opacity="0.23" d="M1666.57 812.281L1664.09 912.275C1664.09 912.275 1654.08 919.303 1647.76 914.671C1641.43 910.039 1641.43 907.882 1641.43 907.882L1666.65 812.361L1666.57 812.281Z" fill="white"/>
<path opacity="0.47" d="M2006.91 613.331C2006.91 613.331 1948.96 532.266 1835.54 566.609C1808.32 574.835 1787.27 604.945 1769.58 630.423C1739.41 673.87 1733.32 730.177 1755.25 778.337C1760.86 790.636 1767.34 801.738 1774.71 809.165C1774.71 809.165 1753.33 772.027 1772.38 732.732C1772.38 732.732 1856.43 606.143 2006.91 613.331Z" fill="url(#paint27_linear_1432_1630)"/>
<path opacity="0.65" d="M1468.62 536.02C1468.62 536.02 1515.85 491.455 1597.57 559.182C1617.18 575.475 1634.47 609.658 1640.23 636.813C1650.08 683.216 1637.59 740.4 1602.77 772.587C1593.81 780.813 1600.85 774.743 1592.29 778.258C1592.29 778.258 1622.87 755.016 1620.78 715.961C1620.78 715.961 1604.14 544.726 1468.62 535.941V536.02Z" fill="url(#paint28_linear_1432_1630)"/>
<path opacity="0.63" d="M1660.8 1182.95C1660.8 1182.95 1673.45 1196.2 1657.12 1197.64C1640.79 1199.08 1562.11 1179.35 1553.31 1166.01C1544.5 1152.68 1551.07 1150.52 1551.07 1150.52L1660.8 1182.95Z" fill="url(#paint29_linear_1432_1630)"/>
<path d="M1707.15 952.288C1707.15 952.288 1723.56 947.815 1707.71 778.656C1707.71 778.656 1758.46 889.831 1764.14 928.966C1766.06 942.384 1727 951.649 1707.07 952.208L1707.15 952.288Z" fill="url(#paint30_linear_1432_1630)"/>
<path d="M2109.53 991.422C2109.53 991.422 2003.87 1174.24 1968.81 1191.01C1933.75 1207.78 1820.09 1284.29 1785.75 1285.41C1751.41 1286.53 1702.99 1331.82 1702.99 1331.82C1702.99 1331.82 1904.54 1265.37 1965.85 1224.63C2027.08 1183.9 2087.99 1058.11 2109.61 991.422H2109.53Z" fill="url(#paint31_linear_1432_1630)"/>
<path d="M1263.95 628.188C1263.95 628.188 1226.57 676.508 1235.38 724.029C1244.18 771.55 1281.08 835.763 1252.83 844.389C1224.57 853.014 1092.1 861.161 1080.89 972.176C1069.69 1083.19 1082.17 1184.86 1082.17 1184.86L1209.2 1199.96C1209.2 1199.96 1087.14 1051.32 1131.88 953.487C1176.62 855.73 1259.07 858.445 1259.07 858.445C1259.07 858.445 1312.78 869.547 1295.41 773.387C1278.04 677.227 1316.06 642.085 1316.06 642.085C1316.06 642.085 1341.59 587.376 1348.72 559.742C1355.84 532.108 1264.11 628.029 1264.11 628.029L1263.95 628.188Z" fill="url(#paint32_linear_1432_1630)"/>
<path d="M1286.04 523.799C1286.04 523.799 1269.88 633.776 1306.54 739.041C1311.5 753.177 1325.91 761.723 1332.63 760.765C1339.35 759.806 1269.72 777.856 1293.89 965.784C1293.89 965.784 1310.7 1101.56 1352.56 1152.27C1352.56 1152.27 1315.18 1103.47 1306.14 1074.64C1297.09 1045.81 1289.73 1022.41 1287.33 983.275C1284.92 944.14 1273.72 732.811 1280.68 697.43C1280.68 697.43 1262.35 602.308 1286.04 523.799Z" fill="url(#paint33_linear_1432_1630)"/>
<path d="M1280.68 697.511C1280.68 697.511 1347.28 620.28 1364.09 484.266C1380.97 348.172 1381.38 315.826 1413.15 286.515C1444.93 257.204 1318.7 341.463 1292.21 452.239C1265.63 563.015 1224.17 439.141 1280.68 697.511Z" fill="url(#paint34_linear_1432_1630)"/>
<path d="M1714.03 247.061C1714.03 247.061 1708.11 258.482 1702.43 259.281C1696.75 260.08 1677.53 246.502 1669.29 226.536C1668.25 224.06 1667.61 220.545 1667.21 216.392C1664.41 187.321 1675.37 124.625 1675.37 124.625C1675.37 124.625 1704.51 83.8128 1743.09 85.9693C1781.67 88.1257 1714.03 246.902 1714.03 246.902" fill="url(#paint35_linear_1432_1630)"/>
<path d="M1784.47 21.5955C1784.47 21.5955 1715.88 127.739 1705.95 146.188C1696.03 164.638 1697.47 232.924 1723.48 266.947C1723.48 266.947 1881.56 193.47 1917.02 188.198C1952.48 182.927 1784.47 21.5156 1784.47 21.5156V21.5955Z" fill="url(#paint36_linear_1432_1630)"/>
<path d="M1667.29 190.436L1655.36 223.98C1655.36 223.98 1616.62 219.428 1607.66 199.062C1607.58 198.822 1607.5 198.663 1607.42 198.423C1595.65 170.549 1609.5 138.283 1636.95 125.584L1692.66 99.7871L1668.81 172.706" fill="url(#paint37_linear_1432_1630)"/>
<path d="M1604.46 165.836L1591.97 214.076C1591.97 214.076 1547.07 203.933 1555.71 183.646C1564.36 163.36 1596.13 135.087 1619.1 138.282L1604.46 165.836Z" fill="url(#paint38_linear_1432_1630)"/>
<path d="M1555.79 183.728L1545.06 210.243C1545.06 210.243 1520.57 213.758 1518.81 201.538C1517.05 189.318 1560.43 158.41 1571.24 155.375C1582.04 152.34 1555.79 183.728 1555.79 183.728Z" fill="url(#paint39_linear_1432_1630)"/>
<path d="M1879.08 273.977C1879.08 273.977 1860.59 236.839 1888.85 212.559C1917.1 188.28 2020.04 210.483 2053.82 265.511C2087.51 320.46 1879.16 273.977 1879.16 273.977H1879.08Z" fill="url(#paint40_linear_1432_1630)"/>
<path d="M1885.97 243.467C1885.97 243.467 1838.18 266.868 1804.16 268.066C1804.16 268.066 1780.31 243.627 1811.37 190.675C1842.5 137.803 1918.3 137.244 2001.55 240.033C2001.55 240.033 1909.66 233.244 1885.89 243.467" fill="url(#paint41_linear_1432_1630)"/>
<path d="M2029.88 260.078C2029.88 260.078 1971.05 259.279 1957.2 270.62C1943.36 281.961 1922.47 302.567 1922.47 302.567C1922.47 302.567 2007.23 292.983 2031.72 329.722C2056.22 366.461 2040.85 600.472 2068.86 636.012C2096.88 671.474 2131.22 800.938 2129.86 845.025C2128.5 889.112 2108.41 977.844 2108.41 977.844L2206.46 736.805C2206.46 736.805 2252.48 572.678 2193.57 467.333C2165.88 417.815 2112.33 290.028 2029.88 259.998V260.078Z" fill="url(#paint42_linear_1432_1630)"/>
<path d="M1283.24 918.746C1283.24 918.746 1178.31 934.16 1166.94 992.463C1157.25 1042.06 1178.79 1072.49 1199.84 1109.07C1220.89 1145.65 1267.23 1175.68 1264.27 1206.27L1349.28 1215.93C1349.28 1215.93 1282.12 1123.92 1227.77 1094.61C1173.42 1065.3 1173.1 997.335 1179.19 982.24C1188.55 958.839 1243.54 921.301 1285 948.776L1283.32 918.586" fill="url(#paint43_linear_1432_1630)"/>
<path opacity="0.65" d="M1495.2 39.6473C1495.2 39.6473 1232.34 217.432 1219.69 323.495C1219.69 323.495 1140.13 491.456 1141.97 619.403C1141.97 619.403 1238.98 723.47 1219.37 789.919C1199.76 856.369 1162.14 836.402 1162.14 836.402C1162.14 836.402 1218.49 804.455 1186.95 746.152C1155.33 687.769 1127.48 651.11 1127.48 651.11C1127.48 651.11 1123.08 443.615 1198.96 312.314C1274.84 181.092 1369.93 93.4778 1495.2 39.6473Z" fill="#FCFBE1"/>
<path d="M2264.49 1298.91C2264.49 1298.91 2192.05 1314.65 2201.58 1499.3C2211.1 1683.95 2101.6 1744.09 2101.6 1744.09C2101.6 1744.09 2087.03 1740.9 2086.15 1798.8L2084.47 1932.1C2084.47 1932.1 2103.04 1792.25 2131.86 1775.88C2160.67 1759.51 2243.92 1724.52 2230.79 1513.6C2217.66 1302.67 2390.48 1347.55 2396.64 1304.9" fill="url(#paint44_linear_1432_1630)"/>
<path d="M2155.79 917.787C2155.79 917.787 2156.51 960.995 2185.49 966.665C2214.46 972.336 2291.39 982.639 2279.78 1045.25C2268.17 1107.79 2286.58 1122.89 2286.58 1122.89C2286.58 1122.89 2389.76 1119.77 2394.96 1166.25C2400.24 1212.74 2396.56 1304.9 2396.56 1304.9L2264.49 1298.99C2264.49 1298.99 2319.56 1194.93 2284.26 1172C2248.96 1149.08 2215.83 1134.55 2230.15 1100.76C2244.48 1066.98 2265.29 1027.05 2250.8 1018.82C2236.32 1010.59 2144.67 1021.45 2138.18 987.351C2131.7 953.248 2129.38 926.492 2129.38 926.492L2147.39 882.166L2155.87 917.867" fill="url(#paint45_linear_1432_1630)"/>
<path d="M866.136 2316.67C805.838 2316.67 756.957 2267.89 756.957 2207.73C756.957 2147.56 805.838 2098.79 866.136 2098.79C926.433 2098.79 975.314 2147.56 975.314 2207.73C975.314 2267.89 926.433 2316.67 866.136 2316.67Z" fill="url(#paint46_linear_1432_1630)"/>
<path opacity="0.27" d="M866.137 2298.3C810.923 2298.3 766.163 2253.64 766.163 2198.54C766.163 2143.45 810.923 2098.79 866.137 2098.79C921.351 2098.79 966.11 2143.45 966.11 2198.54C966.11 2253.64 921.351 2298.3 866.137 2298.3Z" fill="white"/>
<path d="M822.191 2154.14C814.145 2154.14 807.623 2147.63 807.623 2139.6C807.623 2131.57 814.145 2125.07 822.191 2125.07C830.237 2125.07 836.759 2131.57 836.759 2139.6C836.759 2147.63 830.237 2154.14 822.191 2154.14Z" fill="white"/>
<path d="M802.022 2171.15C798.928 2171.15 796.419 2168.65 796.419 2165.56C796.419 2162.47 798.928 2159.97 802.022 2159.97C805.116 2159.97 807.625 2162.47 807.625 2165.56C807.625 2168.65 805.116 2171.15 802.022 2171.15Z" fill="white"/>
<path d="M1942.53 2004.67C1942.53 2004.67 1986.05 1882.65 2069.48 1702.64C2077.21 1685.97 2123.09 1581.09 2129.15 1563.53C2129.15 1494.52 2156.33 1412.43 2274.13 1179C2347.39 1035.18 2314.43 771.999 2356.27 687.775C2419.98 559.636 2483.56 266.343 2534.15 202.09V1077L1942.53 2004.67Z" fill="#ABD8AF"/>
<path d="M2542.3 277.062C2520.23 315.834 2444.66 481.312 2394.53 698.125C2358.39 854.349 2376.42 1066.87 2334.1 1159.35C2296.21 1242.17 2137.2 1469.43 2137.2 1570.08C2137.2 1670.73 1942.53 2020.97 1942.53 2020.97L2542.3 1976.82V277.062Z" fill="url(#paint47_linear_1432_1630)"/>
<path d="M1460.82 795.637C1460.82 795.637 1498.76 814.166 1498.76 832.136C1498.76 850.106 1515.57 1028.77 1493.4 1125.01C1493.4 1125.01 1482.84 1147.37 1438.73 1167.82C1394.63 1188.26 1413.84 1210.15 1413.84 1210.15L1351.96 1214.62C1351.96 1214.62 1352.85 1152.96 1379.66 1147.05C1406.47 1141.14 1470.51 1137.31 1468.99 1118.78C1467.47 1100.25 1493.56 838.765 1483.16 827.584C1472.75 816.402 1431.77 795.717 1431.77 795.717H1460.9" fill="url(#paint48_linear_1432_1630)"/>
<path d="M1694.23 1111.82C1694.23 1111.82 1721.68 1116.61 1727.84 1128.75C1734.01 1140.89 1741.69 1276.19 1741.21 1294.08C1740.73 1311.97 1739.29 1321.63 1739.29 1321.63L1715.28 1331.69C1715.28 1331.69 1722.48 1128.59 1716.48 1126.04C1710.47 1123.48 1694.23 1111.9 1694.23 1111.9" fill="url(#paint49_linear_1432_1630)"/>
<path d="M1956.82 870.605C1956.82 870.605 2003.08 875.557 2006.04 898.24C2009 920.922 2013.41 1236.88 1997.96 1266.59C1997.96 1266.59 1934.32 1338.95 1924.56 1351.25C1914.79 1363.55 1867.97 1424.48 1826.27 1424.08C1826.27 1424.08 1813.46 1428.32 1804.25 1427.68C1804.25 1427.68 1861.4 1413.06 1869.57 1403.24C1877.73 1393.42 1989.15 1278.73 1989.47 1271.54C1989.79 1264.35 1993.96 916.928 1988.35 900.635C1982.75 884.343 1935.36 871.883 1932.24 871.644C1929.12 871.404 1933.2 872.043 1933.2 872.043C1933.2 872.043 1950.25 872.682 1956.82 870.605Z" fill="url(#paint50_linear_1432_1630)"/>
<path d="M1928.04 1322.01C1928.04 1322.01 1919.39 1260.52 1939.32 1240.55C1959.25 1220.58 1852.32 1299.65 1852.32 1299.65L1859.76 1325.69L1928.04 1322.09" fill="url(#paint51_linear_1432_1630)"/>
<path d="M937.742 1206.12C937.742 1206.12 960.955 1330.88 919.492 1391.89C878.03 1452.91 901.883 1550.11 961.995 1591.48C1022.11 1632.85 1035.55 1949.29 1035.55 1949.29C1035.55 1949.29 1096.71 1904.08 1119.52 1937.55C1142.33 1971.01 1165.3 2074.12 1165.3 2074.12L1169.23 1926.45C1169.23 1926.45 1107.11 1850.01 1073.98 1886.19C1040.84 1922.37 1052.2 1771.42 1052.2 1771.42C1052.2 1771.42 1005.54 1580.62 970.32 1529.19C935.101 1477.75 1022.75 1322.17 1026.11 1286.71C1029.47 1251.25 1022.83 1215.79 1022.83 1215.79L937.822 1206.12" fill="url(#paint52_linear_1432_1630)"/>
<path d="M882.593 1199.74C882.593 1199.74 919.013 1290.7 859.301 1402.2C799.589 1513.69 974.883 1605.38 974.883 1605.38C974.883 1605.38 696.653 1558.02 749.642 1449.56C802.63 1341.1 755.565 1184.64 755.565 1184.64L882.593 1199.74Z" fill="url(#paint53_linear_1432_1630)"/>
<path d="M-5.80463 902.389L115.503 1725.15L390.248 2525.93L242.489 1549.39L132.27 1295.34L-5.80463 902.389Z" fill="#606952"/>
<path d="M-50.3892 855.029L-5.96539 902.151L-5.72528 902.39L11.1639 968.52L156.682 1535.82V1535.9L186.938 1653.94L229.521 1819.98V1820.06L255.855 1922.61L235.845 1891.7L235.765 1891.63L235.364 1890.99L213.913 1857.92H213.833L148.198 1756.65L-50.3892 1450.52V973.552V858.943V855.029Z" fill="#716C51"/>
<rect width="2375.84" height="5611.92" transform="matrix(-1 0 0 1 2369.58 0)" fill="#3F5967" fill-opacity="0.5"/>
</g>
<defs>
<linearGradient id="paint0_linear_1432_1630" x1="1210.74" y1="7997.01" x2="1210.74" y2="3223.5" gradientUnits="userSpaceOnUse">
<stop stop-color="#B6D0DC"/>
<stop offset="1" stop-color="#00A4B6"/>
</linearGradient>
<linearGradient id="paint1_linear_1432_1630" x1="1107.12" y1="-295.936" x2="1292.49" y2="1649.23" gradientUnits="userSpaceOnUse">
<stop stop-color="#52CAF5"/>
<stop offset="0.19" stop-color="#4DC8F2"/>
<stop offset="0.69" stop-color="#C9EBFA"/>
</linearGradient>
<linearGradient id="paint2_linear_1432_1630" x1="1387.02" y1="3009.77" x2="917.581" y2="273.252" gradientUnits="userSpaceOnUse">
<stop offset="0.15" stop-color="#4DC8F2"/>
<stop offset="0.22" stop-color="#5DCDF3"/>
<stop offset="0.36" stop-color="#87DAF6"/>
<stop offset="0.56" stop-color="#CBEFFB"/>
<stop offset="0.69" stop-color="white"/>
</linearGradient>
<linearGradient id="paint3_linear_1432_1630" x1="1247.03" y1="2336.57" x2="1277.39" y2="1134.96" gradientUnits="userSpaceOnUse">
<stop stop-color="#00A4B6"/>
<stop offset="1" stop-color="#0089A6"/>
</linearGradient>
<linearGradient id="paint4_linear_1432_1630" x1="1923.85" y1="2953.7" x2="1459.26" y2="245.702" gradientUnits="userSpaceOnUse">
<stop offset="0.15" stop-color="#4DC8F2"/>
<stop offset="0.22" stop-color="#5DCDF3"/>
<stop offset="0.36" stop-color="#87DAF6"/>
<stop offset="0.56" stop-color="#CBEFFB"/>
<stop offset="0.69" stop-color="white"/>
</linearGradient>
<linearGradient id="paint5_linear_1432_1630" x1="1407.92" y1="1544.84" x2="1439.16" y2="2528.97" gradientUnits="userSpaceOnUse">
<stop stop-color="#7D7C7C"/>
<stop offset="0.15" stop-color="#767575"/>
<stop offset="0.35" stop-color="#656464"/>
<stop offset="0.58" stop-color="#474747"/>
<stop offset="0.83" stop-color="#1F1F1F"/>
<stop offset="1" stop-color="#010101"/>
</linearGradient>
<linearGradient id="paint6_linear_1432_1630" x1="408.818" y1="2722.16" x2="157.265" y2="1507.24" gradientUnits="userSpaceOnUse">
<stop stop-color="#00A4B6"/>
<stop offset="1" stop-color="#0089A6"/>
</linearGradient>
<linearGradient id="paint7_linear_1432_1630" x1="193.983" y1="2829.11" x2="-274.492" y2="998.054" gradientUnits="userSpaceOnUse">
<stop stop-color="#00A4B6"/>
<stop offset="1" stop-color="#107395"/>
</linearGradient>
<linearGradient id="paint8_linear_1432_1630" x1="535.686" y1="2738.85" x2="68.9649" y2="914.672" gradientUnits="userSpaceOnUse">
<stop stop-color="#00A4B6"/>
<stop offset="1" stop-color="#107395"/>
</linearGradient>
<linearGradient id="paint9_linear_1432_1630" x1="1397.19" y1="1416.02" x2="2876.83" y2="2621.13" gradientUnits="userSpaceOnUse">
<stop stop-color="#0C82B9"/>
<stop offset="1" stop-color="#005589"/>
</linearGradient>
<linearGradient id="paint10_linear_1432_1630" x1="446.998" y1="2786.38" x2="473.058" y2="2415.39" gradientUnits="userSpaceOnUse">
<stop stop-color="#00A4B6"/>
<stop offset="1" stop-color="#0078A1"/>
</linearGradient>
<linearGradient id="paint11_linear_1432_1630" x1="539.929" y1="2786.7" x2="558.657" y2="2565.22" gradientUnits="userSpaceOnUse">
<stop stop-color="#00A4B6"/>
<stop offset="1" stop-color="#0089A6"/>
</linearGradient>
<linearGradient id="paint12_linear_1432_1630" x1="1413.95" y1="6557.57" x2="1413.95" y2="4670.98" gradientUnits="userSpaceOnUse">
<stop stop-color="#00A4B6"/>
<stop offset="1" stop-color="#B1DEDC"/>
</linearGradient>
<linearGradient id="paint13_linear_1432_1630" x1="2329.28" y1="2925.73" x2="1827.87" y2="1991.83" gradientUnits="userSpaceOnUse">
<stop stop-color="#46C0B8"/>
<stop offset="0.86" stop-color="#DCA759"/>
</linearGradient>
<linearGradient id="paint14_linear_1432_1630" x1="2237.04" y1="94.2054" x2="1693.88" y2="1457.91" gradientUnits="userSpaceOnUse">
<stop stop-color="#00A4B6"/>
<stop offset="1" stop-color="#0089A6"/>
</linearGradient>
<linearGradient id="paint15_linear_1432_1630" x1="2032.62" y1="120.11" x2="2148.04" y2="918.908" gradientUnits="userSpaceOnUse">
<stop stop-color="#00A4B6"/>
<stop offset="1" stop-color="#0089A6"/>
</linearGradient>
<linearGradient id="paint16_linear_1432_1630" x1="1920.6" y1="191.983" x2="1472.57" y2="1316.84" gradientUnits="userSpaceOnUse">
<stop stop-color="#008D87"/>
<stop offset="0.03" stop-color="#007A7D"/>
<stop offset="0.92" stop-color="#468883"/>
</linearGradient>
<linearGradient id="paint17_linear_1432_1630" x1="1624.6" y1="693.049" x2="1662.97" y2="958.577" gradientUnits="userSpaceOnUse">
<stop offset="0.31" stop-color="#318E93"/>
<stop offset="0.6" stop-color="#008D87"/>
<stop offset="1" stop-color="#287A7E"/>
</linearGradient>
<linearGradient id="paint18_linear_1432_1630" x1="1626.14" y1="1187.92" x2="1609.53" y2="1072.98" gradientUnits="userSpaceOnUse">
<stop stop-color="#008D88"/>
<stop offset="1" stop-color="#00657A"/>
</linearGradient>
<linearGradient id="paint19_linear_1432_1630" x1="1702.44" y1="1066.66" x2="1545.45" y2="1089.45" gradientUnits="userSpaceOnUse">
<stop stop-color="#008D88"/>
<stop offset="1" stop-color="#00657A"/>
</linearGradient>
<linearGradient id="paint20_linear_1432_1630" x1="1919.28" y1="851.007" x2="1892.82" y2="667.927" gradientUnits="userSpaceOnUse">
<stop stop-color="#008D88"/>
<stop offset="1" stop-color="#82CFD0"/>
</linearGradient>
<linearGradient id="paint21_linear_1432_1630" x1="1933.83" y1="873.274" x2="1915.8" y2="748.533" gradientUnits="userSpaceOnUse">
<stop stop-color="#002E2B"/>
<stop offset="1" stop-color="#3F6D6F"/>
</linearGradient>
<linearGradient id="paint22_linear_1432_1630" x1="1484.15" y1="776.29" x2="1463.42" y2="632.814" gradientUnits="userSpaceOnUse">
<stop stop-color="#008D88"/>
<stop offset="1" stop-color="#82CFD0"/>
</linearGradient>
<linearGradient id="paint23_linear_1432_1630" x1="1468.4" y1="792.042" x2="1457.58" y2="717.182" gradientUnits="userSpaceOnUse">
<stop stop-color="#002E2B"/>
<stop offset="1" stop-color="#3F6D6F"/>
</linearGradient>
<linearGradient id="paint24_linear_1432_1630" x1="2073.47" y1="568.27" x2="1846.37" y2="580.078" gradientUnits="userSpaceOnUse">
<stop stop-color="#005B57"/>
<stop offset="1" stop-color="#3F6D6F"/>
</linearGradient>
<linearGradient id="paint25_linear_1432_1630" x1="1607.69" y1="498.506" x2="1435.17" y2="523.545" gradientUnits="userSpaceOnUse">
<stop stop-color="#006863"/>
<stop offset="1" stop-color="#3F6D6F"/>
</linearGradient>
<linearGradient id="paint26_linear_1432_1630" x1="1658.16" y1="918.116" x2="1661.86" y2="943.728" gradientUnits="userSpaceOnUse">
<stop stop-color="#008D87"/>
<stop offset="0.03" stop-color="#00797D"/>
<stop offset="0.92" stop-color="#005A5B"/>
</linearGradient>
<linearGradient id="paint27_linear_1432_1630" x1="1912.61" y1="555.399" x2="1806.49" y2="821.929" gradientUnits="userSpaceOnUse">
<stop stop-color="#008D87"/>
<stop offset="0.03" stop-color="#007477"/>
<stop offset="0.92" stop-color="#005E60"/>
</linearGradient>
<linearGradient id="paint28_linear_1432_1630" x1="1557.44" y1="522.735" x2="1552.69" y2="777.85" gradientUnits="userSpaceOnUse">
<stop stop-color="#008D87"/>
<stop offset="0.03" stop-color="#007477"/>
<stop offset="0.92" stop-color="#005E60"/>
</linearGradient>
<linearGradient id="paint29_linear_1432_1630" x1="1610.98" y1="1163.16" x2="1600.81" y2="1188.7" gradientUnits="userSpaceOnUse">
<stop stop-color="#008D87"/>
<stop offset="0.03" stop-color="#007A7D"/>
<stop offset="0.92" stop-color="#005B5B"/>
</linearGradient>
<linearGradient id="paint30_linear_1432_1630" x1="1758.28" y1="798.819" x2="1698.51" y2="948.885" gradientUnits="userSpaceOnUse">
<stop stop-color="#008D87"/>
<stop offset="0.03" stop-color="#007A7D"/>
<stop offset="0.92" stop-color="#005B5B"/>
</linearGradient>
<linearGradient id="paint31_linear_1432_1630" x1="1993.29" y1="945.225" x2="1820.57" y2="1378.72" gradientUnits="userSpaceOnUse">
<stop stop-color="#008D87"/>
<stop offset="0.03" stop-color="#007A7D"/>
<stop offset="0.92" stop-color="#005B5B"/>
</linearGradient>
<linearGradient id="paint32_linear_1432_1630" x1="1373.52" y1="1070.61" x2="1111.18" y2="737.083" gradientUnits="userSpaceOnUse">
<stop stop-color="#0092A2"/>
<stop offset="1" stop-color="#00738B"/>
</linearGradient>
<linearGradient id="paint33_linear_1432_1630" x1="1422.99" y1="578.372" x2="1216.06" y2="1097.9" gradientUnits="userSpaceOnUse">
<stop stop-color="#008D87"/>
<stop offset="0.03" stop-color="#FFF1E7"/>
<stop offset="0.92" stop-color="#99D3B4"/>
</linearGradient>
<linearGradient id="paint34_linear_1432_1630" x1="1317.82" y1="295.06" x2="1374" y2="683.906" gradientUnits="userSpaceOnUse">
<stop stop-color="#00A4B6"/>
<stop offset="1" stop-color="#0089A6"/>
</linearGradient>
<linearGradient id="paint35_linear_1432_1630" x1="1701.02" y1="91.1201" x2="1724.86" y2="256.097" gradientUnits="userSpaceOnUse">
<stop stop-color="#00A4B6"/>
<stop offset="1" stop-color="#0089A6"/>
</linearGradient>
<linearGradient id="paint36_linear_1432_1630" x1="1786.79" y1="21.1862" x2="1820.28" y2="252.96" gradientUnits="userSpaceOnUse">
<stop stop-color="#00A4B6"/>
<stop offset="1" stop-color="#0089A6"/>
</linearGradient>
<linearGradient id="paint37_linear_1432_1630" x1="1642.98" y1="106.932" x2="1659.79" y2="223.293" gradientUnits="userSpaceOnUse">
<stop stop-color="#00A4B6"/>
<stop offset="1" stop-color="#0089A6"/>
</linearGradient>
<linearGradient id="paint38_linear_1432_1630" x1="1605.09" y1="130.079" x2="1573.99" y2="208.155" gradientUnits="userSpaceOnUse">
<stop stop-color="#00A4B6"/>
<stop offset="1" stop-color="#0089A6"/>
</linearGradient>
<linearGradient id="paint39_linear_1432_1630" x1="1557.8" y1="149.18" x2="1532.85" y2="211.828" gradientUnits="userSpaceOnUse">
<stop stop-color="#00A4B6"/>
<stop offset="1" stop-color="#0089A6"/>
</linearGradient>
<linearGradient id="paint40_linear_1432_1630" x1="1982.95" y1="213.639" x2="1948.01" y2="301.397" gradientUnits="userSpaceOnUse">
<stop stop-color="#00A4B6"/>
<stop offset="1" stop-color="#0089A6"/>
</linearGradient>
<linearGradient id="paint41_linear_1432_1630" x1="1947.76" y1="179.02" x2="1897.5" y2="305.176" gradientUnits="userSpaceOnUse">
<stop stop-color="#00A4B6"/>
<stop offset="1" stop-color="#0089A6"/>
</linearGradient>
<linearGradient id="paint42_linear_1432_1630" x1="2267.82" y1="852.374" x2="1866.41" y2="341.868" gradientUnits="userSpaceOnUse">
<stop offset="0.47" stop-color="#0092A2"/>
<stop offset="0.98" stop-color="#00A1B4"/>
<stop offset="1" stop-color="#00738B"/>
</linearGradient>
<linearGradient id="paint43_linear_1432_1630" x1="1373.62" y1="1196.73" x2="1186.56" y2="958.82" gradientUnits="userSpaceOnUse">
<stop stop-color="#0092A2"/>
<stop offset="0.24" stop-color="#008397"/>
<stop offset="0.56" stop-color="#00778E"/>
<stop offset="0.88" stop-color="#00738B"/>
<stop offset="0.94" stop-color="#00748C"/>
<stop offset="0.96" stop-color="#007B92"/>
<stop offset="0.98" stop-color="#00879D"/>
<stop offset="0.99" stop-color="#0098AC"/>
<stop offset="1" stop-color="#00A1B4"/>
</linearGradient>
<linearGradient id="paint44_linear_1432_1630" x1="2396.56" y1="1615.51" x2="2084.39" y2="1615.51" gradientUnits="userSpaceOnUse">
<stop stop-color="#007188"/>
<stop offset="1" stop-color="#0089A6"/>
</linearGradient>
<linearGradient id="paint45_linear_1432_1630" x1="2381.95" y1="1077.58" x2="2155.25" y2="1110.48" gradientUnits="userSpaceOnUse">
<stop stop-color="#007188"/>
<stop offset="1" stop-color="#0089A6"/>
</linearGradient>
<linearGradient id="paint46_linear_1432_1630" x1="866.136" y1="2316.67" x2="866.136" y2="2098.71" gradientUnits="userSpaceOnUse">
<stop stop-color="#6EA7DA"/>
<stop offset="0.86" stop-color="#BAE5F1"/>
</linearGradient>
<linearGradient id="paint47_linear_1432_1630" x1="1403.52" y1="747.804" x2="2517.83" y2="1650.77" gradientUnits="userSpaceOnUse">
<stop stop-color="#00A4B6"/>
<stop offset="0.11" stop-color="#0093AD"/>
<stop offset="0.31" stop-color="#00799F"/>
<stop offset="0.53" stop-color="#006795"/>
<stop offset="0.75" stop-color="#005C8F"/>
<stop offset="1" stop-color="#00598E"/>
</linearGradient>
<linearGradient id="paint48_linear_1432_1630" x1="1428.33" y1="1444.88" x2="1428.33" y2="883.411" gradientUnits="userSpaceOnUse">
<stop offset="0.15" stop-color="#DBF1FB"/>
<stop offset="0.42" stop-color="#EBF7FC"/>
<stop offset="0.69" stop-color="white"/>
</linearGradient>
<linearGradient id="paint49_linear_1432_1630" x1="1819.57" y1="1152.87" x2="1685.27" y2="1236.68" gradientUnits="userSpaceOnUse">
<stop offset="0.15" stop-color="#4DC8F2"/>
<stop offset="0.22" stop-color="#5DCDF3"/>
<stop offset="0.36" stop-color="#87DAF6"/>
<stop offset="0.56" stop-color="#CBEFFB"/>
<stop offset="0.69" stop-color="white"/>
</linearGradient>
<linearGradient id="paint50_linear_1432_1630" x1="1883.18" y1="955.105" x2="1906.37" y2="1197.99" gradientUnits="userSpaceOnUse">
<stop stop-color="#52CAF5"/>
<stop offset="0.19" stop-color="#4DC8F2"/>
<stop offset="0.69" stop-color="#C9EBFA"/>
</linearGradient>
<linearGradient id="paint51_linear_1432_1630" x1="1908.75" y1="1336.31" x2="1883.48" y2="1189.18" gradientUnits="userSpaceOnUse">
<stop stop-color="#DCF1FC"/>
<stop offset="0.2" stop-color="#ECF7FD"/>
<stop offset="0.38" stop-color="white"/>
<stop offset="1" stop-color="white"/>
</linearGradient>
<linearGradient id="paint52_linear_1432_1630" x1="1343.56" y1="1896.26" x2="796.072" y2="1347.56" gradientUnits="userSpaceOnUse">
<stop stop-color="#007188"/>
<stop offset="1" stop-color="#05899C"/>
</linearGradient>
<linearGradient id="paint53_linear_1432_1630" x1="858.9" y1="1184.72" x2="858.9" y2="1605.46" gradientUnits="userSpaceOnUse">
<stop stop-color="#0092A2"/>
<stop offset="1" stop-color="#00738B"/>
</linearGradient>
<clipPath id="clip0_1432_1630">
<rect width="2375.84" height="5611.92" fill="white"/>
</clipPath>
</defs>
</svg>
