<svg width="473" height="122" viewBox="0 0 473 122" fill="none" xmlns="http://www.w3.org/2000/svg">
<rect y="5" width="472.572" height="117" rx="50" fill="#0D3F41"/>
<rect x="4.09644" y="1.5" width="466.975" height="102" rx="48.5" fill="#89BEAA" stroke="#0D3F41" stroke-width="3"/>
<path d="M240.674 3L315.48 3L173.108 101H93.4756L240.674 3Z" fill="#B7D6D6"/>
<path d="M298.673 3L372.605 3L231.897 101H153.196L298.673 3Z" fill="#B7D6D6"/>
<path d="M131.684 71V34.6H148.324C151.652 34.6 154.512 35.1373 156.904 36.212C159.331 37.2867 161.203 38.8467 162.52 40.892C163.838 42.9027 164.496 45.2947 164.496 48.068C164.496 50.8067 163.838 53.1813 162.52 55.192C161.203 57.168 159.331 58.6933 156.904 59.768C154.512 60.808 151.652 61.328 148.324 61.328H137.404L141.98 57.012V71H131.684ZM154.2 71L145.152 57.74H156.124L165.224 71H154.2ZM141.98 58.104L137.404 53.372H147.7C149.85 53.372 151.444 52.904 152.484 51.968C153.559 51.032 154.096 49.732 154.096 48.068C154.096 46.3693 153.559 45.052 152.484 44.116C151.444 43.18 149.85 42.712 147.7 42.712H137.404L141.98 37.98V58.104ZM179.641 48.692H196.541V56.388H179.641V48.692ZM180.369 63.044L199.401 63.044V71H170.177V34.6L198.725 34.6V42.556H180.369V63.044ZM215.786 71L200.238 34.6H211.366L224.47 66.112H217.918L231.334 34.6H241.526L225.926 71H215.786ZM243.657 71V34.6H253.953V71H243.657ZM270.742 48.692H287.642V56.388H270.742V48.692ZM271.47 63.044H290.502V71H261.278V34.6H289.826V42.556H271.47V63.044ZM304.704 71L292.9 34.6H303.508L313.44 66.112H308.084L318.536 34.6H328L337.88 66.112H332.732L342.976 34.6H352.804L341 71H329.976L321.552 44.22H324.516L315.728 71H304.704Z" fill="#FFFACC"/>
</svg>
