<svg width="1375" height="642" viewBox="0 0 1375 642" fill="none" xmlns="http://www.w3.org/2000/svg">
<g filter="url(#filter0_d_310_309)">
<path fill-rule="evenodd" clip-rule="evenodd" d="M16.9987 87.7178C32.6 89.0613 47.4164 84.9066 58.5641 74.7315C72.0605 62.4126 77.4614 43.7501 75.1411 24H1302.39C1303.45 41.4203 1310.58 56.9147 1323.68 66.6943C1331.52 72.5408 1340.64 75.7143 1350.29 76.4347V96H1344.69C1338.36 96 1333.23 101.132 1333.23 107.464C1333.23 113.795 1338.36 118.927 1344.69 118.927H1350.29V139.562H1342.54C1336.21 139.562 1331.08 144.695 1331.08 151.026C1331.08 157.357 1336.21 162.489 1342.54 162.489H1350.29V184.27H1343.04C1337.03 184.27 1332.15 189.146 1332.15 195.161C1332.15 201.176 1337.03 206.051 1343.04 206.051H1350.29V227.833H1341.46C1335.13 227.833 1330 232.965 1330 239.296C1330 245.627 1335.13 250.76 1341.46 250.76H1350.29V271.395H1341.46C1335.13 271.395 1330 276.527 1330 282.858C1330 289.19 1335.13 294.322 1341.46 294.322H1350.29V316.103H1341.97C1335.95 316.103 1331.08 320.979 1331.08 326.993C1331.08 333.008 1335.95 337.884 1341.97 337.884H1350.29V359.665H1342.54C1336.21 359.665 1331.08 364.798 1331.08 371.129C1331.08 377.46 1336.21 382.592 1342.54 382.592H1350.29V404.373H1342.54C1336.21 404.373 1331.08 409.506 1331.08 415.837C1331.08 422.168 1336.21 427.301 1342.54 427.301H1350.29V442.204H1343.62C1337.29 442.204 1332.15 447.336 1332.15 453.667C1332.15 459.999 1337.29 465.131 1343.62 465.131H1350.29V486.912H1340.89C1334.87 486.912 1330 491.788 1330 497.803C1330 503.817 1334.87 508.693 1340.89 508.693H1350.29V525.45H1342.54C1336.21 525.45 1331.08 530.583 1331.08 536.914C1331.08 543.245 1336.21 548.378 1342.54 548.378H1350.29V576.82C1329.73 575.263 1310.73 582.09 1299.17 597.277C1292.83 605.611 1289.45 615.503 1288.81 626H65.6581C66.7269 614.231 64.4093 602.754 58.2494 592.844C49.4423 578.676 34.3941 570.307 16.9987 568.129V553.86H18.8178C25.149 553.86 30.2815 548.727 30.2815 542.396C30.2815 536.065 25.149 530.932 18.8178 530.932H16.9987V514.175H18.3138C24.3284 514.175 29.2043 509.299 29.2043 503.285C29.2043 497.27 24.3284 492.394 18.3138 492.394H16.9987V470.613H19.895C26.2262 470.613 31.3587 465.481 31.3587 459.149C31.3587 452.818 26.2262 447.686 19.895 447.686H16.9987V432.783H18.8178C25.149 432.783 30.2815 427.65 30.2815 421.319C30.2815 414.988 25.149 409.855 18.8178 409.855H16.9987V388.074H18.8178C25.149 388.074 30.2815 382.942 30.2815 376.611C30.2815 370.28 25.149 365.147 18.8178 365.147H16.9987V343.366H19.391C25.4056 343.366 30.2815 338.49 30.2815 332.476C30.2815 326.461 25.4056 321.585 19.391 321.585H16.9987V299.804H17.7406C24.0718 299.804 29.2043 294.672 29.2043 288.34C29.2043 282.009 24.0718 276.877 17.7406 276.877H16.9987V256.242H17.7406C24.0718 256.242 29.2043 251.109 29.2043 244.778C29.2043 238.447 24.0718 233.315 17.7406 233.315H16.9987V211.534H20.4682C26.4828 211.534 31.3587 206.658 31.3587 200.643C31.3587 194.628 26.4828 189.753 20.4682 189.753H16.9987V167.971H18.8178C25.149 167.971 30.2815 162.839 30.2815 156.508C30.2815 150.177 25.149 145.044 18.8178 145.044H16.9987V124.409H20.9723C27.3035 124.409 32.436 119.277 32.436 112.946C32.436 106.615 27.3035 101.482 20.9723 101.482H16.9987V87.7178Z" fill="#FFE198"/>
</g>
<defs>
<filter id="filter0_d_310_309" x="0.998657" y="0" width="1373.29" height="642" filterUnits="userSpaceOnUse" color-interpolation-filters="sRGB">
<feFlood flood-opacity="0" result="BackgroundImageFix"/>
<feColorMatrix in="SourceAlpha" type="matrix" values="0 0 0 0 0 0 0 0 0 0 0 0 0 0 0 0 0 0 127 0" result="hardAlpha"/>
<feOffset dx="4" dy="-4"/>
<feGaussianBlur stdDeviation="10"/>
<feComposite in2="hardAlpha" operator="out"/>
<feColorMatrix type="matrix" values="0 0 0 0 0 0 0 0 0 0 0 0 0 0 0 0 0 0 0.3 0"/>
<feBlend mode="normal" in2="BackgroundImageFix" result="effect1_dropShadow_310_309"/>
<feBlend mode="normal" in="SourceGraphic" in2="effect1_dropShadow_310_309" result="shape"/>
</filter>
</defs>
</svg>
