<svg width="31" height="29" viewBox="0 0 31 29" fill="none" xmlns="http://www.w3.org/2000/svg">
<g clip-path="url(#clip0_2_431)">
<path d="M28.5097 25.3414H27.6484V24.0827C27.6484 23.8509 27.4556 23.6632 27.2177 23.6632H26.3564V22.4045C26.3564 22.1727 26.1637 21.9849 25.9257 21.9849H25.9063L25.5144 13.5937H26.787C27.025 13.5937 27.2177 13.406 27.2177 13.1742V11.9155H27.6483C27.8863 11.9155 28.079 11.7277 28.079 11.4959V9.81768C28.079 9.62888 27.9498 9.46316 27.7625 9.41281L15.2736 6.05633C15.1982 6.0364 15.1196 6.0364 15.0443 6.05633L2.55621 9.41281C2.36887 9.46316 2.23969 9.62888 2.23969 9.81768V11.4959C2.23969 11.7277 2.43241 11.9155 2.67034 11.9155H3.101V13.1742C3.101 13.406 3.29372 13.5937 3.53166 13.5937H4.80425L4.41234 21.9849H4.39296C4.15503 21.9849 3.96231 22.1727 3.96231 22.4045V23.6632H3.101C2.86306 23.6632 2.67034 23.8509 2.67034 24.0827V25.3414H1.80903C1.57109 25.3414 1.37837 25.5292 1.37837 25.761C1.37837 25.9928 1.57109 26.1805 1.80903 26.1805H28.5097C28.7476 26.1805 28.9404 25.9928 28.9404 25.761C28.9404 25.5292 28.7476 25.3414 28.5097 25.3414ZM22.9113 23.6632V22.824H25.4952V23.6632H22.9113ZM20.3273 23.6632V22.4045C20.3273 22.1727 20.1346 21.9849 19.8967 21.9849H19.8773L19.4854 13.5937H22.8907L22.4988 21.9849H22.4794C22.2415 21.9849 22.0487 22.1727 22.0487 22.4045V23.6632H20.3261H20.3273ZM16.8821 23.6632V22.824H19.466V23.6632H16.8821ZM14.2982 23.6632V22.4045C14.2982 22.1727 14.1054 21.9849 13.8675 21.9849H13.8481L13.4562 13.5937H16.8615L16.4696 21.9849H16.4502C16.2123 21.9849 16.0196 22.1727 16.0196 22.4045V23.6632H14.2969H14.2982ZM10.8529 23.6632V22.824H13.4368V23.6632H10.8529ZM8.26897 23.6632V22.4045C8.26897 22.1727 8.07625 21.9849 7.83831 21.9849H7.81893L7.42703 13.5937H10.8323L10.4404 21.9849H10.421C10.1831 21.9849 9.99037 22.1727 9.99037 22.4045V23.6632H8.26775H8.26897ZM12.5948 13.5937L12.9867 21.9849H11.3039L11.6958 13.5937H12.5959H12.5948ZM18.624 13.5937L19.0159 21.9849H17.3331L17.725 13.5937H18.6251H18.624ZM25.0451 21.9849H23.3623L23.7542 13.5937H24.6543L25.0462 21.9849H25.0451ZM3.10109 10.1365L15.1595 6.89553L27.2178 10.1365V11.0764H3.10109V10.1365ZM3.96241 11.9155H26.3565V12.7546H3.96241V11.9155ZM5.66673 13.5937H6.56679L6.9587 21.9849H5.2759L5.6678 13.5937H5.66673ZM4.82372 22.824H7.40765V23.6632H4.82372V22.824ZM3.53175 24.5023H26.7872V25.3414H3.53175V24.5023Z" fill="black"/>
<path d="M15.1591 10.2372C15.8718 10.2372 16.4511 9.67289 16.4511 8.97853C16.4511 8.28521 15.8718 7.71985 15.1591 7.71985C14.4464 7.71985 13.8671 8.28417 13.8671 8.97853C13.8671 9.67289 14.4464 10.2372 15.1591 10.2372ZM15.1591 8.55897C15.396 8.55897 15.5898 8.74777 15.5898 8.97853C15.5898 9.20929 15.396 9.39809 15.1591 9.39809C14.9212 9.39809 14.7284 9.20929 14.7284 8.97853C14.7284 8.74777 14.9222 8.55897 15.1591 8.55897Z" fill="black"/>
<path d="M17.743 9.81752C17.981 9.81752 18.1737 9.62976 18.1737 9.39796V8.9784C18.1737 8.74659 17.981 8.55884 17.743 8.55884C17.5051 8.55884 17.3124 8.74659 17.3124 8.9784V9.39796C17.3124 9.62976 17.5051 9.81752 17.743 9.81752Z" fill="black"/>
<path d="M12.5752 9.81752C12.8131 9.81752 13.0058 9.62976 13.0058 9.39796V8.9784C13.0058 8.74659 12.8131 8.55884 12.5752 8.55884C12.3372 8.55884 12.1445 8.74659 12.1445 8.9784V9.39796C12.1445 9.62976 12.3372 9.81752 12.5752 9.81752Z" fill="black"/>
</g>
<defs>
<clipPath id="clip0_2_431">
<rect width="30.3182" height="29" fill="white"/>
</clipPath>
</defs>
</svg>
