<svg width="29" height="29" viewBox="0 0 29 29" fill="none" xmlns="http://www.w3.org/2000/svg">
<g clip-path="url(#clip0_2_438)">
<path d="M26.5646 5.2589C26.7455 4.94985 26.7116 4.56432 26.4805 4.28939C26.2493 4.01531 25.8671 3.90954 25.5255 4.02697C17.7915 6.65175 13.7788 -1.9368 4.63768 5.11788L4.03013 2.90563C3.90514 2.44988 3.42606 2.17921 2.9638 2.30346C2.4998 2.426 2.22459 2.89398 2.34958 3.34888L8.43958 25.5253C8.56573 25.9848 9.048 26.2486 9.50591 26.1275C9.96991 26.005 10.2451 25.537 10.1201 25.0821L8.12116 17.8028C13.6329 8.16288 22.0287 12.9826 26.5646 5.2589ZM7.50085 15.5437L5.13474 6.92697C13.061 0.34027 16.3517 7.02051 23.6947 6.18604C19.6327 10.2236 12.7635 7.9269 7.50085 15.5437Z" fill="black"/>
</g>
<defs>
<clipPath id="clip0_2_438">
<rect width="29" height="29" fill="white"/>
</clipPath>
</defs>
</svg>
