<svg width="850" height="640" viewBox="0 0 850 640" fill="none" xmlns="http://www.w3.org/2000/svg">
<path d="M483.951 243.751C489.259 243.751 493.563 239.52 493.563 234.301C493.563 229.082 489.259 224.851 483.951 224.851C478.642 224.851 474.338 229.082 474.338 234.301C474.338 239.52 478.642 243.751 483.951 243.751Z" fill="#F7F4D3"/>
<path d="M427.652 264.524C430.463 264.524 432.742 262.283 432.742 259.52C432.742 256.756 430.463 254.516 427.652 254.516C424.842 254.516 422.563 256.756 422.563 259.52C422.563 262.283 424.842 264.524 427.652 264.524Z" fill="#F7F4D3"/>
<path d="M823.789 168.888H148.809V638H823.789V168.888Z" fill="#E7988C"/>
<path d="M239.301 329.779H266.204C283.026 329.79 299.155 336.369 311.046 348.068C322.936 359.767 329.614 375.63 329.613 392.168V634.14H175.849V392.168C175.848 383.975 177.488 375.863 180.677 368.293C183.865 360.724 188.539 353.846 194.431 348.053C200.323 342.259 207.319 337.664 215.018 334.528C222.716 331.393 230.968 329.779 239.301 329.779Z" fill="#C96928" stroke="#0C161C" stroke-width="11" stroke-miterlimit="10"/>
<path d="M316.387 393.526H189.075V451.126H316.387V393.526Z" fill="#08151B" stroke="#E8D7A5" stroke-width="2" stroke-miterlimit="10"/>
<path d="M251.655 355.863L202.242 393.526" stroke="#E8D7A5" stroke-width="2" stroke-miterlimit="10"/>
<path d="M253.719 355.863L303.132 393.526" stroke="#E8D7A5" stroke-width="2" stroke-miterlimit="10"/>
<path d="M252.927 359.537C254.806 359.537 256.33 357.892 256.33 355.863C256.33 353.833 254.806 352.188 252.927 352.188C251.048 352.188 249.524 353.833 249.524 355.863C249.524 357.892 251.048 359.537 252.927 359.537Z" fill="#08151B" stroke="#E8D7A5" stroke-width="2" stroke-miterlimit="10"/>
<path d="M225.967 557.955H188.093V618.736H225.967V557.955Z" fill="#E8D7A5"/>
<path d="M270.682 557.955H232.809V618.736H270.682V557.955Z" fill="#E8D7A5"/>
<path d="M315.398 557.955H277.524V618.736H315.398V557.955Z" fill="#E8D7A5"/>
<path d="M225.967 490.055H188.093V550.835H225.967V490.055Z" fill="#E8D7A5"/>
<path d="M270.69 490.055H232.816V550.835H270.69V490.055Z" fill="#E8D7A5"/>
<path d="M315.405 490.055H277.532V550.835H315.405V490.055Z" fill="#E8D7A5"/>
<path d="M304.724 466.123V475.058C304.746 475.832 304.923 476.595 305.245 477.302C305.568 478.009 306.029 478.647 306.602 479.178C307.176 479.709 307.851 480.124 308.588 480.398C309.325 480.673 310.11 480.801 310.897 480.776C311.685 480.801 312.47 480.673 313.207 480.398C313.944 480.124 314.619 479.709 315.192 479.178C315.766 478.647 316.227 478.009 316.549 477.302C316.872 476.595 317.049 475.832 317.07 475.058V466.123C317.049 465.348 316.872 464.586 316.549 463.879C316.227 463.172 315.766 462.534 315.192 462.003C314.619 461.471 313.944 461.057 313.207 460.782C312.47 460.508 311.685 460.38 310.897 460.404C310.11 460.38 309.325 460.508 308.588 460.782C307.851 461.057 307.176 461.471 306.602 462.003C306.029 462.534 305.568 463.172 305.245 463.879C304.923 464.586 304.746 465.348 304.724 466.123Z" fill="#C96928"/>
<path d="M225.364 423.376C223.7 423.376 222.188 423.008 220.828 422.272C219.484 421.52 218.428 420.496 217.66 419.2C216.908 417.904 216.532 416.448 216.532 414.832C216.532 413.216 216.908 411.76 217.66 410.464C218.428 409.168 219.484 408.152 220.828 407.416C222.188 406.664 223.7 406.288 225.364 406.288C227.028 406.288 228.524 406.656 229.852 407.392C231.196 408.128 232.252 409.152 233.02 410.464C233.788 411.76 234.172 413.216 234.172 414.832C234.172 416.448 233.788 417.912 233.02 419.224C232.252 420.52 231.196 421.536 229.852 422.272C228.524 423.008 227.028 423.376 225.364 423.376ZM225.364 421.792C226.692 421.792 227.892 421.496 228.964 420.904C230.036 420.296 230.876 419.464 231.484 418.408C232.092 417.336 232.396 416.144 232.396 414.832C232.396 413.52 232.092 412.336 231.484 411.28C230.876 410.208 230.036 409.376 228.964 408.784C227.892 408.176 226.692 407.872 225.364 407.872C224.036 407.872 222.828 408.176 221.74 408.784C220.668 409.376 219.82 410.208 219.196 411.28C218.588 412.336 218.284 413.52 218.284 414.832C218.284 416.144 218.588 417.336 219.196 418.408C219.82 419.464 220.668 420.296 221.74 420.904C222.828 421.496 224.036 421.792 225.364 421.792ZM244.441 406.432C246.585 406.432 248.265 406.944 249.481 407.968C250.697 408.992 251.305 410.4 251.305 412.192C251.305 413.984 250.697 415.392 249.481 416.416C248.265 417.424 246.585 417.928 244.441 417.928H239.929V423.232H238.153V406.432H244.441ZM244.393 416.368C246.057 416.368 247.329 416.008 248.209 415.288C249.089 414.552 249.529 413.52 249.529 412.192C249.529 410.832 249.089 409.792 248.209 409.072C247.329 408.336 246.057 407.968 244.393 407.968H239.929V416.368H244.393ZM267.025 421.696V423.232H255.145V406.432H266.665V407.968H256.921V413.944H265.609V415.456H256.921V421.696H267.025ZM285.24 406.432V423.232H283.776L272.976 409.6V423.232H271.2V406.432H272.664L283.488 420.064V406.432H285.24Z" fill="#E8D7A5"/>
<path d="M198.851 435.667V438.072H203.063V439.762H198.851V443.077H196.745V433.977H203.622V435.667H198.851ZM212.093 441.387V443.077H205.047V433.977H211.924V435.667H207.14V437.643H211.365V439.281H207.14V441.387H212.093ZM220.451 438.345C220.971 438.51 221.378 438.787 221.673 439.177C221.968 439.559 222.115 440.031 222.115 440.594C222.115 441.392 221.803 442.007 221.179 442.44C220.564 442.865 219.662 443.077 218.475 443.077H213.769V433.977H218.215C219.324 433.977 220.174 434.19 220.763 434.614C221.361 435.039 221.66 435.615 221.66 436.343C221.66 436.785 221.552 437.18 221.335 437.526C221.127 437.873 220.832 438.146 220.451 438.345ZM215.862 435.563V437.708H217.955C218.475 437.708 218.869 437.617 219.138 437.435C219.407 437.253 219.541 436.985 219.541 436.629C219.541 436.274 219.407 436.01 219.138 435.836C218.869 435.654 218.475 435.563 217.955 435.563H215.862ZM218.319 441.491C218.874 441.491 219.29 441.4 219.567 441.218C219.853 441.036 219.996 440.755 219.996 440.373C219.996 439.619 219.437 439.242 218.319 439.242H215.862V441.491H218.319ZM233.618 441.361V443.077H226.741V441.712L230.251 438.397C230.624 438.042 230.875 437.739 231.005 437.487C231.135 437.227 231.2 436.972 231.2 436.72C231.2 436.356 231.074 436.079 230.823 435.888C230.58 435.689 230.221 435.589 229.744 435.589C229.345 435.589 228.986 435.667 228.665 435.823C228.344 435.971 228.076 436.196 227.859 436.499L226.325 435.511C226.68 434.983 227.17 434.571 227.794 434.276C228.418 433.973 229.133 433.821 229.939 433.821C230.615 433.821 231.204 433.934 231.707 434.159C232.218 434.376 232.613 434.688 232.89 435.095C233.176 435.494 233.319 435.966 233.319 436.512C233.319 437.006 233.215 437.47 233.007 437.903C232.799 438.337 232.396 438.831 231.798 439.385L229.705 441.361H233.618ZM237.607 437.396C238.89 437.396 239.834 437.652 240.441 438.163C241.056 438.675 241.364 439.359 241.364 440.217C241.364 440.772 241.225 441.279 240.948 441.738C240.671 442.189 240.246 442.553 239.674 442.83C239.111 443.099 238.413 443.233 237.581 443.233C236.94 443.233 236.307 443.151 235.683 442.986C235.068 442.813 234.543 442.57 234.11 442.258L234.942 440.646C235.289 440.906 235.687 441.11 236.138 441.257C236.589 441.396 237.052 441.465 237.529 441.465C238.058 441.465 238.474 441.361 238.777 441.153C239.08 440.945 239.232 440.655 239.232 440.282C239.232 439.892 239.072 439.598 238.751 439.398C238.439 439.199 237.893 439.099 237.113 439.099H234.786L235.254 433.977H240.805V435.667H237.009L236.866 437.396H237.607ZM246.069 438.605H249.748V440.23H246.069V438.605ZM261.395 441.361V443.077H254.518V441.712L258.028 438.397C258.401 438.042 258.652 437.739 258.782 437.487C258.912 437.227 258.977 436.972 258.977 436.72C258.977 436.356 258.852 436.079 258.6 435.888C258.358 435.689 257.998 435.589 257.521 435.589C257.123 435.589 256.763 435.667 256.442 435.823C256.122 435.971 255.853 436.196 255.636 436.499L254.102 435.511C254.458 434.983 254.947 434.571 255.571 434.276C256.195 433.973 256.91 433.821 257.716 433.821C258.392 433.821 258.982 433.934 259.484 434.159C259.996 434.376 260.39 434.688 260.667 435.095C260.953 435.494 261.096 435.966 261.096 436.512C261.096 437.006 260.992 437.47 260.784 437.903C260.576 438.337 260.173 438.831 259.575 439.385L257.482 441.361H261.395ZM269.363 433.977V435.342L265.983 443.077H263.695L266.958 435.693H263.942V437.175H262.07V433.977H269.363ZM270.875 440.659C271.239 440.659 271.538 440.776 271.772 441.01C272.006 441.236 272.123 441.535 272.123 441.907C272.123 442.081 272.101 442.254 272.058 442.427C272.014 442.601 271.919 442.861 271.772 443.207L271.031 445.079H269.744L270.316 443.012C270.099 442.926 269.926 442.787 269.796 442.596C269.674 442.397 269.614 442.167 269.614 441.907C269.614 441.535 269.731 441.236 269.965 441.01C270.207 440.776 270.511 440.659 270.875 440.659ZM283.549 441.361V443.077H276.672V441.712L280.182 438.397C280.554 438.042 280.806 437.739 280.936 437.487C281.066 437.227 281.131 436.972 281.131 436.72C281.131 436.356 281.005 436.079 280.754 435.888C280.511 435.689 280.151 435.589 279.675 435.589C279.276 435.589 278.916 435.667 278.596 435.823C278.275 435.971 278.006 436.196 277.79 436.499L276.256 435.511C276.611 434.983 277.101 434.571 277.725 434.276C278.349 433.973 279.064 433.821 279.87 433.821C280.546 433.821 281.135 433.934 281.638 434.159C282.149 434.376 282.543 434.688 282.821 435.095C283.107 435.494 283.25 435.966 283.25 436.512C283.25 437.006 283.146 437.47 282.938 437.903C282.73 438.337 282.327 438.831 281.729 439.385L279.636 441.361H283.549ZM288.292 443.233C287.538 443.233 286.867 443.047 286.277 442.674C285.688 442.302 285.224 441.764 284.886 441.062C284.557 440.352 284.392 439.507 284.392 438.527C284.392 437.548 284.557 436.707 284.886 436.005C285.224 435.295 285.688 434.753 286.277 434.38C286.867 434.008 287.538 433.821 288.292 433.821C289.046 433.821 289.718 434.008 290.307 434.38C290.897 434.753 291.356 435.295 291.685 436.005C292.023 436.707 292.192 437.548 292.192 438.527C292.192 439.507 292.023 440.352 291.685 441.062C291.356 441.764 290.897 442.302 290.307 442.674C289.718 443.047 289.046 443.233 288.292 443.233ZM288.292 441.452C288.847 441.452 289.28 441.214 289.592 440.737C289.913 440.261 290.073 439.524 290.073 438.527C290.073 437.531 289.913 436.794 289.592 436.317C289.28 435.841 288.847 435.602 288.292 435.602C287.746 435.602 287.313 435.841 286.992 436.317C286.68 436.794 286.524 437.531 286.524 438.527C286.524 439.524 286.68 440.261 286.992 440.737C287.313 441.214 287.746 441.452 288.292 441.452ZM299.938 441.361V443.077H293.061V441.712L296.571 438.397C296.944 438.042 297.195 437.739 297.325 437.487C297.455 437.227 297.52 436.972 297.52 436.72C297.52 436.356 297.395 436.079 297.143 435.888C296.901 435.689 296.541 435.589 296.064 435.589C295.666 435.589 295.306 435.667 294.985 435.823C294.665 435.971 294.396 436.196 294.179 436.499L292.645 435.511C293.001 434.983 293.49 434.571 294.114 434.276C294.738 433.973 295.453 433.821 296.259 433.821C296.935 433.821 297.525 433.934 298.027 434.159C298.539 434.376 298.933 434.688 299.21 435.095C299.496 435.494 299.639 435.966 299.639 436.512C299.639 437.006 299.535 437.47 299.327 437.903C299.119 438.337 298.716 438.831 298.118 439.385L296.025 441.361H299.938ZM307.606 441.361V443.077H300.729V441.712L304.239 438.397C304.612 438.042 304.863 437.739 304.993 437.487C305.123 437.227 305.188 436.972 305.188 436.72C305.188 436.356 305.063 436.079 304.811 435.888C304.569 435.689 304.209 435.589 303.732 435.589C303.334 435.589 302.974 435.667 302.653 435.823C302.333 435.971 302.064 436.196 301.847 436.499L300.313 435.511C300.669 434.983 301.158 434.571 301.782 434.276C302.406 433.973 303.121 433.821 303.927 433.821C304.603 433.821 305.193 433.934 305.695 434.159C306.207 434.376 306.601 434.688 306.878 435.095C307.164 435.494 307.307 435.966 307.307 436.512C307.307 437.006 307.203 437.47 306.995 437.903C306.787 438.337 306.384 438.831 305.786 439.385L303.693 441.361H307.606Z" fill="#E8D7A5"/>
<path d="M9.06328 195.008H146.606V211.449H9.06328C6.84954 211.449 4.72647 210.584 3.16112 209.045C1.59577 207.506 0.716359 205.419 0.716359 203.242C0.712531 202.162 0.925613 201.092 1.34337 200.093C1.76113 199.094 2.37535 198.186 3.15082 197.421C3.92628 196.656 4.84773 196.049 5.86232 195.635C6.87692 195.221 7.9647 195.008 9.06328 195.008Z" fill="#08151B"/>
<path d="M32.2136 195.008H28.7018V258.984H32.2136V195.008Z" fill="#08151B"/>
<path d="M75.9622 197.717H72.4504V261.693H75.9622V197.717Z" fill="#08151B"/>
<path d="M84.8108 250.349H20.3257V313.746H84.8108V250.349Z" fill="#08151B" stroke="#F6F4D2" stroke-width="2" stroke-miterlimit="10"/>
<path d="M823.804 170.047L848.779 253.194H112.978L148.14 170.811L170.09 170.847L823.804 170.047Z" fill="#C9CF76"/>
<path d="M728.658 268.248L728.156 253.194H691.133L690.791 268.012C690.878 269.726 691.603 271.349 692.827 272.572C701.188 281.543 717.468 281.636 726.469 273.044C727.137 272.426 727.674 271.683 728.05 270.86C728.425 270.037 728.632 269.149 728.658 268.248Z" fill="#C7D8C7"/>
<path d="M690.849 265.646L691.133 253.194H650.867L650.714 265.01C650.533 268.812 652.859 272.458 656.582 274.76C664.965 279.935 677.529 279.763 685.941 274.259C689.09 272.201 690.973 268.927 690.849 265.646Z" fill="#B7B75C"/>
<path d="M650.678 267.89L650.867 253.194H612.622V267.64C612.624 269.318 613.274 270.933 614.44 272.158C622.794 281.129 639.081 281.229 648.075 272.637C649.449 271.3 650.649 269.649 650.678 267.89Z" fill="#C7D8C7"/>
<path d="M612.557 266.01L612.637 253.194H572.546V265.832C572.357 269.634 574.727 272.744 578.486 275.046C586.869 280.221 599.433 280.049 607.845 274.545C609.313 273.643 610.519 272.383 611.344 270.888C612.17 269.392 612.588 267.712 612.557 266.01Z" fill="#B7B75C"/>
<path d="M572.546 267.847V253.194H534.737L534.476 267.597C534.564 269.314 535.294 270.938 536.526 272.158C544.887 281.129 561.167 281.222 570.168 272.637C571.572 271.411 572.427 269.69 572.546 267.847Z" fill="#C7D8C7"/>
<path d="M534.65 265.832L534.788 253.165H494.522L494.646 265.038C494.672 266.999 495.211 268.921 496.21 270.619C497.21 272.316 498.637 273.732 500.353 274.731C508.737 279.906 521.308 279.735 529.713 274.231C532.832 272.201 534.737 269.113 534.65 265.832Z" fill="#B7B75C"/>
<path d="M494.61 268.555L494.493 253.194H457.456L456.852 268.376C456.9 270.061 457.588 271.668 458.779 272.88C467.133 281.851 483.42 281.944 492.421 273.352C493.089 272.733 493.627 271.991 494.002 271.168C494.378 270.345 494.584 269.457 494.61 268.555Z" fill="#C7D8C7"/>
<path d="M456.939 266.446L457.456 253.194H417.124L416.979 265.639C416.797 269.441 419.015 273.173 422.737 275.475C431.121 280.65 443.692 280.478 452.097 274.974C455.245 272.923 457.056 269.727 456.939 266.446Z" fill="#B7B75C"/>
<path d="M416.957 268.126L417.124 253.194H379.243L379.054 267.94C379.055 269.621 379.705 271.238 380.872 272.465C389.226 281.436 405.513 281.529 414.514 272.937C415.929 271.703 416.805 269.98 416.957 268.126Z" fill="#C7D8C7"/>
<path d="M379.09 265.717L379.243 253.194H339.305L339.065 265.388C338.883 269.184 341.282 272.458 345.005 274.76C353.388 279.935 365.952 279.763 374.364 274.259C375.837 273.359 377.046 272.099 377.874 270.602C378.703 269.104 379.122 267.421 379.09 265.717Z" fill="#B7B75C"/>
<path d="M339.065 268.283L339.341 253.194H300.805L301.016 267.919C301.017 269.599 301.666 271.217 302.834 272.444C311.188 281.415 327.475 281.508 336.476 272.923C337.843 271.586 338.999 270.042 339.065 268.283Z" fill="#C7D8C7"/>
<path d="M300.958 265.939L300.776 253.194H260.903L260.983 265.16C260.794 268.955 262.83 272.637 266.553 274.938C274.936 280.114 287.5 279.942 295.912 274.438C299.075 272.379 301.082 269.22 300.958 265.939Z" fill="#B7B75C"/>
<path d="M261.056 267.569L260.903 253.194H223.095L222.877 267.433C222.885 269.111 223.536 270.724 224.702 271.95C233.056 280.929 249.343 281.021 258.337 272.429C259.747 271.064 261.027 269.327 261.056 267.569Z" fill="#C7D8C7"/>
<path d="M222.884 265.832L223.102 253.165H182.538L182.436 264.988C182.255 268.784 184.53 272.429 188.253 274.731C196.636 279.906 209.208 279.735 217.613 274.231C220.768 272.201 223.008 269.156 222.884 265.832Z" fill="#B7B75C"/>
<path d="M182.414 267.833L182.538 253.194H144.795L144.621 267.597C144.682 269.305 145.384 270.929 146.591 272.158C154.945 281.129 171.225 281.229 180.226 272.637C180.896 272.018 181.434 271.275 181.809 270.45C182.185 269.626 182.391 268.736 182.414 267.833Z" fill="#C7D8C7"/>
<path d="M144.65 265.524L144.795 253.194H112.978C112.978 253.194 109.692 267.075 115.443 272.279C119.435 275.889 132.428 279.313 140.258 273.916C141.646 272.99 142.775 271.737 143.542 270.271C144.309 268.804 144.69 267.173 144.65 265.524Z" fill="#B7B75C"/>
<path d="M211.592 170.811L182.538 253.194H144.795L176.256 170.811H211.592Z" fill="#D8ECD8"/>
<path d="M260.903 253.194L278.164 170.811H241.999L223.102 253.165L260.903 253.194Z" fill="#D8ECD8"/>
<path d="M300.776 253.194L315.144 170.811H353.766L339.312 253.194H300.776Z" fill="#D8ECD8"/>
<path d="M379.243 253.194L394.039 170.811H427.732L417.124 253.194H379.243Z" fill="#D8ECD8"/>
<path d="M494.493 253.194L500.208 171.212L463.89 170.811L457.456 253.194H494.493Z" fill="#D8ECD8"/>
<path d="M534.752 253.165L537.253 170.304H575.119L572.546 253.194L534.752 253.165Z" fill="#D8ECD8"/>
<path d="M650.867 253.194L647.973 169.939H610.994L612.637 253.194H650.867Z" fill="#D8ECD8"/>
<path d="M728.156 253.194L717.831 169.939H683.317L691.133 253.194H728.156Z" fill="#D8ECD8"/>
<path d="M849.361 262.136L848.779 253.194H806.455V265.581C806.266 269.377 808.571 273.073 812.272 275.367C820.655 280.543 835.597 280.778 844.009 275.303C845.503 274.269 846.702 272.876 847.492 271.257C848.951 268.442 849.597 265.287 849.361 262.136Z" fill="#B7B75C"/>
<path d="M806.455 268.205V253.194H768.226L768.029 268.062C768.109 269.773 768.826 271.397 770.043 272.622C778.397 281.593 794.684 281.686 803.685 273.101C805.081 271.765 806.426 269.963 806.455 268.205Z" fill="#C7D8C7"/>
<path d="M768.044 266.182L768.204 253.194H728.134L728.403 265.438C728.221 269.241 730.257 272.923 733.98 275.217C742.356 280.392 754.927 280.221 763.332 274.717C764.803 273.818 766.01 272.558 766.836 271.062C767.662 269.566 768.078 267.884 768.044 266.182Z" fill="#B7B75C"/>
<path d="M806.455 253.194L789.333 169.939H756.454L768.226 253.194H806.455Z" fill="#D8ECD8"/>
<path d="M148.809 105.005L148.845 68.7072C148.845 64.0466 153.113 60.7584 157.236 62.2739C181.273 70.9589 210.254 76.1413 239.767 67.4992C274.042 57.456 285.202 35.7399 315.725 31.8299C335.793 29.2566 363.218 34.5176 398.562 64.7114C417.044 22.9447 458.757 -2.54555 501.917 0.999933C539.725 4.10938 573.171 29.085 588.694 65.512C604.69 47.6416 628 27.9484 654.968 29.3995C685.898 31.0579 697.539 59.2145 733.071 69.5292C750.834 74.6759 776.485 75.9626 812.127 59.9579C817.674 57.4703 823.76 61.8521 823.76 68.2998L823.724 105.356L148.809 105.005Z" fill="#E8D7A5"/>
<path d="M495.627 85.0049C512.285 64.6113 514.655 41.101 507.479 31.787C501.662 24.2028 488.066 24.1957 482.475 31.787C475.654 41.0367 478.788 64.1753 495.627 85.0049Z" fill="#C96928"/>
<path d="M466.108 85.3266C465.381 62.5383 454.474 44.8109 445.386 41.9016C437.955 39.5285 429.892 46.4121 430.524 54.5824C431.302 64.5398 445.219 79.2221 466.108 85.3266Z" fill="#C96928"/>
<path d="M522.813 85.8556C543.055 79.7368 556.71 64.4112 557.451 54.318C558.055 46.1191 550.246 39.4284 543.062 42.0089C534.301 45.1469 524.013 62.9315 522.813 85.8556Z" fill="#C96928"/>
<path d="M363.894 76.2556C350.858 57.6061 331.67 47.949 322.058 49.8075C314.235 51.3372 310.883 60.8871 315.878 67.3991C321.971 75.3621 342.206 81.0234 363.894 76.2556Z" fill="#C96928"/>
<path d="M611.466 76.0841C632.799 80.5088 653.07 73.8395 659.01 65.5263C663.845 58.757 660.348 49.2642 652.568 48.0419C643.08 46.5551 624.547 56.9342 611.466 76.0841Z" fill="#C96928"/>
<path d="M315.994 84.0185C304.623 71.6522 289.092 64.4183 281.821 64.9401C275.874 65.369 273.932 71.0375 278.244 75.3836C283.501 80.7018 299.54 85.5339 315.994 84.0185Z" fill="#C96928"/>
<path d="M658.538 82.6389C673.239 84.3616 688.028 79.7797 692.842 74.8117C696.768 70.7587 695.023 65.4691 689.628 65.0616C683.048 64.5684 669.204 71.2019 658.538 82.6389Z" fill="#C96928"/>
<path d="M272.726 80.8662C260.867 92.196 226.09 93.9402 207.121 91.3239C180.408 87.6426 162.282 70.6944 158.901 79.9941C157.323 84.3545 161.918 89.6656 161.918 105.349" stroke="#C96928" stroke-width="3" stroke-miterlimit="10"/>
<path d="M695.968 82.0385C707.827 92.6535 742.603 94.2904 761.573 91.8386C788.286 88.386 807.219 71.5593 809.422 80.666C810.215 83.9327 807.132 90.6734 807.132 105.349" stroke="#C96928" stroke-width="3" stroke-miterlimit="10"/>
<path d="M47.3151 278.562H57.9232V271.965H64.9396V263.995H44.9157L40.2042 271.965H47.3151V278.562Z" fill="#CDE9E4"/>
<path d="M57.9232 285.532H47.3151V292.13H40.2042V300.1H60.4171L64.9396 292.13H57.9232V285.532Z" fill="#CDE9E4"/>
<path d="M824.007 170.811H148.809V105.005H823.789L824.007 170.811Z" fill="#E7988C"/>
<path d="M815.879 113.283H157.156V163.349H815.879V113.283Z" fill="#E8D7A5"/>
<path d="M269.158 133.575C270.67 131.223 273.33 130.047 277.138 130.047V135.045C276.69 134.961 276.284 134.919 275.92 134.919C273.876 134.919 272.28 135.521 271.132 136.725C269.984 137.901 269.41 139.609 269.41 141.849V152.727H264.16V130.299H269.158V133.575ZM281.592 130.299H286.842V152.727H281.592V130.299ZM284.238 126.603C283.286 126.603 282.488 126.309 281.844 125.721C281.2 125.105 280.878 124.349 280.878 123.453C280.878 122.557 281.2 121.815 281.844 121.227C282.488 120.611 283.286 120.303 284.238 120.303C285.19 120.303 285.988 120.597 286.632 121.185C287.276 121.745 287.598 122.459 287.598 123.327C287.598 124.251 287.276 125.035 286.632 125.679C286.016 126.295 285.218 126.603 284.238 126.603ZM300.662 153.021C298.842 153.021 297.064 152.783 295.328 152.307C293.592 151.831 292.206 151.229 291.17 150.501L293.186 146.511C294.194 147.183 295.398 147.729 296.798 148.149C298.226 148.541 299.626 148.737 300.998 148.737C304.134 148.737 305.702 147.911 305.702 146.259C305.702 145.475 305.296 144.929 304.484 144.621C303.7 144.313 302.426 144.019 300.662 143.739C298.814 143.459 297.302 143.137 296.126 142.773C294.978 142.409 293.97 141.779 293.102 140.883C292.262 139.959 291.842 138.685 291.842 137.061C291.842 134.933 292.724 133.239 294.488 131.979C296.28 130.691 298.688 130.047 301.712 130.047C303.252 130.047 304.792 130.229 306.332 130.593C307.872 130.929 309.132 131.391 310.112 131.979L308.096 135.969C306.192 134.849 304.05 134.289 301.67 134.289C300.13 134.289 298.954 134.527 298.142 135.003C297.358 135.451 296.966 136.053 296.966 136.809C296.966 137.649 297.386 138.251 298.226 138.615C299.094 138.951 300.424 139.273 302.216 139.581C304.008 139.861 305.478 140.183 306.626 140.547C307.774 140.911 308.754 141.527 309.566 142.395C310.406 143.263 310.826 144.495 310.826 146.091C310.826 148.191 309.916 149.871 308.096 151.131C306.276 152.391 303.798 153.021 300.662 153.021ZM336.431 141.639C336.431 142.003 336.403 142.521 336.347 143.193H318.749C319.057 144.845 319.855 146.161 321.143 147.141C322.459 148.093 324.083 148.569 326.015 148.569C328.479 148.569 330.509 147.757 332.105 146.133L334.919 149.367C333.911 150.571 332.637 151.481 331.097 152.097C329.557 152.713 327.821 153.021 325.889 153.021C323.425 153.021 321.255 152.531 319.379 151.551C317.503 150.571 316.047 149.213 315.011 147.477C314.003 145.713 313.499 143.725 313.499 141.513C313.499 139.329 313.989 137.369 314.969 135.633C315.977 133.869 317.363 132.497 319.127 131.517C320.891 130.537 322.879 130.047 325.091 130.047C327.275 130.047 329.221 130.537 330.929 131.517C332.665 132.469 334.009 133.827 334.961 135.591C335.941 137.327 336.431 139.343 336.431 141.639ZM325.091 134.247C323.411 134.247 321.983 134.751 320.807 135.759C319.659 136.739 318.959 138.055 318.707 139.707H331.433C331.209 138.083 330.523 136.767 329.375 135.759C328.227 134.751 326.799 134.247 325.091 134.247ZM366.564 151.509C365.948 152.013 365.192 152.391 364.296 152.643C363.428 152.895 362.504 153.021 361.524 153.021C359.06 153.021 357.156 152.377 355.812 151.089C354.468 149.801 353.796 147.925 353.796 145.461V134.667H350.1V130.467H353.796V125.343H359.046V130.467H365.052V134.667H359.046V145.335C359.046 146.427 359.312 147.267 359.844 147.855C360.376 148.415 361.146 148.695 362.154 148.695C363.33 148.695 364.31 148.387 365.094 147.771L366.564 151.509ZM380.224 153.021C377.956 153.021 375.912 152.531 374.092 151.551C372.272 150.571 370.844 149.213 369.808 147.477C368.8 145.713 368.296 143.725 368.296 141.513C368.296 139.301 368.8 137.327 369.808 135.591C370.844 133.855 372.272 132.497 374.092 131.517C375.912 130.537 377.956 130.047 380.224 130.047C382.52 130.047 384.578 130.537 386.398 131.517C388.218 132.497 389.632 133.855 390.64 135.591C391.676 137.327 392.194 139.301 392.194 141.513C392.194 143.725 391.676 145.713 390.64 147.477C389.632 149.213 388.218 150.571 386.398 151.551C384.578 152.531 382.52 153.021 380.224 153.021ZM380.224 148.527C382.156 148.527 383.752 147.883 385.012 146.595C386.272 145.307 386.902 143.613 386.902 141.513C386.902 139.413 386.272 137.719 385.012 136.431C383.752 135.143 382.156 134.499 380.224 134.499C378.292 134.499 376.696 135.143 375.436 136.431C374.204 137.719 373.588 139.413 373.588 141.513C373.588 143.613 374.204 145.307 375.436 146.595C376.696 147.883 378.292 148.527 380.224 148.527ZM429.822 130.299L419.322 154.533C418.342 156.969 417.152 158.677 415.752 159.657C414.352 160.665 412.658 161.169 410.67 161.169C409.55 161.169 408.444 160.987 407.352 160.623C406.26 160.259 405.364 159.755 404.664 159.111L406.764 155.247C407.268 155.723 407.856 156.101 408.528 156.381C409.228 156.661 409.928 156.801 410.628 156.801C411.552 156.801 412.308 156.563 412.896 156.087C413.512 155.611 414.072 154.813 414.576 153.693L414.954 152.811L405.168 130.299H410.628L417.684 146.889L424.782 130.299H429.822ZM442.568 153.021C440.3 153.021 438.256 152.531 436.436 151.551C434.616 150.571 433.188 149.213 432.152 147.477C431.144 145.713 430.64 143.725 430.64 141.513C430.64 139.301 431.144 137.327 432.152 135.591C433.188 133.855 434.616 132.497 436.436 131.517C438.256 130.537 440.3 130.047 442.568 130.047C444.864 130.047 446.922 130.537 448.742 131.517C450.562 132.497 451.976 133.855 452.984 135.591C454.02 137.327 454.538 139.301 454.538 141.513C454.538 143.725 454.02 145.713 452.984 147.477C451.976 149.213 450.562 150.571 448.742 151.551C446.922 152.531 444.864 153.021 442.568 153.021ZM442.568 148.527C444.5 148.527 446.096 147.883 447.356 146.595C448.616 145.307 449.246 143.613 449.246 141.513C449.246 139.413 448.616 137.719 447.356 136.431C446.096 135.143 444.5 134.499 442.568 134.499C440.636 134.499 439.04 135.143 437.78 136.431C436.548 137.719 435.932 139.413 435.932 141.513C435.932 143.613 436.548 145.307 437.78 146.595C439.04 147.883 440.636 148.527 442.568 148.527ZM481.272 130.299V152.727H476.274V149.871C475.434 150.879 474.384 151.663 473.124 152.223C471.864 152.755 470.506 153.021 469.05 153.021C466.054 153.021 463.688 152.195 461.952 150.543C460.244 148.863 459.39 146.385 459.39 143.109V130.299H464.64V142.395C464.64 144.411 465.088 145.923 465.984 146.931C466.908 147.911 468.21 148.401 469.89 148.401C471.766 148.401 473.25 147.827 474.342 146.679C475.462 145.503 476.022 143.823 476.022 141.639V130.299H481.272ZM493.144 133.575C494.656 131.223 497.316 130.047 501.124 130.047V135.045C500.676 134.961 500.27 134.919 499.906 134.919C497.862 134.919 496.266 135.521 495.118 136.725C493.97 137.901 493.396 139.609 493.396 141.849V152.727H488.146V130.299H493.144V133.575ZM529.822 130.047C532.006 130.047 533.952 130.523 535.66 131.475C537.396 132.427 538.754 133.771 539.734 135.507C540.714 137.243 541.204 139.245 541.204 141.513C541.204 143.781 540.714 145.797 539.734 147.561C538.754 149.297 537.396 150.641 535.66 151.593C533.952 152.545 532.006 153.021 529.822 153.021C526.798 153.021 524.404 152.013 522.64 149.997V160.875H517.39V130.299H522.388V133.239C523.256 132.175 524.32 131.377 525.58 130.845C526.868 130.313 528.282 130.047 529.822 130.047ZM529.234 148.527C531.166 148.527 532.748 147.883 533.98 146.595C535.24 145.307 535.87 143.613 535.87 141.513C535.87 139.413 535.24 137.719 533.98 136.431C532.748 135.143 531.166 134.499 529.234 134.499C527.974 134.499 526.84 134.793 525.832 135.381C524.824 135.941 524.026 136.753 523.438 137.817C522.85 138.881 522.556 140.113 522.556 141.513C522.556 142.913 522.85 144.145 523.438 145.209C524.026 146.273 524.824 147.099 525.832 147.687C526.84 148.247 527.974 148.527 529.234 148.527ZM556.263 153.021C553.995 153.021 551.951 152.531 550.131 151.551C548.311 150.571 546.883 149.213 545.847 147.477C544.839 145.713 544.335 143.725 544.335 141.513C544.335 139.301 544.839 137.327 545.847 135.591C546.883 133.855 548.311 132.497 550.131 131.517C551.951 130.537 553.995 130.047 556.263 130.047C558.559 130.047 560.617 130.537 562.437 131.517C564.257 132.497 565.671 133.855 566.679 135.591C567.715 137.327 568.233 139.301 568.233 141.513C568.233 143.725 567.715 145.713 566.679 147.477C565.671 149.213 564.257 150.571 562.437 151.551C560.617 152.531 558.559 153.021 556.263 153.021ZM556.263 148.527C558.195 148.527 559.791 147.883 561.051 146.595C562.311 145.307 562.941 143.613 562.941 141.513C562.941 139.413 562.311 137.719 561.051 136.431C559.791 135.143 558.195 134.499 556.263 134.499C554.331 134.499 552.735 135.143 551.475 136.431C550.243 137.719 549.627 139.413 549.627 141.513C549.627 143.613 550.243 145.307 551.475 146.595C552.735 147.883 554.331 148.527 556.263 148.527ZM586.736 151.509C586.12 152.013 585.364 152.391 584.468 152.643C583.6 152.895 582.676 153.021 581.696 153.021C579.232 153.021 577.328 152.377 575.984 151.089C574.64 149.801 573.968 147.925 573.968 145.461V134.667H570.272V130.467H573.968V125.343H579.218V130.467H585.224V134.667H579.218V145.335C579.218 146.427 579.484 147.267 580.016 147.855C580.548 148.415 581.318 148.695 582.326 148.695C583.502 148.695 584.482 148.387 585.266 147.771L586.736 151.509ZM611.4 141.639C611.4 142.003 611.372 142.521 611.316 143.193H593.718C594.026 144.845 594.824 146.161 596.112 147.141C597.428 148.093 599.052 148.569 600.984 148.569C603.448 148.569 605.478 147.757 607.074 146.133L609.888 149.367C608.88 150.571 607.606 151.481 606.066 152.097C604.526 152.713 602.79 153.021 600.858 153.021C598.394 153.021 596.224 152.531 594.348 151.551C592.472 150.571 591.016 149.213 589.98 147.477C588.972 145.713 588.468 143.725 588.468 141.513C588.468 139.329 588.958 137.369 589.938 135.633C590.946 133.869 592.332 132.497 594.096 131.517C595.86 130.537 597.848 130.047 600.06 130.047C602.244 130.047 604.19 130.537 605.898 131.517C607.634 132.469 608.978 133.827 609.93 135.591C610.91 137.327 611.4 139.343 611.4 141.639ZM600.06 134.247C598.38 134.247 596.952 134.751 595.776 135.759C594.628 136.739 593.928 138.055 593.676 139.707H606.402C606.178 138.083 605.492 136.767 604.344 135.759C603.196 134.751 601.768 134.247 600.06 134.247ZM629.169 130.047C631.997 130.047 634.265 130.873 635.973 132.525C637.681 134.177 638.535 136.627 638.535 139.875V152.727H633.285V140.547C633.285 138.587 632.823 137.117 631.899 136.137C630.975 135.129 629.659 134.625 627.951 134.625C626.019 134.625 624.493 135.213 623.373 136.389C622.253 137.537 621.693 139.203 621.693 141.387V152.727H616.443V130.299H621.441V133.197C622.309 132.161 623.401 131.377 624.717 130.845C626.033 130.313 627.517 130.047 629.169 130.047ZM658.677 151.509C658.061 152.013 657.305 152.391 656.409 152.643C655.541 152.895 654.617 153.021 653.637 153.021C651.173 153.021 649.269 152.377 647.925 151.089C646.581 149.801 645.909 147.925 645.909 145.461V134.667H642.213V130.467H645.909V125.343H651.159V130.467H657.165V134.667H651.159V145.335C651.159 146.427 651.425 147.267 651.957 147.855C652.489 148.415 653.259 148.695 654.267 148.695C655.443 148.695 656.423 148.387 657.207 147.771L658.677 151.509ZM662.996 130.299H668.246V152.727H662.996V130.299ZM665.642 126.603C664.69 126.603 663.892 126.309 663.248 125.721C662.604 125.105 662.282 124.349 662.282 123.453C662.282 122.557 662.604 121.815 663.248 121.227C663.892 120.611 664.69 120.303 665.642 120.303C666.594 120.303 667.392 120.597 668.036 121.185C668.68 121.745 669.002 122.459 669.002 123.327C669.002 124.251 668.68 125.035 668.036 125.679C667.42 126.295 666.622 126.603 665.642 126.603ZM683.705 130.047C687.009 130.047 689.529 130.845 691.265 132.441C693.029 134.009 693.911 136.389 693.911 139.581V152.727H688.955V149.997C688.311 150.977 687.387 151.733 686.183 152.265C685.007 152.769 683.579 153.021 681.899 153.021C680.219 153.021 678.749 152.741 677.489 152.181C676.229 151.593 675.249 150.795 674.549 149.787C673.877 148.751 673.541 147.589 673.541 146.301C673.541 144.285 674.283 142.675 675.767 141.471C677.279 140.239 679.645 139.623 682.865 139.623H688.661V139.287C688.661 137.719 688.185 136.515 687.233 135.675C686.309 134.835 684.923 134.415 683.075 134.415C681.815 134.415 680.569 134.611 679.337 135.003C678.133 135.395 677.111 135.941 676.271 136.641L674.213 132.819C675.389 131.923 676.803 131.237 678.455 130.761C680.107 130.285 681.857 130.047 683.705 130.047ZM682.991 149.199C684.307 149.199 685.469 148.905 686.477 148.317C687.513 147.701 688.241 146.833 688.661 145.713V143.109H683.243C680.219 143.109 678.707 144.103 678.707 146.091C678.707 147.043 679.085 147.799 679.841 148.359C680.597 148.919 681.647 149.199 682.991 149.199ZM700.648 121.563H705.898V152.727H700.648V121.563Z" fill="#08151B"/>
<path d="M793.535 336.119H375.84V605.147H793.535V336.119Z" fill="#08151B"/>
<path d="M498.158 491.299H401.921C394.258 491.299 388.041 498.025 388.041 506.31C388.041 508.847 389.946 510.906 392.287 510.906H507.792C510.14 510.906 512.038 508.847 512.038 506.31C512.038 498.025 505.828 491.299 498.158 491.299Z" fill="#ED9B21"/>
<path d="M400.016 491.406C400.016 496.774 401.048 501.113 402.299 501.113C403.55 501.113 404.575 496.717 404.575 491.299H401.921C401.284 491.298 400.648 491.334 400.016 491.406Z" fill="#C96928"/>
<path d="M412.907 501.113C414.165 501.113 415.183 496.717 415.183 491.299H410.624C410.624 496.717 411.649 501.113 412.907 501.113Z" fill="#C96928"/>
<path d="M423.515 501.113C424.773 501.113 425.798 496.717 425.798 491.299H421.225C421.225 496.717 422.257 501.113 423.515 501.113Z" fill="#C96928"/>
<path d="M434.123 501.113C435.389 501.113 436.406 496.717 436.406 491.299H431.848C431.848 496.717 432.858 501.113 434.123 501.113Z" fill="#C96928"/>
<path d="M444.739 501.113C445.997 501.113 447.015 496.717 447.015 491.299H442.456C442.456 496.717 443.481 501.113 444.739 501.113Z" fill="#C96928"/>
<path d="M455.347 501.113C456.605 501.113 457.623 496.717 457.623 491.299H453.064C453.064 496.717 454.089 501.113 455.347 501.113Z" fill="#C96928"/>
<path d="M465.955 501.113C467.213 501.113 468.238 496.717 468.238 491.299H463.679C463.679 496.717 464.697 501.113 465.955 501.113Z" fill="#C96928"/>
<path d="M476.563 501.113C477.828 501.113 478.846 496.717 478.846 491.299H474.302C474.302 496.717 475.305 501.113 476.563 501.113Z" fill="#C96928"/>
<path d="M487.179 501.113C488.437 501.113 489.455 496.717 489.455 491.299H484.896C484.896 496.717 485.935 501.113 487.179 501.113Z" fill="#C96928"/>
<path d="M497.787 501.113C499.037 501.113 500.055 496.774 500.063 491.406C499.43 491.334 498.794 491.298 498.158 491.299H495.504C495.504 496.717 496.529 501.113 497.787 501.113Z" fill="#C96928"/>
<path d="M388.085 506.946C388.172 507.998 388.648 508.982 389.421 509.714C390.195 510.446 391.214 510.875 392.287 510.92H507.792C508.865 510.875 509.885 510.447 510.66 509.715C511.435 508.983 511.912 507.999 512.001 506.946H388.085Z" fill="#C96928"/>
<path d="M767.535 495.652C761.835 481.892 746.718 472.063 728.999 472.063C711.28 472.063 696.135 481.892 690.464 495.652H767.535Z" fill="#E8D7A5"/>
<path d="M729.45 477.017C729.45 477.017 725.16 485.358 729.45 485.473C733.74 485.587 729.45 477.017 729.45 477.017Z" fill="#9B2227"/>
<path d="M721.554 475.565C721.554 475.565 713.265 478.825 716.464 481.956C719.664 485.087 721.554 475.565 721.554 475.565Z" fill="#9B2227"/>
<path d="M735.863 475.565C735.863 475.565 738.648 484.629 741.622 481.284C744.595 477.939 735.863 475.565 735.863 475.565Z" fill="#9B2227"/>
<path d="M767.527 495.652H690.406V511.206H767.527V495.652Z" fill="#F89E1B"/>
<path d="M690.02 488.604C684.872 481.806 686.465 498.354 695.008 500.57C703.551 502.786 701.406 495.695 706.031 497.911C710.655 500.127 708.881 505.002 713.861 504.115C718.842 503.229 718.486 497.467 722.041 501.456C725.597 505.445 731.653 505.03 734.14 502.343C736.626 499.655 736.99 501.456 742.676 503.229C748.362 505.002 748.725 503.672 752.288 500.57C755.85 497.467 755.131 504.144 762.249 501.456C769.367 498.768 773.984 494.808 771.497 490.82C769.011 486.831 764.023 489.49 760.467 492.592C756.912 495.695 752.157 489.983 745.199 494.365C738.611 498.504 741.643 489.047 734.169 492.149C726.694 495.252 726.694 497.024 721.009 493.479C715.323 489.933 716.457 495.244 712.902 495.688C709.346 496.131 711.753 488.604 706.06 490.376C700.367 492.149 696.062 496.545 690.02 488.604Z" fill="#C3601E"/>
<path d="M611.844 556.683C611.844 556.833 611.844 556.99 611.844 557.147C611.546 560.107 608.42 562.773 603.527 564.717V595.333C603.527 598.192 601.411 600.444 598.808 600.444H566.162C563.559 600.444 561.443 598.156 561.443 595.333V563.509C558.091 561.729 556.012 559.542 555.764 557.162C555.764 557.012 555.764 556.847 555.764 556.69C555.764 550.45 568.321 545.389 583.815 545.389C599.31 545.389 611.866 550.45 611.866 556.69" fill="#C96928"/>
<path d="M621.769 556.683C621.727 557.585 621.502 558.471 621.107 559.287C620.713 560.103 620.157 560.834 619.471 561.436C617.982 562.812 616.259 563.922 614.382 564.717V595.333C614.386 596.166 614.215 596.991 613.88 597.756C613.602 598.509 613.105 599.165 612.451 599.643C611.797 600.121 611.015 600.399 610.201 600.444H581.3C578.995 600.444 577.119 598.156 577.119 595.333V563.509C573.956 561.615 572.073 559.22 572.073 556.683C572.073 553.109 575.708 549.921 581.423 547.848L579.431 545.703L584.274 545.439H585.728H594.002C594.969 545.381 595.943 545.36 596.91 545.36C603.454 545.36 609.351 546.497 613.786 548.362C618.686 550.428 621.784 553.366 621.784 556.661" fill="#C96928"/>
<path d="M611.844 557.612C611.844 560.757 608.653 563.602 603.505 565.654V595.333C603.505 598.192 601.389 600.444 598.786 600.444H566.162C563.559 600.444 561.443 598.156 561.443 595.333V564.438C557.866 562.544 555.743 560.149 555.743 557.612C555.743 557.464 555.743 557.314 555.743 557.162C556.339 551.136 568.663 546.318 583.772 546.318C598.881 546.318 611.197 551.129 611.801 557.154C611.801 557.312 611.801 557.462 611.801 557.619" fill="#E8D7A5"/>
<path fill-rule="evenodd" clip-rule="evenodd" d="M442.361 545.146C438.929 541.95 435.389 539.17 429.048 538.426C424.061 538.047 419.451 538.877 414.739 542.301C411.998 544.419 409.748 547.088 408.138 550.128C406.528 553.169 405.596 556.512 405.404 559.935C404.756 568.727 408.53 578.928 414.027 584.682C416.084 580.758 417.895 577.419 421.472 575.768C419.066 571.708 417.48 568.055 416.906 562.751C416.179 556.625 419.458 551.808 424.511 550.307C427.82 549.084 431.782 550.407 434.443 553.044C436.668 549.191 439.62 546.404 442.361 545.146Z" fill="#C3601E"/>
<path fill-rule="evenodd" clip-rule="evenodd" d="M469.467 548.512C465.999 542.687 459.353 539.734 452.526 539.063C445.749 538.641 439.853 540.435 434.989 545.817C427.805 554.016 427.718 563.338 431.186 570.75L437.955 563.995C437.802 560.493 438.486 559.335 440.958 557.076C443.43 554.817 444.593 553.402 447.196 552.372C450.832 550.828 454.591 550.764 457.717 553.909C461.047 557.247 461.2 564.017 459.317 569.342C455.936 577.984 451.203 582.602 445.081 586.154C439.017 589.364 431.92 588.642 426.075 584.174L423.661 582.666L416.753 589.814L416.95 593.388C420.128 596.033 423.805 598.035 427.771 599.28C431.738 600.525 435.915 600.989 440.064 600.644C448.629 600.043 454.751 595.955 459.964 590.579C464.944 584.146 468.929 580.529 471.67 571.236C474.229 562.787 472.557 553.931 469.467 548.512Z" fill="#C3601E"/>
<path fill-rule="evenodd" clip-rule="evenodd" d="M468.718 545.589C465.257 539.756 458.604 536.818 451.777 536.139C445.001 535.717 439.097 537.518 434.24 542.887C427.056 551.093 426.969 560.421 430.43 567.82L437.206 561.072C437.054 557.562 437.73 556.418 440.209 554.152C442.688 551.886 443.845 550.478 446.447 549.449C450.083 547.905 453.842 547.848 456.968 550.993C460.291 554.331 460.451 561.093 458.575 566.418C455.187 575.061 450.446 579.685 444.332 583.224C438.261 586.433 431.171 585.726 425.326 581.251L422.912 579.743L416.005 586.891L416.79 590.929C423.632 596.569 431.23 598.371 439.329 597.749C447.894 597.156 454.016 593.074 459.23 587.691C464.21 581.258 468.195 577.634 470.936 568.348C473.48 559.864 471.808 551.007 468.718 545.589Z" fill="#ED9B21"/>
<path fill-rule="evenodd" clip-rule="evenodd" d="M440.267 542.086C436.828 538.891 433.295 536.103 426.947 535.367C421.967 534.988 417.357 535.817 412.645 539.241C409.903 541.359 407.652 544.028 406.041 547.068C404.43 550.109 403.496 553.452 403.302 556.876C402.655 565.668 406.436 575.868 411.933 581.623C413.99 577.698 416.295 574.589 419.843 572.945C417.437 568.877 415.379 564.989 414.805 559.692C414.078 553.566 417.364 548.748 422.417 547.247C425.726 546.025 429.688 547.347 432.349 549.985C434.574 546.132 437.533 543.344 440.267 542.086Z" fill="#ED9B21"/>
<path fill-rule="evenodd" clip-rule="evenodd" d="M446.767 568.148C448.018 569.485 451.973 571.165 455.558 572.516C462.102 574.996 464.879 577.52 467.918 581.358C470.71 584.682 470.02 589.221 468.449 591.852C467.373 593.782 466.922 594.389 464.923 594.711C462.741 594.954 458.822 593.782 458.321 590.608C457.419 587.427 455.078 586.062 452.948 584.41C450.25 582.323 448.025 581.808 443.895 579.95C441.714 579.105 439.663 577.964 437.802 576.562C440.602 575.304 443.881 571.143 446.767 568.148Z" fill="#ED9B21"/>
<path fill-rule="evenodd" clip-rule="evenodd" d="M444.099 550.721C447.858 551.736 450.832 557.112 449.872 561.729C449.145 566.797 446.877 569.978 443.001 573.695C439.963 576.614 436.204 578.706 432.095 579.764C427.563 581.043 423.516 583.609 420.462 587.141C419.147 588.598 418.249 590.371 417.859 592.28C417.008 596.198 410.777 597.284 408.268 593.124C405.549 588.921 407.934 582.359 411.177 577.763C414.363 574.022 418.591 571.277 423.341 569.864C427.885 568.491 433.818 564.674 436.872 560.2C437.344 555.139 441.583 552.365 444.099 550.721Z" fill="#ED9B21"/>
<path d="M426.315 584.496C426.373 584.496 426.424 584.432 426.482 584.432C426.731 584.457 426.975 584.514 427.209 584.603C427.456 584.668 427.703 584.768 427.936 584.846C428.336 584.982 428.736 585.118 429.15 585.247C430.629 585.73 432.154 586.063 433.702 586.24C434.711 586.344 435.727 586.38 436.741 586.347C438.977 586.243 441.183 585.804 443.285 585.046C443.895 584.839 444.492 584.596 445.095 584.332C445.568 584.139 446.04 583.931 446.549 583.724C446.767 583.631 446.993 583.524 447.211 583.445C447.256 583.432 447.299 583.415 447.342 583.395C447.479 583.339 447.62 583.294 447.764 583.259C447.831 583.237 447.903 583.224 447.974 583.224C447.974 583.224 448.076 583.259 448.113 583.267C448.109 583.29 448.109 583.314 448.113 583.338C448.113 583.338 448.113 583.417 448.113 583.431C448.055 583.546 447.984 583.654 447.902 583.753C447.771 583.909 447.63 584.057 447.48 584.196L447.255 584.403C447.109 584.539 446.956 584.668 446.796 584.789C446.409 585.103 446.001 585.392 445.575 585.654C444.83 586.136 444.044 586.555 443.227 586.905C442.259 587.32 441.257 587.653 440.231 587.899C439.492 588.073 438.741 588.195 437.984 588.263C435.2 588.555 432.386 588.121 429.826 587.005C429.1 586.68 428.402 586.298 427.74 585.861C427.51 585.709 427.289 585.544 427.078 585.368C426.878 585.208 426.693 585.031 426.525 584.839C426.469 584.781 426.42 584.716 426.38 584.646C426.355 584.597 426.333 584.547 426.315 584.496Z" fill="#F79740"/>
<path fill-rule="evenodd" clip-rule="evenodd" d="M447.146 572.952C447.228 572.707 447.242 572.445 447.186 572.194C447.129 571.942 447.005 571.71 446.826 571.522C446.506 571.294 446.186 571.765 445.968 572.116C445.849 572.278 445.793 572.476 445.809 572.675C445.825 572.874 445.912 573.06 446.055 573.202C446.235 573.305 446.448 573.337 446.651 573.291C446.854 573.244 447.031 573.123 447.146 572.952Z" fill="white"/>
<path fill-rule="evenodd" clip-rule="evenodd" d="M447.342 568.663C445.735 570.958 444.012 573.338 441.758 574.889C440.782 575.731 439.731 576.485 438.617 577.141L440.798 578.449C444.921 576.898 448.243 573.209 449.014 569.635L447.342 568.663Z" fill="#C3601E"/>
<path fill-rule="evenodd" clip-rule="evenodd" d="M420.033 593.839C421.341 591.315 423.617 587.856 425.646 585.976C426.555 584.846 427.972 584.31 428.91 583.467C428.024 583.087 427.171 582.638 426.358 582.123C422.476 584.267 418.186 588.613 417.873 592.266L420.033 593.839Z" fill="#C3601E"/>
<path fill-rule="evenodd" clip-rule="evenodd" d="M444.63 550.357C442.448 551.639 440.485 553.25 438.813 555.132C437.734 556.677 437.064 558.464 436.865 560.328C437.916 558.423 439.389 556.774 441.176 555.503C450.999 548.419 457.899 552.851 458.488 554.788C457.056 549.928 446.069 550.793 444.63 550.357Z" fill="#C3601E"/>
<path fill-rule="evenodd" clip-rule="evenodd" d="M447.204 581.358C449.533 582.305 451.732 583.537 453.747 585.025C455.426 586.072 456.815 587.511 457.79 589.214L455.187 591.573C453.258 587.643 450.18 584.37 446.346 582.173L447.204 581.358Z" fill="#C3601E"/>
<path d="M441.373 543.43C441.915 543.43 442.354 543.177 442.354 542.865C442.354 542.553 441.915 542.301 441.373 542.301C440.83 542.301 440.391 542.553 440.391 542.865C440.391 543.177 440.83 543.43 441.373 543.43Z" fill="#E8D7A5"/>
<path d="M432.873 551.843C433.415 551.843 433.854 551.591 433.854 551.279C433.854 550.967 433.415 550.714 432.873 550.714C432.331 550.714 431.891 550.967 431.891 551.279C431.891 551.591 432.331 551.843 432.873 551.843Z" fill="#E8D7A5"/>
<path d="M434.843 559.578C435.385 559.578 435.825 559.325 435.825 559.013C435.825 558.701 435.385 558.448 434.843 558.448C434.301 558.448 433.862 558.701 433.862 559.013C433.862 559.325 434.301 559.578 434.843 559.578Z" fill="#E8D7A5"/>
<path d="M443.19 557.019C443.732 557.019 444.172 556.766 444.172 556.454C444.172 556.142 443.732 555.889 443.19 555.889C442.648 555.889 442.209 556.142 442.209 556.454C442.209 556.766 442.648 557.019 443.19 557.019Z" fill="#E8D7A5"/>
<path d="M444.172 567.119C444.714 567.119 445.153 566.866 445.153 566.554C445.153 566.242 444.714 565.99 444.172 565.99C443.63 565.99 443.19 566.242 443.19 566.554C443.19 566.866 443.63 567.119 444.172 567.119Z" fill="#E8D7A5"/>
<path d="M428.91 572.001C429.452 572.001 429.892 571.748 429.892 571.436C429.892 571.125 429.452 570.872 428.91 570.872C428.368 570.872 427.929 571.125 427.929 571.436C427.929 571.748 428.368 572.001 428.91 572.001Z" fill="#E8D7A5"/>
<path d="M427.921 539.892C428.464 539.892 428.903 539.639 428.903 539.327C428.903 539.015 428.464 538.762 427.921 538.762C427.379 538.762 426.94 539.015 426.94 539.327C426.94 539.639 427.379 539.892 427.921 539.892Z" fill="#E8D7A5"/>
<path d="M406.807 560.936C407.349 560.936 407.788 560.683 407.788 560.371C407.788 560.059 407.349 559.806 406.807 559.806C406.265 559.806 405.825 560.059 405.825 560.371C405.825 560.683 406.265 560.936 406.807 560.936Z" fill="#E8D7A5"/>
<path d="M408.77 568.663C409.312 568.663 409.752 568.41 409.752 568.098C409.752 567.786 409.312 567.533 408.77 567.533C408.228 567.533 407.788 567.786 407.788 568.098C407.788 568.41 408.228 568.663 408.77 568.663Z" fill="#E8D7A5"/>
<path d="M415.765 574.682C416.307 574.682 416.746 574.429 416.746 574.117C416.746 573.805 416.307 573.552 415.765 573.552C415.222 573.552 414.783 573.805 414.783 574.117C414.783 574.429 415.222 574.682 415.765 574.682Z" fill="#E8D7A5"/>
<path d="M460.749 546.046C461.291 546.046 461.731 545.793 461.731 545.481C461.731 545.17 461.291 544.917 460.749 544.917C460.207 544.917 459.768 545.17 459.768 545.481C459.768 545.793 460.207 546.046 460.749 546.046Z" fill="#E8D7A5"/>
<path d="M462.72 553.78C463.262 553.78 463.701 553.528 463.701 553.216C463.701 552.904 463.262 552.651 462.72 552.651C462.178 552.651 461.738 552.904 461.738 553.216C461.738 553.528 462.178 553.78 462.72 553.78Z" fill="#E8D7A5"/>
<path d="M460.335 571.372C460.877 571.372 461.316 571.119 461.316 570.807C461.316 570.496 460.877 570.243 460.335 570.243C459.793 570.243 459.353 570.496 459.353 570.807C459.353 571.119 459.793 571.372 460.335 571.372Z" fill="#E8D7A5"/>
<path d="M462.305 579.106C462.847 579.106 463.287 578.854 463.287 578.542C463.287 578.23 462.847 577.977 462.305 577.977C461.763 577.977 461.324 578.23 461.324 578.542C461.324 578.854 461.763 579.106 462.305 579.106Z" fill="#E8D7A5"/>
<path d="M465.897 559.392C466.439 559.392 466.879 559.139 466.879 558.827C466.879 558.515 466.439 558.262 465.897 558.262C465.355 558.262 464.915 558.515 464.915 558.827C464.915 559.139 465.355 559.392 465.897 559.392Z" fill="#E8D7A5"/>
<path d="M466.879 573.803C467.421 573.803 467.86 573.55 467.86 573.238C467.86 572.926 467.421 572.673 466.879 572.673C466.336 572.673 465.897 572.926 465.897 573.238C465.897 573.55 466.336 573.803 466.879 573.803Z" fill="#E8D7A5"/>
<path d="M411.199 545.489C411.741 545.489 412.18 545.236 412.18 544.924C412.18 544.612 411.741 544.359 411.199 544.359C410.656 544.359 410.217 544.612 410.217 544.924C410.217 545.236 410.656 545.489 411.199 545.489Z" fill="#E8D7A5"/>
<path d="M413.169 553.216C413.711 553.216 414.15 552.963 414.15 552.651C414.15 552.339 413.711 552.086 413.169 552.086C412.627 552.086 412.187 552.339 412.187 552.651C412.187 552.963 412.627 553.216 413.169 553.216Z" fill="#E8D7A5"/>
<path d="M412.187 584.453C412.729 584.453 413.169 584.2 413.169 583.888C413.169 583.577 412.729 583.324 412.187 583.324C411.645 583.324 411.206 583.577 411.206 583.888C411.206 584.2 411.645 584.453 412.187 584.453Z" fill="#E8D7A5"/>
<path d="M414.158 592.18C414.7 592.18 415.139 591.928 415.139 591.616C415.139 591.304 414.7 591.051 414.158 591.051C413.616 591.051 413.176 591.304 413.176 591.616C413.176 591.928 413.616 592.18 414.158 592.18Z" fill="#E8D7A5"/>
<path d="M449.967 573.902C450.509 573.902 450.948 573.65 450.948 573.338C450.948 573.026 450.509 572.773 449.967 572.773C449.424 572.773 448.985 573.026 448.985 573.338C448.985 573.65 449.424 573.902 449.967 573.902Z" fill="#E8D7A5"/>
<path d="M451.937 581.63C452.479 581.63 452.919 581.377 452.919 581.065C452.919 580.753 452.479 580.5 451.937 580.5C451.395 580.5 450.956 580.753 450.956 581.065C450.956 581.377 451.395 581.63 451.937 581.63Z" fill="#E8D7A5"/>
<path d="M461.324 584.453C461.866 584.453 462.305 584.2 462.305 583.888C462.305 583.577 461.866 583.324 461.324 583.324C460.782 583.324 460.342 583.577 460.342 583.888C460.342 584.2 460.782 584.453 461.324 584.453Z" fill="#E8D7A5"/>
<path d="M463.294 592.18C463.836 592.18 464.276 591.928 464.276 591.616C464.276 591.304 463.836 591.051 463.294 591.051C462.752 591.051 462.312 591.304 462.312 591.616C462.312 591.928 462.752 592.18 463.294 592.18Z" fill="#E8D7A5"/>
<path d="M428.372 593.295C429.497 593.295 430.408 592.777 430.408 592.137C430.408 591.498 429.497 590.979 428.372 590.979C427.248 590.979 426.336 591.498 426.336 592.137C426.336 592.777 427.248 593.295 428.372 593.295Z" fill="#E8D7A5"/>
<path d="M437.853 572.53C438.978 572.53 439.889 572.012 439.889 571.372C439.889 570.732 438.978 570.214 437.853 570.214C436.729 570.214 435.818 570.732 435.818 571.372C435.818 572.012 436.729 572.53 437.853 572.53Z" fill="#E8D7A5"/>
<path d="M421.472 579.099C422.597 579.099 423.508 578.581 423.508 577.941C423.508 577.302 422.597 576.783 421.472 576.783C420.348 576.783 419.436 577.302 419.436 577.941C419.436 578.581 420.348 579.099 421.472 579.099Z" fill="#E8D7A5"/>
<path d="M412.187 564.438C413.312 564.438 414.223 563.92 414.223 563.28C414.223 562.641 413.312 562.122 412.187 562.122C411.063 562.122 410.152 562.641 410.152 563.28C410.152 563.92 411.063 564.438 412.187 564.438Z" fill="#E8D7A5"/>
<path d="M419.429 543.466C420.553 543.466 421.465 542.947 421.465 542.308C421.465 541.668 420.553 541.15 419.429 541.15C418.305 541.15 417.393 541.668 417.393 542.308C417.393 542.947 418.305 543.466 419.429 543.466Z" fill="#E8D7A5"/>
<path d="M433.854 545.517C434.979 545.517 435.89 544.999 435.89 544.359C435.89 543.72 434.979 543.201 433.854 543.201C432.73 543.201 431.819 543.72 431.819 544.359C431.819 544.999 432.73 545.517 433.854 545.517Z" fill="#E8D7A5"/>
<path d="M451.937 543.466C453.061 543.466 453.973 542.947 453.973 542.308C453.973 541.668 453.061 541.15 451.937 541.15C450.813 541.15 449.901 541.668 449.901 542.308C449.901 542.947 450.813 543.466 451.937 543.466Z" fill="#E8D7A5"/>
<path d="M465.897 565.603C467.021 565.603 467.933 565.085 467.933 564.445C467.933 563.806 467.021 563.288 465.897 563.288C464.773 563.288 463.861 563.806 463.861 564.445C463.861 565.085 464.773 565.603 465.897 565.603Z" fill="#E8D7A5"/>
<path d="M449.603 592.388C450.727 592.388 451.639 591.869 451.639 591.23C451.639 590.59 450.727 590.072 449.603 590.072C448.479 590.072 447.567 590.59 447.567 591.23C447.567 591.869 448.479 592.388 449.603 592.388Z" fill="#E8D7A5"/>
<path d="M442.848 589.507C443.391 589.507 443.83 589.254 443.83 588.942C443.83 588.63 443.391 588.377 442.848 588.377C442.306 588.377 441.867 588.63 441.867 588.942C441.867 589.254 442.306 589.507 442.848 589.507Z" fill="#E8D7A5"/>
<path d="M441.867 594.854C442.409 594.854 442.848 594.601 442.848 594.289C442.848 593.977 442.409 593.724 441.867 593.724C441.325 593.724 440.885 593.977 440.885 594.289C440.885 594.601 441.325 594.854 441.867 594.854Z" fill="#E8D7A5"/>
<path d="M435.33 591.101C435.873 591.101 436.312 590.848 436.312 590.536C436.312 590.224 435.873 589.972 435.33 589.972C434.788 589.972 434.349 590.224 434.349 590.536C434.349 590.848 434.788 591.101 435.33 591.101Z" fill="#E8D7A5"/>
<path d="M568.677 566.175C568.677 566.297 568.677 566.418 568.677 566.547C568.438 568.906 565.944 571.029 562.046 572.58V596.984C562.094 598.014 561.724 599.022 561.019 599.785C560.313 600.549 559.328 601.006 558.28 601.058H532.258C531.21 601.006 530.225 600.549 529.519 599.785C528.814 599.022 528.444 598.014 528.492 596.984V571.615C525.823 570.185 524.165 568.448 523.969 566.554C523.969 566.426 523.969 566.297 523.969 566.175C523.969 561.172 533.974 557.162 546.327 557.162C558.68 557.162 568.692 561.193 568.692 566.175" fill="#C96928"/>
<path d="M576.588 566.175C576.556 566.895 576.377 567.601 576.062 568.252C575.748 568.903 575.303 569.485 574.756 569.964C573.569 571.061 572.196 571.947 570.699 572.58V596.984C570.701 597.65 570.565 598.309 570.299 598.921C570.08 599.519 569.688 600.04 569.171 600.421C568.654 600.802 568.035 601.026 567.391 601.066H544.327C542.488 601.066 540.997 599.243 540.997 596.991V571.615C538.474 570.1 536.969 568.213 536.969 566.175C536.969 563.316 539.878 560.779 544.422 559.127L542.873 557.612V557.448L546.69 557.212H547.839H554.434C555.205 557.169 555.983 557.147 556.775 557.147C561.375 557.072 565.945 557.885 570.226 559.542C574.131 561.186 576.581 563.545 576.581 566.161" fill="#C96928"/>
<path d="M568.678 566.912C568.678 569.421 566.133 571.694 562.032 573.345V597.005C562.079 598.036 561.71 599.043 561.004 599.807C560.298 600.57 559.314 601.028 558.266 601.08H532.258C531.21 601.028 530.225 600.57 529.519 599.807C528.814 599.043 528.444 598.036 528.492 597.005V572.359C525.641 570.843 523.955 568.963 523.955 566.912C523.947 566.793 523.947 566.673 523.955 566.554C524.471 561.744 534.265 557.941 546.283 557.941C558.302 557.941 568.147 561.779 568.634 566.583C568.634 566.704 568.634 566.826 568.634 566.947" fill="#E8D7A5"/>
<path d="M675.842 600.73C675.479 600.73 675.442 600.215 675.442 600.215C675.442 600.215 673.079 582.759 673.45 581.816C673.821 580.872 699 580.994 703.784 581.68C705.645 581.951 703.66 599.05 702.664 600.122C701.668 601.194 679.667 600.83 675.842 600.73Z" fill="#ED9B22"/>
<path d="M703.784 581.68C700.781 581.251 689.751 581.044 681.863 581.179C681.855 581.217 681.855 581.256 681.863 581.294C681.988 582.21 682.415 583.061 683.077 583.717C683.077 583.717 687.614 578.234 689.715 579.142C691.816 580.05 700.621 580.472 702.344 580.014C704.068 579.557 702.853 580.672 703.799 581.68C704.744 582.688 701.915 595.076 699.96 597.349C698.091 599.493 683.513 600.53 675.319 599.186L675.457 600.215C675.457 600.215 675.457 600.715 675.857 600.73C679.681 600.858 701.77 601.109 702.679 600.122C703.588 599.136 705.645 581.951 703.784 581.68Z" fill="#C26028"/>
<path d="M673.901 587.791C673.901 587.791 674.163 582.959 675.842 582.859C677.522 582.759 677.704 586.19 681.157 584.882C684.611 583.574 683.338 581.651 687.701 582.959C692.063 584.267 692.74 586.533 696.099 584.575C699.458 582.616 701.036 582.152 702.155 583.86C703.275 585.568 703.464 589.114 705.231 588.106C706.998 587.098 707.565 577.805 704.206 576.49C700.847 575.175 674.555 573.867 672.04 576.09C669.524 578.313 670.266 587.963 673.901 587.791Z" fill="#E7D6A4"/>
<path d="M688.981 570.95C688.981 570.95 688.159 566.983 692.005 565.396C692.005 565.396 693.554 565.461 692.376 566.44C691.198 567.419 690.02 567.598 689.708 570.729C689.395 573.86 688.981 570.95 688.981 570.95Z" fill="#78AC42"/>
<path d="M688.981 579.035C691.49 579.035 693.525 577.035 693.525 574.567C693.525 572.1 691.49 570.1 688.981 570.1C686.471 570.1 684.436 572.1 684.436 574.567C684.436 577.035 686.471 579.035 688.981 579.035Z" fill="#9B2228"/>
<path d="M741.36 600.737C741.025 600.737 740.989 600.265 740.989 600.265C740.989 600.265 738.808 584.074 739.142 583.202C739.477 582.33 762.823 582.437 767.266 583.081C768.989 583.331 767.149 599.178 766.226 600.179C765.303 601.18 744.908 600.83 741.36 600.737Z" fill="#ED9B22"/>
<path d="M767.266 583.081C764.481 582.681 754.258 582.488 746.907 582.616C746.897 582.651 746.897 582.688 746.907 582.723C747.022 583.572 747.415 584.36 748.027 584.968C748.027 584.968 752.244 579.878 754.185 580.722C756.127 581.565 764.299 581.959 765.899 581.537C767.498 581.115 766.371 582.144 767.237 583.081C768.102 584.017 765.492 595.497 763.674 597.606C761.951 599.607 748.405 600.551 740.836 599.307C740.916 599.908 740.96 600.265 740.96 600.265C740.96 600.265 740.96 600.73 741.331 600.737C744.879 600.858 765.324 601.087 766.197 600.179C767.069 599.271 768.989 583.331 767.266 583.081Z" fill="#C26028"/>
<path d="M739.557 588.742C739.557 588.742 739.804 584.267 741.36 584.174C742.916 584.082 743.09 587.262 746.289 586.047C749.488 584.832 748.274 583.045 752.339 584.267C756.403 585.49 757.007 587.541 760.118 585.761C763.23 583.981 764.699 583.517 765.739 585.111C766.778 586.705 766.946 589.979 768.589 589.042C770.232 588.106 770.77 579.492 767.636 578.277C764.503 577.062 740.145 575.84 737.826 577.898C735.507 579.957 736.19 588.928 739.557 588.742Z" fill="#E7D6A4"/>
<path d="M753.538 573.131C753.538 573.131 752.811 569.456 756.345 567.984C756.345 567.984 757.799 568.041 756.694 568.942C755.589 569.842 754.513 570.021 754.215 572.902C753.916 575.783 753.538 573.131 753.538 573.131Z" fill="#78AC42"/>
<path d="M753.538 580.629C755.867 580.629 757.755 578.773 757.755 576.483C757.755 574.193 755.867 572.337 753.538 572.337C751.209 572.337 749.321 574.193 749.321 576.483C749.321 578.773 751.209 580.629 753.538 580.629Z" fill="#9B2228"/>
<path d="M701.581 601.023C701.028 601.023 700.978 600.244 700.978 600.244C700.978 600.244 697.342 573.688 697.938 572.259C698.535 570.829 736.801 571 744.079 572.051C746.915 572.459 743.89 598.499 742.378 600.101C740.996 601.594 707.398 601.216 701.581 601.023Z" fill="#ED9B22"/>
<path d="M744.05 572.051C739.484 571.394 722.71 571.079 710.706 571.286C710.691 571.345 710.691 571.406 710.706 571.465C711.273 574.153 712.553 575.146 712.553 575.146C712.553 575.146 719.46 566.804 722.652 568.184C725.844 569.564 739.237 570.207 741.861 569.514C744.486 568.82 742.639 570.514 744.043 572.051C745.446 573.588 741.185 592.423 738.226 595.876C735.39 599.164 713.214 600.715 700.752 598.671C700.883 599.664 700.963 600.243 700.963 600.243C700.963 600.243 701.014 601.001 701.566 601.023C707.383 601.216 740.982 601.594 742.363 600.1C743.89 598.464 746.915 572.459 744.05 572.051Z" fill="#C26028"/>
<path d="M698.629 581.344C698.629 581.344 699.029 573.996 701.581 573.845C704.133 573.695 704.417 578.913 709.666 576.912C714.916 574.911 712.924 572.001 719.591 573.996C726.258 575.99 727.247 579.371 732.351 576.455C737.455 573.538 739.869 572.766 741.571 575.375C743.272 577.984 743.556 583.367 746.253 581.809C748.951 580.25 749.794 566.14 744.69 564.145C739.586 562.151 699.611 560.157 695.764 563.531C691.918 566.905 693.096 581.651 698.629 581.344Z" fill="#E7D6A4"/>
<path d="M721.561 555.732C721.561 555.732 720.311 549.699 726.164 547.283C726.164 547.283 728.527 547.376 726.731 548.863C724.935 550.349 723.146 550.628 722.674 555.36C722.201 560.092 721.561 555.732 721.561 555.732Z" fill="#78AC42"/>
<path d="M721.561 568.027C725.38 568.027 728.476 564.983 728.476 561.229C728.476 557.475 725.38 554.431 721.561 554.431C717.742 554.431 714.647 557.475 714.647 561.229C714.647 564.983 717.742 568.027 721.561 568.027Z" fill="#9B2228"/>
<path d="M793.535 331.03H373.223V605.147H793.535V331.03Z" stroke="#E8D7A5" stroke-width="14" stroke-miterlimit="10"/>
<path d="M636.158 381.146H588.505C582.688 381.146 577.962 386.257 577.962 392.583V400.381C577.919 401.308 578.25 402.213 578.883 402.9C579.517 403.587 580.401 404 581.343 404.048H581.809V415.078C581.809 418.552 584.404 421.368 587.625 421.368H637.067C640.273 421.368 642.884 418.552 642.884 415.078V404.027H643.342C644.284 403.979 645.169 403.566 645.804 402.879C646.439 402.193 646.771 401.287 646.73 400.36V392.561C646.708 386.257 641.982 381.146 636.158 381.146Z" fill="#E8D7A5"/>
<path d="M587.618 421.347H637.06C640.266 421.347 642.876 418.53 642.876 415.056V404.027H581.801V415.056C581.809 418.552 584.404 421.347 587.618 421.347Z" fill="#C96928"/>
<path d="M612.332 421.347H637.052C640.259 421.347 642.869 418.53 642.869 415.056V404.027H612.332V421.347Z" fill="#C96928"/>
<path d="M592.293 397.915C593.391 397.915 594.285 390.402 594.285 381.146H590.294C590.294 390.402 591.188 397.915 592.293 397.915Z" fill="#C96928"/>
<path d="M612.332 397.915C613.437 397.915 614.331 390.402 614.331 381.146H610.339C610.339 390.402 611.234 397.915 612.332 397.915Z" fill="#C96928"/>
<path d="M632.377 397.915C633.482 397.915 634.377 390.402 634.377 381.146H630.378C630.378 390.402 631.272 397.915 632.377 397.915Z" fill="#C96928"/>
<path d="M740.022 387.3H731.908C717.279 387.3 705.42 400.167 705.42 415.979C705.42 419.624 708.147 422.583 711.52 422.583H760.409C763.776 422.583 766.51 419.624 766.51 415.979C766.51 400.138 754.651 387.3 740.022 387.3Z" fill="#ED9B21"/>
<path d="M726.505 393.691C727.634 393.691 728.549 392.938 728.549 392.011C728.549 391.083 727.634 390.331 726.505 390.331C725.377 390.331 724.462 391.083 724.462 392.011C724.462 392.938 725.377 393.691 726.505 393.691Z" fill="#E8D7A5"/>
<path d="M735.965 393.691C737.093 393.691 738.008 392.938 738.008 392.011C738.008 391.083 737.093 390.331 735.965 390.331C734.836 390.331 733.922 391.083 733.922 392.011C733.922 392.938 734.836 393.691 735.965 393.691Z" fill="#E8D7A5"/>
<path d="M745.417 393.691C746.545 393.691 747.46 392.938 747.46 392.011C747.46 391.083 746.545 390.331 745.417 390.331C744.288 390.331 743.374 391.083 743.374 392.011C743.374 392.938 744.288 393.691 745.417 393.691Z" fill="#E8D7A5"/>
<path d="M721.452 403.619C722.581 403.619 723.495 402.867 723.495 401.94C723.495 401.012 722.581 400.26 721.452 400.26C720.324 400.26 719.409 401.012 719.409 401.94C719.409 402.867 720.324 403.619 721.452 403.619Z" fill="#E8D7A5"/>
<path d="M730.912 403.619C732.04 403.619 732.955 402.867 732.955 401.94C732.955 401.012 732.04 400.26 730.912 400.26C729.783 400.26 728.869 401.012 728.869 401.94C728.869 402.867 729.783 403.619 730.912 403.619Z" fill="#E8D7A5"/>
<path d="M740.364 403.619C741.492 403.619 742.407 402.867 742.407 401.94C742.407 401.012 741.492 400.26 740.364 400.26C739.235 400.26 738.32 401.012 738.32 401.94C738.32 402.867 739.235 403.619 740.364 403.619Z" fill="#E8D7A5"/>
<path d="M750.579 403.619C751.708 403.619 752.622 402.867 752.622 401.94C752.622 401.012 751.708 400.26 750.579 400.26C749.451 400.26 748.536 401.012 748.536 401.94C748.536 402.867 749.451 403.619 750.579 403.619Z" fill="#E8D7A5"/>
<path d="M705.609 417.615C705.878 418.979 706.609 420.212 707.682 421.114C708.756 422.017 710.109 422.534 711.52 422.583H760.409C761.82 422.533 763.173 422.015 764.246 421.113C765.319 420.211 766.051 418.978 766.321 417.615H705.609Z" fill="#C96928"/>
<path d="M515.484 408.48C519.195 408.48 522.202 405.222 522.202 401.203C522.202 397.184 519.195 393.927 515.484 393.927C511.774 393.927 508.766 397.184 508.766 401.203C508.766 405.222 511.774 408.48 515.484 408.48Z" fill="#9B2227"/>
<path d="M515.542 393.927V408.48C519.229 408.48 522.202 405.199 522.202 401.203C522.202 397.208 519.229 393.962 515.542 393.927Z" fill="#A44A3F"/>
<path d="M499.117 399.902H532.243V418.109C532.243 419.005 531.881 419.865 531.236 420.499C530.591 421.133 529.716 421.49 528.804 421.49H502.557C501.644 421.49 500.77 421.133 500.125 420.499C499.48 419.865 499.117 419.005 499.117 418.109V399.902Z" fill="#C96928"/>
<path d="M532.243 408.952H499.117V414.956H532.243V408.952Z" fill="#F19B79"/>
<path d="M499.081 399.902H532.243V404.456C532.243 404.456 530.462 405.485 528.681 402.819C526.899 400.152 525.329 403.734 524.711 404.456C524.093 405.178 521.919 405.742 521.512 403.812C521.206 402.383 520.901 401.418 519.905 401.361C519.585 401.353 519.269 401.433 518.993 401.593C518.717 401.752 518.491 401.983 518.341 402.261C518.014 402.826 517.491 403.534 516.982 403.291C516.255 402.962 515.528 401.439 514.408 402.047C514.237 402.152 514.09 402.291 513.979 402.457C513.867 402.622 513.793 402.809 513.761 403.005C513.601 403.862 513.099 405.635 511.747 405.442C510.394 405.249 509.893 403.355 509.762 402.54C509.731 402.34 509.647 402.151 509.52 401.992C509.393 401.833 509.225 401.709 509.035 401.632C508.613 401.475 508.017 401.554 507.304 402.476C505.85 404.327 504.709 404.241 503.669 403.19C502.782 402.333 502.527 401.761 501.728 401.961C501.405 402.046 501.123 402.238 500.928 402.504C500.346 403.219 498.965 404.892 498.79 403.519C498.715 402.306 498.813 401.089 499.081 399.902Z" fill="#E8D7A5"/>
<path d="M428.139 408.48C431.85 408.48 434.858 405.222 434.858 401.203C434.858 397.184 431.85 393.927 428.139 393.927C424.429 393.927 421.421 397.184 421.421 401.203C421.421 405.222 424.429 408.48 428.139 408.48Z" fill="#9B2227"/>
<path d="M428.198 393.927V408.48C431.884 408.48 434.858 405.199 434.858 401.203C434.858 397.208 431.884 393.962 428.198 393.927Z" fill="#A44A3F"/>
<path d="M411.773 399.902H444.899V418.109C444.899 419.005 444.536 419.865 443.891 420.499C443.247 421.133 442.372 421.49 441.46 421.49H415.212C414.3 421.49 413.425 421.133 412.78 420.499C412.135 419.865 411.773 419.005 411.773 418.109V399.902Z" fill="#C96928"/>
<path d="M444.892 408.952H411.766V414.956H444.892V408.952Z" fill="#F19B79"/>
<path d="M411.729 399.902H444.892V404.456C444.892 404.456 443.117 405.485 441.336 402.819C439.555 400.152 437.984 403.734 437.366 404.456C436.748 405.178 434.567 405.742 434.16 403.812C433.854 402.383 433.556 401.418 432.56 401.361C432.239 401.353 431.923 401.434 431.646 401.593C431.368 401.752 431.141 401.983 430.99 402.261C430.67 402.826 430.139 403.534 429.637 403.291C428.91 402.962 428.183 401.439 427.063 402.047C426.891 402.151 426.744 402.29 426.632 402.455C426.521 402.621 426.447 402.808 426.416 403.005C426.249 403.862 425.747 405.635 424.395 405.442C423.043 405.249 422.548 403.355 422.41 402.54C422.382 402.339 422.3 402.149 422.172 401.989C422.044 401.83 421.875 401.706 421.683 401.632C421.261 401.475 420.665 401.554 419.953 402.476C418.498 404.327 417.357 404.241 416.317 403.19C415.43 402.333 415.176 401.761 414.376 401.961C414.051 402.045 413.766 402.237 413.569 402.504C412.994 403.219 411.606 404.892 411.431 403.519C411.358 402.306 411.459 401.088 411.729 399.902Z" fill="#E8D7A5"/>
<path d="M471.379 393.998C479.242 393.998 485.616 387.095 485.616 378.579C485.616 370.064 479.242 363.161 471.379 363.161C463.517 363.161 457.143 370.064 457.143 378.579C457.143 387.095 463.517 393.998 471.379 393.998Z" fill="#9B2227"/>
<path d="M471.496 363.161V393.991C479.304 393.926 485.616 387.05 485.616 378.579C485.616 370.109 479.304 363.232 471.496 363.161Z" fill="#A44A3F"/>
<path d="M436.69 375.813H506.89V418.187C506.89 419.084 506.528 419.944 505.883 420.578C505.238 421.212 504.363 421.568 503.451 421.568H440.129C439.217 421.568 438.342 421.212 437.697 420.578C437.052 419.944 436.69 419.084 436.69 418.187V375.813Z" fill="#C96928"/>
<path d="M506.89 394.992H436.69V407.708H506.89V394.992Z" fill="#F19B79"/>
<path d="M436.61 375.813H506.89V385.463C506.89 385.463 503.116 387.608 499.343 382.003C495.569 376.399 492.239 383.933 490.938 385.463C489.636 386.993 485.005 388.194 484.147 384.098C483.5 381.024 482.853 379.03 480.751 378.915C480.071 378.894 479.398 379.061 478.809 379.397C478.22 379.733 477.74 380.225 477.421 380.817C476.738 382.018 475.625 383.512 474.549 383.004C473.095 382.289 471.437 379.08 469.096 380.366C468.738 380.587 468.432 380.881 468.201 381.229C467.97 381.577 467.819 381.971 467.758 382.382C467.417 384.212 466.355 387.972 463.483 387.557C460.611 387.143 459.564 383.126 459.281 381.41C459.22 380.989 459.05 380.59 458.786 380.253C458.522 379.916 458.174 379.652 457.776 379.487C456.881 379.158 455.594 379.316 454.14 381.274C451.123 385.191 448.643 385.006 446.375 382.825C444.492 381.003 443.954 379.816 442.267 380.202C441.552 380.375 440.923 380.793 440.493 381.381C439.264 382.983 436.327 386.442 435.963 383.526C435.563 380.309 436.61 375.813 436.61 375.813Z" fill="#E8D7A5"/>
<path d="M793.535 421.518H373.223V433.52H793.535V421.518Z" fill="#E8D7A5"/>
<path d="M576.232 493.514V510.942H571.833C571.461 510.929 571.103 510.793 570.819 510.556C570.536 510.318 570.342 509.993 570.27 509.634L566.409 493.908L576.232 493.514Z" fill="#78AC42"/>
<path d="M576.232 493.514V510.942H580.638C581.011 510.929 581.368 510.793 581.652 510.556C581.935 510.318 582.129 509.993 582.201 509.634L586.062 493.908L576.232 493.514Z" fill="#78AC42"/>
<path d="M581.278 493.722L578.828 510.942H580.638C581.011 510.929 581.368 510.793 581.652 510.556C581.935 510.318 582.129 509.993 582.201 509.634L586.062 493.908L581.278 493.722Z" fill="#78AC42"/>
<path d="M571.193 493.722L573.643 510.942H571.833C571.461 510.929 571.103 510.793 570.819 510.556C570.536 510.318 570.342 509.993 570.27 509.634L566.409 493.908L571.193 493.722Z" fill="#C9D070"/>
<path d="M583.903 486.245C583.18 486.245 582.465 486.381 581.794 486.645C581.407 485.527 580.671 484.558 579.69 483.875C578.709 483.193 577.534 482.833 576.332 482.846C575.131 482.86 573.965 483.246 573 483.95C572.035 484.654 571.321 485.64 570.961 486.767C570.212 486.423 569.395 486.244 568.568 486.245C567.634 486.238 566.713 486.457 565.884 486.882C565.056 487.307 564.347 487.926 563.819 488.683C563.291 489.441 562.96 490.314 562.855 491.227C562.75 492.14 562.875 493.064 563.218 493.918C563.562 494.772 564.113 495.531 564.824 496.126C565.535 496.722 566.384 497.137 567.296 497.335C568.208 497.533 569.156 497.508 570.056 497.262C570.956 497.016 571.781 496.556 572.458 495.923C573.488 496.884 574.845 497.432 576.264 497.46C577.683 497.487 579.062 496.993 580.129 496.074C580.823 496.672 581.655 497.097 582.552 497.31C583.45 497.524 584.387 497.52 585.282 497.299C586.178 497.078 587.006 496.647 587.695 496.042C588.384 495.438 588.913 494.678 589.238 493.828C589.562 492.978 589.672 492.063 589.558 491.162C589.443 490.261 589.109 489.401 588.582 488.655C588.055 487.91 587.352 487.301 586.533 486.881C585.714 486.461 584.804 486.243 583.881 486.245H583.903Z" fill="#C96928"/>
<path d="M568.568 486.245C569.291 486.245 570.006 486.381 570.677 486.645C571.06 485.537 571.786 484.574 572.753 483.892C573.721 483.21 574.881 482.843 576.072 482.842H576.232V497.446H576.094C574.713 497.449 573.379 496.956 572.342 496.059C571.648 496.658 570.816 497.082 569.919 497.296C569.021 497.509 568.084 497.505 567.189 497.285C566.293 497.064 565.465 496.632 564.776 496.028C564.087 495.423 563.558 494.663 563.233 493.813C562.909 492.963 562.799 492.049 562.913 491.148C563.028 490.247 563.362 489.387 563.889 488.641C564.416 487.895 565.119 487.286 565.938 486.866C566.757 486.447 567.667 486.228 568.59 486.23L568.568 486.245Z" fill="#ED9B21"/>
<path d="M621.449 493.736V511.163H617.043C616.671 511.149 616.314 511.013 616.031 510.776C615.747 510.538 615.553 510.214 615.48 509.855L611.619 494.129L621.449 493.736Z" fill="#78AC42"/>
<path d="M621.449 493.736V511.163H625.812C626.184 511.151 626.541 511.015 626.825 510.777C627.109 510.54 627.303 510.215 627.375 509.855L631.243 494.129L621.449 493.736Z" fill="#78AC42"/>
<path d="M626.488 493.943L624.038 511.163H625.848C626.221 511.151 626.578 511.015 626.862 510.777C627.146 510.54 627.339 510.215 627.411 509.855L631.279 494.129L626.488 493.943Z" fill="#78AC42"/>
<path d="M616.411 493.943L618.861 511.163H617.043C616.671 511.149 616.314 511.013 616.031 510.776C615.747 510.538 615.553 510.214 615.48 509.855L611.619 494.129L616.411 493.943Z" fill="#C9D070"/>
<path d="M629.12 486.459C628.397 486.458 627.682 486.594 627.011 486.86C626.626 485.739 625.89 484.766 624.908 484.082C623.926 483.398 622.75 483.036 621.546 483.05C620.343 483.063 619.175 483.451 618.209 484.157C617.243 484.863 616.53 485.852 616.171 486.981C615.422 486.636 614.605 486.457 613.778 486.459C612.845 486.457 611.926 486.68 611.101 487.108C610.276 487.536 609.57 488.157 609.045 488.916C608.521 489.674 608.193 490.548 608.092 491.459C607.99 492.371 608.117 493.294 608.463 494.146C608.808 494.998 609.36 495.754 610.071 496.348C610.782 496.942 611.631 497.355 612.542 497.551C613.454 497.748 614.4 497.722 615.299 497.476C616.198 497.229 617.021 496.77 617.697 496.138C618.726 497.098 620.082 497.646 621.5 497.673C622.917 497.701 624.295 497.207 625.361 496.288C626.055 496.887 626.886 497.311 627.783 497.524C628.68 497.738 629.617 497.734 630.513 497.514C631.408 497.293 632.236 496.862 632.925 496.258C633.614 495.654 634.143 494.895 634.468 494.045C634.793 493.196 634.904 492.282 634.79 491.381C634.677 490.48 634.343 489.62 633.817 488.874C633.291 488.128 632.589 487.519 631.771 487.098C630.953 486.678 630.043 486.458 629.12 486.459Z" fill="#C96928"/>
<path d="M613.778 486.459C614.501 486.459 615.217 486.595 615.887 486.86C616.27 485.751 616.996 484.788 617.963 484.106C618.931 483.424 620.091 483.057 621.282 483.057H621.449V497.66H621.282C619.901 497.663 618.567 497.17 617.53 496.274C616.837 496.876 616.006 497.304 615.107 497.521C614.209 497.737 613.27 497.736 612.372 497.516C611.475 497.297 610.645 496.866 609.954 496.261C609.263 495.657 608.732 494.896 608.406 494.045C608.081 493.193 607.971 492.277 608.085 491.374C608.2 490.472 608.536 489.61 609.065 488.864C609.594 488.118 610.299 487.509 611.12 487.09C611.941 486.671 612.853 486.455 613.778 486.459Z" fill="#ED9B21"/>
<path d="M599.651 482.885V511.278H592.482C591.873 511.258 591.288 511.035 590.824 510.645C590.36 510.255 590.045 509.722 589.93 509.133L583.641 483.6L599.651 482.885Z" fill="#78AC42"/>
<path d="M599.651 482.885V511.278H606.828C607.436 511.257 608.02 511.034 608.483 510.644C608.945 510.254 609.259 509.722 609.372 509.133L615.669 483.6L599.651 482.885Z" fill="#78AC42"/>
<path d="M607.867 483.257L603.876 511.306H606.828C607.436 511.286 608.02 511.062 608.483 510.673C608.945 510.283 609.259 509.75 609.372 509.162L615.669 483.6L607.867 483.257Z" fill="#78AC42"/>
<path d="M591.442 483.257L595.434 511.306H592.482C591.873 511.286 591.288 511.063 590.824 510.673C590.36 510.284 590.045 509.751 589.93 509.162L583.641 483.6L591.442 483.257Z" fill="#C9D070"/>
<path d="M612.15 471.069C610.974 471.07 609.81 471.291 608.718 471.72C608.087 469.897 606.886 468.316 605.287 467.204C603.688 466.092 601.772 465.505 599.814 465.527C597.855 465.549 595.954 466.179 594.381 467.327C592.808 468.476 591.645 470.083 591.057 471.92C589.524 471.22 587.826 470.945 586.146 471.123C584.465 471.301 582.866 471.927 581.52 472.931C580.174 473.936 579.132 475.282 578.505 476.826C577.879 478.369 577.693 480.051 577.966 481.691C578.239 483.331 578.962 484.866 580.056 486.133C581.15 487.399 582.575 488.348 584.177 488.878C585.778 489.408 587.497 489.499 589.147 489.141C590.798 488.783 592.318 487.989 593.544 486.845C595.22 488.413 597.432 489.307 599.745 489.352C602.058 489.397 604.304 488.59 606.042 487.088C607.173 488.059 608.527 488.745 609.987 489.089C611.446 489.432 612.969 489.423 614.425 489.062C615.88 488.701 617.225 487.999 618.344 487.015C619.463 486.032 620.323 484.796 620.851 483.414C621.378 482.033 621.557 480.546 621.373 479.081C621.188 477.617 620.645 476.218 619.791 475.004C618.936 473.791 617.796 472.799 616.466 472.114C615.137 471.429 613.658 471.07 612.157 471.069H612.15Z" fill="#C96928"/>
<path d="M587.16 471.069C588.336 471.07 589.5 471.291 590.592 471.72C591.217 469.919 592.397 468.355 593.969 467.246C595.541 466.136 597.425 465.536 599.36 465.529H599.63V489.318H599.36C597.112 489.321 594.94 488.515 593.253 487.052C592.122 488.023 590.768 488.709 589.309 489.053C587.849 489.397 586.326 489.388 584.87 489.026C583.415 488.665 582.07 487.963 580.951 486.979C579.832 485.996 578.972 484.76 578.444 483.379C577.917 481.997 577.738 480.51 577.922 479.045C578.107 477.581 578.65 476.182 579.504 474.969C580.359 473.755 581.5 472.764 582.829 472.078C584.159 471.393 585.637 471.034 587.138 471.034L587.16 471.069Z" fill="#ED9B21"/>
<path d="M793.535 511.492H373.223V523.494H793.535V511.492Z" fill="#E8D7A5"/>
</svg>
