<svg width="1360" height="1207" viewBox="0 0 1360 1207" fill="none" xmlns="http://www.w3.org/2000/svg">
<path d="M270.587 228.561C565.1 234.561 860.625 242.375 1154.86 255.639C1173.25 256.463 1196.01 251.556 1197.37 276.235L1176.23 957.81C1176.09 966.044 1170.84 972.37 1163.11 974.614C882.018 971.201 560.046 965.072 292.482 950.154C263.92 948.551 206.686 954.242 183.286 946.379C180.774 945.535 175.873 942.887 174.312 940.869C167.835 932.525 171.722 891.713 171.966 878.385C175.56 681.699 180.014 484.605 188.126 288.065C188.626 275.898 189.208 254.405 191.219 243.287C191.982 239.083 193.299 232.128 197.212 229.831C205.345 225.061 270.597 228.578 270.597 228.578L270.587 228.561ZM492.231 261.37L215.254 253.375L196.897 924.305L477.928 928.651L492.225 261.371L492.231 261.37ZM490.207 930.51L828.918 939.202L854.138 272.193L506.942 263.319L490.211 930.503L490.207 930.51ZM1170.11 280.303L869.649 274.383L843.617 941.227L1150.92 948.791L1170.11 280.303Z" fill="#676767"/>
<path d="M1170.1 280.303L1150.91 948.791L843.616 941.227L869.647 274.383L1170.1 280.303ZM1144.36 293.832C1136.11 298.562 1140.13 311.8 1150.37 310.905C1167.16 309.433 1160.7 284.458 1144.36 293.832ZM969.475 340.029C800.932 401.946 912.021 666.69 1079.68 577.858C1218 504.579 1124.03 283.251 969.475 340.029ZM953.118 698.662C951.033 687.191 956.104 634.541 949.965 628.878C947.018 626.162 886.501 626.259 882.874 629.378C877.376 634.11 880.872 688.592 881.547 699.31C885.306 703.129 950.338 702.459 953.118 698.662ZM971.227 703.859C983.054 702.972 1034.84 707.663 1041.05 700.677C1043.37 698.077 1043.06 633.774 1040.02 631.167C1030.33 630.649 973.944 628.164 970.49 632.199C967.59 635.588 970.652 694.473 971.227 703.859ZM1062.91 628.585C1059.1 630.54 1059.54 669.153 1059.8 676.086C1060.04 682.531 1058.99 697.221 1063.32 701.286C1065.78 703.59 1127.74 703.037 1130.35 700.831C1132.2 699.266 1132.72 697.028 1133.06 694.739C1133.93 688.766 1133.72 633.351 1131.68 630.899C1128.84 627.483 1067 626.492 1062.92 628.591L1062.91 628.585ZM881.789 793.154C893.163 791.797 946.038 796.288 951.519 790.106C954.96 786.227 949.845 736.9 952.748 727.823L950.416 720.716C940.376 718.623 885.736 716.531 881.003 721.671C878.215 724.703 878.196 789.701 881.789 793.154ZM1045.25 789.993C1042.59 778.235 1048.6 726.247 1042.1 720.227C1039.64 717.943 977.94 718.202 975.033 720.679C971.07 724.061 971.116 787.461 973.727 790.624C977.585 795.304 1042.34 793.92 1045.25 789.993ZM1061.24 720.697C1058.45 722.398 1059.11 724.421 1058.99 727.048C1058.34 742.644 1057.49 771.771 1059.25 786.417C1059.56 788.964 1059.21 791.752 1061.45 793.654C1073.58 792.898 1123.74 797.365 1130.39 790.282C1132.9 787.603 1132.58 723.526 1129.4 720.798C1118.6 721.437 1067.07 717.138 1061.24 720.691L1061.24 720.697ZM877.537 829.997C872.158 835.075 875.211 841.023 882.07 840.48C956.302 835.297 1040.61 848.301 1113.6 841.902C1124.25 840.969 1133.87 834.382 1120.37 830.914L877.532 829.998L877.537 829.997ZM878.332 869.613L1111.58 872.992C1124.86 871.897 1127.27 864.206 1112.49 862.171C1043.46 852.667 956.655 866.845 885.746 858.957C879.464 857.266 874.225 865.802 878.332 869.613ZM1126.7 917.494C1116.32 921.574 1118.88 938.393 1128.66 937.897C1148.9 936.867 1142.37 911.333 1126.7 917.494Z" fill="#7E7E7E"/>
<path d="M490.207 930.511L506.937 263.326L854.134 272.201L828.914 939.209L490.202 930.518L490.207 930.511ZM583.082 299.483C483.938 324.036 525.44 478.851 628.341 443.332C713.031 414.094 677.155 276.192 583.082 299.483ZM756.383 293.242C748.393 293.389 708.97 291.255 705.619 295.83L707.969 405.478C724.786 405.899 742.385 407.793 758.801 403.051L756.383 293.242ZM825.182 295.928C816.057 296.516 779.821 292.262 775.805 300.209L776.762 408.166C790.032 406.657 811.029 411.172 823.187 408.748C825.016 408.384 826.17 408.13 826.676 406.084L825.182 295.928ZM703.288 428.741C579.007 468.896 638.482 659.896 767.762 615.391C883.787 575.452 824.741 389.498 703.288 428.741ZM556.469 474.995C517.64 489.377 528.165 550.595 569.009 548.658C630.572 545.738 610.132 455.116 556.469 474.995ZM550.752 561.122C509.518 580.298 536.572 646.642 580.599 631.121C629.147 614.006 600.587 537.942 550.752 561.122ZM664.958 625.93C644.685 634.397 649.678 667.103 668.368 668.414C711.96 671.473 695.905 613.008 664.958 625.93ZM720.392 631.75C695.944 643.563 714.475 686.979 744.165 669.377C764.35 657.41 745.981 619.391 720.392 631.75ZM525.285 898.449L805.217 905.471L812.97 693.4L529.335 686.023L525.285 898.449ZM799.62 636.333L769.298 637.206C767.422 639.556 767.765 666.745 770.044 668.785C771.17 669.789 799.261 670.043 800.248 668.896C800.545 658.133 803.123 646.875 799.612 636.329L799.62 636.333Z" fill="#7E7E7E"/>
<path d="M492.231 261.37L477.933 928.65L196.903 924.303L215.259 253.373L492.236 261.369L492.231 261.37ZM229.343 266.868C223.33 270.611 228.119 286.605 238.297 285.696C256.173 284.101 247.989 255.27 229.343 266.868ZM461.457 280.362C410.465 279.305 359.199 274.478 308.194 274.044C304.174 274.01 286.699 271.658 286.896 277.747C287.062 282.72 292.756 281.475 295.748 281.856C335.808 286.926 413.539 289.844 453.914 287.919C461.57 287.556 465.298 288.873 461.451 280.363L461.457 280.362ZM457.432 302.323L284.679 298.269L290.486 305.802L447.151 311.201C453.791 312.482 463.824 307.208 457.432 302.323ZM463.634 649.171L470.429 338.399L237.362 330.879L229.455 641.882L463.639 649.163L463.634 649.171ZM246.466 677.705C209.37 692.286 206.738 744.74 237.647 767.434C265.195 787.662 309.131 774.978 318.083 741.077C329.615 697.382 288.642 661.123 246.466 677.705ZM373.597 715.392C370.878 713.537 378.433 686.516 365.276 694.048C359.454 697.378 363.509 710.047 363.046 710.788C360.313 715.2 341.866 708.935 337.736 713.118C334.691 716.204 332.276 750.172 335.467 752.493C338.021 754.345 360.713 748.356 360.647 759.605L357.649 878.188C362.651 889.929 366.796 885.731 368.259 875.049C373.3 838.198 367.188 793.719 371.512 756.013C374.26 752.862 391.06 759.95 396.847 753.634C398.014 752.365 400.531 722.06 400.076 719.297C398.84 711.815 375.965 717.006 373.597 715.392ZM434.971 696.241C428.703 696.664 427.104 699.562 426.479 705.262C425.206 716.856 426.903 787.333 424.11 790.556C421.595 793.468 404.583 788.111 401.03 792.347C399.918 793.671 397.563 824.999 397.868 826.761C399.408 835.533 420.99 830.506 422.087 831.18C425.789 833.454 418.536 886.035 424.089 889.578C425.62 890.555 429.902 888.03 431.367 885.525C435.236 878.883 432.968 845.375 432.639 835.808L462.399 833.258C459.813 825.021 468.951 799.014 460.637 794.974C454.526 792.004 438.241 797.304 435.621 789.155C434.12 776.963 440.851 699.996 434.973 696.247L434.971 696.241ZM236.137 795.066C233.359 796.684 234.206 799.055 233.948 801.447C231.818 821.372 234.662 847.953 234.132 868.501L330.194 870.662C332.52 860.439 336.272 803.002 330.945 798.338C327.374 795.211 247.863 796.896 236.137 795.066ZM215.723 887.216C204.576 893.359 212.77 914.918 225.341 910.653C239.587 905.816 232.391 878.028 215.723 887.216Z" fill="#7E7E7E"/>
<path d="M969.475 340.029C1124.03 283.251 1218 504.579 1079.68 577.858C912.021 666.689 800.931 401.94 969.475 340.029ZM983.347 348.513C831.424 391.541 901.918 624.643 1052.77 576.438C1197.68 530.131 1132.64 306.227 983.347 348.513Z" fill="#676767"/>
<path d="M877.537 829.997L1120.37 830.913C1133.87 834.381 1124.25 840.969 1113.61 841.901C1040.61 848.295 956.302 835.297 882.076 840.478C875.217 841.022 872.164 835.074 877.543 829.995L877.537 829.997Z" fill="#676767"/>
<path d="M878.332 869.612C874.231 865.8 879.47 857.265 885.746 858.957C956.654 866.839 1043.45 852.668 1112.49 862.171C1127.27 864.206 1124.87 871.895 1111.58 872.991L878.332 869.612Z" fill="#676767"/>
<path d="M881.79 793.154C878.197 789.701 878.215 724.703 881.004 721.671C885.736 716.531 940.377 718.623 950.417 720.716L952.748 727.823C949.846 736.9 954.961 786.227 951.519 790.106C946.04 796.294 893.163 791.798 881.79 793.154ZM941.309 727.649C923.684 730.332 905.367 725.841 888.053 730.831C891.117 748.434 885.286 766.79 891.321 783.907L942.798 783.794L941.315 727.648L941.309 727.649Z" fill="#676767"/>
<path d="M1062.92 628.584C1067 626.486 1128.84 627.477 1131.68 630.893C1133.72 633.35 1133.93 688.76 1133.06 694.733C1132.73 697.02 1132.2 699.259 1130.35 700.825C1127.74 703.036 1065.78 703.59 1063.32 701.28C1058.99 697.216 1060.04 682.526 1059.8 676.079C1059.54 669.147 1059.1 630.532 1062.91 628.579L1062.92 628.584ZM1122.45 637.983L1068.76 638.741L1069.59 692.606L1123.42 691.655L1122.44 637.984L1122.45 637.983Z" fill="#676767"/>
<path d="M953.118 698.662C950.333 702.46 885.306 703.129 881.547 699.31C880.873 688.592 877.377 634.11 882.875 629.378C886.501 626.259 947.018 626.162 949.966 628.878C956.109 634.534 951.032 687.185 953.118 698.662ZM944.591 691.507L942.723 637.66C940.327 635.746 892.069 636.394 890.045 638.663L890.737 692.334L944.591 691.507Z" fill="#676767"/>
<path d="M1045.25 789.993C1042.34 793.919 977.585 795.303 973.728 790.624C971.122 787.459 971.07 724.061 975.034 720.679C977.945 718.195 1039.64 717.943 1042.1 720.227C1048.6 726.246 1042.59 778.241 1045.25 789.993ZM1035.81 728.902L982.098 729.927L982.947 783.542L1036.74 782.841L1035.81 728.902Z" fill="#676767"/>
<path d="M1061.24 720.697C1067.07 717.138 1118.6 721.435 1129.4 720.804C1132.58 723.526 1132.91 787.609 1130.39 790.288C1123.74 797.371 1073.58 792.904 1061.45 793.659C1059.21 791.758 1059.56 788.964 1059.25 786.423C1057.49 771.782 1058.34 742.656 1059 727.054C1059.11 724.427 1058.46 722.402 1061.24 720.703L1061.24 720.697ZM1070.25 784.088L1121.64 783.05C1122.24 774.019 1125 734.652 1119.8 730.123C1117.57 728.177 1071.48 728.735 1069.2 731.41C1068.36 739.042 1067 781.179 1070.25 784.088Z" fill="#676767"/>
<path d="M971.227 703.859C970.645 694.469 967.584 635.583 970.491 632.199C973.94 628.171 1030.32 630.65 1040.02 631.167C1043.07 633.779 1043.37 698.075 1041.05 700.677C1034.84 707.658 983.054 702.966 971.227 703.859ZM1030.88 638.182C1021.81 642.441 984.616 636.138 979.809 641.768C978.964 649.532 977.192 691.195 980.863 694.458L1032.26 693.419C1034.19 691.13 1033.43 639.734 1030.88 638.18L1030.88 638.182Z" fill="#676767"/>
<path d="M1126.7 917.494C1142.37 911.333 1148.9 936.868 1128.66 937.897C1118.88 938.393 1116.32 921.579 1126.7 917.494Z" fill="#676767"/>
<path d="M1144.36 293.832C1160.7 284.458 1167.16 309.433 1150.38 310.905C1140.13 311.806 1136.12 298.566 1144.36 293.832Z" fill="#676767"/>
<path d="M525.285 898.448L529.335 686.023L812.97 693.399L805.217 905.471L525.285 898.448ZM799.012 892.971L802.892 703.554L538.366 695.39L534.254 886.972L799.006 892.972L799.012 892.971Z" fill="#676767"/>
<path d="M703.287 428.741C824.746 389.496 883.792 575.45 767.761 615.391C638.475 659.897 579.006 468.896 703.287 428.741ZM819.086 518.517C819.99 517.12 812.563 490.853 811.457 486.163C810.274 481.141 799.256 466.678 791.909 473.091C789.635 469.247 794.262 466.702 794.092 463.926C793.598 455.846 756.447 437.33 747.16 438.82C741.568 439.715 745.863 447.837 738.901 447.896C737.52 444.847 738.495 438.053 734.806 436.978C729.674 435.482 704.436 440.85 698.959 443.197C689.146 447.4 700.255 455.069 698.747 457.363C694.082 464.432 689.306 450.964 686.496 450.963C676.031 450.971 645.931 495.3 652.083 498.991C653.871 500.066 660.337 493.094 660.367 504.099C657.379 505.503 648.516 505.691 647.248 507.444C646.193 508.901 647.311 539.453 648.275 543.465C649.308 547.768 659.769 570.749 662.235 572.959C664.576 575.057 668.831 572.262 669.443 572.646C670.485 573.29 669.334 579.518 670.54 582.086C674.594 590.719 712.843 612.719 719.348 605.419C719.853 604.852 718.466 590.541 726.394 594.555C728.945 595.849 716.464 614.056 747.393 608.42C759.729 606.174 793.812 595.236 783.845 578.617C794.473 573.215 787.962 584.241 795.42 582.955C804.487 571.296 823.12 542.21 816.584 527.371C815.397 524.675 807.372 531.88 807.933 521.147C810.279 520.066 818.568 519.314 819.095 518.503L819.086 518.517Z" fill="#676767"/>
<path d="M583.081 299.483C677.153 276.186 713.03 414.094 628.341 443.332C525.439 478.851 483.938 324.036 583.081 299.483ZM575.17 315.133C506.953 342.99 542.496 455.284 618.963 433.819C701.437 410.668 660.763 280.18 575.17 315.133Z" fill="#676767"/>
<path d="M756.383 293.242L758.801 403.051C742.381 407.8 724.785 405.899 707.968 405.478L705.619 295.83C708.975 291.254 748.397 293.382 756.383 293.242ZM748.533 349.068C748.482 342.423 751.85 301.495 748.65 299.58L714.899 300.428L714.408 324.132C718.713 322.405 736.426 321.217 732.112 329.381C731.322 330.868 714.22 327.68 713.258 329.115L713.563 351.147C714.715 353.9 723.15 352.181 725.719 352.097C744.09 360.9 714.808 358.197 713.483 359.73C712.838 360.484 713.267 376.486 713.271 379.596C714.217 382.385 736.365 376.041 731.36 386.092C730.948 386.919 716.308 385.273 713.003 388.064C714.069 390.58 714.537 398.316 715.729 399.102C717.137 400.028 744.298 397.017 749.421 398.422C752.584 397.345 748.582 355.001 748.534 349.073L748.533 349.068Z" fill="#676767"/>
<path d="M825.182 295.928L826.676 406.084C826.17 408.13 825.014 408.378 823.187 408.747C811.029 411.172 790.032 406.657 776.762 408.166L775.805 300.209C779.813 292.257 816.051 296.517 825.182 295.928ZM819.787 381.733C820.095 355.434 819.438 328.448 817.52 302.177L783.662 303.037L782.745 324.492C789.766 324.45 798.528 320.347 798.226 330.278C797.802 331.108 783.817 329.196 782.162 331.752C781.528 332.73 784.265 350.974 782.902 355.081C804.627 350.014 808.828 363.538 784.089 360.506C782.505 362.505 782.632 376.862 783.733 379.32C785.328 382.883 798.68 377.765 801.43 383.706C801.09 383.774 800.188 386.244 798.434 386.688C793.934 387.823 786.819 385.175 783.669 388.881C781.651 391.253 783.356 400.93 784.581 401.727C785.988 402.647 813.068 399.526 818.209 401.112C820.468 400.18 819.749 385.399 819.793 381.732L819.787 381.733Z" fill="#676767"/>
<path d="M556.469 474.995C610.138 455.114 630.578 545.736 569.009 548.658C528.165 550.594 517.639 489.377 556.469 474.995ZM553.941 484.959C528.824 497.366 539.711 545.572 573.98 540.86C618.803 534.696 599.754 462.336 553.941 484.959Z" fill="#676767"/>
<path d="M550.751 561.122C600.587 537.942 629.146 614.005 580.599 631.12C536.571 646.642 509.518 580.297 550.751 561.122ZM556.874 566.666C526.628 578.318 536.177 628.472 569.804 624.445C619.62 618.485 596.002 551.594 556.874 566.666Z" fill="#676767"/>
<path d="M799.619 636.333C803.13 646.879 800.551 658.137 800.255 668.9C799.267 670.047 771.177 669.793 770.05 668.789C767.766 666.751 767.429 639.561 769.304 637.21L799.626 636.337L799.619 636.333Z" fill="#572064"/>
<path d="M664.958 625.93C695.905 613.008 711.958 671.467 668.367 668.414C649.678 667.103 644.684 634.397 664.958 625.93ZM664.227 633.212C647.213 643.04 661.516 673.103 683.15 660.205C698.958 650.778 684.789 621.334 664.227 633.212Z" fill="#676767"/>
<path d="M720.391 631.75C745.979 619.385 764.349 657.41 744.165 669.377C714.474 686.979 695.943 643.563 720.391 631.75ZM725.799 635.432C704.932 641.536 715.124 673.967 735.257 667.815C755.52 661.62 746.105 629.497 725.799 635.432Z" fill="#676767"/>
<path d="M463.633 649.171L229.45 641.889L237.356 330.887L470.424 338.407L463.629 649.178L463.633 649.171ZM243.154 621.327C241.633 625.465 239.217 628.746 241.316 633.515L445.06 641.587C457.772 641.639 452.668 630.321 450.412 621.926L458.357 347.049L247.553 340.047C247.48 353.346 246.335 366.653 245.753 379.949C242.503 454.194 238.583 536.859 239.847 610.733C239.905 614.154 238.424 620.178 243.154 621.327Z" fill="#676767"/>
<path d="M373.597 715.392C375.959 717.007 398.839 711.815 400.076 719.297C400.531 722.06 398.008 752.367 396.847 753.634C391.06 759.95 374.26 752.862 371.512 756.013C367.181 793.721 373.3 838.198 368.258 875.049C366.795 885.731 362.656 889.928 357.649 878.188L360.647 759.605C360.713 748.356 338.022 754.351 335.467 752.493C332.276 750.172 334.696 716.203 337.735 713.118C341.866 708.935 360.312 715.2 363.045 710.788C363.508 710.047 359.454 697.378 365.276 694.048C378.433 686.516 370.877 713.537 373.597 715.392ZM391.854 722.91C383.917 725.389 349.429 717.827 345.432 719.898C341.917 721.721 341.22 744.916 343.177 746.135L389.045 747.296L391.85 722.917L391.854 722.91Z" fill="#676767"/>
<path d="M246.466 677.705C288.643 661.128 329.608 697.384 318.082 741.076C309.136 774.977 265.195 787.662 237.646 767.434C206.737 744.74 209.37 692.285 246.466 677.705ZM255.286 684.907C201.509 702.114 229.289 785.097 284.913 764.375C332.517 746.642 304.054 669.299 255.286 684.907Z" fill="#676767"/>
<path d="M434.972 696.241C440.855 699.989 434.119 776.957 435.619 789.149C438.247 797.303 454.524 791.999 460.636 794.969C468.951 799.014 459.812 825.015 462.398 833.252L432.638 835.803C432.968 845.375 435.235 878.877 431.366 885.519C429.902 888.03 425.619 890.549 424.088 889.573C418.535 886.029 425.788 833.448 422.086 831.174C420.989 830.5 399.407 835.527 397.866 826.756C397.556 824.995 399.917 793.665 401.029 792.342C404.582 788.105 421.593 793.462 424.109 790.55C426.9 787.322 425.205 716.851 426.477 705.256C427.104 699.562 428.697 696.665 434.97 696.236L434.972 696.241ZM455.194 802.307C453.39 800.744 413.902 800.055 407.563 799.267C408.881 804.232 404.37 818.744 405.957 821.83C406.988 823.838 448.05 827.77 450.484 826.981C456.498 825.036 456.868 803.759 455.188 802.308L455.194 802.307Z" fill="#676767"/>
<path d="M236.136 795.066C247.864 796.902 327.374 795.217 330.945 798.338C336.277 803.001 332.519 860.439 330.193 870.662L234.132 868.501C234.661 847.953 231.817 821.372 233.948 801.447C234.206 799.055 233.358 796.684 236.136 795.066ZM323.943 805.019L241.884 805.392L241.072 862.055L323.796 863.771C323.414 855.542 327.665 807.743 323.949 805.018L323.943 805.019Z" fill="#676767"/>
<path d="M461.457 280.362C465.304 288.872 461.576 287.554 453.919 287.918C413.545 289.842 335.814 286.924 295.753 281.854C292.762 281.474 287.062 282.719 286.901 277.745C286.699 271.658 304.174 274.01 308.2 274.042C359.204 274.477 410.465 279.305 461.462 280.36L461.457 280.362Z" fill="#676767"/>
<path d="M457.432 302.323C463.817 307.21 453.79 312.482 447.151 311.201L290.485 305.802L284.678 298.269L457.432 302.323Z" fill="#676767"/>
<path d="M215.723 887.216C232.392 878.034 239.588 905.822 225.341 910.653C212.769 914.918 204.575 893.353 215.723 887.216Z" fill="#676767"/>
<path d="M983.347 348.514C1132.65 306.226 1197.68 530.131 1052.77 576.438C901.918 624.643 831.424 391.542 983.347 348.514ZM972.98 365.068C936.96 378.88 905.64 425.607 908.572 464.321C918.93 601.172 1101.22 599.996 1119.6 480.594C1132.69 395.627 1052.33 334.642 972.986 365.067L972.98 365.068Z" fill="#7E7E7E"/>
<path d="M941.309 727.649L942.792 783.796L891.316 783.908C885.28 766.791 891.111 748.435 888.047 730.833C905.363 725.848 923.673 730.341 941.303 727.65L941.309 727.649Z" fill="#8BD3F9"/>
<path d="M1122.45 637.983L1123.42 691.655L1069.59 692.606L1068.76 638.741L1122.45 637.983Z" fill="#8BD3F9"/>
<path d="M944.591 691.507L890.737 692.334L890.045 638.663C892.073 636.387 940.333 635.745 942.723 637.66L944.591 691.507Z" fill="#FBB14A"/>
<path d="M1035.81 728.902L1036.74 782.841L982.941 783.544L982.099 729.933L1035.81 728.902Z" fill="#FBB14A"/>
<path d="M1070.25 784.088C1066.99 781.175 1068.36 739.036 1069.2 731.41C1071.49 728.735 1117.57 728.182 1119.8 730.123C1125 734.652 1122.25 774.018 1121.64 783.05L1070.25 784.088Z" fill="#572064"/>
<path d="M1030.88 638.182C1033.42 639.735 1034.19 691.13 1032.26 693.42L980.858 694.459C977.187 691.196 978.96 649.539 979.803 641.77C984.611 636.139 1021.81 642.437 1030.87 638.183L1030.88 638.182Z" fill="#572064"/>
<path d="M799.011 892.971L534.259 886.971L538.371 695.389L802.897 703.553L799.017 892.97L799.011 892.971ZM791.683 882.705L795.56 712.48L545.576 706.537L541.692 878.059L791.682 882.699L791.683 882.705Z" fill="#7E7E7E"/>
<path d="M819.086 518.517C818.565 519.327 810.27 520.08 807.924 521.161C807.363 531.895 815.388 524.69 816.576 527.385C823.111 542.224 804.484 571.309 795.411 582.97C787.954 584.256 794.464 573.23 783.836 578.631C793.802 595.245 759.719 606.183 747.384 608.434C716.461 614.069 728.942 595.863 726.385 594.57C718.457 590.556 719.844 604.867 719.339 605.433C712.834 612.734 674.579 590.735 670.531 582.101C669.325 579.533 670.474 573.298 669.434 572.66C668.818 572.284 664.569 575.077 662.226 572.973C659.759 570.757 649.299 547.782 648.266 543.48C647.302 539.468 646.184 508.916 647.239 507.458C648.507 505.705 657.372 505.523 660.359 504.114C660.327 493.103 653.86 500.075 652.074 499.005C645.927 495.308 676.022 450.985 686.487 450.978C689.297 450.978 694.074 464.447 698.738 457.378C700.248 455.089 689.145 447.419 698.95 443.211C704.428 440.865 729.665 435.497 734.797 436.993C738.486 438.068 737.511 444.862 738.892 447.91C745.859 447.845 741.559 439.73 747.151 438.834C756.438 437.344 793.589 455.861 794.083 463.94C794.253 466.716 789.625 469.255 791.9 473.105C799.253 466.691 810.265 481.156 811.449 486.177C812.556 490.873 819.981 517.134 819.077 518.532L819.086 518.517ZM779.039 478.506C775.155 476.422 749.093 502.026 743.039 504.736C738.405 506.81 729.571 500.488 718.497 508.682C709.184 515.577 714.725 525 711.392 530.952C708.243 536.565 684.919 551.506 678.388 558.126C675.639 560.909 675.039 564.529 677.321 566.065C679.984 567.86 709.629 537.785 716.603 536.061C722.591 534.581 729.515 547.059 742.842 537.076C754.965 527.997 745.107 515.408 746.838 510C747.405 508.24 771.339 491.438 775.59 486.828C776.968 485.337 782.445 480.334 779.044 478.504L779.039 478.506Z" fill="#8BD3F9"/>
<path d="M575.17 315.133C660.763 280.179 701.437 410.668 618.963 433.819C542.496 455.283 506.953 342.99 575.17 315.133ZM598.835 323.13C593.459 323.514 593.58 327.878 593.105 331.953C592.313 338.845 593.292 370.866 594.957 376.964C595.872 380.325 616.229 414.39 618.204 416.078C620.178 417.766 625.049 416.28 625.389 415.77C627.356 412.822 603.805 381.939 601.886 375.232C597.972 361.572 603.777 337.897 598.833 323.124L598.835 323.13Z" fill="#8BD3F9"/>
<path d="M725.712 352.092C723.143 352.176 714.708 353.895 713.556 351.143L713.251 329.11C714.219 327.674 731.321 330.868 732.105 329.377C736.419 321.212 718.705 322.401 714.401 324.127L714.892 300.423L748.643 299.576C751.847 301.483 748.48 342.417 748.526 349.063C741.33 350.809 733.052 351.84 725.705 352.088L725.712 352.092Z" fill="#FABA88"/>
<path d="M748.533 349.068C748.575 354.996 752.583 397.339 749.42 398.417C744.291 397.012 717.131 400.029 715.727 399.097C714.536 398.31 714.072 390.567 713.002 388.058C716.309 385.273 730.947 386.913 731.359 386.086C736.364 376.035 714.209 382.381 713.269 379.59C713.266 376.481 712.831 360.479 713.481 359.725C714.805 358.186 744.088 360.895 725.718 352.091C733.065 351.844 741.349 350.811 748.539 349.066L748.533 349.068Z" fill="#FBB14A"/>
<path d="M801.418 383.708C798.668 377.768 785.316 382.885 783.722 379.323C782.621 376.865 782.493 362.508 784.077 360.509C808.817 363.541 804.614 350.01 782.89 355.083C784.259 350.975 781.516 332.733 782.15 331.755C783.805 329.199 797.794 331.103 798.214 330.28C798.517 320.35 789.755 324.459 782.733 324.495L783.65 303.04L817.508 302.179C819.427 328.451 820.084 355.437 819.775 381.736C813.581 383.123 807.755 382.484 801.412 383.71L801.418 383.708Z" fill="#FABA88"/>
<path d="M801.418 383.708C807.761 382.483 813.587 383.122 819.781 381.735C819.738 385.401 820.454 400.177 818.197 401.114C813.056 399.529 785.977 402.656 784.569 401.73C783.35 400.932 781.645 391.254 783.657 388.884C786.806 385.172 793.923 387.825 798.422 386.691C800.176 386.247 801.078 383.776 801.418 383.708Z" fill="#FBB14A"/>
<path d="M553.941 484.959C599.754 462.335 618.803 534.696 573.98 540.86C539.71 545.571 528.823 497.366 553.941 484.959Z" fill="#FABA88"/>
<path d="M556.874 566.665C596.002 551.594 619.619 618.485 569.804 624.445C536.177 628.471 526.626 578.312 556.874 566.665Z" fill="#7E7E7E"/>
<path d="M664.227 633.212C684.788 621.334 698.952 650.779 683.149 660.205C661.521 673.101 647.213 643.04 664.227 633.212Z" fill="#FBB14A"/>
<path d="M725.798 635.431C746.103 629.49 755.523 661.613 735.256 667.815C715.125 673.972 704.931 641.535 725.798 635.431Z" fill="#FBB14A"/>
<path d="M243.154 621.327C238.423 620.178 239.905 614.154 239.847 610.732C238.584 536.865 242.503 454.193 245.752 379.949C246.337 366.658 247.48 353.346 247.553 340.047L458.357 347.049L450.412 621.926C444.136 598.56 428.501 573.645 409.577 558.536C416.762 553.026 432.382 525.964 435.401 516.393C462.106 431.668 367.42 363.784 295.679 414.662C249.273 447.573 246.687 521.298 289.553 558.565C272.544 573.306 250.923 600.231 243.154 621.327Z" fill="#16035B"/>
<path d="M409.577 558.536C428.503 573.65 444.137 598.559 450.413 621.926C452.667 630.315 457.771 641.633 445.061 641.587L241.317 633.514C239.217 628.746 241.634 625.464 243.155 621.326C250.924 600.231 272.546 573.311 289.554 558.565C291.559 560.307 313.421 570.987 318.027 572.594C346.454 582.523 385.562 576.947 409.576 558.53L409.577 558.536Z" fill="#FCFDFD"/>
<path d="M391.854 722.91L389.05 747.289L343.181 746.128C341.225 744.908 341.92 721.708 345.436 719.891C349.433 717.82 383.915 725.383 391.858 722.903L391.854 722.91Z" fill="#7E7E7E"/>
<path d="M255.287 684.907C304.056 669.304 332.518 746.648 284.913 764.375C229.288 785.091 201.508 702.108 255.287 684.907Z" fill="#FBB14A"/>
<path d="M455.194 802.306C456.873 803.757 456.504 825.034 450.49 826.98C448.05 827.77 406.994 823.836 405.962 821.828C404.376 818.742 408.887 804.231 407.569 799.265C413.908 800.053 453.396 800.743 455.2 802.305L455.194 802.306Z" fill="#7E7E7E"/>
<path d="M323.943 805.019C327.659 807.744 323.408 855.544 323.79 863.772L241.066 862.056L241.878 805.393L323.938 805.02L323.943 805.019Z" fill="#8BD3F9"/>
<path d="M972.98 365.068C1052.33 334.648 1132.69 395.627 1119.6 480.595C1101.22 599.996 918.93 601.172 908.566 464.322C905.635 425.609 936.955 378.881 972.974 365.069L972.98 365.068ZM1110.39 466.318C1119.93 456.646 1107.97 427.179 1101.26 414.815C1051.77 323.527 909.926 365.125 916.031 468.973C916.423 475.659 925.16 467.023 928.066 471.62C924.256 472.555 922.007 471.969 919.671 475.955C913.956 485.726 930.905 516.134 937.869 525.118C991.41 594.18 1115.09 557.854 1110.92 468.556C1110.88 467.749 1110.19 466.533 1110.39 466.324L1110.39 466.318Z" fill="#676767"/>
<path fill-rule="evenodd" clip-rule="evenodd" d="M795.562 712.486L791.685 882.711L791.684 882.706L541.694 878.065L545.578 706.543L795.562 712.486ZM785.186 824.778C783.036 821.027 723.416 819.225 721.365 822.052L719.859 876.37L719.864 876.368L782.46 877.984C785.163 876.695 786.791 827.586 785.186 824.778ZM660.652 818.456C661.651 836.969 662.811 855.489 661.427 873.809L714.901 875.226C711.414 866.416 718.571 826.465 716.311 822.084C714.182 817.954 667.589 817.607 660.652 818.456ZM603.782 873.131L655.382 872.683C656.565 871.014 655.042 843.885 654.374 818.457L604.662 817.354L603.782 873.131ZM547.873 815.645C550.71 824.141 544.783 868.211 549.475 871.647L596.43 871.557L597.196 816.004L597.203 816.002L547.873 815.645ZM721.795 814.663C732.223 812.652 778.383 819.688 784.274 816.281C788.015 814.117 786.945 769.559 786.934 761.758L723.1 760.196L721.795 814.663ZM717.324 715.663C714.1 714.459 664.894 714.282 662.361 715.873C657.986 718.629 659.714 769.004 659.9 775.014C659.096 791.132 660.652 810.155 660.652 810.155C660.724 810.159 686.373 811.848 716.608 813.401C715.328 797.955 720.053 778.448 718.28 763.615C717.876 760.238 710.714 758.004 710.714 758.004L659.478 757.305C659.478 757.305 659.43 753.004 659.427 752.503C665.672 752.374 718.543 751.098 718.761 747.158C719.082 741.389 720.79 723.004 720.156 719.221C719.789 717.014 719.537 716.49 717.324 715.663ZM607.222 712.291C604.557 713.558 603.863 747.117 605.489 751.232C606.346 753.41 651.083 751.713 653.835 752.503C653.848 753.997 653.859 755.499 653.869 757.005C651.002 759.056 605.661 756.463 604.787 757.466C603.068 759.462 604.645 803.413 605.245 810.149L654.187 810.149L654.189 810.154C653.995 799.177 654.01 777.701 653.869 757.005L653.871 757.004C653.861 755.504 653.843 753.198 653.838 752.504L653.835 752.503C653.709 736.856 653.478 722.138 652.975 713.349L607.222 712.291ZM550.346 756.167C552.114 765.879 546.021 802.455 551.77 807.769C555.612 811.317 590.683 808.054 598.467 810.802C597.493 802.924 601.352 759.937 597.417 757.024L550.346 756.167ZM724.241 755.203L724.248 755.207C736.529 751.612 777.65 759.904 786.149 754.551C788.772 752.901 789.706 722.173 788.681 720.193C786.535 716.043 733.133 716.052 724.867 717.473L724.241 755.203ZM551.491 751.191L597.421 752.012C600.603 750.495 600.37 713.127 598.651 711.9L551.499 711.147L551.491 751.191Z" fill="#676767"/>
<path d="M779.039 478.506C782.445 480.334 776.963 485.339 775.584 486.829C771.333 491.439 747.399 508.242 746.833 510.001C745.1 515.403 754.959 527.999 742.836 537.078C729.509 547.06 722.58 534.584 716.597 536.062C709.623 537.786 679.976 567.856 677.315 566.066C675.033 564.53 675.64 560.915 678.382 558.127C684.913 551.508 708.237 536.567 711.386 530.953C714.725 525 709.184 515.577 718.491 508.683C729.565 500.489 738.399 506.811 743.033 504.737C749.088 502.028 775.147 476.417 779.033 478.507L779.039 478.506Z" fill="#676767"/>
<path d="M598.835 323.13C603.778 337.903 597.974 361.578 601.887 375.238C603.806 381.945 627.358 412.828 625.39 415.776C625.05 416.286 620.256 417.833 618.205 416.084C616.154 414.334 595.872 380.325 594.958 376.97C593.294 370.872 592.315 338.851 593.107 331.959C593.576 327.885 593.453 323.515 598.836 323.136L598.835 323.13Z" fill="#7E7E7E"/>
<path d="M409.577 558.536C385.563 576.953 346.455 582.529 318.028 572.6C313.422 570.993 291.56 560.313 289.555 558.571C246.693 521.297 249.275 447.578 295.681 414.668C367.427 363.789 462.107 431.673 435.403 516.399C432.383 525.969 416.764 553.032 409.578 558.542L409.577 558.536ZM299.649 551.48C300.242 551.99 300.388 556.226 302.409 557.669C333.524 579.854 369.771 576.271 399.083 553.943C485.256 488.301 393.761 361.666 304.834 416.516C256.555 446.297 252.307 512.556 293.718 550.418C295.62 552.16 299.41 551.272 299.649 551.48Z" fill="#8BD3F9"/>
<path d="M928.06 471.621C925.152 467.019 916.422 475.654 916.025 468.974C909.926 365.125 1051.77 323.527 1101.26 414.817C1107.96 427.186 1119.93 456.653 1110.39 466.32C1089.92 461.471 1054.62 477.5 1036.2 473.867C1031.58 472.961 1026.9 467.054 1024.82 462.955C1020.09 461.145 1012.96 480.887 1008.49 483.276C1004.41 461.577 1005.63 436.043 1001.21 414.787C1000.66 412.178 1000.01 408.276 996.651 408.351C992.085 408.447 967.72 461.7 959.996 467.681C954.989 471.554 937.103 469.41 928.054 471.623L928.06 471.621Z" fill="#16035B"/>
<path d="M919.671 475.955C928.207 476.225 956.409 478.176 962.452 474.948C968.102 471.929 984.353 437.92 988.955 430.221C990.561 427.536 990.882 425.307 994.796 425.279L1004.43 496C1013.73 497.871 1019.98 473.483 1021.42 473.137C1027.32 471.734 1029.04 481.469 1037.44 481.127C1049.99 480.609 1072.27 476.804 1085.3 474.566C1093.93 473.084 1102.36 470.225 1110.92 468.549C1115.1 557.853 991.416 594.179 937.874 525.111C930.909 516.127 913.96 485.719 919.675 475.948L919.671 475.955Z" fill="#16035B"/>
<path d="M928.06 471.621C937.107 469.402 954.995 471.553 960.001 467.679C967.732 461.697 992.092 408.451 996.657 408.35C1000.02 408.275 1000.67 412.177 1001.21 414.785C1005.64 436.042 1004.42 461.576 1008.5 483.275C1012.96 480.886 1020.09 461.137 1024.83 462.953C1026.9 467.053 1031.59 472.96 1036.2 473.866C1054.62 477.498 1089.92 461.47 1110.39 466.319C1110.18 466.527 1110.88 467.743 1110.92 468.55C1102.35 470.227 1093.92 473.086 1085.29 474.567C1072.26 476.805 1049.98 480.611 1037.43 481.129C1029.03 481.476 1027.31 471.735 1021.41 473.139C1019.97 473.479 1013.73 497.871 1004.43 496.002L994.79 425.281C990.876 425.308 990.555 427.537 988.949 430.222C984.347 437.921 968.096 471.93 962.446 474.95C956.409 478.177 928.207 476.225 919.665 475.957C921.995 471.972 924.25 472.557 928.06 471.621Z" fill="#7E7E7E"/>
<path d="M719.864 876.368L721.37 822.051C723.416 819.225 783.042 821.025 785.191 824.776C786.797 827.581 785.169 876.701 782.465 877.983L719.87 876.367L719.864 876.368Z" fill="#16035B"/>
<path d="M786.934 761.758C786.945 769.559 788.015 814.117 784.274 816.281C778.385 819.694 732.222 812.652 721.794 814.663L723.099 760.196L786.934 761.758Z" fill="#16035B"/>
<path d="M716.295 822.07C718.55 826.458 711.399 866.408 714.886 875.211L661.411 873.795C663.344 848.214 660.714 840.004 660.714 818.004C672.875 819.814 711.58 812.916 716.295 822.07Z" fill="#16035B"/>
<path d="M654.714 819.297C654.714 829.004 656.714 865.504 655.374 872.679L603.775 873.127L604.654 817.349L652.285 819.297L654.714 819.297Z" fill="#16035B"/>
<path d="M597.201 816.002L596.435 871.557L549.48 871.646C544.781 868.214 550.708 824.136 547.877 815.644L597.207 816.001L597.201 816.002Z" fill="#16035B"/>
<path d="M659.214 757.004C675.214 759.004 717.494 754.504 718.214 760.504C719.993 775.336 715.309 797.934 716.589 813.381L660.27 810.504L659.214 757.004Z" fill="#16035B"/>
<path d="M597.419 757.025C601.356 759.906 597.499 802.926 598.473 810.806C590.69 808.058 555.613 811.323 551.777 807.773C546.027 802.46 552.121 765.883 550.352 756.171L597.426 757.029L597.419 757.025Z" fill="#16035B"/>
<path d="M724.248 755.207L724.873 717.477C733.139 716.056 786.541 716.041 788.687 720.198C789.706 722.179 788.777 752.9 786.155 754.555C777.657 759.909 736.536 751.616 724.255 755.211L724.248 755.207Z" fill="#16035B"/>
<path d="M654.214 756.504C652.822 774.277 655.269 792.31 655.714 810.142L605.243 810.142C604.642 803.401 603.064 759.448 604.785 757.46C608.659 752.977 643.276 760.315 654.214 756.504Z" fill="#16035B"/>
<path d="M659.214 740.504C659.517 734.611 657.975 718.606 662.349 715.851C664.882 714.26 714.088 714.431 717.312 715.64C719.531 716.467 719.778 716.991 720.145 719.199C720.779 722.982 719.077 741.365 718.75 747.135C718.532 751.076 718.75 755.086 714.821 755.086C704.712 755.086 683.682 753.385 669.215 754.103C664.676 754.323 659.214 754.103 659.214 754.103C659.214 754.103 659.097 742.851 659.214 740.504Z" fill="#16035B"/>
<path d="M598.651 711.9C600.377 713.131 600.605 750.501 597.421 752.012L551.492 751.191L551.498 711.147L598.651 711.9Z" fill="#16035B"/>
<path d="M605.482 751.228C603.855 747.115 604.555 713.551 607.214 712.286L652.967 713.345C655.702 715.345 655.487 737.904 655.511 743.156C655.555 752.189 654.214 753.371 654.214 753.371C638.011 754.732 611.714 753.371 605.482 751.228Z" fill="#16035B"/>
<path d="M368.568 424.52L378.175 455.248L384.841 453.646C379.432 446.345 379.691 437.192 376.836 429.638C383.057 432.318 391.153 435.458 393.899 442.105C395.224 445.308 396.634 457.117 397.573 457.742L406.497 455.626C423.324 494.468 416.32 522.837 383.878 549.301L399.085 553.949C369.772 576.278 333.53 579.853 302.411 557.675C300.39 556.232 300.242 551.99 299.651 551.486C302.13 550.318 310.719 551.305 307.758 546.083C301.828 535.635 289.695 531.661 283.784 513.982C264.745 457.066 311.817 413.864 368.57 424.525L368.568 424.52Z" fill="#FCFDFD"/>
<path d="M399.083 553.943L383.877 549.295C416.318 522.831 423.324 494.467 406.496 455.619C403.319 448.289 401.666 437.163 393.891 442.101C391.146 435.454 383.05 432.313 376.829 429.633C374.138 422.513 371.886 425.142 368.561 424.515C311.808 413.853 264.736 457.056 283.775 513.971C289.692 531.65 301.824 535.617 307.749 546.073C310.709 551.289 302.122 550.308 299.642 551.475C299.403 551.268 295.612 552.155 293.711 550.413C252.299 512.552 256.548 446.293 304.827 416.511C393.754 361.661 485.249 488.296 399.076 553.939L399.083 553.943Z" fill="#16035B"/>
<path d="M368.568 424.519C371.894 425.146 374.139 422.518 376.836 429.637C379.697 437.19 379.432 446.344 384.84 453.645L378.175 455.247L368.568 424.519Z" fill="#8BD3F9"/>
<path d="M393.893 442.107C401.667 437.169 403.321 448.294 406.497 455.625L397.573 457.742C396.628 457.118 395.218 445.309 393.899 442.105L393.893 442.107Z" fill="#8BD3F9"/>
<path d="M229.343 266.868C247.988 255.27 256.171 284.095 238.297 285.696C228.119 286.605 223.329 270.611 229.343 266.868Z" fill="#676767"/>
<g style="mix-blend-mode:darken" opacity="0.9">
<rect x="180.159" y="226.049" width="1018.48" height="728.271" rx="17.4964" transform="rotate(1.45726 180.159 226.049)" fill="#1B1F32"/>
</g>
</svg>
