<svg width="1291" height="1516" viewBox="0 0 1291 1516" fill="none" xmlns="http://www.w3.org/2000/svg">
<g clip-path="url(#clip0_5001_4)">
<rect width="1290" height="1516" transform="translate(1)" fill="#384646"/>
<path d="M742.815 147.052L615 -9.05078L658.169 -0.0448399L746.201 139.547L822.382 129.04L864.705 207.092L822.382 147.052H742.815Z" fill="#2B3535"/>
<path d="M76.4134 1258.34L1.07874 1330.39L-4 1373.92L86.5709 1267.35L56.9449 1168.29L76.4134 1139.77L45.9409 1168.29L76.4134 1258.34Z" fill="#2B3535"/>
</g>
<path d="M1213.2 494.354L1268.22 649.275L1278.38 661.974V543.455L1239.44 480.81L1155.63 444.407L1179.33 397L1126 452.873L1213.2 494.354Z" fill="#2B3535"/>
<path d="M23.8928 123H1.41602L1.41618 60.11L1.5001 59L1.41608 99.1972L1.41611 86.5756L1.41615 71.6217L1.41615 72.4369L1.41612 110.378H11.848V59H23.8928V123Z" fill="#89A3A3"/>
<path d="M104.784 123H32.75V59H79.3521V99.1972H56.9402V86.5756H67.2738V71.6217H44.7948V110.378H92.7054V59H104.784V123Z" fill="#89A3A3"/>
<path d="M185.639 123H113.605V59H160.208V99.1972H137.829V86.5756H148.129V71.6217H125.684V110.378H173.594V59H185.639V123Z" fill="#89A3A3"/>
<path d="M266.532 123H194.498V59H241.067V99.1972H218.688V86.5756H229.022V71.6217H206.543V110.378H254.453V59H266.532V123Z" fill="#89A3A3"/>
<path d="M347.389 123H275.355V59H321.958V99.1972H299.579V86.5756H309.879V71.6217H287.4V110.378H335.344V59H347.389V123Z" fill="#89A3A3"/>
<path d="M428.245 123H356.211V59H402.813V99.1972H380.435V86.5756H390.768V71.6217H368.289V110.378H416.2V59H428.245V123Z" fill="#89A3A3"/>
<path d="M526.454 123H454.42V59H500.988V99.1972H478.61V86.5756H488.944V71.6217H466.465V110.378H514.375V59H526.454V123Z" fill="#89A3A3"/>
<path d="M607.31 123H535.276V59H581.878V99.1972H559.467V86.5756H569.8V71.6217H547.321V110.378H595.265V59H607.31V123Z" fill="#89A3A3"/>
<path d="M688.173 123H616.14V59H662.742V99.1972H640.363V86.5756H650.697V71.6217H628.218V110.378H676.129V59H688.173V123Z" fill="#89A3A3"/>
<path d="M769.059 123H697.025V59H743.594V99.1972H721.216V86.5756H731.549V71.6217H709.07V110.378H756.981V59H769.059V123Z" fill="#89A3A3"/>
<path d="M849.915 123H777.882V59H824.484V99.1972H802.072V86.5756H812.406V71.6217H789.96V110.378H837.837V59H849.915V123Z" fill="#89A3A3"/>
<path d="M930.772 123H858.738V59H905.34V99.1972H882.962V86.5756H893.296V71.6217H870.817V110.378H918.727V59H930.772V123Z" fill="#89A3A3"/>
<path d="M1011.66 123H939.631V59H986.199V99.1972H963.821V86.5756H974.155V71.6217H951.676V110.378H999.586V59H1011.66V123Z" fill="#89A3A3"/>
<path d="M1109.87 123H1037.84V59H1084.41V99.1972H1062.03V86.5756H1072.36V71.6217H1049.88V110.378H1097.8V59H1109.87V123Z" fill="#89A3A3"/>
<path d="M1190.73 123H1118.7V59H1165.3V99.1972H1142.92V86.5756H1153.22V71.6217H1130.77V110.378H1178.69V59H1190.73V123Z" fill="#89A3A3"/>
<path d="M1271.62 123H1199.59V59H1246.16V99.1972H1223.78V86.5756H1234.11V71.6217H1211.63V110.378H1259.54V59H1271.62V123Z" fill="#89A3A3"/>
<path d="M1291 123H1280.45V59H1291V99.7035V87.25V71.6217V110.5V115.5V59V123Z" fill="#89A3A3"/>
<path d="M50.2446 1396H0.5V1332H24.813V1372.2H2.43465V1359.58H12.7683V1344.62H0.5V1383.38H38.1999V1332H50.2446V1396Z" fill="#89A3A3"/>
<path d="M148.454 1396H76.4199V1332H122.988V1372.2H100.61V1359.58H110.944V1344.62H88.4647V1383.38H136.375V1332H148.454V1396Z" fill="#89A3A3"/>
<path d="M229.311 1396H157.277V1332H203.879V1372.2H181.468V1359.58H191.801V1344.62H169.322V1383.38H217.266V1332H229.311V1396Z" fill="#89A3A3"/>
<path d="M310.174 1396H238.141V1332H284.743V1372.2H262.364V1359.58H272.698V1344.62H250.219V1383.38H298.13V1332H310.174V1396Z" fill="#89A3A3"/>
<path d="M391.059 1396H319.025V1332H365.594V1372.2H343.216V1359.58H353.549V1344.62H331.07V1383.38H378.981V1332H391.059V1396Z" fill="#89A3A3"/>
<path d="M471.915 1396H399.881V1332H446.483V1372.2H424.071V1359.58H434.405V1344.62H411.959V1383.38H459.836V1332H471.915V1396Z" fill="#89A3A3"/>
<path d="M552.772 1396H480.738V1332H527.34V1372.2H504.962V1359.58H515.296V1344.62H492.817V1383.38H540.727V1332H552.772V1396Z" fill="#89A3A3"/>
<path d="M633.665 1396H561.631V1332H608.199V1372.2H585.821V1359.58H596.155V1344.62H573.676V1383.38H621.586V1332H633.665V1396Z" fill="#89A3A3"/>
<path d="M731.873 1396H659.84V1332H706.408V1372.2H684.03V1359.58H694.364V1344.62H671.885V1383.38H719.795V1332H731.873V1396Z" fill="#89A3A3"/>
<path d="M812.73 1396H740.696V1332H787.298V1372.2H764.92V1359.58H775.22V1344.62H752.775V1383.38H800.685V1332H812.73V1396Z" fill="#89A3A3"/>
<path d="M893.623 1396H821.589V1332H868.157V1372.2H845.779V1359.58H856.113V1344.62H833.634V1383.38H881.544V1332H893.623V1396Z" fill="#89A3A3"/>
<path d="M974.479 1396H902.445V1332H949.047V1372.2H926.636V1359.58H936.969V1344.62H914.524V1383.38H962.401V1332H974.479V1396Z" fill="#89A3A3"/>
<path d="M1055.34 1396H983.309V1332H1029.91V1372.2H1007.53V1359.58H1017.87V1344.62H995.387V1383.38H1043.3V1332H1055.34V1396Z" fill="#89A3A3"/>
<path d="M1136.23 1396H1064.19V1332H1110.76V1372.2H1088.38V1359.58H1098.72V1344.62H1076.24V1383.38H1124.15V1332H1136.23V1396Z" fill="#89A3A3"/>
<path d="M1217.08 1396H1145.05V1332H1191.65V1372.2H1169.27V1359.58H1179.57V1344.62H1157.13V1383.38H1205.04V1332H1217.08V1396Z" fill="#89A3A3"/>
<path d="M1290.6 1396H1244V1332H1290.6V1372.2H1268.22V1359.58H1278.52V1344.62H1256.08V1383.38H1290.6L1291 1332H1290.6V1396Z" fill="#89A3A3"/>
<defs>
<clipPath id="clip0_5001_4">
<rect width="1290" height="1516" fill="white" transform="translate(1)"/>
</clipPath>
</defs>
</svg>
