<svg width="800" height="800" viewBox="0 0 800 800" fill="none" xmlns="http://www.w3.org/2000/svg">
<mask id="mask0_4388_6481" style="mask-type:alpha" maskUnits="userSpaceOnUse" x="0" y="0" width="800" height="800">
<circle cx="400" cy="400" r="400" fill="url(#paint0_radial_4388_6481)"/>
</mask>
<g mask="url(#mask0_4388_6481)">
<circle cx="400" cy="400" r="400" fill="url(#paint1_radial_4388_6481)"/>
<circle cx="400" cy="400" r="400" fill="url(#paint2_radial_4388_6481)"/>
<path d="M83.5465 272.113C70.9245 220.014 126.458 141.215 126.458 141.215C162.561 81.7277 255.313 67.3332 326.09 99.9572C361.478 116.269 266.13 156.379 217.038 217.883C156.71 293.466 96.1685 324.212 83.5465 272.113Z" fill="#D5E4EE" style="mix-blend-mode:screen"/>
<path d="M65.5684 392.173L58.9847 372.146L39 365.563L58.9847 357.814L65.5684 339L73.3662 357.814L92.1836 365.563L73.3662 372.146L65.5684 392.173Z" fill="white"/>
<path d="M123.983 431L119.279 416.687L105 411.983L119.279 406.445L123.983 393L129.555 406.445L143 411.983L129.555 416.687L123.983 431Z" fill="white"/>
<path fill-rule="evenodd" clip-rule="evenodd" d="M515.918 98.2404C517.296 99.9824 518.478 101.628 519.408 103.033C532.76 99.2323 553.697 99.2069 574.395 116.477C603.523 140.78 618.301 203.243 623.966 227.187L623.966 227.188C624.888 231.085 625.568 233.961 626.03 235.487C634.976 265.048 646.995 277.404 657.704 287.219C664.356 293.316 674.889 332.216 631.027 350.149C587.165 368.082 638.245 394.167 659.343 390.906C682.939 387.26 690.866 464.577 638.956 503.732L654.409 529.483C654.414 528.903 654.404 528.331 654.378 527.768C660.792 537.873 667.41 547.365 673.301 555.814L674.095 556.953C674.181 556.645 674.26 556.339 674.334 556.035L681.541 566.566L681.171 567.201C688.005 577.289 692.627 585.023 692.627 589.291C692.395 590.197 692.15 591.082 691.892 591.947L714.436 629.516C669.299 697.338 604.009 750.596 527.117 780.735C562.881 744.43 606.228 702.4 634.474 680.349C636.564 678.666 639.088 676.741 641.817 674.828C650.096 668.876 656.535 665.316 660.342 665.045C660.96 664.886 661.56 664.759 662.139 664.67L654.379 654.694L638.303 631.969L635.576 628.095L633.945 625.873C626.587 625.258 619.366 623.962 612.803 622.547C609.642 622.175 600.101 618 587.566 612.008C577.416 626.861 559.499 637.053 529.423 634.36C461.465 628.273 498.517 655.372 525.537 669.682C531.274 688.702 527.869 726.851 468.35 727.285C446.248 727.447 430.71 726.414 419.984 724.839L419.233 727.222L414.808 742.971C418.118 741.795 421.262 742.056 423.254 742.688C422.191 738.318 420.364 734.405 418.231 731.148L419.894 726.714C429.028 740.251 430.413 752.331 426.662 762.997C437.649 772.254 449.354 787.903 457.822 800.854C457.449 800.927 457.075 800.999 456.701 801.07C453.267 797.208 449.262 793.347 444.932 789.578C448.425 793.561 451.875 797.524 455.183 801.357C431.206 805.841 406.476 808.186 381.198 808.186C306.495 808.186 236.574 787.707 176.744 752.057C179.214 751.176 181.896 750.387 184.805 749.706C225.543 740.169 167.83 710.69 133.882 697.143C124.035 665.238 141.476 647.32 166.258 637.869C160.097 595.643 154.33 502.243 151.883 453.184L152.133 453.27L121.949 407.735L120.287 375.033C118.956 337.787 122.503 337.898 125.829 340.115C127.219 341.583 128.809 343.418 130.455 345.439C131.166 338.509 132.303 331.069 133.879 323.377C140.858 289.326 153.811 263.217 162.811 265.061C162.885 265.076 162.958 265.093 163.031 265.112C163.06 265.117 163.089 265.121 163.118 265.126C163.162 265.134 163.207 265.142 163.251 265.152C172.251 266.995 177.853 296.906 170.874 330.956C165.99 354.788 156.453 374.376 148.084 383.355C160.436 385.254 179.315 393.421 197.611 407.115C225.441 427.943 241.112 454.029 235.607 461.383C235.579 461.42 235.551 461.456 235.523 461.492C235.512 461.505 235.501 461.519 235.489 461.533L235.464 461.563C235.445 461.591 235.426 461.619 235.407 461.647C235.396 461.662 235.385 461.677 235.374 461.693L235.352 461.722L235.337 461.743C230.992 467.547 213.245 461.967 192.277 449.119C191.479 455.113 188.218 461.361 185.812 464.967C195.675 495.639 207.209 528.049 216.412 553.009C226.066 547.645 237.653 545.321 246.243 544.871C253.395 544.371 261.467 543.518 269.23 542.277L282.124 528.72L284.083 523.334L290.18 518.175V515.11C287.468 513.706 284.276 512.247 280.56 510.731C227.424 489.056 250.302 441.008 268.383 419.693C289.416 411.384 321.852 379.918 283.328 320.527C235.173 246.288 345.625 103.598 353.374 96.5531C370.559 80.931 483.697 78.8427 496.428 82.636C502.687 84.5008 508.848 90.0084 513.524 95.3607L514.131 94.8903L515.918 98.2404ZM423.428 743.437C422.113 749.483 419.241 753.523 415.926 756.153C418.188 757.031 420.553 758.388 422.978 760.121C424.628 754.175 424.548 748.512 423.428 743.437ZM444.641 760.399C441.935 748.331 433.004 746.227 428.877 746.684C428.245 761.96 439.513 767.807 445.226 768.821C446.159 771.042 447.347 772.467 444.641 760.399Z" fill="#A44F64" style="mix-blend-mode:color-burn"/>
<mask id="mask1_4388_6481" style="mask-type:alpha" maskUnits="userSpaceOnUse" x="140" y="75" width="596" height="728">
<path fill-rule="evenodd" clip-rule="evenodd" d="M536.918 92.2404C538.296 93.9825 539.477 95.6285 540.408 97.0333C553.759 93.2323 574.696 93.2069 595.395 110.477C624.522 134.78 639.3 197.243 644.965 221.187L644.965 221.188C645.887 225.085 646.568 227.961 647.03 229.487C655.976 259.048 667.995 271.404 678.704 281.219C685.356 287.316 695.888 326.216 652.027 344.149C608.165 362.082 659.244 388.167 680.342 384.906C703.938 381.26 711.865 458.577 659.956 497.732L675.408 523.483C675.413 522.903 675.403 522.331 675.378 521.768C681.792 531.873 688.41 541.366 694.301 549.814L695.094 550.953C695.18 550.645 695.26 550.339 695.334 550.035L702.54 560.566L702.17 561.201C709.005 571.289 713.627 579.023 713.627 583.291C713.394 584.197 713.149 585.082 712.891 585.947L735.436 623.516C690.299 691.338 625.009 744.596 548.117 774.735C583.88 738.43 627.227 696.4 655.474 674.349C657.564 672.666 660.088 670.741 662.817 668.828C671.095 662.876 677.535 659.316 681.342 659.045C681.959 658.886 682.559 658.759 683.139 658.67L675.378 648.694L659.302 625.969L656.576 622.095L654.944 619.873C647.586 619.258 640.366 617.962 633.803 616.547C630.642 616.175 621.1 612 608.565 606.008C598.416 620.861 580.498 631.053 550.423 628.36C482.465 622.274 519.516 649.372 546.536 663.682C552.274 682.702 548.868 720.851 489.35 721.285C467.247 721.447 451.709 720.414 440.984 718.839L440.232 721.223L435.808 736.971C439.118 735.795 442.261 736.056 444.254 736.688C443.19 732.318 441.364 728.405 439.231 725.148L440.894 720.714C450.027 734.251 451.412 746.331 447.662 756.997C458.649 766.254 470.353 781.903 478.822 794.854C478.448 794.927 478.075 794.999 477.701 795.07C474.266 791.208 470.262 787.347 465.932 783.578C469.424 787.561 472.875 791.524 476.183 795.357C452.206 799.841 427.476 802.186 402.198 802.186C327.494 802.186 257.574 781.707 197.744 746.058C200.213 745.176 202.895 744.387 205.804 743.706C246.542 734.169 188.83 704.69 154.881 691.143C145.035 659.238 162.476 641.32 187.258 631.869C181.097 589.643 175.33 496.243 172.882 447.184L173.133 447.27L142.948 401.735L141.286 369.033C139.956 331.787 143.503 331.898 146.829 334.115C148.218 335.583 149.809 337.418 151.454 339.439C152.166 332.509 153.302 325.069 154.879 317.377C161.858 283.326 174.811 257.217 183.81 259.061C183.884 259.076 183.958 259.093 184.031 259.112C184.06 259.117 184.089 259.121 184.118 259.126C184.162 259.134 184.206 259.142 184.25 259.152C193.25 260.995 198.853 290.906 191.874 324.956C186.99 348.788 177.453 368.376 169.083 377.355C181.435 379.254 200.315 387.421 218.611 401.115C246.44 421.943 262.112 448.029 256.606 455.383C256.579 455.42 256.551 455.456 256.522 455.492C256.511 455.506 256.5 455.519 256.489 455.533L256.464 455.563C256.445 455.591 256.426 455.619 256.406 455.647C256.395 455.662 256.384 455.677 256.373 455.693L256.351 455.722L256.336 455.743C251.991 461.547 234.244 455.967 213.276 443.119C212.479 449.113 209.217 455.361 206.811 458.967C216.675 489.639 228.209 522.049 237.412 547.009C247.066 541.645 258.653 539.321 267.243 538.871C274.394 538.371 282.466 537.518 290.229 536.277L303.123 522.72L305.082 517.334L311.18 512.175V509.11C308.467 507.706 305.275 506.247 301.56 504.731C248.423 483.056 271.301 435.008 289.383 413.693C310.416 405.384 342.852 373.918 304.328 314.527C256.173 240.288 366.625 97.5977 374.374 90.5531C391.558 74.931 504.697 72.8427 517.427 76.636C523.686 78.5009 529.847 84.0085 534.524 89.3607L535.131 88.8903L536.918 92.2404ZM444.428 737.437C443.113 743.483 440.24 747.523 436.925 750.153C439.187 751.031 441.553 752.388 443.977 754.121C445.627 748.175 445.547 742.512 444.428 737.437ZM465.641 754.399C462.935 742.331 454.004 740.227 449.877 740.684C449.245 755.96 460.513 761.807 466.226 762.821C467.158 765.042 468.347 766.467 465.641 754.399Z" fill="#E5B66C"/>
</mask>
<g mask="url(#mask1_4388_6481)">
<path d="M530.238 101.054L455.84 163.004L489.152 172.242L541.897 234.192L530.238 417.936L465.833 498.296L428.079 641.76L419.196 709.144C417.715 713.311 429.634 721.535 489.152 721.1C548.671 720.665 552.076 682.517 546.339 663.497C519.319 649.187 482.268 622.088 550.226 628.174C618.183 634.261 624.069 574.557 618.517 543.944L590.756 519.49C715.123 515.686 711.237 379.916 680.145 384.721C659.047 387.981 607.968 361.897 651.829 343.964C695.691 326.031 685.158 287.13 678.506 281.033C667.797 271.218 655.779 258.863 646.832 229.302C643.533 218.4 629.066 138.55 595.198 110.292C568.103 87.6854 540.602 94.7136 530.238 101.054Z" fill="url(#paint3_linear_4388_6481)"/>
<path d="M517.23 76.4505C527.415 79.4851 537.341 92.1654 541.031 98.1262L492.877 152.316L497.305 194.583L526.087 378.285L460.22 499.669L355.607 611.841L389.924 780.911L334.02 841.603L237.157 875.201C220.552 872.491 192.655 864.363 213.909 853.525C240.478 839.978 210.588 823.179 198.411 818.302C188.67 814.4 179.223 802.948 175.718 797.71C168.706 783.621 164.869 753.058 205.607 743.521C246.345 733.984 188.633 704.505 154.684 690.957C138.296 637.858 197.495 623.498 240.324 622.443C234.392 618.104 227.789 608.715 221.658 590.707C208.374 551.691 246.381 539.769 267.045 538.685C300.625 536.337 354.499 526.222 301.363 504.546C248.226 482.87 271.104 434.822 289.185 413.508C310.219 405.199 342.654 373.733 304.13 314.342C255.975 240.102 366.427 97.4122 374.176 90.3676C391.361 74.7455 504.5 72.6572 517.23 76.4505Z" fill="url(#paint4_linear_4388_6481)"/>
<path d="M360.872 197.34C373.289 154.329 401.154 158.726 413.534 166.301V197.34L376.394 288.793H350.894C349.047 276.23 348.455 240.351 360.872 197.34Z" fill="#F1A39C"/>
<path d="M355.329 306.529C335.373 269.726 367.71 235.769 386.372 223.39L409.654 230.041L504.445 401.308L545.466 446.203H600.345L639.148 463.939L626.399 544.861C619.007 553.545 601.343 575.013 589.813 591.419C578.282 607.825 528.097 598.255 504.445 591.419L481.163 624.121C487.261 633.174 500.454 657.931 504.445 684.535C508.436 711.14 455.479 706.706 428.501 701.163L364.753 713.911L264.418 803.701C264.418 808.135 261.868 809.465 251.669 779.314C241.469 749.162 261.092 728.322 272.179 721.671C279.016 710.955 287.035 685.422 264.418 669.016C241.802 652.61 267.929 632.25 283.82 624.121L325.949 580.888L376.394 521.028L355.329 463.939C348.493 462.277 333.045 454.073 325.949 434.564C318.854 415.054 348.862 390.592 364.753 380.8C369.927 371.378 375.285 343.332 355.329 306.529Z" fill="#F1A39C"/>
<path d="M242.549 586.016L359.709 462.831L392.47 523.314L231.713 676.776L242.549 586.016Z" fill="#FFECDD"/>
<path d="M191.677 324.771C184.698 358.821 168.222 384.208 159.222 382.365C150.222 380.521 152.107 352.145 159.086 318.094C166.064 284.043 175.053 257.122 184.053 258.966C193.053 260.81 198.655 290.72 191.677 324.771Z" fill="#95ACB8"/>
<ellipse cx="16.634" cy="62.9357" rx="16.634" ry="62.9357" transform="matrix(0.979653 0.200698 -0.200773 0.979638 167.317 255.537)" fill="#C2EBFF"/>
<path d="M218.413 400.929C190.584 380.101 161.405 372.057 155.9 379.411C150.394 386.766 170.646 406.733 198.475 427.561C226.305 448.39 250.903 462.552 256.409 455.197C261.915 447.843 246.243 421.757 218.413 400.929Z" fill="#95ACB8"/>
<ellipse cx="16.634" cy="62.9408" rx="16.634" ry="62.9408" transform="matrix(0.599316 -0.800542 -0.800584 -0.599182 246.17 468.873)" fill="#C2EBFF"/>
<path d="M206.577 458.665C222.294 507.555 242.269 560.889 250.292 581.445L231.999 676.462L219.838 682.558L213.944 683.114C208.541 680.891 198.325 671.225 190.859 650.335C183.393 629.446 175.632 506.074 172.685 446.999L206.577 458.665Z" fill="#FFECDD"/>
<path d="M212.598 435.913C215.258 443.895 209.272 455.128 205.946 459.747L174.348 449.216L142.751 401.549L141.089 368.848C139.759 331.602 143.306 331.712 146.632 333.929C153.099 340.765 163.927 355.546 164.37 359.98C164.814 364.414 170.468 379.933 171.022 391.018L188.761 408.755C195.598 414.482 209.937 427.932 212.598 435.913Z" fill="#FFECDD"/>
<path d="M276.059 636.314L310.982 531.005V507.172L330.384 499.412L344.797 526.571L348.123 571.466L276.059 636.314Z" fill="#FCD1BC"/>
<path d="M753.341 653.497L655.224 489.99L599.79 485.001L530.498 489.99L553.78 554.284L587.595 528.234L684.049 659.593L753.341 653.497Z" fill="#FFECDD"/>
<path d="M759.438 665.69C759.882 662.586 754.819 656.268 752.232 653.497H690.701L682.94 659.039C666.975 653.718 562.835 758.067 512.76 810.907L541.031 827.534C590.367 796.311 690.812 732.645 697.907 727.768C705.003 722.89 737.08 694.697 752.232 681.21C754.449 677.33 758.995 668.794 759.438 665.69Z" fill="#FFECDD"/>
<path d="M693.474 660.702L672.409 618.578L648.573 610.818L659.105 625.783L675.181 648.508L682.941 658.485C668.529 660.702 641.256 685.865 651.899 677.884C662.542 669.903 684.604 663.473 693.474 660.702Z" fill="#FCD1BC"/>
<path d="M590.922 532.668C572.074 516.04 559.879 498.304 518.304 532.668" stroke="#E6B69C" stroke-width="2"/>
<path d="M471.739 421.261C479.278 421.261 485.228 398.721 487.261 387.451L542.14 333.134H564.313L546.575 426.25C580.389 409.622 611.432 421.816 619.747 426.25L655.224 489.435L554.89 554.838L471.739 640.749L328.167 594.745L351.449 472.808C382.492 420.929 411.317 411.654 421.849 413.502C435.338 416.088 464.201 421.261 471.739 421.261Z" fill="url(#paint5_linear_4388_6481)"/>
<path d="M542.14 375.812C507.106 413.945 490.956 410.176 483.935 401.862L491.141 375.812L534.933 347.545C551.933 341.078 577.174 337.679 542.14 375.812Z" fill="#FCD1BC"/>
<path d="M345.906 476.687C352.373 474.286 369.853 469.482 388.035 469.482L395.241 461.722" stroke="#E6B69C" stroke-width="2"/>
<path d="M382.492 514.377C384.709 506.617 393.578 493.869 440.142 488.327L445.131 483.339" stroke="#E6B69C" stroke-width="2"/>
<path d="M319.297 504.955C314.308 513.823 323.363 508.65 327.613 504.955L339.808 508.835C349.416 509.574 362.092 514.266 335.927 527.125C309.763 539.984 302.667 530.451 302.667 523.245L304.885 517.148L319.297 504.955Z" fill="white"/>
<path d="M329.061 551.499C319.32 526.454 322.049 503.381 327.953 494.685C330.994 489.119 337.917 481.351 345.667 476.133C348.433 476.133 365.59 491.786 381.088 513.816C396.4 510.531 413.245 502.093 440.698 501.629C468.15 501.165 527.168 563.706 546.021 563.706L545.467 569.803L517.241 601.356L502.299 613.531H497.318C459.682 615.386 398.616 572.949 372.787 551.499H329.061Z" fill="white"/>
<path d="M446.241 698.946L502.229 613.59L500.566 607.493L437.926 587.54L371.406 539.873L330.385 550.404C321.072 573.905 318.744 613.036 318.744 629.663L304.886 716.128L432.383 748.275L446.241 698.946Z" fill="white"/>
<path d="M529.945 556.501C648.794 587.54 676.289 546.155 675.18 521.582C693.473 550.404 713.429 574.237 713.429 583.105C702.343 626.338 661.876 622.458 633.605 616.361C624.182 615.253 558.031 580.334 524.956 564.261L529.945 556.501Z" fill="white"/>
<path d="M698.463 567.032C677.176 614.477 593.139 586.801 553.782 567.032C654.005 606.052 689.778 571.835 695.137 549.85L702.343 560.381L698.463 567.032Z" fill="#D5E4EE"/>
<path d="M502.782 829.197C502.782 824.763 456.218 772.293 432.936 746.612L425.73 738.853L369.188 727.767L303.776 716.128C289.142 729.43 263.679 777.466 252.778 799.821C223.952 834.851 221.181 935.615 223.398 981.619L369.188 1008.22L454.555 860.236L495.576 895.708L538.814 1008.22C538.999 1006.19 539.923 990.044 542.14 941.712C544.911 881.298 502.782 834.74 502.782 829.197Z" fill="white"/>
<path d="M501.119 577.009C513.98 582.329 534.194 574.792 542.694 572.574C542.694 575.235 516.825 602.135 503.891 613.035L447.349 697.837L431.273 748.829C447.647 748.829 473.023 784.762 484.619 804.256C484.962 804.812 485.288 805.366 485.598 805.918C485.284 805.379 484.957 804.824 484.619 804.256C471.198 782.505 432.66 758.377 414.643 748.829V729.985L431.273 677.884L501.119 577.009Z" fill="#D5E4EE"/>
<path d="M383.927 237.256C381.985 218.953 394.258 187.343 400.636 173.825L417.318 148.511L481.485 139.23L540.064 168.09L560.86 241.009L583.159 260.525C583.627 265.717 586.854 278.947 585.655 287.495C584.457 296.043 578.065 300.047 575.019 300.98C574.775 308.788 567.566 324.488 565.42 332.025C538.838 366.254 490.957 388.57 477.632 390.78C459.022 393.866 451.698 386.604 445.044 382.24C432.555 368.433 406.117 342.235 396.383 322.833C388.831 307.779 387.564 277.927 388.751 264.467L384.823 246.403C385.229 251.559 384.299 245.672 383.612 240.834L384.823 246.403C384.689 244.701 384.409 241.797 383.927 237.256Z" fill="#FFE8D9"/>
<ellipse cx="18.4533" cy="15.4933" rx="18.4533" ry="15.4933" transform="matrix(0.999406 -0.034534 0.0345218 0.999401 420.355 280.715)" fill="url(#paint6_radial_4388_6481)" fill-opacity="0.34"/>
<ellipse cx="33.948" cy="18.3857" rx="33.948" ry="18.3857" transform="matrix(0.999406 -0.0345339 0.0345219 0.999401 472.804 279.126)" fill="url(#paint7_radial_4388_6481)" fill-opacity="0.34"/>
<ellipse cx="16.4319" cy="13.5211" rx="16.4319" ry="13.5211" transform="matrix(0.999406 -0.034534 0.0345218 0.999401 389.898 285.323)" fill="url(#paint8_radial_4388_6481)" fill-opacity="0.34"/>
<path d="M421.15 262.873C421.047 262.751 420.946 262.632 420.848 262.515C420.95 262.634 421.05 262.753 421.15 262.873C425.915 268.53 435.251 280.426 434.27 285.32C434.428 291.481 431.715 303.154 423.829 316.194C428.195 303.538 433.99 278.318 421.15 262.873Z" fill="#E6B69C"/>
<path d="M434.279 338.32C430.56 342.364 434.261 350.245 435.525 353.867C435.15 364.586 443.981 367.876 450.553 367.509C463.441 366.79 473.801 356.396 477.405 349.963C475.81 350.106 472.151 350.138 470.279 349.118C467.938 347.844 458 342.13 449.212 337.649C442.182 334.065 436.724 336.617 434.279 338.32Z" fill="#E69180"/>
<path d="M435.851 354.094C436.495 352.725 437.788 348.943 439.694 349.009C440.878 349.249 445.198 349.411 446.184 348.492C447.407 347.352 462.694 353.839 475.687 350.98C477.134 350.169 477.129 350.317 475.917 350.871L475.687 350.98C469.246 354.068 438.358 350.604 435.851 354.094Z" fill="#AC6055"/>
<path d="M458.121 275.26C459.446 275.377 464.325 274.323 466.598 273.782L467.15 273.831C486.834 277.792 503.351 273.498 509.149 270.856L511.163 273.26C485.714 290.491 456.464 275.114 458.121 275.26Z" fill="#5B1204" stroke="#402020"/>
<path d="M466.598 273.782L472.071 255.903C491.527 249.828 502.891 263.999 509.149 270.857C496.52 277.756 475.52 275.682 466.598 273.782Z" fill="url(#paint9_linear_4388_6481)"/>
<path d="M417.534 281.141L416.576 279.387C401.258 286.494 394.602 282.458 393.189 279.551C391.747 280.759 386.135 281.711 383.51 282.036C396.502 291.194 411.606 285.255 417.534 281.141Z" fill="#5B1204" stroke="#402020"/>
<path d="M395.804 262.533C407.004 261.739 414.319 273.439 416.576 279.387C400.414 285.975 394.251 282.241 393.19 279.551C391.371 274.94 394.175 266.284 395.804 262.533Z" fill="url(#paint10_linear_4388_6481)"/>
<path d="M471.437 218.93C463.368 219.554 451.547 233.664 449.853 238.152C466.32 221.798 501.855 229.012 515.579 231.149C502.667 226.116 489.477 217.534 471.437 218.93Z" fill="#F59F94"/>
<path d="M415.992 241.681C406.312 225.248 392.92 231.968 384.031 244.428C386.147 241.461 401.598 237.542 415.992 241.681Z" fill="#F59F94"/>
<path d="M471.437 218.93C463.368 219.554 451.547 233.664 449.853 238.152C466.32 221.798 501.855 229.012 515.579 231.149C502.667 226.116 489.477 217.534 471.437 218.93Z" stroke="#E9A196"/>
<path d="M415.992 241.681C406.312 225.248 392.92 231.968 384.031 244.428C386.147 241.461 401.598 237.542 415.992 241.681Z" stroke="#E9A196"/>
<path d="M445.131 170.181L486.152 138.588L410.208 106.995L356.992 166.856L389.144 203.991C402.448 146.902 422.958 164.639 445.131 170.181Z" fill="#FCCECE"/>
<path d="M368.079 179.604C380.052 153.886 404.665 157.433 414.089 162.422L401.893 170.181L388.589 203.437C375.101 204.73 356.105 205.321 368.079 179.604Z" fill="#F1A39C"/>
<path d="M486.706 166.301C468.968 150.228 454.555 164.639 447.349 169.627L462.316 130.274L503.336 121.406L559.324 154.662L590.921 215.631L593.693 269.948C591.475 263.851 584.823 264.738 558.77 269.948C525.51 276.599 500.508 178.807 486.706 166.301Z" fill="#FCCECE"/>
<path d="M534.933 388.56C528.281 358.408 555.444 312.626 574.846 301.541L597.019 364.172L570.411 411.839L547.683 425.695C546.205 425.88 541.585 418.712 534.933 388.56Z" fill="#FCCECE"/>
<path d="M560.987 510.497C566.9 511.421 581.386 517.37 592.03 533.776" stroke="#FCD1BC"/>
<path d="M539.368 97.0187L463.424 144.131L534.933 88.7048L539.368 97.0187Z" fill="#F1A39C"/>
<path d="M478.307 158.916C484.202 158.916 486.154 168.873 487.536 173.283C493.239 191.487 496.922 210.165 502.838 228.289C506.382 239.151 512.429 248.729 524.001 251.705C527.475 252.598 533.381 253.658 536.747 251.975" stroke="#FCCECE" stroke-width="3" stroke-linecap="round"/>
<path d="M427.442 157.293C421.109 157.293 417.053 156.308 411.299 160.569C404.124 165.883 400.499 175.848 398.583 184.164C395.862 195.971 396.723 208.215 395.937 220.204C394.648 239.866 391.483 262.645 369.002 267.425C361.963 268.922 354.3 269.331 347.177 268.176C345.168 267.851 341.401 266.567 340.864 264.419" stroke="#FCCECE" stroke-width="3" stroke-linecap="round"/>
<path d="M651.343 282.696C633.161 275.602 623.072 234.66 620.3 215.076C618.638 223.944 620.079 249.884 639.148 282.696C662.984 323.711 631.941 342.556 606.442 362.51C586.042 378.472 593.507 390.223 599.79 394.103C614.942 397.613 647.795 406.296 657.995 412.947C668.195 419.599 644.876 437.889 631.941 446.203L639.148 460.06C649.126 453.593 669.636 435.118 671.854 412.947C674.625 385.234 566.53 405.742 620.3 362.51C663.317 327.924 658.919 294.89 651.343 282.696Z" fill="url(#paint11_linear_4388_6481)"/>
<path d="M580.389 413.502C556.925 396.898 567.62 356.276 583.174 337.256C550.841 367.436 565.752 420.447 574.291 417.936C581.83 415.719 599.975 418.86 606.443 420.707C606.886 418.933 585.748 416.642 580.389 413.502Z" fill="url(#paint12_linear_4388_6481)"/>
<path d="M347.568 312.626C319.63 276.71 335.927 229.672 347.568 210.642C309.43 238.577 312.091 274.752 318.189 289.347C331.493 299.693 355.995 328.7 347.568 361.955C337.036 403.525 317.635 387.451 293.798 425.695C274.729 456.291 311.722 479.828 332.602 487.773L339.254 481.121C333.932 481.121 320.776 469.667 314.863 463.939C288.698 438.222 311.721 412.208 326.504 402.416C345.166 387.451 375.507 348.542 347.568 312.626Z" fill="url(#paint13_linear_4388_6481)"/>
<ellipse cx="7.20623" cy="11.0854" rx="7.20623" ry="11.0854" transform="matrix(0.938352 -0.345681 0.345762 0.938322 527.664 162.271)" fill="#FFE4E4"/>
<ellipse cx="4.01227" cy="6.94502" rx="4.01227" ry="6.94502" transform="matrix(0.958776 -0.284164 0.284233 0.958755 553.227 158.051)" fill="#FFE4E4"/>
<ellipse cx="20.7979" cy="3.32564" rx="20.7979" ry="3.32564" transform="matrix(0.913103 -0.40773 0.40782 0.913062 573.183 154.994)" fill="#FFE4E4"/>
<ellipse cx="5.78059" cy="10.0183" rx="5.78059" ry="10.0183" transform="matrix(0.861679 0.507454 -0.507553 0.86162 352.988 128.819)" fill="#FFE5E5"/>
<ellipse cx="7.20609" cy="12.1941" rx="7.20609" ry="12.1941" transform="matrix(0.861679 0.507454 -0.507553 0.86162 369.371 134.708)" fill="#FFE5E5"/>
<path d="M423.626 317.261C423.626 318.565 423.542 319.906 423.657 321.206C423.804 322.871 424.799 323.768 426.079 324.678C427.462 325.662 429.051 326.251 430.603 326.902C430.667 326.929 431.483 327.183 431.456 327.237C431.275 327.599 428.376 326.499 428.082 326.392C426.793 325.921 425.368 325.111 424.654 323.901C423.866 322.565 423.559 320.783 423.497 319.248C423.389 316.619 424.533 314.214 425.683 311.915" stroke="#E6B69C" stroke-width="2" stroke-linecap="round"/>
<path d="M463.999 430.296C461.933 430.237 460.194 429.473 458.268 428.768C455.387 427.713 452.422 426.915 449.565 425.797C448.061 425.208 446.407 424.688 444.896 424.184" stroke="#E6B69C" stroke-width="2" stroke-linecap="round"/>
<path d="M489.215 444.431C490.28 444.194 492.173 442.372 493.184 441.757C494.297 441.079 495.403 440.279 496.771 440.228C502.398 440.02 508.112 439.139 513.752 439.082C520.017 439.019 526.243 438.495 532.303 436.79C535.214 435.972 538.667 435.407 541.176 433.734" stroke="#E6B69C" stroke-width="2" stroke-linecap="round"/>
<path d="M279.651 807.232C244.952 746.451 282.396 716.784 305.455 709.548L307.102 703.346C231.885 730.222 268.67 804.131 275.807 810.85C281.517 816.225 280.749 810.677 279.651 807.232Z" fill="#FFE9A2" stroke="#DAA06A"/>
<path d="M439.033 724.962L440.696 720.528C487.815 790.365 328.721 821.404 322.069 819.741C316.747 818.411 319.852 816.6 322.069 815.861C453.779 793.691 452.707 745.84 439.033 724.962Z" fill="#FCE39B" stroke="#DAA06A"/>
<path d="M340.363 799.233C352.337 796.129 358.287 803.113 359.765 806.993C346.461 814.531 336.113 807.178 332.602 802.559C330.2 802.744 328.389 802.337 340.363 799.233Z" fill="#E5B66C" stroke="#DAA06A"/>
<path d="M253.803 803.577C252.452 791.283 260.219 786.4 264.271 785.495C269.82 799.742 261.055 808.924 255.979 811.734C255.816 814.138 255.154 815.871 253.803 803.577Z" fill="#E5B66C" stroke="#DAA06A"/>
<path d="M254.984 726.023C264.302 717.889 272.749 721.471 275.807 724.279C267.285 736.974 254.74 735.029 249.533 732.47C247.468 733.711 245.667 734.158 254.984 726.023Z" fill="#E5B66C" stroke="#DAA06A"/>
<path d="M283.035 698.166C295.205 695.95 300.625 703.352 301.814 707.33C287.992 713.87 278.213 705.777 275.051 700.912C272.642 700.92 270.866 700.382 283.035 698.166Z" fill="#E5B66C" stroke="#DAA06A"/>
<path d="M247.126 767.039C248.795 754.784 257.514 751.928 261.665 752.032C263.595 767.199 252.866 773.983 247.26 775.48C246.52 777.772 245.457 779.293 247.126 767.039Z" fill="#E5B66C" stroke="#DAA06A"/>
<path d="M425.854 746.303C431.278 735.188 440.453 735.207 444.363 736.606C441.444 751.614 429.129 754.697 423.337 754.362C421.916 756.307 420.43 757.419 425.854 746.303Z" fill="#E5B66C" stroke="#DAA06A"/>
<path d="M410.859 767.305C422.832 764.202 428.782 771.185 430.26 775.065C416.957 782.603 406.609 775.25 403.098 770.631C400.696 770.816 398.885 770.409 410.859 767.305Z" fill="#E5B66C" stroke="#DAA06A"/>
<path d="M379.964 785.075C392.225 783.437 397.289 791.086 398.289 795.116C384.173 800.996 374.788 792.449 371.859 787.441C369.452 787.335 367.704 786.713 379.964 785.075Z" fill="#E5B66C" stroke="#DAA06A"/>
<path d="M283.998 779.098C278.162 768.194 268.993 768.556 265.139 770.101C268.618 784.989 281.04 787.608 286.816 787.057C288.309 788.947 289.835 790.002 283.998 779.098Z" fill="#E5B66C" stroke="#DAA06A"/>
<path d="M282.563 754.723C283.498 742.39 275.571 737.772 271.49 737.004C266.425 751.431 275.495 760.312 280.664 762.949C280.907 765.345 281.628 767.055 282.563 754.723Z" fill="#E5B66C" stroke="#DAA06A"/>
<path d="M296.489 735.623C301.899 724.501 296.229 717.288 292.717 715.072C282.697 726.622 287.86 738.217 291.694 742.572C291.038 744.89 291.079 746.745 296.489 735.623Z" fill="#E5B66C" stroke="#DAA06A"/>
<path d="M465.443 754.213C462.737 742.145 453.807 740.042 449.679 740.498C449.047 755.775 460.315 761.622 466.028 762.635C466.961 764.857 468.149 766.282 465.443 754.213Z" fill="#E5B66C" stroke="#DAA06A"/>
<path d="M448.157 787.356C452.113 775.638 445.574 769.203 441.81 767.45C433.335 780.176 439.927 791.024 444.282 794.857C443.926 797.239 444.201 799.074 448.157 787.356Z" fill="#E5B66C" stroke="#DAA06A"/>
<path d="M412.376 810.989C421.307 802.432 418.489 793.701 415.964 790.405C402.561 797.765 403.383 810.431 405.47 815.845C404.05 817.791 403.445 819.546 412.376 810.989Z" fill="#E5B66C" stroke="#DAA06A"/>
</g>
</g>
<defs>
<radialGradient id="paint0_radial_4388_6481" cx="0" cy="0" r="1" gradientUnits="userSpaceOnUse" gradientTransform="translate(256 232) rotate(55.8885) scale(509.09)">
<stop offset="0.0550116" stop-color="#FFE4E4"/>
<stop offset="0.835012" stop-color="#C2EBFF"/>
</radialGradient>
<radialGradient id="paint1_radial_4388_6481" cx="0" cy="0" r="1" gradientUnits="userSpaceOnUse" gradientTransform="translate(256 232) rotate(55.8885) scale(509.09)">
<stop offset="0.0550116" stop-color="#FFE4E4"/>
<stop offset="0.835012" stop-color="#C2EBFF"/>
</radialGradient>
<radialGradient id="paint2_radial_4388_6481" cx="0" cy="0" r="1" gradientUnits="userSpaceOnUse" gradientTransform="translate(256 232) rotate(54.676) scale(607.921)">
<stop offset="0.325243" stop-color="#C2EBFF" stop-opacity="0"/>
<stop offset="1" stop-color="#FFE4E4"/>
</radialGradient>
<linearGradient id="paint3_linear_4388_6481" x1="646.909" y1="598.625" x2="558.786" y2="721.127" gradientUnits="userSpaceOnUse">
<stop stop-color="#FCCECE"/>
<stop offset="1" stop-color="#FDDBAD"/>
</linearGradient>
<linearGradient id="paint4_linear_4388_6481" x1="332.601" y1="410.73" x2="346.456" y2="875.201" gradientUnits="userSpaceOnUse">
<stop stop-color="#FCCECE"/>
<stop offset="1" stop-color="#FCDBAB"/>
</linearGradient>
<linearGradient id="paint5_linear_4388_6481" x1="503.336" y1="333.134" x2="503.336" y2="502.183" gradientUnits="userSpaceOnUse">
<stop stop-color="#FAC0A7"/>
<stop offset="0.655" stop-color="#FFECDD"/>
</linearGradient>
<radialGradient id="paint6_radial_4388_6481" cx="0" cy="0" r="1" gradientUnits="userSpaceOnUse" gradientTransform="translate(18.4533 15.4933) rotate(90) scale(15.4933 18.4533)">
<stop offset="0.45" stop-color="#F9A19F"/>
<stop offset="1" stop-color="#FFE8D9"/>
</radialGradient>
<radialGradient id="paint7_radial_4388_6481" cx="0" cy="0" r="1" gradientUnits="userSpaceOnUse" gradientTransform="translate(33.948 18.3857) rotate(90) scale(18.3857 33.948)">
<stop offset="0.45" stop-color="#F9A19F"/>
<stop offset="1" stop-color="#FFE8D9"/>
</radialGradient>
<radialGradient id="paint8_radial_4388_6481" cx="0" cy="0" r="1" gradientUnits="userSpaceOnUse" gradientTransform="translate(16.4319 13.5211) rotate(90) scale(13.5211 16.4319)">
<stop offset="0.45" stop-color="#F9A19F"/>
<stop offset="1" stop-color="#FFE8D9"/>
</radialGradient>
<linearGradient id="paint9_linear_4388_6481" x1="489.33" y1="255.811" x2="487.533" y2="276.193" gradientUnits="userSpaceOnUse">
<stop stop-color="#FFECDD"/>
<stop offset="1" stop-color="#FBCEB8"/>
</linearGradient>
<linearGradient id="paint10_linear_4388_6481" x1="405.821" y1="263.224" x2="404.044" y2="283.382" gradientUnits="userSpaceOnUse">
<stop stop-color="#FFECDD"/>
<stop offset="1" stop-color="#EAB8A2"/>
</linearGradient>
<linearGradient id="paint11_linear_4388_6481" x1="633.05" y1="254.983" x2="632.507" y2="460.06" gradientUnits="userSpaceOnUse">
<stop stop-color="#FCCECE"/>
<stop offset="1" stop-color="#F1A39C"/>
</linearGradient>
<linearGradient id="paint12_linear_4388_6481" x1="583.227" y1="420.707" x2="583.227" y2="328.146" gradientUnits="userSpaceOnUse">
<stop stop-color="#F1A39C"/>
<stop offset="1" stop-color="#FCCECE"/>
</linearGradient>
<linearGradient id="paint13_linear_4388_6481" x1="323.69" y1="210.642" x2="323.69" y2="487.773" gradientUnits="userSpaceOnUse">
<stop stop-color="#FCCECE"/>
<stop offset="1" stop-color="#F1A39C"/>
</linearGradient>
</defs>
</svg>
