<svg width="800" height="800" viewBox="0 0 800 800" fill="none" xmlns="http://www.w3.org/2000/svg">
<mask id="mask0_4423_1167" style="mask-type:alpha" maskUnits="userSpaceOnUse" x="0" y="0" width="800" height="800">
<circle cx="400" cy="400" r="400" fill="url(#paint0_radial_4423_1167)"/>
</mask>
<g mask="url(#mask0_4423_1167)">
<circle cx="400" cy="400" r="400" fill="url(#paint1_radial_4423_1167)"/>
<g filter="url(#filter0_d_4423_1167)">
<path d="M435.702 279.056C435.702 163.042 337.06 69 215.345 69C93.6299 69 -5 163.042 -5 279.056C-5 395.071 93.665 489.101 215.345 489.101C337.025 489.101 435.702 395.06 435.702 279.056Z" fill="#F5ECA1"/>
<path opacity="0.2" d="M314.256 155.46C318.373 153.302 323.476 153.973 326.831 157.093C326.831 157.093 330.491 160.503 335.981 165.602C339.969 167.537 343.793 169.594 347.441 171.775C351.078 173.967 354.538 176.281 357.811 178.73C377.002 192.07 389.741 215.016 394.152 235.703C394.774 239.606 395.149 243.642 395.243 247.791C395.349 251.951 395.184 256.222 394.739 260.628C395.313 264.765 393.331 268.333 390.234 270.379C387.149 272.425 382.95 272.951 379.114 270.972C379.114 270.972 374.398 268.59 367.899 265.906C314.631 267.136 322.221 212.925 312.578 178.987C310.526 171.82 309.13 167.079 309.13 167.079C307.792 162.539 309.916 157.719 314.256 155.438V155.46Z" fill="#AEA290"/>
<path opacity="0.15" d="M212.178 104.939C218.407 104.47 225.574 104.47 223.181 111.302C220.788 129.518 184.963 147.733 213.632 165.949C227.967 175.051 247.076 181.884 252.003 199.943C252.836 203.387 253.141 206.865 253.023 210.342C252.601 220.82 248.484 231.331 238.595 241.742C235.557 243.967 232.19 245.79 228.636 247.299C217.961 251.806 205.585 253.427 195.145 254.377C191.368 254.802 187.532 255.104 183.685 255.25C177.913 255.462 172.107 255.294 166.546 254.668C163.766 254.355 161.045 253.93 158.417 253.371C146.734 250.184 132.411 243.352 137.185 229.687C138.98 226.836 140.915 224.141 142.968 221.502C145.021 218.874 147.179 216.313 149.35 213.775C151.086 212.064 153.279 209.917 155.379 207.603C157.479 205.288 159.473 202.794 160.787 200.368C163.461 184.142 144.352 188.705 135.684 189.118C132.141 189.711 128.622 190.404 125.243 190.975C115.097 192.686 106.134 193.256 101.36 186.424C86.7323 167.492 93.5829 152.933 109.008 141.639C111.577 139.761 114.393 137.96 117.419 136.249C144.364 122.674 170.64 113.561 200.025 106.281C205.057 105.465 209.104 105.029 212.19 104.928L212.178 104.939Z" fill="#C5B6A2"/>
<path opacity="0.08" d="M368.005 364.499C366.421 367.328 364.697 370.157 362.843 372.953C360.99 375.748 358.996 378.499 356.884 381.216C338.596 409.898 302.772 423.552 269.328 412.168C250.219 405.336 250.219 380.288 262.161 371.186C276.495 357.521 293.211 382.569 309.927 380.288C326.643 378.007 336.204 359.791 353.037 352.668C356.38 351.74 359.606 351.606 362.644 352.623C365.694 353.663 368.568 355.855 371.219 359.612C370.867 361.178 369.823 362.833 367.993 364.499H368.005Z" fill="#C5B6A2"/>
<path opacity="0.09" d="M96.0812 238.297C95.9169 244.078 93.7116 249.614 88.9139 253.326C87.9754 254.053 86.9197 254.69 85.7349 255.193C84.4798 255.786 83.1659 256.267 81.8169 256.647C75.107 258.537 67.3885 257.821 60.9132 254.981C59.9162 254.511 58.9542 253.952 58.0392 253.326C57.1242 252.7 56.268 252.006 55.4938 251.246C47.5171 243.452 47.5874 229.452 53.9453 220.797C58.2973 214.859 65.7696 211.896 73.066 212.366C74.5323 212.455 75.9868 212.69 77.4062 213.059C78.9546 213.316 80.3507 213.697 81.6293 214.2C82.9079 214.692 84.0575 215.307 85.1132 216.011C92.0459 220.618 96.304 229.721 96.0694 238.286L96.0812 238.297Z" fill="#AEA290"/>
<path opacity="0.2" d="M172.201 388.809C130.792 380.288 116.458 350.689 111.097 314.593C108.868 312.256 106.499 309.975 104.047 307.738C99.7654 303.087 96.563 299.598 96.563 299.598C91.5306 294.119 84.4336 290.742 76.8205 290.194C58.2512 288.852 43.119 304.194 45.6762 321.783C45.6762 321.783 45.9577 323.729 46.38 326.647C46.8023 329.566 47.377 333.457 47.9401 337.36C47.8697 341.43 48.2569 345.288 49.0428 348.967C49.8405 352.679 51.0371 356.213 52.5972 359.612C54.2043 362.039 55.9169 364.488 57.7352 366.937C59.5534 369.385 61.4771 371.834 63.5065 374.261C78.2399 398.515 104.516 409.898 129.49 421.986C133.397 423.227 137.373 424.234 141.397 424.972C153.479 427.186 166.019 426.973 178.559 423.552C185.726 421.271 192.894 419.001 195.275 412.168C195.275 408.758 192.882 406.477 190.219 404.195C187.556 401.914 184.6 399.633 183.427 396.234C180.565 393.807 176.905 391.28 172.201 388.809Z" fill="#AEA290"/>
</g>
<path fill-rule="evenodd" clip-rule="evenodd" d="M329.623 100L330.362 100.217C336.804 102.113 344.913 105.406 353.916 110.259C374.58 95.0927 443.851 129.717 462.125 144.927C467.35 149.313 471.75 153.832 475.424 158.429C490.945 146.357 537.648 141.753 561.988 140.964C524.671 146.262 503.124 156.446 492.072 164.965C510.649 165.55 545.432 203.195 561.418 223.183C544.962 206.804 530.508 196.4 518.656 190.011C544.159 216.863 554.412 257.649 503.79 309.269C522.82 375.092 599.678 524.383 622.808 545.498C628.668 550.847 632.73 559.313 635.506 569.915L636.85 568.159L638.26 566.315C648.511 523.128 676.403 472.527 736.111 424.626C744.732 417.71 757.569 418.876 764.783 427.232C766.198 428.87 767.291 430.663 768.07 432.54C767.651 438.489 767.101 444.402 766.424 450.276C765.318 451.973 763.919 453.532 762.235 454.883C663.577 534.033 669.053 614.635 679.605 640.143L680.664 642.703L680.954 645.441C681.241 648.137 681.504 650.822 681.744 653.496C608.448 745.231 495.623 804 369.072 804C257.989 804 157.481 758.719 85 685.608C105.433 626.078 129.154 567.258 151.747 511.236C188.373 420.419 222.032 336.958 233.904 269.753C235.79 255.963 238.135 243.876 240.85 233.326C241.533 204.903 249.445 166.209 279.907 142.208C291.683 126.39 307.922 110.461 328.929 100.335L329.623 100ZM769.072 443.99C769.676 441.276 769.682 438.449 769.072 435.709V443.99ZM640.604 658.669L641.417 659.311C641.218 656.956 641.001 654.592 640.765 652.218C640.716 654.366 640.661 656.517 640.604 658.669Z" fill="#1D2829" fill-opacity="0.64" style="mix-blend-mode:hard-light"/>
<mask id="mask1_4423_1167" style="mask-type:alpha" maskUnits="userSpaceOnUse" x="115" y="98" width="685" height="704">
<path fill-rule="evenodd" clip-rule="evenodd" d="M359.623 98L360.362 98.2174C366.804 100.113 374.913 103.406 383.916 108.259C404.58 93.0927 473.851 127.717 492.125 142.927C497.35 147.313 501.75 151.832 505.424 156.429C520.945 144.357 567.648 139.753 591.988 138.964C554.671 144.262 533.124 154.446 522.072 162.965C540.649 163.55 575.432 201.195 591.418 221.183C574.962 204.804 560.508 194.4 548.656 188.011C574.159 214.863 584.412 255.649 533.79 307.269C552.82 373.092 629.678 522.383 652.808 543.498C658.668 548.847 662.73 557.313 665.506 567.915L666.85 566.159L668.26 564.315C678.511 521.128 706.403 470.527 766.111 422.626C774.732 415.71 787.569 416.876 794.783 425.232C796.198 426.87 797.291 428.663 798.07 430.54C797.651 436.489 797.101 442.402 796.424 448.276C795.318 449.973 793.919 451.532 792.235 452.883C693.577 532.033 699.053 612.635 709.605 638.143L710.664 640.703L710.954 643.441C711.241 646.137 711.504 648.822 711.744 651.496C638.448 743.231 525.623 802 399.072 802C287.989 802 187.481 756.719 115 683.608C135.433 624.078 159.154 565.258 181.747 509.236C218.373 418.419 252.032 334.958 263.904 267.753C265.79 253.963 268.135 241.876 270.85 231.326C271.533 202.903 279.445 164.209 309.907 140.208C321.683 124.39 337.922 108.461 358.929 98.3345L359.623 98ZM799.072 441.99C799.676 439.276 799.682 436.449 799.072 433.709V441.99ZM670.604 656.669L671.417 657.311C671.218 654.956 671.001 652.592 670.765 650.218C670.716 652.366 670.661 654.517 670.604 656.669Z" fill="#EAC79B"/>
</mask>
<g mask="url(#mask1_4423_1167)">
<path d="M629.313 682.173C669.313 736.983 724.902 866.888 709.45 948.032C690.135 1049.46 627.669 1087.9 682.737 1096.61C736.51 1105.12 760.502 1086.43 760.071 1070.79C760.048 1070.42 760.024 1070.04 759.997 1069.67C760.036 1070.04 760.061 1070.42 760.071 1070.79C762.289 1107.71 746.767 1172.07 666.71 1142.57C585.834 1112.78 462.875 926.241 411.506 836.696L512.601 596.591L629.313 682.173Z" fill="#381D1A"/>
<path fill-rule="evenodd" clip-rule="evenodd" d="M792.163 452.883C693.505 532.033 698.981 612.635 709.533 638.143L710.592 640.703L710.883 643.441C728.739 811.656 656.492 936.991 615.965 980.37L614.169 982.293L611.914 983.697C577.111 1005.36 547.87 1039.32 525.319 1074.1C502.848 1108.75 487.932 1142.79 481.213 1162.96L480.624 1164.73L479.702 1166.36C438.714 1238.69 376.064 1288.93 315.224 1322.31C254.807 1355.46 195.045 1372.62 157.319 1378.3C54.9037 1399.65 4.07766 1479.56 -8.1053 1515.61C-11.5846 1525.9 -23.0705 1531.48 -33.7598 1528.07C-44.4491 1524.66 -50.294 1513.55 -46.8147 1503.25C-31.6187 1458.28 28.1473 1364.71 149.167 1339.77L149.742 1339.66L150.323 1339.57C183.15 1334.7 238.524 1319.11 294.959 1288.14C350.834 1257.48 406.625 1212.38 443.067 1148.94C451.027 1125.65 467.126 1089.61 490.778 1053.14C514.518 1016.53 546.749 978.119 587.339 952.158C621.354 914.377 685.965 801.993 670.649 649.773C654.102 605.56 657.579 509.639 766.039 422.626C774.66 415.71 787.497 416.876 794.711 425.232C801.925 433.587 800.785 445.967 792.163 452.883Z" fill="#F09562"/>
<path fill-rule="evenodd" clip-rule="evenodd" d="M755.413 457.557C549.948 722.527 144.893 1263.68 -31.957 1501.15L-35.1651 1498.76C141.682 1261.3 546.76 720.111 752.252 455.106L755.413 457.557Z" fill="#FFF2C3"/>
<path d="M258.631 356.877C258.631 206.716 292.466 166.035 323.562 167.091C323.562 167.091 472.739 237.617 506.027 237.617C539.314 237.617 524.109 376.295 534.794 395.71C545.479 415.124 586.985 458.707 594.794 497.536C602.602 536.365 621.506 621.944 621.506 621.944L421.781 512.193L209.187 578.57C200.599 587.912 193.541 589.311 190.823 584.303L209.187 578.57C229.59 556.374 258.631 489.342 258.631 356.877Z" fill="#381D1A"/>
<path d="M532.326 302.204C548.628 365.07 628.992 521.822 652.737 543.498C691.365 578.761 651.915 749.529 680.271 774.49C708.627 799.452 780.545 883.449 764.928 961.503C749.953 1036.35 645.03 1093.72 661.451 1107.03C662.413 1107.54 663.345 1108.03 664.242 1108.5C663.079 1108.09 662.154 1107.6 661.451 1107.03C638.329 1094.72 597.798 1069.04 600.955 1053.82C605.064 1034.01 821.229 994.785 730.819 917.523C640.408 840.262 602.189 824.017 623.97 774.49C645.751 724.964 661.367 624.326 611.23 628.288C561.094 632.25 501.505 335.486 532.326 302.204Z" fill="#5A2F30"/>
<path d="M503.149 157.982C517.084 170.978 514.613 219.923 511.635 242.772L503.149 327.561L517.441 322.41C618.557 235.878 550.045 176.736 503.149 157.982Z" fill="#5A2F30"/>
<path d="M136.576 997.559C53.3983 857.775 153.425 641.099 213.836 550.234L320.685 653.25L224.932 1089.48C188.768 1080.92 150.96 1024.63 136.576 997.559Z" fill="#381D1A"/>
<path d="M123.832 1036.39C52.1609 953.975 59.8667 895.336 72.4643 836.696C113.467 626.805 243.299 403.357 265.205 259.414C323.086 580.032 207.669 621.949 136.574 741.209C79.6971 836.617 175.201 1044.31 218.763 1102.95L123.832 1036.39Z" fill="#5A2F30"/>
<path d="M207.26 627.891C194.439 514.098 251.643 497.801 278.766 490.801L252.876 627.891L283.672 823.224L216.275 965.464L207.26 627.891Z" fill="#FFEDDC"/>
<path d="M606.299 603.749C603.737 597.897 554.108 476.934 507.26 503.877L418.083 648.099L525.343 688.908C525.343 688.908 524.003 643.302 538.936 642.456C553.869 641.61 683.307 764.14 678.919 749.668C674.532 735.197 750.571 719.169 750.571 719.169C750.571 719.169 608.861 609.601 606.299 603.749Z" fill="#FFEDDC"/>
<path d="M435.341 446.03C420.957 430.578 435.341 374.316 435.341 374.316H432.464L351.916 394.919C351.916 394.919 360.546 451.577 341.231 461.482C321.917 471.388 273.835 493.972 273.835 493.972L341.231 574.799L542.6 493.972C542.6 493.972 449.724 461.482 435.341 446.03Z" fill="#FFD8C8"/>
<path d="M333.424 465.443L369.269 586.055L390.547 607.175L264.187 719.812C210.691 660.18 242.132 544.011 271.37 492.385L333.424 465.443Z" fill="url(#paint2_linear_4423_1167)"/>
<path d="M492.053 655.627C495.341 681.935 525.067 683.494 535.614 679.003L504.793 739.624L485.478 757.85L492.053 655.627Z" fill="#FCFCFC"/>
<path d="M300.548 327.957L289.452 262.219C289.452 262.219 289.452 174.26 336.712 159.996C383.972 145.733 501.917 211.9 501.917 211.9L493.287 262.219C496.988 256.522 505.615 251.885 513.013 262.219C520.41 272.554 510.958 317.656 493.287 322.047C478.63 325.69 477.826 323.29 477.978 322.365L471.917 341.066C440.325 392.567 401.643 410.37 378.63 410.37C355.616 410.37 304.246 362.428 300.548 327.957Z" fill="#FFEFE2"/>
<path d="M250.822 705.549C376.033 476.321 508.492 474.953 508.492 474.953L527.807 490.802C471.588 525.351 500.41 719.548 508.492 810.149L275.068 820.054L250.822 705.549Z" fill="#FCFCFC"/>
<path d="M406.574 177.794L363.012 163.927L357.67 129.06L401.642 136.984L406.574 177.794Z" fill="#5A2F30"/>
<path d="M216.379 1235.81C190.102 1204.93 147.362 1223.87 149.828 1200.81C152.293 1177.75 248.85 851.754 248.85 851.754L264.379 779.727L497.178 739.625L708.627 1219.36C708.627 1219.36 672.906 1229.88 650.735 1219.36C628.564 1208.83 574.778 1177.75 522.224 1177.75C469.669 1177.75 497.178 1235.81 354.707 1253.44C329.977 1256.5 249.226 1274.41 216.379 1235.81Z" fill="white"/>
<path d="M220.411 1301.45L278.356 856.503L447.67 739.625L533.56 1269.28C423.424 1267.8 278.904 1290.11 220.411 1301.45Z" fill="url(#paint3_linear_4423_1167)"/>
<path fill-rule="evenodd" clip-rule="evenodd" d="M450.594 517.793C451.443 518.5 451.558 519.761 450.851 520.61C424.034 552.795 383.125 605.239 347.575 657.934C329.8 684.282 313.383 710.664 300.742 734.59C288.077 758.56 279.289 779.9 276.631 796.208C276.454 797.298 275.426 798.038 274.336 797.86C273.245 797.682 272.506 796.655 272.683 795.564C275.45 778.59 284.495 756.776 297.205 732.722C309.938 708.623 326.439 682.111 344.259 655.697C379.901 602.867 420.895 550.314 447.778 518.049C448.485 517.201 449.746 517.086 450.594 517.793ZM468.506 544.608C469.425 545.221 469.673 546.462 469.06 547.381C448.748 577.845 414.007 633.846 384.061 687.135C369.088 713.78 355.33 739.718 345.177 761.431C340.1 772.288 335.937 782.063 332.976 790.325C330 798.629 328.294 805.255 328.024 809.87C327.959 810.973 327.013 811.815 325.91 811.75C324.807 811.686 323.966 810.739 324.03 809.637C324.336 804.426 326.207 797.356 329.211 788.975C332.229 780.553 336.448 770.656 341.554 759.736C351.767 737.895 365.578 711.86 380.574 685.175C410.567 631.803 445.36 575.715 465.732 545.162C466.345 544.243 467.587 543.995 468.506 544.608Z" fill="#E1E7F2"/>
<path d="M540.957 854.129H247.123L257.808 736.85C274.904 748.578 430.136 741.737 505.615 736.85C505.615 749.529 529.177 820.319 540.957 854.129Z" fill="#F6E6A3"/>
<path fill-rule="evenodd" clip-rule="evenodd" d="M256.126 733.271L258.94 735.201C259.742 735.751 261.105 736.341 263.124 736.912C265.112 737.475 267.605 737.985 270.572 738.441C276.505 739.352 284.19 740.024 293.229 740.488C311.298 741.416 334.611 741.508 359.784 741.081C410.122 740.227 467.766 737.296 505.486 734.854L507.615 734.717V736.85C507.615 738.212 507.943 740.529 508.609 743.737C509.265 746.9 510.221 750.797 511.413 755.253C513.795 764.161 517.099 775.224 520.777 786.968C528.132 810.45 536.96 836.579 542.846 853.471L543.772 856.129H244.933L256.126 733.271ZM259.535 739.94L249.314 852.129H538.145C532.276 835.208 523.955 810.498 516.96 788.163C513.275 776.398 509.952 765.273 507.549 756.286C506.347 751.794 505.37 747.816 504.692 744.549C504.25 742.419 503.922 740.532 503.75 738.974C465.974 741.392 409.394 744.239 359.852 745.08C334.645 745.508 311.227 745.417 293.023 744.482C283.925 744.015 276.089 743.335 269.965 742.395C266.904 741.925 264.236 741.384 262.034 740.761C261.143 740.509 260.305 740.237 259.535 739.94Z" fill="#FFF2C3"/>
<path d="M569.724 528.664L559.533 507.99C554.736 490.751 489.989 464.594 458.215 453.67L442.328 448.805C450.001 534.096 530.456 537.582 569.724 528.664Z" fill="url(#paint4_linear_4423_1167)"/>
<path d="M561.506 508.042C552.487 490.934 519.641 456.085 460.411 453.558C467.25 480.274 497.043 528.572 561.506 508.042Z" fill="url(#paint5_linear_4423_1167)"/>
<path fill-rule="evenodd" clip-rule="evenodd" d="M457.805 451.445L458.473 454.054C461.973 467.726 471.325 486.907 488.114 500.09C505.016 513.363 529.274 520.406 562.113 509.948L564.39 509.223L563.275 507.11C553.959 489.438 520.509 454.12 460.496 451.56L457.805 451.445ZM558.549 506.859C528.138 515.863 506.01 509.058 490.585 496.944C475.698 485.254 466.895 468.489 463.08 455.699C517.43 458.99 548.502 489.954 558.549 506.859Z" fill="#FFF2C3"/>
<g filter="url(#filter1_f_4423_1167)">
<path d="M406.985 324.393C406.985 335.771 388.954 344.996 366.711 344.996C344.469 344.996 326.437 335.771 326.437 324.393C326.437 313.014 344.469 303.789 366.711 303.789C388.954 303.789 406.985 313.014 406.985 324.393Z" fill="#FFDCCB"/>
</g>
<path fill-rule="evenodd" clip-rule="evenodd" d="M367.771 324.818C366.692 324.581 365.625 325.263 365.388 326.342C364.979 328.2 363.83 330.547 362.514 332.866C361.893 333.959 361.264 334.998 360.696 335.934C360.674 335.971 360.652 336.007 360.631 336.043C360.063 336.98 359.529 337.863 359.183 338.529C358.675 339.51 359.057 340.717 360.038 341.226C361.019 341.734 362.226 341.351 362.734 340.371C363.005 339.849 363.457 339.097 364.052 338.115C364.076 338.075 364.1 338.035 364.125 337.995C364.687 337.066 365.343 335.984 365.992 334.841C367.319 332.504 368.745 329.701 369.295 327.201C369.532 326.122 368.85 325.055 367.771 324.818ZM361.479 344.111C360.771 344.958 360.883 346.22 361.731 346.928L367.895 352.079C368.743 352.787 370.004 352.674 370.713 351.826C371.421 350.979 371.308 349.718 370.46 349.009L364.296 343.859C363.448 343.15 362.187 343.263 361.479 344.111Z" fill="#E1B6A5"/>
<path fill-rule="evenodd" clip-rule="evenodd" d="M358.791 274.18C357.974 274.923 357.914 276.188 358.657 277.005C362.043 280.726 365.259 284.683 367.237 289.784C369.2 294.846 369.999 301.188 368.259 309.73C368.038 310.813 368.737 311.869 369.819 312.089C370.901 312.31 371.958 311.611 372.178 310.529C374.054 301.321 373.237 294.192 370.967 288.338C368.712 282.524 365.08 278.12 361.616 274.313C360.873 273.496 359.608 273.436 358.791 274.18Z" fill="#E1B6A5"/>
<path d="M294.795 295.469C299.793 264.997 340.475 182.319 364.658 162.737L366.577 114.985L333.1 126.878C257.398 157.185 269.909 256.084 274.248 266.545C283.288 288.337 292.322 293.701 294.795 295.469Z" fill="#5A2F30"/>
<path d="M457.122 248.512C414.711 244.075 401.095 193.042 399.588 168.081L381.506 110.437C398.601 90.1511 473.012 127.078 492.053 142.927C540.382 183.499 518.08 235.377 504.382 256.244C497.058 254.983 490.723 264.087 488.646 270.39C488.557 271.673 488.328 273.032 487.944 274.47C487.86 273.444 488.112 272.009 488.646 270.39C489.771 254.126 468.422 249.859 457.122 248.512Z" fill="#5A2F30"/>
<path d="M477.481 795.572C460.623 791.548 454.635 785.662 449.398 769.392C446.283 785.89 440.719 792.115 422.244 796.467C440.829 800.753 446.25 807.058 450.327 822.647C455.666 807.538 458.806 799.194 477.481 795.572Z" fill="#FFF2C3"/>
<path d="M359.726 100.136C318.301 120.105 295.616 163.134 289.452 182.152C328.246 143.799 355.479 139.229 364.246 141.738C416.849 143.64 462.054 201.435 478.081 230.094C453.424 146.731 388.904 108.721 359.726 100.136Z" fill="url(#paint6_linear_4423_1167)"/>
<path fill-rule="evenodd" clip-rule="evenodd" d="M359.551 98L360.29 98.2174C389.993 106.957 455.115 145.396 479.999 229.527L476.336 231.07C468.41 216.897 453.228 195.459 433.526 177.355C413.794 159.222 389.782 144.663 364.174 143.737L363.93 143.728L363.696 143.661C359.964 142.593 351.486 142.91 338.916 148.452C326.432 153.956 310.122 164.529 290.858 183.574L287.549 181.535C293.806 162.233 316.755 118.63 358.857 98.3345L359.551 98ZM359.899 102.276C324.731 119.541 303.347 153.775 294.456 174.596C311.246 159.064 325.728 149.895 337.302 144.792C350.034 139.178 359.458 138.398 364.553 139.749C391.457 140.804 416.263 156.058 436.233 174.409C450.29 187.327 462.076 201.893 470.658 214.439C443.458 143.742 386.909 110.52 359.899 102.276Z" fill="#FFF2C3"/>
<path d="M511.262 771.671L571.262 829.518C588.523 864.384 576.604 879.045 571.262 889.742C566.988 898.301 533.591 872.177 517.426 858.045L474.687 841.404C465.509 834.933 445.755 820.643 440.166 815.254C434.577 809.866 434.55 797.161 435.235 791.482C447.728 787.044 491.125 795.444 511.262 800.198L494.824 783.161C483.728 776.425 445.92 764.935 452.906 758.992C458.495 754.237 494.139 765.463 511.262 771.671Z" fill="#FFEDDC"/>
<path opacity="0.9" d="M395.479 369.562C387.997 364.778 370.289 358.081 359.315 369.562C368.875 371.356 389.493 373.868 395.479 369.562Z" fill="#FCD9CC"/>
<path d="M397.122 272.092C414.424 269.453 451.303 264.411 460.409 265.362C445.991 263.514 402.13 262.59 397.122 272.092Z" fill="#402020"/>
<path d="M354.51 271.632C339.732 266.094 308.113 254.864 299.86 254.245C312.997 254.888 352.008 261.454 354.51 271.632Z" fill="#402020"/>
<path fill-rule="evenodd" clip-rule="evenodd" d="M355.885 368.659C356.383 367.673 357.586 367.277 358.572 367.775C362.444 369.731 368 370.433 374.776 370.433C380.524 370.433 386.903 369.935 393.535 369.417C394.673 369.328 395.819 369.238 396.97 369.151C398.072 369.067 399.032 369.892 399.116 370.993C399.2 372.095 398.375 373.055 397.274 373.139C396.141 373.225 395.008 373.314 393.876 373.403C387.255 373.92 380.694 374.433 374.776 374.433C367.888 374.433 361.527 373.749 356.769 371.346C355.783 370.848 355.387 369.645 355.885 368.659Z" fill="#E1B6A5"/>
<path d="M364.228 225.685C319.845 223.466 329.845 180.913 340.393 159.914C350.685 155.951 339.612 187.252 367.534 188.837C395.456 190.422 394.675 171.404 405.753 161.102C421.387 169.422 419.708 228.458 364.228 225.685Z" fill="url(#paint7_linear_4423_1167)"/>
<path d="M591.916 138.964C537.282 146.721 516.452 164.95 512.865 173.095C506.317 176.327 494.717 178.68 500.704 162.235C506.691 145.79 564.007 139.869 591.916 138.964Z" fill="#5A2F30"/>
<path d="M591.346 221.183C552.925 182.94 525.414 177.272 516.461 179.219C509.917 175.979 501.164 168.271 518.509 163.36C535.853 158.448 574.294 199.862 591.346 221.183Z" fill="#381D1A"/>
<path fill-rule="evenodd" clip-rule="evenodd" d="M343.699 276.387C347.859 278.179 351.494 280.644 353.607 282.401C354.457 283.107 354.573 284.368 353.867 285.218C353.161 286.067 351.9 286.183 351.05 285.477C349.192 283.932 345.881 281.682 342.116 280.061C338.308 278.42 334.341 277.554 331.017 278.355C329.943 278.614 328.863 277.954 328.604 276.88C328.345 275.806 329.006 274.726 330.079 274.467C334.645 273.366 339.583 274.614 343.699 276.387Z" fill="#EAC6B8"/>
<path d="M362.491 298.251C352.926 288.866 328.366 273.061 306.644 284.916C315.505 299.571 339.08 322.755 362.491 298.251Z" fill="white"/>
<mask id="mask2_4423_1167" style="mask-type:alpha" maskUnits="userSpaceOnUse" x="306" y="280" width="57" height="29">
<path d="M362.491 298.25C352.926 288.866 328.365 273.061 306.644 284.916C315.505 299.571 339.079 322.755 362.491 298.25Z" fill="white"/>
</mask>
<g mask="url(#mask2_4423_1167)">
<path d="M365.21 290.897C366.421 299.897 359.698 308.123 350.195 309.27C340.691 310.416 332.005 304.05 330.794 295.05C329.583 286.05 336.305 277.824 345.809 276.677C355.313 275.531 363.999 281.897 365.21 290.897Z" fill="#565E63"/>
</g>
<path d="M302.191 282.802C329.009 264.711 353.703 286.06 362.601 298.368C324.586 271.841 311.669 286.82 308.54 287.197C306.037 287.499 303.259 284.178 302.191 282.802Z" fill="#402020"/>
<path d="M298.492 278.132L303.013 283.969L314.201 280.257L298.492 278.132Z" fill="#402020"/>
<path d="M405.685 296.097C415.163 287.607 439.562 273.45 461.34 284.742C452.605 298.101 429.246 319.076 405.685 296.097Z" fill="white"/>
<mask id="mask3_4423_1167" style="mask-type:alpha" maskUnits="userSpaceOnUse" x="405" y="280" width="57" height="27">
<path d="M405.685 296.097C415.163 287.607 439.562 273.45 461.34 284.742C452.605 298.101 429.246 319.076 405.685 296.097Z" fill="white"/>
</mask>
<g mask="url(#mask3_4423_1167)">
<path d="M418.915 291.828C417.775 300.103 424.55 307.798 434.047 309.014C443.544 310.231 452.168 304.508 453.308 296.233C454.448 287.957 447.673 280.263 438.176 279.046C428.679 277.83 420.055 283.553 418.915 291.828Z" fill="#565E63"/>
</g>
<path d="M465.768 282.869C438.855 265.745 414.364 285.009 405.574 296.205C443.325 272.391 456.336 286.414 459.463 286.814C461.964 287.135 464.712 284.12 465.768 282.869Z" fill="#402020"/>
<path d="M469.431 278.583L465.753 282.789L453.71 280.666L469.431 278.583Z" fill="#402020"/>
<path fill-rule="evenodd" clip-rule="evenodd" d="M421.632 275.707C422.7 275.99 423.335 277.086 423.052 278.153C422.927 278.623 422.914 279.266 423.094 279.704C423.17 279.887 423.269 280.014 423.407 280.112C423.548 280.212 423.836 280.356 424.403 280.401C425.504 280.487 426.327 281.451 426.24 282.552C426.153 283.653 425.189 284.475 424.088 284.388C422.935 284.297 421.924 283.963 421.095 283.376C420.263 282.786 419.722 282.018 419.397 281.23C418.776 279.726 418.919 278.128 419.186 277.126C419.469 276.059 420.564 275.423 421.632 275.707Z" fill="#402020"/>
<path fill-rule="evenodd" clip-rule="evenodd" d="M343.846 274.915C342.779 275.199 342.143 276.294 342.427 277.362C342.551 277.831 342.564 278.475 342.384 278.912C342.308 279.095 342.209 279.223 342.071 279.32C341.93 279.42 341.642 279.564 341.075 279.609C339.974 279.696 339.152 280.659 339.238 281.76C339.325 282.861 340.289 283.684 341.39 283.597C342.543 283.506 343.554 283.171 344.383 282.584C345.215 281.995 345.756 281.226 346.081 280.439C346.702 278.935 346.559 277.337 346.292 276.335C346.009 275.267 344.914 274.632 343.846 274.915Z" fill="#402020"/>
<path fill-rule="evenodd" clip-rule="evenodd" d="M497.896 272.09C496.799 273.764 495.836 275.621 495.119 277.255C494.675 278.267 493.495 278.727 492.484 278.283C491.472 277.839 491.012 276.659 491.456 275.648C492.246 273.848 493.31 271.789 494.55 269.897C495.773 268.032 497.25 266.199 498.898 264.979C500.548 263.757 502.737 262.907 505.034 263.883C507.171 264.791 508.743 267.033 509.95 270.191C510.344 271.222 509.827 272.379 508.796 272.773C507.764 273.167 506.608 272.65 506.213 271.618C505.119 268.754 504.068 267.819 503.47 267.565C503.033 267.379 502.376 267.381 501.279 268.193C500.181 269.006 499.01 270.39 497.896 272.09Z" fill="#EAC6B8"/>
<path fill-rule="evenodd" clip-rule="evenodd" d="M508.343 285.959C509.438 286.104 510.208 287.109 510.063 288.204C509.635 291.438 508.552 296.461 506.668 301.122C504.833 305.661 502.021 310.414 497.819 312.343C495.355 313.475 493.258 313.739 491.42 313.569C489.928 313.432 488.632 312.997 487.693 312.682C487.527 312.626 487.372 312.575 487.229 312.529C486.156 312.184 485.807 312.191 485.547 312.288C485.256 312.397 484.578 312.825 483.517 314.686C482.969 315.646 481.748 315.98 480.788 315.432C479.829 314.885 479.495 313.664 480.042 312.704C481.241 310.603 482.515 309.15 484.15 308.54C485.817 307.919 487.369 308.372 488.453 308.72C488.66 308.787 488.859 308.853 489.052 308.917C489.987 309.227 490.795 309.495 491.788 309.586C492.904 309.689 494.3 309.557 496.15 308.708C498.853 307.467 501.178 304.032 502.959 299.623C504.692 295.337 505.704 290.653 506.098 287.679C506.243 286.584 507.248 285.814 508.343 285.959Z" fill="#EAC6B8"/>
<path d="M499.039 322.808C499.039 327.622 496.095 331.524 492.464 331.524C488.832 331.524 485.889 327.622 485.889 322.808C485.889 317.994 488.832 314.091 492.464 314.091C496.095 314.091 499.039 317.994 499.039 322.808Z" fill="#EAC78B"/>
<path d="M566.438 839.864C594.711 850.324 659.588 746.914 685.204 719.971C670.41 698.417 726.711 705.707 756.711 712.047C761.642 721.556 765.341 752.461 762.053 768.705C759.423 781.701 614.93 866.938 566.438 892.956V839.864Z" fill="#FFEDDC"/>
<path d="M486.063 384.221C474.885 380.417 478.392 334.826 481.543 312.506C448.995 366.391 472.912 383.56 488.94 385.409C492.638 386.598 497.241 388.024 486.063 384.221Z" fill="#5A2F30"/>
<path d="M299.489 365.202C288.311 361.399 291.818 315.808 294.968 293.488C262.421 347.373 286.338 364.542 302.366 366.391C306.064 367.58 310.667 369.006 299.489 365.202Z" fill="#5A2F30"/>
<path d="M592.328 570.442C576.876 568.857 557.122 624.59 551.643 650.873L605.889 693.267L629.314 620.759C620.437 619.492 601.917 586.158 592.328 570.442Z" fill="url(#paint8_linear_4423_1167)"/>
<path d="M373.979 122.15C365.56 120.141 362.57 117.201 359.955 109.077C358.4 117.315 355.621 120.424 346.395 122.597C355.676 124.737 358.383 127.886 360.419 135.67C363.085 128.126 364.653 123.959 373.979 122.15Z" fill="#FFF2C3"/>
<path d="M320.496 797.155C303.638 793.131 297.65 787.245 292.413 770.975C289.298 787.473 283.734 793.698 265.259 798.05C283.844 802.336 289.265 808.641 293.342 824.23C298.681 809.121 301.821 800.777 320.496 797.155Z" fill="#FFF2C3"/>
<path d="M424.057 796.363C407.199 792.34 401.211 786.453 395.974 770.184C392.86 786.682 387.295 792.906 368.821 797.259C387.405 801.544 392.826 807.85 396.903 823.438C402.242 808.33 405.383 799.985 424.057 796.363Z" fill="#FFF2C3"/>
<path d="M373.098 797.155C356.24 793.131 350.252 787.245 345.015 770.975C341.9 787.473 336.336 793.698 317.861 798.05C336.445 802.336 341.866 808.641 345.944 824.23C351.283 809.121 354.423 800.777 373.098 797.155Z" fill="#FFF2C3"/>
<path fill-rule="evenodd" clip-rule="evenodd" d="M434.621 799.019C434.86 797.94 435.927 797.26 437.006 797.499L497.827 810.97C498.906 811.209 499.587 812.277 499.348 813.355C499.109 814.433 498.041 815.114 496.963 814.875L436.141 801.404C435.062 801.165 434.382 800.097 434.621 799.019Z" fill="#E1B6A5"/>
</g>
<path d="M746 364.5C726.251 359.257 719.327 351.956 713.5 332C709.497 352.069 702.823 359.555 681 364.5C702.775 370.097 709.023 377.898 713.5 397C720.091 378.67 723.956 368.55 746 364.5Z" fill="#C6C895"/>
<path d="M681 307.5C670.366 304.677 666.638 300.745 663.5 290C661.345 300.806 657.751 304.837 646 307.5C657.725 310.514 661.089 314.714 663.5 325C667.049 315.13 669.13 309.681 681 307.5Z" fill="#C6C895"/>
<path d="M120 570.5C109.366 567.677 105.638 563.745 102.5 553C100.345 563.806 96.751 567.837 85 570.5C96.725 573.514 100.089 577.714 102.5 588C106.049 578.13 108.13 572.681 120 570.5Z" fill="#C6C895"/>
</g>
<defs>
<filter id="filter0_d_4423_1167" x="-10" y="64" width="480.702" height="460.101" filterUnits="userSpaceOnUse" color-interpolation-filters="sRGB">
<feFlood flood-opacity="0" result="BackgroundImageFix"/>
<feColorMatrix in="SourceAlpha" type="matrix" values="0 0 0 0 0 0 0 0 0 0 0 0 0 0 0 0 0 0 127 0" result="hardAlpha"/>
<feOffset dx="15" dy="15"/>
<feGaussianBlur stdDeviation="10"/>
<feComposite in2="hardAlpha" operator="out"/>
<feColorMatrix type="matrix" values="0 0 0 0 0.00800369 0 0 0 0 0.157582 0 0 0 0 0.218281 0 0 0 0.5 0"/>
<feBlend mode="normal" in2="BackgroundImageFix" result="effect1_dropShadow_4423_1167"/>
<feBlend mode="normal" in="SourceGraphic" in2="effect1_dropShadow_4423_1167" result="shape"/>
</filter>
<filter id="filter1_f_4423_1167" x="296.437" y="273.789" width="140.548" height="101.206" filterUnits="userSpaceOnUse" color-interpolation-filters="sRGB">
<feFlood flood-opacity="0" result="BackgroundImageFix"/>
<feBlend mode="normal" in="SourceGraphic" in2="BackgroundImageFix" result="shape"/>
<feGaussianBlur stdDeviation="15" result="effect1_foregroundBlur_4423_1167"/>
</filter>
<radialGradient id="paint0_radial_4423_1167" cx="0" cy="0" r="1" gradientUnits="userSpaceOnUse" gradientTransform="translate(256 232) rotate(55.8885) scale(509.09)">
<stop offset="0.435012" stop-color="#B9BE8C"/>
<stop offset="0.895012" stop-color="#2E545D"/>
</radialGradient>
<radialGradient id="paint1_radial_4423_1167" cx="0" cy="0" r="1" gradientUnits="userSpaceOnUse" gradientTransform="translate(256 232) rotate(55.8885) scale(509.09)">
<stop offset="0.435012" stop-color="#B9BE8C"/>
<stop offset="0.895012" stop-color="#2E545D"/>
</radialGradient>
<linearGradient id="paint2_linear_4423_1167" x1="312.864" y1="465.443" x2="340.054" y2="626.247" gradientUnits="userSpaceOnUse">
<stop stop-color="#FCFCFC"/>
<stop offset="1" stop-color="#ECF4FF"/>
</linearGradient>
<linearGradient id="paint3_linear_4423_1167" x1="376.986" y1="1301.45" x2="376.986" y2="739.625" gradientUnits="userSpaceOnUse">
<stop stop-color="#EBF3FF"/>
<stop offset="1" stop-color="white"/>
</linearGradient>
<linearGradient id="paint4_linear_4423_1167" x1="506.026" y1="448.805" x2="541.634" y2="547.979" gradientUnits="userSpaceOnUse">
<stop stop-color="#F7F1AB"/>
<stop offset="1" stop-color="#DEA772"/>
</linearGradient>
<linearGradient id="paint5_linear_4423_1167" x1="510.958" y1="453.558" x2="510.958" y2="512.99" gradientUnits="userSpaceOnUse">
<stop stop-color="#F2F7FE"/>
<stop offset="1" stop-color="#CBDCF3"/>
</linearGradient>
<linearGradient id="paint6_linear_4423_1167" x1="383.767" y1="100.136" x2="383.958" y2="215.434" gradientUnits="userSpaceOnUse">
<stop stop-color="#F2DD9D"/>
<stop offset="1" stop-color="#DB9E6B"/>
</linearGradient>
<linearGradient id="paint7_linear_4423_1167" x1="372.466" y1="159.567" x2="385.875" y2="226.327" gradientUnits="userSpaceOnUse">
<stop stop-color="#DBEBFF"/>
<stop offset="1" stop-color="#FBFCFD"/>
</linearGradient>
<linearGradient id="paint8_linear_4423_1167" x1="590.273" y1="570.045" x2="644.139" y2="736.06" gradientUnits="userSpaceOnUse">
<stop stop-color="#F6E8A5"/>
<stop offset="1" stop-color="#DA9D6A"/>
</linearGradient>
</defs>
</svg>
