<svg width="800" height="800" viewBox="0 0 800 800" fill="none" xmlns="http://www.w3.org/2000/svg">
<circle cx="400" cy="400" r="400" fill="#642E38"/>
<mask id="mask0_4949_14241" style="mask-type:alpha" maskUnits="userSpaceOnUse" x="0" y="0" width="800" height="800">
<circle cx="400" cy="400" r="400" fill="#642E38"/>
</mask>
<g mask="url(#mask0_4949_14241)">
<path d="M24.2486 532.391L-119 553V0H869V411.603L748.222 382.875L645.857 202.706L339.458 155.814L184.038 229.506L24.2486 532.391Z" fill="#3B1315"/>
<mask id="mask1_4949_14241" style="mask-type:alpha" maskUnits="userSpaceOnUse" x="0" y="0" width="800" height="800">
<circle cx="400" cy="400" r="400" fill="#642E38"/>
</mask>
<g mask="url(#mask1_4949_14241)">
<path d="M206.968 790.998C161.307 759.676 120.626 672.814 128.47 474.004C132.206 379.295 135.169 309.566 138.334 257.603L90.1378 322.054L106.653 394.867C123.943 441.86 113.857 444.226 106.653 439.535C97.5187 456.83 79.8752 458.707 72.1952 457.483V659.403L133.567 684.898L128.47 738.539L206.968 790.998Z" fill="#D08042"/>
<path d="M118.071 172.144L141.121 217.219C144.72 171.814 148.87 144.423 154.772 126.185L118.071 172.144Z" fill="#D08042"/>
<path d="M84.2249 270.044L118.071 252.912L111.547 188.052L106.653 232.108L96.0507 212.324L84.2249 270.044Z" fill="#D08042"/>
<path d="M70.3602 272.492L63.02 296.763L100.536 279.834L72.1952 282.933L70.3602 272.492Z" fill="#D08042"/>
<path fill-rule="evenodd" clip-rule="evenodd" d="M189.909 81.5285C173.341 94.0293 162.54 102.179 154.772 126.185L118.071 172.144L141.121 217.219C140.16 229.34 139.239 242.745 138.334 257.603L90.1378 322.054L106.653 394.867C123.943 441.86 113.857 444.226 106.653 439.535C97.5187 456.83 79.8752 458.707 72.1952 457.483V659.403L133.567 684.898L128.47 738.539L206.968 790.998C218.44 798.867 230.226 803.231 241.635 804.983L154.772 815.855C126.227 782.128 69.7485 712.514 72.1952 703.866C74.6419 695.218 36.5139 691.017 17.1441 689.997L39.9801 503.374H17.1441L39.9801 394.867H26.3193L58.3305 180.71C61.4568 165.413 77.7819 127.19 118.071 96.6786C117.052 81.4497 122.965 46.9941 154.772 31.0037C186.579 15.0133 233.271 -13.0037 252.641 -25.0134C314.604 -23.4676 352.337 -21.7535 339.499 -19.9862C304.034 -15.1042 298.294 11.5912 294.212 30.5747C293.178 35.3838 292.25 39.698 290.972 43.0373C288.624 49.1767 275.918 54.4095 260.388 58.5395C242.487 63.3001 220.834 66.5953 206.968 68.1243C200.68 73.4019 195.02 77.6722 189.909 81.5285ZM118.071 252.912L84.2249 270.044L96.0507 212.324L106.653 232.108L111.547 188.052L118.071 252.912ZM70.3602 272.492L63.02 296.763L100.536 279.834L72.1952 282.933L70.3602 272.492ZM58.3305 439.535L72.1952 383.446L90.1378 423.626L58.3305 439.535Z" fill="#9E402B"/>
<path d="M72.1952 383.446L58.3305 439.535L90.1378 423.626L72.1952 383.446Z" fill="#D08042"/>
<path d="M226.134 287.993C225.645 292.398 231.64 366.653 234.698 403.23L258.382 85.4609L238.98 101.166L236.941 174.183H230.824V117.89L223.7 134.207V235.167L236.941 232.108L230.824 257.603L223.7 282.933C225.289 284.813 226.348 286.066 226.134 287.993Z" fill="#D08042"/>
<path d="M227.358 244.549L223.7 270.044L219.814 267.597L227.358 244.549Z" fill="#D08042"/>
<path d="M221.853 96.6786V124.417L230.824 108.304L221.853 96.6786Z" fill="#D08042"/>
<path fill-rule="evenodd" clip-rule="evenodd" d="M206.968 68.1243C208.396 122.989 211.821 237.696 214.105 257.603C215.96 273.779 220.746 279.439 223.7 282.933L230.824 257.603L236.941 232.108L223.7 235.167V134.207L230.824 117.89V174.183H236.941L238.98 101.166L258.382 85.4609L260.388 58.5395C242.487 63.3001 220.834 66.5953 206.968 68.1243ZM223.7 270.044L227.358 244.549L219.814 267.597L223.7 270.044ZM221.853 96.6786V124.417L230.824 108.304L221.853 96.6786ZM227.358 98.3103L223.7 87.9084L234.086 90.7638L227.358 98.3103Z" fill="#9E402B"/>
<path d="M223.7 87.9084L227.358 98.3103L234.086 90.7638L223.7 87.9084Z" fill="#D08042"/>
<path d="M-5.48804 560.686L1.44434 731.197L5.92998 716.308L17.1441 758.323L-32.6058 738.539L-18.5372 703.866V725.078L-5.48804 560.686Z" fill="#9E402B"/>
<path d="M39.9801 188.052L1.44434 423.626L-32.6058 417.303L26.3193 194.375L39.9801 188.052Z" fill="#9E402B"/>
<path fill-rule="evenodd" clip-rule="evenodd" d="M285.263 799.523C272.695 804.798 257.53 807.425 241.635 804.983L285.263 799.523ZM154.772 815.855C126.227 782.128 69.7485 712.514 72.1952 703.866C74.6419 695.218 36.5139 691.017 17.1441 689.997L39.9801 503.374H17.1441L39.9801 394.867H26.3193L58.3305 180.71C61.4568 165.413 77.7819 127.19 118.071 96.6786C117.052 81.4497 122.965 46.9941 154.772 31.0037C186.579 15.0133 233.271 -13.0037 252.641 -25.0134C142.979 -27.7491 -42.5724 -29.9574 -158 -31V855L154.772 815.855ZM1.44434 731.197L-5.48804 560.686L-18.5372 725.078V703.866L-32.6058 738.539L17.1441 758.323L5.92998 716.308L1.44434 731.197ZM39.9801 188.052L1.44434 423.626L-32.6058 417.303L26.3193 194.375L39.9801 188.052ZM39.9801 172.144L26.3193 180.71L32.8439 158.478L39.9801 143.589V172.144Z" fill="#4E1212"/>
<path d="M26.3193 180.71L39.9801 172.144V143.589L32.8439 158.478L26.3193 180.71Z" fill="#9E402B"/>
<path d="M645.382 672.348C691.5 640.708 732.588 552.963 724.666 352.134C720.892 256.463 717.899 186.025 714.703 133.534L763.381 198.64L746.7 272.193C729.237 319.663 739.424 322.053 746.7 317.314C755.926 334.786 773.746 336.681 781.503 335.445V539.416L719.517 565.17L724.666 619.356L645.382 672.348Z" fill="#D08042"/>
<path d="M735.168 47.2072L711.888 92.7401C708.253 46.874 704.061 19.205 698.1 0.781448L735.168 47.2072Z" fill="#D08042"/>
<path d="M769.353 146.102L735.168 128.796L741.758 63.2776L746.7 107.78L757.409 87.7953L769.353 146.102Z" fill="#D08042"/>
<path d="M783.356 148.575L790.77 173.092L752.878 155.992L781.503 159.122L783.356 148.575Z" fill="#D08042"/>
<path fill-rule="evenodd" clip-rule="evenodd" d="M662.612 -44.3285C679.346 -31.7006 690.255 -23.4685 698.1 0.781448L735.168 47.2072L711.888 92.7401C712.858 104.985 713.789 118.526 714.703 133.534L763.381 198.64L746.7 272.193C729.237 319.663 739.424 322.053 746.7 317.314C755.926 334.786 773.746 336.681 781.503 335.445V539.416L719.517 565.17L724.666 619.356L645.382 672.348C633.796 680.297 621.892 684.705 610.368 686.475L698.1 697.457C726.931 663.388 783.974 593.067 781.503 584.331C779.032 575.595 817.541 571.351 837.104 570.321L814.04 381.802H837.104L814.04 272.193H827.838L795.506 55.8605C792.349 40.4077 775.86 1.79688 735.168 -29.0244C736.198 -44.4081 730.226 -79.2136 698.1 -95.3665C665.975 -111.519 618.817 -139.821 599.253 -151.953C536.67 -150.391 498.56 -148.66 511.526 -146.874C547.345 -141.943 553.143 -114.976 557.266 -95.7998C558.311 -90.9418 559.248 -86.5838 560.538 -83.2106C562.91 -77.0088 575.743 -71.7229 591.428 -67.551C609.508 -62.742 631.377 -59.4133 645.382 -57.8688C651.734 -52.5376 657.45 -48.2239 662.612 -44.3285ZM735.168 128.796L769.353 146.102L757.409 87.7953L746.7 107.78L741.758 63.2776L735.168 128.796ZM783.356 148.575L790.77 173.092L752.878 155.992L781.503 159.122L783.356 148.575ZM795.506 317.314L781.503 260.656L763.381 301.244L795.506 317.314Z" fill="#9E402B"/>
<path d="M781.503 260.656L795.506 317.314L763.381 301.244L781.503 260.656Z" fill="#D08042"/>
<path d="M626.024 164.233C626.518 168.683 620.464 243.692 617.375 280.641L593.454 -40.3561L613.051 -24.4917L615.11 49.2675H621.288V-7.59715L628.483 8.88536V110.871L615.11 107.78L621.288 133.534L628.483 159.122C626.878 161.021 625.808 162.286 626.024 164.233Z" fill="#D08042"/>
<path d="M624.789 120.348L628.483 146.102L632.408 143.63L624.789 120.348Z" fill="#D08042"/>
<path d="M630.349 -29.0244V-1.00415L621.288 -17.2806L630.349 -29.0244Z" fill="#D08042"/>
<path fill-rule="evenodd" clip-rule="evenodd" d="M645.382 -57.8688C643.94 -2.44637 640.481 113.426 638.174 133.534C636.3 149.875 631.467 155.593 628.483 159.122L621.288 133.534L615.11 107.78L628.483 110.871V8.88536L621.288 -7.59715V49.2675H615.11L613.051 -24.4917L593.454 -40.3561L591.428 -67.551C609.508 -62.742 631.377 -59.4133 645.382 -57.8688ZM628.483 146.102L624.789 120.348L632.408 143.63L628.483 146.102ZM630.349 -29.0244V-1.00415L621.288 -17.2806L630.349 -29.0244ZM624.789 -27.3761L628.483 -37.8838L617.993 -34.9993L624.789 -27.3761Z" fill="#9E402B"/>
<path d="M628.483 -37.8838L624.789 -27.3761L617.993 -34.9993L628.483 -37.8838Z" fill="#D08042"/>
<path d="M859.963 439.697L852.961 611.939L848.431 596.899L837.104 639.341L887.352 619.356L873.143 584.331V605.758L859.963 439.697Z" fill="#9E402B"/>
<path d="M814.04 63.2776L852.961 301.244L887.352 294.857L827.838 69.6646L814.04 63.2776Z" fill="#9E402B"/>
<path fill-rule="evenodd" clip-rule="evenodd" d="M566.304 680.959C578.998 686.289 594.314 688.941 610.368 686.475L566.304 680.959ZM698.1 697.457C726.931 663.388 783.974 593.067 781.503 584.331C779.032 575.595 817.541 571.351 837.104 570.321L814.04 381.802H837.104L814.04 272.193H827.838L795.506 55.8605C792.349 40.4077 775.86 1.79688 735.168 -29.0244C736.198 -44.4081 730.226 -79.2136 698.1 -95.3665C665.975 -111.519 618.817 -139.821 599.253 -151.953C710.011 -154.716 897.418 -156.947 1014 -158V737L698.1 697.457ZM852.961 611.939L859.963 439.697L873.143 605.758V584.331L887.352 619.356L837.104 639.341L848.431 596.899L852.961 611.939ZM814.04 63.2776L852.961 301.244L887.352 294.857L827.838 69.6646L814.04 63.2776ZM814.04 47.2072L827.838 55.8605L821.248 33.4031L814.04 18.3628V47.2072Z" fill="#4E1212"/>
<path d="M827.838 55.8605L814.04 47.2072V18.3628L821.248 33.4031L827.838 55.8605Z" fill="#9E402B"/>
<circle cx="400" cy="400" r="400" fill="#642E38" fill-opacity="0.5"/>
<g filter="url(#filter0_f_4949_14241)">
<path d="M730.34 356.872C737.868 342.909 762.242 333.141 773.488 330.002C773.488 318.52 763.849 321.964 752.373 316.912C740.898 311.86 720.93 330.002 720.93 347.686C720.93 365.369 720.93 374.326 730.34 356.872Z" fill="#FF7556"/>
<path d="M1004.15 555.064C999.021 552.001 986.612 545.877 977.983 545.877C967.196 545.877 997.032 564.25 1004.15 555.064Z" fill="#FF7556"/>
<path d="M987.622 531.409C981.93 528.102 981.731 521.917 982.343 519.237C980.737 513.496 968.802 513.955 967.196 521.534C965.589 529.113 969.032 535.543 982.343 539.906C995.655 544.27 994.737 535.543 987.622 531.409Z" fill="#FF7556"/>
<path fill-rule="evenodd" clip-rule="evenodd" d="M957.327 715.821C986.521 739.338 983.491 771.474 977.983 775.991L872.867 789.77C862.156 775.615 847.161 706.497 872.867 661.853C898.572 617.208 916.168 597.32 921.753 592.956C905.457 594.411 870.067 605.082 858.867 636.131C844.866 674.943 821.227 654.273 835.227 582.621C842.284 546.505 855.93 530.577 867.171 517.456C878.231 504.546 886.964 494.353 884.801 470.321C882.047 439.718 874.533 429.083 867.231 418.748C862.97 412.719 858.782 406.792 855.653 397.061C848.462 394.688 836.237 400.781 844.866 444.14C853.131 485.667 818.281 499.96 794.925 509.538C787.799 512.461 781.742 514.945 778.308 517.63C777.117 518.561 775.896 519.475 774.662 520.399C760.683 530.867 745.122 542.519 753.98 592.956C763.619 647.844 752.603 688.952 711.061 691.019C694.839 691.826 679.912 697.431 665.938 702.678C644.128 710.868 624.64 718.185 606.175 705.028C596.696 698.274 590.093 689.856 584.243 682.398C571.396 666.02 562.18 654.271 534.108 674.943C528.54 679.043 523.224 683.143 518.106 687.091C485.666 712.11 461.158 731.012 430.828 705.028C402.736 680.96 428.456 634.37 444.828 614.084C430.369 611.864 400.303 611.053 395.713 625.567C389.975 643.71 344.761 622.352 365.188 571.598C381.529 530.995 379.035 502.166 375.745 492.827C365.341 497.573 341.319 519.972 328.466 571.598C320.708 602.761 323.814 621.393 326.284 636.208C328.929 652.072 330.845 663.56 317.908 681.373C297.895 708.931 267.951 750.71 255.481 768.155L165.054 769.331C210.115 748.356 298.767 690.238 292.892 625.567C287.77 569.196 305.639 547.556 330.389 517.582C341.131 504.572 353.17 489.992 365.188 470.321C396.952 418.327 385.461 382.21 375.745 370.651C395.713 380.067 408.336 395.913 395.713 458.838C383.09 521.763 422.795 571.139 436.566 535.313C447.582 506.652 565.118 387.186 584.243 397.061C548.44 408.544 535.026 522.682 580.01 510.97C609.258 503.354 584.449 585.751 606.175 600.764C617.864 608.842 607.383 615.219 616.961 625.567C646.568 657.554 687.289 631.768 651.714 582.621C623.255 543.304 651.082 522.911 656.667 517.63C673.421 543.81 720.471 525.897 711.061 444.14C703.533 378.735 736.537 358.096 753.98 355.953C751.226 379.071 749.298 429.075 763.619 444.14C781.521 462.972 819.161 440.006 815.948 337.121C813.377 254.813 841.347 239.288 855.653 241.815C836.604 258.579 893.523 375.933 921.753 406.477C949.982 437.021 915.556 516.481 904.998 535.313C894.441 554.145 914.408 590.889 938.507 556.441C962.606 521.993 1025.49 589.97 1010.8 582.621C1001.88 578.156 993.377 585.646 982.416 595.302C975.338 601.538 967.233 608.677 957.327 614.084C932.081 627.863 920.835 686.425 957.327 715.821Z" fill="#FF7556"/>
<path d="M872.867 661.853C847.161 706.497 862.156 775.615 872.867 789.77L255.481 768.155C267.951 750.71 297.895 708.931 317.908 681.373C330.845 663.56 328.929 652.072 326.284 636.208C323.814 621.393 320.708 602.761 328.466 571.598C341.319 519.972 365.341 497.573 375.745 492.827C379.035 502.166 381.529 530.995 365.188 571.598C344.761 622.352 389.975 643.71 395.713 625.567C400.303 611.053 430.369 611.864 444.828 614.084C428.456 634.37 402.736 680.96 430.828 705.028C461.158 731.012 485.666 712.11 518.106 687.091C523.224 683.143 528.54 679.043 534.108 674.943C562.18 654.271 571.396 666.02 584.243 682.398C590.093 689.856 596.696 698.274 606.175 705.028C624.64 718.185 644.128 710.868 665.938 702.678C679.912 697.431 694.839 691.826 711.061 691.019C752.603 688.952 763.619 647.844 753.98 592.956C745.122 542.519 760.683 530.867 774.662 520.399C775.896 519.475 777.117 518.561 778.308 517.63C781.742 514.945 787.799 512.461 794.925 509.538C818.281 499.96 853.131 485.667 844.866 444.14C836.237 400.781 848.462 394.688 855.653 397.061C858.782 406.792 862.97 412.719 867.231 418.748C874.533 429.083 882.047 439.718 884.801 470.321C886.964 494.353 878.231 504.546 867.171 517.456C855.93 530.577 842.284 546.505 835.227 582.621C821.227 654.273 844.866 674.943 858.867 636.131C870.067 605.082 905.457 594.411 921.753 592.956C916.168 597.32 898.572 617.208 872.867 661.853Z" fill="#FF7556"/>
<path d="M103.403 139.317C95.9617 118.33 71.8683 103.647 60.7519 98.9299C60.7519 81.6704 70.2804 86.8482 81.6237 79.254C92.967 71.6599 112.704 98.9299 112.704 125.509C112.704 152.089 112.704 165.551 103.403 139.317Z" fill="#FF7556"/>
<path d="M-167.249 437.216C-162.182 432.613 -149.916 423.408 -141.386 423.408C-130.724 423.408 -160.216 451.024 -167.249 437.216Z" fill="#FF7556"/>
<path d="M-150.915 401.661C-145.288 396.691 -145.092 387.394 -145.697 383.366C-144.109 374.737 -132.312 375.427 -130.723 386.818C-129.135 398.21 -132.538 407.875 -145.697 414.433C-158.855 420.992 -157.947 407.875 -150.915 401.661Z" fill="#FF7556"/>
<path fill-rule="evenodd" clip-rule="evenodd" d="M-120.968 678.848C-149.826 714.195 -146.831 762.5 -141.386 769.289L-37.4814 790C-26.8943 768.723 -12.0724 664.834 -37.4814 597.729C-62.8905 530.624 -80.2837 500.73 -85.8041 494.172C-69.6965 496.358 -34.7137 512.398 -23.6427 559.068C-9.80377 617.405 13.5635 586.337 -0.275391 478.638C-7.25092 424.352 -20.7395 400.411 -31.8512 380.689C-42.7844 361.284 -51.4163 345.963 -49.2786 309.84C-46.5563 263.841 -39.1287 247.857 -31.9103 232.323C-27.6991 223.26 -23.5592 214.351 -20.4664 199.725C-13.358 196.158 -1.2735 205.317 -9.80371 270.489C-17.9735 332.907 16.4756 354.39 39.5617 368.788C46.6063 373.181 52.593 376.914 55.9877 380.95C57.1649 382.349 58.3719 383.723 59.5912 385.112C73.4095 400.846 88.7914 418.361 80.0355 494.172C70.5071 576.672 81.3967 638.461 122.459 641.568C138.495 642.781 153.25 651.206 167.063 659.093C188.622 671.402 207.885 682.401 226.138 662.624C235.507 652.473 242.033 639.82 247.816 628.611C260.516 603.992 269.626 586.332 297.374 617.405C302.877 623.567 308.132 629.73 313.192 635.664C345.258 673.27 369.484 701.682 399.464 662.624C427.232 626.449 401.808 556.421 385.625 525.929C399.917 522.592 429.637 521.373 434.174 543.189C439.846 570.459 484.539 538.356 464.348 462.069C448.195 401.04 450.66 357.707 453.912 343.669C464.196 350.803 487.942 384.471 500.646 462.069C508.315 508.909 505.244 536.914 502.803 559.182C500.188 583.028 498.295 600.295 511.082 627.07C530.865 668.492 560.463 731.289 572.79 757.51L662.175 759.278C617.634 727.75 530.003 640.394 535.81 543.189C540.873 458.459 523.21 425.931 498.746 380.878C488.127 361.323 476.227 339.408 464.348 309.84C432.949 231.69 444.308 177.403 453.912 160.028C434.174 174.181 421.697 197.999 434.174 292.581C446.652 387.163 407.404 461.379 393.792 407.529C382.902 364.449 266.721 184.882 247.816 199.725C283.207 216.984 296.467 388.544 252.001 370.939C223.09 359.493 247.613 483.342 226.138 505.908C214.583 518.05 224.943 527.634 215.475 543.189C186.209 591.268 145.958 552.509 181.123 478.638C209.254 419.541 181.747 388.889 176.227 380.95C159.666 420.301 113.158 393.376 122.459 270.489C129.901 172.179 97.2774 141.158 80.0355 137.936C82.7579 172.685 84.6635 247.844 70.507 270.489C52.8114 298.794 15.6053 264.275 18.7815 109.63C21.3224 -14.0858 -6.32513 -37.4206 -20.4664 -33.6235C-1.63654 -8.42468 -57.8995 167.967 -85.8041 213.878C-113.709 259.788 -79.6786 379.224 -69.2427 407.529C-58.8069 435.835 -78.5443 491.065 -102.365 439.286C-126.186 387.508 -188.348 489.684 -173.828 478.638C-165.006 471.926 -156.603 483.183 -145.769 497.697C-138.772 507.07 -130.761 517.802 -120.968 525.929C-96.0131 546.64 -84.8966 634.664 -120.968 678.848Z" fill="#FF7556"/>
<path d="M-37.4814 597.729C-12.0724 664.834 -26.8943 768.723 -37.4814 790L572.79 757.51C560.463 731.289 530.865 668.492 511.082 627.07C498.295 600.295 500.188 583.028 502.803 559.182C505.244 536.914 508.315 508.909 500.646 462.069C487.942 384.471 464.196 350.803 453.912 343.669C450.66 357.707 448.195 401.04 464.348 462.069C484.539 538.356 439.846 570.459 434.174 543.189C429.637 521.373 399.917 522.592 385.625 525.929C401.808 556.421 427.232 626.449 399.464 662.624C369.484 701.682 345.258 673.27 313.192 635.664C308.132 629.73 302.877 623.567 297.374 617.405C269.626 586.332 260.516 603.992 247.816 628.611C242.033 639.82 235.507 652.473 226.138 662.624C207.885 682.401 188.622 671.402 167.063 659.093C153.25 651.206 138.495 642.781 122.459 641.568C81.3967 638.461 70.5071 576.672 80.0355 494.172C88.7914 418.361 73.4095 400.846 59.5912 385.112C58.3719 383.723 57.1649 382.349 55.9877 380.95C52.593 376.914 46.6063 373.181 39.5617 368.788C16.4756 354.39 -17.9735 332.907 -9.80371 270.489C-1.2735 205.317 -13.358 196.158 -20.4664 199.725C-23.5592 214.351 -27.6991 223.26 -31.9103 232.323C-39.1287 247.857 -46.5563 263.841 -49.2786 309.84C-51.4163 345.963 -42.7844 361.284 -31.8512 380.689C-20.7395 400.411 -7.25092 424.352 -0.275391 478.638C13.5635 586.337 -9.80377 617.405 -23.6427 559.068C-34.7137 512.398 -69.6965 496.358 -85.8041 494.172C-80.2837 500.73 -62.8905 530.624 -37.4814 597.729Z" fill="#FF7556"/>
</g>
<path d="M730.34 356.872C737.868 342.909 762.242 333.141 773.488 330.002C773.488 318.52 763.849 321.964 752.373 316.912C740.898 311.86 720.93 330.002 720.93 347.686C720.93 365.369 720.93 374.326 730.34 356.872Z" fill="#FF7556"/>
<path d="M1004.15 555.064C999.021 552.001 986.612 545.877 977.983 545.877C967.196 545.877 997.032 564.25 1004.15 555.064Z" fill="#FF7556"/>
<path d="M987.622 531.409C981.93 528.102 981.731 521.917 982.343 519.237C980.737 513.496 968.802 513.955 967.196 521.534C965.589 529.113 969.032 535.543 982.343 539.906C995.655 544.27 994.737 535.543 987.622 531.409Z" fill="#FF7556"/>
<path fill-rule="evenodd" clip-rule="evenodd" d="M957.327 715.821C986.521 739.338 983.491 771.474 977.983 775.991L872.867 789.77C862.156 775.615 847.161 706.497 872.867 661.853C898.572 617.208 916.168 597.32 921.753 592.956C905.457 594.411 870.067 605.082 858.867 636.131C844.866 674.943 821.227 654.273 835.227 582.621C842.284 546.505 855.93 530.577 867.171 517.456C878.231 504.546 886.964 494.353 884.801 470.321C882.047 439.718 874.533 429.083 867.231 418.748C862.97 412.719 858.782 406.792 855.653 397.061C848.462 394.688 836.237 400.781 844.866 444.14C853.131 485.667 818.281 499.96 794.925 509.538C787.799 512.461 781.742 514.945 778.308 517.63C777.117 518.561 775.896 519.475 774.662 520.399C760.683 530.867 745.122 542.519 753.98 592.956C763.619 647.844 752.603 688.952 711.061 691.019C694.839 691.826 679.912 697.431 665.938 702.678C644.128 710.868 624.639 718.185 606.175 705.028C596.696 698.274 590.093 689.856 584.243 682.398C571.396 666.02 562.179 654.271 534.108 674.943C528.54 679.043 523.224 683.143 518.106 687.091C485.666 712.11 461.157 731.012 430.828 705.028C402.736 680.96 428.456 634.37 444.828 614.084C430.369 611.864 400.303 611.053 395.713 625.567C389.975 643.71 344.761 622.352 365.188 571.598C381.529 530.995 379.035 502.166 375.745 492.827C365.341 497.573 341.318 519.972 328.466 571.598C320.708 602.761 323.814 621.393 326.284 636.208C328.929 652.072 330.845 663.56 317.908 681.373C297.895 708.931 267.951 750.71 255.481 768.155L165.054 769.331C210.115 748.356 298.767 690.238 292.892 625.567C287.77 569.196 305.639 547.556 330.388 517.582C341.131 504.572 353.17 489.992 365.188 470.321C396.952 418.327 385.461 382.21 375.745 370.651C395.713 380.067 408.336 395.913 395.713 458.838C383.09 521.763 422.795 571.139 436.566 535.313C447.582 506.652 565.117 387.186 584.243 397.061C548.44 408.544 535.026 522.682 580.01 510.97C609.257 503.354 584.449 585.751 606.175 600.764C617.864 608.842 607.383 615.219 616.961 625.567C646.568 657.554 687.289 631.768 651.714 582.621C623.255 543.304 651.082 522.911 656.667 517.63C673.421 543.81 720.471 525.897 711.061 444.14C703.533 378.735 736.537 358.096 753.98 355.953C751.226 379.071 749.298 429.075 763.619 444.14C781.521 462.972 819.161 440.006 815.948 337.121C813.377 254.813 841.347 239.288 855.653 241.815C836.604 258.579 893.523 375.933 921.753 406.477C949.982 437.021 915.556 516.481 904.998 535.313C894.441 554.145 914.408 590.889 938.507 556.441C962.606 521.993 1025.49 589.97 1010.8 582.621C1001.88 578.156 993.377 585.646 982.416 595.302C975.338 601.538 967.233 608.677 957.327 614.084C932.081 627.863 920.835 686.425 957.327 715.821Z" fill="#FF7556"/>
<path d="M872.867 661.853C847.161 706.497 862.156 775.615 872.867 789.77L255.481 768.155C267.951 750.71 297.895 708.931 317.908 681.373C330.845 663.56 328.929 652.072 326.284 636.208C323.814 621.393 320.708 602.761 328.466 571.598C341.318 519.972 365.341 497.573 375.745 492.827C379.035 502.166 381.529 530.995 365.188 571.598C344.761 622.352 389.975 643.71 395.713 625.567C400.303 611.053 430.369 611.864 444.828 614.084C428.456 634.37 402.736 680.96 430.828 705.028C461.157 731.012 485.666 712.11 518.106 687.091C523.224 683.143 528.54 679.043 534.108 674.943C562.179 654.271 571.396 666.02 584.243 682.398C590.093 689.856 596.696 698.274 606.175 705.028C624.639 718.185 644.128 710.868 665.938 702.678C679.912 697.431 694.839 691.826 711.061 691.019C752.603 688.952 763.619 647.844 753.98 592.956C745.122 542.519 760.683 530.867 774.662 520.399C775.896 519.475 777.117 518.561 778.308 517.63C781.742 514.945 787.799 512.461 794.925 509.538C818.281 499.96 853.131 485.667 844.866 444.14C836.237 400.781 848.462 394.688 855.653 397.061C858.782 406.792 862.97 412.719 867.231 418.748C874.533 429.083 882.047 439.718 884.801 470.321C886.964 494.353 878.231 504.546 867.171 517.456C855.93 530.577 842.284 546.505 835.227 582.621C821.227 654.273 844.866 674.943 858.867 636.131C870.067 605.082 905.457 594.411 921.753 592.956C916.168 597.32 898.572 617.208 872.867 661.853Z" fill="#F8EDA9" style="mix-blend-mode:hard-light"/>
<path d="M103.403 139.317C95.9616 118.33 71.8683 103.647 60.7518 98.9299C60.7518 81.6704 70.2803 86.8482 81.6237 79.254C92.967 71.6599 112.704 98.9299 112.704 125.509C112.704 152.089 112.704 165.551 103.403 139.317Z" fill="#FF7556"/>
<path d="M-167.249 437.216C-162.182 432.613 -149.916 423.408 -141.386 423.408C-130.724 423.408 -160.216 451.024 -167.249 437.216Z" fill="#FF7556"/>
<path d="M-150.915 401.661C-145.288 396.691 -145.092 387.394 -145.697 383.366C-144.109 374.737 -132.312 375.427 -130.724 386.818C-129.135 398.21 -132.538 407.875 -145.697 414.433C-158.855 420.992 -157.948 407.875 -150.915 401.661Z" fill="#FF7556"/>
<path fill-rule="evenodd" clip-rule="evenodd" d="M-120.968 678.848C-149.826 714.195 -146.831 762.5 -141.386 769.289L-37.4814 790C-26.8944 768.723 -12.0724 664.834 -37.4814 597.729C-62.8905 530.624 -80.2837 500.73 -85.8042 494.172C-69.6967 496.358 -34.7137 512.398 -23.6427 559.068C-9.80383 617.405 13.5634 586.337 -0.275452 478.638C-7.25092 424.352 -20.7395 400.411 -31.8512 380.689C-42.7844 361.284 -51.4164 345.963 -49.2786 309.84C-46.5563 263.841 -39.1287 247.857 -31.9104 232.323C-27.6992 223.26 -23.5593 214.351 -20.4666 199.725C-13.358 196.158 -1.27356 205.317 -9.80371 270.489C-17.9735 332.907 16.4755 354.39 39.5616 368.788C46.6063 373.181 52.5929 376.914 55.9876 380.95C57.1649 382.349 58.3719 383.723 59.5911 385.112C73.4094 400.846 88.7913 418.361 80.0355 494.172C70.507 576.672 81.3965 638.461 122.459 641.568C138.495 642.781 153.25 651.206 167.063 659.093C188.622 671.402 207.885 682.401 226.138 662.624C235.507 652.473 242.033 639.82 247.816 628.611C260.516 603.992 269.626 586.332 297.374 617.405C302.877 623.567 308.132 629.73 313.192 635.664C345.258 673.27 369.484 701.682 399.464 662.624C427.232 626.449 401.808 556.421 385.625 525.929C399.917 522.592 429.637 521.373 434.174 543.189C439.846 570.459 484.539 538.356 464.347 462.069C448.195 401.04 450.66 357.707 453.912 343.669C464.196 350.803 487.942 384.471 500.646 462.069C508.315 508.909 505.244 536.914 502.803 559.182C500.188 583.028 498.295 600.295 511.082 627.07C530.865 668.492 560.463 731.289 572.79 757.51L662.175 759.278C617.634 727.75 530.003 640.394 535.81 543.189C540.873 458.459 523.21 425.931 498.746 380.878C488.127 361.323 476.227 339.408 464.347 309.84C432.949 231.69 444.308 177.403 453.912 160.028C434.174 174.181 421.697 197.999 434.174 292.581C446.652 387.163 407.404 461.379 393.792 407.529C382.902 364.449 266.721 184.882 247.816 199.725C283.207 216.984 296.466 388.544 252.001 370.939C223.09 359.493 247.613 483.342 226.138 505.908C214.583 518.05 224.943 527.634 215.475 543.189C186.209 591.268 145.958 552.509 181.123 478.638C209.254 419.541 181.747 388.889 176.227 380.95C159.666 420.301 113.158 393.376 122.459 270.489C129.901 172.179 97.2773 141.158 80.0355 137.936C82.7578 172.685 84.6634 247.844 70.5069 270.489C52.8113 298.794 15.6052 264.275 18.7814 109.63C21.3223 -14.0858 -6.32513 -37.4206 -20.4666 -33.6235C-1.6366 -8.42468 -57.8995 167.967 -85.8042 213.878C-113.709 259.788 -79.6786 379.224 -69.2428 407.529C-58.8069 435.835 -78.5443 491.065 -102.365 439.286C-126.186 387.508 -188.348 489.684 -173.828 478.638C-165.006 471.926 -156.603 483.183 -145.769 497.697C-138.772 507.07 -130.761 517.802 -120.968 525.929C-96.0131 546.64 -84.8966 634.664 -120.968 678.848Z" fill="#FF7556"/>
<path d="M-37.4814 597.729C-12.0724 664.834 -26.8944 768.723 -37.4814 790L572.79 757.51C560.463 731.289 530.865 668.492 511.082 627.07C498.295 600.295 500.188 583.028 502.803 559.182C505.244 536.914 508.315 508.909 500.646 462.069C487.942 384.471 464.196 350.803 453.912 343.669C450.66 357.707 448.195 401.04 464.347 462.069C484.539 538.356 439.846 570.459 434.174 543.189C429.637 521.373 399.917 522.592 385.625 525.929C401.808 556.421 427.232 626.449 399.464 662.624C369.484 701.682 345.258 673.27 313.192 635.664C308.132 629.73 302.877 623.567 297.374 617.405C269.626 586.332 260.516 603.992 247.816 628.611C242.033 639.82 235.507 652.473 226.138 662.624C207.885 682.401 188.622 671.402 167.063 659.093C153.25 651.206 138.495 642.781 122.459 641.568C81.3965 638.461 70.507 576.672 80.0355 494.172C88.7913 418.361 73.4094 400.846 59.5911 385.112C58.3719 383.723 57.1649 382.349 55.9876 380.95C52.5929 376.914 46.6063 373.181 39.5616 368.788C16.4755 354.39 -17.9735 332.907 -9.80371 270.489C-1.27356 205.317 -13.358 196.158 -20.4666 199.725C-23.5593 214.351 -27.6992 223.26 -31.9104 232.323C-39.1287 247.857 -46.5563 263.841 -49.2786 309.84C-51.4164 345.963 -42.7844 361.284 -31.8512 380.689C-20.7395 400.411 -7.25092 424.352 -0.275452 478.638C13.5634 586.337 -9.80383 617.405 -23.6427 559.068C-34.7137 512.398 -69.6967 496.358 -85.8042 494.172C-80.2837 500.73 -62.8905 530.624 -37.4814 597.729Z" fill="#F8EDA9" style="mix-blend-mode:hard-light"/>
</g>
<path fill-rule="evenodd" clip-rule="evenodd" d="M741.001 32.5911C732.34 35.3496 715.808 65.5744 718.972 164.406C721.608 182.927 716.034 221.152 672.653 225.881V237.703L650.058 254.253L648.205 425.903C652.862 424.623 657.043 423.641 659.234 424.49C659.759 424.693 660.666 425.19 661.78 425.8C663.844 426.931 666.62 428.451 668.997 429.219C669.782 429.504 670.529 429.757 671.235 429.995C674.918 431.241 677.454 432.099 678.15 435.13C677.935 439.802 676.37 442.974 675.144 445.46C674.042 447.693 673.214 449.372 673.879 451.089C674.551 452.826 675.552 454.324 676.551 455.816C678.271 458.388 679.98 460.945 679.98 464.685C679.98 468.005 678.633 469.274 677.126 470.691C675.952 471.797 674.681 472.993 673.879 475.324C672.676 478.82 673.58 480.529 674.515 482.296C675.003 483.218 675.5 484.157 675.709 485.373C676.319 488.92 676.319 491.875 672.658 493.057C672.148 493.222 670.842 493.422 668.962 493.635C669.129 494.996 669.299 496.381 669.473 497.786C674.704 540.188 682.96 601.971 691.315 653.64C617.956 742.997 506.635 800 382 800C281.721 800 190.06 763.099 119.856 702.135C121.735 687.477 123.556 674.306 125.383 663.149C120.93 654.024 122.132 641.529 128.026 627.966C115.382 627.362 103.677 624.668 96.0289 618.37C76.5029 602.293 91.1474 584.087 100.91 576.994C96.8425 579.949 91.7576 588.343 103.961 598.273C119.216 610.686 135.691 589.998 128.979 559.852C124.709 540.671 150.08 524.362 171.931 510.316C184.424 502.285 195.766 494.994 199.761 488.329C203.765 481.648 209.392 479.132 214.097 477.027C222.299 473.358 227.703 470.941 216.847 449.907C205.651 428.217 232.707 405.512 259.388 383.122C273.424 371.342 287.357 359.65 295.561 348.238C306.279 333.329 316.874 309.427 327.01 286.253L318.139 232.974C320.451 236.557 337.543 240.776 347.12 242.719C352.113 233.32 356.911 226.031 361.461 222.334C376.594 210.039 390.954 212.876 396.242 215.832L414.548 219.378L427.362 215.832C447.352 207.45 463.649 222.489 474.972 241.434L505.467 235.338L492.043 287.946L491.707 288.089C506.484 389.552 529.264 404.233 541.617 412.194C543.168 413.193 544.554 414.087 545.739 415.032C552.342 420.3 552.915 424.542 553.437 428.402C553.78 430.946 554.102 433.324 556.112 435.721L556.48 436.159L556.945 436.711L557.031 436.814L557.077 436.868C564.003 445.098 571.977 454.574 571.977 465.867C571.977 468.514 571.718 471.379 571.443 474.411L571.443 474.411C570.455 485.333 569.27 498.427 579.299 511.382C588.176 522.847 607.888 535.447 622.611 544.859L622.615 544.861L622.616 544.862C629.144 549.035 634.691 552.581 637.878 555.123C638.121 555.317 638.357 555.532 638.589 555.767L639.3 495.444C629.959 495.656 621.882 495.416 620.182 494.24C615.91 491.284 617.741 480.644 620.182 479.462C618.91 477.491 617.321 473.781 617.5 470.005C616.039 471.187 606.147 472.96 609.809 464.685C612.712 458.122 614.107 447.145 614.329 442.348C614.33 442.306 614.332 442.265 614.334 442.223C614.365 441.659 614.478 441.067 614.69 440.45C616.497 435.199 634.262 429.538 640.094 428.091L642.15 253.662L617.743 237.111V225.289C570.88 220.561 564.86 182.336 567.707 163.815C571.124 64.9833 553.266 34.7585 543.91 32C560.995 36.7288 592.725 69.2393 590.284 90.5188C587.844 111.798 593.335 163.815 600.047 182.73L600.837 184.63C605.33 194.026 617.186 200.172 628.116 203.683C633.297 205.347 638.269 206.42 642.15 206.965C644.264 206.644 646.987 206.16 650.058 205.493C663.947 202.476 684.963 195.713 689.034 183.321C695.247 164.406 700.331 112.389 698.072 91.1099C695.812 69.8304 725.185 37.3199 741.001 32.5911ZM365.481 420.524C364.736 419.799 363.976 419.085 363.211 418.382L365.327 423.508L365.481 420.524Z" fill="url(#paint0_linear_4949_14241)"/>
<mask id="mask2_4949_14241" style="mask-type:alpha" maskUnits="userSpaceOnUse" x="102" y="30" width="658" height="772">
<path fill-rule="evenodd" clip-rule="evenodd" d="M759.001 32.5911C750.34 35.3496 733.808 65.5744 736.972 164.406C739.608 182.927 734.034 221.152 690.653 225.881V237.703L668.058 254.253L666.205 425.903C670.862 424.623 675.043 423.641 677.234 424.49C677.759 424.693 678.666 425.19 679.78 425.8C681.844 426.931 684.62 428.451 686.997 429.219C687.782 429.504 688.529 429.757 689.235 429.995C692.918 431.241 695.454 432.099 696.15 435.13C695.935 439.802 694.37 442.974 693.144 445.46C692.042 447.693 691.214 449.372 691.879 451.089C692.551 452.826 693.552 454.324 694.551 455.816C696.271 458.388 697.98 460.945 697.98 464.685C697.98 468.005 696.633 469.274 695.126 470.691C693.952 471.797 692.681 472.993 691.879 475.324C690.676 478.82 691.58 480.529 692.515 482.296C693.003 483.218 693.5 484.157 693.709 485.373C694.319 488.92 694.319 491.875 690.658 493.057C690.148 493.222 688.842 493.422 686.962 493.635C687.129 494.996 687.299 496.381 687.473 497.786C692.704 540.188 700.96 601.971 709.315 653.64C635.956 742.997 524.635 800 400 800C299.721 800 208.06 763.099 137.856 702.135C139.735 687.477 141.556 674.306 143.383 663.149C138.93 654.024 140.132 641.529 146.026 627.966C133.382 627.362 121.677 624.668 114.029 618.37C94.5029 602.293 109.147 584.087 118.91 576.994C114.843 579.949 109.758 588.343 121.961 598.273C137.216 610.686 153.691 589.998 146.979 559.852C142.709 540.671 168.08 524.362 189.931 510.316C202.424 502.285 213.766 494.994 217.761 488.329C221.765 481.648 227.392 479.132 232.097 477.027C240.299 473.358 245.703 470.941 234.847 449.907C223.651 428.217 250.707 405.512 277.388 383.122C291.424 371.342 305.357 359.65 313.561 348.238C324.279 333.329 334.874 309.427 345.01 286.253L336.139 232.974C338.451 236.557 355.543 240.776 365.12 242.719C370.113 233.32 374.911 226.031 379.461 222.334C394.594 210.039 408.954 212.876 414.242 215.832L432.548 219.378L445.362 215.832C465.352 207.45 481.649 222.489 492.972 241.434L523.467 235.338L510.043 287.946L509.707 288.089C524.484 389.552 547.264 404.233 559.617 412.194C561.168 413.193 562.554 414.087 563.739 415.032C570.342 420.3 570.915 424.542 571.437 428.402C571.78 430.946 572.102 433.324 574.112 435.721L574.48 436.159L574.945 436.711L575.031 436.814L575.077 436.868C582.003 445.098 589.977 454.574 589.977 465.867C589.977 468.514 589.718 471.379 589.443 474.411L589.443 474.411C588.455 485.333 587.27 498.427 597.299 511.382C606.176 522.847 625.888 535.447 640.611 544.859L640.615 544.861L640.616 544.862C647.144 549.035 652.691 552.581 655.878 555.123C656.121 555.317 656.357 555.532 656.589 555.767L657.3 495.444C647.959 495.656 639.882 495.416 638.182 494.24C633.91 491.284 635.741 480.644 638.182 479.462C636.91 477.491 635.321 473.781 635.5 470.005C634.039 471.187 624.147 472.96 627.809 464.685C630.712 458.122 632.107 447.145 632.329 442.348C632.33 442.306 632.332 442.265 632.334 442.223C632.365 441.659 632.478 441.067 632.69 440.45C634.497 435.199 652.262 429.538 658.094 428.091L660.15 253.662L635.743 237.111V225.289C588.88 220.561 582.86 182.336 585.707 163.815C589.124 64.9833 571.266 34.7585 561.91 32C578.995 36.7288 610.725 69.2393 608.284 90.5188C605.844 111.798 611.335 163.815 618.047 182.73L618.837 184.63C623.33 194.026 635.186 200.172 646.116 203.683C651.297 205.347 656.269 206.42 660.15 206.965C662.264 206.644 664.987 206.16 668.058 205.493C681.947 202.476 702.963 195.713 707.034 183.321C713.247 164.406 718.331 112.389 716.072 91.1099C713.812 69.8304 743.185 37.3199 759.001 32.5911ZM383.481 420.524C382.736 419.799 381.976 419.085 381.211 418.382L383.327 423.508L383.481 420.524Z" fill="#160903"/>
<path d="M736.972 164.406L734.973 164.47L734.976 164.58L734.992 164.688L736.972 164.406ZM759.001 32.5911L759.608 34.4968L758.428 30.6749L759.001 32.5911ZM690.653 225.881L690.436 223.892L688.653 224.087V225.881H690.653ZM690.653 237.703L691.835 239.316L692.653 238.717V237.703H690.653ZM668.058 254.253L666.877 252.64L666.069 253.231L666.059 254.232L668.058 254.253ZM666.205 425.903L664.205 425.881L664.177 428.534L666.735 427.831L666.205 425.903ZM677.234 424.49L677.957 422.625L677.234 424.49ZM679.78 425.8L680.741 424.046H680.741L679.78 425.8ZM686.997 429.219L687.68 427.339L687.646 427.327L687.612 427.315L686.997 429.219ZM689.235 429.995L688.594 431.89L689.235 429.995ZM696.15 435.13L698.148 435.222L698.16 434.949L698.099 434.682L696.15 435.13ZM693.144 445.46L691.35 444.576V444.576L693.144 445.46ZM691.879 451.089L693.744 450.367L693.744 450.367L691.879 451.089ZM694.551 455.816L696.213 454.705L694.551 455.816ZM695.126 470.691L693.756 469.235V469.235L695.126 470.691ZM691.879 475.324L693.77 475.975V475.975L691.879 475.324ZM692.515 482.296L690.747 483.231V483.231L692.515 482.296ZM693.709 485.373L691.738 485.712V485.712L693.709 485.373ZM690.658 493.057L691.273 494.961L691.273 494.961L690.658 493.057ZM686.962 493.635L686.737 491.647L684.732 491.874L684.977 493.877L686.962 493.635ZM687.473 497.786L689.458 497.541L687.473 497.786ZM709.315 653.64L710.861 654.909L711.434 654.212L711.29 653.321L709.315 653.64ZM137.856 702.135L135.872 701.88L135.736 702.943L136.545 703.645L137.856 702.135ZM143.383 663.149L145.356 663.473L145.459 662.844L145.18 662.272L143.383 663.149ZM146.026 627.966L147.86 628.764L149.015 626.107L146.122 625.969L146.026 627.966ZM114.029 618.37L115.3 616.827H115.3L114.029 618.37ZM121.961 598.273L120.699 599.824L121.961 598.273ZM146.979 559.852L145.027 560.286L146.979 559.852ZM189.931 510.316L188.849 508.633L189.931 510.316ZM217.761 488.329L219.477 489.357L217.761 488.329ZM232.097 477.027L232.914 478.853L232.097 477.027ZM234.847 449.907L233.069 450.825L234.847 449.907ZM277.388 383.122L276.102 381.59L277.388 383.122ZM313.561 348.238L311.937 347.071L313.561 348.238ZM345.01 286.253L346.842 287.055L347.08 286.511L346.983 285.925L345.01 286.253ZM336.139 232.974L337.82 231.889L334.166 233.302L336.139 232.974ZM365.12 242.719L364.722 244.679L366.185 244.976L366.886 243.657L365.12 242.719ZM379.461 222.334L378.2 220.782L379.461 222.334ZM414.242 215.832L413.267 217.578L413.547 217.734L413.862 217.795L414.242 215.832ZM432.548 219.378L432.168 221.342L432.629 221.431L433.082 221.306L432.548 219.378ZM445.362 215.832L445.896 217.759L446.018 217.725L446.135 217.676L445.362 215.832ZM492.972 241.434L491.255 242.46L491.979 243.672L493.364 243.395L492.972 241.434ZM523.467 235.338L525.405 235.833L526.191 232.754L523.075 233.377L523.467 235.338ZM510.043 287.946L510.827 289.786L511.737 289.398L511.981 288.44L510.043 287.946ZM509.707 288.089L508.923 286.249L507.506 286.853L507.728 288.377L509.707 288.089ZM559.617 412.194L558.534 413.876L559.617 412.194ZM563.739 415.032L562.492 416.596L563.739 415.032ZM571.437 428.402L569.455 428.67L571.437 428.402ZM574.112 435.721L572.58 437.006L572.581 437.007L574.112 435.721ZM574.48 436.159L572.948 437.445L572.95 437.446L574.48 436.159ZM574.945 436.711L576.475 435.424L576.475 435.424L574.945 436.711ZM575.031 436.814L573.5 438.101L573.501 438.101L575.031 436.814ZM575.077 436.868L573.547 438.156L573.547 438.156L575.077 436.868ZM589.443 474.411L591.423 474.693L591.431 474.642L591.435 474.591L589.443 474.411ZM589.443 474.411L587.463 474.128L587.456 474.18L587.451 474.231L589.443 474.411ZM597.299 511.382L595.718 512.606L597.299 511.382ZM640.611 544.859L641.72 543.195L641.704 543.184L641.688 543.174L640.611 544.859ZM640.615 544.861L639.505 546.525L639.545 546.552L639.586 546.576L640.615 544.861ZM640.616 544.862L641.693 543.177L641.669 543.161L641.645 543.147L640.616 544.862ZM655.878 555.123L657.125 553.559H657.125L655.878 555.123ZM656.589 555.767L655.162 557.169L658.532 560.596L658.588 555.79L656.589 555.767ZM657.3 495.444L659.3 495.468L659.324 493.398L657.254 493.445L657.3 495.444ZM638.182 494.24L639.32 492.595L638.182 494.24ZM638.182 479.462L639.054 481.262L641.088 480.277L639.862 478.378L638.182 479.462ZM635.5 470.005L637.498 470.1L637.71 465.644L634.242 468.45L635.5 470.005ZM627.809 464.685L625.98 463.876V463.876L627.809 464.685ZM632.329 442.348L634.326 442.44L634.327 442.429L634.327 442.418L632.329 442.348ZM632.334 442.223L634.331 442.334V442.333L632.334 442.223ZM632.69 440.45L630.799 439.799V439.799L632.69 440.45ZM658.094 428.091L658.575 430.033L660.075 429.66L660.094 428.115L658.094 428.091ZM660.15 253.662L662.15 253.686L662.163 252.61L661.273 252.007L660.15 253.662ZM635.743 237.111H633.743V238.172L634.62 238.767L635.743 237.111ZM635.743 225.289H637.743V223.481L635.944 223.3L635.743 225.289ZM585.707 163.815L587.684 164.119L587.702 164.002L587.706 163.884L585.707 163.815ZM561.91 32L562.443 30.0725L561.344 33.9184L561.91 32ZM618.047 182.73L616.162 183.399L616.18 183.449L616.201 183.498L618.047 182.73ZM618.837 184.63L616.99 185.398L617.01 185.446L617.033 185.493L618.837 184.63ZM646.116 203.683L646.728 201.779L646.116 203.683ZM660.15 206.965L659.872 208.946L660.162 208.987L660.451 208.943L660.15 206.965ZM668.058 205.493L667.634 203.539L668.058 205.493ZM707.034 183.321L708.934 183.946L708.934 183.946L707.034 183.321ZM716.072 91.1099L714.083 91.3211V91.3211L716.072 91.1099ZM381.211 418.382L382.563 416.909L379.362 419.145L381.211 418.382ZM383.481 420.524L385.479 420.627L385.525 419.722L384.876 419.09L383.481 420.524ZM383.327 423.508L381.479 424.271L385.325 423.611L383.327 423.508ZM452.015 381.28C451.655 382.324 452.211 383.462 453.255 383.822C454.299 384.181 455.438 383.626 455.797 382.582L452.015 381.28ZM452.99 381.395L452.193 383.229H452.193L452.99 381.395ZM447.978 372.988C447.884 371.888 446.915 371.072 445.815 371.166C444.714 371.26 443.898 372.229 443.992 373.329L447.978 372.988ZM395.353 382.572C395.707 383.618 396.842 384.179 397.889 383.825C398.935 383.471 399.496 382.336 399.142 381.29L395.353 382.572ZM399.587 380.794L400.347 382.644H400.347L399.587 380.794ZM410.266 373.812C409.903 372.769 408.764 372.217 407.72 372.58C406.677 372.942 406.125 374.082 406.487 375.125L410.266 373.812ZM667.909 256.248C669.011 256.33 669.971 255.504 670.053 254.402C670.135 253.301 669.309 252.341 668.208 252.259L667.909 256.248ZM660.299 251.668C659.198 251.585 658.238 252.412 658.156 253.513C658.074 254.615 658.9 255.574 660.001 255.657L660.299 251.668ZM657.946 231.73C656.945 231.262 655.755 231.695 655.287 232.696C654.82 233.696 655.252 234.887 656.253 235.354L657.946 231.73ZM663.201 237.111L661.81 238.548L663.256 239.949L664.647 238.493L663.201 237.111ZM670.385 235.381C671.401 234.947 671.872 233.771 671.438 232.756C671.004 231.74 669.829 231.269 668.813 231.703L670.385 235.381ZM691.343 227.758C692.38 227.377 692.911 226.227 692.53 225.19C692.149 224.154 691 223.622 689.963 224.003L691.343 227.758ZM685.016 227.856L685.628 229.76L685.648 229.753L685.667 229.747L685.016 227.856ZM685.015 227.856L684.403 225.952L684.383 225.958L684.364 225.965L685.015 227.856ZM676.555 228.7C675.517 229.075 674.979 230.222 675.355 231.261C675.731 232.299 676.877 232.837 677.916 232.461L676.555 228.7ZM617.033 185.493C617.509 186.489 618.703 186.911 619.7 186.434C620.696 185.958 621.118 184.764 620.641 183.767L617.033 185.493ZM619.932 182.061C619.563 181.02 618.419 180.476 617.378 180.845C616.337 181.215 615.793 182.358 616.162 183.399L619.932 182.061ZM637.31 477.662C636.316 478.144 635.9 479.34 636.382 480.334C636.863 481.328 638.06 481.744 639.054 481.262L637.31 477.662ZM652.157 479.068L652.136 481.068L652.147 481.068H652.157V479.068ZM652.158 479.068L652.179 477.068L652.168 477.068H652.158V479.068ZM674.793 478.28L674.322 476.336L674.793 478.28ZM681.866 472.918C681.19 472.044 679.934 471.885 679.06 472.561C678.187 473.237 678.027 474.493 678.704 475.367L681.866 472.918ZM671.742 461.729L672.123 463.693L671.742 461.729ZM678.626 460.21C679.419 459.442 679.439 458.176 678.671 457.382C677.902 456.589 676.636 456.569 675.842 457.337L678.626 460.21ZM669.912 443.996L670.526 445.899L669.912 443.996ZM675.273 441.503C675.855 440.564 675.565 439.331 674.626 438.749C673.687 438.168 672.454 438.457 671.873 439.396L675.273 441.503ZM634.327 442.416C634.365 441.312 633.501 440.387 632.397 440.349C631.293 440.311 630.368 441.175 630.33 442.279L634.327 442.416ZM633.503 469.91C633.45 471.013 634.302 471.95 635.406 472.002C636.509 472.055 637.446 471.203 637.498 470.1L633.503 469.91ZM410.846 434.342C409.758 434.534 409.031 435.571 409.223 436.659C409.414 437.747 410.452 438.473 411.539 438.281L410.846 434.342ZM414.997 437.861C416.099 437.782 416.928 436.825 416.849 435.723C416.769 434.621 415.812 433.793 414.71 433.872L414.997 437.861ZM437.171 435.875C436.083 435.681 435.045 436.406 434.852 437.493C434.658 438.581 435.383 439.619 436.47 439.813L437.171 435.875ZM439.076 438.317L439.522 436.367H439.522L439.076 438.317ZM441.092 440.676C442.196 440.676 443.092 439.781 443.092 438.676C443.092 437.572 442.196 436.676 441.092 436.676V440.676ZM242.063 683.425L240.234 684.235L243.922 682.688L242.063 683.425ZM237.899 672.752L239.765 672.034L236 673.381L237.899 672.752ZM640.969 224.123C639.999 223.596 638.784 223.955 638.257 224.926C637.729 225.896 638.089 227.11 639.059 227.638L640.969 224.123ZM665.032 239.476L664.077 241.233L665.083 241.78L666.064 241.189L665.032 239.476ZM688.641 227.594C689.587 227.024 689.892 225.795 689.322 224.849C688.753 223.903 687.524 223.597 686.577 224.167L688.641 227.594ZM338.026 233.305C337.019 232.852 335.835 233.301 335.382 234.309C334.928 235.316 335.378 236.5 336.385 236.953L338.026 233.305ZM363.444 245.405C364.548 245.405 365.444 244.509 365.444 243.405C365.444 242.3 364.548 241.405 363.444 241.405V245.405ZM390.902 247.542L391.058 245.548L388.902 245.38V247.542H390.902ZM454.158 249.5C455.24 249.276 455.935 248.217 455.71 247.136C455.486 246.054 454.427 245.359 453.345 245.584L454.158 249.5ZM486.092 243.405L485.745 241.435L484.092 241.726V243.405H486.092ZM519.513 238.846C520.586 238.586 521.246 237.505 520.986 236.432C520.726 235.358 519.645 234.699 518.571 234.959L519.513 238.846ZM388.902 264.093C388.902 265.198 389.798 266.093 390.902 266.093C392.007 266.093 392.902 265.198 392.902 264.093H388.902ZM484.092 261.138C484.092 262.242 484.987 263.138 486.092 263.138C487.196 263.138 488.092 262.242 488.092 261.138H484.092ZM738.971 164.342C737.392 115.024 740.734 82.9531 745.498 62.9342C747.881 52.922 750.603 45.9918 753.198 41.4437C755.842 36.8073 758.175 34.9532 759.608 34.4968L758.394 30.6854C755.497 31.6083 752.515 34.5666 749.723 39.4618C746.88 44.4451 744.044 51.7654 741.607 62.0082C736.73 82.4992 733.388 114.957 734.973 164.47L738.971 164.342ZM690.87 227.869C713.236 225.431 726.053 214.284 732.843 201.239C739.568 188.318 740.313 173.688 738.952 164.124L734.992 164.688C736.266 173.645 735.543 187.388 729.295 199.392C723.111 211.272 711.451 221.602 690.436 223.892L690.87 227.869ZM692.653 237.703V225.881H688.653V237.703H692.653ZM669.24 255.867L691.835 239.316L689.471 236.089L666.877 252.64L669.24 255.867ZM668.205 425.924L670.058 254.275L666.059 254.232L664.205 425.881L668.205 425.924ZM677.957 422.625C676.328 421.994 674.27 422.117 672.333 422.422C670.31 422.741 668.005 423.334 665.675 423.974L666.735 427.831C669.062 427.192 671.176 426.654 672.955 426.374C674.821 426.08 675.95 426.137 676.511 426.355L677.957 422.625ZM680.741 424.046C679.698 423.475 678.638 422.889 677.957 422.625L676.511 426.355C676.88 426.497 677.633 426.905 678.82 427.555L680.741 424.046ZM687.612 427.315C685.45 426.618 682.851 425.202 680.741 424.046L678.82 427.555C680.837 428.66 683.789 430.284 686.383 431.122L687.612 427.315ZM689.876 428.101C689.168 427.861 688.441 427.615 687.68 427.339L686.314 431.098C687.123 431.392 687.891 431.652 688.594 431.89L689.876 428.101ZM698.099 434.682C697.617 432.582 696.444 431.193 694.883 430.204C693.456 429.299 691.641 428.698 689.876 428.101L688.594 431.89C690.511 432.538 691.806 432.989 692.742 433.582C693.544 434.091 693.987 434.646 694.201 435.577L698.099 434.682ZM694.937 446.345C696.18 443.825 697.912 440.336 698.148 435.222L694.152 435.038C693.957 439.268 692.56 442.123 691.35 444.576L694.937 446.345ZM693.744 450.367C693.614 450.033 693.59 449.654 693.772 449.019C693.973 448.314 694.362 447.51 694.937 446.345L691.35 444.576C690.824 445.643 690.248 446.795 689.926 447.917C689.585 449.11 689.478 450.428 690.013 451.811L693.744 450.367ZM696.213 454.705C695.197 453.185 694.324 451.865 693.744 450.367L690.013 451.811C690.778 453.787 691.908 455.463 692.888 456.928L696.213 454.705ZM699.98 464.685C699.98 460.268 697.914 457.247 696.213 454.705L692.888 456.928C694.628 459.529 695.98 461.621 695.98 464.685H699.98ZM696.497 472.148C697.221 471.467 698.155 470.605 698.85 469.402C699.578 468.142 699.98 466.638 699.98 464.685H695.98C695.98 466.052 695.709 466.843 695.386 467.401C695.031 468.017 694.538 468.498 693.756 469.235L696.497 472.148ZM693.77 475.975C694.403 474.135 695.357 473.221 696.497 472.148L693.756 469.235C692.546 470.373 690.958 471.852 689.987 474.674L693.77 475.975ZM694.283 481.36C693.802 480.45 693.495 479.842 693.364 479.109C693.242 478.421 693.256 477.468 693.77 475.975L689.987 474.674C689.298 476.676 689.163 478.325 689.426 479.808C689.681 481.244 690.294 482.374 690.747 483.231L694.283 481.36ZM695.68 485.034C695.41 483.464 694.762 482.266 694.283 481.36L690.747 483.231C691.244 484.17 691.59 484.849 691.738 485.712L695.68 485.034ZM691.273 494.961C693.669 494.187 695.124 492.689 695.708 490.653C696.227 488.843 695.986 486.812 695.68 485.034L691.738 485.712C692.042 487.481 692.107 488.701 691.863 489.551C691.684 490.175 691.308 490.746 690.044 491.154L691.273 494.961ZM687.188 495.622C688.999 495.417 690.53 495.201 691.273 494.961L690.044 491.154C689.765 491.244 688.686 491.426 686.737 491.647L687.188 495.622ZM689.458 497.541C689.284 496.136 689.114 494.753 688.948 493.392L684.977 493.877C685.144 495.24 685.314 496.625 685.488 498.031L689.458 497.541ZM711.29 653.321C702.94 601.686 694.687 539.931 689.458 497.541L685.488 498.031C690.72 540.446 698.98 602.256 707.341 653.96L711.29 653.321ZM707.77 652.371C634.774 741.285 524.011 798 400 798V802C525.259 802 637.139 744.709 710.861 654.909L707.77 652.371ZM400 798C300.221 798 209.021 761.285 139.168 700.625L136.545 703.645C207.099 764.913 299.221 802 400 802V798ZM141.409 662.826C139.577 674.017 137.753 687.215 135.872 701.88L139.84 702.389C141.718 687.74 143.535 674.595 145.356 663.473L141.409 662.826ZM144.192 627.169C138.197 640.963 136.759 654.135 141.585 664.026L145.18 662.272C141.102 653.912 142.066 642.096 147.86 628.764L144.192 627.169ZM112.758 619.914C120.913 626.63 133.157 629.354 145.931 629.964L146.122 625.969C133.606 625.371 122.441 622.706 115.3 616.827L112.758 619.914ZM117.735 575.375C112.664 579.06 106.205 585.696 103.586 593.69C102.261 597.731 101.908 602.158 103.265 606.693C104.621 611.226 107.635 615.696 112.758 619.914L115.3 616.827C110.66 613.006 108.182 609.171 107.097 605.547C106.014 601.925 106.27 598.342 107.387 594.936C109.649 588.034 115.394 582.02 120.086 578.612L117.735 575.375ZM123.224 596.722C117.437 592.013 116.134 588.005 116.329 585.154C116.532 582.196 118.384 579.848 120.086 578.612L117.735 575.375C115.369 577.094 112.644 580.421 112.339 584.881C112.026 589.448 114.282 594.603 120.699 599.824L123.224 596.722ZM145.027 560.286C148.299 574.984 145.845 587.072 141.071 593.873C138.693 597.26 135.826 599.234 132.885 599.779C129.985 600.317 126.674 599.53 123.224 596.722L120.699 599.824C124.876 603.223 129.345 604.504 133.615 603.712C137.844 602.928 141.536 600.173 144.345 596.171C149.944 588.195 152.371 574.866 148.931 559.417L145.027 560.286ZM188.849 508.633C177.969 515.627 165.981 523.324 157.271 531.718C148.609 540.067 142.653 549.624 145.027 560.286L148.931 559.417C147.035 550.899 151.629 542.712 160.047 534.599C168.418 526.531 180.041 519.051 191.012 511.998L188.849 508.633ZM216.046 487.3C214.264 490.273 210.708 493.566 205.835 497.208C201.007 500.817 195.113 504.607 188.849 508.633L191.012 511.998C197.242 507.994 203.265 504.123 208.23 500.412C213.151 496.734 217.263 493.049 219.477 489.357L216.046 487.3ZM231.28 475.201C226.565 477.31 220.4 480.036 216.046 487.3L219.477 489.357C223.131 483.261 228.218 480.953 232.914 478.853L231.28 475.201ZM233.069 450.825C235.754 456.026 237.382 459.981 238.222 463.033C239.064 466.093 239.067 468.084 238.691 469.447C238.333 470.743 237.57 471.696 236.346 472.576C235.054 473.505 233.382 474.261 231.28 475.201L232.914 478.853C234.913 477.959 236.992 477.037 238.681 475.824C240.438 474.561 241.885 472.907 242.546 470.511C243.189 468.182 243.021 465.395 242.079 461.972C241.135 458.54 239.368 454.306 236.624 448.99L233.069 450.825ZM276.102 381.59C262.815 392.74 249.193 404.159 240.335 415.549C231.486 426.927 226.92 438.911 233.069 450.825L236.624 448.99C231.577 439.213 234.942 429 243.492 418.005C252.034 407.022 265.28 395.893 278.673 384.654L276.102 381.59ZM311.937 347.071C303.912 358.233 290.208 369.752 276.102 381.59L278.673 384.654C292.64 372.932 306.802 361.066 315.185 349.406L311.937 347.071ZM343.178 285.452C333.011 308.696 322.504 332.372 311.937 347.071L315.185 349.406C326.054 334.286 336.737 310.159 346.842 287.055L343.178 285.452ZM334.166 233.302L343.037 286.582L346.983 285.925L338.112 232.645L334.166 233.302ZM365.517 240.759C360.764 239.795 354.163 238.269 348.485 236.548C345.641 235.685 343.079 234.79 341.113 233.909C340.129 233.469 339.337 233.051 338.749 232.667C338.128 232.262 337.883 231.988 337.82 231.889L334.458 234.058C334.973 234.855 335.768 235.497 336.561 236.016C337.388 236.556 338.386 237.071 339.479 237.56C341.666 238.54 344.41 239.492 347.325 240.376C353.165 242.146 359.898 243.701 364.722 244.679L365.517 240.759ZM378.2 220.782C373.302 224.761 368.345 232.386 363.353 241.781L366.886 243.657C371.882 234.253 376.52 227.301 380.723 223.886L378.2 220.782ZM415.218 214.086C409.249 210.75 393.998 207.946 378.2 220.782L380.723 223.886C395.19 212.132 408.659 215.003 413.267 217.578L415.218 214.086ZM432.928 217.415L414.623 213.868L413.862 217.795L432.168 221.342L432.928 217.415ZM444.829 213.904L432.015 217.451L433.082 221.306L445.896 217.759L444.829 213.904ZM494.689 240.408C488.954 230.813 481.855 222.017 473.49 216.698C465.032 211.319 455.273 209.508 444.589 213.987L446.135 217.676C455.441 213.774 463.826 215.292 471.344 220.073C478.956 224.914 485.667 233.11 491.255 242.46L494.689 240.408ZM523.075 233.377L492.58 239.473L493.364 243.395L523.859 237.299L523.075 233.377ZM511.981 288.44L525.405 235.833L521.529 234.844L508.105 287.451L511.981 288.44ZM510.491 289.929L510.827 289.786L509.259 286.106L508.923 286.249L510.491 289.929ZM560.701 410.513C557.626 408.532 554.04 406.217 550.096 402.295C546.152 398.372 541.802 392.79 537.343 384.277C528.407 367.215 519.06 338.432 511.687 287.801L507.728 288.377C515.131 339.209 524.563 368.498 533.799 386.133C538.427 394.968 543.011 400.89 547.275 405.131C551.539 409.371 555.432 411.876 558.534 413.876L560.701 410.513ZM564.986 413.469C563.706 412.448 562.229 411.498 560.701 410.513L558.534 413.876C560.106 414.889 561.401 415.725 562.492 416.596L564.986 413.469ZM573.419 428.135C573.159 426.214 572.858 423.906 571.679 421.395C570.49 418.863 568.478 416.254 564.986 413.469L562.492 416.596C565.603 419.078 567.18 421.224 568.058 423.096C568.947 424.987 569.193 426.73 569.455 428.67L573.419 428.135ZM575.644 434.435C574.042 432.526 573.764 430.688 573.419 428.135L569.455 428.67C569.797 431.205 570.161 434.123 572.58 437.006L575.644 434.435ZM576.012 434.873L575.644 434.435L572.581 437.007L572.948 437.445L576.012 434.873ZM576.475 435.424L576.01 434.871L572.95 437.446L573.414 437.999L576.475 435.424ZM576.561 435.526L576.475 435.424L573.414 437.999L573.5 438.101L576.561 435.526ZM576.607 435.581L576.561 435.526L573.501 438.101L573.547 438.156L576.607 435.581ZM591.977 465.867C591.977 459.737 589.811 454.188 586.843 449.197C583.886 444.223 580.051 439.673 576.607 435.581L573.547 438.156C577.028 442.293 580.643 446.596 583.405 451.241C586.156 455.868 587.977 460.704 587.977 465.867H591.977ZM591.435 474.591C591.708 471.581 591.977 468.622 591.977 465.867H587.977C587.977 468.407 587.728 471.177 587.452 474.23L591.435 474.591ZM591.423 474.694L591.423 474.693L587.463 474.128L587.463 474.128L591.423 474.694ZM598.881 510.157C589.374 497.879 590.445 485.525 591.435 474.592L587.451 474.231C586.464 485.141 585.165 498.975 595.718 512.606L598.881 510.157ZM641.688 543.174C634.318 538.462 625.762 532.992 617.943 527.276C610.095 521.538 603.139 515.657 598.881 510.157L595.718 512.606C600.336 518.571 607.674 524.723 615.582 530.505C623.519 536.308 632.181 541.844 639.534 546.544L641.688 543.174ZM641.724 543.197L641.72 543.195L639.502 546.523L639.505 546.525L641.724 543.197ZM641.645 543.147L641.644 543.146L639.586 546.576L639.587 546.577L641.645 543.147ZM657.125 553.559C653.835 550.935 648.174 547.32 641.693 543.177L639.539 546.547C646.114 550.75 651.547 554.227 654.63 556.686L657.125 553.559ZM658.015 554.365C657.732 554.077 657.436 553.807 657.125 553.559L654.63 556.686C654.806 556.826 654.983 556.986 655.162 557.169L658.015 554.365ZM655.3 495.421L654.589 555.743L658.588 555.79L659.3 495.468L655.3 495.421ZM637.044 495.884C637.511 496.208 638.058 496.413 638.541 496.556C639.052 496.707 639.632 496.828 640.253 496.928C641.496 497.129 643.037 497.268 644.769 497.36C648.242 497.544 652.654 497.55 657.345 497.444L657.254 493.445C652.605 493.55 648.308 493.542 644.982 493.365C643.315 493.277 641.933 493.148 640.892 492.979C640.37 492.895 639.968 492.806 639.675 492.72C639.355 492.625 639.277 492.566 639.32 492.595L637.044 495.884ZM637.31 477.662C636.553 478.029 636.015 478.65 635.646 479.2C635.257 479.778 634.937 480.455 634.676 481.16C634.153 482.57 633.796 484.292 633.67 486.042C633.544 487.789 633.641 489.67 634.107 491.377C634.569 493.069 635.451 494.782 637.044 495.884L639.32 492.595C638.777 492.22 638.286 491.495 637.966 490.323C637.65 489.167 637.557 487.76 637.66 486.33C637.762 484.902 638.053 483.558 638.427 482.549C638.614 482.043 638.804 481.672 638.966 481.431C639.147 481.161 639.201 481.191 639.054 481.262L637.31 477.662ZM633.503 469.91C633.297 474.233 635.087 478.354 636.501 480.546L639.862 478.378C638.734 476.628 637.345 473.328 637.498 470.1L633.503 469.91ZM625.98 463.876C624.973 466.15 624.659 468.246 625.433 469.986C626.237 471.795 627.912 472.564 629.338 472.852C630.772 473.141 632.307 473.034 633.539 472.801C634.167 472.682 634.763 472.522 635.279 472.336C635.747 472.167 636.313 471.919 636.759 471.559L634.242 468.45C634.322 468.385 634.26 468.452 633.922 468.573C633.631 468.678 633.243 468.786 632.796 468.871C631.876 469.044 630.893 469.085 630.129 468.931C629.358 468.775 629.154 468.51 629.088 468.361C628.991 468.143 628.813 467.357 629.638 465.494L625.98 463.876ZM630.331 442.255C630.224 444.559 629.831 448.416 629.105 452.504C628.375 456.615 627.334 460.814 625.98 463.876L629.638 465.494C631.187 461.993 632.294 457.422 633.043 453.204C633.796 448.963 634.211 444.933 634.326 442.44L630.331 442.255ZM630.337 442.112C630.334 442.169 630.332 442.224 630.33 442.277L634.327 442.418C634.328 442.388 634.33 442.36 634.331 442.334L630.337 442.112ZM630.799 439.799C630.528 440.586 630.379 441.359 630.337 442.113L634.331 442.333C634.352 441.959 634.427 441.549 634.581 441.1L630.799 439.799ZM657.612 426.15C654.612 426.895 648.615 428.702 643.112 430.998C640.365 432.145 637.672 433.442 635.521 434.824C634.445 435.516 633.458 436.257 632.658 437.046C631.87 437.821 631.164 438.739 630.799 439.799L634.581 441.1C634.668 440.847 634.912 440.44 635.465 439.895C636.004 439.364 636.748 438.79 637.683 438.19C639.553 436.988 642.005 435.795 644.653 434.69C649.943 432.482 655.744 430.735 658.575 430.033L657.612 426.15ZM658.151 253.639L656.094 428.068L660.094 428.115L662.15 253.686L658.151 253.639ZM634.62 238.767L659.028 255.318L661.273 252.007L636.865 235.456L634.62 238.767ZM633.743 225.289V237.111H637.743V225.289H633.743ZM583.73 163.511C582.256 173.103 583.065 187.765 590.34 200.705C597.683 213.764 611.498 224.853 635.542 227.279L635.944 223.3C613.125 220.997 600.498 210.609 593.827 198.744C587.089 186.759 586.311 173.048 587.684 164.119L583.73 163.511ZM561.344 33.9184C562.977 34.3998 565.511 36.298 568.353 40.9108C571.152 45.4534 574.09 52.3751 576.661 62.378C581.803 82.3802 585.413 114.436 583.708 163.746L587.706 163.884C589.418 114.363 585.807 81.8899 580.536 61.3821C577.9 51.1301 574.833 43.8013 571.759 38.8124C568.728 33.8938 565.521 30.9795 562.475 30.0816L561.344 33.9184ZM610.271 90.7467C610.941 84.9091 609.258 78.4939 606.278 72.2062C603.285 65.8922 598.903 59.5375 593.937 53.7505C588.969 47.9596 583.374 42.6882 577.915 38.552C572.487 34.4392 567.065 31.3517 562.443 30.0725L561.376 33.9275C565.297 35.0127 570.249 37.7623 575.499 41.7402C580.718 45.6946 586.107 50.7675 590.901 56.3552C595.699 61.9469 599.86 68.0053 602.663 73.9196C605.48 79.8603 606.848 85.4888 606.297 90.2909L610.271 90.7467ZM619.932 182.061C616.661 172.844 613.628 155.314 611.722 137.301C609.818 119.298 609.077 101.157 610.271 90.7467L606.297 90.2909C605.051 101.161 605.835 119.667 607.745 137.722C609.653 155.765 612.721 173.702 616.162 183.399L619.932 182.061ZM620.684 183.862L619.894 181.962L616.201 183.498L616.99 185.398L620.684 183.862ZM646.728 201.779C641.372 200.058 635.848 197.71 631.146 194.682C626.43 191.645 622.67 188.01 620.641 183.767L617.033 185.493C619.497 190.646 623.912 194.781 628.98 198.045C634.062 201.317 639.93 203.797 645.504 205.587L646.728 201.779ZM660.429 204.985C656.66 204.455 651.799 203.408 646.728 201.779L645.504 205.587C650.794 207.286 655.877 208.384 659.872 208.946L660.429 204.985ZM667.634 203.539C664.605 204.197 661.923 204.673 659.85 204.988L660.451 208.943C662.605 208.615 665.37 208.124 668.483 207.448L667.634 203.539ZM705.134 182.697C703.368 188.073 697.761 192.551 690.359 196.122C683.06 199.642 674.505 202.046 667.634 203.539L668.483 207.448C675.501 205.923 684.398 203.438 692.097 199.724C699.693 196.061 706.629 190.961 708.934 183.946L705.134 182.697ZM714.083 91.3211C715.19 101.748 714.503 119.903 712.74 137.907C710.976 155.923 708.166 173.465 705.134 182.697L708.934 183.946C712.115 174.262 714.954 156.339 716.721 138.297C718.488 120.245 719.213 101.752 718.06 90.8988L714.083 91.3211ZM758.428 30.6749C754.105 31.9674 749.063 35.0753 744.037 39.1895C738.976 43.3318 733.793 48.6076 729.192 54.4001C724.594 60.1896 720.539 66.5428 717.771 72.8503C715.013 79.1343 713.467 85.5228 714.083 91.3211L718.06 90.8988C717.546 86.0573 718.825 80.4021 721.433 74.4577C724.032 68.5369 727.885 62.477 732.324 56.8879C736.761 51.3016 741.746 46.2332 746.57 42.2849C751.428 38.3084 755.989 35.5792 759.574 34.5073L758.428 30.6749ZM379.858 419.855C380.612 420.547 381.358 421.249 382.087 421.958L384.876 419.09C384.114 418.35 383.34 417.622 382.563 416.909L379.858 419.855ZM385.176 422.744L383.059 417.618L379.362 419.145L381.479 424.271L385.176 422.744ZM381.484 420.421L381.33 423.405L385.325 423.611L385.479 420.627L381.484 420.421ZM455.797 382.582C456.217 381.361 455.393 380.527 455.241 380.383C455.004 380.158 454.751 380.017 454.639 379.956C454.384 379.818 454.046 379.673 453.788 379.561L452.193 383.229C452.527 383.374 452.668 383.438 452.732 383.473C452.78 383.499 452.648 383.436 452.486 383.283C452.402 383.203 452.212 383.008 452.072 382.689C451.911 382.323 451.831 381.815 452.015 381.28L455.797 382.582ZM453.788 379.561C451.722 378.663 448.328 377.089 447.978 372.988L443.992 373.329C444.564 380.01 450.283 382.399 452.193 383.229L453.788 379.561ZM399.142 381.29C399.329 381.841 399.232 382.335 399.103 382.652C398.985 382.942 398.826 383.13 398.749 383.213C398.663 383.307 398.588 383.368 398.552 383.397C398.512 383.428 398.483 383.447 398.473 383.453C398.459 383.462 398.518 383.426 398.712 383.336C399.078 383.166 399.626 382.94 400.347 382.644L398.826 378.944C398.142 379.225 397.495 379.491 397.029 379.707C396.808 379.81 396.542 379.94 396.314 380.086C396.214 380.15 396.002 380.291 395.802 380.509C395.711 380.609 394.963 381.42 395.353 382.572L399.142 381.29ZM400.347 382.644C402.067 381.936 404.613 380.894 406.624 379.701C407.617 379.112 408.633 378.4 409.356 377.564C410.072 376.736 410.814 375.39 410.266 373.812L406.487 375.125C406.351 374.733 406.639 374.591 406.331 374.947C406.03 375.294 405.454 375.745 404.584 376.261C402.87 377.277 400.609 378.211 398.826 378.944L400.347 382.644ZM668.208 252.259L660.299 251.668L660.001 255.657L667.909 256.248L668.208 252.259ZM656.253 235.354C657.637 236 658.847 236.615 659.822 237.178C660.825 237.756 661.472 238.221 661.81 238.548L664.593 235.675C663.895 234.999 662.905 234.339 661.822 233.714C660.712 233.072 659.389 232.404 657.946 231.73L656.253 235.354ZM668.813 231.703C667.272 232.362 665.855 233.023 664.679 233.668C663.544 234.289 662.473 234.978 661.755 235.73L664.647 238.493C664.921 238.206 665.539 237.757 666.6 237.176C667.619 236.618 668.905 236.014 670.385 235.381L668.813 231.703ZM689.963 224.003C688.5 224.541 686.564 225.208 684.365 225.965L685.667 229.747C687.851 228.995 689.832 228.313 691.343 227.758L689.963 224.003ZM684.404 225.952L684.403 225.952L685.627 229.76L685.628 229.76L684.404 225.952ZM684.364 225.965C681.95 226.796 679.236 227.73 676.555 228.7L677.916 232.461C680.563 231.504 683.248 230.579 685.666 229.747L684.364 225.965ZM620.641 183.767C620.375 183.209 620.138 182.641 619.932 182.061L616.162 183.399C616.416 184.115 616.708 184.812 617.033 185.493L620.641 183.767ZM639.054 481.262C638.928 481.323 638.912 481.303 639.153 481.261C639.353 481.227 639.637 481.192 640.016 481.161C640.772 481.099 641.786 481.06 643.017 481.04C645.477 480.999 648.667 481.032 652.136 481.068L652.178 477.068C648.728 477.032 645.476 476.998 642.951 477.04C641.69 477.061 640.575 477.102 639.689 477.174C639.247 477.211 638.833 477.257 638.47 477.32C638.149 477.376 637.708 477.469 637.31 477.662L639.054 481.262ZM652.157 481.068H652.158V477.068H652.157V481.068ZM652.137 481.068C656.411 481.112 661.09 481.161 665.21 481.075C669.263 480.99 672.995 480.773 675.264 480.224L674.322 476.336C672.542 476.767 669.237 476.989 665.126 477.075C661.081 477.16 656.468 477.112 652.179 477.068L652.137 481.068ZM675.264 480.224C678.3 479.489 680.294 478.538 681.418 477.348C682.011 476.721 682.422 475.96 682.5 475.103C682.578 474.245 682.303 473.482 681.866 472.918L678.704 475.367C678.572 475.197 678.495 474.97 678.516 474.74C678.537 474.512 678.635 474.47 678.511 474.601C678.201 474.929 677.144 475.653 674.322 476.336L675.264 480.224ZM638.259 465.501C643.348 465.304 651.136 464.978 657.959 464.643C661.369 464.475 664.546 464.305 667.026 464.146C669.428 463.993 671.355 463.841 672.123 463.693L671.362 459.766C670.909 459.853 669.302 459.993 666.771 460.154C664.32 460.311 661.166 460.481 657.762 460.648C650.958 460.982 643.185 461.307 638.104 461.504L638.259 465.501ZM672.123 463.693C675.094 463.117 677.668 461.138 678.626 460.21L675.842 457.337C675.173 457.986 673.272 459.396 671.362 459.766L672.123 463.693ZM639.64 462.134C637.948 460.33 635.238 455.242 638.128 449.642L634.574 447.808C630.63 455.449 634.348 462.34 636.723 464.871L639.64 462.134ZM636.61 450.708C641.901 450.018 649.93 448.954 656.822 448.002C660.267 447.526 663.434 447.078 665.834 446.719C667.033 446.539 668.049 446.38 668.816 446.251C669.504 446.135 670.172 446.014 670.526 445.899L669.297 442.093C669.333 442.081 669.273 442.101 669.023 442.15C668.808 442.192 668.516 442.245 668.15 442.307C667.419 442.43 666.431 442.585 665.241 442.763C662.864 443.119 659.715 443.565 656.275 444.04C649.397 444.989 641.378 446.053 636.093 446.742L636.61 450.708ZM670.526 445.899C671.769 445.498 672.823 444.533 673.526 443.778C674.283 442.966 674.909 442.091 675.273 441.503L671.873 439.396C671.627 439.794 671.155 440.455 670.599 441.052C669.99 441.706 669.519 442.021 669.297 442.093L670.526 445.899ZM637.299 446.964C636.751 446.669 635.945 446.066 635.309 445.232C634.685 444.414 634.291 443.468 634.327 442.416L630.33 442.279C630.254 444.481 631.099 446.308 632.128 447.658C633.145 448.99 634.407 449.95 635.403 450.486L637.299 446.964ZM637.498 470.1C637.587 468.225 638.19 466.416 639.64 464.871L636.723 462.134C634.514 464.488 633.629 467.256 633.503 469.91L637.498 470.1ZM411.539 438.281C412.38 438.133 413.658 437.958 414.997 437.861L414.71 433.872C413.224 433.979 411.81 434.172 410.846 434.342L411.539 438.281ZM436.47 439.813C437.255 439.952 437.97 440.116 438.63 440.267L439.522 436.367C438.869 436.218 438.064 436.033 437.171 435.875L436.47 439.813ZM438.63 440.267C439.386 440.44 440.359 440.676 441.092 440.676V436.676C441.094 436.676 441.085 436.676 441.062 436.675C441.039 436.673 441.007 436.67 440.964 436.664C440.877 436.653 440.765 436.635 440.621 436.608C440.325 436.551 439.972 436.47 439.522 436.367L438.63 440.267ZM243.922 682.688C242.532 679.177 241.146 675.626 239.765 672.034L236.032 673.469C237.417 677.074 238.808 680.638 240.203 684.161L243.922 682.688ZM236 673.381C237.105 676.711 238.513 680.351 240.234 684.235L243.891 682.615C242.217 678.836 240.857 675.317 239.797 672.122L236 673.381ZM639.059 227.638L664.077 241.233L665.987 237.719L640.969 224.123L639.059 227.638ZM666.064 241.189L688.641 227.594L686.577 224.167L664 237.762L666.064 241.189ZM336.385 236.953C339.231 238.233 343.902 240.332 348.856 242.11C353.748 243.866 359.165 245.405 363.444 245.405V241.405C359.912 241.405 355.058 240.086 350.207 238.345C345.418 236.626 340.876 234.587 338.026 233.305L336.385 236.953ZM390.746 249.536C428.614 252.494 445.325 251.334 454.158 249.5L453.345 245.584C445.093 247.297 428.854 248.501 391.058 245.548L390.746 249.536ZM486.439 245.374C506.581 241.827 509.685 241.226 519.513 238.846L518.571 234.959C508.874 237.307 505.875 237.889 485.745 241.435L486.439 245.374ZM388.902 247.542V264.093H392.902V247.542H388.902ZM484.092 243.405V261.138H488.092V243.405H484.092Z" fill="#FFF8ED"/>
</mask>
<g mask="url(#mask2_4949_14241)">
<path fill-rule="evenodd" clip-rule="evenodd" d="M200.065 621.326L400.818 465.867L353.223 350.602C341.019 359.075 317.588 383.113 321.493 411.486C325.923 443.669 306.234 450.055 297.992 452.728C297.151 453.001 296.43 453.235 295.865 453.454C293.245 454.469 292.2 452.324 290.846 449.546C289.047 445.853 286.702 441.041 279.39 441.041C266.576 441.041 261.084 449.907 262.305 453.454C262.305 451.68 263.647 448.489 269.017 449.907C273.695 451.143 274.223 455.825 274.734 460.351C274.956 462.318 275.174 464.255 275.729 465.867C275.79 466.044 275.853 466.228 275.918 466.419C277.811 471.96 281.586 483.009 292.204 483.009C303.187 483.009 304.408 507.835 280.61 504.288C256.813 500.742 243.999 505.47 234.846 513.746C225.693 522.021 217.761 532.07 217.761 535.617C217.761 535.799 217.762 536.026 217.764 536.293C217.799 541.196 217.93 559.535 209.828 564.58C206.317 566.767 199.818 568.254 192.786 569.864C182.708 572.17 171.537 574.727 166.505 579.949C159.671 587.042 157.962 603.79 157.962 611.277L200.065 621.326ZM347.731 367.153C339.799 371.685 324.666 384.059 327.595 397.299C330.524 410.54 342.239 382.719 347.731 367.153ZM254.372 513.746C244.609 516.504 224.717 523.795 223.252 530.888L254.372 513.746Z" fill="#160903"/>
<path fill-rule="evenodd" clip-rule="evenodd" d="M379.461 222.334C394.594 210.039 408.953 212.876 414.242 215.832L432.548 219.378L445.362 215.832C478.068 202.118 500.889 251.101 508.211 277.306C522.904 388.534 546.839 403.959 559.617 412.194C561.167 413.193 562.553 414.087 563.738 415.032C570.342 420.3 570.915 424.542 571.436 428.402C571.78 430.946 572.101 433.324 574.112 435.721C574.43 436.101 574.752 436.483 575.076 436.868C582.002 445.098 589.977 454.573 589.977 465.867C589.977 468.515 589.717 471.379 589.443 474.411C588.454 485.333 587.269 498.427 597.299 511.382C606.176 522.847 625.887 535.447 640.611 544.859C647.141 549.033 652.69 552.58 655.877 555.123C664.176 561.743 665.437 592.953 665.03 607.731L652.216 602.008C648.347 596.625 639.637 583.377 635.741 573.447C632.65 565.569 627.338 564.595 620.126 563.273C615.974 562.513 611.192 561.636 605.841 559.261C597.697 555.645 598.234 551.596 599.056 545.397C599.712 540.449 600.549 534.131 597.299 525.568C591.652 510.691 574.756 507.511 563.961 505.478C560.758 504.875 558.092 504.374 556.416 503.697C549.094 500.742 550.314 490.102 563.738 479.462C574.478 470.95 573.095 466.852 571.061 465.867C571.061 471.383 544.822 488.329 535.67 465.867C531.453 455.518 525.293 450.69 518.802 445.602C511.203 439.647 503.151 433.335 497.228 417.397C488.441 393.753 493.567 361.439 497.228 348.238L436.819 295.63H417.293L353.223 350.602C341.019 359.075 317.588 383.113 321.493 411.486C325.923 443.669 306.234 450.055 297.992 452.728C297.151 453.001 296.43 453.235 295.865 453.454C293.245 454.469 292.2 452.324 290.846 449.546C289.047 445.853 286.702 441.041 279.39 441.041C266.576 441.041 261.084 449.907 262.305 453.454C262.305 451.68 263.647 448.489 269.017 449.907C273.695 451.143 274.223 455.825 274.734 460.351C274.956 462.318 275.174 464.255 275.729 465.867C275.79 466.044 275.853 466.228 275.918 466.419C277.811 471.96 281.586 483.009 292.204 483.009C303.187 483.009 304.408 507.835 280.61 504.288C256.813 500.742 243.999 505.47 234.846 513.746C225.693 522.021 217.761 532.07 217.761 535.617C217.761 535.799 217.762 536.026 217.764 536.293C217.799 541.196 217.93 559.535 209.828 564.58C206.317 566.767 199.818 568.254 192.786 569.864C182.708 572.17 171.537 574.727 166.505 579.949C159.671 587.042 157.962 603.79 157.962 611.277L200.065 621.326C179.522 627.04 133.555 634.448 114.028 618.37C94.5024 602.293 109.147 584.087 118.91 576.993C114.842 579.949 109.757 588.343 121.961 598.273C137.216 610.686 153.691 589.998 146.979 559.852C142.708 540.671 168.079 524.362 189.93 510.316C202.423 502.285 213.765 494.994 217.761 488.329C221.765 481.648 227.391 479.132 232.096 477.027C240.298 473.358 245.703 470.941 234.846 449.907C223.651 428.217 250.707 405.512 277.387 383.121C291.424 371.342 305.357 359.649 313.56 348.238C324.662 332.796 335.631 307.706 346.095 283.77C358.062 256.397 369.369 230.533 379.461 222.334ZM347.731 367.153C339.799 371.685 324.666 384.059 327.595 397.299C330.524 410.54 342.239 382.719 347.731 367.153ZM254.372 513.746C244.609 516.504 224.717 523.795 223.252 530.888L254.372 513.746ZM578.993 514.928C581.401 523.06 587.456 540.43 592.417 544.859C598.619 550.394 596.078 521.43 578.993 514.928Z" fill="#2F1216"/>
<path fill-rule="evenodd" clip-rule="evenodd" d="M497.228 348.238L469.159 423.308L466.108 488.329L571.061 565.763L652.216 602.008C648.347 596.625 639.637 583.377 635.741 573.447C632.65 565.569 627.338 564.595 620.126 563.273C615.974 562.513 611.192 561.636 605.841 559.261C597.697 555.645 598.234 551.596 599.056 545.397C599.712 540.449 600.549 534.131 597.299 525.568C591.652 510.691 574.756 507.511 563.961 505.478C560.758 504.875 558.092 504.374 556.416 503.697C549.094 500.742 550.314 490.102 563.738 479.462C574.478 470.95 573.095 466.852 571.061 465.867C571.061 471.383 544.822 488.329 535.67 465.867C531.453 455.518 525.293 450.69 518.802 445.602C511.203 439.647 503.151 433.335 497.228 417.397C488.441 393.753 493.567 361.439 497.228 348.238ZM578.993 514.928C581.401 523.06 587.456 540.43 592.417 544.859C598.619 550.394 596.078 521.43 578.993 514.928Z" fill="#160903"/>
<path fill-rule="evenodd" clip-rule="evenodd" d="M383.734 415.623L381.293 462.911C360.546 482.221 316.491 522.14 306.24 527.341C293.426 533.843 483.195 630.784 568.011 552.758C545.231 530.691 487.1 476.743 473.432 470.596V415.623C468.753 452.863 452.075 524.149 422.786 511.381C393.497 498.614 384.547 442.223 383.734 415.623Z" fill="#FFF1DC"/>
<path d="M473.432 415.623H383.734C384.547 442.223 393.497 498.614 422.786 511.381C452.075 524.149 468.753 452.863 473.432 415.623Z" fill="#E5BCB9"/>
<path d="M366.648 404.393C364.696 400.137 358.919 372.67 356.885 360.06C355.264 350.011 363.157 344.1 376.581 344.1C403.229 344.1 415.227 314.151 418.074 301.541H429.668H439.825C442.319 314.131 452.83 344.032 476.175 344.032C487.935 344.032 496.839 348.163 495.419 358.196C493.637 370.785 489.646 397.027 487.935 401.276C485.797 406.588 466.553 420.751 462.276 431.964C458 443.177 458 456.75 454.258 460.291C450.516 463.832 435.77 465.276 429.668 465.867C422.345 465.867 405.87 464.094 401.599 460.547C397.328 457 397.328 443.405 392.446 432.174C387.565 420.943 369.089 409.712 366.648 404.393Z" fill="#FFF1DC"/>
<path d="M475.465 345.096C442.81 346.634 433.891 310.724 433.513 292.577H419.34C420.663 309.87 409.971 340.554 369.088 354.704C359.936 367.744 364.654 382.361 366.648 397.278C365.02 401.613 362.839 404.27 358.715 397.278C353.833 389.003 348.952 371.384 348.952 354.704C348.952 331.096 366.037 313.954 378.241 300.359C388.004 289.483 409.708 290.64 419.34 292.577H433.513L489.071 286.173L502.11 379.682C495.496 394.627 482.041 419.904 481.134 401.458C480 378.401 492.472 371.996 489.071 357.906C486.349 346.634 478.866 344.669 475.465 345.096Z" fill="#381B0E"/>
<path d="M391.056 246.569V263.12C389.013 263.957 385.926 264.659 382.513 264.905L406.92 305.11C416.263 305.954 426.268 306.18 436.82 305.555L397.157 247.67C394.215 247.422 392.077 247.064 391.056 246.569Z" fill="#F4DE85"/>
<path fill-rule="evenodd" clip-rule="evenodd" d="M345.291 287.946L336.138 232.974C338.579 236.757 357.495 241.249 366.648 243.022V261.347C367.575 262.052 368.601 262.638 369.697 263.12L386.784 302.212C369.165 298.699 354.96 293.188 345.291 287.946ZM400.208 304.387C402.405 304.662 404.643 304.905 406.92 305.11L382.513 264.905C380.854 265.025 379.119 265.037 377.389 264.905L400.208 304.387ZM436.82 305.555L397.157 247.67C411.086 248.843 443.047 247.545 460.007 246.569V263.12C466.841 265.957 479.533 263.711 485.025 261.347V243.022L523.467 235.338L510.043 287.946C483.918 299.101 459.144 304.233 436.82 305.555Z" fill="#E19059"/>
<path d="M369.697 263.12L386.784 302.212C391.063 303.066 395.543 303.801 400.208 304.387L377.389 264.905C374.711 264.701 372.045 264.151 369.697 263.12Z" fill="#F4DE85"/>
<path d="M409.647 360.651C413.852 358.76 411.789 352.77 410.231 350.011L380.447 342.918L375.191 347.056L381.031 345.283C387.105 345.283 402.639 355.528 409.647 360.651Z" fill="#2C224D"/>
<path d="M413.736 360.06C414.32 357.893 415.02 353.085 413.152 351.194C415.682 352.376 419.342 355.804 413.736 360.06Z" fill="#2C224D"/>
<path d="M443.561 360.651C439.167 358.76 441.323 352.77 442.951 350.011L474.07 342.918L479.562 347.056L473.46 345.283C467.114 345.283 450.883 355.528 443.561 360.651Z" fill="#2C224D"/>
<path d="M439.289 360.06C438.679 357.893 437.947 353.085 439.9 351.194C437.255 352.376 433.432 355.804 439.289 360.06Z" fill="#2C224D"/>
<path fill-rule="evenodd" clip-rule="evenodd" d="M463.68 368.405C466.121 367.223 475.884 355.401 474.053 355.401C472.83 355.401 464.031 357.22 457.566 358.973C458.787 359.292 460.742 364.544 455.86 366.908C451.955 368.8 449.9 366.29 449.36 364.798C448.311 367.306 446.926 370.494 445.984 373.159C451.069 371.968 461.727 369.351 463.68 368.405Z" fill="#243050"/>
<path d="M453.905 360.156C453.567 360.483 450.049 363.151 449.36 364.798C449.9 366.29 451.955 368.8 455.86 366.908C460.742 364.544 458.787 359.292 457.566 358.973C454.356 359.844 454.31 359.763 453.905 360.156Z" fill="#FFF4C7"/>
<path fill-rule="evenodd" clip-rule="evenodd" d="M390.446 369.571C387.973 368.353 378.081 356.173 379.935 356.173C381.175 356.173 390.697 358.349 397.247 360.156C396.011 360.484 393.538 365.308 398.484 367.744C402.441 369.693 404.523 367.107 405.07 365.57C406.133 368.154 407.422 371.723 408.376 374.469C403.224 373.242 392.425 370.546 390.446 369.571Z" fill="#243050"/>
<path d="M402.039 361.834C402.382 362.171 404.372 363.873 405.07 365.57C404.523 367.107 402.441 369.693 398.484 367.744C393.538 365.308 396.011 360.484 397.247 360.156C400.5 361.053 401.629 361.429 402.039 361.834Z" fill="#FFF4C7"/>
<path d="M453.905 381.931C454.085 381.409 446.583 380.157 445.984 373.159M445.984 373.159C451.069 371.968 461.727 369.351 463.68 368.405C466.121 367.223 475.884 355.401 474.053 355.401C472.83 355.401 464.031 357.22 457.566 358.973M445.984 373.159C446.926 370.494 448.311 367.306 449.36 364.798M449.36 364.798C450.049 363.151 453.567 360.483 453.905 360.156C454.31 359.763 454.356 359.844 457.566 358.973M449.36 364.798C449.9 366.29 451.955 368.8 455.86 366.908C460.742 364.544 458.787 359.292 457.566 358.973M397.247 381.931C397.065 381.393 409.531 377.793 408.376 374.469M408.376 374.469C403.224 373.242 392.425 370.546 390.446 369.571C387.973 368.353 378.081 356.173 379.935 356.173C381.175 356.173 390.697 358.349 397.247 360.156M408.376 374.469C407.422 371.723 406.133 368.154 405.07 365.57M405.07 365.57C404.372 363.873 402.382 362.171 402.039 361.834C401.629 361.429 400.5 361.053 397.247 360.156M405.07 365.57C404.523 367.107 402.441 369.693 398.484 367.744C393.538 365.308 396.011 360.484 397.247 360.156" stroke="#222E4E"/>
<path d="M436.82 386.069C434.867 383.231 434.379 376.611 434.379 373.655C428.752 362.3 423.051 368.214 420.627 373.064C420.126 376.414 418.735 383.653 417.904 386.069C416.684 389.615 419.735 399.664 418.514 403.21C417.162 407.14 415.463 406.166 413.633 409.121C413.023 410.895 413.633 413.259 414.243 414.441C420.627 415.032 422.379 417.988 422.785 419.761H429.497C430.108 419.17 429.497 418.579 430.718 416.215C431.991 413.748 435.803 414.047 437.43 414.441C438.244 414.047 439.749 412.668 439.26 410.304C438.65 407.348 435.599 406.166 435.599 402.619C435.599 399.073 439.26 389.615 436.82 386.069Z" fill="url(#paint1_linear_4949_14241)"/>
<ellipse cx="10.3436" cy="18.3797" rx="10.3436" ry="18.3797" transform="matrix(0.95528 0.295703 -0.31326 0.949667 466.03 379.566)" fill="#F1D0CE"/>
<ellipse cx="10.3203" cy="18.4256" rx="10.3203" ry="18.4256" transform="matrix(-0.916209 0.4007 0.422428 0.906397 385.558 380.749)" fill="#F1D0CE"/>
<path fill-rule="evenodd" clip-rule="evenodd" d="M711.427 825.837C722.398 803.111 740.654 765.295 729.711 746.639C717.957 726.599 697.336 577.74 687.472 497.786C681.584 503.894 668.049 516.82 661.013 519.657C659.878 546.779 657.12 590.296 654.233 635.837C649.04 717.748 643.433 806.204 646.115 817.571C650.531 836.287 675.423 847.747 686.454 852.825C687.616 853.36 688.624 853.825 689.439 854.219C697.981 858.357 704.694 851.264 704.083 843.579C703.911 841.407 707.103 834.794 711.427 825.837Z" fill="#FFF1DC"/>
<path d="M686.388 488.92C677.235 481.432 659.417 471.896 661.37 493.649C661.724 497.593 661.552 506.776 661.013 519.657C668.049 516.82 681.584 503.894 687.472 497.786C687.094 494.726 686.733 491.767 686.388 488.92Z" fill="#E5BCB9"/>
<path d="M635.742 225.289C640.987 227.075 650.598 230.506 657.099 233.542L646.116 203.683C635.186 200.172 623.33 194.026 618.837 184.63L635.742 225.289Z" fill="#F4DE85"/>
<path fill-rule="evenodd" clip-rule="evenodd" d="M759.001 32.5911C750.34 35.3496 733.808 65.5744 736.971 164.406C739.607 182.927 734.034 221.152 690.653 225.881V237.703L668.058 254.253L647.946 2116.81H638.183L660.15 253.662L635.742 237.111V225.289C640.987 227.075 650.598 230.506 657.099 233.542L646.116 203.683C651.296 205.347 656.268 206.42 660.15 206.965L669.599 233.542C671.889 232.563 674.544 231.554 677.235 230.58L668.058 205.493C681.947 202.476 702.963 195.713 707.034 183.321C713.247 164.406 718.331 112.389 716.071 91.1099C713.812 69.8304 743.185 37.3199 759.001 32.5911ZM618.837 184.63L635.742 225.289C588.88 220.561 582.859 182.336 585.707 163.815C589.124 64.9833 571.266 34.7585 561.909 32C578.995 36.7288 610.725 69.2393 608.284 90.5188C605.843 111.798 611.335 163.815 618.047 182.73L618.837 184.63Z" fill="#E19059"/>
<path d="M660.15 206.965L669.599 233.542C671.889 232.563 674.544 231.554 677.235 230.58L668.058 205.493C664.987 206.16 662.264 206.644 660.15 206.965Z" fill="#F4DE85"/>
<path d="M691.878 451.089C693.709 455.818 697.98 458.774 697.98 464.685C697.98 470.596 693.709 470.005 691.878 475.325C690.048 480.644 693.099 481.827 693.709 485.373C694.319 488.92 694.319 491.875 690.658 493.058C686.997 494.24 642.453 497.195 638.181 494.24C633.91 491.284 635.741 480.644 638.181 479.462C636.91 477.491 635.32 473.781 635.5 470.005C634.039 471.187 624.147 472.96 627.808 464.685C630.712 458.122 632.106 447.145 632.328 442.348C632.33 442.306 632.332 442.265 632.334 442.223C632.365 441.659 632.477 441.067 632.69 440.45C634.52 435.13 652.733 429.389 658.318 428.037C665.64 426.263 673.834 423.173 677.234 424.49C678.731 425.07 683.335 428.037 686.997 429.219C691.878 430.992 695.32 431.518 696.149 435.13C695.741 443.996 690.473 447.46 691.878 451.089Z" fill="#FFF1DC"/>
<path d="M638.181 479.462C635.741 480.644 633.91 491.284 638.181 494.24C642.453 497.195 686.997 494.24 690.658 493.058C694.319 491.875 694.319 488.92 693.709 485.373C693.099 481.827 690.048 480.644 691.878 475.325C693.709 470.005 697.98 470.596 697.98 464.685C697.98 458.774 693.709 455.818 691.878 451.089C690.473 447.46 695.741 443.996 696.149 435.13C695.32 431.518 691.878 430.992 686.997 429.219C683.335 428.037 678.731 425.07 677.234 424.49C673.834 423.173 665.64 426.263 658.318 428.037C652.733 429.389 634.52 435.13 632.69 440.45C631.225 444.706 634.52 447.74 636.351 448.725M638.181 479.462C640.622 478.28 667.471 480.053 674.793 478.28C680.651 476.861 680.895 474.93 680.285 474.142M638.181 479.462C636.91 477.491 635.32 473.781 635.5 470.005M638.181 463.503C648.351 463.108 669.301 462.202 671.742 461.729C674.183 461.256 676.42 459.562 677.234 458.774M638.181 463.503C636.147 461.335 632.934 455.345 636.351 448.725M638.181 463.503C636.352 465.452 635.608 467.74 635.5 470.005M636.351 448.725C646.927 447.346 668.447 444.469 669.911 443.996C671.376 443.523 672.962 441.435 673.572 440.45M632.334 442.223C632.13 446.952 630.737 458.065 627.808 464.685C624.147 472.96 634.039 471.187 635.5 470.005" stroke="#E5BCB9"/>
<path d="M427.057 438.676C424.616 438.676 422.786 437.494 420.345 436.312C419.18 435.747 416.943 435.716 414.853 435.867C416.277 435.03 419.735 433.356 422.176 433.356C425.227 433.356 431.167 433.574 431.939 433.947C433.159 434.539 435.6 436.42 436.82 437.844C435.717 437.647 434.477 437.494 433.159 437.494C429.498 437.494 429.498 438.676 427.057 438.676Z" fill="#C29DAD"/>
<path d="M411.192 436.312C412.095 436.153 413.44 435.968 414.853 435.867C416.943 435.716 419.18 435.748 420.345 436.312C422.786 437.494 424.616 438.676 427.057 438.676C429.498 438.676 429.498 437.494 433.159 437.494C434.477 437.494 435.717 437.647 436.82 437.844C438.78 438.192 440.311 438.676 441.091 438.676" stroke="#9E5F71" stroke-linecap="round"/>
<path d="M103.046 1584.82C164.065 1521.92 178.1 989.975 177.49 731.862C147.183 981.937 77.7845 1501.64 -1.29614 1552.9C33.5017 1566.94 61.2174 1575.12 103.046 1584.82Z" fill="#060D1D"/>
<path d="M-163.938 1520.98C-163.026 1527.61 -152.325 1534.57 -145.301 1534.57L-131.877 1509.16C-153.331 1509.16 -161.927 1513.21 -163.659 1518.09C-163.758 1519.07 -163.851 1520.04 -163.938 1520.98Z" fill="#060D1D"/>
<path d="M562.519 547.439C465.377 598.51 351.19 553.744 306.24 524.977C280.408 537.193 222.399 565.408 197.016 580.54C170.322 596.453 169.108 598.56 159.223 615.722C157.357 618.96 155.184 622.733 152.472 627.237C145.352 639.06 139.61 686.704 132.376 746.731C122.249 830.756 109.198 939.046 85.3508 1007.31C44.4681 1124.35 -33.026 1241.98 -91.6042 1307C-137.578 1358.03 -158.551 1467.09 -163.659 1518.09C-161.927 1513.21 -153.331 1509.16 -131.877 1509.16C-99.6587 1511.05 -35.8736 1543.44 -8.00822 1559.4L-1.29614 1552.9C77.7845 1501.64 147.183 981.937 177.49 731.862C178.1 989.975 164.065 1521.92 103.046 1584.82C101.012 1586.98 96.4563 1591.79 94.5037 1593.68C92.0629 1596.05 177.797 1610.43 220.203 1586C225.018 1583.66 234.537 1579.3 240.339 1577.13C272.069 1565.31 329.427 1549.94 400.209 1549.94C470.991 1549.94 586.317 1603.14 576.554 1618.51C571.74 1626.09 560.398 1622.46 551.892 1619.73C543.147 1616.93 537.4 1615.09 544.824 1627.38C559.468 1651.61 696.761 1645.7 701.643 1603.14C706.524 1560.58 683.337 1177.55 657.099 1061.69C636.108 969.011 641.437 869.391 646.726 831.166L657.099 606.549C656.285 599.455 653.072 584.323 646.726 580.54C644.892 579.447 643.058 578.512 641.119 577.523C634.669 574.233 627.052 570.349 614.385 558.078C601.205 545.311 574.316 545.665 562.519 547.439Z" fill="url(#paint2_linear_4949_14241)"/>
<ellipse cx="86.0951" cy="43.7543" rx="86.0951" ry="43.7543" transform="matrix(0.765468 -0.643474 0.667236 0.744846 117.691 635.777)" fill="#E19059"/>
<ellipse cx="52.0194" cy="20.2625" rx="52.0194" ry="20.2625" transform="matrix(0.786686 -0.617353 0.641508 0.767116 149.421 615.214)" fill="#EED394"/>
<path d="M164.675 665.067C146.619 667.566 140.47 656.595 140.877 649.108C143.757 660.93 152.471 660.178 161.624 657.974C249.979 636.695 274.509 580.146 275.729 554.532C280 563.398 277.938 578.767 273.898 588.224C251.931 639.65 190.302 661.521 164.675 665.067Z" fill="#AE442D"/>
<path d="M423.396 1030.37C271.092 979.768 236.271 770.874 237.898 672.751C264.746 689.893 536.281 734.817 499.669 748.412C463.058 762.007 356.275 695.804 410.582 748.412C464.889 801.02 570.452 845.352 423.396 816.98C315.69 796.199 260.459 724.95 242.062 683.425C367.54 1000.23 533.578 989.665 601.571 944.066C605.639 993.915 575.699 1080.96 423.396 1030.37Z" fill="black"/>
<path d="M250.712 1252.03C197.015 1110.16 212.27 828.999 222.643 743.092C235.823 997.501 378.852 1303.26 452.685 1387.39C407.734 1401.38 304.409 1393.89 250.712 1252.03Z" fill="black"/>
<path d="M237.898 672.751C236.271 770.874 271.092 979.768 423.396 1030.37C575.699 1080.96 605.639 993.915 601.571 944.066C532.823 990.172 363.841 1000.46 237.898 672.751ZM237.898 672.751C250.712 711.37 305.751 794.281 423.396 816.98C570.452 845.352 464.889 801.02 410.582 748.412C356.275 695.804 463.058 762.007 499.669 748.412C536.281 734.817 264.746 689.893 237.898 672.751ZM222.643 743.092C212.27 828.999 197.015 1110.16 250.712 1252.03C304.409 1393.89 407.734 1401.38 452.685 1387.39C378.852 1303.26 235.823 997.501 222.643 743.092Z" stroke="black"/>
<path d="M640.014 225.881L665.031 239.476L687.608 225.881" stroke="#7B4E2C" stroke-width="4" stroke-linecap="round"/>
<path d="M337.205 235.129C342.9 237.691 355.633 243.405 363.443 243.405M453.751 247.542C445.209 249.316 428.734 250.498 390.902 247.542V264.093M519.042 236.902C509.279 239.267 506.228 239.858 486.091 243.405V261.138" stroke="#FFF8ED" stroke-width="4" stroke-linecap="round"/>
</g>
</g>
<defs>
<filter id="filter0_f_4949_14241" x="-206" y="-64" width="1249" height="884" filterUnits="userSpaceOnUse" color-interpolation-filters="sRGB">
<feFlood flood-opacity="0" result="BackgroundImageFix"/>
<feBlend mode="normal" in="SourceGraphic" in2="BackgroundImageFix" result="shape"/>
<feGaussianBlur stdDeviation="15" result="effect1_foregroundBlur_4949_14241"/>
</filter>
<linearGradient id="paint0_linear_4949_14241" x1="413.703" y1="32" x2="413.703" y2="800" gradientUnits="userSpaceOnUse">
<stop stop-color="#95DDBB"/>
<stop offset="1" stop-color="#403C28"/>
</linearGradient>
<linearGradient id="paint1_linear_4949_14241" x1="427.667" y1="417.397" x2="426.522" y2="359.468" gradientUnits="userSpaceOnUse">
<stop stop-color="#F0CCCC"/>
<stop offset="1" stop-color="#F3E9DD"/>
</linearGradient>
<linearGradient id="paint2_linear_4949_14241" x1="269.148" y1="524.977" x2="269.148" y2="1641.59" gradientUnits="userSpaceOnUse">
<stop stop-color="#060D1D"/>
<stop offset="1" stop-color="#59707C"/>
</linearGradient>
</defs>
</svg>
