<svg width="800" height="800" viewBox="0 0 800 800" fill="none" xmlns="http://www.w3.org/2000/svg">
<mask id="mask0_4949_14579" style="mask-type:alpha" maskUnits="userSpaceOnUse" x="0" y="0" width="800" height="800">
<circle cx="400" cy="400" r="400" fill="#D9D9D9"/>
</mask>
<g mask="url(#mask0_4949_14579)">
<circle cx="400" cy="400" r="400" fill="#222B2B"/>
<path d="M141.5 400L-8.5 596.5L223.5 832.5L619 820.5L811.5 596.5L735.5 474L677.5 285L533 240L447.5 129L369.5 191.5L174.5 255.5L141.5 400Z" fill="#141717"/>
<path fill-rule="evenodd" clip-rule="evenodd" d="M6.77104 436.769L-113 454V-99H875V312.603L754.222 283.875L660.297 118.562L642.414 144.593L630.688 220.539L614.054 180.759V123.066L594.766 94.9684L345.458 56.8142L313.428 72.0009H317.672L301.148 121.994L245.897 202.471L224.835 338.969L194.959 267.472V163.78L182.254 145.26L53.6676 389H57L50.2364 409.412L27.6212 442.27L19 498L6.77104 468.809V436.769Z" fill="#384646"/>
<path fill-rule="evenodd" clip-rule="evenodd" d="M359.654 87.0039C418.291 86.4966 443.537 135.799 446.274 185.203C621.328 130.244 649.143 260.54 640.88 337.842C711.092 346.415 801.855 383.222 792.174 467.006C786.487 516.234 781.322 540.137 774.262 551.833C785.228 550.503 800.133 551.427 815.352 554.93C808.582 594.841 796.071 632.797 778.698 667.921C776.134 666.738 773.649 665.517 771.244 664.268C771.508 670.187 771.571 676.074 771.463 681.872C746.842 727.2 713.96 767.389 674.839 800.42C666.861 781.255 671.683 763.14 679.925 751.235L680.787 751.071C687.596 737.534 688.893 717.604 684.698 696.578C671.867 698.616 658.208 699.625 644.744 698.929C634.694 747.433 599.418 777.86 572.94 792.23C574.715 799.72 576.241 807.857 577.465 816.69C577.841 815.843 578.182 814.965 578.488 814.053C582.112 824.749 586.062 839.792 589.192 856.185C534.825 882.629 473.768 897.463 409.247 897.463C350.545 897.463 294.711 885.184 244.173 863.054C244.28 830.855 245.033 802.23 246.888 785.218C247.199 782.371 247.701 779.647 248.375 777.039C242.344 769.815 236.777 761.7 232.08 752.668C206.686 764.722 179.425 768.144 165.533 753.294C141.641 727.755 111.296 732.011 99.1103 737.332V736.988C97.1863 739.535 94.2455 742.525 89.968 745.833C58.3027 707.039 33.5674 662.366 17.6504 613.702C26.0109 611.067 34.2795 610.136 42.2433 610.483L34.7474 606.031C24.4966 599.624 16.4304 593.67 10.1879 588.085C5.57759 570.091 2.15227 551.622 0 532.766C1.52574 530.411 3.17753 528.063 4.88221 525.705C21.7652 502.357 53.9344 499.056 78.1388 496.572C88.63 495.495 97.6249 494.572 103.23 492.236C105.035 491.484 106.669 490.937 108.12 490.452C110.781 489.561 112.83 488.875 114.196 487.507C118.767 482.932 115.697 470.724 102.355 417.669L102.355 417.669L102.354 417.663L102.35 417.646C99.5118 406.361 96.2093 393.227 92.4169 377.927C95.5672 289.719 179.496 272.599 239.82 275.764C222.73 239.07 230.656 192.128 237.106 176.083C237.266 175.685 237.429 175.279 237.595 174.866C248.589 147.469 272.549 87.7574 359.654 87.0039ZM520.166 2148.17C528.42 2148.69 537.413 2148.84 545.783 2148.17H520.166ZM821.172 886.909L821.173 862.288L821.172 862.288V886.909ZM821.172 853.076V765.93V853.076C367.985 275.602 366.764 268.905 365.392 261.375C366.64 281.066 367.895 280.817 369.145 280.609C355.562 262.025 363.899 273.749 365.381 281.357L346.507 249.293C310.549 198.732 329.756 225.739 346.506 249.293C359.064 226.661 349.507 174.228 327.73 187.925" fill="#EBB8A9"/>
<mask id="mask1_4949_14579" style="mask-type:alpha" maskUnits="userSpaceOnUse" x="0" y="105" width="822" height="2063">
<path fill-rule="evenodd" clip-rule="evenodd" d="M360.299 105.994C418.936 105.487 444.182 154.789 446.919 204.193C621.974 149.234 649.788 279.53 641.525 356.832C711.737 365.405 802.5 402.212 792.82 485.996C787.132 535.224 781.967 559.127 774.907 570.824C785.873 569.493 800.778 570.417 815.997 573.92C809.226 613.831 796.715 651.787 779.343 686.911C776.779 685.728 774.294 684.507 771.889 683.259C772.153 689.177 772.216 695.063 772.108 700.861C747.487 746.188 714.605 786.378 675.484 819.41C667.506 800.245 672.328 782.13 680.57 770.225L681.433 770.062C688.241 756.524 689.538 736.595 685.343 715.568C672.513 717.606 658.853 718.615 645.389 717.919C635.339 766.424 600.064 796.851 573.585 811.22C575.36 818.71 576.886 826.847 578.111 835.681C578.486 834.834 578.827 833.955 579.133 833.043C582.757 843.739 586.707 858.782 589.837 875.175C535.47 901.619 474.413 916.453 409.892 916.453C351.19 916.453 295.356 904.174 244.818 882.044C244.925 849.845 245.678 821.221 247.534 804.208C247.844 801.362 248.346 798.637 249.02 796.029C242.989 788.806 237.422 780.69 232.725 771.659C207.331 783.712 180.07 787.134 166.178 772.284C142.287 746.745 111.942 751.002 99.7555 756.322V755.978C97.8315 758.525 94.8905 761.515 90.6128 764.824C58.9474 726.029 34.212 681.356 18.295 632.693C26.6557 630.057 34.9245 629.126 42.8885 629.474L35.3926 625.021C25.1413 618.614 17.0748 612.66 10.8321 607.074C6.22199 589.08 2.79678 570.612 0.644531 551.758C2.17047 549.402 3.8225 547.053 5.52744 544.696C22.4104 521.347 54.5796 518.046 78.784 515.562C89.2752 514.485 98.2701 513.562 103.875 511.227C105.68 510.475 107.314 509.928 108.766 509.442C111.426 508.551 113.475 507.865 114.841 506.498C119.412 501.922 116.342 489.714 103.001 436.659L103.001 436.659L102.999 436.654L102.995 436.636C100.157 425.351 96.8546 412.217 93.0622 396.917C96.2124 308.709 180.141 291.589 240.466 294.754C223.376 258.06 231.301 211.118 237.752 195.073C237.912 194.675 238.074 194.269 238.24 193.856C249.234 166.459 273.194 106.748 360.299 105.994ZM520.807 2167.16C529.063 2167.68 538.059 2167.83 546.432 2167.16H520.807ZM821.817 905.899V881.277V905.899V872.067ZM366.037 280.365C367.409 287.896 368.63 294.592 369.79 299.599C368.54 299.807 367.286 300.056 366.027 300.348C364.544 292.739 356.207 281.016 347.152 268.283C330.401 244.73 311.195 217.722 328.375 206.916C350.153 193.218 359.71 245.651 366.037 280.365Z" fill="#3B9FA4"/>
</mask>
<g mask="url(#mask1_4949_14579)">
<path d="M580.679 662.094C580.679 751.957 510.367 824.805 423.632 824.805C336.898 824.805 266.586 751.957 266.586 662.094C266.586 572.232 336.898 499.384 423.632 499.384C510.367 499.384 580.679 572.232 580.679 662.094Z" fill="#61A785"/>
<path d="M538.972 768.165C553.389 766.105 572.097 705.518 579.649 675.482L648.132 692.473C646.484 766.62 587.716 806.439 558.538 817.081L538.972 768.165Z" fill="#72AD99"/>
<path d="M327.345 788.761C312.928 786.701 294.219 726.114 286.667 696.078L218.185 713.07C219.832 787.216 278.6 827.036 307.779 837.677L327.345 788.761Z" fill="#72AD99"/>
<path d="M247.535 803.178C252.478 757.867 305.891 743.449 331.979 741.905L317.047 861.363V1088.95L262.467 1276.89L247.535 1034.37C245.475 976.187 242.591 848.49 247.535 803.178Z" fill="url(#paint0_linear_4949_14579)"/>
<path d="M177.507 402.581L360.299 429.356L268.131 471.064L227.453 645.617L100.271 713.07L83.2793 570.441L152.277 519.98L177.507 402.581Z" fill="#61A785"/>
<path d="M93.063 395.887C96.7703 292.082 212.35 286.727 269.676 297.025L318.592 316.077L346.397 406.7C324.084 415.625 277.502 433.476 269.676 433.476C259.893 433.476 227.454 428.841 210.462 433.476C193.47 438.11 227.454 533.367 227.454 555.508C227.454 577.649 165.15 575.59 129.106 580.224C93.0629 584.858 124.472 611.633 129.106 644.587C132.814 670.95 113.831 668.959 103.876 664.669L35.3935 623.991C-22.276 587.947 -10.8003 566.247 5.52829 543.666C29.7291 510.197 85.3394 517.92 103.876 510.197C122.413 502.473 122.928 516.375 93.063 395.887Z" fill="#78C9A3"/>
<path d="M441.654 204.857C625.373 144.304 651.05 283.638 640.923 360.874L596.641 393.313C589.089 387.477 571.411 368.494 561.113 339.248C550.814 310.001 455.557 308.868 409.215 311.958L441.654 204.857Z" fill="#78C9A3"/>
<path d="M360.3 104.964C455.162 104.143 462.633 233.688 428.783 283.122C428.783 283.122 381.413 307.837 373.688 307.837C365.963 307.837 360.3 185.805 328.376 205.886C296.452 225.966 390.164 301.983 360.3 307.837C330.437 313.691 316.533 341.306 316.533 341.306C212.088 333.846 226.978 220.843 237.752 194.043C248.527 167.243 271.882 105.729 360.3 104.964Z" fill="#79B7A0"/>
<path d="M-25.8808 664.153C21.9025 604.424 79.8467 632.057 102.846 656.944V748.083C102.846 753.575 92.2388 768.679 49.8105 785.156C7.38219 801.633 -32.7462 772.112 -47.5069 755.291C-60.2079 749.799 -73.6641 723.882 -25.8808 664.153Z" fill="#98E5C1"/>
<path d="M792.82 484.966C804.766 381.573 663.751 349.72 597.156 354.182L549.785 435.537L618.267 522.041L715.07 586.405C766.56 568.898 777.888 614.208 792.82 484.966Z" fill="#6EA795"/>
<path d="M583.768 444.289C628.394 453.729 713.319 494.132 696.018 580.224C678.717 666.316 703.227 700.54 717.644 706.891C658.773 725.771 544.018 731.606 555.963 603.91C567.578 479.756 504.528 461.06 468.841 467.374L465.855 467.974C466.826 467.755 467.822 467.555 468.841 467.374L583.768 444.289Z" fill="#78C9A3"/>
<path d="M196.044 590.522C194.396 475.183 280.832 437.423 324.256 432.961V567.866C292.332 570.441 291.816 668.273 289.757 709.465C287.697 750.658 196.044 803.178 166.179 771.254C142.288 745.715 111.942 749.971 99.7563 755.292V654.37C132.539 681.146 197.692 705.861 196.044 590.522Z" fill="#98E5C1"/>
<path d="M520.435 945.808C509.725 968.051 407.156 850.721 357.21 789.276C312.31 839.943 344.68 984.769 366.478 1050.85L520.435 1090.5C504.37 1083.91 513.741 991.291 520.435 945.808Z" fill="url(#paint1_linear_4949_14579)"/>
<path d="M359.269 792.365C468.429 844.371 505.846 769.366 500.868 726.457C514.771 736.755 538.971 859.818 541.031 873.721C542.679 884.843 523.868 947.009 514.256 971.553L359.269 792.365Z" fill="#FBFEE0"/>
<path d="M389.134 303.719C419.17 280.034 500.148 246.874 583.768 303.719C606.596 335.815 638.555 410.408 583.768 452.012C543.606 467.459 454.836 485.275 421.058 432.961C417.659 427.696 414.752 423.232 412.286 419.481L413.849 427.297C403.353 409.391 390.246 385.959 412.286 419.481L389.134 303.719Z" fill="#9FEFC9"/>
<path d="M355.15 735.726C387.28 732.018 384.328 690.585 378.835 670.332L459.676 660.034C456.071 670.332 458.131 698.137 459.676 711.525C460.912 722.235 486.966 724.226 499.839 723.883L506.532 766.62C497.951 793.052 466.679 842.414 410.245 828.409C353.811 814.403 350.001 760.784 355.15 735.726Z" fill="#E9D9D0"/>
<mask id="mask2_4949_14579" style="mask-type:alpha" maskUnits="userSpaceOnUse" x="353" y="660" width="154" height="171">
<path d="M355.15 735.726C387.28 732.018 384.328 690.585 378.835 670.332L459.676 660.034C456.071 670.332 458.131 698.137 459.676 711.525C460.912 722.235 486.966 724.226 499.839 723.883L506.532 766.62C497.951 793.052 466.679 842.414 410.245 828.409C353.811 814.403 350.001 760.784 355.15 735.726Z" fill="#E9D9D0"/>
</mask>
<g mask="url(#mask2_4949_14579)">
<path d="M340.218 664.154L465.855 633.774L481.817 722.338C464.825 730.233 454.527 761.471 397.887 741.905C367.867 731.534 346.396 692.302 340.218 664.154Z" fill="#E9D9D0"/>
</g>
<path d="M334.038 633.774C327.752 613.05 327.015 603.538 328.889 588.977L365.963 498.354L519.405 593.611L497.779 644.587C464.411 677.974 445.99 684.707 413.334 688.869C370.276 674.883 353.505 662.435 334.038 633.774Z" fill="#EDF1E6"/>
<path d="M881.899 642.013C891.682 576.105 782.007 559.628 760.896 574.045L682.63 557.568L726.912 647.677C738.24 661.922 774.181 692.37 827.319 700.197C880.457 708.024 895.115 675.31 895.802 657.975L881.899 642.013Z" fill="#78C9A3"/>
<path d="M442.169 1070.41C369.258 946.837 363.903 788.589 370.597 728.517L341.247 735.211C271.22 772.696 278.085 961.083 286.667 1057.03C294.082 1044.26 395.484 1065.09 442.169 1070.41Z" fill="url(#paint2_linear_4949_14579)"/>
<path d="M331.123 628.625C327.828 560.246 363.734 517.749 386.218 511.226L331.123 448.923C231.026 551.08 289.416 611.29 331.123 628.625Z" fill="url(#paint3_linear_4949_14579)"/>
<path fill-rule="evenodd" clip-rule="evenodd" d="M316.017 454.586C319.932 483.615 470.753 604.673 588.402 616.781C671.186 625.301 702.372 727.398 681.434 769.032L680.571 769.195C662.034 795.97 660.799 854.154 783.552 885.049C809.469 882.302 854.3 865.07 826.289 818.111C799.446 773.108 775.818 756.668 766.191 753.563C781.295 680.748 777.036 538.855 639.893 548.299C577.761 492.86 443.319 416.885 402.006 401.55C346.476 380.938 315.008 411.794 316.017 454.586Z" fill="url(#paint4_linear_4949_14579)"/>
<g filter="url(#filter0_f_4949_14579)">
<path d="M472.549 586.403C472.549 593.512 443.963 599.275 408.7 599.275C373.438 599.275 344.852 593.512 344.852 586.403C344.852 579.293 373.438 573.53 408.7 573.53C443.963 573.53 472.549 579.293 472.549 586.403Z" fill="#E7CEC6"/>
</g>
<path fill-rule="evenodd" clip-rule="evenodd" d="M402.685 584.493C404.024 584.015 405.497 584.713 405.976 586.052L411.125 600.469C411.603 601.808 410.905 603.281 409.566 603.76C408.227 604.238 406.754 603.54 406.276 602.201L401.127 587.784C400.648 586.445 401.346 584.971 402.685 584.493Z" fill="#94CA9A"/>
<path fill-rule="evenodd" clip-rule="evenodd" d="M390.026 625.105C407.896 620.424 429.848 623.154 438.603 625.081C439.992 625.386 440.87 626.76 440.564 628.148C440.259 629.537 438.885 630.415 437.497 630.109C429.088 628.26 408.063 625.703 391.331 630.086C389.955 630.446 388.548 629.623 388.188 628.247C387.828 626.872 388.651 625.465 390.026 625.105Z" fill="#94CA9A"/>
<path d="M398.917 643.042H428.267C427.408 644.93 423.633 649.015 415.394 650.251C407.155 651.487 400.977 645.96 398.917 643.042Z" fill="#E0D7BA"/>
<path d="M579.134 842.826C568.424 747.259 523.868 727.487 502.928 729.547L517.346 911.824C520.778 935.853 529.085 992.252 534.852 1025.62C540.619 1058.98 515.973 1177.52 502.928 1232.61L563.687 1294.4C584.695 1264.33 582.739 1206.35 579.134 1181.12C583.597 1108.17 589.844 938.393 579.134 842.826Z" fill="url(#paint5_linear_4949_14579)"/>
<path d="M835.043 805.753C835.043 819.119 823.977 829.954 810.327 829.954C796.677 829.954 785.612 819.119 785.612 805.753C785.612 792.387 796.677 781.552 810.327 781.552C823.977 781.552 835.043 792.387 835.043 805.753Z" fill="#FBFEE0"/>
<path d="M309.838 343.367C371.627 255.627 437.192 314.361 462.25 354.695L471.004 431.416C443.885 433.647 373.584 451.085 325.8 441.199C278.017 431.313 269.504 397.604 271.22 381.985C280.694 380.749 300.913 355.725 309.838 343.367Z" fill="#9EEEC8"/>
<path d="M825.528 786.265C823.022 784.31 820.148 782.879 817.069 782.052C813.99 781.226 810.766 781.021 807.583 781.448C804.399 781.876 801.318 782.928 798.515 784.544C795.712 786.16 793.241 788.31 791.245 790.869C789.249 793.428 787.766 796.347 786.881 799.46C785.995 802.572 785.725 805.817 786.085 809.008C786.446 812.2 787.43 815.277 788.981 818.062C790.532 820.847 792.62 823.287 795.126 825.241L810.327 805.753L825.528 786.265Z" fill="#93DEBD"/>
<path fill-rule="evenodd" clip-rule="evenodd" d="M393.825 301.634C394.124 300.243 395.493 299.359 396.883 299.657C407.431 301.924 423.427 306.806 437.212 314.139C444.106 317.805 450.551 322.139 455.49 327.148C460.064 331.788 463.459 337.126 464.581 343.145C475.732 348.206 491.471 354.751 504.042 358.673C510.635 360.73 516.082 361.975 519.501 362.033C520.332 362.047 520.953 361.987 521.392 361.891C521.563 361.853 521.686 361.814 521.773 361.781C521.753 361.663 521.711 361.487 521.622 361.245C519.554 355.606 516.587 352.917 513.968 351.681C511.271 350.407 508.69 350.55 507.282 350.979C505.922 351.393 504.483 350.626 504.069 349.266C503.655 347.905 504.423 346.467 505.783 346.053C508.322 345.28 512.229 345.166 516.166 347.025C520.181 348.92 523.993 352.754 526.456 359.473C526.828 360.487 527.045 361.589 526.888 362.696C526.721 363.874 526.154 364.884 525.27 365.632C523.693 366.964 521.415 367.215 519.415 367.181C515.187 367.11 509.119 365.651 502.509 363.589C489.155 359.422 472.461 352.42 461.178 347.252C460.366 346.88 459.804 346.113 459.695 345.225C459.066 340.102 456.267 335.271 451.823 330.763C447.379 326.256 441.421 322.209 434.794 318.685C421.538 311.634 406.022 306.888 395.802 304.691C394.411 304.393 393.527 303.024 393.825 301.634Z" fill="#78C9A3"/>
<path d="M396.343 398.977C396.343 412.342 382.511 423.177 365.448 423.177C348.386 423.177 334.554 412.342 334.554 398.977C334.554 385.611 348.386 374.776 365.448 374.776C382.511 374.776 396.343 385.611 396.343 398.977Z" fill="#FBFEE0"/>
<path d="M380.895 398.977C380.895 410.067 373.749 419.058 364.933 419.058C356.117 419.058 348.971 410.067 348.971 398.977C348.971 387.886 356.117 378.895 364.933 378.895C373.749 378.895 380.895 387.886 380.895 398.977Z" fill="#040404"/>
<path d="M396.783 408.655C399.015 402.637 398.103 395.734 394.249 389.464C390.395 383.194 383.914 378.07 376.232 375.221C368.549 372.372 360.295 372.03 353.285 374.27C346.274 376.511 341.082 381.151 338.85 387.168L367.816 397.911L396.783 408.655Z" fill="#93DEBD"/>
<path d="M513.226 730.577L498.809 724.398L500.868 798.029L513.226 852.095C521.465 850.447 516.659 770.396 513.226 730.577Z" fill="#FBFEE0"/>
<path fill-rule="evenodd" clip-rule="evenodd" d="M485.432 540.347C485.556 538.931 486.805 537.883 488.222 538.007L553.352 543.717C554.769 543.841 555.816 545.09 555.692 546.507C555.568 547.923 554.319 548.971 552.903 548.847L487.772 543.137C486.356 543.012 485.308 541.763 485.432 540.347Z" fill="#9AE3CE"/>
<path fill-rule="evenodd" clip-rule="evenodd" d="M498.862 524.905C499.011 523.491 500.278 522.465 501.692 522.615L530.489 525.654C531.903 525.803 532.929 527.07 532.779 528.484C532.63 529.898 531.363 530.924 529.949 530.774L501.152 527.735C499.738 527.586 498.713 526.319 498.862 524.905Z" fill="#9AE3CE"/>
<path fill-rule="evenodd" clip-rule="evenodd" d="M498.738 557.178C498.876 555.763 500.136 554.729 501.551 554.868L561.649 560.767C563.064 560.906 564.099 562.165 563.96 563.58C563.821 564.995 562.561 566.03 561.146 565.891L501.048 559.992C499.633 559.853 498.599 558.593 498.738 557.178Z" fill="#9AE3CE"/>
<path fill-rule="evenodd" clip-rule="evenodd" d="M531.85 562.131C532.95 561.23 533.112 559.608 532.211 558.508L503.134 522.979C502.233 521.879 500.611 521.717 499.511 522.617C498.41 523.518 498.248 525.14 499.149 526.24L528.227 561.769C529.127 562.869 530.749 563.031 531.85 562.131Z" fill="#9AE3CE"/>
<path fill-rule="evenodd" clip-rule="evenodd" d="M562.84 564.111C563.894 563.157 563.975 561.529 563.021 560.475L532.136 526.346C531.182 525.292 529.554 525.21 528.499 526.164C527.445 527.119 527.364 528.747 528.318 529.801L559.203 563.93C560.158 564.984 561.786 565.065 562.84 564.111Z" fill="#9AE3CE"/>
<path fill-rule="evenodd" clip-rule="evenodd" d="M502.879 559.149C504.036 558.323 504.305 556.715 503.479 555.558L492.121 539.64C491.295 538.482 489.688 538.214 488.53 539.04C487.373 539.865 487.104 541.473 487.93 542.631L499.288 558.548C500.113 559.706 501.721 559.975 502.879 559.149Z" fill="#9AE3CE"/>
<path fill-rule="evenodd" clip-rule="evenodd" d="M570.871 347.725C572.276 347.942 573.239 349.256 573.023 350.662L563.055 415.278C562.838 416.683 561.523 417.646 560.118 417.43C558.713 417.213 557.749 415.898 557.966 414.493L567.934 349.877C568.15 348.471 569.465 347.508 570.871 347.725Z" fill="#B9FCE8"/>
<path fill-rule="evenodd" clip-rule="evenodd" d="M585.399 362.138C586.8 362.38 587.74 363.711 587.499 365.112L582.578 393.648C582.337 395.05 581.005 395.99 579.604 395.748C578.202 395.506 577.262 394.175 577.504 392.773L582.425 364.238C582.666 362.836 583.998 361.896 585.399 362.138Z" fill="#B9FCE8"/>
<path fill-rule="evenodd" clip-rule="evenodd" d="M553.203 359.898C554.606 360.13 555.556 361.455 555.324 362.857L545.498 422.44C545.267 423.842 543.942 424.792 542.539 424.561C541.136 424.329 540.186 423.005 540.418 421.602L550.244 362.02C550.475 360.617 551.8 359.667 553.203 359.898Z" fill="#B9FCE8"/>
<path fill-rule="evenodd" clip-rule="evenodd" d="M546.091 392.614C546.917 393.771 548.525 394.039 549.682 393.213L587.041 366.527C588.198 365.7 588.466 364.093 587.639 362.936C586.813 361.779 585.205 361.511 584.048 362.337L546.689 389.023C545.532 389.849 545.264 391.457 546.091 392.614Z" fill="#B9FCE8"/>
<path fill-rule="evenodd" clip-rule="evenodd" d="M542.083 423.408C542.966 424.523 544.585 424.711 545.7 423.828L581.78 395.246C582.894 394.363 583.082 392.744 582.199 391.629C581.316 390.515 579.697 390.327 578.582 391.21L542.502 419.792C541.388 420.674 541.2 422.294 542.083 423.408Z" fill="#B9FCE8"/>
<path fill-rule="evenodd" clip-rule="evenodd" d="M550.965 363.901C551.714 365.11 553.3 365.484 554.509 364.736L571.138 354.446C572.347 353.698 572.72 352.111 571.972 350.902C571.224 349.693 569.637 349.319 568.428 350.067L551.8 360.357C550.591 361.105 550.217 362.692 550.965 363.901Z" fill="#B9FCE8"/>
<path fill-rule="evenodd" clip-rule="evenodd" d="M196.855 380.22C197.6 380.635 197.867 381.576 197.452 382.321L176.6 419.694C176.184 420.439 175.243 420.706 174.498 420.29C173.753 419.875 173.486 418.934 173.902 418.189L194.754 380.816C195.169 380.071 196.11 379.804 196.855 380.22Z" fill="#95DDBB"/>
<path fill-rule="evenodd" clip-rule="evenodd" d="M202.48 392.375C203.218 392.804 203.468 393.749 203.039 394.487L193.513 410.873C193.084 411.61 192.138 411.861 191.401 411.432C190.663 411.003 190.413 410.058 190.842 409.32L200.368 392.934C200.797 392.196 201.743 391.946 202.48 392.375Z" fill="#95DDBB"/>
<path fill-rule="evenodd" clip-rule="evenodd" d="M183.238 383.659C183.979 384.082 184.236 385.026 183.812 385.766L164.195 420.082C163.772 420.823 162.828 421.08 162.088 420.657C161.347 420.234 161.09 419.29 161.513 418.549L181.13 384.233C181.554 383.492 182.497 383.235 183.238 383.659Z" fill="#95DDBB"/>
<path fill-rule="evenodd" clip-rule="evenodd" d="M171.618 401.951C171.841 402.775 172.689 403.262 173.513 403.039L202.52 395.185C203.344 394.962 203.831 394.114 203.608 393.29C203.385 392.467 202.537 391.98 201.713 392.203L172.706 400.057C171.882 400.28 171.395 401.128 171.618 401.951Z" fill="#95DDBB"/>
<path fill-rule="evenodd" clip-rule="evenodd" d="M162.135 419.924C162.398 420.736 163.27 421.18 164.081 420.916L192.736 411.608C193.548 411.344 193.992 410.473 193.728 409.662C193.465 408.85 192.593 408.406 191.782 408.67L163.127 417.978C162.315 418.242 161.871 419.113 162.135 419.924Z" fill="#95DDBB"/>
<path fill-rule="evenodd" clip-rule="evenodd" d="M181.159 385.455C181.327 386.291 182.142 386.833 182.978 386.665L195.527 384.144C196.364 383.976 196.905 383.161 196.737 382.325C196.569 381.488 195.755 380.947 194.919 381.115L182.37 383.636C181.533 383.804 180.991 384.618 181.159 385.455Z" fill="#95DDBB"/>
<path fill-rule="evenodd" clip-rule="evenodd" d="M63.3047 548.667C64.0696 548.289 64.9959 548.603 65.3737 549.368L84.3231 587.74C84.7009 588.505 84.387 589.431 83.6221 589.809C82.8572 590.186 81.9308 589.873 81.5531 589.108L62.6036 550.736C62.2259 549.971 62.5397 549.044 63.3047 548.667Z" fill="#95DDBB"/>
<path fill-rule="evenodd" clip-rule="evenodd" d="M76.5058 550.929C77.2773 550.565 78.1979 550.895 78.5621 551.667L86.6527 568.808C87.0168 569.579 86.6866 570.5 85.9151 570.864C85.1436 571.228 84.223 570.898 83.8588 570.126L75.7682 552.985C75.4041 552.214 75.7343 551.293 76.5058 550.929Z" fill="#95DDBB"/>
<path fill-rule="evenodd" clip-rule="evenodd" d="M58.4121 561.832C59.1809 561.462 60.104 561.786 60.4737 562.554L77.6065 598.176C77.9763 598.945 77.6528 599.868 76.884 600.237C76.1151 600.607 75.1921 600.284 74.8223 599.515L57.6896 563.893C57.3198 563.125 57.6433 562.202 58.4121 561.832Z" fill="#95DDBB"/>
<path fill-rule="evenodd" clip-rule="evenodd" d="M66.8857 581.778C67.6904 582.061 68.5725 581.639 68.856 580.834L78.843 552.49C79.1265 551.686 78.7041 550.803 77.8994 550.52C77.0948 550.236 76.2127 550.659 75.9292 551.464L65.9422 579.807C65.6586 580.612 66.0811 581.494 66.8857 581.778Z" fill="#95DDBB"/>
<path fill-rule="evenodd" clip-rule="evenodd" d="M76.3072 599.783C77.125 600.026 77.985 599.561 78.2282 598.743L86.8176 569.864C87.0608 569.046 86.5951 568.186 85.7774 567.943C84.9596 567.7 84.0996 568.166 83.8564 568.983L75.267 597.862C75.0238 598.68 75.4895 599.54 76.3072 599.783Z" fill="#95DDBB"/>
<path fill-rule="evenodd" clip-rule="evenodd" d="M58.7123 564.562C59.4965 564.898 60.4046 564.535 60.7406 563.751L65.7828 551.986C66.1189 551.202 65.7557 550.294 64.9715 549.958C64.1874 549.622 63.2793 549.985 62.9432 550.769L57.901 562.534C57.5649 563.318 57.9282 564.226 58.7123 564.562Z" fill="#95DDBB"/>
<path fill-rule="evenodd" clip-rule="evenodd" d="M577.645 252.229C577.337 253.617 575.962 254.493 574.574 254.185L513.68 240.667C512.292 240.358 511.416 238.983 511.724 237.595C512.032 236.207 513.407 235.332 514.796 235.64L575.689 249.158C577.077 249.466 577.953 250.841 577.645 252.229Z" fill="#95DDBB"/>
<path fill-rule="evenodd" clip-rule="evenodd" d="M563.018 265.164C562.685 266.546 561.295 267.397 559.912 267.065L533.053 260.601C531.67 260.268 530.819 258.878 531.152 257.496C531.484 256.113 532.875 255.262 534.257 255.595L561.117 262.058C562.499 262.391 563.35 263.781 563.018 265.164Z" fill="#95DDBB"/>
<path fill-rule="evenodd" clip-rule="evenodd" d="M567.158 234.651C566.835 236.036 565.451 236.897 564.066 236.574L507.956 223.505C506.571 223.182 505.71 221.798 506.033 220.413C506.355 219.029 507.739 218.167 509.124 218.49L565.234 231.56C566.619 231.882 567.48 233.266 567.158 234.651Z" fill="#95DDBB"/>
<path fill-rule="evenodd" clip-rule="evenodd" d="M536.277 225.714C535.068 226.463 534.696 228.05 535.445 229.258L558.521 266.488C559.27 267.696 560.857 268.069 562.066 267.32C563.274 266.571 563.647 264.984 562.898 263.775L539.822 226.546C539.073 225.337 537.486 224.965 536.277 225.714Z" fill="#95DDBB"/>
<path fill-rule="evenodd" clip-rule="evenodd" d="M507.207 219.981C506.037 220.789 505.744 222.392 506.552 223.562L531.512 259.693C532.32 260.863 533.924 261.156 535.094 260.348C536.264 259.54 536.557 257.936 535.749 256.766L510.788 220.635C509.98 219.466 508.377 219.172 507.207 219.981Z" fill="#95DDBB"/>
<path fill-rule="evenodd" clip-rule="evenodd" d="M563.315 232.14C562.06 232.807 561.584 234.366 562.251 235.622L571.01 252.094C571.678 253.349 573.237 253.825 574.492 253.158C575.748 252.49 576.224 250.931 575.557 249.676L566.797 233.204C566.13 231.949 564.571 231.472 563.315 232.14Z" fill="#95DDBB"/>
<path fill-rule="evenodd" clip-rule="evenodd" d="M269.749 220.823C271.046 220.24 272.57 220.819 273.153 222.116L298.725 279.009C299.308 280.306 298.729 281.83 297.433 282.413C296.136 282.996 294.612 282.417 294.029 281.12L268.456 224.227C267.873 222.93 268.452 221.406 269.749 220.823Z" fill="#8ECAB4"/>
<path fill-rule="evenodd" clip-rule="evenodd" d="M288.863 224.814C290.17 224.254 291.683 224.86 292.243 226.167L303.121 251.562C303.681 252.869 303.076 254.382 301.769 254.942C300.462 255.502 298.948 254.896 298.388 253.589L287.51 228.195C286.95 226.888 287.556 225.374 288.863 224.814Z" fill="#8ECAB4"/>
<path fill-rule="evenodd" clip-rule="evenodd" d="M261.929 239.739C263.232 239.17 264.75 239.765 265.319 241.067L288.391 293.858C288.96 295.161 288.366 296.679 287.063 297.248C285.76 297.818 284.242 297.223 283.673 295.92L260.601 243.129C260.031 241.827 260.626 240.309 261.929 239.739Z" fill="#8ECAB4"/>
<path fill-rule="evenodd" clip-rule="evenodd" d="M273.228 269.836C274.551 270.357 276.046 269.707 276.567 268.384L292.612 227.627C293.133 226.304 292.483 224.809 291.16 224.288C289.837 223.767 288.342 224.418 287.821 225.741L271.776 266.497C271.255 267.82 271.905 269.315 273.228 269.836Z" fill="#8ECAB4"/>
<path fill-rule="evenodd" clip-rule="evenodd" d="M286.014 296.566C287.361 297.02 288.822 296.297 289.277 294.949L303.314 253.339C303.769 251.992 303.045 250.531 301.698 250.077C300.35 249.622 298.89 250.346 298.435 251.693L284.398 293.303C283.943 294.651 284.667 296.111 286.014 296.566Z" fill="#8ECAB4"/>
<path fill-rule="evenodd" clip-rule="evenodd" d="M262.213 244.321C263.499 244.928 265.034 244.378 265.641 243.092L273.607 226.222C274.214 224.937 273.664 223.402 272.378 222.795C271.093 222.188 269.558 222.738 268.951 224.024L260.985 240.893C260.378 242.179 260.928 243.713 262.213 244.321Z" fill="#8ECAB4"/>
<path fill-rule="evenodd" clip-rule="evenodd" d="M707.219 453.27C708.306 452.354 709.931 452.492 710.847 453.579L752.983 503.571C753.9 504.658 753.761 506.282 752.674 507.198C751.587 508.115 749.963 507.976 749.046 506.889L706.91 456.898C705.994 455.811 706.132 454.187 707.219 453.27Z" fill="#83C5B0"/>
<path fill-rule="evenodd" clip-rule="evenodd" d="M727.631 451.798C728.734 450.901 730.356 451.068 731.253 452.172L749.52 474.64C750.417 475.743 750.25 477.364 749.147 478.261C748.044 479.158 746.422 478.991 745.525 477.888L727.258 455.42C726.361 454.317 726.528 452.695 727.631 451.798Z" fill="#83C5B0"/>
<path fill-rule="evenodd" clip-rule="evenodd" d="M704.777 474.586C705.874 473.681 707.496 473.836 708.401 474.933L746.837 521.508C747.742 522.605 747.587 524.228 746.49 525.133C745.394 526.038 743.771 525.882 742.866 524.786L704.43 478.21C703.525 477.114 703.68 475.491 704.777 474.586Z" fill="#83C5B0"/>
<path fill-rule="evenodd" clip-rule="evenodd" d="M724.753 501.454C726.169 501.592 727.428 500.556 727.566 499.141L732.018 453.447C732.156 452.032 731.12 450.773 729.705 450.635C728.29 450.497 727.031 451.532 726.893 452.947L722.441 498.642C722.303 500.057 723.338 501.316 724.753 501.454Z" fill="#83C5B0"/>
<path fill-rule="evenodd" clip-rule="evenodd" d="M745.322 524.719C746.743 524.786 747.949 523.689 748.016 522.269L750.199 476.292C750.267 474.872 749.17 473.665 747.75 473.598C746.33 473.531 745.124 474.627 745.056 476.048L742.873 522.025C742.805 523.445 743.902 524.651 745.322 524.719Z" fill="#83C5B0"/>
<path fill-rule="evenodd" clip-rule="evenodd" d="M706.322 478.904C707.725 479.135 709.05 478.185 709.281 476.782L712.459 457.488C712.691 456.085 711.741 454.76 710.338 454.529C708.935 454.298 707.61 455.248 707.379 456.651L704.201 475.945C703.969 477.348 704.919 478.673 706.322 478.904Z" fill="#83C5B0"/>
<path fill-rule="evenodd" clip-rule="evenodd" d="M595.74 471.424C596.393 470.875 597.367 470.958 597.917 471.61L624.402 503.032C624.952 503.684 624.869 504.659 624.216 505.209C623.564 505.758 622.589 505.675 622.04 505.023L595.555 473.601C595.005 472.949 595.088 471.974 595.74 471.424Z" fill="#9DE1CC"/>
<path fill-rule="evenodd" clip-rule="evenodd" d="M608.569 470.501C609.231 469.962 610.204 470.063 610.742 470.725L622.224 484.847C622.763 485.509 622.662 486.482 622 487.02C621.338 487.558 620.365 487.458 619.827 486.796L608.345 472.674C607.807 472.012 607.907 471.039 608.569 470.501Z" fill="#9DE1CC"/>
<path fill-rule="evenodd" clip-rule="evenodd" d="M594.205 484.823C594.863 484.28 595.837 484.373 596.38 485.031L620.538 514.306C621.081 514.964 620.988 515.938 620.33 516.481C619.672 517.024 618.699 516.931 618.156 516.273L593.997 486.998C593.454 486.34 593.547 485.366 594.205 484.823Z" fill="#9DE1CC"/>
<path fill-rule="evenodd" clip-rule="evenodd" d="M606.721 501.581C607.57 501.664 608.326 501.043 608.408 500.194L611.207 471.473C611.289 470.623 610.668 469.868 609.819 469.785C608.97 469.703 608.215 470.324 608.132 471.173L605.333 499.894C605.251 500.743 605.872 501.499 606.721 501.581Z" fill="#9DE1CC"/>
<path fill-rule="evenodd" clip-rule="evenodd" d="M619.646 516.204C620.498 516.244 621.222 515.586 621.262 514.734L622.635 485.835C622.675 484.983 622.017 484.259 621.165 484.219C620.313 484.178 619.589 484.836 619.549 485.689L618.176 514.588C618.136 515.44 618.794 516.163 619.646 516.204Z" fill="#9DE1CC"/>
<path fill-rule="evenodd" clip-rule="evenodd" d="M595.141 487.408C595.983 487.547 596.778 486.977 596.917 486.135L598.914 474.007C599.053 473.166 598.483 472.371 597.641 472.232C596.799 472.094 596.005 472.664 595.866 473.505L593.868 485.633C593.73 486.475 594.3 487.269 595.141 487.408Z" fill="#9DE1CC"/>
<path fill-rule="evenodd" clip-rule="evenodd" d="M610.768 732.865C611.562 733.178 611.952 734.075 611.639 734.869L596.578 773.104C596.265 773.898 595.368 774.288 594.575 773.975C593.781 773.663 593.391 772.766 593.703 771.972L608.764 733.737C609.077 732.943 609.974 732.553 610.768 732.865Z" fill="#9DE1CC"/>
<path fill-rule="evenodd" clip-rule="evenodd" d="M617.677 743.714C618.465 744.041 618.84 744.945 618.513 745.733L611.544 762.546C611.217 763.335 610.313 763.709 609.525 763.382C608.737 763.055 608.363 762.152 608.69 761.363L615.659 744.55C615.986 743.762 616.889 743.388 617.677 743.714Z" fill="#9DE1CC"/>
<path fill-rule="evenodd" clip-rule="evenodd" d="M598.249 737.882C599.039 738.203 599.42 739.104 599.099 739.894L584.822 775.063C584.501 775.853 583.6 776.234 582.81 775.913C582.019 775.592 581.639 774.691 581.96 773.901L596.237 738.732C596.558 737.942 597.458 737.561 598.249 737.882Z" fill="#9DE1CC"/>
<path fill-rule="evenodd" clip-rule="evenodd" d="M589.452 756.858C589.783 757.645 590.688 758.014 591.475 757.683L618.075 746.497C618.862 746.166 619.231 745.26 618.901 744.474C618.57 743.688 617.664 743.318 616.878 743.649L590.277 754.836C589.491 755.166 589.121 756.072 589.452 756.858Z" fill="#9DE1CC"/>
<path fill-rule="evenodd" clip-rule="evenodd" d="M582.729 775.179C583.098 775.948 584.021 776.272 584.79 775.903L610.869 763.377C611.638 763.008 611.962 762.085 611.593 761.316C611.223 760.547 610.301 760.223 609.532 760.592L583.452 773.118C582.683 773.488 582.359 774.41 582.729 775.179Z" fill="#9DE1CC"/>
<path fill-rule="evenodd" clip-rule="evenodd" d="M596.42 739.934C596.698 740.741 597.577 741.169 598.383 740.891L610.003 736.886C610.81 736.608 611.238 735.728 610.96 734.922C610.682 734.115 609.803 733.687 608.997 733.965L597.377 737.97C596.57 738.248 596.142 739.128 596.42 739.934Z" fill="#9DE1CC"/>
<path fill-rule="evenodd" clip-rule="evenodd" d="M233.415 632.196C234.788 632.563 235.604 633.975 235.237 635.348L218.338 698.507C217.97 699.881 216.559 700.696 215.185 700.329C213.812 699.961 212.996 698.55 213.364 697.176L230.262 634.017C230.63 632.644 232.041 631.828 233.415 632.196Z" fill="#B9F9E6"/>
<path fill-rule="evenodd" clip-rule="evenodd" d="M246.299 648.096C247.666 648.488 248.456 649.913 248.065 651.28L240.086 679.116C239.695 680.483 238.269 681.274 236.902 680.882C235.535 680.49 234.745 679.065 235.137 677.698L243.115 649.862C243.507 648.495 244.932 647.704 246.299 648.096Z" fill="#B9F9E6"/>
<path fill-rule="evenodd" clip-rule="evenodd" d="M214.534 642.387C215.904 642.769 216.705 644.188 216.323 645.558L200.11 703.728C199.728 705.097 198.308 705.898 196.938 705.516C195.569 705.135 194.768 703.715 195.15 702.345L211.363 644.176C211.745 642.806 213.165 642.005 214.534 642.387Z" fill="#B9F9E6"/>
<path fill-rule="evenodd" clip-rule="evenodd" d="M203.925 674.142C204.621 675.381 206.191 675.822 207.43 675.125L247.456 652.637C248.696 651.94 249.136 650.371 248.44 649.131C247.743 647.892 246.174 647.451 244.934 648.148L204.908 670.636C203.669 671.333 203.228 672.902 203.925 674.142Z" fill="#B9F9E6"/>
<path fill-rule="evenodd" clip-rule="evenodd" d="M196.609 704.321C197.367 705.525 198.956 705.887 200.16 705.129L239.12 680.618C240.323 679.861 240.685 678.272 239.928 677.068C239.171 675.865 237.581 675.503 236.378 676.26L197.418 700.771C196.214 701.528 195.852 703.118 196.609 704.321Z" fill="#B9F9E6"/>
<path fill-rule="evenodd" clip-rule="evenodd" d="M211.877 646.124C212.49 647.407 214.027 647.95 215.31 647.337L232.954 638.907C234.236 638.294 234.78 636.757 234.167 635.474C233.553 634.191 232.017 633.648 230.734 634.261L213.09 642.691C211.807 643.304 211.264 644.841 211.877 646.124Z" fill="#B9F9E6"/>
<path fill-rule="evenodd" clip-rule="evenodd" d="M218.998 687.806C220.371 688.173 221.187 689.585 220.819 690.958L203.921 754.117C203.553 755.49 202.142 756.306 200.768 755.939C199.395 755.571 198.579 754.16 198.947 752.786L215.845 689.627C216.213 688.254 217.624 687.438 218.998 687.806Z" fill="#B9F9E6"/>
<path fill-rule="evenodd" clip-rule="evenodd" d="M231.882 703.706C233.249 704.098 234.039 705.523 233.648 706.89L225.669 734.726C225.278 736.093 223.852 736.884 222.485 736.492C221.118 736.1 220.328 734.674 220.72 733.308L228.698 705.471C229.09 704.105 230.515 703.314 231.882 703.706Z" fill="#B9F9E6"/>
<path fill-rule="evenodd" clip-rule="evenodd" d="M200.117 697.997C201.487 698.379 202.288 699.798 201.906 701.168L185.692 759.338C185.311 760.707 183.891 761.508 182.521 761.126C181.151 760.745 180.351 759.325 180.732 757.955L196.946 699.786C197.328 698.416 198.748 697.615 200.117 697.997Z" fill="#B9F9E6"/>
<path fill-rule="evenodd" clip-rule="evenodd" d="M189.508 729.752C190.204 730.991 191.774 731.432 193.013 730.735L233.039 708.247C234.279 707.55 234.719 705.981 234.023 704.741C233.326 703.501 231.757 703.061 230.517 703.758L190.491 726.246C189.251 726.942 188.811 728.512 189.508 729.752Z" fill="#B9F9E6"/>
<path fill-rule="evenodd" clip-rule="evenodd" d="M182.192 759.931C182.95 761.135 184.539 761.497 185.743 760.739L224.703 736.228C225.906 735.471 226.268 733.882 225.511 732.678C224.754 731.475 223.164 731.113 221.961 731.87L183.001 756.381C181.797 757.138 181.435 758.728 182.192 759.931Z" fill="#B9F9E6"/>
<path fill-rule="evenodd" clip-rule="evenodd" d="M197.46 701.734C198.073 703.017 199.61 703.56 200.893 702.947L218.536 694.516C219.819 693.903 220.362 692.366 219.749 691.083C219.136 689.801 217.599 689.257 216.316 689.87L198.673 698.301C197.39 698.914 196.847 700.451 197.46 701.734Z" fill="#B9F9E6"/>
<path d="M62.683 740.875C62.683 759.359 47.6984 774.344 29.214 774.344C10.7297 774.344 -4.25488 759.359 -4.25488 740.875C-4.25488 722.39 10.7297 707.406 29.214 707.406C47.6984 707.406 62.683 722.39 62.683 740.875Z" fill="#FBFEE0"/>
<path d="M52.385 740.36C52.385 752.872 42.2416 763.016 29.7291 763.016C17.2166 763.016 7.07324 752.872 7.07324 740.36C7.07324 727.847 17.2166 717.704 29.7291 717.704C42.2416 717.704 52.385 727.847 52.385 740.36Z" fill="#040404"/>
<path fill-rule="evenodd" clip-rule="evenodd" d="M288.212 396.402C288.212 394.98 289.365 393.828 290.787 393.828H302.629C304.051 393.828 305.204 394.98 305.204 396.402C305.204 397.824 304.051 398.977 302.629 398.977H290.787C289.365 398.977 288.212 397.824 288.212 396.402ZM-51.3173 724.501C-49.9523 724.103 -48.523 724.886 -48.1249 726.251L-44.5205 738.609C-44.1224 739.974 -44.9062 741.403 -46.2712 741.802C-47.6362 742.2 -49.0655 741.416 -49.4636 740.051L-53.068 727.693C-53.4661 726.328 -52.6823 724.899 -51.3173 724.501ZM-21.3055 741.873C-21.0035 743.262 -21.885 744.633 -23.2744 744.935L-35.1172 747.51C-36.5067 747.812 -37.8779 746.93 -38.1799 745.541C-38.482 744.151 -37.6005 742.78 -36.211 742.478L-24.3682 739.904C-22.9788 739.602 -21.6076 740.483 -21.3055 741.873Z" fill="#6EA795"/>
</g>
</g>
<defs>
<filter id="filter0_f_4949_14579" x="319.852" y="548.53" width="177.697" height="75.7453" filterUnits="userSpaceOnUse" color-interpolation-filters="sRGB">
<feFlood flood-opacity="0" result="BackgroundImageFix"/>
<feBlend mode="normal" in="SourceGraphic" in2="BackgroundImageFix" result="shape"/>
<feGaussianBlur stdDeviation="12.5" result="effect1_foregroundBlur_4949_14579"/>
</filter>
<linearGradient id="paint0_linear_4949_14579" x1="288.392" y1="741.905" x2="288.392" y2="1276.89" gradientUnits="userSpaceOnUse">
<stop stop-color="#EDEFE4"/>
<stop offset="1" stop-color="#EADED5"/>
</linearGradient>
<linearGradient id="paint1_linear_4949_14579" x1="427.545" y1="789.276" x2="427.545" y2="1090.5" gradientUnits="userSpaceOnUse">
<stop stop-color="#FCFEE1"/>
<stop offset="1" stop-color="#C0DAA6"/>
</linearGradient>
<linearGradient id="paint2_linear_4949_14579" x1="359.42" y1="722.338" x2="359.42" y2="1057.03" gradientUnits="userSpaceOnUse">
<stop stop-color="#FEFEE2"/>
<stop offset="1" stop-color="#E5FBD0"/>
</linearGradient>
<linearGradient id="paint3_linear_4949_14579" x1="331.036" y1="628.625" x2="331.036" y2="448.923" gradientUnits="userSpaceOnUse">
<stop stop-color="#7AD1A7"/>
<stop offset="1" stop-color="#6AA191"/>
</linearGradient>
<linearGradient id="paint4_linear_4949_14579" x1="815.991" y1="777.433" x2="278.429" y2="395.372" gradientUnits="userSpaceOnUse">
<stop stop-color="#A2F3CC"/>
<stop offset="1" stop-color="#619588"/>
</linearGradient>
<linearGradient id="paint5_linear_4949_14579" x1="543.988" y1="729.406" x2="543.988" y2="1294.4" gradientUnits="userSpaceOnUse">
<stop stop-color="#EDF1E6"/>
<stop offset="1" stop-color="#E9D7CF"/>
</linearGradient>
</defs>
</svg>
