<svg width="800" height="800" viewBox="0 0 800 800" fill="none" xmlns="http://www.w3.org/2000/svg">
<mask id="mask0_4476_778" style="mask-type:alpha" maskUnits="userSpaceOnUse" x="0" y="0" width="800" height="800">
<circle cx="400" cy="400" r="400" fill="url(#paint0_linear_4476_778)"/>
</mask>
<g mask="url(#mask0_4476_778)">
<circle cx="400" cy="400" r="400" fill="url(#paint1_linear_4476_778)"/>
<g opacity="0.9">
<circle cx="400" cy="400" r="400" fill="#787878" style="mix-blend-mode:difference"/>
</g>
<g opacity="0.9">
<path d="M93.7794 216.83C67.0983 173.17 -93.1907 219.862 -170 248.665V594.304H-116.941C291.867 599.357 1105.54 606.431 1089.77 594.304C1074.01 582.176 1047.83 576.112 1036.72 574.596H876.022C903.815 557.415 935.145 523.054 838.122 523.054C716.845 523.054 765.356 530.633 751.712 471.511C738.068 412.389 293.888 489.702 368.171 471.511C442.453 453.319 290.856 333.559 243.861 292.628C206.265 259.883 128.142 306.271 93.7794 333.559C104.897 312.841 120.461 260.489 93.7794 216.83Z" fill="#323232" style="mix-blend-mode:exclusion"/>
</g>
<g opacity="0.9">
<path d="M748.818 218.959C778.676 170.086 958.047 222.353 1044 254.595V641.504H984.624C527.149 647.161 -383.39 655.08 -365.747 641.504C-348.104 627.928 -318.812 621.141 -306.372 619.444H-126.548C-157.65 600.211 -192.71 561.747 -84.137 561.747C51.5787 561.747 -2.70755 570.231 12.5605 504.05C27.8285 437.868 524.887 524.413 441.761 504.05C358.635 483.686 528.28 349.625 580.87 303.807C622.942 267.153 710.365 319.08 748.818 349.625C736.378 326.433 718.961 267.831 748.818 218.959Z" fill="#454545" style="mix-blend-mode:exclusion"/>
</g>
<g filter="url(#filter0_f_4476_778)">
<path d="M702.446 261.802L860 121L756.158 245.436L844.398 261.802L591.954 495.437L638.248 510.392L461 678L598.092 530.144L533.894 503.056L780.712 278.168L702.446 261.802Z" fill="#FFF1E0" style="mix-blend-mode:color-burn"/>
</g>
<g filter="url(#filter1_f_4476_778)">
<path d="M139.554 381.802L-18 241L85.8423 365.436L-2.39808 381.802L250.046 615.437L203.752 630.392L381 798L243.908 650.144L308.106 623.056L61.2885 398.168L139.554 381.802Z" fill="#FFF1E0" style="mix-blend-mode:color-burn"/>
</g>
<path d="M702.446 261.802L860 121L756.158 245.436L844.398 261.802L591.954 495.437L638.248 510.392L461 678L598.092 530.144L533.894 503.056L780.712 278.168L702.446 261.802Z" fill="#F5ECA1"/>
<path d="M139.554 381.802L-18 241L85.8423 365.436L-2.39808 381.802L250.046 615.437L203.752 630.392L381 798L243.908 650.144L308.106 623.056L61.2885 398.168L139.554 381.802Z" fill="#F5ECA1"/>
<path fill-rule="evenodd" clip-rule="evenodd" d="M396.509 109.943C390.908 112.002 377.163 114.883 366.99 109.943C365.273 109.11 363.424 108.068 361.459 106.961L361.459 106.961L361.458 106.961L361.458 106.961L361.458 106.961L361.457 106.961C348.868 99.8702 331.531 90.1055 313.854 115.168C309.406 121.475 305.324 126.904 301.743 131.666L301.743 131.667C297.631 137.135 294.18 141.724 291.597 145.752C290.911 142.901 289.415 140.906 286.821 140.227C275.145 137.172 278.214 170.464 281.207 187.492C276.218 184.15 265.639 173.837 263.244 159.324C260.25 141.182 220.956 151.208 244.533 171.259C263.394 187.301 276.841 188.765 281.207 187.492C283.719 182.092 286.761 174.573 288.984 167.108C289.678 168.153 290.389 169.205 291.1 170.254L291.101 170.256L291.102 170.258C298.755 181.563 306.252 192.638 288.876 193.07C282.218 193.236 273.236 191.55 263.32 189.688C244.829 186.217 223.093 182.136 207.13 188.32C182.606 197.821 152.178 219.196 165.348 244.372C173.199 259.379 181.211 263.922 189.578 268.664C195.246 271.878 201.077 275.183 207.13 281.898C222.116 298.523 227.566 304.698 207.13 311.349C199.549 313.815 192.344 319.484 185.259 325.058C173.242 334.513 161.569 343.696 148.999 336.524C141.967 332.512 135.104 330.265 129.142 328.313L129.141 328.313C118.161 324.718 110.236 322.124 109.942 311.349C108.731 323.382 115.937 349.065 154.449 355.525C187.185 361.016 171.408 366.727 156.674 372.06C149.742 374.57 143.04 376.996 141.732 379.275C140.974 380.597 139.842 382.016 138.519 383.673L138.519 383.673C132.711 390.95 123.248 402.807 125.837 431.052C127.704 451.417 147.741 440.325 165.158 430.684C177.398 423.908 188.344 417.849 190.78 423.927C196.684 438.652 181.697 467.153 158.082 471.428C152.959 472.355 146.576 473.998 139.355 475.856C113.281 482.565 76.2736 492.087 48.1779 480.928C58.472 487.262 80.3316 502.114 85.4181 510.854C89.5532 517.959 94.8409 521.448 103.655 521.19C64.1386 534.153 12.8907 556.794 4 586.936C35.7411 676.281 98.3408 751.008 178.978 798.295C180.067 795.969 180.842 794.326 181.243 793.486C182.557 790.738 182.985 793.647 183.762 798.923C183.87 799.657 183.984 800.436 184.109 801.253C242.242 834.194 309.438 853 381.026 853C549.112 853 692.983 749.324 752.18 602.43C741.547 581.543 729.971 566.216 722.943 556.911L722.941 556.908C721.58 555.105 720.389 553.528 719.408 552.18C718.003 550.249 716.194 548.257 714.057 546.23C714.372 537.796 710.653 525.542 694.43 517.504C668.544 504.679 656.282 490.428 664.456 480.928C665.594 479.607 666.933 478.12 668.392 476.5C677.424 466.471 691.062 451.329 689.889 438.652C688.799 426.872 664.608 411.893 652.649 405.876C664.911 405.559 690.434 400.841 694.43 384.501C698.427 368.16 700.94 358.375 701.697 355.525C698.972 365.183 687.709 384.501 664.456 384.501C635.391 384.501 648.107 363.125 652.649 359.325L652.769 359.224C657.516 355.255 676.163 339.662 664.456 317.999C655.01 300.518 605.114 286.648 581.347 281.898C591.793 281.423 612.774 273.253 613.138 244.372C604.358 254.505 578.986 268.692 547.74 244.372C527.562 228.665 529.931 208.394 533.052 187.096C533.104 187.188 533.156 187.279 533.208 187.37C538.506 188.637 554.825 187.18 577.714 171.22C606.326 151.269 558.64 141.294 555.007 159.345C552.1 173.785 539.263 184.045 533.208 187.37C535.985 174.419 538.815 152.012 533.665 143.532C532.153 138.082 529.704 132.724 525.941 127.519C497.784 88.5677 417.854 100.443 411.95 105.193C407.227 108.993 399.688 109.943 396.509 109.943ZM548.757 150.515C553.033 145.711 561.221 132.45 559.763 117.835C557.94 99.5674 601.497 96.3866 582.452 123.148C567.215 144.558 553.64 150.314 548.757 150.515ZM548.757 150.515C547.237 133.31 541.373 100.573 530.071 107.272C518.77 113.97 537.819 138.892 548.757 150.515ZM268.394 150.45C264.871 145.622 258.124 132.293 259.325 117.604C260.827 99.2439 224.935 96.0469 240.629 122.944C253.184 144.462 264.371 150.247 268.394 150.45ZM283.792 106.987C274.479 100.254 269.646 133.157 268.394 150.45C277.407 138.768 293.105 113.72 283.792 106.987Z" fill="#2C4E60" style="mix-blend-mode:hard-light"/>
<mask id="mask1_4476_778" style="mask-type:alpha" maskUnits="userSpaceOnUse" x="24" y="89" width="749" height="754">
<path fill-rule="evenodd" clip-rule="evenodd" d="M416.509 99.9432C410.908 102.002 397.163 104.883 386.99 99.9432C385.273 99.1096 383.424 98.0681 381.459 96.9615L381.459 96.9613L381.458 96.9612L381.458 96.961L381.458 96.9608L381.457 96.9606C368.868 89.8702 351.531 80.1055 333.854 105.168C329.406 111.475 325.324 116.904 321.743 121.666L321.743 121.667C317.631 127.135 314.18 131.724 311.597 135.752C310.911 132.901 309.415 130.906 306.821 130.227C295.145 127.172 298.214 160.464 301.207 177.492C296.218 174.15 285.639 163.837 283.244 149.324C280.25 131.182 240.956 141.208 264.533 161.259C283.394 177.301 296.841 178.765 301.207 177.492C303.719 172.092 306.761 164.573 308.984 157.108C309.678 158.153 310.389 159.205 311.1 160.254L311.101 160.256L311.102 160.258C318.755 171.563 326.252 182.638 308.876 183.07C302.218 183.236 293.236 181.55 283.32 179.688C264.829 176.217 243.093 172.136 227.13 178.32C202.606 187.821 172.178 209.196 185.348 234.372C193.199 249.379 201.211 253.922 209.578 258.664C215.246 261.878 221.077 265.183 227.13 271.898C242.116 288.523 247.566 294.698 227.13 301.349C219.549 303.815 212.344 309.484 205.259 315.058C193.242 324.513 181.569 333.696 168.999 326.524C161.967 322.512 155.104 320.265 149.142 318.313L149.141 318.313C138.161 314.718 130.236 312.124 129.942 301.349C128.731 313.382 135.937 339.065 174.449 345.525C207.185 351.016 191.408 356.727 176.674 362.06C169.742 364.57 163.04 366.996 161.732 369.275C160.974 370.597 159.842 372.016 158.519 373.673L158.519 373.673C152.711 380.95 143.248 392.807 145.837 421.052C147.704 441.417 167.741 430.325 185.158 420.684C197.398 413.908 208.344 407.849 210.78 413.927C216.684 428.652 201.697 457.153 178.082 461.428C172.959 462.355 166.576 463.998 159.355 465.856C133.281 472.565 96.2736 482.087 68.1779 470.928C78.472 477.262 100.332 492.114 105.418 500.854C109.553 507.959 114.841 511.448 123.655 511.19C84.1386 524.153 32.8907 546.794 24 576.936C55.7411 666.281 118.341 741.008 198.978 788.295C200.067 785.969 200.842 784.326 201.243 783.486C202.557 780.738 202.985 783.647 203.762 788.923C203.87 789.657 203.984 790.436 204.109 791.253C262.242 824.194 329.438 843 401.026 843C569.112 843 712.983 739.324 772.18 592.43C761.547 571.543 749.971 556.216 742.943 546.911L742.941 546.908C741.58 545.105 740.389 543.528 739.408 542.18C738.003 540.249 736.194 538.257 734.057 536.23C734.372 527.796 730.653 515.542 714.43 507.504C688.544 494.679 676.282 480.428 684.456 470.928C685.594 469.607 686.933 468.12 688.392 466.5C697.424 456.471 711.062 441.329 709.889 428.652C708.799 416.872 684.608 401.893 672.649 395.876C684.911 395.559 710.434 390.841 714.43 374.501C718.427 358.16 720.94 348.375 721.697 345.525C718.972 355.183 707.709 374.501 684.456 374.501C655.391 374.501 668.107 353.125 672.649 349.325L672.769 349.224C677.516 345.255 696.163 329.662 684.456 307.999C675.01 290.518 625.114 276.648 601.347 271.898C611.793 271.423 632.774 263.253 633.138 234.372C624.358 244.505 598.986 258.692 567.74 234.372C547.562 218.665 549.931 198.394 553.052 177.096C553.104 177.188 553.156 177.279 553.208 177.37C558.506 178.637 574.825 177.18 597.714 161.22C626.326 141.269 578.64 131.294 575.007 149.345C572.1 163.785 559.263 174.045 553.208 177.37C555.985 164.419 558.815 142.012 553.665 133.532C552.153 128.082 549.704 122.724 545.941 117.519C517.784 78.5677 437.854 90.443 431.95 95.1931C427.227 98.9932 419.688 99.9432 416.509 99.9432ZM568.757 140.515C573.033 135.711 581.221 122.45 579.763 107.835C577.94 89.5674 621.497 86.3866 602.452 113.148C587.215 134.558 573.64 140.314 568.757 140.515ZM568.757 140.515C567.237 123.31 561.373 90.5728 550.071 97.2716C538.77 103.97 557.819 128.892 568.757 140.515ZM288.394 140.45C284.871 135.622 278.124 122.293 279.325 107.604C280.827 89.2439 244.935 86.0469 260.629 112.944C273.184 134.462 284.371 140.247 288.394 140.45ZM303.792 96.9871C294.479 90.2544 289.646 123.157 288.394 140.45C297.407 128.768 313.105 103.72 303.792 96.9871Z" fill="#F1C3A8"/>
</mask>
<g mask="url(#mask1_4476_778)">
<path fill-rule="evenodd" clip-rule="evenodd" d="M86.318 1917.82C60.5224 1950.12 10.7781 1987.33 -10.8696 2001.89C29.2468 2000.31 110.66 1994.2 115.383 1982.42C118.401 1974.89 116.792 1966.74 115.285 1959.12C113.844 1951.83 112.497 1945.01 115.383 1939.67C116.292 1937.99 117.448 1935.61 118.859 1932.7C126.62 1916.73 142.109 1884.86 166.702 1865.57C188.3 1848.62 240.743 1719.42 269.059 1644.21C197.988 1667.39 169.92 1619.35 164.77 1592.43C142.835 1716.62 107.96 1890.72 86.318 1917.82Z" fill="#F1C3A8"/>
<path d="M287.505 1592.43C292.955 1573.05 215.296 1541.29 175.785 1527.83C172.713 1546.6 168.98 1568.6 164.77 1592.43C169.92 1619.35 197.988 1667.39 269.059 1644.21C278.849 1618.21 285.755 1598.66 287.505 1592.43Z" fill="#CB7E73"/>
<path fill-rule="evenodd" clip-rule="evenodd" d="M772.081 1953.92C777.286 1976.72 772.772 1982.42 776.623 1982.42C780.423 1982.42 787.085 1984.58 796.442 1987.62C809.45 1991.84 827.668 1997.75 850.649 2001.89C861.65 2003.88 868.569 2005.34 872.704 2006.41C873.173 2006.91 873.633 2007.39 874.084 2007.87C874.453 2008.26 874.816 2008.64 875.173 2009.02C878.43 2009.02 880.451 2008.41 872.704 2006.41C850.016 1982.38 807.97 1936.08 803.417 1923.99C799.44 1913.43 748.585 1719.3 711.835 1578.18C694.156 1643.92 638.389 1635.98 612.716 1623.78C655.84 1719.29 726.519 1847.96 746.649 1883.62C763.543 1913.54 766.876 1931.12 772.081 1953.92Z" fill="#F1C3A8"/>
<path d="M693.059 1505.98L598.597 1592.43C602.832 1601.87 607.582 1612.41 612.716 1623.78C638.389 1635.98 694.156 1643.92 711.835 1578.18C704.947 1551.73 698.555 1527.15 693.059 1505.98Z" fill="#CB7E73"/>
<path d="M498.684 393.976C465.622 381.816 397.409 388.909 367.435 393.976C354.341 398.993 334.424 406.978 313.846 415.871C345.534 484.446 436.371 580.45 546.216 415.871C530.047 407.391 513.073 399.268 498.684 393.976Z" fill="#CB7E73"/>
<path fill-rule="evenodd" clip-rule="evenodd" d="M313.846 415.871C345.534 484.446 436.371 580.45 546.216 415.871C567.201 426.876 586.83 438.481 597.688 445.277C557.875 627.841 467.075 998.287 422.387 1019.57C366.527 1046.17 275.243 995.342 272.973 957.341C272.619 951.425 271.606 944.812 270.135 937.848C268.883 931.924 267.3 925.745 265.509 919.522C264.258 915.178 262.906 910.812 261.495 906.497C255.091 886.919 247.466 868.38 242.545 857.588C238.76 855.213 228.83 847.803 219.383 837.163C213.167 830.161 209.09 813.679 205.961 801.026C203.146 789.646 203.368 778.988 201.217 783.486L176.693 680.409C169.7 747.616 153.536 884.437 142.938 913.583C142.53 914.559 142.126 915.528 141.725 916.49C136.511 929.01 131.932 940.339 128.554 949.266C111.296 994.867 61.3399 973.017 54.5276 949.266C49.3634 931.261 51.246 886.503 53.0527 843.552C53.6292 829.845 54.1981 816.323 54.5276 803.912C55.4829 767.944 53.9825 764.899 45.957 748.612C42.5357 741.668 37.9285 732.318 31.8203 716.985C14.189 672.726 17.5151 638.366 21.0934 601.4C21.6628 595.518 22.2386 589.57 22.7373 583.506C26.3705 539.33 122.65 509.879 158.073 501.329C183.648 495.156 199.044 483.536 218.104 469.15C225.444 463.61 233.327 457.66 242.545 451.453C257.71 441.24 286.367 427.746 313.846 415.871Z" fill="#F1C3A8"/>
<path d="M201.217 783.486L176.693 680.409C169.7 747.616 153.536 884.437 142.938 913.583C164.34 862.396 197.633 790.984 201.217 783.486Z" fill="#CB7E73"/>
<path fill-rule="evenodd" clip-rule="evenodd" d="M659.452 493.254C680.797 502.279 726.666 524.7 739.382 542.18C740.363 543.528 741.555 545.106 742.918 546.911C763.639 574.347 823.889 654.122 782.981 774.461C775.277 778.8 766.638 781.738 757.548 783.591C749.174 785.298 740.419 786.085 731.662 786.197C727.715 786.248 723.767 786.161 719.854 785.961C716.954 785.812 714.073 785.601 711.225 785.336C690.305 783.388 671.174 778.548 659.452 774.461V493.254ZM659.452 821.487V842.388C659.452 851.914 665.336 873.749 671.3 895.879C676.934 916.787 682.64 937.959 683.522 949.266C685.339 972.542 758.457 980.142 772.081 949.266C785.706 918.39 777.077 857.588 772.081 823.863C761.922 830.946 748.367 833.97 733.933 834.507C726.483 834.785 718.798 834.4 711.225 833.57C707.553 833.168 703.906 832.66 700.326 832.073C698.18 831.721 696.058 831.34 693.968 830.936C680.304 828.293 668.009 824.649 659.452 821.487Z" fill="#F1C3A8"/>
<path d="M733.933 834.507L757.548 783.591C749.174 785.298 740.419 786.085 731.662 786.197L711.225 833.57C718.798 834.4 726.483 834.785 733.933 834.507Z" fill="#F4DE85"/>
<path fill-rule="evenodd" clip-rule="evenodd" d="M772.081 823.863C768.785 801.608 774.634 790.536 779.842 780.675C780.949 778.581 782.026 776.542 782.981 774.461C775.277 778.8 766.638 781.738 757.548 783.591L733.933 834.507C748.367 833.97 761.922 830.946 772.081 823.863ZM719.854 785.961C723.767 786.161 727.715 786.248 731.662 786.197L711.225 833.57C707.553 833.168 703.906 832.66 700.326 832.073L719.854 785.961ZM711.225 785.336C690.305 783.388 671.174 778.548 659.452 774.461V821.487C668.009 824.649 680.304 828.293 693.968 830.936L711.225 785.336Z" fill="#E19059"/>
<path d="M700.326 832.073L719.854 785.961C716.954 785.812 714.073 785.601 711.225 785.336L693.968 830.936C696.058 831.34 698.18 831.721 700.326 832.073Z" fill="#F4DE85"/>
<path d="M270.135 937.848C268.883 931.924 267.3 925.745 265.509 919.522L261.495 906.497C254.724 910.297 238.73 917.517 228.92 915.997C219.111 914.477 238.76 929.931 249.811 937.848H270.135Z" fill="#686349"/>
<path d="M418.3 618.182C402.423 618.973 394.685 623.407 361.078 612.957C382.423 624.357 408.271 725.152 417.392 783.011C413.792 742.901 447.366 624.832 468.711 612.957C437.829 624.832 437.374 617.232 418.3 618.182Z" fill="#E9A196"/>
<path d="M177.724 675.641C177.452 674.571 176.364 673.923 175.293 674.195C174.222 674.467 173.575 675.555 173.847 676.626L177.724 675.641ZM206.667 805.812L204.681 806.049L206.667 805.812ZM326.228 869.56C327.33 869.494 328.171 868.547 328.105 867.444C328.039 866.342 327.091 865.501 325.989 865.567L326.228 869.56ZM321.113 505.604L322.139 507.321L321.113 505.604ZM94.4609 722.617C93.6361 721.882 92.3719 721.955 91.6371 722.779C90.9023 723.604 90.9752 724.868 91.7999 725.603L94.4609 722.617ZM74.8115 878.134C74.0906 878.971 74.1848 880.234 75.0217 880.954C75.8587 881.675 77.1215 881.581 77.8423 880.744L74.8115 878.134ZM145.337 753.489C145.823 752.497 145.412 751.299 144.42 750.814C143.427 750.329 142.23 750.74 141.744 751.732L145.337 753.489ZM115.66 867.715C115.744 868.817 116.705 869.642 117.806 869.558C118.908 869.474 119.732 868.513 119.649 867.412L115.66 867.715ZM361.078 612.957L361.671 611.047C360.687 610.741 359.63 611.234 359.232 612.185C358.835 613.137 359.226 614.235 360.135 614.721L361.078 612.957ZM418.3 618.182L418.201 616.184L418.3 618.182ZM468.711 612.957L469.683 614.705C470.601 614.194 470.967 613.061 470.522 612.11C470.078 611.158 468.973 610.713 467.993 611.09L468.711 612.957ZM418.3 790.612L416.352 791.063L420.278 790.313L418.3 790.612ZM173.847 676.626C178.69 695.701 186.045 725.073 192.371 751.193C198.718 777.404 203.973 800.121 204.681 806.049L208.653 805.575C207.908 799.342 202.566 776.3 196.258 750.252C189.928 724.113 182.569 694.726 177.724 675.641L173.847 676.626ZM204.681 806.049C205.64 814.072 210.581 825.888 217.365 836.351C220.775 841.611 224.7 846.606 228.908 850.67C233.1 854.718 237.667 857.933 242.372 859.487L243.626 855.689C239.703 854.393 235.641 851.611 231.687 847.792C227.748 843.988 224.009 839.246 220.721 834.175C214.107 823.975 209.511 812.752 208.653 805.575L204.681 806.049ZM242.372 859.487C251.22 862.41 268.213 865.158 284.838 867.057C301.474 868.957 318.09 870.046 326.228 869.56L325.989 865.567C318.231 866.031 301.921 864.982 285.292 863.083C268.65 861.182 252.036 858.467 243.626 855.689L242.372 859.487ZM118.757 514.873C124.184 511.288 141.028 503.804 163.523 503.804V499.804C140.241 499.804 122.63 507.52 116.552 511.535L118.757 514.873ZM163.523 503.804C177.652 503.804 189.989 505.796 202.109 507.641C214.193 509.48 226.076 511.176 239.024 510.451L238.8 506.457C226.315 507.157 214.809 505.528 202.711 503.686C190.647 501.85 178.006 499.804 163.523 499.804V503.804ZM239.024 510.451C251.67 509.742 270.53 509.979 287.172 509.92C295.462 509.89 303.2 509.786 309.274 509.449C312.308 509.281 314.967 509.052 317.091 508.738C319.112 508.438 320.964 508.023 322.139 507.321L320.087 503.887C319.671 504.135 318.557 504.477 316.505 504.781C314.556 505.069 312.035 505.29 309.052 505.455C303.091 505.786 295.444 505.89 287.158 505.92C270.647 505.979 251.586 505.741 238.8 506.457L239.024 510.451ZM322.139 507.321C322.806 506.922 324.241 506.696 326.612 506.962C328.871 507.216 331.587 507.866 334.467 508.751C340.218 510.518 346.343 513.135 350.217 515.005L351.956 511.403C347.958 509.473 341.64 506.77 335.642 504.927C332.649 504.007 329.666 503.28 327.058 502.987C324.562 502.707 321.962 502.766 320.087 503.887L322.139 507.321ZM91.7999 725.603C97.7436 730.899 101.365 735.846 103.554 742.326C105.773 748.89 106.571 757.168 106.571 769.236H110.571C110.571 757.078 109.781 748.256 107.344 741.045C104.878 733.749 100.779 728.246 94.4609 722.617L91.7999 725.603ZM106.571 769.236C106.571 803.43 102.65 825.942 96.7563 842.224C90.8772 858.466 82.9933 868.634 74.8115 878.134L77.8423 880.744C86.1612 871.085 94.3995 860.487 100.518 843.585C106.621 826.724 110.571 803.713 110.571 769.236H106.571ZM141.744 751.732C136.693 762.059 129.359 780.181 123.694 801.121C118.033 822.047 114.001 845.926 115.66 867.715L119.649 867.412C118.038 846.26 121.953 822.876 127.555 802.166C133.153 781.472 140.398 763.588 145.337 753.489L141.744 751.732ZM516.26 519.799C522.647 517.127 533.125 513.112 543.757 509.768C554.466 506.4 565.06 503.804 571.802 503.804V499.804C564.375 499.804 553.245 502.591 542.557 505.952C531.79 509.338 521.196 513.398 514.716 516.109L516.26 519.799ZM571.802 503.804C585.608 503.804 597 508.139 600.822 510.212L602.729 506.696C598.377 504.336 586.335 499.804 571.802 499.804V503.804ZM360.484 614.867C377.405 620.128 387.941 621.683 396.313 621.785C400.49 621.836 404.086 621.524 407.595 621.158C411.119 620.79 414.501 620.374 418.4 620.18L418.201 616.184C414.161 616.386 410.621 616.82 407.179 617.18C403.721 617.541 400.306 617.833 396.362 617.785C388.494 617.689 378.357 616.236 361.671 611.047L360.484 614.867ZM418.4 620.18C423.021 619.949 426.506 620.236 429.637 620.62C432.723 620.998 435.705 621.511 438.984 621.664C445.727 621.979 453.854 620.813 469.428 614.824L467.993 611.09C452.685 616.977 445.144 617.948 439.171 617.669C436.092 617.525 433.453 617.058 430.124 616.65C426.841 616.247 423.116 615.94 418.201 616.184L418.4 620.18ZM360.135 614.721C362.39 615.925 364.909 618.442 367.612 622.31C370.289 626.14 373.03 631.126 375.786 637.045C381.297 648.881 386.783 664.257 391.905 681.143C402.147 714.906 410.87 754.479 415.416 783.323L419.367 782.7C414.794 753.684 406.031 713.93 395.733 679.981C390.585 663.011 385.036 647.435 379.412 635.357C376.601 629.319 373.749 624.108 370.891 620.018C368.059 615.966 365.102 612.839 362.02 611.193L360.135 614.721ZM419.384 782.833C418.508 773.079 419.891 758.393 422.86 741.535C425.82 724.724 430.328 705.907 435.615 687.961C440.905 670.009 446.959 652.979 453.001 639.727C456.023 633.098 459.021 627.458 461.895 623.135C464.807 618.755 467.448 615.948 469.683 614.705L467.738 611.209C464.637 612.935 461.56 616.415 458.564 620.921C455.53 625.485 452.432 631.331 449.361 638.068C443.217 651.546 437.101 668.767 431.778 686.831C426.454 704.9 421.91 723.864 418.92 740.842C415.939 757.774 414.475 772.888 415.4 783.19L419.384 782.833ZM420.278 790.313C420.148 789.455 420.003 788.094 419.846 786.64C419.693 785.228 419.53 783.728 419.367 782.7L415.416 783.323C415.56 784.233 415.713 785.622 415.869 787.07C416.021 788.476 416.177 789.946 416.323 790.91L420.278 790.313ZM415.4 783.19C415.573 785.12 415.91 789.155 416.352 791.063L420.249 790.161C419.887 788.6 419.574 784.951 419.384 782.833L415.4 783.19Z" fill="#E9A196"/>
<path fill-rule="evenodd" clip-rule="evenodd" d="M197.584 487.554C205.305 479.478 264.344 443.852 282.056 432.452C296.225 423.332 336.402 408.701 354.719 402.526L369.252 381.151L361.077 326.524L346.091 211.096C347.907 228.83 347.998 268.668 333.829 286.148C326.39 295.325 316.789 298.05 307.851 300.588C295.507 304.092 284.426 307.238 282.056 326.524C280.14 342.112 276.028 347.887 272.387 353C268.262 358.795 264.741 363.739 265.706 381.151C266.117 388.566 266.924 395.252 267.636 401.159C270.072 421.361 271.409 432.452 252.082 432.452C232.099 432.452 237.398 412.502 242.545 402.526C234.976 409.328 222.108 426.356 231.191 440.052C240.274 453.749 218.929 460.01 207.121 461.428C200.46 462.278 186.231 467.268 182.597 480.428C179.053 493.268 159.219 502.084 149.043 505.126C168.272 499.537 190.806 494.644 197.584 487.554ZM308.85 307.999C302.644 307.999 290.684 310.469 292.501 320.349C294.318 330.229 304.158 316.232 308.85 307.999Z" fill="#A47250"/>
<path fill-rule="evenodd" clip-rule="evenodd" d="M386.964 99.9432C397.137 104.883 410.882 102.002 416.483 99.9432C419.662 99.9432 427.201 98.9932 431.924 95.1931C437.828 90.443 517.758 78.5677 545.915 117.519C559.114 135.777 556.147 155.915 553.292 175.289C550.057 197.245 546.966 218.222 567.715 234.372C598.96 258.692 624.332 244.505 633.112 234.372C632.749 263.253 611.767 271.423 601.322 271.898C625.089 276.648 674.984 290.518 684.431 307.999C696.137 329.662 677.49 345.255 672.743 349.224L672.623 349.325C668.081 353.125 655.365 374.501 684.431 374.501C707.683 374.501 718.946 355.183 721.671 345.525C720.914 348.375 718.401 358.16 714.404 374.501C710.408 390.841 684.885 395.559 672.623 395.876C684.582 401.893 708.773 416.872 709.863 428.652C711.036 441.329 697.398 456.471 688.366 466.5C686.907 468.12 685.568 469.607 684.431 470.928C676.256 480.428 688.518 494.679 714.404 507.504C735.113 517.764 735.446 534.896 733.024 542.18L678.073 514.005C676.296 505.188 669.267 485.559 655.365 477.578C641.517 469.629 645.125 456.251 648.771 442.732C649.7 439.285 650.632 435.829 651.278 432.452C654.457 415.827 626.754 401.159 612.675 409.176C598.597 417.194 574.527 381.151 594.055 362.06C609.678 346.788 612.978 332.006 612.675 326.524C608.891 334.091 595.963 348.484 574.527 345.525C554.577 342.77 555.523 338.325 558.995 321.999C560.186 316.398 561.675 309.398 562.719 300.588C565.427 277.738 555.775 274.449 541.951 269.739C534.911 267.34 526.789 264.573 518.667 258.664C499.411 244.657 492.477 218.266 491.418 206.821L470.073 394.082L361.077 326.524L346.091 211.096C347.907 228.83 347.998 268.668 333.829 286.148C326.39 295.325 316.789 298.05 307.851 300.588C295.507 304.092 284.426 307.238 282.056 326.524C280.14 342.112 276.028 347.887 272.387 353C268.262 358.795 264.741 363.739 265.706 381.151C266.117 388.566 266.924 395.252 267.636 401.159C270.072 421.361 271.409 432.452 252.082 432.452C232.099 432.452 237.398 412.502 242.545 402.526C234.976 409.328 222.108 426.356 231.191 440.052C240.274 453.749 218.929 460.01 207.121 461.428C200.46 462.278 186.231 467.268 182.597 480.428C179.053 493.268 159.219 502.084 149.043 505.126C148.789 505.202 148.54 505.275 148.299 505.343C145.887 506.05 143.531 506.768 141.27 507.504C120.833 514.154 111.75 511.779 105.392 500.854C100.306 492.114 78.4461 477.262 68.1521 470.928C96.2477 482.088 133.255 472.565 159.329 465.856C166.551 463.998 172.934 462.355 178.056 461.428C201.672 457.153 216.658 428.652 210.754 413.927C208.318 407.849 197.372 413.908 185.133 420.684C167.716 430.325 147.678 441.417 145.811 421.052C143.222 392.807 152.685 380.95 158.493 373.673C159.816 372.016 160.949 370.597 161.707 369.275C163.014 366.996 169.716 364.57 176.648 362.06C191.382 356.727 207.159 351.016 174.423 345.525C135.911 339.065 128.705 313.382 129.916 301.349C130.211 312.124 138.135 314.718 149.116 318.313C155.078 320.265 161.941 322.512 168.973 326.524C181.544 333.696 193.216 324.513 205.233 315.058C212.318 309.484 219.524 303.815 227.104 301.349C247.54 294.698 242.091 288.523 227.104 271.898C221.051 265.183 215.22 261.878 209.552 258.664C201.186 253.922 193.173 249.379 185.322 234.372C172.152 209.196 202.58 187.821 227.104 178.32C243.067 172.136 264.804 176.217 283.294 179.688C293.21 181.55 302.192 183.236 308.85 183.07C326.226 182.638 318.729 171.563 311.076 160.258L311.075 160.256C310.327 159.151 309.578 158.044 308.85 156.945C302.455 147.283 308.846 138.783 321.717 121.667C325.298 116.904 329.38 111.475 333.829 105.168C351.505 80.1055 368.842 89.8702 381.431 96.9606C383.397 98.0675 385.247 99.1093 386.964 99.9432ZM308.85 307.999C302.644 307.999 290.684 310.469 292.501 320.349C294.318 330.229 304.158 316.232 308.85 307.999Z" fill="#EBAA7F"/>
<path d="M470.073 394.082L594.055 470.928L678.073 514.005C676.296 505.188 669.267 485.559 655.365 477.578C641.517 469.629 645.125 456.251 648.771 442.732C649.7 439.285 650.632 435.829 651.278 432.452C654.457 415.827 626.754 401.159 612.675 409.176C598.597 417.194 574.527 381.151 594.055 362.06C609.678 346.788 612.978 332.006 612.675 326.524C608.891 334.091 595.963 348.484 574.527 345.525C554.577 342.77 555.523 338.325 558.995 321.999C560.186 316.398 561.675 309.398 562.719 300.588C565.427 277.738 555.775 274.449 541.951 269.739C534.911 267.34 526.789 264.573 518.667 258.664C499.411 244.657 492.477 218.266 491.418 206.821L470.073 394.082Z" fill="#A47250"/>
<path d="M553.182 177.37C559.237 174.045 572.075 163.785 574.981 149.345C578.614 131.294 626.3 141.269 597.689 161.22C574.799 177.18 558.48 178.637 553.182 177.37C545.007 162.962 532.2 133.384 546.37 130.344C560.539 127.304 556.815 160.428 553.182 177.37Z" fill="#597C62"/>
<path d="M568.731 140.515C573.007 135.711 581.195 122.45 579.737 107.835C577.915 89.5674 621.472 86.3866 602.426 113.148C587.189 134.558 573.614 140.314 568.731 140.515C557.794 128.892 538.744 103.97 550.046 97.2716C561.347 90.5728 567.212 123.31 568.731 140.515Z" fill="#597C62"/>
<path d="M301.182 177.492C296.192 174.15 285.614 163.837 283.219 149.324C280.225 131.182 240.93 141.208 264.507 161.259C283.368 177.301 296.816 178.765 301.182 177.492C307.918 163.01 318.471 133.283 306.795 130.227C295.119 127.172 298.188 160.464 301.182 177.492Z" fill="#597C62"/>
<path d="M288.369 140.45C284.845 135.622 278.098 122.293 279.299 107.604C280.801 89.2439 244.909 86.0469 260.603 112.944C273.159 134.462 284.345 140.247 288.369 140.45C297.382 128.768 313.079 103.72 303.766 96.9871C294.453 90.2544 289.621 123.157 288.369 140.45Z" fill="#597C62"/>
<path d="M344.728 210.146C347.15 239.755 351.631 301.444 350.178 311.324C348.361 323.674 385.147 358.825 391.505 375.926C396.592 389.606 409.933 391.063 418.713 389.797C427.587 390.665 446.474 388.934 451.026 375.062C456.717 357.722 492.245 321.011 489.916 308.776C488.053 298.988 490.038 237.264 491.264 207.626L414.213 156.47L344.728 210.146Z" fill="#F1C3A8"/>
<path d="M405.13 299.924C413.849 293.463 418.3 295.412 419.663 297.312V301.349C418.754 302.615 417.029 305.909 415.575 310.849C413.759 317.024 407.855 320.349 402.405 328.424C396.955 336.5 396.047 333.65 393.322 342.675C390.597 351.7 408.763 361.2 413.759 351.7C417.755 344.1 419.208 347.583 420.571 350.275V389.286V458.103C421.298 466.843 399.377 472.512 392.414 475.203C397.863 471.403 392.868 464.278 379.698 453.828C366.527 443.377 342.912 431.502 337.008 412.977C331.104 394.451 342.457 403.001 355.174 393.026C367.89 383.051 355.174 371.651 349.27 361.2C343.366 350.75 351.54 347.9 355.174 334.6C358.807 321.299 366.527 323.674 384.239 319.399C401.951 315.124 394.23 307.999 405.13 299.924Z" fill="#EBAA7F"/>
<path d="M434.165 299.709C425.169 293.647 420.949 295.353 419.663 297.312V301.349C420.624 302.573 422.494 306.22 424.151 311.089C426.222 317.176 432.271 320.232 438.059 328.054C443.846 335.875 444.639 332.988 447.737 341.88C450.835 350.773 433.03 361.076 427.639 351.811C423.326 344.399 421.825 347.525 420.571 350.275V389.286V458.103C420.2 466.865 446.978 471.835 454.062 474.211C448.449 470.66 453.161 463.319 465.923 452.291C478.686 441.263 501.851 428.343 507.006 409.575C512.162 390.807 501.141 399.856 487.999 390.462C474.856 381.069 487.125 369.112 492.611 358.409C498.096 347.707 489.793 345.226 485.611 332.105C481.429 318.983 473.795 321.701 455.882 318.225C437.97 314.749 445.411 307.286 434.165 299.709Z" fill="#EBAA7F"/>
<path d="M409.218 245.297C409.823 245.455 410.671 246.722 409.218 250.522C407.401 255.272 402.86 263.348 404.676 271.423C406.129 277.883 407.098 281.398 407.401 282.348C406.493 283.773 404.676 287.003 404.676 288.523C404.676 290.423 406.947 292.323 409.218 292.323C411.488 292.323 411.488 289.473 412.851 289.948C413.941 290.328 418.149 292.323 420.117 293.273C421.992 292.235 425.233 290.922 426.277 290.493C427.583 289.958 427.7 292.816 429.908 292.717C432.117 292.618 434.247 290.614 434.169 288.708C434.107 287.184 432.207 284.023 431.266 282.634C431.521 281.668 432.319 278.1 433.468 271.558C434.903 263.381 430.155 255.48 428.193 250.795C426.624 247.047 427.396 245.74 427.979 245.555C424.227 240.377 421.025 240.072 419.346 240.072C417.347 240.072 412.851 239.977 409.218 245.297Z" fill="url(#paint2_linear_4476_778)"/>
<path fill-rule="evenodd" clip-rule="evenodd" d="M351.539 227.247C355.627 225.98 365.164 223.922 370.614 225.822C373.538 226.841 376.629 229.436 379.851 232.141C384.137 235.738 388.655 239.53 393.321 240.072C401.496 241.022 409.67 240.547 408.762 233.897C408.53 232.197 407.724 230.409 406.587 228.672C407.028 230.952 406.101 233.105 405.583 233.897C406.31 231.997 404.372 226.93 403.312 224.634C400.129 221.344 396.349 218.776 394.229 218.221C390.596 217.271 374.701 214.421 362.439 218.221C352.629 221.261 351.085 225.505 351.539 227.247Z" fill="#EBAA7F"/>
<path fill-rule="evenodd" clip-rule="evenodd" d="M484.609 224.459C480.482 223.346 470.891 221.668 465.539 223.853C462.667 225.025 459.695 227.815 456.596 230.724C452.475 234.592 448.131 238.67 443.503 239.432C435.395 240.768 427.228 240.647 427.855 233.809C428.016 232.061 428.744 230.197 429.804 228.371C429.461 230.721 430.474 232.881 431.024 233.667C430.22 231.757 431.94 226.492 432.9 224.098C435.935 220.593 439.595 217.799 441.684 217.138C445.265 216.005 460.988 212.382 473.368 215.72C483.272 218.39 484.989 222.658 484.609 224.459Z" fill="#EBAA7F"/>
<path fill-rule="evenodd" clip-rule="evenodd" d="M383.33 244.822C378.607 244.442 366.526 250.681 361.077 253.847C363.923 256.304 366.828 258.156 369.705 259.523C375.155 252.515 387.417 243.167 392.867 261.847C394.884 261.33 396.583 260.676 397.863 260.023C395.138 253.847 389.234 245.297 383.33 244.822Z" fill="#D9D9D9"/>
<path d="M392.867 261.847C387.018 263.348 378.489 263.697 369.705 259.523C375.155 252.515 387.417 243.167 392.867 261.847Z" fill="#4D88A8"/>
<path fill-rule="evenodd" clip-rule="evenodd" d="M453.804 243.173C458.565 242.56 471.052 248.565 476.7 251.645C473.926 254.353 471.068 256.431 468.216 257.997C462.403 250.882 449.599 241.619 444.89 261.486C442.827 261.034 441.081 260.424 439.759 259.796C442.25 253.187 447.853 243.939 453.804 243.173Z" fill="#D9D9D9"/>
<path d="M444.89 261.486C450.87 262.797 459.512 262.777 468.216 257.997C462.403 250.882 449.599 241.619 444.89 261.486Z" fill="#4D88A8"/>
<path d="M359.261 254.322C364.711 251.947 374.883 245.202 382.876 244.822C390.869 244.442 395.138 255.272 397.863 260.498M478.527 251.85C472.918 249.654 462.351 243.175 454.256 243.146C446.16 243.116 442.3 254.451 439.766 259.949" stroke="#E89F94" stroke-width="3" stroke-linecap="round"/>
<path d="M413.304 328.899H421.479L427.142 329.146C428.528 329.754 431.397 330.33 434.026 330.757C431.816 328.575 426.654 323.544 423.75 323.674L421.479 323.674H416.483C413.577 323.674 408.612 328.515 406.492 330.936C409.101 330.358 411.945 329.61 413.304 328.899Z" fill="#E9A196"/>
<path d="M401.042 331.749C404.827 331.274 411.488 329.849 413.304 328.899C415.272 329.216 416.938 329.344 418.968 329.344C421.025 329.374 425.635 329.363 427.589 328.958C429.442 329.826 436.155 330.952 439.956 331.258" stroke="#AE5143" stroke-linecap="round"/>
<ellipse cx="12.2969" cy="23.6887" rx="12.2969" ry="23.6887" transform="matrix(0.966477 -0.256752 0.235974 0.971759 348.361 275.362)" fill="#E9A196"/>
<ellipse cx="12.325" cy="23.6543" rx="12.325" ry="23.6543" transform="matrix(-0.947511 -0.319723 -0.29474 0.955577 491.024 276.929)" fill="#E9A196"/>
<path d="M251.628 932.64C440.19 929.6 540.92 591.898 567.714 423.427C617.489 409.367 628.116 443.536 627.208 462.378C635.685 466.02 654.729 476.343 663.086 488.504C673.531 503.704 713.042 630.057 698.055 753.086C683.068 876.114 558.632 997.717 520.483 1028.59C482.335 1059.47 266.16 1059.47 230.737 1011.49C223.783 1002.07 220.369 993.15 219.455 984.892C216.643 959.498 237.463 940.407 251.628 932.64Z" fill="#EFE8DF"/>
<path d="M670.806 740.26C663.388 776.836 626.481 867.754 538.195 938.816C494.038 974.357 440.089 991.339 390.597 998.127C441.462 987.137 480.518 944.991 584.518 790.137C667.718 666.253 676.71 705.268 670.806 740.26Z" fill="#B0AB93"/>
<path d="M456.448 853.313C454.269 848.753 442.824 855.213 437.374 859.013C424.072 876.492 399.767 904.687 372.431 929.01C401.345 905.678 458.628 857.873 456.448 853.313Z" fill="#B0AB93"/>
<path d="M614.946 429.602C619.185 432.452 627.662 443.187 627.662 463.328M627.662 463.328C627.662 469.019 624.831 481.848 620.054 498.954M627.662 463.328C641.135 485.337 669.716 544.84 676.256 606.782C684.431 684.209 687.61 697.984 687.61 716.51M538.195 710.334C564.556 666.219 603.702 557.517 620.054 498.954M620.054 498.954C619.714 571.156 602.866 733.135 538.195 803.437M269.794 996.292C296.126 1001.52 341.135 1004.91 390.597 998.127M390.597 998.127C440.089 991.339 494.038 974.357 538.195 938.816C626.481 867.754 663.388 776.836 670.806 740.26C676.71 705.268 667.718 666.253 584.518 790.137C480.518 944.991 441.462 987.137 390.597 998.127ZM221.654 973.016C228.466 979.192 254.353 987.837 303.401 973.016C325.512 966.335 349.992 948.977 372.431 929.01M372.431 929.01C399.767 904.687 424.072 876.492 437.374 859.013C442.824 855.213 454.269 848.753 456.448 853.313C458.628 857.873 401.345 905.678 372.431 929.01Z" stroke="#B0AB93" stroke-width="6" stroke-linecap="round"/>
<path d="M-101.245 806.287L-381 569.256L-196.616 778.736L-353.297 806.287L94.9468 1199.6L12.7461 1224.77L327.47 1506.93L84.0473 1258.02L198.038 1212.42L-240.214 833.838L-101.245 806.287Z" fill="#FDC986"/>
<path d="M897.694 807.237L1163.1 570.206L988.174 779.686L1136.82 807.237L711.563 1200.55L789.548 1225.72L490.964 1507.88L721.904 1258.97L613.758 1213.37L1029.54 834.788L897.694 807.237Z" fill="#FDC986"/>
</g>
</g>
<defs>
<filter id="filter0_f_4476_778" x="421" y="81" width="479" height="637" filterUnits="userSpaceOnUse" color-interpolation-filters="sRGB">
<feFlood flood-opacity="0" result="BackgroundImageFix"/>
<feBlend mode="normal" in="SourceGraphic" in2="BackgroundImageFix" result="shape"/>
<feGaussianBlur stdDeviation="20" result="effect1_foregroundBlur_4476_778"/>
</filter>
<filter id="filter1_f_4476_778" x="-58" y="201" width="479" height="637" filterUnits="userSpaceOnUse" color-interpolation-filters="sRGB">
<feFlood flood-opacity="0" result="BackgroundImageFix"/>
<feBlend mode="normal" in="SourceGraphic" in2="BackgroundImageFix" result="shape"/>
<feGaussianBlur stdDeviation="20" result="effect1_foregroundBlur_4476_778"/>
</filter>
<linearGradient id="paint0_linear_4476_778" x1="400" y1="0" x2="400" y2="800" gradientUnits="userSpaceOnUse">
<stop stop-color="#5D9DC1"/>
<stop offset="0.824" stop-color="#EBDBD3"/>
<stop offset="1" stop-color="#AFD0D0"/>
</linearGradient>
<linearGradient id="paint1_linear_4476_778" x1="400" y1="0" x2="400" y2="800" gradientUnits="userSpaceOnUse">
<stop stop-color="#5D9DC1"/>
<stop offset="0.824" stop-color="#EBDBD3"/>
<stop offset="1" stop-color="#AFD0D0"/>
</linearGradient>
<linearGradient id="paint2_linear_4476_778" x1="419.213" y1="240.072" x2="419.213" y2="293.273" gradientUnits="userSpaceOnUse">
<stop stop-color="#F1C3A8"/>
<stop offset="1" stop-color="#E89F94"/>
</linearGradient>
</defs>
</svg>
